<?xml version="1.0" standalone="no"?>
<!DOCTYPE svg PUBLIC "-//W3C//DTD SVG 20010904//EN"
 "http://www.w3.org/TR/2001/REC-SVG-20010904/DTD/svg10.dtd">
<svg version="1.0" xmlns="http://www.w3.org/2000/svg"
 width="283.000000pt" height="283.000000pt" viewBox="0 0 283.000000 283.000000"
 preserveAspectRatio="xMidYMid meet">
<metadata>
Created by potrace 1.16, written by Peter Selinger 2001-2019
</metadata>
<g transform="translate(0.000000,283.000000) scale(0.100000,-0.100000)"
fill="#000000" stroke="none">
<path d="M2029 2562 c-118 -185 -289 -475 -289 -489 0 -5 43 -81 96 -168 115
-191 251 -465 292 -590 36 -110 54 -218 46 -279 l-7 -46 36 0 c56 0 188 46
253 88 76 50 171 151 210 227 70 132 82 302 33 450 -33 99 -209 445 -311 610
-119 192 -231 359 -243 362 -5 1 -58 -73 -116 -165z"/>
<path d="M1392 2168 c-58 -88 -218 -346 -296 -481 l-57 -97 59 -98 c87 -143
216 -394 256 -497 51 -132 70 -239 63 -354 -3 -53 -9 -106 -12 -119 -7 -21 -5
-22 60 -22 256 0 485 187 551 450 22 85 15 221 -15 310 -33 98 -167 368 -260
523 -85 142 -289 457 -296 457 -3 0 -26 -33 -53 -72z"/>
<path d="M669 1827 c-46 -64 -290 -457 -350 -564 -103 -184 -193 -404 -214
-524 -9 -47 12 -189 36 -254 28 -76 110 -187 182 -246 107 -90 216 -129 362
-129 173 0 296 51 420 175 132 131 182 256 172 430 -7 114 -42 217 -143 417
-108 213 -419 719 -441 718 -4 0 -15 -11 -24 -23z"/>
</g>
</svg>
