<?xml version="1.0" encoding="UTF-8"?>
<!-- CMYK_PDF_CONVERTED -->
<svg data-vectorized-cmyk="true" data-original-cmyk-pdf="true" xmlns="http://www.w3.org/2000/svg" xmlns:xlink="http://www.w3.org/1999/xlink" width="609.6" height="433.92" viewBox="0 0 609.6 433.92">
<path fill-rule="nonzero" fill="rgb(12.548828%, 41.567993%, 70.196533%)" fill-opacity="1" d="M 97.699219 276.03125 C 72.574219 284.445312 43.773438 276.976562 26.160156 255.203125 C 8.730469 233.65625 7.347656 204.386719 20.46875 181.777344 C 13.128906 203.351562 17.257812 229.039062 33.523438 249.15625 C 50.003906 269.535156 74.738281 278.980469 97.699219 276.03125 "/>
<path fill-rule="nonzero" fill="rgb(12.548828%, 41.567993%, 70.196533%)" fill-opacity="1" d="M 59.863281 146.726562 C 84.992188 138.292969 113.808594 145.761719 131.433594 167.550781 C 148.863281 189.097656 150.242188 218.367188 137.121094 240.976562 C 144.464844 219.398438 140.339844 193.710938 124.066406 173.597656 C 107.574219 153.210938 82.832031 143.769531 59.863281 146.726562 "/>
<path fill-rule="nonzero" fill="rgb(18.03894%, 60.392761%, 19.215393%)" fill-opacity="1" d="M 68.78125 222.867188 L 105.597656 222.867188 L 102.523438 231.28125 L 65.742188 231.28125 Z M 68.78125 222.867188 "/>
<path fill-rule="nonzero" fill="rgb(18.03894%, 60.392761%, 19.215393%)" fill-opacity="1" d="M 72.90625 211.234375 L 109.71875 211.234375 L 106.644531 219.65625 L 69.871094 219.65625 Z M 72.90625 211.234375 "/>
<path fill-rule="nonzero" fill="rgb(18.03894%, 60.392761%, 19.215393%)" fill-opacity="1" d="M 77.296875 199.953125 L 114.105469 199.953125 L 111.03125 208.378906 L 74.253906 208.378906 Z M 77.296875 199.953125 "/>
<path fill-rule="nonzero" fill="rgb(0%, 10.195923%, 17.254639%)" fill-opacity="1" d="M 54.582031 200.339844 L 73.347656 200.339844 L 60.300781 234.910156 L 101.195312 234.910156 L 96.863281 246.78125 L 37.207031 246.78125 "/>
<path fill-rule="nonzero" fill="rgb(0%, 10.195923%, 17.254639%)" fill-opacity="1" d="M 70.132812 156.648438 L 88.894531 156.648438 L 78.601562 184.78125 L 119.496094 184.78125 L 115.167969 196.652344 L 55.507812 196.652344 "/>
<path fill-rule="nonzero" fill="rgb(0%, 10.195923%, 17.254639%)" fill-opacity="1" d="M 163.101562 276.105469 L 175.933594 276.105469 L 175.933594 272.746094 L 167.84375 272.746094 L 167.84375 268.730469 L 175.21875 268.730469 L 175.21875 265.371094 L 167.84375 265.371094 L 167.84375 261.707031 L 175.652344 261.707031 L 175.652344 258.351562 L 163.101562 258.351562 Z M 178.890625 276.105469 L 183.253906 276.105469 L 183.101562 263.972656 L 183.152344 263.972656 L 189.375 276.105469 L 195.269531 276.105469 L 195.269531 258.351562 L 190.929688 258.351562 L 191.007812 270.40625 L 190.957031 270.40625 L 184.9375 258.351562 L 178.890625 258.351562 Z M 215.113281 265.726562 L 207.742188 265.726562 L 207.742188 269.085938 L 210.523438 269.085938 L 210.523438 272.597656 C 210.089844 272.800781 209.476562 272.902344 208.839844 272.902344 C 205.367188 272.902344 202.894531 270.789062 202.894531 267.304688 C 202.894531 263.15625 206.058594 261.554688 209.910156 261.554688 C 211.03125 261.554688 212.765625 261.835938 214.246094 262.699219 L 214.628906 258.832031 C 212.894531 258.171875 210.421875 258.046875 209.246094 258.046875 C 202.714844 258.046875 197.996094 260.613281 197.996094 267.304688 C 197.996094 274.019531 203.480469 276.410156 208.226562 276.410156 C 209.859375 276.410156 212.101562 276.359375 215.113281 275.597656 Z M 218.734375 276.105469 L 223.480469 276.105469 L 223.480469 258.351562 L 218.734375 258.351562 Z M 227.101562 276.105469 L 231.464844 276.105469 L 231.3125 263.972656 L 231.363281 263.972656 L 237.585938 276.105469 L 243.480469 276.105469 L 243.480469 258.351562 L 239.144531 258.351562 L 239.21875 270.40625 L 239.167969 270.40625 L 233.148438 258.351562 L 227.101562 258.351562 Z M 246.746094 276.105469 L 259.574219 276.105469 L 259.574219 272.746094 L 251.488281 272.746094 L 251.488281 268.730469 L 258.863281 268.730469 L 258.863281 265.371094 L 251.488281 265.371094 L 251.488281 261.707031 L 259.296875 261.707031 L 259.296875 258.351562 L 246.746094 258.351562 Z M 262.332031 276.105469 L 275.160156 276.105469 L 275.160156 272.746094 L 267.074219 272.746094 L 267.074219 268.730469 L 274.449219 268.730469 L 274.449219 265.371094 L 267.074219 265.371094 L 267.074219 261.707031 L 274.882812 261.707031 L 274.882812 258.351562 L 262.332031 258.351562 Z M 277.917969 276.105469 L 282.660156 276.105469 L 282.660156 269.085938 L 283.65625 269.085938 C 285.417969 269.085938 286.027344 269.847656 286.996094 272.902344 L 288.019531 276.105469 L 292.96875 276.105469 L 291.234375 271.273438 C 290.339844 269.109375 290.238281 267.761719 288.707031 267.355469 L 288.707031 267.304688 C 291.003906 266.769531 292.125 265.191406 292.125 262.828125 C 292.125 259.773438 289.550781 258.351562 286.386719 258.351562 L 277.917969 258.351562 Z M 282.660156 261.707031 L 283.910156 261.707031 C 285.722656 261.707031 287.382812 262.011719 287.382812 263.667969 C 287.382812 265.675781 285.441406 265.726562 283.910156 265.726562 L 282.660156 265.726562 Z M 295.289062 276.105469 L 300.035156 276.105469 L 300.035156 258.351562 L 295.289062 258.351562 Z M 303.65625 276.105469 L 308.019531 276.105469 L 307.863281 263.972656 L 307.914062 263.972656 L 314.140625 276.105469 L 320.03125 276.105469 L 320.03125 258.351562 L 315.695312 258.351562 L 315.773438 270.40625 L 315.722656 270.40625 L 309.699219 258.351562 L 303.65625 258.351562 Z M 339.878906 265.726562 L 332.507812 265.726562 L 332.507812 269.085938 L 335.285156 269.085938 L 335.285156 272.597656 C 334.855469 272.800781 334.242188 272.902344 333.601562 272.902344 C 330.132812 272.902344 327.660156 270.789062 327.660156 267.304688 C 327.660156 263.15625 330.824219 261.554688 334.675781 261.554688 C 335.796875 261.554688 337.53125 261.835938 339.011719 262.699219 L 339.394531 258.832031 C 337.660156 258.171875 335.183594 258.046875 334.011719 258.046875 C 327.480469 258.046875 322.761719 260.613281 322.761719 267.304688 C 322.761719 274.019531 328.246094 276.410156 332.992188 276.410156 C 334.625 276.410156 336.867188 276.359375 339.878906 275.597656 "/>
<path fill-rule="nonzero" fill="rgb(0%, 10.195923%, 17.254639%)" fill-opacity="1" d="M 350.738281 276.105469 L 360.367188 276.105469 L 360.367188 273.308594 L 354.515625 273.308594 L 354.515625 261.964844 L 350.738281 261.964844 Z M 360.914062 268.101562 L 363.007812 268.101562 L 363.007812 272.398438 C 363.007812 274.910156 363.800781 276.347656 367.070312 276.347656 C 367.984375 276.347656 368.675781 276.226562 369.367188 276.148438 L 369.246094 273.777344 C 368.878906 273.835938 368.492188 273.917969 368.128906 273.917969 C 366.96875 273.917969 366.664062 273.269531 366.664062 271.992188 L 366.664062 268.101562 L 369.226562 268.101562 L 369.226562 265.550781 L 366.664062 265.550781 L 366.664062 262.066406 L 363.070312 263.179688 L 363.070312 265.550781 L 360.914062 265.550781 Z M 382.25 260.910156 L 378.570312 260.910156 L 378.570312 266.90625 L 378.53125 266.90625 C 377.597656 265.691406 376.355469 265.308594 374.894531 265.308594 C 371.96875 265.308594 370.363281 268.042969 370.363281 270.636719 C 370.363281 273.757812 372.050781 276.347656 375.199219 276.347656 C 376.886719 276.347656 378.367188 275.398438 378.835938 274.222656 L 378.875 274.222656 L 378.875 276.105469 L 382.25 276.105469 Z M 374.140625 270.71875 C 374.140625 269.320312 374.933594 268.101562 376.355469 268.101562 C 377.699219 268.101562 378.59375 269.257812 378.59375 270.859375 C 378.59375 272.398438 377.574219 273.554688 376.355469 273.554688 C 374.976562 273.554688 374.140625 272.398438 374.140625 270.71875 Z M 384.707031 276.105469 L 388.121094 276.105469 L 388.121094 272.824219 L 384.707031 272.824219 Z M 384.707031 276.105469 "/>
<path fill-rule="nonzero" fill="rgb(0%, 10.195923%, 17.254639%)" fill-opacity="1" d="M 227.644531 244.644531 L 227.644531 212.574219 L 203.695312 167.945312 L 202.71875 166.125 L 225.292969 166.125 L 225.613281 166.878906 L 233.429688 185.160156 C 234.613281 187.921875 235.605469 190.324219 236.546875 192.664062 C 237.113281 194.082031 237.675781 195.503906 238.253906 196.984375 C 238.78125 195.585938 239.332031 194.171875 239.914062 192.71875 C 240.917969 190.199219 241.917969 187.789062 243.011719 185.171875 L 243.015625 185.164062 L 250.722656 166.886719 L 251.042969 166.125 L 273.335938 166.125 L 272.289062 167.972656 L 247.332031 212.023438 L 247.332031 244.644531 "/>
<path fill-rule="nonzero" fill="rgb(0%, 10.195923%, 17.254639%)" fill-opacity="1" d="M 273.710938 244.644531 L 273.710938 166.125 L 295.8125 166.125 L 296.171875 166.753906 L 312.003906 194.613281 L 312.011719 194.617188 C 314.296875 198.671875 316.585938 203.089844 318.722656 207.570312 C 319.789062 209.800781 320.820312 212.054688 321.800781 214.292969 C 321.59375 211.566406 321.429688 208.800781 321.3125 205.980469 C 321.082031 200.632812 321 195.183594 321 189.472656 L 321 166.125 L 339.328125 166.125 L 339.328125 244.644531 L 319.257812 244.644531 L 318.902344 244.003906 L 302.597656 214.675781 C 300.199219 210.367188 297.664062 205.566406 295.25 200.660156 C 293.972656 198.070312 292.738281 195.464844 291.574219 192.902344 C 291.695312 196.160156 291.789062 199.519531 291.863281 203.003906 C 291.980469 208.652344 292.039062 214.441406 292.039062 220.503906 L 292.039062 244.644531 "/>
<path fill-rule="nonzero" fill="rgb(0%, 10.195923%, 17.254639%)" fill-opacity="1" d="M 351.664062 224.589844 C 354.132812 225.847656 357.328125 227.109375 360.898438 227.996094 C 363.820312 228.71875 366.988281 229.1875 370.207031 229.1875 C 373.835938 229.1875 376.582031 228.484375 378.410156 227.238281 C 380.175781 226.042969 381.078125 224.300781 381.078125 222.195312 C 381.078125 220.21875 380.3125 218.65625 378.578125 217.238281 C 376.652344 215.660156 373.578125 214.230469 369.144531 212.640625 C 362.632812 210.382812 357.234375 207.441406 353.445312 203.613281 C 349.566406 199.703125 347.371094 194.902344 347.371094 189.023438 C 347.371094 181.996094 350.382812 175.808594 355.878906 171.441406 C 361.039062 167.34375 368.382812 164.875 377.453125 164.875 C 381.84375 164.875 385.667969 165.339844 388.976562 166.0625 C 392.292969 166.789062 395.09375 167.78125 397.425781 168.828125 L 398.394531 169.261719 L 398.109375 170.285156 L 394.269531 184.167969 L 393.875 185.601562 L 392.535156 184.953125 C 391.070312 184.246094 389.023438 183.375 386.441406 182.679688 C 383.859375 181.984375 380.742188 181.46875 377.125 181.46875 C 373.855469 181.46875 371.417969 182.144531 369.777344 183.230469 C 368.101562 184.335938 367.277344 185.890625 367.277344 187.5625 C 367.277344 189.53125 368.179688 190.976562 370.121094 192.328125 C 372.3125 193.855469 375.773438 195.289062 380.605469 197.117188 L 380.609375 197.117188 C 387.53125 199.667969 392.644531 202.773438 396.050781 206.644531 C 399.527344 210.59375 401.210938 215.289062 401.210938 220.953125 C 401.210938 228.070312 398.300781 234.660156 392.285156 239.289062 C 387.011719 243.355469 379.355469 245.882812 369.207031 245.882812 C 365.070312 245.882812 360.957031 245.359375 357.296875 244.558594 C 353.0625 243.632812 349.402344 242.3125 347 240.988281 L 346.167969 240.527344 L 346.394531 239.609375 L 349.894531 225.394531 L 350.269531 223.875 "/>
<path fill-rule="nonzero" fill="rgb(0%, 10.195923%, 17.254639%)" fill-opacity="1" d="M 407.902344 166.121094 L 427.484375 166.121094 L 427.484375 197.089844 C 427.96875 196.3125 428.453125 195.554688 428.933594 194.800781 L 428.941406 194.800781 C 429.53125 193.875 430.117188 192.957031 430.71875 191.984375 L 430.746094 191.9375 L 448.046875 166.664062 L 448.421875 166.121094 L 472.777344 166.121094 L 471.21875 168.125 L 446.519531 199.835938 L 472.664062 242.765625 L 473.808594 244.644531 L 450.742188 244.644531 L 450.386719 244.015625 L 432.617188 212.757812 L 427.484375 219.023438 L 427.484375 244.644531 L 407.902344 244.644531 "/>
<path fill-rule="nonzero" fill="rgb(0%, 10.195923%, 17.254639%)" fill-opacity="1" d="M 524.796875 212.484375 L 496.742188 212.484375 L 496.742188 228.058594 L 528.089844 228.058594 L 528.089844 244.644531 L 476.945312 244.644531 L 476.945312 166.121094 L 526.496094 166.121094 L 526.496094 182.710938 L 496.742188 182.710938 L 496.742188 196.019531 L 524.796875 196.019531 "/>
<path fill-rule="nonzero" fill="rgb(0%, 10.195923%, 17.254639%)" fill-opacity="1" d="M 161.421875 165.269531 L 161.421875 229.234375 C 161.421875 232.457031 161.421875 245.472656 177.519531 245.472656 L 218.253906 245.472656 L 218.253906 225.390625 L 184.769531 225.390625 L 184.769531 165.269531 "/>
<path fill-rule="nonzero" fill="rgb(0%, 10.195923%, 17.254639%)" fill-opacity="1" d="M 528.203125 165.269531 L 553.804688 212.921875 L 553.804688 245.472656 L 575.183594 245.472656 L 575.183594 214.332031 L 552.441406 165.269531 "/>
<path fill-rule="nonzero" fill="rgb(12.548828%, 41.567993%, 70.196533%)" fill-opacity="1" d="M 588.304688 191.5625 L 601.308594 165.269531 L 580.296875 165.269531 L 567.285156 191.5625 Z M 588.304688 191.5625 "/>
</svg>
