<?xml version="1.0" encoding="UTF-8"?>
<svg xmlns="http://www.w3.org/2000/svg" xmlns:xlink="http://www.w3.org/1999/xlink" width="396.85156300000006" height="581.410157" viewBox="18.425781 14.019531 396.85156300000006 581.410157">
<path fill-rule="evenodd" fill="rgb(100%, 100%, 100%)" fill-opacity="1" d="M 193.621094 399.089844 L 197.46875 399.089844 L 197.46875 405.167969 C 195.769531 407.066406 193.414062 408.011719 190.410156 408.011719 C 187.890625 408.011719 185.777344 407.179688 184.070312 405.511719 C 182.363281 403.84375 181.507812 401.742188 181.507812 399.199219 C 181.507812 396.65625 182.378906 394.535156 184.121094 392.835938 C 185.859375 391.136719 187.960938 390.289062 190.421875 390.289062 C 192.878906 390.289062 195.015625 391.097656 196.832031 392.714844 L 194.847656 395.582031 C 194.078125 394.914062 193.371094 394.453125 192.726562 394.199219 C 192.078125 393.945312 191.378906 393.816406 190.628906 393.816406 C 189.175781 393.816406 187.949219 394.3125 186.953125 395.300781 C 185.953125 396.289062 185.457031 397.59375 185.457031 399.210938 C 185.457031 400.828125 185.933594 402.125 186.890625 403.097656 C 187.847656 404.070312 188.988281 404.554688 190.308594 404.554688 C 191.632812 404.554688 192.738281 404.300781 193.621094 403.796875 Z M 209.082031 395.425781 L 205.511719 403.667969 L 212.613281 403.667969 Z M 199.808594 407.816406 L 207.210938 390.679688 L 210.914062 390.679688 L 218.316406 407.816406 C 211.457031 407.816406 206.664062 407.816406 199.808594 407.816406 Z M 222.316406 407.816406 L 222.316406 390.679688 L 226.140625 390.679688 L 226.140625 404.410156 L 233.445312 404.410156 L 233.445312 407.816406 Z M 244.128906 400.535156 L 247.167969 390.679688 L 251.164062 390.679688 L 254.179688 400.535156 L 257.585938 390.679688 L 261.730469 390.679688 L 255.75 407.816406 L 252.90625 407.816406 L 249.152344 395.902344 L 245.425781 407.816406 L 242.582031 407.816406 L 236.601562 390.679688 L 240.746094 390.679688 Z M 277.429688 407.816406 L 275.835938 404.113281 L 268.652344 404.113281 L 267.058594 407.816406 L 262.992188 407.816406 L 270.394531 390.679688 L 274.097656 390.679688 L 281.5 407.816406 Z M 272.257812 395.78125 L 270.101562 400.757812 L 274.390625 400.757812 Z M 292.027344 407.816406 L 288.203125 407.816406 L 288.203125 401.050781 L 282.269531 390.679688 L 286.414062 390.679688 L 290.117188 397.054688 L 293.816406 390.679688 L 297.960938 390.679688 L 292.027344 401.050781 Z M 321.832031 390.679688 L 325.65625 390.679688 L 325.65625 407.816406 L 321.832031 407.816406 L 321.832031 401.074219 L 315.015625 401.074219 L 315.015625 407.816406 L 311.191406 407.816406 L 311.191406 390.679688 L 315.015625 390.679688 L 315.015625 397.839844 L 321.832031 397.839844 Z M 344.605469 399.152344 C 344.605469 397.621094 344.117188 396.320312 343.136719 395.238281 C 342.15625 394.160156 340.949219 393.621094 339.519531 393.621094 C 338.089844 393.621094 336.882812 394.160156 335.902344 395.238281 C 334.921875 396.320312 334.433594 397.621094 334.433594 399.152344 C 334.433594 400.679688 334.921875 401.976562 335.902344 403.046875 C 336.882812 404.117188 338.089844 404.652344 339.519531 404.652344 C 340.949219 404.652344 342.15625 404.117188 343.136719 403.046875 C 344.117188 401.976562 344.605469 400.679688 344.605469 399.152344 Z M 345.90625 405.449219 C 344.171875 407.140625 342.039062 407.988281 339.507812 407.988281 C 336.972656 407.988281 334.839844 407.140625 333.109375 405.449219 C 331.375 403.757812 330.511719 401.65625 330.511719 399.136719 C 330.511719 396.621094 331.375 394.515625 333.109375 392.824219 C 334.839844 391.132812 336.972656 390.289062 339.507812 390.289062 C 342.039062 390.289062 344.171875 391.132812 345.90625 392.824219 C 347.640625 394.515625 348.503906 396.621094 348.503906 399.136719 C 348.503906 401.65625 347.640625 403.757812 345.90625 405.449219 Z M 358.445312 393.648438 C 357.808594 393.648438 357.304688 393.796875 356.9375 394.101562 C 356.570312 394.402344 356.386719 394.804688 356.386719 395.300781 C 356.386719 395.800781 356.613281 396.195312 357.0625 396.492188 C 357.511719 396.785156 358.546875 397.132812 360.175781 397.53125 C 361.800781 397.933594 363.0625 398.535156 363.960938 399.335938 C 364.859375 400.136719 365.308594 401.304688 365.308594 402.839844 C 365.308594 404.375 364.734375 405.621094 363.582031 406.578125 C 362.429688 407.535156 360.914062 408.011719 359.035156 408.011719 C 356.320312 408.011719 353.878906 407.007812 351.703125 404.996094 L 353.984375 402.203125 C 355.832031 403.820312 357.539062 404.628906 359.109375 404.628906 C 359.8125 404.628906 360.363281 404.476562 360.761719 404.175781 C 361.164062 403.875 361.363281 403.464844 361.363281 402.949219 C 361.363281 402.433594 361.152344 402.027344 360.726562 401.722656 C 360.300781 401.421875 359.460938 401.117188 358.199219 400.804688 C 356.207031 400.332031 354.75 399.714844 353.824219 398.953125 C 352.902344 398.195312 352.441406 397 352.441406 395.375 C 352.441406 393.75 353.023438 392.492188 354.191406 391.613281 C 355.359375 390.730469 356.820312 390.289062 358.570312 390.289062 C 359.710938 390.289062 360.855469 390.484375 362 390.875 C 363.144531 391.269531 364.140625 391.824219 364.992188 392.542969 L 363.054688 395.339844 C 361.566406 394.210938 360.03125 393.648438 358.445312 393.648438 Z M 376.945312 393.988281 L 376.945312 407.816406 L 373.121094 407.816406 L 373.121094 393.988281 L 368.269531 393.988281 L 368.269531 390.679688 L 381.800781 390.679688 L 381.800781 393.988281 Z M 398.78125 390.679688 L 398.78125 394.085938 L 390.25 394.085938 L 390.25 397.617188 L 397.921875 397.617188 L 397.921875 400.878906 L 390.25 400.878906 L 390.25 404.433594 L 399.050781 404.433594 L 399.050781 407.816406 L 386.425781 407.816406 L 386.425781 390.679688 Z M 404.144531 407.816406 L 404.144531 390.679688 L 407.96875 390.679688 L 407.96875 404.410156 L 415.277344 404.410156 L 415.277344 407.816406 Z M 404.144531 407.816406 "/>
<path fill-rule="nonzero" fill="rgb(94.902039%, 38.038635%, 14.117432%)" fill-opacity="1" d="M 252.722656 425.917969 L 256.523438 425.917969 L 256.523438 431.921875 C 254.847656 433.796875 252.519531 434.730469 249.550781 434.730469 C 247.0625 434.730469 244.976562 433.910156 243.289062 432.261719 C 241.601562 430.617188 240.761719 428.535156 240.761719 426.027344 C 240.761719 423.515625 241.621094 421.421875 243.339844 419.742188 C 245.058594 418.0625 247.132812 417.222656 249.5625 417.222656 C 251.992188 417.222656 254.101562 418.023438 255.894531 419.621094 L 253.933594 422.453125 C 253.175781 421.792969 252.476562 421.335938 251.839844 421.085938 C 251.203125 420.835938 250.511719 420.710938 249.769531 420.710938 C 248.332031 420.710938 247.121094 421.199219 246.136719 422.175781 C 245.152344 423.152344 244.660156 424.441406 244.660156 426.039062 C 244.660156 427.636719 245.128906 428.917969 246.074219 429.875 C 247.019531 430.835938 248.144531 431.316406 249.453125 431.316406 C 250.761719 431.316406 251.851562 431.066406 252.722656 430.566406 Z M 280.410156 423.230469 C 280.410156 425.941406 279.339844 427.691406 277.191406 428.484375 L 281.476562 434.539062 L 276.828125 434.539062 L 273.074219 429.136719 L 270.457031 429.136719 L 270.457031 434.539062 L 266.679688 434.539062 L 266.679688 417.609375 L 273.097656 417.609375 C 275.730469 417.609375 277.605469 418.054688 278.730469 418.941406 C 279.851562 419.832031 280.410156 421.257812 280.410156 423.230469 Z M 273.21875 425.867188 C 274.511719 425.867188 275.390625 425.660156 275.859375 425.238281 C 276.328125 424.820312 276.5625 424.152344 276.5625 423.242188 C 276.5625 422.328125 276.320312 421.703125 275.835938 421.363281 C 275.351562 421.027344 274.503906 420.855469 273.292969 420.855469 L 270.457031 420.855469 L 270.457031 425.867188 Z M 303.863281 425.976562 C 303.863281 424.46875 303.378906 423.179688 302.410156 422.113281 C 301.441406 421.050781 300.25 420.515625 298.839844 420.515625 C 297.425781 420.515625 296.234375 421.050781 295.265625 422.113281 C 294.296875 423.179688 293.8125 424.46875 293.8125 425.976562 C 293.8125 427.488281 294.296875 428.769531 295.265625 429.828125 C 296.234375 430.886719 297.425781 431.414062 298.839844 431.414062 C 300.25 431.414062 301.441406 430.886719 302.410156 429.828125 C 303.378906 428.769531 303.863281 427.488281 303.863281 425.976562 Z M 305.148438 432.203125 C 303.433594 433.871094 301.328125 434.707031 298.824219 434.707031 C 296.324219 434.707031 294.214844 433.871094 292.503906 432.203125 C 290.792969 430.53125 289.9375 428.453125 289.9375 425.964844 C 289.9375 423.480469 290.792969 421.402344 292.503906 419.730469 C 294.214844 418.058594 296.324219 417.222656 298.824219 417.222656 C 301.328125 417.222656 303.433594 418.058594 305.148438 419.730469 C 306.859375 421.402344 307.714844 423.480469 307.714844 425.964844 C 307.714844 428.453125 306.859375 430.53125 305.148438 432.203125 Z M 322.179688 430.167969 C 322.808594 430.949219 323.65625 431.34375 324.722656 431.34375 C 325.789062 431.34375 326.632812 430.949219 327.253906 430.167969 C 327.875 429.382812 328.1875 428.3125 328.1875 426.957031 L 328.1875 417.609375 L 331.964844 417.609375 L 331.964844 427.078125 C 331.964844 429.535156 331.285156 431.417969 329.929688 432.734375 C 328.574219 434.050781 326.839844 434.707031 324.722656 434.707031 C 322.609375 434.707031 320.867188 434.046875 319.503906 432.722656 C 318.140625 431.398438 317.457031 429.515625 317.457031 427.078125 L 317.457031 417.609375 L 321.234375 417.609375 L 321.234375 426.957031 C 321.234375 428.3125 321.550781 429.382812 322.179688 430.167969 Z M 348.660156 417.609375 C 351.257812 417.609375 353.152344 418.113281 354.335938 419.125 C 355.523438 420.132812 356.117188 421.683594 356.117188 423.773438 C 356.117188 425.863281 355.507812 427.394531 354.289062 428.363281 C 353.070312 429.332031 351.210938 429.816406 348.707031 429.816406 L 346.453125 429.816406 L 346.453125 434.539062 L 342.675781 434.539062 L 342.675781 417.609375 Z M 348.996094 426.546875 C 350.257812 426.546875 351.113281 426.292969 351.566406 425.785156 C 352.015625 425.277344 352.242188 424.53125 352.242188 423.554688 C 352.242188 422.578125 351.949219 421.886719 351.359375 421.472656 C 350.769531 421.0625 349.851562 420.855469 348.609375 420.855469 L 346.453125 420.855469 L 346.453125 426.546875 Z M 348.996094 426.546875 "/>
<path fill-rule="evenodd" fill="rgb(100%, 100%, 100%)" fill-opacity="1" d="M 328.613281 298.050781 L 350.308594 298.050781 C 351.835938 298.050781 353.085938 299.300781 353.085938 300.828125 L 353.085938 306.296875 C 353.085938 307.824219 351.835938 309.074219 350.308594 309.074219 L 332.765625 309.074219 L 332.765625 309.09375 L 251.746094 309.09375 L 251.746094 348.898438 L 332.765625 348.898438 L 332.765625 348.910156 L 342.75 348.910156 L 342.75 338.007812 L 285.433594 338.007812 L 285.433594 327.554688 L 351.046875 327.554688 C 352.09375 327.554688 352.945312 328.40625 352.945312 329.453125 L 352.945312 357.019531 C 352.945312 358.066406 352.09375 358.917969 351.046875 358.917969 L 244.75 358.917969 C 242.796875 358.917969 241.199219 357.320312 241.199219 355.367188 L 241.199219 301.601562 C 241.199219 299.648438 242.796875 298.050781 244.75 298.050781 Z M 328.613281 298.050781 "/>
<path fill-rule="evenodd" fill="rgb(94.902039%, 38.038635%, 14.117432%)" fill-opacity="1" d="M 334.597656 290.257812 L 342.335938 290.257812 C 345.351562 290.257812 347.820312 292.722656 347.820312 295.742188 L 347.820312 295.953125 L 329.113281 295.953125 L 329.113281 295.742188 C 329.113281 292.722656 331.582031 290.257812 334.597656 290.257812 "/>
<path fill-rule="evenodd" fill="rgb(94.902039%, 38.038635%, 14.117432%)" fill-opacity="1" d="M 334.597656 320.074219 L 342.335938 320.074219 C 345.351562 320.074219 347.820312 322.542969 347.820312 325.558594 L 347.820312 325.769531 L 329.113281 325.769531 L 329.113281 325.558594 C 329.113281 322.542969 331.582031 320.074219 334.597656 320.074219 "/>
<path fill-rule="evenodd" fill="rgb(94.902039%, 38.038635%, 14.117432%)" fill-opacity="1" d="M 263.519531 293.773438 L 273.976562 293.773438 L 269.503906 328.058594 L 282.328125 328.058594 L 286.800781 293.773438 L 297.253906 293.773438 L 287.761719 366.5625 L 277.308594 366.5625 L 281.039062 337.9375 L 268.21875 337.9375 L 264.484375 366.5625 L 254.03125 366.5625 Z M 263.519531 293.773438 "/>
<path fill-rule="evenodd" fill="rgb(100%, 100%, 100%)" fill-opacity="1" d="M 217.527344 14.921875 L 406.324219 14.921875 L 406.324219 205.445312 L 217.527344 205.445312 Z M 217.527344 14.921875 "/>
<path fill-rule="evenodd" fill="rgb(94.902039%, 38.038635%, 14.117432%)" fill-opacity="1" d="M 225.300781 22.695312 L 398.550781 22.695312 L 398.550781 197.671875 L 225.300781 197.671875 Z M 225.300781 22.695312 "/>
<path fill-rule="nonzero" fill="rgb(100%, 100%, 100%)" fill-opacity="1" d="M 236.648438 132.652344 L 242.273438 132.652344 C 242.394531 132.652344 242.503906 132.699219 242.59375 132.785156 C 242.6875 132.871094 242.730469 132.980469 242.730469 133.113281 C 242.730469 133.246094 242.6875 133.355469 242.59375 133.433594 C 242.503906 133.515625 242.394531 133.558594 242.273438 133.558594 L 237 133.558594 L 237.152344 133.296875 L 237.152344 137.605469 L 236.984375 137.40625 L 241.582031 137.40625 C 241.707031 137.40625 241.8125 137.449219 241.90625 137.542969 C 241.996094 137.636719 242.042969 137.742188 242.042969 137.863281 C 242.042969 137.996094 241.996094 138.105469 241.90625 138.1875 C 241.8125 138.269531 241.707031 138.308594 241.582031 138.308594 L 237.015625 138.308594 L 237.152344 138.15625 L 237.152344 142.570312 L 237.078125 142.476562 L 242.273438 142.476562 C 242.394531 142.476562 242.503906 142.523438 242.59375 142.617188 C 242.6875 142.707031 242.730469 142.816406 242.730469 142.9375 C 242.730469 143.070312 242.6875 143.175781 242.59375 143.257812 C 242.503906 143.339844 242.394531 143.382812 242.273438 143.382812 L 236.648438 143.382812 C 236.527344 143.382812 236.417969 143.335938 236.328125 143.242188 C 236.234375 143.152344 236.1875 143.042969 236.1875 142.921875 L 236.1875 133.113281 C 236.1875 132.992188 236.234375 132.882812 236.328125 132.792969 C 236.417969 132.699219 236.527344 132.652344 236.648438 132.652344 Z M 256.460938 132.59375 C 256.59375 132.59375 256.703125 132.640625 256.789062 132.738281 C 256.875 132.835938 256.917969 132.941406 256.917969 133.050781 C 256.917969 133.105469 256.910156 133.152344 256.898438 133.199219 C 256.882812 133.242188 256.859375 133.292969 256.828125 133.34375 L 253.226562 138.292969 L 253.410156 137.695312 L 253.410156 142.921875 C 253.410156 143.042969 253.363281 143.152344 253.273438 143.242188 C 253.179688 143.335938 253.066406 143.382812 252.933594 143.382812 C 252.800781 143.382812 252.691406 143.335938 252.605469 143.242188 C 252.519531 143.152344 252.476562 143.042969 252.476562 142.921875 L 252.476562 137.804688 L 252.550781 138.171875 L 249.042969 133.375 C 249 133.324219 248.96875 133.269531 248.949219 133.214844 C 248.929688 133.15625 248.917969 133.105469 248.917969 133.050781 C 248.917969 132.917969 248.972656 132.808594 249.082031 132.722656 C 249.1875 132.636719 249.296875 132.59375 249.410156 132.59375 C 249.5625 132.59375 249.691406 132.664062 249.792969 132.808594 L 253.089844 137.296875 L 252.859375 137.265625 L 256.0625 132.808594 C 256.164062 132.664062 256.296875 132.59375 256.460938 132.59375 Z M 264.332031 143.382812 C 264.179688 143.382812 264.054688 143.335938 263.957031 143.242188 C 263.859375 143.152344 263.8125 143.042969 263.8125 142.921875 L 263.8125 133.113281 C 263.8125 132.992188 263.859375 132.882812 263.949219 132.792969 C 264.042969 132.699219 264.148438 132.652344 264.273438 132.652344 L 268.410156 132.652344 C 268.992188 132.652344 269.511719 132.777344 269.972656 133.03125 C 270.433594 133.28125 270.792969 133.625 271.054688 134.0625 C 271.3125 134.503906 271.445312 135 271.445312 135.550781 C 271.445312 136 271.363281 136.414062 271.199219 136.792969 C 271.035156 137.167969 270.804688 137.488281 270.507812 137.75 C 270.214844 138.011719 269.882812 138.203125 269.511719 138.324219 L 268.976562 138.15625 C 269.355469 138.1875 269.707031 138.304688 270.035156 138.515625 C 270.359375 138.726562 270.625 139.011719 270.824219 139.375 C 271.023438 139.738281 271.128906 140.171875 271.136719 140.683594 C 271.148438 141.125 271.171875 141.464844 271.207031 141.710938 C 271.242188 141.957031 271.296875 142.140625 271.367188 142.261719 C 271.4375 142.386719 271.53125 142.484375 271.644531 142.554688 C 271.746094 142.617188 271.816406 142.703125 271.851562 142.816406 C 271.886719 142.925781 271.875 143.035156 271.8125 143.136719 C 271.769531 143.21875 271.710938 143.277344 271.636719 143.3125 C 271.558594 143.347656 271.480469 143.367188 271.398438 143.367188 C 271.316406 143.367188 271.234375 143.347656 271.152344 143.304688 C 271.007812 143.222656 270.863281 143.09375 270.714844 142.921875 C 270.566406 142.75 270.445312 142.492188 270.347656 142.15625 C 270.25 141.820312 270.203125 141.347656 270.203125 140.746094 C 270.203125 140.347656 270.136719 140.019531 270.011719 139.765625 C 269.882812 139.507812 269.71875 139.3125 269.519531 139.175781 C 269.320312 139.035156 269.101562 138.941406 268.859375 138.882812 C 268.621094 138.828125 268.394531 138.800781 268.179688 138.800781 L 264.609375 138.800781 L 264.777344 138.585938 L 264.777344 142.921875 C 264.777344 143.042969 264.734375 143.152344 264.65625 143.242188 C 264.574219 143.335938 264.464844 143.382812 264.332031 143.382812 Z M 264.609375 137.957031 L 268.457031 137.957031 C 268.800781 137.925781 269.128906 137.8125 269.4375 137.613281 C 269.742188 137.414062 269.992188 137.140625 270.179688 136.792969 C 270.367188 136.445312 270.464844 136.039062 270.464844 135.582031 C 270.464844 135 270.265625 134.515625 269.871094 134.132812 C 269.480469 133.75 268.964844 133.558594 268.332031 133.558594 L 264.671875 133.558594 L 264.777344 133.34375 L 264.777344 138.171875 Z M 279.714844 132.652344 L 285.339844 132.652344 C 285.460938 132.652344 285.570312 132.699219 285.660156 132.785156 C 285.753906 132.871094 285.800781 132.980469 285.800781 133.113281 C 285.800781 133.246094 285.753906 133.355469 285.660156 133.433594 C 285.570312 133.515625 285.460938 133.558594 285.339844 133.558594 L 280.066406 133.558594 L 280.222656 133.296875 L 280.222656 137.605469 L 280.050781 137.40625 L 284.648438 137.40625 C 284.773438 137.40625 284.878906 137.449219 284.972656 137.542969 C 285.0625 137.636719 285.109375 137.742188 285.109375 137.863281 C 285.109375 137.996094 285.0625 138.105469 284.972656 138.1875 C 284.878906 138.269531 284.773438 138.308594 284.648438 138.308594 L 280.082031 138.308594 L 280.222656 138.15625 L 280.222656 142.570312 L 280.144531 142.476562 L 285.339844 142.476562 C 285.460938 142.476562 285.570312 142.523438 285.660156 142.617188 C 285.753906 142.707031 285.800781 142.816406 285.800781 142.9375 C 285.800781 143.070312 285.753906 143.175781 285.660156 143.257812 C 285.570312 143.339844 285.460938 143.382812 285.339844 143.382812 L 279.714844 143.382812 C 279.59375 143.382812 279.484375 143.335938 279.394531 143.242188 C 279.300781 143.152344 279.253906 143.042969 279.253906 142.921875 L 279.253906 133.113281 C 279.253906 132.992188 279.300781 132.882812 279.394531 132.792969 C 279.484375 132.699219 279.59375 132.652344 279.714844 132.652344 "/>
<path fill-rule="nonzero" fill="rgb(100%, 100%, 100%)" fill-opacity="1" d="M 306.78125 143.535156 C 306.003906 143.546875 305.332031 143.421875 304.757812 143.167969 C 304.1875 142.910156 303.640625 142.527344 303.117188 142.019531 C 303.066406 141.976562 303.023438 141.925781 302.988281 141.863281 C 302.953125 141.804688 302.933594 141.730469 302.933594 141.648438 C 302.933594 141.527344 302.984375 141.414062 303.082031 141.3125 C 303.175781 141.210938 303.289062 141.160156 303.410156 141.160156 C 303.53125 141.160156 303.644531 141.210938 303.746094 141.3125 C 304.144531 141.742188 304.597656 142.070312 305.101562 142.292969 C 305.609375 142.519531 306.152344 142.628906 306.734375 142.628906 C 307.226562 142.628906 307.664062 142.554688 308.046875 142.402344 C 308.429688 142.246094 308.734375 142.027344 308.957031 141.742188 C 309.183594 141.457031 309.292969 141.125 309.292969 140.746094 C 309.292969 140.277344 309.167969 139.894531 308.910156 139.605469 C 308.65625 139.3125 308.320312 139.074219 307.898438 138.882812 C 307.480469 138.695312 307.015625 138.523438 306.503906 138.371094 C 306.085938 138.246094 305.6875 138.105469 305.308594 137.949219 C 304.933594 137.789062 304.59375 137.597656 304.296875 137.367188 C 304.003906 137.136719 303.773438 136.851562 303.609375 136.515625 C 303.445312 136.179688 303.363281 135.769531 303.363281 135.289062 C 303.363281 134.75 303.507812 134.269531 303.792969 133.847656 C 304.078125 133.429688 304.484375 133.101562 305.011719 132.859375 C 305.539062 132.621094 306.148438 132.5 306.84375 132.5 C 307.445312 132.5 308.027344 132.601562 308.582031 132.808594 C 309.140625 133.011719 309.582031 133.3125 309.90625 133.710938 C 310.0625 133.875 310.136719 134.023438 310.136719 134.15625 C 310.136719 134.257812 310.085938 134.359375 309.984375 134.460938 C 309.882812 134.5625 309.769531 134.617188 309.648438 134.617188 C 309.546875 134.617188 309.457031 134.578125 309.386719 134.507812 C 309.210938 134.292969 308.992188 134.101562 308.726562 133.933594 C 308.460938 133.765625 308.167969 133.632812 307.847656 133.542969 C 307.523438 133.449219 307.191406 133.40625 306.84375 133.40625 C 306.363281 133.40625 305.929688 133.480469 305.546875 133.625 C 305.164062 133.777344 304.863281 133.988281 304.644531 134.261719 C 304.421875 134.539062 304.3125 134.871094 304.3125 135.257812 C 304.3125 135.6875 304.4375 136.039062 304.679688 136.316406 C 304.925781 136.59375 305.25 136.820312 305.648438 137 C 306.046875 137.175781 306.46875 137.34375 306.917969 137.496094 C 307.359375 137.621094 307.78125 137.761719 308.183594 137.917969 C 308.585938 138.078125 308.945312 138.273438 309.257812 138.507812 C 309.566406 138.742188 309.8125 139.039062 309.992188 139.398438 C 310.171875 139.753906 310.261719 140.203125 310.261719 140.746094 C 310.261719 141.265625 310.113281 141.738281 309.816406 142.15625 C 309.519531 142.574219 309.113281 142.90625 308.597656 143.152344 C 308.082031 143.398438 307.476562 143.523438 306.78125 143.535156 Z M 327.996094 144.238281 C 328.105469 144.238281 328.203125 144.277344 328.285156 144.355469 C 328.367188 144.429688 328.40625 144.53125 328.40625 144.652344 C 328.40625 144.828125 328.320312 144.996094 328.140625 145.160156 C 327.960938 145.324219 327.726562 145.472656 327.433594 145.613281 C 327.144531 145.75 326.835938 145.855469 326.515625 145.933594 C 326.195312 146.011719 325.890625 146.046875 325.605469 146.046875 C 325 146.046875 324.496094 145.980469 324.085938 145.847656 C 323.675781 145.714844 323.320312 145.5625 323.011719 145.390625 C 322.707031 145.214844 322.394531 145.0625 322.078125 144.929688 C 321.761719 144.796875 321.382812 144.730469 320.945312 144.730469 C 320.761719 144.730469 320.601562 144.761719 320.460938 144.824219 C 320.324219 144.882812 320.195312 144.941406 320.078125 145 C 319.960938 145.054688 319.835938 145.082031 319.703125 145.082031 C 319.582031 145.082031 319.476562 145.035156 319.390625 144.945312 C 319.300781 144.851562 319.257812 144.742188 319.257812 144.609375 C 319.257812 144.421875 319.347656 144.296875 319.519531 144.226562 L 322.15625 143.273438 L 323.566406 143.320312 L 321.128906 144.148438 L 321.328125 143.933594 C 321.757812 143.933594 322.140625 143.996094 322.476562 144.117188 C 322.816406 144.238281 323.140625 144.386719 323.449219 144.554688 C 323.761719 144.722656 324.09375 144.871094 324.4375 145 C 324.785156 145.125 325.183594 145.191406 325.632812 145.191406 C 326.03125 145.191406 326.363281 145.132812 326.621094 145.015625 C 326.882812 144.898438 327.09375 144.792969 327.257812 144.699219 C 327.410156 144.609375 327.542969 144.507812 327.648438 144.402344 C 327.757812 144.292969 327.871094 144.238281 327.996094 144.238281 Z M 327.257812 138.019531 C 327.257812 138.824219 327.132812 139.5625 326.882812 140.234375 C 326.632812 140.902344 326.277344 141.484375 325.820312 141.980469 C 325.359375 142.476562 324.8125 142.859375 324.1875 143.128906 C 323.558594 143.398438 322.871094 143.535156 322.125 143.535156 C 321.378906 143.535156 320.691406 143.398438 320.0625 143.128906 C 319.433594 142.859375 318.890625 142.476562 318.429688 141.980469 C 317.972656 141.484375 317.617188 140.902344 317.367188 140.234375 C 317.117188 139.5625 316.992188 138.824219 316.992188 138.019531 C 316.992188 137.210938 317.117188 136.472656 317.367188 135.804688 C 317.617188 135.132812 317.972656 134.550781 318.429688 134.054688 C 318.890625 133.558594 319.433594 133.175781 320.0625 132.90625 C 320.691406 132.636719 321.378906 132.5 322.125 132.5 C 322.871094 132.5 323.558594 132.636719 324.1875 132.90625 C 324.8125 133.175781 325.359375 133.558594 325.820312 134.054688 C 326.277344 134.550781 326.632812 135.132812 326.882812 135.804688 C 327.132812 136.472656 327.257812 137.210938 327.257812 138.019531 Z M 326.277344 138.019531 C 326.277344 137.109375 326.101562 136.308594 325.75 135.621094 C 325.398438 134.929688 324.910156 134.390625 324.285156 134.003906 C 323.664062 133.613281 322.941406 133.421875 322.125 133.421875 C 321.316406 133.421875 320.601562 133.613281 319.972656 134.003906 C 319.34375 134.390625 318.851562 134.929688 318.5 135.621094 C 318.148438 136.308594 317.972656 137.109375 317.972656 138.019531 C 317.972656 138.925781 318.148438 139.726562 318.5 140.417969 C 318.851562 141.105469 319.34375 141.644531 319.972656 142.035156 C 320.601562 142.421875 321.316406 142.617188 322.125 142.617188 C 322.941406 142.617188 323.664062 142.421875 324.285156 142.035156 C 324.910156 141.644531 325.398438 141.105469 325.75 140.417969 C 326.101562 139.726562 326.277344 138.925781 326.277344 138.019531 Z M 342.417969 132.652344 C 342.5625 132.652344 342.671875 132.699219 342.753906 132.785156 C 342.835938 132.871094 342.878906 132.980469 342.878906 133.113281 L 342.878906 139.457031 C 342.878906 140.214844 342.699219 140.898438 342.34375 141.511719 C 341.984375 142.125 341.503906 142.613281 340.902344 142.976562 C 340.296875 143.339844 339.621094 143.519531 338.863281 143.519531 C 338.105469 143.519531 337.425781 143.339844 336.816406 142.976562 C 336.210938 142.613281 335.726562 142.125 335.367188 141.511719 C 335.011719 140.898438 334.832031 140.214844 334.832031 139.457031 L 334.832031 133.113281 C 334.832031 132.980469 334.875 132.871094 334.960938 132.785156 C 335.050781 132.699219 335.167969 132.652344 335.324219 132.652344 C 335.445312 132.652344 335.550781 132.699219 335.644531 132.785156 C 335.734375 132.871094 335.78125 132.980469 335.78125 133.113281 L 335.78125 139.457031 C 335.78125 140.050781 335.921875 140.582031 336.203125 141.050781 C 336.484375 141.523438 336.859375 141.898438 337.332031 142.179688 C 337.800781 142.460938 338.3125 142.601562 338.863281 142.601562 C 339.433594 142.601562 339.957031 142.460938 340.425781 142.179688 C 340.894531 141.898438 341.273438 141.523438 341.550781 141.050781 C 341.832031 140.582031 341.972656 140.050781 341.972656 139.457031 L 341.972656 133.113281 C 341.972656 132.980469 342.015625 132.871094 342.097656 132.785156 C 342.179688 132.699219 342.285156 132.652344 342.417969 132.652344 Z M 354.453125 133.835938 L 350.726562 143.089844 C 350.6875 143.191406 350.628906 143.269531 350.558594 143.320312 C 350.488281 143.371094 350.40625 143.398438 350.3125 143.398438 C 350.171875 143.398438 350.0625 143.359375 349.992188 143.28125 C 349.921875 143.207031 349.878906 143.109375 349.871094 143 C 349.859375 142.949219 349.863281 142.886719 349.882812 142.816406 L 353.929688 132.914062 C 353.980469 132.800781 354.046875 132.722656 354.121094 132.675781 C 354.199219 132.628906 354.289062 132.609375 354.390625 132.609375 C 354.492188 132.609375 354.582031 132.636719 354.660156 132.691406 C 354.734375 132.75 354.792969 132.824219 354.835938 132.914062 L 358.867188 142.769531 C 358.886719 142.828125 358.894531 142.890625 358.894531 142.953125 C 358.894531 143.09375 358.851562 143.207031 358.757812 143.28125 C 358.667969 143.359375 358.558594 143.398438 358.4375 143.398438 C 358.335938 143.398438 358.246094 143.367188 358.167969 143.3125 C 358.089844 143.257812 358.03125 143.183594 357.992188 143.089844 L 354.175781 133.773438 Z M 351.617188 140.285156 L 352 139.382812 L 356.75 139.382812 L 356.933594 140.285156 Z M 366.5625 143.382812 C 366.410156 143.382812 366.28125 143.335938 366.1875 143.242188 C 366.089844 143.152344 366.039062 143.042969 366.039062 142.921875 L 366.039062 133.113281 C 366.039062 132.992188 366.085938 132.882812 366.179688 132.792969 C 366.269531 132.699219 366.378906 132.652344 366.5 132.652344 L 370.636719 132.652344 C 371.21875 132.652344 371.742188 132.777344 372.203125 133.03125 C 372.660156 133.28125 373.019531 133.625 373.28125 134.0625 C 373.542969 134.503906 373.671875 135 373.671875 135.550781 C 373.671875 136 373.589844 136.414062 373.425781 136.792969 C 373.265625 137.167969 373.035156 137.488281 372.738281 137.75 C 372.441406 138.011719 372.109375 138.203125 371.742188 138.324219 L 371.207031 138.15625 C 371.582031 138.1875 371.9375 138.304688 372.261719 138.515625 C 372.589844 138.726562 372.851562 139.011719 373.050781 139.375 C 373.25 139.738281 373.355469 140.171875 373.367188 140.683594 C 373.375 141.125 373.398438 141.464844 373.433594 141.710938 C 373.472656 141.957031 373.523438 142.140625 373.597656 142.261719 C 373.667969 142.386719 373.757812 142.484375 373.871094 142.554688 C 373.972656 142.617188 374.042969 142.703125 374.078125 142.816406 C 374.113281 142.925781 374.101562 143.035156 374.039062 143.136719 C 374 143.21875 373.941406 143.277344 373.863281 143.3125 C 373.789062 143.347656 373.707031 143.367188 373.625 143.367188 C 373.542969 143.367188 373.464844 143.347656 373.382812 143.304688 C 373.238281 143.222656 373.09375 143.09375 372.945312 142.921875 C 372.796875 142.75 372.671875 142.492188 372.578125 142.15625 C 372.480469 141.820312 372.429688 141.347656 372.429688 140.746094 C 372.429688 140.347656 372.367188 140.019531 372.238281 139.765625 C 372.113281 139.507812 371.949219 139.3125 371.75 139.175781 C 371.550781 139.035156 371.332031 138.941406 371.089844 138.882812 C 370.851562 138.828125 370.621094 138.800781 370.40625 138.800781 L 366.835938 138.800781 L 367.007812 138.585938 L 367.007812 142.921875 C 367.007812 143.042969 366.964844 143.152344 366.882812 143.242188 C 366.800781 143.335938 366.695312 143.382812 366.5625 143.382812 Z M 366.835938 137.957031 L 370.683594 137.957031 C 371.03125 137.925781 371.359375 137.8125 371.664062 137.613281 C 371.972656 137.414062 372.21875 137.140625 372.40625 136.792969 C 372.597656 136.445312 372.691406 136.039062 372.691406 135.582031 C 372.691406 135 372.496094 134.515625 372.101562 134.132812 C 371.707031 133.75 371.195312 133.558594 370.5625 133.558594 L 366.898438 133.558594 L 367.007812 133.34375 L 367.007812 138.171875 Z M 382.027344 132.652344 L 387.652344 132.652344 C 387.773438 132.652344 387.882812 132.699219 387.972656 132.785156 C 388.066406 132.871094 388.113281 132.980469 388.113281 133.113281 C 388.113281 133.246094 388.066406 133.355469 387.972656 133.433594 C 387.882812 133.515625 387.773438 133.558594 387.652344 133.558594 L 382.378906 133.558594 L 382.535156 133.296875 L 382.535156 137.605469 L 382.363281 137.40625 L 386.960938 137.40625 C 387.085938 137.40625 387.191406 137.449219 387.285156 137.542969 C 387.375 137.636719 387.421875 137.742188 387.421875 137.863281 C 387.421875 137.996094 387.375 138.105469 387.285156 138.1875 C 387.191406 138.269531 387.085938 138.308594 386.960938 138.308594 L 382.394531 138.308594 L 382.535156 138.15625 L 382.535156 142.570312 L 382.457031 142.476562 L 387.652344 142.476562 C 387.773438 142.476562 387.882812 142.523438 387.972656 142.617188 C 388.066406 142.707031 388.113281 142.816406 388.113281 142.9375 C 388.113281 143.070312 388.066406 143.175781 387.972656 143.257812 C 387.882812 143.339844 387.773438 143.382812 387.652344 143.382812 L 382.027344 143.382812 C 381.90625 143.382812 381.796875 143.335938 381.707031 143.242188 C 381.613281 143.152344 381.566406 143.042969 381.566406 142.921875 L 381.566406 133.113281 C 381.566406 132.992188 381.613281 132.882812 381.707031 132.792969 C 381.796875 132.699219 381.90625 132.652344 382.027344 132.652344 "/>
<path fill-rule="nonzero" fill="rgb(100%, 100%, 100%)" fill-opacity="1" d="M 244.613281 88.976562 C 243.347656 88.976562 242.164062 88.746094 241.0625 88.277344 C 239.960938 87.808594 238.992188 87.164062 238.160156 86.339844 C 237.324219 85.511719 236.671875 84.558594 236.195312 83.472656 C 235.71875 82.390625 235.484375 81.222656 235.484375 79.972656 C 235.484375 78.71875 235.71875 77.554688 236.195312 76.46875 C 236.671875 75.386719 237.324219 74.429688 238.160156 73.605469 C 238.992188 72.777344 239.960938 72.132812 241.0625 71.664062 C 242.164062 71.199219 243.347656 70.964844 244.613281 70.964844 C 245.398438 70.964844 246.15625 71.046875 246.890625 71.214844 C 247.625 71.382812 248.300781 71.632812 248.917969 71.964844 C 249.167969 72.097656 249.355469 72.277344 249.480469 72.503906 C 249.605469 72.730469 249.667969 72.957031 249.667969 73.191406 C 249.667969 73.59375 249.535156 73.949219 249.265625 74.269531 C 249 74.585938 248.660156 74.742188 248.242188 74.742188 C 248.109375 74.742188 247.972656 74.726562 247.828125 74.691406 C 247.6875 74.660156 247.550781 74.609375 247.417969 74.542969 C 247 74.359375 246.558594 74.21875 246.089844 74.117188 C 245.625 74.015625 245.132812 73.96875 244.613281 73.96875 C 243.53125 73.96875 242.542969 74.238281 241.648438 74.78125 C 240.757812 75.324219 240.046875 76.046875 239.523438 76.957031 C 238.996094 77.867188 238.734375 78.871094 238.734375 79.972656 C 238.734375 81.054688 238.996094 82.054688 239.523438 82.972656 C 240.046875 83.890625 240.757812 84.621094 241.648438 85.164062 C 242.542969 85.703125 243.53125 85.976562 244.613281 85.976562 C 245.113281 85.976562 245.664062 85.925781 246.265625 85.824219 C 246.867188 85.726562 247.359375 85.59375 247.742188 85.425781 L 247.515625 86.175781 L 247.515625 81.898438 L 247.941406 82.273438 L 245.164062 82.273438 C 244.730469 82.273438 244.367188 82.132812 244.078125 81.847656 C 243.785156 81.5625 243.636719 81.207031 243.636719 80.773438 C 243.636719 80.339844 243.785156 79.980469 244.078125 79.695312 C 244.367188 79.414062 244.730469 79.269531 245.164062 79.269531 L 249.265625 79.269531 C 249.699219 79.269531 250.058594 79.417969 250.34375 79.707031 C 250.625 80 250.769531 80.363281 250.769531 80.796875 L 250.769531 86.101562 C 250.769531 86.433594 250.6875 86.710938 250.53125 86.925781 C 250.371094 87.144531 250.191406 87.320312 249.992188 87.453125 C 249.226562 87.917969 248.386719 88.289062 247.476562 88.566406 C 246.570312 88.839844 245.613281 88.976562 244.613281 88.976562 Z M 259.382812 75.144531 L 253.980469 87.851562 C 253.863281 88.167969 253.683594 88.414062 253.441406 88.589844 C 253.199219 88.765625 252.9375 88.851562 252.652344 88.851562 C 252.203125 88.851562 251.871094 88.726562 251.652344 88.476562 C 251.4375 88.226562 251.328125 87.917969 251.328125 87.550781 C 251.328125 87.402344 251.351562 87.242188 251.402344 87.078125 L 257.632812 72.117188 C 257.765625 71.78125 257.96875 71.523438 258.246094 71.339844 C 258.519531 71.15625 258.816406 71.082031 259.132812 71.117188 C 259.433594 71.117188 259.710938 71.203125 259.972656 71.378906 C 260.230469 71.554688 260.417969 71.800781 260.535156 72.117188 L 266.6875 86.777344 C 266.773438 86.992188 266.8125 87.191406 266.8125 87.378906 C 266.8125 87.828125 266.667969 88.1875 266.375 88.453125 C 266.082031 88.71875 265.761719 88.851562 265.410156 88.851562 C 265.113281 88.851562 264.839844 88.761719 264.597656 88.578125 C 264.355469 88.394531 264.167969 88.144531 264.035156 87.828125 L 258.65625 75.292969 Z M 254.753906 84.800781 L 256.128906 81.921875 L 262.886719 81.921875 L 263.359375 84.800781 Z M 277.78125 85.800781 C 278.214844 85.800781 278.574219 85.9375 278.867188 86.214844 C 279.160156 86.488281 279.304688 86.84375 279.304688 87.277344 C 279.304688 87.695312 279.160156 88.039062 278.867188 88.316406 C 278.574219 88.589844 278.214844 88.726562 277.78125 88.726562 L 269.648438 88.726562 C 269.214844 88.726562 268.851562 88.582031 268.558594 88.289062 C 268.269531 87.996094 268.121094 87.636719 268.121094 87.203125 L 268.121094 72.742188 C 268.121094 72.308594 268.273438 71.945312 268.574219 71.652344 C 268.875 71.359375 269.257812 71.214844 269.722656 71.214844 C 270.125 71.214844 270.476562 71.359375 270.785156 71.652344 C 271.09375 71.945312 271.25 72.308594 271.25 72.742188 L 271.25 86.226562 L 270.699219 85.800781 Z M 300.304688 71.140625 C 300.6875 71.140625 301.054688 71.285156 301.40625 71.578125 C 301.753906 71.871094 301.929688 72.265625 301.929688 72.765625 C 301.929688 72.917969 301.90625 73.082031 301.855469 73.265625 L 296.925781 87.777344 C 296.828125 88.078125 296.648438 88.308594 296.386719 88.464844 C 296.128906 88.625 295.859375 88.710938 295.574219 88.726562 C 295.292969 88.726562 295.011719 88.644531 294.738281 88.476562 C 294.460938 88.3125 294.25 88.070312 294.097656 87.753906 L 290.398438 79.347656 L 290.621094 79.496094 L 286.96875 87.753906 C 286.820312 88.070312 286.605469 88.3125 286.332031 88.476562 C 286.054688 88.644531 285.777344 88.726562 285.492188 88.726562 C 285.226562 88.710938 284.960938 88.625 284.691406 88.464844 C 284.425781 88.308594 284.242188 88.078125 284.140625 87.777344 L 279.214844 73.265625 C 279.164062 73.082031 279.136719 72.917969 279.136719 72.765625 C 279.136719 72.265625 279.316406 71.871094 279.675781 71.578125 C 280.035156 71.285156 280.40625 71.140625 280.789062 71.140625 C 281.105469 71.140625 281.402344 71.222656 281.679688 71.390625 C 281.953125 71.558594 282.140625 71.800781 282.242188 72.117188 L 286.21875 84.175781 L 285.667969 84.148438 L 289.21875 75.617188 C 289.355469 75.316406 289.546875 75.082031 289.796875 74.90625 C 290.046875 74.730469 290.332031 74.652344 290.648438 74.667969 C 290.964844 74.652344 291.246094 74.730469 291.496094 74.90625 C 291.746094 75.082031 291.929688 75.316406 292.046875 75.617188 L 295.300781 83.773438 L 294.898438 84.023438 L 298.828125 72.117188 C 298.925781 71.800781 299.121094 71.558594 299.402344 71.390625 C 299.6875 71.222656 299.988281 71.140625 300.304688 71.140625 Z M 309.269531 75.144531 L 303.863281 87.851562 C 303.746094 88.167969 303.570312 88.414062 303.328125 88.589844 C 303.085938 88.765625 302.820312 88.851562 302.539062 88.851562 C 302.089844 88.851562 301.753906 88.726562 301.539062 88.476562 C 301.320312 88.226562 301.210938 87.917969 301.210938 87.550781 C 301.210938 87.402344 301.238281 87.242188 301.289062 87.078125 L 307.515625 72.117188 C 307.652344 71.78125 307.855469 71.523438 308.128906 71.339844 C 308.40625 71.15625 308.703125 71.082031 309.019531 71.117188 C 309.320312 71.117188 309.597656 71.203125 309.855469 71.378906 C 310.113281 71.554688 310.300781 71.800781 310.417969 72.117188 L 316.574219 86.777344 C 316.65625 86.992188 316.699219 87.191406 316.699219 87.378906 C 316.699219 87.828125 316.554688 88.1875 316.261719 88.453125 C 315.96875 88.71875 315.648438 88.851562 315.296875 88.851562 C 314.996094 88.851562 314.726562 88.761719 314.484375 88.578125 C 314.242188 88.394531 314.054688 88.144531 313.921875 87.828125 L 308.542969 75.292969 Z M 304.640625 84.800781 L 306.015625 81.921875 L 312.769531 81.921875 L 313.246094 84.800781 Z M 328.089844 71.140625 C 328.472656 71.140625 328.820312 71.285156 329.128906 71.578125 C 329.4375 71.871094 329.589844 72.242188 329.589844 72.691406 C 329.589844 72.839844 329.570312 72.996094 329.527344 73.152344 C 329.488281 73.3125 329.417969 73.46875 329.316406 73.617188 L 323.636719 81.746094 L 324.085938 80.023438 L 324.085938 87.203125 C 324.085938 87.636719 323.941406 87.996094 323.648438 88.289062 C 323.355469 88.582031 323.019531 88.726562 322.636719 88.726562 C 322.21875 88.726562 321.863281 88.582031 321.574219 88.289062 C 321.28125 87.996094 321.136719 87.636719 321.136719 87.203125 L 321.136719 80.222656 L 321.335938 81.023438 L 315.929688 73.84375 C 315.765625 73.625 315.648438 73.417969 315.582031 73.214844 C 315.515625 73.015625 315.480469 72.832031 315.480469 72.667969 C 315.480469 72.214844 315.65625 71.847656 316.007812 71.566406 C 316.355469 71.28125 316.714844 71.140625 317.082031 71.140625 C 317.550781 71.140625 317.957031 71.375 318.308594 71.839844 L 323.113281 78.46875 L 322.410156 78.371094 L 326.839844 71.890625 C 327.191406 71.390625 327.605469 71.140625 328.089844 71.140625 "/>
<path fill-rule="nonzero" fill="rgb(100%, 100%, 100%)" fill-opacity="1" d="M 349.65625 72.066406 C 350.089844 72.28125 350.34375 72.625 350.417969 73.089844 C 350.496094 73.558594 350.375 73.984375 350.058594 74.367188 C 349.839844 74.667969 349.5625 74.835938 349.21875 74.867188 C 348.875 74.902344 348.53125 74.835938 348.179688 74.667969 C 347.78125 74.484375 347.359375 74.34375 346.917969 74.242188 C 346.476562 74.140625 346.011719 74.09375 345.527344 74.09375 C 344.628906 74.09375 343.824219 74.234375 343.113281 74.519531 C 342.40625 74.800781 341.800781 75.207031 341.300781 75.730469 C 340.800781 76.257812 340.421875 76.878906 340.164062 77.59375 C 339.902344 78.3125 339.773438 79.105469 339.773438 79.972656 C 339.773438 80.988281 339.921875 81.875 340.210938 82.625 C 340.503906 83.375 340.910156 84 341.425781 84.5 C 341.941406 85 342.550781 85.371094 343.25 85.613281 C 343.953125 85.855469 344.710938 85.976562 345.527344 85.976562 C 345.980469 85.976562 346.429688 85.933594 346.878906 85.851562 C 347.328125 85.769531 347.761719 85.617188 348.179688 85.402344 C 348.53125 85.234375 348.875 85.175781 349.21875 85.226562 C 349.5625 85.273438 349.847656 85.449219 350.082031 85.75 C 350.414062 86.167969 350.535156 86.597656 350.445312 87.039062 C 350.351562 87.480469 350.097656 87.800781 349.679688 88.003906 C 349.246094 88.21875 348.800781 88.398438 348.34375 88.539062 C 347.882812 88.683594 347.421875 88.789062 346.953125 88.867188 C 346.488281 88.941406 346.011719 88.976562 345.527344 88.976562 C 344.328125 88.976562 343.1875 88.785156 342.113281 88.402344 C 341.039062 88.019531 340.078125 87.453125 339.238281 86.703125 C 338.394531 85.949219 337.730469 85.011719 337.246094 83.886719 C 336.765625 82.761719 336.523438 81.457031 336.523438 79.972656 C 336.523438 78.6875 336.742188 77.503906 337.183594 76.417969 C 337.628906 75.335938 338.253906 74.398438 339.0625 73.605469 C 339.871094 72.8125 340.824219 72.195312 341.925781 71.753906 C 343.027344 71.3125 344.226562 71.089844 345.527344 71.089844 C 346.261719 71.089844 346.980469 71.171875 347.679688 71.339844 C 348.378906 71.507812 349.039062 71.75 349.65625 72.066406 Z M 356.234375 87.203125 C 356.234375 87.636719 356.078125 87.996094 355.761719 88.289062 C 355.445312 88.582031 355.078125 88.726562 354.660156 88.726562 C 354.191406 88.726562 353.816406 88.582031 353.535156 88.289062 C 353.25 87.996094 353.109375 87.636719 353.109375 87.203125 L 353.109375 72.742188 C 353.109375 72.308594 353.257812 71.945312 353.558594 71.652344 C 353.859375 71.359375 354.242188 71.214844 354.710938 71.214844 C 355.109375 71.214844 355.464844 71.359375 355.773438 71.652344 C 356.082031 71.945312 356.234375 72.308594 356.234375 72.742188 Z M 365.941406 88.726562 C 365.476562 88.726562 365.09375 88.582031 364.792969 88.289062 C 364.492188 87.996094 364.34375 87.636719 364.34375 87.203125 L 364.34375 72.691406 L 367.59375 72.691406 L 367.59375 87.203125 C 367.59375 87.636719 367.441406 87.996094 367.132812 88.289062 C 366.824219 88.582031 366.425781 88.726562 365.941406 88.726562 Z M 360.414062 74.09375 C 359.980469 74.09375 359.617188 73.960938 359.324219 73.691406 C 359.035156 73.425781 358.886719 73.074219 358.886719 72.640625 C 358.886719 72.207031 359.035156 71.863281 359.324219 71.601562 C 359.617188 71.34375 359.980469 71.214844 360.414062 71.214844 L 371.523438 71.214844 C 371.957031 71.214844 372.316406 71.347656 372.609375 71.617188 C 372.902344 71.882812 373.046875 72.234375 373.046875 72.667969 C 373.046875 73.101562 372.902344 73.445312 372.609375 73.703125 C 372.316406 73.964844 371.957031 74.09375 371.523438 74.09375 Z M 387.109375 71.140625 C 387.492188 71.140625 387.835938 71.285156 388.144531 71.578125 C 388.453125 71.871094 388.609375 72.242188 388.609375 72.691406 C 388.609375 72.839844 388.589844 72.996094 388.546875 73.152344 C 388.503906 73.3125 388.433594 73.46875 388.332031 73.617188 L 382.65625 81.746094 L 383.105469 80.023438 L 383.105469 87.203125 C 383.105469 87.636719 382.957031 87.996094 382.667969 88.289062 C 382.375 88.582031 382.039062 88.726562 381.652344 88.726562 C 381.238281 88.726562 380.882812 88.582031 380.589844 88.289062 C 380.300781 87.996094 380.152344 87.636719 380.152344 87.203125 L 380.152344 80.222656 L 380.351562 81.023438 L 374.949219 73.84375 C 374.78125 73.625 374.664062 73.417969 374.597656 73.214844 C 374.53125 73.015625 374.5 72.832031 374.5 72.667969 C 374.5 72.214844 374.671875 71.847656 375.023438 71.566406 C 375.375 71.28125 375.734375 71.140625 376.101562 71.140625 C 376.566406 71.140625 376.976562 71.375 377.324219 71.839844 L 382.128906 78.46875 L 381.429688 78.371094 L 385.855469 71.890625 C 386.207031 71.390625 386.625 71.140625 387.109375 71.140625 "/>
<path fill-rule="nonzero" fill="rgb(100%, 100%, 100%)" fill-opacity="1" d="M 237.96875 98.265625 C 238.441406 98.265625 238.859375 98.4375 239.226562 98.785156 C 239.589844 99.128906 239.773438 99.558594 239.773438 100.070312 L 239.773438 117.15625 C 239.773438 117.667969 239.585938 118.097656 239.210938 118.441406 C 238.835938 118.785156 238.402344 118.957031 237.910156 118.957031 C 237.359375 118.957031 236.914062 118.785156 236.578125 118.441406 C 236.246094 118.097656 236.078125 117.667969 236.078125 117.15625 L 236.078125 100.070312 C 236.078125 99.558594 236.253906 99.128906 236.609375 98.785156 C 236.964844 98.4375 237.417969 98.265625 237.96875 98.265625 Z M 251.0625 98.265625 C 251.617188 98.265625 252.058594 98.4375 252.394531 98.785156 C 252.730469 99.128906 252.898438 99.558594 252.898438 100.070312 L 252.898438 117.15625 C 252.898438 117.667969 252.722656 118.097656 252.378906 118.441406 C 252.035156 118.785156 251.578125 118.957031 251.003906 118.957031 C 250.53125 118.957031 250.113281 118.785156 249.75 118.441406 C 249.382812 118.097656 249.203125 117.667969 249.203125 117.15625 L 249.203125 100.070312 C 249.203125 99.558594 249.390625 99.128906 249.761719 98.785156 C 250.136719 98.4375 250.570312 98.265625 251.0625 98.265625 Z M 237.878906 106.867188 L 251.0625 106.867188 L 251.0625 110.265625 L 237.878906 110.265625 Z M 284.78125 108.613281 C 284.78125 110.089844 284.535156 111.46875 284.042969 112.75 C 283.550781 114.03125 282.855469 115.160156 281.957031 116.136719 C 281.0625 117.109375 279.996094 117.875 278.765625 118.425781 C 277.535156 118.976562 276.1875 119.253906 274.730469 119.253906 C 273.273438 119.253906 271.933594 118.976562 270.710938 118.425781 C 269.488281 117.875 268.429688 117.109375 267.535156 116.136719 C 266.636719 115.160156 265.941406 114.03125 265.449219 112.75 C 264.957031 111.46875 264.710938 110.089844 264.710938 108.613281 C 264.710938 107.132812 264.957031 105.753906 265.449219 104.472656 C 265.941406 103.191406 266.636719 102.066406 267.535156 101.089844 C 268.429688 100.113281 269.488281 99.351562 270.710938 98.796875 C 271.933594 98.246094 273.273438 97.96875 274.730469 97.96875 C 276.1875 97.96875 277.535156 98.246094 278.765625 98.796875 C 279.996094 99.351562 281.0625 100.113281 281.957031 101.089844 C 282.855469 102.066406 283.550781 103.191406 284.042969 104.472656 C 284.535156 105.753906 284.78125 107.132812 284.78125 108.613281 Z M 280.9375 108.613281 C 280.9375 107.292969 280.671875 106.09375 280.140625 105.019531 C 279.609375 103.945312 278.878906 103.09375 277.953125 102.464844 C 277.027344 101.832031 275.953125 101.519531 274.730469 101.519531 C 273.507812 101.519531 272.433594 101.832031 271.507812 102.464844 C 270.582031 103.09375 269.859375 103.941406 269.335938 105.007812 C 268.8125 106.070312 268.554688 107.273438 268.554688 108.613281 C 268.554688 109.933594 268.8125 111.128906 269.335938 112.203125 C 269.859375 113.277344 270.582031 114.128906 271.507812 114.761719 C 272.433594 115.390625 273.507812 115.707031 274.730469 115.707031 C 275.953125 115.707031 277.027344 115.390625 277.953125 114.761719 C 278.878906 114.128906 279.609375 113.277344 280.140625 112.203125 C 280.671875 111.128906 280.9375 109.933594 280.9375 108.613281 Z M 303.246094 119.253906 C 301.867188 119.253906 300.625 119.082031 299.519531 118.734375 C 298.417969 118.390625 297.363281 117.785156 296.359375 116.917969 C 296.101562 116.703125 295.90625 116.457031 295.769531 116.179688 C 295.628906 115.902344 295.5625 115.628906 295.5625 115.351562 C 295.5625 114.898438 295.722656 114.5 296.046875 114.15625 C 296.375 113.808594 296.78125 113.636719 297.273438 113.636719 C 297.648438 113.636719 297.984375 113.753906 298.28125 113.992188 C 299.027344 114.601562 299.773438 115.066406 300.511719 115.382812 C 301.25 115.695312 302.164062 115.855469 303.246094 115.855469 C 303.976562 115.855469 304.644531 115.742188 305.257812 115.515625 C 305.867188 115.289062 306.359375 114.980469 306.734375 114.597656 C 307.109375 114.214844 307.296875 113.773438 307.296875 113.28125 C 307.296875 112.691406 307.117188 112.1875 306.765625 111.773438 C 306.410156 111.359375 305.867188 111.011719 305.136719 110.726562 C 304.410156 110.441406 303.484375 110.21875 302.359375 110.058594 C 301.296875 109.902344 300.359375 109.660156 299.550781 109.335938 C 298.742188 109.011719 298.070312 108.597656 297.527344 108.09375 C 296.984375 107.59375 296.574219 107 296.300781 106.320312 C 296.023438 105.640625 295.886719 104.878906 295.886719 104.03125 C 295.886719 102.75 296.214844 101.65625 296.875 100.75 C 297.535156 99.84375 298.429688 99.152344 299.550781 98.679688 C 300.675781 98.207031 301.917969 97.96875 303.277344 97.96875 C 304.554688 97.96875 305.742188 98.164062 306.835938 98.546875 C 307.929688 98.929688 308.824219 99.417969 309.511719 100.011719 C 310.085938 100.464844 310.371094 100.984375 310.371094 101.578125 C 310.371094 102.011719 310.203125 102.40625 309.867188 102.757812 C 309.53125 103.113281 309.136719 103.292969 308.683594 103.292969 C 308.390625 103.292969 308.125 103.203125 307.886719 103.027344 C 307.570312 102.75 307.148438 102.488281 306.617188 102.242188 C 306.082031 101.996094 305.523438 101.789062 304.929688 101.621094 C 304.339844 101.453125 303.789062 101.371094 303.277344 101.371094 C 302.429688 101.371094 301.714844 101.480469 301.132812 101.695312 C 300.550781 101.910156 300.113281 102.207031 299.816406 102.582031 C 299.519531 102.957031 299.375 103.390625 299.375 103.882812 C 299.375 104.472656 299.546875 104.960938 299.890625 105.347656 C 300.234375 105.730469 300.734375 106.035156 301.382812 106.261719 C 302.035156 106.488281 302.8125 106.691406 303.71875 106.867188 C 304.902344 107.085938 305.941406 107.339844 306.835938 107.636719 C 307.734375 107.933594 308.476562 108.3125 309.070312 108.773438 C 309.660156 109.238281 310.105469 109.820312 310.398438 110.519531 C 310.695312 111.21875 310.84375 112.070312 310.84375 113.074219 C 310.84375 114.355469 310.488281 115.460938 309.777344 116.386719 C 309.070312 117.3125 308.136719 118.023438 306.984375 118.515625 C 305.832031 119.007812 304.585938 119.253906 303.246094 119.253906 Z M 329.664062 118.957031 C 329.109375 118.957031 328.65625 118.785156 328.300781 118.441406 C 327.949219 118.097656 327.769531 117.667969 327.769531 117.15625 L 327.769531 100.011719 L 331.613281 100.011719 L 331.613281 117.15625 C 331.613281 117.667969 331.429688 118.097656 331.066406 118.441406 C 330.703125 118.785156 330.234375 118.957031 329.664062 118.957031 Z M 323.128906 101.664062 C 322.617188 101.664062 322.1875 101.507812 321.84375 101.191406 C 321.5 100.878906 321.328125 100.464844 321.328125 99.953125 C 321.328125 99.4375 321.5 99.03125 321.84375 98.726562 C 322.1875 98.417969 322.617188 98.265625 323.128906 98.265625 L 336.253906 98.265625 C 336.765625 98.265625 337.195312 98.425781 337.539062 98.738281 C 337.882812 99.054688 338.058594 99.46875 338.058594 99.980469 C 338.058594 100.492188 337.882812 100.902344 337.539062 101.207031 C 337.195312 101.511719 336.765625 101.664062 336.253906 101.664062 Z M 351.378906 98.265625 L 361.28125 98.265625 C 361.792969 98.265625 362.222656 98.429688 362.566406 98.753906 C 362.910156 99.078125 363.085938 99.496094 363.085938 100.011719 C 363.085938 100.503906 362.910156 100.902344 362.566406 101.207031 C 362.222656 101.511719 361.792969 101.664062 361.28125 101.664062 L 353.003906 101.664062 L 353.269531 101.164062 L 353.269531 106.925781 L 353.035156 106.691406 L 359.949219 106.691406 C 360.464844 106.691406 360.890625 106.851562 361.238281 107.179688 C 361.582031 107.503906 361.753906 107.921875 361.753906 108.433594 C 361.753906 108.925781 361.582031 109.328125 361.238281 109.632812 C 360.890625 109.9375 360.464844 110.089844 359.949219 110.089844 L 353.121094 110.089844 L 353.269531 109.855469 L 353.269531 115.824219 L 353.035156 115.558594 L 361.28125 115.558594 C 361.792969 115.558594 362.222656 115.730469 362.566406 116.074219 C 362.910156 116.421875 363.085938 116.820312 363.085938 117.273438 C 363.085938 117.765625 362.910156 118.167969 362.566406 118.484375 C 362.222656 118.800781 361.792969 118.957031 361.28125 118.957031 L 351.378906 118.957031 C 350.867188 118.957031 350.4375 118.785156 350.09375 118.441406 C 349.746094 118.097656 349.574219 117.667969 349.574219 117.15625 L 349.574219 100.070312 C 349.574219 99.558594 349.746094 99.128906 350.09375 98.785156 C 350.4375 98.4375 350.867188 98.265625 351.378906 98.265625 Z M 386.308594 115.5 C 386.820312 115.5 387.25 115.660156 387.59375 115.988281 C 387.9375 116.3125 388.109375 116.730469 388.109375 117.242188 C 388.109375 117.734375 387.9375 118.144531 387.59375 118.46875 C 387.25 118.796875 386.820312 118.957031 386.308594 118.957031 L 376.703125 118.957031 C 376.1875 118.957031 375.761719 118.785156 375.414062 118.441406 C 375.070312 118.097656 374.898438 117.667969 374.898438 117.15625 L 374.898438 100.070312 C 374.898438 99.558594 375.074219 99.128906 375.429688 98.785156 C 375.785156 98.4375 376.238281 98.265625 376.789062 98.265625 C 377.261719 98.265625 377.679688 98.4375 378.046875 98.785156 C 378.410156 99.128906 378.59375 99.558594 378.59375 100.070312 L 378.59375 116.003906 L 377.941406 115.5 Z M 386.308594 115.5 "/>
<path fill-rule="evenodd" fill="rgb(100%, 100%, 100%)" fill-opacity="1" d="M 235.371094 124.421875 L 388.472656 124.421875 L 388.472656 125.972656 L 235.371094 125.972656 Z M 235.371094 124.421875 "/>
<path fill-rule="nonzero" fill="rgb(100%, 100%, 100%)" fill-opacity="1" d="M 28.222656 219.375 L 28.222656 230.882812 C 25.03125 229.285156 23.175781 226.128906 23.175781 222.753906 C 23.175781 216.222656 28.484375 213.066406 32.675781 213.066406 C 36.984375 213.066406 42.253906 216.292969 42.253906 222.492188 C 42.253906 226.128906 40.210938 228.65625 38.394531 229.84375 L 38.394531 235.929688 C 42.328125 234.519531 47.003906 229.507812 47.003906 222.605469 C 47.003906 214.847656 40.804688 207.980469 32.714844 207.980469 C 24.476562 207.980469 18.425781 214.882812 18.425781 222.753906 C 18.425781 230.4375 24.550781 237.300781 32.378906 237.300781 L 32.972656 237.300781 L 32.972656 219.375 Z M 32.640625 239.378906 C 24.773438 239.378906 18.425781 245.839844 18.425781 253.746094 C 18.425781 261.648438 24.773438 268.109375 32.640625 268.109375 C 40.769531 268.109375 47.003906 261.539062 47.003906 253.746094 C 47.003906 245.949219 40.769531 239.378906 32.640625 239.378906 Z M 32.675781 244.464844 C 37.949219 244.464844 42.253906 248.585938 42.253906 253.746094 C 42.253906 258.902344 37.949219 263.023438 32.675781 263.023438 C 27.59375 263.023438 23.175781 258.976562 23.175781 253.746094 C 23.175781 248.511719 27.59375 244.464844 32.675781 244.464844 Z M 18.980469 269.59375 L 18.980469 275.199219 L 26.070312 278.128906 L 26.070312 287.964844 L 18.980469 290.898438 L 18.980469 296.5 L 46.449219 284.996094 L 46.449219 281.023438 Z M 39.285156 282.953125 L 39.285156 283.027344 L 30.859375 286.144531 L 30.859375 279.835938 Z M 18.980469 299.46875 L 18.980469 312.945312 L 23.734375 312.945312 L 23.734375 304.554688 L 46.449219 304.554688 L 46.449219 299.46875 Z M 26.851562 313.574219 C 20.800781 313.871094 18.425781 318.992188 18.425781 322.519531 C 18.425781 326.824219 21.246094 331.425781 27.183594 331.425781 C 33.160156 331.425781 34.90625 326.492188 35.648438 324.226562 C 36.574219 321.445312 37.09375 319.660156 39.46875 319.660156 C 41.101562 319.660156 42.253906 320.886719 42.253906 322.484375 C 42.253906 323.855469 41.621094 325.339844 39.171875 325.5625 L 39.171875 330.757812 C 44.777344 330.5 47.003906 325.824219 47.003906 322.628906 C 47.003906 317.992188 43.550781 314.578125 39.171875 314.578125 C 33.382812 314.578125 32.082031 318.992188 31.265625 321.109375 C 29.96875 324.523438 29.449219 326.34375 26.628906 326.34375 C 24.550781 326.34375 23.175781 324.5625 23.175781 322.554688 C 23.175781 320.996094 24.105469 319.179688 26.851562 318.917969 Z M 28.222656 355.21875 L 28.222656 366.722656 C 25.03125 365.128906 23.175781 361.972656 23.175781 358.597656 C 23.175781 352.0625 28.484375 348.910156 32.675781 348.910156 C 36.984375 348.910156 42.253906 352.136719 42.253906 358.335938 C 42.253906 361.972656 40.210938 364.496094 38.394531 365.683594 L 38.394531 371.773438 C 42.328125 370.363281 47.003906 365.351562 47.003906 358.449219 C 47.003906 350.691406 40.804688 343.824219 32.714844 343.824219 C 24.476562 343.824219 18.425781 350.726562 18.425781 358.597656 C 18.425781 366.277344 24.550781 373.144531 32.378906 373.144531 L 32.972656 373.144531 L 32.972656 355.21875 Z M 18.980469 382.945312 L 18.980469 388.027344 L 29.113281 388.027344 L 46.449219 397.085938 L 46.449219 391.480469 L 33.828125 385.46875 L 46.449219 379.492188 L 46.449219 373.925781 L 29.113281 382.945312 Z M 18.980469 399.347656 L 18.980469 404.433594 L 39.582031 404.433594 L 39.582031 404.507812 L 18.980469 411.558594 L 18.980469 415.867188 L 39.582031 422.878906 L 39.582031 422.992188 L 18.980469 422.992188 L 18.980469 428.078125 L 46.449219 428.078125 L 46.449219 421.023438 L 25.664062 413.785156 L 25.664062 413.710938 L 46.449219 406.402344 L 46.449219 399.347656 Z M 18.980469 399.347656 "/>
<path fill-rule="nonzero" fill="rgb(100%, 100%, 100%)" fill-opacity="1" d="M 117.75 311.707031 L 117.75 333.082031 C 111.820312 330.117188 108.371094 324.257812 108.371094 317.980469 C 108.371094 305.84375 118.230469 299.984375 126.023438 299.984375 C 134.023438 299.984375 143.816406 305.984375 143.816406 317.5 C 143.816406 324.257812 140.023438 328.945312 136.644531 331.152344 L 136.644531 342.460938 C 143.953125 339.839844 152.640625 330.53125 152.640625 317.707031 C 152.640625 303.292969 141.125 290.535156 126.09375 290.535156 C 110.785156 290.535156 99.542969 303.363281 99.542969 317.980469 C 99.542969 332.253906 110.921875 345.011719 125.472656 345.011719 L 126.574219 345.011719 L 126.574219 311.707031 Z M 117.75 311.707031 "/>
<path fill-rule="nonzero" fill="rgb(100%, 100%, 100%)" fill-opacity="1" d="M 177.300781 267.726562 L 177.300781 369.46875 L 74.992188 369.46875 L 74.992188 266.769531 L 177.300781 266.769531 Z M 175.386719 367.554688 L 175.386719 268.683594 L 76.90625 268.683594 L 76.90625 367.554688 Z M 182.433594 263.15625 L 182.433594 374.597656 L 69.863281 374.597656 L 69.863281 261.636719 L 182.433594 261.636719 Z M 179.394531 371.5625 L 179.394531 264.675781 L 72.898438 264.675781 L 72.898438 371.5625 Z M 179.394531 371.5625 "/>
<path fill-rule="nonzero" fill="rgb(100%, 100%, 100%)" fill-opacity="1" d="M 126.640625 252.050781 L 192.21875 317.625 L 192.839844 318.246094 L 126.898438 384.1875 L 126.273438 384.808594 L 59.457031 317.992188 L 125.398438 252.050781 L 126.019531 251.425781 Z M 190.347656 318.246094 L 126.019531 253.917969 L 61.945312 317.992188 L 126.273438 382.320312 Z M 127.007812 245.738281 L 199.515625 318.246094 L 126.273438 391.488281 L 52.777344 317.992188 L 126.019531 244.75 Z M 195.5625 318.246094 L 126.019531 248.703125 L 56.730469 317.992188 L 126.273438 387.535156 Z M 195.5625 318.246094 "/>
<path fill-rule="nonzero" fill="rgb(100%, 100%, 100%)" fill-opacity="1" d="M 189.054688 222.722656 L 189.054688 211.214844 C 192.246094 212.8125 194.101562 215.96875 194.101562 219.34375 C 194.101562 225.875 188.792969 229.03125 184.601562 229.03125 C 180.292969 229.03125 175.023438 225.800781 175.023438 219.605469 C 175.023438 215.96875 177.066406 213.441406 178.886719 212.253906 L 178.886719 206.167969 C 174.949219 207.578125 170.273438 212.589844 170.273438 219.492188 C 170.273438 227.25 176.472656 234.117188 184.5625 234.117188 C 192.804688 234.117188 198.851562 227.210938 198.851562 219.34375 C 198.851562 211.660156 192.730469 204.796875 184.898438 204.796875 L 184.304688 204.796875 L 184.304688 222.722656 Z M 184.636719 202.714844 C 192.507812 202.714844 198.851562 196.257812 198.851562 188.351562 C 198.851562 180.449219 192.507812 173.988281 184.636719 173.988281 C 176.507812 173.988281 170.273438 180.558594 170.273438 188.351562 C 170.273438 196.148438 176.507812 202.714844 184.636719 202.714844 Z M 184.601562 197.632812 C 179.328125 197.632812 175.023438 193.511719 175.023438 188.351562 C 175.023438 183.195312 179.328125 179.074219 184.601562 179.074219 C 189.683594 179.074219 194.101562 183.121094 194.101562 188.351562 C 194.101562 193.585938 189.683594 197.632812 184.601562 197.632812 Z M 198.296875 172.503906 L 198.296875 166.898438 L 191.207031 163.96875 L 191.207031 154.132812 L 198.296875 151.199219 L 198.296875 145.59375 L 170.832031 157.101562 L 170.832031 161.074219 Z M 177.992188 159.144531 L 177.992188 159.070312 L 186.417969 155.949219 L 186.417969 162.261719 Z M 198.296875 142.625 L 198.296875 129.152344 L 193.546875 129.152344 L 193.546875 137.542969 L 170.832031 137.542969 L 170.832031 142.625 Z M 190.425781 128.523438 C 196.476562 128.226562 198.851562 123.101562 198.851562 119.578125 C 198.851562 115.273438 196.03125 110.667969 190.09375 110.667969 C 184.117188 110.667969 182.375 115.605469 181.632812 117.871094 C 180.703125 120.652344 180.183594 122.4375 177.808594 122.4375 C 176.175781 122.4375 175.023438 121.210938 175.023438 119.613281 C 175.023438 118.242188 175.65625 116.757812 178.105469 116.535156 L 178.105469 111.339844 C 172.5 111.597656 170.273438 116.273438 170.273438 119.464844 C 170.273438 124.105469 173.726562 127.519531 178.105469 127.519531 C 183.894531 127.519531 185.195312 123.101562 186.011719 120.988281 C 187.308594 117.574219 187.828125 115.753906 190.648438 115.753906 C 192.730469 115.753906 194.101562 117.535156 194.101562 119.539062 C 194.101562 121.097656 193.175781 122.917969 190.425781 123.179688 Z M 189.054688 86.878906 L 189.054688 75.375 C 192.246094 76.96875 194.101562 80.125 194.101562 83.5 C 194.101562 90.035156 188.792969 93.1875 184.601562 93.1875 C 180.292969 93.1875 175.023438 89.960938 175.023438 83.761719 C 175.023438 80.125 177.066406 77.601562 178.886719 76.414062 L 178.886719 70.324219 C 174.949219 71.734375 170.273438 76.746094 170.273438 83.648438 C 170.273438 91.40625 176.472656 98.273438 184.5625 98.273438 C 192.804688 98.273438 198.851562 91.371094 198.851562 83.5 C 198.851562 75.820312 192.730469 68.953125 184.898438 68.953125 L 184.304688 68.953125 L 184.304688 86.878906 Z M 198.296875 59.152344 L 198.296875 54.070312 L 188.164062 54.070312 L 170.832031 45.011719 L 170.832031 50.617188 L 183.449219 56.628906 L 170.832031 62.605469 L 170.832031 68.171875 L 188.164062 59.152344 Z M 198.296875 42.75 L 198.296875 37.664062 L 177.695312 37.664062 L 177.695312 37.589844 L 198.296875 30.535156 L 198.296875 26.230469 L 177.695312 19.21875 L 177.695312 19.105469 L 198.296875 19.105469 L 198.296875 14.019531 L 170.832031 14.019531 L 170.832031 21.074219 L 191.613281 28.308594 L 191.613281 28.382812 L 170.832031 35.695312 L 170.832031 42.75 Z M 198.296875 42.75 "/>
<path fill-rule="nonzero" fill="rgb(100%, 100%, 100%)" fill-opacity="1" d="M 99.527344 130.390625 L 99.527344 109.015625 C 105.460938 111.980469 108.90625 117.839844 108.90625 124.117188 C 108.90625 136.253906 99.046875 142.113281 91.253906 142.113281 C 83.253906 142.113281 73.464844 136.113281 73.464844 124.597656 C 73.464844 117.839844 77.253906 113.152344 80.632812 110.945312 L 80.632812 99.636719 C 73.324219 102.257812 64.636719 111.566406 64.636719 124.390625 C 64.636719 138.804688 76.152344 151.5625 91.183594 151.5625 C 106.492188 151.5625 117.734375 138.734375 117.734375 124.117188 C 117.734375 109.84375 106.355469 97.085938 91.804688 97.085938 L 90.703125 97.085938 L 90.703125 130.390625 Z M 99.527344 130.390625 "/>
<path fill-rule="nonzero" fill="rgb(100%, 100%, 100%)" fill-opacity="1" d="M 39.976562 174.371094 L 39.976562 72.628906 L 142.285156 72.628906 L 142.285156 175.328125 L 39.976562 175.328125 Z M 41.890625 74.542969 L 41.890625 173.414062 L 140.371094 173.414062 L 140.371094 74.542969 Z M 34.84375 178.941406 L 34.84375 67.496094 L 147.417969 67.496094 L 147.417969 180.460938 L 34.84375 180.460938 Z M 37.882812 70.535156 L 37.882812 177.421875 L 144.378906 177.421875 L 144.378906 70.535156 Z M 37.882812 70.535156 "/>
<path fill-rule="nonzero" fill="rgb(100%, 100%, 100%)" fill-opacity="1" d="M 90.640625 189.378906 L 25.113281 123.851562 L 25.730469 123.238281 L 90.390625 58.578125 L 91.003906 57.960938 L 157.148438 124.105469 L 156.53125 124.71875 L 91.871094 189.378906 L 91.257812 189.996094 Z M 27.578125 123.851562 L 91.257812 187.53125 L 154.683594 124.105469 L 91.003906 60.425781 Z M 90.277344 195.628906 L 19.480469 124.832031 L 18.503906 123.851562 L 91.003906 51.351562 L 91.984375 52.328125 L 162.78125 123.125 L 163.757812 124.105469 L 91.257812 196.605469 Z M 22.417969 123.851562 L 91.257812 192.691406 L 159.84375 124.105469 L 91.003906 55.265625 Z M 22.417969 123.851562 "/>
<path fill-rule="evenodd" fill="rgb(100%, 100%, 100%)" fill-opacity="1" d="M 193.621094 559.785156 L 197.46875 559.785156 L 197.46875 565.867188 C 195.769531 567.761719 193.414062 568.710938 190.410156 568.710938 C 187.890625 568.710938 185.777344 567.875 184.070312 566.207031 C 182.363281 564.542969 181.507812 562.4375 181.507812 559.894531 C 181.507812 557.355469 182.378906 555.234375 184.121094 553.535156 C 185.859375 551.832031 187.960938 550.984375 190.421875 550.984375 C 192.878906 550.984375 195.015625 551.792969 196.832031 553.410156 L 194.847656 556.28125 C 194.078125 555.609375 193.371094 555.148438 192.726562 554.894531 C 192.078125 554.640625 191.378906 554.515625 190.628906 554.515625 C 189.175781 554.515625 187.949219 555.007812 186.953125 555.996094 C 185.953125 556.984375 185.457031 558.289062 185.457031 559.90625 C 185.457031 561.527344 185.933594 562.820312 186.890625 563.792969 C 187.847656 564.765625 188.988281 565.253906 190.308594 565.253906 C 191.632812 565.253906 192.738281 565 193.621094 564.492188 Z M 209.082031 556.125 L 205.511719 564.363281 L 212.613281 564.363281 Z M 199.808594 568.511719 L 207.210938 551.375 L 210.914062 551.375 L 218.316406 568.511719 C 211.457031 568.511719 206.664062 568.511719 199.808594 568.511719 Z M 222.316406 568.511719 L 222.316406 551.375 L 226.140625 551.375 L 226.140625 565.105469 L 233.445312 565.105469 L 233.445312 568.511719 Z M 244.128906 561.230469 L 247.167969 551.375 L 251.164062 551.375 L 254.179688 561.230469 L 257.585938 551.375 L 261.730469 551.375 L 255.75 568.511719 L 252.90625 568.511719 L 249.152344 556.597656 L 245.425781 568.511719 L 242.582031 568.511719 L 236.601562 551.375 L 240.746094 551.375 Z M 277.429688 568.511719 L 275.835938 564.8125 L 268.652344 564.8125 L 267.058594 568.511719 L 262.992188 568.511719 L 270.394531 551.375 L 274.097656 551.375 L 281.5 568.511719 Z M 272.257812 556.476562 L 270.101562 561.453125 L 274.390625 561.453125 Z M 292.027344 568.511719 L 288.203125 568.511719 L 288.203125 561.746094 L 282.269531 551.375 L 286.414062 551.375 L 290.117188 557.75 L 293.816406 551.375 L 297.960938 551.375 L 292.027344 561.746094 Z M 321.832031 551.375 L 325.65625 551.375 L 325.65625 568.511719 L 321.832031 568.511719 L 321.832031 561.769531 L 315.015625 561.769531 L 315.015625 568.511719 L 311.191406 568.511719 L 311.191406 551.375 L 315.015625 551.375 L 315.015625 558.535156 L 321.832031 558.535156 Z M 344.605469 559.847656 C 344.605469 558.316406 344.117188 557.015625 343.136719 555.9375 C 342.15625 554.859375 340.949219 554.316406 339.519531 554.316406 C 338.089844 554.316406 336.882812 554.859375 335.902344 555.9375 C 334.921875 557.015625 334.433594 558.316406 334.433594 559.847656 C 334.433594 561.375 334.921875 562.675781 335.902344 563.746094 C 336.882812 564.816406 338.089844 565.351562 339.519531 565.351562 C 340.949219 565.351562 342.15625 564.816406 343.136719 563.746094 C 344.117188 562.675781 344.605469 561.375 344.605469 559.847656 Z M 345.90625 566.148438 C 344.171875 567.839844 342.039062 568.683594 339.507812 568.683594 C 336.972656 568.683594 334.839844 567.839844 333.109375 566.148438 C 331.375 564.457031 330.511719 562.351562 330.511719 559.835938 C 330.511719 557.316406 331.375 555.214844 333.109375 553.523438 C 334.839844 551.828125 336.972656 550.984375 339.507812 550.984375 C 342.039062 550.984375 344.171875 551.828125 345.90625 553.523438 C 347.640625 555.214844 348.503906 557.316406 348.503906 559.835938 C 348.503906 562.351562 347.640625 564.457031 345.90625 566.148438 Z M 358.445312 554.34375 C 357.808594 554.34375 357.304688 554.492188 356.9375 554.796875 C 356.570312 555.097656 356.386719 555.5 356.386719 555.996094 C 356.386719 556.496094 356.613281 556.890625 357.0625 557.1875 C 357.511719 557.480469 358.546875 557.828125 360.175781 558.226562 C 361.800781 558.628906 363.0625 559.230469 363.960938 560.03125 C 364.859375 560.832031 365.308594 562 365.308594 563.535156 C 365.308594 565.074219 364.734375 566.320312 363.582031 567.273438 C 362.429688 568.230469 360.914062 568.710938 359.035156 568.710938 C 356.320312 568.710938 353.878906 567.703125 351.703125 565.695312 L 353.984375 562.898438 C 355.832031 564.515625 357.539062 565.324219 359.109375 565.324219 C 359.8125 565.324219 360.363281 565.175781 360.761719 564.871094 C 361.164062 564.570312 361.363281 564.160156 361.363281 563.648438 C 361.363281 563.132812 361.152344 562.722656 360.726562 562.421875 C 360.300781 562.117188 359.460938 561.8125 358.199219 561.5 C 356.207031 561.027344 354.75 560.410156 353.824219 559.648438 C 352.902344 558.890625 352.441406 557.695312 352.441406 556.070312 C 352.441406 554.445312 353.023438 553.191406 354.191406 552.308594 C 355.359375 551.425781 356.820312 550.984375 358.570312 550.984375 C 359.710938 550.984375 360.855469 551.179688 362 551.570312 C 363.144531 551.964844 364.140625 552.519531 364.992188 553.238281 L 363.054688 556.035156 C 361.566406 554.90625 360.03125 554.34375 358.445312 554.34375 Z M 376.945312 554.6875 L 376.945312 568.511719 L 373.121094 568.511719 L 373.121094 554.6875 L 368.269531 554.6875 L 368.269531 551.375 L 381.800781 551.375 L 381.800781 554.6875 Z M 398.78125 551.375 L 398.78125 554.785156 L 390.25 554.785156 L 390.25 558.3125 L 397.921875 558.3125 L 397.921875 561.574219 L 390.25 561.574219 L 390.25 565.128906 L 399.050781 565.128906 L 399.050781 568.511719 L 386.425781 568.511719 L 386.425781 551.375 Z M 404.144531 568.511719 L 404.144531 551.375 L 407.96875 551.375 L 407.96875 565.105469 L 415.277344 565.105469 L 415.277344 568.511719 Z M 404.144531 568.511719 "/>
<path fill-rule="nonzero" fill="rgb(94.902039%, 38.038635%, 14.117432%)" fill-opacity="1" d="M 252.722656 586.613281 L 256.523438 586.613281 L 256.523438 592.617188 C 254.847656 594.492188 252.519531 595.429688 249.550781 595.429688 C 247.0625 595.429688 244.976562 594.605469 243.289062 592.957031 C 241.601562 591.3125 240.761719 589.234375 240.761719 586.722656 C 240.761719 584.210938 241.621094 582.117188 243.339844 580.4375 C 245.058594 578.757812 247.132812 577.917969 249.5625 577.917969 C 251.992188 577.917969 254.101562 578.71875 255.894531 580.316406 L 253.933594 583.148438 C 253.175781 582.488281 252.476562 582.03125 251.839844 581.78125 C 251.203125 581.53125 250.511719 581.40625 249.769531 581.40625 C 248.332031 581.40625 247.121094 581.894531 246.136719 582.871094 C 245.152344 583.847656 244.660156 585.136719 244.660156 586.734375 C 244.660156 588.332031 245.128906 589.613281 246.074219 590.574219 C 247.019531 591.535156 248.144531 592.015625 249.453125 592.015625 C 250.761719 592.015625 251.851562 591.761719 252.722656 591.261719 Z M 280.410156 583.925781 C 280.410156 586.636719 279.339844 588.390625 277.191406 589.179688 L 281.476562 595.234375 L 276.828125 595.234375 L 273.074219 589.835938 L 270.457031 589.835938 L 270.457031 595.234375 L 266.679688 595.234375 L 266.679688 578.304688 L 273.097656 578.304688 C 275.730469 578.304688 277.605469 578.75 278.730469 579.636719 C 279.851562 580.527344 280.410156 581.957031 280.410156 583.925781 Z M 273.21875 586.566406 C 274.511719 586.566406 275.390625 586.355469 275.859375 585.933594 C 276.328125 585.515625 276.5625 584.847656 276.5625 583.9375 C 276.5625 583.023438 276.320312 582.398438 275.835938 582.058594 C 275.351562 581.722656 274.503906 581.550781 273.292969 581.550781 L 270.457031 581.550781 L 270.457031 586.566406 Z M 303.863281 586.671875 C 303.863281 585.164062 303.378906 583.875 302.410156 582.8125 C 301.441406 581.746094 300.25 581.210938 298.839844 581.210938 C 297.425781 581.210938 296.234375 581.746094 295.265625 582.8125 C 294.296875 583.875 293.8125 585.164062 293.8125 586.671875 C 293.8125 588.183594 294.296875 589.46875 295.265625 590.523438 C 296.234375 591.582031 297.425781 592.109375 298.839844 592.109375 C 300.25 592.109375 301.441406 591.582031 302.410156 590.523438 C 303.378906 589.46875 303.863281 588.183594 303.863281 586.671875 Z M 305.148438 592.898438 C 303.433594 594.570312 301.328125 595.402344 298.824219 595.402344 C 296.324219 595.402344 294.214844 594.570312 292.503906 592.898438 C 290.792969 591.226562 289.9375 589.148438 289.9375 586.660156 C 289.9375 584.175781 290.792969 582.097656 292.503906 580.425781 C 294.214844 578.753906 296.324219 577.917969 298.824219 577.917969 C 301.328125 577.917969 303.433594 578.753906 305.148438 580.425781 C 306.859375 582.097656 307.714844 584.175781 307.714844 586.660156 C 307.714844 589.148438 306.859375 591.226562 305.148438 592.898438 Z M 322.179688 590.863281 C 322.808594 591.644531 323.65625 592.039062 324.722656 592.039062 C 325.789062 592.039062 326.632812 591.644531 327.253906 590.863281 C 327.875 590.082031 328.1875 589.011719 328.1875 587.65625 L 328.1875 578.304688 L 331.964844 578.304688 L 331.964844 587.777344 C 331.964844 590.230469 331.285156 592.113281 329.929688 593.429688 C 328.574219 594.746094 326.839844 595.402344 324.722656 595.402344 C 322.609375 595.402344 320.867188 594.742188 319.503906 593.417969 C 318.140625 592.09375 317.457031 590.214844 317.457031 587.777344 L 317.457031 578.304688 L 321.234375 578.304688 L 321.234375 587.65625 C 321.234375 589.011719 321.550781 590.082031 322.179688 590.863281 Z M 348.660156 578.304688 C 351.257812 578.304688 353.152344 578.8125 354.335938 579.820312 C 355.523438 580.828125 356.117188 582.378906 356.117188 584.46875 C 356.117188 586.5625 355.507812 588.089844 354.289062 589.058594 C 353.070312 590.027344 351.210938 590.511719 348.707031 590.511719 L 346.453125 590.511719 L 346.453125 595.234375 L 342.675781 595.234375 L 342.675781 578.304688 Z M 348.996094 587.242188 C 350.257812 587.242188 351.113281 586.988281 351.566406 586.480469 C 352.015625 585.972656 352.242188 585.230469 352.242188 584.25 C 352.242188 583.277344 351.949219 582.582031 351.359375 582.167969 C 350.769531 581.757812 349.851562 581.550781 348.609375 581.550781 L 346.453125 581.550781 L 346.453125 587.242188 Z M 348.996094 587.242188 "/>
<path fill-rule="evenodd" fill="rgb(100%, 100%, 100%)" fill-opacity="1" d="M 328.613281 458.746094 L 350.308594 458.746094 C 351.835938 458.746094 353.085938 459.996094 353.085938 461.527344 L 353.085938 466.992188 C 353.085938 468.519531 351.835938 469.769531 350.308594 469.769531 L 332.765625 469.769531 L 332.765625 469.789062 L 251.746094 469.789062 L 251.746094 509.59375 L 332.765625 509.59375 L 332.765625 509.605469 L 342.75 509.605469 L 342.75 498.703125 L 285.433594 498.703125 L 285.433594 488.25 L 351.046875 488.25 C 352.09375 488.25 352.945312 489.105469 352.945312 490.148438 L 352.945312 517.71875 C 352.945312 518.761719 352.09375 519.617188 351.046875 519.617188 L 244.75 519.617188 C 242.796875 519.617188 241.199219 518.019531 241.199219 516.066406 L 241.199219 462.296875 C 241.199219 460.34375 242.796875 458.746094 244.75 458.746094 Z M 328.613281 458.746094 "/>
<path fill-rule="evenodd" fill="rgb(94.902039%, 38.038635%, 14.117432%)" fill-opacity="1" d="M 334.597656 450.953125 L 342.335938 450.953125 C 345.351562 450.953125 347.820312 453.421875 347.820312 456.4375 L 347.820312 456.648438 L 329.113281 456.648438 L 329.113281 456.4375 C 329.113281 453.421875 331.582031 450.953125 334.597656 450.953125 "/>
<path fill-rule="evenodd" fill="rgb(94.902039%, 38.038635%, 14.117432%)" fill-opacity="1" d="M 334.597656 480.769531 L 342.335938 480.769531 C 345.351562 480.769531 347.820312 483.238281 347.820312 486.257812 L 347.820312 486.46875 L 329.113281 486.46875 L 329.113281 486.257812 C 329.113281 483.238281 331.582031 480.769531 334.597656 480.769531 "/>
<path fill-rule="evenodd" fill="rgb(94.902039%, 38.038635%, 14.117432%)" fill-opacity="1" d="M 263.519531 454.46875 L 273.976562 454.46875 L 269.503906 488.753906 L 282.328125 488.753906 L 286.800781 454.46875 L 297.253906 454.46875 L 287.761719 527.257812 L 277.308594 527.257812 L 281.039062 498.632812 L 268.21875 498.632812 L 264.484375 527.257812 L 254.03125 527.257812 Z M 263.519531 454.46875 "/>
</svg>
