<?xml version="1.0" encoding="UTF-8"?>
<svg xmlns="http://www.w3.org/2000/svg" xmlns:xlink="http://www.w3.org/1999/xlink" width="769.5" height="1119.5" viewBox="26.25 46.15625 769.5 1119.5">
<path fill-rule="nonzero" fill="#B22222" fill-opacity="1" d="M 140.75 160.65625 L 26.25 160.65625 L 26.25 46.15625 L 140.75 46.15625 Z M 140.75 160.65625 "/>
<path fill-rule="nonzero" fill="#B22222" fill-opacity="1" d="M 271.75 160.65625 L 157.25 160.65625 L 157.25 46.15625 L 271.75 46.15625 Z M 271.75 160.65625 "/>
<path fill-rule="nonzero" fill="#B22222" fill-opacity="1" d="M 402.75 160.65625 L 288.25 160.65625 L 288.25 46.15625 L 402.75 46.15625 Z M 402.75 160.65625 "/>
<path fill-rule="nonzero" fill="#B22222" fill-opacity="1" d="M 533.75 160.65625 L 419.25 160.65625 L 419.25 46.15625 L 533.75 46.15625 Z M 533.75 160.65625 "/>
<path fill-rule="nonzero" fill="#B22222" fill-opacity="1" d="M 664.75 160.65625 L 550.25 160.65625 L 550.25 46.15625 L 664.75 46.15625 Z M 664.75 160.65625 "/>
<path fill-rule="nonzero" fill="#B22222" fill-opacity="1" d="M 795.75 160.65625 L 681.25 160.65625 L 681.25 46.15625 L 795.75 46.15625 Z M 795.75 160.65625 "/>
<path fill-rule="nonzero" fill="#B22222" fill-opacity="1" d="M 140.75 307.65625 L 26.25 307.65625 L 26.25 193.15625 L 140.75 193.15625 Z M 140.75 307.65625 "/>
<path fill-rule="nonzero" fill="#B22222" fill-opacity="1" d="M 271.75 307.65625 L 157.25 307.65625 L 157.25 193.15625 L 271.75 193.15625 Z M 271.75 307.65625 "/>
<path fill-rule="nonzero" fill="#B22222" fill-opacity="1" d="M 402.75 307.65625 L 288.25 307.65625 L 288.25 193.15625 L 402.75 193.15625 Z M 402.75 307.65625 "/>
<path fill-rule="nonzero" fill="#B22222" fill-opacity="1" d="M 533.75 307.65625 L 419.25 307.65625 L 419.25 193.15625 L 533.75 193.15625 Z M 533.75 307.65625 "/>
<path fill-rule="nonzero" fill="#B22222" fill-opacity="1" d="M 664.75 307.65625 L 550.25 307.65625 L 550.25 193.15625 L 664.75 193.15625 Z M 664.75 307.65625 "/>
<path fill-rule="nonzero" fill="#B22222" fill-opacity="1" d="M 795.75 307.65625 L 681.25 307.65625 L 681.25 193.15625 L 795.75 193.15625 Z M 795.75 307.65625 "/>
<path fill-rule="nonzero" fill="#B22222" fill-opacity="1" d="M 140.75 454.65625 L 26.25 454.65625 L 26.25 340.15625 L 140.75 340.15625 Z M 140.75 454.65625 "/>
<path fill-rule="nonzero" fill="#B22222" fill-opacity="1" d="M 271.75 454.65625 L 157.25 454.65625 L 157.25 340.15625 L 271.75 340.15625 Z M 271.75 454.65625 "/>
<path fill-rule="nonzero" fill="#B22222" fill-opacity="1" d="M 402.75 454.65625 L 288.25 454.65625 L 288.25 340.15625 L 402.75 340.15625 Z M 402.75 454.65625 "/>
<path fill-rule="nonzero" fill="#B22222" fill-opacity="1" d="M 533.75 454.65625 L 419.25 454.65625 L 419.25 340.15625 L 533.75 340.15625 Z M 533.75 454.65625 "/>
<path fill-rule="nonzero" fill="#B22222" fill-opacity="1" d="M 664.75 454.65625 L 550.25 454.65625 L 550.25 340.15625 L 664.75 340.15625 Z M 664.75 454.65625 "/>
<path fill-rule="nonzero" fill="#B22222" fill-opacity="1" d="M 795.75 454.65625 L 681.25 454.65625 L 681.25 340.15625 L 795.75 340.15625 Z M 795.75 454.65625 "/>
<path fill-rule="nonzero" fill="#B22222" fill-opacity="1" d="M 140.75 601.65625 L 26.25 601.65625 L 26.25 487.15625 L 140.75 487.15625 Z M 140.75 601.65625 "/>
<path fill-rule="nonzero" fill="#B22222" fill-opacity="1" d="M 271.75 601.65625 L 157.25 601.65625 L 157.25 487.15625 L 271.75 487.15625 Z M 271.75 601.65625 "/>
<path fill-rule="nonzero" fill="#B22222" fill-opacity="1" d="M 402.75 601.65625 L 288.25 601.65625 L 288.25 487.15625 L 402.75 487.15625 Z M 402.75 601.65625 "/>
<path fill-rule="nonzero" fill="#B22222" fill-opacity="1" d="M 533.75 601.65625 L 419.25 601.65625 L 419.25 487.15625 L 533.75 487.15625 Z M 533.75 601.65625 "/>
<path fill-rule="nonzero" fill="#B22222" fill-opacity="1" d="M 664.75 601.65625 L 550.25 601.65625 L 550.25 487.15625 L 664.75 487.15625 Z M 664.75 601.65625 "/>
<path fill-rule="nonzero" fill="#B22222" fill-opacity="1" d="M 795.75 601.65625 L 681.25 601.65625 L 681.25 487.15625 L 795.75 487.15625 Z M 795.75 601.65625 "/>
<path fill-rule="nonzero" fill="#B22222" fill-opacity="1" d="M 140.75 748.65625 L 26.25 748.65625 L 26.25 634.15625 L 140.75 634.15625 Z M 140.75 748.65625 "/>
<path fill-rule="nonzero" fill="#B22222" fill-opacity="1" d="M 271.75 748.65625 L 157.25 748.65625 L 157.25 634.15625 L 271.75 634.15625 Z M 271.75 748.65625 "/>
<path fill-rule="nonzero" fill="#B22222" fill-opacity="1" d="M 402.75 748.65625 L 288.25 748.65625 L 288.25 634.15625 L 402.75 634.15625 Z M 402.75 748.65625 "/>
<path fill-rule="nonzero" fill="#B22222" fill-opacity="1" d="M 533.75 748.65625 L 419.25 748.65625 L 419.25 634.15625 L 533.75 634.15625 Z M 533.75 748.65625 "/>
<path fill-rule="nonzero" fill="#B22222" fill-opacity="1" d="M 664.75 748.65625 L 550.25 748.65625 L 550.25 634.15625 L 664.75 634.15625 Z M 664.75 748.65625 "/>
<path fill-rule="nonzero" fill="#B22222" fill-opacity="1" d="M 795.75 748.65625 L 681.25 748.65625 L 681.25 634.15625 L 795.75 634.15625 Z M 795.75 748.65625 "/>
<path fill-rule="nonzero" fill="#B22222" fill-opacity="1" d="M 140.75 887.65625 L 26.25 887.65625 L 26.25 773.15625 L 140.75 773.15625 Z M 140.75 887.65625 "/>
<path fill-rule="nonzero" fill="#B22222" fill-opacity="1" d="M 271.75 887.65625 L 157.25 887.65625 L 157.25 773.15625 L 271.75 773.15625 Z M 271.75 887.65625 "/>
<path fill-rule="nonzero" fill="#B22222" fill-opacity="1" d="M 402.75 887.65625 L 288.25 887.65625 L 288.25 773.15625 L 402.75 773.15625 Z M 402.75 887.65625 "/>
<path fill-rule="nonzero" fill="#B22222" fill-opacity="1" d="M 533.75 887.65625 L 419.25 887.65625 L 419.25 773.15625 L 533.75 773.15625 Z M 533.75 887.65625 "/>
<path fill-rule="nonzero" fill="#B22222" fill-opacity="1" d="M 664.75 887.65625 L 550.25 887.65625 L 550.25 773.15625 L 664.75 773.15625 Z M 664.75 887.65625 "/>
<path fill-rule="nonzero" fill="#B22222" fill-opacity="1" d="M 795.75 887.65625 L 681.25 887.65625 L 681.25 773.15625 L 795.75 773.15625 Z M 795.75 887.65625 "/>
<path fill-rule="nonzero" fill="#B22222" fill-opacity="1" d="M 140.75 1026.65625 L 26.25 1026.65625 L 26.25 912.15625 L 140.75 912.15625 Z M 140.75 1026.65625 "/>
<path fill-rule="nonzero" fill="#B22222" fill-opacity="1" d="M 271.75 1026.65625 L 157.25 1026.65625 L 157.25 912.15625 L 271.75 912.15625 Z M 271.75 1026.65625 "/>
<path fill-rule="nonzero" fill="#B22222" fill-opacity="1" d="M 402.75 1026.65625 L 288.25 1026.65625 L 288.25 912.15625 L 402.75 912.15625 Z M 402.75 1026.65625 "/>
<path fill-rule="nonzero" fill="#B22222" fill-opacity="1" d="M 533.75 1026.65625 L 419.25 1026.65625 L 419.25 912.15625 L 533.75 912.15625 Z M 533.75 1026.65625 "/>
<path fill-rule="nonzero" fill="#B22222" fill-opacity="1" d="M 664.75 1026.65625 L 550.25 1026.65625 L 550.25 912.15625 L 664.75 912.15625 Z M 664.75 1026.65625 "/>
<path fill-rule="nonzero" fill="#B22222" fill-opacity="1" d="M 795.75 1026.65625 L 681.25 1026.65625 L 681.25 912.15625 L 795.75 912.15625 Z M 795.75 1026.65625 "/>
<path fill-rule="nonzero" fill="#B22222" fill-opacity="1" d="M 140.75 1165.65625 L 26.25 1165.65625 L 26.25 1051.15625 L 140.75 1051.15625 Z M 140.75 1165.65625 "/>
<path fill-rule="nonzero" fill="#B22222" fill-opacity="1" d="M 271.75 1165.65625 L 157.25 1165.65625 L 157.25 1051.15625 L 271.75 1051.15625 Z M 271.75 1165.65625 "/>
<path fill-rule="nonzero" fill="#B22222" fill-opacity="1" d="M 402.75 1165.65625 L 288.25 1165.65625 L 288.25 1051.15625 L 402.75 1051.15625 Z M 402.75 1165.65625 "/>
<path fill-rule="nonzero" fill="#B22222" fill-opacity="1" d="M 533.75 1165.65625 L 419.25 1165.65625 L 419.25 1051.15625 L 533.75 1051.15625 Z M 533.75 1165.65625 "/>
<path fill-rule="nonzero" fill="#B22222" fill-opacity="1" d="M 664.75 1165.65625 L 550.25 1165.65625 L 550.25 1051.15625 L 664.75 1051.15625 Z M 664.75 1165.65625 "/>
<path fill-rule="nonzero" fill="#B22222" fill-opacity="1" d="M 795.75 1165.65625 L 681.25 1165.65625 L 681.25 1051.15625 L 795.75 1051.15625 Z M 795.75 1165.65625 "/>
</svg>
