<?xml version="1.0" encoding="UTF-8"?>
<svg xmlns="http://www.w3.org/2000/svg" xmlns:xlink="http://www.w3.org/1999/xlink" width="623.621094" height="147.402344" viewBox="0 0 623.621094 147.402344">
<defs>
<clipPath id="clip-0">
<path clip-rule="nonzero" d="M 137 0 L 509 0 L 509 147.402344 L 137 147.402344 Z M 137 0 "/ fill="#000000">
</clipPath>
<clipPath id="clip-1">
<path clip-rule="nonzero" d="M 517 7 L 623.621094 7 L 623.621094 142 L 517 142 Z M 517 7 "/ fill="#000000">
</clipPath>
</defs>
<g clip-path="url(#clip-0)">
<path fill-rule="nonzero" fill="rgb(21.566772%, 37.019348%, 70.736694%)" fill-opacity="1" d="M 392.417969 49.707031 C 384.710938 39.707031 374.230469 33.707031 359.742188 33.707031 C 336.003906 33.707031 316.585938 51.707031 316.585938 73.984375 C 316.585938 96.265625 336.007812 114.261719 359.742188 114.261719 C 377.003906 114.261719 391.800781 104.835938 398.582031 91.125 L 354.191406 91.125 L 354.191406 57.984375 L 435.570312 57.984375 L 435.570312 6.570312 L 508.011719 6.570312 L 508.011719 39.710938 L 470.09375 39.710938 L 470.09375 57.992188 L 508.011719 57.992188 L 508.011719 91.128906 L 470.09375 91.128906 L 470.09375 108.265625 L 508.011719 108.265625 L 508.011719 140.546875 L 435.570312 140.546875 L 435.570312 91.984375 C 426.9375 128.546875 395.1875 147.402344 359.738281 147.402344 C 324.289062 147.402344 295.003906 127.976562 286.679688 93.984375 L 286.679688 141.117188 L 251.230469 141.117188 L 251.230469 62.847656 C 251.230469 62.847656 230.578125 79.699219 230.578125 141.117188 L 193.894531 141.117188 C 193.894531 79.699219 173.238281 62.847656 173.238281 62.847656 L 173.238281 141.117188 L 137.480469 141.117188 L 137.480469 5.140625 C 178.480469 5.140625 205.605469 47.988281 212.078125 73.125 C 218.554688 47.988281 245.679688 5.140625 286.679688 5.140625 L 286.679688 50.277344 C 293.773438 20.28125 326.144531 0 360.050781 0 C 393.960938 0 425.09375 24.28125 431.570312 49.707031 Z M 392.417969 49.707031 "/>
</g>
<g clip-path="url(#clip-1)">
<path fill-rule="nonzero" fill="rgb(21.566772%, 37.019348%, 70.736694%)" fill-opacity="1" d="M 586.625 141.113281 C 581.386719 104.265625 555.183594 77.984375 555.183594 77.984375 L 555.183594 141.113281 L 517.269531 141.113281 L 517.269531 7.140625 C 525.59375 7.140625 555.800781 22.28125 586.628906 63.414062 L 586.628906 7.140625 L 623.621094 7.140625 L 623.621094 140.828125 L 586.628906 140.828125 L 586.628906 141.113281 Z M 586.625 141.113281 "/>
</g>
<path fill-rule="nonzero" fill="rgb(21.566772%, 37.019348%, 70.736694%)" fill-opacity="1" d="M 93.402344 76.273438 L 93.402344 44.5625 C 81.996094 51.992188 69.664062 65.699219 62.269531 76.273438 Z M 46.855469 107.40625 C 45.933594 111.121094 39.457031 131.6875 36.992188 141.117188 L 0 141.117188 C 4.933594 124.265625 14.488281 95.410156 24.660156 75.984375 C 34.523438 56.847656 46.855469 35.710938 67.507812 21.425781 C 77.066406 14.855469 95.253906 2 129.164062 4.859375 L 129.164062 141.117188 L 93.402344 141.117188 L 93.402344 107.40625 Z M 46.855469 107.40625 "/>
</svg>
