<?xml version="1.0" standalone="no"?>
<!DOCTYPE svg PUBLIC "-//W3C//DTD SVG 20010904//EN"
 "http://www.w3.org/TR/2001/REC-SVG-20010904/DTD/svg10.dtd">
<svg version="1.0" xmlns="http://www.w3.org/2000/svg"
 width="3508.000000pt" height="4961.000000pt" viewBox="0 0 3508.000000 4961.000000"
 preserveAspectRatio="xMidYMid meet">
<metadata>
Created by potrace 1.16, written by Peter Selinger 2001-2019
</metadata>
<g transform="translate(0.000000,4961.000000) scale(0.100000,-0.100000)"
fill="#000000" stroke="none">
<path d="M32007 47199 c-20 -5 -59 -20 -86 -34 -27 -13 -94 -42 -149 -64 -175
-70 -183 -77 -248 -220 -63 -137 -63 -150 -1 -164 20 -5 57 -27 82 -49 l46
-41 -50 -46 c-37 -35 -51 -55 -51 -74 0 -15 -11 -50 -25 -77 -35 -70 -58 -133
-110 -310 -103 -348 -195 -608 -315 -890 -131 -307 -164 -469 -151 -736 10
-189 18 -219 106 -394 39 -77 52 -119 73 -225 24 -126 25 -142 23 -510 -2
-361 -10 -533 -32 -672 -5 -34 -9 -120 -8 -190 2 -152 -5 -179 -79 -336 -57
-122 -78 -145 -157 -173 -22 -8 -34 -21 -45 -52 -8 -23 -22 -44 -31 -47 -9 -3
-30 -32 -47 -63 l-31 -58 22 -27 c31 -37 59 -44 157 -41 47 2 92 3 100 3 103
-1 132 2 175 18 43 16 50 23 53 48 2 17 10 35 18 42 8 6 31 44 50 84 31 64 34
79 29 121 -6 41 -4 49 12 54 55 20 64 54 37 145 -9 30 -17 83 -18 118 -1 62 0
64 38 96 l39 32 -18 49 c-16 47 -16 56 -1 161 9 61 25 144 36 185 23 85 83
338 100 419 11 56 12 57 57 69 44 13 48 12 121 -24 l75 -37 -8 -92 c-5 -51 -8
-104 -7 -120 3 -80 79 -161 307 -331 88 -65 164 -122 168 -126 8 -7 -7 -243
-19 -302 -6 -31 1 -29 -211 -62 l-151 -23 -57 -49 c-48 -42 -125 -133 -125
-149 0 -3 8 -5 18 -5 9 0 22 -8 29 -19 13 -20 70 -34 151 -35 28 -1 52 -4 52
-7 0 -4 25 -10 56 -14 51 -6 61 -4 139 34 45 23 90 41 99 41 14 0 16 -16 16
-115 0 -105 -3 -125 -35 -223 -23 -72 -46 -121 -70 -151 -25 -31 -46 -77 -70
-156 -39 -125 -42 -145 -20 -145 9 0 24 -13 33 -30 15 -27 22 -30 70 -30 39 0
52 -4 52 -15 0 -21 38 -28 129 -24 70 4 85 8 125 36 25 18 61 35 81 39 69 13
90 74 64 194 -9 42 -8 59 7 100 17 47 17 54 0 142 -34 184 -39 273 -20 354 13
56 16 98 11 170 l-6 96 72 -7 c40 -3 108 -14 152 -23 53 -11 124 -16 207 -16
l126 1 -9 -23 c-22 -61 -40 -82 -79 -98 -22 -9 -47 -16 -56 -16 -9 0 -41 -26
-72 -57 l-57 -58 -19 -104 c-19 -102 -19 -104 0 -118 13 -10 35 -13 74 -10 44
4 60 1 79 -14 30 -24 72 -24 121 1 22 11 46 20 55 20 31 0 95 41 110 70 9 16
20 65 25 107 l10 78 85 85 85 85 0 60 c0 33 -4 77 -9 97 -6 27 -5 38 4 42 22
8 137 169 169 236 27 57 31 77 33 165 2 55 7 132 12 170 17 139 -21 263 -128
420 -26 39 -88 138 -136 220 -48 83 -107 182 -131 222 -27 43 -64 129 -94 216
-136 399 -236 571 -501 858 -118 128 -136 153 -153 205 -29 93 -111 259 -159
324 -42 55 -107 207 -107 248 0 22 181 177 302 258 114 77 156 92 205 75 20
-7 53 -13 75 -13 30 1 42 -5 54 -24 43 -65 276 -2 450 122 86 60 151 136 193
224 35 72 36 79 36 185 0 73 5 118 13 134 18 30 19 169 3 199 -21 40 -52 44
-311 40 l-245 -3 -77 60 c-44 34 -91 82 -108 109 -49 76 -100 91 -445 126
-127 14 -168 14 -211 5 -24 -5 -43 0 -86 24 -57 32 -91 36 -161 20z"/>
<path d="M20060 46278 c-19 -13 -46 -44 -60 -68 -32 -59 -38 -182 -16 -338 9
-62 16 -147 16 -190 0 -74 16 -158 38 -198 5 -11 41 -35 78 -54 92 -47 123
-90 159 -218 l28 -100 -36 -83 c-40 -96 -46 -120 -87 -364 -41 -243 -75 -378
-109 -439 -33 -58 -53 -107 -75 -186 -8 -31 -31 -76 -50 -100 -41 -53 -89
-147 -107 -210 -7 -25 -23 -58 -36 -73 -12 -15 -30 -51 -38 -80 -20 -66 -45
-295 -45 -412 0 -90 4 -112 35 -217 l17 -57 -52 -58 c-75 -85 -147 -206 -177
-301 -22 -70 -25 -95 -21 -175 4 -80 9 -102 40 -167 20 -41 47 -90 62 -109 29
-39 31 -51 14 -97 -9 -26 -9 -39 2 -61 7 -15 12 -34 11 -42 -1 -7 8 -38 20
-69 20 -50 21 -60 11 -111 -16 -75 -15 -136 1 -150 19 -15 173 -17 232 -2 28
7 66 16 85 20 l35 7 -2 59 c-3 90 -23 136 -67 160 -42 23 -48 39 -50 131 -1
74 -6 71 104 50 l65 -12 8 -54 c4 -30 11 -80 16 -110 5 -30 8 -146 6 -257 -4
-198 -3 -203 18 -218 12 -8 33 -15 47 -15 14 0 54 -7 91 -17 61 -15 67 -15 99
0 18 9 42 17 52 17 31 0 54 17 68 49 11 27 14 29 41 19 44 -15 59 -5 59 42 0
34 -7 49 -43 88 -73 80 -87 102 -87 142 0 21 -15 94 -34 161 -53 198 -55 175
10 182 31 3 79 17 108 30 28 14 71 28 96 31 84 12 175 49 265 107 80 52 90 56
93 39 2 -11 48 -57 103 -101 55 -45 105 -93 110 -107 15 -40 38 -61 74 -68 30
-5 34 -10 40 -49 5 -35 1 -55 -19 -98 -15 -30 -26 -68 -26 -86 0 -62 73 -101
131 -71 13 8 25 7 41 -1 58 -31 188 -33 188 -2 0 7 12 19 26 25 15 7 27 23 31
40 5 28 23 49 23 29 0 -25 29 -9 35 19 9 40 -1 67 -41 117 -19 23 -53 80 -75
127 -38 79 -42 96 -52 210 l-10 124 51 178 c28 99 59 218 69 266 16 82 16 94
1 197 -16 109 -16 110 8 193 38 134 54 234 54 340 0 111 -9 141 -115 368 -29
63 -68 150 -86 194 -22 55 -49 97 -91 145 -145 161 -160 258 -55 358 63 61
136 113 158 113 40 0 78 31 123 99 39 60 50 70 78 73 52 5 59 31 55 193 -3
115 -8 150 -26 197 -25 65 -77 146 -128 199 -31 33 -34 42 -37 105 -3 86 -14
108 -74 138 -28 14 -57 39 -72 62 -14 22 -42 50 -63 63 -34 23 -37 28 -37 72
0 110 -40 218 -89 244 -68 35 -149 -25 -198 -146 -30 -75 -37 -78 -103 -58
-57 17 -173 12 -255 -10 -92 -26 -118 -26 -171 -2 -30 14 -59 42 -104 102
-198 262 -320 348 -410 287z m1276 -3986 c-2 -10 -7 -34 -11 -55 -5 -33 -8
-37 -21 -26 -9 7 -22 25 -29 40 -14 26 -13 28 18 47 35 21 50 19 43 -6z"/>
<path d="M6895 46000 c-140 -15 -208 -40 -329 -123 -120 -82 -168 -132 -372
-392 -194 -247 -324 -396 -410 -470 -31 -27 -119 -90 -194 -140 l-137 -91
-127 -12 c-76 -8 -181 -27 -259 -48 -350 -92 -341 -91 -842 -98 -841 -12
-1382 -40 -1870 -97 -224 -26 -307 -19 -535 48 -320 94 -329 96 -510 97 -147
1 -173 -2 -240 -22 -82 -26 -156 -65 -210 -110 -43 -37 -36 -47 18 -28 54 19
153 30 188 22 27 -7 27 -8 -26 -37 -59 -32 -96 -63 -112 -93 -11 -21 -17 -21
74 8 l48 15 -16 -25 c-21 -32 -13 -40 19 -19 20 13 198 67 204 62 1 -1 -19
-29 -44 -61 -57 -77 -81 -124 -89 -178 l-6 -43 26 31 c24 29 122 81 133 70 3
-2 -15 -33 -40 -68 -44 -62 -87 -161 -75 -173 3 -4 25 13 47 38 46 49 128 97
210 121 79 23 90 21 59 -11 -14 -16 -48 -62 -75 -103 -53 -80 -135 -163 -171
-174 -12 -4 -22 -12 -22 -17 0 -27 144 12 212 58 71 48 69 48 52 1 -8 -23 -27
-55 -41 -70 -15 -16 -22 -28 -15 -28 24 0 109 33 154 60 l46 29 -24 -42 c-13
-23 -24 -57 -24 -75 l0 -34 26 32 c25 29 136 109 192 139 22 12 20 5 -19 -70
-24 -46 -63 -103 -86 -128 -24 -24 -42 -46 -40 -47 7 -7 85 19 123 41 22 13
69 54 104 91 l63 68 -6 -55 c-3 -30 -9 -65 -13 -79 l-8 -25 30 19 c16 10 41
30 56 44 l28 26 0 -60 c0 -37 -8 -75 -20 -103 -11 -24 -18 -46 -16 -48 2 -3
19 6 36 19 34 25 85 89 124 157 l24 43 7 -70 c4 -39 4 -84 0 -101 -7 -33 4
-41 25 -17 6 8 20 36 30 63 l19 48 1 -37 c0 -21 5 -38 10 -38 6 0 23 21 39 46
l29 45 8 -58 c6 -53 1 -94 -21 -148 l-8 -20 23 20 c36 31 76 100 106 183 15
41 30 69 32 61 21 -65 19 -66 73 15 65 97 74 103 66 40 -4 -27 -9 -60 -13 -72
-6 -22 -5 -23 14 -11 28 18 65 88 91 176 13 45 34 87 53 109 54 62 230 175
246 159 8 -8 -72 -84 -155 -147 -63 -48 -123 -119 -123 -145 0 -10 8 -11 27
-7 26 7 26 6 -14 -42 -66 -78 -118 -206 -78 -190 10 3 6 -9 -12 -37 -28 -45
-56 -124 -48 -137 3 -5 -6 -38 -19 -75 -14 -39 -19 -65 -12 -62 6 3 -2 -22
-18 -54 -16 -33 -26 -62 -23 -65 3 -4 20 8 37 25 41 41 52 39 34 -4 -15 -36
-10 -70 7 -44 13 21 11 -2 -5 -54 -14 -48 -9 -60 14 -32 20 24 21 12 4 -39
-17 -51 -14 -66 11 -46 11 9 7 -11 -14 -71 -16 -46 -28 -85 -26 -88 3 -2 16 4
30 13 29 19 29 19 10 -27 -18 -45 -18 -47 -1 -47 12 0 12 -8 1 -55 -12 -55 -9
-65 13 -43 12 12 11 -3 -8 -117 -9 -57 -7 -63 16 -44 36 29 -15 -48 -69 -108
-100 -108 -104 -135 -58 -419 16 -98 37 -231 46 -294 30 -212 38 -235 103
-301 66 -68 94 -79 207 -79 74 0 88 3 163 40 44 22 86 40 92 40 21 0 9 40 -24
83 -19 25 -42 59 -50 76 -22 41 -52 60 -109 67 -34 5 -52 13 -62 28 -23 37
-37 139 -33 253 3 104 5 114 38 176 19 37 62 100 95 142 l59 76 18 -108 c10
-60 31 -200 48 -312 16 -112 35 -220 40 -240 6 -21 32 -59 64 -93 46 -46 64
-58 106 -67 85 -18 149 -14 210 15 30 15 73 32 95 39 34 10 39 16 37 36 -2 13
-22 48 -43 78 -21 30 -39 60 -39 66 0 22 -30 39 -88 50 -52 10 -59 15 -77 51
-17 34 -20 59 -20 184 0 140 1 147 29 200 43 83 106 167 202 271 47 52 109
129 137 171 l51 77 26 -31 26 -31 13 92 c7 50 16 93 20 96 5 2 14 -14 21 -35
23 -71 39 -70 34 2 l-5 63 25 -45 25 -45 1 31 c0 17 3 46 6 63 l6 31 37 -52
c42 -61 84 -82 57 -29 -9 16 -16 40 -16 53 1 22 2 22 22 -7 29 -40 99 -107
105 -101 2 2 -2 15 -10 28 -8 12 -18 34 -22 47 l-7 24 34 -27 c38 -28 53 -33
42 -13 -11 19 9 -3 40 -46 28 -39 73 -74 82 -64 3 3 -2 20 -12 38 l-17 34 35
-31 c43 -38 107 -78 114 -71 3 3 0 16 -7 29 -11 21 -11 22 4 9 14 -11 17 -11
17 0 0 7 17 -3 38 -22 46 -45 101 -83 108 -76 3 3 0 15 -6 27 -6 12 -9 24 -6
28 3 3 6 0 6 -6 0 -7 7 -12 15 -12 8 0 15 4 15 9 0 5 26 -18 58 -51 42 -45 58
-56 60 -43 3 13 10 8 28 -19 13 -19 34 -41 46 -47 19 -10 20 -9 14 12 -4 13
-9 40 -13 59 l-6 35 37 -40 36 -40 -6 40 c-6 38 -5 39 10 20 15 -20 15 -20 16
5 l1 25 16 -22 c22 -32 41 -30 35 5 -5 24 0 22 46 -27 55 -58 71 -63 48 -15
-7 16 -17 43 -20 59 l-7 30 36 -40 35 -40 -6 30 -7 30 22 -19 c20 -18 21 -18
21 -1 0 14 4 13 21 -9 22 -27 41 -34 38 -13 -5 40 5 35 34 -17 34 -61 65 -89
49 -44 -5 12 -12 37 -16 53 l-6 30 15 -27 c17 -31 40 -38 31 -10 -5 13 1 17
24 19 27 2 29 0 20 -17 -14 -26 -13 -33 5 -26 10 3 6 -9 -12 -35 -28 -43 -26
-57 5 -40 12 6 28 11 37 11 12 0 14 -4 5 -19 -13 -26 -13 -31 4 -31 12 0 12
-8 -2 -50 -18 -56 -14 -67 18 -50 20 11 21 10 11 -9 -13 -24 -14 -44 -3 -37 5
3 -2 -16 -15 -41 -31 -63 -31 -81 2 -59 29 19 44 21 27 4 -16 -16 -15 -31 1
-25 8 3 5 -12 -10 -41 -33 -65 -31 -74 14 -66 l36 7 -26 -35 c-31 -40 -33 -48
-11 -48 13 0 12 -6 -7 -37 -25 -40 -27 -39 31 -15 12 5 11 1 -3 -18 -55 -77
-77 -123 -64 -137 4 -3 22 8 42 26 44 38 58 39 49 4 -6 -23 -5 -25 12 -18 10
4 30 10 43 13 21 4 23 2 16 -14 -4 -10 -10 -29 -12 -41 -4 -18 -1 -21 15 -16
26 6 36 -11 20 -36 -14 -24 -4 -39 15 -23 11 9 13 6 9 -18 -8 -56 5 -65 39
-26 17 20 34 34 38 31 14 -8 33 -145 26 -186 -6 -36 -3 -47 30 -94 48 -71 92
-88 221 -89 61 0 98 4 106 12 7 7 37 12 69 12 38 0 63 5 73 15 8 8 28 15 45
15 17 0 31 4 31 9 0 9 -66 109 -97 148 -10 12 -44 33 -75 46 -65 29 -77 47
-108 158 -24 90 -25 92 -2 80 10 -5 42 -55 70 -110 52 -99 107 -161 143 -161
9 0 34 -12 55 -27 23 -16 58 -28 86 -31 89 -9 257 34 258 66 0 7 -16 44 -35
83 -40 79 -64 94 -162 107 l-56 7 -44 76 c-51 88 -68 165 -60 279 3 41 0 135
-7 208 -11 125 -8 170 8 143 4 -6 13 -11 19 -11 8 0 11 15 9 48 -3 38 -2 45 9
35 23 -23 28 -14 22 45 l-6 57 22 -19 c26 -24 38 -14 23 19 -7 14 -12 44 -12
67 0 40 0 41 20 23 11 -10 20 -25 20 -34 0 -9 3 -11 9 -6 6 6 11 33 13 60 l3
50 23 -37 c13 -21 28 -38 33 -38 5 0 9 30 9 67 0 65 0 66 20 48 11 -10 22 -26
25 -36 13 -41 25 -15 25 54 l1 72 29 -32 c35 -39 42 -31 41 44 0 54 0 55 22
40 12 -8 27 -25 34 -38 11 -21 13 -22 19 -5 4 10 2 39 -4 64 -6 26 -9 48 -7
50 8 8 70 -57 84 -88 14 -33 15 -34 19 -10 1 14 -9 58 -23 99 -14 41 -23 76
-21 78 2 2 20 -10 39 -26 19 -17 37 -31 39 -31 3 0 -1 24 -9 53 -7 28 -12 61
-11 72 3 19 5 18 31 -7 32 -32 40 -35 34 -10 -3 9 -8 35 -12 56 l-7 40 41 -37
c23 -20 46 -37 51 -37 13 0 13 -4 -9 55 -10 28 -21 65 -24 83 -6 30 -5 32 13
22 10 -5 22 -19 25 -30 4 -11 11 -17 17 -14 10 6 6 61 -9 137 -6 28 -5 30 20
23 30 -7 32 -4 17 25 -12 22 -3 24 48 10 39 -12 42 2 10 37 l-23 24 23 -7 c21
-6 22 -4 16 22 -3 15 -17 52 -30 81 -12 28 -20 52 -16 52 4 0 22 -9 40 -20 17
-11 32 -17 32 -14 0 4 -18 40 -41 80 -22 41 -36 74 -32 74 5 0 28 -16 51 -36
23 -19 42 -31 42 -24 0 21 -31 83 -64 130 -18 25 -39 57 -45 69 -12 21 -11 22
8 12 11 -6 27 -11 37 -11 15 0 16 2 2 18 -9 9 -25 36 -37 59 l-21 42 35 -15
c34 -14 85 -19 85 -8 0 3 -18 27 -41 53 -22 26 -54 70 -71 99 l-30 52 31 0
c37 0 38 6 9 30 -31 24 -17 36 16 14 35 -23 39 -16 17 32 -11 21 -22 50 -26
63 l-8 25 32 -27 c18 -15 42 -27 53 -27 18 0 18 2 -8 33 -26 31 -54 86 -54
106 0 6 7 8 15 5 18 -7 19 4 5 41 l-10 27 40 -7 c42 -7 52 3 24 26 -17 14 -54
82 -54 100 0 7 9 9 24 5 34 -8 38 2 14 44 -13 22 -19 44 -15 55 7 17 16 17
130 9 67 -5 178 -9 247 -9 109 1 130 3 167 23 45 24 73 56 73 85 0 15 3 16 21
6 17 -9 23 -8 30 2 23 38 -38 121 -103 141 l-37 11 55 33 c131 79 200 161 229
269 16 62 20 172 7 192 -13 20 -59 33 -160 44 -122 13 -267 36 -311 51 -43 14
-125 88 -158 145 -49 84 -98 106 -258 116 -38 2 -101 1 -140 -3z m-1505 -3244
c0 -2 -8 -10 -17 -17 -16 -13 -17 -12 -4 4 13 16 21 21 21 13z"/>
<path d="M28369 45386 c-68 -45 -100 -62 -110 -55 -32 20 -77 9 -126 -30 -26
-21 -59 -50 -73 -65 -13 -15 -40 -37 -60 -48 -67 -41 -111 -81 -130 -118 -26
-51 -93 -88 -260 -146 -102 -34 -154 -59 -221 -103 -110 -74 -181 -101 -294
-111 -49 -5 -142 -19 -205 -33 -63 -14 -146 -28 -185 -31 -92 -9 -343 8 -695
45 -374 40 -584 46 -865 25 -497 -38 -721 -66 -842 -105 -32 -11 -122 -42
-200 -70 -261 -93 -417 -89 -797 18 -119 34 -251 42 -317 19 -80 -27 -179
-127 -179 -182 0 -22 5 -25 48 -31 146 -17 167 -25 412 -144 327 -159 376
-175 550 -176 192 0 324 36 461 129 53 36 99 45 128 27 12 -8 11 -18 -7 -63
-51 -124 -65 -206 -66 -358 0 -126 3 -158 26 -240 20 -73 27 -130 32 -245 8
-170 -6 -401 -29 -490 -18 -69 -96 -236 -147 -316 -46 -73 -49 -90 -31 -178
13 -66 14 -103 4 -281 -6 -113 -14 -231 -17 -262 -10 -114 34 -187 133 -223
66 -24 311 -34 327 -14 6 8 25 19 41 24 39 13 43 44 15 118 -24 65 -55 93
-117 109 -53 13 -72 38 -79 104 -10 80 22 268 57 344 17 36 38 88 46 115 8 28
27 73 40 100 35 69 136 211 141 197 9 -27 -30 -176 -72 -274 -25 -59 -46 -121
-46 -136 0 -53 91 -499 141 -695 25 -96 113 -141 274 -140 161 1 174 2 214 13
52 14 57 33 32 118 -31 102 -59 125 -165 134 -26 3 -33 10 -54 63 -48 123 -62
196 -51 276 14 95 71 294 105 361 15 29 55 88 91 132 83 103 107 146 132 235
11 40 37 103 58 140 31 55 38 79 43 145 10 121 12 122 255 54 417 -115 482
-130 925 -207 354 -62 348 -61 359 -75 9 -11 28 -361 35 -644 l3 -153 40 -37
c37 -34 42 -46 66 -147 14 -60 28 -138 31 -173 6 -70 17 -97 46 -112 32 -17
236 -32 342 -25 90 6 100 5 128 -15 17 -12 37 -34 45 -50 19 -37 55 -47 190
-56 95 -5 113 -4 124 10 10 11 30 16 73 16 63 0 98 12 98 34 0 21 -55 140 -74
158 -11 11 -43 19 -95 23 l-78 7 -62 127 c-79 164 -88 204 -72 324 10 69 10
107 2 152 -32 173 -29 403 5 540 25 102 159 322 279 460 57 66 115 140 129
165 13 25 34 90 46 145 27 126 45 168 118 264 45 60 65 98 85 163 27 87 44
111 87 122 37 9 45 16 73 71 14 28 52 75 84 107 l58 56 105 -36 c125 -43 229
-50 292 -19 42 21 47 20 146 -50 70 -50 98 -52 121 -12 24 42 1 101 -63 163
-29 28 -69 72 -90 98 -20 26 -64 67 -98 90 l-61 43 108 17 c152 23 190 40 226
97 31 48 69 161 69 204 0 39 -38 62 -188 110 -188 61 -208 70 -227 106 -9 18
-11 31 -5 31 5 0 10 7 10 15 0 8 -4 15 -9 15 -5 0 -21 29 -37 65 -24 59 -34
70 -93 109 -97 64 -96 63 -231 70 -69 4 -172 9 -230 12 l-105 5 -96 -65z
m-884 -3445 c25 -90 51 -173 56 -183 14 -26 6 -32 -20 -16 -41 25 -101 212
-101 313 0 43 4 65 9 60 5 -6 30 -84 56 -174z"/>
<path d="M32005 39801 c-16 -4 -52 -19 -80 -33 -27 -14 -93 -42 -145 -63 -52
-20 -118 -50 -146 -66 -48 -27 -54 -35 -103 -141 -71 -152 -71 -167 2 -183 16
-3 48 -24 73 -47 l45 -41 -51 -47 c-35 -32 -50 -54 -50 -72 0 -14 -18 -63 -39
-109 -21 -46 -69 -184 -105 -307 -112 -374 -182 -567 -345 -954 -45 -107 -94
-283 -110 -398 -6 -48 -7 -136 -1 -245 9 -190 17 -220 105 -394 37 -74 52
-121 72 -220 25 -123 25 -135 23 -516 -1 -279 -6 -431 -17 -535 -9 -80 -18
-216 -19 -303 -2 -88 -9 -178 -15 -200 -6 -23 -37 -97 -69 -163 l-57 -121 -67
-33 c-58 -29 -67 -38 -78 -71 -6 -22 -19 -41 -30 -45 -10 -3 -32 -32 -48 -64
l-29 -58 28 -31 c25 -27 37 -32 78 -32 26 0 66 -1 88 -1 110 -3 243 9 278 25
31 13 37 21 37 46 0 17 7 34 15 38 8 5 31 42 51 83 31 65 35 81 30 123 -6 44
-5 48 19 57 44 17 51 50 30 137 -11 42 -19 101 -19 131 0 51 2 57 37 86 42 35
43 42 21 90 -16 32 -16 43 0 148 9 63 25 148 36 189 23 87 83 339 100 421 11
54 13 57 53 71 41 14 43 13 121 -25 l79 -40 -8 -91 c-4 -51 -7 -105 -6 -120 4
-80 87 -168 319 -339 95 -71 162 -127 162 -137 0 -26 -19 -233 -26 -273 -6
-41 4 -38 -245 -76 l-116 -18 -66 -55 c-36 -30 -66 -58 -66 -62 -1 -5 -12 -23
-26 -41 -29 -38 -31 -46 -9 -46 9 0 23 -8 32 -18 20 -22 139 -47 172 -37 14 4
25 2 30 -5 4 -6 34 -12 71 -12 56 -1 73 4 144 40 43 22 83 38 87 36 4 -3 8
-57 8 -120 0 -103 -3 -125 -35 -222 -24 -76 -45 -120 -69 -148 -25 -29 -44
-71 -70 -154 -41 -130 -44 -150 -17 -150 11 0 23 -12 31 -31 13 -30 15 -31 67
-27 44 2 53 0 53 -13 0 -19 39 -29 114 -29 68 0 118 15 149 44 14 13 44 27 66
31 75 13 96 72 70 195 -9 42 -8 59 7 100 18 49 17 53 -4 173 -33 190 -36 242
-16 327 12 55 15 99 11 169 l-6 94 77 -7 c42 -4 122 -16 177 -27 81 -17 119
-20 203 -14 l103 6 -16 -38 c-9 -21 -19 -44 -22 -51 -7 -16 -47 -37 -98 -51
-26 -7 -57 -28 -88 -59 -45 -46 -49 -54 -67 -143 -11 -52 -20 -101 -20 -110 0
-30 85 -51 119 -30 10 7 24 2 46 -15 39 -29 79 -31 123 -4 18 11 42 20 53 20
33 0 98 39 113 68 8 15 19 63 25 106 12 87 17 95 114 185 l67 63 -1 67 c-1 36
-4 79 -8 95 -5 24 0 36 27 65 53 58 121 157 150 219 22 47 27 74 29 157 2 55
7 132 12 170 18 145 -13 247 -134 432 -42 65 -128 205 -191 311 -95 161 -122
216 -163 335 -149 428 -239 578 -537 898 -89 95 -101 112 -122 176 -31 96
-111 258 -161 324 -38 50 -101 198 -101 238 0 33 288 264 395 316 40 20 63 26
87 21 18 -3 51 -8 73 -12 73 -10 83 -14 88 -34 11 -42 165 -19 305 46 155 71
265 172 330 304 36 72 37 77 37 185 0 60 4 116 8 122 16 25 26 125 17 171 -15
85 -16 85 -310 81 l-255 -4 -82 64 c-45 35 -85 72 -89 83 -3 11 -19 35 -36 54
-44 50 -99 64 -363 89 -82 8 -165 17 -183 21 -20 4 -51 1 -74 -7 -38 -12 -42
-11 -98 19 -59 33 -101 38 -165 23z"/>
<path d="M20052 38874 c-78 -61 -99 -185 -68 -402 9 -62 16 -148 16 -191 0
-77 20 -169 45 -204 7 -10 40 -31 72 -46 80 -38 117 -86 150 -191 34 -111 33
-138 -10 -240 -28 -68 -43 -129 -72 -304 -50 -296 -76 -397 -124 -487 -22 -41
-47 -104 -56 -140 -9 -37 -24 -78 -33 -91 -10 -14 -34 -50 -55 -81 -21 -30
-51 -91 -66 -135 -16 -44 -38 -92 -50 -107 -32 -41 -50 -115 -66 -265 -22
-207 -20 -297 12 -407 l26 -92 -44 -48 c-59 -63 -125 -161 -159 -237 -80 -178
-66 -343 44 -509 36 -54 45 -90 26 -102 -15 -9 -12 -57 5 -79 8 -10 12 -23 9
-28 -3 -5 4 -36 16 -69 20 -53 21 -65 11 -116 -14 -74 -14 -125 2 -145 8 -10
37 -18 86 -22 70 -6 92 -3 176 26 17 6 40 10 51 9 39 -1 48 22 36 92 -15 91
-27 115 -67 134 -19 9 -38 25 -41 36 -7 22 -9 155 -3 161 2 2 40 -4 84 -13
l80 -17 8 -60 c4 -32 12 -79 17 -104 5 -25 7 -138 5 -252 -4 -232 -6 -226 67
-235 24 -3 63 -12 87 -19 43 -14 106 -10 117 7 3 5 16 9 30 9 37 0 60 15 73
49 12 27 15 28 47 19 45 -12 54 -5 54 43 0 32 -8 48 -38 82 -81 90 -92 107
-92 147 0 21 -15 94 -34 161 -53 197 -52 179 -14 179 38 0 116 22 156 44 15 8
56 20 92 26 93 17 158 44 252 105 l82 54 11 -24 c5 -14 50 -57 99 -97 56 -45
98 -88 110 -113 16 -31 31 -43 63 -55 39 -13 43 -18 48 -55 5 -31 1 -53 -19
-95 -33 -71 -33 -113 -1 -145 26 -26 72 -33 105 -15 13 7 29 5 54 -5 49 -21
176 -21 176 0 0 9 12 21 26 27 15 7 27 23 31 40 5 28 23 49 23 29 0 -21 28
-11 34 12 12 45 5 65 -42 129 -26 35 -63 97 -81 138 -30 64 -35 89 -44 199
l-10 127 51 174 c28 96 59 215 68 264 17 83 17 97 2 197 -16 107 -16 109 8
191 38 134 54 234 54 340 0 92 -3 108 -36 189 -19 49 -59 140 -88 202 -30 61
-57 123 -61 137 -18 60 -68 141 -124 203 -67 74 -83 101 -101 166 -10 37 -9
51 5 87 24 64 170 194 217 194 38 0 73 28 119 97 42 62 54 73 78 73 47 0 56
21 60 147 4 134 -10 215 -49 293 -28 55 -99 154 -127 177 -9 7 -15 35 -17 80
-3 85 -14 107 -76 138 -33 17 -56 37 -70 63 -12 22 -39 50 -60 63 -37 23 -38
25 -43 99 -7 90 -20 136 -50 181 -65 97 -186 31 -244 -132 -10 -27 -23 -49
-30 -49 -6 0 -42 7 -79 16 -77 17 -144 13 -249 -18 -124 -36 -175 -14 -277
120 -40 53 -107 131 -148 173 -117 119 -191 145 -258 93z m1284 -3984 c-2 -8
-7 -32 -11 -53 -5 -33 -8 -37 -21 -26 -9 7 -22 25 -30 40 -14 27 -13 29 16 44
16 9 30 21 30 28 0 8 4 7 10 -3 5 -8 8 -22 6 -30z"/>
<path d="M6880 38600 c-129 -17 -188 -40 -299 -113 -130 -86 -184 -141 -364
-372 -317 -407 -397 -486 -671 -668 -43 -29 -83 -55 -90 -59 -6 -3 -65 -11
-131 -17 -88 -8 -184 -27 -360 -72 l-240 -62 -460 -8 c-892 -15 -1471 -45
-1875 -95 -162 -21 -305 -20 -403 0 -43 9 -153 39 -245 67 -207 62 -304 79
-444 79 -120 0 -221 -19 -308 -57 -55 -24 -160 -97 -160 -112 0 -4 33 1 73 11
44 11 98 17 137 16 l65 -3 -63 -34 c-59 -32 -130 -97 -118 -108 3 -3 20 1 38
9 18 9 46 18 61 22 l28 7 -17 -26 c-23 -34 -13 -40 27 -16 19 11 63 26 99 35
36 8 74 18 84 22 14 5 6 -10 -26 -52 -57 -74 -86 -130 -94 -185 l-7 -42 39 39
c22 21 61 46 87 55 l48 17 -15 -22 c-8 -12 -32 -48 -54 -79 -37 -53 -71 -141
-59 -153 3 -3 25 15 48 41 47 51 123 94 213 120 66 19 78 15 49 -18 -11 -12
-43 -56 -70 -97 -52 -78 -125 -152 -168 -172 -41 -19 -29 -31 23 -23 48 6 141
46 199 85 l33 22 -16 -43 c-8 -24 -27 -57 -42 -73 l-27 -29 30 7 c17 4 62 22
102 41 l72 34 -19 -37 c-11 -20 -20 -52 -20 -70 l0 -34 25 31 c29 34 97 85
169 126 l49 29 -44 -85 c-24 -46 -63 -104 -87 -127 -24 -24 -42 -46 -39 -48 9
-9 97 25 139 54 25 17 69 57 98 89 l53 58 -5 -55 c-3 -30 -9 -63 -13 -72 -12
-30 18 -21 63 18 l42 36 0 -59 c0 -36 -8 -74 -20 -102 -11 -24 -19 -46 -17
-47 6 -6 63 39 89 71 14 17 41 56 61 88 l35 59 7 -71 c4 -38 4 -83 0 -100 -14
-63 32 -19 60 57 l14 37 0 -37 c1 -48 21 -42 55 14 l24 41 8 -59 c6 -53 2 -87
-20 -149 -5 -12 10 -2 33 23 28 30 52 74 79 144 39 98 40 99 46 64 4 -20 10
-36 14 -36 5 0 32 35 62 78 50 70 55 75 58 50 2 -15 -1 -44 -7 -64 -13 -46 -8
-53 20 -28 29 26 45 59 75 156 23 75 32 89 88 144 39 37 95 77 146 104 l83 43
-23 -32 c-12 -18 -65 -66 -117 -108 -129 -102 -190 -187 -125 -175 l27 5 -37
-41 c-67 -74 -124 -211 -82 -195 12 4 9 -5 -11 -35 -28 -42 -58 -129 -50 -142
3 -5 -6 -38 -19 -75 -14 -39 -19 -65 -12 -62 6 3 -2 -22 -18 -54 -16 -33 -27
-62 -24 -64 3 -3 22 11 43 30 20 20 39 34 41 32 2 -2 -3 -21 -11 -41 -16 -37
-11 -71 6 -45 13 21 11 -2 -5 -54 -15 -51 -12 -56 16 -31 17 16 17 15 2 -36
-17 -56 -13 -70 11 -50 11 9 7 -11 -14 -71 -16 -46 -28 -85 -26 -88 3 -2 16 4
29 13 l25 16 -15 -42 c-11 -32 -12 -43 -2 -49 9 -6 10 -20 2 -58 -11 -52 -8
-60 15 -38 10 10 11 7 7 -13 -3 -14 -8 -47 -11 -75 -3 -27 -9 -59 -12 -69 -4
-14 -1 -18 11 -13 28 11 18 -10 -36 -73 -106 -124 -102 -117 -106 -189 -2 -38
5 -117 17 -186 11 -66 34 -212 51 -325 16 -113 35 -221 40 -242 6 -21 34 -61
68 -96 65 -69 98 -82 210 -82 64 0 82 5 156 40 46 22 88 40 95 40 22 0 10 39
-26 88 -21 28 -46 65 -55 82 -19 34 -70 60 -117 60 -21 0 -35 7 -45 23 -24 38
-38 138 -34 253 3 102 6 115 36 176 19 36 61 100 95 143 l61 77 18 -108 c10
-60 31 -201 48 -314 17 -113 35 -220 40 -238 5 -19 33 -58 67 -93 53 -53 65
-60 119 -70 81 -15 150 -6 220 29 32 16 71 32 86 36 34 8 29 30 -24 108 -21
31 -38 62 -38 67 0 18 -47 42 -97 49 -43 6 -50 11 -67 46 -29 59 -36 277 -11
344 27 73 113 196 230 327 59 66 122 146 142 178 l35 58 27 -32 27 -32 13 91
c7 49 15 93 18 96 3 3 16 -17 29 -44 13 -28 25 -50 27 -50 3 0 3 30 0 68 l-4
67 24 -50 25 -50 2 40 c1 22 5 51 9 64 6 22 8 20 38 -28 43 -68 92 -90 58 -25
-8 16 -15 40 -15 53 0 21 4 18 31 -22 28 -43 89 -101 97 -93 2 2 -6 21 -17 42
-29 54 -26 60 15 29 19 -15 38 -24 41 -21 3 3 18 -12 34 -34 29 -40 75 -77 85
-67 3 3 -2 20 -11 39 l-17 33 28 -26 c36 -33 114 -82 121 -76 2 3 -1 16 -8 29
-11 21 -11 22 4 9 13 -10 17 -10 17 -1 0 7 20 -6 44 -28 24 -22 58 -48 76 -57
30 -15 32 -15 26 -1 -21 54 -21 52 -1 36 12 -10 19 -11 22 -4 2 7 29 -15 61
-48 44 -46 58 -56 62 -43 5 13 8 12 20 -10 8 -15 28 -36 44 -48 l29 -21 -7 25
c-4 13 -9 40 -13 59 l-6 35 37 -40 36 -40 -6 40 c-6 38 -5 39 10 20 15 -20 15
-20 16 4 l0 24 23 -21 c30 -28 35 -28 29 3 -5 29 14 34 23 6 6 -21 74 -85 82
-78 2 3 -2 18 -10 34 -8 15 -17 42 -21 58 l-6 30 27 -33 c33 -38 43 -41 35 -9
-5 22 -5 22 16 3 22 -19 22 -19 22 0 1 16 4 15 21 -8 22 -29 41 -37 38 -15 -4
34 3 39 17 12 40 -76 85 -126 65 -72 -4 12 -11 36 -15 52 l-6 30 15 -27 c17
-31 40 -38 33 -10 -4 13 2 18 25 19 23 2 28 0 19 -9 -17 -17 -15 -41 2 -35 9
4 5 -8 -10 -30 -28 -42 -31 -58 -6 -48 49 20 55 19 48 -8 -5 -20 -3 -27 8 -27
12 0 12 -6 0 -37 -14 -40 -18 -73 -8 -73 3 0 14 5 25 11 19 9 19 9 10 -10 -15
-27 -14 -44 2 -35 6 4 5 -1 -4 -12 -17 -21 -42 -85 -35 -91 2 -3 13 0 24 6 29
15 37 14 22 -4 -10 -12 -10 -15 2 -15 12 0 11 -9 -8 -47 -34 -66 -32 -75 13
-67 l37 7 -27 -32 c-31 -37 -34 -51 -11 -51 13 0 12 -6 -6 -35 -24 -40 -22
-42 22 -19 l32 16 -31 -38 c-51 -65 -79 -134 -55 -134 5 0 17 9 28 21 10 12
32 28 49 36 21 11 26 11 18 2 -7 -7 -13 -21 -13 -31 0 -15 4 -16 26 -8 42 16
56 13 44 -9 -5 -11 -10 -28 -10 -39 0 -15 5 -18 25 -14 28 5 32 -7 13 -38 -14
-22 -4 -38 14 -22 11 8 13 3 10 -29 -2 -21 0 -39 4 -39 4 0 23 14 41 32 24 23
34 28 37 17 18 -57 27 -128 22 -169 -6 -45 -4 -54 29 -103 20 -30 48 -60 63
-67 35 -18 250 -26 265 -11 6 6 37 11 68 11 38 0 63 5 73 15 8 8 28 15 45 15
17 0 31 4 31 9 0 12 -96 155 -112 168 -7 5 -34 17 -61 27 -26 10 -54 27 -62
39 -16 22 -46 112 -60 175 -13 62 26 21 85 -89 55 -103 108 -159 151 -159 9 0
31 -11 47 -25 18 -15 49 -28 75 -31 85 -12 266 32 267 64 0 7 -16 44 -35 82
-40 80 -63 96 -155 107 l-63 8 -44 76 c-50 87 -69 177 -60 289 3 36 0 125 -7
198 -11 125 -8 170 8 143 4 -6 13 -11 20 -11 10 0 12 12 9 48 -5 39 -3 45 8
35 23 -23 28 -14 22 43 l-6 56 28 -18 29 -19 -9 25 c-4 14 -10 48 -12 75 l-5
50 21 -19 c12 -11 21 -26 21 -35 0 -9 3 -11 9 -6 6 6 11 33 13 60 l3 50 23
-37 c13 -21 28 -38 33 -38 4 0 9 32 11 71 l3 71 25 -40 c14 -22 28 -38 33 -35
4 2 7 33 7 69 0 61 1 64 19 54 11 -5 23 -19 26 -31 12 -37 27 -5 26 55 0 31 3
56 8 56 12 0 51 -45 51 -59 0 -7 5 -9 11 -5 11 7 7 71 -7 109 -15 38 58 -17
75 -57 9 -21 19 -38 24 -38 14 0 7 49 -18 115 -14 37 -23 70 -20 73 3 3 21
-10 40 -28 36 -34 54 -36 37 -3 -6 10 -13 40 -17 67 -7 47 -7 48 14 36 12 -6
25 -18 28 -26 8 -20 25 -17 20 4 -3 9 -8 35 -12 56 l-7 40 41 -37 c44 -40 68
-48 56 -19 -9 22 -30 89 -39 125 -6 26 -5 27 13 18 11 -6 23 -20 26 -31 4 -11
11 -17 17 -14 10 6 6 61 -9 137 -6 28 -5 30 20 23 20 -5 27 -3 27 8 0 8 -4 18
-10 21 -24 15 -7 21 30 12 45 -13 60 -5 38 20 -8 10 -19 25 -23 33 -8 13 -7
13 8 1 29 -23 30 -6 3 70 -14 40 -24 75 -22 77 3 2 16 -4 30 -14 15 -9 29 -14
32 -12 2 3 -14 38 -37 77 -23 40 -40 74 -37 76 2 2 25 -14 51 -36 26 -22 47
-36 47 -29 0 21 -29 79 -68 137 -58 87 -58 87 -34 74 11 -6 28 -11 37 -11 14
0 14 3 -3 28 -11 15 -27 41 -36 59 l-16 32 35 -15 c38 -15 85 -19 85 -6 0 5
-10 17 -22 28 -11 10 -43 53 -70 94 l-50 75 31 3 c37 4 37 6 10 33 -27 27 -17
36 17 15 35 -24 39 -15 16 31 -11 21 -23 49 -27 62 l-8 25 32 -27 c18 -15 42
-27 54 -27 l20 0 -20 23 c-22 23 -63 99 -63 116 0 6 7 8 16 4 14 -5 16 -2 11
19 -4 15 -10 33 -13 41 -5 14 0 14 31 6 20 -6 39 -9 41 -6 3 2 -11 28 -31 57
-43 64 -44 80 -5 80 36 0 36 2 9 39 -12 16 -19 37 -17 47 3 17 13 19 83 19 44
0 139 -4 210 -9 193 -13 295 16 320 90 7 21 15 28 29 26 36 -7 40 37 6 84 -19
27 -79 64 -104 64 -11 0 14 21 57 49 149 98 213 193 224 334 7 93 0 120 -32
135 -14 6 -85 19 -159 27 -166 19 -278 40 -314 59 -35 18 -85 71 -131 138 -62
89 -90 101 -271 112 -41 3 -104 1 -140 -4z m-1490 -3244 c0 -2 -8 -10 -17 -17
-16 -13 -17 -12 -4 4 13 16 21 21 21 13z"/>
<path d="M28371 37989 c-84 -55 -92 -58 -134 -53 -54 8 -71 -1 -152 -76 -35
-32 -82 -70 -106 -85 -59 -37 -95 -72 -109 -106 -18 -43 -89 -82 -250 -139
-108 -38 -165 -64 -226 -106 -107 -71 -181 -101 -274 -108 -41 -4 -142 -21
-225 -37 -226 -47 -310 -45 -975 22 -350 35 -488 38 -790 15 -591 -45 -746
-69 -950 -147 -196 -74 -264 -90 -400 -90 -135 0 -232 16 -432 71 -120 33
-163 40 -235 40 -103 0 -141 -9 -196 -47 -74 -52 -130 -148 -97 -168 5 -3 48
-10 95 -16 95 -10 162 -37 430 -172 83 -42 193 -91 245 -109 90 -31 103 -33
230 -32 190 0 314 34 446 119 43 27 81 45 99 45 55 0 56 -8 25 -102 -68 -201
-76 -381 -27 -568 44 -167 45 -569 2 -735 -19 -70 -89 -223 -144 -309 -50 -80
-53 -96 -34 -185 14 -66 14 -101 3 -276 -18 -298 -17 -364 3 -403 39 -73 153
-112 334 -112 73 0 104 4 110 13 4 7 23 19 41 26 37 16 40 33 16 107 -23 67
-56 100 -116 114 -72 18 -83 40 -81 165 1 118 23 226 59 297 14 28 33 74 41
102 8 28 28 76 43 106 32 63 129 204 136 197 14 -13 -24 -163 -67 -268 -27
-66 -49 -133 -49 -150 0 -32 73 -401 119 -598 40 -172 65 -201 194 -226 84
-16 169 -20 181 -8 4 4 39 8 77 9 57 0 74 4 91 21 21 21 21 22 3 85 -9 35 -24
76 -32 91 -17 34 -67 57 -123 57 -45 0 -47 4 -97 150 -34 102 -33 176 8 332
39 152 91 266 153 338 88 103 146 206 146 261 0 10 21 58 46 106 39 75 47 100
54 172 5 51 14 87 22 92 21 14 90 0 347 -72 267 -75 448 -115 846 -183 307
-53 324 -57 329 -65 5 -8 25 -456 30 -653 4 -151 9 -171 46 -183 10 -3 25 -22
33 -43 22 -55 55 -207 62 -284 11 -120 40 -131 346 -132 172 -1 179 -3 217
-68 20 -35 54 -44 188 -53 85 -5 104 -4 117 9 11 11 35 16 77 16 66 0 100 12
100 35 0 8 -15 47 -34 88 -38 84 -43 87 -146 96 l-65 6 -62 124 c-81 161 -90
202 -73 329 10 74 10 110 1 152 -23 111 -30 308 -15 420 18 139 23 154 90 273
84 151 114 195 196 288 147 167 158 185 188 329 25 120 52 179 121 264 27 34
56 83 65 111 47 142 53 153 92 166 49 16 59 25 87 78 13 25 50 72 82 103 l58
57 101 -34 c127 -44 203 -53 264 -30 25 9 52 19 61 21 9 3 52 -19 99 -50 46
-31 91 -56 101 -56 31 0 52 43 44 92 -6 34 -18 53 -59 93 -29 28 -70 72 -91
99 -21 27 -67 69 -103 95 l-64 46 48 8 c129 21 210 40 235 53 35 18 75 84 100
166 26 85 24 112 -6 136 -14 11 -102 46 -196 78 -153 51 -173 61 -190 88 -11
17 -14 32 -9 34 12 4 13 32 1 32 -4 0 -22 31 -38 68 -26 59 -38 73 -87 106
-106 71 -118 73 -358 79 l-217 5 -90 -59z m-886 -3448 c25 -90 51 -173 56
-183 18 -33 -1 -35 -30 -2 -41 46 -91 208 -91 297 0 44 4 67 9 62 5 -6 30 -84
56 -174z"/>
<path d="M32005 31653 c-11 -3 -54 -21 -95 -40 -41 -20 -104 -47 -140 -60 -36
-14 -92 -39 -124 -56 -58 -31 -60 -33 -113 -144 -30 -62 -55 -125 -56 -140 -2
-23 4 -29 47 -44 27 -10 66 -35 87 -55 l38 -37 -50 -47 c-34 -32 -49 -54 -49
-72 0 -14 -14 -54 -31 -88 -31 -62 -49 -116 -154 -460 -75 -243 -150 -453
-225 -631 -98 -228 -136 -335 -166 -464 -25 -110 -27 -135 -26 -294 3 -222 15
-278 96 -449 55 -117 68 -155 87 -257 20 -112 22 -146 20 -505 -2 -272 -7
-428 -18 -530 -9 -80 -18 -217 -19 -305 -4 -179 -9 -203 -80 -354 -53 -113
-72 -136 -140 -167 -42 -18 -54 -30 -67 -62 -9 -22 -22 -42 -30 -45 -8 -3 -29
-31 -46 -63 l-30 -57 20 -28 c22 -32 41 -40 95 -40 22 0 57 0 79 0 135 -1 206
4 255 19 50 16 55 20 58 50 2 17 11 37 20 44 9 7 32 45 51 84 29 62 33 78 27
117 -7 44 -6 47 23 62 41 21 47 53 26 133 -10 36 -19 92 -19 125 -1 57 1 61
37 92 42 36 43 41 21 89 -16 32 -16 43 1 158 9 67 30 168 46 223 16 55 44 174
64 264 20 91 37 166 39 168 1 2 20 9 42 17 38 13 41 12 118 -26 l79 -40 -8
-91 c-4 -51 -7 -105 -6 -120 2 -46 35 -98 103 -163 59 -58 112 -99 301 -237
45 -34 77 -64 77 -75 0 -27 -19 -233 -26 -273 -6 -40 1 -38 -244 -75 l-115
-18 -65 -54 c-36 -31 -67 -60 -69 -66 -2 -6 -15 -25 -28 -42 -28 -37 -29 -44
-5 -44 9 0 22 -8 29 -19 12 -20 76 -34 156 -34 26 0 47 -4 47 -8 0 -5 29 -9
64 -9 53 0 77 6 147 39 46 22 88 36 93 31 4 -4 6 -64 4 -132 -4 -103 -9 -138
-35 -216 -20 -58 -44 -108 -65 -135 -24 -28 -47 -78 -71 -152 -42 -126 -46
-155 -18 -155 11 0 23 -12 31 -31 13 -30 15 -31 67 -27 44 2 53 0 53 -14 0
-13 14 -18 66 -24 84 -8 163 8 194 41 12 13 40 27 63 30 58 10 87 43 87 99 0
25 -5 68 -11 96 -9 42 -8 59 7 100 18 49 17 53 -4 173 -33 190 -36 242 -16
327 12 55 15 99 11 169 l-6 94 82 -7 c45 -4 129 -16 186 -28 89 -18 119 -19
198 -12 51 5 93 8 93 7 0 -1 -11 -27 -24 -57 -24 -54 -26 -56 -86 -73 -51 -15
-70 -28 -114 -73 -50 -54 -52 -58 -70 -155 l-18 -99 22 -18 c23 -19 76 -24 99
-9 9 6 25 1 49 -15 42 -29 71 -30 120 -5 20 11 56 24 78 30 76 20 101 63 119
206 7 47 13 55 91 130 l84 80 0 60 c0 33 -4 77 -9 97 -8 33 -6 39 21 65 48 45
126 156 155 219 23 49 28 75 30 159 2 55 7 133 11 174 16 145 -14 246 -121
408 -35 54 -113 181 -172 283 -60 102 -116 196 -126 210 -9 14 -40 93 -69 175
-149 432 -241 584 -540 901 -72 76 -99 112 -109 145 -26 88 -102 255 -141 309
-50 68 -105 178 -122 244 l-13 48 45 41 c80 72 247 201 303 235 86 52 109 58
162 44 25 -7 63 -12 85 -12 34 0 42 -4 50 -25 8 -22 15 -25 58 -25 59 0 143
21 232 59 154 64 283 179 346 307 38 76 39 82 39 184 0 62 6 121 14 144 17 50
18 154 2 194 -7 17 -23 35 -35 39 -11 4 -104 6 -206 3 -341 -7 -307 -11 -373
43 -32 26 -69 54 -83 63 -13 9 -24 22 -24 28 0 7 -16 31 -35 53 -52 61 -133
82 -390 99 -55 4 -119 13 -143 20 -37 11 -50 10 -86 -3 -43 -16 -44 -16 -100
15 -55 31 -111 40 -171 25z"/>
<path d="M20035 30706 c-28 -28 -46 -59 -53 -89 -16 -61 -15 -180 3 -302 8
-55 15 -134 15 -175 0 -85 23 -185 48 -213 9 -10 40 -30 68 -43 78 -37 118
-88 148 -186 40 -131 41 -139 13 -194 -40 -81 -55 -139 -91 -354 -49 -292 -77
-402 -125 -490 -22 -41 -47 -106 -57 -144 -10 -41 -30 -85 -48 -110 -54 -70
-78 -116 -106 -196 -15 -43 -36 -90 -48 -105 -33 -42 -51 -111 -67 -260 -22
-211 -20 -303 11 -408 l26 -88 -39 -46 c-104 -124 -171 -239 -198 -343 -22
-83 -19 -198 6 -267 23 -60 60 -131 91 -172 20 -26 24 -66 8 -76 -16 -10 -12
-61 5 -75 9 -7 13 -20 10 -29 -3 -8 4 -41 16 -73 19 -52 20 -65 10 -115 -15
-76 -14 -129 3 -146 8 -8 46 -17 86 -21 69 -6 91 -3 175 26 17 6 40 11 52 12
42 2 47 18 34 98 -14 85 -28 110 -70 128 -37 15 -43 33 -43 124 -1 69 0 71 23
68 13 -1 50 -5 81 -8 43 -5 59 -11 63 -24 17 -54 28 -200 29 -400 l1 -225 40
-12 c77 -23 153 -35 186 -30 93 14 149 42 149 73 0 20 14 24 46 15 43 -12 54
-4 54 38 0 32 -10 51 -65 116 -54 66 -65 85 -65 116 0 20 -18 104 -40 185 -22
82 -40 150 -40 151 0 2 13 3 29 3 41 0 156 37 171 55 7 9 29 15 51 15 64 0
189 47 279 105 l84 54 11 -24 c5 -13 46 -53 90 -88 90 -72 101 -83 124 -130
11 -23 28 -36 58 -47 39 -13 43 -18 49 -56 5 -33 0 -52 -21 -94 -56 -111 -1
-199 99 -160 18 7 35 5 60 -5 46 -19 176 -20 176 -2 0 7 14 23 30 35 17 13 30
31 30 41 0 25 11 33 27 19 18 -15 24 -7 30 39 4 34 -1 46 -44 104 -27 36 -64
98 -82 139 -30 64 -35 89 -44 199 l-10 126 52 178 c81 282 88 329 69 459 l-15
108 34 128 c28 102 36 152 40 255 6 147 4 157 -100 382 -32 72 -72 163 -88
204 -34 86 -54 116 -124 191 -58 61 -77 94 -94 158 -18 67 -2 109 71 178 80
76 114 100 158 108 47 9 60 20 112 96 37 54 50 66 75 68 54 5 58 20 58 186 0
130 -3 159 -21 207 -24 62 -85 157 -136 212 -29 30 -33 40 -30 78 2 25 -3 62
-10 84 -11 33 -23 45 -66 68 -37 20 -58 40 -72 67 -12 24 -36 49 -60 62 -38
22 -40 26 -40 70 0 100 -38 211 -82 242 -69 48 -163 -23 -215 -163 -9 -25 -18
-48 -19 -50 -2 -2 -38 4 -80 14 -88 19 -151 16 -263 -15 -88 -25 -91 -25 -151
1 -41 18 -61 37 -121 118 -87 115 -220 251 -271 274 -20 9 -53 17 -74 17 -31
0 -44 -7 -79 -44z m1301 -3966 c-2 -8 -7 -32 -11 -53 -7 -42 -17 -41 -45 6
l-19 31 32 27 c32 27 51 22 43 -11z"/>
<path d="M6843 30445 c-113 -20 -169 -43 -267 -108 -124 -83 -182 -144 -391
-412 -249 -319 -401 -470 -597 -599 -134 -87 -151 -96 -195 -96 -85 0 -233
-28 -458 -86 l-220 -57 -480 -8 c-836 -12 -1329 -37 -1809 -89 -302 -33 -387
-27 -639 49 -252 76 -292 84 -449 89 -172 5 -259 -10 -366 -63 -68 -34 -158
-104 -135 -105 7 0 38 7 70 15 31 8 91 15 133 15 l75 -1 -66 -34 c-58 -30
-137 -100 -126 -111 2 -2 19 2 38 10 19 7 47 16 62 20 l28 7 -17 -26 c-23 -34
-13 -40 27 -16 19 11 63 27 99 36 36 9 74 19 84 22 14 4 6 -11 -27 -53 -50
-65 -97 -156 -97 -191 0 -30 5 -29 38 7 27 31 141 83 126 58 -5 -7 -28 -41
-51 -75 -42 -59 -73 -129 -73 -162 0 -10 16 2 43 30 23 25 62 58 87 72 49 28
174 71 190 65 12 -4 -109 -179 -162 -235 -22 -22 -56 -49 -74 -59 -19 -10 -34
-22 -34 -26 0 -10 -5 -10 65 3 64 12 120 37 174 77 l34 25 -7 -34 c-3 -18 -20
-51 -37 -72 l-31 -38 29 7 c22 5 112 44 165 72 3 2 -2 -14 -13 -35 -10 -20
-19 -51 -19 -67 l0 -30 43 41 c38 37 177 133 192 133 15 0 -84 -167 -122 -206
-41 -42 -41 -44 -17 -44 45 0 128 51 198 123 l69 70 -5 -54 c-3 -30 -9 -62
-13 -71 -11 -27 9 -22 59 17 l46 35 0 -58 c0 -35 -8 -74 -20 -101 -11 -24 -18
-46 -16 -49 11 -10 110 97 146 156 l38 64 7 -66 c4 -36 4 -83 0 -103 l-7 -38
26 24 c14 13 32 42 40 65 l14 41 1 -37 c1 -47 21 -42 55 14 l23 39 6 -38 c10
-60 8 -101 -7 -138 -17 -40 -9 -45 21 -12 27 28 58 88 93 178 l27 71 7 -36 c4
-20 10 -36 15 -36 4 0 32 36 62 80 51 77 54 79 57 51 2 -17 -1 -47 -7 -67 -6
-21 -8 -40 -5 -43 15 -16 64 65 94 155 25 74 42 108 73 141 44 47 150 122 210
147 l37 15 -25 -33 c-14 -18 -53 -55 -88 -81 -84 -65 -146 -124 -163 -157 -18
-35 -18 -36 6 -40 19 -3 17 -8 -21 -58 -41 -55 -79 -129 -79 -156 0 -8 7 -14
15 -14 11 0 7 -12 -15 -47 -31 -49 -55 -117 -46 -132 3 -4 -5 -38 -18 -74 -13
-37 -20 -67 -15 -67 4 0 -4 -25 -18 -56 -14 -30 -23 -57 -21 -60 3 -2 22 12
43 31 20 20 39 34 41 32 2 -2 -3 -20 -11 -40 -19 -45 -19 -51 0 -43 18 7 18
-7 0 -59 -17 -46 -13 -55 15 -30 20 18 20 18 4 -35 -17 -56 -13 -70 11 -50 11
9 7 -10 -13 -69 -25 -70 -27 -81 -13 -81 10 0 23 6 29 12 9 9 8 -1 -3 -31 -18
-53 -18 -54 -1 -48 10 4 11 -4 5 -41 -5 -26 -11 -53 -14 -59 -5 -16 7 -17 21
-3 10 10 2 -93 -11 -149 -5 -18 -3 -22 9 -18 31 12 15 -14 -51 -85 -36 -40
-72 -87 -80 -105 -17 -42 -17 -128 2 -233 8 -47 31 -191 50 -320 19 -129 40
-252 45 -272 13 -46 115 -154 156 -165 16 -4 70 -8 119 -8 84 0 95 2 164 38
40 20 80 37 87 37 22 0 16 34 -11 71 -13 19 -38 57 -55 86 -33 55 -65 73 -126
73 -24 0 -38 7 -48 23 -24 37 -38 138 -34 253 3 100 6 115 35 174 18 36 60
101 95 144 l62 80 18 -110 c10 -60 29 -188 43 -284 42 -277 46 -292 108 -355
58 -60 77 -69 158 -79 65 -8 106 1 215 46 75 31 80 35 73 58 -6 24 -58 110
-96 158 -13 18 -32 25 -73 30 -52 7 -56 9 -74 46 -25 52 -35 263 -16 332 23
81 121 219 266 375 34 36 81 96 104 133 l43 67 26 -32 27 -32 12 87 c6 48 14
91 18 97 3 6 17 -12 30 -40 13 -28 25 -51 28 -51 3 0 3 30 0 68 l-6 67 25 -50
c24 -47 25 -48 26 -20 1 17 4 47 7 68 l7 38 28 -50 c40 -69 99 -101 64 -35 -8
16 -15 40 -15 53 0 21 4 19 31 -20 31 -44 77 -89 92 -89 4 0 -2 17 -13 37 -31
58 -25 72 14 34 19 -18 38 -31 43 -28 5 3 17 -7 26 -23 29 -48 110 -107 94
-67 -3 6 -8 20 -12 30 -5 12 15 3 58 -27 35 -25 68 -46 72 -46 3 0 3 10 0 21
-5 15 -4 19 4 15 6 -4 11 -2 11 4 0 7 20 -6 44 -27 84 -73 124 -86 94 -30 -10
21 -10 21 7 7 13 -11 19 -12 22 -3 3 7 31 -16 63 -50 39 -40 59 -56 60 -45 0
12 14 2 46 -30 39 -40 45 -43 40 -22 -4 14 -9 41 -13 60 l-6 35 37 -40 36 -40
-5 40 c-6 38 -5 39 9 21 16 -19 16 -19 16 4 l0 23 23 -21 c31 -29 34 -28 30
11 -3 29 -2 30 9 12 19 -29 89 -97 95 -92 2 3 -2 18 -10 34 -8 15 -17 42 -21
58 l-6 30 28 -32 c33 -39 46 -42 36 -10 -7 22 -6 22 15 3 21 -19 21 -19 21 5
0 23 1 22 20 -8 11 -18 24 -33 30 -33 5 0 10 15 10 33 l1 32 14 -33 c18 -41
54 -92 65 -92 4 0 2 17 -6 38 -18 49 -17 76 1 35 17 -41 40 -45 31 -5 -4 17
-3 22 2 13 7 -10 14 -11 31 -2 21 12 31 -2 11 -14 -17 -10 -12 -38 5 -31 10 3
6 -8 -11 -30 -19 -24 -24 -38 -17 -45 8 -8 13 -7 17 0 4 6 16 11 27 11 16 0
18 -5 13 -25 -4 -18 -2 -25 9 -25 13 0 13 -5 1 -37 -14 -40 -18 -73 -8 -73 3
0 14 5 25 11 19 10 20 9 9 -10 -6 -12 -8 -26 -5 -31 3 -5 -1 -20 -8 -32 -18
-28 -30 -78 -19 -78 4 0 18 7 31 16 22 16 23 16 12 -5 -10 -18 -9 -21 5 -21
15 0 16 -2 2 -17 -18 -20 -43 -92 -35 -99 3 -3 21 -1 41 5 l37 10 -31 -35
c-34 -40 -39 -59 -11 -51 17 4 16 1 -5 -31 -13 -19 -22 -37 -20 -39 2 -3 19 3
37 12 l33 17 -31 -38 c-52 -67 -79 -134 -53 -134 5 0 13 6 17 14 4 8 26 24 48
37 22 12 34 16 28 9 -7 -8 -13 -22 -13 -32 0 -15 4 -17 18 -10 9 5 30 12 45
16 28 7 28 6 13 -16 -26 -37 -21 -58 15 -58 29 0 30 -1 15 -22 -21 -29 -20
-41 2 -36 15 4 17 -1 14 -34 -5 -46 5 -48 43 -8 15 16 31 27 35 25 14 -9 31
-128 25 -174 -5 -41 -2 -52 30 -102 23 -37 46 -61 68 -70 58 -25 364 -11 398
18 8 6 28 14 44 17 17 2 31 5 33 5 7 2 -35 71 -74 122 -35 45 -53 60 -96 75
-46 16 -56 25 -75 64 -24 50 -57 170 -49 178 12 11 36 -23 86 -118 53 -100
109 -160 151 -160 9 0 28 -9 43 -21 44 -35 88 -41 191 -28 55 6 99 17 106 25
6 8 20 14 30 14 28 0 23 26 -19 105 -42 80 -64 94 -153 102 l-59 6 -46 78
c-52 89 -70 175 -61 289 3 36 0 125 -6 197 -12 128 -9 189 6 150 3 -9 13 -17
20 -17 11 0 13 11 10 48 -5 39 -3 45 8 35 23 -23 28 -14 22 43 -6 55 -6 56 15
43 26 -16 37 -7 23 19 -6 12 -11 39 -11 61 0 32 3 39 15 35 8 -4 18 -17 21
-31 9 -36 22 -15 26 42 l3 50 26 -37 c14 -21 29 -35 32 -31 4 3 7 35 7 71 0
54 2 63 14 53 8 -6 19 -25 26 -41 19 -46 30 -26 30 52 0 70 0 71 20 53 11 -10
22 -26 26 -37 11 -36 27 -2 26 56 0 31 3 56 7 56 12 0 51 -45 51 -59 0 -7 5
-9 11 -5 12 7 8 73 -7 108 -7 19 -7 19 26 0 19 -11 40 -35 49 -56 9 -21 19
-38 24 -38 14 0 7 49 -18 114 -34 90 -32 97 15 51 22 -21 42 -37 44 -34 3 3
-2 28 -10 57 -9 28 -14 60 -12 69 3 16 7 14 31 -9 15 -16 30 -28 33 -28 5 0 1
26 -14 90 -5 24 -3 23 36 -12 45 -41 69 -49 57 -20 -9 22 -30 89 -39 125 -9
37 10 35 33 -4 18 -29 19 -30 26 -10 3 11 1 47 -5 81 -13 69 -8 85 21 70 22
-12 25 -1 9 30 -9 16 -7 17 31 8 46 -12 59 -6 37 19 -8 10 -19 25 -23 33 -6
12 -5 13 6 3 35 -34 33 0 -7 100 l-23 59 36 -22 c19 -11 38 -19 40 -16 3 2
-14 36 -37 76 -24 39 -41 73 -38 75 3 3 26 -13 51 -36 26 -22 47 -36 47 -30 0
22 -29 80 -68 138 -58 87 -58 87 -34 74 11 -6 28 -11 37 -11 14 0 14 3 -3 28
-11 15 -26 41 -35 58 l-16 31 37 -13 c38 -13 82 -18 82 -9 0 3 -20 30 -45 61
-39 48 -85 123 -85 139 0 3 11 5 25 5 30 0 31 4 5 30 -31 31 -23 41 15 19 19
-12 35 -19 35 -16 0 3 -11 29 -25 59 -33 70 -31 82 6 47 17 -16 40 -29 51 -29
18 0 18 2 -5 33 -29 38 -57 91 -57 108 0 6 7 8 16 5 13 -5 15 -1 10 18 -3 13
-8 30 -11 38 -4 10 4 13 35 10 l41 -4 -30 43 c-16 24 -32 54 -36 67 -6 19 -3
22 24 22 35 0 38 6 16 30 -8 9 -18 31 -21 48 l-6 32 63 0 c35 0 123 -5 196
-11 95 -8 152 -9 203 -1 86 13 148 49 156 91 5 22 10 27 29 24 27 -6 35 11 23
55 -10 36 -84 92 -122 92 -14 0 6 17 54 48 159 103 219 198 228 357 l5 93 -32
16 c-17 9 -88 23 -159 31 -181 21 -292 44 -329 66 -38 23 -86 77 -133 147 -43
63 -75 80 -182 92 -106 13 -166 11 -255 -5z"/>
<path d="M28370 29840 c-86 -57 -94 -60 -125 -50 -45 15 -73 2 -148 -68 -34
-32 -90 -77 -124 -100 -60 -40 -113 -97 -113 -120 0 -21 -117 -80 -245 -123
-90 -30 -152 -58 -205 -93 -118 -77 -191 -108 -280 -117 -43 -4 -150 -22 -237
-39 -156 -32 -161 -32 -363 -27 -113 3 -290 15 -395 27 -565 61 -674 64 -1030
36 -527 -42 -728 -70 -860 -121 -241 -93 -294 -107 -430 -112 -154 -6 -248 8
-470 69 -122 33 -167 41 -241 42 -82 1 -97 -2 -149 -29 -73 -37 -148 -123
-143 -164 3 -24 8 -27 63 -34 127 -16 169 -31 386 -138 362 -179 490 -211 696
-175 131 23 212 52 300 108 57 35 87 48 115 48 20 0 39 -4 42 -9 3 -5 -5 -38
-19 -74 -70 -187 -82 -399 -32 -587 44 -166 45 -569 2 -735 -19 -71 -87 -218
-140 -300 -53 -83 -57 -103 -38 -194 14 -69 14 -102 0 -337 -16 -263 -14 -309
17 -356 27 -42 105 -77 197 -89 89 -12 227 -8 238 8 3 5 21 15 39 22 37 16 40
30 15 108 -21 66 -65 108 -123 118 -63 11 -75 37 -73 160 1 123 24 231 63 307
17 31 30 65 30 74 0 45 170 338 186 321 13 -13 -23 -157 -66 -266 -28 -68 -50
-136 -50 -151 0 -31 76 -412 119 -596 32 -138 54 -178 115 -205 61 -26 218
-46 251 -31 14 7 54 12 89 12 47 0 70 5 87 18 l22 19 -17 64 c-33 118 -64 149
-145 149 -49 0 -59 14 -97 120 -50 143 -48 208 7 404 41 145 77 219 147 303
83 100 119 161 138 233 14 58 34 104 88 205 9 17 16 51 16 76 0 78 10 109 36
115 24 6 158 -26 444 -106 184 -51 350 -86 725 -150 164 -29 309 -56 321 -60
20 -8 22 -17 28 -147 15 -292 24 -596 19 -609 -10 -26 7 -64 36 -79 43 -22 84
-144 102 -304 11 -95 27 -136 58 -146 35 -11 288 -22 335 -15 78 12 115 -2
167 -61 l46 -52 130 -5 c90 -3 132 -1 137 7 4 6 35 11 72 11 69 0 104 12 104
35 0 22 -66 161 -81 171 -8 4 -48 11 -89 14 l-75 5 -62 125 c-81 163 -90 202
-73 328 10 74 10 110 1 152 -21 104 -29 311 -15 417 7 54 16 112 20 128 19 81
166 325 258 428 156 176 171 203 200 360 18 93 48 156 119 246 42 54 58 86 81
160 26 88 29 93 64 107 60 24 66 28 94 80 15 27 54 76 87 108 l60 59 48 -20
c26 -12 88 -31 137 -43 77 -19 97 -21 144 -11 31 6 66 18 78 26 21 13 28 10
111 -45 48 -33 96 -60 105 -60 30 0 51 44 43 91 -6 34 -25 60 -109 151 -55 60
-126 127 -156 149 -30 21 -50 39 -45 39 31 0 207 33 246 46 57 18 88 60 124
164 47 137 36 154 -135 207 -181 56 -239 82 -255 113 -10 19 -11 30 -3 38 8 8
7 15 -4 26 -8 8 -20 29 -27 48 -7 18 -17 43 -22 55 -10 26 -82 80 -153 116
-48 23 -63 25 -272 31 l-221 6 -93 -60z m-900 -3392 c18 -68 44 -154 57 -192
13 -38 21 -71 19 -73 -2 -2 -16 6 -30 19 -39 34 -88 183 -94 286 -2 46 -1 82
5 82 5 0 24 -55 43 -122z"/>
<path d="M32014 23130 c-23 -5 -68 -22 -100 -38 -33 -16 -90 -42 -129 -57 -98
-38 -177 -79 -197 -102 -10 -10 -41 -70 -69 -133 -58 -126 -57 -139 4 -153 37
-9 117 -70 117 -90 0 -7 -18 -28 -41 -47 -29 -26 -43 -47 -49 -75 -4 -22 -26
-80 -48 -130 -22 -49 -51 -133 -66 -185 -87 -308 -217 -683 -321 -925 -149
-346 -180 -493 -165 -771 10 -190 15 -210 103 -394 47 -97 59 -134 78 -240 20
-116 22 -151 20 -500 -2 -356 -10 -528 -32 -667 -5 -34 -9 -120 -8 -190 2
-154 -7 -192 -88 -353 -56 -110 -60 -116 -109 -140 -68 -34 -81 -46 -89 -80
-4 -16 -15 -32 -24 -35 -10 -3 -33 -32 -50 -64 l-31 -59 29 -31 c16 -17 33
-32 38 -32 46 -7 168 -6 186 0 12 5 31 4 44 -2 26 -11 142 7 186 29 24 13 28
20 25 45 -3 21 0 30 13 34 9 3 34 40 54 83 32 67 35 83 30 124 -6 41 -4 49 12
54 55 20 64 54 37 145 -9 30 -17 83 -18 117 -1 58 2 66 26 87 15 12 33 25 40
27 10 4 9 15 -5 56 -17 46 -18 61 -7 139 14 109 35 209 60 289 14 48 90 381
90 398 0 2 19 9 43 15 39 11 47 10 121 -24 l79 -36 -8 -92 c-5 -51 -8 -104 -7
-120 3 -81 82 -166 307 -332 88 -65 164 -121 168 -125 8 -7 -7 -243 -19 -302
-6 -31 -5 -31 -208 -62 l-155 -24 -56 -48 c-48 -42 -125 -134 -125 -149 0 -3
6 -5 14 -5 8 0 22 -10 30 -21 16 -23 59 -32 154 -33 28 -1 52 -4 52 -7 0 -4
25 -10 55 -14 51 -6 62 -3 143 34 49 23 94 41 100 41 9 0 12 -35 12 -115 0
-105 -3 -125 -35 -223 -23 -72 -46 -121 -70 -151 -24 -30 -45 -77 -70 -156
-39 -125 -42 -145 -20 -145 8 0 22 -12 32 -27 25 -40 33 -44 79 -38 36 5 42 3
47 -15 5 -18 13 -20 94 -20 91 0 153 18 181 53 7 8 31 18 53 22 73 13 94 73
68 195 -9 42 -8 59 7 100 17 47 17 54 0 142 -31 167 -38 263 -24 326 7 31 13
110 12 175 l-1 119 66 -7 c36 -4 104 -14 151 -23 54 -11 131 -17 212 -16 l127
0 -15 -35 c-27 -65 -41 -78 -95 -92 -40 -10 -64 -26 -108 -69 l-56 -55 -19
-104 c-19 -102 -19 -104 0 -118 13 -10 35 -13 74 -10 44 4 60 1 79 -14 25 -20
95 -26 106 -9 3 5 32 17 63 26 106 31 127 58 142 181 l10 78 86 85 86 85 -5
93 -5 93 51 65 c121 151 158 239 157 374 0 47 4 114 8 150 18 130 -19 254
-125 411 -27 41 -96 153 -153 249 -56 96 -115 195 -131 220 -16 25 -49 106
-74 180 -64 187 -158 404 -216 502 -70 117 -142 207 -289 367 -126 135 -129
140 -165 237 -49 130 -97 226 -150 296 -40 53 -105 207 -105 246 1 34 294 266
399 315 63 30 64 30 115 14 28 -9 63 -13 78 -10 21 4 30 -1 43 -21 15 -23 24
-26 75 -26 133 0 331 92 452 211 60 59 85 93 115 155 36 76 38 84 38 184 1 62
6 117 14 135 19 44 17 179 -3 209 -22 35 -73 40 -326 32 l-215 -7 -83 63 c-50
39 -94 82 -112 111 -48 77 -113 97 -370 117 -74 6 -156 15 -182 22 -36 9 -53
9 -73 0 -40 -18 -65 -14 -120 18 -51 30 -79 34 -151 20z"/>
<path d="M20059 22207 c-19 -12 -45 -43 -59 -67 -32 -59 -38 -191 -16 -341 9
-59 16 -142 16 -185 0 -81 18 -171 42 -205 7 -11 42 -34 78 -52 88 -44 120
-88 155 -215 l27 -101 -35 -83 c-40 -94 -47 -123 -82 -337 -46 -280 -71 -377
-125 -486 -27 -55 -52 -118 -56 -140 -8 -47 -28 -89 -61 -129 -31 -38 -77
-128 -99 -197 -9 -29 -28 -67 -40 -82 -34 -41 -53 -115 -70 -277 -20 -188 -15
-322 16 -417 l23 -71 -52 -59 c-75 -83 -139 -191 -173 -290 -27 -78 -30 -96
-26 -182 4 -106 30 -178 95 -269 37 -52 38 -61 21 -108 -9 -26 -9 -39 2 -61 7
-15 12 -36 11 -45 -1 -9 8 -40 20 -69 20 -47 21 -57 11 -108 -16 -75 -15 -136
1 -150 18 -15 171 -17 227 -3 25 6 63 15 85 19 l40 9 -1 53 c-1 29 -8 73 -14
97 -10 36 -20 49 -51 64 -21 11 -41 25 -44 31 -4 6 -8 46 -9 90 -1 91 -8 87
104 65 l65 -12 8 -54 c4 -30 11 -80 16 -110 5 -30 8 -146 6 -257 -4 -199 -4
-203 18 -218 12 -8 35 -15 51 -15 16 0 53 -8 83 -17 50 -16 57 -16 106 0 29 9
62 19 75 23 13 3 30 21 39 39 15 31 18 32 45 23 43 -15 58 -5 58 42 0 34 -7
49 -43 88 -73 80 -87 102 -87 142 0 21 -15 94 -34 161 -53 197 -52 179 -13
179 41 0 136 27 157 45 8 7 39 15 68 19 85 11 181 49 274 109 81 52 87 55 90
34 2 -13 40 -51 101 -100 54 -43 103 -91 108 -105 15 -40 38 -61 74 -68 30 -5
34 -10 40 -50 5 -36 1 -55 -19 -99 -31 -65 -33 -104 -5 -139 22 -28 73 -35
110 -16 14 8 27 6 51 -6 20 -10 61 -19 102 -20 59 -2 69 0 73 15 3 10 16 24
29 30 15 7 27 22 30 41 5 25 10 29 29 24 19 -5 24 -1 30 25 9 41 -1 68 -41
118 -19 23 -53 80 -75 127 -38 79 -42 96 -52 210 l-10 124 51 178 c28 99 59
218 69 266 16 82 16 94 1 198 -15 106 -15 113 3 173 37 120 59 253 59 356 0
113 -10 144 -119 381 -32 69 -71 156 -87 194 -19 47 -47 91 -86 135 -103 112
-140 199 -117 269 22 66 150 181 224 201 57 15 79 33 120 101 26 43 44 62 63
66 15 3 33 7 40 10 26 8 34 59 30 194 -4 106 -9 146 -25 188 -26 65 -76 144
-126 199 -36 39 -38 46 -41 110 -3 81 -15 104 -76 137 -25 14 -57 42 -71 63
-13 20 -40 48 -59 61 -34 22 -35 26 -42 100 -7 90 -40 185 -71 207 -12 8 -41
15 -64 15 -35 0 -48 -6 -77 -35 -33 -32 -96 -148 -96 -175 0 -9 -11 -10 -37
-6 -115 19 -210 18 -293 -3 -102 -26 -123 -26 -176 -2 -30 14 -61 45 -124 127
-141 184 -258 284 -332 284 -14 0 -40 -10 -59 -23z m1270 -4026 c-9 -44 -13
-50 -26 -40 -8 7 -21 25 -28 40 -14 26 -13 28 18 47 17 11 35 16 40 12 4 -3 2
-30 -4 -59z"/>
<path d="M6821 21920 c-92 -20 -149 -44 -241 -105 -120 -80 -204 -166 -370
-380 -182 -234 -319 -393 -404 -469 -39 -36 -135 -107 -212 -158 l-141 -94
-119 -12 c-83 -8 -192 -30 -359 -73 l-240 -62 -395 -8 c-1062 -22 -1502 -44
-1980 -100 -251 -30 -307 -23 -670 84 -85 25 -190 50 -233 56 -157 22 -326 8
-437 -35 -47 -18 -175 -98 -186 -115 -11 -18 2 -20 42 -6 54 19 145 30 189 21
l36 -6 -58 -29 c-56 -28 -123 -88 -123 -109 0 -6 11 -5 28 4 15 7 44 19 65 24
l39 11 -17 -25 c-21 -33 -13 -41 19 -20 14 9 66 26 115 39 l90 24 -20 -26
c-77 -99 -119 -183 -119 -236 1 -17 5 -15 28 12 25 30 101 72 130 73 7 0 -5
-24 -27 -52 -21 -29 -48 -71 -59 -93 -21 -43 -37 -105 -27 -105 3 0 20 17 38
37 45 52 110 90 200 118 43 14 82 25 87 25 9 0 -35 -63 -132 -192 -24 -31 -67
-73 -96 -95 -38 -27 -48 -39 -36 -42 33 -6 145 32 204 70 l59 38 -15 -42 c-8
-23 -27 -54 -41 -69 -24 -25 -25 -28 -7 -28 26 1 125 42 162 69 l31 22 -24
-43 c-14 -24 -25 -59 -25 -78 l1 -35 20 28 c20 27 105 90 183 137 l39 23 -44
-83 c-24 -47 -63 -104 -86 -129 -24 -24 -41 -46 -39 -49 7 -7 78 18 121 43 22
13 69 53 104 89 l64 67 -6 -53 c-3 -29 -9 -64 -13 -77 -7 -22 -6 -23 17 -11
13 7 39 26 58 44 l33 31 -4 -70 c-2 -39 -11 -85 -21 -104 -9 -19 -15 -36 -12
-39 2 -3 20 7 39 22 36 27 78 83 121 158 l23 40 7 -70 c4 -39 4 -84 0 -101 -7
-33 4 -41 25 -17 6 8 20 36 30 63 l19 48 1 -37 c0 -21 4 -38 9 -38 12 0 48 46
58 73 6 20 7 20 14 -8 12 -54 9 -125 -7 -156 -34 -66 9 -36 57 39 15 24 40 78
55 120 15 41 30 69 32 61 22 -67 19 -68 80 22 48 70 58 80 60 60 2 -13 -1 -44
-8 -69 -6 -24 -9 -46 -7 -49 3 -2 18 10 34 26 21 21 40 59 62 130 18 56 44
114 57 131 49 58 217 170 256 170 18 0 -37 -55 -139 -136 -118 -95 -180 -184
-116 -168 27 7 27 7 -10 -37 -66 -77 -122 -211 -82 -195 10 3 6 -9 -12 -37
-28 -45 -56 -124 -48 -137 3 -5 -6 -38 -19 -75 -16 -45 -20 -65 -11 -61 7 2
-1 -22 -17 -56 -22 -44 -27 -63 -19 -71 8 -8 11 -8 11 1 0 14 48 62 62 62 4 0
1 -16 -7 -36 -19 -46 -19 -58 0 -50 16 6 14 -17 -6 -71 -10 -26 2 -30 21 -8
20 24 21 12 4 -39 -17 -51 -14 -66 11 -46 11 9 7 -11 -14 -71 -16 -46 -28 -85
-26 -88 3 -2 16 4 30 13 29 19 29 19 10 -27 -19 -45 -19 -61 -1 -54 12 5 12
-3 1 -49 -12 -54 -9 -64 13 -42 12 12 11 -3 -8 -117 -9 -57 -7 -63 16 -44 36
30 -18 -55 -71 -111 -96 -101 -102 -135 -60 -390 14 -85 35 -218 46 -295 34
-239 41 -259 107 -326 66 -69 93 -79 211 -79 64 0 91 4 115 19 17 10 57 29 89
41 38 16 57 29 57 41 0 9 -20 44 -45 77 -25 33 -45 64 -45 69 0 21 -43 46 -97
57 -53 10 -60 15 -77 51 -25 51 -35 271 -16 341 15 51 69 140 139 226 l46 57
17 -107 c10 -59 31 -199 48 -312 16 -113 34 -220 39 -238 11 -37 78 -116 123
-146 20 -12 54 -20 111 -23 77 -5 87 -3 167 30 47 20 93 38 103 41 16 5 16 9
3 39 -7 19 -28 53 -45 77 -17 24 -31 49 -31 55 0 22 -30 39 -88 50 -52 10 -59
15 -77 51 -17 34 -20 59 -20 184 0 143 0 146 31 205 39 74 124 185 220 288 40
42 94 111 120 152 l47 75 21 -30 c12 -16 24 -30 27 -30 3 0 11 40 18 90 7 49
16 92 20 95 5 2 13 -13 20 -34 6 -21 17 -44 25 -50 12 -10 13 -2 10 51 l-5 63
25 -45 25 -45 1 31 c0 17 3 46 6 63 l7 32 19 -33 c27 -45 59 -78 75 -78 11 0
11 6 -2 30 -8 16 -15 39 -14 52 l0 23 17 -25 c24 -37 101 -114 108 -108 3 3
-4 21 -15 39 -31 51 -26 64 12 35 37 -28 51 -33 42 -13 -3 6 0 3 7 -7 42 -62
102 -115 115 -103 2 3 0 15 -7 26 -15 29 -9 27 56 -19 59 -41 80 -49 71 -27
-2 6 1 17 8 24 10 9 18 6 36 -14 30 -32 109 -87 116 -80 2 3 -1 15 -7 27 -11
20 -10 21 9 10 16 -8 21 -8 21 2 0 7 27 -14 60 -47 44 -44 60 -54 60 -41 0 14
6 11 23 -14 12 -18 33 -40 46 -49 24 -15 24 -15 17 9 -4 14 -10 40 -13 59 l-6
34 37 -39 37 -39 -7 40 c-6 38 -5 39 10 20 15 -20 15 -20 16 5 l1 25 16 -22
c22 -32 41 -30 35 5 -4 24 1 21 46 -28 27 -30 53 -52 57 -48 4 4 2 14 -5 22
-12 15 -32 86 -24 86 2 0 18 -15 34 -32 l30 -33 -6 30 -7 30 22 -19 c20 -18
21 -18 21 -1 0 14 4 13 21 -9 26 -33 39 -33 39 2 0 23 5 19 33 -32 34 -61 65
-89 49 -44 -5 12 -12 37 -16 53 l-6 30 15 -27 c17 -31 40 -38 31 -10 -5 13 1
17 24 19 27 2 29 0 20 -17 -14 -26 -13 -33 5 -26 20 7 19 6 -10 -34 -29 -39
-32 -55 -9 -46 9 3 27 9 41 12 23 6 24 5 14 -14 -15 -29 -14 -42 4 -36 13 5
13 1 0 -36 -8 -23 -15 -51 -15 -61 0 -19 1 -19 26 -2 27 17 27 17 15 -4 -13
-25 -15 -46 -3 -39 5 3 -2 -16 -15 -41 -31 -63 -31 -81 2 -59 33 21 38 20 24
-6 -9 -17 -9 -20 3 -16 10 4 8 -7 -9 -40 -29 -58 -31 -87 -4 -72 11 5 27 10
36 10 13 0 11 -6 -9 -33 -30 -39 -32 -47 -10 -47 13 0 12 -6 -6 -35 -25 -40
-25 -40 26 -19 l38 16 -36 -40 c-44 -48 -68 -93 -68 -123 0 -23 0 -23 28 3 15
14 37 31 50 37 21 11 22 11 16 -15 -6 -24 -5 -26 12 -19 10 4 30 10 43 13 21
4 23 2 16 -14 -4 -10 -10 -30 -13 -43 -4 -19 -1 -23 10 -19 26 10 42 -7 29
-30 -15 -28 -14 -35 4 -28 12 4 15 -3 15 -29 0 -47 11 -49 44 -8 16 19 32 31
36 26 15 -16 31 -137 25 -182 -6 -43 -3 -50 35 -103 33 -46 49 -60 83 -70 57
-16 222 -17 239 0 7 7 37 12 68 12 34 0 64 6 76 15 10 8 31 15 47 15 15 0 27
4 27 9 0 9 -63 105 -97 149 -10 12 -41 31 -68 41 -32 12 -58 30 -71 50 -22 30
-70 189 -61 198 10 9 45 -39 91 -127 46 -87 103 -150 135 -150 8 0 32 -12 53
-27 27 -18 56 -28 94 -31 93 -8 253 34 254 66 0 25 -70 152 -92 163 -12 6 -53
17 -91 23 l-71 12 -47 83 c-43 74 -48 91 -54 166 -4 47 -5 104 -1 127 3 24 0
105 -7 180 -7 75 -11 141 -9 147 2 7 12 5 26 -4 l23 -15 -3 52 c-2 29 -1 47 2
41 3 -7 12 -13 19 -13 10 0 12 13 8 58 l-6 57 22 -19 c26 -24 35 -17 21 18 -5
15 -10 46 -10 68 0 40 0 41 20 23 11 -10 20 -25 20 -34 0 -9 3 -11 9 -6 6 6
11 33 13 60 l3 50 23 -37 c13 -21 28 -38 33 -38 5 0 9 30 9 66 0 60 2 65 16
53 9 -7 20 -23 25 -36 17 -44 29 -24 29 50 l1 72 29 -32 c35 -39 42 -31 41 43
0 51 1 54 19 44 11 -6 26 -23 34 -38 13 -24 15 -25 22 -8 4 10 2 39 -4 64 -6
26 -9 48 -8 49 7 8 71 -57 84 -86 15 -34 17 -35 20 -11 1 14 -9 58 -23 99 -14
41 -23 76 -21 78 2 2 20 -10 39 -26 19 -17 37 -31 39 -31 3 0 -1 24 -9 53 -7
28 -12 61 -11 72 3 19 5 18 31 -7 32 -32 40 -35 34 -10 -3 9 -8 35 -12 56 l-7
40 41 -37 c23 -20 46 -37 51 -37 13 0 13 -4 -9 55 -10 28 -21 66 -24 85 l-6
35 29 -34 c37 -44 45 -29 31 60 -14 85 -15 82 14 75 28 -7 31 1 11 30 -15 20
-14 20 32 8 26 -6 49 -10 51 -8 3 2 -6 18 -18 35 -23 31 -23 31 -2 24 20 -6
21 -4 15 22 -3 15 -17 52 -30 81 -12 28 -20 52 -17 52 3 0 21 -9 39 -21 19
-11 34 -17 34 -14 0 4 -18 41 -41 81 -22 41 -37 74 -33 74 4 0 27 -16 50 -36
28 -22 44 -30 44 -21 0 17 -43 98 -74 140 -13 18 -29 42 -36 55 -11 22 -10 23
9 13 11 -6 27 -11 37 -11 15 0 16 2 2 18 -15 17 -48 76 -48 86 0 3 13 0 29 -5
16 -6 42 -9 57 -7 l26 3 -44 55 c-25 30 -57 76 -73 103 l-27 47 33 0 32 0 -20
23 c-38 42 -38 51 1 28 20 -13 39 -21 41 -19 3 2 -4 22 -14 44 -11 21 -22 50
-26 63 l-8 25 32 -27 c18 -15 42 -27 53 -27 18 0 18 2 -8 33 -26 31 -54 86
-54 106 0 6 7 8 15 5 17 -7 19 4 5 40 -10 26 -9 26 33 19 l42 -6 -18 24 c-25
35 -57 96 -57 109 0 7 8 9 20 5 35 -11 41 4 18 44 -13 23 -19 45 -15 56 7 16
16 17 95 11 227 -16 339 -18 393 -7 67 14 129 61 129 97 0 22 2 23 21 13 27
-14 41 4 33 41 -7 33 -77 97 -115 105 l-30 7 62 36 c35 21 91 64 125 98 76 76
104 141 111 264 6 104 -3 117 -99 131 -34 5 -130 18 -213 30 -82 11 -164 27
-182 36 -36 17 -113 96 -161 166 -48 70 -77 80 -257 83 -82 2 -170 -1 -194 -6z
m-1431 -3234 c0 -2 -8 -10 -17 -17 -16 -13 -17 -12 -4 4 13 16 21 21 21 13z"/>
<path d="M28434 21357 c-22 -13 -67 -42 -100 -65 -43 -28 -65 -38 -75 -31 -32
20 -77 9 -126 -30 -26 -21 -57 -48 -68 -61 -11 -12 -52 -44 -91 -71 -49 -32
-81 -64 -101 -96 -36 -59 -86 -88 -248 -144 -135 -46 -157 -56 -239 -112 -101
-68 -176 -96 -284 -107 -53 -5 -149 -20 -212 -34 -63 -14 -149 -28 -190 -31
-93 -9 -327 7 -700 46 -378 40 -559 45 -840 25 -571 -42 -774 -71 -942 -135
-184 -69 -251 -89 -338 -101 -140 -19 -305 3 -560 75 -136 38 -240 45 -328 23
-64 -16 -182 -130 -182 -177 0 -33 -12 -29 138 -49 63 -9 108 -27 320 -130
136 -66 283 -132 327 -147 210 -72 525 -25 692 102 27 21 48 28 79 28 23 0 45
-3 48 -6 4 -3 -9 -53 -28 -110 -66 -197 -72 -376 -20 -559 26 -91 27 -104 27
-340 -1 -345 -23 -442 -148 -656 -77 -130 -77 -131 -59 -221 15 -69 15 -102 4
-278 -19 -320 -18 -364 6 -405 44 -76 110 -100 292 -107 106 -4 136 -2 150 9
9 8 29 19 45 26 31 13 33 28 12 99 -22 73 -47 100 -111 119 -77 22 -89 44 -88
159 1 110 27 241 61 308 14 28 32 73 40 101 8 28 30 78 48 112 38 69 126 196
133 190 13 -13 -26 -167 -69 -271 -27 -65 -49 -131 -49 -145 0 -51 96 -522
141 -693 16 -59 62 -104 128 -124 51 -15 114 -19 284 -15 64 1 115 19 122 42
3 10 -4 50 -15 88 -28 92 -57 120 -135 130 l-59 7 -24 60 c-13 33 -32 92 -42
131 -23 88 -15 160 35 336 42 143 77 213 148 297 77 90 116 158 137 239 9 39
36 104 59 145 34 62 41 84 41 130 0 31 5 68 10 83 10 26 12 27 73 21 34 -3
166 -35 292 -71 250 -72 431 -111 830 -180 323 -56 323 -56 334 -70 9 -11 28
-356 35 -651 3 -121 7 -160 17 -164 8 -2 25 -16 40 -30 29 -29 73 -195 83
-311 7 -77 29 -111 77 -123 19 -4 120 -9 224 -11 119 -2 198 -7 212 -14 12 -7
31 -27 42 -46 28 -45 55 -54 189 -62 94 -5 115 -4 130 9 11 10 37 15 80 15 62
0 92 12 92 37 0 22 -51 129 -73 153 -13 14 -32 22 -52 22 -18 0 -52 3 -77 6
l-45 6 -61 127 c-81 169 -86 188 -76 280 11 108 10 163 -4 273 -18 131 -17
305 2 408 24 133 143 345 284 506 136 155 149 178 178 307 32 140 50 182 120
273 42 55 64 96 87 166 l32 93 52 24 c43 20 56 33 77 76 15 28 52 77 84 108
l58 58 46 -20 c74 -31 191 -61 241 -61 26 0 70 9 99 20 l52 19 35 -21 c20 -12
57 -36 82 -55 60 -43 92 -43 109 -2 19 45 -2 103 -52 148 -22 20 -62 64 -89
98 -27 34 -77 81 -111 105 l-63 42 90 13 c111 16 194 39 219 61 36 33 96 183
96 241 0 42 -41 66 -207 120 -89 29 -173 61 -186 71 -25 20 -41 57 -27 62 12
4 -52 133 -81 164 -13 14 -53 43 -89 64 l-65 38 -145 6 c-80 4 -181 9 -225 11
-71 5 -84 3 -121 -18z m-955 -3467 c22 -80 47 -164 55 -187 8 -24 11 -43 6
-43 -22 0 -49 42 -80 126 -25 68 -34 110 -37 179 -4 63 -2 87 5 80 6 -6 29
-75 51 -155z"/>
<path d="M32000 15725 c-99 -29 -374 -154 -407 -184 -11 -10 -43 -71 -73 -136
-59 -131 -59 -144 3 -158 20 -5 57 -27 82 -49 l46 -41 -50 -46 c-37 -35 -51
-55 -51 -74 0 -15 -11 -50 -25 -77 -36 -72 -57 -131 -124 -355 -107 -357 -181
-562 -340 -937 -45 -106 -94 -283 -110 -398 -6 -48 -7 -136 -1 -245 9 -190 17
-220 104 -393 39 -77 52 -118 75 -235 l27 -142 -7 -440 c-5 -314 -12 -472 -23
-550 -9 -60 -15 -166 -15 -235 2 -149 -5 -178 -81 -336 l-57 -121 -67 -33
c-58 -29 -67 -38 -78 -71 -6 -21 -19 -41 -28 -44 -10 -3 -31 -32 -48 -63 l-31
-58 22 -27 c30 -36 58 -43 152 -41 88 3 97 3 170 3 28 0 75 8 105 18 49 16 55
21 58 48 2 17 10 35 18 42 8 6 31 44 50 84 31 64 34 79 29 121 -6 41 -4 49 12
54 55 20 64 54 37 145 -9 30 -17 83 -18 118 -1 62 0 64 38 96 l39 32 -18 49
c-16 47 -16 56 -1 161 9 61 25 144 36 185 23 85 83 338 99 419 11 52 14 56 54
71 42 15 42 15 121 -24 l79 -40 -8 -91 c-5 -51 -8 -104 -7 -120 3 -80 83 -164
318 -338 l165 -123 -6 -90 c-9 -119 -22 -226 -28 -233 -3 -3 -84 -17 -180 -32
l-175 -28 -57 -49 c-48 -42 -125 -133 -125 -149 0 -3 8 -5 18 -5 9 0 22 -8 28
-18 13 -20 151 -49 180 -38 10 4 21 2 24 -5 5 -6 35 -12 71 -12 55 -1 74 4
134 36 107 56 105 58 105 -78 0 -105 -3 -125 -35 -223 -23 -72 -46 -121 -70
-151 -25 -31 -46 -77 -70 -156 -40 -129 -42 -145 -16 -145 11 0 23 -12 31 -31
13 -30 15 -31 67 -27 44 2 53 0 53 -13 0 -21 29 -29 105 -29 76 0 125 14 158
44 14 13 44 27 66 31 75 13 96 72 70 195 -9 42 -8 59 7 100 18 49 17 53 -4
173 -33 190 -36 242 -16 327 12 55 15 99 11 169 l-6 93 72 -7 c40 -3 110 -14
157 -23 56 -11 127 -16 207 -15 l122 1 -9 -24 c-25 -65 -40 -82 -87 -99 -77
-28 -92 -36 -136 -84 -39 -43 -43 -53 -61 -149 -19 -101 -19 -103 0 -118 14
-10 35 -14 74 -11 44 4 61 1 79 -14 30 -25 78 -24 119 1 18 11 42 20 53 20 34
0 98 39 114 70 9 16 20 65 25 107 l10 78 85 85 85 85 0 60 c0 33 -4 77 -9 97
-6 27 -5 38 4 42 22 8 137 169 169 236 27 57 31 77 33 165 2 55 7 132 12 170
17 139 -21 263 -128 420 -27 39 -97 153 -156 255 -60 102 -119 201 -131 220
-13 19 -46 100 -73 180 -141 414 -235 574 -517 878 -109 118 -121 134 -142
198 -31 98 -105 247 -156 315 -41 54 -106 207 -106 247 0 22 181 177 302 258
112 76 156 92 202 76 18 -7 50 -12 72 -12 44 0 57 -7 67 -32 15 -40 173 -15
306 48 157 74 265 173 328 302 37 74 38 79 38 187 0 61 5 119 11 130 16 29 24
114 14 165 -15 82 -17 83 -310 79 l-255 -4 -77 60 c-43 34 -91 82 -107 107
-50 78 -113 99 -366 118 -77 6 -153 15 -169 21 -38 12 -93 12 -101 -1 -11 -18
-55 -10 -108 20 -59 33 -96 36 -167 15z"/>
<path d="M20052 14804 c-78 -61 -99 -185 -68 -402 9 -62 16 -147 16 -190 0
-83 18 -167 43 -203 9 -12 44 -36 79 -53 85 -42 117 -87 153 -214 l28 -100
-36 -83 c-40 -96 -46 -120 -87 -364 -41 -243 -75 -378 -109 -439 -33 -58 -53
-107 -75 -186 -8 -31 -31 -76 -50 -100 -41 -53 -89 -147 -107 -210 -7 -25 -23
-58 -36 -73 -33 -41 -52 -114 -68 -267 -22 -206 -20 -297 11 -407 l27 -92 -52
-56 c-74 -81 -148 -207 -178 -303 -22 -70 -25 -95 -21 -175 4 -80 9 -102 40
-167 20 -41 47 -90 62 -109 27 -36 34 -75 16 -86 -15 -9 -12 -57 5 -78 7 -11
11 -25 8 -33 -3 -7 5 -39 18 -69 21 -51 22 -60 11 -113 -16 -76 -15 -137 1
-151 19 -15 173 -17 232 -2 28 7 66 16 85 20 l35 7 -2 59 c-3 90 -23 136 -66
160 -21 11 -40 28 -43 39 -5 15 -8 129 -5 157 1 3 38 -2 84 -11 l82 -17 8 -54
c4 -30 11 -79 16 -109 5 -30 8 -145 6 -255 -2 -127 0 -204 7 -212 5 -7 26 -15
47 -18 20 -4 65 -14 102 -22 60 -15 68 -15 99 0 18 9 42 17 52 17 31 0 54 17
68 49 11 27 14 29 41 19 44 -15 59 -5 59 42 0 34 -7 49 -43 88 -73 80 -87 102
-87 142 0 21 -15 94 -34 161 -53 198 -55 175 10 182 31 3 79 17 108 30 28 13
80 29 115 36 95 18 160 46 253 106 74 48 83 52 86 35 2 -11 48 -56 103 -101
64 -52 104 -92 113 -114 14 -32 59 -65 90 -65 10 0 17 -15 21 -44 6 -35 2 -54
-19 -98 -14 -30 -26 -69 -26 -87 0 -62 73 -101 131 -71 14 8 26 7 47 -4 49
-25 182 -26 182 -1 0 9 12 21 26 27 15 7 27 23 31 40 5 28 23 49 23 29 0 -6 7
-11 15 -11 19 0 31 65 17 95 -6 12 -24 38 -41 57 -17 19 -49 74 -72 121 -38
80 -42 96 -52 211 l-10 124 51 178 c28 99 59 218 69 266 16 82 16 94 1 197
-16 109 -16 110 8 193 38 134 54 233 54 339 0 112 -9 142 -97 329 -30 63 -68
148 -84 188 -44 110 -63 142 -119 202 -130 138 -148 237 -61 333 47 52 148
127 172 127 39 0 73 27 120 96 42 62 53 73 81 76 48 5 58 33 58 168 0 180 -38
287 -141 404 -49 54 -50 58 -53 123 -3 85 -15 107 -74 137 -28 14 -57 39 -72
62 -14 22 -42 50 -63 63 -34 23 -37 28 -37 72 0 111 -40 218 -91 244 -67 35
-147 -24 -196 -146 -17 -42 -34 -69 -43 -69 -8 0 -45 6 -82 14 -75 16 -183 8
-259 -19 -104 -37 -161 -11 -260 121 -40 54 -108 133 -149 175 -118 119 -191
145 -258 93z m1284 -3982 c-2 -10 -7 -34 -11 -55 -5 -33 -8 -37 -21 -26 -9 7
-22 25 -29 40 -14 26 -13 28 18 47 35 21 50 19 43 -6z"/>
<path d="M6895 14530 c-141 -15 -208 -41 -328 -123 -137 -93 -141 -97 -456
-497 -115 -145 -249 -295 -322 -359 -34 -30 -124 -96 -199 -146 l-137 -91
-125 -12 c-88 -9 -194 -30 -363 -74 l-240 -61 -435 -8 c-950 -17 -1416 -41
-1939 -100 -250 -28 -297 -22 -661 85 -186 55 -283 69 -430 63 -136 -5 -227
-27 -310 -74 -55 -32 -120 -82 -120 -93 0 -4 21 -2 47 6 58 18 175 29 199 20
15 -6 8 -13 -36 -37 -59 -32 -96 -63 -112 -93 -11 -21 -17 -21 74 8 l48 15
-16 -25 c-21 -32 -13 -40 20 -19 14 9 56 25 93 34 37 10 78 21 91 25 20 7 17
-1 -23 -56 -61 -81 -83 -126 -91 -180 l-6 -43 28 32 c16 18 56 44 88 58 l59
26 -16 -24 c-8 -13 -33 -49 -55 -80 -37 -53 -71 -141 -59 -153 3 -3 24 14 46
39 46 49 128 97 210 121 79 23 90 21 59 -11 -14 -16 -48 -62 -75 -103 -53 -80
-135 -163 -171 -174 -12 -4 -22 -12 -22 -18 0 -30 182 33 257 88 l23 16 -15
-43 c-9 -24 -28 -56 -42 -71 -15 -16 -22 -28 -15 -28 24 0 109 33 154 60 l46
29 -24 -42 c-13 -23 -24 -57 -24 -75 l0 -33 31 35 c27 31 126 103 187 135 22
12 20 5 -19 -70 -24 -46 -63 -103 -86 -128 -24 -24 -41 -46 -40 -48 2 -1 27 4
55 12 57 17 127 69 191 141 l44 49 -6 -55 c-3 -30 -9 -66 -13 -80 l-8 -25 30
19 c16 10 41 30 56 44 l28 26 0 -60 c0 -37 -8 -75 -20 -103 -26 -56 -26 -55
11 -34 36 21 76 69 123 148 l34 55 7 -69 c4 -38 4 -83 0 -100 -14 -63 32 -19
60 57 l14 37 0 -37 c1 -21 6 -38 11 -38 6 0 23 21 39 46 l29 45 8 -58 c6 -53
1 -94 -21 -148 l-8 -20 23 20 c36 31 76 100 106 183 28 76 28 77 38 44 5 -17
12 -32 16 -32 3 0 28 32 54 70 27 39 53 73 59 77 10 6 5 -67 -9 -115 -6 -22
-5 -23 14 -11 28 18 65 88 91 176 13 45 34 87 53 109 53 60 230 175 246 160 9
-9 -27 -44 -126 -123 -128 -102 -192 -193 -125 -177 26 7 26 6 -14 -42 -66
-78 -118 -206 -78 -190 10 3 6 -8 -11 -33 -27 -42 -57 -128 -49 -141 3 -5 -6
-38 -19 -75 -14 -39 -19 -65 -12 -62 6 3 -2 -22 -18 -54 -16 -33 -26 -62 -23
-65 3 -4 20 8 37 25 41 41 52 39 34 -4 -15 -36 -10 -70 7 -44 13 21 11 -2 -5
-54 -15 -51 -12 -56 16 -31 17 16 17 15 2 -36 -17 -56 -13 -70 11 -50 11 9 7
-11 -14 -71 -16 -46 -28 -85 -26 -88 3 -2 16 4 30 13 30 19 30 19 9 -29 -12
-30 -13 -39 -3 -46 10 -6 11 -19 3 -58 -11 -52 -8 -61 14 -39 12 12 11 -3 -8
-117 -9 -57 -7 -63 16 -44 37 30 -15 -47 -76 -115 -34 -37 -65 -79 -71 -92
-16 -43 -10 -134 20 -320 16 -98 37 -231 46 -294 30 -214 38 -235 104 -302 66
-67 93 -77 209 -78 64 0 82 5 157 40 47 22 89 40 95 40 21 0 9 40 -24 83 -19
25 -42 59 -50 76 -22 41 -52 60 -109 67 -34 5 -52 13 -62 28 -23 37 -37 138
-33 252 4 131 21 173 125 310 l67 87 18 -109 c10 -60 31 -201 48 -313 37 -248
42 -271 77 -303 16 -14 40 -39 56 -56 51 -57 195 -70 287 -26 30 15 73 32 95
39 34 10 39 16 37 36 -2 13 -22 48 -43 78 -21 30 -39 60 -39 67 0 21 -44 45
-97 52 -43 6 -50 11 -68 47 -17 34 -20 60 -20 185 0 144 0 146 32 206 39 75
130 195 218 289 36 39 89 105 118 147 l51 77 26 -31 26 -31 13 91 c7 49 15 93
18 96 3 3 16 -17 29 -44 13 -28 25 -50 27 -50 3 0 3 30 0 68 l-4 67 24 -50
c25 -49 25 -49 26 -19 1 17 4 46 7 63 l6 31 37 -52 c20 -29 44 -54 54 -56 15
-3 15 -1 2 32 -8 19 -15 45 -15 57 0 18 7 13 31 -24 44 -67 126 -129 86 -65
-8 12 -18 34 -22 47 l-7 24 36 -28 c20 -15 39 -25 43 -22 3 4 18 -11 34 -33
29 -40 75 -77 85 -67 3 3 -2 20 -12 38 l-17 34 35 -31 c43 -38 107 -78 114
-71 3 3 0 16 -7 29 -11 21 -11 22 4 9 14 -11 17 -11 17 0 0 7 17 -3 38 -22 46
-45 101 -83 108 -76 3 3 1 14 -5 25 -16 29 -14 37 6 21 11 -10 17 -11 20 -3 2
7 29 -15 61 -48 44 -46 58 -56 62 -43 5 13 8 12 20 -10 8 -15 28 -36 44 -48
l29 -21 -7 25 c-4 13 -9 40 -13 59 l-6 35 37 -40 36 -40 -6 40 c-6 38 -5 39
10 20 15 -20 15 -20 16 5 l1 25 16 -22 c22 -32 41 -30 35 5 -5 24 0 22 46 -27
54 -57 74 -63 49 -14 -8 15 -17 42 -21 58 l-7 30 36 -40 35 -40 -6 30 -7 30
22 -19 c21 -19 21 -19 21 0 1 16 4 15 21 -8 22 -29 41 -37 38 -15 -5 40 5 35
34 -17 34 -61 65 -89 49 -44 -5 12 -12 37 -16 53 l-6 30 15 -27 c17 -31 40
-38 31 -10 -5 13 1 17 26 19 24 2 29 0 20 -9 -17 -17 -15 -41 3 -34 10 3 6 -9
-12 -35 -28 -43 -26 -57 5 -40 12 6 28 11 37 11 12 0 14 -4 5 -19 -15 -28 -13
-34 11 -28 14 4 17 2 11 -6 -14 -17 -36 -96 -29 -103 3 -3 15 0 27 6 20 11 21
10 11 -9 -15 -27 -14 -44 2 -35 6 4 5 -1 -4 -12 -19 -22 -42 -85 -34 -93 3 -3
15 0 25 7 25 15 38 16 22 0 -16 -16 -15 -31 1 -25 8 3 5 -12 -10 -41 -33 -65
-31 -74 14 -66 l36 7 -26 -35 c-31 -40 -33 -48 -11 -48 13 0 12 -6 -7 -37 -25
-40 -27 -39 31 -15 12 5 11 1 -3 -18 -55 -77 -77 -123 -64 -137 4 -3 22 8 42
26 44 38 54 39 47 4 -4 -23 -2 -25 14 -18 10 4 30 10 43 13 21 4 23 2 16 -14
-4 -10 -10 -29 -12 -41 -4 -18 -1 -21 15 -16 26 6 36 -11 20 -36 -14 -24 -4
-39 15 -23 11 9 13 6 9 -18 -8 -57 5 -65 39 -25 18 20 35 32 39 28 16 -18 32
-134 26 -178 -7 -43 -4 -51 30 -100 49 -71 88 -87 217 -88 63 -1 101 3 109 11
7 7 38 12 69 12 38 0 63 5 73 15 8 8 28 15 45 15 17 0 31 4 31 8 0 10 -69 115
-97 149 -10 12 -44 33 -75 46 -65 29 -77 47 -108 158 -24 90 -25 92 -2 80 10
-5 42 -55 71 -111 40 -76 63 -109 94 -131 22 -16 47 -29 55 -29 8 0 30 -11 48
-25 21 -16 53 -28 83 -32 89 -10 260 32 261 65 0 7 -16 44 -35 83 -40 79 -64
94 -162 107 l-56 7 -44 76 c-50 87 -69 177 -60 289 3 36 0 125 -7 198 -11 125
-8 170 8 143 4 -6 13 -11 20 -11 10 0 12 12 9 48 -5 39 -3 45 8 35 23 -23 28
-14 22 45 l-6 57 22 -19 c26 -24 38 -14 23 19 -7 14 -12 44 -12 67 0 40 0 41
20 23 11 -10 20 -25 20 -34 0 -9 3 -11 9 -6 6 6 11 33 13 60 l3 50 23 -37 c13
-21 28 -38 33 -38 5 0 9 30 9 67 0 65 0 66 20 48 11 -10 22 -26 25 -36 13 -41
25 -15 25 54 l1 72 29 -32 c35 -39 42 -31 41 44 0 54 0 55 22 40 12 -8 27 -25
34 -38 11 -21 13 -22 19 -5 4 10 2 39 -4 64 -6 26 -9 48 -7 50 8 8 70 -57 84
-88 15 -35 15 -35 19 -8 2 15 -8 59 -23 99 -14 39 -23 74 -20 77 3 3 20 -9 38
-26 18 -18 35 -32 39 -32 3 0 -1 24 -9 53 -7 28 -12 61 -11 72 3 19 5 18 31
-7 32 -32 40 -35 34 -10 -3 9 -8 35 -12 56 l-7 40 41 -37 c23 -20 46 -37 51
-37 13 0 13 -4 -9 55 -10 28 -21 65 -24 83 -6 30 -5 32 13 22 10 -5 22 -19 25
-30 4 -11 11 -17 17 -14 10 6 6 61 -9 137 -6 28 -5 30 20 23 30 -7 32 -4 16
25 -10 19 -8 20 35 14 52 -8 56 -2 24 33 l-23 24 23 -7 c21 -6 22 -4 16 22 -3
15 -17 52 -30 81 -24 56 -23 59 16 37 43 -24 43 -17 0 60 -23 41 -37 75 -33
75 5 0 28 -16 51 -36 23 -19 42 -31 42 -24 0 21 -29 79 -68 137 -58 87 -58 87
-34 74 11 -6 28 -11 38 -11 15 0 16 2 2 18 -9 9 -25 36 -37 59 l-21 42 35 -15
c34 -14 85 -19 85 -8 0 3 -18 27 -41 53 -22 26 -54 70 -71 99 l-30 52 31 0
c37 0 38 6 9 30 -31 24 -16 37 18 16 14 -10 27 -16 30 -14 2 2 -5 22 -15 44
-11 21 -22 50 -26 63 l-8 25 32 -27 c18 -15 42 -27 54 -27 l20 0 -20 23 c-22
23 -63 99 -63 116 0 6 7 8 16 4 14 -5 16 -2 11 19 -4 15 -10 33 -13 41 -5 13
-1 14 30 5 45 -14 56 -5 29 25 -23 24 -53 80 -53 97 0 5 14 10 30 10 36 0 36
2 9 39 -12 16 -19 37 -17 47 4 21 -22 20 333 13 161 -4 172 -3 212 18 45 25
73 57 73 86 0 15 3 16 21 6 17 -9 23 -8 30 2 23 38 -38 121 -103 141 l-38 11
42 25 c138 81 215 169 243 277 20 77 20 179 0 198 -18 18 -86 34 -185 42 -108
9 -272 40 -306 58 -36 19 -116 103 -138 144 -24 48 -70 81 -128 92 -81 15
-185 19 -263 11z m-1505 -3244 c0 -2 -8 -10 -17 -17 -16 -13 -17 -12 -4 4 13
16 21 21 21 13z"/>
<path d="M28375 13920 c-86 -58 -92 -60 -137 -54 -56 8 -71 0 -163 -86 -34
-32 -73 -63 -86 -70 -49 -26 -100 -73 -119 -110 -26 -51 -93 -88 -260 -145
-100 -35 -155 -60 -223 -105 -113 -75 -176 -98 -291 -110 -50 -5 -136 -18
-191 -30 -224 -47 -331 -46 -840 5 -532 54 -583 56 -925 30 -609 -45 -728 -63
-959 -147 -230 -83 -267 -91 -401 -91 -132 0 -235 17 -440 73 -210 58 -332 56
-422 -6 -47 -33 -108 -114 -108 -143 0 -27 24 -36 117 -45 83 -7 92 -11 363
-144 267 -132 362 -164 500 -169 174 -8 343 36 476 122 68 44 113 55 143 36
12 -8 11 -18 -7 -63 -51 -124 -65 -206 -66 -358 0 -126 3 -158 26 -240 20 -73
27 -130 32 -245 8 -170 -6 -401 -29 -490 -19 -70 -89 -223 -144 -309 -50 -80
-53 -96 -34 -185 13 -66 14 -103 4 -281 -6 -113 -14 -231 -17 -262 -10 -114
34 -187 133 -223 66 -24 311 -34 327 -14 6 8 25 19 41 24 39 13 43 44 15 118
-24 65 -55 93 -117 109 -53 13 -72 38 -79 104 -10 80 22 268 57 344 17 36 38
88 46 115 8 28 27 73 40 100 35 69 136 211 141 197 9 -27 -30 -176 -72 -274
-25 -59 -46 -121 -46 -136 0 -53 91 -499 141 -695 6 -20 24 -53 41 -72 51 -59
118 -71 365 -67 65 2 121 20 128 42 6 20 -18 117 -41 161 -17 33 -70 59 -123
59 -46 0 -48 3 -98 150 -34 101 -32 170 7 328 39 154 91 268 154 342 79 92
122 164 141 237 10 37 37 105 61 150 35 65 44 93 44 132 0 72 10 109 30 114
28 7 111 -10 295 -63 316 -90 407 -110 893 -195 175 -31 310 -59 318 -67 13
-13 30 -303 38 -646 l3 -153 40 -37 c37 -34 42 -46 66 -147 14 -60 28 -138 31
-173 6 -63 25 -106 53 -116 34 -13 264 -27 345 -21 79 6 90 5 118 -15 17 -12
37 -34 45 -50 19 -37 54 -47 186 -55 89 -6 108 -4 122 9 11 11 34 16 77 16 66
0 100 12 100 36 0 26 -69 162 -86 168 -10 4 -49 9 -89 13 l-73 6 -61 126 c-79
164 -88 204 -72 324 10 69 10 107 2 152 -32 173 -29 403 5 540 25 102 159 322
279 460 57 66 115 140 129 165 13 25 34 90 46 145 27 126 47 172 117 263 42
55 63 95 84 159 29 89 51 123 78 123 28 0 60 30 85 78 14 26 51 72 83 104 l58
56 105 -35 c129 -43 199 -51 260 -28 25 9 52 19 61 21 9 3 51 -18 99 -51 90
-61 116 -66 139 -24 23 41 0 102 -58 158 -26 25 -65 68 -86 95 -21 27 -67 69
-103 95 l-64 46 109 17 c153 25 189 40 224 97 31 48 69 161 69 204 0 40 -38
61 -221 122 -153 51 -173 60 -190 89 -10 17 -14 32 -9 34 13 5 13 20 -1 35 -6
7 -26 41 -43 76 -29 60 -37 68 -113 114 l-82 49 -103 4 c-57 2 -159 6 -228 9
l-125 5 -90 -60z m-890 -3449 c25 -90 51 -173 56 -183 18 -33 -1 -35 -30 -2
-41 46 -91 208 -91 297 0 44 4 67 9 62 5 -6 30 -84 56 -174z"/>
<path d="M32005 7580 c-41 -12 -254 -103 -344 -147 l-74 -37 -54 -115 c-71
-150 -72 -159 -9 -182 27 -10 67 -35 88 -56 l38 -37 -50 -46 c-35 -33 -50 -54
-50 -72 0 -14 -14 -54 -31 -88 -31 -63 -43 -100 -149 -445 -84 -272 -168 -505
-260 -720 -143 -332 -174 -481 -161 -760 10 -190 18 -220 106 -394 37 -74 52
-121 72 -220 25 -123 25 -135 23 -516 -1 -279 -6 -431 -17 -535 -9 -80 -18
-217 -19 -305 -4 -183 -9 -206 -90 -372 l-53 -112 -65 -31 c-54 -25 -66 -36
-76 -65 -6 -19 -21 -41 -32 -49 -12 -8 -34 -38 -49 -67 l-29 -51 20 -29 c23
-32 42 -40 96 -40 22 0 57 0 79 -1 111 -2 243 9 278 24 31 14 37 22 37 47 0
17 7 34 15 38 8 5 31 42 51 83 31 65 35 81 30 123 -6 44 -5 48 19 57 44 17 51
50 30 137 -11 42 -19 101 -19 131 0 51 2 57 37 87 42 36 43 41 21 89 -16 32
-16 43 1 158 9 67 30 168 46 223 16 55 44 174 64 264 20 91 37 166 39 168 1 2
20 9 42 17 38 13 41 12 118 -26 l79 -40 -8 -91 c-4 -51 -7 -105 -6 -120 4 -78
95 -174 329 -347 l154 -113 -7 -81 c-8 -105 -24 -238 -28 -243 -2 -2 -82 -15
-178 -31 l-175 -27 -66 -55 c-37 -30 -67 -59 -67 -63 -1 -5 -12 -23 -26 -41
-29 -38 -31 -46 -9 -46 9 0 23 -8 32 -18 20 -23 136 -46 175 -37 17 5 27 3 27
-4 0 -7 25 -11 68 -11 58 0 78 6 146 40 44 21 84 37 88 34 4 -3 8 -57 8 -120
0 -103 -3 -125 -34 -220 -23 -71 -45 -118 -69 -147 -24 -29 -46 -76 -71 -154
-41 -129 -44 -153 -17 -153 11 0 23 -12 31 -31 13 -30 15 -31 67 -27 44 2 53
0 53 -14 0 -21 87 -34 163 -24 47 7 117 41 117 58 0 4 20 10 45 14 80 11 101
68 74 194 -9 42 -8 59 7 100 18 49 17 53 -4 173 -33 190 -36 242 -16 327 12
55 15 99 11 167 l-5 93 28 0 c46 0 180 -19 253 -37 53 -12 93 -14 173 -9 l105
7 -16 -38 c-9 -21 -19 -44 -22 -51 -7 -17 -51 -39 -95 -47 -24 -5 -51 -23 -87
-59 -51 -52 -53 -55 -73 -156 l-21 -104 23 -18 c24 -19 75 -24 99 -9 10 7 24
2 46 -15 38 -29 75 -30 124 -5 20 10 56 24 80 31 76 20 97 57 116 205 6 46 13
55 91 130 l84 80 0 60 c0 33 -4 77 -9 98 -7 28 -6 40 3 43 23 9 144 177 172
239 24 51 29 76 31 160 2 55 7 132 12 170 17 137 -16 253 -113 398 -30 45
-116 185 -191 311 -115 193 -143 248 -179 355 -151 439 -240 589 -544 914 -91
97 -99 109 -125 188 -37 108 -102 240 -153 306 -39 52 -92 170 -101 228 -5 28
2 37 84 106 205 175 336 257 395 245 18 -4 59 -9 91 -13 51 -5 60 -9 68 -31 9
-24 12 -24 82 -20 213 15 461 177 553 363 38 77 39 82 40 190 0 66 5 122 13
140 16 38 18 163 2 192 -22 43 -45 47 -231 43 -348 -8 -319 -11 -376 36 -27
22 -62 49 -77 59 -16 10 -37 35 -47 55 -44 87 -107 109 -390 136 -187 18 -243
20 -283 9 -21 -6 -37 -1 -70 21 -45 30 -117 40 -172 24z"/>
<path d="M20050 6654 c-76 -65 -96 -187 -66 -402 9 -62 16 -147 16 -190 0 -42
5 -95 11 -117 22 -81 37 -100 99 -129 84 -39 124 -87 154 -188 40 -131 41
-139 13 -194 -40 -81 -55 -139 -91 -354 -49 -292 -77 -402 -125 -490 -22 -41
-47 -106 -57 -144 -10 -41 -30 -85 -48 -110 -54 -70 -78 -116 -106 -196 -15
-43 -37 -90 -49 -105 -32 -41 -50 -115 -66 -265 -22 -206 -20 -299 11 -403
l26 -89 -31 -36 c-110 -130 -188 -266 -211 -373 -17 -76 -8 -201 18 -269 12
-30 40 -82 62 -115 39 -59 50 -98 30 -110 -15 -9 -12 -57 5 -79 8 -10 12 -23
9 -28 -3 -5 4 -36 16 -69 20 -53 21 -65 11 -116 -15 -76 -14 -129 3 -146 8 -8
46 -17 86 -21 69 -6 91 -3 175 26 17 6 40 10 51 9 39 -1 48 22 36 92 -15 91
-27 115 -67 134 -19 9 -38 25 -41 36 -7 22 -9 155 -3 161 2 2 40 -4 84 -13
l80 -16 8 -60 c4 -33 12 -80 17 -105 5 -25 7 -138 5 -252 -3 -167 -1 -209 10
-218 8 -6 38 -15 67 -20 29 -5 72 -13 95 -18 29 -6 52 -5 78 3 20 7 52 16 71
20 28 5 39 13 50 40 13 32 15 33 49 24 46 -13 55 -6 55 42 0 32 -8 48 -38 82
-81 90 -92 107 -92 147 0 21 -18 105 -40 186 -22 82 -40 150 -40 151 0 2 13 3
28 3 39 0 130 28 168 51 17 10 47 19 67 19 62 0 161 38 258 99 l94 59 10 -24
c5 -13 50 -56 99 -96 56 -45 98 -88 110 -113 16 -31 31 -43 63 -55 39 -13 43
-18 48 -55 5 -31 1 -53 -19 -95 -33 -71 -33 -113 -1 -145 26 -26 72 -33 105
-15 13 7 29 5 54 -5 49 -21 176 -21 176 0 0 9 11 21 25 27 14 6 28 23 32 37 9
39 13 43 29 30 19 -16 25 -9 31 38 4 34 -1 46 -44 104 -27 36 -64 98 -82 139
-30 64 -35 89 -44 199 l-10 127 51 174 c28 96 59 215 68 264 17 84 17 97 2
199 l-16 109 28 102 c40 144 50 206 50 317 0 113 -7 135 -107 354 -36 77 -75
168 -89 203 -28 75 -50 108 -119 182 -82 87 -114 168 -96 238 17 61 173 202
225 202 35 0 76 35 120 101 34 54 46 64 73 67 53 5 58 20 58 181 0 115 -4 158
-18 201 -20 59 -85 163 -139 221 -29 31 -33 42 -30 80 2 25 -3 62 -10 84 -11
33 -23 45 -66 68 -37 20 -58 40 -72 67 -12 23 -36 49 -59 62 -38 22 -38 22
-44 97 -7 91 -20 137 -50 182 -65 97 -186 31 -244 -132 -10 -27 -24 -49 -31
-49 -7 0 -42 7 -78 16 -55 14 -78 15 -143 6 -43 -6 -99 -18 -126 -28 -103 -34
-157 -6 -274 146 -186 241 -306 315 -391 244z m1286 -3984 c-2 -8 -7 -32 -11
-53 -5 -33 -8 -37 -21 -26 -9 7 -22 25 -30 40 -13 27 -13 29 16 46 17 9 30 22
30 28 0 5 5 3 10 -5 5 -8 8 -22 6 -30z"/>
<path d="M6865 6380 c-112 -18 -188 -47 -285 -112 -128 -85 -185 -144 -395
-413 -200 -256 -427 -494 -529 -555 -32 -19 -92 -59 -133 -87 -61 -44 -82 -53
-116 -53 -89 0 -219 -23 -402 -70 -310 -79 -295 -78 -830 -84 -778 -10 -1328
-38 -1790 -92 -258 -30 -345 -21 -637 65 -219 65 -306 81 -447 81 -131 0 -227
-17 -309 -55 -61 -28 -162 -100 -162 -115 0 -5 19 -2 43 7 23 8 87 17 142 20
l100 4 -65 -35 c-59 -33 -138 -101 -127 -112 2 -2 19 2 38 10 19 7 47 16 62
20 l28 7 -17 -26 c-23 -35 -13 -40 27 -16 19 11 64 27 101 36 37 8 75 18 84
22 11 4 0 -17 -28 -53 -57 -75 -86 -131 -94 -186 l-7 -43 34 37 c33 36 150 94
133 66 -5 -7 -28 -41 -51 -75 -42 -59 -73 -128 -73 -161 0 -10 16 0 43 27 23
24 59 54 79 67 40 25 183 77 199 72 11 -4 -112 -181 -163 -235 -22 -22 -56
-49 -74 -59 -47 -26 -42 -36 14 -29 55 8 142 45 189 81 25 19 33 21 33 10 0
-27 -21 -71 -48 -99 l-27 -29 30 7 c24 6 83 31 168 73 5 2 -1 -13 -12 -34 -12
-21 -21 -52 -21 -68 l0 -30 43 41 c37 36 178 133 193 133 15 0 -86 -170 -124
-208 -23 -23 -42 -44 -42 -46 0 -7 66 11 105 29 22 10 73 52 114 93 l74 74 -5
-53 c-3 -30 -9 -62 -13 -71 -12 -29 14 -21 61 18 l44 35 0 -58 c0 -36 -8 -74
-20 -102 -25 -53 -25 -54 -1 -42 32 18 94 89 133 152 l36 61 7 -66 c4 -36 4
-81 1 -101 -13 -68 36 -13 67 75 3 8 6 -2 6 -22 1 -48 21 -42 55 14 l24 41 8
-59 c6 -54 1 -94 -21 -149 l-8 -20 23 20 c35 31 68 89 104 182 33 85 33 85 40
49 4 -20 10 -36 14 -36 5 0 32 35 62 78 50 70 55 75 58 50 2 -15 -1 -44 -7
-64 -14 -50 -5 -56 29 -18 17 19 40 70 60 130 30 92 37 103 95 160 39 37 94
77 146 104 82 43 83 43 62 14 -12 -16 -63 -63 -114 -104 -85 -69 -159 -148
-159 -171 0 -5 9 -9 20 -9 27 0 25 -6 -10 -47 -33 -37 -90 -144 -90 -168 0 -8
7 -15 15 -15 12 0 9 -9 -11 -39 -27 -42 -57 -128 -49 -141 3 -5 -6 -38 -19
-75 -14 -39 -19 -65 -12 -62 6 3 -2 -22 -18 -54 -16 -33 -27 -62 -24 -64 3 -3
22 11 43 30 20 20 39 34 41 32 2 -2 -3 -21 -11 -41 -16 -37 -11 -71 6 -45 14
22 10 -9 -6 -56 -17 -46 -13 -55 15 -30 20 18 20 18 4 -35 -17 -56 -13 -70 11
-50 11 9 7 -11 -14 -71 -16 -46 -28 -85 -26 -88 3 -2 16 4 29 13 l25 16 -15
-42 c-11 -32 -12 -43 -2 -49 9 -6 10 -20 2 -58 -11 -52 -8 -60 15 -38 10 10
11 7 7 -13 -3 -14 -8 -47 -11 -75 -3 -27 -9 -59 -12 -69 -4 -14 -1 -18 11 -13
30 12 16 -12 -49 -85 -36 -40 -72 -87 -80 -105 -19 -40 -19 -125 0 -233 8 -47
31 -191 50 -320 19 -129 40 -251 45 -272 6 -22 34 -61 68 -96 65 -69 98 -82
210 -82 64 0 82 5 156 40 46 22 88 40 95 40 19 0 12 35 -14 71 -13 19 -37 55
-52 81 -34 57 -50 67 -115 75 -35 4 -53 12 -63 27 -23 37 -37 139 -33 252 3
100 6 115 35 174 18 36 60 100 95 144 l62 78 18 -108 c10 -60 31 -201 48 -314
17 -113 36 -221 42 -240 11 -37 95 -128 138 -150 14 -8 62 -13 115 -14 82 0
95 2 151 31 33 17 72 35 86 38 31 8 28 30 -12 90 -15 22 -35 54 -44 72 -20 39
-47 55 -106 63 -40 4 -47 9 -64 44 -28 57 -36 274 -13 341 24 69 116 202 217
313 50 53 113 132 142 175 l51 77 27 -31 26 -32 12 87 c6 48 14 91 18 97 3 6
17 -12 30 -40 13 -28 25 -51 27 -51 3 0 3 30 0 68 l-4 67 24 -50 25 -50 2 40
c1 22 5 51 9 64 6 22 8 20 38 -28 43 -68 92 -90 58 -25 -8 16 -15 40 -15 54 0
21 5 17 35 -27 53 -79 112 -115 75 -46 -28 53 -25 59 16 28 19 -15 38 -24 41
-21 3 3 18 -12 34 -34 29 -40 75 -77 85 -67 3 3 -2 20 -12 39 l-17 33 24 -21
c39 -34 120 -86 126 -81 2 3 -1 16 -8 29 -11 21 -11 22 4 9 12 -10 17 -10 17
-1 0 6 21 -7 48 -30 81 -72 121 -84 90 -27 -10 21 -10 21 7 7 12 -10 19 -11
22 -4 2 7 29 -15 61 -48 44 -46 58 -56 62 -43 5 13 8 12 20 -10 8 -15 28 -36
44 -48 l29 -21 -7 25 c-4 13 -9 40 -13 59 l-6 35 37 -40 36 -40 -6 40 c-6 38
-5 39 10 20 15 -20 15 -20 16 4 l0 24 23 -21 c30 -28 35 -28 29 3 -5 29 14 34
23 6 6 -21 74 -85 82 -78 2 3 -2 18 -10 34 -8 15 -17 42 -21 58 l-6 30 27 -33
c33 -38 43 -41 35 -9 -5 22 -5 22 16 3 22 -19 22 -19 22 0 1 16 4 15 21 -8 22
-29 41 -37 38 -15 -6 46 3 47 26 2 24 -51 48 -85 58 -85 3 0 -1 21 -9 47 -18
59 -17 78 1 36 15 -36 41 -46 32 -13 -3 11 -1 18 4 15 5 -3 18 -1 29 5 20 11
30 -3 10 -15 -16 -10 -12 -38 4 -32 9 4 5 -8 -10 -30 -13 -20 -24 -40 -24 -44
0 -12 17 -11 25 1 3 6 15 10 27 10 17 0 19 -4 14 -25 -5 -18 -2 -25 8 -25 12
0 12 -6 0 -37 -14 -40 -18 -73 -8 -73 3 0 14 5 25 11 19 10 19 9 9 -10 -6 -12
-10 -27 -9 -34 1 -6 -2 -23 -8 -37 -29 -70 -28 -79 9 -59 18 10 20 9 15 -5 -4
-10 -1 -16 7 -16 10 0 7 -13 -10 -47 -34 -66 -32 -75 13 -67 l37 7 -27 -32
c-32 -38 -35 -55 -7 -48 18 5 18 2 -5 -31 -13 -20 -23 -38 -21 -40 2 -2 19 4
37 13 l33 17 -31 -38 c-52 -67 -79 -134 -53 -134 5 0 13 6 17 14 4 8 26 24 48
37 22 12 34 16 28 9 -16 -18 -17 -54 -2 -44 6 4 26 10 45 14 33 8 33 7 19 -13
-25 -36 -19 -57 16 -57 29 0 30 -1 15 -22 -22 -31 -21 -51 2 -39 15 8 17 5 14
-30 -2 -21 0 -39 4 -39 4 0 23 14 41 32 24 23 34 28 37 17 18 -56 27 -126 22
-166 -6 -43 -3 -54 29 -104 23 -37 46 -61 68 -70 59 -25 395 -9 405 20 2 6 19
11 38 11 19 0 34 4 34 9 0 12 -96 155 -112 168 -7 5 -35 18 -61 27 -59 22 -78
50 -107 158 -35 130 -9 118 70 -32 53 -100 109 -160 150 -160 9 0 31 -11 49
-25 44 -32 103 -40 193 -25 86 14 148 39 147 60 0 8 -16 47 -37 85 -42 80 -64
94 -153 102 l-58 6 -40 66 c-61 100 -63 111 -67 301 -2 96 -8 210 -12 253 -8
75 -3 112 12 88 4 -6 13 -11 20 -11 10 0 12 12 9 48 -5 39 -3 45 8 35 23 -23
28 -14 22 43 l-6 56 28 -18 29 -19 -9 25 c-4 14 -10 46 -12 73 -4 40 -3 46 11
41 9 -3 19 -17 22 -31 9 -36 22 -15 26 42 l3 50 24 -38 c13 -21 27 -35 32 -30
4 4 9 37 11 73 l3 65 26 -43 c14 -23 29 -39 32 -35 4 3 7 35 7 70 0 60 1 63
19 53 11 -5 23 -19 26 -31 12 -37 27 -5 26 55 0 31 3 56 8 56 12 0 51 -45 51
-59 0 -7 5 -9 11 -5 11 7 7 71 -7 109 -15 38 58 -17 75 -57 9 -21 19 -38 24
-38 14 0 7 49 -18 115 -14 37 -23 70 -20 73 3 3 21 -10 40 -28 36 -34 54 -36
37 -3 -6 10 -13 40 -17 67 -7 47 -7 48 14 36 12 -6 25 -18 28 -26 3 -8 10 -14
15 -14 9 0 7 18 -10 90 -5 24 -3 23 36 -12 45 -41 69 -49 57 -20 -9 22 -30 89
-39 125 -6 26 -5 27 13 18 11 -6 23 -20 26 -32 5 -15 10 -18 18 -10 7 7 7 31
-2 81 -12 77 -8 98 15 79 20 -16 31 -2 16 21 -17 28 -16 28 28 17 45 -13 60
-5 38 20 -8 10 -19 25 -23 33 -8 13 -7 13 8 1 29 -23 30 -6 3 70 -14 40 -24
75 -22 77 3 2 16 -4 30 -14 15 -9 29 -14 32 -12 2 3 -14 38 -37 77 -23 40 -39
74 -37 77 3 2 26 -14 51 -37 26 -22 47 -36 47 -30 0 22 -29 80 -68 138 -58 87
-58 87 -34 74 11 -6 28 -11 37 -11 14 0 14 3 -3 28 -11 15 -27 41 -36 59 l-16
32 35 -15 c34 -14 85 -19 85 -8 0 3 -18 26 -39 52 -22 26 -53 71 -70 100 l-30
52 29 0 c36 0 37 3 9 31 -27 27 -17 36 17 15 35 -24 39 -15 16 31 -11 21 -23
49 -27 62 l-7 24 34 -27 c19 -14 43 -26 52 -26 15 0 13 5 -7 33 -28 36 -57 91
-57 106 0 6 7 8 16 4 14 -5 16 -2 11 19 -4 15 -10 33 -13 41 -5 13 1 14 32 7
21 -5 40 -7 42 -6 2 2 -10 23 -27 47 -16 24 -32 54 -36 67 -6 19 -3 22 24 22
37 0 37 2 10 39 -25 33 -22 64 6 70 11 2 103 -2 205 -9 140 -9 200 -10 245 -1
74 14 134 52 141 90 5 23 10 27 30 23 31 -6 36 28 11 76 -13 26 -84 72 -112
72 -10 0 16 22 58 49 158 104 216 196 225 356 l5 93 -33 17 c-17 9 -75 21
-128 26 -54 6 -149 19 -212 30 -133 22 -169 42 -237 129 -92 119 -102 128
-151 139 -72 15 -240 21 -307 11z"/>
<path d="M28372 5769 c-79 -51 -94 -57 -125 -52 -56 9 -80 -2 -156 -72 -39
-35 -90 -76 -113 -91 -58 -36 -94 -71 -108 -105 -18 -43 -90 -83 -247 -137
-105 -36 -165 -64 -235 -109 -121 -77 -176 -99 -269 -106 -42 -4 -143 -21
-225 -38 -148 -31 -150 -32 -364 -26 -119 3 -320 17 -450 32 -480 52 -575 56
-822 40 -236 -16 -559 -42 -618 -50 -152 -20 -306 -50 -365 -71 -343 -124
-320 -118 -462 -122 -155 -5 -250 9 -465 68 -125 34 -161 40 -245 40 -119 0
-162 -17 -233 -90 -83 -86 -81 -125 7 -135 118 -13 160 -28 362 -126 260 -127
327 -156 426 -180 191 -46 434 -2 604 109 41 26 76 42 95 42 56 0 59 -10 32
-83 -71 -187 -83 -399 -33 -587 44 -166 45 -569 2 -735 -19 -69 -84 -212 -142
-305 -52 -85 -55 -99 -36 -189 13 -69 13 -103 0 -337 -16 -264 -14 -312 17
-359 23 -35 102 -72 177 -85 92 -14 235 -13 251 3 7 7 28 19 46 26 37 16 40
33 16 107 -23 67 -56 100 -116 114 -72 18 -83 40 -81 165 1 119 24 231 59 299
15 28 33 73 41 100 8 28 28 76 43 106 32 63 129 204 136 197 13 -13 -23 -157
-66 -266 -28 -68 -50 -136 -50 -151 0 -32 76 -412 119 -599 16 -68 37 -135 48
-150 10 -14 39 -36 64 -48 52 -27 177 -47 228 -39 20 4 69 8 110 10 57 3 78 9
94 24 20 20 20 22 2 84 -33 118 -63 148 -149 148 -52 0 -52 1 -103 150 -35
105 -33 176 12 345 43 166 77 238 161 341 84 103 111 149 130 226 9 35 36 101
60 147 34 65 44 96 44 132 0 76 10 109 34 115 28 7 110 -12 351 -81 250 -72
346 -93 750 -164 400 -71 404 -72 409 -80 5 -8 25 -456 30 -653 4 -151 9 -171
46 -183 10 -3 25 -22 33 -43 22 -55 56 -208 62 -284 9 -95 28 -114 131 -124
44 -4 144 -7 224 -7 l145 1 51 -54 50 -55 114 -9 c114 -9 160 -6 160 11 0 5
30 9 66 9 69 0 104 12 104 35 0 21 -66 161 -80 170 -7 4 -47 10 -89 14 l-76 6
-62 124 c-81 161 -90 202 -73 329 10 74 10 110 1 152 -23 112 -30 308 -15 423
18 137 26 157 110 306 74 130 93 157 223 308 97 114 114 148 143 280 24 114
52 174 120 258 39 48 55 80 79 158 30 94 33 100 68 113 59 24 65 28 93 80 15
27 54 76 87 108 l60 59 48 -21 c140 -60 272 -74 346 -36 36 19 64 9 148 -53
68 -49 92 -53 115 -18 30 45 11 100 -61 175 -34 36 -81 86 -104 112 -24 26
-66 62 -94 80 l-52 33 40 7 c252 44 262 47 300 113 30 50 65 156 65 196 0 42
-38 65 -190 115 -174 56 -212 74 -228 108 -7 16 -8 26 -2 26 6 0 10 7 10 15 0
8 -4 15 -8 15 -5 0 -17 19 -27 43 -32 77 -38 87 -70 112 -18 13 -61 39 -96 58
l-64 35 -222 5 -222 5 -89 -59z m-907 -3376 c16 -60 41 -146 56 -193 16 -46
26 -86 24 -88 -2 -3 -17 8 -33 24 -41 42 -92 205 -92 295 0 38 3 69 8 69 4 0
21 -48 37 -107z"/>
</g>
</svg>
