<?xml version="1.0" encoding="UTF-8"?>
<!-- CMYK_PDF_CONVERTED -->
<svg data-vectorized-cmyk="true" data-original-cmyk-pdf="true" xmlns="http://www.w3.org/2000/svg" xmlns:xlink="http://www.w3.org/1999/xlink" width="595.2756" height="841.8898" viewBox="0 0 595.2756 841.8898">
<path fill-rule="evenodd" fill="rgb(89.019775%, 0%, 5.882263%)" fill-opacity="1" stroke-width="7.9999" stroke-linecap="butt" stroke-linejoin="miter" stroke="rgb(100%, 100%, 100%)" stroke-opacity="1" stroke-miterlimit="22.925586" d="M 15.472656 831.725738 L 582.402344 831.725738 L 582.402344 572.256988 L 15.472656 572.256988 Z M 15.472656 831.725738 " transform="matrix(1, 0, 0, -1, 0, 841.8898)"/>
<path fill-rule="nonzero" fill="rgb(100%, 100%, 100%)" fill-opacity="1" d="M 202.253906 120.179688 L 202.253906 46.980469 L 252.554688 46.980469 L 252.554688 59.351562 L 217.078125 59.351562 L 217.078125 76.730469 L 247.75 76.730469 L 247.75 89.101562 L 217.078125 89.101562 L 217.078125 120.179688 Z M 264.191406 120.179688 L 264.191406 46.980469 L 279.015625 46.980469 L 279.015625 120.179688 Z M 293.105469 120.179688 L 293.105469 46.980469 L 324.238281 46.980469 C 332.058594 46.980469 337.75 47.644531 341.292969 48.957031 C 344.855469 50.269531 347.683594 52.605469 349.8125 55.960938 C 351.941406 59.335938 353.015625 63.167969 353.015625 67.496094 C 353.015625 73 351.414062 77.53125 348.195312 81.109375 C 344.972656 84.6875 340.167969 86.9375 333.761719 87.875 C 336.949219 89.734375 339.574219 91.777344 341.632812 94.007812 C 343.710938 96.242188 346.507812 100.210938 350.015625 105.902344 L 358.945312 120.179688 L 341.277344 120.179688 L 330.679688 104.199219 C 326.878906 98.523438 324.269531 94.945312 322.855469 93.464844 C 321.460938 92 319.976562 90.976562 318.410156 90.429688 C 316.824219 89.886719 314.335938 89.613281 310.929688 89.613281 L 307.929688 89.613281 L 307.929688 120.179688 Z M 307.929688 77.957031 L 318.871094 77.957031 C 325.957031 77.957031 330.371094 77.652344 332.144531 77.054688 C 333.898438 76.460938 335.296875 75.421875 336.285156 73.953125 C 337.289062 72.488281 337.78125 70.648438 337.78125 68.449219 C 337.78125 65.980469 337.117188 64.003906 335.804688 62.46875 C 334.496094 60.953125 332.636719 60 330.25 59.609375 C 329.042969 59.4375 325.445312 59.351562 319.464844 59.351562 L 307.929688 59.351562 Z M 366.9375 120.179688 L 366.9375 46.980469 L 421.121094 46.980469 L 421.121094 59.351562 L 381.761719 59.351562 L 381.761719 75.605469 L 418.359375 75.605469 L 418.359375 87.976562 L 381.761719 87.976562 L 381.761719 107.8125 L 422.550781 107.8125 L 422.550781 120.179688 Z M 101.5625 234.394531 L 84.351562 161.195312 L 99.585938 161.195312 L 110.472656 211.476562 L 123.832031 161.195312 L 141.449219 161.195312 L 154.230469 212.328125 L 165.375 161.195312 L 180.25 161.195312 L 162.613281 234.394531 L 146.785156 234.394531 L 132.351562 179.664062 L 117.816406 234.394531 Z M 248.300781 234.394531 L 232.335938 234.394531 L 226.015625 217.730469 L 196.65625 217.730469 L 190.574219 234.394531 L 174.898438 234.394531 L 203.320312 161.195312 L 218.976562 161.195312 Z M 221.210938 205.359375 L 211.039062 178.269531 L 201.15625 205.359375 Z M 256.191406 234.394531 L 256.191406 161.195312 L 287.320312 161.195312 C 295.144531 161.195312 300.832031 161.859375 304.378906 163.171875 C 307.9375 164.484375 310.769531 166.816406 312.898438 170.175781 C 315.027344 173.546875 316.101562 177.382812 316.101562 181.710938 C 316.101562 187.214844 314.5 191.746094 311.277344 195.324219 C 308.058594 198.902344 303.253906 201.152344 296.847656 202.089844 C 300.03125 203.945312 302.65625 205.992188 304.71875 208.222656 C 306.796875 210.453125 309.59375 214.425781 313.101562 220.117188 L 322.03125 234.394531 L 304.359375 234.394531 L 293.761719 218.410156 C 289.964844 212.738281 287.355469 209.160156 285.941406 207.675781 C 284.542969 206.210938 283.0625 205.191406 281.496094 204.644531 C 279.910156 204.097656 277.421875 203.828125 274.015625 203.828125 L 271.015625 203.828125 L 271.015625 234.394531 Z M 271.015625 192.171875 L 281.953125 192.171875 C 289.042969 192.171875 293.457031 191.863281 295.226562 191.269531 C 296.984375 190.671875 298.378906 189.632812 299.367188 188.167969 C 300.375 186.703125 300.867188 184.863281 300.867188 182.664062 C 300.867188 180.195312 300.203125 178.21875 298.890625 176.683594 C 297.578125 175.167969 295.722656 174.210938 293.335938 173.820312 C 292.128906 173.648438 288.53125 173.566406 282.550781 173.566406 L 271.015625 173.566406 Z M 330.023438 161.195312 L 356.976562 161.195312 C 363.0625 161.195312 367.695312 161.65625 370.882812 162.59375 C 375.160156 163.851562 378.839844 166.101562 381.890625 169.339844 C 384.957031 172.558594 387.273438 176.511719 388.875 181.199219 C 390.460938 185.867188 391.261719 191.644531 391.261719 198.492188 C 391.261719 204.523438 390.511719 209.703125 389.011719 214.066406 C 387.1875 219.398438 384.582031 223.710938 381.191406 227 C 378.632812 229.503906 375.175781 231.445312 370.832031 232.84375 C 367.574219 233.882812 363.230469 234.394531 357.777344 234.394531 L 330.023438 234.394531 Z M 344.84375 173.566406 L 344.84375 222.023438 L 355.835938 222.023438 C 359.941406 222.023438 362.90625 221.785156 364.730469 221.324219 C 367.132812 220.730469 369.109375 219.707031 370.675781 218.277344 C 372.261719 216.84375 373.539062 214.492188 374.527344 211.222656 C 375.535156 207.949219 376.027344 203.46875 376.027344 197.8125 C 376.027344 192.15625 375.535156 187.828125 374.527344 184.792969 C 373.539062 181.761719 372.140625 179.410156 370.351562 177.707031 C 368.5625 176.019531 366.296875 174.859375 363.539062 174.261719 C 361.492188 173.804688 357.453125 173.566406 351.457031 173.566406 Z M 403.851562 234.394531 L 403.851562 161.195312 L 458.035156 161.195312 L 458.035156 173.566406 L 418.675781 173.566406 L 418.675781 189.820312 L 455.277344 189.820312 L 455.277344 202.191406 L 418.675781 202.191406 L 418.675781 222.023438 L 459.46875 222.023438 L 459.46875 234.394531 Z M 472.042969 234.394531 L 472.042969 161.195312 L 486.390625 161.195312 L 516.515625 210.25 L 516.515625 161.195312 L 530.214844 161.195312 L 530.214844 234.394531 L 515.40625 234.394531 L 485.742188 186.277344 L 485.742188 234.394531 Z M 472.042969 234.394531 "/>
<path fill-rule="evenodd" fill="rgb(0%, 58.824158%, 24.705505%)" fill-opacity="1" stroke-width="7.9999" stroke-linecap="butt" stroke-linejoin="miter" stroke="rgb(100%, 100%, 100%)" stroke-opacity="1" stroke-miterlimit="22.925586" d="M 11.152344 549.471831 L 578.082031 549.471831 L 578.082031 290.006988 L 11.152344 290.006988 Z M 11.152344 549.471831 " transform="matrix(1, 0, 0, -1, 0, 841.8898)"/>
<path fill-rule="nonzero" fill="rgb(100%, 100%, 100%)" fill-opacity="1" d="M 253.3125 403.964844 L 253.3125 331.101562 L 303.382812 331.101562 L 303.382812 343.414062 L 268.070312 343.414062 L 268.070312 360.714844 L 298.597656 360.714844 L 298.597656 373.027344 L 268.070312 373.027344 L 268.070312 403.964844 Z M 314.96875 403.964844 L 314.96875 331.101562 L 329.722656 331.101562 L 329.722656 403.964844 Z M 343.75 403.964844 L 343.75 331.101562 L 374.738281 331.101562 C 382.523438 331.101562 388.1875 331.761719 391.714844 333.070312 C 395.261719 334.375 398.074219 336.699219 400.195312 340.039062 C 402.316406 343.398438 403.382812 347.214844 403.382812 351.523438 C 403.382812 357 401.789062 361.511719 398.585938 365.074219 C 395.378906 368.636719 390.59375 370.875 384.21875 371.808594 C 387.390625 373.65625 390.003906 375.691406 392.054688 377.914062 C 394.125 380.136719 396.90625 384.085938 400.398438 389.753906 L 409.285156 403.964844 L 391.699219 403.964844 L 381.148438 388.054688 C 377.367188 382.40625 374.769531 378.847656 373.363281 377.371094 C 371.972656 375.910156 370.496094 374.894531 368.9375 374.351562 C 367.359375 373.808594 364.882812 373.539062 361.492188 373.539062 L 358.503906 373.539062 L 358.503906 403.964844 Z M 358.503906 361.9375 L 369.394531 361.9375 C 376.449219 361.9375 380.84375 361.628906 382.605469 361.035156 C 384.355469 360.445312 385.746094 359.410156 386.730469 357.949219 C 387.730469 356.492188 388.222656 354.660156 388.222656 352.472656 C 388.222656 350.011719 387.558594 348.042969 386.253906 346.519531 C 384.949219 345.007812 383.097656 344.058594 380.722656 343.667969 C 379.519531 343.5 375.941406 343.414062 369.988281 343.414062 L 358.503906 343.414062 Z M 413.375 380.355469 L 427.722656 378.929688 C 428.589844 383.730469 430.320312 387.242188 432.949219 389.496094 C 435.578125 391.753906 439.121094 392.871094 443.582031 392.871094 C 448.296875 392.871094 451.859375 391.871094 454.25 389.871094 C 456.640625 387.871094 457.847656 385.527344 457.847656 382.847656 C 457.847656 381.117188 457.335938 379.660156 456.335938 378.4375 C 455.335938 377.234375 453.570312 376.183594 451.0625 375.300781 C 449.347656 374.691406 445.449219 373.640625 439.339844 372.113281 C 431.488281 370.144531 425.976562 367.738281 422.804688 364.871094 C 418.34375 360.851562 416.121094 355.949219 416.121094 350.164062 C 416.121094 346.449219 417.171875 342.957031 419.261719 339.71875 C 421.363281 336.476562 424.382812 334.019531 428.335938 332.320312 C 432.285156 330.625 437.035156 329.777344 442.632812 329.777344 C 451.738281 329.777344 458.609375 331.796875 463.207031 335.851562 C 467.820312 339.902344 470.226562 345.296875 470.464844 352.066406 L 455.710938 352.574219 C 455.082031 348.808594 453.742188 346.113281 451.6875 344.464844 C 449.636719 342.820312 446.550781 341.988281 442.445312 341.988281 C 438.207031 341.988281 434.882812 342.871094 432.488281 344.636719 C 430.945312 345.773438 430.164062 347.28125 430.164062 349.179688 C 430.164062 350.910156 430.894531 352.386719 432.355469 353.609375 C 434.203125 355.183594 438.695312 356.8125 445.839844 358.511719 C 452.976562 360.1875 458.253906 361.953125 461.664062 363.75 C 465.089844 365.566406 467.769531 368.023438 469.703125 371.164062 C 471.636719 374.300781 472.601562 378.167969 472.601562 382.765625 C 472.601562 386.9375 471.449219 390.855469 469.125 394.5 C 466.800781 398.148438 463.527344 400.863281 459.289062 402.625 C 455.046875 404.40625 449.757812 405.289062 443.429688 405.289062 C 434.21875 405.289062 427.148438 403.167969 422.210938 398.910156 C 417.277344 394.671875 414.339844 388.480469 413.375 380.355469 Z M 501.503906 403.964844 L 501.503906 343.414062 L 479.929688 343.414062 L 479.929688 331.101562 L 537.734375 331.101562 L 537.734375 343.414062 L 516.261719 343.414062 L 516.261719 403.964844 Z M 318.953125 517.65625 L 303.058594 517.65625 L 296.769531 501.066406 L 267.542969 501.066406 L 261.488281 517.65625 L 245.882812 517.65625 L 274.175781 444.789062 L 289.761719 444.789062 Z M 291.984375 488.753906 L 281.859375 461.785156 L 272.019531 488.753906 Z M 326.296875 517.65625 L 326.296875 444.789062 L 341.054688 444.789062 L 341.054688 517.65625 Z M 355.078125 444.789062 L 381.910156 444.789062 C 387.96875 444.789062 392.582031 445.25 395.753906 446.179688 C 400.007812 447.4375 403.671875 449.675781 406.707031 452.898438 C 409.761719 456.105469 412.070312 460.039062 413.664062 464.703125 C 415.238281 469.351562 416.039062 475.101562 416.039062 481.917969 C 416.039062 487.921875 415.292969 493.078125 413.796875 497.421875 C 411.984375 502.730469 409.386719 507.019531 406.011719 510.292969 C 403.46875 512.789062 400.027344 514.722656 395.703125 516.113281 C 392.460938 517.144531 388.136719 517.65625 382.707031 517.65625 L 355.078125 517.65625 Z M 369.835938 457.105469 L 369.835938 505.339844 L 380.777344 505.339844 C 384.863281 505.339844 387.8125 505.105469 389.628906 504.644531 C 392.019531 504.050781 393.988281 503.035156 395.546875 501.609375 C 397.125 500.183594 398.398438 497.84375 399.382812 494.589844 C 400.382812 491.332031 400.875 486.871094 400.875 481.238281 C 400.875 475.609375 400.382812 471.300781 399.382812 468.28125 C 398.398438 465.261719 397.007812 462.921875 395.226562 461.226562 C 393.445312 459.546875 391.191406 458.394531 388.441406 457.800781 C 386.40625 457.34375 382.386719 457.105469 376.417969 457.105469 Z M 428.570312 517.65625 L 428.570312 444.789062 L 482.507812 444.789062 L 482.507812 457.105469 L 443.328125 457.105469 L 443.328125 473.285156 L 479.761719 473.285156 L 479.761719 485.597656 L 443.328125 485.597656 L 443.328125 505.339844 L 483.933594 505.339844 L 483.933594 517.65625 Z M 496.449219 517.65625 L 496.449219 444.789062 L 527.4375 444.789062 C 535.222656 444.789062 540.886719 445.453125 544.414062 446.757812 C 547.960938 448.0625 550.777344 450.386719 552.894531 453.730469 C 555.015625 457.085938 556.085938 460.902344 556.085938 465.210938 C 556.085938 470.691406 554.488281 475.203125 551.285156 478.761719 C 548.078125 482.324219 543.296875 484.5625 536.917969 485.496094 C 540.089844 487.34375 542.703125 489.382812 544.753906 491.601562 C 546.824219 493.824219 549.605469 497.777344 553.097656 503.441406 L 561.988281 517.65625 L 544.398438 517.65625 L 533.847656 501.746094 C 530.066406 496.097656 527.472656 492.535156 526.0625 491.058594 C 524.671875 489.601562 523.195312 488.582031 521.636719 488.042969 C 520.058594 487.5 517.582031 487.226562 514.191406 487.226562 L 511.207031 487.226562 L 511.207031 517.65625 Z M 511.207031 475.625 L 522.09375 475.625 C 529.152344 475.625 533.542969 475.320312 535.308594 474.726562 C 537.054688 474.132812 538.445312 473.097656 539.429688 471.640625 C 540.429688 470.179688 540.921875 468.347656 540.921875 466.160156 C 540.921875 463.703125 540.261719 461.734375 538.953125 460.207031 C 537.648438 458.699219 535.800781 457.75 533.425781 457.359375 C 532.21875 457.1875 528.640625 457.105469 522.6875 457.105469 L 511.207031 457.105469 Z M 511.207031 475.625 "/>
<path fill-rule="evenodd" fill="rgb(100%, 100%, 100%)" fill-opacity="1" d="M 97.460938 358.007812 L 146.171875 358.007812 L 146.171875 484.84375 L 97.460938 484.84375 Z M 97.460938 358.007812 "/>
<path fill-rule="evenodd" fill="rgb(100%, 100%, 100%)" fill-opacity="1" d="M 58.855469 448.082031 L 58.855469 399.367188 L 186.613281 399.367188 L 186.613281 448.082031 Z M 58.855469 448.082031 "/>
<path fill-rule="evenodd" fill="rgb(89.019775%, 0%, 5.882263%)" fill-opacity="1" stroke-width="7.9999" stroke-linecap="butt" stroke-linejoin="miter" stroke="rgb(100%, 100%, 100%)" stroke-opacity="1" stroke-miterlimit="22.925586" d="M 60.9375 255.073394 L 273.539062 255.073394 L 273.539062 158.694488 L 60.9375 158.694488 Z M 60.9375 255.073394 " transform="matrix(1, 0, 0, -1, 0, 841.8898)"/>
<path fill-rule="nonzero" fill="rgb(100%, 100%, 100%)" fill-opacity="1" d="M 130.980469 627.683594 L 130.980469 600.492188 L 149.84375 600.492188 L 149.84375 605.089844 L 136.542969 605.089844 L 136.542969 611.542969 L 148.042969 611.542969 L 148.042969 616.136719 L 136.542969 616.136719 L 136.542969 627.683594 Z M 154.207031 627.683594 L 154.207031 600.492188 L 159.769531 600.492188 L 159.769531 627.683594 Z M 165.050781 627.683594 L 165.050781 600.492188 L 176.726562 600.492188 C 179.660156 600.492188 181.792969 600.738281 183.121094 601.226562 C 184.457031 601.714844 185.519531 602.582031 186.316406 603.828125 C 187.117188 605.082031 187.519531 606.503906 187.519531 608.113281 C 187.519531 610.15625 186.917969 611.839844 185.710938 613.171875 C 184.503906 614.5 182.699219 615.335938 180.296875 615.683594 C 181.492188 616.371094 182.476562 617.132812 183.25 617.960938 C 184.027344 618.789062 185.078125 620.265625 186.394531 622.378906 L 189.742188 627.683594 L 183.117188 627.683594 L 179.140625 621.746094 C 177.714844 619.636719 176.738281 618.308594 176.207031 617.757812 C 175.683594 617.214844 175.128906 616.835938 174.539062 616.632812 C 173.945312 616.429688 173.011719 616.328125 171.734375 616.328125 L 170.609375 616.328125 L 170.609375 627.683594 Z M 170.609375 612 L 174.714844 612 C 177.371094 612 179.027344 611.886719 179.691406 611.664062 C 180.347656 611.441406 180.871094 611.054688 181.242188 610.511719 C 181.621094 609.96875 181.804688 609.285156 181.804688 608.46875 C 181.804688 607.550781 181.554688 606.816406 181.0625 606.246094 C 180.574219 605.683594 179.875 605.328125 178.980469 605.183594 C 178.527344 605.121094 177.179688 605.089844 174.9375 605.089844 L 170.609375 605.089844 Z M 192.738281 627.683594 L 192.738281 600.492188 L 213.058594 600.492188 L 213.058594 605.089844 L 198.296875 605.089844 L 198.296875 611.125 L 212.023438 611.125 L 212.023438 615.722656 L 198.296875 615.722656 L 198.296875 623.085938 L 213.59375 623.085938 L 213.59375 627.683594 Z M 93.222656 670.105469 L 86.769531 642.917969 L 92.480469 642.917969 L 96.566406 661.59375 L 101.574219 642.917969 L 108.179688 642.917969 L 112.972656 661.910156 L 117.152344 642.917969 L 122.730469 642.917969 L 116.117188 670.105469 L 110.179688 670.105469 L 104.769531 649.777344 L 99.316406 670.105469 Z M 148.25 670.105469 L 142.261719 670.105469 L 139.894531 663.917969 L 128.882812 663.917969 L 126.601562 670.105469 L 120.722656 670.105469 L 131.382812 642.917969 L 137.253906 642.917969 Z M 138.089844 659.320312 L 134.277344 649.257812 L 130.570312 659.320312 Z M 151.207031 670.105469 L 151.207031 642.917969 L 162.882812 642.917969 C 165.816406 642.917969 167.949219 643.164062 169.277344 643.652344 C 170.613281 644.136719 171.675781 645.003906 172.472656 646.253906 C 173.273438 647.503906 173.675781 648.929688 173.675781 650.535156 C 173.675781 652.582031 173.074219 654.265625 171.867188 655.59375 C 170.660156 656.921875 168.855469 657.757812 166.453125 658.105469 C 167.648438 658.796875 168.632812 659.554688 169.40625 660.386719 C 170.1875 661.214844 171.234375 662.6875 172.550781 664.800781 L 175.898438 670.105469 L 169.273438 670.105469 L 165.296875 664.167969 C 163.875 662.0625 162.894531 660.734375 162.363281 660.183594 C 161.839844 659.636719 161.285156 659.257812 160.699219 659.054688 C 160.101562 658.851562 159.171875 658.753906 157.890625 658.753906 L 156.769531 658.753906 L 156.769531 670.105469 Z M 156.769531 654.421875 L 160.871094 654.421875 C 163.527344 654.421875 165.183594 654.308594 165.847656 654.085938 C 166.503906 653.867188 167.03125 653.480469 167.398438 652.9375 C 167.777344 652.390625 167.960938 651.707031 167.960938 650.890625 C 167.960938 649.972656 167.714844 649.238281 167.222656 648.667969 C 166.730469 648.105469 166.03125 647.753906 165.136719 647.605469 C 164.683594 647.542969 163.335938 647.511719 161.09375 647.511719 L 156.769531 647.511719 Z M 178.894531 642.917969 L 189.003906 642.917969 C 191.285156 642.917969 193.023438 643.085938 194.21875 643.4375 C 195.820312 643.902344 197.203125 644.738281 198.34375 645.941406 C 199.496094 647.136719 200.363281 648.605469 200.964844 650.347656 C 201.558594 652.082031 201.859375 654.226562 201.859375 656.769531 C 201.859375 659.011719 201.578125 660.9375 201.015625 662.554688 C 200.332031 664.535156 199.355469 666.136719 198.082031 667.359375 C 197.125 668.289062 195.828125 669.011719 194.199219 669.53125 C 192.976562 669.917969 191.347656 670.105469 189.304688 670.105469 L 178.894531 670.105469 Z M 184.453125 647.511719 L 184.453125 665.511719 L 188.574219 665.511719 C 190.117188 665.511719 191.226562 665.421875 191.910156 665.253906 C 192.8125 665.03125 193.554688 664.652344 194.140625 664.121094 C 194.734375 663.585938 195.214844 662.714844 195.585938 661.5 C 195.960938 660.285156 196.148438 658.621094 196.148438 656.519531 C 196.148438 654.417969 195.960938 652.808594 195.585938 651.683594 C 195.214844 650.554688 194.691406 649.683594 194.019531 649.050781 C 193.347656 648.421875 192.5 647.992188 191.464844 647.769531 C 190.695312 647.601562 189.183594 647.511719 186.933594 647.511719 Z M 206.582031 670.105469 L 206.582031 642.917969 L 226.902344 642.917969 L 226.902344 647.511719 L 212.140625 647.511719 L 212.140625 653.550781 L 225.867188 653.550781 L 225.867188 658.144531 L 212.140625 658.144531 L 212.140625 665.511719 L 227.4375 665.511719 L 227.4375 670.105469 Z M 232.152344 670.105469 L 232.152344 642.917969 L 237.53125 642.917969 L 248.828125 661.136719 L 248.828125 642.917969 L 253.96875 642.917969 L 253.96875 670.105469 L 248.414062 670.105469 L 237.289062 652.234375 L 237.289062 670.105469 Z M 232.152344 670.105469 "/>
<path fill-rule="evenodd" fill="rgb(0%, 58.824158%, 24.705505%)" fill-opacity="1" stroke-width="7.9999" stroke-linecap="butt" stroke-linejoin="miter" stroke="rgb(100%, 100%, 100%)" stroke-opacity="1" stroke-miterlimit="22.925586" d="M 62.910156 138.303863 L 275.507812 138.303863 L 275.507812 41.924956 L 62.910156 41.924956 Z M 62.910156 138.303863 " transform="matrix(1, 0, 0, -1, 0, 841.8898)"/>
<path fill-rule="nonzero" fill="rgb(100%, 100%, 100%)" fill-opacity="1" d="M 153.71875 745.019531 L 153.71875 717.957031 L 172.496094 717.957031 L 172.496094 722.53125 L 159.253906 722.53125 L 159.253906 728.957031 L 170.703125 728.957031 L 170.703125 733.53125 L 159.253906 733.53125 L 159.253906 745.019531 Z M 176.839844 745.019531 L 176.839844 717.957031 L 182.371094 717.957031 L 182.371094 745.019531 Z M 187.632812 745.019531 L 187.632812 717.957031 L 199.253906 717.957031 C 202.171875 717.957031 204.296875 718.203125 205.621094 718.6875 C 206.949219 719.171875 208.003906 720.035156 208.800781 721.277344 C 209.59375 722.523438 209.996094 723.941406 209.996094 725.542969 C 209.996094 727.578125 209.398438 729.25 208.195312 730.574219 C 206.992188 731.898438 205.199219 732.730469 202.808594 733.074219 C 203.996094 733.761719 204.976562 734.519531 205.746094 735.34375 C 206.523438 736.167969 207.566406 737.636719 208.875 739.742188 L 212.207031 745.019531 L 205.613281 745.019531 L 201.65625 739.113281 C 200.238281 737.011719 199.265625 735.691406 198.738281 735.140625 C 198.214844 734.601562 197.664062 734.222656 197.078125 734.019531 C 196.484375 733.820312 195.558594 733.71875 194.285156 733.71875 L 193.167969 733.71875 L 193.167969 745.019531 Z M 193.167969 729.410156 L 197.25 729.410156 C 199.894531 729.410156 201.542969 729.296875 202.203125 729.074219 C 202.859375 728.855469 203.378906 728.46875 203.75 727.929688 C 204.125 727.386719 204.308594 726.707031 204.308594 725.894531 C 204.308594 724.980469 204.0625 724.25 203.570312 723.683594 C 203.082031 723.121094 202.386719 722.769531 201.5 722.625 C 201.046875 722.5625 199.703125 722.53125 197.472656 722.53125 L 193.167969 722.53125 Z M 213.742188 736.25 L 219.121094 735.722656 C 219.445312 737.503906 220.097656 738.808594 221.082031 739.648438 C 222.066406 740.484375 223.398438 740.902344 225.070312 740.902344 C 226.839844 740.902344 228.171875 740.527344 229.070312 739.785156 C 229.96875 739.042969 230.417969 738.171875 230.417969 737.175781 C 230.417969 736.535156 230.226562 735.992188 229.851562 735.539062 C 229.476562 735.09375 228.816406 734.703125 227.875 734.375 C 227.230469 734.148438 225.769531 733.757812 223.480469 733.1875 C 220.535156 732.457031 218.46875 731.5625 217.277344 730.5 C 215.605469 729.007812 214.773438 727.1875 214.773438 725.039062 C 214.773438 723.65625 215.167969 722.359375 215.949219 721.15625 C 216.738281 719.953125 217.871094 719.039062 219.351562 718.410156 C 220.832031 717.78125 222.613281 717.464844 224.714844 717.464844 C 228.128906 717.464844 230.703125 718.214844 232.429688 719.71875 C 234.160156 721.226562 235.0625 723.230469 235.152344 725.742188 L 229.617188 725.933594 C 229.382812 724.53125 228.878906 723.53125 228.109375 722.921875 C 227.339844 722.308594 226.183594 722 224.644531 722 C 223.054688 722 221.808594 722.328125 220.910156 722.984375 C 220.332031 723.40625 220.039062 723.964844 220.039062 724.671875 C 220.039062 725.3125 220.3125 725.863281 220.859375 726.316406 C 221.550781 726.902344 223.238281 727.507812 225.914062 728.136719 C 228.59375 728.761719 230.570312 729.414062 231.851562 730.082031 C 233.132812 730.757812 234.140625 731.671875 234.863281 732.835938 C 235.589844 734.003906 235.953125 735.4375 235.953125 737.144531 C 235.953125 738.695312 235.519531 740.152344 234.648438 741.503906 C 233.777344 742.859375 232.550781 743.867188 230.960938 744.523438 C 229.371094 745.183594 227.386719 745.511719 225.011719 745.511719 C 221.558594 745.511719 218.90625 744.726562 217.054688 743.144531 C 215.203125 741.570312 214.105469 739.269531 213.742188 736.25 Z M 246.789062 745.019531 L 246.789062 722.53125 L 238.699219 722.53125 L 238.699219 717.957031 L 260.375 717.957031 L 260.375 722.53125 L 252.324219 722.53125 L 252.324219 745.019531 Z M 178.332031 787.25 L 172.375 787.25 L 170.015625 781.089844 L 159.054688 781.089844 L 156.785156 787.25 L 150.933594 787.25 L 161.542969 760.183594 L 167.386719 760.183594 Z M 168.21875 776.515625 L 164.421875 766.496094 L 160.734375 776.515625 Z M 181.089844 787.25 L 181.089844 760.183594 L 186.621094 760.183594 L 186.621094 787.25 Z M 191.882812 760.183594 L 201.941406 760.183594 C 204.214844 760.183594 205.945312 760.355469 207.132812 760.703125 C 208.730469 761.167969 210.105469 762 211.242188 763.195312 C 212.386719 764.386719 213.253906 765.847656 213.851562 767.582031 C 214.441406 769.308594 214.742188 771.445312 214.742188 773.976562 C 214.742188 776.207031 214.460938 778.121094 213.902344 779.734375 C 213.21875 781.707031 212.246094 783.300781 210.980469 784.515625 C 210.027344 785.441406 208.734375 786.160156 207.113281 786.675781 C 205.898438 787.0625 204.277344 787.25 202.242188 787.25 L 191.882812 787.25 Z M 197.414062 764.757812 L 197.414062 782.675781 L 201.515625 782.675781 C 203.050781 782.675781 204.15625 782.589844 204.835938 782.417969 C 205.734375 782.199219 206.472656 781.820312 207.058594 781.289062 C 207.648438 780.761719 208.125 779.890625 208.496094 778.683594 C 208.871094 777.472656 209.054688 775.816406 209.054688 773.722656 C 209.054688 771.632812 208.871094 770.03125 208.496094 768.910156 C 208.125 767.789062 207.605469 766.917969 206.9375 766.289062 C 206.269531 765.667969 205.421875 765.238281 204.390625 765.015625 C 203.628906 764.847656 202.121094 764.757812 199.882812 764.757812 Z M 219.441406 787.25 L 219.441406 760.183594 L 239.667969 760.183594 L 239.667969 764.757812 L 224.972656 764.757812 L 224.972656 770.769531 L 238.636719 770.769531 L 238.636719 775.34375 L 224.972656 775.34375 L 224.972656 782.675781 L 240.199219 782.675781 L 240.199219 787.25 Z M 244.894531 787.25 L 244.894531 760.183594 L 256.515625 760.183594 C 259.433594 760.183594 261.558594 760.429688 262.882812 760.914062 C 264.210938 761.402344 265.265625 762.265625 266.0625 763.503906 C 266.859375 764.753906 267.257812 766.171875 267.257812 767.769531 C 267.257812 769.804688 266.660156 771.480469 265.457031 772.804688 C 264.257812 774.128906 262.460938 774.960938 260.070312 775.304688 C 261.261719 775.992188 262.238281 776.75 263.007812 777.574219 C 263.785156 778.398438 264.828125 779.867188 266.136719 781.972656 L 269.472656 787.25 L 262.875 787.25 L 258.917969 781.339844 C 257.5 779.242188 256.527344 777.917969 256 777.371094 C 255.480469 776.828125 254.925781 776.453125 254.339844 776.25 C 253.75 776.046875 252.820312 775.949219 251.546875 775.949219 L 250.429688 775.949219 L 250.429688 787.25 Z M 250.429688 771.640625 L 254.511719 771.640625 C 257.15625 771.640625 258.804688 771.527344 259.464844 771.304688 C 260.121094 771.085938 260.644531 770.699219 261.011719 770.15625 C 261.386719 769.617188 261.570312 768.9375 261.570312 768.125 C 261.570312 767.210938 261.324219 766.480469 260.835938 765.910156 C 260.34375 765.351562 259.652344 765 258.761719 764.851562 C 258.308594 764.789062 256.96875 764.757812 254.734375 764.757812 L 250.429688 764.757812 Z M 250.429688 771.640625 "/>
<path fill-rule="evenodd" fill="rgb(100%, 100%, 100%)" fill-opacity="1" d="M 95.273438 727.949219 L 113.542969 727.949219 L 113.542969 775.0625 L 95.273438 775.0625 Z M 95.273438 727.949219 "/>
<path fill-rule="evenodd" fill="rgb(100%, 100%, 100%)" fill-opacity="1" d="M 80.796875 761.40625 L 80.796875 743.3125 L 128.707031 743.3125 L 128.707031 761.40625 Z M 80.796875 761.40625 "/>
<path fill-rule="evenodd" fill="rgb(89.019775%, 0%, 5.882263%)" fill-opacity="1" stroke-width="7.9999" stroke-linecap="butt" stroke-linejoin="miter" stroke="rgb(100%, 100%, 100%)" stroke-opacity="1" stroke-miterlimit="22.925586" d="M 340.152344 254.350738 L 552.75 254.350738 L 552.75 157.975738 L 340.152344 157.975738 Z M 340.152344 254.350738 " transform="matrix(1, 0, 0, -1, 0, 841.8898)"/>
<path fill-rule="nonzero" fill="rgb(100%, 100%, 100%)" fill-opacity="1" d="M 410.195312 628.402344 L 410.195312 601.214844 L 429.058594 601.214844 L 429.058594 605.808594 L 415.753906 605.808594 L 415.753906 612.265625 L 427.253906 612.265625 L 427.253906 616.859375 L 415.753906 616.859375 L 415.753906 628.402344 Z M 433.421875 628.402344 L 433.421875 601.214844 L 438.980469 601.214844 L 438.980469 628.402344 Z M 444.265625 628.402344 L 444.265625 601.214844 L 455.9375 601.214844 C 458.871094 601.214844 461.007812 601.460938 462.335938 601.949219 C 463.671875 602.433594 464.730469 603.300781 465.53125 604.550781 C 466.328125 605.800781 466.730469 607.226562 466.730469 608.832031 C 466.730469 610.878906 466.128906 612.5625 464.921875 613.890625 C 463.714844 615.21875 461.914062 616.054688 459.511719 616.402344 C 460.707031 617.09375 461.691406 617.851562 462.460938 618.679688 C 463.242188 619.511719 464.289062 620.984375 465.605469 623.097656 L 468.953125 628.402344 L 462.328125 628.402344 L 458.355469 622.464844 C 456.929688 620.359375 455.953125 619.03125 455.421875 618.480469 C 454.898438 617.933594 454.339844 617.554688 453.753906 617.351562 C 453.160156 617.148438 452.226562 617.046875 450.949219 617.046875 L 449.824219 617.046875 L 449.824219 628.402344 Z M 449.824219 612.71875 L 453.925781 612.71875 C 456.585938 612.71875 458.238281 612.605469 458.902344 612.382812 C 459.5625 612.164062 460.085938 611.777344 460.457031 611.230469 C 460.832031 610.6875 461.019531 610.003906 461.019531 609.1875 C 461.019531 608.269531 460.769531 607.535156 460.277344 606.964844 C 459.785156 606.402344 459.089844 606.046875 458.195312 605.902344 C 457.742188 605.839844 456.394531 605.808594 454.148438 605.808594 L 449.824219 605.808594 Z M 471.953125 628.402344 L 471.953125 601.214844 L 492.269531 601.214844 L 492.269531 605.808594 L 477.511719 605.808594 L 477.511719 611.847656 L 491.234375 611.847656 L 491.234375 616.441406 L 477.511719 616.441406 L 477.511719 623.808594 L 492.808594 623.808594 L 492.808594 628.402344 Z M 372.4375 670.828125 L 365.980469 643.636719 L 371.695312 643.636719 L 375.777344 662.3125 L 380.785156 643.636719 L 387.394531 643.636719 L 392.1875 662.628906 L 396.363281 643.636719 L 401.941406 643.636719 L 395.328125 670.828125 L 389.394531 670.828125 L 383.980469 650.496094 L 378.53125 670.828125 Z M 427.464844 670.828125 L 421.476562 670.828125 L 419.105469 664.636719 L 408.097656 664.636719 L 405.816406 670.828125 L 399.9375 670.828125 L 410.59375 643.636719 L 416.46875 643.636719 Z M 417.304688 660.042969 L 413.488281 649.980469 L 409.785156 660.042969 Z M 430.421875 670.828125 L 430.421875 643.636719 L 442.097656 643.636719 C 445.027344 643.636719 447.164062 643.882812 448.492188 644.371094 C 449.828125 644.859375 450.886719 645.726562 451.6875 646.972656 C 452.484375 648.226562 452.886719 649.648438 452.886719 651.257812 C 452.886719 653.300781 452.289062 654.984375 451.078125 656.3125 C 449.871094 657.644531 448.070312 658.480469 445.667969 658.828125 C 446.863281 659.515625 447.847656 660.277344 448.621094 661.105469 C 449.398438 661.933594 450.445312 663.410156 451.761719 665.523438 L 455.113281 670.828125 L 448.484375 670.828125 L 444.511719 664.890625 C 443.085938 662.78125 442.109375 661.453125 441.578125 660.902344 C 441.054688 660.359375 440.5 659.980469 439.910156 659.777344 C 439.316406 659.574219 438.382812 659.472656 437.105469 659.472656 L 435.980469 659.472656 L 435.980469 670.828125 Z M 435.980469 655.144531 L 440.082031 655.144531 C 442.742188 655.144531 444.394531 655.03125 445.0625 654.808594 C 445.71875 654.585938 446.242188 654.199219 446.613281 653.65625 C 446.988281 653.113281 447.175781 652.429688 447.175781 651.613281 C 447.175781 650.695312 446.925781 649.960938 446.433594 649.390625 C 445.941406 648.828125 445.246094 648.472656 444.351562 648.328125 C 443.898438 648.265625 442.550781 648.230469 440.304688 648.230469 L 435.980469 648.230469 Z M 458.109375 643.636719 L 468.21875 643.636719 C 470.496094 643.636719 472.234375 643.808594 473.429688 644.15625 C 475.035156 644.625 476.414062 645.460938 477.558594 646.664062 C 478.707031 647.859375 479.578125 649.328125 480.179688 651.066406 C 480.773438 652.800781 481.074219 654.945312 481.074219 657.492188 C 481.074219 659.730469 480.792969 661.65625 480.230469 663.277344 C 479.546875 665.257812 478.566406 666.859375 477.296875 668.078125 C 476.339844 669.011719 475.039062 669.730469 473.410156 670.25 C 472.191406 670.636719 470.5625 670.828125 468.515625 670.828125 L 458.109375 670.828125 Z M 463.667969 648.230469 L 463.667969 666.230469 L 467.789062 666.230469 C 469.328125 666.230469 470.441406 666.144531 471.125 665.972656 C 472.023438 665.75 472.765625 665.371094 473.355469 664.839844 C 473.949219 664.308594 474.425781 663.433594 474.796875 662.21875 C 475.175781 661.003906 475.359375 659.339844 475.359375 657.238281 C 475.359375 655.136719 475.175781 653.53125 474.796875 652.402344 C 474.425781 651.277344 473.902344 650.402344 473.234375 649.769531 C 472.5625 649.144531 471.710938 648.714844 470.675781 648.492188 C 469.910156 648.320312 468.394531 648.230469 466.144531 648.230469 Z M 485.792969 670.828125 L 485.792969 643.636719 L 506.113281 643.636719 L 506.113281 648.230469 L 491.351562 648.230469 L 491.351562 654.269531 L 505.078125 654.269531 L 505.078125 658.863281 L 491.351562 658.863281 L 491.351562 666.230469 L 506.652344 666.230469 L 506.652344 670.828125 Z M 511.367188 670.828125 L 511.367188 643.636719 L 516.746094 643.636719 L 528.042969 661.859375 L 528.042969 643.636719 L 533.179688 643.636719 L 533.179688 670.828125 L 527.628906 670.828125 L 516.503906 652.953125 L 516.503906 670.828125 Z M 511.367188 670.828125 "/>
<path fill-rule="evenodd" fill="rgb(0%, 58.824158%, 24.705505%)" fill-opacity="1" stroke-width="7.9999" stroke-linecap="butt" stroke-linejoin="miter" stroke="rgb(100%, 100%, 100%)" stroke-opacity="1" stroke-miterlimit="22.925586" d="M 342.195312 139.159331 L 554.792969 139.159331 L 554.792969 42.780425 L 342.195312 42.780425 Z M 342.195312 139.159331 " transform="matrix(1, 0, 0, -1, 0, 841.8898)"/>
<path fill-rule="nonzero" fill="rgb(100%, 100%, 100%)" fill-opacity="1" d="M 433.007812 744.164062 L 433.007812 717.097656 L 451.78125 717.097656 L 451.78125 721.671875 L 438.539062 721.671875 L 438.539062 728.097656 L 449.988281 728.097656 L 449.988281 732.671875 L 438.539062 732.671875 L 438.539062 744.164062 Z M 456.125 744.164062 L 456.125 717.097656 L 461.660156 717.097656 L 461.660156 744.164062 Z M 466.921875 744.164062 L 466.921875 717.097656 L 478.539062 717.097656 C 481.460938 717.097656 483.585938 717.34375 484.90625 717.832031 C 486.238281 718.316406 487.292969 719.179688 488.085938 720.417969 C 488.882812 721.667969 489.28125 723.085938 489.28125 724.683594 C 489.28125 726.71875 488.683594 728.394531 487.484375 729.71875 C 486.28125 731.042969 484.488281 731.871094 482.097656 732.21875 C 483.285156 732.90625 484.265625 733.664062 485.035156 734.488281 C 485.808594 735.3125 486.851562 736.78125 488.164062 738.886719 L 491.496094 744.164062 L 484.902344 744.164062 L 480.945312 738.253906 C 479.527344 736.15625 478.554688 734.835938 478.023438 734.285156 C 477.503906 733.742188 476.949219 733.367188 476.363281 733.164062 C 475.773438 732.964844 474.84375 732.863281 473.574219 732.863281 L 472.453125 732.863281 L 472.453125 744.164062 Z M 472.453125 728.550781 L 476.535156 728.550781 C 479.183594 728.550781 480.832031 728.4375 481.492188 728.21875 C 482.148438 728 482.667969 727.613281 483.039062 727.070312 C 483.414062 726.53125 483.597656 725.851562 483.597656 725.039062 C 483.597656 724.125 483.347656 723.394531 482.859375 722.824219 C 482.371094 722.265625 481.675781 721.914062 480.785156 721.769531 C 480.335938 721.703125 478.992188 721.671875 476.757812 721.671875 L 472.453125 721.671875 Z M 493.03125 735.394531 L 498.410156 734.867188 C 498.734375 736.648438 499.382812 737.953125 500.367188 738.789062 C 501.355469 739.628906 502.683594 740.042969 504.355469 740.042969 C 506.125 740.042969 507.460938 739.671875 508.359375 738.929688 C 509.253906 738.183594 509.707031 737.316406 509.707031 736.320312 C 509.707031 735.679688 509.515625 735.136719 509.140625 734.683594 C 508.765625 734.234375 508.101562 733.84375 507.160156 733.515625 C 506.519531 733.289062 505.058594 732.898438 502.765625 732.332031 C 499.824219 731.601562 497.753906 730.707031 496.566406 729.644531 C 494.894531 728.148438 494.058594 726.328125 494.058594 724.179688 C 494.058594 722.800781 494.453125 721.503906 495.238281 720.300781 C 496.023438 719.097656 497.15625 718.183594 498.640625 717.554688 C 500.121094 716.921875 501.902344 716.609375 504 716.609375 C 507.417969 716.609375 509.992188 717.359375 511.714844 718.863281 C 513.445312 720.367188 514.347656 722.371094 514.4375 724.886719 L 508.90625 725.074219 C 508.667969 723.675781 508.167969 722.675781 507.398438 722.0625 C 506.628906 721.453125 505.46875 721.144531 503.929688 721.144531 C 502.339844 721.144531 501.09375 721.472656 500.199219 722.125 C 499.617188 722.546875 499.328125 723.109375 499.328125 723.816406 C 499.328125 724.457031 499.597656 725.003906 500.148438 725.460938 C 500.839844 726.046875 502.527344 726.648438 505.203125 727.28125 C 507.882812 727.902344 509.859375 728.558594 511.136719 729.226562 C 512.421875 729.902344 513.425781 730.816406 514.152344 731.980469 C 514.878906 733.144531 515.238281 734.582031 515.238281 736.289062 C 515.238281 737.839844 514.808594 739.292969 513.9375 740.648438 C 513.066406 742.003906 511.835938 743.011719 510.246094 743.667969 C 508.65625 744.328125 506.671875 744.65625 504.300781 744.65625 C 500.847656 744.65625 498.195312 743.867188 496.34375 742.285156 C 494.492188 740.710938 493.390625 738.414062 493.03125 735.394531 Z M 526.078125 744.164062 L 526.078125 721.671875 L 517.988281 721.671875 L 517.988281 717.097656 L 539.664062 717.097656 L 539.664062 721.671875 L 531.613281 721.671875 L 531.613281 744.164062 Z M 457.621094 786.394531 L 451.660156 786.394531 L 449.300781 780.230469 L 438.34375 780.230469 L 436.074219 786.394531 L 430.21875 786.394531 L 440.828125 759.328125 L 446.675781 759.328125 Z M 447.507812 775.660156 L 443.710938 765.640625 L 440.023438 775.660156 Z M 460.375 786.394531 L 460.375 759.328125 L 465.910156 759.328125 L 465.910156 786.394531 Z M 471.167969 759.328125 L 481.230469 759.328125 C 483.5 759.328125 485.230469 759.5 486.421875 759.84375 C 488.015625 760.3125 489.390625 761.144531 490.53125 762.339844 C 491.675781 763.53125 492.539062 764.992188 493.136719 766.726562 C 493.730469 768.449219 494.027344 770.585938 494.027344 773.121094 C 494.027344 775.347656 493.75 777.265625 493.1875 778.878906 C 492.507812 780.847656 491.535156 782.445312 490.269531 783.660156 C 489.316406 784.585938 488.023438 785.304688 486.402344 785.820312 C 485.1875 786.203125 483.566406 786.394531 481.53125 786.394531 L 471.167969 786.394531 Z M 476.703125 763.902344 L 476.703125 781.820312 L 480.804688 781.820312 C 482.335938 781.820312 483.445312 781.730469 484.125 781.5625 C 485.023438 781.339844 485.757812 780.964844 486.34375 780.433594 C 486.9375 779.90625 487.414062 779.035156 487.78125 777.824219 C 488.15625 776.617188 488.339844 774.960938 488.339844 772.867188 C 488.339844 770.777344 488.15625 769.175781 487.78125 768.054688 C 487.414062 766.933594 486.890625 766.0625 486.222656 765.433594 C 485.554688 764.808594 484.710938 764.382812 483.679688 764.160156 C 482.917969 763.992188 481.410156 763.902344 479.171875 763.902344 Z M 498.726562 786.394531 L 498.726562 759.328125 L 518.953125 759.328125 L 518.953125 763.902344 L 504.261719 763.902344 L 504.261719 769.914062 L 517.925781 769.914062 L 517.925781 774.488281 L 504.261719 774.488281 L 504.261719 781.820312 L 519.488281 781.820312 L 519.488281 786.394531 Z M 524.183594 786.394531 L 524.183594 759.328125 L 535.804688 759.328125 C 538.722656 759.328125 540.847656 759.574219 542.167969 760.058594 C 543.5 760.542969 544.554688 761.40625 545.351562 762.648438 C 546.144531 763.894531 546.546875 765.3125 546.546875 766.914062 C 546.546875 768.949219 545.949219 770.625 544.746094 771.949219 C 543.542969 773.269531 541.75 774.101562 539.359375 774.449219 C 540.546875 775.136719 541.527344 775.890625 542.296875 776.71875 C 543.074219 777.542969 544.117188 779.011719 545.425781 781.113281 L 548.757812 786.394531 L 542.164062 786.394531 L 538.207031 780.484375 C 536.789062 778.386719 535.816406 777.0625 535.289062 776.515625 C 534.765625 775.972656 534.210938 775.59375 533.628906 775.394531 C 533.035156 775.191406 532.109375 775.089844 530.835938 775.089844 L 529.714844 775.089844 L 529.714844 786.394531 Z M 529.714844 770.78125 L 533.800781 770.78125 C 536.445312 770.78125 538.09375 770.667969 538.753906 770.449219 C 539.410156 770.226562 539.929688 769.84375 540.300781 769.300781 C 540.675781 768.761719 540.859375 768.078125 540.859375 767.265625 C 540.859375 766.351562 540.613281 765.621094 540.121094 765.054688 C 539.632812 764.496094 538.9375 764.140625 538.046875 763.996094 C 537.597656 763.933594 536.253906 763.902344 534.023438 763.902344 L 529.714844 763.902344 Z M 529.714844 770.78125 "/>
<path fill-rule="evenodd" fill="rgb(100%, 100%, 100%)" fill-opacity="1" d="M 374.5625 727.09375 L 392.828125 727.09375 L 392.828125 774.207031 L 374.5625 774.207031 Z M 374.5625 727.09375 "/>
<path fill-rule="evenodd" fill="rgb(100%, 100%, 100%)" fill-opacity="1" d="M 360.085938 760.550781 L 360.085938 742.457031 L 407.996094 742.457031 L 407.996094 760.550781 Z M 360.085938 760.550781 "/>
</svg>
