<?xml version="1.0" encoding="UTF-8"?>
<svg data-original-cmyk-pdf="/home/runner/workspace/uploads/original_19010da25ec306008e6f7ebf5c97275e.pdf" data-cmyk-preserved="true" xmlns="http://www.w3.org/2000/svg" xmlns:xlink="http://www.w3.org/1999/xlink" width="841.89" height="1190.55" viewBox="0 0 841.89 1190.55">
<path fill-rule="evenodd" fill="rgb(13.000488%, 11.326599%, 11.31134%)" fill-opacity="1" d="M 415.246094 491.824219 L 285.605469 491.824219 L 300.671875 479.769531 L 300.671875 452.34375 L 285.605469 440.292969 L 386.429688 440.292969 L 371.363281 452.421875 L 371.363281 481.625 L 396.78125 481.625 L 415.246094 464.242188 Z M 415.246094 491.824219 L 430.3125 479.925781 L 430.3125 452.421875 L 415.246094 440.292969 L 466.699219 440.292969 L 451.632812 452.421875 L 451.632812 481.625 L 477.050781 481.625 L 495.519531 464.242188 L 495.519531 491.824219 Z M 335.703125 440.878906 L 321.296875 452.34375 L 321.296875 479.769531 L 335.710938 491.242188 L 350.039062 479.925781 L 350.039062 452.421875 Z M 466.660156 535.605469 L 574.804688 535.605469 L 574.804688 532.457031 L 466.660156 532.457031 Z M 7.875 535.605469 L 115.644531 535.605469 L 115.644531 532.457031 L 7.875 532.457031 Z M 283.675781 491.824219 L 174.152344 491.824219 C 171.78125 484.714844 169.519531 479.230469 167.355469 475.367188 C 166.117188 473.152344 163.234375 472.046875 158.699219 472.046875 L 148.65625 472.046875 L 148.65625 479.847656 L 163.800781 491.824219 L 112.34375 491.824219 L 127.410156 479.847656 L 127.410156 452.34375 L 112.34375 440.292969 L 169.75 440.292969 L 179.40625 441.0625 C 184.195312 441.425781 188.125 442.96875 191.1875 445.699219 C 194.25 448.429688 195.785156 451.546875 195.785156 455.046875 C 195.785156 461.589844 189.808594 465.734375 177.859375 467.488281 C 181.929688 468.722656 185.019531 470.5 187.132812 472.816406 C 189.242188 475.136719 191.304688 478.972656 193.3125 484.328125 L 202.433594 491.1875 L 216.695312 479.925781 L 216.695312 452.265625 L 201.628906 440.292969 L 282.519531 440.292969 L 282.519531 462.621094 L 267.066406 448.789062 L 238.015625 448.789062 L 238.015625 460.070312 L 253.933594 460.070312 L 265.289062 454.042969 L 265.289062 477.296875 L 253.933594 470.269531 L 238.015625 470.269531 L 238.015625 481.625 L 267.066406 481.625 L 283.675781 466.867188 Z M 173.226562 456.207031 C 173.226562 453.839844 172.632812 452.164062 171.449219 451.183594 C 170.367188 450.359375 168.488281 449.949219 165.808594 449.949219 L 148.65625 449.949219 L 148.65625 461.847656 L 166.425781 461.769531 C 170.90625 461.769531 173.171875 459.914062 173.226562 456.207031 M 84.9375 468.785156 C 84.9375 475.90625 81.160156 482.054688 73.609375 487.234375 C 66.058594 492.414062 57.027344 495 46.519531 495 C 36.265625 495 27.257812 492.386719 19.503906 487.160156 C 11.75 481.929688 7.875 475.855469 7.875 468.933594 C 7.875 461.105469 11.726562 454.375 19.429688 448.742188 C 27.132812 443.109375 36.339844 440.292969 47.050781 440.292969 C 57.253906 440.292969 66.121094 443.121094 73.648438 448.777344 C 81.171875 454.4375 84.9375 461.105469 84.9375 468.785156 M 60.6875 467.34375 C 60.6875 462.039062 59.363281 457.667969 56.710938 454.234375 C 54.058594 450.800781 50.636719 449.054688 46.445312 449.007812 C 42.300781 448.957031 38.890625 450.648438 36.214844 454.082031 C 33.535156 457.519531 32.199219 461.9375 32.199219 467.34375 C 32.199219 472.699219 33.5 477.003906 36.101562 480.261719 C 38.703125 483.519531 42.148438 485.148438 46.445312 485.148438 C 50.738281 485.148438 54.183594 483.546875 56.785156 480.339844 C 59.386719 477.132812 60.6875 472.800781 60.6875 467.34375 M 574.800781 440.292969 L 561.128906 450.644531 L 542.355469 473.203125 L 542.355469 479.769531 L 557.417969 491.824219 L 506.351562 491.824219 L 521.417969 479.769531 L 521.417969 473.203125 L 501.949219 449.792969 L 488.195312 440.292969 L 536.40625 440.292969 L 526.363281 449.792969 L 537.332031 462.234375 L 547.839844 448.867188 L 537.871094 440.292969 Z M 109 450.316406 C 109.046875 454.367188 107.386719 457.988281 104.015625 461.183594 C 100.644531 464.378906 96.65625 466.195312 92.050781 466.632812 L 92.050781 464.953125 C 97.460938 462.023438 100.761719 458.414062 101.949219 454.121094 C 100.523438 454.902344 99.289062 455.292969 98.246094 455.292969 C 96.394531 455.292969 94.828125 454.585938 93.542969 453.171875 C 92.261719 451.753906 91.621094 450.074219 91.621094 448.121094 C 91.621094 445.878906 92.453125 444.011719 94.113281 442.523438 C 95.777344 441.035156 97.867188 440.292969 100.382812 440.292969 C 102.851562 440.292969 104.894531 441.242188 106.507812 443.144531 C 108.121094 445.046875 108.953125 447.4375 109 450.316406 M 156.890625 550.304688 C 153.929688 550.304688 151.207031 549.609375 148.71875 548.222656 C 146.234375 546.835938 144.265625 544.894531 142.816406 542.410156 C 141.367188 539.921875 140.640625 537.121094 140.640625 534.007812 C 140.640625 530.894531 141.367188 528.105469 142.816406 525.632812 C 144.265625 523.160156 146.234375 521.230469 148.71875 519.839844 C 151.207031 518.453125 153.929688 517.757812 156.890625 517.757812 C 159.882812 517.757812 162.621094 518.453125 165.109375 519.839844 C 167.59375 521.230469 169.558594 523.160156 170.992188 525.632812 C 172.425781 528.105469 173.144531 530.894531 173.144531 534.007812 C 173.144531 537.121094 172.425781 539.921875 170.992188 542.410156 C 169.558594 544.894531 167.59375 546.835938 165.109375 548.222656 C 162.621094 549.609375 159.882812 550.304688 156.890625 550.304688 M 156.890625 545.773438 C 158.996094 545.773438 160.875 545.292969 162.523438 544.332031 C 164.167969 543.371094 165.457031 541.996094 166.390625 540.210938 C 167.320312 538.425781 167.785156 536.359375 167.785156 534.007812 C 167.785156 531.660156 167.320312 529.597656 166.390625 527.828125 C 165.457031 526.058594 164.167969 524.703125 162.523438 523.753906 C 160.875 522.808594 158.996094 522.335938 156.890625 522.335938 C 154.785156 522.335938 152.910156 522.808594 151.261719 523.753906 C 149.613281 524.703125 148.324219 526.058594 147.394531 527.828125 C 146.460938 529.597656 145.996094 531.660156 145.996094 534.007812 C 145.996094 536.359375 146.460938 538.425781 147.394531 540.210938 C 148.324219 541.996094 149.613281 543.371094 151.261719 544.332031 C 152.910156 545.292969 154.785156 545.773438 156.890625 545.773438 M 203.402344 543.460938 L 190.078125 543.460938 L 187.789062 549.960938 L 182.34375 549.960938 L 193.742188 518.101562 L 199.785156 518.101562 L 211.183594 549.960938 L 205.691406 549.960938 Z M 201.9375 539.203125 L 196.761719 524.417969 L 191.542969 539.203125 Z M 239.609375 549.9375 L 227.296875 535.703125 L 227.296875 549.9375 L 222.078125 549.9375 L 222.078125 518.125 L 227.296875 518.125 L 227.296875 532.636719 L 239.65625 518.125 L 246.203125 518.125 L 232.375 534.054688 L 246.429688 549.9375 Z M 267.488281 550.304688 C 265.351562 550.304688 263.429688 549.933594 261.71875 549.183594 C 260.011719 548.4375 258.667969 547.375 257.691406 546.003906 C 256.714844 544.628906 256.226562 543.027344 256.226562 541.195312 L 261.8125 541.195312 C 261.933594 542.570312 262.476562 543.699219 263.4375 544.582031 C 264.398438 545.46875 265.75 545.910156 267.488281 545.910156 C 269.289062 545.910156 270.691406 545.476562 271.699219 544.605469 C 272.707031 543.734375 273.210938 542.617188 273.210938 541.242188 C 273.210938 540.171875 272.898438 539.304688 272.273438 538.632812 C 271.648438 537.960938 270.867188 537.441406 269.9375 537.078125 C 269.007812 536.710938 267.71875 536.3125 266.070312 535.886719 C 263.992188 535.335938 262.308594 534.78125 261.011719 534.214844 C 259.714844 533.648438 258.609375 532.773438 257.691406 531.582031 C 256.777344 530.390625 256.320312 528.804688 256.320312 526.824219 C 256.320312 524.992188 256.777344 523.390625 257.691406 522.015625 C 258.609375 520.640625 259.890625 519.589844 261.539062 518.855469 C 263.183594 518.125 265.09375 517.757812 267.257812 517.757812 C 270.34375 517.757812 272.867188 518.53125 274.835938 520.070312 C 276.804688 521.609375 277.894531 523.722656 278.109375 526.410156 L 272.339844 526.410156 C 272.25 525.25 271.699219 524.257812 270.691406 523.433594 C 269.6875 522.609375 268.359375 522.199219 266.710938 522.199219 C 265.214844 522.199219 263.992188 522.582031 263.046875 523.34375 C 262.101562 524.105469 261.628906 525.203125 261.628906 526.640625 C 261.628906 527.617188 261.925781 528.417969 262.523438 529.042969 C 263.117188 529.667969 263.871094 530.164062 264.789062 530.53125 C 265.703125 530.894531 266.953125 531.292969 268.542969 531.71875 C 270.648438 532.300781 272.363281 532.878906 273.691406 533.460938 C 275.019531 534.039062 276.148438 534.933594 277.078125 536.136719 C 278.007812 537.34375 278.476562 538.953125 278.476562 540.96875 C 278.476562 542.585938 278.039062 544.109375 277.171875 545.546875 C 276.300781 546.980469 275.035156 548.132812 273.371094 549 C 271.707031 549.871094 269.746094 550.304688 267.488281 550.304688 M 311.160156 518.125 L 311.160156 522.382812 L 302.691406 522.382812 L 302.691406 549.9375 L 297.472656 549.9375 L 297.472656 522.382812 L 288.957031 522.382812 L 288.957031 518.125 Z M 336.886719 550.304688 C 333.925781 550.304688 331.203125 549.609375 328.714844 548.222656 C 326.230469 546.835938 324.257812 544.894531 322.8125 542.410156 C 321.359375 539.921875 320.636719 537.121094 320.636719 534.007812 C 320.636719 530.894531 321.359375 528.105469 322.8125 525.632812 C 324.257812 523.160156 326.230469 521.230469 328.714844 519.839844 C 331.203125 518.453125 333.925781 517.757812 336.886719 517.757812 C 339.878906 517.757812 342.617188 518.453125 345.105469 519.839844 C 347.589844 521.230469 349.550781 523.160156 350.988281 525.632812 C 352.417969 528.105469 353.136719 530.894531 353.136719 534.007812 C 353.136719 537.121094 352.417969 539.921875 350.988281 542.410156 C 349.550781 544.894531 347.589844 546.835938 345.105469 548.222656 C 342.617188 549.609375 339.878906 550.304688 336.886719 550.304688 M 336.886719 545.773438 C 338.992188 545.773438 340.871094 545.292969 342.515625 544.332031 C 344.164062 543.371094 345.453125 541.996094 346.386719 540.210938 C 347.316406 538.425781 347.78125 536.359375 347.78125 534.007812 C 347.78125 531.660156 347.316406 529.597656 346.386719 527.828125 C 345.453125 526.058594 344.164062 524.703125 342.515625 523.753906 C 340.871094 522.808594 338.992188 522.335938 336.886719 522.335938 C 334.78125 522.335938 332.902344 522.808594 331.253906 523.753906 C 329.609375 524.703125 328.320312 526.058594 327.386719 527.828125 C 326.457031 529.597656 325.992188 531.660156 325.992188 534.007812 C 325.992188 536.359375 326.457031 538.425781 327.386719 540.210938 C 328.320312 541.996094 329.609375 543.371094 331.253906 544.332031 C 332.902344 545.292969 334.78125 545.773438 336.886719 545.773438 M 405.644531 518.101562 L 396.214844 549.917969 L 390.308594 549.917969 L 383.625 525.839844 L 376.527344 549.917969 L 370.667969 549.960938 L 361.652344 518.101562 L 367.191406 518.101562 L 373.78125 544.011719 L 380.921875 518.101562 L 386.78125 518.101562 L 393.421875 543.875 L 400.058594 518.101562 Z M 442.035156 549.960938 L 436.816406 549.960938 L 421.117188 526.203125 L 421.117188 549.960938 L 415.898438 549.960938 L 415.898438 518.101562 L 421.117188 518.101562 L 436.816406 541.8125 L 436.816406 518.101562 L 442.035156 518.101562 Z M 442.035156 549.960938 "/>
<path fill-rule="evenodd" fill="rgb(81.602478%, 10.139465%, 22.209167%)" fill-opacity="1" d="M 120.128906 208.246094 L 120.128906 321.574219 L 7.875 394.417969 L 7.875 208.246094 Z M 401.386719 17.417969 L 138.78125 194.21875 L 12.5 194.21875 L 275.105469 17.417969 Z M 439.355469 102.601562 L 256.273438 222.703125 L 129.996094 222.703125 L 439.355469 17.417969 Z M 433.363281 208.246094 L 138.78125 408.050781 L 12.5 408.050781 L 321.859375 208.246094 Z M 570.492188 225.515625 L 301.375 408.050781 L 168.6875 408.050781 L 447.054688 225.515625 Z M 452.355469 211.492188 L 574.804688 211.492188 L 574.804688 17.417969 L 452.355469 17.417969 Z M 452.355469 211.492188 "/>
<path fill-rule="evenodd" fill="rgb(13.000488%, 11.326599%, 11.31134%)" fill-opacity="1" d="M 415.246094 1107.175781 L 430.3125 1095.277344 L 430.3125 1067.773438 L 415.246094 1055.640625 L 466.699219 1055.640625 L 451.636719 1067.773438 L 451.636719 1096.976562 L 477.054688 1096.976562 L 495.519531 1079.59375 L 495.519531 1107.175781 Z M 415.246094 1107.175781 L 285.605469 1107.175781 L 300.671875 1095.121094 L 300.671875 1067.695312 L 285.605469 1055.640625 L 386.429688 1055.640625 L 371.363281 1067.773438 L 371.363281 1096.976562 L 396.78125 1096.976562 L 415.246094 1079.59375 Z M 335.703125 1056.230469 L 321.300781 1067.695312 L 321.300781 1095.121094 L 335.710938 1106.59375 L 350.039062 1095.277344 L 350.039062 1067.773438 Z M 497.921875 1150.957031 L 574.804688 1150.957031 L 574.804688 1147.808594 L 497.921875 1147.808594 Z M 7.875 1150.957031 L 84.757812 1150.957031 L 84.757812 1147.808594 L 7.875 1147.808594 Z M 283.675781 1107.175781 L 174.152344 1107.175781 C 171.78125 1100.066406 169.515625 1094.582031 167.355469 1090.71875 C 166.117188 1088.503906 163.234375 1087.398438 158.699219 1087.398438 L 148.65625 1087.398438 L 148.65625 1095.199219 L 163.800781 1107.175781 L 112.347656 1107.175781 L 127.410156 1095.199219 L 127.410156 1067.695312 L 112.347656 1055.640625 L 169.75 1055.640625 L 179.40625 1056.414062 C 184.195312 1056.777344 188.121094 1058.320312 191.1875 1061.050781 C 194.25 1063.78125 195.785156 1066.898438 195.785156 1070.398438 C 195.785156 1076.941406 189.808594 1081.085938 177.859375 1082.839844 C 181.929688 1084.074219 185.019531 1085.851562 187.132812 1088.167969 C 189.242188 1090.488281 191.304688 1094.324219 193.3125 1099.679688 L 202.433594 1106.539062 L 216.691406 1095.277344 L 216.691406 1067.617188 L 201.628906 1055.640625 L 282.519531 1055.640625 L 282.519531 1077.96875 L 267.066406 1064.140625 L 238.015625 1064.140625 L 238.015625 1075.421875 L 253.933594 1075.421875 L 265.289062 1069.394531 L 265.289062 1092.648438 L 253.933594 1085.621094 L 238.015625 1085.621094 L 238.015625 1096.976562 L 267.066406 1096.976562 L 283.675781 1082.21875 Z M 173.226562 1071.558594 C 173.226562 1069.1875 172.632812 1067.515625 171.449219 1066.535156 C 170.367188 1065.710938 168.484375 1065.300781 165.808594 1065.300781 L 148.65625 1065.300781 L 148.65625 1077.199219 L 166.425781 1077.121094 C 170.90625 1077.121094 173.175781 1075.265625 173.226562 1071.558594 M 84.9375 1084.132812 C 84.9375 1091.257812 81.160156 1097.40625 73.609375 1102.585938 C 66.054688 1107.761719 57.027344 1110.351562 46.519531 1110.351562 C 36.265625 1110.351562 27.261719 1107.738281 19.503906 1102.507812 C 11.75 1097.28125 7.875 1091.207031 7.875 1084.285156 C 7.875 1076.457031 11.726562 1069.722656 19.429688 1064.089844 C 27.132812 1058.460938 36.339844 1055.640625 47.050781 1055.640625 C 57.253906 1055.640625 66.121094 1058.472656 73.648438 1064.128906 C 81.171875 1069.789062 84.9375 1076.457031 84.9375 1084.132812 M 60.6875 1082.695312 C 60.6875 1077.390625 59.363281 1073.019531 56.710938 1069.585938 C 54.058594 1066.152344 50.636719 1064.40625 46.441406 1064.359375 C 42.300781 1064.304688 38.890625 1066 36.214844 1069.433594 C 33.535156 1072.871094 32.199219 1077.289062 32.199219 1082.695312 C 32.199219 1088.050781 33.5 1092.355469 36.101562 1095.613281 C 38.703125 1098.871094 42.148438 1100.5 46.441406 1100.5 C 50.738281 1100.5 54.183594 1098.898438 56.785156 1095.691406 C 59.386719 1092.484375 60.6875 1088.152344 60.6875 1082.695312 M 574.804688 1055.640625 L 561.128906 1065.996094 L 542.355469 1088.554688 L 542.355469 1095.121094 L 557.417969 1107.175781 L 506.351562 1107.175781 L 521.417969 1095.121094 L 521.417969 1088.554688 L 501.949219 1065.144531 L 488.195312 1055.640625 L 536.40625 1055.640625 L 526.363281 1065.144531 L 537.332031 1077.585938 L 547.839844 1064.21875 L 537.871094 1055.640625 Z M 109 1065.667969 C 109.046875 1069.714844 107.386719 1073.339844 104.015625 1076.535156 C 100.644531 1079.730469 96.65625 1081.546875 92.050781 1081.984375 L 92.050781 1080.300781 C 97.460938 1077.375 100.761719 1073.765625 101.949219 1069.472656 C 100.523438 1070.253906 99.289062 1070.644531 98.246094 1070.644531 C 96.394531 1070.644531 94.828125 1069.9375 93.542969 1068.523438 C 92.261719 1067.105469 91.621094 1065.421875 91.621094 1063.472656 C 91.621094 1061.226562 92.453125 1059.363281 94.113281 1057.875 C 95.777344 1056.386719 97.867188 1055.640625 100.382812 1055.640625 C 102.851562 1055.640625 104.894531 1056.59375 106.507812 1058.496094 C 108.121094 1060.398438 108.953125 1062.789062 109 1065.667969 M 127.800781 1148.949219 C 129.507812 1149.253906 130.957031 1150.152344 132.148438 1151.648438 C 133.339844 1153.144531 133.933594 1154.839844 133.933594 1156.730469 C 133.933594 1158.347656 133.515625 1159.804688 132.675781 1161.101562 C 131.835938 1162.398438 130.621094 1163.421875 129.035156 1164.167969 C 127.449219 1164.917969 125.601562 1165.289062 123.496094 1165.289062 L 110.769531 1165.289062 L 110.769531 1133.476562 L 122.902344 1133.476562 C 125.066406 1133.476562 126.929688 1133.839844 128.484375 1134.574219 C 130.042969 1135.304688 131.21875 1136.289062 132.011719 1137.527344 C 132.804688 1138.761719 133.203125 1140.144531 133.203125 1141.667969 C 133.203125 1143.5 132.714844 1145.027344 131.738281 1146.246094 C 130.761719 1147.46875 129.449219 1148.367188 127.800781 1148.949219 M 123.039062 1161.035156 C 124.808594 1161.035156 126.199219 1160.605469 127.203125 1159.75 C 128.210938 1158.898438 128.714844 1157.707031 128.714844 1156.179688 C 128.714844 1154.625 128.179688 1153.386719 127.113281 1152.472656 C 126.042969 1151.558594 124.625 1151.097656 122.855469 1151.097656 L 115.988281 1151.097656 L 115.988281 1161.035156 Z M 115.988281 1146.84375 L 122.445312 1146.84375 C 124.152344 1146.84375 125.488281 1146.453125 126.449219 1145.675781 C 127.410156 1144.898438 127.890625 1143.777344 127.890625 1142.308594 C 127.890625 1140.875 127.410156 1139.753906 126.449219 1138.945312 C 125.488281 1138.136719 124.152344 1137.734375 122.445312 1137.734375 L 115.988281 1137.734375 Z M 164.742188 1158.8125 L 151.421875 1158.8125 L 149.132812 1165.3125 L 143.683594 1165.3125 L 155.082031 1133.453125 L 161.125 1133.453125 L 172.523438 1165.3125 L 167.03125 1165.3125 Z M 163.277344 1154.554688 L 158.105469 1139.769531 L 152.886719 1154.554688 Z M 199.945312 1165.289062 L 192.621094 1152.566406 L 188.636719 1152.566406 L 188.636719 1165.289062 L 183.417969 1165.289062 L 183.417969 1133.476562 L 194.40625 1133.476562 C 196.847656 1133.476562 198.914062 1133.902344 200.609375 1134.757812 C 202.300781 1135.613281 203.570312 1136.757812 204.40625 1138.191406 C 205.246094 1139.625 205.667969 1141.226562 205.667969 1142.996094 C 205.667969 1145.074219 205.0625 1146.957031 203.859375 1148.652344 C 202.652344 1150.34375 200.800781 1151.496094 198.296875 1152.105469 L 206.167969 1165.289062 Z M 188.636719 1148.398438 L 194.40625 1148.398438 C 196.359375 1148.398438 197.832031 1147.910156 198.824219 1146.933594 C 199.816406 1145.957031 200.308594 1144.644531 200.308594 1142.996094 C 200.308594 1141.347656 199.824219 1140.058594 198.847656 1139.128906 C 197.867188 1138.199219 196.390625 1137.734375 194.40625 1137.734375 L 188.636719 1137.734375 Z M 223.519531 1161.078125 L 234.277344 1161.078125 L 234.277344 1165.289062 L 218.300781 1165.289062 L 218.300781 1133.476562 L 223.519531 1133.476562 Z M 249.796875 1137.710938 L 249.796875 1147.046875 L 260.78125 1147.046875 L 260.78125 1151.304688 L 249.796875 1151.304688 L 249.796875 1161.054688 L 262.15625 1161.054688 L 262.15625 1165.3125 L 244.578125 1165.3125 L 244.578125 1133.453125 L 262.15625 1133.453125 L 262.15625 1137.710938 Z M 298.089844 1133.476562 L 287.5625 1153.753906 L 287.5625 1165.289062 L 282.34375 1165.289062 L 282.34375 1153.753906 L 271.769531 1133.476562 L 277.582031 1133.476562 L 284.953125 1149.085938 L 292.324219 1133.476562 Z M 318.644531 1165.65625 C 316.507812 1165.65625 314.585938 1165.285156 312.875 1164.535156 C 311.167969 1163.789062 309.824219 1162.726562 308.847656 1161.351562 C 307.871094 1159.980469 307.382812 1158.378906 307.382812 1156.546875 L 312.96875 1156.546875 C 313.089844 1157.921875 313.632812 1159.050781 314.59375 1159.933594 C 315.554688 1160.820312 316.90625 1161.261719 318.644531 1161.261719 C 320.445312 1161.261719 321.847656 1160.828125 322.855469 1159.957031 C 323.863281 1159.085938 324.367188 1157.964844 324.367188 1156.59375 C 324.367188 1155.523438 324.054688 1154.65625 323.429688 1153.984375 C 322.800781 1153.3125 322.023438 1152.792969 321.09375 1152.425781 C 320.160156 1152.0625 318.871094 1151.664062 317.226562 1151.238281 C 315.148438 1150.6875 313.464844 1150.128906 312.167969 1149.566406 C 310.871094 1149 309.765625 1148.125 308.847656 1146.933594 C 307.933594 1145.742188 307.476562 1144.15625 307.476562 1142.171875 C 307.476562 1140.34375 307.933594 1138.742188 308.847656 1137.367188 C 309.765625 1135.992188 311.042969 1134.941406 312.695312 1134.207031 C 314.339844 1133.476562 316.246094 1133.109375 318.414062 1133.109375 C 321.496094 1133.109375 324.023438 1133.878906 325.992188 1135.421875 C 327.960938 1136.960938 329.050781 1139.074219 329.265625 1141.761719 L 323.496094 1141.761719 C 323.40625 1140.601562 322.855469 1139.609375 321.847656 1138.785156 C 320.84375 1137.960938 319.515625 1137.550781 317.867188 1137.550781 C 316.371094 1137.550781 315.148438 1137.929688 314.203125 1138.695312 C 313.257812 1139.457031 312.785156 1140.554688 312.785156 1141.992188 C 312.785156 1142.964844 313.082031 1143.765625 313.679688 1144.394531 C 314.273438 1145.019531 315.027344 1145.515625 315.941406 1145.882812 C 316.859375 1146.246094 318.109375 1146.644531 319.699219 1147.070312 C 321.804688 1147.652344 323.519531 1148.230469 324.847656 1148.8125 C 326.175781 1149.390625 327.304688 1150.285156 328.234375 1151.488281 C 329.164062 1152.695312 329.632812 1154.304688 329.632812 1156.320312 C 329.632812 1157.933594 329.195312 1159.460938 328.328125 1160.898438 C 327.457031 1162.332031 326.191406 1163.484375 324.527344 1164.351562 C 322.863281 1165.222656 320.902344 1165.65625 318.644531 1165.65625 M 362.316406 1133.476562 L 362.316406 1137.734375 L 353.847656 1137.734375 L 353.847656 1165.289062 L 348.628906 1165.289062 L 348.628906 1137.734375 L 340.113281 1137.734375 L 340.113281 1133.476562 Z M 388.042969 1165.65625 C 385.082031 1165.65625 382.359375 1164.960938 379.871094 1163.574219 C 377.386719 1162.183594 375.414062 1160.246094 373.964844 1157.761719 C 372.515625 1155.273438 371.792969 1152.472656 371.792969 1149.359375 C 371.792969 1146.246094 372.515625 1143.457031 373.964844 1140.984375 C 375.414062 1138.511719 377.386719 1136.582031 379.871094 1135.191406 C 382.359375 1133.804688 385.082031 1133.109375 388.042969 1133.109375 C 391.03125 1133.109375 393.773438 1133.804688 396.261719 1135.191406 C 398.746094 1136.582031 400.707031 1138.511719 402.140625 1140.984375 C 403.574219 1143.457031 404.292969 1146.246094 404.292969 1149.359375 C 404.292969 1152.472656 403.574219 1155.273438 402.140625 1157.761719 C 400.707031 1160.246094 398.746094 1162.183594 396.261719 1163.574219 C 393.773438 1164.960938 391.03125 1165.65625 388.042969 1165.65625 M 388.042969 1161.125 C 390.148438 1161.125 392.027344 1160.644531 393.671875 1159.683594 C 395.320312 1158.722656 396.609375 1157.347656 397.542969 1155.5625 C 398.472656 1153.777344 398.9375 1151.710938 398.9375 1149.359375 C 398.9375 1147.011719 398.472656 1144.949219 397.542969 1143.179688 C 396.609375 1141.410156 395.320312 1140.050781 393.671875 1139.105469 C 392.027344 1138.160156 390.148438 1137.6875 388.042969 1137.6875 C 385.9375 1137.6875 384.058594 1138.160156 382.410156 1139.105469 C 380.761719 1140.050781 379.472656 1141.410156 378.542969 1143.179688 C 377.613281 1144.949219 377.148438 1147.011719 377.148438 1149.359375 C 377.148438 1151.710938 377.613281 1153.777344 378.542969 1155.5625 C 379.472656 1157.347656 380.761719 1158.722656 382.410156 1159.683594 C 384.058594 1160.644531 385.9375 1161.125 388.042969 1161.125 M 441.511719 1165.3125 L 436.289062 1165.3125 L 420.589844 1141.554688 L 420.589844 1165.3125 L 415.371094 1165.3125 L 415.371094 1133.453125 L 420.589844 1133.453125 L 436.289062 1157.164062 L 436.289062 1133.453125 L 441.511719 1133.453125 Z M 459.546875 1137.710938 L 459.546875 1147.046875 L 470.53125 1147.046875 L 470.53125 1151.304688 L 459.546875 1151.304688 L 459.546875 1161.054688 L 471.90625 1161.054688 L 471.90625 1165.3125 L 454.328125 1165.3125 L 454.328125 1133.453125 L 471.90625 1133.453125 L 471.90625 1137.710938 Z M 459.546875 1137.710938 "/>
<path fill-rule="evenodd" fill="rgb(81.602478%, 10.139465%, 22.209167%)" fill-opacity="1" d="M 120.128906 816.710938 L 120.128906 930.039062 L 7.875 1002.882812 L 7.875 816.710938 Z M 401.386719 625.882812 L 138.78125 802.683594 L 12.5 802.683594 L 275.105469 625.882812 Z M 439.355469 711.066406 L 256.273438 831.167969 L 129.996094 831.167969 L 439.355469 625.882812 Z M 433.363281 816.710938 L 138.78125 1016.515625 L 12.5 1016.515625 L 321.859375 816.710938 Z M 570.492188 833.980469 L 301.375 1016.515625 L 168.6875 1016.515625 L 447.054688 833.980469 Z M 452.355469 819.957031 L 574.804688 819.957031 L 574.804688 625.882812 L 452.355469 625.882812 Z M 452.355469 819.957031 "/>
<path fill-rule="evenodd" fill="rgb(13.000488%, 11.326599%, 11.31134%)" fill-opacity="1" d="M 627.691406 200.734375 L 627.691406 142.398438 L 633.117188 149.175781 L 645.457031 149.175781 L 650.882812 142.398438 L 650.882812 187.765625 L 645.421875 180.988281 L 632.28125 180.988281 L 632.28125 192.425781 L 640.105469 200.734375 Z M 627.691406 200.734375 L 633.046875 207.515625 L 645.421875 207.515625 L 650.882812 200.734375 L 650.882812 223.890625 L 645.421875 217.109375 L 632.28125 217.109375 L 632.28125 228.546875 L 640.105469 236.855469 L 627.691406 236.855469 Z M 650.617188 164.941406 L 645.457031 158.460938 L 633.117188 158.460938 L 627.953125 164.945312 L 633.046875 171.390625 L 645.421875 171.390625 Z M 610.824219 272.535156 L 612.242188 272.535156 L 612.242188 223.871094 L 610.824219 223.871094 Z M 610.824219 65.914062 L 612.242188 65.914062 L 612.242188 17.417969 L 610.824219 17.417969 Z M 627.691406 141.53125 L 627.691406 92.242188 C 630.890625 91.175781 633.359375 90.15625 635.097656 89.183594 C 636.09375 88.628906 636.59375 87.332031 636.59375 85.289062 L 636.59375 80.769531 L 633.082031 80.769531 L 627.691406 87.585938 L 627.691406 64.429688 L 633.082031 71.210938 L 645.457031 71.210938 L 650.882812 64.429688 L 650.882812 90.261719 L 650.535156 94.605469 C 650.371094 96.761719 649.675781 98.53125 648.449219 99.910156 C 647.21875 101.289062 645.816406 101.976562 644.242188 101.976562 C 641.296875 101.976562 639.433594 99.289062 638.644531 93.914062 C 638.085938 95.742188 637.289062 97.132812 636.246094 98.085938 C 635.203125 99.035156 633.476562 99.960938 631.066406 100.867188 L 627.980469 104.96875 L 633.046875 111.386719 L 645.492188 111.386719 L 650.882812 104.605469 L 650.882812 141.007812 L 640.835938 141.007812 L 647.058594 134.054688 L 647.058594 120.980469 L 641.980469 120.980469 L 641.980469 128.144531 L 644.695312 133.253906 L 634.230469 133.253906 L 637.394531 128.144531 L 637.394531 120.980469 L 632.28125 120.980469 L 632.28125 134.054688 L 638.921875 141.53125 Z M 643.71875 91.828125 C 644.785156 91.828125 645.539062 91.558594 645.980469 91.027344 C 646.351562 90.539062 646.535156 89.691406 646.535156 88.488281 L 646.535156 80.769531 L 641.183594 80.769531 L 641.214844 88.765625 C 641.214844 90.785156 642.050781 91.804688 643.71875 91.828125 M 638.0625 52.097656 C 634.855469 52.097656 632.085938 50.398438 629.757812 47 C 627.425781 43.601562 626.261719 39.535156 626.261719 34.808594 C 626.261719 30.191406 627.4375 26.140625 629.792969 22.652344 C 632.144531 19.164062 634.878906 17.417969 637.992188 17.417969 C 641.515625 17.417969 644.542969 19.152344 647.078125 22.617188 C 649.613281 26.085938 650.882812 30.226562 650.882812 35.046875 C 650.882812 39.640625 649.609375 43.628906 647.0625 47.015625 C 644.515625 50.402344 641.515625 52.097656 638.0625 52.097656 M 638.707031 41.183594 C 641.09375 41.183594 643.0625 40.589844 644.609375 39.394531 C 646.152344 38.203125 646.9375 36.660156 646.960938 34.773438 C 646.984375 32.910156 646.222656 31.375 644.675781 30.171875 C 643.128906 28.964844 641.140625 28.363281 638.707031 28.363281 C 636.296875 28.363281 634.359375 28.949219 632.894531 30.121094 C 631.429688 31.289062 630.695312 32.84375 630.695312 34.773438 C 630.695312 36.707031 631.417969 38.257812 632.859375 39.429688 C 634.304688 40.597656 636.253906 41.183594 638.707031 41.183594 M 650.882812 272.535156 L 646.222656 266.382812 L 636.070312 257.933594 L 633.117188 257.933594 L 627.691406 264.714844 L 627.691406 241.734375 L 633.117188 248.511719 L 636.070312 248.511719 L 646.605469 239.75 L 650.882812 233.5625 L 650.882812 255.257812 L 646.605469 250.738281 L 641.007812 255.675781 L 647.023438 260.402344 L 650.882812 255.917969 Z M 646.371094 62.925781 C 644.546875 62.945312 642.917969 62.199219 641.480469 60.679688 C 640.042969 59.164062 639.226562 57.371094 639.027344 55.296875 L 639.785156 55.296875 C 641.101562 57.730469 642.726562 59.21875 644.660156 59.75 C 644.308594 59.109375 644.132812 58.554688 644.132812 58.085938 C 644.132812 57.253906 644.449219 56.546875 645.085938 55.96875 C 645.722656 55.394531 646.480469 55.105469 647.359375 55.105469 C 648.367188 55.105469 649.207031 55.476562 649.878906 56.226562 C 650.546875 56.972656 650.882812 57.914062 650.882812 59.046875 C 650.882812 60.15625 650.453125 61.078125 649.597656 61.804688 C 648.742188 62.53125 647.664062 62.902344 646.371094 62.925781 M 604.210938 84.476562 C 604.210938 83.144531 604.523438 81.917969 605.148438 80.796875 C 605.773438 79.679688 606.644531 78.792969 607.765625 78.140625 C 608.882812 77.488281 610.144531 77.164062 611.542969 77.164062 C 612.945312 77.164062 614.199219 77.488281 615.3125 78.140625 C 616.425781 78.792969 617.292969 79.679688 617.917969 80.796875 C 618.542969 81.917969 618.855469 83.144531 618.855469 84.476562 C 618.855469 85.824219 618.542969 87.054688 617.917969 88.171875 C 617.292969 89.292969 616.425781 90.175781 615.3125 90.820312 C 614.199219 91.464844 612.945312 91.789062 611.542969 91.789062 C 610.144531 91.789062 608.882812 91.464844 607.765625 90.820312 C 606.644531 90.175781 605.773438 89.292969 605.148438 88.171875 C 604.523438 87.054688 604.210938 85.824219 604.210938 84.476562 M 606.25 84.476562 C 606.25 85.421875 606.464844 86.269531 606.898438 87.007812 C 607.332031 87.75 607.949219 88.332031 608.753906 88.75 C 609.554688 89.167969 610.488281 89.378906 611.542969 89.378906 C 612.601562 89.378906 613.527344 89.167969 614.324219 88.75 C 615.121094 88.332031 615.734375 87.75 616.15625 87.007812 C 616.582031 86.269531 616.796875 85.421875 616.796875 84.476562 C 616.796875 83.527344 616.582031 82.683594 616.15625 81.941406 C 615.734375 81.199219 615.121094 80.621094 614.324219 80.203125 C 613.527344 79.78125 612.601562 79.574219 611.542969 79.574219 C 610.488281 79.574219 609.554688 79.78125 608.753906 80.203125 C 607.949219 80.621094 607.332031 81.199219 606.898438 81.941406 C 606.464844 82.683594 606.25 83.527344 606.25 84.476562 M 607.289062 105.40625 L 607.289062 99.410156 L 604.363281 98.378906 L 604.363281 95.929688 L 618.703125 101.058594 L 618.703125 103.777344 L 604.363281 108.90625 L 604.363281 106.433594 Z M 609.207031 104.746094 L 615.859375 102.417969 L 609.207031 100.070312 Z M 604.375 121.699219 L 610.78125 116.160156 L 604.375 116.160156 L 604.375 113.808594 L 618.691406 113.808594 L 618.691406 116.160156 L 612.160156 116.160156 L 618.691406 121.71875 L 618.691406 124.664062 L 611.523438 118.445312 L 604.375 124.769531 Z M 604.210938 134.246094 C 604.210938 133.285156 604.378906 132.417969 604.714844 131.648438 C 605.050781 130.878906 605.527344 130.273438 606.148438 129.835938 C 606.765625 129.394531 607.484375 129.175781 608.308594 129.175781 L 608.308594 131.691406 C 607.691406 131.746094 607.183594 131.988281 606.785156 132.421875 C 606.386719 132.855469 606.1875 133.460938 606.1875 134.246094 C 606.1875 135.054688 606.382812 135.6875 606.773438 136.140625 C 607.167969 136.59375 607.671875 136.820312 608.289062 136.820312 C 608.769531 136.820312 609.160156 136.679688 609.460938 136.398438 C 609.765625 136.117188 610 135.765625 610.164062 135.347656 C 610.328125 134.925781 610.507812 134.347656 610.699219 133.605469 C 610.945312 132.671875 611.195312 131.914062 611.449219 131.328125 C 611.703125 130.746094 612.101562 130.25 612.636719 129.835938 C 613.171875 129.425781 613.886719 129.21875 614.777344 129.21875 C 615.601562 129.21875 616.324219 129.425781 616.941406 129.835938 C 617.558594 130.25 618.03125 130.824219 618.363281 131.566406 C 618.691406 132.308594 618.855469 133.167969 618.855469 134.140625 C 618.855469 135.53125 618.507812 136.664062 617.816406 137.550781 C 617.121094 138.4375 616.171875 138.925781 614.964844 139.023438 L 614.964844 136.429688 C 615.484375 136.386719 615.933594 136.140625 616.300781 135.6875 C 616.671875 135.234375 616.859375 134.636719 616.859375 133.894531 C 616.859375 133.222656 616.6875 132.671875 616.34375 132.246094 C 616 131.820312 615.503906 131.609375 614.859375 131.609375 C 614.421875 131.609375 614.0625 131.742188 613.777344 132.007812 C 613.496094 132.277344 613.273438 132.617188 613.109375 133.03125 C 612.945312 133.441406 612.765625 134.003906 612.574219 134.71875 C 612.3125 135.667969 612.050781 136.4375 611.789062 137.035156 C 611.53125 137.632812 611.128906 138.140625 610.585938 138.558594 C 610.042969 138.980469 609.320312 139.1875 608.414062 139.1875 C 607.683594 139.1875 606.996094 138.992188 606.351562 138.601562 C 605.707031 138.210938 605.1875 137.640625 604.796875 136.890625 C 604.40625 136.144531 604.210938 135.261719 604.210938 134.246094 M 618.691406 153.894531 L 616.777344 153.894531 L 616.777344 150.085938 L 604.375 150.085938 L 604.375 147.738281 L 616.777344 147.738281 L 616.777344 143.90625 L 618.691406 143.90625 Z M 604.210938 165.472656 C 604.210938 164.140625 604.523438 162.917969 605.148438 161.796875 C 605.773438 160.675781 606.644531 159.792969 607.765625 159.140625 C 608.882812 158.488281 610.144531 158.160156 611.542969 158.160156 C 612.945312 158.160156 614.199219 158.488281 615.3125 159.140625 C 616.425781 159.792969 617.292969 160.675781 617.917969 161.796875 C 618.542969 162.917969 618.855469 164.140625 618.855469 165.472656 C 618.855469 166.820312 618.542969 168.050781 617.917969 169.171875 C 617.292969 170.289062 616.425781 171.171875 615.3125 171.816406 C 614.199219 172.464844 612.945312 172.785156 611.542969 172.785156 C 610.144531 172.785156 608.882812 172.464844 607.765625 171.816406 C 606.644531 171.171875 605.773438 170.289062 605.148438 169.171875 C 604.523438 168.050781 604.210938 166.820312 604.210938 165.472656 M 606.25 165.472656 C 606.25 166.421875 606.464844 167.265625 606.898438 168.007812 C 607.332031 168.75 607.949219 169.328125 608.753906 169.75 C 609.554688 170.167969 610.488281 170.375 611.542969 170.375 C 612.601562 170.375 613.527344 170.167969 614.324219 169.75 C 615.121094 169.328125 615.734375 168.75 616.15625 168.007812 C 616.582031 167.265625 616.796875 166.421875 616.796875 165.472656 C 616.796875 164.527344 616.582031 163.679688 616.15625 162.9375 C 615.734375 162.199219 615.121094 161.617188 614.324219 161.199219 C 613.527344 160.78125 612.601562 160.570312 611.542969 160.570312 C 610.488281 160.570312 609.554688 160.78125 608.753906 161.199219 C 607.949219 161.617188 607.332031 162.199219 606.898438 162.9375 C 606.464844 163.679688 606.25 164.527344 606.25 165.472656 M 618.703125 196.414062 L 604.386719 192.171875 L 604.386719 189.511719 L 615.21875 186.507812 L 604.386719 183.3125 L 604.363281 180.675781 L 618.703125 176.617188 L 618.703125 179.109375 L 607.042969 182.078125 L 618.703125 185.289062 L 618.703125 187.925781 L 607.105469 190.914062 L 618.703125 193.902344 Z M 604.363281 212.789062 L 604.363281 210.441406 L 615.054688 203.375 L 604.363281 203.375 L 604.363281 201.027344 L 618.703125 201.027344 L 618.703125 203.375 L 608.03125 210.441406 L 618.703125 210.441406 L 618.703125 212.789062 Z M 604.363281 212.789062 "/>
<path fill-rule="evenodd" fill="rgb(81.602478%, 10.139465%, 22.209167%)" fill-opacity="1" d="M 752.46875 67.933594 L 701.46875 67.933594 L 668.691406 17.417969 L 752.46875 17.417969 Z M 838.339844 194.5 L 758.78125 76.324219 L 758.78125 19.5 L 838.339844 137.671875 Z M 800.007812 211.585938 L 745.960938 129.199219 L 745.960938 72.371094 L 838.339844 211.585938 Z M 752.46875 208.886719 L 662.554688 76.324219 L 662.554688 19.5 L 752.46875 158.710938 Z M 744.695312 270.597656 L 662.554688 149.492188 L 662.554688 89.785156 L 744.695312 215.050781 Z M 751.007812 272.535156 L 838.339844 272.535156 L 838.339844 217.433594 L 751.007812 217.433594 Z M 751.007812 272.535156 "/>
<path fill-rule="evenodd" fill="rgb(13.000488%, 11.326599%, 11.31134%)" fill-opacity="1" d="M 624.59375 1093.855469 L 629.949219 1100.636719 L 642.324219 1100.636719 L 647.78125 1093.855469 L 647.78125 1117.011719 L 642.324219 1110.230469 L 629.183594 1110.230469 L 629.183594 1121.667969 L 637.007812 1129.976562 L 624.59375 1129.976562 Z M 624.59375 1093.855469 L 624.59375 1035.519531 L 630.019531 1042.296875 L 642.359375 1042.296875 L 647.78125 1035.519531 L 647.78125 1080.886719 L 642.324219 1074.109375 L 629.183594 1074.109375 L 629.183594 1085.546875 L 637.007812 1093.855469 Z M 647.519531 1058.0625 L 642.359375 1051.582031 L 630.019531 1051.582031 L 624.855469 1058.066406 L 629.949219 1064.511719 L 642.324219 1064.511719 Z M 607.726562 1165.65625 L 609.144531 1165.65625 L 609.144531 1131.058594 L 607.726562 1131.058594 Z M 607.726562 945.136719 L 609.144531 945.136719 L 609.144531 910.539062 L 607.726562 910.539062 Z M 624.59375 1034.648438 L 624.59375 985.363281 C 627.792969 984.296875 630.261719 983.277344 632 982.304688 C 632.996094 981.75 633.492188 980.453125 633.492188 978.410156 L 633.492188 973.890625 L 629.984375 973.890625 L 624.59375 980.707031 L 624.59375 957.550781 L 629.984375 964.332031 L 642.359375 964.332031 L 647.78125 957.550781 L 647.78125 983.382812 L 647.433594 987.726562 C 647.273438 989.882812 646.578125 991.652344 645.351562 993.03125 C 644.121094 994.410156 642.71875 995.097656 641.144531 995.097656 C 638.199219 995.097656 636.332031 992.410156 635.542969 987.03125 C 634.988281 988.863281 634.191406 990.253906 633.148438 991.207031 C 632.105469 992.15625 630.375 993.082031 627.964844 993.984375 L 624.878906 998.089844 L 629.949219 1004.507812 L 642.394531 1004.507812 L 647.78125 997.726562 L 647.78125 1034.128906 L 637.734375 1034.128906 L 643.957031 1027.175781 L 643.957031 1014.101562 L 638.882812 1014.101562 L 638.882812 1021.265625 L 641.59375 1026.375 L 631.128906 1026.375 L 634.292969 1021.265625 L 634.292969 1014.101562 L 629.183594 1014.101562 L 629.183594 1027.175781 L 635.824219 1034.648438 Z M 640.621094 984.945312 C 641.6875 984.945312 642.441406 984.679688 642.882812 984.148438 C 643.25 983.660156 643.4375 982.8125 643.4375 981.609375 L 643.4375 973.890625 L 638.082031 973.890625 L 638.117188 981.886719 C 638.117188 983.902344 638.953125 984.921875 640.621094 984.945312 M 634.960938 945.21875 C 631.757812 945.21875 628.988281 943.519531 626.660156 940.121094 C 624.328125 936.722656 623.164062 932.65625 623.164062 927.929688 C 623.164062 923.3125 624.339844 919.261719 626.691406 915.773438 C 629.046875 912.28125 631.78125 910.539062 634.894531 910.539062 C 638.417969 910.539062 641.445312 912.273438 643.980469 915.738281 C 646.515625 919.207031 647.78125 923.347656 647.78125 928.167969 C 647.78125 932.761719 646.511719 936.75 643.964844 940.136719 C 641.417969 943.523438 638.417969 945.21875 634.960938 945.21875 M 635.609375 934.304688 C 637.996094 934.304688 639.964844 933.710938 641.507812 932.515625 C 643.054688 931.320312 643.839844 929.78125 643.863281 927.894531 C 643.886719 926.03125 643.121094 924.496094 641.578125 923.292969 C 640.03125 922.085938 638.042969 921.484375 635.609375 921.484375 C 633.199219 921.484375 631.261719 922.070312 629.796875 923.238281 C 628.328125 924.410156 627.597656 925.964844 627.597656 927.894531 C 627.597656 929.828125 628.320312 931.378906 629.761719 932.550781 C 631.207031 933.71875 633.15625 934.304688 635.609375 934.304688 M 647.78125 1165.65625 L 643.125 1159.503906 L 632.972656 1151.054688 L 630.019531 1151.054688 L 624.59375 1157.835938 L 624.59375 1134.855469 L 630.019531 1141.632812 L 632.972656 1141.632812 L 643.507812 1132.871094 L 647.78125 1126.683594 L 647.78125 1148.378906 L 643.507812 1143.859375 L 637.910156 1148.796875 L 643.925781 1153.523438 L 647.78125 1149.039062 Z M 643.273438 956.046875 C 641.449219 956.066406 639.820312 955.320312 638.382812 953.800781 C 636.945312 952.285156 636.125 950.488281 635.929688 948.417969 L 636.6875 948.417969 C 638.003906 950.851562 639.628906 952.339844 641.558594 952.871094 C 641.207031 952.230469 641.03125 951.675781 641.03125 951.207031 C 641.03125 950.375 641.351562 949.667969 641.988281 949.089844 C 642.625 948.515625 643.382812 948.226562 644.261719 948.226562 C 645.269531 948.226562 646.109375 948.597656 646.777344 949.347656 C 647.449219 950.09375 647.78125 951.035156 647.78125 952.167969 C 647.78125 953.277344 647.355469 954.195312 646.5 954.921875 C 645.644531 955.648438 644.566406 956.023438 643.273438 956.046875 M 608.628906 964.503906 C 608.492188 965.273438 608.089844 965.925781 607.414062 966.460938 C 606.742188 967 605.980469 967.265625 605.128906 967.265625 C 604.402344 967.265625 603.746094 967.078125 603.160156 966.699219 C 602.578125 966.320312 602.117188 965.773438 601.78125 965.0625 C 601.445312 964.347656 601.277344 963.515625 601.277344 962.570312 L 601.277344 956.84375 L 615.59375 956.84375 L 615.59375 962.300781 C 615.59375 963.277344 615.429688 964.113281 615.097656 964.8125 C 614.769531 965.515625 614.324219 966.042969 613.769531 966.402344 C 613.214844 966.757812 612.59375 966.9375 611.90625 966.9375 C 611.082031 966.9375 610.394531 966.714844 609.847656 966.277344 C 609.296875 965.835938 608.890625 965.246094 608.628906 964.503906 M 603.191406 962.363281 C 603.191406 963.160156 603.382812 963.785156 603.769531 964.238281 C 604.152344 964.691406 604.6875 964.917969 605.375 964.917969 C 606.074219 964.917969 606.632812 964.675781 607.042969 964.195312 C 607.457031 963.714844 607.660156 963.078125 607.660156 962.28125 L 607.660156 959.191406 L 603.191406 959.191406 Z M 609.578125 959.191406 L 609.578125 962.09375 C 609.578125 962.863281 609.753906 963.464844 610.101562 963.898438 C 610.453125 964.332031 610.957031 964.546875 611.617188 964.546875 C 612.261719 964.546875 612.769531 964.332031 613.132812 963.898438 C 613.496094 963.464844 613.675781 962.863281 613.675781 962.09375 L 613.675781 959.191406 Z M 604.191406 981.128906 L 604.191406 975.136719 L 601.265625 974.105469 L 601.265625 971.652344 L 615.601562 976.78125 L 615.601562 979.503906 L 601.265625 984.632812 L 601.265625 982.160156 Z M 606.105469 980.46875 L 612.761719 978.144531 L 606.105469 975.792969 Z M 601.277344 996.972656 L 607.003906 993.675781 L 607.003906 991.882812 L 601.277344 991.882812 L 601.277344 989.535156 L 615.59375 989.535156 L 615.59375 994.476562 C 615.59375 995.578125 615.402344 996.507812 615.015625 997.269531 C 614.632812 998.03125 614.117188 998.601562 613.472656 998.980469 C 612.824219 999.355469 612.105469 999.546875 611.308594 999.546875 C 610.375 999.546875 609.527344 999.273438 608.765625 998.730469 C 608 998.1875 607.484375 997.355469 607.207031 996.230469 L 601.277344 999.773438 Z M 608.878906 991.882812 L 608.878906 994.476562 C 608.878906 995.355469 609.097656 996.019531 609.535156 996.464844 C 609.976562 996.914062 610.566406 997.136719 611.308594 997.136719 C 612.050781 997.136719 612.628906 996.914062 613.050781 996.476562 C 613.46875 996.035156 613.675781 995.371094 613.675781 994.476562 L 613.675781 991.882812 Z M 603.171875 1007.582031 L 603.171875 1012.421875 L 601.277344 1012.421875 L 601.277344 1005.230469 L 615.59375 1005.230469 L 615.59375 1007.582031 Z M 613.6875 1019.402344 L 609.484375 1019.402344 L 609.484375 1024.347656 L 607.570312 1024.347656 L 607.570312 1019.402344 L 603.183594 1019.402344 L 603.183594 1024.964844 L 601.265625 1024.964844 L 601.265625 1017.054688 L 615.601562 1017.054688 L 615.601562 1024.964844 L 613.6875 1024.964844 Z M 615.59375 1041.136719 L 606.46875 1036.398438 L 601.277344 1036.398438 L 601.277344 1034.050781 L 606.46875 1034.050781 L 615.59375 1029.292969 L 615.59375 1031.90625 L 608.570312 1035.222656 L 615.59375 1038.542969 Z M 601.113281 1050.386719 C 601.113281 1049.425781 601.28125 1048.558594 601.617188 1047.789062 C 601.953125 1047.019531 602.429688 1046.417969 603.046875 1045.976562 C 603.664062 1045.539062 604.386719 1045.316406 605.210938 1045.316406 L 605.210938 1047.832031 C 604.59375 1047.886719 604.085938 1048.128906 603.6875 1048.5625 C 603.289062 1048.996094 603.089844 1049.601562 603.089844 1050.386719 C 603.089844 1051.195312 603.285156 1051.828125 603.675781 1052.28125 C 604.066406 1052.734375 604.570312 1052.960938 605.191406 1052.960938 C 605.671875 1052.960938 606.0625 1052.820312 606.363281 1052.539062 C 606.667969 1052.257812 606.898438 1051.90625 607.066406 1051.488281 C 607.230469 1051.066406 607.40625 1050.488281 607.601562 1049.746094 C 607.847656 1048.8125 608.097656 1048.054688 608.351562 1047.46875 C 608.605469 1046.886719 609 1046.390625 609.535156 1045.976562 C 610.070312 1045.566406 610.785156 1045.359375 611.679688 1045.359375 C 612.503906 1045.359375 613.222656 1045.566406 613.84375 1045.976562 C 614.460938 1046.390625 614.933594 1046.964844 615.265625 1047.707031 C 615.59375 1048.449219 615.757812 1049.308594 615.757812 1050.28125 C 615.757812 1051.667969 615.410156 1052.804688 614.71875 1053.691406 C 614.023438 1054.578125 613.074219 1055.066406 611.863281 1055.164062 L 611.863281 1052.570312 C 612.386719 1052.527344 612.832031 1052.28125 613.203125 1051.828125 C 613.574219 1051.375 613.761719 1050.777344 613.761719 1050.035156 C 613.761719 1049.363281 613.589844 1048.8125 613.246094 1048.386719 C 612.902344 1047.960938 612.40625 1047.75 611.761719 1047.75 C 611.320312 1047.75 610.960938 1047.882812 610.679688 1048.148438 C 610.398438 1048.417969 610.175781 1048.757812 610.011719 1049.171875 C 609.847656 1049.582031 609.667969 1050.144531 609.476562 1050.859375 C 609.214844 1051.804688 608.953125 1052.578125 608.691406 1053.175781 C 608.429688 1053.773438 608.03125 1054.28125 607.488281 1054.703125 C 606.945312 1055.121094 606.21875 1055.328125 605.3125 1055.328125 C 604.585938 1055.328125 603.898438 1055.132812 603.253906 1054.742188 C 602.609375 1054.351562 602.089844 1053.78125 601.699219 1053.03125 C 601.308594 1052.285156 601.113281 1051.402344 601.113281 1050.386719 M 615.59375 1070.039062 L 613.675781 1070.039062 L 613.675781 1066.226562 L 601.277344 1066.226562 L 601.277344 1063.878906 L 613.675781 1063.878906 L 613.675781 1060.046875 L 615.59375 1060.046875 Z M 601.113281 1081.613281 C 601.113281 1080.28125 601.425781 1079.058594 602.050781 1077.9375 C 602.675781 1076.816406 603.546875 1075.933594 604.664062 1075.28125 C 605.785156 1074.628906 607.042969 1074.300781 608.445312 1074.300781 C 609.847656 1074.300781 611.101562 1074.628906 612.214844 1075.28125 C 613.328125 1075.933594 614.195312 1076.816406 614.820312 1077.9375 C 615.445312 1079.058594 615.757812 1080.28125 615.757812 1081.613281 C 615.757812 1082.960938 615.445312 1084.191406 614.820312 1085.3125 C 614.195312 1086.429688 613.328125 1087.3125 612.214844 1087.960938 C 611.101562 1088.605469 609.847656 1088.925781 608.445312 1088.925781 C 607.042969 1088.925781 605.785156 1088.605469 604.664062 1087.960938 C 603.546875 1087.3125 602.675781 1086.429688 602.050781 1085.3125 C 601.425781 1084.191406 601.113281 1082.960938 601.113281 1081.613281 M 603.152344 1081.613281 C 603.152344 1082.5625 603.367188 1083.40625 603.800781 1084.148438 C 604.230469 1084.890625 604.851562 1085.46875 605.652344 1085.890625 C 606.457031 1086.308594 607.386719 1086.515625 608.445312 1086.515625 C 609.503906 1086.515625 610.429688 1086.308594 611.226562 1085.890625 C 612.023438 1085.46875 612.632812 1084.890625 613.058594 1084.148438 C 613.484375 1083.40625 613.699219 1082.5625 613.699219 1081.613281 C 613.699219 1080.667969 613.484375 1079.820312 613.058594 1079.082031 C 612.632812 1078.339844 612.023438 1077.757812 611.226562 1077.339844 C 610.429688 1076.921875 609.503906 1076.710938 608.445312 1076.710938 C 607.386719 1076.710938 606.457031 1076.921875 605.652344 1077.339844 C 604.851562 1077.757812 604.230469 1078.339844 603.800781 1079.082031 C 603.367188 1079.820312 603.152344 1080.667969 603.152344 1081.613281 M 601.265625 1105.675781 L 601.265625 1103.328125 L 611.957031 1096.261719 L 601.265625 1096.261719 L 601.265625 1093.914062 L 615.601562 1093.914062 L 615.601562 1096.261719 L 604.933594 1103.328125 L 615.601562 1103.328125 L 615.601562 1105.675781 Z M 613.6875 1113.792969 L 609.484375 1113.792969 L 609.484375 1118.734375 L 607.570312 1118.734375 L 607.570312 1113.792969 L 603.183594 1113.792969 L 603.183594 1119.351562 L 601.265625 1119.351562 L 601.265625 1111.441406 L 615.601562 1111.441406 L 615.601562 1119.351562 L 613.6875 1119.351562 Z M 613.6875 1113.792969 "/>
<path fill-rule="evenodd" fill="rgb(81.602478%, 10.139465%, 22.209167%)" fill-opacity="1" d="M 752.46875 961.054688 L 701.46875 961.054688 L 668.691406 910.539062 L 752.46875 910.539062 Z M 838.339844 1087.621094 L 758.78125 969.445312 L 758.78125 912.621094 L 838.339844 1030.792969 Z M 800.007812 1104.707031 L 745.960938 1022.320312 L 745.960938 965.492188 L 838.339844 1104.707031 Z M 752.46875 1102.007812 L 662.554688 969.445312 L 662.554688 912.621094 L 752.46875 1051.832031 Z M 744.695312 1163.71875 L 662.554688 1042.613281 L 662.554688 982.90625 L 744.695312 1108.171875 Z M 751.007812 1165.65625 L 838.339844 1165.65625 L 838.339844 1110.554688 L 751.007812 1110.554688 Z M 751.007812 1165.65625 "/>
</svg>
