<?xml version="1.0" encoding="UTF-8"?>
<svg style="background:transparent !important" xmlns="http://www.w3.org/2000/svg" xmlns:xlink="http://www.w3.org/1999/xlink" width="283.465" height="198.425" viewBox="0 0 283.465 198.425">
<path fill-rule="nonzero" fill="rgb(96.578979%, 54.22821%, 8.259583%)" fill-opacity="1" d="M 40.839844 71.949219 L 40.839844 47.8125 L 49.085938 47.8125 L 49.085938 59.890625 L 70.890625 72.59375 L 70.890625 51.570312 C 70.890625 40.902344 60.042969 33.449219 44.507812 33.449219 C 28.976562 33.449219 18.125 40.902344 18.125 51.570312 L 18.125 85.179688 Z M 40.839844 71.949219 "/>
<path fill-rule="nonzero" fill="rgb(96.578979%, 54.22821%, 8.259583%)" fill-opacity="1" d="M 49.085938 89.972656 L 67.523438 79.234375 L 49.085938 68.492188 Z M 49.085938 89.972656 "/>
<path fill-rule="nonzero" fill="rgb(96.578979%, 54.22821%, 8.259583%)" fill-opacity="1" d="M 70.890625 85.875 L 52.613281 96.523438 L 70.890625 107.167969 Z M 70.890625 85.875 "/>
<path fill-rule="nonzero" fill="rgb(96.578979%, 54.22821%, 8.259583%)" fill-opacity="1" d="M 40.839844 80.554688 L 18.125 93.785156 L 18.125 108.007812 L 40.839844 94.777344 Z M 40.839844 80.554688 "/>
<path fill-rule="nonzero" fill="rgb(96.578979%, 54.22821%, 8.259583%)" fill-opacity="1" d="M 49.085938 103.070312 L 49.085938 125.773438 L 40.839844 125.773438 L 40.839844 103.382812 L 18.125 116.613281 L 18.125 122.015625 C 18.125 132.683594 28.976562 140.136719 44.507812 140.136719 C 60.042969 140.136719 70.890625 132.683594 70.890625 122.015625 L 70.890625 115.773438 Z M 49.085938 103.070312 "/>
<path fill-rule="nonzero" fill="rgb(96.578979%, 54.22821%, 8.259583%)" fill-opacity="1" d="M 105.1875 82.015625 L 101.183594 82.015625 L 101.183594 47.8125 L 105.1875 47.8125 C 105.863281 47.8125 109.234375 47.941406 109.234375 50.511719 L 109.234375 79.3125 C 109.234375 81.886719 105.863281 82.015625 105.1875 82.015625 M 131.59375 77.085938 L 131.59375 52.742188 C 131.59375 39.886719 118.292969 34.132812 105.109375 34.132812 L 78.828125 34.132812 L 78.828125 139.453125 L 101.183594 139.453125 L 101.183594 95.691406 L 102.308594 95.691406 L 112.695312 139.453125 L 134.511719 139.453125 L 123.078125 91.289062 C 127.160156 88.832031 131.59375 84.464844 131.59375 77.085938 "/>
<path fill-rule="nonzero" fill="rgb(96.578979%, 54.22821%, 8.259583%)" fill-opacity="1" d="M 198.222656 34.132812 L 175.671875 34.132812 L 162.230469 66.351562 L 162.230469 34.1875 L 139.871094 34.1875 L 139.871094 139.453125 L 162.230469 139.453125 L 162.230469 109.238281 L 165.59375 102.09375 L 176.921875 139.453125 L 199.929688 139.453125 L 179.417969 74.085938 Z M 198.222656 34.132812 "/>
<path fill-rule="nonzero" fill="rgb(96.578979%, 54.22821%, 8.259583%)" fill-opacity="1" d="M 230.40625 104.859375 L 234.34375 78.40625 L 238.28125 104.859375 Z M 222.28125 34.132812 L 203.347656 139.453125 L 225.257812 139.453125 L 228.320312 118.878906 L 240.367188 118.878906 L 243.429688 139.453125 L 265.339844 139.453125 L 246.40625 34.132812 Z M 222.28125 34.132812 "/>
<path fill-rule="nonzero" fill="rgb(96.578979%, 54.22821%, 8.259583%)" fill-opacity="1" d="M 82.851562 164.601562 C 82.433594 164.851562 81.910156 164.976562 81.273438 164.976562 C 80.699219 164.976562 80.175781 164.839844 79.710938 164.574219 C 79.246094 164.304688 78.851562 163.929688 78.53125 163.457031 C 78.207031 162.980469 77.957031 162.417969 77.78125 161.761719 C 77.601562 161.109375 77.511719 160.394531 77.511719 159.613281 C 77.511719 158.835938 77.601562 158.117188 77.78125 157.460938 C 77.957031 156.804688 78.210938 156.234375 78.535156 155.761719 C 78.863281 155.285156 79.257812 154.914062 79.726562 154.652344 C 80.191406 154.386719 80.707031 154.253906 81.273438 154.253906 C 81.859375 154.253906 82.375 154.363281 82.816406 154.578125 C 83.257812 154.796875 83.617188 155.105469 83.898438 155.507812 L 82.902344 156.71875 C 82.507812 156.152344 82 155.867188 81.375 155.867188 C 81.03125 155.867188 80.726562 155.96875 80.46875 156.164062 C 80.207031 156.359375 79.992188 156.628906 79.820312 156.964844 C 79.648438 157.300781 79.515625 157.695312 79.429688 158.152344 C 79.34375 158.609375 79.300781 159.097656 79.300781 159.613281 C 79.300781 160.125 79.34375 160.605469 79.429688 161.0625 C 79.515625 161.519531 79.648438 161.917969 79.820312 162.253906 C 79.992188 162.589844 80.210938 162.855469 80.476562 163.050781 C 80.738281 163.25 81.046875 163.347656 81.40625 163.347656 C 81.742188 163.347656 82.03125 163.261719 82.277344 163.089844 C 82.523438 162.917969 82.726562 162.703125 82.886719 162.453125 L 83.882812 163.621094 C 83.613281 164.023438 83.269531 164.351562 82.851562 164.601562 "/>
<path fill-rule="nonzero" fill="rgb(96.578979%, 54.22821%, 8.259583%)" fill-opacity="1" d="M 92.660156 159.601562 C 92.660156 159.082031 92.617188 158.59375 92.535156 158.136719 C 92.453125 157.683594 92.335938 157.289062 92.175781 156.957031 C 92.019531 156.625 91.820312 156.363281 91.585938 156.171875 C 91.351562 155.980469 91.078125 155.882812 90.769531 155.882812 C 90.453125 155.882812 90.179688 155.980469 89.941406 156.171875 C 89.707031 156.363281 89.511719 156.625 89.351562 156.957031 C 89.191406 157.289062 89.074219 157.683594 89 158.136719 C 88.921875 158.59375 88.882812 159.082031 88.882812 159.601562 C 88.882812 160.121094 88.921875 160.605469 89 161.0625 C 89.074219 161.519531 89.191406 161.917969 89.351562 162.253906 C 89.511719 162.589844 89.707031 162.851562 89.941406 163.046875 C 90.179688 163.238281 90.453125 163.332031 90.769531 163.332031 C 91.089844 163.332031 91.363281 163.238281 91.601562 163.046875 C 91.835938 162.851562 92.03125 162.589844 92.191406 162.253906 C 92.347656 161.917969 92.46875 161.519531 92.542969 161.0625 C 92.621094 160.605469 92.660156 160.121094 92.660156 159.601562 M 94.445312 159.601562 C 94.445312 160.40625 94.363281 161.140625 94.195312 161.800781 C 94.027344 162.457031 93.78125 163.019531 93.464844 163.492188 C 93.148438 163.960938 92.761719 164.328125 92.304688 164.585938 C 91.851562 164.847656 91.339844 164.976562 90.769531 164.976562 C 90.195312 164.976562 89.679688 164.847656 89.230469 164.585938 C 88.777344 164.328125 88.394531 163.960938 88.078125 163.492188 C 87.761719 163.019531 87.515625 162.457031 87.347656 161.800781 C 87.179688 161.140625 87.097656 160.40625 87.097656 159.601562 C 87.097656 158.792969 87.179688 158.0625 87.34375 157.410156 C 87.503906 156.757812 87.746094 156.195312 88.0625 155.722656 C 88.378906 155.253906 88.765625 154.890625 89.222656 154.636719 C 89.679688 154.382812 90.195312 154.253906 90.769531 154.253906 C 91.339844 154.253906 91.851562 154.382812 92.304688 154.636719 C 92.761719 154.890625 93.148438 155.253906 93.464844 155.722656 C 93.78125 156.195312 94.027344 156.757812 94.195312 157.410156 C 94.363281 158.0625 94.445312 158.792969 94.445312 159.601562 "/>
<path fill-rule="nonzero" fill="rgb(96.578979%, 54.22821%, 8.259583%)" fill-opacity="1" d="M 101.207031 156.140625 L 101.148438 156.140625 L 100.039062 161.199219 L 102.285156 161.199219 Z M 103.007812 164.71875 L 102.503906 162.554688 L 99.820312 162.554688 L 99.304688 164.71875 L 97.574219 164.71875 L 100.109375 154.515625 L 102.316406 154.515625 L 104.808594 164.71875 Z M 103.007812 164.71875 "/>
<path fill-rule="nonzero" fill="rgb(96.578979%, 54.22821%, 8.259583%)" fill-opacity="1" d="M 113.289062 164.601562 C 112.871094 164.851562 112.34375 164.976562 111.710938 164.976562 C 111.132812 164.976562 110.613281 164.839844 110.148438 164.574219 C 109.679688 164.304688 109.289062 163.929688 108.964844 163.457031 C 108.644531 162.980469 108.394531 162.417969 108.214844 161.761719 C 108.039062 161.109375 107.949219 160.394531 107.949219 159.613281 C 107.949219 158.835938 108.039062 158.117188 108.214844 157.460938 C 108.394531 156.804688 108.644531 156.234375 108.972656 155.761719 C 109.296875 155.285156 109.695312 154.914062 110.160156 154.652344 C 110.628906 154.386719 111.144531 154.253906 111.710938 154.253906 C 112.296875 154.253906 112.808594 154.363281 113.253906 154.578125 C 113.695312 154.796875 114.054688 155.105469 114.332031 155.507812 L 113.339844 156.71875 C 112.945312 156.152344 112.433594 155.867188 111.8125 155.867188 C 111.464844 155.867188 111.164062 155.96875 110.902344 156.164062 C 110.644531 156.359375 110.425781 156.628906 110.253906 156.964844 C 110.082031 157.300781 109.953125 157.695312 109.867188 158.152344 C 109.78125 158.609375 109.738281 159.097656 109.738281 159.613281 C 109.738281 160.125 109.78125 160.605469 109.867188 161.0625 C 109.953125 161.519531 110.082031 161.917969 110.253906 162.253906 C 110.425781 162.589844 110.648438 162.855469 110.910156 163.050781 C 111.175781 163.25 111.484375 163.347656 111.839844 163.347656 C 112.175781 163.347656 112.46875 163.261719 112.710938 163.089844 C 112.957031 162.917969 113.160156 162.703125 113.324219 162.453125 L 114.320312 163.621094 C 114.050781 164.023438 113.707031 164.351562 113.289062 164.601562 "/>
<path fill-rule="nonzero" fill="rgb(96.578979%, 54.22821%, 8.259583%)" fill-opacity="1" d="M 122.921875 164.71875 L 122.921875 160.191406 L 119.867188 160.191406 L 119.867188 164.71875 L 118.152344 164.71875 L 118.152344 154.515625 L 119.867188 154.515625 L 119.867188 158.648438 L 122.921875 158.648438 L 122.921875 154.515625 L 124.636719 154.515625 L 124.636719 164.71875 Z M 122.921875 164.71875 "/>
<path fill-rule="nonzero" fill="rgb(96.578979%, 54.22821%, 8.259583%)" fill-opacity="1" d="M 129.320312 154.515625 L 131.050781 154.515625 L 131.050781 164.71875 L 129.320312 164.71875 Z M 129.320312 154.515625 "/>
<path fill-rule="nonzero" fill="rgb(96.578979%, 54.22821%, 8.259583%)" fill-opacity="1" d="M 140.203125 164.71875 L 137.304688 157.511719 L 137.261719 157.511719 L 137.289062 164.71875 L 135.734375 164.71875 L 135.734375 154.515625 L 137.707031 154.515625 L 140.574219 161.761719 L 140.621094 161.761719 L 140.605469 154.515625 L 142.101562 154.515625 L 142.101562 164.71875 Z M 140.203125 164.71875 "/>
<path fill-rule="nonzero" fill="rgb(96.578979%, 54.22821%, 8.259583%)" fill-opacity="1" d="M 151.75 164.703125 C 151.324219 164.855469 150.8125 164.933594 150.214844 164.933594 C 149.609375 164.933594 149.066406 164.804688 148.589844 164.550781 C 148.105469 164.296875 147.703125 163.933594 147.371094 163.464844 C 147.039062 162.992188 146.785156 162.429688 146.605469 161.777344 C 146.429688 161.125 146.339844 160.398438 146.339844 159.601562 C 146.339844 158.820312 146.425781 158.105469 146.597656 157.453125 C 146.773438 156.800781 147.023438 156.234375 147.347656 155.761719 C 147.675781 155.285156 148.070312 154.914062 148.53125 154.652344 C 148.992188 154.386719 149.511719 154.253906 150.085938 154.253906 C 150.691406 154.253906 151.214844 154.363281 151.65625 154.578125 C 152.097656 154.796875 152.460938 155.101562 152.738281 155.492188 L 151.746094 156.703125 C 151.359375 156.148438 150.839844 155.867188 150.1875 155.867188 C 149.832031 155.867188 149.523438 155.96875 149.257812 156.171875 C 148.996094 156.375 148.773438 156.644531 148.601562 156.984375 C 148.429688 157.324219 148.300781 157.722656 148.214844 158.175781 C 148.128906 158.625 148.082031 159.101562 148.082031 159.601562 C 148.082031 160.121094 148.128906 160.605469 148.214844 161.0625 C 148.300781 161.519531 148.429688 161.917969 148.601562 162.257812 C 148.773438 162.601562 148.996094 162.867188 149.257812 163.058594 C 149.523438 163.253906 149.835938 163.347656 150.203125 163.347656 C 150.433594 163.347656 150.640625 163.320312 150.828125 163.269531 C 151.015625 163.214844 151.167969 163.144531 151.28125 163.058594 L 151.28125 160.421875 L 150.042969 160.421875 L 150.042969 158.921875 L 152.855469 158.921875 L 152.855469 164.097656 C 152.546875 164.347656 152.179688 164.550781 151.75 164.703125 "/>
<path fill-rule="nonzero" fill="rgb(96.578979%, 54.22821%, 8.259583%)" fill-opacity="1" d="M 167.617188 164.601562 C 167.199219 164.851562 166.671875 164.976562 166.039062 164.976562 C 165.460938 164.976562 164.941406 164.839844 164.476562 164.574219 C 164.011719 164.304688 163.617188 163.929688 163.292969 163.457031 C 162.972656 162.980469 162.722656 162.417969 162.546875 161.761719 C 162.367188 161.109375 162.277344 160.394531 162.277344 159.613281 C 162.277344 158.835938 162.367188 158.117188 162.546875 157.460938 C 162.722656 156.804688 162.972656 156.234375 163.300781 155.761719 C 163.628906 155.285156 164.023438 154.914062 164.492188 154.652344 C 164.957031 154.386719 165.472656 154.253906 166.039062 154.253906 C 166.625 154.253906 167.140625 154.363281 167.582031 154.578125 C 168.023438 154.796875 168.382812 155.105469 168.664062 155.507812 L 167.667969 156.71875 C 167.273438 156.152344 166.765625 155.867188 166.140625 155.867188 C 165.792969 155.867188 165.492188 155.96875 165.230469 156.164062 C 164.972656 156.359375 164.757812 156.628906 164.582031 156.964844 C 164.410156 157.300781 164.28125 157.695312 164.195312 158.152344 C 164.109375 158.609375 164.066406 159.097656 164.066406 159.613281 C 164.066406 160.125 164.109375 160.605469 164.195312 161.0625 C 164.28125 161.519531 164.410156 161.917969 164.582031 162.253906 C 164.757812 162.589844 164.976562 162.855469 165.242188 163.050781 C 165.503906 163.25 165.8125 163.347656 166.167969 163.347656 C 166.503906 163.347656 166.796875 163.261719 167.042969 163.089844 C 167.285156 162.917969 167.492188 162.703125 167.652344 162.453125 L 168.648438 163.621094 C 168.378906 164.023438 168.035156 164.351562 167.617188 164.601562 "/>
<path fill-rule="nonzero" fill="rgb(96.578979%, 54.22821%, 8.259583%)" fill-opacity="1" d="M 177.425781 159.601562 C 177.425781 159.082031 177.382812 158.59375 177.304688 158.136719 C 177.222656 157.683594 177.101562 157.289062 176.941406 156.957031 C 176.785156 156.625 176.585938 156.363281 176.351562 156.171875 C 176.117188 155.980469 175.84375 155.882812 175.535156 155.882812 C 175.21875 155.882812 174.945312 155.980469 174.707031 156.171875 C 174.472656 156.363281 174.277344 156.625 174.117188 156.957031 C 173.960938 157.289062 173.84375 157.683594 173.765625 158.136719 C 173.6875 158.59375 173.648438 159.082031 173.648438 159.601562 C 173.648438 160.121094 173.6875 160.605469 173.765625 161.0625 C 173.84375 161.519531 173.960938 161.917969 174.117188 162.253906 C 174.277344 162.589844 174.472656 162.851562 174.707031 163.046875 C 174.945312 163.238281 175.21875 163.332031 175.535156 163.332031 C 175.855469 163.332031 176.128906 163.238281 176.367188 163.046875 C 176.601562 162.851562 176.796875 162.589844 176.957031 162.253906 C 177.113281 161.917969 177.234375 161.519531 177.308594 161.0625 C 177.386719 160.605469 177.425781 160.121094 177.425781 159.601562 M 179.210938 159.601562 C 179.210938 160.40625 179.128906 161.140625 178.960938 161.800781 C 178.792969 162.457031 178.550781 163.019531 178.230469 163.492188 C 177.914062 163.960938 177.527344 164.328125 177.070312 164.585938 C 176.617188 164.847656 176.105469 164.976562 175.535156 164.976562 C 174.960938 164.976562 174.445312 164.847656 173.996094 164.585938 C 173.542969 164.328125 173.160156 163.960938 172.84375 163.492188 C 172.527344 163.019531 172.28125 162.457031 172.113281 161.800781 C 171.945312 161.140625 171.863281 160.40625 171.863281 159.601562 C 171.863281 158.792969 171.945312 158.0625 172.109375 157.410156 C 172.269531 156.757812 172.511719 156.195312 172.828125 155.722656 C 173.144531 155.253906 173.53125 154.890625 173.988281 154.636719 C 174.445312 154.382812 174.960938 154.253906 175.535156 154.253906 C 176.105469 154.253906 176.617188 154.382812 177.070312 154.636719 C 177.527344 154.890625 177.914062 155.253906 178.230469 155.722656 C 178.550781 156.195312 178.792969 156.757812 178.960938 157.410156 C 179.128906 158.0625 179.210938 158.792969 179.210938 159.601562 "/>
<path fill-rule="nonzero" fill="rgb(96.578979%, 54.22821%, 8.259583%)" fill-opacity="1" d="M 187.539062 157.511719 C 187.539062 157.203125 187.496094 156.949219 187.410156 156.746094 C 187.324219 156.546875 187.210938 156.386719 187.074219 156.273438 C 186.933594 156.15625 186.777344 156.074219 186.605469 156.027344 C 186.433594 155.980469 186.257812 155.953125 186.085938 155.953125 L 185.105469 155.953125 L 185.105469 159.097656 L 186.085938 159.097656 C 186.507812 159.097656 186.855469 158.964844 187.128906 158.699219 C 187.402344 158.4375 187.539062 158.039062 187.539062 157.511719 M 187.65625 164.714844 L 186.070312 160.363281 L 185.105469 160.363281 L 185.105469 164.714844 L 183.433594 164.714844 L 183.433594 154.515625 L 186.34375 154.515625 C 186.769531 154.515625 187.15625 154.570312 187.511719 154.679688 C 187.867188 154.789062 188.171875 154.964844 188.425781 155.207031 C 188.683594 155.445312 188.882812 155.75 189.027344 156.113281 C 189.171875 156.480469 189.242188 156.917969 189.242188 157.425781 C 189.242188 157.820312 189.191406 158.167969 189.089844 158.46875 C 188.988281 158.773438 188.863281 159.03125 188.710938 159.242188 C 188.554688 159.453125 188.382812 159.621094 188.195312 159.753906 C 188.007812 159.882812 187.824219 159.96875 187.640625 160.019531 L 189.472656 164.714844 Z M 187.65625 164.714844 "/>
<path fill-rule="nonzero" fill="rgb(96.578979%, 54.22821%, 8.259583%)" fill-opacity="1" d="M 197.929688 164.71875 L 195.207031 159.761719 L 195.164062 159.761719 L 195.164062 164.71875 L 193.433594 164.71875 L 193.433594 154.515625 L 195.164062 154.515625 L 195.164062 158.9375 L 195.207031 158.9375 L 197.800781 154.515625 L 199.746094 154.515625 L 196.75 159.210938 L 199.933594 164.71875 Z M 197.929688 164.71875 "/>
</svg>
