<?xml version="1.0" encoding="UTF-8"?>
<svg xmlns="http://www.w3.org/2000/svg" xmlns:xlink="http://www.w3.org/1999/xlink" width="276" height="187" viewBox="3 3 276 187">
<path fill-rule="nonzero" fill="rgb(11.372375%, 11.372375%, 10.588074%)" fill-opacity="1" d="M 42.964844 55.550781 L 42.964844 54.835938 C 42.964844 54.484375 42.882812 54.257812 42.71875 54.152344 C 42.554688 54.050781 42.285156 53.996094 41.90625 53.996094 L 36.90625 53.996094 L 36.90625 56.386719 L 41.90625 56.386719 C 42.285156 56.386719 42.554688 56.335938 42.71875 56.234375 C 42.882812 56.128906 42.964844 55.902344 42.964844 55.550781 M 42.910156 51.769531 L 42.910156 50.878906 C 42.910156 50.425781 42.578125 50.203125 41.90625 50.203125 L 36.90625 50.203125 L 36.90625 52.445312 L 41.90625 52.445312 C 42.578125 52.445312 42.910156 52.222656 42.910156 51.769531 M 45.007812 56.242188 C 45.007812 57.472656 44.085938 58.085938 42.234375 58.085938 L 34.753906 58.085938 L 34.753906 48.667969 L 42.820312 48.667969 C 44.230469 48.667969 44.9375 49.277344 44.9375 50.492188 L 44.9375 51.644531 C 44.9375 52.566406 44.394531 53.097656 43.3125 53.230469 C 44.445312 53.378906 45.007812 53.980469 45.007812 55.039062 Z M 45.007812 56.242188 "/>
<path fill-rule="nonzero" fill="rgb(11.372375%, 11.372375%, 10.588074%)" fill-opacity="1" d="M 59.917969 55.859375 C 59.917969 56.734375 59.75 57.324219 59.417969 57.628906 C 59.082031 57.933594 58.472656 58.085938 57.582031 58.085938 L 51.632812 58.085938 C 50.746094 58.085938 50.132812 57.933594 49.800781 57.628906 C 49.464844 57.324219 49.296875 56.734375 49.296875 55.859375 L 49.296875 48.667969 L 51.488281 48.667969 L 51.488281 56.316406 L 57.730469 56.316406 L 57.730469 48.667969 L 59.917969 48.667969 Z M 59.917969 55.859375 "/>
<path fill-rule="nonzero" fill="rgb(11.372375%, 11.372375%, 10.588074%)" fill-opacity="1" d="M 66.980469 58.085938 L 64.789062 58.085938 L 64.789062 48.667969 L 66.980469 48.667969 Z M 66.980469 58.085938 "/>
<path fill-rule="nonzero" fill="rgb(11.372375%, 11.372375%, 10.588074%)" fill-opacity="1" d="M 81.105469 58.085938 L 71.851562 58.085938 L 71.851562 48.667969 L 74.042969 48.667969 L 74.042969 56.316406 L 81.105469 56.316406 Z M 81.105469 58.085938 "/>
<path fill-rule="nonzero" fill="rgb(11.372375%, 11.372375%, 10.588074%)" fill-opacity="1" d="M 93.550781 53.285156 C 93.550781 51.328125 92.519531 50.347656 90.449219 50.347656 L 86.5625 50.347656 L 86.5625 56.316406 L 89.390625 56.316406 C 90.730469 56.316406 91.703125 56.144531 92.3125 55.804688 C 93.136719 55.34375 93.550781 54.503906 93.550781 53.285156 M 95.816406 53.320312 C 95.816406 55.148438 95.121094 56.492188 93.734375 57.355469 C 92.945312 57.84375 91.652344 58.085938 89.867188 58.085938 L 84.371094 58.085938 L 84.371094 48.667969 L 90.429688 48.667969 C 92.0625 48.667969 93.339844 49.035156 94.265625 49.765625 C 95.296875 50.566406 95.816406 51.753906 95.816406 53.320312 "/>
<path fill-rule="nonzero" fill="rgb(11.372375%, 11.372375%, 10.588074%)" fill-opacity="1" d="M 102.074219 58.085938 L 99.882812 58.085938 L 99.882812 48.667969 L 102.074219 48.667969 Z M 102.074219 58.085938 "/>
<path fill-rule="nonzero" fill="rgb(11.372375%, 11.372375%, 10.588074%)" fill-opacity="1" d="M 118.003906 58.085938 L 116.507812 58.085938 L 109.59375 52.265625 C 109.300781 52.019531 109.039062 51.765625 108.808594 51.496094 C 108.867188 52.105469 108.898438 52.585938 108.898438 52.941406 L 108.898438 58.085938 L 106.929688 58.085938 L 106.929688 48.667969 L 108.425781 48.667969 L 115.050781 54.214844 C 115.523438 54.617188 115.882812 54.957031 116.125 55.238281 C 116.066406 54.363281 116.035156 53.820312 116.035156 53.613281 L 116.035156 48.667969 L 118.003906 48.667969 Z M 118.003906 58.085938 "/>
<path fill-rule="nonzero" fill="rgb(11.372375%, 11.372375%, 10.588074%)" fill-opacity="1" d="M 133.828125 55.859375 C 133.828125 56.734375 133.660156 57.324219 133.324219 57.628906 C 132.992188 57.933594 132.378906 58.085938 131.492188 58.085938 L 124.996094 58.085938 C 124.105469 58.085938 123.496094 57.933594 123.160156 57.628906 C 122.828125 57.324219 122.660156 56.734375 122.660156 55.859375 L 122.660156 50.894531 C 122.660156 50.019531 122.828125 49.429688 123.160156 49.125 C 123.496094 48.820312 124.105469 48.667969 124.996094 48.667969 L 131.492188 48.667969 C 132.429688 48.667969 133.050781 48.832031 133.363281 49.152344 C 133.671875 49.476562 133.828125 50.097656 133.828125 51.023438 L 131.691406 51.40625 L 131.691406 50.347656 L 124.847656 50.347656 L 124.847656 56.316406 L 131.691406 56.316406 L 131.691406 54.214844 L 128.117188 54.214844 L 128.117188 52.609375 L 133.828125 52.609375 Z M 133.828125 55.859375 "/>
<path fill-rule="nonzero" fill="rgb(11.372375%, 11.372375%, 10.588074%)" fill-opacity="1" d="M 155.855469 55.859375 C 155.855469 56.734375 155.683594 57.324219 155.34375 57.628906 C 155.003906 57.933594 154.386719 58.085938 153.5 58.085938 L 147.679688 58.085938 C 146.71875 58.085938 146.085938 57.914062 145.78125 57.574219 C 145.476562 57.234375 145.324219 56.578125 145.324219 55.601562 L 147.257812 55.203125 L 147.257812 56.316406 L 153.917969 56.316406 L 153.917969 54.164062 L 148.042969 54.164062 C 147.15625 54.164062 146.542969 54.011719 146.210938 53.707031 C 145.875 53.402344 145.707031 52.8125 145.707031 51.933594 L 145.707031 50.894531 C 145.707031 50.019531 145.875 49.429688 146.210938 49.125 C 146.542969 48.820312 147.15625 48.667969 148.042969 48.667969 L 153.390625 48.667969 C 154.289062 48.667969 154.90625 48.824219 155.234375 49.132812 C 155.5625 49.445312 155.726562 50.042969 155.726562 50.933594 L 153.792969 51.386719 L 153.792969 50.3125 L 147.625 50.3125 L 147.625 52.335938 L 153.5 52.335938 C 154.386719 52.335938 155.003906 52.488281 155.34375 52.792969 C 155.683594 53.097656 155.855469 53.6875 155.855469 54.5625 Z M 155.855469 55.859375 "/>
<path fill-rule="nonzero" fill="rgb(11.372375%, 11.372375%, 10.588074%)" fill-opacity="1" d="M 170.179688 58.085938 L 160.453125 58.085938 L 160.453125 48.667969 L 170.089844 48.667969 L 170.089844 50.277344 L 162.644531 50.277344 L 162.644531 52.375 L 166.984375 52.375 L 166.984375 53.980469 L 162.644531 53.980469 L 162.644531 56.316406 L 170.179688 56.316406 Z M 170.179688 58.085938 "/>
<path fill-rule="nonzero" fill="rgb(11.372375%, 11.372375%, 10.588074%)" fill-opacity="1" d="M 182.351562 52.171875 L 182.351562 51.042969 C 182.351562 50.726562 182.261719 50.519531 182.078125 50.421875 C 181.945312 50.335938 181.707031 50.292969 181.367188 50.292969 L 176.441406 50.292969 L 176.441406 52.921875 L 181.367188 52.921875 C 181.707031 52.921875 181.945312 52.878906 182.078125 52.792969 C 182.261719 52.695312 182.351562 52.488281 182.351562 52.171875 M 185.457031 58.085938 L 182.316406 58.085938 L 178.519531 54.527344 L 176.441406 54.527344 L 176.441406 58.085938 L 174.285156 58.085938 L 174.285156 48.667969 L 182.351562 48.667969 C 183.765625 48.667969 184.46875 49.277344 184.46875 50.492188 L 184.46875 52.703125 C 184.46875 53.613281 184.105469 54.179688 183.375 54.398438 C 183.09375 54.484375 182.339844 54.527344 181.113281 54.527344 Z M 185.457031 58.085938 "/>
<path fill-rule="nonzero" fill="rgb(11.372375%, 11.372375%, 10.588074%)" fill-opacity="1" d="M 198.847656 48.667969 L 193.667969 58.085938 L 192.152344 58.085938 L 186.714844 48.667969 L 189.214844 48.667969 L 193.027344 55.476562 L 196.660156 48.667969 Z M 198.847656 48.667969 "/>
<path fill-rule="nonzero" fill="rgb(11.372375%, 11.372375%, 10.588074%)" fill-opacity="1" d="M 203.648438 58.085938 L 201.460938 58.085938 L 201.460938 48.667969 L 203.648438 48.667969 Z M 203.648438 58.085938 "/>
<path fill-rule="nonzero" fill="rgb(11.372375%, 11.372375%, 10.588074%)" fill-opacity="1" d="M 218.613281 55.859375 C 218.613281 56.734375 218.445312 57.324219 218.113281 57.628906 C 217.777344 57.933594 217.164062 58.085938 216.277344 58.085938 L 210.65625 58.085938 C 209.769531 58.085938 209.15625 57.933594 208.824219 57.628906 C 208.488281 57.324219 208.320312 56.734375 208.320312 55.859375 L 208.320312 50.894531 C 208.320312 50.019531 208.488281 49.429688 208.824219 49.125 C 209.15625 48.820312 209.769531 48.667969 210.65625 48.667969 L 216.277344 48.667969 C 217.398438 48.667969 218.089844 48.929688 218.359375 49.453125 C 218.527344 49.757812 218.613281 50.535156 218.613281 51.789062 L 216.421875 52.136719 L 216.421875 50.347656 L 210.511719 50.347656 L 210.511719 56.316406 L 216.421875 56.316406 L 216.421875 54.289062 L 218.613281 54.746094 Z M 218.613281 55.859375 "/>
<path fill-rule="nonzero" fill="rgb(11.372375%, 11.372375%, 10.588074%)" fill-opacity="1" d="M 232.921875 58.085938 L 223.195312 58.085938 L 223.195312 48.667969 L 232.828125 48.667969 L 232.828125 50.277344 L 225.382812 50.277344 L 225.382812 52.375 L 229.726562 52.375 L 229.726562 53.980469 L 225.382812 53.980469 L 225.382812 56.316406 L 232.921875 56.316406 Z M 232.921875 58.085938 "/>
<path fill-rule="nonzero" fill="rgb(11.372375%, 11.372375%, 10.588074%)" fill-opacity="1" d="M 247.246094 55.859375 C 247.246094 56.734375 247.074219 57.324219 246.734375 57.628906 C 246.394531 57.933594 245.78125 58.085938 244.890625 58.085938 L 239.070312 58.085938 C 238.109375 58.085938 237.476562 57.914062 237.171875 57.574219 C 236.867188 57.234375 236.71875 56.578125 236.71875 55.601562 L 238.652344 55.203125 L 238.652344 56.316406 L 245.3125 56.316406 L 245.3125 54.164062 L 239.4375 54.164062 C 238.546875 54.164062 237.9375 54.011719 237.601562 53.707031 C 237.265625 53.402344 237.101562 52.8125 237.101562 51.933594 L 237.101562 50.894531 C 237.101562 50.019531 237.265625 49.429688 237.601562 49.125 C 237.9375 48.820312 238.546875 48.667969 239.4375 48.667969 L 244.78125 48.667969 C 245.683594 48.667969 246.296875 48.824219 246.625 49.132812 C 246.953125 49.445312 247.117188 50.042969 247.117188 50.933594 L 245.183594 51.386719 L 245.183594 50.3125 L 239.015625 50.3125 L 239.015625 52.335938 L 244.890625 52.335938 C 245.78125 52.335938 246.394531 52.488281 246.734375 52.792969 C 247.074219 53.097656 247.246094 53.6875 247.246094 54.5625 Z M 247.246094 55.859375 "/>
<path fill-rule="nonzero" fill="rgb(83.137512%, 3.529358%, 8.235168%)" fill-opacity="1" d="M 22.667969 66.066406 C 19.523438 66.066406 17.53125 69.574219 17.53125 77.898438 C 17.53125 86.222656 19.523438 89.730469 22.667969 89.730469 C 25.8125 89.730469 27.804688 86.222656 27.804688 77.898438 C 27.804688 69.574219 25.8125 66.066406 22.667969 66.066406 M 22.667969 91.035156 C 15.726562 91.035156 10.703125 85.402344 10.703125 77.898438 C 10.703125 70.390625 15.726562 64.761719 22.667969 64.761719 C 29.609375 64.761719 34.632812 70.390625 34.632812 77.898438 C 34.632812 85.402344 29.609375 91.035156 22.667969 91.035156 "/>
<path fill-rule="nonzero" fill="rgb(83.137512%, 3.529358%, 8.235168%)" fill-opacity="1" d="M 52.308594 70.390625 C 52.308594 67.820312 50.660156 66.066406 48.242188 66.066406 C 46.441406 66.066406 44.296875 67.453125 44.296875 69.535156 C 44.296875 72.472656 48.089844 73.941406 50.160156 75.042969 C 51.273438 73.777344 52.308594 72.226562 52.308594 70.390625 M 46.289062 78.917969 C 43.835938 79.9375 42.953125 82.101562 42.953125 84.425781 C 42.953125 87.609375 45.175781 89.769531 48.167969 89.769531 C 50.351562 89.769531 53.269531 88.667969 53.269531 85.078125 C 53.269531 82.34375 49.511719 79.652344 46.289062 78.917969 M 48.320312 91.074219 C 44.027344 91.074219 36.664062 89.769531 36.664062 83.8125 C 36.664062 79.816406 41.726562 78.550781 44.5625 77.980469 L 44.5625 77.898438 C 41.917969 76.917969 38.617188 75.164062 38.617188 71.65625 C 38.617188 65.742188 44.0625 64.761719 48.320312 64.761719 C 51.425781 64.761719 57.984375 65.863281 57.984375 70.472656 C 57.984375 74.023438 54.53125 75.082031 51.886719 75.816406 L 51.886719 75.859375 C 55.070312 77.042969 59.558594 79.039062 59.558594 83.28125 C 59.558594 89.320312 52.769531 91.074219 48.320312 91.074219 "/>
<path fill-rule="nonzero" fill="rgb(83.137512%, 3.529358%, 8.235168%)" fill-opacity="1" d="M 85.363281 65.375 C 85.363281 68.800781 80.453125 73.371094 78.382812 75.980469 C 75.929688 79.039062 75.355469 81.488281 75.355469 86.789062 C 75.355469 88.015625 75.46875 89.238281 75.46875 90.464844 L 67.339844 90.464844 C 67.339844 84.222656 71.175781 79.082031 75.621094 75.449219 C 77.386719 73.980469 79.339844 72.472656 80.339844 70.269531 L 70.675781 70.269531 C 66.265625 70.269531 64.847656 70.800781 62.8125 73.246094 L 62.429688 73.246094 L 64.808594 65.375 Z M 85.363281 65.375 "/>
<path fill-rule="nonzero" fill="rgb(83.137512%, 3.529358%, 8.235168%)" fill-opacity="1" d="M 111.859375 89.769531 C 115.464844 89.769531 116.304688 85.773438 116.304688 82.425781 C 116.304688 79.082031 115.464844 75.082031 111.859375 75.082031 C 108.253906 75.082031 107.410156 79.082031 107.410156 82.425781 C 107.410156 85.773438 108.253906 89.769531 111.859375 89.769531 M 119.488281 73.125 C 119.066406 69.820312 116.691406 66.066406 113.238281 66.066406 C 108.023438 66.066406 106.566406 72.921875 106.757812 77.285156 L 106.835938 77.285156 C 108.523438 74.675781 110.363281 73.777344 113.316406 73.777344 C 117.726562 73.777344 123.132812 76.714844 123.132812 82.019531 C 123.132812 88.300781 117.1875 91.074219 112.089844 91.074219 C 105.761719 91.074219 100.277344 85.976562 100.277344 77.980469 C 100.277344 70.472656 104.992188 64.761719 113.160156 64.761719 C 116 64.761719 119.335938 65.699219 122.019531 66.554688 L 120.027344 73.410156 Z M 119.488281 73.125 "/>
<path fill-rule="nonzero" fill="rgb(83.137512%, 3.529358%, 8.235168%)" fill-opacity="1" d="M 137.320312 89.769531 C 140.921875 89.769531 141.765625 85.773438 141.765625 82.425781 C 141.765625 79.082031 140.921875 75.082031 137.320312 75.082031 C 133.714844 75.082031 132.871094 79.082031 132.871094 82.425781 C 132.871094 85.773438 133.714844 89.769531 137.320312 89.769531 M 144.949219 73.125 C 144.527344 69.820312 142.152344 66.066406 138.699219 66.066406 C 133.484375 66.066406 132.027344 72.921875 132.21875 77.285156 L 132.296875 77.285156 C 133.984375 74.675781 135.824219 73.777344 138.777344 73.777344 C 143.1875 73.777344 148.59375 76.714844 148.59375 82.019531 C 148.59375 88.300781 142.648438 91.074219 137.550781 91.074219 C 131.222656 91.074219 125.738281 85.976562 125.738281 77.980469 C 125.738281 70.472656 130.457031 64.761719 138.625 64.761719 C 141.460938 64.761719 144.796875 65.699219 147.480469 66.554688 L 145.488281 73.410156 Z M 144.949219 73.125 "/>
<path fill-rule="nonzero" fill="rgb(83.137512%, 3.529358%, 8.235168%)" fill-opacity="1" d="M 166.882812 73.695312 C 166.882812 70.066406 166.039062 66.066406 162.433594 66.066406 C 158.832031 66.066406 157.984375 70.066406 157.984375 73.695312 C 157.984375 77.328125 158.832031 81.324219 162.433594 81.324219 C 166.039062 81.324219 166.882812 77.328125 166.882812 73.695312 M 154.265625 82.425781 L 155.035156 82.710938 C 155.457031 86.015625 157.832031 89.769531 161.359375 89.769531 C 166.578125 89.769531 168.035156 82.914062 167.839844 78.550781 L 167.765625 78.550781 C 165.769531 81.894531 163.929688 82.628906 160.976562 82.628906 C 156.566406 82.628906 151.160156 79.855469 151.160156 74.554688 C 151.160156 67.535156 157.335938 64.761719 162.203125 64.761719 C 168.53125 64.761719 174.015625 69.863281 174.015625 76.835938 C 174.015625 85.363281 169.296875 91.074219 161.132812 91.074219 C 158.292969 91.074219 154.957031 90.136719 152.273438 89.28125 Z M 154.265625 82.425781 "/>
<path fill-rule="nonzero" fill="rgb(83.137512%, 3.529358%, 8.235168%)" fill-opacity="1" d="M 177.8125 66.515625 C 180.917969 65.539062 183.523438 64.761719 186.820312 64.761719 C 190.617188 64.761719 197.289062 65.660156 197.289062 71.003906 C 197.289062 75.410156 192.652344 76.511719 189.351562 76.878906 L 189.351562 76.960938 C 192.726562 77.285156 198.363281 78.957031 198.363281 83.488281 C 198.363281 89.648438 191.730469 91.074219 187.128906 91.074219 C 183.449219 91.074219 179.691406 90.464844 176.316406 88.914062 L 178.425781 81.40625 L 179.113281 81.773438 C 179.113281 86.015625 182.144531 89.769531 186.324219 89.769531 C 189.699219 89.769531 191.386719 86.875 191.386719 83.570312 C 191.386719 79.9375 188.929688 77.652344 186.246094 77.613281 C 185.441406 77.613281 184.523438 77.859375 183.792969 78.144531 L 183.792969 75.859375 C 184.523438 76.144531 185.441406 76.304688 186.246094 76.304688 C 189.007812 76.304688 190.464844 73.574219 190.464844 70.921875 C 190.464844 68.148438 188.703125 66.066406 186.054688 66.066406 C 182.757812 66.066406 180.417969 69.820312 179.957031 72.960938 L 179.269531 73.246094 Z M 177.8125 66.515625 "/>
<path fill-rule="nonzero" fill="rgb(83.137512%, 3.529358%, 8.235168%)" fill-opacity="1" d="M 202.621094 90.464844 C 202.621094 84.425781 208.292969 81.203125 212.589844 78.429688 C 214.890625 76.917969 215.847656 74.308594 215.847656 71.574219 C 215.847656 68.515625 214.390625 66.066406 211.246094 66.066406 C 208.292969 66.066406 205.992188 69.902344 205.074219 73.695312 L 204.574219 73.980469 L 202.886719 66.71875 C 205.726562 65.375 208.871094 64.761719 211.976562 64.761719 C 216.269531 64.761719 222.675781 66.800781 222.675781 72.511719 C 222.675781 77.449219 217.84375 79.691406 214.007812 80.632812 C 211.324219 81.285156 207.566406 82.140625 207.183594 85.566406 L 216.15625 85.566406 C 219.183594 85.566406 221.523438 84.710938 223.019531 81.691406 L 223.671875 81.691406 L 221.027344 90.464844 Z M 202.621094 90.464844 "/>
<path fill-rule="nonzero" fill="rgb(83.137512%, 3.529358%, 8.235168%)" fill-opacity="1" d="M 239.164062 89.769531 C 242.765625 89.769531 243.609375 85.773438 243.609375 82.425781 C 243.609375 79.082031 242.765625 75.082031 239.164062 75.082031 C 235.558594 75.082031 234.714844 79.082031 234.714844 82.425781 C 234.714844 85.773438 235.558594 89.769531 239.164062 89.769531 M 246.792969 73.125 C 246.371094 69.820312 243.996094 66.066406 240.542969 66.066406 C 235.328125 66.066406 233.871094 72.921875 234.0625 77.285156 L 234.140625 77.285156 C 235.828125 74.675781 237.667969 73.777344 240.621094 73.777344 C 245.03125 73.777344 250.4375 76.714844 250.4375 82.019531 C 250.4375 88.300781 244.492188 91.074219 239.394531 91.074219 C 233.066406 91.074219 227.582031 85.976562 227.582031 77.980469 C 227.582031 70.472656 232.296875 64.761719 240.464844 64.761719 C 243.304688 64.761719 246.640625 65.699219 249.324219 66.554688 L 247.332031 73.410156 Z M 246.792969 73.125 "/>
<path fill-rule="nonzero" fill="rgb(83.137512%, 3.529358%, 8.235168%)" fill-opacity="1" d="M 267.460938 85.078125 C 267.460938 87.894531 268.152344 89.730469 271.296875 89.890625 L 271.296875 90.625 C 269.035156 90.625 266.695312 90.460938 264.46875 90.460938 C 262.246094 90.460938 259.90625 90.625 257.644531 90.625 L 257.644531 89.890625 C 260.789062 89.730469 261.480469 87.894531 261.480469 85.078125 L 261.480469 70.921875 C 261.480469 68.597656 260.367188 67.453125 258.183594 67.25 L 258.183594 66.515625 C 261.285156 66.027344 264.433594 65.539062 267.460938 64.761719 Z M 267.460938 85.078125 "/>
<path fill-rule="nonzero" fill="rgb(83.137512%, 3.529358%, 8.235168%)" fill-opacity="1" d="M 13.210938 27.003906 L 15.351562 27.003906 C 18.742188 27.003906 22.535156 25.847656 22.535156 21.636719 C 22.535156 17.171875 18.742188 16.226562 15.351562 16.226562 L 13.210938 16.226562 Z M 6.105469 20.175781 C 6.105469 17.34375 5.625 15.796875 3.726562 15.367188 L 3.726562 14.679688 C 5.339844 14.679688 6.957031 14.722656 8.53125 14.765625 C 10.144531 14.808594 11.71875 14.851562 13.171875 14.851562 L 20.515625 14.851562 C 27.054688 14.851562 30.285156 17.429688 30.285156 21.292969 C 30.285156 26.660156 24.269531 27.863281 20.316406 27.863281 L 20.316406 27.949219 C 25.039062 28.722656 26.972656 29.839844 28.789062 34.648438 C 30.929688 40.359375 31.738281 41.21875 33.996094 41.820312 L 33.996094 42.507812 C 32.34375 42.507812 30.40625 42.335938 28.910156 42.335938 C 27.378906 42.335938 25.640625 42.507812 23.988281 42.507812 L 21.847656 35.679688 C 20.71875 32.585938 19.0625 28.378906 15.351562 28.378906 L 13.210938 28.378906 L 13.210938 34.175781 C 13.210938 38.042969 13.371094 41.476562 16.320312 41.648438 L 16.320312 42.507812 C 14.097656 42.507812 11.796875 42.335938 9.660156 42.335938 C 7.519531 42.335938 5.21875 42.507812 3 42.507812 L 3 41.648438 C 5.945312 41.476562 6.105469 38.042969 6.105469 34.175781 Z M 6.105469 20.175781 "/>
<path fill-rule="nonzero" fill="rgb(83.137512%, 3.529358%, 8.235168%)" fill-opacity="1" d="M 50.386719 41.820312 C 54.824219 41.820312 57.730469 37.699219 57.730469 28.59375 C 57.730469 19.492188 54.824219 15.367188 50.386719 15.367188 C 45.945312 15.367188 43.039062 19.492188 43.039062 28.59375 C 43.039062 37.699219 45.945312 41.820312 50.386719 41.820312 M 50.386719 13.992188 C 58.175781 13.992188 65.640625 19.019531 65.640625 28.59375 C 65.640625 38.167969 58.175781 43.195312 50.386719 43.195312 C 42.59375 43.195312 35.128906 38.167969 35.128906 28.59375 C 35.128906 19.019531 42.59375 13.992188 50.386719 13.992188 "/>
<path fill-rule="nonzero" fill="rgb(83.137512%, 3.529358%, 8.235168%)" fill-opacity="1" d="M 68.429688 14.679688 C 70.003906 14.679688 71.65625 14.851562 73.109375 14.851562 C 74.5625 14.851562 76.378906 14.679688 77.953125 14.679688 L 93.898438 31.214844 L 93.898438 24.042969 C 93.898438 20.992188 93.289062 16.3125 89.902344 15.410156 L 89.902344 14.679688 C 91.554688 14.679688 93.410156 14.851562 94.90625 14.851562 C 96.398438 14.851562 98.09375 14.679688 99.75 14.679688 L 99.75 15.367188 C 96.480469 16.3125 95.390625 20.992188 95.390625 24.042969 L 95.390625 41.820312 C 95.390625 42.894531 94.90625 43.195312 94.621094 43.195312 L 94.542969 43.195312 C 94.179688 43.195312 93.574219 42.464844 93.210938 42.035156 L 73.3125 19.878906 L 73.3125 33.144531 C 73.3125 36.195312 73.917969 40.875 77.308594 41.777344 L 77.308594 42.507812 C 75.652344 42.507812 73.796875 42.335938 72.304688 42.335938 C 70.808594 42.335938 69.113281 42.507812 67.460938 42.507812 L 67.460938 41.820312 C 70.730469 40.875 71.820312 36.195312 71.820312 33.144531 L 71.820312 22.238281 C 71.820312 18.890625 71.65625 16.097656 68.429688 15.367188 Z M 68.429688 14.679688 "/>
<path fill-rule="nonzero" fill="rgb(83.137512%, 3.529358%, 8.235168%)" fill-opacity="1" d="M 108.46875 29.882812 L 115.734375 29.882812 L 112.058594 22.109375 Z M 107.820312 31.34375 L 106.289062 34.691406 C 105.765625 36.023438 105.320312 37.355469 105.320312 38.214844 C 105.320312 40.359375 106.570312 41.261719 108.386719 41.648438 L 108.386719 42.507812 C 106.730469 42.507812 104.875 42.335938 103.382812 42.335938 C 101.890625 42.335938 100.195312 42.507812 98.539062 42.507812 L 98.539062 41.734375 C 99.710938 41.476562 102.253906 39.15625 104.351562 34.949219 L 113.996094 15.496094 C 114.238281 14.980469 114.722656 13.992188 114.964844 13.992188 L 115.046875 13.992188 C 115.328125 13.992188 115.976562 15.109375 116.21875 15.625 L 126.710938 36.582031 C 128.609375 40.316406 129.738281 41.261719 130.988281 41.519531 L 130.988281 42.507812 C 128.769531 42.507812 126.1875 42.335938 124.128906 42.335938 C 122.109375 42.335938 119.808594 42.507812 117.550781 42.507812 L 117.550781 41.648438 C 118.839844 41.347656 119.730469 41.175781 119.730469 39.542969 C 119.730469 38.554688 119.121094 36.925781 118.355469 35.378906 L 116.378906 31.34375 Z M 107.820312 31.34375 "/>
<path fill-rule="nonzero" fill="rgb(83.137512%, 3.529358%, 8.235168%)" fill-opacity="1" d="M 130.789062 14.679688 C 132.363281 14.679688 134.019531 14.851562 135.472656 14.851562 C 136.925781 14.851562 138.738281 14.679688 140.3125 14.679688 L 156.257812 31.214844 L 156.257812 24.042969 C 156.257812 20.992188 155.652344 16.3125 152.261719 15.410156 L 152.261719 14.679688 C 153.917969 14.679688 155.773438 14.851562 157.265625 14.851562 C 158.757812 14.851562 160.453125 14.679688 162.109375 14.679688 L 162.109375 15.367188 C 158.839844 16.3125 157.75 20.992188 157.75 24.042969 L 157.75 41.820312 C 157.75 42.894531 157.265625 43.195312 156.984375 43.195312 L 156.902344 43.195312 C 156.539062 43.195312 155.933594 42.464844 155.570312 42.035156 L 135.671875 19.878906 L 135.671875 33.144531 C 135.671875 36.195312 136.277344 40.875 139.667969 41.777344 L 139.667969 42.507812 C 138.015625 42.507812 136.15625 42.335938 134.664062 42.335938 C 133.171875 42.335938 131.476562 42.507812 129.820312 42.507812 L 129.820312 41.820312 C 133.089844 40.875 134.179688 36.195312 134.179688 33.144531 L 134.179688 22.238281 C 134.179688 18.890625 134.019531 16.097656 130.789062 15.367188 Z M 130.789062 14.679688 "/>
<path fill-rule="nonzero" fill="rgb(83.137512%, 3.529358%, 8.235168%)" fill-opacity="1" d="M 177.691406 20.175781 C 177.691406 16.269531 177.207031 15.582031 175.632812 15.367188 L 175.632812 14.679688 C 177.488281 14.679688 179.425781 14.851562 181.242188 14.851562 C 183.058594 14.851562 184.996094 14.679688 186.972656 14.679688 L 186.972656 15.367188 C 185.277344 15.796875 184.792969 16.484375 184.792969 20.175781 L 184.792969 27.132812 L 191.25 20.863281 C 192.058594 20.089844 193.148438 18.246094 193.148438 17.472656 C 193.148438 16.183594 192.460938 15.753906 191.210938 15.453125 L 191.210938 14.679688 C 193.066406 14.679688 195.003906 14.851562 196.820312 14.851562 C 198.636719 14.851562 200.574219 14.679688 202.433594 14.679688 L 202.433594 15.539062 C 199.484375 16.742188 196.863281 18.546875 194.359375 20.5625 L 187.132812 26.875 L 187.132812 26.960938 C 191.9375 26.960938 195.046875 27.992188 197.953125 33.660156 C 199.890625 37.441406 201.421875 40.617188 203.84375 41.949219 L 203.84375 42.335938 L 194.277344 42.335938 C 194.078125 42.335938 193.875 42.207031 193.792969 41.992188 L 190.121094 33.015625 C 189.4375 31.382812 188.464844 28.507812 186.410156 28.507812 C 185.277344 28.507812 184.792969 29.324219 184.792969 30.871094 L 184.792969 34.003906 C 184.792969 39.070312 184.957031 41.304688 187.539062 41.476562 L 187.539062 42.335938 L 174.867188 42.335938 L 174.867188 41.476562 C 177.53125 41.304688 177.691406 37.867188 177.691406 34.003906 Z M 177.691406 20.175781 "/>
<path fill-rule="nonzero" fill="rgb(83.137512%, 3.529358%, 8.235168%)" fill-opacity="1" d="M 206.46875 19.105469 C 206.46875 16.183594 205.703125 15.796875 204.410156 15.367188 L 204.410156 14.679688 C 206.265625 14.679688 208.207031 14.851562 210.023438 14.851562 C 211.835938 14.851562 213.773438 14.679688 215.632812 14.679688 L 215.632812 15.367188 C 214.058594 15.796875 213.574219 16.828125 213.574219 19.191406 L 213.574219 34.003906 C 213.574219 37.867188 213.734375 41.304688 216.359375 41.476562 L 216.359375 42.335938 L 203.363281 42.335938 L 203.363281 41.476562 C 206.308594 41.304688 206.46875 37.867188 206.46875 34.003906 Z M 206.46875 19.105469 "/>
<path fill-rule="nonzero" fill="rgb(83.137512%, 3.529358%, 8.235168%)" fill-opacity="1" d="M 217.449219 14.679688 C 219.023438 14.679688 220.675781 14.851562 222.128906 14.851562 C 223.582031 14.851562 225.398438 14.679688 226.972656 14.679688 L 242.917969 31.214844 L 242.917969 24.042969 C 242.917969 20.992188 242.308594 16.3125 238.921875 15.410156 L 238.921875 14.679688 C 240.574219 14.679688 242.429688 14.851562 243.925781 14.851562 C 245.417969 14.851562 247.113281 14.679688 248.769531 14.679688 L 248.769531 15.367188 C 245.5 16.3125 244.410156 20.992188 244.410156 24.042969 L 244.410156 41.820312 C 244.410156 42.894531 243.925781 43.195312 243.640625 43.195312 L 243.5625 43.195312 C 243.199219 43.195312 242.59375 42.464844 242.230469 42.035156 L 222.332031 19.878906 L 222.332031 33.144531 C 222.332031 36.195312 222.9375 40.875 226.328125 41.777344 L 226.328125 42.507812 C 224.671875 42.507812 222.816406 42.335938 221.324219 42.335938 C 219.828125 42.335938 218.132812 42.507812 216.480469 42.507812 L 216.480469 41.820312 C 219.75 40.875 220.839844 36.195312 220.839844 33.144531 L 220.839844 22.238281 C 220.839844 18.890625 220.675781 16.097656 217.449219 15.367188 Z M 217.449219 14.679688 "/>
<path fill-rule="nonzero" fill="rgb(83.137512%, 3.529358%, 8.235168%)" fill-opacity="1" d="M 269.191406 34.003906 C 269.191406 30.183594 268.34375 29.539062 264.996094 29.023438 L 264.996094 28.335938 C 267.335938 28.335938 269.757812 28.507812 271.855469 28.507812 C 273.996094 28.507812 276.660156 28.335938 279 28.335938 L 279 29.023438 C 276.738281 29.195312 276.296875 31.171875 276.296875 35.121094 C 276.296875 36.667969 276.296875 38.210938 276.78125 39.757812 C 272.703125 41.992188 269.109375 43.191406 263.824219 43.191406 C 256.035156 43.191406 248.566406 38.167969 248.566406 28.59375 C 248.566406 19.019531 256.035156 13.996094 263.824219 13.996094 C 268.828125 13.996094 273.226562 15.023438 276.496094 16.828125 L 274.035156 25.160156 L 273.390625 25.160156 C 272.746094 20.046875 270.402344 15.367188 264.953125 15.367188 C 258.457031 15.367188 256.476562 23.3125 256.476562 28.59375 C 256.476562 33.832031 257.769531 41.820312 264.347656 41.820312 C 267.496094 41.820312 269.191406 39.800781 269.191406 36.539062 Z M 269.191406 34.003906 "/>
<path fill-rule="nonzero" fill="rgb(70.980835%, 51.765442%, 23.529053%)" fill-opacity="1" d="M 264.546875 10.710938 L 262.234375 6.996094 L 264.425781 3 L 266.738281 6.714844 Z M 264.546875 10.710938 "/>
<path fill-rule="nonzero" fill="rgb(70.980835%, 51.765442%, 23.529053%)" fill-opacity="1" d="M 268.015625 11.09375 L 266.984375 7.394531 L 269.816406 4.566406 L 270.847656 8.269531 Z M 268.015625 11.09375 "/>
<path fill-rule="nonzero" fill="rgb(70.980835%, 51.765442%, 23.529053%)" fill-opacity="1" d="M 271.550781 11.859375 L 271.003906 9.035156 L 273.289062 7.09375 L 273.835938 9.921875 Z M 271.550781 11.859375 "/>
<path fill-rule="nonzero" fill="rgb(70.980835%, 51.765442%, 23.529053%)" fill-opacity="1" d="M 260.957031 11.09375 L 261.988281 7.394531 L 259.15625 4.566406 L 258.125 8.269531 Z M 260.957031 11.09375 "/>
<path fill-rule="nonzero" fill="rgb(70.980835%, 51.765442%, 23.529053%)" fill-opacity="1" d="M 257.421875 11.859375 L 257.96875 9.035156 L 255.683594 7.09375 L 255.136719 9.921875 Z M 257.421875 11.859375 "/>
<path fill-rule="nonzero" fill="rgb(70.980835%, 51.765442%, 23.529053%)" fill-opacity="1" d="M 264.488281 12.40625 C 264.488281 12.40625 264.488281 12.40625 264.492188 12.40625 C 269.265625 12.507812 272.132812 13.429688 274.828125 15.320312 L 274.75 12.429688 C 274.703125 10.746094 268.535156 9.210938 264.488281 9.28125 C 260.4375 9.210938 254.269531 10.746094 254.222656 12.429688 L 254.144531 15.320312 C 256.757812 13.714844 259.9375 12.375 264.484375 12.40625 Z M 264.488281 12.40625 "/>
<path fill-rule="nonzero" fill="rgb(11.372375%, 11.372375%, 10.588074%)" fill-opacity="1" d="M 42.929688 154.503906 L 42.929688 153.792969 C 42.929688 153.441406 42.847656 153.214844 42.683594 153.109375 C 42.519531 153.007812 42.25 152.953125 41.875 152.953125 L 36.878906 152.953125 L 36.878906 155.34375 L 41.875 155.34375 C 42.25 155.34375 42.519531 155.292969 42.683594 155.1875 C 42.847656 155.085938 42.929688 154.855469 42.929688 154.503906 M 42.875 150.730469 L 42.875 149.835938 C 42.875 149.386719 42.542969 149.164062 41.875 149.164062 L 36.878906 149.164062 L 36.878906 151.40625 L 41.875 151.40625 C 42.542969 151.40625 42.875 151.179688 42.875 150.730469 M 44.972656 155.199219 C 44.972656 156.425781 44.050781 157.039062 42.203125 157.039062 L 34.726562 157.039062 L 34.726562 147.628906 L 42.785156 147.628906 C 44.195312 147.628906 44.902344 148.238281 44.902344 149.453125 L 44.902344 150.601562 C 44.902344 151.527344 44.359375 152.054688 43.277344 152.1875 C 44.410156 152.335938 44.972656 152.9375 44.972656 153.992188 Z M 44.972656 155.199219 "/>
<path fill-rule="nonzero" fill="rgb(11.372375%, 11.372375%, 10.588074%)" fill-opacity="1" d="M 59.871094 154.8125 C 59.871094 155.6875 59.703125 156.28125 59.371094 156.582031 C 59.035156 156.886719 58.421875 157.039062 57.535156 157.039062 L 51.59375 157.039062 C 50.703125 157.039062 50.09375 156.886719 49.757812 156.582031 C 49.425781 156.28125 49.257812 155.6875 49.257812 154.8125 L 49.257812 147.628906 L 51.445312 147.628906 L 51.445312 155.269531 L 57.683594 155.269531 L 57.683594 147.628906 L 59.871094 147.628906 Z M 59.871094 154.8125 "/>
<path fill-rule="nonzero" fill="rgb(11.372375%, 11.372375%, 10.588074%)" fill-opacity="1" d="M 66.925781 157.039062 L 64.738281 157.039062 L 64.738281 147.632812 L 66.925781 147.632812 Z M 66.925781 157.039062 "/>
<path fill-rule="nonzero" fill="rgb(11.372375%, 11.372375%, 10.588074%)" fill-opacity="1" d="M 81.039062 157.039062 L 71.792969 157.039062 L 71.792969 147.628906 L 73.984375 147.628906 L 73.984375 155.269531 L 81.039062 155.269531 Z M 81.039062 157.039062 "/>
<path fill-rule="nonzero" fill="rgb(11.372375%, 11.372375%, 10.588074%)" fill-opacity="1" d="M 93.476562 152.242188 C 93.476562 150.285156 92.441406 149.308594 90.375 149.308594 L 86.492188 149.308594 L 86.492188 155.269531 L 89.316406 155.269531 C 90.65625 155.269531 91.625 155.097656 92.234375 154.757812 C 93.0625 154.296875 93.476562 153.460938 93.476562 152.242188 M 95.734375 152.28125 C 95.734375 154.101562 95.042969 155.445312 93.65625 156.308594 C 92.867188 156.796875 91.578125 157.039062 89.792969 157.039062 L 84.304688 157.039062 L 84.304688 147.628906 L 90.355469 147.628906 C 91.984375 147.628906 93.261719 147.996094 94.1875 148.722656 C 95.21875 149.527344 95.734375 150.710938 95.734375 152.28125 "/>
<path fill-rule="nonzero" fill="rgb(11.372375%, 11.372375%, 10.588074%)" fill-opacity="1" d="M 101.988281 157.039062 L 99.800781 157.039062 L 99.800781 147.632812 L 101.988281 147.632812 Z M 101.988281 157.039062 "/>
<path fill-rule="nonzero" fill="rgb(11.372375%, 11.372375%, 10.588074%)" fill-opacity="1" d="M 117.90625 157.039062 L 116.414062 157.039062 L 109.5 151.222656 C 109.210938 150.980469 108.949219 150.722656 108.71875 150.457031 C 108.777344 151.066406 108.808594 151.542969 108.808594 151.898438 L 108.808594 157.039062 L 106.839844 157.039062 L 106.839844 147.628906 L 108.335938 147.628906 L 114.953125 153.171875 C 115.425781 153.574219 115.785156 153.914062 116.03125 154.195312 C 115.96875 153.320312 115.9375 152.777344 115.9375 152.570312 L 115.9375 147.628906 L 117.90625 147.628906 Z M 117.90625 157.039062 "/>
<path fill-rule="nonzero" fill="rgb(11.372375%, 11.372375%, 10.588074%)" fill-opacity="1" d="M 133.714844 154.8125 C 133.714844 155.6875 133.550781 156.28125 133.214844 156.582031 C 132.878906 156.886719 132.269531 157.039062 131.382812 157.039062 L 124.890625 157.039062 C 124.003906 157.039062 123.394531 156.886719 123.058594 156.582031 C 122.722656 156.28125 122.558594 155.6875 122.558594 154.8125 L 122.558594 149.855469 C 122.558594 148.980469 122.722656 148.390625 123.058594 148.085938 C 123.394531 147.78125 124.003906 147.628906 124.890625 147.628906 L 131.382812 147.628906 C 132.316406 147.628906 132.941406 147.792969 133.25 148.113281 C 133.5625 148.433594 133.714844 149.058594 133.714844 149.980469 L 131.582031 150.367188 L 131.582031 149.308594 L 124.746094 149.308594 L 124.746094 155.269531 L 131.582031 155.269531 L 131.582031 153.171875 L 128.007812 153.171875 L 128.007812 151.566406 L 133.714844 151.566406 Z M 133.714844 154.8125 "/>
<path fill-rule="nonzero" fill="rgb(11.372375%, 11.372375%, 10.588074%)" fill-opacity="1" d="M 155.726562 154.8125 C 155.726562 155.6875 155.554688 156.28125 155.214844 156.582031 C 154.875 156.886719 154.261719 157.039062 153.371094 157.039062 L 147.554688 157.039062 C 146.59375 157.039062 145.960938 156.867188 145.660156 156.527344 C 145.355469 156.1875 145.203125 155.53125 145.203125 154.558594 L 147.136719 154.15625 L 147.136719 155.269531 L 153.792969 155.269531 L 153.792969 153.117188 L 147.917969 153.117188 C 147.03125 153.117188 146.421875 152.964844 146.085938 152.664062 C 145.753906 152.359375 145.585938 151.769531 145.585938 150.894531 L 145.585938 149.855469 C 145.585938 148.980469 145.753906 148.390625 146.085938 148.085938 C 146.421875 147.78125 147.03125 147.628906 147.917969 147.628906 L 153.265625 147.628906 C 154.164062 147.628906 154.777344 147.785156 155.105469 148.09375 C 155.433594 148.40625 155.597656 149.003906 155.597656 149.890625 L 153.664062 150.347656 L 153.664062 149.269531 L 147.5 149.269531 L 147.5 151.296875 L 153.371094 151.296875 C 154.261719 151.296875 154.875 151.449219 155.214844 151.75 C 155.554688 152.054688 155.726562 152.644531 155.726562 153.519531 Z M 155.726562 154.8125 "/>
<path fill-rule="nonzero" fill="rgb(11.372375%, 11.372375%, 10.588074%)" fill-opacity="1" d="M 170.039062 157.039062 L 160.320312 157.039062 L 160.320312 147.628906 L 169.945312 147.628906 L 169.945312 149.234375 L 162.507812 149.234375 L 162.507812 151.332031 L 166.847656 151.332031 L 166.847656 152.9375 L 162.507812 152.9375 L 162.507812 155.269531 L 170.039062 155.269531 Z M 170.039062 157.039062 "/>
<path fill-rule="nonzero" fill="rgb(11.372375%, 11.372375%, 10.588074%)" fill-opacity="1" d="M 182.199219 151.132812 L 182.199219 150 C 182.199219 149.683594 182.109375 149.476562 181.925781 149.382812 C 181.792969 149.296875 181.554688 149.253906 181.214844 149.253906 L 176.292969 149.253906 L 176.292969 151.878906 L 181.214844 151.878906 C 181.554688 151.878906 181.792969 151.835938 181.925781 151.75 C 182.109375 151.652344 182.199219 151.445312 182.199219 151.132812 M 185.300781 157.039062 L 182.164062 157.039062 L 178.371094 153.484375 L 176.292969 153.484375 L 176.292969 157.039062 L 174.140625 157.039062 L 174.140625 147.628906 L 182.199219 147.628906 C 183.609375 147.628906 184.316406 148.238281 184.316406 149.453125 L 184.316406 151.660156 C 184.316406 152.570312 183.949219 153.136719 183.222656 153.355469 C 182.941406 153.441406 182.1875 153.484375 180.960938 153.484375 Z M 185.300781 157.039062 "/>
<path fill-rule="nonzero" fill="rgb(11.372375%, 11.372375%, 10.588074%)" fill-opacity="1" d="M 198.683594 147.628906 L 193.503906 157.039062 L 191.992188 157.039062 L 186.558594 147.628906 L 189.054688 147.628906 L 192.867188 154.429688 L 196.496094 147.628906 Z M 198.683594 147.628906 "/>
<path fill-rule="nonzero" fill="rgb(11.372375%, 11.372375%, 10.588074%)" fill-opacity="1" d="M 203.480469 157.039062 L 201.289062 157.039062 L 201.289062 147.632812 L 203.480469 147.632812 Z M 203.480469 157.039062 "/>
<path fill-rule="nonzero" fill="rgb(11.372375%, 11.372375%, 10.588074%)" fill-opacity="1" d="M 218.429688 154.8125 C 218.429688 155.6875 218.261719 156.28125 217.929688 156.582031 C 217.59375 156.886719 216.984375 157.039062 216.097656 157.039062 L 210.480469 157.039062 C 209.59375 157.039062 208.980469 156.886719 208.648438 156.582031 C 208.3125 156.28125 208.144531 155.6875 208.144531 154.8125 L 208.144531 149.855469 C 208.144531 148.980469 208.3125 148.390625 208.648438 148.085938 C 208.980469 147.78125 209.59375 147.628906 210.480469 147.628906 L 216.097656 147.628906 C 217.214844 147.628906 217.90625 147.890625 218.175781 148.414062 C 218.34375 148.71875 218.429688 149.496094 218.429688 150.75 L 216.242188 151.09375 L 216.242188 149.308594 L 210.335938 149.308594 L 210.335938 155.269531 L 216.242188 155.269531 L 216.242188 153.246094 L 218.429688 153.703125 Z M 218.429688 154.8125 "/>
<path fill-rule="nonzero" fill="rgb(11.372375%, 11.372375%, 10.588074%)" fill-opacity="1" d="M 232.726562 157.039062 L 223.007812 157.039062 L 223.007812 147.628906 L 232.632812 147.628906 L 232.632812 149.234375 L 225.195312 149.234375 L 225.195312 151.332031 L 229.535156 151.332031 L 229.535156 152.9375 L 225.195312 152.9375 L 225.195312 155.269531 L 232.726562 155.269531 Z M 232.726562 157.039062 "/>
<path fill-rule="nonzero" fill="rgb(11.372375%, 11.372375%, 10.588074%)" fill-opacity="1" d="M 247.039062 154.8125 C 247.039062 155.6875 246.867188 156.28125 246.527344 156.582031 C 246.1875 156.886719 245.574219 157.039062 244.6875 157.039062 L 238.871094 157.039062 C 237.910156 157.039062 237.277344 156.867188 236.972656 156.527344 C 236.671875 156.1875 236.519531 155.53125 236.519531 154.558594 L 238.449219 154.15625 L 238.449219 155.269531 L 245.105469 155.269531 L 245.105469 153.117188 L 239.234375 153.117188 C 238.347656 153.117188 237.738281 152.964844 237.402344 152.664062 C 237.066406 152.359375 236.902344 151.769531 236.902344 150.894531 L 236.902344 149.855469 C 236.902344 148.980469 237.066406 148.390625 237.402344 148.085938 C 237.738281 147.78125 238.347656 147.628906 239.234375 147.628906 L 244.578125 147.628906 C 245.476562 147.628906 246.089844 147.785156 246.417969 148.09375 C 246.746094 148.40625 246.910156 149.003906 246.910156 149.890625 L 244.976562 150.347656 L 244.976562 149.269531 L 238.816406 149.269531 L 238.816406 151.296875 L 244.6875 151.296875 C 245.574219 151.296875 246.1875 151.449219 246.527344 151.75 C 246.867188 152.054688 247.039062 152.644531 247.039062 153.519531 Z M 247.039062 154.8125 "/>
<path fill-rule="nonzero" fill="rgb(83.137512%, 3.529358%, 8.235168%)" fill-opacity="1" d="M 22.652344 165.015625 C 19.507812 165.015625 17.519531 168.519531 17.519531 176.835938 C 17.519531 185.148438 19.507812 188.65625 22.652344 188.65625 C 25.792969 188.65625 27.785156 185.148438 27.785156 176.835938 C 27.785156 168.519531 25.792969 165.015625 22.652344 165.015625 M 22.652344 189.960938 C 15.714844 189.960938 10.699219 184.335938 10.699219 176.835938 C 10.699219 169.335938 15.714844 163.710938 22.652344 163.710938 C 29.585938 163.710938 34.605469 169.335938 34.605469 176.835938 C 34.605469 184.335938 29.585938 189.960938 22.652344 189.960938 "/>
<path fill-rule="nonzero" fill="rgb(83.137512%, 3.529358%, 8.235168%)" fill-opacity="1" d="M 52.265625 169.335938 C 52.265625 166.765625 50.617188 165.015625 48.207031 165.015625 C 46.40625 165.015625 44.257812 166.398438 44.257812 168.476562 C 44.257812 171.414062 48.054688 172.878906 50.121094 173.980469 C 51.234375 172.71875 52.265625 171.167969 52.265625 169.335938 M 46.253906 177.851562 C 43.800781 178.871094 42.917969 181.03125 42.917969 183.355469 C 42.917969 186.535156 45.140625 188.695312 48.128906 188.695312 C 50.3125 188.695312 53.226562 187.59375 53.226562 184.007812 C 53.226562 181.277344 49.46875 178.585938 46.253906 177.851562 M 48.28125 190 C 43.992188 190 36.636719 188.695312 36.636719 182.746094 C 36.636719 178.75 41.691406 177.484375 44.527344 176.914062 L 44.527344 176.835938 C 41.882812 175.855469 38.589844 174.101562 38.589844 170.597656 C 38.589844 164.6875 44.027344 163.710938 48.28125 163.710938 C 51.386719 163.710938 57.9375 164.808594 57.9375 169.417969 C 57.9375 172.960938 54.488281 174.023438 51.84375 174.753906 L 51.84375 174.796875 C 55.023438 175.976562 59.507812 177.976562 59.507812 182.214844 C 59.507812 188.246094 52.726562 190 48.28125 190 "/>
<path fill-rule="nonzero" fill="rgb(83.137512%, 3.529358%, 8.235168%)" fill-opacity="1" d="M 85.292969 164.320312 C 85.292969 167.746094 80.386719 172.308594 78.320312 174.917969 C 75.867188 177.976562 75.292969 180.421875 75.292969 185.71875 C 75.292969 186.941406 75.40625 188.164062 75.40625 189.390625 L 67.285156 189.390625 C 67.285156 183.152344 71.117188 178.015625 75.558594 174.390625 C 77.324219 172.921875 79.277344 171.414062 80.273438 169.210938 L 70.617188 169.210938 C 66.210938 169.210938 64.792969 169.742188 62.765625 172.1875 L 62.378906 172.1875 L 64.757812 164.320312 Z M 85.292969 164.320312 "/>
<path fill-rule="nonzero" fill="rgb(83.137512%, 3.529358%, 8.235168%)" fill-opacity="1" d="M 111.765625 188.695312 C 115.367188 188.695312 116.210938 184.703125 116.210938 181.359375 C 116.210938 178.015625 115.367188 174.023438 111.765625 174.023438 C 108.164062 174.023438 107.320312 178.015625 107.320312 181.359375 C 107.320312 184.703125 108.164062 188.695312 111.765625 188.695312 M 119.390625 172.066406 C 118.96875 168.765625 116.59375 165.015625 113.144531 165.015625 C 107.933594 165.015625 106.476562 171.863281 106.667969 176.222656 L 106.746094 176.222656 C 108.433594 173.613281 110.269531 172.71875 113.222656 172.71875 C 117.628906 172.71875 123.03125 175.652344 123.03125 180.949219 C 123.03125 187.230469 117.089844 190 111.996094 190 C 105.671875 190 100.195312 184.90625 100.195312 176.914062 C 100.195312 169.414062 104.90625 163.710938 113.066406 163.710938 C 115.902344 163.710938 119.234375 164.648438 121.917969 165.503906 L 119.925781 172.351562 Z M 119.390625 172.066406 "/>
<path fill-rule="nonzero" fill="rgb(83.137512%, 3.529358%, 8.235168%)" fill-opacity="1" d="M 137.203125 188.695312 C 140.804688 188.695312 141.648438 184.703125 141.648438 181.359375 C 141.648438 178.015625 140.804688 174.023438 137.203125 174.023438 C 133.601562 174.023438 132.761719 178.015625 132.761719 181.359375 C 132.761719 184.703125 133.601562 188.695312 137.203125 188.695312 M 144.828125 172.066406 C 144.40625 168.765625 142.03125 165.015625 138.585938 165.015625 C 133.371094 165.015625 131.917969 171.863281 132.109375 176.222656 L 132.1875 176.222656 C 133.871094 173.613281 135.710938 172.71875 138.660156 172.71875 C 143.066406 172.71875 148.46875 175.652344 148.46875 180.949219 C 148.46875 187.230469 142.53125 190 137.433594 190 C 131.113281 190 125.632812 184.90625 125.632812 176.914062 C 125.632812 169.414062 130.347656 163.710938 138.507812 163.710938 C 141.34375 163.710938 144.675781 164.648438 147.359375 165.503906 L 145.367188 172.351562 Z M 144.828125 172.066406 "/>
<path fill-rule="nonzero" fill="rgb(83.137512%, 3.529358%, 8.235168%)" fill-opacity="1" d="M 166.742188 172.636719 C 166.742188 169.007812 165.902344 165.015625 162.296875 165.015625 C 158.699219 165.015625 157.855469 169.007812 157.855469 172.636719 C 157.855469 176.265625 158.699219 180.257812 162.296875 180.257812 C 165.902344 180.257812 166.742188 176.265625 166.742188 172.636719 M 154.140625 181.359375 L 154.90625 181.644531 C 155.324219 184.945312 157.703125 188.695312 161.226562 188.695312 C 166.4375 188.695312 167.894531 181.847656 167.699219 177.488281 L 167.625 177.488281 C 165.632812 180.828125 163.792969 181.5625 160.84375 181.5625 C 156.4375 181.5625 151.035156 178.789062 151.035156 173.492188 C 151.035156 166.480469 157.203125 163.710938 162.070312 163.710938 C 168.390625 163.710938 173.871094 168.804688 173.871094 175.773438 C 173.871094 184.292969 169.15625 190 160.996094 190 C 158.160156 190 154.828125 189.0625 152.144531 188.207031 Z M 154.140625 181.359375 "/>
<path fill-rule="nonzero" fill="rgb(83.137512%, 3.529358%, 8.235168%)" fill-opacity="1" d="M 177.660156 165.460938 C 180.765625 164.484375 183.371094 163.710938 186.664062 163.710938 C 190.457031 163.710938 197.125 164.605469 197.125 169.945312 C 197.125 174.347656 192.488281 175.449219 189.195312 175.816406 L 189.195312 175.898438 C 192.566406 176.222656 198.199219 177.894531 198.199219 182.417969 C 198.199219 188.574219 191.570312 190 186.972656 190 C 183.292969 190 179.539062 189.386719 176.167969 187.839844 L 178.273438 180.339844 L 178.964844 180.707031 C 178.964844 184.945312 181.992188 188.695312 186.167969 188.695312 C 189.539062 188.695312 191.226562 185.800781 191.226562 182.5 C 191.226562 178.871094 188.773438 176.589844 186.089844 176.550781 C 185.285156 176.550781 184.367188 176.792969 183.640625 177.078125 L 183.640625 174.796875 C 184.367188 175.082031 185.285156 175.246094 186.089844 175.246094 C 188.851562 175.246094 190.304688 172.511719 190.304688 169.863281 C 190.304688 167.09375 188.542969 165.015625 185.898438 165.015625 C 182.605469 165.015625 180.265625 168.765625 179.808594 171.902344 L 179.117188 172.1875 Z M 177.660156 165.460938 "/>
<path fill-rule="nonzero" fill="rgb(83.137512%, 3.529358%, 8.235168%)" fill-opacity="1" d="M 202.449219 189.386719 C 202.449219 183.355469 208.121094 180.136719 212.410156 177.363281 C 214.710938 175.855469 215.667969 173.246094 215.667969 170.515625 C 215.667969 167.460938 214.210938 165.015625 211.070312 165.015625 C 208.121094 165.015625 205.820312 168.84375 204.902344 172.636719 L 204.402344 172.921875 L 202.71875 165.667969 C 205.554688 164.320312 208.695312 163.710938 211.796875 163.710938 C 216.089844 163.710938 222.488281 165.746094 222.488281 171.453125 C 222.488281 176.386719 217.660156 178.628906 213.828125 179.566406 C 211.148438 180.21875 207.390625 181.074219 207.007812 184.496094 L 215.976562 184.496094 C 219 184.496094 221.339844 183.640625 222.832031 180.625 L 223.484375 180.625 L 220.839844 189.386719 Z M 202.449219 189.386719 "/>
<path fill-rule="nonzero" fill="rgb(83.137512%, 3.529358%, 8.235168%)" fill-opacity="1" d="M 238.960938 188.695312 C 242.5625 188.695312 243.40625 184.703125 243.40625 181.359375 C 243.40625 178.015625 242.5625 174.023438 238.960938 174.023438 C 235.359375 174.023438 234.519531 178.015625 234.519531 181.359375 C 234.519531 184.703125 235.359375 188.695312 238.960938 188.695312 M 246.585938 172.066406 C 246.164062 168.765625 243.789062 165.015625 240.339844 165.015625 C 235.128906 165.015625 233.675781 171.863281 233.867188 176.222656 L 233.941406 176.222656 C 235.628906 173.613281 237.46875 172.71875 240.417969 172.71875 C 244.824219 172.71875 250.226562 175.652344 250.226562 180.949219 C 250.226562 187.230469 244.289062 190 239.191406 190 C 232.871094 190 227.390625 184.90625 227.390625 176.914062 C 227.390625 169.414062 232.105469 163.710938 240.265625 163.710938 C 243.101562 163.710938 246.433594 164.648438 249.113281 165.503906 L 247.121094 172.351562 Z M 246.585938 172.066406 "/>
<path fill-rule="nonzero" fill="rgb(83.137512%, 3.529358%, 8.235168%)" fill-opacity="1" d="M 267.234375 184.007812 C 267.234375 186.820312 267.925781 188.65625 271.066406 188.816406 L 271.066406 189.550781 C 268.808594 189.550781 266.46875 189.390625 264.246094 189.390625 C 262.023438 189.390625 259.6875 189.550781 257.429688 189.550781 L 257.429688 188.816406 C 260.570312 188.65625 261.257812 186.820312 261.257812 184.007812 L 261.257812 169.863281 C 261.257812 167.539062 260.148438 166.398438 257.964844 166.195312 L 257.964844 165.464844 C 261.066406 164.972656 264.207031 164.484375 267.234375 163.710938 Z M 267.234375 184.007812 "/>
<path fill-rule="nonzero" fill="rgb(83.137512%, 3.529358%, 8.235168%)" fill-opacity="1" d="M 13.203125 125.984375 L 15.339844 125.984375 C 18.726562 125.984375 22.519531 124.828125 22.519531 120.621094 C 22.519531 116.160156 18.726562 115.214844 15.339844 115.214844 L 13.203125 115.214844 Z M 6.105469 119.164062 C 6.105469 116.332031 5.621094 114.785156 3.726562 114.359375 L 3.726562 113.671875 C 5.339844 113.671875 6.953125 113.714844 8.523438 113.757812 C 10.136719 113.800781 11.710938 113.84375 13.164062 113.84375 L 20.5 113.84375 C 27.035156 113.84375 30.261719 116.417969 30.261719 120.277344 C 30.261719 125.640625 24.25 126.84375 20.300781 126.84375 L 20.300781 126.929688 C 25.019531 127.699219 26.953125 128.816406 28.769531 133.621094 C 30.90625 139.328125 31.710938 140.1875 33.96875 140.785156 L 33.96875 141.472656 C 32.316406 141.472656 30.382812 141.300781 28.890625 141.300781 C 27.359375 141.300781 25.625 141.472656 23.96875 141.472656 L 21.832031 134.652344 C 20.703125 131.5625 19.050781 127.359375 15.339844 127.359375 L 13.203125 127.359375 L 13.203125 133.148438 C 13.203125 137.011719 13.363281 140.445312 16.308594 140.613281 L 16.308594 141.472656 C 14.089844 141.472656 11.792969 141.300781 9.652344 141.300781 C 7.515625 141.300781 5.21875 141.472656 3 141.472656 L 3 140.613281 C 5.945312 140.445312 6.105469 137.011719 6.105469 133.148438 Z M 6.105469 119.164062 "/>
<path fill-rule="nonzero" fill="rgb(83.137512%, 3.529358%, 8.235168%)" fill-opacity="1" d="M 50.34375 140.785156 C 54.78125 140.785156 57.683594 136.667969 57.683594 127.570312 C 57.683594 118.476562 54.78125 114.359375 50.34375 114.359375 C 45.910156 114.359375 43.007812 118.476562 43.007812 127.570312 C 43.007812 136.667969 45.910156 140.785156 50.34375 140.785156 M 50.34375 112.984375 C 58.128906 112.984375 65.589844 118.003906 65.589844 127.570312 C 65.589844 137.140625 58.128906 142.160156 50.34375 142.160156 C 42.5625 142.160156 35.101562 137.140625 35.101562 127.570312 C 35.101562 118.003906 42.5625 112.984375 50.34375 112.984375 "/>
<path fill-rule="nonzero" fill="rgb(83.137512%, 3.529358%, 8.235168%)" fill-opacity="1" d="M 68.371094 113.671875 C 69.945312 113.671875 71.597656 113.84375 73.050781 113.84375 C 74.503906 113.84375 76.316406 113.671875 77.890625 113.671875 L 93.820312 130.1875 L 93.820312 123.023438 C 93.820312 119.976562 93.214844 115.300781 89.828125 114.398438 L 89.828125 113.671875 C 91.480469 113.671875 93.335938 113.84375 94.828125 113.84375 C 96.320312 113.84375 98.011719 113.671875 99.664062 113.671875 L 99.664062 114.355469 C 96.398438 115.300781 95.3125 119.976562 95.3125 123.023438 L 95.3125 140.785156 C 95.3125 141.859375 94.828125 142.160156 94.542969 142.160156 L 94.464844 142.160156 C 94.101562 142.160156 93.496094 141.429688 93.132812 141 L 73.25 118.863281 L 73.25 132.121094 C 73.25 135.167969 73.855469 139.84375 77.246094 140.742188 L 77.246094 141.472656 C 75.589844 141.472656 73.734375 141.300781 72.242188 141.300781 C 70.75 141.300781 69.058594 141.472656 67.40625 141.472656 L 67.40625 140.785156 C 70.671875 139.84375 71.761719 135.167969 71.761719 132.121094 L 71.761719 121.222656 C 71.761719 117.875 71.597656 115.085938 68.371094 114.355469 Z M 68.371094 113.671875 "/>
<path fill-rule="nonzero" fill="rgb(83.137512%, 3.529358%, 8.235168%)" fill-opacity="1" d="M 108.378906 128.859375 L 115.636719 128.859375 L 111.96875 121.09375 Z M 107.734375 130.316406 L 106.199219 133.664062 C 105.675781 134.992188 105.234375 136.324219 105.234375 137.183594 C 105.234375 139.328125 106.484375 140.230469 108.296875 140.613281 L 108.296875 141.472656 C 106.644531 141.472656 104.789062 141.300781 103.296875 141.300781 C 101.804688 141.300781 100.109375 141.472656 98.457031 141.472656 L 98.457031 140.699219 C 99.628906 140.441406 102.167969 138.125 104.265625 133.921875 L 113.902344 114.484375 C 114.144531 113.972656 114.628906 112.984375 114.871094 112.984375 L 114.953125 112.984375 C 115.234375 112.984375 115.878906 114.101562 116.121094 114.613281 L 126.605469 135.550781 C 128.5 139.285156 129.628906 140.230469 130.878906 140.484375 L 130.878906 141.472656 C 128.664062 141.472656 126.082031 141.300781 124.023438 141.300781 C 122.007812 141.300781 119.710938 141.472656 117.453125 141.472656 L 117.453125 140.613281 C 118.742188 140.316406 119.628906 140.144531 119.628906 138.511719 C 119.628906 137.527344 119.023438 135.894531 118.257812 134.351562 L 116.28125 130.316406 Z M 107.734375 130.316406 "/>
<path fill-rule="nonzero" fill="rgb(83.137512%, 3.529358%, 8.235168%)" fill-opacity="1" d="M 130.679688 113.671875 C 132.253906 113.671875 133.90625 113.84375 135.359375 113.84375 C 136.808594 113.84375 138.625 113.671875 140.199219 113.671875 L 156.125 130.1875 L 156.125 123.023438 C 156.125 119.976562 155.519531 115.300781 152.132812 114.398438 L 152.132812 113.671875 C 153.789062 113.671875 155.640625 113.84375 157.132812 113.84375 C 158.625 113.84375 160.320312 113.671875 161.972656 113.671875 L 161.972656 114.355469 C 158.707031 115.300781 157.617188 119.976562 157.617188 123.023438 L 157.617188 140.785156 C 157.617188 141.859375 157.132812 142.160156 156.851562 142.160156 L 156.769531 142.160156 C 156.410156 142.160156 155.804688 141.429688 155.441406 141 L 135.558594 118.863281 L 135.558594 132.121094 C 135.558594 135.167969 136.164062 139.84375 139.550781 140.742188 L 139.550781 141.472656 C 137.898438 141.472656 136.042969 141.300781 134.550781 141.300781 C 133.058594 141.300781 131.367188 141.472656 129.710938 141.472656 L 129.710938 140.785156 C 132.980469 139.84375 134.066406 135.167969 134.066406 132.121094 L 134.066406 121.222656 C 134.066406 117.875 133.90625 115.085938 130.679688 114.355469 Z M 130.679688 113.671875 "/>
<path fill-rule="nonzero" fill="rgb(83.137512%, 3.529358%, 8.235168%)" fill-opacity="1" d="M 177.542969 119.164062 C 177.542969 115.257812 177.058594 114.570312 175.484375 114.359375 L 175.484375 113.671875 C 177.339844 113.671875 179.277344 113.84375 181.089844 113.84375 C 182.90625 113.84375 184.839844 113.671875 186.816406 113.671875 L 186.816406 114.359375 C 185.121094 114.785156 184.640625 115.472656 184.640625 119.164062 L 184.640625 126.113281 L 191.09375 119.847656 C 191.898438 119.078125 192.988281 117.230469 192.988281 116.460938 C 192.988281 115.171875 192.300781 114.742188 191.050781 114.445312 L 191.050781 113.671875 C 192.90625 113.671875 194.84375 113.84375 196.65625 113.84375 C 198.472656 113.84375 200.40625 113.671875 202.261719 113.671875 L 202.261719 114.527344 C 199.316406 115.730469 196.695312 117.53125 194.195312 119.550781 L 186.976562 125.855469 L 186.976562 125.941406 C 191.777344 125.941406 194.882812 126.972656 197.785156 132.636719 C 199.722656 136.410156 201.253906 139.585938 203.675781 140.914062 L 203.675781 141.300781 L 194.117188 141.300781 C 193.914062 141.300781 193.714844 141.171875 193.632812 140.957031 L 189.964844 131.992188 C 189.277344 130.359375 188.308594 127.484375 186.253906 127.484375 C 185.121094 127.484375 184.640625 128.300781 184.640625 129.847656 L 184.640625 132.976562 C 184.640625 138.039062 184.800781 140.273438 187.382812 140.441406 L 187.382812 141.300781 L 174.71875 141.300781 L 174.71875 140.441406 C 177.382812 140.273438 177.542969 136.839844 177.542969 132.976562 Z M 177.542969 119.164062 "/>
<path fill-rule="nonzero" fill="rgb(83.137512%, 3.529358%, 8.235168%)" fill-opacity="1" d="M 206.296875 118.089844 C 206.296875 115.171875 205.53125 114.785156 204.238281 114.355469 L 204.238281 113.671875 C 206.09375 113.671875 208.03125 113.84375 209.84375 113.84375 C 211.660156 113.84375 213.59375 113.671875 215.449219 113.671875 L 215.449219 114.355469 C 213.878906 114.785156 213.394531 115.816406 213.394531 118.175781 L 213.394531 132.976562 C 213.394531 136.839844 213.554688 140.269531 216.175781 140.445312 L 216.175781 141.300781 L 203.191406 141.300781 L 203.191406 140.445312 C 206.136719 140.269531 206.296875 136.839844 206.296875 132.976562 Z M 206.296875 118.089844 "/>
<path fill-rule="nonzero" fill="rgb(83.137512%, 3.529358%, 8.235168%)" fill-opacity="1" d="M 217.265625 113.671875 C 218.839844 113.671875 220.492188 113.84375 221.945312 113.84375 C 223.394531 113.84375 225.210938 113.671875 226.78125 113.671875 L 242.710938 130.1875 L 242.710938 123.023438 C 242.710938 119.976562 242.105469 115.300781 238.71875 114.398438 L 238.71875 113.671875 C 240.371094 113.671875 242.226562 113.84375 243.71875 113.84375 C 245.210938 113.84375 246.90625 113.671875 248.558594 113.671875 L 248.558594 114.355469 C 245.292969 115.300781 244.203125 119.976562 244.203125 123.023438 L 244.203125 140.785156 C 244.203125 141.859375 243.71875 142.160156 243.4375 142.160156 L 243.355469 142.160156 C 242.992188 142.160156 242.390625 141.429688 242.027344 141 L 222.144531 118.863281 L 222.144531 132.121094 C 222.144531 135.167969 222.75 139.84375 226.136719 140.742188 L 226.136719 141.472656 C 224.484375 141.472656 222.628906 141.300781 221.136719 141.300781 C 219.644531 141.300781 217.953125 141.472656 216.296875 141.472656 L 216.296875 140.785156 C 219.566406 139.84375 220.652344 135.167969 220.652344 132.121094 L 220.652344 121.222656 C 220.652344 117.875 220.492188 115.085938 217.265625 114.355469 Z M 217.265625 113.671875 "/>
<path fill-rule="nonzero" fill="rgb(83.137512%, 3.529358%, 8.235168%)" fill-opacity="1" d="M 268.964844 132.976562 C 268.964844 129.160156 268.117188 128.515625 264.773438 128 L 264.773438 127.316406 C 267.109375 127.316406 269.53125 127.484375 271.628906 127.484375 C 273.765625 127.484375 276.425781 127.316406 278.765625 127.316406 L 278.765625 128 C 276.507812 128.171875 276.0625 130.148438 276.0625 134.09375 C 276.0625 135.636719 276.0625 137.183594 276.546875 138.726562 C 272.472656 140.957031 268.886719 142.160156 263.601562 142.160156 C 255.820312 142.160156 248.359375 137.140625 248.359375 127.570312 C 248.359375 118.003906 255.820312 112.984375 263.601562 112.984375 C 268.601562 112.984375 273 114.015625 276.265625 115.816406 L 273.804688 124.140625 L 273.160156 124.140625 C 272.515625 119.035156 270.175781 114.359375 264.730469 114.359375 C 258.238281 114.359375 256.261719 122.292969 256.261719 127.570312 C 256.261719 132.804688 257.554688 140.785156 264.125 140.785156 C 267.273438 140.785156 268.964844 138.769531 268.964844 135.507812 Z M 268.964844 132.976562 "/>
<path fill-rule="nonzero" fill="rgb(70.980835%, 51.765442%, 23.529053%)" fill-opacity="1" d="M 264.324219 109.707031 L 262.015625 105.992188 L 264.203125 102 L 266.511719 105.714844 Z M 264.324219 109.707031 "/>
<path fill-rule="nonzero" fill="rgb(70.980835%, 51.765442%, 23.529053%)" fill-opacity="1" d="M 267.789062 110.089844 L 266.761719 106.390625 L 269.589844 103.5625 L 270.621094 107.261719 Z M 267.789062 110.089844 "/>
<path fill-rule="nonzero" fill="rgb(70.980835%, 51.765442%, 23.529053%)" fill-opacity="1" d="M 271.324219 110.855469 L 270.777344 108.03125 L 273.058594 106.089844 L 273.605469 108.914062 Z M 271.324219 110.855469 "/>
<path fill-rule="nonzero" fill="rgb(70.980835%, 51.765442%, 23.529053%)" fill-opacity="1" d="M 260.738281 110.089844 L 261.769531 106.390625 L 258.9375 103.5625 L 257.90625 107.261719 Z M 260.738281 110.089844 "/>
<path fill-rule="nonzero" fill="rgb(70.980835%, 51.765442%, 23.529053%)" fill-opacity="1" d="M 257.207031 110.855469 L 257.75 108.03125 L 255.46875 106.089844 L 254.921875 108.914062 Z M 257.207031 110.855469 "/>
<path fill-rule="nonzero" fill="rgb(70.980835%, 51.765442%, 23.529053%)" fill-opacity="1" d="M 264.265625 111.398438 C 264.265625 111.398438 264.265625 111.398438 264.269531 111.398438 C 269.039062 111.496094 271.902344 112.417969 274.597656 114.3125 L 274.519531 111.421875 C 274.472656 109.738281 268.308594 108.203125 264.265625 108.277344 C 260.21875 108.203125 254.054688 109.738281 254.007812 111.421875 L 253.929688 114.3125 C 256.542969 112.703125 259.71875 111.367188 264.261719 111.398438 Z M 264.265625 111.398438 "/>
</svg>
