<svg xmlns="http://www.w3.org/2000/svg" 
                    viewBox="7.414062 27.449219 822.0468760000001 229.62500000000003" 
                    width="822.0468760000001" 
                    height="229.62500000000003"
                    data-content-extracted="true"
                    data-original-bounds="7.414062,27.449219,829.460938,257.074219">
                      
<path fill-rule="nonzero" fill="rgb(13.729858%, 12.159729%, 12.548828%)" fill-opacity="1" d="M 484.324219 159.484375 C 489.65625 169.96875 491.523438 181.21875 491.117188 190.59375 C 489.710938 203.289062 484.175781 213.234375 476.4375 219.105469 C 472.476562 222.109375 468.519531 224.042969 463.636719 225.207031 C 458.929688 226.402344 454.066406 226.878906 449.152344 226.761719 C 439.339844 226.496094 429.269531 223.953125 419.582031 218.753906 C 414.757812 216.128906 410.027344 212.816406 405.753906 208.597656 C 401.492188 204.398438 397.65625 199.273438 395.105469 193.191406 C 392.769531 187.808594 391.691406 182.285156 391.78125 176.773438 C 391.824219 171.058594 392.480469 165.574219 393.929688 160.53125 C 395.375 155.492188 397.648438 150.914062 400.777344 147.15625 C 403.890625 143.390625 407.851562 140.476562 412.3125 138.527344 C 421.277344 134.617188 431.878906 134.464844 442.082031 136.878906 C 452.285156 139.34375 462.515625 144.339844 470.886719 152.234375 C 472.492188 153.238281 474.707031 155.035156 477.027344 157.71875 C 479.335938 160.398438 481.757812 163.996094 483.402344 168.464844 C 485.054688 172.914062 485.828125 178.25 484.9375 183.789062 C 484.089844 189.332031 481.59375 194.96875 477.949219 200.082031 C 474.320312 205.261719 469.625 209.753906 464.550781 214.074219 C 459.691406 218.179688 454.15625 221.25 448.472656 222.648438 C 442.800781 224.09375 437.078125 223.835938 432.046875 222.472656 C 426.992188 221.125 422.632812 218.765625 419.097656 216.328125 C 414.472656 212.851562 411.042969 208.898438 408.601562 205.480469 C 406.15625 202.054688 404.65625 199.152344 403.753906 197.414062 C 402.855469 195.671875 402.484375 195.09375 402.636719 196.074219 C 402.824219 197.039062 403.507812 199.609375 405.671875 203.6875 C 401.535156 196.394531 400.414062 190.601562 399.953125 186.363281 C 399.554688 182.070312 399.871094 179.15625 400.328125 176.492188 C 400.824219 173.824219 401.46875 171.363281 402.816406 168.082031 C 404.195312 164.84375 406.261719 160.65625 411.007812 155.6875 C 409.050781 158.089844 407.398438 160.683594 406.132812 163.398438 C 410.867188 156 419.070312 150.058594 429.875 145.578125 C 433.78125 143.714844 438.007812 142.429688 442.394531 141.789062 C 450.496094 141.507812 457.667969 143.097656 464.082031 145.453125 C 470.496094 147.847656 476.222656 151.058594 481.472656 155.046875 C 486.703125 159.054688 491.519531 163.863281 495.558594 169.914062 C 499.535156 175.941406 502.871094 183.367188 503.394531 192.144531 C 503.265625 189.296875 502.925781 187.324219 502.707031 186.054688 C 502.480469 184.78125 502.367188 184.199219 502.398438 184.121094 C 502.453125 183.964844 503.09375 185.84375 503.605469 188.414062 C 504.140625 190.980469 504.410156 194.246094 504.382812 196.707031 C 504.363281 199.164062 504.195312 200.808594 504.5 200.191406 C 504.21875 201.539062 503.707031 203.878906 502.785156 206.402344 C 501.882812 208.933594 500.550781 211.621094 499.152344 213.785156 C 497.773438 215.964844 496.375 217.640625 495.648438 218.429688 C 494.925781 219.21875 494.902344 219.148438 495.992188 217.671875 C 491.261719 223.527344 485.335938 228.25 479.015625 231.574219 C 472.6875 234.921875 465.941406 236.839844 459.464844 237.457031 C 446.425781 238.714844 434.949219 234.878906 427.714844 230.203125 C 424.363281 228.597656 421.148438 226.675781 418.113281 224.488281 C 410.390625 218.78125 404.886719 211.757812 401.289062 204.171875 C 397.703125 196.570312 396 188.335938 396.347656 179.628906 C 396.1875 178.816406 396.046875 178 395.929688 177.175781 C 396.152344 171.386719 398.074219 163.082031 401.605469 155.808594 C 405.164062 148.488281 410.9375 142.800781 415.09375 139.980469 C 427.117188 130.667969 445.320312 126.144531 462.390625 130.148438 C 470.859375 132.117188 478.996094 136.355469 484.804688 142.808594 C 490.6875 149.207031 493.773438 157.664062 494.300781 165.761719 C 494.429688 169.804688 494.09375 173.101562 493.699219 175.828125 C 493.300781 178.542969 492.871094 180.714844 492.46875 182.5 C 491.640625 186.078125 491.027344 188.179688 490.4375 190.199219 C 489.824219 192.207031 489.226562 194.148438 487.785156 197.167969 C 486.296875 200.140625 484.042969 204.355469 478.890625 209.773438 C 475.511719 213.089844 471.105469 216.617188 465.933594 219.496094 C 460.777344 222.390625 454.863281 224.617188 448.945312 225.734375 C 443.03125 226.878906 437.144531 226.914062 432.175781 226.152344 C 427.195312 225.417969 423.164062 223.925781 420.589844 222.625 C 426.691406 225.144531 431.90625 225.832031 436.332031 225.960938 C 440.777344 226.054688 444.519531 225.554688 448.199219 224.75 C 451.871094 223.917969 455.507812 222.761719 459.65625 220.9375 C 463.785156 219.078125 468.492188 216.574219 473.75 212.328125 C 471.652344 213.839844 472.871094 212.847656 475.355469 210.527344 C 477.839844 208.207031 481.359375 204.285156 483.929688 200.222656 C 486.550781 196.191406 488.257812 192.148438 488.777344 190.554688 C 489.234375 188.925781 488.972656 189.929688 486.15625 195.09375 C 480.558594 206.46875 470.011719 216.394531 456.917969 221.179688 C 450.410156 223.59375 443.324219 224.75 436.277344 224.339844 C 429.238281 223.945312 422.257812 221.914062 416.1875 218.335938 C 410.101562 214.777344 405.011719 209.683594 401.257812 203.867188 C 397.519531 198.042969 394.847656 191.582031 393.46875 185.023438 C 392 178.476562 391.488281 171.820312 392.359375 165.488281 C 393.203125 159.160156 395.527344 153.222656 398.996094 148.347656 C 398.824219 149.335938 400.691406 146.609375 405.015625 143.015625 C 409.304688 139.410156 416.472656 135.402344 425.097656 133.578125 C 433.679688 131.65625 443.433594 131.835938 451.886719 133.683594 C 460.382812 135.46875 467.488281 138.828125 471.902344 141.5 L 472.8125 142.542969 C 476.515625 144.976562 479.671875 147.613281 482.640625 150.566406 C 485.644531 153.445312 488.476562 156.527344 491.136719 160.132812 C 493.777344 163.738281 496.289062 167.890625 498.089844 172.992188 C 499.863281 178.066406 500.875 184.230469 499.515625 191.109375 C 497.777344 199.328125 492.742188 206.578125 486.328125 211.78125 C 479.890625 217.023438 472.132812 220.394531 464.238281 221.914062 C 456.335938 223.441406 448.269531 223.105469 440.890625 221.183594 C 433.492188 219.28125 426.816406 215.792969 421.25 211.46875 C 417.136719 208.289062 413.3125 204.554688 409.910156 200.410156 C 406.484375 196.363281 403.984375 191.597656 402.351562 186.53125 C 399.097656 176.402344 399.117188 165.351562 401.933594 155.933594 C 403.335938 151.21875 405.476562 146.910156 408.203125 143.351562 C 410.914062 139.777344 414.238281 137.011719 417.667969 135.113281 C 424.613281 131.300781 431.546875 131.03125 436.039062 131.183594 C 429.59375 130.402344 422.777344 131.199219 416.933594 134.191406 C 411.054688 137.117188 406.410156 142.042969 403.335938 147.59375 C 400.234375 153.167969 398.558594 159.332031 397.929688 165.441406 C 397.308594 171.5625 397.746094 177.683594 399.136719 183.464844 C 400.53125 189.246094 402.902344 194.714844 406.289062 199.375 C 409.730469 203.945312 413.648438 207.964844 417.855469 211.445312 C 426.28125 218.410156 436.070312 222.902344 445.84375 224.867188 C 436.632812 223.40625 430.046875 220.34375 424.960938 217.441406 C 419.875 214.472656 416.203125 211.542969 412.941406 208.597656 C 411.308594 207.113281 409.804688 205.621094 408.300781 204.011719 C 406.839844 202.4375 405.308594 200.722656 403.875 198.671875 C 401.058594 194.605469 398.441406 189.480469 396.761719 182.378906 C 397.636719 187.429688 399.226562 192.417969 401.710938 197.0625 C 399.488281 193.398438 397.820312 189.445312 396.644531 185.367188 C 397.292969 188.570312 396.257812 186.183594 395.335938 183.105469 C 394.398438 180.042969 393.804688 176.285156 393.644531 177.296875 C 394.5 185.105469 396.847656 192.878906 401.230469 199.757812 C 402.292969 201.441406 403.625 203.191406 404.835938 204.609375 C 405.375 205.261719 406.097656 206.078125 406.730469 206.785156 C 407.375 207.5 408.03125 208.199219 408.707031 208.886719 C 411.402344 211.640625 414.320312 214.203125 417.457031 216.503906 C 412.5 212.671875 410.097656 209.925781 408.890625 208.550781 C 407.714844 207.140625 407.785156 207.007812 408.527344 207.59375 C 409.976562 208.804688 414.402344 212.617188 417.453125 214.492188 C 423.628906 219.289062 430.75 222.984375 438.359375 225.121094 C 435.710938 224.328125 431.058594 222.441406 429.175781 221.367188 C 428.21875 220.851562 427.914062 220.617188 428.808594 220.976562 C 429.710938 221.296875 431.796875 222.277344 435.863281 223.542969 C 440.304688 225.058594 445.738281 226.121094 451.339844 226.335938 C 456.941406 226.578125 462.679688 225.964844 467.789062 224.875 C 461.84375 226.746094 455.535156 227.644531 449.191406 227.519531 C 456.480469 227.867188 463.328125 227.0625 469.714844 225.351562 C 476.097656 223.625 482.054688 220.976562 487.425781 217.28125 C 492.769531 213.585938 497.582031 208.785156 501.007812 202.671875 C 504.4375 196.609375 506.3125 189.097656 505.488281 181.390625 C 505.648438 178.242188 505.433594 175.042969 504.867188 171.910156 C 501.90625 162.511719 496.226562 154.6875 489.851562 148.183594 C 490.675781 148.820312 491.480469 149.488281 492.285156 150.167969 C 491.359375 149.132812 490.410156 148.128906 489.441406 147.152344 L 486.585938 144.375 C 484.535156 142.398438 482.375 140.585938 480.105469 138.910156 C 475.570312 135.554688 470.632812 132.789062 465.457031 130.628906 C 456.96875 127.332031 451.714844 126.773438 448.425781 126.425781 C 445.105469 126.15625 443.625 126.316406 442.035156 126.410156 C 435.144531 125.988281 428.3125 126.722656 422.660156 128.121094 C 416.992188 129.496094 412.535156 131.492188 409.929688 132.738281 C 414.710938 129.945312 419.902344 127.96875 425.222656 126.699219 C 420.253906 127.582031 415.324219 129.078125 410.636719 131.316406 C 413.058594 130.207031 413.574219 130.113281 412.886719 130.457031 C 412.199219 130.816406 410.34375 131.714844 408.179688 133.015625 C 406.011719 134.308594 403.5625 136.054688 401.601562 137.777344 C 399.628906 139.492188 398.132812 141.148438 397.535156 141.90625 C 391.542969 148.476562 389.390625 154.363281 388.105469 158.421875 C 386.890625 162.574219 386.566406 165.238281 386.304688 167.46875 C 386.066406 169.703125 385.953125 171.542969 385.9375 174.152344 C 385.953125 176.753906 386.050781 180.152344 386.925781 185.328125 C 389.109375 196.011719 394.652344 207.375 401.445312 214.636719 C 408.164062 222.015625 415.097656 225.105469 415.785156 224.988281 C 424.882812 229.804688 435.589844 231.578125 445.859375 230.410156 C 456.152344 229.285156 466.066406 225.339844 474.402344 219.316406 C 482.757812 213.300781 489.484375 205.144531 493.796875 196.058594 C 495.96875 191.523438 497.550781 186.777344 498.578125 182 C 498.84375 180.808594 499.058594 179.597656 499.257812 178.421875 C 499.421875 177.421875 499.632812 176.046875 499.757812 174.863281 C 500.035156 172.453125 500.171875 170.015625 500.136719 167.578125 C 499.867188 161.863281 498.660156 156.058594 496.273438 150.710938 C 494.140625 145.191406 490.941406 140.496094 487.300781 136.785156 C 483.65625 133.054688 479.605469 130.246094 475.507812 128.125 C 467.269531 123.921875 458.921875 122.246094 450.652344 122.035156 C 442.375 121.886719 434 123.199219 425.453125 126.613281 C 416.992188 130.046875 408.089844 135.734375 401.027344 145.324219 C 401.691406 144.265625 402.390625 143.226562 403.132812 142.214844 C 400.40625 145.597656 398.121094 149.320312 396.332031 153.234375 C 395.4375 155.191406 394.664062 157.195312 394.011719 159.226562 L 393.542969 160.753906 L 393.164062 162.136719 C 392.910156 163.007812 392.582031 164.136719 392.339844 165.144531 C 389.863281 173.480469 389.542969 181.105469 390.390625 187.894531 C 391.261719 194.703125 393.257812 200.738281 396.125 206.445312 C 399.015625 212.144531 402.804688 217.554688 407.96875 222.871094 C 413.15625 228.144531 419.75 233.410156 428.800781 237.734375 C 438.617188 242.246094 448.128906 243.757812 456.304688 243.542969 C 464.519531 243.320312 471.414062 241.410156 476.949219 238.996094 C 482.496094 236.550781 486.746094 233.671875 490.121094 230.757812 C 493.511719 227.832031 496.035156 224.972656 498.0625 222.136719 C 501.316406 218.128906 504.25 213.328125 506.078125 207.921875 C 507.945312 202.535156 508.632812 196.613281 508.152344 190.894531 C 507.207031 179.359375 501.863281 169.121094 496.191406 161.988281 C 498.792969 165.019531 501.144531 168.296875 503.160156 171.816406 C 500.898438 167.167969 498.050781 162.828125 494.773438 158.851562 C 490.300781 153.886719 486.332031 150.65625 482.765625 148.054688 C 479.171875 145.46875 475.917969 143.546875 472.308594 141.765625 C 468.683594 140.019531 464.683594 138.375 459.34375 137.085938 C 454.023438 135.863281 447.230469 134.835938 438.433594 136.152344 C 432.433594 136.921875 427.363281 138.738281 423.449219 140.636719 C 419.496094 142.46875 416.277344 144.4375 413.703125 146.339844 C 408.539062 150.171875 405.789062 153.597656 403.898438 156.414062 C 402.03125 159.273438 400.988281 161.605469 399.972656 164.359375 C 399.007812 167.121094 397.988281 170.335938 397.367188 175.28125 C 396.015625 182.636719 396.792969 190.316406 399.175781 197.394531 C 401.5625 204.488281 405.5 211.070312 410.679688 216.582031 L 410.175781 215.683594 C 415.074219 220.234375 419.097656 222.582031 422.789062 224.429688 C 426.519531 226.210938 430.011719 227.515625 434.777344 228.367188 C 439.492188 229.121094 445.785156 229.523438 454.03125 226.546875 C 458.109375 225.035156 462.578125 222.601562 467.109375 218.902344 C 471.417969 215.171875 476.5 210.796875 481.117188 204.535156 C 480.34375 205.136719 479.558594 205.714844 478.765625 206.269531 C 485.527344 198.519531 488.664062 191.167969 489.46875 182.96875 C 489.820312 178.859375 489.492188 174.484375 488.113281 169.753906 C 486.726562 165.035156 484.269531 159.953125 480.1875 154.746094 C 478.183594 152.210938 474.917969 148.503906 470.3125 144.816406 C 465.726562 141.117188 459.8125 137.457031 453.132812 134.730469 C 446.464844 131.984375 439.039062 130.183594 431.847656 129.84375 C 424.660156 129.464844 417.75 130.648438 412.429688 132.894531 C 406.867188 134.8125 402.082031 137.914062 398.425781 141.671875 C 394.742188 145.425781 392.175781 149.757812 390.429688 154.097656 C 386.988281 162.855469 386.445312 171.453125 386.863281 179.546875 C 387.480469 187.769531 390.414062 195.417969 395.105469 202.257812 C 399.800781 209.101562 406.203125 215.246094 414.429688 220.503906 C 424.246094 227.03125 434.234375 229.773438 441.78125 230.855469 C 449.390625 231.953125 454.679688 231.53125 456.976562 232.039062 C 455.558594 232.144531 454.140625 232.230469 452.71875 232.238281 C 455.652344 232.652344 458.648438 232.851562 461.683594 232.796875 L 462.585938 231.6875 C 464.355469 231.417969 466.203125 231.011719 468.097656 230.488281 C 469.0625 230.222656 469.957031 229.941406 470.996094 229.574219 C 471.917969 229.195312 472.851562 228.820312 473.804688 228.347656 C 477.589844 226.558594 481.203125 224.0625 484.292969 221.085938 C 490.570312 215.136719 494.269531 207.414062 496.386719 201.542969 C 498.84375 190.449219 497.835938 179.007812 494.472656 168.582031 C 496.726562 176.324219 497.5 185.449219 496.097656 194.316406 L 496.488281 193.449219 C 495.996094 197.683594 494.480469 205.042969 490.714844 211.632812 C 488.878906 214.929688 486.519531 217.980469 484.011719 220.410156 C 481.527344 222.871094 478.890625 224.671875 476.738281 225.882812 C 480.078125 223.753906 483.035156 221.074219 485.554688 218.0625 C 483.253906 220.550781 481.78125 221.660156 481.136719 222.105469 C 480.488281 222.542969 480.636719 222.3125 481.203125 221.75 C 482.34375 220.628906 484.855469 217.894531 485.914062 216.363281 C 490.128906 211.183594 491.84375 206.820312 492.96875 203.632812 C 494.027344 200.398438 494.417969 198.171875 494.699219 196.15625 C 494.957031 194.132812 495.101562 192.292969 495.175781 189.695312 C 495.210938 187.097656 495.246094 183.726562 494.648438 178.671875 C 494.46875 176.390625 493.945312 173.097656 493.460938 170.789062 C 492.988281 168.484375 492.652344 167.136719 493.238281 168.660156 C 492.410156 165.761719 491.097656 161.699219 489.0625 157.453125 C 487.0625 153.207031 484.332031 148.796875 481.234375 145.136719 C 478.15625 141.464844 474.753906 138.542969 471.988281 136.753906 C 469.230469 134.929688 467.203125 134.125 466.878906 134.203125 C 465.992188 133.6875 465.640625 133.523438 464.820312 133.078125 C 466.296875 134.636719 469.792969 137.214844 473.628906 141.507812 C 477.453125 145.792969 481.527344 151.898438 484.324219 159.484375 "/>
<path fill-rule="nonzero" fill="rgb(80.062866%, 11.613464%, 18.132019%)" fill-opacity="1" d="M 433.472656 156.949219 C 395.363281 185.210938 476.695312 220.625 473.265625 181.730469 C 471.542969 167.585938 442.128906 149.886719 430.003906 158.710938 C 409.21875 172.84375 436.902344 195.847656 452.488281 190.550781 C 481.921875 179.96875 452.519531 142.824219 433.472656 156.949219 C 412.6875 169.308594 436.894531 206.457031 455.941406 201.167969 C 481.910156 192.34375 471.550781 158.746094 449.046875 155.195312 C 424.8125 153.410156 409.207031 186.988281 433.4375 199.382812 C 492.277344 229.480469 452.542969 112.765625 419.609375 172.851562 "/>
<path fill-rule="nonzero" fill="rgb(80.062866%, 11.613464%, 18.132019%)" fill-opacity="1" d="M 449.230469 154.460938 C 448.414062 154.160156 447.578125 153.882812 446.726562 153.632812 C 454.976562 155.984375 462.503906 160.628906 468.65625 166.8125 C 465.507812 163.230469 461.707031 160.039062 457.453125 157.394531 C 453.191406 154.765625 448.460938 152.644531 443.25 151.675781 C 440.644531 151.207031 437.898438 151.042969 435.082031 151.476562 C 433.675781 151.691406 432.253906 152.0625 430.886719 152.632812 C 429.550781 153.167969 428.121094 154.023438 427.121094 154.851562 C 423.449219 157.617188 420.210938 162.027344 419.769531 166.480469 C 419.300781 166.816406 418.421875 168.476562 418.207031 170.949219 C 417.945312 173.410156 418.484375 176.507812 419.628906 179.121094 C 421.894531 184.445312 425.921875 187.804688 426.148438 187.796875 C 429.433594 190.339844 433.046875 192.308594 436.964844 193.6875 C 434.273438 192.722656 431.730469 191.460938 429.34375 189.941406 C 431.730469 191.460938 434.273438 192.722656 436.964844 193.6875 C 440.066406 194.761719 443.382812 195.480469 446.921875 195.488281 C 448.695312 195.46875 450.515625 195.289062 452.335938 194.792969 C 454.253906 194.269531 455.667969 193.582031 457.21875 192.820312 C 460.238281 191.273438 463.253906 189.109375 465.496094 185.980469 C 467.761719 182.890625 468.933594 178.863281 468.785156 175.0625 C 468.667969 171.242188 467.484375 167.675781 465.773438 164.519531 C 464.054688 161.355469 461.777344 158.554688 459.066406 156.167969 C 456.351562 153.792969 453.175781 151.808594 449.53125 150.589844 C 445.917969 149.371094 441.726562 148.992188 437.695312 150.011719 C 435.582031 150.535156 433.097656 151.582031 430.753906 153.285156 L 431.140625 153.03125 C 428.890625 154.339844 426.453125 156.226562 424.527344 158.929688 C 422.585938 161.597656 421.277344 164.996094 420.875 168.449219 C 420.054688 175.429688 422.1875 182.226562 425.304688 187.933594 C 428.472656 193.664062 432.777344 198.511719 437.582031 201.941406 C 442.347656 205.390625 447.871094 207.210938 452.304688 207.199219 C 453.746094 207.210938 455.214844 207.066406 456.660156 206.753906 L 457.203125 206.632812 L 457.402344 206.585938 L 457.875 206.4375 L 458.0625 206.375 L 458.8125 206.121094 C 459.3125 205.949219 460.058594 205.65625 460.644531 205.417969 L 459.246094 205.945312 L 458.324219 206.25 L 457.945312 206.367188 L 457.859375 206.398438 L 457.425781 206.535156 L 457.394531 206.539062 L 457.332031 206.554688 L 457.089844 206.609375 L 456.164062 206.800781 C 454.953125 206.988281 453.710938 207.1875 451.320312 207.054688 C 452.820312 207.070312 454.324219 206.910156 455.78125 206.578125 C 456.144531 206.511719 456.503906 206.398438 456.863281 206.304688 L 457.125 206.226562 L 457.261719 206.191406 L 457.757812 206.027344 L 458.128906 205.875 L 458.867188 205.566406 L 459.78125 205.160156 C 462.117188 204.09375 464.214844 202.792969 466.167969 201.230469 C 470.070312 198.125 472.976562 193.820312 474.308594 189.253906 C 473.9375 190.007812 473.671875 190.433594 473.253906 191.09375 C 472.835938 191.75 472.292969 192.667969 471.128906 194.222656 C 472.027344 192.925781 472.789062 191.527344 473.398438 190.074219 C 473.921875 187.957031 474.582031 184.492188 474.40625 181.035156 C 474.285156 177.578125 473.390625 174.234375 472.542969 172.242188 C 473.160156 173.03125 472.179688 169.691406 470.6875 167.027344 L 471.0625 168.1875 C 469.089844 164.207031 466.054688 160.441406 462.257812 157.585938 C 458.480469 154.714844 453.933594 152.855469 449.519531 152.199219 L 449.371094 152.179688 L 449.269531 152.175781 C 446.679688 152.003906 444.167969 152.183594 441.863281 152.625 C 440.449219 152.910156 439.378906 153.105469 438.710938 153.195312 C 435.550781 154.289062 432.625 155.945312 430.074219 158.007812 C 430.246094 157.597656 428.535156 158.757812 427.359375 159.800781 C 426.183594 160.832031 425.40625 161.585938 426.988281 159.789062 C 424.464844 162.574219 422.304688 165.664062 420.757812 169.039062 C 419.210938 172.398438 418.300781 176.074219 418.40625 179.671875 C 418.265625 182.867188 418.75 186.175781 419.996094 189.234375 C 421.222656 192.300781 423.183594 195.082031 425.582031 197.300781 C 427.929688 199.527344 430.867188 201.25 433.558594 202.484375 C 436.359375 203.796875 439.179688 204.933594 442.222656 205.765625 C 445.25 206.582031 448.464844 207.128906 451.84375 206.820312 C 455.179688 206.550781 458.78125 205.132812 461.1875 202.46875 C 463.617188 199.839844 464.78125 196.519531 465.246094 193.371094 C 465.714844 190.1875 465.550781 187.054688 465.074219 184.035156 L 464.980469 184.648438 C 464.332031 180.421875 462.96875 176.652344 461.183594 172.902344 C 459.355469 169.175781 457.148438 165.390625 453.835938 161.519531 C 451.203125 159.027344 447.417969 156.476562 443.65625 155.867188 C 439.894531 155.164062 436.804688 156.433594 435.785156 157.324219 C 432.238281 158.789062 430.253906 160.851562 428.460938 162.859375 C 426.699219 164.9375 425.144531 167.183594 423.179688 170.542969 C 423.90625 169.816406 423.007812 171.476562 422.300781 172.980469 C 421.601562 174.464844 420.976562 175.875 422.082031 174.207031 C 423.605469 172.121094 424.339844 171.019531 425.023438 169.992188 C 425.710938 168.976562 426.339844 168.007812 427.84375 166.542969 L 427.648438 166.542969 C 430.792969 162.867188 434.652344 159.867188 438.507812 159.3125 C 442.300781 158.675781 446.128906 160.5625 449.289062 163.792969 C 452.445312 167.011719 454.898438 171.277344 456.585938 175.757812 C 458.257812 180.246094 459.230469 185.105469 459.003906 189.589844 C 459 192.5625 458.300781 195.464844 456.878906 197.296875 C 455.5 199.109375 453.378906 200.027344 450.453125 200.050781 C 447.5625 200.066406 444.277344 199.21875 441.089844 197.988281 C 437.917969 196.71875 434.554688 195.199219 432.199219 193.46875 C 429.546875 191.542969 427.480469 189.003906 426.394531 186.015625 C 425.285156 183.039062 425.160156 179.628906 425.902344 176.355469 C 427.355469 169.738281 432.050781 164.078125 437.175781 161.195312 C 439.632812 159.769531 441.746094 159.535156 444.0625 159.375 C 445.546875 159.117188 447.125 159.03125 448.757812 159.125 L 448.433594 159.089844 C 453.234375 159.753906 458.160156 162.464844 461.714844 166.660156 C 465.289062 170.8125 467.457031 176.316406 467.515625 181.414062 L 467.527344 180.832031 C 467.640625 184.011719 466.855469 186.691406 465.578125 188.960938 C 464.265625 191.222656 462.457031 193.121094 459.933594 194.835938 C 460.03125 194.929688 459.238281 195.453125 458.851562 195.734375 C 458.695312 195.734375 458.097656 196.042969 457.09375 196.492188 C 456.53125 196.746094 456.152344 196.914062 455.296875 197.238281 L 454.675781 197.472656 L 454.636719 197.488281 L 454.617188 197.492188 C 454.355469 197.578125 454.957031 197.386719 454.894531 197.40625 L 454.886719 197.40625 L 454.824219 197.421875 L 454.703125 197.453125 L 454.460938 197.519531 C 454.128906 197.609375 453.769531 197.679688 453.394531 197.734375 C 451.898438 197.96875 450.035156 197.882812 448.003906 197.300781 C 445.980469 196.726562 443.820312 195.671875 441.804688 194.285156 C 437.734375 191.511719 434.324219 187.492188 432.277344 184.074219 C 430.183594 180.644531 429.378906 177.875 429.300781 177.300781 C 429.074219 176.644531 428.886719 175.953125 428.722656 175.246094 C 428.152344 172.058594 428.328125 168.796875 429.480469 166.117188 C 430.597656 163.414062 432.707031 161.390625 435.292969 160.015625 L 435.300781 160.015625 L 435.597656 159.816406 C 438.339844 157.984375 441.382812 157.417969 444.347656 157.886719 C 447.320312 158.34375 450.167969 159.75 452.582031 161.503906 C 454.726562 162.707031 456.863281 164.625 458.320312 166.199219 C 459.21875 168.042969 459.894531 168.125 460.785156 170.414062 C 461.328125 173.523438 461.097656 175.652344 461.023438 176.726562 C 460.90625 177.789062 461.132812 177.96875 461.515625 176.589844 C 461.421875 178.867188 460.523438 180.972656 459.007812 182.660156 C 457.507812 184.363281 455.460938 185.65625 453.355469 186.628906 C 452.371094 187.117188 451.402344 187.558594 450.535156 187.808594 C 449.621094 188.082031 448.636719 188.246094 447.601562 188.300781 C 445.835938 188.402344 444.820312 188.007812 443.992188 187.566406 C 441.710938 187.15625 440.921875 186.761719 440.144531 186.40625 C 439.375 186.003906 438.554688 185.628906 436.417969 184.34375 C 436.007812 183.867188 433.226562 182.394531 430.890625 180.3125 C 428.480469 178.285156 426.835938 175.6875 426.671875 175.0625 L 427.058594 175.71875 C 425.859375 173.289062 425.800781 171.132812 426.296875 169.363281 C 426.828125 167.582031 427.859375 166.054688 429.613281 164.296875 C 430.261719 163.675781 430.921875 163.15625 431.664062 162.617188 C 432.738281 161.855469 433.050781 161.664062 433.800781 161.339844 C 435.144531 160.769531 436.847656 160.527344 438.679688 160.578125 C 442.375 160.695312 446.421875 161.914062 450.179688 163.621094 C 453.949219 165.34375 457.515625 167.585938 460.59375 170.144531 C 463.664062 172.691406 466.292969 175.628906 467.792969 178.542969 C 468.320312 178.433594 466.1875 176.058594 466.492188 175.597656 C 467.738281 177.289062 468.699219 179.121094 469.132812 180.839844 C 469.171875 181.035156 469.246094 181.292969 469.253906 181.429688 L 469.300781 181.671875 L 469.351562 182.125 L 469.378906 183.464844 C 469.375 184.492188 469.289062 185.484375 469.117188 186.414062 C 468.402344 190.222656 466.414062 192.464844 463.058594 193.613281 C 461.824219 193.957031 460.113281 193.980469 459.476562 193.886719 C 456.984375 193.867188 458.011719 194.195312 456.113281 194.089844 L 455.882812 193.675781 C 453.042969 193.757812 451.84375 192.710938 449.195312 192.152344 C 449.015625 192.265625 448.042969 192.003906 447.125 191.65625 C 447.214844 191.269531 444.289062 190.585938 444.582031 190.257812 L 444.542969 190.277344 C 444.003906 190.035156 443.613281 189.882812 442.996094 189.5 C 442.464844 189.328125 439.707031 188.308594 437.15625 186.855469 C 434.578125 185.445312 432.351562 183.59375 431.929688 183.230469 L 431.640625 182.796875 C 430.648438 181.652344 430.050781 181.296875 430.511719 182.054688 C 430.136719 181.554688 429.777344 181.042969 429.460938 180.519531 L 429.601562 180.683594 C 429.273438 180.171875 428.972656 179.648438 428.714844 179.117188 C 428.589844 178.808594 428.628906 178.394531 429.003906 178.753906 C 428.433594 177.953125 427.964844 176.957031 427.8125 176.039062 C 428.128906 178.601562 429.753906 181.960938 431.75 184.585938 C 430.683594 183.730469 429.367188 181.71875 428.644531 180.554688 C 427.957031 179.011719 426.929688 175.902344 427.152344 173.625 C 427.132812 173.140625 426.625 172.757812 426.988281 171.617188 C 427.40625 171.121094 427.21875 170.316406 427.785156 169.460938 C 427.566406 170.570312 427.273438 171.574219 427.183594 172.671875 C 427.386719 172.585938 427.484375 171.945312 427.667969 171.230469 C 427.835938 170.515625 428.105469 169.71875 428.316406 169.332031 C 428.308594 168.898438 429.398438 166.972656 430.253906 165.742188 C 430.164062 166.476562 431.148438 164.933594 431.933594 164.417969 C 432.648438 163.703125 433.046875 163.140625 432.644531 163.339844 C 432.625 163.074219 431.832031 163.765625 431.195312 164.390625 C 430.558594 165.015625 430.066406 165.570312 430.339844 164.875 C 430.710938 164.695312 432.019531 163.125 432.871094 162.355469 C 432.726562 162.179688 432.195312 162.769531 432.582031 162.101562 C 433.070312 161.691406 433.539062 161.210938 433.976562 160.808594 C 434.386719 160.429688 434.804688 160.085938 435.222656 159.921875 C 435.039062 160.132812 434.554688 160.460938 434.289062 160.671875 C 434.960938 160.164062 433.359375 161.820312 432.128906 163.585938 C 430.878906 165.335938 430.136719 167.0625 430.632812 166.253906 C 430.394531 166.402344 431.355469 164.484375 432.820312 162.71875 C 433.542969 161.832031 434.328125 160.996094 434.847656 160.449219 C 435.46875 159.835938 435.796875 159.496094 435.550781 159.679688 C 434.585938 160.277344 435.957031 158.871094 434.972656 159.519531 C 434.675781 159.855469 434.386719 160.191406 434.167969 160.488281 C 433.007812 161.324219 432.296875 161.480469 432.585938 161.007812 C 433.550781 160.210938 432.394531 161.632812 431.445312 163.117188 C 430.472656 164.605469 429.78125 166.132812 430.257812 165.304688 L 429.710938 165.863281 C 430.027344 165.113281 431.421875 163.320312 432.246094 162.882812 C 432.097656 162.722656 432.878906 161.855469 433.585938 161.160156 L 433.878906 160.960938 C 434.507812 160.289062 435.867188 159.339844 435.09375 159.5625 C 432.675781 161.488281 433.152344 160.425781 433.566406 159.335938 C 434.074219 158.226562 434.578125 157.039062 432.089844 158.945312 C 434.429688 157.707031 431.640625 159.792969 429.835938 161.792969 C 429.550781 161.871094 428.507812 162.550781 427.253906 164.058594 C 426.324219 165.46875 426.851562 164.984375 426.769531 165.3125 C 426.160156 166.015625 425.332031 167.574219 425.203125 167.269531 C 424.972656 168.578125 424.230469 169.152344 424.015625 170.742188 C 423.9375 172.132812 424.144531 170.675781 424.15625 171.660156 C 423.804688 173.691406 424.203125 176.597656 424.75 178.167969 C 424.699219 178.839844 425.152344 180.878906 424.214844 179.660156 C 423.117188 176.527344 425.144531 180.636719 423.992188 177.4375 C 423.941406 178.214844 423.660156 177.511719 423.421875 176.507812 C 423.171875 175.507812 423.070312 174.214844 422.863281 173.90625 C 422.625 175.03125 422.984375 177.355469 423.757812 179.105469 L 423.695312 178.722656 C 424.257812 180.316406 425.976562 183.140625 426.890625 184.703125 C 426.480469 184.476562 426.839844 185.203125 426.070312 184.230469 C 426.507812 184.871094 426.980469 185.484375 427.46875 186.082031 C 427.710938 186.265625 427.949219 186.453125 427.546875 185.921875 C 428.363281 186.660156 429.046875 187.488281 429.566406 188.152344 C 429.578125 188.316406 431.941406 190.300781 434.5 191.769531 C 437.03125 193.28125 439.671875 194.347656 439.476562 194.324219 C 440.917969 195.050781 441.148438 195.496094 442.683594 195.941406 C 442.792969 195.902344 439.148438 194.566406 435.976562 192.726562 C 432.777344 190.949219 430.117188 188.710938 430.957031 189.421875 C 431.382812 190 435.1875 192.816406 439.382812 194.664062 C 443.542969 196.613281 447.933594 197.617188 448.367188 197.917969 C 449.53125 198.222656 450.960938 198.480469 450.722656 198.21875 C 452.691406 198.710938 450.046875 198.488281 451.433594 198.953125 C 451.472656 198.929688 451.335938 198.832031 451.792969 198.921875 L 453.136719 199.394531 C 454.742188 199.460938 456.703125 199.644531 458.703125 199.5625 C 460.699219 199.492188 462.734375 199.132812 464.273438 198.402344 C 463.417969 198.898438 462.414062 199.617188 460.210938 200.0625 L 459.816406 199.992188 C 459.511719 200.105469 457.695312 200.238281 457.742188 200.429688 C 459.855469 200.539062 461.730469 200.308594 463.875 199.507812 C 464.292969 199.445312 464.78125 199.347656 465.113281 199.285156 C 465.09375 199.261719 465.054688 199.253906 465.054688 199.222656 C 465.808594 199.085938 465.738281 199.113281 465.507812 199.296875 C 465.480469 199.324219 465.445312 199.355469 465.375 199.398438 C 466.113281 199.441406 468.25 198.535156 470.148438 196.699219 C 472.097656 194.894531 473.414062 192.210938 474.148438 190.328125 C 474.410156 189.15625 474.113281 190.191406 474.363281 188.734375 C 474.925781 186.765625 475.113281 185.054688 475.167969 183.339844 C 475.175781 182.914062 475.183594 182.480469 475.167969 182.046875 L 475.160156 181.71875 C 475.152344 181.613281 475.171875 181.726562 475.140625 181.4375 L 475.128906 181.285156 C 475.101562 181.066406 475.097656 180.894531 475.050781 180.628906 C 474.894531 179.566406 474.652344 178.636719 474.273438 177.582031 C 473.480469 176.398438 473.367188 176.375 473.75 177.980469 C 473.386719 176.976562 472.941406 176.011719 472.441406 175.089844 C 473.441406 176.183594 472.902344 174.789062 472.230469 173.476562 C 471.566406 172.171875 470.804688 170.949219 472.054688 172.035156 C 471.636719 171.164062 470.449219 169.617188 469.136719 168.40625 C 468.882812 168.402344 468.515625 168.355469 466.925781 166.84375 C 464.804688 164.625 465.296875 165.167969 463.449219 163.421875 C 463.109375 162.878906 463.90625 163.375 463.929688 163.164062 C 460.59375 161.066406 461.453125 160.714844 458.234375 158.789062 C 456.210938 157.605469 451.964844 155.703125 451.691406 156.070312 C 448.765625 154.882812 448.8125 154.679688 449.230469 154.460938 "/>
<path fill-rule="nonzero" fill="rgb(13.729858%, 12.159729%, 12.548828%)" fill-opacity="1" d="M 59.742188 167.28125 L 59.742188 130.191406 L 78.097656 130.191406 L 78.097656 224.355469 L 59.742188 224.355469 L 59.742188 182.265625 L 25.773438 182.265625 L 25.773438 224.355469 L 7.414062 224.355469 L 7.414062 130.191406 L 25.773438 130.191406 L 25.773438 167.28125 Z M 59.742188 167.28125 "/>
<path fill-rule="nonzero" fill="rgb(13.729858%, 12.159729%, 12.548828%)" fill-opacity="1" d="M 109.441406 224.355469 L 91.953125 224.355469 L 91.953125 163.035156 L 109.441406 163.035156 Z M 111.0625 137.308594 C 111.0625 143.054688 106.441406 147.675781 100.695312 147.675781 C 94.953125 147.675781 90.332031 143.054688 90.332031 137.308594 C 90.332031 131.6875 94.953125 126.945312 100.695312 126.945312 C 106.441406 126.945312 111.0625 131.6875 111.0625 137.308594 "/>
<path fill-rule="nonzero" fill="rgb(13.729858%, 12.159729%, 12.548828%)" fill-opacity="1" d="M 165.011719 193.757812 C 165.011719 185.515625 159.515625 176.523438 150.523438 176.523438 C 141.53125 176.523438 136.035156 185.515625 136.035156 193.757812 C 136.035156 202 141.53125 210.867188 150.523438 210.867188 C 159.515625 210.867188 165.011719 202 165.011719 193.757812 M 180.371094 220.605469 C 180.371094 240.589844 173.625 257.074219 150.648438 257.074219 C 135.660156 257.074219 120.550781 247.957031 119.675781 231.597656 L 138.160156 231.597656 C 139.035156 238.089844 143.652344 242.339844 150.273438 242.339844 C 162.636719 242.339844 162.886719 231.472656 162.886719 222.230469 L 162.886719 218.234375 L 162.636719 218.234375 C 158.890625 223.230469 152.394531 226.351562 145.902344 226.351562 C 127.917969 226.351562 118.304688 210.617188 118.304688 194.132812 C 118.304688 177.273438 128.542969 161.035156 146.777344 161.035156 C 152.894531 161.035156 159.140625 164.160156 162.636719 168.90625 L 162.886719 168.90625 L 162.886719 163.035156 L 180.371094 163.035156 Z M 180.371094 220.605469 "/>
<path fill-rule="nonzero" fill="rgb(13.729858%, 12.159729%, 12.548828%)" fill-opacity="1" d="M 210.335938 118.453125 L 210.335938 168.15625 L 210.585938 168.15625 C 214.207031 163.160156 220.328125 161.035156 226.570312 161.035156 C 243.054688 161.035156 247.800781 172.652344 247.800781 186.886719 L 247.800781 224.355469 L 230.316406 224.355469 L 230.316406 191.882812 C 230.316406 184.515625 230.691406 175.023438 220.828125 175.023438 C 210.460938 175.023438 210.335938 186.636719 210.335938 194.007812 L 210.335938 224.355469 L 192.855469 224.355469 L 192.855469 118.453125 Z M 210.335938 118.453125 "/>
<path fill-rule="nonzero" fill="rgb(13.729858%, 12.159729%, 12.548828%)" fill-opacity="1" d="M 298.25 185.640625 C 297.375 179.394531 293.378906 173.273438 286.636719 173.273438 C 279.640625 173.273438 275.769531 179.269531 274.894531 185.640625 Z M 274.394531 196.503906 C 274.394531 204.25 277.394531 212.988281 286.511719 212.988281 C 292.253906 212.988281 295.875 209.492188 298.25 204.621094 L 314.359375 207.242188 C 310.113281 219.484375 299.375 226.351562 286.511719 226.351562 C 267.527344 226.351562 255.914062 212.863281 255.914062 194.257812 C 255.914062 175.648438 265.777344 161.035156 285.636719 161.035156 C 305.742188 161.035156 314.734375 175.898438 314.734375 194.382812 L 314.734375 196.503906 Z M 274.394531 196.503906 "/>
<path fill-rule="nonzero" fill="rgb(13.729858%, 12.159729%, 12.548828%)" fill-opacity="1" d="M 340.328125 169.40625 L 340.578125 169.40625 C 344.078125 164.035156 349.320312 161.035156 355.816406 161.035156 C 358.3125 161.035156 360.808594 161.664062 363.058594 162.535156 L 360.933594 178.769531 C 358.8125 177.273438 356.3125 176.523438 353.691406 176.523438 C 341.578125 176.523438 340.328125 187.261719 340.328125 196.753906 L 340.328125 224.355469 L 322.847656 224.355469 L 322.847656 163.035156 L 340.328125 163.035156 Z M 340.328125 169.40625 "/>
<path fill-rule="nonzero" fill="rgb(13.729858%, 12.159729%, 12.548828%)" fill-opacity="1" d="M 560.238281 193.632812 C 560.238281 185.390625 554.746094 176.523438 545.753906 176.523438 C 536.761719 176.523438 531.265625 185.390625 531.265625 193.632812 C 531.265625 201.875 536.761719 210.867188 545.753906 210.867188 C 554.746094 210.867188 560.238281 201.875 560.238281 193.632812 M 533.015625 168.65625 C 537.011719 163.910156 543.503906 161.035156 550 161.035156 C 567.359375 161.035156 577.972656 177.273438 577.972656 193.382812 C 577.972656 210.117188 567.730469 226.351562 549.625 226.351562 C 543.382812 226.351562 536.761719 223.605469 533.265625 218.609375 L 533.015625 218.609375 L 533.015625 257.074219 L 515.53125 257.074219 L 515.53125 163.035156 L 533.015625 163.035156 Z M 533.015625 168.65625 "/>
<path fill-rule="nonzero" fill="rgb(13.729858%, 12.159729%, 12.548828%)" fill-opacity="1" d="M 605.691406 224.355469 L 588.207031 224.355469 L 588.207031 177.769531 L 582.210938 177.769531 L 582.210938 163.035156 L 588.207031 163.035156 L 588.207031 142.304688 L 605.691406 142.304688 L 605.691406 163.035156 L 616.429688 163.035156 L 616.429688 177.769531 L 605.691406 177.769531 Z M 605.691406 224.355469 "/>
<path fill-rule="nonzero" fill="rgb(13.729858%, 12.159729%, 12.548828%)" fill-opacity="1" d="M 638.65625 224.355469 L 621.175781 224.355469 L 621.175781 163.035156 L 638.65625 163.035156 Z M 640.277344 137.308594 C 640.277344 143.054688 635.660156 147.675781 629.914062 147.675781 C 624.171875 147.675781 619.550781 143.054688 619.550781 137.308594 C 619.550781 131.6875 624.171875 126.945312 629.914062 126.945312 C 635.660156 126.945312 640.277344 131.6875 640.277344 137.308594 "/>
<path fill-rule="nonzero" fill="rgb(13.729858%, 12.159729%, 12.548828%)" fill-opacity="1" d="M 665.375 193.757812 C 665.375 202 670.871094 210.867188 679.863281 210.867188 C 688.855469 210.867188 694.351562 202 694.351562 193.757812 C 694.351562 185.265625 688.855469 176.523438 679.863281 176.523438 C 670.871094 176.523438 665.375 185.265625 665.375 193.757812 M 712.082031 193.757812 C 712.082031 212.738281 699.097656 226.351562 679.863281 226.351562 C 660.628906 226.351562 647.644531 212.738281 647.644531 193.757812 C 647.644531 174.648438 660.757812 161.035156 679.863281 161.035156 C 698.96875 161.035156 712.082031 174.648438 712.082031 193.757812 "/>
<path fill-rule="nonzero" fill="rgb(13.729858%, 12.159729%, 12.548828%)" fill-opacity="1" d="M 737.804688 168.65625 L 738.054688 168.65625 C 741.675781 163.160156 747.796875 161.035156 754.039062 161.035156 C 770.523438 161.035156 775.269531 172.652344 775.269531 186.886719 L 775.269531 224.355469 L 757.785156 224.355469 L 757.785156 191.882812 C 757.785156 184.515625 758.160156 175.023438 748.292969 175.023438 C 737.929688 175.023438 737.804688 186.636719 737.804688 194.007812 L 737.804688 224.355469 L 720.320312 224.355469 L 720.320312 163.035156 L 737.804688 163.035156 Z M 737.804688 168.65625 "/>
<path fill-rule="nonzero" fill="rgb(13.729858%, 12.159729%, 12.548828%)" fill-opacity="1" d="M 819.222656 177.519531 C 816.722656 175.148438 813.476562 173.273438 809.980469 173.273438 C 807.109375 173.273438 804.234375 175.523438 804.234375 178.519531 C 804.234375 183.015625 810.605469 184.265625 816.851562 187.011719 C 823.21875 189.761719 829.460938 194.007812 829.460938 204.621094 C 829.460938 218.234375 818.472656 226.351562 805.609375 226.351562 C 797.371094 226.351562 789.375 222.605469 784.003906 216.109375 L 791.996094 205.746094 C 795.371094 209.492188 799.867188 212.863281 804.984375 212.863281 C 808.859375 212.863281 811.976562 210.242188 811.976562 206.246094 C 811.976562 200.875 805.859375 199.625 799.742188 197.003906 C 793.621094 194.382812 787.5 190.761719 787.5 180.894531 C 787.5 169.40625 795.496094 161.035156 806.984375 161.035156 C 813.476562 161.035156 821.71875 163.035156 826.714844 167.40625 Z M 819.222656 177.519531 "/>
<path fill-rule="nonzero" fill="rgb(13.729858%, 12.159729%, 12.548828%)" fill-opacity="1" d="M 114.128906 28.6875 L 114.128906 43.363281 L 112.691406 43.363281 C 111.835938 39.976562 110.890625 37.542969 109.851562 36.066406 C 108.8125 34.585938 107.386719 33.40625 105.574219 32.527344 C 104.558594 32.046875 102.789062 31.808594 100.253906 31.808594 L 96.214844 31.808594 L 96.214844 73.628906 C 96.214844 76.402344 96.371094 78.132812 96.675781 78.828125 C 96.984375 79.519531 97.582031 80.125 98.476562 80.644531 C 99.367188 81.167969 100.585938 81.425781 102.132812 81.425781 L 103.933594 81.425781 L 103.933594 82.90625 L 75.546875 82.90625 L 75.546875 81.425781 L 77.34375 81.425781 C 78.917969 81.425781 80.183594 81.144531 81.144531 80.585938 C 81.835938 80.214844 82.382812 79.574219 82.78125 78.667969 C 83.074219 78.027344 83.222656 76.347656 83.222656 73.628906 L 83.222656 31.808594 L 79.304688 31.808594 C 75.652344 31.808594 73 32.582031 71.347656 34.125 C 69.027344 36.285156 67.5625 39.363281 66.949219 43.363281 L 65.429688 43.363281 L 65.429688 28.6875 Z M 114.128906 28.6875 "/>
<path fill-rule="nonzero" fill="rgb(13.729858%, 12.159729%, 12.548828%)" fill-opacity="1" d="M 139.480469 56.835938 L 139.480469 73.628906 C 139.480469 76.402344 139.632812 78.132812 139.9375 78.828125 C 140.246094 79.519531 140.84375 80.128906 141.738281 80.644531 C 142.628906 81.167969 143.835938 81.425781 145.355469 81.425781 L 147.15625 81.425781 L 147.15625 82.90625 L 118.808594 82.90625 L 118.808594 81.425781 L 120.605469 81.425781 C 122.179688 81.425781 123.445312 81.144531 124.40625 80.585938 C 125.097656 80.214844 125.628906 79.574219 126.003906 78.667969 C 126.296875 78.027344 126.445312 76.347656 126.445312 73.628906 L 126.445312 37.964844 C 126.445312 35.191406 126.296875 33.460938 126.003906 32.765625 C 125.710938 32.074219 125.117188 31.46875 124.226562 30.949219 C 123.332031 30.425781 122.125 30.167969 120.605469 30.167969 L 118.808594 30.167969 L 118.808594 28.6875 L 147.15625 28.6875 L 147.15625 30.167969 L 145.355469 30.167969 C 143.78125 30.167969 142.519531 30.449219 141.558594 31.007812 C 140.863281 31.382812 140.320312 32.019531 139.917969 32.925781 C 139.625 33.566406 139.480469 35.246094 139.480469 37.964844 L 139.480469 53.316406 L 158.628906 53.316406 L 158.628906 37.964844 C 158.628906 35.191406 158.484375 33.460938 158.191406 32.765625 C 157.898438 32.074219 157.296875 31.46875 156.390625 30.949219 C 155.484375 30.425781 154.273438 30.167969 152.753906 30.167969 L 150.992188 30.167969 L 150.992188 28.6875 L 179.300781 28.6875 L 179.300781 30.167969 L 177.542969 30.167969 C 175.941406 30.167969 174.675781 30.449219 173.746094 31.007812 C 173.050781 31.382812 172.503906 32.019531 172.105469 32.925781 C 171.8125 33.566406 171.664062 35.246094 171.664062 37.964844 L 171.664062 73.628906 C 171.664062 76.402344 171.8125 78.132812 172.105469 78.828125 C 172.398438 79.519531 172.996094 80.128906 173.902344 80.644531 C 174.808594 81.167969 176.023438 81.425781 177.542969 81.425781 L 179.300781 81.425781 L 179.300781 82.90625 L 150.992188 82.90625 L 150.992188 81.425781 L 152.753906 81.425781 C 154.351562 81.425781 155.617188 81.144531 156.550781 80.585938 C 157.246094 80.214844 157.789062 79.574219 158.191406 78.667969 C 158.484375 78.027344 158.628906 76.347656 158.628906 73.628906 L 158.628906 56.835938 Z M 139.480469 56.835938 "/>
<path fill-rule="nonzero" fill="rgb(13.729858%, 12.159729%, 12.548828%)" fill-opacity="1" d="M 203.089844 31.808594 L 203.089844 53.878906 L 204.171875 53.878906 C 207.609375 53.878906 210.101562 52.796875 211.648438 50.640625 C 213.195312 48.480469 214.179688 45.296875 214.605469 41.082031 L 216.125 41.082031 L 216.125 69.472656 L 214.605469 69.472656 C 214.285156 66.378906 213.613281 63.847656 212.585938 61.875 C 211.5625 59.902344 210.367188 58.574219 209.007812 57.894531 C 207.648438 57.214844 205.675781 56.875 203.089844 56.875 L 203.089844 72.148438 C 203.089844 75.136719 203.21875 76.960938 203.472656 77.628906 C 203.722656 78.292969 204.199219 78.839844 204.890625 79.265625 C 205.582031 79.695312 206.703125 79.90625 208.25 79.90625 L 211.488281 79.90625 C 216.550781 79.90625 220.609375 78.734375 223.664062 76.386719 C 226.714844 74.042969 228.90625 70.472656 230.242188 65.671875 L 231.71875 65.671875 L 229.28125 82.90625 L 182.421875 82.90625 L 182.421875 81.425781 L 184.21875 81.425781 C 185.792969 81.425781 187.058594 81.144531 188.019531 80.585938 C 188.710938 80.214844 189.242188 79.574219 189.617188 78.667969 C 189.910156 78.027344 190.058594 76.347656 190.058594 73.628906 L 190.058594 37.964844 C 190.058594 35.511719 189.992188 34.007812 189.859375 33.445312 C 189.589844 32.515625 189.097656 31.792969 188.378906 31.285156 C 187.363281 30.542969 185.980469 30.167969 184.21875 30.167969 L 182.421875 30.167969 L 182.421875 28.6875 L 227.800781 28.6875 L 227.800781 44.722656 L 226.28125 44.722656 C 225.507812 40.804688 224.421875 37.992188 223.023438 36.285156 C 221.625 34.582031 219.644531 33.328125 217.085938 32.527344 C 215.59375 32.046875 212.792969 31.808594 208.691406 31.808594 Z M 203.089844 31.808594 "/>
<path fill-rule="nonzero" fill="rgb(13.729858%, 12.159729%, 12.548828%)" fill-opacity="1" d="M 285.855469 81.425781 L 285.855469 82.90625 L 257.507812 82.90625 L 257.507812 81.425781 L 259.308594 81.425781 C 260.878906 81.425781 262.148438 81.144531 263.105469 80.585938 C 263.796875 80.214844 264.332031 79.574219 264.707031 78.667969 C 265 78.027344 265.144531 76.347656 265.144531 73.628906 L 265.144531 37.964844 C 265.144531 35.191406 265 33.460938 264.707031 32.765625 C 264.410156 32.074219 263.820312 31.46875 262.925781 30.945312 C 262.03125 30.425781 260.828125 30.167969 259.308594 30.167969 L 257.507812 30.167969 L 257.507812 28.6875 L 285.855469 28.6875 L 285.855469 30.167969 L 284.058594 30.167969 C 282.484375 30.167969 281.21875 30.445312 280.257812 31.007812 C 279.566406 31.382812 279.019531 32.019531 278.621094 32.925781 C 278.324219 33.566406 278.179688 35.246094 278.179688 37.964844 L 278.179688 73.628906 C 278.179688 76.402344 278.332031 78.132812 278.640625 78.828125 C 278.945312 79.519531 279.542969 80.128906 280.441406 80.644531 C 281.332031 81.167969 282.539062 81.425781 284.058594 81.425781 Z M 285.855469 81.425781 "/>
<path fill-rule="nonzero" fill="rgb(13.729858%, 12.159729%, 12.548828%)" fill-opacity="1" d="M 309.488281 31.605469 L 309.488281 55.355469 L 311.765625 55.355469 C 315.46875 55.355469 318.242188 55.015625 320.082031 54.335938 C 321.921875 53.660156 323.367188 52.433594 324.421875 50.660156 C 325.472656 48.886719 326 46.574219 326 43.722656 C 326 39.589844 325.03125 36.539062 323.101562 34.566406 C 321.167969 32.59375 318.054688 31.605469 313.765625 31.605469 Z M 309.488281 58.195312 L 309.488281 73.390625 C 309.488281 76.324219 309.667969 78.167969 310.027344 78.925781 C 310.386719 79.6875 311.019531 80.292969 311.925781 80.746094 C 312.832031 81.199219 314.523438 81.425781 317.003906 81.425781 L 317.003906 82.90625 L 289.253906 82.90625 L 289.253906 81.425781 C 291.757812 81.425781 293.460938 81.195312 294.351562 80.726562 C 295.246094 80.261719 295.871094 79.652344 296.234375 78.90625 C 296.589844 78.160156 296.773438 76.324219 296.773438 73.390625 L 296.773438 38.203125 C 296.773438 35.273438 296.589844 33.425781 296.234375 32.667969 C 295.871094 31.90625 295.238281 31.300781 294.332031 30.847656 C 293.425781 30.394531 291.734375 30.167969 289.253906 30.167969 L 289.253906 28.6875 L 314.445312 28.6875 C 321 28.6875 325.800781 29.140625 328.839844 30.046875 C 331.878906 30.953125 334.355469 32.628906 336.277344 35.066406 C 338.195312 37.503906 339.152344 40.363281 339.152344 43.640625 C 339.152344 47.640625 337.714844 50.945312 334.835938 53.558594 C 332.996094 55.210938 330.421875 56.449219 327.121094 57.277344 L 340.152344 75.628906 C 341.859375 78 343.074219 79.480469 343.792969 80.066406 C 344.882812 80.894531 346.152344 81.347656 347.589844 81.425781 L 347.589844 82.90625 L 330.515625 82.90625 L 313.046875 58.195312 Z M 309.488281 58.195312 "/>
<path fill-rule="nonzero" fill="rgb(13.729858%, 12.159729%, 12.548828%)" fill-opacity="1" d="M 376.859375 81.425781 L 376.859375 82.90625 L 348.511719 82.90625 L 348.511719 81.425781 L 350.308594 81.425781 C 351.882812 81.425781 353.148438 81.144531 354.109375 80.585938 C 354.800781 80.214844 355.332031 79.574219 355.707031 78.667969 C 356 78.027344 356.148438 76.347656 356.148438 73.628906 L 356.148438 37.964844 C 356.148438 35.191406 356 33.460938 355.707031 32.765625 C 355.414062 32.074219 354.820312 31.46875 353.929688 30.945312 C 353.035156 30.425781 351.828125 30.167969 350.308594 30.167969 L 348.511719 30.167969 L 348.511719 28.6875 L 376.859375 28.6875 L 376.859375 30.167969 L 375.058594 30.167969 C 373.484375 30.167969 372.21875 30.445312 371.261719 31.007812 C 370.566406 31.382812 370.019531 32.019531 369.621094 32.925781 C 369.328125 33.566406 369.179688 35.246094 369.179688 37.964844 L 369.179688 73.628906 C 369.179688 76.402344 369.335938 78.132812 369.640625 78.828125 C 369.945312 79.519531 370.546875 80.128906 371.441406 80.644531 C 372.332031 81.167969 373.539062 81.425781 375.058594 81.425781 Z M 376.859375 81.425781 "/>
<path fill-rule="nonzero" fill="rgb(13.729858%, 12.159729%, 12.548828%)" fill-opacity="1" d="M 417.203125 27.449219 L 417.640625 45.519531 L 416.003906 45.519531 C 415.226562 40.988281 413.328125 37.34375 410.304688 34.585938 C 407.277344 31.828125 404.007812 30.449219 400.488281 30.449219 C 397.769531 30.449219 395.617188 31.175781 394.03125 32.628906 C 392.445312 34.082031 391.652344 35.753906 391.652344 37.644531 C 391.652344 38.84375 391.933594 39.910156 392.492188 40.84375 C 393.265625 42.097656 394.503906 43.335938 396.210938 44.5625 C 397.460938 45.441406 400.355469 47 404.886719 49.238281 C 411.230469 52.359375 415.507812 55.304688 417.722656 58.078125 C 419.90625 60.847656 421 64.019531 421 67.59375 C 421 72.125 419.234375 76.023438 415.703125 79.289062 C 412.167969 82.554688 407.683594 84.183594 402.246094 84.183594 C 400.539062 84.183594 398.929688 84.011719 397.410156 83.664062 C 395.890625 83.316406 393.984375 82.664062 391.691406 81.707031 C 390.410156 81.171875 389.359375 80.90625 388.53125 80.90625 C 387.839844 80.90625 387.105469 81.171875 386.332031 81.707031 C 385.558594 82.238281 384.933594 83.050781 384.453125 84.144531 L 382.976562 84.144531 L 382.976562 63.675781 L 384.453125 63.675781 C 385.625 69.429688 387.886719 73.824219 391.230469 76.847656 C 394.578125 79.875 398.183594 81.386719 402.046875 81.386719 C 405.03125 81.386719 407.410156 80.574219 409.183594 78.945312 C 410.957031 77.320312 411.84375 75.429688 411.84375 73.269531 C 411.84375 71.988281 411.503906 70.75 410.824219 69.550781 C 410.144531 68.351562 409.109375 67.210938 407.726562 66.132812 C 406.339844 65.054688 403.886719 63.648438 400.367188 61.914062 C 395.4375 59.488281 391.890625 57.421875 389.734375 55.71875 C 387.574219 54.011719 385.914062 52.105469 384.753906 50 C 383.59375 47.894531 383.015625 45.574219 383.015625 43.042969 C 383.015625 38.722656 384.601562 35.046875 387.773438 32.007812 C 390.945312 28.96875 394.945312 27.449219 399.769531 27.449219 C 401.527344 27.449219 403.234375 27.664062 404.886719 28.089844 C 406.140625 28.40625 407.664062 29.003906 409.464844 29.867188 C 411.265625 30.734375 412.523438 31.167969 413.242188 31.167969 C 413.933594 31.167969 414.480469 30.953125 414.882812 30.527344 C 415.28125 30.101562 415.65625 29.074219 416.003906 27.449219 Z M 417.203125 27.449219 "/>
<path fill-rule="nonzero" fill="rgb(13.729858%, 12.159729%, 12.548828%)" fill-opacity="1" d="M 446.667969 56.835938 L 446.667969 73.628906 C 446.667969 76.402344 446.824219 78.132812 447.128906 78.828125 C 447.4375 79.519531 448.035156 80.128906 448.929688 80.644531 C 449.820312 81.167969 451.027344 81.425781 452.546875 81.425781 L 454.347656 81.425781 L 454.347656 82.90625 L 425.996094 82.90625 L 425.996094 81.425781 L 427.796875 81.425781 C 429.371094 81.425781 430.636719 81.144531 431.59375 80.585938 C 432.289062 80.214844 432.820312 79.574219 433.195312 78.667969 C 433.488281 78.027344 433.632812 76.347656 433.632812 73.628906 L 433.632812 37.964844 C 433.632812 35.191406 433.488281 33.460938 433.195312 32.765625 C 432.902344 32.074219 432.308594 31.46875 431.414062 30.949219 C 430.523438 30.425781 429.316406 30.167969 427.796875 30.167969 L 425.996094 30.167969 L 425.996094 28.6875 L 454.347656 28.6875 L 454.347656 30.167969 L 452.546875 30.167969 C 450.972656 30.167969 449.707031 30.449219 448.75 31.007812 C 448.054688 31.382812 447.507812 32.019531 447.109375 32.925781 C 446.816406 33.566406 446.667969 35.246094 446.667969 37.964844 L 446.667969 53.316406 L 465.820312 53.316406 L 465.820312 37.964844 C 465.820312 35.191406 465.675781 33.460938 465.382812 32.765625 C 465.085938 32.074219 464.488281 31.46875 463.582031 30.949219 C 462.675781 30.425781 461.464844 30.167969 459.945312 30.167969 L 458.183594 30.167969 L 458.183594 28.6875 L 486.492188 28.6875 L 486.492188 30.167969 L 484.734375 30.167969 C 483.132812 30.167969 481.867188 30.449219 480.9375 31.007812 C 480.242188 31.382812 479.695312 32.019531 479.296875 32.925781 C 479 33.566406 478.855469 35.246094 478.855469 37.964844 L 478.855469 73.628906 C 478.855469 76.402344 479 78.132812 479.296875 78.828125 C 479.589844 79.519531 480.191406 80.128906 481.09375 80.644531 C 482 81.167969 483.214844 81.425781 484.734375 81.425781 L 486.492188 81.425781 L 486.492188 82.90625 L 458.183594 82.90625 L 458.183594 81.425781 L 459.945312 81.425781 C 461.542969 81.425781 462.808594 81.144531 463.742188 80.585938 C 464.4375 80.214844 464.980469 79.574219 465.382812 78.667969 C 465.675781 78.027344 465.820312 76.347656 465.820312 73.628906 L 465.820312 56.835938 Z M 446.667969 56.835938 "/>
<path fill-rule="nonzero" fill="rgb(13.729858%, 12.159729%, 12.548828%)" fill-opacity="1" d="M 558.625 28.6875 L 558.625 43.363281 L 557.1875 43.363281 C 556.332031 39.976562 555.386719 37.542969 554.347656 36.066406 C 553.308594 34.585938 551.882812 33.40625 550.070312 32.527344 C 549.058594 32.046875 547.285156 31.808594 544.75 31.808594 L 540.714844 31.808594 L 540.714844 73.628906 C 540.714844 76.402344 540.867188 78.132812 541.171875 78.828125 C 541.480469 79.519531 542.078125 80.125 542.972656 80.644531 C 543.867188 81.167969 545.085938 81.425781 546.628906 81.425781 L 548.429688 81.425781 L 548.429688 82.90625 L 520.042969 82.90625 L 520.042969 81.425781 L 521.839844 81.425781 C 523.414062 81.425781 524.679688 81.144531 525.640625 80.585938 C 526.332031 80.214844 526.878906 79.574219 527.277344 78.667969 C 527.574219 78.027344 527.71875 76.347656 527.71875 73.628906 L 527.71875 31.808594 L 523.800781 31.808594 C 520.148438 31.808594 517.496094 32.582031 515.84375 34.125 C 513.523438 36.285156 512.058594 39.363281 511.445312 43.363281 L 509.925781 43.363281 L 509.925781 28.6875 Z M 558.625 28.6875 "/>
<path fill-rule="nonzero" fill="rgb(13.729858%, 12.159729%, 12.548828%)" fill-opacity="1" d="M 591.570312 81.425781 L 591.570312 82.90625 L 563.222656 82.90625 L 563.222656 81.425781 L 565.023438 81.425781 C 566.597656 81.425781 567.863281 81.144531 568.820312 80.585938 C 569.515625 80.214844 570.046875 79.574219 570.421875 78.667969 C 570.714844 78.027344 570.859375 76.347656 570.859375 73.628906 L 570.859375 37.964844 C 570.859375 35.191406 570.714844 33.460938 570.421875 32.765625 C 570.128906 32.074219 569.535156 31.46875 568.640625 30.945312 C 567.746094 30.425781 566.542969 30.167969 565.023438 30.167969 L 563.222656 30.167969 L 563.222656 28.6875 L 591.570312 28.6875 L 591.570312 30.167969 L 589.773438 30.167969 C 588.199219 30.167969 586.933594 30.445312 585.972656 31.007812 C 585.28125 31.382812 584.734375 32.019531 584.335938 32.925781 C 584.039062 33.566406 583.894531 35.246094 583.894531 37.964844 L 583.894531 73.628906 C 583.894531 76.402344 584.050781 78.132812 584.355469 78.828125 C 584.660156 79.519531 585.261719 80.128906 586.152344 80.644531 C 587.046875 81.167969 588.253906 81.425781 589.773438 81.425781 Z M 591.570312 81.425781 "/>
<path fill-rule="nonzero" fill="rgb(13.729858%, 12.159729%, 12.548828%)" fill-opacity="1" d="M 632.472656 64.433594 L 647.1875 28.6875 L 669.257812 28.6875 L 669.257812 30.167969 L 667.5 30.167969 C 665.898438 30.167969 664.621094 30.449219 663.660156 31.007812 C 662.996094 31.382812 662.460938 32.007812 662.0625 32.886719 C 661.769531 33.527344 661.621094 35.191406 661.621094 37.882812 L 661.621094 73.628906 C 661.621094 76.402344 661.769531 78.132812 662.0625 78.828125 C 662.355469 79.519531 662.957031 80.125 663.859375 80.648438 C 664.765625 81.167969 665.980469 81.425781 667.5 81.425781 L 669.257812 81.425781 L 669.257812 82.90625 L 640.953125 82.90625 L 640.953125 81.425781 L 642.710938 81.425781 C 644.308594 81.425781 645.589844 81.148438 646.546875 80.585938 C 647.214844 80.214844 647.746094 79.574219 648.148438 78.667969 C 648.441406 78.027344 648.585938 76.347656 648.585938 73.628906 L 648.585938 33.445312 L 627.796875 82.90625 L 626.835938 82.90625 L 605.726562 33.804688 L 605.726562 71.992188 C 605.726562 74.65625 605.792969 76.296875 605.925781 76.910156 C 606.273438 78.242188 607.023438 79.328125 608.183594 80.167969 C 609.34375 81.007812 611.164062 81.425781 613.640625 81.425781 L 613.640625 82.90625 L 595.089844 82.90625 L 595.089844 81.425781 L 595.648438 81.425781 C 596.847656 81.453125 597.96875 81.261719 599.007812 80.847656 C 600.046875 80.433594 600.832031 79.878906 601.367188 79.1875 C 601.902344 78.496094 602.3125 77.523438 602.605469 76.269531 C 602.660156 75.976562 602.6875 74.617188 602.6875 72.191406 L 602.6875 37.882812 C 602.6875 35.140625 602.542969 33.425781 602.246094 32.746094 C 601.953125 32.066406 601.355469 31.46875 600.449219 30.949219 C 599.542969 30.425781 598.328125 30.167969 596.808594 30.167969 L 595.089844 30.167969 L 595.089844 28.6875 L 617.242188 28.6875 Z M 632.472656 64.433594 "/>
<path fill-rule="nonzero" fill="rgb(13.729858%, 12.159729%, 12.548828%)" fill-opacity="1" d="M 693.046875 31.808594 L 693.046875 53.878906 L 694.128906 53.878906 C 697.566406 53.878906 700.058594 52.796875 701.605469 50.640625 C 703.152344 48.480469 704.136719 45.296875 704.566406 41.082031 L 706.082031 41.082031 L 706.082031 69.472656 L 704.566406 69.472656 C 704.242188 66.378906 703.570312 63.847656 702.542969 61.875 C 701.519531 59.902344 700.324219 58.574219 698.964844 57.894531 C 697.609375 57.214844 695.632812 56.875 693.046875 56.875 L 693.046875 72.148438 C 693.046875 75.136719 693.175781 76.960938 693.429688 77.628906 C 693.683594 78.292969 694.152344 78.839844 694.847656 79.265625 C 695.542969 79.695312 696.660156 79.90625 698.207031 79.90625 L 701.445312 79.90625 C 706.507812 79.90625 710.566406 78.734375 713.621094 76.386719 C 716.671875 74.042969 718.863281 70.472656 720.195312 65.671875 L 721.675781 65.671875 L 719.238281 82.90625 L 672.378906 82.90625 L 672.378906 81.425781 L 674.175781 81.425781 C 675.75 81.425781 677.015625 81.144531 677.976562 80.585938 C 678.667969 80.214844 679.199219 79.574219 679.574219 78.667969 C 679.867188 78.027344 680.015625 76.347656 680.015625 73.628906 L 680.015625 37.964844 C 680.015625 35.511719 679.949219 34.007812 679.816406 33.445312 C 679.546875 32.515625 679.054688 31.792969 678.335938 31.285156 C 677.320312 30.542969 675.9375 30.167969 674.175781 30.167969 L 672.378906 30.167969 L 672.378906 28.6875 L 717.757812 28.6875 L 717.757812 44.722656 L 716.238281 44.722656 C 715.464844 40.804688 714.378906 37.992188 712.980469 36.285156 C 711.582031 34.582031 709.601562 33.328125 707.042969 32.527344 C 705.550781 32.046875 702.75 31.808594 698.648438 31.808594 Z M 693.046875 31.808594 "/>
<path fill-rule="nonzero" fill="rgb(13.729858%, 12.159729%, 12.548828%)" fill-opacity="1" d="M 763.820312 27.449219 L 764.257812 45.519531 L 762.621094 45.519531 C 761.84375 40.988281 759.945312 37.34375 756.921875 34.585938 C 753.898438 31.828125 750.625 30.449219 747.105469 30.449219 C 744.386719 30.449219 742.234375 31.175781 740.648438 32.628906 C 739.0625 34.082031 738.269531 35.753906 738.269531 37.644531 C 738.269531 38.84375 738.550781 39.910156 739.109375 40.84375 C 739.882812 42.097656 741.121094 43.335938 742.828125 44.5625 C 744.082031 45.441406 746.972656 47 751.503906 49.238281 C 757.847656 52.359375 762.125 55.304688 764.339844 58.078125 C 766.523438 60.847656 767.617188 64.019531 767.617188 67.59375 C 767.617188 72.125 765.851562 76.023438 762.320312 79.289062 C 758.785156 82.554688 754.300781 84.183594 748.863281 84.183594 C 747.160156 84.183594 745.546875 84.011719 744.027344 83.664062 C 742.507812 83.316406 740.601562 82.664062 738.308594 81.707031 C 737.03125 81.171875 735.976562 80.90625 735.152344 80.90625 C 734.457031 80.90625 733.726562 81.171875 732.953125 81.707031 C 732.179688 82.238281 731.550781 83.050781 731.074219 84.144531 L 729.59375 84.144531 L 729.59375 63.675781 L 731.074219 63.675781 C 732.246094 69.429688 734.507812 73.824219 737.851562 76.847656 C 741.195312 79.875 744.800781 81.386719 748.664062 81.386719 C 751.648438 81.386719 754.027344 80.574219 755.800781 78.945312 C 757.574219 77.320312 758.460938 75.429688 758.460938 73.269531 C 758.460938 71.988281 758.121094 70.75 757.441406 69.550781 C 756.761719 68.351562 755.726562 67.210938 754.34375 66.132812 C 752.957031 65.054688 750.503906 63.648438 746.984375 61.914062 C 742.054688 59.488281 738.507812 57.421875 736.351562 55.71875 C 734.191406 54.011719 732.53125 52.105469 731.371094 50 C 730.214844 47.894531 729.632812 45.574219 729.632812 43.042969 C 729.632812 38.722656 731.21875 35.046875 734.390625 32.007812 C 737.5625 28.96875 741.5625 27.449219 746.386719 27.449219 C 748.144531 27.449219 749.851562 27.664062 751.503906 28.089844 C 752.757812 28.40625 754.28125 29.003906 756.082031 29.867188 C 757.882812 30.734375 759.140625 31.167969 759.859375 31.167969 C 760.554688 31.167969 761.101562 30.953125 761.5 30.527344 C 761.898438 30.101562 762.273438 29.074219 762.621094 27.449219 Z M 763.820312 27.449219 "/>

                  </svg>