<?xml version="1.0" encoding="UTF-8"?>
<!-- CMYK_PDF_CONVERTED -->
<svg data-vectorized-cmyk="true" data-original-cmyk-pdf="true" xmlns="http://www.w3.org/2000/svg" xmlns:xlink="http://www.w3.org/1999/xlink" width="841.89" height="595.276" viewBox="0 0 841.89 595.276">
<path fill-rule="nonzero" fill="rgb(69.441223%, 12.850952%, 10.951233%)" fill-opacity="1" d="M 483.03125 70.066406 L 495.492188 70.066406 L 489.257812 53.335938 Z M 497.914062 76.46875 L 480.609375 76.46875 L 476.804688 86.738281 L 469.46875 86.738281 L 485.394531 45.832031 L 493.410156 45.832031 L 509.339844 86.738281 L 501.777344 86.738281 Z M 497.914062 76.46875 "/>
<path fill-rule="nonzero" fill="rgb(69.441223%, 12.850952%, 10.951233%)" fill-opacity="1" d="M 520.777344 86.738281 L 514.085938 86.738281 L 514.085938 58.640625 L 520.601562 58.640625 L 520.601562 62.386719 C 522.449219 59.15625 525.796875 57.832031 528.910156 57.832031 C 535.78125 57.832031 539.070312 62.792969 539.070312 68.96875 L 539.070312 86.738281 L 532.378906 86.738281 L 532.378906 70.125 C 532.378906 66.664062 530.808594 63.890625 526.597656 63.890625 C 522.792969 63.890625 520.777344 66.835938 520.777344 70.53125 Z M 520.777344 86.738281 "/>
<path fill-rule="nonzero" fill="rgb(69.441223%, 12.850952%, 10.951233%)" fill-opacity="1" d="M 561.523438 58.644531 L 568.164062 58.644531 L 568.164062 86.738281 L 561.523438 86.738281 Z M 564.8125 44.390625 C 567.242188 44.390625 569.199219 46.347656 569.199219 48.769531 C 569.199219 51.199219 567.242188 53.105469 564.8125 53.105469 C 562.441406 53.105469 560.484375 51.199219 560.484375 48.769531 C 560.484375 46.347656 562.441406 44.390625 564.8125 44.390625 "/>
<path fill-rule="nonzero" fill="rgb(69.441223%, 12.850952%, 10.951233%)" fill-opacity="1" d="M 580.167969 77.511719 C 580.398438 80.050781 582.304688 82.292969 585.882812 82.292969 C 588.648438 82.292969 590.09375 80.800781 590.09375 79.0625 C 590.09375 77.570312 589.054688 76.414062 586.800781 75.949219 L 582.648438 75.03125 C 577.679688 73.933594 575.082031 70.703125 575.082031 66.835938 C 575.082031 61.925781 579.589844 57.777344 585.417969 57.777344 C 593.265625 57.777344 595.804688 62.855469 596.261719 65.621094 L 590.605469 67.242188 C 590.378906 65.621094 589.164062 63.03125 585.417969 63.03125 C 583.046875 63.03125 581.386719 64.527344 581.386719 66.261719 C 581.386719 67.757812 582.472656 68.851562 584.203125 69.199219 L 588.472656 70.070312 C 593.78125 71.214844 596.546875 74.449219 596.546875 78.605469 C 596.546875 82.875 593.085938 87.601562 585.941406 87.601562 C 577.800781 87.601562 574.683594 82.292969 574.339844 79.121094 Z M 580.167969 77.511719 "/>
<path fill-rule="nonzero" fill="rgb(69.441223%, 12.850952%, 10.951233%)" fill-opacity="1" d="M 603.195312 44.964844 L 609.894531 44.964844 L 609.894531 86.738281 L 603.195312 86.738281 Z M 603.195312 44.964844 "/>
<path fill-rule="nonzero" fill="rgb(69.441223%, 12.850952%, 10.951233%)" fill-opacity="1" d="M 634.472656 75.082031 L 634.472656 73.816406 L 627.148438 74.90625 C 625.070312 75.261719 623.402344 76.417969 623.402344 78.722656 C 623.402344 80.628906 624.835938 82.355469 627.492188 82.355469 C 631.238281 82.355469 634.472656 80.570312 634.472656 75.082031 M 625.179688 70.644531 L 632.394531 69.546875 C 634.007812 69.3125 634.472656 68.511719 634.472656 67.523438 C 634.472656 65.160156 632.859375 63.253906 629.164062 63.253906 C 625.644531 63.253906 623.6875 65.507812 623.402344 68.332031 L 617.273438 66.949219 C 617.789062 62.097656 622.183594 57.777344 629.105469 57.777344 C 637.761719 57.777344 641.042969 62.679688 641.042969 68.273438 L 641.042969 82.238281 C 641.042969 84.777344 641.332031 86.449219 641.390625 86.734375 L 635.164062 86.734375 C 635.101562 86.566406 634.875 85.410156 634.875 83.167969 C 633.550781 85.292969 630.785156 87.605469 626.21875 87.605469 C 620.339844 87.605469 616.699219 83.5625 616.699219 79.125 C 616.699219 74.105469 620.398438 71.335938 625.179688 70.644531 "/>
<path fill-rule="nonzero" fill="rgb(69.441223%, 12.850952%, 10.951233%)" fill-opacity="1" d="M 655.828125 86.738281 L 649.136719 86.738281 L 649.136719 58.640625 L 655.648438 58.640625 L 655.648438 62.386719 C 657.5 59.15625 660.847656 57.832031 663.960938 57.832031 C 670.828125 57.832031 674.121094 62.792969 674.121094 68.96875 L 674.121094 86.738281 L 667.429688 86.738281 L 667.429688 70.125 C 667.429688 66.664062 665.867188 63.890625 661.648438 63.890625 C 657.84375 63.890625 655.828125 66.835938 655.828125 70.53125 Z M 655.828125 86.738281 "/>
<path fill-rule="nonzero" fill="rgb(69.441223%, 12.850952%, 10.951233%)" fill-opacity="1" d="M 694.324219 81.546875 C 698.710938 81.546875 701.765625 77.910156 701.765625 72.542969 C 701.765625 67.179688 698.761719 63.828125 694.382812 63.828125 C 689.996094 63.828125 686.761719 67.238281 686.761719 72.605469 C 686.761719 77.972656 689.765625 81.546875 694.324219 81.546875 M 708.21875 81.605469 C 708.21875 84.148438 708.457031 86.28125 708.515625 86.738281 L 702.113281 86.738281 C 701.996094 86.105469 701.824219 84.257812 701.824219 83.109375 C 700.492188 85.472656 697.554688 87.429688 693.574219 87.429688 C 685.5 87.429688 680.074219 81.082031 680.074219 72.605469 C 680.074219 64.519531 685.558594 57.890625 693.457031 57.890625 C 698.367188 57.890625 700.839844 60.140625 701.707031 61.929688 L 701.707031 44.972656 L 708.21875 44.972656 Z M 708.21875 81.605469 "/>
<path fill-rule="nonzero" fill="rgb(69.441223%, 12.850952%, 10.951233%)" fill-opacity="1" d="M 493.414062 129.878906 C 493.414062 124.046875 489.726562 121.050781 485.566406 121.050781 C 481.472656 121.050781 477.726562 124.046875 477.726562 129.878906 C 477.726562 135.699219 481.472656 138.824219 485.566406 138.824219 C 489.726562 138.824219 493.414062 135.757812 493.414062 129.878906 M 500.171875 129.878906 C 500.171875 138.535156 493.988281 144.820312 485.566406 144.820312 C 477.203125 144.820312 471.027344 138.535156 471.027344 129.878906 C 471.027344 121.28125 477.203125 114.996094 485.566406 114.996094 C 493.988281 114.996094 500.171875 121.28125 500.171875 129.878906 "/>
<path fill-rule="nonzero" fill="rgb(69.441223%, 12.850952%, 10.951233%)" fill-opacity="1" d="M 514.941406 112.164062 L 514.941406 115.859375 L 521.464844 115.859375 L 521.464844 121.679688 L 514.941406 121.679688 L 514.941406 143.957031 L 508.191406 143.957031 L 508.191406 121.679688 L 503.289062 121.679688 L 503.289062 115.859375 L 508.191406 115.859375 L 508.191406 111.984375 C 508.191406 105.699219 512.234375 101.894531 517.996094 101.894531 C 519.683594 101.894531 521.066406 102.238281 521.523438 102.476562 L 521.523438 108.179688 C 521.117188 108.070312 520.367188 107.894531 519.09375 107.894531 C 517.3125 107.894531 514.941406 108.703125 514.941406 112.164062 "/>
<path fill-rule="nonzero" fill="rgb(69.441223%, 12.850952%, 10.951233%)" fill-opacity="1" d="M 544.5 134.722656 C 544.726562 137.261719 546.636719 139.507812 550.210938 139.507812 C 552.980469 139.507812 554.421875 138.015625 554.421875 136.285156 C 554.421875 134.78125 553.386719 133.625 551.132812 133.160156 L 546.980469 132.242188 C 542.011719 131.144531 539.410156 127.914062 539.410156 124.050781 C 539.410156 119.148438 543.917969 114.996094 549.746094 114.996094 C 557.59375 114.996094 560.136719 120.066406 560.589844 122.835938 L 554.9375 124.457031 C 554.707031 122.835938 553.492188 120.242188 549.746094 120.242188 C 547.375 120.242188 545.714844 121.738281 545.714844 123.476562 C 545.714844 124.96875 546.804688 126.066406 548.539062 126.410156 L 552.800781 127.28125 C 558.109375 128.4375 560.875 131.667969 560.875 135.820312 C 560.875 140.089844 557.417969 144.824219 550.269531 144.824219 C 542.136719 144.824219 539.015625 139.507812 538.667969 136.335938 Z M 544.5 134.722656 "/>
<path fill-rule="nonzero" fill="rgb(69.441223%, 12.850952%, 10.951233%)" fill-opacity="1" d="M 589.964844 115.859375 L 596.605469 135.296875 L 602.199219 115.859375 L 609.007812 115.859375 L 600.007812 143.957031 L 593.308594 143.957031 L 586.328125 123.765625 L 579.527344 143.957031 L 572.660156 143.957031 L 563.539062 115.859375 L 570.703125 115.859375 L 576.414062 135.296875 L 583.046875 115.859375 Z M 589.964844 115.859375 "/>
<path fill-rule="nonzero" fill="rgb(69.441223%, 12.850952%, 10.951233%)" fill-opacity="1" d="M 614.097656 115.859375 L 620.730469 115.859375 L 620.730469 143.953125 L 614.097656 143.953125 Z M 617.386719 101.605469 C 619.808594 101.605469 621.773438 103.570312 621.773438 105.992188 C 621.773438 108.414062 619.808594 110.3125 617.386719 110.3125 C 615.023438 110.3125 613.058594 108.414062 613.058594 105.992188 C 613.058594 103.570312 615.023438 101.605469 617.386719 101.605469 "/>
<path fill-rule="nonzero" fill="rgb(69.441223%, 12.850952%, 10.951233%)" fill-opacity="1" d="M 629.394531 143.957031 L 629.394531 115.859375 L 635.796875 115.859375 L 635.796875 119.4375 C 637.417969 116.550781 640.9375 115.050781 644.109375 115.050781 C 647.804688 115.050781 651.027344 116.71875 652.53125 120.011719 C 654.722656 116.324219 658.015625 115.050781 661.644531 115.050781 C 666.730469 115.050781 671.574219 118.28125 671.574219 125.722656 L 671.574219 143.957031 L 665.101562 143.957031 L 665.101562 126.820312 C 665.101562 123.53125 663.441406 121.046875 659.6875 121.046875 C 656.167969 121.046875 653.855469 123.816406 653.855469 127.285156 L 653.855469 143.957031 L 647.28125 143.957031 L 647.28125 126.820312 C 647.28125 123.589844 645.671875 121.046875 641.863281 121.046875 C 638.28125 121.046875 636.027344 123.707031 636.027344 127.285156 L 636.027344 143.957031 Z M 629.394531 143.957031 "/>
<path fill-rule="nonzero" fill="rgb(69.441223%, 12.850952%, 10.951233%)" fill-opacity="1" d="M 679.78125 143.957031 L 679.78125 115.859375 L 686.183594 115.859375 L 686.183594 119.4375 C 687.796875 116.550781 691.316406 115.050781 694.496094 115.050781 C 698.191406 115.050781 701.414062 116.71875 702.917969 120.011719 C 705.109375 116.324219 708.402344 115.050781 712.027344 115.050781 C 717.109375 115.050781 721.960938 118.28125 721.960938 125.722656 L 721.960938 143.957031 L 715.488281 143.957031 L 715.488281 126.820312 C 715.488281 123.53125 713.816406 121.046875 710.070312 121.046875 C 706.554688 121.046875 704.242188 123.816406 704.242188 127.285156 L 704.242188 143.957031 L 697.667969 143.957031 L 697.667969 126.820312 C 697.667969 123.589844 696.058594 121.046875 692.242188 121.046875 C 688.667969 121.046875 686.414062 123.707031 686.414062 127.285156 L 686.414062 143.957031 Z M 679.78125 143.957031 "/>
<path fill-rule="nonzero" fill="rgb(69.441223%, 12.850952%, 10.951233%)" fill-opacity="1" d="M 748.625 126.816406 C 748.515625 123.527344 746.320312 120.589844 741.707031 120.589844 C 737.496094 120.589844 735.074219 123.820312 734.839844 126.816406 Z M 755.039062 135.9375 C 753.535156 140.839844 749.097656 144.824219 742.347656 144.824219 C 734.726562 144.824219 727.976562 139.277344 727.976562 129.761719 C 727.976562 120.878906 734.550781 114.996094 741.648438 114.996094 C 750.304688 114.996094 755.382812 120.699219 755.382812 129.59375 C 755.382812 130.679688 755.265625 131.609375 755.207031 131.726562 L 734.667969 131.726562 C 734.839844 135.988281 738.1875 139.050781 742.347656 139.050781 C 746.371094 139.050781 748.457031 136.917969 749.382812 134.148438 Z M 755.039062 135.9375 "/>
<path fill-rule="nonzero" fill="rgb(69.441223%, 12.850952%, 10.951233%)" fill-opacity="1" d="M 778.238281 122.492188 C 777.488281 122.375 776.738281 122.3125 776.042969 122.3125 C 770.855469 122.3125 768.492188 125.316406 768.492188 130.574219 L 768.492188 143.957031 L 761.792969 143.957031 L 761.792969 115.859375 L 768.308594 115.859375 L 768.308594 120.355469 C 769.640625 117.300781 772.761719 115.503906 776.449219 115.503906 C 777.261719 115.503906 777.953125 115.625 778.238281 115.683594 Z M 778.238281 122.492188 "/>
<path fill-rule="nonzero" fill="rgb(69.441223%, 12.850952%, 10.951233%)" fill-opacity="1" d="M 787.246094 134.722656 C 787.472656 137.261719 789.378906 139.507812 792.957031 139.507812 C 795.722656 139.507812 797.167969 138.015625 797.167969 136.285156 C 797.167969 134.78125 796.128906 133.625 793.875 133.160156 L 789.726562 132.242188 C 784.765625 131.144531 782.164062 127.914062 782.164062 124.050781 C 782.164062 119.148438 786.671875 114.996094 792.492188 114.996094 C 800.339844 114.996094 802.886719 120.066406 803.34375 122.835938 L 797.683594 124.457031 C 797.453125 122.835938 796.238281 120.242188 792.492188 120.242188 C 790.128906 120.242188 788.460938 121.738281 788.460938 123.476562 C 788.460938 124.96875 789.546875 126.066406 791.285156 126.410156 L 795.546875 127.28125 C 800.863281 128.4375 803.621094 131.667969 803.621094 135.820312 C 803.621094 140.089844 800.160156 144.824219 793.015625 144.824219 C 784.882812 144.824219 781.769531 139.507812 781.421875 136.335938 Z M 787.246094 134.722656 "/>
<path fill-rule="nonzero" fill="rgb(69.441223%, 12.850952%, 10.951233%)" fill-opacity="1" d="M 200.957031 69.179688 C 202.011719 70.089844 203.167969 71.492188 204.652344 71.527344 C 207.183594 71.820312 209.78125 71.710938 212.332031 71.710938 C 205.699219 64.34375 198.914062 57.039062 192.746094 49.292969 C 202.25 56.085938 211.308594 63.550781 220.539062 70.707031 C 221.964844 70.320312 223.375 69.914062 224.792969 69.542969 C 221.113281 59.8125 218.253906 49.765625 215.816406 39.65625 C 221.804688 48.585938 228.058594 57.316406 234.191406 66.132812 C 239.042969 64.253906 243.761719 62.144531 248.503906 59.964844 C 237.988281 44.492188 227.921875 28.757812 217.597656 13.179688 C 211.175781 15.679688 204.949219 18.722656 198.578125 21.347656 C 200.621094 29.710938 203.175781 37.96875 205.546875 46.246094 C 197.929688 40.128906 190.410156 33.871094 182.933594 27.574219 C 177.128906 29.71875 171.375 31.101562 165.25 31.960938 C 176.53125 45.007812 188.597656 57.164062 200.957031 69.179688 "/>
<path fill-rule="nonzero" fill="rgb(69.441223%, 12.850952%, 10.951233%)" fill-opacity="1" d="M 356.917969 60.441406 C 355.6875 63.613281 352.769531 64.90625 349.992188 66.449219 C 344.632812 58.726562 339.378906 50.933594 334.113281 43.152344 C 337.511719 41.371094 340.972656 39.40625 344.9375 40.65625 C 348.960938 41.851562 352.101562 46.113281 354.246094 49.523438 C 356.050781 52.738281 358.472656 56.644531 356.917969 60.441406 M 357.207031 29.136719 C 352.195312 26.109375 346.027344 25.359375 340.324219 26.320312 C 334.789062 27.316406 330.308594 29.847656 325.378906 32.359375 C 321.144531 34.613281 316.746094 36.570312 312.488281 38.78125 C 322.914062 54.390625 333.242188 70.058594 343.816406 85.578125 C 348.007812 83.28125 352.210938 80.988281 356.4375 78.734375 C 360.515625 76.488281 364.832031 74.28125 368.097656 70.894531 C 371.5 67.34375 373.902344 62.8125 373.988281 57.808594 C 374.265625 51.507812 371.785156 46.03125 368.523438 40.816406 C 365.609375 36.316406 361.863281 31.890625 357.207031 29.136719 "/>
<path fill-rule="nonzero" fill="rgb(69.441223%, 12.850952%, 10.951233%)" fill-opacity="1" d="M 142.742188 84.5625 C 140.515625 72.101562 137.417969 59.808594 133.242188 47.851562 C 142.09375 57.628906 150.261719 68.101562 158.503906 78.386719 C 163.667969 76.496094 168.957031 74.996094 174.28125 73.585938 C 170.316406 64.332031 165.175781 55.648438 159.277344 47.515625 C 155.464844 42.339844 151.265625 37.4375 147.316406 32.359375 C 146.371094 31.289062 145.703125 30.082031 144.21875 29.804688 C 141.238281 29.027344 138.167969 28.597656 135.164062 28 C 141.1875 36.351562 147.207031 44.375 151.628906 53.765625 C 144.78125 46.914062 138.246094 39.785156 131.292969 33.042969 C 129.105469 31.070312 127.226562 28.46875 124.734375 26.890625 C 120.820312 26.742188 116.863281 27.15625 112.964844 27.535156 C 118.128906 38.460938 122.136719 49.886719 124.90625 61.648438 C 117.351562 50.796875 109.582031 40.15625 101.5 29.703125 C 95.382812 31.027344 89.566406 32.992188 83.710938 35.152344 C 97.507812 54.027344 110.695312 73.324219 123.707031 92.738281 C 130 89.894531 136.328125 87.144531 142.742188 84.5625 "/>
<path fill-rule="nonzero" fill="rgb(69.441223%, 12.850952%, 10.951233%)" fill-opacity="1" d="M 186.792969 69.996094 C 190.511719 70.140625 194.242188 70.265625 197.964844 70.503906 C 189.046875 61.660156 179.695312 53.203125 171.054688 44.09375 C 166.996094 40.179688 163.226562 36 159.277344 31.992188 C 155.503906 31.789062 151.792969 31.15625 148.0625 30.472656 C 161.191406 43.484375 174.617188 56.039062 186.792969 69.996094 "/>
<path fill-rule="nonzero" fill="rgb(69.441223%, 12.850952%, 10.951233%)" fill-opacity="1" d="M 80.128906 107.984375 C 85.300781 106.535156 90.152344 104.769531 94.335938 101.269531 C 99.40625 97.101562 102.773438 90.90625 102.570312 84.242188 C 102.570312 78.953125 100.480469 73.980469 97.296875 69.832031 C 94.65625 66.449219 90.597656 64.523438 86.371094 64.078125 C 80.449219 63.476562 74.828125 64.878906 69.167969 66.394531 C 66.527344 67.046875 63.429688 67.875 60.703125 67.402344 C 57.820312 66.851562 56.671875 62.703125 58.527344 60.574219 C 60.25 58.421875 63.335938 57.285156 66.019531 57.335938 C 68.675781 57.578125 69.867188 59.351562 71.417969 61.234375 C 77.425781 58.761719 83.460938 56.339844 89.433594 53.792969 C 87.03125 49.328125 84.050781 45.4375 79.425781 43.132812 C 73.191406 39.996094 66.070312 40.921875 59.648438 42.941406 C 52.402344 45.253906 44.910156 49.480469 40.910156 56.1875 C 37.871094 61.0625 37.464844 67.207031 39.625 72.496094 C 42.132812 78.679688 46.175781 83.996094 52.964844 85.625 C 59.4375 87.101562 65.488281 85.792969 71.789062 84.285156 C 74.382812 83.746094 77.46875 82.851562 80.09375 83.457031 C 83.324219 84.257812 84.125 89.304688 81.542969 91.269531 C 79.023438 93.4375 75.117188 94.628906 71.867188 93.769531 C 69.4375 93.101562 68.296875 91.320312 66.8125 89.480469 C 60.898438 91.617188 54.949219 93.652344 49.007812 95.726562 C 51.574219 100.15625 54.636719 104.0625 59.253906 106.476562 C 65.808594 109.976562 73.097656 109.859375 80.128906 107.984375 "/>
<path fill-rule="nonzero" fill="rgb(69.441223%, 12.850952%, 10.951233%)" fill-opacity="1" d="M 293.144531 48.386719 C 298.316406 56.453125 303.714844 64.382812 308.820312 72.484375 C 299.3125 66.679688 290.03125 60.488281 280.589844 54.554688 C 275.246094 57.296875 269.78125 59.777344 264.457031 62.554688 C 275.042969 78.484375 285.734375 94.386719 296.898438 109.929688 C 301.050781 108.097656 305.046875 106.007812 309.089844 103.972656 C 302.898438 94.675781 296.441406 85.539062 290.476562 76.101562 C 301.511719 82.871094 312.464844 89.773438 323.519531 96.53125 C 327.949219 94.066406 332.421875 91.671875 336.925781 89.359375 C 326.472656 73.625 316.015625 57.894531 305.570312 42.160156 C 301.460938 44.3125 297.335938 46.402344 293.144531 48.386719 "/>
<path fill-rule="nonzero" fill="rgb(69.441223%, 12.850952%, 10.951233%)" fill-opacity="1" d="M 256.351562 102.375 C 253.476562 97.917969 250.75 93.394531 248.320312 88.671875 C 248 87.996094 247.664062 87.332031 247.339844 86.65625 C 247.882812 87.109375 248.421875 87.574219 248.960938 88.03125 C 253.667969 92.207031 258.402344 96.382812 263.019531 100.652344 C 260.808594 101.328125 258.613281 101.894531 256.351562 102.375 M 247.585938 70.34375 C 241.875 72.714844 236.1875 74.945312 230.253906 76.691406 C 232.542969 81.273438 235.082031 85.71875 237.890625 89.996094 C 244.414062 100.15625 252.667969 108.957031 259.230469 119.089844 C 262.300781 119.023438 265.382812 118.921875 268.453125 118.71875 C 266.695312 116.40625 264.910156 114.128906 263.09375 111.867188 C 266.613281 111.417969 269.988281 110.734375 273.386719 109.742188 C 276.0625 111.953125 278.621094 114.289062 281.242188 116.550781 C 285.734375 115.03125 290.09375 113.207031 294.382812 111.167969 C 281.175781 99.648438 267.9375 88.175781 254.828125 76.546875 C 252.421875 74.480469 250.109375 72.277344 247.585938 70.34375 "/>
<path fill-rule="nonzero" fill="rgb(69.441223%, 12.850952%, 10.951233%)" fill-opacity="1" d="M 235.332031 110.480469 C 228.347656 100.921875 220.609375 92.011719 212.382812 83.5 C 210.28125 81.464844 208.484375 78.910156 206.105469 77.238281 C 202.433594 76.910156 198.671875 77.238281 194.976562 77.085938 C 195.421875 77.636719 195.871094 78.183594 196.316406 78.75 C 209.195312 94.230469 219.335938 111.386719 228.378906 129.324219 C 238.007812 125.289062 247.785156 121.1875 258.089844 119.332031 C 254.824219 115.753906 251.632812 112.101562 248.300781 108.566406 C 243.878906 108.625 239.621094 109.425781 235.332031 110.480469 "/>
<path fill-rule="nonzero" fill="rgb(69.441223%, 12.850952%, 10.951233%)" fill-opacity="1" d="M 191.679688 127.644531 C 190.394531 124.691406 189.121094 121.738281 187.921875 118.753906 C 193.652344 116.238281 199.457031 113.875 205.226562 111.453125 C 203.019531 107.226562 200.824219 102.976562 198.488281 98.824219 C 192.910156 100.839844 187.441406 103.109375 181.949219 105.304688 C 180.597656 102.578125 179.292969 99.835938 178.042969 97.058594 C 184.507812 94.394531 191.113281 92.164062 197.804688 90.117188 C 195.121094 85.988281 192.378906 81.839844 189.289062 77.992188 C 176.988281 80.210938 164.957031 85.222656 153.355469 89.769531 C 162.28125 109.734375 169.976562 130.296875 178.269531 150.535156 C 193.019531 144.960938 207.464844 138.53125 221.84375 132.066406 C 219.632812 127.265625 217.277344 122.53125 214.980469 117.773438 C 207.1875 120.996094 199.449219 124.363281 191.679688 127.644531 "/>
<path fill-rule="nonzero" fill="rgb(69.441223%, 12.850952%, 10.951233%)" fill-opacity="1" d="M 135.8125 124.730469 C 134.363281 128.535156 129.300781 129.160156 125.933594 130.542969 C 124.238281 126.230469 122.566406 121.910156 120.90625 117.582031 C 123.882812 116.578125 127.054688 114.824219 130.21875 114.6875 C 134.699219 114.90625 137.332031 120.949219 135.8125 124.730469 M 155.335938 123.277344 C 156.941406 117.761719 155.027344 111.550781 152.324219 106.691406 C 149.566406 101.796875 144.976562 98.082031 139.265625 97.5 C 132.828125 96.65625 126.699219 98.140625 120.785156 100.613281 C 112.472656 104.199219 104.003906 107.371094 95.558594 110.628906 C 103.394531 130.289062 112.136719 149.585938 120.226562 169.128906 C 126.660156 167.238281 133.070312 165.261719 139.484375 163.296875 C 136.976562 156.402344 133.789062 149.773438 131.1875 142.910156 C 132.03125 142.667969 132.851562 142.429688 133.6875 142.203125 C 140.21875 147.832031 146.882812 153.308594 153.339844 159.011719 C 160.300781 156.894531 167.175781 154.464844 174 151.941406 C 166.144531 145.234375 158.242188 138.601562 150.425781 131.824219 C 152.542969 129.167969 154.527344 126.660156 155.335938 123.277344 "/>
<path fill-rule="nonzero" fill="rgb(69.441223%, 12.850952%, 10.951233%)" fill-opacity="1" d="M 86.160156 113.964844 C 79.644531 115.988281 73.097656 117.914062 66.566406 119.863281 C 73.25 135 79.824219 150.167969 85.695312 165.644531 C 87.296875 169.667969 88.691406 173.753906 90.371094 177.742188 C 97.210938 175.820312 104.082031 174.003906 110.898438 171.980469 C 107.320312 162.640625 103.210938 153.59375 99.324219 144.371094 C 95.0625 134.179688 90.53125 124.113281 86.160156 113.964844 "/>
<path fill-rule="nonzero" fill="rgb(69.441223%, 12.850952%, 10.951233%)" fill-opacity="1" d="M 425.628906 183.265625 L 421.820312 183.265625 L 421.820312 13.097656 L 425.628906 13.097656 Z M 425.628906 183.265625 "/>
<path fill-rule="nonzero" fill="rgb(69.441223%, 12.850952%, 10.951233%)" fill-opacity="1" d="M 49.578125 353.292969 L 49.578125 255.808594 L 68.554688 255.808594 L 68.554688 335.144531 L 111.996094 335.144531 L 111.996094 353.292969 Z M 49.578125 353.292969 "/>
<path fill-rule="nonzero" fill="rgb(69.441223%, 12.850952%, 10.951233%)" fill-opacity="1" d="M 126.5625 255.808594 L 145.808594 255.808594 L 145.808594 353.292969 L 126.5625 353.292969 Z M 126.5625 255.808594 "/>
<path fill-rule="nonzero" fill="rgb(69.441223%, 12.850952%, 10.951233%)" fill-opacity="1" d="M 168.074219 353.292969 L 168.074219 255.808594 L 229.671875 255.808594 L 229.671875 273.820312 L 187.050781 273.820312 L 187.050781 297.878906 L 224.996094 297.878906 L 224.996094 315.34375 L 187.183594 315.34375 L 187.183594 353.292969 Z M 168.074219 353.292969 "/>
<path fill-rule="nonzero" fill="rgb(69.441223%, 12.850952%, 10.951233%)" fill-opacity="1" d="M 245.328125 353.292969 L 245.328125 255.808594 L 306.378906 255.808594 L 306.378906 273.679688 L 264.304688 273.679688 L 264.304688 295.953125 L 302.390625 295.953125 L 302.390625 312.867188 L 264.304688 312.867188 L 264.304688 335.417969 L 306.378906 335.417969 L 306.378906 353.292969 Z M 245.328125 353.292969 "/>
<path fill-rule="nonzero" fill="rgb(69.441223%, 12.850952%, 10.951233%)" fill-opacity="1" d="M 398.066406 353.292969 L 396.824219 342.152344 C 392.425781 348.753906 382.804688 355.351562 368.09375 355.351562 C 341.828125 355.351562 319.417969 336.105469 319.417969 304.617188 C 319.417969 273.132812 342.929688 253.746094 369.328125 253.746094 C 394.898438 253.746094 409.0625 268.730469 413.875 283.71875 L 395.726562 290.183594 C 393.253906 281.519531 385.136719 271.480469 369.328125 271.480469 C 354.617188 271.480469 338.664062 281.519531 338.664062 304.617188 C 338.664062 326.617188 353.105469 338.03125 369.464844 338.03125 C 387.476562 338.03125 394.492188 325.929688 395.589844 319.054688 L 364.792969 319.054688 L 364.792969 302.554688 L 413.460938 302.554688 L 413.460938 353.292969 Z M 398.066406 353.292969 "/>
<path fill-rule="nonzero" fill="rgb(69.441223%, 12.850952%, 10.951233%)" fill-opacity="1" d="M 431.585938 318.78125 L 431.585938 255.808594 L 450.5625 255.808594 L 450.5625 317.40625 C 450.5625 330.195312 457.710938 336.929688 468.984375 336.929688 C 480.535156 336.929688 487.546875 330.195312 487.546875 317.40625 L 487.546875 255.808594 L 506.519531 255.808594 L 506.519531 318.78125 C 506.519531 342.707031 489.882812 355.492188 468.984375 355.492188 C 448.222656 355.492188 431.585938 342.707031 431.585938 318.78125 "/>
<path fill-rule="nonzero" fill="rgb(69.441223%, 12.850952%, 10.951233%)" fill-opacity="1" d="M 548.847656 313.691406 L 575.800781 313.691406 L 562.324219 276.84375 Z M 582.121094 331.019531 L 542.523438 331.019531 L 534.414062 353.292969 L 514.339844 353.292969 L 551.734375 255.808594 L 573.734375 255.808594 L 610.859375 353.292969 L 590.234375 353.292969 Z M 582.121094 331.019531 "/>
<path fill-rule="nonzero" fill="rgb(69.441223%, 12.850952%, 10.951233%)" fill-opacity="1" d="M 657.859375 299.394531 C 667.484375 299.394531 673.125 293.894531 673.125 285.917969 C 673.125 277.671875 667.484375 272.308594 657.859375 272.308594 L 642.460938 272.308594 L 642.460938 299.394531 Z M 652.359375 315.753906 L 642.460938 315.753906 L 642.460938 353.292969 L 623.351562 353.292969 L 623.351562 255.808594 L 661.4375 255.808594 C 680.414062 255.808594 692.507812 268.871094 692.507812 285.78125 C 692.507812 299.394531 684.535156 309.707031 671.75 313.417969 L 692.648438 353.292969 L 671.472656 353.292969 Z M 652.359375 315.753906 "/>
<path fill-rule="nonzero" fill="rgb(69.441223%, 12.850952%, 10.951233%)" fill-opacity="1" d="M 743.363281 335.691406 C 759.308594 335.691406 772.644531 325.792969 772.644531 304.617188 C 772.644531 283.445312 759.445312 273.40625 743.5 273.40625 L 728.238281 273.40625 L 728.238281 335.691406 Z M 709.261719 353.292969 L 709.261719 255.804688 L 744.183594 255.804688 C 771.960938 255.804688 792.3125 273.820312 792.3125 304.617188 C 792.3125 335.417969 771.824219 353.292969 744.046875 353.292969 Z M 709.261719 353.292969 "/>
<path fill-rule="nonzero" fill="rgb(100%, 100%, 100%)" fill-opacity="1" d="M 483.03125 472.394531 L 495.492188 472.394531 L 489.257812 455.664062 Z M 497.914062 478.796875 L 480.609375 478.796875 L 476.804688 489.066406 L 469.46875 489.066406 L 485.394531 448.160156 L 493.410156 448.160156 L 509.339844 489.066406 L 501.777344 489.066406 Z M 497.914062 478.796875 "/>
<path fill-rule="nonzero" fill="rgb(100%, 100%, 100%)" fill-opacity="1" d="M 520.777344 489.066406 L 514.085938 489.066406 L 514.085938 460.96875 L 520.601562 460.96875 L 520.601562 464.714844 C 522.449219 461.484375 525.796875 460.160156 528.910156 460.160156 C 535.78125 460.160156 539.070312 465.121094 539.070312 471.296875 L 539.070312 489.066406 L 532.378906 489.066406 L 532.378906 472.453125 C 532.378906 468.992188 530.808594 466.21875 526.597656 466.21875 C 522.792969 466.21875 520.777344 469.164062 520.777344 472.855469 Z M 520.777344 489.066406 "/>
<path fill-rule="nonzero" fill="rgb(100%, 100%, 100%)" fill-opacity="1" d="M 561.523438 460.96875 L 568.164062 460.96875 L 568.164062 489.066406 L 561.523438 489.066406 Z M 564.8125 446.71875 C 567.242188 446.71875 569.199219 448.675781 569.199219 451.097656 C 569.199219 453.527344 567.242188 455.433594 564.8125 455.433594 C 562.441406 455.433594 560.484375 453.527344 560.484375 451.097656 C 560.484375 448.675781 562.441406 446.71875 564.8125 446.71875 "/>
<path fill-rule="nonzero" fill="rgb(100%, 100%, 100%)" fill-opacity="1" d="M 580.167969 479.839844 C 580.398438 482.378906 582.304688 484.621094 585.882812 484.621094 C 588.648438 484.621094 590.09375 483.128906 590.09375 481.390625 C 590.09375 479.898438 589.054688 478.742188 586.800781 478.277344 L 582.648438 477.359375 C 577.679688 476.261719 575.082031 473.027344 575.082031 469.164062 C 575.082031 464.253906 579.589844 460.101562 585.417969 460.101562 C 593.265625 460.101562 595.804688 465.183594 596.261719 467.949219 L 590.605469 469.570312 C 590.378906 467.949219 589.164062 465.359375 585.417969 465.359375 C 583.046875 465.359375 581.386719 466.851562 581.386719 468.589844 C 581.386719 470.085938 582.472656 471.179688 584.203125 471.527344 L 588.472656 472.394531 C 593.78125 473.542969 596.546875 476.773438 596.546875 480.933594 C 596.546875 485.203125 593.085938 489.929688 585.941406 489.929688 C 577.800781 489.929688 574.683594 484.621094 574.339844 481.449219 Z M 580.167969 479.839844 "/>
<path fill-rule="nonzero" fill="rgb(100%, 100%, 100%)" fill-opacity="1" d="M 603.195312 447.292969 L 609.894531 447.292969 L 609.894531 489.066406 L 603.195312 489.066406 Z M 603.195312 447.292969 "/>
<path fill-rule="nonzero" fill="rgb(100%, 100%, 100%)" fill-opacity="1" d="M 634.472656 477.410156 L 634.472656 476.144531 L 627.148438 477.234375 C 625.070312 477.589844 623.402344 478.746094 623.402344 481.046875 C 623.402344 482.957031 624.835938 484.683594 627.492188 484.683594 C 631.238281 484.683594 634.472656 482.894531 634.472656 477.410156 M 625.179688 472.972656 L 632.394531 471.875 C 634.007812 471.640625 634.472656 470.839844 634.472656 469.851562 C 634.472656 467.488281 632.859375 465.582031 629.164062 465.582031 C 625.644531 465.582031 623.6875 467.835938 623.402344 470.660156 L 617.273438 469.277344 C 617.789062 464.425781 622.183594 460.105469 629.105469 460.105469 C 637.761719 460.105469 641.042969 465.007812 641.042969 470.601562 L 641.042969 484.566406 C 641.042969 487.105469 641.332031 488.777344 641.390625 489.0625 L 635.164062 489.0625 C 635.101562 488.894531 634.875 487.738281 634.875 485.496094 C 633.550781 487.621094 630.785156 489.933594 626.21875 489.933594 C 620.339844 489.933594 616.699219 485.890625 616.699219 481.453125 C 616.699219 476.433594 620.398438 473.664062 625.179688 472.972656 "/>
<path fill-rule="nonzero" fill="rgb(100%, 100%, 100%)" fill-opacity="1" d="M 655.828125 489.066406 L 649.136719 489.066406 L 649.136719 460.96875 L 655.648438 460.96875 L 655.648438 464.714844 C 657.5 461.484375 660.847656 460.160156 663.960938 460.160156 C 670.828125 460.160156 674.121094 465.121094 674.121094 471.296875 L 674.121094 489.066406 L 667.429688 489.066406 L 667.429688 472.453125 C 667.429688 468.992188 665.867188 466.21875 661.648438 466.21875 C 657.84375 466.21875 655.828125 469.164062 655.828125 472.855469 Z M 655.828125 489.066406 "/>
<path fill-rule="nonzero" fill="rgb(100%, 100%, 100%)" fill-opacity="1" d="M 694.324219 483.875 C 698.710938 483.875 701.765625 480.238281 701.765625 474.871094 C 701.765625 469.507812 698.761719 466.15625 694.382812 466.15625 C 689.996094 466.15625 686.761719 469.566406 686.761719 474.929688 C 686.761719 480.296875 689.765625 483.875 694.324219 483.875 M 708.21875 483.933594 C 708.21875 486.472656 708.457031 488.609375 708.515625 489.066406 L 702.113281 489.066406 C 701.996094 488.429688 701.824219 486.585938 701.824219 485.4375 C 700.492188 487.800781 697.554688 489.757812 693.574219 489.757812 C 685.5 489.757812 680.074219 483.410156 680.074219 474.929688 C 680.074219 466.847656 685.558594 460.214844 693.457031 460.214844 C 698.367188 460.214844 700.839844 462.46875 701.707031 464.257812 L 701.707031 447.296875 L 708.21875 447.296875 Z M 708.21875 483.933594 "/>
<path fill-rule="nonzero" fill="rgb(100%, 100%, 100%)" fill-opacity="1" d="M 493.414062 532.207031 C 493.414062 526.375 489.726562 523.378906 485.566406 523.378906 C 481.472656 523.378906 477.726562 526.375 477.726562 532.207031 C 477.726562 538.027344 481.472656 541.148438 485.566406 541.148438 C 489.726562 541.148438 493.414062 538.085938 493.414062 532.207031 M 500.171875 532.207031 C 500.171875 540.863281 493.988281 547.148438 485.566406 547.148438 C 477.203125 547.148438 471.027344 540.863281 471.027344 532.207031 C 471.027344 523.609375 477.203125 517.320312 485.566406 517.320312 C 493.988281 517.320312 500.171875 523.609375 500.171875 532.207031 "/>
<path fill-rule="nonzero" fill="rgb(100%, 100%, 100%)" fill-opacity="1" d="M 514.941406 514.492188 L 514.941406 518.1875 L 521.464844 518.1875 L 521.464844 524.007812 L 514.941406 524.007812 L 514.941406 546.285156 L 508.191406 546.285156 L 508.191406 524.007812 L 503.289062 524.007812 L 503.289062 518.1875 L 508.191406 518.1875 L 508.191406 514.3125 C 508.191406 508.027344 512.234375 504.222656 517.996094 504.222656 C 519.683594 504.222656 521.066406 504.566406 521.523438 504.804688 L 521.523438 510.507812 C 521.117188 510.398438 520.367188 510.222656 519.09375 510.222656 C 517.3125 510.222656 514.941406 511.03125 514.941406 514.492188 "/>
<path fill-rule="nonzero" fill="rgb(100%, 100%, 100%)" fill-opacity="1" d="M 544.5 537.050781 C 544.726562 539.589844 546.636719 541.835938 550.210938 541.835938 C 552.980469 541.835938 554.421875 540.339844 554.421875 538.613281 C 554.421875 537.109375 553.386719 535.953125 551.132812 535.488281 L 546.980469 534.570312 C 542.011719 533.472656 539.410156 530.242188 539.410156 526.378906 C 539.410156 521.472656 543.917969 517.324219 549.746094 517.324219 C 557.59375 517.324219 560.136719 522.394531 560.589844 525.160156 L 554.9375 526.78125 C 554.707031 525.160156 553.492188 522.570312 549.746094 522.570312 C 547.375 522.570312 545.714844 524.066406 545.714844 525.804688 C 545.714844 527.296875 546.804688 528.394531 548.539062 528.738281 L 552.800781 529.609375 C 558.109375 530.765625 560.875 533.996094 560.875 538.148438 C 560.875 542.417969 557.417969 547.152344 550.269531 547.152344 C 542.136719 547.152344 539.015625 541.835938 538.667969 538.664062 Z M 544.5 537.050781 "/>
<path fill-rule="nonzero" fill="rgb(100%, 100%, 100%)" fill-opacity="1" d="M 589.964844 518.1875 L 596.605469 537.625 L 602.199219 518.1875 L 609.007812 518.1875 L 600.007812 546.28125 L 593.308594 546.28125 L 586.328125 526.09375 L 579.527344 546.28125 L 572.660156 546.28125 L 563.539062 518.1875 L 570.703125 518.1875 L 576.414062 537.625 L 583.046875 518.1875 Z M 589.964844 518.1875 "/>
<path fill-rule="nonzero" fill="rgb(100%, 100%, 100%)" fill-opacity="1" d="M 614.097656 518.183594 L 620.730469 518.183594 L 620.730469 546.28125 L 614.097656 546.28125 Z M 617.386719 503.933594 C 619.808594 503.933594 621.773438 505.898438 621.773438 508.320312 C 621.773438 510.742188 619.808594 512.640625 617.386719 512.640625 C 615.023438 512.640625 613.058594 510.742188 613.058594 508.320312 C 613.058594 505.898438 615.023438 503.933594 617.386719 503.933594 "/>
<path fill-rule="nonzero" fill="rgb(100%, 100%, 100%)" fill-opacity="1" d="M 629.394531 546.285156 L 629.394531 518.1875 L 635.796875 518.1875 L 635.796875 521.765625 C 637.417969 518.878906 640.9375 517.375 644.109375 517.375 C 647.804688 517.375 651.027344 519.046875 652.53125 522.339844 C 654.722656 518.652344 658.015625 517.375 661.644531 517.375 C 666.730469 517.375 671.574219 520.609375 671.574219 528.050781 L 671.574219 546.285156 L 665.101562 546.285156 L 665.101562 529.148438 C 665.101562 525.855469 663.441406 523.375 659.6875 523.375 C 656.167969 523.375 653.855469 526.144531 653.855469 529.609375 L 653.855469 546.285156 L 647.28125 546.285156 L 647.28125 529.148438 C 647.28125 525.914062 645.671875 523.375 641.863281 523.375 C 638.28125 523.375 636.027344 526.035156 636.027344 529.609375 L 636.027344 546.285156 Z M 629.394531 546.285156 "/>
<path fill-rule="nonzero" fill="rgb(100%, 100%, 100%)" fill-opacity="1" d="M 679.78125 546.285156 L 679.78125 518.1875 L 686.183594 518.1875 L 686.183594 521.765625 C 687.796875 518.878906 691.316406 517.375 694.496094 517.375 C 698.191406 517.375 701.414062 519.046875 702.917969 522.339844 C 705.109375 518.652344 708.402344 517.375 712.027344 517.375 C 717.109375 517.375 721.960938 520.609375 721.960938 528.050781 L 721.960938 546.285156 L 715.488281 546.285156 L 715.488281 529.148438 C 715.488281 525.855469 713.816406 523.375 710.070312 523.375 C 706.554688 523.375 704.242188 526.144531 704.242188 529.609375 L 704.242188 546.285156 L 697.667969 546.285156 L 697.667969 529.148438 C 697.667969 525.914062 696.058594 523.375 692.242188 523.375 C 688.667969 523.375 686.414062 526.035156 686.414062 529.609375 L 686.414062 546.285156 Z M 679.78125 546.285156 "/>
<path fill-rule="nonzero" fill="rgb(100%, 100%, 100%)" fill-opacity="1" d="M 748.625 529.144531 C 748.515625 525.855469 746.320312 522.917969 741.707031 522.917969 C 737.496094 522.917969 735.074219 526.148438 734.839844 529.144531 Z M 755.039062 538.265625 C 753.535156 543.167969 749.097656 547.152344 742.347656 547.152344 C 734.726562 547.152344 727.976562 541.605469 727.976562 532.089844 C 727.976562 523.203125 734.550781 517.324219 741.648438 517.324219 C 750.304688 517.324219 755.382812 523.027344 755.382812 531.921875 C 755.382812 533.007812 755.265625 533.9375 755.207031 534.054688 L 734.667969 534.054688 C 734.839844 538.316406 738.1875 541.378906 742.347656 541.378906 C 746.371094 541.378906 748.457031 539.246094 749.382812 536.476562 Z M 755.039062 538.265625 "/>
<path fill-rule="nonzero" fill="rgb(100%, 100%, 100%)" fill-opacity="1" d="M 778.238281 524.820312 C 777.488281 524.699219 776.738281 524.640625 776.042969 524.640625 C 770.855469 524.640625 768.492188 527.644531 768.492188 532.902344 L 768.492188 546.285156 L 761.792969 546.285156 L 761.792969 518.1875 L 768.308594 518.1875 L 768.308594 522.683594 C 769.640625 519.628906 772.761719 517.832031 776.449219 517.832031 C 777.261719 517.832031 777.953125 517.949219 778.238281 518.011719 Z M 778.238281 524.820312 "/>
<path fill-rule="nonzero" fill="rgb(100%, 100%, 100%)" fill-opacity="1" d="M 787.246094 537.050781 C 787.472656 539.589844 789.378906 541.835938 792.957031 541.835938 C 795.722656 541.835938 797.167969 540.339844 797.167969 538.613281 C 797.167969 537.109375 796.128906 535.953125 793.875 535.488281 L 789.726562 534.570312 C 784.765625 533.472656 782.164062 530.242188 782.164062 526.378906 C 782.164062 521.472656 786.671875 517.324219 792.492188 517.324219 C 800.339844 517.324219 802.886719 522.394531 803.34375 525.160156 L 797.683594 526.78125 C 797.453125 525.160156 796.238281 522.570312 792.492188 522.570312 C 790.128906 522.570312 788.460938 524.066406 788.460938 525.804688 C 788.460938 527.296875 789.546875 528.394531 791.285156 528.738281 L 795.546875 529.609375 C 800.863281 530.765625 803.621094 533.996094 803.621094 538.148438 C 803.621094 542.417969 800.160156 547.152344 793.015625 547.152344 C 784.882812 547.152344 781.769531 541.835938 781.421875 538.664062 Z M 787.246094 537.050781 "/>
<path fill-rule="nonzero" fill="rgb(100%, 100%, 100%)" fill-opacity="1" d="M 200.957031 471.507812 C 202.011719 472.417969 203.167969 473.820312 204.652344 473.855469 C 207.183594 474.148438 209.78125 474.039062 212.332031 474.039062 C 205.699219 466.671875 198.914062 459.367188 192.746094 451.621094 C 202.25 458.414062 211.308594 465.878906 220.539062 473.035156 C 221.964844 472.648438 223.375 472.242188 224.792969 471.871094 C 221.113281 462.140625 218.253906 452.09375 215.816406 441.984375 C 221.804688 450.910156 228.058594 459.644531 234.191406 468.460938 C 239.042969 466.582031 243.761719 464.472656 248.503906 462.292969 C 237.988281 446.820312 227.921875 431.082031 217.597656 415.507812 C 211.175781 418.003906 204.949219 421.050781 198.578125 423.675781 C 200.621094 432.035156 203.175781 440.296875 205.546875 448.574219 C 197.929688 442.457031 190.410156 436.195312 182.933594 429.902344 C 177.128906 432.046875 171.375 433.429688 165.25 434.289062 C 176.53125 447.332031 188.597656 459.492188 200.957031 471.507812 "/>
<path fill-rule="nonzero" fill="rgb(100%, 100%, 100%)" fill-opacity="1" d="M 356.917969 462.769531 C 355.6875 465.941406 352.769531 467.234375 349.992188 468.777344 C 344.632812 461.054688 339.378906 453.261719 334.113281 445.480469 C 337.511719 443.699219 340.972656 441.734375 344.9375 442.984375 C 348.960938 444.179688 352.101562 448.441406 354.246094 451.851562 C 356.050781 455.066406 358.472656 458.972656 356.917969 462.769531 M 357.207031 431.464844 C 352.195312 428.4375 346.027344 427.6875 340.324219 428.648438 C 334.789062 429.644531 330.308594 432.175781 325.378906 434.6875 C 321.144531 436.941406 316.746094 438.898438 312.488281 441.109375 C 322.914062 456.71875 333.242188 472.386719 343.816406 487.90625 C 348.007812 485.609375 352.210938 483.316406 356.4375 481.0625 C 360.515625 478.816406 364.832031 476.605469 368.097656 473.222656 C 371.5 469.671875 373.902344 465.140625 373.988281 460.136719 C 374.265625 453.832031 371.785156 448.359375 368.523438 443.144531 C 365.609375 438.644531 361.863281 434.214844 357.207031 431.464844 "/>
<path fill-rule="nonzero" fill="rgb(100%, 100%, 100%)" fill-opacity="1" d="M 142.742188 486.890625 C 140.515625 474.429688 137.417969 462.136719 133.242188 450.179688 C 142.09375 459.957031 150.261719 470.429688 158.503906 480.714844 C 163.667969 478.824219 168.957031 477.324219 174.28125 475.914062 C 170.316406 466.65625 165.175781 457.976562 159.277344 449.84375 C 155.464844 444.667969 151.265625 439.765625 147.316406 434.6875 C 146.371094 433.617188 145.703125 432.410156 144.21875 432.132812 C 141.238281 431.355469 138.167969 430.925781 135.164062 430.324219 C 141.1875 438.679688 147.207031 446.703125 151.628906 456.09375 C 144.78125 449.242188 138.246094 442.113281 131.292969 435.371094 C 129.105469 433.398438 127.226562 430.796875 124.734375 429.21875 C 120.820312 429.066406 116.863281 429.480469 112.964844 429.863281 C 118.128906 440.789062 122.136719 452.214844 124.90625 463.976562 C 117.351562 453.125 109.582031 442.484375 101.5 432.03125 C 95.382812 433.355469 89.566406 435.320312 83.710938 437.480469 C 97.507812 456.355469 110.695312 475.652344 123.707031 495.066406 C 130 492.222656 136.328125 489.472656 142.742188 486.890625 "/>
<path fill-rule="nonzero" fill="rgb(100%, 100%, 100%)" fill-opacity="1" d="M 186.792969 472.324219 C 190.511719 472.46875 194.242188 472.59375 197.964844 472.832031 C 189.046875 463.988281 179.695312 455.53125 171.054688 446.421875 C 166.996094 442.503906 163.226562 438.328125 159.277344 434.320312 C 155.503906 434.117188 151.792969 433.484375 148.0625 432.800781 C 161.191406 445.8125 174.617188 458.367188 186.792969 472.324219 "/>
<path fill-rule="nonzero" fill="rgb(100%, 100%, 100%)" fill-opacity="1" d="M 80.128906 510.3125 C 85.300781 508.863281 90.152344 507.097656 94.335938 503.597656 C 99.40625 499.429688 102.773438 493.234375 102.570312 486.570312 C 102.570312 481.277344 100.480469 476.308594 97.296875 472.160156 C 94.65625 468.773438 90.597656 466.851562 86.371094 466.402344 C 80.449219 465.804688 74.828125 467.207031 69.167969 468.722656 C 66.527344 469.375 63.429688 470.199219 60.703125 469.726562 C 57.820312 469.179688 56.671875 465.027344 58.527344 462.902344 C 60.25 460.75 63.335938 459.613281 66.019531 459.660156 C 68.675781 459.90625 69.867188 461.679688 71.417969 463.5625 C 77.425781 461.089844 83.460938 458.667969 89.433594 456.117188 C 87.03125 451.65625 84.050781 447.765625 79.425781 445.460938 C 73.191406 442.324219 66.070312 443.25 59.648438 445.269531 C 52.402344 447.578125 44.910156 451.808594 40.910156 458.515625 C 37.871094 463.390625 37.464844 469.535156 39.625 474.824219 C 42.132812 481.007812 46.175781 486.324219 52.964844 487.953125 C 59.4375 489.429688 65.488281 488.121094 71.789062 486.613281 C 74.382812 486.070312 77.46875 485.179688 80.09375 485.785156 C 83.324219 486.585938 84.125 491.632812 81.542969 493.597656 C 79.023438 495.765625 75.117188 496.957031 71.867188 496.097656 C 69.4375 495.429688 68.296875 493.648438 66.8125 491.808594 C 60.898438 493.945312 54.949219 495.976562 49.007812 498.054688 C 51.574219 502.484375 54.636719 506.390625 59.253906 508.804688 C 65.808594 512.304688 73.097656 512.1875 80.128906 510.3125 "/>
<path fill-rule="nonzero" fill="rgb(100%, 100%, 100%)" fill-opacity="1" d="M 293.144531 450.714844 C 298.316406 458.78125 303.714844 466.710938 308.820312 474.8125 C 299.3125 469.007812 290.03125 462.8125 280.589844 456.882812 C 275.246094 459.625 269.78125 462.105469 264.457031 464.882812 C 275.042969 480.8125 285.734375 496.714844 296.898438 512.257812 C 301.050781 510.425781 305.046875 508.335938 309.089844 506.300781 C 302.898438 497.003906 296.441406 487.863281 290.476562 478.429688 C 301.511719 485.199219 312.464844 492.101562 323.519531 498.859375 C 327.949219 496.394531 332.421875 494 336.925781 491.6875 C 326.472656 475.949219 316.015625 460.222656 305.570312 444.488281 C 301.460938 446.640625 297.335938 448.730469 293.144531 450.714844 "/>
<path fill-rule="nonzero" fill="rgb(100%, 100%, 100%)" fill-opacity="1" d="M 256.351562 504.703125 C 253.476562 500.246094 250.75 495.722656 248.320312 491 C 248 490.324219 247.664062 489.65625 247.339844 488.984375 C 247.882812 489.4375 248.421875 489.902344 248.960938 490.359375 C 253.667969 494.535156 258.402344 498.710938 263.019531 502.980469 C 260.808594 503.65625 258.613281 504.222656 256.351562 504.703125 M 247.585938 472.671875 C 241.875 475.042969 236.1875 477.273438 230.253906 479.019531 C 232.542969 483.601562 235.082031 488.046875 237.890625 492.324219 C 244.414062 502.484375 252.667969 511.285156 259.230469 521.417969 C 262.300781 521.351562 265.382812 521.246094 268.453125 521.046875 C 266.695312 518.734375 264.910156 516.457031 263.09375 514.195312 C 266.613281 513.746094 269.988281 513.0625 273.386719 512.066406 C 276.0625 514.277344 278.621094 516.617188 281.242188 518.875 C 285.734375 517.359375 290.09375 515.535156 294.382812 513.492188 C 281.175781 501.976562 267.9375 490.5 254.828125 478.875 C 252.421875 476.808594 250.109375 474.605469 247.585938 472.671875 "/>
<path fill-rule="nonzero" fill="rgb(100%, 100%, 100%)" fill-opacity="1" d="M 235.332031 512.808594 C 228.347656 503.25 220.609375 494.339844 212.382812 485.828125 C 210.28125 483.792969 208.484375 481.238281 206.105469 479.566406 C 202.433594 479.238281 198.671875 479.566406 194.976562 479.414062 C 195.421875 479.960938 195.871094 480.511719 196.316406 481.074219 C 209.195312 496.558594 219.335938 513.710938 228.378906 531.652344 C 238.007812 527.617188 247.785156 523.515625 258.089844 521.660156 C 254.824219 518.082031 251.632812 514.429688 248.300781 510.894531 C 243.878906 510.953125 239.621094 511.753906 235.332031 512.808594 "/>
<path fill-rule="nonzero" fill="rgb(100%, 100%, 100%)" fill-opacity="1" d="M 191.679688 529.972656 C 190.394531 527.019531 189.121094 524.066406 187.921875 521.082031 C 193.652344 518.566406 199.457031 516.203125 205.226562 513.78125 C 203.019531 509.554688 200.824219 505.300781 198.488281 501.152344 C 192.910156 503.167969 187.441406 505.4375 181.949219 507.628906 C 180.597656 504.90625 179.292969 502.164062 178.042969 499.386719 C 184.507812 496.722656 191.113281 494.492188 197.804688 492.445312 C 195.121094 488.316406 192.378906 484.167969 189.289062 480.320312 C 176.988281 482.539062 164.957031 487.550781 153.355469 492.097656 C 162.28125 512.058594 169.976562 532.625 178.269531 552.863281 C 193.019531 547.289062 207.464844 540.859375 221.84375 534.394531 C 219.632812 529.59375 217.277344 524.859375 214.980469 520.101562 C 207.1875 523.324219 199.449219 526.691406 191.679688 529.972656 "/>
<path fill-rule="nonzero" fill="rgb(100%, 100%, 100%)" fill-opacity="1" d="M 135.8125 527.054688 C 134.363281 530.863281 129.300781 531.488281 125.933594 532.871094 C 124.238281 528.558594 122.566406 524.238281 120.90625 519.910156 C 123.882812 518.90625 127.054688 517.152344 130.21875 517.015625 C 134.699219 517.234375 137.332031 523.277344 135.8125 527.054688 M 155.335938 525.605469 C 156.941406 520.085938 155.027344 513.878906 152.324219 509.015625 C 149.566406 504.125 144.976562 500.410156 139.265625 499.828125 C 132.828125 498.984375 126.699219 500.46875 120.785156 502.941406 C 112.472656 506.527344 104.003906 509.699219 95.558594 512.957031 C 103.394531 532.617188 112.136719 551.914062 120.226562 571.457031 C 126.660156 569.566406 133.070312 567.589844 139.484375 565.625 C 136.976562 558.730469 133.789062 552.097656 131.1875 545.238281 C 132.03125 544.996094 132.851562 544.757812 133.6875 544.53125 C 140.21875 550.160156 146.882812 555.632812 153.339844 561.339844 C 160.300781 559.21875 167.175781 556.789062 174 554.265625 C 166.144531 547.558594 158.242188 540.925781 150.425781 534.152344 C 152.542969 531.496094 154.527344 528.988281 155.335938 525.605469 "/>
<path fill-rule="nonzero" fill="rgb(100%, 100%, 100%)" fill-opacity="1" d="M 86.160156 516.289062 C 79.644531 518.316406 73.097656 520.238281 66.566406 522.1875 C 73.25 537.324219 79.824219 552.496094 85.695312 567.972656 C 87.296875 571.996094 88.691406 576.078125 90.371094 580.070312 C 97.210938 578.148438 104.082031 576.332031 110.898438 574.308594 C 107.320312 564.96875 103.210938 555.921875 99.324219 546.699219 C 95.0625 536.507812 90.53125 526.441406 86.160156 516.289062 "/>
<path fill-rule="nonzero" fill="rgb(100%, 100%, 100%)" fill-opacity="1" d="M 425.628906 585.59375 L 421.820312 585.59375 L 421.820312 415.425781 L 425.628906 415.425781 Z M 425.628906 585.59375 "/>
</svg>
