<?xml version="1.0" encoding="UTF-8"?>
<svg xmlns="http://www.w3.org/2000/svg" xmlns:xlink="http://www.w3.org/1999/xlink" width="552.753906" height="393.078125" viewBox="21.261719 12.707031 552.753906 393.078125">
<path fill-rule="evenodd" fill="rgb(27.058411%, 12.940979%, 47.058105%)" fill-opacity="1" d="M 47.605469 165.382812 L 179.074219 192.214844 C 179.074219 192.214844 160.644531 292.457031 157.457031 307.515625 C 154.273438 322.574219 152.726562 324.019531 152.726562 324.019531 L 21.261719 298.683594 C 21.261719 298.683594 42.738281 186.566406 47.605469 165.382812 "/>
<path fill-rule="evenodd" fill="rgb(27.058411%, 12.940979%, 47.058105%)" fill-opacity="1" d="M 185.980469 180.582031 L 316.148438 181.648438 L 324.980469 91.734375 L 198.917969 76.386719 Z M 185.980469 180.582031 "/>
<path fill-rule="evenodd" fill="rgb(27.058411%, 12.940979%, 47.058105%)" fill-opacity="1" d="M 344.476562 85.027344 C 344.476562 85.027344 355.820312 62.585938 358.667969 52.257812 C 361.515625 41.929688 360.019531 36.183594 358.523438 33.628906 C 357.027344 31.070312 356.496094 29.816406 356.496094 29.816406 C 356.496094 29.816406 395.03125 40.941406 414.820312 47.019531 C 434.609375 53.101562 442.425781 55.515625 445.660156 56.527344 C 448.894531 57.542969 450.824219 59.375 452.949219 62.03125 C 455.070312 64.6875 483.351562 97.988281 483.351562 97.988281 C 483.351562 97.988281 456.710938 89.347656 448.457031 87.371094 C 440.207031 85.390625 436.296875 85.777344 424.808594 85.488281 C 413.324219 85.199219 344.476562 85.027344 344.476562 85.027344 "/>
<path fill-rule="evenodd" fill="rgb(27.058411%, 12.940979%, 47.058105%)" fill-opacity="1" d="M 487.695312 46.878906 C 487.695312 46.878906 505.117188 37.46875 503.382812 29.550781 C 501.644531 21.636719 481.6875 17.246094 475.605469 15.941406 C 469.523438 14.640625 467.789062 14.15625 467.789062 14.15625 C 467.789062 14.15625 481.589844 12.707031 511.65625 20.285156 C 541.726562 27.863281 559.679688 37.660156 559.679688 37.660156 C 559.679688 37.660156 567.304688 79.84375 568.753906 87.902344 C 570.199219 95.964844 570.464844 98.8125 570.488281 100.210938 C 570.515625 101.609375 569.742188 101.609375 568.921875 99.992188 C 568.101562 98.375 562.382812 76.585938 551.570312 65.484375 C 540.761719 54.386719 528.019531 49.703125 515.519531 48.113281 C 503.019531 46.519531 487.648438 46.855469 487.695312 46.878906 "/>
<path fill-rule="evenodd" fill="rgb(0%, 0%, 0%)" fill-opacity="1" d="M 308.808594 248.476562 L 329.558594 248.425781 C 329.558594 248.425781 328.691406 232.453125 319.8125 219.902344 C 310.929688 207.355469 296.886719 201.707031 279.800781 205.472656 C 262.714844 209.238281 245.777344 231.292969 244.617188 264.691406 C 243.460938 298.085938 248.671875 316.332031 261.125 331.679688 C 273.578125 347.027344 296.839844 345.964844 310.644531 336.792969 C 324.449219 327.625 329.175781 303.78125 329.46875 302.09375 C 329.757812 300.402344 329.25 299.726562 328.042969 299.460938 C 326.835938 299.195312 308.957031 299.535156 308.957031 299.535156 C 308.957031 299.535156 305.238281 314.738281 296.9375 318.597656 C 288.636719 322.460938 279.898438 320.289062 274.300781 311.890625 C 268.703125 303.492188 264.40625 288.386719 265.660156 269.371094 C 266.820312 251.828125 269.535156 240.445312 276.277344 233.105469 C 283.371094 225.382812 296.347656 225.121094 302.582031 233.703125 C 307.070312 239.878906 308.808594 248.476562 308.808594 248.476562 "/>
<path fill-rule="evenodd" fill="rgb(0%, 0%, 0%)" fill-opacity="1" d="M 414.300781 206.625 L 373.328125 206.238281 L 373.320312 341.277344 L 420.761719 340.867188 C 420.761719 340.867188 442.867188 332.90625 450.878906 307.90625 C 458.890625 282.90625 457.539062 254.429688 449.816406 234.835938 C 442.09375 215.238281 426.941406 207.421875 414.300781 206.625 Z M 395.328125 230.203125 L 395.230469 318.039062 C 395.230469 318.039062 407.246094 318.328125 411.878906 318.085938 C 416.511719 317.847656 425.441406 316.300781 431.230469 304.140625 C 439.296875 287.199219 440.140625 247.710938 424.496094 234.660156 C 420.839844 231.609375 415.675781 229.941406 410.210938 229.949219 C 405.40625 229.953125 400.578125 230.046875 395.328125 230.203125 "/>
<path fill-rule="evenodd" fill="rgb(0%, 0%, 0%)" fill-opacity="1" d="M 526.621094 318.058594 L 574.015625 318.15625 L 571.890625 341.371094 L 506.445312 341.273438 L 506.398438 206.28125 L 526.667969 206.378906 Z M 526.621094 318.058594 "/>
<path fill-rule="evenodd" fill="rgb(0%, 0%, 0%)" fill-opacity="1" d="M 41.492188 368.722656 C 41.492188 368.722656 42.023438 364.355469 39.632812 361.289062 C 37.246094 358.226562 31.839844 359.285156 30.101562 361.746094 C 28.367188 364.207031 27.738281 367.78125 27.8125 375.621094 C 27.882812 383.464844 27.644531 386.675781 29.113281 391.113281 C 30.585938 395.554688 35.582031 396.785156 38.382812 394.035156 C 41.179688 391.285156 41.566406 387.894531 41.566406 386.648438 C 41.566406 385.40625 39.710938 384.503906 38.828125 385.757812 C 37.945312 387.011719 37.886719 389.304688 36.402344 390.800781 C 34.917969 392.296875 33 391.886719 32.011719 389.640625 C 31.023438 387.398438 31.070312 376.128906 31.167969 372.820312 C 31.242188 370.222656 31 366.035156 32.980469 364.027344 C 34.171875 362.820312 35.84375 362.804688 36.742188 363.917969 C 37.851562 365.292969 38.429688 367.851562 39.566406 368.9375 C 40.699219 370.023438 41.300781 369.636719 41.492188 368.722656 Z M 48.671875 370.324219 C 47.867188 371.378906 46.726562 373.34375 46.222656 376.453125 C 45.402344 381.519531 45.886719 388.566406 47.359375 392.234375 C 48.832031 395.902344 52.234375 396.820312 54.164062 395.683594 C 56.09375 394.550781 58.21875 392.429688 58.410156 389.53125 C 58.605469 386.636719 58.703125 376.261719 58.363281 374.28125 C 58.027344 372.300781 56.832031 369.636719 54.648438 368.683594 C 52.402344 367.703125 50.148438 368.390625 48.671875 370.324219 Z M 49.769531 389.949219 C 49.246094 388.46875 48.605469 385.640625 48.761719 381.6875 C 49.003906 375.675781 50.019531 373.097656 51.128906 372.132812 C 52.238281 371.167969 53.542969 371.625 54.335938 373.265625 C 55.132812 374.90625 55.421875 377.511719 55.542969 381.445312 C 55.664062 385.378906 55.15625 388.46875 54.121094 390.253906 C 52.808594 392.511719 50.640625 392.414062 49.769531 389.949219 Z M 67.152344 370.464844 C 67.152344 370.464844 68.480469 368.125 70.820312 367.933594 C 73.160156 367.738281 73.835938 369.378906 74.269531 370.199219 C 74.707031 371.019531 75.40625 370.394531 75.886719 369.695312 C 76.371094 368.996094 79.050781 367.234375 81.246094 368.464844 C 83.441406 369.695312 84.070312 372.492188 84.238281 376.160156 C 84.40625 379.828125 84.574219 389.988281 84.453125 392.761719 C 84.335938 395.539062 81.316406 396.046875 80.933594 393.246094 C 80.546875 390.445312 80.957031 376.402344 80.546875 374.035156 C 80.136719 371.671875 77.144531 370.488281 76.445312 373.191406 C 75.742188 375.894531 75.578125 391.6875 75.527344 393.460938 C 75.480469 395.238281 72.332031 396.613281 72.113281 393.859375 C 71.894531 391.109375 72.113281 376.304688 71.871094 373.988281 C 71.628906 371.671875 67.9375 371.238281 67.359375 374.566406 C 66.78125 377.898438 66.925781 391.167969 66.828125 393.074219 C 66.730469 394.984375 63.617188 396.597656 63.546875 393.292969 C 63.472656 389.988281 63.691406 371.960938 64.101562 369.570312 C 64.511719 367.183594 66.636719 367.691406 66.902344 368.414062 C 67.167969 369.136719 67.152344 370.464844 67.152344 370.464844 Z M 93.699219 370.464844 C 93.699219 370.464844 95.023438 368.125 97.367188 367.933594 C 99.707031 367.738281 100.382812 369.378906 100.816406 370.199219 C 101.25 371.019531 101.949219 370.394531 102.433594 369.695312 C 102.914062 368.996094 105.59375 367.234375 107.789062 368.464844 C 109.984375 369.695312 110.613281 372.492188 110.78125 376.160156 C 110.953125 379.828125 111.121094 389.988281 111 392.761719 C 110.878906 395.539062 107.863281 396.046875 107.476562 393.246094 C 107.089844 390.445312 107.5 376.402344 107.089844 374.035156 C 106.679688 371.671875 103.6875 370.488281 102.988281 373.191406 C 102.289062 375.894531 102.121094 391.6875 102.074219 393.460938 C 102.023438 395.238281 98.875 396.613281 98.65625 393.859375 C 98.441406 391.109375 98.65625 376.304688 98.417969 373.988281 C 98.175781 371.671875 94.484375 371.238281 93.902344 374.566406 C 93.324219 377.898438 93.46875 391.167969 93.375 393.074219 C 93.277344 394.984375 90.164062 396.597656 90.089844 393.292969 C 90.019531 389.988281 90.234375 371.960938 90.644531 369.570312 C 91.054688 367.183594 93.179688 367.691406 93.445312 368.414062 C 93.710938 369.136719 93.699219 370.464844 93.699219 370.464844 Z M 128.484375 383.277344 C 128.484375 383.277344 129.667969 377.316406 127.738281 372.324219 C 125.808594 367.328125 119.894531 367.109375 117.867188 371.308594 C 115.839844 375.507812 115.238281 385.257812 116.925781 391.242188 C 118.617188 397.226562 123.105469 396.839844 125.277344 394.8125 C 127.449219 392.785156 128.269531 390.808594 128.582031 389.335938 C 128.894531 387.863281 127.339844 386.546875 126.351562 388.09375 C 125.359375 389.636719 125.300781 390.808594 123.804688 391.84375 C 122.308594 392.882812 120.59375 391.941406 119.824219 390.082031 C 119.148438 388.457031 119.082031 385.300781 119.203125 384.195312 C 119.316406 383.191406 120.242188 383.125 121.089844 383.140625 C 122.78125 383.167969 128.484375 383.277344 128.484375 383.277344 Z M 119.078125 379.320312 C 119.078125 379.320312 118.738281 376.257812 119.847656 374.375 C 120.960938 372.492188 121.996094 371.429688 122.746094 371.476562 C 123.492188 371.527344 124.625 372.636719 125.15625 374.613281 C 125.6875 376.59375 125.6875 377.753906 125.566406 378.476562 C 125.449219 379.199219 124.917969 379.296875 124.097656 379.394531 C 123.277344 379.488281 119.078125 379.320312 119.078125 379.320312 Z M 136.476562 371.765625 C 136.476562 371.765625 136.453125 369.5 136.402344 368.582031 C 136.355469 367.664062 133.773438 367.277344 133.484375 369.066406 C 133.195312 370.851562 132.976562 391.484375 133.023438 393.460938 C 133.074219 395.441406 136.308594 396.234375 136.453125 392.90625 C 136.597656 389.574219 136.621094 377.101562 136.691406 376.714844 C 136.765625 376.328125 140.820312 372.296875 141.640625 370.730469 C 142.460938 369.160156 141.472656 366.988281 139.855469 367.953125 C 138.238281 368.917969 136.476562 371.765625 136.476562 371.765625 Z M 156.574219 374.636719 C 156.433594 373.644531 156.046875 370.917969 154.90625 369.445312 C 152.835938 366.777344 147.441406 367.710938 146.160156 371.574219 C 144.878906 375.441406 143.628906 383.679688 145.382812 389.910156 C 147.3125 396.8125 152.839844 395.871094 154.480469 393.941406 C 156.121094 392.011719 156.820312 389.332031 156.675781 387.570312 C 156.53125 385.808594 154.671875 385.929688 154.117188 387.015625 C 153.5625 388.101562 153.683594 389.378906 152.695312 390.609375 C 151.703125 391.839844 149.894531 392.492188 148.6875 389.355469 C 147.480469 386.21875 147.53125 376.375 149.027344 373.429688 C 150.523438 370.484375 152.429688 371.523438 153.03125 372.730469 C 153.636719 373.9375 153.730469 375.011719 154.117188 375.949219 C 154.585938 377.089844 156.890625 376.875 156.574219 374.636719 Z M 173.644531 374.804688 C 173.644531 374.804688 173.523438 376.6875 171.882812 376.6875 C 170.242188 376.6875 170.242188 375.382812 170.652344 373.742188 C 171.0625 372.101562 172.121094 369.398438 174.847656 368.503906 C 177.578125 367.613281 180.402344 368.941406 181.367188 372.632812 C 182.332031 376.324219 181.679688 390.464844 181.605469 392.152344 C 181.535156 393.84375 181.535156 394.375 181.316406 395.074219 C 181.101562 395.773438 179.699219 395.773438 179.339844 395.195312 C 178.976562 394.617188 178.132812 394.324219 177.601562 394.785156 C 177.070312 395.242188 176.007812 396.523438 173.621094 396.136719 C 172.863281 396.011719 172.070312 395.4375 171.480469 394.644531 C 169.09375 391.429688 168.773438 384.945312 171.832031 381.945312 C 173.890625 379.925781 175.878906 379.628906 178.664062 379.847656 C 178.929688 378.410156 179.164062 376.226562 178.488281 374.167969 C 177.582031 371.402344 174.332031 371.179688 173.644531 374.804688 Z M 178.882812 383.164062 C 178.882812 383.164062 176.167969 382.382812 174.527344 383.273438 C 172.886719 384.167969 172.332031 388.726562 173.03125 390.394531 C 173.449219 391.386719 174.433594 391.769531 175.398438 391.773438 C 177.589844 391.78125 178.878906 390.09375 178.96875 387.980469 C 179.039062 386.289062 178.882812 383.164062 178.882812 383.164062 Z M 191.039062 358.78125 C 191.039062 358.78125 191.160156 391.117188 191.015625 393.480469 C 190.871094 395.847656 188.167969 396.472656 187.613281 393.652344 C 187.058594 390.828125 187.878906 362.496094 188.191406 359.769531 C 188.507812 357.042969 190.582031 357.066406 191.039062 358.78125 Z M 206.308594 359.769531 L 206.480469 395.363281 C 206.480469 395.363281 211.957031 395.75 214.902344 394.761719 C 217.84375 393.773438 219.921875 389.402344 220.308594 383.949219 C 220.691406 378.496094 220.402344 369.253906 219.050781 365.199219 C 217.703125 361.144531 214.855469 359.964844 212.5625 359.675781 C 210.269531 359.382812 206.308594 359.769531 206.308594 359.769531 Z M 209.8125 363.800781 C 209.8125 363.800781 209.570312 388.898438 209.667969 390.199219 C 209.761719 391.503906 210.703125 391.890625 212.175781 391.625 C 213.648438 391.359375 216.589844 389.574219 216.832031 384.554688 C 217.074219 379.535156 217.363281 369.421875 216.421875 366.839844 C 215.480469 364.257812 213.066406 363.050781 209.8125 363.800781 Z M 245.148438 373.671875 C 244.960938 372.414062 244.203125 369.398438 241.832031 368.335938 C 238.816406 366.984375 235.921875 368.820312 234.90625 371.0625 C 233.46875 374.246094 233.527344 378.550781 236.351562 380.953125 C 238.265625 382.585938 240.882812 383.941406 241.929688 386.964844 C 243.183594 390.585938 240.894531 392.902344 239.203125 392.226562 C 237.515625 391.550781 236.839844 388.96875 236.210938 387.957031 C 235.582031 386.941406 233.265625 386.894531 233.75 389.28125 C 234.230469 391.671875 235.34375 394.785156 239.25 395.507812 C 243.160156 396.234375 245.140625 392.152344 245.550781 389.742188 C 245.960938 387.328125 245.742188 384.382812 243.765625 382.140625 C 241.785156 379.894531 239.132812 378.351562 237.898438 376.394531 C 237.496094 375.753906 237.328125 374.984375 237.367188 374.273438 C 237.457031 372.59375 238.867188 371.140625 240.558594 372.074219 C 241.386719 372.53125 242.058594 373.453125 242.535156 374.488281 C 243.246094 376.050781 245.457031 375.777344 245.148438 373.671875 Z M 253.9375 362.183594 C 253.9375 362.183594 253.792969 366.042969 253.746094 366.9375 C 253.699219 367.828125 254.203125 368.3125 254.734375 368.382812 C 255.265625 368.457031 256.738281 368.261719 256.882812 368.792969 C 257.027344 369.324219 257.125 370.289062 257.078125 371.253906 C 257.027344 372.222656 256.207031 372.195312 255.507812 372.195312 C 254.808594 372.195312 254.035156 372.535156 253.792969 373.402344 C 253.554688 374.273438 253.84375 387.832031 253.84375 389.355469 C 253.84375 390.875 254.855469 391.476562 255.992188 391.839844 C 257.125 392.203125 257.582031 394.277344 256.109375 394.6875 C 254.640625 395.097656 251.550781 395.144531 251.210938 392.757812 C 250.875 390.367188 250.683594 374.851562 250.632812 373.886719 C 250.585938 372.921875 249.957031 372.339844 249.476562 372.269531 C 248.992188 372.195312 248.148438 371.449219 248.148438 370.265625 C 248.148438 369.082031 248.316406 368.214844 248.945312 368.070312 C 249.574219 367.925781 250.707031 367.828125 250.875 366.621094 C 251.042969 365.414062 250.902344 362.929688 251.238281 361.699219 C 251.574219 360.46875 253.941406 360.515625 253.9375 362.183594 Z M 264.664062 371.765625 C 264.664062 371.765625 264.636719 369.5 264.589844 368.582031 C 264.542969 367.664062 261.960938 367.277344 261.667969 369.066406 C 261.378906 370.851562 261.164062 391.484375 261.210938 393.460938 C 261.261719 395.441406 264.492188 396.234375 264.636719 392.90625 C 264.78125 389.574219 264.808594 377.101562 264.878906 376.714844 C 264.953125 376.328125 269.007812 372.296875 269.828125 370.730469 C 270.648438 369.160156 269.660156 366.988281 268.042969 367.953125 C 266.425781 368.917969 264.664062 371.765625 264.664062 371.765625 Z M 276.804688 369.207031 C 276.804688 369.207031 276.925781 391.019531 276.78125 393.386719 C 276.636719 395.75 273.933594 396.378906 273.378906 393.554688 C 272.824219 390.730469 273.644531 372.921875 273.957031 370.195312 C 274.269531 367.46875 276.347656 367.492188 276.804688 369.207031 Z M 276.949219 358.453125 C 276.980469 359.535156 276.925781 362.082031 276.851562 363.003906 C 276.757812 364.1875 274.320312 364.28125 273.644531 362.929688 C 272.96875 361.578125 272.824219 359.648438 274.054688 358.082031 C 275.007812 356.863281 276.914062 357.011719 276.949219 358.453125 Z M 309.78125 393.640625 C 309.78125 393.640625 307.804688 395.375 305.292969 395.230469 C 302.785156 395.085938 301.238281 393.179688 301.09375 390.71875 C 300.949219 388.257812 301.070312 371.316406 301.214844 369.386719 C 301.359375 367.457031 304.015625 367.601562 304.136719 369.3125 C 304.253906 371.027344 304.691406 386.253906 304.835938 389.246094 C 304.980469 392.238281 308.648438 392.527344 309.324219 388.859375 C 310 385.191406 310.144531 371.582031 310.167969 369.699219 C 310.191406 367.816406 312.460938 367.382812 312.773438 369.3125 C 313.085938 371.246094 313.136719 390.667969 312.703125 393.46875 C 312.265625 396.269531 310 395.0625 309.78125 393.640625 Z M 322.761719 362.183594 C 322.761719 362.183594 322.617188 366.042969 322.570312 366.9375 C 322.519531 367.828125 323.027344 368.3125 323.558594 368.382812 C 324.089844 368.457031 325.5625 368.261719 325.707031 368.792969 C 325.851562 369.324219 325.949219 370.289062 325.898438 371.253906 C 325.851562 372.222656 325.03125 372.195312 324.332031 372.195312 C 323.632812 372.195312 322.859375 372.535156 322.617188 373.402344 C 322.375 374.273438 322.667969 387.832031 322.667969 389.355469 C 322.667969 390.875 323.679688 391.476562 324.8125 391.839844 C 325.949219 392.203125 326.40625 394.277344 324.933594 394.6875 C 323.460938 395.097656 320.375 395.144531 320.035156 392.757812 C 319.699219 390.367188 319.503906 374.851562 319.457031 373.886719 C 319.410156 372.921875 318.78125 372.339844 318.300781 372.269531 C 317.816406 372.195312 316.972656 371.449219 316.972656 370.265625 C 316.972656 369.082031 317.140625 368.214844 317.769531 368.070312 C 318.394531 367.925781 319.53125 367.828125 319.699219 366.621094 C 319.867188 365.414062 319.722656 362.929688 320.0625 361.699219 C 320.398438 360.46875 322.765625 360.515625 322.761719 362.183594 Z M 229.121094 369.207031 C 229.121094 369.207031 229.242188 391.019531 229.097656 393.386719 C 228.949219 395.75 226.25 396.378906 225.695312 393.554688 C 225.136719 390.730469 225.957031 372.921875 226.273438 370.195312 C 226.585938 367.46875 228.660156 367.492188 229.121094 369.207031 Z M 229.265625 358.453125 C 229.296875 359.535156 229.242188 362.082031 229.167969 363.003906 C 229.074219 364.1875 226.636719 364.28125 225.960938 362.929688 C 225.285156 361.578125 225.136719 359.648438 226.371094 358.082031 C 227.324219 356.863281 229.230469 357.011719 229.265625 358.453125 Z M 165.21875 369.207031 C 165.21875 369.207031 165.339844 391.019531 165.195312 393.386719 C 165.050781 395.75 162.347656 396.378906 161.792969 393.554688 C 161.238281 390.730469 162.058594 372.921875 162.371094 370.195312 C 162.6875 367.46875 164.761719 367.492188 165.21875 369.207031 Z M 165.367188 358.453125 C 165.394531 359.535156 165.34375 362.082031 165.269531 363.003906 C 165.171875 364.1875 162.734375 364.28125 162.058594 362.929688 C 161.382812 361.578125 161.238281 359.648438 162.46875 358.082031 C 163.425781 356.863281 165.328125 357.011719 165.367188 358.453125 Z M 333.175781 369.207031 C 333.175781 369.207031 333.296875 391.019531 333.152344 393.386719 C 333.007812 395.75 330.304688 396.378906 329.75 393.554688 C 329.191406 390.730469 330.015625 372.921875 330.328125 370.195312 C 330.640625 367.46875 332.71875 367.492188 333.175781 369.207031 Z M 333.320312 358.453125 C 333.351562 359.535156 333.300781 362.082031 333.222656 363.003906 C 333.128906 364.1875 330.691406 364.28125 330.015625 362.929688 C 329.339844 361.578125 329.195312 359.648438 330.425781 358.082031 C 331.378906 356.863281 333.285156 357.011719 333.320312 358.453125 Z M 341.242188 370.324219 C 340.4375 371.378906 339.296875 373.34375 338.792969 376.453125 C 337.972656 381.519531 338.457031 388.566406 339.929688 392.234375 C 341.402344 395.902344 344.804688 396.820312 346.734375 395.683594 C 348.664062 394.550781 350.789062 392.429688 350.980469 389.53125 C 351.175781 386.636719 351.273438 376.261719 350.933594 374.28125 C 350.597656 372.300781 349.402344 369.636719 347.21875 368.683594 C 344.972656 367.703125 342.71875 368.390625 341.242188 370.324219 Z M 342.339844 389.949219 C 341.816406 388.46875 341.175781 385.640625 341.332031 381.6875 C 341.574219 375.675781 342.589844 373.097656 343.699219 372.132812 C 344.808594 371.167969 346.113281 371.625 346.90625 373.265625 C 347.703125 374.90625 347.992188 377.511719 348.113281 381.445312 C 348.234375 385.378906 347.726562 388.46875 346.691406 390.253906 C 345.378906 392.511719 343.210938 392.414062 342.339844 389.949219 Z M 359.863281 369.585938 C 359.863281 369.585938 361.84375 367.847656 364.351562 367.992188 C 366.863281 368.136719 368.40625 370.042969 368.550781 372.503906 C 368.695312 374.964844 368.574219 391.90625 368.429688 393.835938 C 368.285156 395.769531 365.632812 395.621094 365.511719 393.910156 C 365.390625 392.195312 364.957031 376.96875 364.8125 373.976562 C 364.667969 370.984375 361 370.695312 360.324219 374.363281 C 359.648438 378.03125 359.503906 391.640625 359.480469 393.523438 C 359.453125 395.40625 357.1875 395.839844 356.871094 393.910156 C 356.558594 391.980469 356.511719 372.554688 356.945312 369.753906 C 357.378906 366.953125 359.648438 368.160156 359.863281 369.585938 Z M 427.964844 370.386719 C 427.964844 370.386719 426.265625 368.164062 423.949219 368.070312 C 421.632812 367.972656 418.976562 370.988281 418.734375 375.621094 C 418.492188 380.253906 418.15625 385.902344 419.359375 390.582031 C 420.566406 395.265625 424.308594 395.773438 425.851562 395.242188 C 427.398438 394.710938 428.167969 393.816406 428.167969 393.816406 C 428.167969 393.816406 427.902344 395.242188 429.0625 395.554688 C 430.21875 395.867188 431.402344 395.3125 431.621094 393.890625 C 431.835938 392.464844 431.476562 364.085938 431.425781 361.238281 C 431.378906 358.390625 430.460938 357.957031 429.570312 357.859375 C 428.675781 357.765625 428.023438 358.199219 428 359.5 C 427.972656 360.933594 428.113281 368.410156 427.964844 370.386719 Z M 421.503906 381.003906 C 421.460938 384.03125 421.542969 387.480469 422.195312 389.265625 C 423.75 393.539062 427.398438 391.417969 427.847656 387.519531 C 428.183594 384.59375 428.015625 380.164062 427.898438 377.941406 C 427.792969 375.902344 427.351562 372.726562 425.378906 371.652344 C 422.1875 369.910156 421.53125 378.925781 421.503906 381.003906 Z M 285.636719 370.386719 C 285.636719 370.386719 287.339844 368.164062 289.65625 368.070312 C 291.972656 367.972656 294.628906 370.988281 294.871094 375.621094 C 295.109375 380.253906 295.449219 385.902344 294.242188 390.582031 C 293.035156 395.265625 289.296875 395.773438 287.75 395.242188 C 286.207031 394.710938 285.433594 393.816406 285.433594 393.816406 C 285.433594 393.816406 285.699219 395.242188 284.542969 395.554688 C 283.382812 395.867188 282.199219 395.3125 281.984375 393.890625 C 281.765625 392.464844 282.128906 364.085938 282.175781 361.238281 C 282.226562 358.390625 283.144531 357.957031 284.035156 357.859375 C 284.929688 357.765625 285.582031 358.199219 285.605469 359.5 C 285.628906 360.933594 285.492188 368.410156 285.636719 370.386719 Z M 292.101562 381.003906 C 292.144531 384.03125 292.058594 387.480469 291.410156 389.265625 C 289.855469 393.539062 286.203125 391.417969 285.757812 387.519531 C 285.421875 384.59375 285.589844 380.164062 285.703125 377.941406 C 285.808594 375.902344 286.25 372.726562 288.222656 371.652344 C 291.417969 369.910156 292.070312 378.925781 292.101562 381.003906 Z M 385.808594 374.804688 C 385.808594 374.804688 385.6875 376.6875 384.046875 376.6875 C 382.40625 376.6875 382.40625 375.382812 382.816406 373.742188 C 383.226562 372.101562 384.285156 369.398438 387.015625 368.503906 C 389.742188 367.613281 392.566406 368.941406 393.53125 372.632812 C 394.496094 376.324219 393.84375 390.464844 393.773438 392.152344 C 393.699219 393.84375 393.699219 394.375 393.480469 395.074219 C 393.265625 395.773438 391.863281 395.773438 391.503906 395.195312 C 391.140625 394.617188 390.296875 394.324219 389.765625 394.785156 C 389.234375 395.242188 388.171875 396.523438 385.785156 396.136719 C 385.027344 396.011719 384.234375 395.4375 383.644531 394.644531 C 381.257812 391.429688 380.9375 384.945312 383.996094 381.945312 C 386.054688 379.925781 388.042969 379.628906 390.828125 379.847656 C 391.09375 378.410156 391.332031 376.226562 390.652344 374.167969 C 389.746094 371.402344 386.5 371.179688 385.808594 374.804688 Z M 391.046875 383.164062 C 391.046875 383.164062 388.332031 382.382812 386.691406 383.273438 C 385.050781 384.167969 384.496094 388.726562 385.195312 390.394531 C 385.613281 391.386719 386.597656 391.769531 387.5625 391.773438 C 389.753906 391.78125 391.042969 390.09375 391.132812 387.980469 C 391.203125 386.289062 391.046875 383.164062 391.046875 383.164062 Z M 404.265625 369.585938 C 404.265625 369.585938 406.246094 367.847656 408.753906 367.992188 C 411.265625 368.136719 412.808594 370.042969 412.953125 372.503906 C 413.097656 374.964844 412.976562 391.90625 412.832031 393.835938 C 412.6875 395.769531 410.035156 395.621094 409.914062 393.910156 C 409.792969 392.195312 409.359375 376.96875 409.214844 373.976562 C 409.070312 370.984375 405.402344 370.695312 404.726562 374.363281 C 404.050781 378.03125 403.90625 391.640625 403.882812 393.523438 C 403.855469 395.40625 401.589844 395.839844 401.273438 393.910156 C 400.960938 391.980469 400.914062 372.554688 401.347656 369.753906 C 401.78125 366.953125 404.050781 368.160156 404.265625 369.585938 Z M 450.019531 391.5 C 450.019531 391.5 449.585938 363.988281 449.148438 360.609375 C 448.714844 357.230469 446.445312 359.597656 446.542969 362.011719 C 446.640625 364.425781 446.640625 395.09375 446.640625 395.09375 C 446.640625 395.09375 455.882812 394.972656 457.257812 394.851562 C 458.632812 394.734375 458.5625 391.933594 456.992188 391.644531 C 455.425781 391.355469 450.019531 391.5 450.019531 391.5 Z M 465.375 370.324219 C 464.570312 371.378906 463.429688 373.34375 462.925781 376.453125 C 462.105469 381.519531 462.589844 388.566406 464.0625 392.234375 C 465.535156 395.902344 468.9375 396.820312 470.867188 395.683594 C 472.796875 394.550781 474.921875 392.429688 475.113281 389.53125 C 475.308594 386.636719 475.40625 376.261719 475.066406 374.28125 C 474.730469 372.300781 473.535156 369.636719 471.351562 368.683594 C 469.105469 367.703125 466.851562 368.390625 465.375 370.324219 Z M 466.472656 389.949219 C 465.949219 388.46875 465.308594 385.640625 465.464844 381.6875 C 465.707031 375.675781 466.722656 373.097656 467.832031 372.132812 C 468.941406 371.167969 470.242188 371.625 471.039062 373.265625 C 471.835938 374.90625 472.125 377.511719 472.246094 381.445312 C 472.367188 385.378906 471.859375 388.46875 470.824219 390.253906 C 469.511719 392.511719 467.34375 392.414062 466.472656 389.949219 Z M 489.519531 392.851562 C 489.519531 392.851562 486.285156 396.035156 482.90625 393.863281 C 479.53125 391.691406 478.851562 378.277344 480.347656 373.402344 C 481.84375 368.527344 485.320312 367.707031 486.914062 368.042969 C 488.507812 368.382812 489.472656 369.613281 489.472656 369.613281 C 489.472656 369.613281 489.566406 368.1875 490.292969 367.996094 C 491.015625 367.800781 491.835938 367.972656 491.933594 369.152344 C 492.027344 370.335938 492.945312 393.234375 491.933594 399.125 C 490.917969 405.011719 487.757812 405.785156 484.933594 405.398438 C 482.109375 405.011719 480.15625 402.359375 479.816406 400.1875 C 479.480469 398.015625 481.53125 396.46875 482.570312 398.160156 C 483.605469 399.847656 484.332031 402.453125 486.816406 401.007812 C 489.300781 399.558594 489.445312 394.054688 489.519531 392.851562 Z M 488.480469 381.566406 C 488.585938 376.0625 487.324219 371.574219 485.660156 371.542969 C 483.992188 371.507812 482.554688 375.945312 482.449219 381.449219 C 482.34375 386.953125 483.605469 391.441406 485.273438 391.472656 C 486.9375 391.507812 488.375 387.070312 488.480469 381.566406 Z M 501.324219 369.207031 C 501.324219 369.207031 501.445312 391.019531 501.300781 393.386719 C 501.152344 395.75 498.453125 396.378906 497.894531 393.554688 C 497.339844 390.730469 498.160156 372.921875 498.476562 370.195312 C 498.789062 367.46875 500.863281 367.492188 501.324219 369.207031 Z M 501.46875 358.453125 C 501.5 359.535156 501.445312 362.082031 501.371094 363.003906 C 501.277344 364.1875 498.839844 364.28125 498.164062 362.929688 C 497.488281 361.578125 497.339844 359.648438 498.574219 358.082031 C 499.527344 356.863281 501.433594 357.011719 501.46875 358.453125 Z M 517.351562 373.671875 C 517.164062 372.414062 516.40625 369.398438 514.035156 368.335938 C 511.019531 366.984375 508.125 368.820312 507.109375 371.0625 C 505.671875 374.246094 505.730469 378.550781 508.554688 380.953125 C 510.46875 382.585938 513.085938 383.941406 514.132812 386.964844 C 515.386719 390.585938 513.09375 392.902344 511.40625 392.226562 C 509.71875 391.550781 509.042969 388.96875 508.414062 387.957031 C 507.785156 386.941406 505.46875 386.894531 505.953125 389.28125 C 506.433594 391.671875 507.542969 394.785156 511.453125 395.507812 C 515.363281 396.234375 517.34375 392.152344 517.753906 389.742188 C 518.164062 387.328125 517.945312 384.382812 515.96875 382.140625 C 513.988281 379.894531 511.332031 378.351562 510.101562 376.394531 C 509.699219 375.753906 509.53125 374.984375 509.570312 374.273438 C 509.65625 372.59375 511.070312 371.140625 512.761719 372.074219 C 513.585938 372.53125 514.261719 373.453125 514.738281 374.488281 C 515.449219 376.050781 517.660156 375.777344 517.351562 373.671875 Z M 527.105469 362.183594 C 527.105469 362.183594 526.960938 366.042969 526.914062 366.9375 C 526.867188 367.828125 527.371094 368.3125 527.902344 368.382812 C 528.433594 368.457031 529.90625 368.261719 530.050781 368.792969 C 530.195312 369.324219 530.292969 370.289062 530.246094 371.253906 C 530.195312 372.222656 529.375 372.195312 528.675781 372.195312 C 527.976562 372.195312 527.203125 372.535156 526.964844 373.402344 C 526.722656 374.273438 527.011719 387.832031 527.011719 389.355469 C 527.011719 390.875 528.023438 391.476562 529.160156 391.839844 C 530.292969 392.203125 530.75 394.277344 529.28125 394.6875 C 527.808594 395.097656 524.71875 395.144531 524.382812 392.757812 C 524.042969 390.367188 523.851562 374.851562 523.800781 373.886719 C 523.753906 372.921875 523.125 372.339844 522.644531 372.269531 C 522.160156 372.195312 521.316406 371.449219 521.316406 370.265625 C 521.316406 369.082031 521.484375 368.214844 522.113281 368.070312 C 522.742188 367.925781 523.875 367.828125 524.042969 366.621094 C 524.214844 365.414062 524.070312 362.929688 524.40625 361.699219 C 524.742188 360.46875 527.109375 360.515625 527.105469 362.183594 Z M 554.9375 374.636719 C 554.796875 373.644531 554.410156 370.917969 553.269531 369.445312 C 551.199219 366.777344 545.804688 367.710938 544.523438 371.574219 C 543.242188 375.441406 541.988281 383.679688 543.746094 389.910156 C 545.675781 396.8125 551.203125 395.871094 552.84375 393.941406 C 554.484375 392.011719 555.183594 389.332031 555.039062 387.570312 C 554.894531 385.808594 553.035156 385.929688 552.480469 387.015625 C 551.925781 388.101562 552.046875 389.378906 551.054688 390.609375 C 550.066406 391.839844 548.257812 392.492188 547.050781 389.355469 C 545.84375 386.21875 545.894531 376.375 547.390625 373.429688 C 548.886719 370.484375 550.792969 371.523438 551.394531 372.730469 C 551.996094 373.9375 552.09375 375.011719 552.480469 375.949219 C 552.949219 377.089844 555.253906 376.875 554.9375 374.636719 Z M 536.84375 369.207031 C 536.84375 369.207031 536.964844 391.019531 536.820312 393.386719 C 536.675781 395.75 533.972656 396.378906 533.417969 393.554688 C 532.863281 390.730469 533.683594 372.921875 533.996094 370.195312 C 534.3125 367.46875 536.386719 367.492188 536.84375 369.207031 Z M 536.992188 358.453125 C 537.019531 359.535156 536.96875 362.082031 536.894531 363.003906 C 536.796875 364.1875 534.359375 364.28125 533.683594 362.929688 C 533.007812 361.578125 532.863281 359.648438 534.09375 358.082031 C 535.050781 356.863281 536.953125 357.011719 536.992188 358.453125 Z M 570.246094 373.671875 C 570.0625 372.414062 569.300781 369.398438 566.933594 368.335938 C 563.914062 366.984375 561.019531 368.820312 560.007812 371.0625 C 558.570312 374.246094 558.628906 378.550781 561.449219 380.953125 C 563.363281 382.585938 565.980469 383.941406 567.03125 386.964844 C 568.285156 390.585938 565.992188 392.902344 564.300781 392.226562 C 562.613281 391.550781 561.9375 388.96875 561.308594 387.957031 C 560.683594 386.941406 558.367188 386.894531 558.847656 389.28125 C 559.332031 391.671875 560.441406 394.785156 564.351562 395.507812 C 568.261719 396.234375 570.238281 392.152344 570.648438 389.742188 C 571.058594 387.328125 570.84375 384.382812 568.863281 382.140625 C 566.882812 379.894531 564.230469 378.351562 563 376.394531 C 562.59375 375.753906 562.425781 374.984375 562.464844 374.273438 C 562.554688 372.59375 563.96875 371.140625 565.65625 372.074219 C 566.484375 372.53125 567.160156 373.453125 567.632812 374.488281 C 568.34375 376.050781 570.558594 375.777344 570.246094 373.671875 "/>
</svg>
