<?xml version="1.0" encoding="UTF-8"?>
<svg style="background:transparent !important" xmlns="http://www.w3.org/2000/svg" xmlns:xlink="http://www.w3.org/1999/xlink" width="839.189" height="817.657" viewBox="0 0 839.189 817.657">
<defs>
<clipPath id="clip-0">
<path clip-rule="nonzero" d="M 0 0 L 700 0 L 700 817.65625 L 0 817.65625 Z M 0 0 "/>
</clipPath>
<clipPath id="clip-1">
<path clip-rule="nonzero" d="M 558 0 L 839.1875 0 L 839.1875 364 L 558 364 Z M 558 0 "/>
</clipPath>
</defs>
<g clip-path="url(#clip-0)">
<path fill-rule="nonzero" fill="rgb(38.592529%, 55.502319%, 12.983704%)" fill-opacity="1" d="M 684.648438 325.621094 C 684.648438 325.621094 703.363281 150.539062 698.914062 118.535156 C 694.460938 86.53125 621.53125 0 621.53125 0 C 621.53125 0 640.578125 82.921875 646.613281 118.535156 C 650.164062 139.460938 638.082031 205.375 627.511719 256.214844 C 621.976562 248.964844 616.207031 241.863281 610.078125 235.019531 C 600.738281 224.589844 584.703125 223.699219 574.277344 233.042969 C 563.839844 242.382812 562.957031 258.414062 572.296875 268.851562 C 621.378906 323.667969 648.40625 394.429688 648.40625 468.097656 C 648.40625 632.878906 514.34375 766.945312 349.558594 766.945312 C 184.777344 766.945312 50.714844 632.878906 50.714844 468.097656 C 50.714844 303.3125 184.777344 169.25 349.558594 169.25 C 377.273438 169.25 404.6875 173.027344 431.042969 180.484375 C 444.519531 184.269531 458.53125 176.457031 462.34375 162.980469 C 466.15625 149.511719 458.320312 135.496094 444.847656 131.679688 C 413.996094 122.957031 381.9375 118.535156 349.558594 118.535156 C 156.8125 118.535156 0 275.34375 0 468.097656 C 0 660.847656 156.8125 817.65625 349.558594 817.65625 C 542.308594 817.65625 699.121094 660.847656 699.121094 468.097656 C 699.121094 426.636719 691.730469 385.992188 677.738281 347.804688 Z M 684.648438 325.621094 "/>
</g>
<g clip-path="url(#clip-1)">
<path fill-rule="nonzero" fill="rgb(58.822632%, 77.432251%, 15.737915%)" fill-opacity="1" d="M 754.546875 192.867188 C 751.195312 193.6875 748.054688 194.292969 744.925781 194.898438 C 738.257812 160.261719 724.515625 124.546875 705.640625 96.429688 C 670.425781 43.972656 630.488281 7.828125 621.53125 0 C 627.78125 8.453125 636.746094 22.003906 645.863281 40.5625 C 662.40625 74.367188 678.988281 124.246094 679.984375 183.027344 C 679.96875 212.71875 671.816406 242.976562 666.1875 269.851562 C 660.425781 296.902344 660.34375 321.410156 666.832031 344.816406 C 668.601562 351.0625 670.664062 357.179688 672.949219 363.167969 C 684.726562 363.671875 697.960938 362.414062 712.476562 358.25 C 752.890625 346.660156 800.796875 291.957031 818.519531 239.097656 C 835.054688 189.804688 838.585938 145.628906 839.1875 135.863281 C 830.769531 145.035156 793.785156 183.371094 754.546875 192.867188 M 621.53125 0 C 626.472656 9.1875 633.25 23.433594 639.46875 42.132812 C 651.105469 76.40625 660.289062 127.449219 654.792969 179.679688 C 651.65625 205.550781 641.722656 230.617188 632.371094 259.1875 C 622.734375 287.546875 618.503906 321.960938 624.328125 352.515625 C 624.953125 355.738281 625.636719 358.898438 626.359375 362.03125 C 597.253906 350.15625 553.882812 321.644531 559.0625 257.976562 C 564.691406 188.871094 591.210938 174.402344 613.703125 123.777344 C 633.625 78.945312 624.132812 14.90625 621.53125 0 "/>
</g>
<path fill-rule="nonzero" fill="rgb(58.822632%, 77.432251%, 15.737915%)" fill-opacity="1" d="M 613.410156 468.125 C 613.410156 615.773438 493.726562 735.457031 346.003906 735.457031 C 198.355469 735.457031 78.671875 615.773438 78.671875 468.125 Z M 613.410156 468.125 "/>
<path fill-rule="nonzero" fill="rgb(58.822632%, 77.432251%, 15.737915%)" fill-opacity="1" d="M 613.410156 468.125 C 613.410156 607.296875 507.128906 721.621094 371.214844 734.296875 L 371.144531 734.296875 C 368.171875 734.585938 365.203125 734.804688 362.160156 734.949219 C 356.800781 735.3125 351.4375 735.457031 346.003906 735.457031 C 341.730469 735.457031 337.457031 735.386719 333.253906 735.167969 C 323.183594 734.660156 313.257812 733.648438 303.476562 732.054688 C 176.042969 711.695312 78.671875 601.285156 78.671875 468.125 Z M 613.410156 468.125 "/>
<path fill-rule="nonzero" fill="#ffffff" fill-opacity="1" d="M 122.136719 305.585938 L 197.523438 305.585938 L 197.523438 331.308594 L 148.238281 331.308594 L 148.238281 356.28125 L 197.523438 356.28125 L 197.523438 381.542969 L 148.238281 381.542969 L 148.238281 417.871094 L 197.523438 417.871094 L 197.523438 443.6875 L 122.136719 443.6875 Z M 122.136719 305.585938 "/>
<path fill-rule="nonzero" fill="#ffffff" fill-opacity="1" d="M 379.144531 329.859375 L 360.761719 347.382812 C 348.253906 334.167969 334.179688 327.550781 318.550781 327.550781 C 305.355469 327.550781 294.238281 332.066406 285.207031 341.085938 C 276.167969 350.105469 271.648438 361.226562 271.648438 374.453125 C 271.648438 383.65625 273.652344 391.835938 277.652344 398.980469 C 281.652344 406.121094 287.3125 411.730469 294.632812 415.796875 C 301.949219 419.875 310.078125 421.90625 319.019531 421.90625 C 326.644531 421.90625 333.621094 420.480469 339.9375 417.628906 C 346.25 414.78125 353.191406 409.59375 360.761719 402.078125 L 378.582031 420.671875 C 368.378906 430.632812 358.742188 437.53125 349.664062 441.386719 C 340.589844 445.238281 330.234375 447.160156 318.589844 447.160156 C 297.121094 447.160156 279.550781 440.355469 265.875 426.742188 C 252.199219 413.132812 245.363281 395.683594 245.363281 374.402344 C 245.363281 360.632812 248.476562 348.394531 254.703125 337.699219 C 260.929688 326.992188 269.847656 318.390625 281.460938 311.875 C 293.066406 305.363281 305.574219 302.109375 318.964844 302.109375 C 330.355469 302.109375 341.328125 304.515625 351.871094 309.328125 C 362.417969 314.144531 371.507812 320.988281 379.144531 329.859375 "/>
<path fill-rule="nonzero" fill="#ffffff" fill-opacity="1" d="M 497.253906 327.835938 C 484.46875 327.835938 473.722656 332.285156 465.015625 341.171875 C 456.304688 350.058594 451.953125 361.355469 451.953125 375.0625 C 451.953125 390.328125 457.433594 402.410156 468.402344 411.300781 C 476.917969 418.246094 486.695312 421.71875 497.71875 421.71875 C 510.191406 421.71875 520.804688 417.214844 529.578125 408.199219 C 538.351562 399.1875 542.738281 388.078125 542.738281 374.871094 C 542.738281 361.730469 538.320312 350.601562 529.488281 341.496094 C 520.648438 332.390625 509.90625 327.835938 497.253906 327.835938 M 497.53125 302.109375 C 517.074219 302.109375 533.871094 309.183594 547.933594 323.328125 C 561.992188 337.476562 569.023438 354.71875 569.023438 375.0625 C 569.023438 395.21875 562.085938 412.269531 548.214844 426.226562 C 534.34375 440.1875 517.511719 447.160156 497.71875 447.160156 C 476.988281 447.160156 459.765625 439.996094 446.050781 425.660156 C 432.335938 411.332031 425.476562 394.304688 425.476562 374.59375 C 425.476562 361.386719 428.671875 349.242188 435.058594 338.164062 C 441.449219 327.085938 450.234375 318.304688 461.410156 311.832031 C 472.589844 305.351562 484.628906 302.109375 497.53125 302.109375 "/>
<path fill-rule="nonzero" fill="rgb(23.391724%, 33.753967%, 8.526611%)" fill-opacity="1" d="M 128.820312 486.578125 L 157.183594 486.578125 L 157.183594 498.363281 L 139.621094 498.363281 L 139.621094 509.886719 L 157.183594 509.886719 L 157.183594 521.5 L 139.621094 521.5 L 139.621094 550.082031 L 128.820312 550.082031 Z M 128.820312 486.578125 "/>
<path fill-rule="nonzero" fill="rgb(23.391724%, 33.753967%, 8.526611%)" fill-opacity="1" d="M 190.96875 511.394531 L 194.378906 511.394531 C 197.839844 511.394531 200.222656 510.894531 201.527344 509.882812 C 202.832031 508.871094 203.480469 507.199219 203.480469 504.859375 C 203.480469 503.472656 203.160156 502.269531 202.515625 501.242188 C 201.867188 500.21875 201 499.480469 199.917969 499.035156 C 198.832031 498.582031 196.84375 498.363281 193.957031 498.363281 L 190.96875 498.363281 Z M 180.089844 486.578125 L 191.617188 486.578125 C 197.929688 486.578125 202.425781 487.199219 205.105469 488.453125 C 207.785156 489.703125 209.9375 491.785156 211.570312 494.691406 C 213.195312 497.597656 214.011719 501.039062 214.011719 505.007812 C 214.011719 509.179688 213.109375 512.667969 211.3125 515.476562 C 209.511719 518.285156 206.800781 520.410156 203.171875 521.84375 L 216.710938 550.082031 L 204.820312 550.082031 L 191.96875 523.183594 L 190.96875 523.183594 L 190.96875 550.082031 L 180.089844 550.082031 Z M 180.089844 486.578125 "/>
<path fill-rule="nonzero" fill="rgb(23.391724%, 33.753967%, 8.526611%)" fill-opacity="1" d="M 237.230469 486.574219 L 248.027344 486.574219 L 248.027344 550.082031 L 237.230469 550.082031 Z M 237.230469 486.574219 "/>
<path fill-rule="nonzero" fill="rgb(23.391724%, 33.753967%, 8.526611%)" fill-opacity="1" d="M 272.800781 486.578125 L 304.003906 486.578125 L 304.003906 498.40625 L 283.605469 498.40625 L 283.605469 509.886719 L 304.003906 509.886719 L 304.003906 521.5 L 283.605469 521.5 L 283.605469 538.210938 L 304.003906 538.210938 L 304.003906 550.082031 L 272.800781 550.082031 Z M 272.800781 486.578125 "/>
<path fill-rule="nonzero" fill="rgb(23.391724%, 33.753967%, 8.526611%)" fill-opacity="1" d="M 326.675781 486.578125 L 337.109375 486.578125 L 361.570312 528.367188 L 361.570312 486.578125 L 372.445312 486.578125 L 372.445312 550.082031 L 361.984375 550.082031 L 337.554688 508.417969 L 337.554688 550.082031 L 326.675781 550.082031 Z M 326.675781 486.578125 "/>
<path fill-rule="nonzero" fill="rgb(23.391724%, 33.753967%, 8.526611%)" fill-opacity="1" d="M 408.839844 498.230469 L 408.839844 538.292969 L 413.890625 538.292969 C 418.863281 538.292969 422.46875 537.664062 424.714844 536.390625 C 426.953125 535.125 428.785156 532.996094 430.210938 529.996094 C 431.636719 527.003906 432.347656 523.308594 432.347656 518.929688 C 432.347656 512.1875 430.648438 506.960938 427.257812 503.246094 C 424.199219 499.90625 419.289062 498.230469 412.53125 498.230469 Z M 398.035156 486.578125 L 410.925781 486.578125 C 419.234375 486.578125 425.40625 487.714844 429.445312 490.007812 C 433.480469 492.292969 436.808594 496.015625 439.421875 501.164062 C 442.035156 506.324219 443.339844 512.335938 443.339844 519.210938 C 443.339844 524.109375 442.613281 528.601562 441.148438 532.703125 C 439.6875 536.808594 437.667969 540.210938 435.09375 542.914062 C 432.515625 545.617188 429.730469 547.492188 426.726562 548.523438 C 423.726562 549.566406 418.523438 550.082031 411.121094 550.082031 L 398.035156 550.082031 Z M 398.035156 486.578125 "/>
<path fill-rule="nonzero" fill="rgb(23.391724%, 33.753967%, 8.526611%)" fill-opacity="1" d="M 466.207031 486.578125 L 477.089844 486.578125 L 477.089844 538.554688 L 492.941406 538.554688 L 492.941406 550.082031 L 466.207031 550.082031 Z M 466.207031 486.578125 "/>
<path fill-rule="nonzero" fill="rgb(23.391724%, 33.753967%, 8.526611%)" fill-opacity="1" d="M 509.648438 486.578125 L 521.328125 486.578125 L 531.992188 509.421875 L 542.605469 486.578125 L 554.140625 486.578125 L 537.410156 522.582031 L 537.410156 550.082031 L 526.453125 550.082031 L 526.453125 522.582031 Z M 509.648438 486.578125 "/>
<path fill-rule="nonzero" fill="rgb(23.391724%, 33.753967%, 8.526611%)" fill-opacity="1" d="M 333.253906 735.167969 C 323.183594 734.660156 313.257812 733.648438 303.476562 732.054688 C 294.640625 725.3125 287.105469 715.027344 283.554688 699.453125 C 274.644531 660.980469 286.523438 648.519531 290.003906 617.078125 C 293.046875 589.328125 276.816406 556.148438 272.832031 548.542969 C 277.105469 552.671875 283.191406 559.191406 289.859375 568.320312 C 302.101562 584.910156 315.9375 611.0625 321.953125 640.332031 C 324.777344 654.96875 323.691406 670.253906 323.546875 687.425781 C 323.257812 702.929688 326.300781 720.386719 333.253906 735.167969 "/>
<path fill-rule="nonzero" fill="rgb(23.391724%, 33.753967%, 8.526611%)" fill-opacity="1" d="M 421.207031 644.246094 C 420.699219 676.050781 404.179688 714.085938 384.257812 727.34375 C 379.765625 730.3125 375.417969 732.558594 371.21875 734.296875 L 371.144531 734.296875 C 368.171875 734.585938 365.203125 734.804688 362.160156 734.949219 C 360.421875 732.703125 358.753906 730.386719 357.160156 727.996094 C 349.554688 716.402344 345.351562 703.074219 343.757812 687.351562 C 342.164062 671.777344 341.367188 653.953125 336.222656 637.796875 C 325.5 606.066406 307.898438 581.867188 293.046875 566.363281 C 284.859375 557.816406 277.6875 552.019531 272.832031 548.542969 C 278.992188 551.222656 306.957031 563.972656 335.210938 586.359375 C 350.277344 598.316406 363.972656 615.339844 373.609375 633.015625 C 375.199219 632.148438 376.792969 631.277344 378.460938 630.265625 C 398.09375 618.308594 411.570312 591.070312 414.539062 584.621094 C 415.917969 590.054688 421.640625 614.617188 421.207031 644.246094 "/>
</svg>
