<?xml version="1.0" encoding="UTF-8"?>
<!-- CMYK_PDF_CONVERTED -->
<svg data-vectorized-cmyk="true" data-original-cmyk-pdf="true" xmlns="http://www.w3.org/2000/svg" xmlns:xlink="http://www.w3.org/1999/xlink" width="836.22" height="283.465" viewBox="0 0 836.22 283.465">
<path fill-rule="nonzero" fill="rgb(100%, 100%, 100%)" fill-opacity="1" d="M 69.101562 185.089844 L 69.101562 207.542969 L 66.015625 207.542969 L 66.015625 197.390625 L 53.042969 197.390625 L 53.042969 207.542969 L 49.957031 207.542969 L 49.957031 185.089844 L 53.042969 185.089844 L 53.042969 194.722656 L 66.015625 194.722656 L 66.015625 185.089844 Z M 69.101562 185.089844 "/>
<path fill-rule="nonzero" fill="rgb(100%, 100%, 100%)" fill-opacity="1" d="M 99.59375 187.8125 L 99.59375 194.609375 L 111.441406 194.609375 L 111.441406 197.277344 L 99.59375 197.277344 L 99.59375 204.820312 L 111.925781 204.820312 L 111.925781 207.542969 L 96.507812 207.542969 L 96.507812 185.089844 L 111.925781 185.089844 L 111.925781 187.8125 Z M 99.59375 187.8125 "/>
<path fill-rule="nonzero" fill="rgb(100%, 100%, 100%)" fill-opacity="1" d="M 151.371094 200.328125 L 146.730469 188.332031 L 142.164062 200.328125 Z M 152.378906 202.898438 L 141.175781 202.898438 L 139.390625 207.542969 L 136.105469 207.542969 L 144.730469 185.089844 L 148.652344 185.089844 L 157.445312 207.542969 L 154.183594 207.542969 Z M 152.378906 202.898438 "/>
<path fill-rule="nonzero" fill="rgb(100%, 100%, 100%)" fill-opacity="1" d="M 191.027344 187.988281 L 191.027344 207.542969 L 187.941406 207.542969 L 187.941406 187.988281 L 180.425781 187.988281 L 180.425781 185.089844 L 198.484375 185.089844 L 198.484375 187.988281 Z M 191.027344 187.988281 "/>
<path fill-rule="nonzero" fill="rgb(100%, 100%, 100%)" fill-opacity="1" d="M 226.976562 207.542969 L 223.890625 207.542969 L 223.890625 185.089844 L 226.976562 185.089844 Z M 226.976562 207.542969 "/>
<path fill-rule="nonzero" fill="rgb(100%, 100%, 100%)" fill-opacity="1" d="M 274.519531 185.089844 L 274.519531 207.542969 L 269.957031 207.542969 L 257.488281 187.910156 L 257.488281 207.542969 L 254.402344 207.542969 L 254.402344 185.089844 L 258.945312 185.089844 L 271.433594 204.722656 L 271.433594 185.089844 Z M 274.519531 185.089844 "/>
<path fill-rule="nonzero" fill="rgb(100%, 100%, 100%)" fill-opacity="1" d="M 310.351562 196.085938 L 320.410156 196.085938 C 320.476562 196.828125 320.507812 197.648438 320.507812 198.542969 C 320.507812 200.179688 320.488281 201.363281 320.449219 202.09375 C 320.292969 204.753906 319.265625 206.476562 317.363281 207.257812 C 316.378906 207.652344 314.160156 207.851562 310.703125 207.851562 C 308.398438 207.851562 306.714844 207.734375 305.652344 207.496094 C 304.59375 207.257812 303.691406 206.808594 302.953125 206.144531 C 301.816406 205.105469 301.179688 203.566406 301.050781 201.519531 C 301 200.699219 300.980469 199.664062 300.992188 198.410156 C 300.992188 198.152344 300.984375 197.359375 300.972656 196.027344 L 300.972656 195.105469 C 300.972656 193.097656 301.054688 191.566406 301.214844 190.511719 C 301.378906 189.457031 301.671875 188.515625 302.101562 187.699219 C 302.863281 186.226562 304.210938 185.320312 306.136719 184.972656 C 306.902344 184.84375 308.320312 184.78125 310.390625 184.78125 C 312.722656 184.78125 314.289062 184.808594 315.089844 184.867188 C 315.890625 184.925781 316.589844 185.050781 317.1875 185.242188 C 319.15625 185.921875 320.222656 187.386719 320.390625 189.636719 C 320.429688 190.035156 320.449219 190.828125 320.449219 192.015625 L 317.382812 192.015625 C 317.367188 190.339844 317.230469 189.226562 316.972656 188.675781 C 316.703125 188.101562 315.976562 187.75 314.800781 187.621094 C 313.957031 187.53125 312.398438 187.488281 310.121094 187.488281 C 308.253906 187.488281 306.914062 187.601562 306.097656 187.832031 C 305.179688 188.089844 304.59375 188.84375 304.332031 190.097656 C 304.191406 190.75 304.097656 192.804688 304.0625 196.257812 C 304.074219 198.972656 304.09375 200.5625 304.121094 201.039062 C 304.171875 202.1875 304.355469 203.054688 304.671875 203.636719 C 304.992188 204.222656 305.492188 204.601562 306.175781 204.78125 C 307.042969 205.023438 308.933594 205.144531 311.847656 205.144531 C 313.363281 205.144531 314.492188 205.070312 315.234375 204.925781 C 315.980469 204.777344 316.496094 204.523438 316.78125 204.167969 C 317.207031 203.628906 317.421875 202.222656 317.421875 199.945312 C 317.421875 199.6875 317.414062 199.308594 317.402344 198.8125 L 310.351562 198.8125 Z M 310.351562 196.085938 "/>
<path fill-rule="nonzero" fill="rgb(100%, 100%, 100%)" fill-opacity="1" d="M 386.890625 196.355469 C 385.507812 196.546875 384.589844 196.757812 384.136719 196.988281 C 383.757812 197.179688 383.492188 197.550781 383.328125 198.101562 C 383.167969 198.652344 383.085938 199.464844 383.085938 200.539062 C 383.085938 202.699219 383.421875 204.039062 384.097656 204.550781 C 384.535156 204.882812 385.300781 205.0625 386.386719 205.089844 C 387.449219 205.101562 388.535156 205.105469 389.648438 205.105469 C 391.488281 205.105469 392.730469 205.015625 393.378906 204.839844 C 394.363281 204.570312 394.988281 204.011719 395.261719 203.167969 Z M 395.746094 197.296875 L 398.8125 197.296875 C 398.851562 198.292969 398.875 198.953125 398.875 199.273438 C 398.875 200.386719 398.796875 201.382812 398.640625 202.265625 L 402.601562 205.492188 L 400.851562 207.679688 L 397.648438 205.050781 C 397.234375 205.855469 396.644531 206.476562 395.882812 206.910156 C 395.003906 207.382812 394.078125 207.660156 393.105469 207.738281 C 392.210938 207.8125 391.046875 207.851562 389.613281 207.851562 C 386.878906 207.851562 385.035156 207.738281 384.078125 207.507812 C 382.160156 207.058594 380.929688 205.945312 380.386719 204.167969 C 380.117188 203.28125 379.980469 202.035156 379.980469 200.425781 C 379.980469 197.914062 380.53125 196.273438 381.628906 195.492188 C 382.277344 195.03125 383.3125 194.703125 384.738281 194.511719 C 384.257812 194.089844 383.894531 193.6875 383.648438 193.304688 C 383.289062 192.703125 383.105469 191.882812 383.105469 190.847656 C 383.105469 188.644531 383.613281 187.160156 384.621094 186.394531 C 385.644531 185.625 387.496094 185.242188 390.171875 185.242188 C 391.519531 185.242188 392.589844 185.339844 393.378906 185.53125 C 394.167969 185.722656 394.820312 186.046875 395.339844 186.507812 C 396.257812 187.328125 396.71875 188.722656 396.71875 190.691406 C 396.71875 191.089844 396.703125 191.652344 396.679688 192.382812 L 393.652344 192.382812 C 393.636719 191.804688 393.628906 191.433594 393.628906 191.269531 C 393.617188 189.796875 393.457031 188.894531 393.144531 188.5625 C 392.769531 188.164062 391.765625 187.96875 390.136719 187.96875 C 388.308594 187.96875 387.171875 188.164062 386.71875 188.5625 C 386.382812 188.867188 386.210938 189.464844 386.210938 190.347656 C 386.210938 191.191406 386.363281 191.824219 386.660156 192.246094 C 386.867188 192.527344 387.292969 192.933594 387.941406 193.457031 L 395.804688 199.945312 C 395.820312 199.546875 395.824219 199.253906 395.824219 199.0625 C 395.824219 198.726562 395.796875 198.140625 395.746094 197.296875 "/>
<path fill-rule="nonzero" fill="rgb(100%, 100%, 100%)" fill-opacity="1" d="M 464.964844 196.238281 L 471.179688 196.238281 C 473.082031 196.238281 474.363281 196.125 475.027344 195.894531 C 475.722656 195.636719 476.183594 195.101562 476.40625 194.28125 C 476.519531 193.871094 476.578125 193.257812 476.578125 192.441406 C 476.578125 190.890625 476.480469 189.808594 476.289062 189.195312 C 476.066406 188.53125 475.5625 188.113281 474.773438 187.949219 C 474.433594 187.871094 473.503906 187.828125 471.976562 187.8125 L 464.964844 187.8125 Z M 461.878906 207.542969 L 461.878906 185.089844 L 472.054688 185.089844 C 473.503906 185.089844 474.53125 185.125 475.140625 185.195312 C 475.75 185.265625 476.3125 185.414062 476.832031 185.644531 C 478.71875 186.488281 479.664062 188.636719 479.664062 192.09375 C 479.664062 193.988281 479.40625 195.421875 478.886719 196.394531 C 478.214844 197.632812 477.179688 198.421875 475.78125 198.753906 C 475.289062 198.867188 473.917969 198.941406 471.664062 198.964844 L 464.964844 198.964844 L 464.964844 207.542969 Z M 461.878906 207.542969 "/>
<path fill-rule="nonzero" fill="rgb(100%, 100%, 100%)" fill-opacity="1" d="M 508.605469 185.089844 L 508.605469 204.648438 L 520.605469 204.648438 L 520.605469 207.542969 L 505.515625 207.542969 L 505.515625 185.089844 Z M 508.605469 185.089844 "/>
<path fill-rule="nonzero" fill="rgb(100%, 100%, 100%)" fill-opacity="1" d="M 561.640625 185.089844 L 564.730469 185.089844 L 564.730469 200.691406 C 564.730469 202.613281 564.515625 204.007812 564.089844 204.875 C 563.457031 206.195312 562.316406 207.070312 560.671875 207.507812 C 559.777344 207.738281 558.050781 207.851562 555.488281 207.851562 C 553.660156 207.851562 552.351562 207.8125 551.554688 207.738281 C 550.757812 207.660156 550.054688 207.507812 549.449219 207.277344 C 548.089844 206.765625 547.152344 205.964844 546.632812 204.875 C 546.207031 203.96875 545.992188 202.574219 545.992188 200.691406 L 545.992188 185.089844 L 549.078125 185.089844 L 549.078125 200.691406 C 549.078125 202.28125 549.214844 203.308594 549.488281 203.78125 C 549.835938 204.371094 550.515625 204.761719 551.527344 204.953125 C 552.132812 205.070312 553.304688 205.125 555.039062 205.125 C 557.589844 205.125 559.261719 205 560.050781 204.742188 C 560.773438 204.511719 561.242188 203.9375 561.449219 203.015625 C 561.578125 202.503906 561.640625 201.726562 561.640625 200.691406 Z M 561.640625 185.089844 "/>
<path fill-rule="nonzero" fill="rgb(100%, 100%, 100%)" fill-opacity="1" d="M 617.628906 185.089844 L 617.628906 207.542969 L 614.542969 207.542969 L 614.542969 187.910156 L 606.367188 207.542969 L 603.457031 207.542969 L 595.242188 187.910156 L 595.242188 207.542969 L 592.15625 207.542969 L 592.15625 185.089844 L 596.96875 185.089844 L 604.871094 204.261719 L 612.757812 185.089844 Z M 617.628906 185.089844 "/>
<path fill-rule="nonzero" fill="rgb(100%, 100%, 100%)" fill-opacity="1" d="M 648.144531 204.820312 L 653.734375 204.820312 C 655.636719 204.804688 656.769531 204.785156 657.132812 204.761719 C 658.714844 204.683594 659.652344 204.25 659.949219 203.457031 C 660.128906 202.945312 660.21875 202.242188 660.21875 201.34375 C 660.21875 200.269531 660.121094 199.453125 659.929688 198.886719 C 659.683594 198.121094 659.003906 197.660156 657.890625 197.507812 C 657.566406 197.457031 656.558594 197.429688 654.863281 197.429688 L 648.144531 197.429688 Z M 648.144531 194.703125 L 655.015625 194.703125 C 656.675781 194.703125 657.800781 194.550781 658.394531 194.242188 C 658.898438 193.960938 659.238281 193.507812 659.40625 192.882812 C 659.496094 192.496094 659.539062 191.921875 659.539062 191.152344 C 659.539062 190.117188 659.445312 189.394531 659.25 188.984375 C 658.964844 188.359375 658.390625 187.988281 657.519531 187.871094 C 657.210938 187.832031 656.597656 187.8125 655.675781 187.8125 L 648.144531 187.8125 Z M 645.054688 207.542969 L 645.054688 185.089844 L 655.734375 185.089844 C 657.054688 185.089844 657.976562 185.121094 658.492188 185.183594 C 660.046875 185.375 661.164062 186.035156 661.851562 187.160156 C 662.371094 188.03125 662.628906 189.367188 662.628906 191.171875 C 662.628906 193.003906 662.246094 194.289062 661.480469 195.03125 C 661.121094 195.390625 660.441406 195.632812 659.445312 195.761719 C 660.46875 195.824219 661.230469 196.039062 661.734375 196.410156 C 662.785156 197.21875 663.308594 198.765625 663.308594 201.058594 C 663.308594 203.925781 662.550781 205.796875 661.035156 206.679688 C 660.066406 207.257812 658.648438 207.542969 656.78125 207.542969 Z M 645.054688 207.542969 "/>
<path fill-rule="nonzero" fill="rgb(100%, 100%, 100%)" fill-opacity="1" d="M 692.734375 207.542969 L 689.644531 207.542969 L 689.644531 185.089844 L 692.734375 185.089844 Z M 692.734375 207.542969 "/>
<path fill-rule="nonzero" fill="rgb(100%, 100%, 100%)" fill-opacity="1" d="M 740.277344 185.089844 L 740.277344 207.542969 L 735.710938 207.542969 L 723.246094 187.910156 L 723.246094 207.542969 L 720.160156 207.542969 L 720.160156 185.089844 L 724.703125 185.089844 L 737.1875 204.722656 L 737.1875 185.089844 Z M 740.277344 185.089844 "/>
<path fill-rule="nonzero" fill="rgb(100%, 100%, 100%)" fill-opacity="1" d="M 776.109375 196.085938 L 786.167969 196.085938 C 786.230469 196.828125 786.265625 197.648438 786.265625 198.542969 C 786.265625 200.179688 786.246094 201.363281 786.207031 202.09375 C 786.050781 204.753906 785.019531 206.476562 783.117188 207.257812 C 782.132812 207.652344 779.914062 207.851562 776.457031 207.851562 C 774.152344 207.851562 772.46875 207.734375 771.410156 207.496094 C 770.347656 207.257812 769.449219 206.808594 768.710938 206.144531 C 767.570312 205.105469 766.9375 203.566406 766.808594 201.519531 C 766.753906 200.699219 766.734375 199.664062 766.75 198.410156 C 766.75 198.152344 766.742188 197.359375 766.730469 196.027344 L 766.730469 195.105469 C 766.730469 193.097656 766.8125 191.566406 766.972656 190.511719 C 767.132812 189.457031 767.429688 188.515625 767.855469 187.699219 C 768.621094 186.226562 769.964844 185.320312 771.894531 184.972656 C 772.660156 184.84375 774.074219 184.78125 776.148438 184.78125 C 778.476562 184.78125 780.042969 184.808594 780.847656 184.867188 C 781.648438 184.925781 782.347656 185.050781 782.945312 185.242188 C 784.910156 185.921875 785.980469 187.386719 786.148438 189.636719 C 786.1875 190.035156 786.207031 190.828125 786.207031 192.015625 L 783.136719 192.015625 C 783.125 190.339844 782.988281 189.226562 782.730469 188.675781 C 782.457031 188.101562 781.734375 187.75 780.554688 187.621094 C 779.714844 187.53125 778.152344 187.488281 775.875 187.488281 C 774.011719 187.488281 772.671875 187.601562 771.855469 187.832031 C 770.9375 188.089844 770.347656 188.84375 770.089844 190.097656 C 769.945312 190.75 769.855469 192.804688 769.816406 196.257812 C 769.832031 198.972656 769.847656 200.5625 769.875 201.039062 C 769.925781 202.1875 770.113281 203.054688 770.429688 203.636719 C 770.746094 204.222656 771.246094 204.601562 771.933594 204.78125 C 772.800781 205.023438 774.691406 205.144531 777.605469 205.144531 C 779.117188 205.144531 780.246094 205.070312 780.992188 204.925781 C 781.734375 204.777344 782.25 204.523438 782.535156 204.167969 C 782.960938 203.628906 783.175781 202.222656 783.175781 199.945312 C 783.175781 199.6875 783.167969 199.308594 783.15625 198.8125 L 776.109375 198.8125 Z M 776.109375 196.085938 "/>
<path fill-rule="nonzero" fill="rgb(100%, 100%, 100%)" fill-opacity="1" d="M 786.613281 226.839844 L 49.605469 226.839844 L 49.605469 223.871094 L 786.613281 223.871094 Z M 786.613281 226.839844 "/>
<path fill-rule="nonzero" fill="rgb(100%, 100%, 100%)" fill-opacity="1" d="M 57.582031 246.015625 L 57.582031 257.34375 L 76.988281 257.34375 C 80.441406 257.34375 82.167969 255.945312 82.167969 253.136719 L 82.167969 250.339844 C 82.167969 248.648438 81.769531 247.503906 80.976562 246.910156 C 80.195312 246.3125 78.800781 246.015625 76.789062 246.015625 Z M 53.59375 242.761719 L 78.398438 242.761719 C 81.082031 242.761719 83.046875 243.328125 84.292969 244.464844 C 85.535156 245.605469 86.15625 247.679688 86.15625 250.699219 L 86.15625 251.910156 C 86.15625 255.28125 85.496094 257.578125 84.171875 258.792969 C 82.847656 259.996094 80.460938 260.597656 77.007812 260.597656 L 57.582031 260.597656 L 57.582031 272.285156 L 53.59375 272.285156 Z M 53.59375 242.761719 "/>
<path fill-rule="nonzero" fill="rgb(100%, 100%, 100%)" fill-opacity="1" d="M 115.246094 252.066406 L 115.246094 262.941406 C 115.246094 265.191406 115.800781 266.824219 116.914062 267.839844 C 118.023438 268.847656 119.808594 269.351562 122.269531 269.351562 L 138.324219 269.351562 C 140.808594 269.351562 142.582031 268.828125 143.640625 267.785156 C 144.699219 266.722656 145.230469 265.125 145.230469 262.980469 L 145.230469 252.128906 C 145.230469 249.824219 144.679688 248.175781 143.582031 247.183594 C 142.496094 246.191406 140.746094 245.699219 138.324219 245.699219 L 122.269531 245.699219 C 119.625 245.699219 117.792969 246.234375 116.773438 247.304688 C 115.757812 248.375 115.246094 249.964844 115.246094 252.066406 M 111.257812 261.890625 L 111.257812 253.160156 C 111.257812 249.363281 112.085938 246.628906 113.738281 244.964844 C 115.390625 243.285156 118.125 242.441406 121.933594 242.441406 L 138.660156 242.441406 C 142.5625 242.441406 145.296875 243.316406 146.855469 245.0625 C 148.429688 246.796875 149.21875 249.535156 149.21875 253.277344 L 149.21875 261.808594 C 149.21875 265.644531 148.417969 268.40625 146.816406 270.085938 C 145.214844 271.765625 142.496094 272.605469 138.660156 272.605469 L 121.933594 272.605469 C 118.125 272.605469 115.390625 271.769531 113.738281 270.105469 C 112.085938 268.425781 111.257812 265.6875 111.257812 261.890625 "/>
<path fill-rule="nonzero" fill="rgb(100%, 100%, 100%)" fill-opacity="1" d="M 180.292969 257.34375 L 199.339844 257.34375 C 201.457031 257.34375 203.0625 257.046875 204.164062 256.453125 C 205.273438 255.859375 205.828125 254.710938 205.828125 253.019531 L 205.828125 250.402344 C 205.828125 248.628906 205.300781 247.457031 204.242188 246.886719 C 203.195312 246.304688 201.363281 246.015625 198.746094 246.015625 L 180.292969 246.015625 Z M 176.304688 272.285156 L 176.304688 242.761719 L 200.132812 242.761719 C 203.785156 242.761719 206.3125 243.34375 207.714844 244.507812 C 209.117188 245.671875 209.816406 247.828125 209.816406 250.976562 L 209.816406 253.375 C 209.816406 255.335938 209.386719 256.722656 208.527344 257.542969 C 207.667969 258.363281 206.253906 258.894531 204.28125 259.128906 C 207.722656 259.6875 209.441406 261.589844 209.441406 264.84375 L 209.441406 272.285156 L 205.710938 272.285156 L 205.710938 265.757812 C 205.710938 263.761719 205.289062 262.40625 204.441406 261.691406 C 203.59375 260.964844 202 260.597656 199.660156 260.597656 L 180.292969 260.597656 L 180.292969 272.285156 Z M 176.304688 272.285156 "/>
<path fill-rule="nonzero" fill="rgb(100%, 100%, 100%)" fill-opacity="1" d="M 233.691406 242.761719 L 267.523438 242.761719 L 267.523438 246.015625 L 252.601562 246.015625 L 252.601562 272.285156 L 248.613281 272.285156 L 248.613281 246.015625 L 233.691406 246.015625 Z M 233.691406 242.761719 "/>
<path fill-rule="nonzero" fill="rgb(100%, 100%, 100%)" fill-opacity="1" d="M 299.191406 262.722656 L 318.894531 262.722656 L 309.035156 245.996094 Z M 289.089844 272.285156 L 306.554688 242.761719 L 311.535156 242.761719 L 328.996094 272.285156 L 324.511719 272.285156 L 320.761719 265.976562 L 297.324219 265.976562 L 293.574219 272.285156 Z M 289.089844 272.285156 "/>
<path fill-rule="nonzero" fill="rgb(100%, 100%, 100%)" fill-opacity="1" d="M 357.589844 257.34375 L 376.640625 257.34375 C 378.753906 257.34375 380.363281 257.046875 381.460938 256.453125 C 382.570312 255.859375 383.128906 254.710938 383.128906 253.019531 L 383.128906 250.402344 C 383.128906 248.628906 382.597656 247.457031 381.539062 246.886719 C 380.496094 246.304688 378.664062 246.015625 376.042969 246.015625 L 357.589844 246.015625 Z M 353.601562 272.285156 L 353.601562 242.761719 L 377.433594 242.761719 C 381.082031 242.761719 383.609375 243.34375 385.011719 244.507812 C 386.414062 245.671875 387.113281 247.828125 387.113281 250.976562 L 387.113281 253.375 C 387.113281 255.335938 386.6875 256.722656 385.828125 257.542969 C 384.964844 258.363281 383.550781 258.894531 381.578125 259.128906 C 385.019531 259.6875 386.738281 261.589844 386.738281 264.84375 L 386.738281 272.285156 L 383.007812 272.285156 L 383.007812 265.757812 C 383.007812 263.761719 382.585938 262.40625 381.738281 261.691406 C 380.890625 260.964844 379.296875 260.597656 376.957031 260.597656 L 357.589844 260.597656 L 357.589844 272.285156 Z M 353.601562 272.285156 "/>
<path fill-rule="nonzero" fill="rgb(100%, 100%, 100%)" fill-opacity="1" d="M 414.28125 242.761719 L 418.269531 242.761719 L 418.269531 269.03125 L 441.128906 269.03125 L 441.128906 272.285156 L 414.28125 272.285156 Z M 414.28125 242.761719 "/>
<path fill-rule="nonzero" fill="rgb(100%, 100%, 100%)" fill-opacity="1" d="M 465.8125 242.761719 L 469.800781 242.761719 L 469.800781 272.285156 L 465.8125 272.285156 Z M 465.8125 242.761719 "/>
<path fill-rule="nonzero" fill="rgb(100%, 100%, 100%)" fill-opacity="1" d="M 497.78125 242.761719 L 503.695312 242.761719 L 530.800781 268.714844 L 530.800781 242.761719 L 534.789062 242.761719 L 534.789062 272.285156 L 528.875 272.285156 L 501.769531 246.332031 L 501.769531 272.285156 L 497.78125 272.285156 Z M 497.78125 242.761719 "/>
<path fill-rule="nonzero" fill="rgb(100%, 100%, 100%)" fill-opacity="1" d="M 579.671875 260.9375 L 579.671875 257.683594 L 598.722656 257.683594 L 598.722656 262.226562 C 598.722656 265.90625 597.96875 268.554688 596.460938 270.183594 C 594.953125 271.796875 592.3125 272.605469 588.542969 272.605469 L 572.410156 272.605469 C 568.585938 272.605469 565.847656 271.773438 564.195312 270.105469 C 562.542969 268.4375 561.714844 265.621094 561.714844 261.652344 L 561.714844 252.960938 C 561.78125 249.152344 562.640625 246.445312 564.292969 244.84375 C 565.960938 243.246094 568.71875 242.445312 572.566406 242.445312 L 587.234375 242.445312 C 594.679688 242.445312 598.402344 245.140625 598.402344 250.539062 L 598.402344 251.652344 L 594.671875 251.652344 C 594.671875 249.082031 594.070312 247.449219 592.867188 246.75 C 591.675781 246.046875 588.894531 245.699219 584.515625 245.699219 L 572.828125 245.699219 C 570.261719 245.699219 568.429688 246.210938 567.328125 247.246094 C 566.246094 248.261719 565.703125 249.90625 565.703125 252.164062 L 565.703125 262.503906 C 565.703125 264.886719 566.207031 266.625 567.210938 267.722656 C 568.230469 268.808594 570.109375 269.351562 572.847656 269.351562 L 588.046875 269.351562 C 590.335938 269.351562 592.019531 268.925781 593.105469 268.082031 C 594.191406 267.21875 594.734375 265.773438 594.734375 263.734375 L 594.734375 260.9375 Z M 579.671875 260.9375 "/>
<path fill-rule="nonzero" fill="rgb(100%, 100%, 100%)" fill-opacity="1" d="M 622.671875 242.761719 L 656.503906 242.761719 L 656.503906 246.015625 L 641.582031 246.015625 L 641.582031 272.285156 L 637.59375 272.285156 L 637.59375 246.015625 L 622.671875 246.015625 Z M 622.671875 242.761719 "/>
<path fill-rule="nonzero" fill="rgb(100%, 100%, 100%)" fill-opacity="1" d="M 684.5625 252.066406 L 684.5625 262.941406 C 684.5625 265.191406 685.117188 266.824219 686.230469 267.839844 C 687.339844 268.847656 689.125 269.351562 691.585938 269.351562 L 707.640625 269.351562 C 710.125 269.351562 711.898438 268.828125 712.957031 267.785156 C 714.015625 266.722656 714.546875 265.125 714.546875 262.980469 L 714.546875 252.128906 C 714.546875 249.824219 713.996094 248.175781 712.898438 247.183594 C 711.8125 246.191406 710.0625 245.699219 707.640625 245.699219 L 691.585938 245.699219 C 688.941406 245.699219 687.109375 246.234375 686.089844 247.304688 C 685.074219 248.375 684.5625 249.964844 684.5625 252.066406 M 680.574219 261.890625 L 680.574219 253.160156 C 680.574219 249.363281 681.402344 246.628906 683.054688 244.964844 C 684.707031 243.285156 687.441406 242.441406 691.25 242.441406 L 707.976562 242.441406 C 711.878906 242.441406 714.613281 243.316406 716.171875 245.0625 C 717.746094 246.796875 718.535156 249.535156 718.535156 253.277344 L 718.535156 261.808594 C 718.535156 265.644531 717.734375 268.40625 716.132812 270.085938 C 714.53125 271.765625 711.8125 272.605469 707.976562 272.605469 L 691.25 272.605469 C 687.441406 272.605469 684.707031 271.769531 683.054688 270.105469 C 681.402344 268.425781 680.574219 265.6875 680.574219 261.890625 "/>
<path fill-rule="nonzero" fill="rgb(100%, 100%, 100%)" fill-opacity="1" d="M 745.621094 242.761719 L 751.53125 242.761719 L 778.636719 268.714844 L 778.636719 242.761719 L 782.625 242.761719 L 782.625 272.285156 L 776.714844 272.285156 L 749.609375 246.332031 L 749.609375 272.285156 L 745.621094 272.285156 Z M 745.621094 242.761719 "/>
<path fill-rule="nonzero" fill="rgb(10.198975%, 45.899963%, 73.298645%)" fill-opacity="1" d="M 706.476562 64.082031 L 662.5 64.082031 L 662.5 83.402344 L 706.972656 83.402344 C 710.609375 83.402344 713.148438 82.769531 714.589844 81.484375 C 716.035156 80.207031 716.757812 77.953125 716.757812 74.730469 L 716.757812 73 C 716.757812 69.617188 716.015625 67.285156 714.53125 66 C 713.042969 64.722656 710.359375 64.082031 706.476562 64.082031 "/>
<path fill-rule="nonzero" fill="rgb(10.198975%, 45.899963%, 73.298645%)" fill-opacity="1" d="M 497.363281 64.082031 L 460.074219 64.082031 L 460.074219 83.402344 L 497.859375 83.402344 C 501.492188 83.402344 504.03125 82.769531 505.476562 81.484375 C 506.921875 80.207031 507.644531 77.953125 507.644531 74.730469 L 507.644531 73 C 507.644531 69.617188 506.902344 67.285156 505.414062 66 C 503.929688 64.722656 501.242188 64.082031 497.363281 64.082031 "/>
<path fill-rule="nonzero" fill="rgb(10.198975%, 45.899963%, 73.298645%)" fill-opacity="1" d="M 737.121094 131.644531 L 716.429688 131.644531 L 716.429688 118.265625 C 716.429688 114.050781 715.285156 110.953125 713.019531 108.972656 C 710.75 106.992188 707.21875 105.996094 702.425781 105.996094 L 661.800781 105.996094 L 661.800781 131.644531 L 641.109375 131.644531 L 641.109375 45.667969 L 704.910156 45.667969 C 710.4375 45.667969 715.191406 46.160156 719.152344 47.152344 C 723.121094 48.140625 726.382812 49.734375 728.9375 51.925781 C 731.496094 54.117188 733.355469 56.964844 734.519531 60.464844 C 735.675781 63.976562 736.25 68.210938 736.25 73.167969 L 736.25 79.113281 C 736.25 83.992188 735.792969 87.832031 734.886719 90.636719 C 733.980469 93.449219 732.164062 95.710938 729.433594 97.453125 C 731.835938 98.359375 733.714844 100.027344 735.070312 102.464844 C 736.433594 104.902344 737.121094 108.6875 737.121094 113.800781 Z M 626.859375 62.757812 L 559.46875 62.757812 L 559.46875 78.621094 L 624.753906 78.621094 L 624.753906 95.839844 L 559.46875 95.839844 L 559.46875 114.425781 L 626.859375 114.425781 L 626.859375 131.644531 L 538.902344 131.644531 L 538.902344 45.667969 L 626.859375 45.667969 Z M 527.136719 79.113281 C 527.136719 84.074219 526.613281 88.261719 525.585938 91.6875 C 524.550781 95.117188 522.855469 97.902344 520.511719 100.054688 C 518.15625 102.199219 515.058594 103.75 511.21875 104.703125 C 507.378906 105.644531 502.6875 106.121094 497.152344 106.121094 L 459 106.121094 L 459 131.644531 L 438.4375 131.644531 L 438.4375 45.667969 L 495.792969 45.667969 C 501.320312 45.667969 506.078125 46.160156 510.035156 47.152344 C 514.003906 48.140625 517.265625 49.734375 519.824219 51.925781 C 522.390625 54.117188 524.25 56.964844 525.40625 60.464844 C 526.550781 63.976562 527.136719 68.210938 527.136719 73.167969 Z M 425.800781 94.851562 C 425.800781 102.777344 425.195312 109.15625 424.003906 113.984375 C 422.800781 118.824219 420.59375 122.535156 417.378906 125.136719 C 414.152344 127.738281 409.707031 129.472656 404.054688 130.34375 C 398.398438 131.203125 391.113281 131.644531 382.1875 131.644531 L 363.976562 131.644531 C 355.722656 131.644531 348.949219 131.148438 343.660156 130.148438 C 338.375 129.160156 334.222656 127.308594 331.207031 124.578125 C 328.191406 121.855469 326.113281 118.136719 324.957031 113.425781 C 323.800781 108.726562 323.226562 102.65625 323.226562 95.226562 L 323.226562 84.816406 C 323.226562 76.804688 323.773438 70.234375 324.894531 65.113281 C 326.011719 60 328.074219 55.976562 331.089844 53.035156 C 334.101562 50.109375 338.292969 48.078125 343.660156 46.96875 C 349.03125 45.851562 355.921875 45.292969 364.355469 45.292969 L 382.5625 45.292969 C 391.398438 45.292969 398.628906 45.867188 404.246094 47.03125 C 409.855469 48.1875 414.253906 50.230469 417.433594 53.164062 C 420.613281 56.09375 422.800781 60.101562 424.003906 65.175781 C 425.195312 70.261719 425.800781 76.679688 425.800781 84.441406 Z M 312.320312 94.851562 C 312.320312 102.777344 311.714844 109.15625 310.523438 113.984375 C 309.324219 118.824219 307.117188 122.535156 303.898438 125.136719 C 300.671875 127.738281 296.238281 129.472656 290.582031 130.34375 C 284.917969 131.203125 277.632812 131.644531 268.707031 131.644531 L 250.5 131.644531 C 242.242188 131.644531 235.46875 131.148438 230.183594 130.148438 C 224.894531 129.160156 220.753906 127.308594 217.738281 124.578125 C 214.722656 121.855469 212.632812 118.136719 211.476562 113.425781 C 210.324219 108.726562 209.746094 102.65625 209.746094 95.226562 L 209.746094 84.816406 C 209.746094 76.804688 210.304688 70.234375 211.414062 65.113281 C 212.53125 60 214.59375 55.976562 217.609375 53.035156 C 220.625 50.109375 224.8125 48.078125 230.183594 46.96875 C 235.550781 45.851562 242.453125 45.292969 250.875 45.292969 L 269.085938 45.292969 C 277.917969 45.292969 285.148438 45.867188 290.765625 47.03125 C 296.375 48.1875 300.773438 50.230469 303.953125 53.164062 C 307.132812 56.09375 309.324219 60.101562 310.523438 65.175781 C 311.714844 70.261719 312.320312 76.679688 312.320312 84.441406 Z M 197.171875 116.09375 C 196.21875 119.933594 194.242188 123.011719 191.226562 125.320312 C 188.210938 127.640625 183.894531 129.289062 178.277344 130.277344 C 172.660156 131.277344 165.273438 131.761719 156.097656 131.761719 L 137.277344 131.761719 C 129.339844 131.761719 122.796875 131.230469 117.636719 130.148438 C 112.476562 129.085938 108.382812 127.179688 105.375 124.460938 C 102.351562 121.726562 100.226562 118.035156 98.988281 113.371094 C 97.753906 108.714844 97.132812 102.847656 97.128906 95.753906 L 97.128906 84.765625 C 97.132812 76.359375 97.773438 69.609375 99.054688 64.5 C 100.335938 59.375 102.527344 55.433594 105.625 52.667969 C 106.648438 51.742188 107.8125 50.9375 109.089844 50.210938 C 111.105469 49.066406 113.414062 48.175781 116.023438 47.535156 C 116.710938 47.371094 117.410156 47.222656 118.132812 47.085938 C 118.582031 47.011719 119.058594 46.929688 119.535156 46.859375 C 124.546875 46.070312 130.695312 45.667969 138.019531 45.667969 L 156.347656 45.667969 C 164.777344 45.667969 171.714844 46.058594 177.167969 46.839844 C 182.609375 47.628906 186.910156 49.09375 190.042969 51.238281 C 193.1875 53.390625 195.378906 56.359375 196.613281 60.15625 C 197.851562 63.957031 198.472656 68.878906 198.472656 74.910156 L 177.167969 74.910156 C 177.167969 73.25 176.9375 71.785156 176.480469 70.5 C 176.03125 69.226562 175.058594 68.15625 173.566406 67.285156 C 172.082031 66.414062 169.890625 65.78125 167.003906 65.359375 C 164.117188 64.957031 160.230469 64.746094 155.355469 64.746094 L 139.503906 64.746094 C 134.875 64.746094 131.144531 64.929688 128.296875 65.304688 C 125.445312 65.671875 123.253906 66.523438 121.726562 67.84375 C 120.195312 69.164062 119.1875 71.152344 118.691406 73.78125 C 118.199219 76.429688 117.949219 80.023438 117.949219 84.566406 L 117.949219 93.980469 C 117.949219 98.195312 118.199219 101.539062 118.691406 104.015625 C 119.1875 106.5 120.175781 108.414062 121.660156 109.777344 C 123.144531 111.144531 125.253906 112.023438 127.984375 112.4375 C 130.707031 112.859375 134.296875 113.058594 138.761719 113.058594 L 155.605469 113.058594 C 160.148438 113.058594 163.84375 112.929688 166.691406 112.691406 C 169.542969 112.4375 171.753906 111.902344 173.320312 111.082031 C 174.894531 110.253906 175.949219 109.089844 176.480469 107.605469 C 177.019531 106.121094 177.289062 104.179688 177.289062 101.789062 L 198.59375 101.789062 C 198.59375 107.488281 198.117188 112.253906 197.171875 116.09375 M 97.128906 10.898438 L 97.128906 10.859375 L 50.179688 10.859375 L 50.179688 161.710938 L 82.292969 161.710938 L 82.367188 161.785156 L 89.566406 161.792969 L 786.039062 163.125 L 786.039062 10.898438 Z M 97.128906 10.898438 "/>
<path fill-rule="nonzero" fill="rgb(10.198975%, 45.899963%, 73.298645%)" fill-opacity="1" d="M 282.511719 86.402344 C 276.617188 85.265625 271.328125 83.535156 265.5625 80.890625 C 259.257812 78.269531 252.207031 77.453125 245.558594 78.289062 C 238.929688 79.152344 232.492188 81.453125 227.40625 85.5625 C 233.757812 84.378906 239.863281 83.972656 245.789062 84.246094 C 251.710938 84.683594 257.386719 85.769531 262.71875 88.015625 C 268.378906 90.636719 275.371094 92.464844 282.027344 92.371094 C 288.707031 92.472656 295.902344 90.355469 300.417969 85.5625 C 294.203125 87.53125 288.320312 87.453125 282.511719 86.402344 "/>
<path fill-rule="nonzero" fill="rgb(10.198975%, 45.899963%, 73.298645%)" fill-opacity="1" d="M 282.511719 69.097656 C 276.617188 67.960938 271.328125 66.230469 265.5625 63.585938 C 259.257812 60.964844 252.207031 60.144531 245.558594 60.980469 C 238.929688 61.847656 232.492188 64.148438 227.40625 68.257812 C 233.757812 67.070312 239.863281 66.667969 245.789062 66.941406 C 251.710938 67.378906 257.386719 68.464844 262.71875 70.707031 C 268.378906 73.328125 275.371094 75.160156 282.027344 75.066406 C 288.707031 75.167969 295.902344 73.050781 300.417969 68.257812 C 294.203125 70.226562 288.320312 70.144531 282.511719 69.097656 "/>
<path fill-rule="nonzero" fill="rgb(10.198975%, 45.899963%, 73.298645%)" fill-opacity="1" d="M 365.429688 108.949219 C 359.566406 104.339844 357.734375 95.699219 361.511719 89.773438 C 364.261719 102.273438 371.863281 108.503906 384.910156 108.070312 C 379.757812 113.335938 371.386719 113.632812 365.429688 108.949219 M 375.460938 51.890625 C 374.375 54.113281 373.277344 56.71875 371.875 59.148438 C 366.953125 67.65625 361.921875 76.097656 356.9375 84.570312 C 354.957031 87.941406 354.078125 91.570312 354.132812 95.492188 C 354.25 104.5 359.765625 112.515625 368.113281 115.628906 C 376.796875 118.867188 386.15625 116.472656 392.203125 109.464844 C 398.0625 102.675781 399.261719 92.613281 394.824219 84.890625 C 388.464844 73.816406 381.910156 62.855469 375.460938 51.890625 "/>
<path fill-rule="nonzero" fill="rgb(10.198975%, 45.899963%, 73.298645%)" fill-opacity="1" d="M 282.511719 104.699219 C 276.617188 103.5625 271.328125 101.832031 265.5625 99.1875 C 259.257812 96.566406 252.207031 95.75 245.558594 96.585938 C 238.929688 97.449219 232.492188 99.75 227.40625 103.863281 C 233.757812 102.675781 239.863281 102.269531 245.789062 102.542969 C 251.710938 102.980469 257.386719 104.070312 262.71875 106.3125 C 268.378906 108.933594 275.371094 110.761719 282.027344 110.667969 C 288.707031 110.769531 295.902344 108.65625 300.417969 103.863281 C 294.203125 105.828125 288.320312 105.75 282.511719 104.699219 "/>
</svg>
