<?xml version="1.0" encoding="UTF-8"?>
<svg data-original-cmyk-pdf="/home/runner/workspace/uploads/original_317f09ee9b823c2444e2f3c125d4a07a.pdf" data-cmyk-preserved="true" xmlns="http://www.w3.org/2000/svg" xmlns:xlink="http://www.w3.org/1999/xlink" width="269.2913" height="269.2913" viewBox="0 0 269.2913 269.2913">
<path fill-rule="nonzero" fill="rgb(10.195923%, 10.195923%, 9.411621%)" fill-opacity="1" d="M 223.632812 223.691406 C 223.949219 227.175781 226.484375 229.867188 229.96875 231.53125 C 233.453125 233.195312 237.492188 232.640625 238.839844 230.898438 C 240.1875 229.15625 241.375 225.90625 242.324219 222.660156 C 243.273438 219.414062 243.433594 216.800781 241.691406 215.136719 C 239.949219 213.472656 236.78125 212.363281 232.660156 211.414062 C 228.542969 210.460938 224.347656 212.046875 223.871094 216.164062 C 223.515625 219.25 223.421875 221.390625 223.632812 223.691406 Z M 231.472656 201.828125 C 233.058594 203.652344 236.9375 205.234375 239.789062 205.789062 C 242.640625 206.34375 245.730469 205.472656 247.078125 202.066406 C 248.421875 198.660156 247.386719 192.929688 248.34375 188.523438 C 249.929688 181.234375 259.589844 152.246094 261.175781 148.285156 C 262.757812 144.328125 262.363281 140.839844 261.015625 139.257812 C 259.671875 137.675781 257.136719 136.011719 253.890625 135.296875 C 250.640625 134.585938 246.996094 134.980469 245.570312 138.070312 C 244.148438 141.160156 245.96875 142.585938 244.9375 145.988281 C 243.910156 149.394531 234.007812 182.1875 232.742188 187.097656 C 231.472656 192.007812 230.140625 193.066406 229.414062 195.175781 C 228.621094 197.472656 229.890625 200.007812 231.472656 201.828125 Z M 106.253906 222.660156 C 118.6875 222.5 127.796875 212.917969 134.050781 206.265625 C 140.308594 199.613281 142.765625 188.285156 136.824219 180.679688 C 130.882812 173.078125 121.300781 176.085938 110.527344 185.117188 C 99.757812 194.148438 95.382812 205.074219 95.164062 212.046875 C 95.003906 217.117188 98.964844 222.753906 106.253906 222.660156 Z M 112.589844 161.515625 C 121.222656 160.089844 133.261719 151.613281 141.179688 142.503906 C 146.621094 136.25 151.238281 127.933594 145.695312 120.644531 C 140.152344 113.359375 129.019531 114.152344 118.132812 120.089844 C 106.804688 126.269531 99.707031 138.832031 99.441406 151.058594 C 99.28125 158.265625 103.953125 162.941406 112.589844 161.515625 Z M 131.160156 96.367188 C 137.070312 92.105469 144.410156 80.921875 145.894531 75.398438 C 147.378906 69.875 148.566406 57.757812 143.753906 53.894531 C 138.941406 50.035156 129.855469 51.042969 123.4375 55.5 C 116.667969 60.203125 106.332031 72.308594 104.90625 89.300781 C 104.132812 98.511719 106.742188 103.859375 112.152344 103.914062 C 117.972656 103.972656 124.984375 100.824219 131.160156 96.367188 Z M 97.777344 110.863281 C 99.9375 111.636719 100.746094 113.714844 100.507812 115.972656 C 101.042969 115.140625 102.765625 113.359375 103.953125 112.882812 C 100.273438 111.695312 93.558594 107.417969 91.183594 98.210938 C 90.351562 100.644531 87.738281 106.230469 86.191406 109.082031 C 90.234375 108.605469 93.796875 109.4375 97.777344 110.863281 Z M 27.976562 48.191406 C 28.984375 45.160156 27.546875 44.042969 28.75 42.429688 C 30.050781 40.691406 31.660156 40.054688 34.097656 40.054688 C 36.53125 40.054688 40.667969 41.527344 42.417969 43.164062 C 44.167969 44.800781 44.585938 48.339844 43.710938 50.660156 C 42.835938 52.980469 40.703125 57.585938 39.5625 61.621094 C 38.421875 65.65625 35.949219 74.371094 35.226562 78.898438 C 34.5 83.429688 34.125 87.769531 34.007812 91.117188 C 33.96875 92.179688 35.1875 92.597656 35.679688 91.574219 C 36.175781 90.542969 40.4375 81.105469 42.152344 76.84375 C 43.863281 72.582031 50.371094 58.3125 52.386719 55.417969 C 53.054688 54.464844 53.53125 53.972656 54.824219 53.933594 C 56.117188 53.894531 60.34375 54.085938 62.738281 54.582031 C 65.136719 55.074219 66.773438 57.550781 68.066406 61.050781 C 69.363281 64.550781 74.574219 83.542969 75.109375 88.679688 C 75.210938 89.683594 75.753906 90.242188 76.628906 90.277344 C 77.503906 90.316406 78.191406 89.707031 78.722656 88.488281 C 79.257812 87.273438 85.71875 73.617188 88.867188 66.667969 C 92.015625 59.714844 96.46875 49.914062 97.066406 48.253906 C 97.65625 46.589844 96.707031 44.09375 97.894531 41.835938 C 99.082031 39.578125 100.507812 38.09375 101.816406 37.679688 C 103.125 37.261719 104.964844 37.320312 106.628906 37.738281 C 108.289062 38.152344 113.875 40.113281 115.0625 41.003906 C 116.25 41.894531 116.25 43.558594 115.835938 44.746094 C 117.972656 41.71875 124.984375 37.023438 129.140625 35.957031 C 133.300781 34.886719 139.894531 35.539062 145.0625 37.796875 C 150.230469 40.054688 157.429688 45.824219 159.4375 51.042969 C 159.496094 47.957031 158.960938 42.191406 157.65625 39.105469 C 156.824219 37.144531 156.527344 35.003906 158.84375 34.410156 C 161.160156 33.816406 167.933594 34.53125 170.488281 35.71875 C 173.039062 36.90625 175.359375 40.945312 175.296875 45.402344 C 175.238281 49.855469 174.882812 83.773438 174.882812 85.558594 C 174.882812 87.339844 176.484375 87.398438 177.257812 85.4375 C 178.03125 83.476562 189.910156 53.242188 191.632812 50.804688 C 193.355469 48.371094 194.425781 47.183594 196.800781 47.300781 C 199.179688 47.421875 202.089844 47.480469 204.109375 47.957031 C 206.128906 48.429688 207.613281 50.332031 208.742188 53.71875 C 209.871094 57.101562 214.800781 75.398438 215.277344 76.765625 C 215.75 78.132812 217.832031 78.132812 218.78125 76.050781 C 219.730469 73.972656 225.851562 58.648438 227.929688 53.242188 C 230.007812 47.835938 234.523438 37.796875 235.59375 35.597656 C 236.660156 33.402344 236.007812 31.382812 237.316406 28.828125 C 238.621094 26.273438 239.988281 25.320312 243.492188 25.203125 C 246.996094 25.085938 250.859375 27.105469 252.460938 27.996094 C 254.066406 28.886719 254.484375 32.332031 253.058594 35.300781 C 251.632812 38.273438 248.414062 41.773438 246.703125 45.519531 C 241.847656 56.136719 232.683594 79.796875 225.375 96.960938 C 223.808594 100.648438 220.621094 101.65625 218.1875 101.300781 C 215.75 100.941406 212.722656 100.171875 210.167969 98.683594 C 207.613281 97.199219 205.832031 94.171875 204.464844 90.785156 C 203.097656 87.398438 200.664062 78.308594 200.128906 76.230469 C 199.59375 74.152344 197.285156 74.128906 196.328125 76.527344 C 194.664062 80.6875 186.464844 102.191406 181.65625 109.199219 C 180.175781 111.351562 177.019531 112.46875 173.695312 112.050781 C 170.367188 111.636719 165.972656 109.496094 164.425781 107.476562 C 162.882812 105.457031 161.339844 101.773438 160.445312 98.328125 C 159.554688 94.882812 157.179688 83.242188 156.824219 81.519531 C 154.980469 91.855469 150.230469 99.578125 144.410156 104.386719 C 149.578125 106.625 157.496094 110.824219 160.03125 116.367188 C 162.566406 121.910156 163.675781 132.84375 160.746094 138.941406 C 157.8125 145.039062 148.707031 156.285156 138.648438 163.019531 C 141.496094 163.652344 149.160156 170.980469 150.347656 176.027344 C 150.644531 172.109375 149.578125 166.226562 148.667969 164.601562 C 147.753906 162.980469 148.230469 159.851562 151.359375 159.535156 C 154.488281 159.21875 159.914062 159.652344 162.25 160.722656 C 164.585938 161.792969 165.972656 164.285156 165.894531 168.128906 C 165.8125 171.96875 165.417969 194.503906 165.339844 196.285156 C 165.257812 198.066406 166.464844 198.191406 167.121094 196.640625 C 168.941406 192.324219 176.070312 172.640625 177.792969 168.722656 C 179.515625 164.800781 181.832031 163.492188 187.535156 164.148438 C 193.238281 164.800781 196.625 166.464844 198.050781 173.296875 C 199.476562 180.128906 203.003906 199.808594 203.394531 201.511719 C 203.929688 203.828125 205.949219 203.769531 206.78125 201.929688 C 207.613281 200.085938 217.222656 171.140625 218.363281 166.878906 C 219.910156 161.117188 218.066406 158.265625 218.664062 156.1875 C 219.257812 154.109375 220.328125 151.910156 223.769531 152.089844 C 227.214844 152.265625 232.621094 152.921875 234.703125 154.523438 C 236.78125 156.128906 237.253906 158.800781 236.484375 161.058594 C 235.710938 163.316406 234.34375 165.988281 232.800781 171.277344 C 231.253906 176.5625 220.183594 211.484375 214.917969 222.839844 C 213.019531 226.9375 209.574219 229.730469 205.296875 228.898438 C 201.019531 228.066406 194.484375 224.5 192.523438 218.085938 C 190.566406 211.671875 187 195.691406 186.644531 194.148438 C 186.289062 192.601562 184.800781 192.007812 184.148438 193.96875 C 183.496094 195.929688 174.539062 222.09375 170.367188 228.421875 C 168.527344 231.214844 165.496094 232.816406 161.753906 231.808594 C 158.011719 230.796875 154.449219 228.835938 152.367188 226.460938 C 150.289062 224.085938 149.519531 221.113281 149.277344 218.976562 C 149.042969 216.839844 148.566406 212.859375 148.449219 210.839844 C 140.132812 222.363281 125.519531 230.203125 115.953125 232.460938 C 106.390625 234.71875 96.945312 232.582031 92.785156 229.371094 C 85.125 232.816406 68.90625 240.183594 50.90625 242.796875 C 32.910156 245.410156 19.066406 244.996094 9.980469 232.699219 C 5.015625 225.980469 6.683594 214.808594 13.128906 206.503906 C 27.085938 188.503906 41.699219 181.316406 53.164062 179.175781 C 64.628906 177.039062 71.046875 178.523438 78.351562 181.554688 C 80.546875 182.460938 82.273438 186.125 80.847656 189.214844 C 79.421875 192.304688 75.441406 194.265625 71.519531 193.015625 C 67.601562 191.769531 60.410156 191.058594 52.570312 194.207031 C 44.730469 197.355469 27.179688 207.878906 24 222.125 C 22.632812 228.242188 29.078125 231.078125 40.15625 230.441406 C 53.582031 229.667969 75.027344 221.351562 81.976562 218.085938 C 80.429688 212.800781 80.550781 203.890625 85.300781 194.382812 C 90.054688 184.878906 99.5 176.445312 103.539062 173.472656 C 95.222656 171.21875 87.679688 164.027344 86.015625 159.394531 C 84.351562 154.761719 85.125 144.839844 85.363281 141.8125 C 81.679688 148.941406 77.757812 160.40625 76.746094 163.375 C 75.738281 166.34375 76.746094 168.722656 75.738281 171.75 C 74.726562 174.78125 73.066406 176.148438 69.441406 176.027344 C 65.816406 175.910156 61.777344 174.78125 58.332031 171.515625 C 54.886719 168.246094 47.996094 163.199219 44.492188 160.464844 C 40.988281 157.730469 36.117188 153.21875 34.511719 151.851562 C 32.910156 150.484375 31.339844 151.980469 30.59375 154.050781 C 28.511719 159.8125 24.828125 174.246094 23.046875 183.394531 C 22.746094 184.949219 21.917969 187.96875 17.640625 188.324219 C 13.363281 188.679688 9.859375 185.414062 8.316406 183.632812 C 6.769531 181.847656 7.722656 179.355469 8.433594 176.859375 C 9.148438 174.367188 16.035156 148.675781 16.871094 145.257812 C 18.175781 139.910156 15.800781 139.433594 16.808594 135.632812 C 17.820312 131.832031 19.898438 130.703125 24.355469 130.703125 C 28.808594 130.703125 33.679688 132.542969 36.890625 135.691406 C 40.097656 138.84375 57.621094 155 58.75 156.128906 C 59.878906 157.257812 61.585938 157.089844 62.253906 155.414062 C 66.410156 144.960938 75.203125 127.4375 79.777344 118.941406 C 80.40625 117.773438 79.835938 116.03125 80.132812 114.960938 C 77.34375 115.851562 67.898438 116.03125 64.925781 108.128906 C 63.207031 103.558594 59.699219 85.023438 58.808594 80.625 C 58.539062 79.300781 56.90625 78.84375 56.074219 80.984375 C 55.246094 83.121094 43.363281 111.617188 40.589844 116.683594 C 37.820312 121.753906 32.75 122.464844 28.234375 122.148438 C 23.71875 121.832031 18.96875 117.476562 18.492188 108.765625 C 18.019531 100.050781 19.027344 85.425781 21.265625 73.835938 C 23.085938 64.410156 25.703125 55.0625 27.976562 48.191406 "/>
<path fill-rule="nonzero" fill="rgb(10.195923%, 10.195923%, 9.411621%)" fill-opacity="1" d="M 187.027344 137.152344 C 187.46875 136.976562 188.023438 136.804688 188.390625 136.5 C 188.949219 136.039062 189.523438 135.570312 190.015625 135.042969 C 190.363281 134.671875 190.683594 134.269531 190.984375 133.859375 C 191.015625 133.816406 191.035156 133.886719 191.066406 133.804688 C 191.101562 133.710938 191.136719 133.617188 191.171875 133.523438 C 191.234375 133.359375 191.292969 133.199219 191.355469 133.035156 L 191.359375 133.019531 C 191.640625 132.269531 191.941406 131.445312 191.835938 130.640625 C 191.644531 129.195312 191.246094 127.832031 190.667969 126.496094 C 190.574219 126.277344 190.53125 126.078125 190.410156 125.894531 C 190.136719 125.492188 189.863281 125.089844 189.582031 124.695312 C 189.453125 124.511719 189.320312 124.328125 189.179688 124.148438 C 189.054688 123.992188 188.785156 123.898438 188.605469 123.8125 C 188.242188 123.644531 187.871094 123.488281 187.496094 123.347656 C 186.992188 123.152344 186.386719 123.199219 185.890625 122.988281 C 185.695312 122.90625 185.429688 122.921875 185.222656 122.914062 C 184.492188 122.886719 183.761719 122.90625 183.042969 123.066406 C 182.417969 123.207031 181.746094 123.386719 181.164062 123.65625 C 180.460938 123.984375 179.851562 124.480469 179.25 124.964844 C 179.007812 125.160156 178.914062 125.453125 178.789062 125.738281 C 178.679688 125.996094 178.574219 126.257812 178.46875 126.519531 C 178.332031 126.867188 178.238281 127.21875 178.167969 127.582031 C 177.929688 128.789062 177.851562 130.070312 178.042969 131.289062 C 178.199219 132.292969 178.644531 133.253906 179.148438 134.125 C 179.71875 135.105469 180.488281 135.757812 181.449219 136.324219 C 182.5 136.949219 183.640625 137.328125 184.867188 137.402344 C 185.269531 137.429688 185.691406 137.351562 186.089844 137.308594 C 186.300781 137.285156 186.515625 137.261719 186.726562 137.238281 C 186.828125 137.226562 186.957031 137.242188 187.027344 137.152344 "/>
<path fill-rule="nonzero" fill="rgb(10.195923%, 10.195923%, 9.411621%)" fill-opacity="1" d="M 199.875 132.484375 C 200.125 132.683594 200.324219 132.984375 200.429688 133.289062 C 199.800781 133.328125 198.984375 133.144531 198.664062 132.554688 C 198.574219 132.386719 198.421875 132.128906 198.414062 131.933594 C 198.40625 131.75 198.394531 131.5625 198.386719 131.378906 C 198.867188 131.386719 199.324219 131.449219 199.789062 131.578125 C 199.914062 131.613281 200.042969 131.726562 200.148438 131.796875 C 200.390625 131.957031 200.644531 132.136719 200.824219 132.367188 C 200.546875 132.445312 200.164062 132.542969 199.875 132.484375 C 200.175781 132.722656 199.996094 132.511719 199.875 132.484375 Z M 198.070312 132.023438 C 197.992188 132.347656 197.9375 132.539062 197.695312 132.75 C 197.507812 132.910156 197.332031 133.105469 197.105469 133.203125 C 197.039062 132.972656 196.964844 132.730469 196.945312 132.492188 C 196.707031 132.710938 196.398438 132.898438 196.097656 133.015625 C 195.988281 132.644531 196.089844 132.195312 196.269531 131.859375 C 196.503906 131.429688 196.929688 131.265625 197.367188 131.101562 C 197.535156 131.042969 197.703125 130.984375 197.871094 130.929688 C 197.972656 130.898438 198.039062 130.988281 198.121094 131.046875 C 198.167969 131.082031 198.132812 131.339844 198.128906 131.394531 C 198.125 131.601562 198.121094 131.820312 198.070312 132.023438 C 197.996094 132.324219 198.144531 131.722656 198.070312 132.023438 Z M 197.625 129.828125 C 197.636719 130.300781 197.105469 130.9375 196.683594 131.109375 C 196.585938 131.152344 196.289062 131.328125 196.273438 131.167969 C 196.242188 130.890625 196.265625 130.578125 196.425781 130.339844 C 196.183594 130.449219 195.917969 130.460938 195.660156 130.429688 C 195.839844 129.96875 196.179688 129.394531 196.707031 129.28125 C 196.945312 129.230469 197.1875 129.179688 197.433594 129.144531 C 197.476562 129.136719 197.523438 129.132812 197.570312 129.128906 C 197.582031 129.246094 197.59375 129.367188 197.601562 129.484375 C 197.613281 129.601562 197.621094 129.714844 197.625 129.828125 C 197.628906 129.910156 197.625 129.75 197.625 129.828125 Z M 197.21875 128.296875 C 197.167969 127.984375 197.148438 127.746094 197.101562 127.433594 C 197.914062 127.371094 198.652344 127.832031 199.066406 128.527344 C 198.886719 128.621094 198.644531 128.644531 198.445312 128.613281 C 198.539062 128.855469 198.59375 129.109375 198.679688 129.351562 C 198.167969 129.207031 197.464844 128.941406 197.242188 128.410156 Z M 199.722656 130.476562 C 199.570312 130.503906 199.414062 130.519531 199.261719 130.535156 C 199.378906 130.589844 199.582031 130.628906 199.660156 130.738281 C 199.769531 130.894531 199.878906 131.054688 199.988281 131.210938 C 199.507812 131.234375 199.09375 131.28125 198.644531 131.066406 C 198.359375 130.925781 198.171875 130.613281 198.015625 130.34375 C 197.945312 130.226562 197.914062 130.113281 197.894531 129.976562 C 197.882812 129.90625 197.875 129.832031 197.863281 129.761719 C 197.84375 129.621094 197.964844 129.640625 198.085938 129.617188 C 198.601562 129.519531 199.214844 129.640625 199.691406 129.855469 C 199.804688 129.90625 199.882812 129.984375 199.972656 130.066406 C 200.066406 130.152344 200.234375 130.195312 200.238281 130.316406 C 200.238281 130.386719 199.800781 130.460938 199.722656 130.476562 C 199.585938 130.503906 199.859375 130.453125 199.722656 130.476562 Z M 202.988281 129.109375 C 201.761719 127.074219 200.535156 125.042969 199.320312 123 C 198.882812 122.261719 198.445312 121.527344 198.015625 120.789062 C 197.953125 120.683594 197.890625 120.578125 197.828125 120.472656 C 197.808594 120.4375 197.789062 120.398438 197.769531 120.363281 C 197.640625 120.371094 197.511719 120.367188 197.386719 120.367188 C 197.292969 120.371094 196.652344 120.320312 196.621094 120.390625 C 196.582031 120.484375 196.550781 120.585938 196.515625 120.679688 C 196.140625 121.761719 195.824219 122.859375 195.433594 123.933594 C 194.523438 126.441406 193.609375 128.941406 192.65625 131.433594 C 192.328125 132.285156 192.003906 133.136719 191.683594 133.992188 C 191.425781 134.664062 191.175781 135.339844 190.921875 136.015625 C 190.824219 136.273438 190.601562 136.613281 190.671875 136.890625 C 190.679688 136.921875 190.753906 137.25 190.765625 137.246094 C 190.839844 137.230469 190.914062 137.21875 190.988281 137.203125 C 191.375 137.125 191.761719 137.050781 192.148438 136.972656 C 193.242188 136.757812 194.335938 136.542969 195.433594 136.328125 C 196.539062 136.109375 197.644531 135.882812 198.746094 135.644531 C 198.769531 135.636719 198.453125 134.0625 198.429688 133.945312 C 198.359375 133.570312 198.289062 133.199219 198.214844 132.824219 C 198.199219 132.730469 198.179688 132.636719 198.164062 132.542969 C 198.160156 132.539062 198.152344 132.511719 198.15625 132.503906 C 198.21875 132.386719 198.308594 132.515625 198.34375 132.5625 C 198.421875 132.679688 198.507812 132.792969 198.597656 132.898438 C 198.660156 132.976562 198.875 133.132812 198.894531 133.222656 C 198.917969 133.359375 198.949219 133.5 198.972656 133.636719 C 199.0625 134.074219 199.148438 134.511719 199.234375 134.949219 C 199.246094 134.996094 199.339844 135.546875 199.367188 135.542969 C 199.550781 135.503906 199.734375 135.46875 199.917969 135.433594 C 200.714844 135.273438 201.507812 135.117188 202.300781 134.957031 C 203.453125 134.726562 204.601562 134.507812 205.757812 134.292969 C 205.863281 134.273438 205.96875 134.25 206.074219 134.230469 C 205.078125 132.503906 204.027344 130.8125 202.988281 129.109375 "/>
<path fill-rule="nonzero" fill="rgb(10.195923%, 10.195923%, 9.411621%)" fill-opacity="1" d="M 205.851562 124.128906 C 206.632812 126.910156 206.832031 129.8125 207.351562 132.644531 C 207.433594 133.09375 207.519531 133.539062 207.613281 133.984375 C 207.644531 134.132812 207.785156 134.042969 207.917969 134.015625 C 208.71875 133.871094 209.523438 133.726562 210.324219 133.578125 C 210.742188 133.503906 211.160156 133.421875 211.578125 133.355469 C 211.515625 133.140625 211.503906 132.914062 211.488281 132.695312 C 211.457031 132.332031 211.402344 131.976562 211.3125 131.625 C 211.15625 131.019531 211.03125 130.414062 210.929688 129.800781 C 210.875 129.484375 210.832031 129.164062 210.777344 128.847656 C 210.722656 128.519531 210.667969 128.195312 210.613281 127.867188 C 210.574219 127.640625 210.535156 127.410156 210.5 127.183594 C 210.5 127.191406 210.476562 127.046875 210.476562 127.046875 C 210.476562 127.046875 210.4375 126.828125 210.421875 126.734375 C 210.40625 126.636719 210.390625 126.539062 210.375 126.4375 C 210.34375 126.25 210.308594 126.0625 210.277344 125.875 C 210.230469 125.578125 210.179688 125.285156 210.132812 124.988281 L 210.121094 124.9375 C 210.109375 124.847656 210.09375 124.761719 210.078125 124.675781 C 210.050781 124.527344 210.019531 124.382812 209.980469 124.242188 C 209.9375 124.089844 209.890625 123.941406 209.832031 123.792969 L 213.1875 123.007812 C 213.234375 123 213.472656 122.972656 213.464844 122.921875 C 213.414062 122.679688 213.363281 122.4375 213.3125 122.195312 C 213.195312 121.644531 213.082031 121.089844 212.96875 120.539062 C 213.074219 120.640625 213.191406 120.804688 213.316406 120.875 C 213.089844 119.882812 212.871094 118.835938 212.683594 117.820312 C 210.742188 118.339844 208.734375 118.65625 206.761719 119.046875 C 204.847656 119.425781 202.945312 119.867188 201.042969 120.304688 C 200.832031 120.351562 200.625 120.398438 200.414062 120.449219 C 200.339844 120.464844 200.417969 120.632812 200.429688 120.695312 C 200.582031 121.417969 200.734375 122.144531 200.886719 122.871094 C 201.023438 123.511719 201.15625 124.152344 201.292969 124.792969 C 201.316406 124.910156 201.359375 124.859375 201.476562 124.84375 C 201.761719 124.796875 202.046875 124.75 202.332031 124.703125 C 203.507812 124.511719 204.679688 124.320312 205.851562 124.128906 C 205.964844 124.53125 205.851562 124.128906 205.851562 124.128906 "/>
<path fill-rule="nonzero" fill="rgb(10.195923%, 10.195923%, 9.411621%)" fill-opacity="1" d="M 215.453125 126.785156 C 215.410156 126.511719 215.367188 126.238281 215.324219 125.964844 C 215.257812 125.535156 215.1875 125.101562 215.121094 124.675781 C 213.847656 124.949219 212.574219 125.222656 211.296875 125.496094 C 211.207031 125.515625 211.03125 125.496094 211.054688 125.605469 C 211.113281 125.898438 211.175781 126.1875 211.234375 126.476562 C 211.375 127.152344 211.515625 127.828125 211.652344 128.503906 C 211.664062 128.542969 213.578125 128.132812 213.734375 128.101562 C 214.203125 128.003906 214.675781 127.910156 215.148438 127.8125 C 215.28125 127.789062 215.410156 127.761719 215.542969 127.734375 C 215.65625 127.710938 215.574219 127.558594 215.558594 127.464844 C 215.558594 127.464844 215.546875 127.378906 215.535156 127.3125 C 215.523438 127.238281 215.511719 127.167969 215.5 127.09375 C 215.496094 127.027344 215.472656 126.910156 215.453125 126.785156 "/>
<path fill-rule="nonzero" fill="rgb(10.195923%, 10.195923%, 9.411621%)" fill-opacity="1" d="M 196.695312 148.898438 C 196.054688 149.027344 195.410156 149.136719 194.769531 149.25 C 194.1875 149.351562 193.566406 149.523438 192.976562 149.539062 C 192.9375 149.539062 192.992188 149.539062 192.886719 149.539062 C 192.777344 149.539062 192.796875 149.511719 192.765625 149.421875 C 192.726562 149.300781 192.6875 149.175781 192.652344 149.050781 C 192.566406 148.746094 192.5 148.433594 192.4375 148.121094 C 192.289062 147.363281 192.175781 146.597656 192.054688 145.832031 C 191.84375 144.515625 191.671875 143.199219 191.515625 141.875 C 191.378906 140.71875 191.117188 139.648438 190.71875 138.554688 C 190.664062 138.40625 190.558594 138.484375 190.410156 138.511719 C 190.085938 138.570312 189.761719 138.625 189.4375 138.683594 C 188.625 138.824219 187.8125 138.96875 186.996094 139.113281 C 186.792969 139.148438 186.585938 139.183594 186.382812 139.21875 C 186.246094 139.242188 186.398438 140.425781 186.414062 140.5625 C 186.539062 141.558594 186.789062 142.53125 186.925781 143.527344 C 187.046875 144.421875 187.15625 145.320312 187.261719 146.21875 C 187.28125 146.390625 187.3125 146.492188 187.382812 146.65625 C 187.414062 146.730469 187.359375 146.988281 187.375 147.097656 C 187.503906 148.085938 187.632812 149.070312 187.761719 150.058594 C 187.910156 149.507812 187.90625 148.890625 187.914062 148.320312 C 188.210938 150.078125 188.503906 151.832031 188.800781 153.585938 C 191.59375 153.070312 194.382812 152.558594 197.171875 152.023438 C 197.582031 151.945312 197.988281 151.867188 198.398438 151.785156 C 198.488281 151.765625 198.703125 151.761719 198.695312 151.664062 C 198.667969 151.378906 198.605469 151.09375 198.542969 150.816406 C 198.40625 150.179688 198.246094 149.546875 198.082031 148.921875 C 198.070312 148.882812 198.019531 148.605469 197.980469 148.613281 C 197.554688 148.714844 197.125 148.808594 196.695312 148.898438 C 195.980469 149.042969 197.410156 148.753906 196.695312 148.898438 "/>
<path fill-rule="nonzero" fill="rgb(10.195923%, 10.195923%, 9.411621%)" fill-opacity="1" d="M 201.359375 139.460938 C 201.171875 140.238281 200.988281 141.019531 200.8125 141.800781 C 200.785156 141.765625 200.75 141.742188 200.75 141.742188 C 200.644531 141.5625 200.457031 141.339844 200.351562 141.207031 C 200.269531 141.101562 200 140.664062 199.820312 140.484375 C 199.765625 140.433594 199.6875 140.324219 199.652344 140.269531 C 199.585938 140.164062 199.460938 140.039062 199.417969 139.984375 C 199.320312 139.855469 199.167969 139.71875 199.105469 139.578125 C 199.082031 139.574219 198.960938 139.382812 198.929688 139.34375 C 198.828125 139.207031 198.726562 139.074219 198.625 138.941406 C 198.449219 138.707031 198.269531 138.472656 198.09375 138.238281 C 198.039062 138.171875 197.960938 138.0625 197.925781 138.015625 L 197.886719 137.960938 C 197.828125 137.878906 197.765625 137.800781 197.703125 137.71875 C 197.597656 137.574219 197.488281 137.429688 197.378906 137.285156 C 197.273438 137.140625 197.121094 136.789062 196.933594 136.824219 C 196.542969 136.90625 196.160156 136.992188 195.773438 137.078125 C 195.332031 137.175781 194.894531 137.273438 194.457031 137.371094 C 194.335938 137.402344 194.214844 137.429688 194.09375 137.457031 C 193.996094 137.476562 194.03125 137.507812 194.042969 137.609375 C 194.066406 137.785156 194.085938 137.960938 194.109375 138.136719 C 194.125 138.28125 194.296875 138.453125 194.375 138.570312 C 194.707031 139.0625 195.042969 139.542969 195.378906 140.03125 C 196.078125 141.039062 196.757812 142.0625 197.441406 143.082031 C 197.820312 143.652344 198.199219 144.21875 198.574219 144.792969 C 198.730469 145.035156 198.890625 145.277344 199.042969 145.523438 C 199.164062 145.710938 199.210938 145.90625 199.269531 146.117188 C 199.546875 147.097656 199.785156 148.089844 200.019531 149.082031 C 200.21875 149.910156 200.410156 150.742188 200.597656 151.574219 C 200.605469 151.605469 200.652344 151.894531 200.683594 151.886719 C 200.882812 151.847656 201.082031 151.8125 201.28125 151.773438 C 202.460938 151.550781 203.644531 151.328125 204.824219 151.109375 C 204.578125 149.90625 204.328125 148.707031 204.082031 147.507812 C 203.933594 146.78125 203.78125 146.054688 203.632812 145.328125 C 203.597656 145.160156 203.5625 144.992188 203.527344 144.820312 C 203.515625 144.769531 203.539062 144.730469 203.554688 144.675781 C 203.644531 144.378906 203.710938 144.164062 203.804688 143.859375 C 203.917969 143.476562 204.035156 143.09375 204.148438 142.710938 L 204.167969 142.65625 C 204.203125 142.53125 204.230469 142.449219 204.265625 142.324219 L 204.28125 142.28125 C 204.832031 140.445312 205.394531 138.609375 205.90625 136.761719 C 204.558594 136.960938 203.230469 137.273438 201.878906 137.476562 C 201.722656 138.015625 201.519531 138.800781 201.359375 139.460938 "/>
<path fill-rule="nonzero" fill="rgb(10.195923%, 10.195923%, 9.411621%)" fill-opacity="1" d="M 213.121094 140.011719 C 213.09375 139.925781 213.070312 139.839844 213.046875 139.753906 C 213.015625 139.648438 213.003906 139.589844 212.980469 139.515625 C 212.957031 139.4375 212.9375 139.359375 212.914062 139.285156 C 212.882812 139.195312 212.878906 139.15625 212.863281 139.109375 C 212.789062 138.839844 212.714844 138.566406 212.640625 138.296875 C 212.625 138.199219 212.578125 138.039062 212.566406 137.988281 C 212.554688 137.921875 212.519531 137.835938 212.511719 137.800781 C 212.484375 137.722656 212.460938 137.605469 212.4375 137.523438 L 212.347656 137.160156 C 212.273438 136.875 212.203125 136.589844 212.128906 136.304688 C 212.089844 136.144531 211.785156 134.679688 211.726562 134.6875 C 211.257812 134.730469 210.792969 134.804688 210.328125 134.867188 C 209.382812 135 208.4375 135.136719 207.492188 135.277344 C 207.84375 137.59375 208.199219 139.910156 208.546875 142.226562 C 208.664062 142.988281 208.777344 143.753906 208.894531 144.519531 C 208.917969 144.667969 208.941406 144.820312 208.960938 144.96875 C 208.964844 144.976562 209.300781 144.929688 209.324219 144.925781 C 210.746094 144.738281 212.167969 144.550781 213.589844 144.363281 C 213.789062 144.335938 213.699219 144.210938 213.683594 144.019531 C 213.644531 143.535156 213.601562 143.050781 213.5625 142.5625 C 213.527344 142.136719 213.488281 141.707031 213.453125 141.277344 C 213.4375 141.09375 213.273438 140.445312 213.167969 140.179688 C 213.136719 140.105469 213.132812 140.066406 213.121094 140.011719 "/>
<path fill-rule="nonzero" fill="rgb(10.195923%, 10.195923%, 9.411621%)" fill-opacity="1" d="M 212.414062 145.117188 C 212.054688 145.09375 211.695312 145.019531 211.339844 144.972656 C 211.074219 144.933594 210.835938 145.15625 210.609375 145.285156 C 210.367188 145.421875 210.230469 145.507812 210.050781 145.710938 C 209.816406 145.980469 209.578125 146.246094 209.34375 146.515625 C 209.296875 146.566406 209.320312 146.703125 209.316406 146.765625 C 209.304688 146.976562 209.289062 147.191406 209.277344 147.402344 C 209.273438 147.507812 209.273438 147.5625 209.300781 147.660156 C 209.332031 147.785156 209.359375 147.910156 209.386719 148.035156 C 209.421875 148.195312 209.410156 148.453125 209.539062 148.550781 C 209.957031 148.863281 210.351562 149.28125 210.851562 149.460938 C 211.039062 149.527344 211.238281 149.578125 211.4375 149.617188 C 211.582031 149.644531 211.894531 149.464844 212.027344 149.414062 C 212.433594 149.257812 212.824219 149.078125 213.191406 148.839844 C 213.265625 148.792969 213.679688 148.582031 213.683594 148.484375 C 213.695312 148.285156 213.703125 148.089844 213.714844 147.890625 C 213.722656 147.738281 213.765625 147.542969 213.738281 147.386719 C 213.671875 147 213.601562 146.609375 213.535156 146.222656 C 213.507812 146.0625 213.320312 145.898438 213.226562 145.769531 C 212.996094 145.449219 212.808594 145.234375 212.414062 145.117188 C 212.304688 145.109375 212.726562 145.210938 212.414062 145.117188 "/>
</svg>
