<?xml version="1.0" encoding="UTF-8"?>
<svg xmlns="http://www.w3.org/2000/svg" xmlns:xlink="http://www.w3.org/1999/xlink" width="283.4646" height="198.4252" viewBox="0 0 283.4646 198.4252">
<path fill-rule="evenodd" fill="rgb(5.882263%, 5.490112%, 3.529358%)" fill-opacity="1" stroke-width="0.5669" stroke-linecap="butt" stroke-linejoin="miter" stroke="rgb(0%, 0%, 0%)" stroke-opacity="1" stroke-miterlimit="22.925586" d="M 20.980469 182.304106 L 261.925781 182.304106 L 261.925781 98.120513 L 20.980469 98.120513 Z M 20.980469 182.304106 " transform="matrix(1, 0, 0, -1, 0, 198.4252)"/>
<path fill-rule="evenodd" fill="rgb(5.882263%, 5.490112%, 3.529358%)" fill-opacity="1" stroke-width="0.5669" stroke-linecap="butt" stroke-linejoin="miter" stroke="rgb(0%, 0%, 0%)" stroke-opacity="1" stroke-miterlimit="22.925586" d="M 20.785156 90.0502 L 261.730469 90.0502 L 261.730469 5.866606 L 20.785156 5.866606 Z M 20.785156 90.0502 " transform="matrix(1, 0, 0, -1, 0, 198.4252)"/>
<path fill-rule="nonzero" fill="rgb(100%, 100%, 100%)" fill-opacity="1" d="M 151.007812 64.644531 C 150.285156 65.113281 149.4375 65.347656 148.476562 65.347656 C 147.9375 65.347656 147.429688 65.261719 146.960938 65.09375 C 146.492188 64.917969 146.078125 64.683594 145.714844 64.386719 C 145.347656 64.085938 145.0625 63.722656 144.851562 63.296875 C 144.640625 62.871094 144.535156 62.410156 144.535156 61.917969 C 144.535156 61.425781 144.632812 60.988281 144.832031 60.605469 C 145.03125 60.21875 145.296875 59.878906 145.625 59.578125 C 145.953125 59.277344 146.320312 59.003906 146.71875 58.761719 C 147.117188 58.511719 147.523438 58.273438 147.949219 58.039062 L 153.054688 63.105469 C 152.421875 63.65625 151.734375 64.175781 151.007812 64.644531 Z M 147.523438 49.046875 C 148.109375 48.632812 148.816406 48.417969 149.640625 48.417969 C 150.390625 48.417969 151.03125 48.621094 151.574219 49.015625 C 152.117188 49.410156 152.382812 49.914062 152.382812 50.535156 C 152.382812 50.964844 152.28125 51.351562 152.0625 51.6875 C 151.851562 52.035156 151.582031 52.351562 151.238281 52.636719 C 150.902344 52.925781 150.53125 53.183594 150.132812 53.40625 C 149.734375 53.628906 149.359375 53.828125 149.003906 54 C 148.722656 53.765625 148.441406 53.519531 148.175781 53.265625 C 147.90625 53.007812 147.65625 52.734375 147.421875 52.445312 C 147.1875 52.15625 147 51.867188 146.859375 51.582031 C 146.71875 51.289062 146.644531 51 146.644531 50.699219 C 146.644531 50.015625 146.9375 49.464844 147.523438 49.046875 Z M 158.40625 62.878906 L 163.398438 56.308594 L 158.4375 56.308594 L 155.65625 60.15625 L 151.640625 56.210938 C 152.25 55.933594 152.863281 55.601562 153.457031 55.203125 C 154.050781 54.808594 154.585938 54.367188 155.054688 53.886719 C 155.53125 53.40625 155.902344 52.875 156.183594 52.285156 C 156.464844 51.699219 156.609375 51.050781 156.609375 50.347656 C 156.609375 49.429688 156.417969 48.625 156.027344 47.941406 C 155.636719 47.257812 155.121094 46.695312 154.480469 46.257812 C 153.832031 45.820312 153.085938 45.492188 152.242188 45.28125 C 151.398438 45.066406 150.507812 44.957031 149.570312 44.957031 C 148.628906 44.957031 147.726562 45.082031 146.859375 45.316406 C 145.988281 45.550781 145.226562 45.898438 144.570312 46.351562 C 143.910156 46.816406 143.386719 47.398438 143.003906 48.101562 C 142.617188 48.804688 142.421875 49.621094 142.421875 50.535156 C 142.421875 51.09375 142.496094 51.605469 142.652344 52.078125 C 142.804688 52.546875 143.007812 52.988281 143.269531 53.390625 C 143.527344 53.792969 143.824219 54.191406 144.164062 54.578125 C 144.503906 54.960938 144.875 55.355469 145.273438 55.765625 C 144.523438 56.019531 143.820312 56.355469 143.160156 56.773438 C 142.503906 57.191406 141.933594 57.667969 141.453125 58.210938 C 140.972656 58.761719 140.589844 59.363281 140.308594 60.007812 C 140.027344 60.664062 139.886719 61.375 139.886719 62.144531 C 139.886719 63.230469 140.121094 64.1875 140.589844 65.011719 C 141.0625 65.835938 141.683594 66.527344 142.453125 67.089844 C 143.230469 67.660156 144.128906 68.089844 145.148438 68.375 C 146.171875 68.667969 147.234375 68.808594 148.335938 68.808594 C 149.929688 68.808594 151.304688 68.554688 152.453125 68.039062 C 153.601562 67.53125 154.679688 66.726562 155.695312 65.636719 L 158.328125 68.234375 L 163.789062 68.234375 Z M 158.40625 62.878906 "/>
<path fill-rule="nonzero" fill="rgb(100%, 100%, 100%)" fill-opacity="1" d="M 150.808594 156.898438 C 150.089844 157.367188 149.238281 157.601562 148.277344 157.601562 C 147.738281 157.601562 147.230469 157.515625 146.761719 157.347656 C 146.292969 157.175781 145.878906 156.941406 145.515625 156.640625 C 145.148438 156.339844 144.863281 155.980469 144.652344 155.550781 C 144.441406 155.125 144.335938 154.664062 144.335938 154.171875 C 144.335938 153.679688 144.4375 153.246094 144.632812 152.859375 C 144.835938 152.476562 145.097656 152.132812 145.425781 151.832031 C 145.753906 151.53125 146.121094 151.261719 146.519531 151.015625 C 146.917969 150.769531 147.324219 150.527344 147.753906 150.292969 L 152.855469 155.359375 C 152.222656 155.914062 151.535156 156.429688 150.808594 156.898438 Z M 147.324219 141.304688 C 147.910156 140.886719 148.621094 140.675781 149.441406 140.675781 C 150.191406 140.675781 150.832031 140.875 151.378906 141.269531 C 151.917969 141.664062 152.183594 142.171875 152.183594 142.789062 C 152.183594 143.222656 152.082031 143.605469 151.867188 143.945312 C 151.652344 144.289062 151.382812 144.605469 151.039062 144.890625 C 150.703125 145.183594 150.332031 145.441406 149.933594 145.660156 C 149.535156 145.886719 149.160156 146.082031 148.808594 146.257812 C 148.527344 146.019531 148.246094 145.773438 147.976562 145.519531 C 147.710938 145.261719 147.457031 144.988281 147.222656 144.699219 C 146.988281 144.414062 146.800781 144.121094 146.660156 143.835938 C 146.519531 143.546875 146.449219 143.253906 146.449219 142.953125 C 146.449219 142.269531 146.738281 141.71875 147.324219 141.304688 Z M 158.207031 155.132812 L 163.203125 148.5625 L 158.238281 148.5625 L 155.457031 152.410156 L 151.445312 148.464844 C 152.054688 148.1875 152.664062 147.855469 153.257812 147.457031 C 153.855469 147.0625 154.390625 146.621094 154.859375 146.144531 C 155.332031 145.660156 155.703125 145.128906 155.984375 144.539062 C 156.265625 143.953125 156.410156 143.304688 156.410156 142.601562 C 156.410156 141.683594 156.21875 140.882812 155.828125 140.195312 C 155.441406 139.511719 154.921875 138.949219 154.28125 138.511719 C 153.632812 138.078125 152.886719 137.746094 152.042969 137.535156 C 151.199219 137.320312 150.308594 137.214844 149.371094 137.214844 C 148.433594 137.214844 147.527344 137.335938 146.660156 137.570312 C 145.792969 137.804688 145.027344 138.152344 144.371094 138.605469 C 143.714844 139.070312 143.1875 139.652344 142.804688 140.355469 C 142.417969 141.058594 142.222656 141.875 142.222656 142.789062 C 142.222656 143.347656 142.296875 143.859375 142.453125 144.332031 C 142.605469 144.800781 142.808594 145.242188 143.070312 145.644531 C 143.328125 146.050781 143.625 146.449219 143.96875 146.832031 C 144.304688 147.21875 144.675781 147.613281 145.074219 148.019531 C 144.324219 148.273438 143.621094 148.609375 142.964844 149.027344 C 142.308594 149.445312 141.734375 149.921875 141.257812 150.46875 C 140.773438 151.015625 140.394531 151.617188 140.113281 152.265625 C 139.832031 152.921875 139.691406 153.628906 139.691406 154.398438 C 139.691406 155.484375 139.925781 156.441406 140.394531 157.269531 C 140.863281 158.089844 141.484375 158.785156 142.253906 159.347656 C 143.035156 159.914062 143.929688 160.34375 144.953125 160.632812 C 145.972656 160.921875 147.035156 161.0625 148.136719 161.0625 C 149.730469 161.0625 151.105469 160.808594 152.253906 160.292969 C 153.402344 159.789062 154.484375 158.980469 155.496094 157.890625 L 158.132812 160.492188 L 163.589844 160.492188 Z M 158.207031 155.132812 "/>
<path fill-rule="nonzero" fill="rgb(100%, 100%, 100%)" fill-opacity="1" d="M 126.914062 31.636719 L 126.914062 46.867188 L 107.722656 46.867188 L 107.722656 31.636719 L 100.65625 31.636719 L 100.65625 68.269531 L 107.722656 68.269531 L 107.722656 52.832031 L 126.914062 52.832031 L 126.914062 68.269531 L 133.984375 68.269531 L 133.984375 31.636719 Z M 126.914062 31.636719 "/>
<path fill-rule="nonzero" fill="rgb(100%, 100%, 100%)" fill-opacity="1" d="M 126.714844 123.894531 L 126.714844 139.121094 L 107.523438 139.121094 L 107.523438 123.894531 L 100.457031 123.894531 L 100.457031 160.523438 L 107.523438 160.523438 L 107.523438 145.089844 L 126.714844 145.089844 L 126.714844 160.523438 L 133.785156 160.523438 L 133.785156 123.894531 Z M 126.714844 123.894531 "/>
<path fill-rule="nonzero" fill="rgb(100%, 100%, 100%)" fill-opacity="1" d="M 201.800781 31.636719 L 189.5625 48.960938 L 177.320312 31.636719 L 169.796875 31.636719 L 169.796875 68.269531 L 176.742188 68.269531 L 176.742188 42.101562 L 189.332031 59.269531 L 189.5625 59.269531 L 202.257812 42 L 202.257812 68.269531 L 209.328125 68.269531 L 209.328125 31.636719 Z M 201.800781 31.636719 "/>
<path fill-rule="nonzero" fill="rgb(100%, 100%, 100%)" fill-opacity="1" d="M 201.601562 123.894531 L 189.363281 141.214844 L 177.121094 123.894531 L 169.597656 123.894531 L 169.597656 160.523438 L 176.546875 160.523438 L 176.546875 134.355469 L 189.132812 151.523438 L 189.363281 151.523438 L 202.058594 134.253906 L 202.058594 160.523438 L 209.128906 160.523438 L 209.128906 123.894531 Z M 201.601562 123.894531 "/>
<path fill-rule="nonzero" fill="rgb(100%, 100%, 100%)" fill-opacity="1" d="M 246.921875 31.636719 L 234.859375 59.789062 L 222.734375 31.636719 L 214.921875 31.636719 L 231.644531 68.527344 L 237.847656 68.527344 L 254.566406 31.644531 L 254.566406 31.636719 Z M 246.921875 31.636719 "/>
<path fill-rule="nonzero" fill="rgb(100%, 100%, 100%)" fill-opacity="1" d="M 246.726562 123.894531 L 234.660156 152.042969 L 222.539062 123.894531 L 214.722656 123.894531 L 231.445312 160.78125 L 237.648438 160.78125 L 254.367188 123.898438 L 254.367188 123.894531 Z M 246.726562 123.894531 "/>
<path fill-rule="nonzero" fill="rgb(100%, 100%, 100%)" fill-opacity="1" d="M 126.917969 31.648438 L 126.917969 46.875 L 107.726562 46.875 L 107.726562 31.648438 L 100.660156 31.648438 L 100.660156 68.273438 L 107.726562 68.273438 L 107.726562 52.84375 L 126.917969 52.84375 L 126.917969 68.273438 L 133.988281 68.273438 L 133.988281 31.648438 Z M 126.917969 31.648438 "/>
<path fill-rule="nonzero" fill="rgb(100%, 100%, 100%)" fill-opacity="1" d="M 126.722656 123.902344 L 126.722656 139.132812 L 107.527344 139.132812 L 107.527344 123.902344 L 100.460938 123.902344 L 100.460938 160.527344 L 107.527344 160.527344 L 107.527344 145.097656 L 126.722656 145.097656 L 126.722656 160.527344 L 133.789062 160.527344 L 133.789062 123.902344 Z M 126.722656 123.902344 "/>
<path fill-rule="nonzero" fill="rgb(100%, 100%, 100%)" fill-opacity="1" d="M 201.800781 31.636719 L 189.5625 48.960938 L 177.320312 31.636719 L 169.796875 31.636719 L 169.796875 68.269531 L 176.742188 68.269531 L 176.742188 42.101562 L 189.332031 59.269531 L 189.5625 59.269531 L 202.257812 42 L 202.257812 68.269531 L 209.328125 68.269531 L 209.328125 31.636719 Z M 201.800781 31.636719 "/>
<path fill-rule="nonzero" fill="rgb(100%, 100%, 100%)" fill-opacity="1" d="M 201.601562 123.894531 L 189.363281 141.214844 L 177.121094 123.894531 L 169.597656 123.894531 L 169.597656 160.523438 L 176.546875 160.523438 L 176.546875 134.355469 L 189.132812 151.523438 L 189.363281 151.523438 L 202.058594 134.253906 L 202.058594 160.523438 L 209.128906 160.523438 L 209.128906 123.894531 Z M 201.601562 123.894531 "/>
<path fill-rule="nonzero" fill="rgb(100%, 100%, 100%)" fill-opacity="1" d="M 246.921875 31.636719 L 234.859375 59.789062 L 222.734375 31.636719 L 214.921875 31.636719 L 231.644531 68.527344 L 237.847656 68.527344 L 254.566406 31.644531 L 254.566406 31.636719 Z M 246.921875 31.636719 "/>
<path fill-rule="nonzero" fill="rgb(100%, 100%, 100%)" fill-opacity="1" d="M 246.726562 123.894531 L 234.660156 152.042969 L 222.539062 123.894531 L 214.722656 123.894531 L 231.445312 160.78125 L 237.648438 160.78125 L 254.367188 123.898438 L 254.367188 123.894531 Z M 246.726562 123.894531 "/>
<path fill-rule="nonzero" fill="rgb(100%, 100%, 100%)" fill-opacity="1" d="M 101.875 84.585938 L 101.875 81.214844 L 107.125 81.214844 L 107.125 80.222656 L 101.875 80.222656 L 101.875 76.9375 L 107.746094 76.9375 L 107.746094 75.945312 L 100.789062 75.945312 L 100.789062 85.574219 L 107.816406 85.574219 L 107.816406 84.585938 Z M 101.875 84.585938 "/>
<path fill-rule="nonzero" fill="rgb(100%, 100%, 100%)" fill-opacity="1" d="M 101.675781 176.839844 L 101.675781 173.46875 L 106.929688 173.46875 L 106.929688 172.480469 L 101.675781 172.480469 L 101.675781 169.191406 L 107.546875 169.191406 L 107.546875 168.203125 L 100.59375 168.203125 L 100.59375 177.832031 L 107.617188 177.832031 L 107.617188 176.839844 Z M 101.675781 176.839844 "/>
<path fill-rule="nonzero" fill="rgb(100%, 100%, 100%)" fill-opacity="1" d="M 122.589844 75.945312 L 122.589844 83.664062 L 116.527344 75.945312 L 115.507812 75.945312 L 115.507812 85.574219 L 116.566406 85.574219 L 116.566406 77.675781 L 122.78125 85.574219 L 123.652344 85.574219 L 123.652344 75.945312 Z M 122.589844 75.945312 "/>
<path fill-rule="nonzero" fill="rgb(100%, 100%, 100%)" fill-opacity="1" d="M 122.390625 168.203125 L 122.390625 175.917969 L 116.328125 168.203125 L 115.308594 168.203125 L 115.308594 177.832031 L 116.371094 177.832031 L 116.371094 169.933594 L 122.585938 177.832031 L 123.453125 177.832031 L 123.453125 168.203125 Z M 122.390625 168.203125 "/>
<path fill-rule="nonzero" fill="rgb(100%, 100%, 100%)" fill-opacity="1" d="M 136.238281 80.429688 L 136.238281 81.410156 L 139.171875 81.410156 L 139.171875 83.804688 C 138.507812 84.335938 137.492188 84.761719 136.390625 84.761719 C 134.050781 84.761719 132.582031 83.058594 132.582031 80.757812 L 132.582031 80.734375 C 132.582031 78.585938 134.105469 76.785156 136.238281 76.785156 C 137.597656 76.785156 138.425781 77.242188 139.171875 77.886719 L 139.871094 77.0625 C 138.90625 76.246094 137.902344 75.78125 136.28125 75.78125 C 133.390625 75.78125 131.449219 78.121094 131.449219 80.757812 L 131.449219 80.785156 C 131.449219 83.539062 133.320312 85.738281 136.347656 85.738281 C 137.96875 85.738281 139.320312 85.070312 140.210938 84.265625 L 140.210938 80.429688 Z M 136.238281 80.429688 "/>
<path fill-rule="nonzero" fill="rgb(100%, 100%, 100%)" fill-opacity="1" d="M 136.039062 172.683594 L 136.039062 173.664062 L 138.972656 173.664062 L 138.972656 176.058594 C 138.3125 176.59375 137.292969 177.019531 136.191406 177.019531 C 133.851562 177.019531 132.382812 175.3125 132.382812 173.011719 L 132.382812 172.988281 C 132.382812 170.839844 133.90625 169.039062 136.039062 169.039062 C 137.402344 169.039062 138.226562 169.496094 138.972656 170.144531 L 139.671875 169.316406 C 138.710938 168.5 137.707031 168.039062 136.082031 168.039062 C 133.195312 168.039062 131.253906 170.378906 131.253906 173.011719 L 131.253906 173.042969 C 131.253906 175.792969 133.125 177.996094 136.148438 177.996094 C 137.769531 177.996094 139.121094 177.324219 140.011719 176.523438 L 140.011719 172.683594 Z M 136.039062 172.683594 "/>
<path fill-rule="nonzero" fill="rgb(100%, 100%, 100%)" fill-opacity="1" d="M 148.265625 85.574219 L 149.347656 85.574219 L 149.347656 75.945312 L 148.265625 75.945312 Z M 148.265625 85.574219 "/>
<path fill-rule="nonzero" fill="rgb(100%, 100%, 100%)" fill-opacity="1" d="M 148.066406 177.832031 L 149.148438 177.832031 L 149.148438 168.203125 L 148.066406 168.203125 Z M 148.066406 177.832031 "/>
<path fill-rule="nonzero" fill="rgb(100%, 100%, 100%)" fill-opacity="1" d="M 164.753906 75.945312 L 164.753906 83.664062 L 158.691406 75.945312 L 157.671875 75.945312 L 157.671875 85.574219 L 158.734375 85.574219 L 158.734375 77.675781 L 164.953125 85.574219 L 165.816406 85.574219 L 165.816406 75.945312 Z M 164.753906 75.945312 "/>
<path fill-rule="nonzero" fill="rgb(100%, 100%, 100%)" fill-opacity="1" d="M 164.558594 168.203125 L 164.558594 175.917969 L 158.492188 168.203125 L 157.476562 168.203125 L 157.476562 177.832031 L 158.535156 177.832031 L 158.535156 169.933594 L 164.753906 177.832031 L 165.617188 177.832031 L 165.617188 168.203125 Z M 164.558594 168.203125 "/>
<path fill-rule="nonzero" fill="rgb(100%, 100%, 100%)" fill-opacity="1" d="M 175.128906 84.585938 L 175.128906 81.214844 L 180.382812 81.214844 L 180.382812 80.222656 L 175.128906 80.222656 L 175.128906 76.9375 L 181.003906 76.9375 L 181.003906 75.945312 L 174.042969 75.945312 L 174.042969 85.574219 L 181.074219 85.574219 L 181.074219 84.585938 Z M 175.128906 84.585938 "/>
<path fill-rule="nonzero" fill="rgb(100%, 100%, 100%)" fill-opacity="1" d="M 174.933594 176.839844 L 174.933594 173.46875 L 180.183594 173.46875 L 180.183594 172.480469 L 174.933594 172.480469 L 174.933594 169.191406 L 180.804688 169.191406 L 180.804688 168.203125 L 173.84375 168.203125 L 173.84375 177.832031 L 180.875 177.832031 L 180.875 176.839844 Z M 174.933594 176.839844 "/>
<path fill-rule="nonzero" fill="rgb(100%, 100%, 100%)" fill-opacity="1" d="M 189.847656 84.585938 L 189.847656 81.214844 L 195.101562 81.214844 L 195.101562 80.222656 L 189.847656 80.222656 L 189.847656 76.9375 L 195.71875 76.9375 L 195.71875 75.945312 L 188.765625 75.945312 L 188.765625 85.574219 L 195.789062 85.574219 L 195.789062 84.585938 Z M 189.847656 84.585938 "/>
<path fill-rule="nonzero" fill="rgb(100%, 100%, 100%)" fill-opacity="1" d="M 189.648438 176.839844 L 189.648438 173.46875 L 194.902344 173.46875 L 194.902344 172.480469 L 189.648438 172.480469 L 189.648438 169.191406 L 195.523438 169.191406 L 195.523438 168.203125 L 188.566406 168.203125 L 188.566406 177.832031 L 195.59375 177.832031 L 195.59375 176.839844 Z M 189.648438 176.839844 "/>
<path fill-rule="nonzero" fill="rgb(100%, 100%, 100%)" fill-opacity="1" d="M 204.566406 80.855469 L 204.566406 76.949219 L 207.539062 76.949219 C 209.097656 76.949219 210 77.664062 210 78.847656 L 210 78.878906 C 210 80.117188 208.96875 80.855469 207.527344 80.855469 Z M 208.492188 81.640625 C 210 81.367188 211.097656 80.429688 211.097656 78.835938 L 211.097656 78.808594 C 211.097656 78.050781 210.828125 77.375 210.363281 76.90625 C 209.753906 76.308594 208.804688 75.945312 207.625 75.945312 L 203.484375 75.945312 L 203.484375 85.574219 L 204.566406 85.574219 L 204.566406 81.832031 L 207.320312 81.832031 L 210.109375 85.574219 L 211.445312 85.574219 Z M 208.492188 81.640625 "/>
<path fill-rule="nonzero" fill="rgb(100%, 100%, 100%)" fill-opacity="1" d="M 204.367188 173.113281 L 204.367188 169.207031 L 207.339844 169.207031 C 208.898438 169.207031 209.804688 169.917969 209.804688 171.105469 L 209.804688 171.132812 C 209.804688 172.371094 208.773438 173.113281 207.328125 173.113281 Z M 208.292969 173.894531 C 209.804688 173.625 210.902344 172.683594 210.902344 171.089844 L 210.902344 171.0625 C 210.902344 170.308594 210.628906 169.632812 210.164062 169.164062 C 209.554688 168.5625 208.609375 168.203125 207.425781 168.203125 L 203.285156 168.203125 L 203.285156 177.832031 L 204.367188 177.832031 L 204.367188 174.085938 L 207.121094 174.085938 L 209.910156 177.832031 L 211.25 177.832031 Z M 208.292969 173.894531 "/>
<path fill-rule="nonzero" fill="rgb(100%, 100%, 100%)" fill-opacity="1" d="M 219.027344 85.574219 L 220.113281 85.574219 L 220.113281 75.945312 L 219.027344 75.945312 Z M 219.027344 85.574219 "/>
<path fill-rule="nonzero" fill="rgb(100%, 100%, 100%)" fill-opacity="1" d="M 218.828125 177.832031 L 219.914062 177.832031 L 219.914062 168.203125 L 218.828125 168.203125 Z M 218.828125 177.832031 "/>
<path fill-rule="nonzero" fill="rgb(100%, 100%, 100%)" fill-opacity="1" d="M 235.519531 75.945312 L 235.519531 83.664062 L 229.457031 75.945312 L 228.4375 75.945312 L 228.4375 85.574219 L 229.496094 85.574219 L 229.496094 77.675781 L 235.714844 85.574219 L 236.578125 85.574219 L 236.578125 75.945312 Z M 235.519531 75.945312 "/>
<path fill-rule="nonzero" fill="rgb(100%, 100%, 100%)" fill-opacity="1" d="M 235.324219 168.203125 L 235.324219 175.917969 L 229.257812 168.203125 L 228.242188 168.203125 L 228.242188 177.832031 L 229.296875 177.832031 L 229.296875 169.933594 L 235.515625 177.832031 L 236.378906 177.832031 L 236.378906 168.203125 Z M 235.324219 168.203125 "/>
<path fill-rule="nonzero" fill="rgb(100%, 100%, 100%)" fill-opacity="1" d="M 247.789062 80.429688 L 247.789062 81.410156 L 250.722656 81.410156 L 250.722656 83.804688 C 250.0625 84.335938 249.042969 84.761719 247.941406 84.761719 C 245.605469 84.761719 244.132812 83.058594 244.132812 80.757812 L 244.132812 80.734375 C 244.132812 78.585938 245.65625 76.785156 247.789062 76.785156 C 249.152344 76.785156 249.976562 77.242188 250.722656 77.886719 L 251.421875 77.0625 C 250.460938 76.246094 249.457031 75.78125 247.832031 75.78125 C 244.945312 75.78125 243.007812 78.121094 243.007812 80.757812 L 243.007812 80.785156 C 243.007812 83.539062 244.875 85.738281 247.898438 85.738281 C 249.527344 85.738281 250.871094 85.070312 251.769531 84.265625 L 251.769531 80.429688 Z M 247.789062 80.429688 "/>
<path fill-rule="nonzero" fill="rgb(100%, 100%, 100%)" fill-opacity="1" d="M 247.59375 172.683594 L 247.59375 173.664062 L 250.523438 173.664062 L 250.523438 176.058594 C 249.863281 176.59375 248.84375 177.019531 247.742188 177.019531 C 245.40625 177.019531 243.933594 175.3125 243.933594 173.011719 L 243.933594 172.988281 C 243.933594 170.839844 245.457031 169.039062 247.59375 169.039062 C 248.953125 169.039062 249.777344 169.496094 250.523438 170.144531 L 251.222656 169.316406 C 250.261719 168.5 249.257812 168.039062 247.636719 168.039062 C 244.746094 168.039062 242.808594 170.378906 242.808594 173.011719 L 242.808594 173.042969 C 242.808594 175.792969 244.675781 177.996094 247.699219 177.996094 C 249.328125 177.996094 250.675781 177.324219 251.570312 176.523438 L 251.570312 172.683594 Z M 247.59375 172.683594 "/>
<path fill-rule="nonzero" fill="rgb(100%, 100%, 100%)" fill-opacity="1" d="M 151.007812 64.644531 C 150.285156 65.113281 149.4375 65.347656 148.476562 65.347656 C 147.9375 65.347656 147.429688 65.261719 146.960938 65.09375 C 146.492188 64.917969 146.078125 64.683594 145.714844 64.386719 C 145.347656 64.085938 145.0625 63.722656 144.851562 63.296875 C 144.640625 62.871094 144.535156 62.410156 144.535156 61.917969 C 144.535156 61.425781 144.632812 60.988281 144.832031 60.605469 C 145.03125 60.21875 145.296875 59.878906 145.625 59.578125 C 145.953125 59.277344 146.320312 59.003906 146.71875 58.761719 C 147.117188 58.511719 147.523438 58.273438 147.949219 58.039062 L 153.054688 63.105469 C 152.421875 63.65625 151.734375 64.175781 151.007812 64.644531 Z M 147.523438 49.046875 C 148.109375 48.632812 148.816406 48.417969 149.640625 48.417969 C 150.390625 48.417969 151.03125 48.621094 151.574219 49.015625 C 152.117188 49.410156 152.382812 49.914062 152.382812 50.535156 C 152.382812 50.964844 152.28125 51.351562 152.0625 51.6875 C 151.851562 52.035156 151.582031 52.351562 151.238281 52.636719 C 150.902344 52.925781 150.53125 53.183594 150.132812 53.40625 C 149.734375 53.628906 149.359375 53.828125 149.003906 54 C 148.722656 53.765625 148.441406 53.519531 148.175781 53.265625 C 147.90625 53.007812 147.65625 52.734375 147.421875 52.445312 C 147.1875 52.15625 147 51.867188 146.859375 51.582031 C 146.71875 51.289062 146.644531 51 146.644531 50.699219 C 146.644531 50.015625 146.9375 49.464844 147.523438 49.046875 Z M 158.40625 62.878906 L 163.398438 56.308594 L 158.4375 56.308594 L 155.65625 60.15625 L 151.640625 56.210938 C 152.25 55.933594 152.863281 55.601562 153.457031 55.203125 C 154.050781 54.808594 154.585938 54.367188 155.054688 53.886719 C 155.53125 53.40625 155.902344 52.875 156.183594 52.285156 C 156.464844 51.699219 156.609375 51.050781 156.609375 50.347656 C 156.609375 49.429688 156.417969 48.625 156.027344 47.941406 C 155.636719 47.257812 155.121094 46.695312 154.480469 46.257812 C 153.832031 45.820312 153.085938 45.492188 152.242188 45.28125 C 151.398438 45.066406 150.507812 44.957031 149.570312 44.957031 C 148.628906 44.957031 147.726562 45.082031 146.859375 45.316406 C 145.988281 45.550781 145.226562 45.898438 144.570312 46.351562 C 143.910156 46.816406 143.386719 47.398438 143.003906 48.101562 C 142.617188 48.804688 142.421875 49.621094 142.421875 50.535156 C 142.421875 51.09375 142.496094 51.605469 142.652344 52.078125 C 142.804688 52.546875 143.007812 52.988281 143.269531 53.390625 C 143.527344 53.792969 143.824219 54.191406 144.164062 54.578125 C 144.503906 54.960938 144.875 55.355469 145.273438 55.765625 C 144.523438 56.019531 143.820312 56.355469 143.160156 56.773438 C 142.503906 57.191406 141.933594 57.667969 141.453125 58.210938 C 140.972656 58.761719 140.589844 59.363281 140.308594 60.007812 C 140.027344 60.664062 139.886719 61.375 139.886719 62.144531 C 139.886719 63.230469 140.121094 64.1875 140.589844 65.011719 C 141.0625 65.835938 141.683594 66.527344 142.453125 67.089844 C 143.230469 67.660156 144.128906 68.089844 145.148438 68.375 C 146.171875 68.667969 147.234375 68.808594 148.335938 68.808594 C 149.929688 68.808594 151.304688 68.554688 152.453125 68.039062 C 153.601562 67.53125 154.679688 66.726562 155.695312 65.636719 L 158.328125 68.234375 L 163.789062 68.234375 Z M 158.40625 62.878906 "/>
<path fill-rule="nonzero" fill="rgb(100%, 100%, 100%)" fill-opacity="1" d="M 150.808594 156.898438 C 150.089844 157.367188 149.238281 157.601562 148.277344 157.601562 C 147.738281 157.601562 147.230469 157.515625 146.761719 157.347656 C 146.292969 157.175781 145.878906 156.941406 145.515625 156.640625 C 145.148438 156.339844 144.863281 155.980469 144.652344 155.550781 C 144.441406 155.125 144.335938 154.664062 144.335938 154.171875 C 144.335938 153.679688 144.4375 153.246094 144.632812 152.859375 C 144.835938 152.476562 145.097656 152.132812 145.425781 151.832031 C 145.753906 151.53125 146.121094 151.261719 146.519531 151.015625 C 146.917969 150.769531 147.324219 150.527344 147.753906 150.292969 L 152.855469 155.359375 C 152.222656 155.914062 151.535156 156.429688 150.808594 156.898438 Z M 147.324219 141.304688 C 147.910156 140.886719 148.621094 140.675781 149.441406 140.675781 C 150.191406 140.675781 150.832031 140.875 151.378906 141.269531 C 151.917969 141.664062 152.183594 142.171875 152.183594 142.789062 C 152.183594 143.222656 152.082031 143.605469 151.867188 143.945312 C 151.652344 144.289062 151.382812 144.605469 151.039062 144.890625 C 150.703125 145.183594 150.332031 145.441406 149.933594 145.660156 C 149.535156 145.886719 149.160156 146.082031 148.808594 146.257812 C 148.527344 146.019531 148.246094 145.773438 147.976562 145.519531 C 147.710938 145.261719 147.457031 144.988281 147.222656 144.699219 C 146.988281 144.414062 146.800781 144.121094 146.660156 143.835938 C 146.519531 143.546875 146.449219 143.253906 146.449219 142.953125 C 146.449219 142.269531 146.738281 141.71875 147.324219 141.304688 Z M 158.207031 155.132812 L 163.203125 148.5625 L 158.238281 148.5625 L 155.457031 152.410156 L 151.445312 148.464844 C 152.054688 148.1875 152.664062 147.855469 153.257812 147.457031 C 153.855469 147.0625 154.390625 146.621094 154.859375 146.144531 C 155.332031 145.660156 155.703125 145.128906 155.984375 144.539062 C 156.265625 143.953125 156.410156 143.304688 156.410156 142.601562 C 156.410156 141.683594 156.21875 140.882812 155.828125 140.195312 C 155.441406 139.511719 154.921875 138.949219 154.28125 138.511719 C 153.632812 138.078125 152.886719 137.746094 152.042969 137.535156 C 151.199219 137.320312 150.308594 137.214844 149.371094 137.214844 C 148.433594 137.214844 147.527344 137.335938 146.660156 137.570312 C 145.792969 137.804688 145.027344 138.152344 144.371094 138.605469 C 143.714844 139.070312 143.1875 139.652344 142.804688 140.355469 C 142.417969 141.058594 142.222656 141.875 142.222656 142.789062 C 142.222656 143.347656 142.296875 143.859375 142.453125 144.332031 C 142.605469 144.800781 142.808594 145.242188 143.070312 145.644531 C 143.328125 146.050781 143.625 146.449219 143.96875 146.832031 C 144.304688 147.21875 144.675781 147.613281 145.074219 148.019531 C 144.324219 148.273438 143.621094 148.609375 142.964844 149.027344 C 142.308594 149.445312 141.734375 149.921875 141.257812 150.46875 C 140.773438 151.015625 140.394531 151.617188 140.113281 152.265625 C 139.832031 152.921875 139.691406 153.628906 139.691406 154.398438 C 139.691406 155.484375 139.925781 156.441406 140.394531 157.269531 C 140.863281 158.089844 141.484375 158.785156 142.253906 159.347656 C 143.035156 159.914062 143.929688 160.34375 144.953125 160.632812 C 145.972656 160.921875 147.035156 161.0625 148.136719 161.0625 C 149.730469 161.0625 151.105469 160.808594 152.253906 160.292969 C 153.402344 159.789062 154.484375 158.980469 155.496094 157.890625 L 158.132812 160.492188 L 163.589844 160.492188 Z M 158.207031 155.132812 "/>
<path fill-rule="nonzero" fill="rgb(100%, 100%, 100%)" fill-opacity="1" d="M 36.914062 79.277344 L 52.480469 58.667969 L 42.03125 58.65625 L 64.699219 27.859375 C 62.605469 27.402344 60.433594 27.160156 58.203125 27.160156 C 41.40625 27.160156 27.792969 40.773438 27.792969 57.566406 C 27.792969 66.070312 31.289062 73.757812 36.914062 79.277344 "/>
<path fill-rule="nonzero" fill="rgb(100%, 100%, 100%)" fill-opacity="1" d="M 36.714844 171.53125 L 52.28125 150.921875 L 41.835938 150.910156 L 64.5 120.113281 C 62.40625 119.65625 60.234375 119.414062 58.003906 119.414062 C 41.210938 119.414062 27.597656 133.027344 27.597656 149.824219 C 27.597656 158.324219 31.089844 166.011719 36.714844 171.53125 "/>
<path fill-rule="nonzero" fill="rgb(100%, 100%, 100%)" fill-opacity="1" d="M 36.914062 79.277344 L 52.480469 58.667969 L 42.03125 58.65625 L 64.699219 27.859375 C 62.605469 27.402344 60.433594 27.160156 58.203125 27.160156 C 41.40625 27.160156 27.792969 40.773438 27.792969 57.566406 C 27.792969 66.070312 31.289062 73.757812 36.914062 79.277344 "/>
<path fill-rule="nonzero" fill="rgb(100%, 100%, 100%)" fill-opacity="1" d="M 36.714844 171.53125 L 52.28125 150.921875 L 41.835938 150.910156 L 64.5 120.113281 C 62.40625 119.65625 60.234375 119.414062 58.003906 119.414062 C 41.210938 119.414062 27.597656 133.027344 27.597656 149.824219 C 27.597656 158.324219 31.089844 166.011719 36.714844 171.53125 "/>
<path fill-rule="nonzero" fill="rgb(100%, 100%, 100%)" fill-opacity="1" d="M 77.386719 33.976562 L 60.121094 58.199219 L 69.980469 58.03125 L 49.535156 86.722656 C 52.285156 87.535156 55.191406 87.976562 58.203125 87.976562 C 74.996094 87.976562 88.609375 74.359375 88.609375 57.566406 C 88.609375 48.046875 84.234375 39.550781 77.386719 33.976562 "/>
<path fill-rule="nonzero" fill="rgb(100%, 100%, 100%)" fill-opacity="1" d="M 77.1875 126.230469 L 59.921875 150.457031 L 69.785156 150.289062 L 49.339844 178.976562 C 52.085938 179.789062 54.992188 180.230469 58.003906 180.230469 C 74.796875 180.230469 88.410156 166.617188 88.410156 149.824219 C 88.410156 140.304688 84.035156 131.804688 77.1875 126.230469 "/>
<path fill-rule="nonzero" fill="rgb(100%, 100%, 100%)" fill-opacity="1" d="M 77.386719 33.976562 L 60.121094 58.199219 L 69.980469 58.03125 L 49.535156 86.722656 C 52.285156 87.535156 55.191406 87.976562 58.203125 87.976562 C 74.996094 87.976562 88.609375 74.359375 88.609375 57.566406 C 88.609375 48.046875 84.234375 39.550781 77.386719 33.976562 "/>
<path fill-rule="nonzero" fill="rgb(100%, 100%, 100%)" fill-opacity="1" d="M 77.1875 126.230469 L 59.921875 150.457031 L 69.785156 150.289062 L 49.339844 178.976562 C 52.085938 179.789062 54.992188 180.230469 58.003906 180.230469 C 74.796875 180.230469 88.410156 166.617188 88.410156 149.824219 C 88.410156 140.304688 84.035156 131.804688 77.1875 126.230469 "/>
</svg>
