<?xml version="1.0" encoding="UTF-8"?>
<svg xmlns="http://www.w3.org/2000/svg" xmlns:xlink="http://www.w3.org/1999/xlink" width="600.65625" height="595.007812" viewBox="-1.28125 123.96875 600.65625 595.007812">
<path fill-rule="nonzero" fill="rgb(89.318848%, 40.739441%, 17.179871%)" fill-opacity="1" d="M 109.296875 193.003906 C 128.003906 177.710938 149.179688 164.128906 171.433594 153.777344 C 179.402344 150.070312 188.28125 146.410156 198.066406 142.808594 C 206.703125 139.617188 216.496094 136.585938 227.460938 133.707031 C 237.539062 131.058594 247.605469 129.066406 257.644531 127.730469 C 284.757812 124.125 310.914062 123.96875 336.121094 127.269531 C 358.953125 130.257812 381.359375 135.792969 403.339844 143.871094 C 422.175781 150.800781 439.523438 159.175781 455.398438 169.007812 C 461.113281 172.554688 468.496094 177.070312 474.511719 181.542969 C 489.851562 192.9375 503.578125 204.78125 515.675781 217.082031 C 534.027344 235.726562 549.164062 257.28125 562.5 281.679688 C 576.128906 306.617188 585.8125 333.621094 591.550781 362.707031 C 599.375 402.382812 599.027344 442.101562 590.515625 481.859375 C 586.339844 501.34375 580.167969 520.28125 572.007812 538.667969 C 554.984375 577.007812 529.761719 611.125 498.441406 639.03125 C 472.984375 661.703125 443.75 680.566406 412.226562 693.433594 C 384.289062 704.835938 355.511719 711.746094 325.894531 714.164062 C 267.183594 718.976562 207.695312 707.316406 156.066406 678.734375 C 141.972656 670.933594 128.296875 661.839844 115.027344 651.460938 C 104.539062 643.257812 94.277344 633.925781 84.230469 623.472656 C 64.789062 603.238281 48.554688 580.695312 35.527344 555.855469 C 32.273438 549.652344 28.894531 542.476562 25.371094 534.328125 C 16.875 514.652344 10.644531 493.847656 6.671875 471.898438 C -1.28125 427.914062 0.695312 384.140625 12.601562 340.582031 C 18.277344 319.824219 26.300781 299.910156 36.664062 280.839844 C 41.722656 271.546875 48.113281 260.929688 54.15625 252.316406 C 69.757812 230.078125 88.136719 210.308594 109.296875 193.003906 M 509.867188 611.117188 C 517.734375 602.890625 525.09375 594.050781 531.953125 584.609375 C 554.722656 553.257812 570.296875 518.648438 578.671875 480.777344 C 581.398438 468.441406 583.03125 456.101562 584.101562 443.503906 C 588.851562 387.527344 576.96875 330.371094 549.128906 281.910156 C 538.035156 262.597656 525.761719 245.554688 511.21875 229.894531 C 476.222656 192.195312 434.167969 165.527344 385.066406 149.902344 C 371.007812 145.421875 356.964844 142.144531 342.929688 140.050781 C 305.457031 134.464844 265.652344 135.710938 228.742188 145.4375 C 198.175781 153.484375 169.800781 165.859375 143.609375 182.566406 C 127.417969 192.894531 111.546875 205.878906 97.839844 219.199219 C 71.980469 244.355469 51.730469 273.507812 37.101562 306.675781 C 34.320312 312.972656 31.921875 319.039062 29.902344 324.871094 C 19.53125 354.816406 14.15625 385.46875 13.78125 416.832031 C 13.636719 429.050781 14.699219 442.191406 16.144531 454.578125 C 18.664062 476.257812 23.734375 497.253906 31.363281 517.578125 C 44.378906 552.285156 64.003906 584.628906 89.355469 611.53125 C 101.070312 623.957031 113.460938 635.582031 127.070312 645.714844 C 132.664062 649.886719 136.9375 652.996094 139.890625 655.039062 C 149.472656 661.691406 159.660156 667.6875 170.453125 673.03125 C 180.398438 677.945312 188.207031 681.5 193.882812 683.6875 C 204.753906 687.886719 218.027344 692.28125 230.261719 695.320312 C 247.074219 699.5 264.375 702.082031 282.15625 703.0625 C 288.65625 703.425781 296.535156 703.539062 305.789062 703.40625 C 321.402344 703.179688 336.695312 701.769531 351.679688 699.164062 C 366.273438 696.628906 381.089844 692.601562 396.128906 687.082031 C 425.464844 676.320312 452.808594 660.878906 478.152344 640.753906 C 489.566406 631.691406 500.28125 621.132812 509.867188 611.117188 "/>
<path fill-rule="nonzero" fill="rgb(89.318848%, 40.739441%, 17.179871%)" fill-opacity="1" d="M 445.324219 241.792969 C 445.179688 241.949219 445.332031 242.195312 445.535156 242.140625 C 452.253906 240.3125 459.710938 241.910156 464.332031 247.148438 C 469.53125 253.042969 461.859375 259.675781 457.617188 262.933594 C 454.457031 265.367188 451.5 267.6875 448.738281 269.890625 C 447.316406 271.027344 446.074219 272.316406 445.003906 273.765625 C 444.554688 274.382812 444.648438 275.234375 445.214844 275.738281 C 448.132812 278.300781 453.542969 277.929688 457.304688 277.039062 C 460.609375 276.253906 462.484375 276.957031 462.925781 280.445312 C 463.132812 282.089844 462.941406 282.492188 461.542969 283.464844 C 459.8125 284.671875 457.203125 285.394531 453.707031 285.617188 C 446.210938 286.09375 433.167969 284.800781 429.179688 277.25 C 427.359375 273.816406 428.023438 270.816406 430.972656 268.117188 C 433.96875 265.371094 437.710938 262.1875 442.191406 258.578125 C 444.746094 256.527344 446.925781 254.398438 448.730469 252.210938 C 449.242188 251.59375 449.277344 250.761719 448.820312 250.261719 C 448.398438 249.804688 447.710938 249.472656 446.753906 249.269531 C 439.871094 247.777344 436.160156 249.1875 430.816406 253.003906 C 426.308594 256.226562 421.617188 260.097656 416.742188 264.621094 C 415.109375 266.140625 412.980469 266.339844 410.820312 265.480469 C 407.765625 264.273438 405.667969 262.175781 404.523438 259.183594 C 403.929688 257.625 406.425781 255.101562 407.632812 253.917969 C 407.792969 253.753906 407.660156 253.480469 407.433594 253.515625 C 405.253906 253.839844 403.554688 254.09375 402.34375 254.261719 C 394.402344 255.402344 386.261719 254.53125 377.917969 251.644531 C 370.6875 249.144531 365.132812 244.394531 366.203125 236.476562 C 366.25 236.15625 365.925781 235.917969 365.632812 236.046875 C 361.761719 237.769531 358.375 239.269531 354.191406 239.855469 C 344.183594 241.261719 322.863281 242.855469 321.207031 227.597656 C 321.171875 227.308594 320.835938 227.179688 320.621094 227.359375 C 313.578125 233.046875 303.65625 237.390625 294.585938 235.929688 C 290.222656 235.230469 288.152344 232.652344 288.371094 228.203125 C 288.382812 227.929688 288.070312 227.773438 287.859375 227.945312 C 281.257812 233.339844 274.539062 238.335938 266.078125 239.160156 C 261.652344 239.589844 257.308594 237.839844 256.660156 232.886719 C 256.613281 232.503906 256.144531 232.351562 255.882812 232.632812 C 251.265625 237.566406 245.976562 241.398438 240.011719 244.128906 C 235.207031 246.324219 227.195312 246.882812 224.84375 240.640625 C 223.226562 236.332031 223.671875 232.898438 224.324219 227.125 C 224.644531 224.3125 225.722656 217.21875 227.554688 205.835938 C 228.402344 200.597656 233.234375 198.46875 238.167969 198.988281 C 243.050781 199.5 242.875 204.203125 242.105469 207.894531 C 241.15625 212.425781 240.167969 217.515625 239.140625 223.175781 C 238.671875 225.742188 238.546875 228.210938 238.757812 230.574219 C 238.847656 231.507812 238.929688 232.035156 239.015625 232.148438 C 239.414062 232.703125 240.292969 232.835938 241.128906 232.46875 C 242.59375 231.835938 244.066406 230.875 245.546875 229.574219 C 248.621094 226.882812 252.226562 223.335938 256.363281 218.933594 C 257.117188 218.132812 257.617188 217.328125 257.847656 216.515625 C 261.132812 205.25 265.773438 188.527344 271.761719 166.34375 C 272.882812 162.207031 273.335938 158.863281 277.636719 157.546875 C 280.609375 156.640625 283.421875 156.816406 286.082031 158.078125 C 289.5625 159.726562 289.359375 161.703125 288.1875 165.144531 C 283.300781 179.464844 279.355469 193 274.550781 208.304688 C 272.839844 213.761719 271.503906 218.566406 270.542969 222.730469 C 270.339844 223.597656 270.25 225.339844 270.5625 226.117188 C 270.796875 226.710938 271.429688 227.03125 272.050781 226.882812 C 274.011719 226.398438 275.902344 225.527344 277.707031 224.257812 C 280.820312 222.070312 284.746094 218.949219 289.484375 214.90625 C 290.972656 213.632812 291.957031 212.671875 292.417969 212.027344 C 292.527344 211.867188 292.617188 211.703125 292.691406 211.527344 C 297.292969 199.949219 302.984375 185.902344 309.75 169.40625 C 310.179688 168.363281 311.28125 165.886719 313.054688 161.984375 C 315.078125 157.539062 319.378906 157.71875 323.554688 158.890625 C 325.171875 159.347656 326.546875 160.253906 327.671875 161.609375 C 328.511719 162.625 328.410156 163.589844 327.855469 164.8125 C 318.675781 185.046875 312.558594 198.578125 306.613281 212.617188 C 304.441406 217.742188 303.105469 221.226562 302.601562 223.074219 C 302.417969 223.753906 302.550781 224.40625 302.996094 225.027344 C 303.132812 225.210938 303.328125 225.335938 303.554688 225.375 C 305.605469 225.714844 307.792969 225.183594 310.132812 223.789062 C 314.0625 221.429688 318.347656 218.582031 322.984375 215.234375 C 323.746094 214.6875 324.394531 213.988281 324.886719 213.175781 C 326.171875 211.042969 327.296875 209.332031 328.246094 208.03125 C 332.84375 201.695312 340.394531 195.859375 348.292969 194.632812 C 354.433594 193.679688 361.652344 194.933594 366.328125 199.050781 C 371.136719 203.28125 370.742188 210.308594 366.714844 214.96875 C 364.253906 217.808594 361.121094 220.039062 357.308594 221.65625 C 350.761719 224.429688 344.074219 225.074219 337.246094 223.597656 C 336.8125 223.5 336.375 223.765625 336.265625 224.203125 C 335.953125 225.445312 336.101562 226.4375 336.714844 227.195312 C 338.554688 229.464844 340.988281 230.773438 344.007812 231.132812 C 350.707031 231.925781 356.648438 230.636719 362.816406 227.945312 C 365.371094 226.832031 367.402344 226.273438 370.320312 225.5 C 371.089844 225.285156 371.777344 224.851562 372.296875 224.246094 C 380.644531 214.375 390.988281 206.867188 404.613281 210.117188 C 409.851562 211.363281 415.777344 214.582031 417.621094 219.871094 C 418.957031 223.683594 417.105469 228.375 414.441406 231.195312 C 408.136719 237.859375 396.375 239.878906 387.617188 237.609375 C 385.824219 237.144531 384.160156 236.667969 382.628906 236.171875 C 382.292969 236.0625 381.925781 236.203125 381.761719 236.515625 C 380.84375 238.203125 381.085938 239.789062 382.492188 241.265625 C 384.917969 243.808594 387.976562 245.296875 391.664062 245.710938 C 399.441406 246.601562 407.386719 246.25 415.515625 244.660156 C 417.601562 244.253906 419.53125 243.402344 421.296875 242.113281 C 421.800781 241.738281 426.425781 238.070312 435.171875 231.105469 C 439.511719 227.652344 445.285156 232.054688 448.554688 235.238281 C 450.886719 237.511719 446.613281 240.445312 445.324219 241.792969 M 339.914062 215.28125 C 339.816406 215.460938 339.917969 215.675781 340.117188 215.726562 C 346.003906 217.074219 353.460938 215.894531 356.425781 210.15625 C 357.753906 207.59375 356.472656 205.074219 353.523438 204.753906 C 347.648438 204.125 342.378906 210.558594 339.914062 215.28125 M 387.140625 228.539062 C 387.023438 228.703125 387.089844 228.933594 387.28125 229.007812 C 392.953125 231.148438 400.523438 230.992188 404.25 225.6875 C 405.925781 223.324219 404.996094 220.640625 402.105469 219.921875 C 396.347656 218.5 390.234375 224.175781 387.140625 228.539062 "/>
<path fill-rule="nonzero" fill="rgb(89.318848%, 40.739441%, 17.179871%)" fill-opacity="1" d="M 172.046875 219.03125 C 172.074219 219.230469 172.335938 219.28125 172.4375 219.113281 C 174.332031 216.046875 176.089844 212.71875 177.71875 209.128906 C 182.742188 198.082031 187.339844 187.074219 191.519531 176.109375 C 191.710938 175.613281 192.078125 175.199219 192.546875 174.953125 C 196.65625 172.792969 200.671875 170.40625 204.863281 169.355469 C 205.71875 169.140625 206.605469 169.628906 206.890625 170.476562 C 207.566406 172.511719 204.496094 178.25 202.730469 182.027344 C 201.210938 185.277344 199.875 188.324219 198.734375 191.15625 C 194.421875 201.851562 189.496094 212.691406 183.953125 223.691406 C 183.851562 223.902344 183.953125 224.15625 184.171875 224.238281 C 185.113281 224.578125 186.46875 224.644531 187.292969 224.992188 C 193.578125 227.617188 198.101562 233.292969 202.570312 238.9375 C 205.234375 242.296875 209.175781 245.042969 213.449219 242.605469 C 216.316406 240.953125 217.488281 238.242188 218.777344 235.992188 C 219.214844 235.238281 220.359375 235.449219 220.496094 236.3125 C 220.753906 237.902344 220.925781 238.945312 221.011719 239.441406 C 222.28125 246.480469 218.355469 252.96875 211.949219 256.105469 C 196.296875 263.765625 188.253906 248.257812 181.296875 237.902344 C 180.769531 237.125 179.734375 236.09375 179.101562 235.5625 C 178.6875 235.214844 178.058594 235.324219 177.785156 235.796875 L 174.28125 241.855469 C 174.113281 242.152344 174.039062 242.5 174.070312 242.839844 C 174.761719 250.011719 175.449219 256.695312 176.152344 262.90625 C 176.417969 265.285156 177.144531 267.496094 178.351562 269.542969 C 178.453125 269.71875 178.515625 269.921875 178.527344 270.128906 C 178.71875 273.003906 174.121094 277.40625 172.15625 279.1875 C 169.4375 281.644531 166.34375 283.335938 162.867188 284.242188 C 162.253906 284.398438 161.664062 283.941406 161.65625 283.308594 C 161.585938 273.148438 161.210938 265.09375 160.210938 255.457031 C 158.355469 237.664062 156.988281 221.574219 156.09375 207.199219 C 156.074219 206.878906 155.71875 206.710938 155.453125 206.886719 C 153.101562 208.476562 150.710938 210.289062 148.265625 212.332031 C 144.597656 215.398438 142.59375 218.410156 139.675781 222.859375 C 138.703125 224.351562 137.550781 225.3125 136.234375 225.75 C 135.574219 225.96875 134.847656 225.789062 134.371094 225.285156 C 131.160156 221.90625 131.609375 213.382812 132.269531 209.332031 C 132.46875 208.125 133.667969 207.464844 134.742188 206.738281 C 142.527344 201.460938 155.277344 193.707031 164.832031 186.183594 C 166.371094 184.960938 169.664062 183.8125 171.679688 184.765625 C 172.199219 185.003906 172.464844 185.582031 172.3125 186.136719 C 171.265625 189.992188 170.050781 193.265625 170.234375 197.488281 C 170.554688 204.78125 171.164062 211.964844 172.046875 219.03125 "/>
<path fill-rule="nonzero" fill="rgb(89.318848%, 40.739441%, 17.179871%)" fill-opacity="1" d="M 245.90625 180.269531 C 246.117188 185.058594 243.480469 190.796875 238.355469 191.628906 C 233.785156 192.371094 229.914062 191.226562 229.550781 185.929688 C 229.25 181.617188 230.425781 177.070312 234.078125 174.691406 C 238.859375 171.578125 245.628906 174.027344 245.90625 180.269531 "/>
<path fill-rule="nonzero" fill="rgb(89.318848%, 40.739441%, 17.179871%)" fill-opacity="1" d="M 199.628906 278.578125 C 228.214844 260.144531 259.835938 250.34375 294.476562 249.164062 C 315.125 248.464844 334.957031 250.871094 353.972656 256.367188 C 362.25 258.761719 371.675781 262.613281 382.246094 267.914062 C 400.515625 277.078125 416.53125 289.046875 430.304688 303.828125 C 440.5 314.765625 448.839844 325.9375 455.335938 337.335938 C 483.664062 387.042969 484.433594 450.0625 458.347656 500.503906 C 448.132812 520.261719 434.742188 537.753906 418.175781 552.988281 C 411.394531 559.222656 404.414062 564.617188 397.226562 569.171875 C 356.582031 594.933594 312.324219 603.285156 264.449219 594.238281 C 262.660156 593.894531 258.625 592.875 252.359375 591.171875 C 247.679688 589.894531 243.699219 588.683594 240.40625 587.546875 C 203.15625 574.625 171.113281 549.0625 149.898438 515.886719 C 127.691406 481.171875 118.0625 439.21875 123.558594 398.527344 C 126.734375 375.007812 134.605469 352.957031 147.167969 332.382812 C 160.585938 310.417969 178.074219 292.480469 199.628906 278.578125 M 235.128906 362.035156 C 234.976562 362.117188 234.804688 361.960938 234.882812 361.808594 C 235.9375 359.554688 237.089844 356.527344 238.34375 352.730469 C 240.722656 345.554688 243.101562 338.441406 245.484375 331.394531 C 246.703125 327.777344 248.953125 322.117188 252.226562 314.410156 C 252.339844 314.140625 252.546875 313.90625 252.804688 313.765625 C 253.574219 313.335938 254.550781 313.070312 255.734375 312.980469 C 257.214844 312.863281 260.859375 312.804688 266.6875 312.808594 C 267.210938 312.808594 267.679688 312.488281 267.871094 312 C 270.160156 306.199219 271.605469 300.984375 272.207031 296.351562 C 272.238281 296.105469 272.042969 295.882812 271.796875 295.890625 C 262.339844 296.003906 251.988281 296.039062 240.75 296.003906 C 233.6875 295.976562 221.570312 295.664062 212.269531 295.957031 C 209.449219 296.046875 207.234375 295.875 205.851562 297.597656 C 205.296875 298.273438 204.542969 299.820312 203.582031 302.238281 C 202.375 305.257812 201.550781 308.523438 201.113281 312.03125 C 201.039062 312.613281 201.476562 313.128906 202.054688 313.164062 C 206.054688 313.382812 210.871094 313.484375 216.515625 313.476562 C 217.300781 313.476562 217.835938 313.613281 218.125 313.886719 C 218.484375 314.234375 218.539062 314.757812 218.300781 315.476562 C 211.21875 336.265625 204.8125 357.269531 197.285156 380.132812 C 193.296875 392.257812 190.21875 402.117188 188.050781 409.730469 C 187.496094 411.671875 186.800781 413.546875 185.976562 415.351562 C 185.4375 416.53125 184.839844 417.300781 184.191406 417.648438 C 180.941406 419.40625 176.097656 419.714844 172.285156 420.082031 C 169.015625 420.394531 168.4375 422.660156 167.304688 425.691406 C 166.179688 428.695312 165.273438 432.003906 164.570312 435.613281 C 164.511719 435.929688 164.714844 436.234375 165.027344 436.300781 C 168.46875 437.050781 172.054688 437.433594 175.78125 437.453125 C 191.171875 437.527344 207.042969 437.46875 223.390625 437.285156 C 223.609375 437.277344 223.820312 437.214844 224.003906 437.101562 C 227.222656 435.0625 229.785156 424.75 229.308594 421.390625 C 229.273438 421.164062 229.171875 420.953125 229.019531 420.785156 C 228.40625 420.089844 227.78125 419.6875 227.132812 419.578125 C 223.949219 419.039062 220.816406 418.761719 217.742188 418.746094 C 217.332031 418.746094 217.046875 418.34375 217.167969 417.957031 C 220.828125 406.472656 223.0625 399.660156 223.867188 397.527344 C 225.039062 394.40625 228.523438 391.929688 231.160156 389.976562 C 235.179688 386.996094 238.886719 383.867188 242.792969 380.6875 C 243.617188 380.011719 244.441406 379.5 245.265625 379.140625 C 245.53125 379.023438 245.832031 379.195312 245.875 379.480469 C 246.847656 387.03125 248.308594 395.441406 250.25 404.703125 C 252.039062 413.261719 254.738281 420.894531 258.332031 427.601562 C 260.191406 431.070312 262.769531 433.523438 266.074219 434.972656 C 274.351562 438.613281 284.507812 438.128906 293.078125 435.203125 C 294.484375 434.726562 295.390625 434.140625 295.804688 433.453125 C 298.53125 428.902344 300.210938 424.003906 300.828125 418.753906 C 300.855469 418.523438 300.671875 418.316406 300.441406 418.316406 C 298.074219 418.324219 296.167969 418.324219 294.703125 418.304688 C 287.363281 418.210938 284.246094 412.117188 282.570312 405.566406 C 276.511719 381.886719 273.386719 369.667969 273.199219 368.917969 C 272.507812 366.128906 272.007812 363.894531 271.714844 362.226562 C 271.410156 360.5 271.867188 359.074219 273.078125 357.960938 C 278.789062 352.703125 285.808594 347.074219 291.398438 341.984375 C 302.75 331.644531 312.121094 323.386719 323.203125 314.730469 C 324.4375 313.765625 325.6875 313.265625 326.972656 313.234375 C 331.613281 313.117188 335.003906 312.917969 337.152344 312.652344 C 337.910156 312.558594 338.480469 312.007812 338.882812 310.996094 C 340.59375 306.644531 341.703125 302.136719 342.230469 297.484375 C 342.285156 296.992188 341.9375 296.542969 341.445312 296.476562 C 336.136719 295.703125 330.664062 295.308594 325.035156 295.289062 C 314.792969 295.242188 303.882812 295.554688 292.308594 296.230469 C 291.105469 296.304688 290.203125 296.84375 289.625 297.851562 C 287.90625 300.828125 286.292969 303.867188 284.773438 306.964844 C 283.988281 308.570312 283.429688 310.050781 283.101562 311.398438 C 282.96875 311.972656 283.355469 312.535156 283.933594 312.613281 L 289.640625 313.375 C 289.910156 313.410156 290.066406 313.710938 289.9375 313.953125 C 288.984375 315.808594 287.640625 317.4375 285.902344 318.839844 C 270.136719 331.566406 254.726562 344.5625 239.671875 357.820312 C 238.582031 358.78125 237.824219 359.484375 237.410156 359.929688 C 236.320312 361.09375 235.554688 361.796875 235.128906 362.035156 M 403.066406 450.476562 C 403.050781 450.246094 403.121094 449.910156 403.269531 449.476562 C 409.074219 432.425781 414.296875 416.605469 420.976562 400.75 C 421.648438 399.160156 422.898438 398.316406 424.714844 398.222656 C 426.371094 398.132812 428.183594 397.929688 430.167969 397.621094 C 430.835938 397.511719 431.410156 397.074219 431.675781 396.457031 C 433.515625 392.203125 435.300781 387.09375 434.964844 382.429688 C 434.933594 381.914062 434.589844 381.46875 434.101562 381.304688 C 433.167969 380.984375 432.191406 380.789062 431.175781 380.699219 C 421.070312 379.808594 409.265625 379.570312 395.765625 379.972656 C 376.765625 380.542969 359.363281 389.660156 346.453125 403.535156 C 341.847656 408.492188 337.125 415.460938 333.75 421.378906 C 328.953125 429.765625 323.550781 438.953125 317.53125 448.9375 C 316.753906 450.226562 315.570312 450.886719 313.976562 450.921875 C 303.96875 451.164062 291.855469 451.003906 281.523438 452.316406 C 255.542969 455.636719 228.027344 466.246094 211.96875 487.828125 C 204.269531 498.179688 200.035156 511.566406 202.113281 524.050781 C 204.085938 535.828125 212.085938 546.042969 223.882812 550.023438 C 228.671875 551.636719 233.035156 552.542969 236.960938 552.734375 C 245.648438 553.15625 254.800781 552.488281 263.300781 549.566406 C 278.695312 544.257812 291.246094 535.179688 300.957031 522.332031 C 303.730469 518.660156 305.988281 515.464844 307.71875 512.738281 C 321.226562 491.503906 329.96875 477.695312 333.957031 471.316406 C 334.371094 470.648438 335.101562 470.238281 335.882812 470.226562 L 363.007812 469.851562 C 363.601562 469.84375 364.085938 470.335938 364.058594 470.929688 C 364.0625 471.175781 363.96875 471.550781 363.785156 472.058594 C 357.371094 489.492188 352.839844 505.589844 347.777344 522.695312 C 347.613281 523.265625 347.898438 523.867188 348.449219 524.089844 C 349.792969 524.636719 351.253906 524.957031 352.820312 525.058594 C 360.703125 525.578125 368.296875 525.277344 375.59375 524.160156 C 375.820312 524.125 376.03125 524.015625 376.179688 523.839844 C 376.71875 523.21875 377.167969 522.332031 377.515625 521.183594 C 381.742188 507.226562 386.660156 492.730469 392.285156 477.703125 C 393.066406 475.605469 393.921875 473.660156 394.839844 471.882812 C 395.277344 471.039062 396.109375 470.472656 397.046875 470.371094 C 401.421875 469.886719 407.589844 470.109375 417.722656 470.117188 C 420.648438 470.117188 422.554688 469.898438 423.449219 469.46875 C 424.007812 469.203125 424.53125 468.605469 425.015625 467.679688 C 427.726562 462.519531 429.738281 457.164062 431.046875 451.621094 C 431.117188 451.34375 430.898438 451.070312 430.609375 451.070312 L 403.589844 451.007812 C 403.296875 451.003906 403.066406 450.769531 403.066406 450.476562 "/>
<path fill-rule="nonzero" fill="rgb(89.318848%, 40.739441%, 17.179871%)" fill-opacity="1" d="M 386.054688 406.847656 C 386.28125 406.863281 386.449219 407.066406 386.410156 407.292969 C 385.222656 414.203125 381.136719 423.054688 378.769531 430.402344 C 376.582031 437.222656 374.164062 443.941406 371.511719 450.546875 C 371.421875 450.757812 371.246094 450.90625 371.027344 450.960938 C 370.222656 451.152344 369.261719 451.261719 368.148438 451.296875 C 363.238281 451.429688 352.644531 450.890625 344.796875 451.636719 C 344.449219 451.667969 344.265625 451.675781 344.234375 451.667969 C 343.824219 451.5 343.625 451.035156 343.789062 450.621094 C 344.632812 448.488281 346.890625 446.484375 347.878906 444.785156 C 348.070312 444.453125 349.949219 441.742188 353.523438 436.636719 C 359.117188 428.636719 365.882812 421.167969 372.535156 414.496094 C 376.3125 410.707031 380.507812 406.601562 386.054688 406.847656 "/>
<path fill-rule="nonzero" fill="rgb(89.318848%, 40.739441%, 17.179871%)" fill-opacity="1" d="M 302.476562 470.527344 C 303.011719 470.59375 303.316406 471.160156 303.070312 471.636719 C 302.496094 472.769531 301.707031 474.132812 300.699219 475.726562 C 292.085938 489.363281 285.480469 500.105469 277.480469 510.433594 C 271.769531 517.808594 264.785156 524.582031 256.164062 528.816406 C 246.453125 533.578125 233.886719 532.816406 232.722656 519.308594 C 231.289062 502.71875 242.992188 493.132812 255.09375 484.980469 C 268.214844 476.15625 282.890625 471.289062 299.144531 470.398438 C 300.195312 470.335938 301.304688 470.382812 302.476562 470.527344 "/>
<path fill-rule="nonzero" fill="rgb(89.318848%, 40.739441%, 17.179871%)" fill-opacity="1" d="M 253.097656 668.261719 C 253.089844 668.019531 252.839844 667.878906 252.628906 667.988281 C 247.972656 670.378906 243.371094 672.261719 238.832031 673.644531 C 228.800781 676.695312 215.664062 671.878906 220.261719 658.847656 C 222.082031 653.710938 224.835938 649.183594 228.535156 645.265625 C 228.699219 645.097656 228.625 644.808594 228.402344 644.734375 C 224.816406 643.578125 220.652344 642.003906 215.914062 640.019531 C 214.941406 639.609375 214.109375 639.746094 213.433594 640.421875 C 209.175781 644.679688 205.636719 648.019531 202.808594 650.425781 C 196.617188 655.699219 188.621094 660.976562 180.246094 661.929688 C 173.472656 662.707031 165.988281 658.535156 163.371094 652.042969 C 161.109375 646.445312 168.621094 639.46875 173.03125 636.882812 C 173.480469 636.617188 174.050781 636.910156 174.105469 637.429688 C 174.597656 641.996094 176 646.132812 181.34375 646.753906 C 185.800781 647.277344 189.398438 645.484375 192.894531 642.71875 C 195.367188 640.761719 197.691406 638.621094 199.867188 636.3125 C 200.066406 636.101562 199.96875 635.761719 199.695312 635.679688 C 196.144531 634.621094 192.886719 633.546875 189.9375 632.457031 C 188.355469 631.867188 187.121094 630.949219 186.242188 629.699219 C 185.945312 629.273438 185.972656 628.691406 186.3125 628.296875 C 190.667969 623.207031 197.699219 622.566406 203.640625 624.714844 C 206.550781 625.769531 208.425781 626.445312 209.265625 626.742188 C 209.753906 626.921875 210.300781 626.847656 210.722656 626.546875 C 216.386719 622.539062 222.664062 617.769531 229.539062 612.242188 C 231.441406 610.722656 234.34375 608.855469 238.253906 606.652344 C 247.960938 601.1875 259.6875 601.050781 269.882812 604.453125 C 271.027344 604.835938 271.933594 605.367188 272.601562 606.039062 C 273.078125 606.53125 273.148438 607.285156 272.765625 607.851562 C 268.21875 614.484375 264.070312 621.734375 259.167969 628.242188 C 252.769531 636.753906 246.523438 645.265625 240.414062 653.777344 C 238.757812 656.082031 237.59375 658.453125 236.90625 660.886719 C 236.085938 663.796875 241.027344 663.121094 242.332031 662.691406 C 247.476562 660.996094 252.339844 658.882812 256.921875 656.339844 C 257.472656 656.035156 257.976562 655.398438 258.441406 654.425781 C 260.933594 649.199219 263.457031 644 266.003906 638.832031 C 267.089844 636.640625 269.003906 635.160156 271.566406 634.988281 C 275.449219 634.730469 282.421875 635.671875 279.65625 641.421875 C 279.179688 642.410156 277.308594 646.160156 274.054688 652.667969 C 273.929688 652.90625 272.691406 655.707031 270.332031 661.058594 C 269.445312 663.058594 268.910156 665.335938 268.71875 667.878906 C 268.675781 668.464844 269.203125 668.929688 269.773438 668.804688 C 275.804688 667.503906 280.710938 661.664062 283.519531 656.226562 C 285.945312 651.542969 288.269531 646.050781 290.492188 639.761719 C 292.308594 634.613281 299.261719 634.738281 303.144531 637.007812 C 305.164062 638.179688 304.597656 640.242188 303.914062 642.144531 C 301.183594 649.785156 298.207031 657.382812 294.980469 664.949219 C 294.84375 665.269531 294.6875 666.128906 294.503906 667.53125 C 293.84375 672.660156 300.875 668.246094 302.273438 667.25 C 304.925781 665.378906 308.1875 662.789062 312.050781 659.488281 C 313.265625 658.460938 313.988281 657.472656 314.21875 656.523438 C 315.386719 651.773438 316.78125 646.839844 318.40625 641.710938 C 318.464844 641.511719 318.316406 641.3125 318.113281 641.3125 C 315.984375 641.320312 313.777344 641.722656 311.480469 642.527344 C 310.546875 642.855469 309.730469 642.882812 309.027344 642.609375 C 308.476562 642.398438 308.132812 641.777344 308.210938 641.097656 C 308.488281 638.527344 309.574219 636.277344 311.460938 634.347656 C 313.75 632.003906 317.089844 631.972656 320.523438 631.65625 C 321.316406 631.589844 321.953125 631.011719 322.113281 630.234375 C 323.066406 625.40625 324.277344 621.109375 325.757812 617.332031 C 327.40625 613.105469 335.257812 610.304688 339 613.15625 C 340.519531 614.3125 340.074219 615.800781 339.652344 617.589844 C 339.433594 618.503906 338.324219 622.328125 336.3125 629.0625 C 336.199219 629.449219 336.144531 629.851562 336.152344 630.265625 C 336.15625 630.476562 336.355469 630.636719 336.558594 630.582031 C 339.523438 629.859375 342.5 629.648438 345.480469 629.941406 C 346.289062 630.023438 346.980469 630.558594 347.238281 631.332031 C 348.035156 633.660156 347.679688 638.070312 344.457031 638.566406 C 341.820312 638.96875 338.480469 639.308594 334.453125 639.589844 C 334.003906 639.625 333.621094 639.925781 333.484375 640.351562 C 331.238281 647.269531 329.183594 654.132812 327.324219 660.953125 C 326.847656 662.71875 326.625 664.4375 326.652344 666.121094 C 326.71875 669.800781 332.523438 666.910156 333.867188 665.964844 C 336.429688 664.144531 338.34375 662.535156 339.613281 661.132812 C 342.207031 658.277344 344.082031 656.285156 345.234375 655.167969 C 345.671875 654.746094 346.332031 654.671875 346.847656 654.972656 L 347.835938 655.542969 C 347.996094 655.632812 348.183594 655.644531 348.355469 655.570312 C 349.523438 655.046875 350.121094 654.371094 350.167969 653.558594 C 350.402344 649.75 350.554688 647.496094 350.636719 646.78125 C 351.890625 636.183594 357.105469 628.449219 366.273438 623.589844 C 373.589844 619.710938 383.300781 620.949219 388.101562 628.046875 C 388.34375 628.40625 388.78125 628.585938 389.210938 628.503906 C 395.40625 627.296875 402.929688 620.214844 404.429688 614.035156 C 405.21875 610.75 403.890625 606.339844 405.234375 602.9375 C 406.628906 599.417969 409.289062 597.609375 413.21875 597.523438 C 416.375 597.445312 418.589844 599.574219 418.488281 602.917969 C 418.371094 606.722656 418.289062 609.5625 421.511719 612.269531 C 425.078125 615.246094 429.703125 618.859375 431.734375 623.917969 C 437.386719 637.976562 428.226562 649.144531 415.140625 653.015625 C 411.5625 654.070312 407.9375 654.214844 404.25 653.429688 C 400.15625 652.566406 396.039062 649.601562 396.769531 645.027344 C 397.246094 642.023438 400.273438 639.34375 402.773438 637.960938 C 403.710938 637.4375 404.890625 637.605469 405.648438 638.378906 C 407.875 640.640625 410.472656 641.703125 413.429688 641.558594 C 417.136719 641.375 419.167969 639.011719 419.515625 635.351562 C 420.136719 628.789062 416.53125 624.714844 411.847656 620.835938 C 411.699219 620.714844 411.480469 620.773438 411.414062 620.949219 C 408.167969 629.695312 400.46875 634.097656 391.671875 635.8125 C 391.40625 635.867188 391.207031 636.105469 391.214844 636.378906 C 391.289062 644.265625 389.46875 651.324219 385.761719 657.566406 C 380.789062 665.9375 371.566406 672.429688 361.390625 670.527344 C 356.375 669.589844 353.335938 666.046875 351.484375 661.546875 C 351.402344 661.351562 351.136719 661.335938 351.035156 661.511719 C 349.835938 663.597656 347.550781 665.484375 343.980469 668.886719 C 337.300781 675.238281 327.304688 680.648438 317.949219 678.878906 C 315.316406 678.375 312.800781 676.1875 312.285156 673.308594 C 312.160156 672.640625 312.003906 671.890625 311.816406 671.066406 C 311.738281 670.742188 311.351562 670.605469 311.085938 670.808594 C 305.632812 674.960938 299.863281 678.488281 292.761719 679.90625 C 287.804688 680.902344 280.65625 679.941406 279.375 674 C 279.320312 673.746094 279.042969 673.617188 278.816406 673.746094 C 274.898438 675.972656 270.597656 677.761719 265.902344 679.097656 C 259.304688 680.96875 252.109375 676.976562 253.035156 669.371094 C 253.089844 668.914062 253.113281 668.539062 253.097656 668.261719 M 224.066406 632.230469 C 227.414062 633.640625 230.703125 634.664062 233.933594 635.296875 C 235.332031 635.574219 235.945312 635.199219 236.863281 634.214844 C 242.644531 628.023438 246.828125 621.339844 252.246094 613.734375 C 252.492188 613.386719 252.246094 612.902344 251.816406 612.902344 C 251.074219 612.902344 250.34375 613.019531 249.628906 613.242188 C 244.523438 614.839844 239.925781 617.292969 235.828125 620.597656 C 231.707031 623.929688 227.773438 627.738281 224.019531 632.023438 C 223.957031 632.09375 223.984375 632.195312 224.066406 632.230469 M 370.988281 633.925781 C 370.90625 633.660156 370.585938 633.566406 370.367188 633.734375 C 369.179688 634.671875 368.269531 635.664062 367.621094 636.734375 C 364.300781 642.242188 363.234375 647.890625 364.40625 653.675781 C 364.882812 656.046875 367.144531 658.632812 369.945312 658.207031 C 376.304688 657.246094 377.878906 648.246094 378.285156 643.140625 C 378.335938 642.628906 378.046875 642.144531 377.585938 641.925781 C 374.320312 640.378906 372.121094 637.710938 370.988281 633.925781 "/>
</svg>
