<?xml version="1.0" encoding="UTF-8"?>
<!-- CMYK_PDF_CONVERTED -->
<svg data-vectorized-cmyk="true" data-original-cmyk-pdf="true" xmlns="http://www.w3.org/2000/svg" xmlns:xlink="http://www.w3.org/1999/xlink" width="841.89" height="595.276" viewBox="0 0 841.89 595.276">
<path fill-rule="nonzero" fill="rgb(16.629028%, 17.706299%, 42.858887%)" fill-opacity="1" d="M 226.730469 451.214844 C 224.820312 451.128906 179.554688 448.8125 146.78125 427.859375 C 107.433594 402.699219 81.40625 372.140625 67.207031 334.429688 C 51.199219 291.921875 59.046875 256.222656 62.003906 242.78125 L 62.285156 241.503906 C 62.777344 239.234375 63.277344 237.121094 63.75 235.136719 C 65.683594 227.003906 66.957031 221.628906 64.933594 217.238281 C 61.898438 210.664062 45.753906 184.867188 45.59375 184.609375 L 43.96875 182.015625 L 86.6875 138.339844 L 89.328125 139.945312 C 104.59375 149.234375 122.011719 159.589844 124.230469 160.472656 C 125.1875 160.847656 125.957031 161.019531 126.652344 161.019531 C 127.71875 161.019531 128.875 160.59375 130.515625 159.589844 C 134.457031 157.179688 141.097656 155.113281 141.378906 155.027344 L 155.386719 150.695312 L 145.363281 161.394531 C 145.105469 161.671875 119.15625 189.902344 109.832031 236.738281 C 102.285156 274.652344 105.796875 331.507812 138.289062 377.371094 C 166.042969 416.542969 191.726562 427.265625 200.167969 430.789062 L 201.457031 431.332031 C 203.289062 432.117188 205.582031 433.007812 208.011719 433.953125 C 215.765625 436.96875 224.558594 440.390625 229.371094 444.328125 L 238.453125 451.757812 Z M 226.730469 451.214844 "/>
<path fill-rule="nonzero" fill="rgb(89.375305%, 57.266235%, 10.644531%)" fill-opacity="1" d="M 142.527344 158.738281 C 142.527344 158.738281 115.699219 187.382812 106.023438 235.980469 C 97.425781 279.164062 103.988281 335.675781 135.121094 379.617188 C 165.011719 421.808594 192.523438 431.726562 199.929688 434.902344 C 207.335938 438.078125 221.089844 442.574219 226.910156 447.335938 C 226.910156 447.335938 181.148438 445.21875 148.875 424.585938 C 116.601562 403.953125 86.976562 375.914062 70.839844 333.058594 C 54.703125 290.207031 63.433594 254.496094 66.078125 242.328125 C 68.722656 230.160156 71.632812 222.488281 68.460938 215.609375 C 65.285156 208.734375 48.886719 182.546875 48.886719 182.546875 L 87.308594 143.261719 C 87.308594 143.261719 119.25 162.707031 122.820312 164.09375 C 126.390625 165.484375 128.96875 165.085938 132.542969 162.90625 C 136.113281 160.722656 142.527344 158.738281 142.527344 158.738281 "/>
<path fill-rule="nonzero" fill="rgb(16.629028%, 17.706299%, 42.858887%)" fill-opacity="1" d="M 310.898438 438.671875 C 310.898438 438.671875 286.496094 447.996094 269.035156 453.15625 C 251.578125 458.3125 227.769531 459.703125 198.605469 454.742188 C 169.441406 449.78125 141.070312 436.488281 114.089844 415.460938 C 87.109375 394.429688 69.253906 364.671875 58.9375 339.277344 C 48.621094 313.882812 48.421875 272.8125 48.421875 272.8125 L 4.378906 283.925781 L 4.378906 338.484375 L 48.421875 350.1875 C 48.421875 350.1875 54.175781 374.988281 59.929688 385.503906 C 65.683594 396.015625 68.65625 397.605469 65.683594 405.144531 C 62.707031 412.683594 46.042969 441.050781 46.042969 441.050781 L 84.730469 479.738281 C 84.730469 479.738281 104.964844 467.042969 114.6875 461.683594 C 124.40625 456.328125 134.722656 459.304688 153.175781 464.265625 C 171.625 469.222656 198.804688 472 237.691406 466.050781 C 276.574219 460.097656 304.351562 447.203125 310.898438 438.671875 "/>
<path fill-rule="nonzero" fill="rgb(16.629028%, 17.706299%, 42.858887%)" fill-opacity="1" d="M 181.285156 527.03125 L 168.128906 474.871094 L 173.5 475.269531 C 173.601562 475.277344 184 476.03125 198.316406 476.03125 C 210.382812 476.03125 221.628906 475.507812 231.742188 474.484375 C 260.613281 471.558594 278.894531 464.136719 301.570312 453.972656 C 317.066406 447.027344 332.140625 436.015625 345.164062 422.125 C 351.488281 415.378906 356.082031 413.296875 356.585938 413.078125 L 361.425781 411.003906 L 361.980469 416.242188 C 362.128906 417.664062 365.585938 451.164062 361.007812 464.898438 C 356.183594 479.367188 343.882812 485.550781 343.359375 485.804688 L 341.484375 486.726562 L 339.683594 485.671875 C 339.40625 485.507812 312.046875 469.5 304.25 466.265625 C 302.808594 465.667969 301.691406 465.390625 300.734375 465.390625 C 299 465.390625 297.226562 466.363281 293.703125 468.390625 C 291.324219 469.757812 288.359375 471.464844 284.378906 473.335938 C 273.691406 478.355469 260.203125 482.148438 254.929688 483.535156 L 242.828125 527.910156 Z M 181.285156 527.03125 "/>
<path fill-rule="nonzero" fill="rgb(89.375305%, 57.266235%, 10.644531%)" fill-opacity="1" d="M 239.871094 523.980469 L 251.777344 480.335938 C 251.777344 480.335938 269.632812 475.96875 282.726562 469.820312 C 295.820312 463.667969 297.605469 459.304688 305.738281 462.675781 C 313.875 466.050781 341.648438 482.316406 341.648438 482.316406 C 341.648438 482.316406 352.957031 476.761719 357.320312 463.667969 C 361.683594 450.574219 358.113281 416.648438 358.113281 416.648438 C 358.113281 416.648438 353.949219 418.433594 347.996094 424.785156 C 342.046875 431.132812 326.171875 447.203125 303.160156 457.519531 C 280.144531 467.835938 261.496094 475.375 232.136719 478.351562 C 202.773438 481.328125 173.210938 479.144531 173.210938 479.144531 L 184.320312 523.1875 Z M 239.871094 523.980469 "/>
<path fill-rule="nonzero" fill="rgb(16.629028%, 17.706299%, 42.858887%)" fill-opacity="1" d="M 114.488281 295.828125 C 114.488281 295.828125 117.265625 271.425781 135.121094 239.882812 C 152.976562 208.335938 190.273438 185.917969 222.015625 178.378906 C 253.757812 170.839844 294.429688 179.371094 320.816406 196.632812 C 347.203125 213.890625 358.113281 228.769531 358.113281 228.769531 L 358.113281 173.417969 C 358.113281 162.109375 357.917969 160.324219 356.132812 157.746094 C 354.34375 155.167969 345.21875 146.4375 345.21875 146.4375 C 345.21875 146.4375 320.617188 162.109375 315.460938 164.890625 C 310.300781 167.667969 305.539062 170.046875 299.390625 166.078125 C 293.242188 162.109375 287.289062 158.144531 275.582031 154.769531 C 263.878906 151.398438 257.332031 150.40625 253.757812 140.484375 C 250.1875 130.566406 244.039062 103.386719 244.039062 103.386719 L 189.679688 103.386719 C 189.679688 103.386719 184.917969 117.867188 182.140625 130.566406 C 179.363281 143.265625 177.179688 146.835938 168.648438 152.984375 C 160.117188 159.136719 140.875 172.824219 128.574219 200.996094 C 116.273438 229.167969 109.527344 265.078125 114.488281 295.828125 "/>
<path fill-rule="nonzero" fill="rgb(89.375305%, 57.266235%, 10.644531%)" fill-opacity="1" d="M 828.515625 486.484375 L 382.90625 486.484375 C 379.089844 486.484375 375.96875 483.363281 375.96875 479.546875 L 375.96875 430.925781 C 375.96875 427.113281 379.089844 423.992188 382.90625 423.992188 L 828.515625 423.992188 C 832.328125 423.992188 835.449219 427.113281 835.449219 430.925781 L 835.449219 479.546875 C 835.449219 483.363281 832.328125 486.484375 828.515625 486.484375 "/>
<path fill-rule="nonzero" fill="rgb(16.629028%, 17.706299%, 42.858887%)" fill-opacity="1" d="M 442.929688 479.402344 L 437.492188 479.402344 C 435.800781 479.460938 434.171875 479.523438 432.480469 479.582031 L 432.238281 479.160156 C 432.238281 474.386719 432.179688 469.554688 432.117188 464.722656 L 432.058594 455.421875 C 431.996094 451.859375 432.058594 448.234375 432.058594 444.671875 C 430.96875 448.902344 429.824219 453.128906 428.675781 457.355469 L 426.257812 466.234375 C 424.992188 470.460938 423.84375 474.75 422.753906 479.039062 L 422.332031 479.402344 L 417.621094 479.402344 C 416.171875 479.460938 414.785156 479.523438 413.394531 479.582031 L 413.035156 479.21875 C 411.703125 474.027344 410.375 468.773438 408.988281 463.636719 L 406.691406 455.0625 C 405.726562 451.496094 404.878906 447.933594 404.035156 444.429688 C 403.972656 448.234375 403.914062 451.980469 403.792969 455.785156 L 403.429688 467.5625 C 403.367188 471.367188 403.25 475.171875 403.25 479.039062 L 402.886719 479.402344 C 401.558594 479.402344 400.230469 479.339844 398.898438 479.402344 C 397.390625 479.402344 395.878906 479.523438 394.371094 479.582031 L 394.070312 479.21875 C 394.671875 471.308594 395.15625 463.394531 395.519531 455.484375 C 395.878906 449.324219 396.121094 443.222656 396.242188 437.121094 L 396.605469 436.757812 L 402.945312 436.757812 L 410.917969 436.578125 L 411.222656 436.941406 C 412.125 440.808594 413.214844 444.671875 414.242188 448.539062 L 415.933594 455.363281 C 416.292969 456.628906 416.65625 457.898438 416.960938 459.167969 C 417.503906 461.523438 418.046875 463.816406 418.589844 466.171875 C 419.554688 462.671875 420.460938 459.167969 421.429688 455.664062 L 423.84375 446.90625 C 424.75 443.644531 425.714844 440.382812 426.621094 437.121094 L 426.984375 436.757812 L 433.203125 436.757812 L 440.996094 436.578125 L 441.359375 436.941406 C 441.480469 445.457031 441.964844 453.972656 442.386719 462.429688 C 442.628906 467.984375 442.867188 473.542969 443.234375 479.039062 Z M 442.929688 479.402344 "/>
<path fill-rule="nonzero" fill="rgb(16.629028%, 17.706299%, 42.858887%)" fill-opacity="1" d="M 468.300781 456.511719 C 467.996094 455.542969 466.910156 453.128906 463.890625 453.128906 C 463.347656 453.128906 462.199219 453.25 461.113281 454.03125 C 458.816406 455.726562 458.695312 458.988281 458.636719 459.589844 C 462.019531 459.589844 465.339844 459.53125 468.722656 459.40625 C 468.660156 458.261719 468.660156 457.539062 468.300781 456.511719 M 476.515625 477.953125 C 474.277344 478.859375 471.378906 480.125 465.886719 480.125 C 463.527344 480.125 461.292969 479.882812 459 479.160156 C 451.691406 476.863281 448.550781 470.703125 448.550781 463.457031 C 448.550781 461.765625 448.667969 456.148438 452.292969 451.800781 C 456.402344 446.847656 462.5 446.664062 464.496094 446.664062 C 466.003906 446.664062 469.929688 446.726562 473.3125 449.5625 C 477.964844 453.371094 478.445312 459.710938 478.445312 465.269531 L 478.085938 465.691406 C 471.5625 465.75 465.097656 465.871094 458.574219 466.054688 C 458.757812 467.019531 458.878906 467.804688 459.300781 468.648438 C 460.570312 471.488281 463.167969 472.394531 464.132812 472.695312 C 465.523438 473.058594 466.972656 473.058594 467.394531 473.058594 C 472.164062 473.058594 475.308594 471.308594 476.875 470.460938 L 477.296875 470.644531 C 477.117188 472.9375 476.996094 475.234375 476.875 477.46875 Z M 476.515625 477.953125 "/>
<path fill-rule="nonzero" fill="rgb(16.629028%, 17.706299%, 42.858887%)" fill-opacity="1" d="M 507.441406 478.617188 C 505.929688 479.097656 503.332031 479.945312 499.34375 479.945312 C 496.085938 479.945312 494.210938 479.402344 492.824219 478.976562 C 485.9375 476.683594 482.496094 470.644531 482.496094 463.636719 C 482.496094 462.003906 482.738281 456.511719 486.238281 452.164062 C 488.171875 449.746094 492.039062 446.664062 499.164062 446.664062 C 502.425781 446.664062 504.84375 447.148438 507.921875 448.234375 L 508.222656 448.65625 C 508.042969 449.867188 507.863281 451.136719 507.679688 452.402344 C 507.5625 453.550781 507.5 454.699219 507.378906 455.84375 L 506.777344 456.027344 C 505.929688 455.421875 503.875 453.851562 500.796875 453.851562 C 498.5 453.851562 497.113281 454.699219 496.386719 455.300781 C 493.183594 457.777344 493.125 462.367188 493.125 463.273438 C 493.125 465.328125 493.609375 472.636719 501.339844 472.636719 C 504.601562 472.636719 506.535156 471.367188 507.621094 470.644531 L 508.105469 471.003906 C 507.984375 473.421875 507.863281 475.835938 507.800781 478.253906 Z M 507.441406 478.617188 "/>
<path fill-rule="nonzero" fill="rgb(16.629028%, 17.706299%, 42.858887%)" fill-opacity="1" d="M 536.734375 479.402344 L 532.207031 479.582031 L 531.839844 479.160156 C 532.023438 473.664062 531.902344 468.105469 531.78125 462.550781 C 531.78125 460.679688 531.78125 457.839844 530.632812 456.148438 C 530.332031 455.605469 529.488281 454.699219 527.796875 454.699219 C 527.191406 454.699219 525.742188 454.941406 524.230469 455.90625 C 523.871094 456.148438 523.871094 456.148438 523.328125 456.570312 C 523.265625 460.796875 523.386719 464.964844 523.507812 469.132812 C 523.570312 472.453125 523.628906 475.714844 523.808594 478.976562 L 523.507812 479.402344 C 521.9375 479.402344 520.425781 479.339844 518.855469 479.402344 C 516.984375 479.402344 515.113281 479.523438 513.242188 479.582031 L 512.9375 479.160156 C 513.058594 474.691406 513.121094 470.28125 513.121094 465.8125 C 513.121094 458.925781 513.121094 451.980469 512.878906 445.09375 C 512.816406 441.109375 512.574219 437.183594 512.214844 433.195312 L 512.515625 432.835938 C 515.898438 432.289062 519.339844 431.746094 522.785156 431.203125 L 523.207031 431.625 C 523.085938 437.785156 523.023438 444.070312 523.023438 450.289062 C 523.992188 449.683594 528.519531 446.664062 533.171875 446.664062 C 533.714844 446.664062 535.164062 446.726562 536.675781 447.269531 C 538.125 447.753906 540.175781 448.902344 541.324219 452.402344 C 542.109375 454.757812 541.988281 456.8125 542.050781 461.582031 L 542.050781 466.113281 C 542.171875 470.402344 542.292969 474.691406 542.53125 478.976562 L 542.109375 479.402344 Z M 536.734375 479.402344 "/>
<path fill-rule="nonzero" fill="rgb(16.629028%, 17.706299%, 42.858887%)" fill-opacity="1" d="M 566.332031 463.699219 C 562.347656 464.121094 559.871094 464.90625 558.601562 466.171875 C 558.179688 466.535156 557.515625 467.382812 557.515625 468.953125 C 557.515625 471.246094 559.207031 472.578125 561.382812 472.578125 C 562.527344 472.578125 564.097656 472.273438 566.332031 471.003906 Z M 576.359375 479.402344 C 574.847656 479.402344 573.398438 479.339844 571.890625 479.402344 C 570.199219 479.402344 568.445312 479.523438 566.757812 479.582031 L 566.394531 479.160156 L 566.394531 476.925781 C 565.125 478.011719 562.46875 480.125 558.058594 480.125 C 557.332031 480.125 555.582031 480.066406 553.710938 479.339844 C 549.660156 477.710938 547.429688 473.902344 547.429688 469.617188 C 547.429688 468.167969 547.730469 466.65625 548.332031 465.390625 C 549.359375 463.09375 551.292969 461.34375 553.46875 460.316406 C 556.003906 459.046875 559.929688 458.082031 566.210938 457.296875 C 566.152344 457.113281 566.210938 455.96875 565.730469 455.121094 C 564.761719 453.550781 561.804688 453.671875 561.742188 453.671875 C 556.96875 453.671875 552.742188 455.484375 551.355469 456.085938 L 550.933594 455.785156 C 551.050781 453.613281 551.113281 451.375 551.234375 449.140625 L 551.597656 448.78125 C 556.125 447.269531 559.207031 446.664062 563.976562 446.664062 C 565.003906 446.664062 568.507812 446.605469 571.648438 448.234375 C 572.191406 448.539062 573.460938 449.203125 574.425781 450.46875 C 576.601562 453.308594 576.417969 458.082031 576.296875 461.402344 L 576.238281 465.871094 C 576.238281 468.710938 576.238281 471.550781 576.359375 474.386719 C 576.417969 475.898438 576.539062 477.46875 576.660156 478.976562 Z M 576.359375 479.402344 "/>
<path fill-rule="nonzero" fill="rgb(16.629028%, 17.706299%, 42.858887%)" fill-opacity="1" d="M 607.164062 479.402344 L 602.632812 479.582031 L 602.269531 479.160156 C 602.453125 473.605469 602.332031 467.984375 602.210938 462.429688 C 602.210938 460.554688 602.269531 457.476562 600.941406 455.84375 C 600.035156 454.757812 598.644531 454.699219 598.226562 454.699219 C 596.050781 454.699219 594.175781 456.269531 593.753906 456.570312 C 593.695312 460.617188 593.816406 464.605469 593.875 468.589844 C 593.933594 472.03125 594.058594 475.535156 594.238281 478.976562 L 593.875 479.402344 C 592.367188 479.402344 590.796875 479.339844 589.285156 479.402344 C 587.472656 479.402344 585.601562 479.523438 583.789062 479.582031 L 583.429688 479.160156 C 583.609375 470.886719 583.667969 462.609375 583.183594 454.335938 C 583.0625 452.464844 582.882812 450.589844 582.703125 448.65625 L 583.125 448.296875 C 584.996094 447.996094 586.867188 447.753906 588.742188 447.390625 C 590.253906 447.148438 591.761719 446.847656 593.210938 446.484375 L 593.875 446.96875 L 593.753906 450.289062 C 596.894531 448.355469 599.734375 446.664062 603.539062 446.664062 C 604.625 446.664062 605.714844 446.847656 606.738281 447.148438 C 608.554688 447.691406 611.089844 449.019531 612.054688 453.550781 C 612.476562 455.484375 612.476562 457.417969 612.476562 461.402344 L 612.476562 466.113281 C 612.601562 470.402344 612.71875 474.691406 612.960938 478.976562 L 612.476562 479.402344 Z M 607.164062 479.402344 "/>
<path fill-rule="nonzero" fill="rgb(16.629028%, 17.706299%, 42.858887%)" fill-opacity="1" d="M 619.546875 442.074219 C 619.609375 440.324219 619.667969 438.570312 619.609375 436.820312 L 619.425781 433.742188 L 619.789062 433.316406 C 623.109375 432.953125 626.371094 432.53125 629.632812 432.109375 L 629.996094 432.472656 C 629.875 435.191406 629.816406 437.910156 629.816406 440.6875 L 629.511719 441.109375 C 627.945312 441.289062 626.492188 441.472656 624.984375 441.714844 C 623.292969 441.953125 621.601562 442.195312 619.96875 442.496094 Z M 624.800781 479.402344 L 619.910156 479.582031 L 619.488281 479.160156 C 619.730469 474.265625 619.910156 469.375 619.910156 464.421875 C 619.910156 460.917969 619.851562 457.476562 619.667969 453.972656 C 619.609375 452.222656 619.425781 450.46875 619.1875 448.65625 L 619.609375 448.296875 C 623.050781 447.753906 626.554688 447.148438 629.996094 446.484375 L 630.417969 446.96875 C 630.300781 451.800781 630.238281 456.632812 630.238281 461.402344 C 630.238281 467.261719 630.359375 473.121094 630.722656 478.976562 L 630.300781 479.402344 Z M 624.800781 479.402344 "/>
<path fill-rule="nonzero" fill="rgb(16.629028%, 17.706299%, 42.858887%)" fill-opacity="1" d="M 660.921875 478.617188 C 659.410156 479.097656 656.8125 479.945312 652.828125 479.945312 C 649.566406 479.945312 647.691406 479.402344 646.304688 478.976562 C 639.417969 476.683594 635.976562 470.644531 635.976562 463.636719 C 635.976562 462.003906 636.21875 456.511719 639.722656 452.164062 C 641.652344 449.746094 645.519531 446.664062 652.648438 446.664062 C 655.90625 446.664062 658.324219 447.148438 661.402344 448.234375 L 661.703125 448.65625 C 661.523438 449.867188 661.34375 451.136719 661.160156 452.402344 C 661.042969 453.550781 660.980469 454.699219 660.859375 455.84375 L 660.257812 456.027344 C 659.410156 455.421875 657.359375 453.851562 654.277344 453.851562 C 651.980469 453.851562 650.59375 454.699219 649.867188 455.300781 C 646.667969 457.777344 646.605469 462.367188 646.605469 463.273438 C 646.605469 465.328125 647.089844 472.636719 654.820312 472.636719 C 658.082031 472.636719 660.015625 471.367188 661.101562 470.644531 L 661.585938 471.003906 C 661.464844 473.421875 661.34375 475.835938 661.28125 478.253906 Z M 660.921875 478.617188 "/>
<path fill-rule="nonzero" fill="rgb(16.629028%, 17.706299%, 42.858887%)" fill-opacity="1" d="M 683.332031 463.699219 C 679.34375 464.121094 676.867188 464.90625 675.601562 466.171875 C 675.175781 466.535156 674.511719 467.382812 674.511719 468.953125 C 674.511719 471.246094 676.203125 472.578125 678.378906 472.578125 C 679.523438 472.578125 681.09375 472.273438 683.332031 471.003906 Z M 693.355469 479.402344 C 691.847656 479.402344 690.394531 479.339844 688.886719 479.402344 C 687.195312 479.402344 685.445312 479.523438 683.753906 479.582031 L 683.390625 479.160156 L 683.390625 476.925781 C 682.121094 478.011719 679.464844 480.125 675.054688 480.125 C 674.332031 480.125 672.578125 480.066406 670.707031 479.339844 C 666.660156 477.710938 664.425781 473.902344 664.425781 469.617188 C 664.425781 468.167969 664.726562 466.65625 665.332031 465.390625 C 666.359375 463.09375 668.292969 461.34375 670.464844 460.316406 C 673.003906 459.046875 676.929688 458.082031 683.210938 457.296875 C 683.148438 457.113281 683.210938 455.96875 682.726562 455.121094 C 681.761719 453.550781 678.800781 453.671875 678.738281 453.671875 C 673.96875 453.671875 669.742188 455.484375 668.351562 456.085938 L 667.929688 455.785156 C 668.050781 453.613281 668.109375 451.375 668.230469 449.140625 L 668.59375 448.78125 C 673.125 447.269531 676.203125 446.664062 680.976562 446.664062 C 682 446.664062 685.503906 446.605469 688.644531 448.234375 C 689.1875 448.539062 690.457031 449.203125 691.425781 450.46875 C 693.597656 453.308594 693.417969 458.082031 693.296875 461.402344 L 693.234375 465.871094 C 693.234375 468.710938 693.234375 471.550781 693.355469 474.386719 C 693.417969 475.898438 693.539062 477.46875 693.65625 478.976562 Z M 693.355469 479.402344 "/>
<path fill-rule="nonzero" fill="rgb(16.629028%, 17.706299%, 42.858887%)" fill-opacity="1" d="M 700.183594 479.160156 C 700.425781 474.207031 700.542969 469.195312 700.542969 464.179688 C 700.542969 459.289062 700.484375 454.394531 700.425781 449.445312 C 700.363281 445.578125 700.304688 441.773438 700.0625 437.910156 L 699.699219 433.195312 L 700 432.835938 C 703.382812 432.351562 706.828125 431.804688 710.269531 431.203125 L 710.691406 431.625 C 710.511719 436.757812 710.328125 441.953125 710.328125 447.148438 C 710.328125 452.945312 710.453125 458.746094 710.570312 464.484375 C 710.632812 469.375 710.753906 474.207031 710.996094 478.976562 L 710.570312 479.402344 C 707.25 479.402344 703.867188 479.460938 700.484375 479.582031 Z M 700.183594 479.160156 "/>
<path fill-rule="nonzero" fill="rgb(16.629028%, 17.706299%, 42.858887%)" fill-opacity="1" d="M 761.128906 479.402344 C 756.054688 479.402344 750.980469 479.339844 745.90625 479.402344 C 742.707031 479.460938 739.445312 479.523438 736.242188 479.582031 L 735.941406 479.21875 C 736.121094 471.429688 736.003906 463.699219 736.0625 455.90625 C 736.0625 451.980469 736.0625 448.054688 736.003906 444.128906 C 735.941406 441.773438 735.820312 439.476562 735.699219 437.121094 L 736.0625 436.757812 L 740.953125 436.757812 C 742.945312 436.699219 744.882812 436.640625 746.8125 436.578125 L 747.175781 436.941406 C 746.753906 445.941406 746.691406 455 746.691406 464.0625 C 746.691406 466.535156 746.753906 469.074219 746.753906 471.546875 C 749.53125 471.546875 752.308594 471.546875 755.085938 471.429688 C 757.261719 471.308594 759.4375 471.1875 761.609375 471.128906 L 761.910156 471.429688 C 761.730469 473.964844 761.609375 476.503906 761.429688 479.039062 Z M 761.128906 479.402344 "/>
<path fill-rule="nonzero" fill="rgb(16.629028%, 17.706299%, 42.858887%)" fill-opacity="1" d="M 783.476562 479.402344 C 780.15625 480.066406 778.402344 480.125 776.773438 480.125 C 773.996094 480.125 771.578125 479.644531 769.644531 477.46875 C 768.558594 476.199219 768.195312 475.113281 768.015625 474.507812 C 767.53125 472.816406 767.652344 469.980469 767.652344 469.796875 L 767.652344 463.9375 L 767.832031 454.335938 C 766.625 454.335938 765.355469 454.394531 764.027344 454.457031 L 763.726562 454.09375 C 763.90625 451.917969 764.085938 449.808594 764.269531 447.632812 L 764.632812 447.332031 C 765.71875 447.332031 766.804688 447.390625 767.832031 447.449219 C 767.894531 444.914062 767.832031 442.4375 767.773438 439.902344 L 768.074219 439.476562 C 769.828125 439.054688 771.519531 438.632812 773.269531 438.148438 C 774.65625 437.726562 776.109375 437.304688 777.558594 436.878906 L 777.980469 437.242188 L 777.796875 447.390625 C 779.851562 447.390625 781.84375 447.449219 783.839844 447.390625 L 784.199219 447.753906 C 783.957031 449.925781 783.777344 452.039062 783.59375 454.214844 L 783.234375 454.578125 C 781.421875 454.457031 779.609375 454.394531 777.796875 454.335938 L 777.675781 462.851562 C 777.675781 464.605469 777.617188 466.417969 777.675781 468.167969 C 777.738281 469.980469 777.917969 471.128906 778.339844 471.851562 C 779.066406 473 780.878906 473.058594 781.242188 473.058594 C 782.027344 473.058594 782.628906 472.9375 784.019531 472.453125 L 784.5 472.816406 C 784.261719 474.871094 784.082031 476.921875 783.898438 478.976562 Z M 783.476562 479.402344 "/>
<path fill-rule="nonzero" fill="rgb(16.629028%, 17.706299%, 42.858887%)" fill-opacity="1" d="M 809.023438 460.554688 C 809.023438 458.503906 809.023438 456.449219 808.964844 454.394531 C 807.9375 454.273438 807.632812 454.273438 807.03125 454.273438 C 806.125 454.273438 803.832031 454.273438 801.835938 455.90625 C 800.144531 457.296875 798.816406 459.710938 798.816406 464.363281 C 798.816406 470.339844 801.59375 472.757812 804.675781 472.757812 C 805.824219 472.757812 806.910156 472.515625 808.84375 471.308594 C 808.902344 467.742188 809.023438 464.117188 809.023438 460.554688 M 813.796875 479.402344 C 812.285156 479.460938 810.714844 479.523438 809.144531 479.582031 L 808.84375 479.160156 L 808.964844 476.867188 C 807.632812 478.132812 805.339844 480.125 800.929688 480.125 C 799.242188 480.125 795.253906 479.882812 791.929688 476.382812 C 790.121094 474.386719 788.1875 470.945312 788.1875 464.90625 C 788.1875 463.15625 788.1875 457.71875 791.628906 453.1875 C 793.804688 450.230469 797.847656 447.148438 805.882812 447.148438 C 806.96875 447.148438 807.996094 447.207031 809.023438 447.148438 C 809.023438 444.371094 809.085938 441.589844 808.964844 438.753906 C 808.902344 436.882812 808.785156 435.007812 808.601562 433.078125 L 808.964844 432.773438 C 812.226562 432.289062 815.546875 431.746094 818.929688 431.144531 L 819.292969 431.566406 C 818.929688 442.136719 818.871094 452.644531 818.871094 463.214844 C 818.871094 468.53125 818.929688 473.785156 819.292969 479.039062 L 818.929688 479.402344 Z M 813.796875 479.402344 "/>
<path fill-rule="nonzero" fill="rgb(16.629028%, 17.706299%, 42.858887%)" fill-opacity="1" d="M 462.445312 411.027344 L 445.117188 411.027344 L 429.464844 411.585938 L 428.535156 410.46875 C 429.652344 382.519531 429.839844 354.761719 429.839844 327 C 429.839844 319.171875 429.839844 311.535156 429.652344 303.710938 C 419.59375 303.894531 409.53125 304.082031 399.46875 304.453125 L 398.539062 303.523438 C 398.910156 295.882812 399.46875 288.246094 399.84375 280.605469 L 400.960938 279.300781 C 418.289062 279.300781 435.242188 279.117188 452.570312 279.300781 C 466.171875 279.300781 479.773438 279.300781 493.1875 279.117188 L 494.121094 280.046875 C 493.558594 287.6875 493.1875 295.324219 492.8125 303.148438 L 491.699219 304.269531 C 482.007812 303.894531 472.320312 303.523438 462.816406 303.523438 C 462.445312 312.652344 462.257812 321.78125 462.257812 330.910156 C 462.257812 343.023438 462.445312 355.320312 462.632812 367.429688 C 462.816406 381.589844 463.003906 395.75 463.5625 409.910156 Z M 462.445312 411.027344 "/>
<path fill-rule="nonzero" fill="rgb(16.629028%, 17.706299%, 42.858887%)" fill-opacity="1" d="M 589.703125 411.027344 C 562.5 411.027344 535.109375 411.214844 507.722656 411.402344 L 506.792969 410.097656 C 507.535156 392.957031 507.722656 375.8125 507.722656 358.484375 L 507.722656 319.917969 C 507.722656 306.691406 507.351562 293.648438 506.417969 280.605469 L 507.535156 279.488281 C 534.925781 279.488281 562.128906 279.300781 589.332031 279.117188 L 590.261719 280.234375 C 589.703125 287.5 589.140625 294.578125 588.957031 301.847656 L 587.839844 302.964844 C 571.816406 302.589844 555.980469 302.40625 540.140625 302.40625 C 539.957031 312.28125 539.957031 322.15625 540.140625 332.027344 C 555.234375 332.027344 570.140625 331.84375 585.046875 331.285156 L 586.160156 332.589844 C 585.601562 339.667969 585.230469 346.5625 584.859375 353.640625 L 583.738281 354.761719 C 569.207031 354.574219 554.675781 354.386719 540.140625 354.574219 C 540.140625 365.566406 540.328125 376.375 540.515625 387.179688 C 550.390625 387.179688 560.453125 386.992188 570.324219 386.804688 C 577.40625 386.621094 584.484375 386.246094 591.566406 385.875 L 592.496094 387.179688 C 591.9375 394.816406 591.566406 402.269531 591.191406 409.910156 Z M 589.703125 411.027344 "/>
<path fill-rule="nonzero" fill="rgb(16.629028%, 17.706299%, 42.858887%)" fill-opacity="1" d="M 702.613281 407.300781 C 696.464844 409.910156 686.40625 413.820312 670.195312 413.820312 C 666.28125 413.820312 656.410156 413.636719 645.789062 410.097656 C 617.09375 400.40625 603.496094 374.695312 603.496094 346.003906 C 603.496094 338.921875 604.238281 315.074219 620.078125 296.816406 C 627.34375 288.429688 641.875 276.695312 668.332031 276.695312 C 685.097656 276.695312 697.023438 280.976562 702.988281 283.402344 L 703.917969 284.519531 C 703.175781 293.089844 702.613281 301.472656 702.054688 310.042969 L 700.378906 310.417969 C 696.28125 307.25 687.894531 301.472656 674.105469 301.472656 C 666.65625 301.472656 661.625 303.335938 658.644531 304.640625 C 643.179688 311.90625 638.335938 330.167969 638.335938 345.628906 C 638.335938 350.660156 638.519531 370.410156 653.425781 381.589844 C 661.8125 387.738281 670.753906 388.109375 674.480469 388.109375 C 678.394531 388.109375 688.082031 387.363281 697.769531 381.777344 C 699.820312 380.472656 701.683594 379.167969 703.546875 377.675781 L 704.851562 378.421875 C 704.292969 387.738281 703.917969 397.054688 703.546875 406.183594 Z M 702.613281 407.300781 "/>
<path fill-rule="nonzero" fill="rgb(16.629028%, 17.706299%, 42.858887%)" fill-opacity="1" d="M 836.578125 411.027344 L 818.878906 411.027344 C 813.476562 411.214844 808.261719 411.402344 802.855469 411.585938 L 802.109375 410.46875 C 802.671875 396.308594 802.855469 381.964844 802.855469 367.800781 C 802.855469 362.957031 802.855469 357.925781 802.671875 352.898438 C 787.765625 352.339844 772.859375 352.339844 757.953125 353.082031 C 758.140625 366.3125 758.140625 379.355469 758.699219 392.394531 C 758.886719 398.171875 759.070312 404.132812 759.445312 409.910156 L 758.515625 411.027344 L 743.792969 411.027344 C 737.644531 411.027344 731.3125 411.402344 725.164062 411.585938 L 724.230469 410.46875 C 724.789062 396.679688 724.976562 383.078125 724.976562 369.292969 C 724.976562 357.742188 724.789062 346.375 724.601562 334.824219 C 724.417969 316.753906 724.046875 298.679688 723.113281 280.605469 L 724.230469 279.488281 L 741.929688 279.488281 C 747.148438 279.300781 752.363281 279.117188 757.394531 278.929688 L 758.328125 280.046875 C 758.140625 290.109375 758.140625 300.167969 757.953125 310.230469 L 757.953125 329.234375 C 768.199219 329.421875 778.261719 329.421875 788.511719 329.234375 C 793.167969 329.234375 797.824219 329.234375 802.484375 328.863281 C 802.484375 312.839844 801.925781 296.816406 800.992188 280.605469 L 801.925781 279.488281 L 816.832031 279.488281 C 822.792969 279.300781 828.941406 279.117188 834.902344 278.929688 L 835.835938 280.046875 C 835.460938 303.523438 835.460938 327.183594 835.648438 350.847656 C 835.835938 370.597656 836.394531 390.160156 837.511719 409.910156 Z M 836.578125 411.027344 "/>
<path fill-rule="nonzero" fill="rgb(16.629028%, 17.706299%, 42.858887%)" fill-opacity="1" d="M 256.335938 419.464844 C 229.65625 419.464844 206.859375 413.4375 188.578125 401.546875 C 161.222656 383.753906 146.15625 352.695312 146.15625 314.09375 C 146.15625 295.359375 150.277344 248.875 188.449219 221.917969 C 215.15625 203.0625 244.441406 203.0625 254.066406 203.0625 C 283.453125 203.0625 303.144531 210.210938 317.015625 216.4375 L 318.214844 216.976562 L 320.683594 221.285156 L 320.503906 222.640625 C 318.867188 234.902344 317.4375 247.792969 316.265625 260.957031 L 316.042969 263.492188 L 309.367188 265.988281 L 307.070312 264.339844 C 299.929688 259.203125 285.074219 248.507812 262.296875 248.507812 C 250 248.507812 232.785156 251.683594 220.601562 266.8125 C 211.714844 277.761719 207.023438 293.71875 207.023438 312.964844 C 207.023438 332.890625 212.210938 345.105469 215.304688 350.609375 C 218.460938 356.117188 222.660156 360.25 224.011719 361.371094 L 224.191406 361.527344 C 232.148438 368.984375 242.011719 372.609375 254.347656 372.609375 C 261.019531 372.375 265.871094 371.5625 271.964844 370.078125 C 272.15625 362.421875 272.125 354.695312 271.878906 347.058594 C 271.675781 339.1875 271.042969 331.410156 270.375 323.179688 C 270.117188 320 269.855469 316.792969 269.617188 313.542969 L 269.496094 311.910156 L 273.175781 307.507812 L 275.066406 307.507812 C 290.929688 307.507812 307.113281 307.222656 323.167969 306.660156 L 325.601562 306.574219 L 328.519531 311.664062 L 328.484375 312.8125 C 327.972656 328.320312 327.878906 345.476562 328.203125 365.261719 C 328.203125 376.894531 328.46875 388.015625 328.75 399.792969 L 328.796875 401.738281 L 326.363281 405.980469 L 324.414062 406.6875 C 312.109375 411.152344 289.203125 419.464844 256.335938 419.464844 "/>
<path fill-rule="nonzero" fill="rgb(89.375305%, 57.266235%, 10.644531%)" fill-opacity="1" d="M 323.59375 402.6875 C 311.105469 407.214844 288.96875 415.425781 256.335938 415.425781 C 246.6875 415.425781 216.890625 415.140625 190.78125 398.160156 C 151.617188 372.683594 150.199219 327.964844 150.199219 314.09375 C 150.199219 301.074219 151.902344 252.675781 190.78125 225.21875 C 216.035156 207.386719 243.566406 207.105469 254.066406 207.105469 C 284.429688 207.105469 304.011719 215.03125 315.363281 220.125 L 316.5 222.105469 C 314.796875 234.84375 313.375 247.863281 312.242188 260.601562 L 309.972656 261.449219 C 302.878906 256.355469 286.984375 244.46875 262.296875 244.46875 C 254.347656 244.46875 232.496094 245.597656 217.457031 264.28125 C 202.984375 282.109375 202.984375 307.300781 202.984375 312.964844 C 202.984375 332.492188 207.808594 345.511719 211.78125 352.589844 C 215.1875 358.53125 219.726562 363.0625 221.429688 364.476562 C 230.792969 373.25 241.863281 376.648438 254.347656 376.648438 C 262.578125 376.363281 268.253906 375.230469 275.917969 373.25 C 276.199219 364.476562 276.199219 355.703125 275.917969 346.929688 C 275.632812 335.890625 274.496094 324.851562 273.648438 313.246094 L 275.066406 311.546875 C 290.957031 311.546875 307.132812 311.265625 323.308594 310.699219 L 324.445312 312.679688 C 323.878906 329.945312 323.878906 347.777344 324.160156 365.328125 C 324.160156 377.214844 324.445312 388.816406 324.730469 400.707031 Z M 323.59375 402.6875 "/>
<path fill-rule="nonzero" fill="rgb(16.629028%, 17.706299%, 42.858887%)" fill-opacity="1" d="M 399.386719 370.433594 C 381.316406 370.246094 363.242188 370.0625 345.542969 370.621094 L 344.609375 369.503906 C 345.167969 362.238281 345.542969 355.15625 345.726562 348.078125 L 347.03125 346.957031 C 357.652344 347.144531 368.085938 346.957031 378.707031 346.957031 C 386.160156 347.144531 393.425781 346.957031 400.878906 346.769531 L 401.808594 347.890625 C 401.25 354.96875 400.878906 362.050781 400.503906 369.316406 Z M 399.386719 370.433594 "/>
<path fill-rule="nonzero" fill="rgb(16.629028%, 17.706299%, 42.858887%)" fill-opacity="1" d="M 498.078125 73.179688 C 498.078125 73.179688 584.859375 62.191406 673.285156 70.433594 C 761.714844 78.671875 819.386719 101.1875 819.386719 101.1875 L 819.386719 123.160156 C 819.386719 123.160156 738.648438 95.695312 679.328125 85.261719 C 620.011719 74.824219 498.078125 73.179688 498.078125 73.179688 "/>
<path fill-rule="nonzero" fill="rgb(89.375305%, 57.266235%, 10.644531%)" fill-opacity="1" d="M 594.378906 90.203125 C 594.378906 90.203125 657.359375 94.597656 690.3125 102.289062 C 723.269531 109.976562 742.675781 121.328125 742.675781 121.328125 L 742.675781 134.144531 C 742.675781 134.144531 708.988281 114.003906 672.738281 104.851562 C 636.488281 95.699219 594.378906 90.203125 594.378906 90.203125 "/>
</svg>
