<svg xmlns="http://www.w3.org/2000/svg" 
                    viewBox="34.496094 334.71875 697.234375 550.589844" 
                    width="697.234375" 
                    height="550.589844"
                    data-content-extracted="true"
                    data-original-bounds="34.496094,334.71875,731.730469,885.308594">
                      
<path fill-rule="nonzero" fill="rgb(69.441223%, 12.850952%, 10.951233%)" fill-opacity="1" d="M 439.980469 389.511719 L 451.320312 389.511719 L 445.648438 373.417969 Z M 453.527344 395.667969 L 437.777344 395.667969 L 434.3125 405.546875 L 427.640625 405.546875 L 442.128906 366.203125 L 449.425781 366.203125 L 463.921875 405.546875 L 457.042969 405.546875 "/>
<path fill-rule="nonzero" fill="rgb(69.441223%, 12.850952%, 10.951233%)" fill-opacity="1" d="M 474.332031 405.546875 L 468.242188 405.546875 L 468.242188 378.523438 L 474.171875 378.523438 L 474.171875 382.125 C 475.851562 379.019531 478.898438 377.742188 481.734375 377.742188 C 487.984375 377.742188 490.980469 382.515625 490.980469 388.453125 L 490.980469 405.546875 L 484.890625 405.546875 L 484.890625 389.566406 C 484.890625 386.238281 483.460938 383.570312 479.628906 383.570312 C 476.167969 383.570312 474.332031 386.402344 474.332031 389.957031 "/>
<path fill-rule="nonzero" fill="rgb(69.441223%, 12.850952%, 10.951233%)" fill-opacity="1" d="M 511.410156 378.523438 L 517.453125 378.523438 L 517.453125 405.546875 L 511.410156 405.546875 Z M 514.40625 364.816406 C 516.617188 364.816406 518.398438 366.699219 518.398438 369.027344 C 518.398438 371.367188 516.617188 373.199219 514.40625 373.199219 C 512.25 373.199219 510.46875 371.367188 510.46875 369.027344 C 510.46875 366.699219 512.25 364.816406 514.40625 364.816406 "/>
<path fill-rule="nonzero" fill="rgb(69.441223%, 12.850952%, 10.951233%)" fill-opacity="1" d="M 528.382812 396.671875 C 528.589844 399.113281 530.324219 401.269531 533.578125 401.269531 C 536.097656 401.269531 537.410156 399.835938 537.410156 398.164062 C 537.410156 396.726562 536.46875 395.613281 534.417969 395.167969 L 530.640625 394.285156 C 526.117188 393.230469 523.75 390.121094 523.75 386.40625 C 523.75 381.683594 527.851562 377.691406 533.15625 377.691406 C 540.296875 377.691406 542.609375 382.574219 543.023438 385.234375 L 537.878906 386.796875 C 537.671875 385.234375 536.566406 382.746094 533.15625 382.746094 C 531 382.746094 529.488281 384.179688 529.488281 385.851562 C 529.488281 387.289062 530.476562 388.34375 532.050781 388.675781 L 535.9375 389.511719 C 540.765625 390.617188 543.285156 393.722656 543.285156 397.726562 C 543.285156 401.828125 540.136719 406.375 533.632812 406.375 C 526.222656 406.375 523.390625 401.269531 523.074219 398.21875 "/>
<path fill-rule="nonzero" fill="rgb(69.441223%, 12.850952%, 10.951233%)" fill-opacity="1" d="M 549.335938 405.546875 L 555.433594 405.546875 L 555.433594 365.371094 L 549.335938 365.371094 Z M 549.335938 405.546875 "/>
<path fill-rule="nonzero" fill="rgb(69.441223%, 12.850952%, 10.951233%)" fill-opacity="1" d="M 577.796875 394.335938 L 577.796875 393.117188 L 571.132812 394.164062 C 569.242188 394.507812 567.722656 395.617188 567.722656 397.835938 C 567.722656 399.667969 569.027344 401.328125 571.449219 401.328125 C 574.855469 401.328125 577.796875 399.609375 577.796875 394.335938 M 569.34375 390.066406 L 575.910156 389.011719 C 577.375 388.785156 577.796875 388.015625 577.796875 387.066406 C 577.796875 384.792969 576.332031 382.960938 572.96875 382.960938 C 569.765625 382.960938 567.984375 385.125 567.722656 387.84375 L 562.148438 386.511719 C 562.617188 381.847656 566.617188 377.691406 572.914062 377.691406 C 580.792969 377.691406 583.78125 382.40625 583.78125 387.785156 L 583.78125 401.21875 C 583.78125 403.660156 584.039062 405.265625 584.09375 405.542969 L 578.429688 405.542969 C 578.371094 405.378906 578.164062 404.269531 578.164062 402.109375 C 576.960938 404.15625 574.441406 406.378906 570.289062 406.378906 C 564.9375 406.378906 561.625 402.492188 561.625 398.222656 C 561.625 393.394531 564.988281 390.734375 569.34375 390.066406 "/>
<path fill-rule="nonzero" fill="rgb(69.441223%, 12.850952%, 10.951233%)" fill-opacity="1" d="M 597.234375 405.546875 L 591.144531 405.546875 L 591.144531 378.523438 L 597.070312 378.523438 L 597.070312 382.125 C 598.753906 379.019531 601.800781 377.742188 604.636719 377.742188 C 610.886719 377.742188 613.878906 382.515625 613.878906 388.453125 L 613.878906 405.546875 L 607.792969 405.546875 L 607.792969 389.566406 C 607.792969 386.238281 606.371094 383.570312 602.53125 383.570312 C 599.066406 383.570312 597.234375 386.402344 597.234375 389.957031 "/>
<path fill-rule="nonzero" fill="rgb(69.441223%, 12.850952%, 10.951233%)" fill-opacity="1" d="M 632.265625 400.550781 C 636.257812 400.550781 639.039062 397.054688 639.039062 391.894531 C 639.039062 386.734375 636.304688 383.511719 632.320312 383.511719 C 628.328125 383.511719 625.386719 386.789062 625.386719 391.949219 C 625.386719 397.113281 628.121094 400.550781 632.265625 400.550781 M 644.914062 400.609375 C 644.914062 403.050781 645.128906 405.105469 645.183594 405.542969 L 639.355469 405.542969 C 639.246094 404.933594 639.09375 403.15625 639.09375 402.054688 C 637.878906 404.324219 635.207031 406.210938 631.585938 406.210938 C 624.234375 406.210938 619.296875 400.105469 619.296875 391.949219 C 619.296875 384.175781 624.289062 377.800781 631.476562 377.800781 C 635.945312 377.800781 638.195312 379.964844 638.984375 381.6875 L 638.984375 365.375 L 644.914062 365.375 "/>
<path fill-rule="nonzero" fill="rgb(69.441223%, 12.850952%, 10.951233%)" fill-opacity="1" d="M 449.429688 447.03125 C 449.429688 441.425781 446.074219 438.546875 442.289062 438.546875 C 438.5625 438.546875 435.152344 441.425781 435.152344 447.03125 C 435.152344 452.632812 438.5625 455.636719 442.289062 455.636719 C 446.074219 455.636719 449.429688 452.6875 449.429688 447.03125 M 455.578125 447.03125 C 455.578125 455.359375 449.949219 461.40625 442.289062 461.40625 C 434.679688 461.40625 429.058594 455.359375 429.058594 447.03125 C 429.058594 438.765625 434.679688 432.71875 442.289062 432.71875 C 449.949219 432.71875 455.578125 438.765625 455.578125 447.03125 "/>
<path fill-rule="nonzero" fill="rgb(69.441223%, 12.850952%, 10.951233%)" fill-opacity="1" d="M 469.023438 429.996094 L 469.023438 433.550781 L 474.957031 433.550781 L 474.957031 439.148438 L 469.023438 439.148438 L 469.023438 460.570312 L 462.878906 460.570312 L 462.878906 439.148438 L 458.417969 439.148438 L 458.417969 433.550781 L 462.878906 433.550781 L 462.878906 429.824219 C 462.878906 423.78125 466.558594 420.121094 471.800781 420.121094 C 473.339844 420.121094 474.597656 420.453125 475.011719 420.679688 L 475.011719 426.164062 C 474.644531 426.058594 473.960938 425.890625 472.800781 425.890625 C 471.179688 425.890625 469.023438 426.667969 469.023438 429.996094 "/>
<path fill-rule="nonzero" fill="rgb(69.441223%, 12.850952%, 10.951233%)" fill-opacity="1" d="M 495.921875 451.691406 C 496.128906 454.136719 497.863281 456.292969 501.117188 456.292969 C 503.636719 456.292969 504.949219 454.859375 504.949219 453.195312 C 504.949219 451.75 504.007812 450.636719 501.953125 450.191406 L 498.175781 449.308594 C 493.65625 448.253906 491.289062 445.144531 491.289062 441.429688 C 491.289062 436.714844 495.390625 432.722656 500.695312 432.722656 C 507.835938 432.722656 510.148438 437.597656 510.5625 440.257812 L 505.417969 441.816406 C 505.210938 440.257812 504.105469 437.769531 500.695312 437.769531 C 498.539062 437.769531 497.027344 439.203125 497.027344 440.875 C 497.027344 442.3125 498.015625 443.367188 499.597656 443.699219 L 503.476562 444.535156 C 508.304688 445.648438 510.824219 448.753906 510.824219 452.746094 C 510.824219 456.855469 507.675781 461.40625 501.171875 461.40625 C 493.769531 461.40625 490.929688 456.292969 490.613281 453.242188 "/>
<path fill-rule="nonzero" fill="rgb(69.441223%, 12.850952%, 10.951233%)" fill-opacity="1" d="M 537.296875 433.550781 L 543.339844 452.246094 L 548.429688 433.550781 L 554.628906 433.550781 L 546.433594 460.570312 L 540.339844 460.570312 L 533.988281 441.152344 L 527.796875 460.570312 L 521.546875 460.570312 L 513.246094 433.550781 L 519.765625 433.550781 L 524.964844 452.246094 L 531 433.550781 "/>
<path fill-rule="nonzero" fill="rgb(69.441223%, 12.850952%, 10.951233%)" fill-opacity="1" d="M 559.257812 433.550781 L 565.292969 433.550781 L 565.292969 460.570312 L 559.257812 460.570312 Z M 562.253906 419.84375 C 564.457031 419.84375 566.242188 421.734375 566.242188 424.0625 C 566.242188 426.394531 564.457031 428.21875 562.253906 428.21875 C 560.101562 428.21875 558.3125 426.394531 558.3125 424.0625 C 558.3125 421.734375 560.101562 419.84375 562.253906 419.84375 "/>
<path fill-rule="nonzero" fill="rgb(69.441223%, 12.850952%, 10.951233%)" fill-opacity="1" d="M 573.179688 460.574219 L 573.179688 433.550781 L 579.007812 433.550781 L 579.007812 436.992188 C 580.480469 434.214844 583.683594 432.773438 586.570312 432.773438 C 589.933594 432.773438 592.867188 434.378906 594.230469 437.542969 C 596.230469 433.996094 599.222656 432.773438 602.523438 432.773438 C 607.15625 432.773438 611.5625 435.878906 611.5625 443.035156 L 611.5625 460.574219 L 605.675781 460.574219 L 605.675781 444.089844 C 605.675781 440.925781 604.160156 438.539062 600.746094 438.539062 C 597.542969 438.539062 595.4375 441.203125 595.4375 444.535156 L 595.4375 460.574219 L 589.457031 460.574219 L 589.457031 444.089844 C 589.457031 440.984375 587.988281 438.539062 584.527344 438.539062 C 581.265625 438.539062 579.214844 441.097656 579.214844 444.535156 L 579.214844 460.574219 "/>
<path fill-rule="nonzero" fill="rgb(69.441223%, 12.850952%, 10.951233%)" fill-opacity="1" d="M 619.03125 460.574219 L 619.03125 433.550781 L 624.859375 433.550781 L 624.859375 436.992188 C 626.324219 434.214844 629.527344 432.773438 632.421875 432.773438 C 635.785156 432.773438 638.71875 434.378906 640.085938 437.542969 C 642.082031 433.996094 645.078125 432.773438 648.378906 432.773438 C 653 432.773438 657.417969 435.878906 657.417969 443.035156 L 657.417969 460.574219 L 651.527344 460.574219 L 651.527344 444.089844 C 651.527344 440.925781 650.007812 438.539062 646.597656 438.539062 C 643.394531 438.539062 641.292969 441.203125 641.292969 444.535156 L 641.292969 460.574219 L 635.3125 460.574219 L 635.3125 444.089844 C 635.3125 440.984375 633.84375 438.539062 630.371094 438.539062 C 627.117188 438.539062 625.066406 441.097656 625.066406 444.535156 L 625.066406 460.574219 "/>
<path fill-rule="nonzero" fill="rgb(69.441223%, 12.850952%, 10.951233%)" fill-opacity="1" d="M 681.683594 444.089844 C 681.582031 440.925781 679.585938 438.101562 675.386719 438.101562 C 671.554688 438.101562 669.351562 441.210938 669.136719 444.089844 Z M 687.519531 452.859375 C 686.152344 457.574219 682.113281 461.40625 675.96875 461.40625 C 669.035156 461.40625 662.894531 456.074219 662.894531 446.921875 C 662.894531 438.378906 668.875 432.722656 675.332031 432.722656 C 683.210938 432.722656 687.835938 438.207031 687.835938 446.757812 C 687.835938 447.804688 687.726562 448.699219 687.671875 448.8125 L 668.984375 448.8125 C 669.136719 452.910156 672.183594 455.855469 675.96875 455.855469 C 679.632812 455.855469 681.53125 453.804688 682.375 451.140625 "/>
<path fill-rule="nonzero" fill="rgb(69.441223%, 12.850952%, 10.951233%)" fill-opacity="1" d="M 708.632812 439.929688 C 707.949219 439.816406 707.265625 439.757812 706.636719 439.757812 C 701.914062 439.757812 699.765625 442.648438 699.765625 447.703125 L 699.765625 460.574219 L 693.667969 460.574219 L 693.667969 433.550781 L 699.59375 433.550781 L 699.59375 437.875 C 700.808594 434.9375 703.648438 433.210938 707.003906 433.210938 C 707.742188 433.210938 708.371094 433.324219 708.632812 433.378906 "/>
<path fill-rule="nonzero" fill="rgb(69.441223%, 12.850952%, 10.951233%)" fill-opacity="1" d="M 716.828125 451.691406 C 717.035156 454.136719 718.769531 456.292969 722.027344 456.292969 C 724.546875 456.292969 725.859375 454.859375 725.859375 453.195312 C 725.859375 451.75 724.914062 450.636719 722.863281 450.191406 L 719.085938 449.308594 C 714.570312 448.253906 712.207031 445.144531 712.207031 441.429688 C 712.207031 436.714844 716.304688 432.722656 721.605469 432.722656 C 728.746094 432.722656 731.0625 437.597656 731.480469 440.257812 L 726.328125 441.816406 C 726.121094 440.257812 725.015625 437.769531 721.605469 437.769531 C 719.453125 437.769531 717.933594 439.203125 717.933594 440.875 C 717.933594 442.3125 718.925781 443.367188 720.507812 443.699219 L 724.382812 444.535156 C 729.222656 445.648438 731.730469 448.753906 731.730469 452.746094 C 731.730469 456.855469 728.585938 461.40625 722.078125 461.40625 C 714.679688 461.40625 711.84375 456.292969 711.53125 453.242188 "/>
<path fill-rule="nonzero" fill="rgb(69.441223%, 12.850952%, 10.951233%)" fill-opacity="1" d="M 183.28125 388.65625 C 184.242188 389.535156 185.292969 390.882812 186.644531 390.914062 C 188.949219 391.199219 191.3125 391.09375 193.632812 391.09375 C 187.597656 384.007812 181.421875 376.980469 175.8125 369.53125 C 184.457031 376.0625 192.703125 383.246094 201.101562 390.128906 C 202.402344 389.753906 203.683594 389.363281 204.972656 389.007812 C 201.625 379.648438 199.023438 369.984375 196.804688 360.265625 C 202.253906 368.851562 207.945312 377.25 213.527344 385.730469 C 217.941406 383.921875 222.234375 381.890625 226.550781 379.796875 C 216.980469 364.914062 207.820312 349.78125 198.425781 334.800781 C 192.578125 337.203125 186.914062 340.132812 181.117188 342.65625 C 182.972656 350.699219 185.300781 358.640625 187.460938 366.601562 C 180.523438 360.71875 173.683594 354.699219 166.878906 348.644531 C 161.597656 350.707031 156.359375 352.035156 150.785156 352.863281 C 161.050781 365.410156 172.03125 377.101562 183.28125 388.65625 "/>
<path fill-rule="nonzero" fill="rgb(69.441223%, 12.850952%, 10.951233%)" fill-opacity="1" d="M 325.214844 380.253906 C 324.09375 383.304688 321.4375 384.546875 318.910156 386.03125 C 314.035156 378.605469 309.25 371.109375 304.460938 363.628906 C 307.554688 361.914062 310.703125 360.023438 314.308594 361.226562 C 317.972656 362.378906 320.828125 366.476562 322.78125 369.753906 C 324.421875 372.84375 326.628906 376.601562 325.214844 380.253906 M 325.476562 350.148438 C 320.914062 347.234375 315.300781 346.511719 310.109375 347.4375 C 305.074219 348.394531 300.996094 350.828125 296.511719 353.246094 C 292.65625 355.414062 288.65625 357.296875 284.777344 359.421875 C 294.269531 374.433594 303.667969 389.503906 313.289062 404.429688 C 317.105469 402.21875 320.929688 400.011719 324.777344 397.847656 C 328.484375 395.6875 332.414062 393.5625 335.386719 390.308594 C 338.484375 386.890625 340.671875 382.535156 340.746094 377.722656 C 341 371.660156 338.742188 366.394531 335.773438 361.378906 C 333.121094 357.054688 329.714844 352.792969 325.476562 350.148438 "/>
<path fill-rule="nonzero" fill="rgb(69.441223%, 12.850952%, 10.951233%)" fill-opacity="1" d="M 130.304688 403.453125 C 128.277344 391.46875 125.457031 379.644531 121.65625 368.144531 C 129.710938 377.550781 137.144531 387.621094 144.644531 397.511719 C 149.347656 395.695312 154.160156 394.25 159.003906 392.894531 C 155.398438 383.992188 150.71875 375.644531 145.351562 367.820312 C 141.882812 362.847656 138.058594 358.132812 134.464844 353.246094 C 133.605469 352.214844 132.996094 351.054688 131.644531 350.789062 C 128.9375 350.042969 126.140625 349.628906 123.40625 349.050781 C 128.890625 357.085938 134.363281 364.800781 138.390625 373.835938 C 132.160156 367.246094 126.210938 360.386719 119.882812 353.902344 C 117.894531 352.003906 116.183594 349.507812 113.917969 347.988281 C 110.355469 347.84375 106.753906 348.242188 103.203125 348.605469 C 107.90625 359.113281 111.550781 370.101562 114.070312 381.414062 C 107.199219 370.976562 100.125 360.746094 92.769531 350.691406 C 87.203125 351.964844 81.914062 353.855469 76.582031 355.933594 C 89.140625 374.085938 101.140625 392.644531 112.980469 411.316406 C 118.710938 408.582031 124.46875 405.9375 130.304688 403.453125 "/>
<path fill-rule="nonzero" fill="rgb(69.441223%, 12.850952%, 10.951233%)" fill-opacity="1" d="M 170.390625 389.441406 C 173.777344 389.582031 177.171875 389.703125 180.558594 389.929688 C 172.441406 381.425781 163.933594 373.292969 156.070312 364.53125 C 152.378906 360.765625 148.945312 356.746094 145.351562 352.894531 C 141.917969 352.699219 138.539062 352.089844 135.144531 351.433594 C 147.09375 363.945312 159.308594 376.019531 170.390625 389.441406 "/>
<path fill-rule="nonzero" fill="rgb(69.441223%, 12.850952%, 10.951233%)" fill-opacity="1" d="M 73.320312 425.976562 C 78.027344 424.582031 82.445312 422.886719 86.253906 419.519531 C 90.867188 415.511719 93.929688 409.554688 93.746094 403.144531 C 93.746094 398.054688 91.84375 393.277344 88.945312 389.28125 C 86.542969 386.03125 82.851562 384.179688 79.003906 383.75 C 73.613281 383.171875 68.5 384.519531 63.347656 385.980469 C 60.945312 386.605469 58.125 387.402344 55.644531 386.945312 C 53.019531 386.417969 51.972656 382.425781 53.664062 380.382812 C 55.230469 378.3125 58.039062 377.21875 60.484375 377.265625 C 62.902344 377.5 63.984375 379.203125 65.398438 381.015625 C 70.863281 378.636719 76.355469 376.308594 81.789062 373.859375 C 79.601562 369.566406 76.890625 365.824219 72.683594 363.609375 C 67.007812 360.589844 60.53125 361.480469 54.683594 363.421875 C 48.089844 365.644531 41.269531 369.710938 37.632812 376.160156 C 34.867188 380.851562 34.496094 386.761719 36.464844 391.847656 C 38.746094 397.796875 42.421875 402.90625 48.605469 404.472656 C 54.492188 405.894531 60 404.636719 65.734375 403.183594 C 68.09375 402.664062 70.902344 401.804688 73.289062 402.390625 C 76.230469 403.160156 76.960938 408.011719 74.609375 409.902344 C 72.316406 411.988281 68.761719 413.132812 65.804688 412.304688 C 63.59375 411.664062 62.554688 409.953125 61.203125 408.183594 C 55.820312 410.234375 50.410156 412.191406 45.003906 414.1875 C 47.335938 418.449219 50.125 422.203125 54.324219 424.527344 C 60.289062 427.894531 66.925781 427.78125 73.320312 425.976562 "/>
<path fill-rule="nonzero" fill="rgb(69.441223%, 12.850952%, 10.951233%)" fill-opacity="1" d="M 267.175781 368.660156 C 271.882812 376.417969 276.796875 384.046875 281.441406 391.835938 C 272.789062 386.253906 264.339844 380.296875 255.75 374.59375 C 250.890625 377.230469 245.914062 379.613281 241.066406 382.285156 C 250.703125 397.605469 260.433594 412.902344 270.589844 427.847656 C 274.371094 426.089844 278.007812 424.074219 281.6875 422.121094 C 276.050781 413.179688 270.175781 404.390625 264.746094 395.316406 C 274.792969 401.824219 284.757812 408.464844 294.816406 414.960938 C 298.847656 412.59375 302.917969 410.289062 307.019531 408.066406 C 297.503906 392.929688 287.992188 377.804688 278.484375 362.671875 C 274.746094 364.742188 270.992188 366.753906 267.175781 368.660156 "/>
<path fill-rule="nonzero" fill="rgb(69.441223%, 12.850952%, 10.951233%)" fill-opacity="1" d="M 233.695312 420.582031 C 231.074219 416.296875 228.59375 411.945312 226.382812 407.402344 C 226.09375 406.753906 225.785156 406.113281 225.492188 405.464844 C 225.984375 405.902344 226.476562 406.347656 226.96875 406.785156 C 231.253906 410.804688 235.558594 414.820312 239.761719 418.925781 C 237.75 419.574219 235.753906 420.117188 233.695312 420.582031 M 225.714844 389.777344 C 220.519531 392.058594 215.34375 394.203125 209.945312 395.882812 C 212.023438 400.285156 214.335938 404.5625 216.894531 408.679688 C 222.828125 418.449219 230.339844 426.910156 236.3125 436.65625 C 239.105469 436.59375 241.910156 436.496094 244.703125 436.300781 C 243.109375 434.078125 241.480469 431.886719 239.828125 429.710938 C 243.03125 429.28125 246.101562 428.625 249.195312 427.664062 C 251.632812 429.792969 253.957031 432.039062 256.34375 434.214844 C 260.433594 432.753906 264.402344 431 268.300781 429.035156 C 256.285156 417.960938 244.238281 406.925781 232.304688 395.742188 C 230.117188 393.753906 228.011719 391.636719 225.714844 389.777344 "/>
<path fill-rule="nonzero" fill="rgb(69.441223%, 12.850952%, 10.951233%)" fill-opacity="1" d="M 214.566406 428.378906 C 208.207031 419.183594 201.164062 410.617188 193.679688 402.429688 C 191.765625 400.472656 190.132812 398.015625 187.96875 396.40625 C 184.625 396.089844 181.203125 396.40625 177.839844 396.261719 C 178.246094 396.789062 178.652344 397.316406 179.058594 397.859375 C 190.777344 412.75 200.007812 429.246094 208.238281 446.5 C 217 442.621094 225.898438 438.675781 235.273438 436.890625 C 232.304688 433.449219 229.398438 429.9375 226.367188 426.535156 C 222.34375 426.59375 218.464844 427.363281 214.566406 428.378906 "/>
<path fill-rule="nonzero" fill="rgb(69.441223%, 12.850952%, 10.951233%)" fill-opacity="1" d="M 174.839844 444.886719 C 173.671875 442.046875 172.511719 439.207031 171.421875 436.335938 C 176.632812 433.914062 181.917969 431.644531 187.167969 429.316406 C 185.15625 425.25 183.160156 421.160156 181.035156 417.164062 C 175.960938 419.105469 170.980469 421.289062 165.984375 423.398438 C 164.753906 420.777344 163.566406 418.140625 162.429688 415.472656 C 168.3125 412.90625 174.324219 410.765625 180.410156 408.792969 C 177.96875 404.824219 175.476562 400.832031 172.664062 397.132812 C 161.46875 399.265625 150.519531 404.085938 139.960938 408.460938 C 148.085938 427.660156 155.089844 447.433594 162.636719 466.902344 C 176.058594 461.539062 189.203125 455.355469 202.289062 449.136719 C 200.277344 444.519531 198.132812 439.96875 196.046875 435.390625 C 188.949219 438.492188 181.910156 441.730469 174.839844 444.886719 "/>
<path fill-rule="nonzero" fill="rgb(69.441223%, 12.850952%, 10.951233%)" fill-opacity="1" d="M 123.996094 442.082031 C 122.675781 445.742188 118.070312 446.339844 115.007812 447.671875 C 113.464844 443.523438 111.941406 439.371094 110.429688 435.210938 C 113.140625 434.242188 116.027344 432.554688 118.90625 432.425781 C 122.984375 432.636719 125.378906 438.445312 123.996094 442.082031 M 141.765625 440.6875 C 143.226562 435.378906 141.480469 429.40625 139.023438 424.730469 C 136.515625 420.027344 132.335938 416.453125 127.140625 415.894531 C 121.28125 415.082031 115.703125 416.511719 110.324219 418.890625 C 102.757812 422.339844 95.050781 425.390625 87.363281 428.519531 C 94.496094 447.429688 102.453125 465.988281 109.816406 484.78125 C 115.664062 482.964844 121.503906 481.0625 127.339844 479.171875 C 125.058594 472.542969 122.15625 466.164062 119.789062 459.566406 C 120.558594 459.332031 121.300781 459.105469 122.0625 458.886719 C 128.007812 464.300781 134.070312 469.566406 139.945312 475.050781 C 146.28125 473.015625 152.539062 470.675781 158.75 468.25 C 151.601562 461.800781 144.40625 455.421875 137.296875 448.90625 C 139.222656 446.347656 141.027344 443.9375 141.765625 440.6875 "/>
<path fill-rule="nonzero" fill="rgb(69.441223%, 12.850952%, 10.951233%)" fill-opacity="1" d="M 78.8125 431.726562 C 72.882812 433.675781 66.921875 435.523438 60.980469 437.398438 C 67.0625 451.957031 73.042969 466.546875 78.386719 481.429688 C 79.847656 485.300781 81.113281 489.230469 82.640625 493.066406 C 88.871094 491.214844 95.121094 489.472656 101.324219 487.523438 C 98.070312 478.539062 94.328125 469.84375 90.789062 460.972656 C 86.910156 451.171875 82.789062 441.488281 78.8125 431.726562 "/>
<path fill-rule="nonzero" fill="rgb(69.441223%, 12.850952%, 10.951233%)" fill-opacity="1" d="M 384.277344 498.378906 L 387.742188 498.378906 L 387.742188 334.71875 L 384.277344 334.71875 Z M 384.277344 498.378906 "/>
<path fill-rule="nonzero" fill="rgb(69.441223%, 12.850952%, 10.951233%)" fill-opacity="1" d="M 45.519531 661.898438 L 45.519531 568.144531 L 62.789062 568.144531 L 62.789062 644.441406 L 102.324219 644.441406 L 102.324219 661.898438 "/>
<path fill-rule="nonzero" fill="rgb(69.441223%, 12.850952%, 10.951233%)" fill-opacity="1" d="M 115.578125 661.898438 L 133.09375 661.898438 L 133.09375 568.144531 L 115.578125 568.144531 Z M 115.578125 661.898438 "/>
<path fill-rule="nonzero" fill="rgb(69.441223%, 12.850952%, 10.951233%)" fill-opacity="1" d="M 153.355469 661.898438 L 153.355469 568.144531 L 209.414062 568.144531 L 209.414062 585.46875 L 170.625 585.46875 L 170.625 608.605469 L 205.15625 608.605469 L 205.15625 625.402344 L 170.746094 625.402344 L 170.746094 661.898438 "/>
<path fill-rule="nonzero" fill="rgb(69.441223%, 12.850952%, 10.951233%)" fill-opacity="1" d="M 223.660156 661.898438 L 223.660156 568.144531 L 279.21875 568.144531 L 279.21875 585.332031 L 240.929688 585.332031 L 240.929688 606.753906 L 275.589844 606.753906 L 275.589844 623.019531 L 240.929688 623.019531 L 240.929688 644.707031 L 279.21875 644.707031 L 279.21875 661.898438 "/>
<path fill-rule="nonzero" fill="rgb(69.441223%, 12.850952%, 10.951233%)" fill-opacity="1" d="M 362.660156 661.898438 L 361.53125 651.1875 C 357.527344 657.53125 348.769531 663.878906 335.382812 663.878906 C 311.480469 663.878906 291.085938 645.367188 291.085938 615.085938 C 291.085938 584.804688 312.480469 566.160156 336.507812 566.160156 C 359.777344 566.160156 372.664062 580.574219 377.046875 594.984375 L 360.53125 601.203125 C 358.277344 592.871094 350.894531 583.21875 336.507812 583.21875 C 323.117188 583.21875 308.601562 592.871094 308.601562 615.085938 C 308.601562 636.242188 321.742188 647.21875 336.628906 647.21875 C 353.023438 647.21875 359.40625 635.582031 360.40625 628.972656 L 332.378906 628.972656 L 332.378906 613.101562 L 376.671875 613.101562 L 376.671875 661.898438 "/>
<path fill-rule="nonzero" fill="rgb(69.441223%, 12.850952%, 10.951233%)" fill-opacity="1" d="M 393.164062 628.707031 L 393.164062 568.144531 L 410.433594 568.144531 L 410.433594 627.382812 C 410.433594 639.683594 416.9375 646.160156 427.195312 646.160156 C 437.710938 646.160156 444.089844 639.683594 444.089844 627.382812 L 444.089844 568.144531 L 461.359375 568.144531 L 461.359375 628.707031 C 461.359375 651.714844 446.21875 664.011719 427.195312 664.011719 C 408.304688 664.011719 393.164062 651.714844 393.164062 628.707031 "/>
<path fill-rule="nonzero" fill="rgb(69.441223%, 12.850952%, 10.951233%)" fill-opacity="1" d="M 499.878906 623.8125 L 524.40625 623.8125 L 512.140625 588.375 Z M 530.15625 640.476562 L 494.121094 640.476562 L 486.742188 661.898438 L 468.472656 661.898438 L 502.503906 568.144531 L 522.527344 568.144531 L 556.3125 661.898438 L 537.542969 661.898438 "/>
<path fill-rule="nonzero" fill="rgb(69.441223%, 12.850952%, 10.951233%)" fill-opacity="1" d="M 599.082031 610.0625 C 607.84375 610.0625 612.976562 604.773438 612.976562 597.101562 C 612.976562 589.171875 607.84375 584.011719 599.082031 584.011719 L 585.070312 584.011719 L 585.070312 610.0625 Z M 594.078125 625.796875 L 585.070312 625.796875 L 585.070312 661.898438 L 567.679688 661.898438 L 567.679688 568.144531 L 602.339844 568.144531 C 619.605469 568.144531 630.613281 580.707031 630.613281 596.972656 C 630.613281 610.0625 623.359375 619.980469 611.722656 623.550781 L 630.742188 661.898438 L 611.46875 661.898438 "/>
<path fill-rule="nonzero" fill="rgb(69.441223%, 12.850952%, 10.951233%)" fill-opacity="1" d="M 676.894531 644.972656 C 691.40625 644.972656 703.542969 635.453125 703.542969 615.085938 C 703.542969 594.722656 691.53125 585.070312 677.019531 585.070312 L 663.128906 585.070312 L 663.128906 644.972656 Z M 645.863281 661.898438 L 645.863281 568.144531 L 677.640625 568.144531 C 702.917969 568.144531 721.4375 585.464844 721.4375 615.085938 C 721.4375 644.707031 702.796875 661.898438 677.519531 661.898438 "/>
<path fill-rule="nonzero" fill="rgb(100%, 100%, 100%)" fill-opacity="1" d="M 439.980469 776.441406 L 451.320312 776.441406 L 445.648438 760.351562 Z M 453.527344 782.601562 L 437.777344 782.601562 L 434.3125 792.476562 L 427.640625 792.476562 L 442.128906 753.136719 L 449.425781 753.136719 L 463.921875 792.476562 L 457.042969 792.476562 "/>
<path fill-rule="nonzero" fill="rgb(100%, 100%, 100%)" fill-opacity="1" d="M 474.332031 792.476562 L 468.242188 792.476562 L 468.242188 765.453125 L 474.171875 765.453125 L 474.171875 769.058594 C 475.851562 765.949219 478.898438 764.675781 481.734375 764.675781 C 487.984375 764.675781 490.980469 769.445312 490.980469 775.386719 L 490.980469 792.476562 L 484.890625 792.476562 L 484.890625 776.496094 C 484.890625 773.171875 483.460938 770.5 479.628906 770.5 C 476.167969 770.5 474.332031 773.335938 474.332031 776.886719 "/>
<path fill-rule="nonzero" fill="rgb(100%, 100%, 100%)" fill-opacity="1" d="M 511.410156 765.453125 L 517.453125 765.453125 L 517.453125 792.476562 L 511.410156 792.476562 Z M 514.40625 751.75 C 516.617188 751.75 518.398438 753.632812 518.398438 755.960938 C 518.398438 758.296875 516.617188 760.132812 514.40625 760.132812 C 512.25 760.132812 510.46875 758.296875 510.46875 755.960938 C 510.46875 753.632812 512.25 751.75 514.40625 751.75 "/>
<path fill-rule="nonzero" fill="rgb(100%, 100%, 100%)" fill-opacity="1" d="M 528.382812 783.601562 C 528.589844 786.042969 530.324219 788.203125 533.578125 788.203125 C 536.097656 788.203125 537.410156 786.765625 537.410156 785.09375 C 537.410156 783.65625 536.46875 782.546875 534.417969 782.101562 L 530.640625 781.214844 C 526.117188 780.160156 523.75 777.050781 523.75 773.335938 C 523.75 768.613281 527.851562 764.621094 533.15625 764.621094 C 540.296875 764.621094 542.609375 769.507812 543.023438 772.167969 L 537.878906 773.726562 C 537.671875 772.167969 536.566406 769.675781 533.15625 769.675781 C 531 769.675781 529.488281 771.113281 529.488281 772.785156 C 529.488281 774.21875 530.476562 775.273438 532.050781 775.609375 L 535.9375 776.445312 C 540.765625 777.546875 543.285156 780.65625 543.285156 784.65625 C 543.285156 788.761719 540.136719 793.304688 533.632812 793.304688 C 526.222656 793.304688 523.390625 788.203125 523.074219 785.152344 "/>
<path fill-rule="nonzero" fill="rgb(100%, 100%, 100%)" fill-opacity="1" d="M 549.335938 792.476562 L 555.433594 792.476562 L 555.433594 752.300781 L 549.335938 752.300781 Z M 549.335938 792.476562 "/>
<path fill-rule="nonzero" fill="rgb(100%, 100%, 100%)" fill-opacity="1" d="M 577.796875 781.265625 L 577.796875 780.050781 L 571.132812 781.097656 C 569.242188 781.4375 567.722656 782.550781 567.722656 784.765625 C 567.722656 786.597656 569.027344 788.261719 571.449219 788.261719 C 574.855469 788.261719 577.796875 786.542969 577.796875 781.265625 M 569.34375 777 L 575.910156 775.945312 C 577.375 775.71875 577.796875 774.945312 577.796875 773.996094 C 577.796875 771.722656 576.332031 769.890625 572.96875 769.890625 C 569.765625 769.890625 567.984375 772.058594 567.722656 774.773438 L 562.148438 773.445312 C 562.617188 768.777344 566.617188 764.625 572.914062 764.625 C 580.792969 764.625 583.78125 769.339844 583.78125 774.71875 L 583.78125 788.148438 C 583.78125 790.589844 584.039062 792.199219 584.09375 792.472656 L 578.429688 792.472656 C 578.371094 792.3125 578.164062 791.199219 578.164062 789.039062 C 576.960938 791.085938 574.441406 793.308594 570.289062 793.308594 C 564.9375 793.308594 561.625 789.421875 561.625 785.152344 C 561.625 780.324219 564.988281 777.664062 569.34375 777 "/>
<path fill-rule="nonzero" fill="rgb(100%, 100%, 100%)" fill-opacity="1" d="M 597.234375 792.476562 L 591.144531 792.476562 L 591.144531 765.453125 L 597.070312 765.453125 L 597.070312 769.058594 C 598.753906 765.949219 601.800781 764.675781 604.636719 764.675781 C 610.886719 764.675781 613.878906 769.445312 613.878906 775.386719 L 613.878906 792.476562 L 607.792969 792.476562 L 607.792969 776.496094 C 607.792969 773.171875 606.371094 770.5 602.53125 770.5 C 599.066406 770.5 597.234375 773.335938 597.234375 776.886719 "/>
<path fill-rule="nonzero" fill="rgb(100%, 100%, 100%)" fill-opacity="1" d="M 632.265625 787.484375 C 636.257812 787.484375 639.039062 783.984375 639.039062 778.824219 C 639.039062 773.664062 636.304688 770.441406 632.320312 770.441406 C 628.328125 770.441406 625.386719 773.722656 625.386719 778.882812 C 625.386719 784.042969 628.121094 787.484375 632.265625 787.484375 M 644.914062 787.539062 C 644.914062 789.984375 645.128906 792.035156 645.183594 792.472656 L 639.355469 792.472656 C 639.246094 791.867188 639.09375 790.089844 639.09375 788.984375 C 637.878906 791.257812 635.207031 793.140625 631.585938 793.140625 C 624.234375 793.140625 619.296875 787.035156 619.296875 778.882812 C 619.296875 771.109375 624.289062 764.730469 631.476562 764.730469 C 635.945312 764.730469 638.195312 766.898438 638.984375 768.617188 L 638.984375 752.308594 L 644.914062 752.308594 "/>
<path fill-rule="nonzero" fill="rgb(100%, 100%, 100%)" fill-opacity="1" d="M 449.429688 833.964844 C 449.429688 828.359375 446.074219 825.476562 442.289062 825.476562 C 438.5625 825.476562 435.152344 828.359375 435.152344 833.964844 C 435.152344 839.5625 438.5625 842.566406 442.289062 842.566406 C 446.074219 842.566406 449.429688 839.621094 449.429688 833.964844 M 455.578125 833.964844 C 455.578125 842.289062 449.949219 848.335938 442.289062 848.335938 C 434.679688 848.335938 429.058594 842.289062 429.058594 833.964844 C 429.058594 825.695312 434.679688 819.648438 442.289062 819.648438 C 449.949219 819.648438 455.578125 825.695312 455.578125 833.964844 "/>
<path fill-rule="nonzero" fill="rgb(100%, 100%, 100%)" fill-opacity="1" d="M 469.023438 816.925781 L 469.023438 820.480469 L 474.957031 820.480469 L 474.957031 826.082031 L 469.023438 826.082031 L 469.023438 847.503906 L 462.878906 847.503906 L 462.878906 826.082031 L 458.417969 826.082031 L 458.417969 820.480469 L 462.878906 820.480469 L 462.878906 816.757812 C 462.878906 810.710938 466.558594 807.050781 471.800781 807.050781 C 473.339844 807.050781 474.597656 807.382812 475.011719 807.613281 L 475.011719 813.097656 C 474.644531 812.992188 473.960938 812.820312 472.800781 812.820312 C 471.179688 812.820312 469.023438 813.601562 469.023438 816.925781 "/>
<path fill-rule="nonzero" fill="rgb(100%, 100%, 100%)" fill-opacity="1" d="M 495.921875 838.625 C 496.128906 841.066406 497.863281 843.226562 501.117188 843.226562 C 503.636719 843.226562 504.949219 841.789062 504.949219 840.125 C 504.949219 838.679688 504.007812 837.570312 501.953125 837.121094 L 498.175781 836.238281 C 493.65625 835.183594 491.289062 832.074219 491.289062 828.359375 C 491.289062 823.644531 495.390625 819.652344 500.695312 819.652344 C 507.835938 819.652344 510.148438 824.527344 510.5625 827.191406 L 505.417969 828.75 C 505.210938 827.191406 504.105469 824.699219 500.695312 824.699219 C 498.539062 824.699219 497.027344 826.136719 497.027344 827.808594 C 497.027344 829.242188 498.015625 830.296875 499.597656 830.632812 L 503.476562 831.46875 C 508.304688 832.578125 510.824219 835.6875 510.824219 839.679688 C 510.824219 843.785156 507.675781 848.335938 501.171875 848.335938 C 493.769531 848.335938 490.929688 843.226562 490.613281 840.175781 "/>
<path fill-rule="nonzero" fill="rgb(100%, 100%, 100%)" fill-opacity="1" d="M 537.296875 820.480469 L 543.339844 839.175781 L 548.429688 820.480469 L 554.628906 820.480469 L 546.433594 847.503906 L 540.339844 847.503906 L 533.988281 828.085938 L 527.796875 847.503906 L 521.546875 847.503906 L 513.246094 820.480469 L 519.765625 820.480469 L 524.964844 839.175781 L 531 820.480469 "/>
<path fill-rule="nonzero" fill="rgb(100%, 100%, 100%)" fill-opacity="1" d="M 559.257812 820.480469 L 565.292969 820.480469 L 565.292969 847.5 L 559.257812 847.5 Z M 562.253906 806.773438 C 564.457031 806.773438 566.242188 808.664062 566.242188 810.996094 C 566.242188 813.324219 564.457031 815.148438 562.253906 815.148438 C 560.101562 815.148438 558.3125 813.324219 558.3125 810.996094 C 558.3125 808.664062 560.101562 806.773438 562.253906 806.773438 "/>
<path fill-rule="nonzero" fill="rgb(100%, 100%, 100%)" fill-opacity="1" d="M 573.179688 847.503906 L 573.179688 820.480469 L 579.007812 820.480469 L 579.007812 823.921875 C 580.480469 821.148438 583.683594 819.703125 586.570312 819.703125 C 589.933594 819.703125 592.867188 821.308594 594.230469 824.472656 C 596.230469 820.929688 599.222656 819.703125 602.523438 819.703125 C 607.15625 819.703125 611.5625 822.8125 611.5625 829.96875 L 611.5625 847.503906 L 605.675781 847.503906 L 605.675781 831.023438 C 605.675781 827.859375 604.160156 825.472656 600.746094 825.472656 C 597.542969 825.472656 595.4375 828.136719 595.4375 831.46875 L 595.4375 847.503906 L 589.457031 847.503906 L 589.457031 831.023438 C 589.457031 827.914062 587.988281 825.472656 584.527344 825.472656 C 581.265625 825.472656 579.214844 828.027344 579.214844 831.46875 L 579.214844 847.503906 "/>
<path fill-rule="nonzero" fill="rgb(100%, 100%, 100%)" fill-opacity="1" d="M 619.03125 847.503906 L 619.03125 820.480469 L 624.859375 820.480469 L 624.859375 823.921875 C 626.324219 821.148438 629.527344 819.703125 632.421875 819.703125 C 635.785156 819.703125 638.71875 821.308594 640.085938 824.472656 C 642.082031 820.929688 645.078125 819.703125 648.378906 819.703125 C 653 819.703125 657.417969 822.8125 657.417969 829.96875 L 657.417969 847.503906 L 651.527344 847.503906 L 651.527344 831.023438 C 651.527344 827.859375 650.007812 825.472656 646.597656 825.472656 C 643.394531 825.472656 641.292969 828.136719 641.292969 831.46875 L 641.292969 847.503906 L 635.3125 847.503906 L 635.3125 831.023438 C 635.3125 827.914062 633.84375 825.472656 630.371094 825.472656 C 627.117188 825.472656 625.066406 828.027344 625.066406 831.46875 L 625.066406 847.503906 "/>
<path fill-rule="nonzero" fill="rgb(100%, 100%, 100%)" fill-opacity="1" d="M 681.683594 831.019531 C 681.582031 827.855469 679.585938 825.03125 675.386719 825.03125 C 671.554688 825.03125 669.351562 828.140625 669.136719 831.019531 Z M 687.519531 839.792969 C 686.152344 844.507812 682.113281 848.339844 675.96875 848.339844 C 669.035156 848.339844 662.894531 843.007812 662.894531 833.851562 C 662.894531 825.308594 668.875 819.652344 675.332031 819.652344 C 683.210938 819.652344 687.835938 825.136719 687.835938 833.691406 C 687.835938 834.738281 687.726562 835.628906 687.671875 835.742188 L 668.984375 835.742188 C 669.136719 839.84375 672.183594 842.785156 675.96875 842.785156 C 679.632812 842.785156 681.53125 840.734375 682.375 838.070312 "/>
<path fill-rule="nonzero" fill="rgb(100%, 100%, 100%)" fill-opacity="1" d="M 708.632812 826.859375 C 707.949219 826.746094 707.265625 826.691406 706.636719 826.691406 C 701.914062 826.691406 699.765625 829.578125 699.765625 834.632812 L 699.765625 847.503906 L 693.667969 847.503906 L 693.667969 820.480469 L 699.59375 820.480469 L 699.59375 824.808594 C 700.808594 821.871094 703.648438 820.140625 707.003906 820.140625 C 707.742188 820.140625 708.371094 820.253906 708.632812 820.3125 "/>
<path fill-rule="nonzero" fill="rgb(100%, 100%, 100%)" fill-opacity="1" d="M 716.828125 838.625 C 717.035156 841.066406 718.769531 843.226562 722.027344 843.226562 C 724.546875 843.226562 725.859375 841.789062 725.859375 840.125 C 725.859375 838.679688 724.914062 837.570312 722.863281 837.121094 L 719.085938 836.238281 C 714.570312 835.183594 712.207031 832.074219 712.207031 828.359375 C 712.207031 823.644531 716.304688 819.652344 721.605469 819.652344 C 728.746094 819.652344 731.0625 824.527344 731.480469 827.191406 L 726.328125 828.75 C 726.121094 827.191406 725.015625 824.699219 721.605469 824.699219 C 719.453125 824.699219 717.933594 826.136719 717.933594 827.808594 C 717.933594 829.242188 718.925781 830.296875 720.507812 830.632812 L 724.382812 831.46875 C 729.222656 832.578125 731.730469 835.6875 731.730469 839.679688 C 731.730469 843.785156 728.585938 848.335938 722.078125 848.335938 C 714.679688 848.335938 711.84375 843.226562 711.53125 840.175781 "/>
<path fill-rule="nonzero" fill="rgb(100%, 100%, 100%)" fill-opacity="1" d="M 183.28125 775.589844 C 184.242188 776.464844 185.292969 777.8125 186.644531 777.847656 C 188.949219 778.128906 191.3125 778.023438 193.632812 778.023438 C 187.597656 770.9375 181.421875 763.910156 175.8125 756.464844 C 184.457031 762.996094 192.703125 770.175781 201.101562 777.058594 C 202.402344 776.683594 203.683594 776.296875 204.972656 775.9375 C 201.625 766.582031 199.023438 756.917969 196.804688 747.195312 C 202.253906 755.78125 207.945312 764.179688 213.527344 772.660156 C 217.941406 770.851562 222.234375 768.820312 226.550781 766.726562 C 216.980469 751.847656 207.820312 736.710938 198.425781 721.730469 C 192.578125 724.136719 186.914062 727.0625 181.117188 729.589844 C 182.972656 737.628906 185.300781 745.574219 187.460938 753.535156 C 180.523438 747.648438 173.683594 741.628906 166.878906 735.574219 C 161.597656 737.636719 156.359375 738.96875 150.785156 739.796875 C 161.050781 752.339844 172.03125 764.035156 183.28125 775.589844 "/>
<path fill-rule="nonzero" fill="rgb(100%, 100%, 100%)" fill-opacity="1" d="M 325.214844 767.183594 C 324.09375 770.234375 321.4375 771.476562 318.910156 772.964844 C 314.035156 765.535156 309.25 758.039062 304.460938 750.558594 C 307.554688 748.847656 310.703125 746.953125 314.308594 748.15625 C 317.972656 749.308594 320.828125 753.40625 322.78125 756.683594 C 324.421875 759.777344 326.628906 763.53125 325.214844 767.183594 M 325.476562 737.078125 C 320.914062 734.167969 315.300781 733.445312 310.109375 734.371094 C 305.074219 735.328125 300.996094 737.761719 296.511719 740.179688 C 292.65625 742.347656 288.65625 744.230469 284.777344 746.355469 C 294.269531 761.367188 303.667969 776.4375 313.289062 791.359375 C 317.105469 789.152344 320.929688 786.945312 324.777344 784.777344 C 328.484375 782.617188 332.414062 780.492188 335.386719 777.238281 C 338.484375 773.824219 340.671875 769.464844 340.746094 764.652344 C 341 758.59375 338.742188 753.324219 335.773438 748.308594 C 333.121094 743.984375 329.714844 739.726562 325.476562 737.078125 "/>
<path fill-rule="nonzero" fill="rgb(100%, 100%, 100%)" fill-opacity="1" d="M 130.304688 790.382812 C 128.277344 778.398438 125.457031 766.574219 121.65625 755.078125 C 129.710938 764.480469 137.144531 774.550781 144.644531 784.445312 C 149.347656 782.628906 154.160156 781.183594 159.003906 779.828125 C 155.398438 770.925781 150.71875 762.574219 145.351562 754.753906 C 141.882812 749.777344 138.058594 745.0625 134.464844 740.179688 C 133.605469 739.148438 132.996094 737.988281 131.644531 737.71875 C 128.9375 736.972656 126.140625 736.558594 123.40625 735.984375 C 128.890625 744.015625 134.363281 751.734375 138.390625 760.765625 C 132.160156 754.175781 126.210938 747.320312 119.882812 740.835938 C 117.894531 738.9375 116.183594 736.4375 113.917969 734.921875 C 110.355469 734.773438 106.753906 735.171875 103.203125 735.535156 C 107.90625 746.046875 111.550781 757.03125 114.070312 768.34375 C 107.199219 757.910156 100.125 747.675781 92.769531 737.621094 C 87.203125 738.894531 81.914062 740.785156 76.582031 742.863281 C 89.140625 761.019531 101.140625 779.574219 112.980469 798.246094 C 118.710938 795.511719 124.46875 792.867188 130.304688 790.382812 "/>
<path fill-rule="nonzero" fill="rgb(100%, 100%, 100%)" fill-opacity="1" d="M 170.390625 776.375 C 173.777344 776.511719 177.171875 776.632812 180.558594 776.859375 C 172.441406 768.355469 163.933594 760.226562 156.070312 751.460938 C 152.378906 747.695312 148.945312 743.679688 145.351562 739.824219 C 141.917969 739.632812 138.539062 739.023438 135.144531 738.363281 C 147.09375 750.878906 159.308594 762.953125 170.390625 776.375 "/>
<path fill-rule="nonzero" fill="rgb(100%, 100%, 100%)" fill-opacity="1" d="M 73.320312 812.910156 C 78.027344 811.515625 82.445312 809.816406 86.253906 806.449219 C 90.867188 802.441406 93.929688 796.484375 93.746094 790.074219 C 93.746094 784.988281 91.84375 780.207031 88.945312 776.214844 C 86.542969 772.960938 82.851562 771.109375 79.003906 770.679688 C 73.613281 770.105469 68.5 771.453125 63.347656 772.910156 C 60.945312 773.535156 58.125 774.332031 55.644531 773.878906 C 53.019531 773.351562 51.972656 769.359375 53.664062 767.3125 C 55.230469 765.242188 58.039062 764.148438 60.484375 764.195312 C 62.902344 764.433594 63.984375 766.136719 65.398438 767.945312 C 70.863281 765.566406 76.355469 763.238281 81.789062 760.789062 C 79.601562 756.496094 76.890625 752.753906 72.683594 750.539062 C 67.007812 747.519531 60.53125 748.414062 54.683594 750.355469 C 48.089844 752.578125 41.269531 756.644531 37.632812 763.09375 C 34.867188 767.785156 34.496094 773.691406 36.464844 778.78125 C 38.746094 784.726562 42.421875 789.839844 48.605469 791.40625 C 54.492188 792.824219 60 791.566406 65.734375 790.117188 C 68.09375 789.597656 70.902344 788.734375 73.289062 789.320312 C 76.230469 790.089844 76.960938 794.941406 74.609375 796.835938 C 72.316406 798.921875 68.761719 800.0625 65.804688 799.238281 C 63.59375 798.59375 62.554688 796.882812 61.203125 795.113281 C 55.820312 797.167969 50.410156 799.121094 45.003906 801.117188 C 47.335938 805.378906 50.125 809.136719 54.324219 811.457031 C 60.289062 814.824219 66.925781 814.710938 73.320312 812.910156 "/>
<path fill-rule="nonzero" fill="rgb(100%, 100%, 100%)" fill-opacity="1" d="M 267.175781 755.589844 C 271.882812 763.351562 276.796875 770.976562 281.441406 778.765625 C 272.789062 773.183594 264.339844 767.230469 255.75 761.523438 C 250.890625 764.160156 245.914062 766.546875 241.066406 769.214844 C 250.703125 784.535156 260.433594 799.832031 270.589844 814.78125 C 274.371094 813.019531 278.007812 811.007812 281.6875 809.050781 C 276.050781 800.109375 270.175781 791.320312 264.746094 782.246094 C 274.792969 788.757812 284.757812 795.394531 294.816406 801.894531 C 298.847656 799.523438 302.917969 797.21875 307.019531 794.996094 C 297.503906 779.863281 287.992188 764.738281 278.484375 749.601562 C 274.746094 751.671875 270.992188 753.683594 267.175781 755.589844 "/>
<path fill-rule="nonzero" fill="rgb(100%, 100%, 100%)" fill-opacity="1" d="M 233.695312 807.511719 C 231.074219 803.230469 228.59375 798.878906 226.382812 794.335938 C 226.09375 793.6875 225.785156 793.046875 225.492188 792.394531 C 225.984375 792.832031 226.476562 793.28125 226.96875 793.71875 C 231.253906 797.734375 235.558594 801.753906 239.761719 805.859375 C 237.75 806.507812 235.753906 807.050781 233.695312 807.511719 M 225.714844 776.710938 C 220.519531 778.988281 215.34375 781.132812 209.945312 782.8125 C 212.023438 787.21875 214.335938 791.496094 216.894531 795.609375 C 222.828125 805.378906 230.339844 813.84375 236.3125 823.589844 C 239.105469 823.523438 241.910156 823.425781 244.703125 823.230469 C 243.109375 821.007812 241.480469 818.816406 239.828125 816.640625 C 243.03125 816.210938 246.101562 815.554688 249.195312 814.597656 C 251.632812 816.722656 253.957031 818.972656 256.34375 821.144531 C 260.433594 819.683594 264.402344 817.933594 268.300781 815.96875 C 256.285156 804.894531 244.238281 793.855469 232.304688 782.675781 C 230.117188 780.6875 228.011719 778.566406 225.714844 776.710938 "/>
<path fill-rule="nonzero" fill="rgb(100%, 100%, 100%)" fill-opacity="1" d="M 214.566406 815.3125 C 208.207031 806.117188 201.164062 797.546875 193.679688 789.359375 C 191.765625 787.402344 190.132812 784.945312 187.96875 783.339844 C 184.625 783.023438 181.203125 783.339844 177.839844 783.191406 C 178.246094 783.722656 178.652344 784.246094 179.058594 784.789062 C 190.777344 799.683594 200.007812 816.179688 208.238281 833.429688 C 217 829.550781 225.898438 825.609375 235.273438 823.824219 C 232.304688 820.382812 229.398438 816.867188 226.367188 813.46875 C 222.34375 813.527344 218.464844 814.296875 214.566406 815.3125 "/>
<path fill-rule="nonzero" fill="rgb(100%, 100%, 100%)" fill-opacity="1" d="M 174.839844 831.816406 C 173.671875 828.976562 172.511719 826.136719 171.421875 823.265625 C 176.632812 820.847656 181.917969 818.574219 187.167969 816.246094 C 185.15625 812.179688 183.160156 808.089844 181.035156 804.097656 C 175.960938 806.035156 170.980469 808.222656 165.984375 810.328125 C 164.753906 807.710938 163.566406 805.070312 162.429688 802.402344 C 168.3125 799.839844 174.324219 797.695312 180.410156 795.722656 C 177.96875 791.757812 175.476562 787.765625 172.664062 784.0625 C 161.46875 786.195312 150.519531 791.015625 139.960938 795.390625 C 148.085938 814.589844 155.089844 834.367188 162.636719 853.832031 C 176.058594 848.46875 189.203125 842.285156 202.289062 836.070312 C 200.277344 831.453125 198.132812 826.898438 196.046875 822.324219 C 188.949219 825.421875 181.910156 828.660156 174.839844 831.816406 "/>
<path fill-rule="nonzero" fill="rgb(100%, 100%, 100%)" fill-opacity="1" d="M 123.996094 829.011719 C 122.675781 832.671875 118.070312 833.273438 115.007812 834.605469 C 113.464844 830.457031 111.941406 826.300781 110.429688 822.140625 C 113.140625 821.175781 116.027344 819.484375 118.90625 819.355469 C 122.984375 819.566406 125.378906 825.378906 123.996094 829.011719 M 141.765625 827.617188 C 143.226562 822.308594 141.480469 816.339844 139.023438 811.664062 C 136.515625 806.957031 132.335938 803.386719 127.140625 802.824219 C 121.28125 802.015625 115.703125 803.441406 110.324219 805.820312 C 102.757812 809.269531 95.050781 812.320312 87.363281 815.453125 C 94.496094 834.359375 102.453125 852.917969 109.816406 871.710938 C 115.664062 869.894531 121.503906 867.996094 127.339844 866.105469 C 125.058594 859.476562 122.15625 853.097656 119.789062 846.5 C 120.558594 846.265625 121.300781 846.035156 122.0625 845.816406 C 128.007812 851.230469 134.070312 856.496094 139.945312 861.980469 C 146.28125 859.945312 152.539062 857.609375 158.75 855.183594 C 151.601562 848.730469 144.40625 842.351562 137.296875 835.835938 C 139.222656 833.28125 141.027344 830.871094 141.765625 827.617188 "/>
<path fill-rule="nonzero" fill="rgb(100%, 100%, 100%)" fill-opacity="1" d="M 78.8125 818.660156 C 72.882812 820.605469 66.921875 822.457031 60.980469 824.332031 C 67.0625 838.890625 73.042969 853.480469 78.386719 868.359375 C 79.847656 872.230469 81.113281 876.160156 82.640625 879.996094 C 88.871094 878.148438 95.121094 876.402344 101.324219 874.453125 C 98.070312 865.472656 94.328125 856.773438 90.789062 847.902344 C 86.910156 838.101562 82.789062 828.421875 78.8125 818.660156 "/>
<path fill-rule="nonzero" fill="rgb(100%, 100%, 100%)" fill-opacity="1" d="M 384.277344 885.308594 L 387.742188 885.308594 L 387.742188 721.652344 L 384.277344 721.652344 Z M 384.277344 885.308594 "/>

                  </svg>