<svg xmlns="http://www.w3.org/2000/svg" 
                      viewBox="0 0 688.921875 104.507812"
                      preserveAspectRatio="xMidYMid meet"
                      data-content-extracted="true"
                      data-overflow="horizontal:4,vertical:4"
                      data-original-bounds="75.511719,93.699219,760.433594,194.207031">
                        <g transform="translate(-73.511719, -91.699219)">
                          
<path fill-rule="nonzero" fill="rgb(47.842407%, 5.882263%, 18.03894%)" fill-opacity="1" d="M 155.210938 120.574219 L 152.207031 121.65625 C 151.765625 121.8125 151.273438 121.65625 151.007812 121.269531 C 145.351562 112.996094 139.035156 104.964844 129.742188 102.273438 C 113.265625 97.519531 103.671875 108.386719 100.523438 123.433594 C 96.730469 141.492188 98.785156 174.429688 122.34375 178.441406 C 136.070312 180.78125 147.453125 173.363281 154.023438 161.582031 C 154.140625 161.355469 154.429688 161.269531 154.65625 161.402344 L 158.03125 163.347656 C 158.140625 163.40625 158.175781 163.539062 158.140625 163.648438 C 150.382812 184.722656 131.3125 194.207031 109.554688 189.355469 C 94.195312 185.933594 83.953125 173.734375 80.941406 158.542969 C 75.511719 131.140625 88.601562 93.699219 122.90625 95.980469 C 126.632812 96.234375 129.957031 96.820312 132.875 97.769531 C 138.421875 99.570312 142.265625 99.621094 146.660156 97.097656 C 147.019531 96.894531 147.476562 97.0625 147.609375 97.445312 L 155.605469 119.746094 C 155.726562 120.082031 155.546875 120.453125 155.210938 120.574219 Z M 155.210938 120.574219 "/>
<path fill-rule="nonzero" fill="rgb(47.842407%, 5.882263%, 18.03894%)" fill-opacity="1" d="M 209.714844 96.269531 C 218.816406 96.414062 226.609375 98.324219 233.863281 103.523438 C 246.917969 112.902344 253.183594 127.804688 252.933594 143.820312 C 252.691406 159.851562 245.96875 174.539062 232.613281 183.507812 C 225.21875 188.480469 217.363281 190.160156 208.261719 190.019531 C 199.148438 189.871094 191.355469 187.953125 184.113281 182.753906 C 171.050781 173.386719 164.78125 158.484375 165.03125 142.464844 C 165.285156 126.433594 172.011719 111.734375 185.351562 102.777344 C 192.746094 97.808594 200.601562 96.125 209.714844 96.269531 M 184.953125 143.199219 C 185.015625 160.355469 189.722656 185.179688 208.863281 185.117188 C 228.003906 185.058594 232.566406 160.199219 232.507812 143.042969 C 232.445312 125.894531 227.738281 101.0625 208.597656 101.121094 C 189.457031 101.179688 184.894531 126.039062 184.953125 143.199219 Z M 184.953125 143.199219 "/>
<path fill-rule="nonzero" fill="rgb(47.842407%, 5.882263%, 18.03894%)" fill-opacity="1" d="M 263.464844 188.515625 C 263.308594 188.515625 263.1875 188.394531 263.1875 188.238281 L 263.1875 184.15625 C 263.1875 184 263.332031 183.867188 263.488281 183.882812 C 269.226562 184.300781 274.488281 181.058594 274.5 174.816406 C 274.511719 134.433594 274.511719 112.433594 274.5 108.816406 C 274.488281 108.003906 274.1875 107.210938 273.636719 106.609375 C 271.003906 103.761719 267.632812 102.359375 263.523438 102.417969 C 263.34375 102.417969 263.1875 102.261719 263.1875 102.082031 L 263.1875 98.035156 C 263.1875 97.855469 263.34375 97.699219 263.523438 97.699219 L 287.695312 97.699219 C 288.152344 97.699219 288.585938 97.914062 288.859375 98.285156 L 335.730469 162.460938 C 335.957031 162.78125 336.472656 162.613281 336.472656 162.21875 C 336.414062 134.347656 336.425781 118.988281 336.507812 116.132812 C 336.640625 111.628906 336.078125 108.433594 334.816406 106.574219 C 332.929688 103.773438 330.074219 102.359375 326.242188 102.308594 C 326.050781 102.308594 325.894531 102.152344 325.894531 101.949219 L 325.894531 98.058594 C 325.894531 97.867188 326.050781 97.710938 326.230469 97.710938 L 341.863281 97.710938 C 342.238281 97.710938 342.539062 98.011719 342.539062 98.382812 L 342.539062 187.929688 C 342.539062 188.265625 342.273438 188.527344 341.9375 188.527344 L 334.382812 188.527344 C 333.988281 188.527344 333.605469 188.335938 333.363281 188.011719 L 281.222656 116.625 C 280.996094 116.3125 280.515625 116.46875 280.515625 116.851562 C 280.515625 151.542969 280.503906 168.980469 280.492188 169.171875 C 280.214844 174.394531 280.828125 178.046875 282.328125 180.121094 C 284.503906 183.148438 287.863281 184.398438 292.402344 183.882812 C 292.597656 183.855469 292.765625 184 292.765625 184.195312 L 292.765625 188.167969 C 292.765625 188.359375 292.609375 188.515625 292.414062 188.515625 Z M 263.464844 188.515625 "/>
<path fill-rule="nonzero" fill="rgb(47.842407%, 5.882263%, 18.03894%)" fill-opacity="1" d="M 369.746094 183.882812 C 369.964844 183.855469 370.15625 184.027344 370.15625 184.242188 L 370.15625 188.144531 C 370.15625 188.347656 369.988281 188.515625 369.785156 188.515625 L 352.648438 188.515625 C 352.324219 188.515625 352.058594 188.253906 352.058594 187.929688 L 352.058594 98.347656 C 352.058594 98 352.347656 97.710938 352.695312 97.710938 L 365.339844 97.710938 C 365.761719 97.710938 366.15625 97.914062 366.410156 98.25 L 413.589844 162.855469 C 413.792969 163.132812 414.226562 162.988281 414.226562 162.652344 C 414.179688 140.542969 414.179688 125.449219 414.238281 117.367188 C 414.296875 109.191406 412.941406 102.371094 403.777344 102.308594 C 403.5625 102.308594 403.382812 102.128906 403.382812 101.914062 L 403.382812 98.058594 C 403.382812 97.867188 403.539062 97.710938 403.730469 97.710938 L 430.53125 97.710938 C 430.714844 97.710938 430.871094 97.867188 430.871094 98.046875 L 430.871094 101.984375 C 430.871094 102.191406 430.6875 102.359375 430.484375 102.347656 C 422.355469 101.804688 419.808594 108.867188 419.808594 115.675781 C 419.808594 156.636719 419.808594 180.664062 419.796875 187.761719 C 419.796875 188.179688 419.460938 188.527344 419.042969 188.527344 L 412.089844 188.527344 C 411.609375 188.527344 411.152344 188.300781 410.875 187.902344 L 358.398438 116.070312 C 358.21875 115.832031 357.835938 115.949219 357.835938 116.25 C 357.871094 146.296875 357.847656 163.273438 357.777344 167.191406 C 357.609375 176.386719 358.6875 185.058594 369.746094 183.882812 Z M 369.746094 183.882812 "/>
<path fill-rule="nonzero" fill="rgb(47.842407%, 5.882263%, 18.03894%)" fill-opacity="1" d="M 436.296875 97.6875 L 506.113281 97.6875 C 506.605469 97.6875 507.035156 98 507.203125 98.46875 L 514.976562 120.09375 C 515.117188 120.503906 514.902344 120.960938 514.492188 121.101562 L 511.613281 122.136719 C 511.214844 122.269531 510.785156 122.148438 510.53125 121.824219 C 506.507812 116.71875 503.316406 113.105469 500.9375 110.992188 C 493.097656 104.003906 483.5625 101.253906 472.359375 102.742188 C 466.089844 103.570312 464.996094 107.078125 465.058594 112.984375 C 465.105469 118.234375 465.105469 126.9375 465.070312 139.078125 C 465.070312 139.488281 465.367188 139.835938 465.777344 139.871094 C 475.972656 140.878906 488.460938 136.617188 489.601562 125.125 C 489.636719 124.703125 489.996094 124.382812 490.429688 124.382812 L 493.742188 124.382812 C 494.09375 124.382812 494.367188 124.65625 494.367188 125.003906 L 494.367188 159.421875 C 494.367188 159.578125 494.238281 159.710938 494.082031 159.710938 L 490.238281 159.710938 C 489.996094 159.710938 489.804688 159.539062 489.769531 159.3125 C 487.777344 146.609375 476.8125 144.039062 465.574219 144.386719 C 465.320312 144.398438 465.117188 144.613281 465.117188 144.867188 C 465.058594 157.140625 465.070312 167.335938 465.152344 175.453125 C 465.199219 180.613281 467.902344 183.390625 473.269531 183.773438 C 478.277344 184.132812 483.214844 183.773438 488.089844 182.703125 C 499.605469 180.171875 506.664062 173.097656 513.59375 163.792969 C 513.90625 163.371094 514.457031 163.203125 514.964844 163.371094 L 517.988281 164.414062 C 518.386719 164.558594 518.589844 164.980469 518.445312 165.378906 L 510.617188 187.929688 C 510.484375 188.300781 510.136719 188.539062 509.738281 188.539062 L 436.285156 188.539062 C 436.117188 188.539062 435.972656 188.394531 435.972656 188.214844 L 435.972656 184.144531 C 435.972656 183.988281 436.117188 183.855469 436.273438 183.882812 C 446.347656 185.082031 447.859375 179.078125 447.550781 170.023438 C 447.464844 167.5625 447.476562 148.503906 447.574219 112.828125 C 447.597656 105.421875 443.839844 101.949219 436.296875 102.417969 C 436.117188 102.429688 435.960938 102.285156 435.960938 102.105469 L 435.960938 98.023438 C 435.960938 97.84375 436.117188 97.6875 436.296875 97.6875 Z M 436.296875 97.6875 "/>
<path fill-rule="nonzero" fill="rgb(47.842407%, 5.882263%, 18.03894%)" fill-opacity="1" d="M 519.371094 102.128906 L 519.371094 98.046875 C 519.371094 97.855469 519.515625 97.710938 519.707031 97.710938 L 589.460938 97.722656 C 589.941406 97.734375 590.386719 98.046875 590.554688 98.503906 L 598.300781 120.117188 C 598.453125 120.527344 598.238281 120.984375 597.820312 121.128906 L 594.949219 122.160156 C 594.554688 122.292969 594.121094 122.171875 593.867188 121.847656 C 589.847656 116.742188 586.652344 113.128906 584.285156 111.015625 C 576.445312 104.039062 566.933594 101.289062 555.730469 102.765625 C 549.472656 103.59375 548.382812 107.101562 548.429688 112.996094 C 548.476562 118.246094 548.476562 126.9375 548.441406 139.066406 C 548.441406 139.476562 548.742188 139.824219 549.148438 139.859375 C 559.332031 140.878906 571.808594 136.617188 572.949219 125.136719 C 572.996094 124.71875 573.359375 124.394531 573.777344 124.394531 L 577.09375 124.394531 C 577.441406 124.394531 577.71875 124.667969 577.71875 125.015625 L 577.703125 159.410156 C 577.703125 159.566406 577.574219 159.695312 577.417969 159.695312 L 573.574219 159.683594 C 573.347656 159.683594 573.140625 159.515625 573.105469 159.289062 C 571.125 146.597656 560.171875 144.027344 548.945312 144.375 C 548.683594 144.386719 548.488281 144.601562 548.488281 144.855469 C 548.429688 157.113281 548.429688 167.296875 548.515625 175.414062 C 548.5625 180.566406 551.261719 183.339844 556.617188 183.726562 C 561.613281 184.085938 566.550781 183.738281 571.425781 182.667969 C 582.929688 180.136719 589.988281 173.074219 596.917969 163.78125 C 597.230469 163.359375 597.78125 163.179688 598.273438 163.359375 L 601.300781 164.402344 C 601.699219 164.535156 601.902344 164.96875 601.757812 165.363281 L 593.929688 187.890625 C 593.796875 188.253906 593.449219 188.503906 593.050781 188.503906 L 519.671875 188.480469 C 519.488281 188.480469 519.359375 188.335938 519.359375 188.15625 L 519.359375 184.085938 C 519.359375 183.929688 519.503906 183.808594 519.65625 183.820312 C 529.722656 185.023438 531.234375 179.03125 530.921875 169.988281 C 530.851562 167.527344 530.863281 148.480469 530.96875 112.839844 C 530.992188 105.445312 527.234375 101.972656 519.707031 102.441406 C 519.527344 102.441406 519.371094 102.296875 519.371094 102.128906 Z M 519.371094 102.128906 "/>
<path fill-rule="nonzero" fill="rgb(47.842407%, 5.882263%, 18.03894%)" fill-opacity="1" d="M 602.40625 97.710938 L 643.796875 97.710938 C 644.097656 97.710938 644.339844 97.964844 644.339844 98.261719 L 644.339844 101.867188 C 644.339844 102.203125 644.050781 102.464844 643.714844 102.429688 C 637.699219 101.746094 631.707031 103.34375 631.683594 110.609375 C 631.597656 141.925781 631.597656 163.433594 631.671875 175.128906 C 631.730469 183.582031 637.542969 184.074219 644.769531 184.015625 C 655.050781 183.929688 663.851562 180.097656 671.164062 172.523438 C 672.304688 171.332031 674.25 168.75 676.988281 164.765625 C 677.230469 164.429688 677.660156 164.285156 678.058594 164.414062 L 681.070312 165.460938 C 681.40625 165.582031 681.589844 165.953125 681.46875 166.289062 L 673.976562 187.855469 C 673.832031 188.253906 673.457031 188.515625 673.039062 188.515625 L 602.335938 188.515625 C 602.191406 188.515625 602.070312 188.394531 602.070312 188.253906 L 602.070312 184.183594 C 602.070312 183.988281 602.226562 183.832031 602.417969 183.84375 C 605.625 184 607.558594 183.964844 608.21875 183.726562 C 612.132812 182.285156 614.089844 179.414062 614.078125 175.101562 C 614.066406 134.886719 614.089844 114.148438 614.125 112.914062 C 614.292969 106.992188 613.007812 103.414062 607.066406 102.515625 C 605.515625 102.285156 603.96875 102.25 602.441406 102.40625 C 602.25 102.429688 602.082031 102.273438 602.082031 102.082031 L 602.082031 98.035156 C 602.082031 97.855469 602.226562 97.710938 602.40625 97.710938 Z M 602.40625 97.710938 "/>
<path fill-rule="nonzero" fill="rgb(47.842407%, 5.882263%, 18.03894%)" fill-opacity="1" d="M 695.734375 188.515625 C 695.589844 188.515625 695.480469 188.394531 695.480469 188.253906 L 695.480469 184.171875 C 695.480469 183.988281 695.625 183.84375 695.804688 183.855469 C 703.261719 184.3125 707.609375 182.667969 707.539062 174.25 C 707.488281 168.1875 707.476562 159.554688 707.503906 148.324219 C 707.515625 147.882812 707.382812 147.4375 707.140625 147.0625 C 696.921875 131.25 689.070312 119.21875 683.59375 110.992188 C 680.53125 106.382812 676.796875 103.535156 672.390625 102.441406 C 671.992188 102.347656 671.71875 101.984375 671.71875 101.589844 L 671.71875 98.347656 C 671.71875 98 672.003906 97.710938 672.355469 97.710938 L 712.699219 97.710938 C 712.90625 97.710938 713.0625 97.867188 713.0625 98.070312 L 713.0625 101.996094 C 713.0625 102.179688 712.90625 102.335938 712.726562 102.320312 C 707.464844 102.203125 704.246094 103.246094 703.058594 105.445312 C 702.230469 106.992188 703.273438 109.933594 706.21875 114.28125 C 711.476562 122.0625 716.84375 130.21875 722.308594 138.753906 C 722.453125 138.984375 722.789062 138.984375 722.933594 138.753906 C 733.34375 122.84375 738.988281 114.1875 739.863281 112.78125 C 744.269531 105.730469 738.039062 101.855469 731.601562 102.417969 C 731.398438 102.441406 731.21875 102.273438 731.21875 102.070312 L 731.21875 98.058594 C 731.21875 97.867188 731.375 97.710938 731.554688 97.710938 L 760.121094 97.710938 C 760.289062 97.710938 760.433594 97.855469 760.433594 98.023438 L 760.433594 101.925781 C 760.433594 102.140625 760.265625 102.320312 760.050781 102.347656 C 755.414062 102.910156 751.644531 105.421875 748.726562 109.886719 C 739.070312 124.679688 731.3125 136.558594 725.441406 145.503906 C 725.164062 145.925781 725.019531 146.402344 725.03125 146.894531 C 725.070312 162.109375 725.070312 170.3125 725.019531 171.523438 C 724.839844 175.800781 725.25 178.707031 726.269531 180.253906 C 728.828125 184.15625 732.09375 183.941406 736.5 183.90625 C 736.957031 183.894531 737.328125 184.277344 737.328125 184.734375 L 737.328125 187.773438 C 737.328125 188.179688 737.007812 188.515625 736.597656 188.515625 Z M 695.734375 188.515625 "/>

                        </g>
                    </svg>