<?xml version="1.0" encoding="UTF-8"?>
<svg xmlns="http://www.w3.org/2000/svg" xmlns:xlink="http://www.w3.org/1999/xlink" width="297.638" height="419.528" viewBox="0 0 297.638 419.528">
<path fill-rule="nonzero" fill="rgb(94.062805%, 24.238586%, 12.864685%)" fill-opacity="1" d="M 51.472656 50.3125 L 47.40625 50.3125 L 47.40625 41.855469 L 51.472656 41.855469 C 54 41.855469 55.664062 43.605469 55.664062 46.082031 C 55.667969 48.558594 54 50.3125 51.472656 50.3125 M 52.625 33.464844 L 37.785156 33.464844 L 37.785156 68.320312 L 47.40625 68.320312 L 47.40625 58.695312 L 52.625 58.695312 C 60.035156 58.695312 65.539062 53.367188 65.539062 46.058594 C 65.539062 38.75 60.035156 33.464844 52.625 33.464844 "/>
<path fill-rule="nonzero" fill="rgb(94.062805%, 24.238586%, 12.864685%)" fill-opacity="1" d="M 87.566406 55.148438 L 91.386719 44.347656 L 95.242188 55.148438 Z M 86.695312 33.464844 L 73.003906 68.320312 L 83.292969 68.320312 L 85.222656 62.660156 L 97.578125 62.660156 L 99.496094 68.320312 L 110.070312 68.320312 L 96.078125 33.464844 Z M 86.695312 33.464844 "/>
<path fill-rule="nonzero" fill="rgb(94.062805%, 24.238586%, 12.864685%)" fill-opacity="1" d="M 136.21875 49.566406 L 131.832031 49.566406 L 131.832031 42 L 136.214844 42 C 138.898438 42 140.445312 43.59375 140.445312 45.773438 C 140.445312 47.953125 138.902344 49.566406 136.21875 49.566406 M 150.296875 45.800781 C 150.296875 38.515625 144.847656 33.464844 137.335938 33.464844 L 122.230469 33.464844 L 122.230469 68.320312 L 131.832031 68.320312 L 131.832031 57.65625 L 135.308594 57.65625 L 140.964844 68.320312 L 151.683594 68.320312 L 144.761719 55.644531 C 148.207031 53.582031 150.296875 50.078125 150.296875 45.800781 "/>
<path fill-rule="nonzero" fill="rgb(94.062805%, 24.238586%, 12.864685%)" fill-opacity="1" d="M 163.417969 42.113281 L 172.890625 42.113281 L 172.890625 68.320312 L 182.535156 68.320312 L 182.535156 42.113281 L 192 42.113281 L 192 33.464844 L 163.417969 33.464844 Z M 163.417969 42.113281 "/>
<path fill-rule="nonzero" fill="rgb(94.062805%, 24.238586%, 12.864685%)" fill-opacity="1" d="M 247.367188 60.441406 L 247.367188 54.101562 L 252.582031 54.101562 C 254.660156 54.101562 256.019531 55.402344 256.019531 57.257812 C 256.019531 59.136719 254.660156 60.441406 252.582031 60.441406 Z M 247.367188 40.941406 L 252.21875 40.941406 C 254.226562 40.941406 255.464844 42.164062 255.464844 43.972656 C 255.464844 45.785156 254.226562 47.011719 252.222656 47.011719 L 247.371094 47.011719 L 247.371094 40.941406 Z M 265.515625 58.398438 C 265.515625 54.59375 263.453125 51.472656 260.167969 49.914062 C 262.832031 48.300781 264.578125 45.5 264.578125 42.386719 C 264.578125 37.234375 260.066406 33.464844 253.886719 33.464844 L 238.144531 33.464844 L 238.144531 68.320312 L 254.210938 68.320312 C 260.640625 68.320312 265.515625 64.042969 265.515625 58.398438 "/>
<path fill-rule="nonzero" fill="rgb(94.062805%, 24.238586%, 12.864685%)" fill-opacity="1" d="M 282.304688 84.566406 L 220.300781 84.566406 L 220.300781 60.339844 L 210.34375 60.339844 L 210.34375 84.566406 L 18.765625 84.566406 L 18.765625 17.222656 L 210.609375 17.222656 L 210.609375 41.472656 L 220.566406 41.472656 L 220.566406 17.222656 L 282.308594 17.222656 L 282.308594 84.566406 Z M 8.804688 94.527344 L 292.269531 94.527344 L 292.269531 7.265625 L 8.804688 7.265625 Z M 8.804688 94.527344 "/>
<path fill-rule="nonzero" fill="rgb(94.062805%, 24.238586%, 12.864685%)" fill-opacity="1" d="M 51.472656 156.195312 L 47.40625 156.195312 L 47.40625 147.734375 L 51.472656 147.734375 C 54 147.734375 55.664062 149.488281 55.664062 151.960938 C 55.667969 154.4375 54 156.195312 51.472656 156.195312 M 52.625 139.347656 L 37.785156 139.347656 L 37.785156 174.203125 L 47.40625 174.203125 L 47.40625 164.574219 L 52.625 164.574219 C 60.035156 164.574219 65.539062 159.25 65.539062 151.941406 C 65.539062 144.632812 60.035156 139.347656 52.625 139.347656 "/>
<path fill-rule="nonzero" fill="rgb(94.062805%, 24.238586%, 12.864685%)" fill-opacity="1" d="M 87.566406 161.03125 L 91.386719 150.230469 L 95.242188 161.03125 Z M 86.695312 139.347656 L 73.003906 174.203125 L 83.292969 174.203125 L 85.222656 168.542969 L 97.578125 168.542969 L 99.496094 174.203125 L 110.070312 174.203125 L 96.078125 139.347656 Z M 86.695312 139.347656 "/>
<path fill-rule="nonzero" fill="rgb(94.062805%, 24.238586%, 12.864685%)" fill-opacity="1" d="M 136.21875 155.449219 L 131.832031 155.449219 L 131.832031 147.882812 L 136.214844 147.882812 C 138.898438 147.882812 140.445312 149.476562 140.445312 151.65625 C 140.445312 153.835938 138.902344 155.449219 136.21875 155.449219 M 150.296875 151.683594 C 150.296875 144.398438 144.847656 139.347656 137.335938 139.347656 L 122.230469 139.347656 L 122.230469 174.203125 L 131.832031 174.203125 L 131.832031 163.535156 L 135.308594 163.535156 L 140.964844 174.203125 L 151.683594 174.203125 L 144.761719 161.527344 C 148.207031 159.464844 150.296875 155.960938 150.296875 151.683594 "/>
<path fill-rule="nonzero" fill="rgb(94.062805%, 24.238586%, 12.864685%)" fill-opacity="1" d="M 163.417969 147.996094 L 172.890625 147.996094 L 172.890625 174.203125 L 182.535156 174.203125 L 182.535156 147.996094 L 192 147.996094 L 192 139.347656 L 163.417969 139.347656 Z M 163.417969 147.996094 "/>
<path fill-rule="nonzero" fill="rgb(94.062805%, 24.238586%, 12.864685%)" fill-opacity="1" d="M 247.367188 166.320312 L 247.367188 159.984375 L 252.582031 159.984375 C 254.660156 159.984375 256.019531 161.285156 256.019531 163.140625 C 256.019531 165.019531 254.660156 166.320312 252.582031 166.320312 Z M 247.367188 146.824219 L 252.21875 146.824219 C 254.226562 146.824219 255.464844 148.046875 255.464844 149.855469 C 255.464844 151.664062 254.226562 152.890625 252.222656 152.890625 L 247.371094 152.890625 L 247.371094 146.824219 Z M 265.515625 164.277344 C 265.515625 160.476562 263.453125 157.355469 260.167969 155.796875 C 262.832031 154.183594 264.578125 151.382812 264.578125 148.265625 C 264.578125 143.117188 260.066406 139.347656 253.886719 139.347656 L 238.144531 139.347656 L 238.144531 174.203125 L 254.210938 174.203125 C 260.640625 174.203125 265.515625 169.925781 265.515625 164.277344 "/>
<path fill-rule="nonzero" fill="rgb(94.062805%, 24.238586%, 12.864685%)" fill-opacity="1" d="M 282.304688 190.449219 L 220.300781 190.449219 L 220.300781 166.222656 L 210.34375 166.222656 L 210.34375 190.449219 L 18.765625 190.449219 L 18.765625 123.105469 L 210.609375 123.105469 L 210.609375 147.351562 L 220.566406 147.351562 L 220.566406 123.105469 L 282.308594 123.105469 L 282.308594 190.449219 Z M 8.804688 200.40625 L 292.269531 200.40625 L 292.269531 113.144531 L 8.804688 113.144531 Z M 8.804688 200.40625 "/>
<path fill-rule="nonzero" fill="rgb(94.062805%, 24.238586%, 12.864685%)" fill-opacity="1" d="M 51.472656 262.078125 L 47.40625 262.078125 L 47.40625 253.617188 L 51.472656 253.617188 C 54 253.617188 55.664062 255.371094 55.664062 257.84375 C 55.667969 260.320312 54 262.078125 51.472656 262.078125 M 52.625 245.226562 L 37.785156 245.226562 L 37.785156 280.085938 L 47.40625 280.085938 L 47.40625 270.457031 L 52.625 270.457031 C 60.035156 270.457031 65.539062 265.128906 65.539062 257.824219 C 65.539062 250.511719 60.035156 245.226562 52.625 245.226562 "/>
<path fill-rule="nonzero" fill="rgb(94.062805%, 24.238586%, 12.864685%)" fill-opacity="1" d="M 87.566406 266.910156 L 91.386719 256.109375 L 95.242188 266.910156 Z M 86.695312 245.230469 L 73.003906 280.085938 L 83.292969 280.085938 L 85.222656 274.421875 L 97.578125 274.421875 L 99.496094 280.085938 L 110.070312 280.085938 L 96.078125 245.230469 Z M 86.695312 245.230469 "/>
<path fill-rule="nonzero" fill="rgb(94.062805%, 24.238586%, 12.864685%)" fill-opacity="1" d="M 136.21875 261.332031 L 131.832031 261.332031 L 131.832031 253.761719 L 136.214844 253.761719 C 138.898438 253.761719 140.445312 255.359375 140.445312 257.535156 C 140.445312 259.71875 138.902344 261.332031 136.21875 261.332031 M 150.296875 257.566406 C 150.296875 250.28125 144.847656 245.230469 137.335938 245.230469 L 122.230469 245.230469 L 122.230469 280.085938 L 131.832031 280.085938 L 131.832031 269.417969 L 135.308594 269.417969 L 140.964844 280.085938 L 151.683594 280.085938 L 144.761719 267.40625 C 148.207031 265.347656 150.296875 261.84375 150.296875 257.566406 "/>
<path fill-rule="nonzero" fill="rgb(94.062805%, 24.238586%, 12.864685%)" fill-opacity="1" d="M 163.417969 253.875 L 172.890625 253.875 L 172.890625 280.085938 L 182.535156 280.085938 L 182.535156 253.875 L 192 253.875 L 192 245.230469 L 163.417969 245.230469 Z M 163.417969 253.875 "/>
<path fill-rule="nonzero" fill="rgb(94.062805%, 24.238586%, 12.864685%)" fill-opacity="1" d="M 247.367188 272.203125 L 247.367188 265.863281 L 252.582031 265.863281 C 254.660156 265.863281 256.019531 267.164062 256.019531 269.019531 C 256.019531 270.902344 254.660156 272.203125 252.582031 272.203125 Z M 247.367188 252.703125 L 252.21875 252.703125 C 254.226562 252.703125 255.464844 253.929688 255.464844 255.738281 C 255.464844 257.546875 254.226562 258.773438 252.222656 258.773438 L 247.371094 258.773438 L 247.371094 252.703125 Z M 265.515625 270.160156 C 265.515625 266.359375 263.453125 263.234375 260.167969 261.679688 C 262.832031 260.066406 264.578125 257.261719 264.578125 254.148438 C 264.578125 249 260.066406 245.226562 253.886719 245.226562 L 238.144531 245.226562 L 238.144531 280.085938 L 254.210938 280.085938 C 260.640625 280.085938 265.515625 275.808594 265.515625 270.160156 "/>
<path fill-rule="nonzero" fill="rgb(94.062805%, 24.238586%, 12.864685%)" fill-opacity="1" d="M 282.304688 296.328125 L 220.300781 296.328125 L 220.300781 272.101562 L 210.34375 272.101562 L 210.34375 296.328125 L 18.765625 296.328125 L 18.765625 228.988281 L 210.609375 228.988281 L 210.609375 253.234375 L 220.566406 253.234375 L 220.566406 228.988281 L 282.308594 228.988281 L 282.308594 296.328125 Z M 8.804688 306.289062 L 292.269531 306.289062 L 292.269531 219.027344 L 8.804688 219.027344 Z M 8.804688 306.289062 "/>
<path fill-rule="nonzero" fill="rgb(94.062805%, 24.238586%, 12.864685%)" fill-opacity="1" d="M 51.472656 367.957031 L 47.40625 367.957031 L 47.40625 359.5 L 51.472656 359.5 C 54 359.5 55.664062 361.25 55.664062 363.726562 C 55.667969 366.203125 54 367.957031 51.472656 367.957031 M 52.625 351.109375 L 37.785156 351.109375 L 37.785156 385.964844 L 47.40625 385.964844 L 47.40625 376.339844 L 52.625 376.339844 C 60.035156 376.339844 65.539062 371.011719 65.539062 363.707031 C 65.539062 356.394531 60.035156 351.109375 52.625 351.109375 "/>
<path fill-rule="nonzero" fill="rgb(94.062805%, 24.238586%, 12.864685%)" fill-opacity="1" d="M 87.566406 372.792969 L 91.386719 361.992188 L 95.242188 372.792969 Z M 86.695312 351.109375 L 73.003906 385.964844 L 83.292969 385.964844 L 85.222656 380.304688 L 97.578125 380.304688 L 99.496094 385.964844 L 110.070312 385.964844 L 96.078125 351.109375 Z M 86.695312 351.109375 "/>
<path fill-rule="nonzero" fill="rgb(94.062805%, 24.238586%, 12.864685%)" fill-opacity="1" d="M 136.21875 367.214844 L 131.832031 367.214844 L 131.832031 359.644531 L 136.214844 359.644531 C 138.898438 359.644531 140.445312 361.242188 140.445312 363.417969 C 140.445312 365.597656 138.902344 367.214844 136.21875 367.214844 M 150.296875 363.445312 C 150.296875 356.160156 144.847656 351.109375 137.335938 351.109375 L 122.230469 351.109375 L 122.230469 385.964844 L 131.832031 385.964844 L 131.832031 375.300781 L 135.308594 375.300781 L 140.964844 385.964844 L 151.683594 385.964844 L 144.761719 373.289062 C 148.207031 371.226562 150.296875 367.722656 150.296875 363.445312 "/>
<path fill-rule="nonzero" fill="rgb(94.062805%, 24.238586%, 12.864685%)" fill-opacity="1" d="M 163.417969 359.757812 L 172.890625 359.757812 L 172.890625 385.964844 L 182.535156 385.964844 L 182.535156 359.757812 L 192 359.757812 L 192 351.109375 L 163.417969 351.109375 Z M 163.417969 359.757812 "/>
<path fill-rule="nonzero" fill="rgb(94.062805%, 24.238586%, 12.864685%)" fill-opacity="1" d="M 247.367188 378.085938 L 247.367188 371.746094 L 252.582031 371.746094 C 254.660156 371.746094 256.019531 373.046875 256.019531 374.902344 C 256.019531 376.78125 254.660156 378.085938 252.582031 378.085938 Z M 247.367188 358.585938 L 252.21875 358.585938 C 254.226562 358.585938 255.464844 359.8125 255.464844 361.621094 C 255.464844 363.429688 254.226562 364.65625 252.222656 364.65625 L 247.371094 364.65625 L 247.371094 358.585938 Z M 265.515625 376.042969 C 265.515625 372.238281 263.453125 369.117188 260.167969 367.5625 C 262.832031 365.945312 264.578125 363.144531 264.578125 360.03125 C 264.578125 354.878906 260.066406 351.109375 253.886719 351.109375 L 238.144531 351.109375 L 238.144531 385.964844 L 254.210938 385.964844 C 260.640625 385.964844 265.515625 381.6875 265.515625 376.042969 "/>
<path fill-rule="nonzero" fill="rgb(94.062805%, 24.238586%, 12.864685%)" fill-opacity="1" d="M 282.304688 402.210938 L 220.300781 402.210938 L 220.300781 377.984375 L 210.34375 377.984375 L 210.34375 402.210938 L 18.765625 402.210938 L 18.765625 334.867188 L 210.609375 334.867188 L 210.609375 359.117188 L 220.566406 359.117188 L 220.566406 334.867188 L 282.308594 334.867188 L 282.308594 402.210938 Z M 8.804688 412.171875 L 292.269531 412.171875 L 292.269531 324.910156 L 8.804688 324.910156 Z M 8.804688 412.171875 "/>
</svg>
