<?xml version="1.0" encoding="UTF-8"?>
<!-- CMYK_PDF_CONVERTED -->
<svg data-vectorized-cmyk="true" data-original-cmyk-pdf="true" xmlns="http://www.w3.org/2000/svg" xmlns:xlink="http://www.w3.org/1999/xlink" width="283.465" height="836.22" viewBox="0 0 283.465 836.22">
<path fill-rule="evenodd" fill="#C0C0C0" fill-opacity="1" d="M 111.636719 204.914062 C 111.636719 204.914062 132.453125 165.5 88.050781 165.5 C 49.117188 165.5 36.316406 197.417969 34.085938 205.203125 C 29.613281 220.472656 37.550781 233.085938 58.058594 233.085938 L 89.050781 233.085938 L 93.140625 219.898438 L 64.308594 219.898438 C 64.308594 219.898438 43.410156 220.617188 51.660156 204.914062 Z M 85.8125 177.597656 C 104.160156 177.597656 97.300781 191.511719 97.300781 191.511719 L 57.980469 191.511719 C 64.074219 182.722656 74.628906 177.460938 85.8125 177.597656 M 142.859375 132.132812 L 108.628906 233.226562 L 126.4375 233.226562 L 160.667969 132.132812 Z M 160.210938 168.09375 L 138.078125 233.226562 L 155.894531 233.226562 L 178.019531 168.09375 Z M 182.875 152.960938 L 165.070312 152.960938 L 170.925781 135.019531 L 188.734375 135.019531 Z M 209.015625 180.917969 L 240.769531 180.773438 L 245.476562 168.160156 L 212.019531 168.09375 C 212.019531 168.09375 191.429688 167.085938 182.257812 182.9375 C 172.777344 199.433594 187.882812 205.992188 198.753906 205.992188 L 213.019531 205.992188 C 214.796875 205.992188 220.339844 206.566406 218.261719 212.117188 C 216.488281 216.871094 210.398438 219.679688 206.542969 219.824219 C 204.15625 219.898438 169.691406 219.824219 169.691406 219.824219 L 164.753906 233.304688 L 203.460938 233.304688 C 206.699219 233.304688 228.902344 233.085938 234.378906 211.902344 C 239.082031 193.742188 218.335938 193.378906 215.179688 193.378906 L 203.925781 193.378906 C 201.917969 193.378906 192.4375 193.886719 197.445312 186.683594 C 199.996094 183.152344 204.382812 180.917969 209.015625 180.917969 "/>
<path fill-rule="evenodd" fill="#C0C0C0" fill-opacity="1" d="M 113.570312 85.890625 C 113.570312 85.890625 134.386719 46.476562 89.984375 46.476562 C 51.050781 46.476562 38.25 78.394531 36.019531 86.179688 C 31.546875 101.449219 39.484375 114.0625 59.992188 114.0625 L 90.988281 114.0625 L 95.070312 100.875 L 66.238281 100.875 C 66.238281 100.875 45.34375 101.59375 53.59375 85.890625 Z M 87.746094 58.574219 C 106.09375 58.574219 99.234375 72.488281 99.234375 72.488281 L 59.914062 72.488281 C 66.007812 63.699219 76.5625 58.4375 87.746094 58.574219 M 144.792969 13.109375 L 110.5625 114.207031 L 128.371094 114.207031 L 162.601562 13.109375 Z M 162.144531 49.070312 L 140.011719 114.207031 L 157.828125 114.207031 L 179.953125 49.070312 Z M 184.808594 33.9375 L 167 33.9375 L 172.859375 15.996094 L 190.667969 15.996094 Z M 210.945312 61.894531 L 242.703125 61.75 L 247.410156 49.140625 L 213.953125 49.070312 C 213.953125 49.070312 193.363281 48.0625 184.191406 63.914062 C 174.707031 80.410156 189.816406 86.96875 200.691406 86.96875 L 214.949219 86.96875 C 216.730469 86.96875 222.277344 87.542969 220.195312 93.097656 C 218.421875 97.847656 212.332031 100.65625 208.476562 100.800781 C 206.089844 100.875 171.625 100.800781 171.625 100.800781 L 166.6875 114.277344 L 205.394531 114.277344 C 208.632812 114.277344 230.835938 114.0625 236.3125 92.882812 C 241.019531 74.71875 220.269531 74.355469 217.113281 74.355469 L 205.859375 74.355469 C 203.851562 74.355469 194.371094 74.863281 199.378906 67.660156 C 201.929688 64.128906 206.316406 61.894531 210.945312 61.894531 "/>
<path fill-rule="evenodd" fill="#C0C0C0" fill-opacity="1" d="M 111.636719 442.960938 C 111.636719 442.960938 132.453125 403.542969 88.050781 403.542969 C 49.117188 403.542969 36.316406 435.464844 34.085938 443.25 C 29.613281 458.519531 37.550781 471.128906 58.058594 471.128906 L 89.050781 471.128906 L 93.140625 457.945312 L 64.308594 457.945312 C 64.308594 457.945312 43.410156 458.664062 51.660156 442.960938 Z M 85.8125 415.644531 C 104.160156 415.644531 97.300781 429.558594 97.300781 429.558594 L 57.980469 429.558594 C 64.074219 420.769531 74.628906 415.507812 85.8125 415.644531 M 142.859375 370.179688 L 108.628906 471.273438 L 126.4375 471.273438 L 160.667969 370.179688 Z M 160.210938 406.136719 L 138.078125 471.273438 L 155.894531 471.273438 L 178.019531 406.136719 Z M 182.875 391.007812 L 165.070312 391.007812 L 170.925781 373.066406 L 188.734375 373.066406 Z M 209.015625 418.960938 L 240.769531 418.820312 L 245.476562 406.207031 L 212.019531 406.136719 C 212.019531 406.136719 191.429688 405.128906 182.257812 420.984375 C 172.777344 437.480469 187.882812 444.039062 198.753906 444.039062 L 213.019531 444.039062 C 214.796875 444.039062 220.339844 444.613281 218.261719 450.164062 C 216.488281 454.917969 210.398438 457.726562 206.542969 457.871094 C 204.15625 457.945312 169.691406 457.871094 169.691406 457.871094 L 164.753906 471.347656 L 203.460938 471.347656 C 206.699219 471.347656 228.902344 471.128906 234.378906 449.949219 C 239.082031 431.789062 218.335938 431.421875 215.179688 431.421875 L 203.925781 431.421875 C 201.917969 431.421875 192.4375 431.933594 197.445312 424.730469 C 199.996094 421.199219 204.382812 418.960938 209.015625 418.960938 "/>
<path fill-rule="evenodd" fill="#C0C0C0" fill-opacity="1" d="M 110.539062 323.9375 C 110.539062 323.9375 131.355469 284.523438 86.953125 284.523438 C 48.023438 284.523438 35.21875 316.441406 32.988281 324.226562 C 28.515625 339.496094 36.453125 352.109375 56.964844 352.109375 L 87.957031 352.109375 L 92.042969 338.921875 L 63.210938 338.921875 C 63.210938 338.921875 42.3125 339.640625 50.566406 323.9375 Z M 84.714844 296.621094 C 103.0625 296.621094 96.203125 310.535156 96.203125 310.535156 L 56.882812 310.535156 C 62.976562 301.746094 73.53125 296.484375 84.714844 296.621094 M 141.765625 251.15625 L 107.53125 352.25 L 125.34375 352.25 L 159.570312 251.15625 Z M 159.113281 287.117188 L 136.984375 352.25 L 154.796875 352.25 L 176.925781 287.117188 Z M 181.78125 271.984375 L 163.972656 271.984375 L 169.828125 254.042969 L 187.640625 254.042969 Z M 207.917969 299.941406 L 239.675781 299.796875 L 244.378906 287.183594 L 210.925781 287.117188 C 210.925781 287.117188 190.335938 286.109375 181.160156 301.960938 C 171.679688 318.457031 186.785156 325.015625 197.660156 325.015625 L 211.921875 325.015625 C 213.699219 325.015625 219.246094 325.589844 217.164062 331.140625 C 215.394531 335.894531 209.300781 338.703125 205.445312 338.847656 C 203.058594 338.921875 168.597656 338.847656 168.597656 338.847656 L 163.65625 352.324219 L 202.363281 352.324219 C 205.605469 352.324219 227.804688 352.109375 233.28125 330.925781 C 237.988281 312.765625 217.238281 312.402344 214.082031 312.402344 L 202.828125 312.402344 C 200.824219 312.402344 191.34375 312.910156 196.351562 305.707031 C 198.898438 302.175781 203.285156 299.941406 207.917969 299.941406 "/>
<path fill-rule="evenodd" fill="#C0C0C0" fill-opacity="1" d="M 103.75 681.007812 C 103.75 681.007812 124.566406 641.589844 80.164062 641.589844 C 41.230469 641.589844 28.429688 673.511719 26.199219 681.296875 C 21.726562 696.566406 29.664062 709.175781 50.171875 709.175781 L 81.164062 709.175781 L 85.25 695.992188 L 56.421875 695.992188 C 56.421875 695.992188 35.523438 696.710938 43.773438 681.007812 Z M 77.925781 653.691406 C 96.273438 653.691406 89.414062 667.605469 89.414062 667.605469 L 50.09375 667.605469 C 56.1875 658.816406 66.742188 653.550781 77.925781 653.691406 M 134.972656 608.222656 L 100.742188 709.320312 L 118.550781 709.320312 L 152.78125 608.222656 Z M 152.324219 644.183594 L 130.191406 709.320312 L 148.007812 709.320312 L 170.132812 644.183594 Z M 174.988281 629.054688 L 157.183594 629.054688 L 163.039062 611.113281 L 180.847656 611.113281 Z M 201.128906 657.007812 L 232.882812 656.863281 L 237.589844 644.253906 L 204.132812 644.183594 C 204.132812 644.183594 183.542969 643.175781 174.371094 659.03125 C 164.890625 675.527344 179.996094 682.085938 190.867188 682.085938 L 205.132812 682.085938 C 206.910156 682.085938 212.453125 682.660156 210.375 688.210938 C 208.601562 692.964844 202.511719 695.773438 198.65625 695.917969 C 196.269531 695.992188 161.804688 695.917969 161.804688 695.917969 L 156.867188 709.394531 L 195.574219 709.394531 C 198.8125 709.394531 221.015625 709.175781 226.492188 687.996094 C 231.195312 669.832031 210.449219 669.46875 207.292969 669.46875 L 196.039062 669.46875 C 194.03125 669.46875 184.550781 669.976562 189.558594 662.777344 C 192.109375 659.242188 196.496094 657.007812 201.128906 657.007812 "/>
<path fill-rule="evenodd" fill="#C0C0C0" fill-opacity="1" d="M 118.097656 800.03125 C 118.097656 800.03125 138.914062 760.613281 94.507812 760.613281 C 55.578125 760.613281 42.777344 792.535156 40.546875 800.320312 C 36.074219 815.589844 44.011719 828.199219 64.519531 828.199219 L 95.515625 828.199219 L 99.597656 815.015625 L 70.765625 815.015625 C 70.765625 815.015625 49.871094 815.734375 58.121094 800.03125 Z M 92.273438 772.714844 C 110.621094 772.714844 103.761719 786.628906 103.761719 786.628906 L 64.441406 786.628906 C 70.535156 777.839844 81.089844 772.574219 92.273438 772.714844 M 149.320312 727.246094 L 115.089844 828.34375 L 132.898438 828.34375 L 167.128906 727.246094 Z M 166.671875 763.207031 L 144.539062 828.34375 L 162.355469 828.34375 L 184.480469 763.207031 Z M 189.335938 748.078125 L 171.527344 748.078125 L 177.386719 730.136719 L 195.195312 730.136719 Z M 215.472656 776.03125 L 247.230469 775.886719 L 251.9375 763.277344 L 218.480469 763.207031 C 218.480469 763.207031 197.890625 762.199219 188.714844 778.050781 C 179.238281 794.546875 194.34375 801.109375 205.214844 801.109375 L 219.476562 801.109375 C 221.257812 801.109375 226.800781 801.683594 224.722656 807.234375 C 222.949219 811.988281 216.859375 814.796875 213.003906 814.941406 C 210.617188 815.015625 176.152344 814.941406 176.152344 814.941406 L 171.214844 828.417969 L 209.921875 828.417969 C 213.160156 828.417969 235.363281 828.199219 240.835938 807.019531 C 245.542969 788.855469 224.796875 788.492188 221.640625 788.492188 L 210.382812 788.492188 C 208.378906 788.492188 198.898438 789 203.90625 781.800781 C 206.453125 778.265625 210.84375 776.03125 215.472656 776.03125 "/>
<path fill-rule="evenodd" fill="#C0C0C0" fill-opacity="1" d="M 108.277344 561.984375 C 108.277344 561.984375 129.09375 522.566406 84.691406 522.566406 C 45.757812 522.566406 32.957031 554.488281 30.726562 562.273438 C 26.25 577.542969 34.191406 590.152344 54.699219 590.152344 L 85.691406 590.152344 L 89.777344 576.96875 L 60.945312 576.96875 C 60.945312 576.96875 40.050781 577.6875 48.300781 561.984375 Z M 82.453125 534.667969 C 100.800781 534.667969 93.941406 548.582031 93.941406 548.582031 L 54.621094 548.582031 C 60.714844 539.792969 71.269531 534.527344 82.453125 534.667969 M 139.5 489.203125 L 105.269531 590.296875 L 123.078125 590.296875 L 157.308594 489.203125 Z M 156.851562 525.160156 L 134.71875 590.296875 L 152.535156 590.296875 L 174.660156 525.160156 Z M 179.515625 510.03125 L 161.707031 510.03125 L 167.566406 492.089844 L 185.375 492.089844 Z M 205.652344 537.984375 L 237.410156 537.839844 L 242.113281 525.230469 L 208.660156 525.160156 C 208.660156 525.160156 188.070312 524.152344 178.898438 540.007812 C 169.414062 556.503906 184.523438 563.0625 195.394531 563.0625 L 209.65625 563.0625 C 211.4375 563.0625 216.980469 563.636719 214.902344 569.1875 C 213.128906 573.941406 207.035156 576.75 203.183594 576.894531 C 200.796875 576.96875 166.332031 576.894531 166.332031 576.894531 L 161.394531 590.371094 L 200.101562 590.371094 C 203.339844 590.371094 225.542969 590.152344 231.019531 568.972656 C 235.726562 550.8125 214.976562 550.445312 211.820312 550.445312 L 200.566406 550.445312 C 198.558594 550.445312 189.078125 550.957031 194.085938 543.753906 C 196.636719 540.222656 201.023438 537.984375 205.652344 537.984375 "/>
</svg>
