<?xml version="1.0" encoding="UTF-8"?>
<!-- CMYK_PDF_CONVERTED -->
<svg data-vectorized-cmyk="true" data-original-cmyk-pdf="true" xmlns="http://www.w3.org/2000/svg" xmlns:xlink="http://www.w3.org/1999/xlink" width="609.84" height="856.56" viewBox="0 0 609.84 856.56">
<path fill-rule="nonzero" fill="rgb(13.725281%, 11.764526%, 11.764526%)" fill-opacity="1" d="M 81.984375 165.703125 L 38.445312 165.703125 L 30.929688 183.417969 C 29.0625 187.796875 28.101562 191.09375 28.101562 193.253906 C 28.101562 194.960938 28.921875 196.496094 30.5625 197.804688 C 32.171875 199.082031 35.703125 199.933594 41.101562 200.332031 L 41.101562 203.402344 L 5.667969 203.402344 L 5.667969 200.332031 C 10.359375 199.507812 13.382812 198.429688 14.765625 197.09375 C 17.59375 194.421875 20.699219 188.988281 24.117188 180.828125 L 63.648438 87.75 L 66.445312 87.75 L 105.523438 181.824219 C 108.660156 189.386719 111.511719 194.277344 114.085938 196.550781 C 116.65625 198.796875 120.214844 200.050781 124.820312 200.332031 L 124.820312 203.402344 L 80.515625 203.402344 L 80.515625 200.332031 C 84.980469 200.105469 88.003906 199.367188 89.585938 198.085938 C 91.167969 196.808594 91.933594 195.242188 91.933594 193.394531 C 91.933594 190.949219 90.828125 187.085938 88.625 181.796875 Z M 79.445312 159.5625 L 60.511719 113.933594 L 41.074219 159.5625 Z M 154.375 124.765625 L 154.375 141.992188 C 160.675781 130.507812 167.148438 124.765625 173.789062 124.765625 C 176.78125 124.765625 179.269531 125.703125 181.246094 127.578125 C 183.226562 129.429688 184.214844 131.589844 184.214844 134.035156 C 184.214844 136.222656 183.507812 138.070312 182.09375 139.578125 C 180.652344 141.085938 178.957031 141.824219 177.007812 141.824219 C 175.089844 141.824219 172.941406 140.855469 170.566406 138.925781 C 168.164062 136.988281 166.382812 136.023438 165.253906 136.023438 C 164.265625 136.023438 163.191406 136.59375 162.035156 137.703125 C 159.574219 139.976562 157.003906 143.757812 154.375 148.988281 L 154.375 185.492188 C 154.375 189.730469 154.914062 192.96875 155.960938 195.132812 C 156.664062 196.636719 157.9375 197.886719 159.746094 198.855469 C 161.582031 199.851562 164.179688 200.332031 167.601562 200.332031 L 167.601562 203.402344 L 128.777344 203.402344 L 128.777344 200.332031 C 132.621094 200.332031 135.472656 199.734375 137.339844 198.515625 C 138.722656 197.605469 139.683594 196.210938 140.21875 194.25 C 140.503906 193.3125 140.644531 190.609375 140.644531 186.175781 L 140.644531 156.664062 C 140.644531 147.792969 140.476562 142.535156 140.109375 140.828125 C 139.738281 139.152344 139.089844 137.898438 138.128906 137.132812 C 137.167969 136.363281 135.953125 135.96875 134.539062 135.96875 C 132.816406 135.96875 130.894531 136.394531 128.75 137.21875 L 127.929688 134.148438 L 150.902344 124.765625 Z M 205.6875 175.398438 C 201.082031 173.125 197.523438 169.96875 195.035156 165.875 C 192.578125 161.808594 191.335938 157.316406 191.335938 152.371094 C 191.335938 144.835938 194.160156 138.355469 199.8125 132.925781 C 205.433594 127.496094 212.667969 124.765625 221.484375 124.765625 C 228.6875 124.765625 234.933594 126.527344 240.214844 130.054688 L 256.234375 130.054688 C 258.609375 130.054688 259.996094 130.109375 260.363281 130.253906 C 260.757812 130.394531 261.039062 130.621094 261.183594 130.964844 C 261.519531 131.476562 261.691406 132.355469 261.691406 133.636719 C 261.691406 135.085938 261.550781 136.082031 261.265625 136.648438 C 261.125 136.90625 260.8125 137.132812 260.417969 137.304688 C 259.996094 137.472656 258.609375 137.558594 256.234375 137.558594 L 246.375 137.558594 C 249.457031 141.539062 251.007812 146.65625 251.007812 152.882812 C 251.007812 159.960938 248.324219 166.046875 242.929688 171.105469 C 237.53125 176.140625 230.300781 178.671875 221.199219 178.671875 C 217.46875 178.671875 213.65625 178.101562 209.730469 176.992188 C 207.328125 179.125 205.6875 180.972656 204.8125 182.5625 C 203.964844 184.15625 203.539062 185.492188 203.539062 186.601562 C 203.539062 187.566406 203.992188 188.476562 204.898438 189.359375 C 205.828125 190.269531 207.609375 190.894531 210.238281 191.292969 C 211.792969 191.519531 215.660156 191.746094 221.851562 191.917969 C 233.210938 192.203125 240.585938 192.628906 243.945312 193.167969 C 249.089844 193.878906 253.183594 195.8125 256.234375 198.910156 C 259.316406 202.039062 260.84375 205.847656 260.84375 210.425781 C 260.84375 216.679688 257.933594 222.59375 252.082031 228.082031 C 243.464844 236.183594 232.246094 240.25 218.402344 240.25 C 207.75 240.25 198.765625 237.832031 191.445312 233 C 187.292969 230.214844 185.230469 227.3125 185.230469 224.328125 C 185.230469 222.992188 185.542969 221.65625 186.136719 220.320312 C 187.066406 218.273438 189.015625 215.402344 191.929688 211.734375 C 192.324219 211.222656 195.121094 208.238281 200.375 202.722656 C 197.492188 200.988281 195.488281 199.453125 194.300781 198.085938 C 193.113281 196.722656 192.519531 195.160156 192.519531 193.425781 C 192.519531 191.464844 193.3125 189.1875 194.867188 186.546875 C 196.421875 183.929688 200.035156 180.203125 205.6875 175.398438 Z M 220.097656 128.859375 C 216.027344 128.859375 212.609375 130.480469 209.871094 133.75 C 207.128906 137.019531 205.746094 142.023438 205.746094 148.761719 C 205.746094 157.515625 207.609375 164.28125 211.367188 169.089844 C 214.222656 172.757812 217.839844 174.574219 222.246094 174.574219 C 226.425781 174.574219 229.875 173.011719 232.558594 169.855469 C 235.242188 166.699219 236.597656 161.753906 236.597656 154.988281 C 236.597656 146.203125 234.707031 139.320312 230.921875 134.347656 C 228.09375 130.679688 224.507812 128.859375 220.097656 128.859375 Z M 204.925781 203.402344 C 202.324219 206.21875 200.375 208.863281 199.074219 211.308594 C 197.75 213.753906 197.097656 216 197.097656 218.046875 C 197.097656 220.6875 198.710938 223.019531 201.902344 225.039062 C 207.382812 228.480469 215.351562 230.183594 225.75 230.183594 C 235.667969 230.183594 242.984375 228.421875 247.675781 224.898438 C 252.394531 221.371094 254.738281 217.617188 254.738281 213.609375 C 254.738281 210.710938 253.328125 208.664062 250.53125 207.441406 C 247.648438 206.21875 241.996094 205.507812 233.519531 205.28125 C 221.117188 204.9375 211.59375 204.3125 204.925781 203.402344 Z M 307.550781 124.765625 C 319.050781 124.765625 328.261719 129.144531 335.210938 137.929688 C 341.117188 145.40625 344.082031 154.019531 344.082031 163.742188 C 344.082031 170.566406 342.445312 177.476562 339.195312 184.46875 C 335.945312 191.464844 331.453125 196.75 325.746094 200.304688 C 320.011719 203.859375 313.652344 205.621094 306.644531 205.621094 C 295.199219 205.621094 286.101562 201.042969 279.378906 191.890625 C 273.699219 184.15625 270.84375 175.515625 270.84375 165.902344 C 270.84375 158.910156 272.570312 151.945312 276.015625 145.035156 C 279.464844 138.128906 284.011719 133.011719 289.664062 129.710938 C 295.285156 126.414062 301.246094 124.765625 307.550781 124.765625 Z M 304.976562 130.222656 C 302.066406 130.222656 299.128906 131.105469 296.160156 132.839844 C 293.222656 134.601562 290.820312 137.644531 289.011719 142.023438 C 287.175781 146.402344 286.273438 152.03125 286.273438 158.910156 C 286.273438 169.996094 288.476562 179.550781 292.855469 187.597656 C 297.234375 195.640625 303.027344 199.652344 310.203125 199.652344 C 315.546875 199.652344 319.953125 197.433594 323.429688 192.996094 C 326.902344 188.5625 328.65625 180.945312 328.65625 170.140625 C 328.65625 156.609375 325.746094 145.976562 319.953125 138.214844 C 316.054688 132.898438 311.050781 130.222656 304.976562 130.222656 Z M 403.929688 124.765625 L 403.929688 150.695312 L 401.214844 150.695312 C 399.125 142.5625 396.441406 137.046875 393.164062 134.117188 C 389.914062 131.191406 385.730469 129.710938 380.675781 129.710938 C 376.832031 129.710938 373.722656 130.734375 371.351562 132.78125 C 369.003906 134.828125 367.816406 137.105469 367.816406 139.605469 C 367.816406 142.703125 368.691406 145.378906 370.417969 147.59375 C 372.113281 149.871094 375.589844 152.285156 380.816406 154.84375 L 392.90625 160.730469 C 404.097656 166.246094 409.691406 173.496094 409.691406 182.480469 C 409.691406 189.414062 407.09375 195.015625 401.863281 199.253906 C 396.664062 203.488281 390.816406 205.621094 384.375 205.621094 C 379.742188 205.621094 374.429688 204.796875 368.496094 203.175781 C 366.660156 202.636719 365.160156 202.378906 364.003906 202.378906 C 362.761719 202.378906 361.742188 203.0625 361.035156 204.425781 L 358.324219 204.425781 L 358.324219 177.132812 L 361.035156 177.132812 C 362.589844 184.925781 365.527344 190.808594 369.910156 194.761719 C 374.261719 198.714844 379.148438 200.675781 384.574219 200.675781 C 388.359375 200.675781 391.46875 199.566406 393.867188 197.320312 C 396.269531 195.074219 397.484375 192.34375 397.484375 189.1875 C 397.484375 185.378906 396.128906 182.164062 393.445312 179.550781 C 390.761719 176.933594 385.421875 173.664062 377.398438 169.683594 C 369.398438 165.703125 364.171875 162.121094 361.6875 158.882812 C 359.226562 155.726562 357.984375 151.71875 357.984375 146.882812 C 357.984375 140.601562 360.132812 135.339844 364.398438 131.105469 C 368.664062 126.871094 374.175781 124.765625 380.957031 124.765625 C 383.953125 124.765625 387.539062 125.417969 391.808594 126.726562 C 394.605469 127.578125 396.46875 128.007812 397.402344 128.007812 C 398.304688 128.007812 398.984375 127.808594 399.492188 127.410156 C 399.972656 127.011719 400.566406 126.128906 401.214844 124.765625 Z M 403.929688 124.765625 "/>
<path fill-rule="nonzero" fill="rgb(13.725281%, 11.764526%, 11.764526%)" fill-opacity="1" d="M 241.285156 285.367188 L 241.285156 329.71875 L 261.628906 329.71875 C 266.347656 329.71875 269.824219 328.695312 272 326.648438 C 274.203125 324.574219 275.644531 320.449219 276.378906 314.195312 L 279.429688 314.195312 L 279.429688 352.578125 L 276.378906 352.578125 C 276.320312 348.199219 275.757812 344.957031 274.683594 342.910156 C 273.582031 340.835938 272.085938 339.300781 270.160156 338.277344 C 268.242188 337.226562 265.414062 336.714844 261.628906 336.714844 L 241.285156 336.714844 L 241.285156 372.363281 C 241.285156 378.078125 241.652344 381.859375 242.359375 383.679688 C 242.894531 385.074219 244.054688 386.265625 245.804688 387.261719 C 248.207031 388.597656 250.722656 389.253906 253.378906 389.253906 L 257.390625 389.253906 L 257.390625 392.324219 L 209.242188 392.324219 L 209.242188 389.253906 L 213.226562 389.253906 C 217.890625 389.253906 221.253906 387.886719 223.371094 385.1875 C 224.699219 383.394531 225.347656 379.132812 225.347656 372.363281 L 225.347656 299.183594 C 225.347656 293.472656 224.980469 289.691406 224.277344 287.871094 C 223.710938 286.476562 222.578125 285.28125 220.855469 284.289062 C 218.484375 282.949219 215.941406 282.296875 213.226562 282.296875 L 209.242188 282.296875 L 209.242188 279.226562 L 292.652344 279.226562 L 293.839844 304.132812 L 290.957031 304.132812 C 289.519531 298.816406 287.851562 294.921875 285.957031 292.445312 C 284.035156 289.972656 281.691406 288.152344 278.921875 287.046875 C 276.125 285.9375 271.828125 285.367188 265.980469 285.367188 Z M 325.542969 273.769531 C 327.832031 273.769531 329.808594 274.59375 331.449219 276.214844 C 333.058594 277.863281 333.878906 279.851562 333.878906 282.15625 C 333.878906 284.488281 333.058594 286.503906 331.449219 288.152344 C 329.808594 289.832031 327.832031 290.65625 325.542969 290.65625 C 323.226562 290.65625 321.21875 289.832031 319.582031 288.152344 C 317.914062 286.503906 317.09375 284.488281 317.09375 282.15625 C 317.09375 279.851562 317.914062 277.863281 319.523438 276.214844 C 321.164062 274.59375 323.171875 273.769531 325.542969 273.769531 Z M 332.351562 313.683594 L 332.351562 375.09375 C 332.351562 379.84375 332.691406 382.996094 333.398438 384.5625 C 334.074219 386.152344 335.09375 387.320312 336.449219 388.085938 C 337.804688 388.855469 340.292969 389.253906 343.878906 389.253906 L 343.878906 392.324219 L 307.09375 392.324219 L 307.09375 389.253906 C 310.765625 389.253906 313.253906 388.882812 314.496094 388.171875 C 315.765625 387.460938 316.753906 386.265625 317.519531 384.617188 C 318.253906 382.96875 318.621094 379.785156 318.621094 375.09375 L 318.621094 345.582031 C 318.621094 337.367188 318.367188 332.050781 317.886719 329.605469 C 317.488281 327.84375 316.894531 326.621094 316.050781 325.9375 C 315.230469 325.226562 314.097656 324.886719 312.6875 324.886719 C 311.132812 324.886719 309.269531 325.3125 307.0625 326.136719 L 305.90625 323.066406 L 328.707031 313.683594 Z M 375.554688 313.683594 L 375.554688 330.914062 C 381.855469 319.429688 388.324219 313.683594 394.964844 313.683594 C 397.960938 313.683594 400.445312 314.621094 402.425781 316.5 C 404.402344 318.347656 405.390625 320.507812 405.390625 322.953125 C 405.390625 325.140625 404.6875 326.988281 403.273438 328.496094 C 401.832031 330.003906 400.136719 330.742188 398.1875 330.742188 C 396.265625 330.742188 394.117188 329.777344 391.746094 327.84375 C 389.34375 325.910156 387.5625 324.941406 386.433594 324.941406 C 385.445312 324.941406 384.371094 325.511719 383.210938 326.621094 C 380.753906 328.894531 378.183594 332.675781 375.554688 337.90625 L 375.554688 374.410156 C 375.554688 378.648438 376.089844 381.890625 377.136719 384.050781 C 377.84375 385.558594 379.113281 386.808594 380.921875 387.773438 C 382.761719 388.769531 385.359375 389.253906 388.777344 389.253906 L 388.777344 392.324219 L 349.953125 392.324219 L 349.953125 389.253906 C 353.796875 389.253906 356.652344 388.65625 358.515625 387.433594 C 359.902344 386.523438 360.863281 385.128906 361.398438 383.167969 C 361.679688 382.230469 361.824219 379.527344 361.824219 375.09375 L 361.824219 345.582031 C 361.824219 336.714844 361.652344 331.453125 361.285156 329.746094 C 360.917969 328.070312 360.269531 326.820312 359.308594 326.050781 C 358.347656 325.285156 357.132812 324.886719 355.71875 324.886719 C 353.996094 324.886719 352.074219 325.3125 349.925781 326.136719 L 349.105469 323.066406 L 372.078125 313.683594 Z M 422.34375 344.730469 C 422.289062 356.019531 425.027344 364.859375 430.539062 371.285156 C 436.050781 377.679688 442.546875 380.894531 450.007812 380.894531 C 454.953125 380.894531 459.273438 379.527344 462.949219 376.800781 C 466.621094 374.097656 469.699219 369.351562 472.1875 362.640625 L 474.730469 364.320312 C 473.570312 371.996094 470.210938 378.960938 464.644531 385.1875 C 459.078125 391.414062 452.097656 394.539062 443.734375 394.539062 C 434.636719 394.539062 426.839844 390.988281 420.367188 383.851562 C 413.898438 376.714844 410.648438 367.132812 410.648438 355.109375 C 410.648438 342.085938 413.980469 331.910156 420.621094 324.628906 C 427.261719 317.324219 435.597656 313.683594 445.628906 313.683594 C 454.105469 313.683594 461.082031 316.5 466.535156 322.128906 C 471.988281 327.757812 474.730469 335.292969 474.730469 344.730469 Z M 422.34375 339.953125 L 457.4375 339.953125 C 457.15625 335.0625 456.589844 331.625 455.714844 329.632812 C 454.332031 326.535156 452.269531 324.089844 449.527344 322.328125 C 446.816406 320.535156 443.960938 319.65625 440.964844 319.65625 C 436.386719 319.65625 432.289062 321.445312 428.675781 325.027344 C 425.058594 328.609375 422.96875 333.585938 422.34375 339.953125 "/>
<path fill-rule="evenodd" fill="rgb(13.725281%, 11.764526%, 11.764526%)" fill-opacity="1" d="M 446.070312 299.773438 C 453.769531 302.9375 479.488281 312.828125 498.4375 307.960938 C 520.78125 302.222656 549.703125 272.71875 566.265625 263.550781 C 582.828125 254.382812 591.78125 253.703125 595.507812 253.464844 C 599.230469 253.226562 603.3125 251.710938 599.269531 245.011719 C 595.226562 238.3125 581.675781 226.59375 559.804688 228.507812 C 537.933594 230.421875 525.132812 239.066406 497.085938 263.148438 C 472.535156 284.21875 471.027344 285.875 445.515625 292.613281 C 441.144531 293.765625 439.605469 297.117188 446.070312 299.773438 "/>
<path fill-rule="evenodd" fill="rgb(13.725281%, 11.764526%, 11.764526%)" fill-opacity="1" d="M 426.398438 224.71875 C 426.398438 224.71875 425.367188 251.507812 425.367188 258.042969 C 425.367188 264.582031 427.351562 271.277344 438.285156 268.808594 C 449.21875 266.335938 496.210938 257.007812 533.925781 220.8125 C 571.644531 184.613281 565.621094 152.085938 564.828125 147.21875 C 564.035156 142.355469 557.460938 143.234375 552.546875 149.691406 C 547.632812 156.152344 512.609375 208.214844 426.398438 224.71875 "/>
<path fill-rule="evenodd" fill="rgb(13.725281%, 11.764526%, 11.764526%)" fill-opacity="1" d="M 452.050781 196.15625 C 474.808594 198.636719 501.234375 191.820312 517.523438 176.160156 C 545.890625 148.894531 547.632812 121.785156 560.152344 104.40625 C 572.671875 87.023438 573.1875 87.9375 576.675781 83.515625 C 580.160156 79.089844 579.089844 72.273438 564.90625 74.347656 C 550.722656 76.417969 526.15625 82.558594 513.160156 100.65625 C 500.167969 118.753906 491.210938 144.988281 476.472656 162.367188 C 461.734375 179.75 452.382812 183.179688 446.519531 185.96875 C 436.03125 190.960938 444.929688 195.382812 452.050781 196.15625 "/>
<path fill-rule="evenodd" fill="rgb(13.725281%, 11.764526%, 11.764526%)" fill-opacity="1" d="M 431.855469 166.355469 C 431.855469 166.355469 431.539062 139.328125 431.9375 132.152344 C 432.332031 124.976562 433.519531 122.984375 439.144531 119.792969 C 444.773438 116.605469 456.578125 109.429688 465.925781 96.832031 C 475.277344 84.234375 484.785156 65.976562 487.082031 58.640625 C 489.382812 51.304688 496.355469 54.097656 498.257812 62.070312 C 500.15625 70.042969 504.59375 90.375 493.5 114.773438 C 482.40625 139.167969 454.039062 163.566406 431.855469 166.355469 "/>
<path fill-rule="evenodd" fill="rgb(13.725281%, 11.764526%, 11.764526%)" fill-opacity="1" d="M 531.285156 739.890625 L 513.578125 739.863281 C 513.578125 739.863281 513.824219 727.824219 513.503906 720.195312 C 513.027344 708.832031 506.90625 698.28125 497.441406 692.066406 C 487.289062 685.402344 474.726562 682.492188 458.089844 683.21875 C 441.449219 683.949219 420.652344 689.9375 404.234375 698 C 387.816406 706.0625 379.332031 714.933594 375.558594 721.710938 C 371.789062 728.484375 373.589844 736.601562 377 741.472656 C 380.410156 746.34375 385.265625 749.617188 390.449219 752.390625 C 395.636719 755.160156 400.46875 757.203125 400.46875 757.203125 C 400.46875 757.203125 395.539062 760.992188 393.210938 766.839844 C 390.882812 772.691406 393.40625 776.609375 397.261719 777.546875 C 401.113281 778.488281 404.402344 775.421875 406.09375 772.859375 C 407.785156 770.296875 408.617188 766.828125 408.589844 763.945312 C 408.5625 761.0625 407.921875 758.484375 409.226562 756.300781 C 410.53125 754.117188 413.34375 753.921875 415.894531 754.425781 C 418.449219 754.929688 422.761719 757.015625 428.972656 753.882812 C 435.183594 750.746094 438 742.210938 436.449219 735.210938 C 434.894531 728.214844 430.875 723.3125 423.859375 722.390625 C 416.84375 721.46875 412.433594 726.339844 410.4375 729.207031 C 408.441406 732.074219 407.433594 736.394531 407.90625 740.789062 C 408.378906 745.183594 410.195312 747.492188 410.5 747.886719 C 410.804688 748.277344 410.699219 748.515625 410.539062 748.859375 C 410.382812 749.199219 409.230469 750.683594 408.480469 751.417969 C 407.734375 752.152344 406.726562 752.707031 406.726562 752.707031 C 406.726562 752.707031 401.234375 748.472656 398.152344 745.800781 C 395.074219 743.128906 390.15625 738.984375 387.144531 734.605469 C 384.617188 730.921875 384.65625 727.113281 386.492188 724.179688 C 398.546875 704.941406 449.871094 693.292969 470.175781 694.839844 C 483.402344 695.847656 489.019531 698.324219 493.847656 701.261719 C 498.671875 704.203125 502.96875 709.6875 504.46875 715.707031 C 505.964844 721.726562 505.382812 729.816406 505.4375 733.566406 C 505.496094 737.316406 505.523438 739.894531 505.523438 739.894531 C 505.523438 739.894531 503.761719 739.816406 503.074219 739.84375 C 502.390625 739.871094 501.632812 740.277344 501.273438 741.664062 C 500.914062 743.050781 500.523438 746.605469 500.96875 748.730469 C 501.410156 750.859375 502.367188 750.957031 502.925781 750.957031 C 503.476562 750.957031 505.488281 750.984375 505.488281 750.984375 C 505.488281 750.984375 505.433594 768.523438 505.433594 771.433594 C 505.433594 774.34375 506.433594 780.210938 511.261719 781.300781 C 516.085938 782.394531 522.574219 779.089844 526.597656 775.648438 C 530.617188 772.203125 534.832031 765.402344 536.800781 759.941406 C 538.769531 754.484375 538.796875 750.734375 538.796875 750.734375 C 538.796875 750.734375 550.253906 750.035156 557.515625 746.648438 C 564.78125 743.257812 568.667969 735.996094 569.886719 730.371094 C 571.105469 724.742188 570.054688 716.011719 563.34375 711.195312 C 556.632812 706.378906 550.78125 708.003906 545.679688 710.886719 C 540.574219 713.769531 536.859375 720.964844 535.113281 724.9375 C 533.367188 728.914062 531.703125 737.453125 531.285156 739.890625 Z M 540.519531 739.972656 C 540.519531 739.972656 549.117188 739.609375 555.550781 736.976562 C 561.984375 734.34375 563.234375 727.90625 562.707031 723.960938 C 562.179688 720.011719 558.507812 716.445312 553.984375 716.597656 C 549.464844 716.753906 546.304688 719.929688 544.472656 724.210938 C 542.644531 728.496094 540.371094 738.152344 540.519531 739.972656 Z M 530.136719 750.734375 L 513.761719 750.75 L 513.816406 771.605469 C 513.816406 771.605469 516.976562 772.472656 521.082031 769.671875 C 525.1875 766.875 528.847656 758.085938 530.136719 750.734375 Z M 483.226562 749.253906 L 483.226562 753.171875 L 485.003906 753.199219 L 496.316406 749.855469 L 496.316406 748.117188 C 496.316406 748.117188 494.222656 747.921875 494.195312 746.035156 C 494.167969 744.144531 494.148438 726.949219 494.210938 725.648438 C 494.273438 724.347656 495.285156 723.953125 495.6875 723.917969 C 496.089844 723.886719 496.417969 723.871094 496.417969 723.871094 L 496.402344 721.925781 L 479.960938 721.898438 L 479.960938 723.878906 C 479.960938 723.878906 481.601562 723.792969 482.164062 724.058594 C 482.726562 724.324219 482.976562 724.835938 483.105469 725.558594 C 483.238281 726.277344 483.210938 739.371094 483.238281 741.316406 C 483.269531 743.261719 483.183594 744.789062 483.003906 746.035156 C 482.824219 747.28125 481.300781 747.210938 480.9375 746.496094 C 480.578125 745.78125 479.816406 742.542969 477.542969 742.289062 C 475.265625 742.039062 473.492188 743.675781 473.160156 745.789062 C 472.828125 747.902344 473.339844 751.039062 475.210938 752.382812 C 477.085938 753.726562 479.011719 753.164062 480.273438 752.480469 C 481.535156 751.792969 483.226562 749.253906 483.226562 749.253906 Z M 456.273438 753.292969 C 456.273438 753.292969 462.167969 753.542969 465.828125 748.253906 C 469.488281 742.960938 468.503906 735.894531 465.675781 732.339844 C 462.847656 728.785156 460.464844 728.589844 460.464844 728.589844 C 460.464844 728.589844 464.332031 727.847656 466.066406 726.210938 C 467.800781 724.570312 468.992188 722.683594 468.464844 719.535156 C 467.9375 716.386719 464.707031 715.433594 464.707031 715.433594 C 464.707031 715.433594 467.59375 714.230469 467.9375 711.597656 C 468.285156 708.96875 466.273438 706.78125 461.699219 705.621094 C 457.125 704.460938 450.550781 705.1875 446.378906 707.554688 C 442.203125 709.917969 440.929688 714.59375 441.109375 718.164062 C 441.289062 721.730469 443.261719 723.648438 445.964844 724.503906 C 448.667969 725.355469 453.019531 724.628906 454.519531 724.40625 C 456.015625 724.183594 457.785156 724.238281 458.269531 725.140625 C 458.753906 726.042969 458.289062 727.199219 457.007812 727.414062 C 455.726562 727.632812 452.78125 727.28125 449.578125 728.75 C 446.375 730.222656 442.421875 734 442.449219 740.605469 C 442.476562 747.210938 446.570312 750.5 448.636719 751.789062 C 450.699219 753.078125 454.347656 753.300781 454.347656 753.300781 C 454.347656 753.300781 453.863281 754.5625 452.710938 755.164062 C 451.5625 755.765625 449.910156 754.839844 448.828125 754.015625 C 447.746094 753.1875 445.722656 752.140625 443.824219 753.917969 C 441.925781 755.695312 442.132812 758.492188 443.4375 760.242188 C 444.738281 761.992188 446.972656 762.875 450.160156 761.851562 C 453.351562 760.832031 455.667969 755.933594 456.273438 753.292969 Z M 455.496094 751.148438 C 453.992188 751.117188 453.527344 749.628906 453.265625 748.804688 C 453 747.976562 452.472656 745.960938 452.390625 741.203125 C 452.308594 736.445312 452.722656 733.941406 453.167969 732.203125 C 453.609375 730.46875 454.40625 729.769531 455.363281 729.804688 C 456.320312 729.839844 457.402344 730.621094 457.875 733.980469 C 458.320312 737.164062 458.429688 745.527344 457.632812 748.515625 C 457.34375 749.601562 456.847656 751.171875 455.496094 751.148438 Z M 426.609375 743.617188 C 426.609375 743.617188 423.964844 742.429688 422.492188 742.472656 C 421.023438 742.511719 418.625 743.785156 418.625 743.785156 C 418.625 743.785156 418.183594 740.636719 418.515625 734.675781 C 418.847656 728.714844 419.042969 726.949219 420.152344 725.0625 C 421.261719 723.171875 424.753906 723.339844 425.628906 726.375 C 426.503906 729.414062 427.253906 737.726562 426.609375 743.617188 Z M 425.839844 749.472656 C 425.839844 749.472656 424.464844 748.476562 422.054688 748.617188 C 419.640625 748.757812 418.753906 749.707031 418.753906 749.707031 C 418.753906 749.707031 419.238281 753.769531 422.191406 753.796875 C 425.144531 753.824219 425.757812 749.765625 425.839844 749.472656 Z M 404.484375 761.402344 C 404.097656 761.253906 403.570312 761.613281 402.820312 762.542969 C 402.074219 763.472656 400.394531 766.210938 399.882812 768.632812 C 399.367188 771.054688 399.949219 771.792969 400.921875 771.949219 C 401.890625 772.101562 402.695312 771.769531 403.554688 770.058594 C 404.394531 768.390625 404.824219 766.273438 404.832031 763.128906 C 404.832031 762.707031 404.859375 761.546875 404.484375 761.402344 Z M 462.011719 715.066406 C 462.011719 715.066406 454.839844 715.09375 452.679688 715.25 C 450.515625 715.402344 448.628906 714.773438 448.40625 712.4375 C 448.183594 710.097656 450.265625 708.851562 452.914062 708.152344 C 455.5625 707.453125 460.664062 707.480469 462.71875 709.089844 C 464.769531 710.699219 464.582031 713.5625 462.011719 715.066406 "/>
<path fill-rule="nonzero" fill="rgb(13.725281%, 11.764526%, 11.764526%)" fill-opacity="1" d="M 470.253906 800.511719 L 470.429688 800.511719 C 502.027344 801.089844 530.726562 794.242188 551.589844 782.699219 C 572.050781 771.375 584.863281 755.589844 585.195312 738.011719 L 585.195312 737.96875 C 585.507812 720.363281 573.25 704.070312 553.179688 691.964844 C 532.714844 679.621094 504.230469 671.683594 472.585938 671.078125 L 472.410156 671.074219 C 440.8125 670.496094 412.113281 677.34375 391.25 688.890625 C 370.789062 700.214844 357.976562 716 357.644531 733.574219 L 357.644531 733.617188 C 357.332031 751.226562 369.589844 767.515625 389.660156 779.621094 C 410.128906 791.964844 438.609375 799.90625 470.253906 800.511719 Z M 470.355469 805.273438 L 470.179688 805.269531 C 437.683594 804.648438 408.367188 796.453125 387.238281 783.710938 C 365.71875 770.730469 352.582031 752.976562 352.929688 733.535156 L 352.929688 733.492188 C 353.300781 714.0625 367.046875 696.847656 388.976562 684.710938 C 410.511719 672.792969 440.046875 665.722656 472.484375 666.316406 L 472.660156 666.320312 C 505.15625 666.941406 534.472656 675.136719 555.601562 687.878906 C 577.121094 700.859375 590.257812 718.609375 589.910156 738.054688 L 589.910156 738.097656 C 589.539062 757.523438 575.796875 774.742188 553.863281 786.878906 C 532.328125 798.796875 502.792969 805.863281 470.355469 805.273438 "/>
<path fill-rule="nonzero" fill="rgb(13.725281%, 11.764526%, 11.764526%)" fill-opacity="1" d="M 590.085938 647.101562 L 590.085938 631.859375 L 584.4375 631.859375 C 583.128906 631.859375 582.160156 632.210938 581.558594 632.914062 C 580.945312 633.628906 580.546875 635.042969 580.34375 637.191406 L 579.496094 637.191406 L 579.496094 624.003906 L 580.34375 624.003906 C 580.359375 625.507812 580.515625 626.621094 580.8125 627.324219 C 581.117188 628.039062 581.535156 628.566406 582.066406 628.917969 C 582.601562 629.28125 583.386719 629.457031 584.4375 629.457031 L 590.085938 629.457031 L 590.085938 617.203125 C 590.085938 615.242188 589.980469 613.941406 589.785156 613.316406 C 589.636719 612.835938 589.316406 612.425781 588.828125 612.085938 C 588.160156 611.625 587.464844 611.402344 586.726562 611.402344 L 585.613281 611.402344 L 585.613281 610.347656 L 598.980469 610.347656 L 598.980469 611.402344 L 597.871094 611.402344 C 596.578125 611.402344 595.644531 611.871094 595.058594 612.796875 C 594.6875 613.414062 594.507812 614.878906 594.507812 617.203125 L 594.507812 642.351562 C 594.507812 644.316406 594.609375 645.613281 594.804688 646.238281 C 594.960938 646.71875 595.277344 647.128906 595.753906 647.472656 C 596.414062 647.929688 597.121094 648.15625 597.871094 648.15625 L 598.980469 648.15625 L 598.980469 649.210938 L 575.824219 649.210938 L 575.496094 640.652344 L 576.296875 640.652344 C 576.695312 642.480469 577.15625 643.816406 577.683594 644.667969 C 578.21875 645.515625 578.867188 646.144531 579.636719 646.523438 C 580.414062 646.90625 581.605469 647.101562 583.230469 647.101562 Z M 566.695312 651.085938 C 566.058594 651.085938 565.511719 650.804688 565.054688 650.246094 C 564.609375 649.679688 564.382812 648.996094 564.382812 648.203125 C 564.382812 647.402344 564.609375 646.710938 565.054688 646.144531 C 565.511719 645.566406 566.058594 645.28125 566.695312 645.28125 C 567.339844 645.28125 567.894531 645.566406 568.351562 646.144531 C 568.8125 646.710938 569.039062 647.402344 569.039062 648.203125 C 569.039062 648.996094 568.8125 649.679688 568.363281 650.246094 C 567.910156 650.804688 567.351562 651.085938 566.695312 651.085938 Z M 564.804688 637.371094 L 564.804688 616.265625 C 564.804688 614.636719 564.710938 613.550781 564.515625 613.011719 C 564.324219 612.464844 564.042969 612.066406 563.667969 611.800781 C 563.289062 611.539062 562.601562 611.402344 561.605469 611.402344 L 561.605469 610.347656 L 571.816406 610.347656 L 571.816406 611.402344 C 570.796875 611.402344 570.105469 611.527344 569.761719 611.773438 C 569.410156 612.015625 569.132812 612.425781 568.921875 612.992188 C 568.71875 613.558594 568.617188 614.65625 568.617188 616.265625 L 568.617188 626.40625 C 568.617188 629.230469 568.6875 631.058594 568.820312 631.898438 C 568.929688 632.503906 569.09375 632.925781 569.332031 633.160156 C 569.558594 633.402344 569.871094 633.519531 570.265625 633.519531 C 570.695312 633.519531 571.214844 633.371094 571.824219 633.089844 L 572.144531 634.144531 L 565.816406 637.371094 Z M 552.8125 637.371094 L 552.8125 631.449219 C 551.0625 635.394531 549.265625 637.371094 547.425781 637.371094 C 546.59375 637.371094 545.902344 637.046875 545.351562 636.402344 C 544.804688 635.765625 544.527344 635.023438 544.527344 634.183594 C 544.527344 633.433594 544.726562 632.796875 545.117188 632.277344 C 545.515625 631.761719 545.988281 631.507812 546.527344 631.507812 C 547.0625 631.507812 547.660156 631.839844 548.316406 632.503906 C 548.984375 633.167969 549.476562 633.5 549.792969 633.5 C 550.066406 633.5 550.363281 633.304688 550.6875 632.925781 C 551.367188 632.144531 552.082031 630.84375 552.8125 629.046875 L 552.8125 616.5 C 552.8125 615.046875 552.664062 613.929688 552.371094 613.1875 C 552.175781 612.671875 551.824219 612.242188 551.320312 611.910156 C 550.8125 611.566406 550.089844 611.402344 549.140625 611.402344 L 549.140625 610.347656 L 559.917969 610.347656 L 559.917969 611.402344 C 558.851562 611.402344 558.058594 611.605469 557.542969 612.027344 C 557.15625 612.339844 556.890625 612.816406 556.742188 613.492188 C 556.664062 613.8125 556.621094 614.742188 556.621094 616.265625 L 556.621094 626.40625 C 556.621094 629.457031 556.671875 631.261719 556.773438 631.851562 C 556.875 632.425781 557.054688 632.855469 557.320312 633.117188 C 557.589844 633.382812 557.925781 633.519531 558.316406 633.519531 C 558.796875 633.519531 559.328125 633.371094 559.925781 633.089844 L 560.152344 634.144531 L 553.777344 637.371094 Z M 539.824219 626.699219 C 539.839844 622.820312 539.078125 619.78125 537.546875 617.574219 C 536.019531 615.378906 534.214844 614.273438 532.144531 614.273438 C 530.773438 614.273438 529.570312 614.742188 528.550781 615.679688 C 527.53125 616.609375 526.675781 618.238281 525.988281 620.546875 L 525.28125 619.96875 C 525.601562 617.332031 526.535156 614.9375 528.082031 612.796875 C 529.628906 610.660156 531.5625 609.585938 533.886719 609.585938 C 536.410156 609.585938 538.574219 610.804688 540.371094 613.257812 C 542.167969 615.710938 543.070312 619.003906 543.070312 623.136719 C 543.070312 627.609375 542.144531 631.105469 540.300781 633.609375 C 538.457031 636.117188 536.144531 637.371094 533.359375 637.371094 C 531.007812 637.371094 529.070312 636.402344 527.554688 634.46875 C 526.042969 632.53125 525.28125 629.945312 525.28125 626.699219 Z M 539.824219 628.34375 L 530.082031 628.34375 C 530.160156 630.023438 530.316406 631.203125 530.558594 631.886719 C 530.945312 632.953125 531.515625 633.792969 532.277344 634.398438 C 533.03125 635.015625 533.824219 635.316406 534.652344 635.316406 C 535.925781 635.316406 537.0625 634.703125 538.066406 633.472656 C 539.070312 632.238281 539.652344 630.53125 539.824219 628.34375 Z M 488.109375 635.378906 L 478.464844 635.378906 L 478.464844 634.261719 C 479.796875 634.125 480.777344 633.765625 481.414062 633.167969 C 482.046875 632.574219 483.042969 630.753906 484.394531 627.734375 C 485.742188 624.71875 487.261719 621.894531 488.949219 619.277344 C 487.585938 617.292969 486.367188 615.90625 485.296875 615.113281 C 484.226562 614.320312 483.144531 613.921875 482.054688 613.921875 C 480.996094 613.921875 480.101562 614.28125 479.371094 614.996094 C 478.636719 615.710938 478.109375 616.765625 477.804688 618.160156 L 476.957031 617.378906 C 477.523438 614.695312 478.433594 612.699219 479.695312 611.402344 C 480.949219 610.109375 482.410156 609.46875 484.078125 609.46875 C 485.335938 609.46875 486.605469 609.898438 487.898438 610.746094 C 489.191406 611.605469 490.605469 613.050781 492.144531 615.09375 C 494.039062 612.972656 495.75 611.507812 497.28125 610.699219 C 498.800781 609.878906 500.433594 609.46875 502.164062 609.46875 C 504.691406 609.46875 506.699219 610.308594 508.191406 611.988281 C 509.671875 613.667969 510.417969 615.679688 510.417969 618.015625 C 510.417969 620.320312 509.75 622.628906 508.410156 624.933594 C 507.070312 627.238281 504.558594 629.621094 500.863281 632.085938 C 501.59375 634.066406 502.089844 635.699219 502.355469 636.96875 C 502.613281 638.238281 502.746094 639.449219 502.746094 640.613281 C 502.746094 643.875 501.78125 646.367188 499.851562 648.085938 C 498.347656 649.425781 496.636719 650.089844 494.722656 650.089844 C 492.894531 650.089844 491.40625 649.414062 490.261719 648.078125 C 489.105469 646.730469 488.535156 645.078125 488.535156 643.113281 C 488.535156 641.09375 489.089844 639.324219 490.203125 637.800781 C 491.320312 636.273438 493.285156 634.605469 496.109375 632.796875 C 494.164062 628.488281 492.136719 624.53125 490.023438 620.925781 C 487.328125 624.933594 485.976562 628.304688 485.976562 631.027344 C 485.976562 631.898438 486.203125 632.671875 486.660156 633.355469 C 486.996094 633.863281 487.484375 634.164062 488.109375 634.261719 Z M 496.886719 634.632812 C 494.988281 635.757812 493.570312 637.039062 492.628906 638.464844 C 491.6875 639.890625 491.21875 641.480469 491.21875 643.230469 C 491.21875 644.609375 491.554688 645.742188 492.238281 646.640625 C 492.910156 647.53125 493.757812 647.980469 494.761719 647.980469 C 496.09375 647.980469 497.101562 647.402344 497.773438 646.25 C 498.457031 645.097656 498.792969 643.972656 498.792969 642.859375 C 498.792969 641.933594 498.667969 640.886719 498.410156 639.734375 C 498.152344 638.582031 497.640625 636.882812 496.886719 634.632812 Z M 493.335938 616.753906 C 495.351562 620.183594 496.746094 622.695312 497.523438 624.277344 C 498.300781 625.859375 499.152344 627.824219 500.089844 630.167969 C 501.9375 628.851562 503.328125 627.394531 504.261719 625.8125 C 505.195312 624.21875 505.664062 622.5 505.664062 620.644531 C 505.664062 618.601562 505.140625 616.792969 504.078125 615.25 C 503.019531 613.695312 501.59375 612.925781 499.796875 612.925781 C 498.832031 612.925781 497.898438 613.171875 497.007812 613.648438 C 496.101562 614.136719 494.878906 615.171875 493.335938 616.753906 Z M 442.1875 650.089844 L 442.1875 636.664062 L 443.035156 636.664062 C 443.308594 639.246094 443.804688 641.296875 444.515625 642.820312 C 445.230469 644.34375 446.25 645.558594 447.574219 646.457031 C 448.894531 647.355469 450.257812 647.804688 451.671875 647.804688 C 453.269531 647.804688 454.589844 647.199219 455.632812 645.984375 C 456.675781 644.773438 457.199219 643.386719 457.199219 641.84375 C 457.199219 640.660156 456.871094 639.578125 456.210938 638.601562 C 455.253906 637.175781 452.996094 635.257812 449.417969 632.875 C 446.5 630.921875 444.507812 629.425781 443.441406 628.390625 C 442.375 627.347656 441.550781 626.125 440.980469 624.707031 C 440.40625 623.289062 440.117188 621.816406 440.117188 620.261719 C 440.117188 617.320312 441.035156 614.789062 442.863281 612.660156 C 444.695312 610.53125 447.058594 609.46875 449.9375 609.46875 C 450.847656 609.46875 451.695312 609.554688 452.492188 609.730469 C 452.972656 609.828125 453.953125 610.179688 455.449219 610.785156 C 456.941406 611.390625 457.890625 611.695312 458.289062 611.695312 C 458.675781 611.695312 458.980469 611.546875 459.199219 611.265625 C 459.417969 610.972656 459.585938 610.375 459.695312 609.46875 L 460.539062 609.46875 L 460.539062 622.773438 L 459.695312 622.773438 C 459.292969 619.988281 458.761719 617.898438 458.085938 616.519531 C 457.410156 615.132812 456.375 613.980469 454.988281 613.070312 C 453.597656 612.152344 452.078125 611.695312 450.421875 611.695312 C 448.507812 611.695312 446.988281 612.328125 445.882812 613.589844 C 444.769531 614.859375 444.210938 616.355469 444.210938 618.074219 C 444.210938 619.03125 444.421875 620 444.839844 620.976562 C 445.261719 621.953125 445.914062 622.859375 446.800781 623.710938 C 447.394531 624.289062 449.035156 625.5 451.710938 627.355469 C 454.382812 629.203125 456.289062 630.6875 457.417969 631.789062 C 458.546875 632.894531 459.410156 634.125 459.992188 635.453125 C 460.578125 636.792969 460.871094 638.269531 460.871094 639.871094 C 460.871094 642.65625 460.007812 645.058594 458.289062 647.070312 C 456.570312 649.085938 454.375 650.089844 451.726562 650.089844 C 450.0625 650.089844 448.304688 649.582031 446.445312 648.574219 C 445.585938 648.097656 444.980469 647.863281 444.628906 647.863281 C 444.226562 647.863281 443.898438 648.007812 443.644531 648.300781 C 443.394531 648.605469 443.191406 649.191406 443.035156 650.089844 Z M 424.25 614.15625 C 426.40625 612.074219 427.761719 610.863281 428.320312 610.539062 C 429.144531 610.0625 430.023438 609.816406 430.953125 609.816406 C 432.414062 609.816406 433.613281 610.441406 434.554688 611.683594 C 435.496094 612.925781 435.96875 614.558594 435.96875 616.578125 C 435.96875 617.859375 435.738281 618.972656 435.277344 619.902344 C 434.648438 621.199219 433.558594 622.421875 432.007812 623.574219 C 430.445312 624.71875 427.863281 626.113281 424.25 627.757812 L 424.25 628.78125 C 424.25 631.390625 424.578125 633.179688 425.246094 634.15625 C 425.910156 635.121094 426.878906 635.609375 428.148438 635.609375 C 429.105469 635.609375 429.871094 635.289062 430.4375 634.632812 C 431.019531 633.988281 431.308594 633.246094 431.308594 632.40625 L 431.261719 630.746094 C 431.261719 629.867188 431.441406 629.183594 431.800781 628.703125 C 432.164062 628.226562 432.640625 627.992188 433.222656 627.992188 C 433.796875 627.992188 434.265625 628.234375 434.625 628.734375 C 434.988281 629.230469 435.167969 629.914062 435.167969 630.773438 C 435.167969 632.414062 434.492188 633.929688 433.144531 635.308594 C 431.796875 636.6875 429.894531 637.371094 427.457031 637.371094 C 425.582031 637.371094 424.054688 636.980469 422.851562 636.195312 C 421.949219 635.609375 421.285156 634.683594 420.851562 633.421875 C 420.578125 632.613281 420.4375 630.929688 420.4375 628.402344 L 420.4375 619.511719 C 420.4375 617.019531 420.398438 615.484375 420.320312 614.929688 C 420.242188 614.359375 420.113281 613.988281 419.941406 613.792969 C 419.761719 613.609375 419.558594 613.511719 419.332031 613.511719 C 419.082031 613.511719 418.867188 613.578125 418.679688 613.707031 C 418.359375 613.960938 417.738281 614.65625 416.8125 615.796875 L 416.8125 614.195312 C 418.539062 611.3125 420.1875 609.878906 421.753906 609.878906 C 422.507812 609.878906 423.113281 610.199219 423.558594 610.84375 C 424.007812 611.5 424.234375 612.601562 424.25 614.15625 Z M 424.25 616.023438 L 424.25 625.996094 C 426.578125 624.855469 428.078125 624.042969 428.757812 623.566406 C 429.976562 622.722656 430.847656 621.855469 431.371094 620.9375 C 431.898438 620.019531 432.15625 619.019531 432.15625 617.9375 C 432.15625 616.558594 431.824219 615.425781 431.160156 614.519531 C 430.5 613.609375 429.730469 613.160156 428.867188 613.160156 C 427.699219 613.160156 426.164062 614.117188 424.25 616.023438 Z M 407.03125 634.554688 L 407.03125 617.261719 C 407.03125 614.828125 406.820312 613.296875 406.390625 612.652344 C 405.816406 611.820312 405.054688 611.402344 404.097656 611.402344 L 402.183594 611.402344 L 402.183594 610.347656 L 414.796875 610.347656 L 414.796875 611.402344 L 413.855469 611.402344 C 413.246094 611.402344 412.679688 611.585938 412.179688 611.96875 C 411.667969 612.347656 411.324219 612.867188 411.132812 613.511719 C 410.9375 614.15625 410.84375 615.40625 410.84375 617.261719 L 410.84375 634.554688 L 414.9375 634.554688 L 414.9375 636.609375 L 410.84375 636.609375 L 410.84375 638.316406 C 410.84375 640.914062 410.507812 643.125 409.832031 644.929688 C 409.15625 646.730469 408.121094 648.195312 406.734375 649.296875 C 405.339844 650.410156 403.777344 650.96875 402.042969 650.96875 C 400.429688 650.96875 398.945312 650.324219 397.589844 649.035156 C 396.703125 648.183594 396.253906 647.238281 396.253906 646.171875 C 396.253906 645.605469 396.453125 645.066406 396.851562 644.570312 C 397.253906 644.070312 397.683594 643.816406 398.144531 643.816406 C 398.5 643.816406 398.867188 643.972656 399.261719 644.285156 C 399.652344 644.597656 400.128906 645.265625 400.703125 646.300781 C 401.269531 647.324219 401.792969 648.019531 402.265625 648.378906 C 402.742188 648.742188 403.265625 648.917969 403.855469 648.917969 C 404.5625 648.917969 405.15625 648.683594 405.652344 648.222656 C 406.136719 647.753906 406.492188 647.03125 406.710938 646.054688 C 406.921875 645.078125 407.03125 642.558594 407.03125 638.484375 L 407.03125 636.609375 L 401.621094 636.609375 L 401.621094 634.554688 Z M 396.066406 626.699219 C 396.082031 622.820312 395.320312 619.78125 393.792969 617.574219 C 392.265625 615.378906 390.460938 614.273438 388.386719 614.273438 C 387.015625 614.273438 385.816406 614.742188 384.796875 615.679688 C 383.777344 616.609375 382.921875 618.238281 382.230469 620.546875 L 381.523438 619.96875 C 381.847656 617.332031 382.78125 614.9375 384.324219 612.796875 C 385.871094 610.660156 387.808594 609.585938 390.128906 609.585938 C 392.65625 609.585938 394.820312 610.804688 396.617188 613.257812 C 398.410156 615.710938 399.3125 619.003906 399.3125 623.136719 C 399.3125 627.609375 398.390625 631.105469 396.546875 633.609375 C 394.703125 636.117188 392.390625 637.371094 389.605469 637.371094 C 387.25 637.371094 385.3125 636.402344 383.800781 634.46875 C 382.285156 632.53125 381.523438 629.945312 381.523438 626.699219 Z M 396.066406 628.34375 L 386.324219 628.34375 C 386.402344 630.023438 386.5625 631.203125 386.804688 631.886719 C 387.1875 632.953125 387.761719 633.792969 388.523438 634.398438 C 389.273438 635.015625 390.066406 635.316406 390.898438 635.316406 C 392.167969 635.316406 393.304688 634.703125 394.308594 633.472656 C 395.3125 632.238281 395.894531 630.53125 396.066406 628.34375 Z M 372.546875 645.222656 L 372.546875 636.609375 L 367.625 636.609375 L 367.625 634.671875 L 372.546875 634.613281 L 372.546875 617.605469 C 372.546875 615.90625 372.347656 614.753906 371.957031 614.164062 C 371.570312 613.570312 371.070312 613.277344 370.457031 613.277344 C 369.949219 613.277344 369.460938 613.472656 368.984375 613.871094 C 368.511719 614.261719 368.144531 614.851562 367.886719 615.621094 L 366.992188 615.621094 C 367.523438 613.734375 368.285156 612.320312 369.265625 611.363281 C 370.253906 610.414062 371.265625 609.9375 372.308594 609.9375 C 373.015625 609.9375 373.703125 610.179688 374.378906 610.667969 C 375.054688 611.15625 375.546875 611.859375 375.871094 612.769531 C 376.191406 613.675781 376.355469 615.074219 376.355469 616.96875 L 376.355469 634.671875 L 379.699219 634.671875 L 379.699219 635.582031 C 378.851562 636 377.988281 636.703125 377.101562 637.691406 C 376.214844 638.6875 375.429688 639.871094 374.734375 641.246094 C 374.378906 641.972656 373.886719 643.300781 373.25 645.222656 Z M 366.875 636.609375 L 357.015625 636.609375 L 357.015625 635.550781 L 357.5 635.550781 C 358.191406 635.550781 358.710938 635.367188 359.054688 634.996094 C 359.398438 634.625 359.570312 634.15625 359.570312 633.597656 C 359.570312 632.855469 359.3125 631.820312 358.808594 630.5 L 353.664062 617.203125 L 348.976562 631.761719 C 348.714844 632.542969 348.582031 633.324219 348.582031 634.085938 C 348.582031 634.429688 348.636719 634.691406 348.746094 634.859375 C 348.863281 635.074219 349.0625 635.238281 349.320312 635.367188 C 349.578125 635.492188 350.039062 635.550781 350.699219 635.550781 L 350.699219 636.609375 L 343.859375 636.609375 L 343.859375 635.550781 C 344.425781 635.472656 344.863281 635.328125 345.171875 635.09375 C 345.476562 634.867188 345.8125 634.4375 346.183594 633.8125 C 346.324219 633.550781 346.582031 632.816406 346.96875 631.613281 L 355.523438 605.382812 C 356.355469 602.84375 357.4375 600.929688 358.785156 599.628906 C 360.128906 598.328125 361.421875 597.683594 362.671875 597.683594 C 363.570312 597.683594 364.316406 598.007812 364.898438 598.660156 C 365.484375 599.304688 365.777344 600.046875 365.777344 600.890625 C 365.777344 601.6875 365.5625 602.335938 365.140625 602.8125 C 364.71875 603.300781 364.136719 603.546875 363.398438 603.546875 C 362.890625 603.546875 362.199219 603.351562 361.328125 602.949219 C 360.707031 602.6875 360.324219 602.550781 360.175781 602.550781 C 359.714844 602.550781 359.210938 602.84375 358.660156 603.429688 C 358.121094 604.003906 357.570312 605.140625 357.015625 606.820312 L 355.539062 611.410156 L 363.125 631.164062 C 363.359375 631.761719 363.722656 632.503906 364.230469 633.394531 C 364.613281 634.058594 364.929688 634.515625 365.171875 634.742188 C 365.523438 635.054688 366.089844 635.316406 366.875 635.550781 Z M 366.875 636.609375 "/>
<path fill-rule="evenodd" fill="rgb(13.725281%, 11.764526%, 11.764526%)" fill-opacity="1" d="M 151.433594 767.476562 C 151.433594 767.476562 163.804688 763.851562 163.9375 750.292969 C 164.070312 736.734375 155.027344 737.070312 150.503906 739.285156 C 145.984375 741.5 135.34375 746.199219 135.34375 746.199219 C 135.34375 746.199219 139.035156 742.101562 139.699219 740.222656 C 140.363281 738.34375 138.402344 738.476562 137.269531 739.6875 C 136.140625 740.894531 133.046875 744.050781 133.046875 744.050781 C 133.046875 744.050781 131.085938 741.363281 131.949219 736.195312 C 132.816406 731.027344 134.144531 725.121094 126.03125 721.765625 C 117.917969 718.410156 108.609375 730.222656 106.082031 734.25 C 103.554688 738.277344 104.886719 742.707031 104.886719 742.707031 C 104.886719 742.707031 97.835938 741.433594 94.777344 744.789062 C 91.71875 748.144531 87.992188 751.300781 83.140625 753.984375 C 78.285156 756.671875 73.164062 758.011719 72.832031 761.367188 C 72.5 764.722656 77.085938 771.167969 88.855469 773.449219 C 100.628906 775.730469 117.515625 766.9375 117.515625 766.9375 C 117.515625 766.9375 116.1875 771.101562 116.121094 772.441406 C 116.054688 773.785156 117.316406 774.1875 118.382812 773.449219 C 119.445312 772.710938 122.371094 769.21875 122.371094 769.21875 C 122.371094 769.21875 122.105469 777.140625 124.234375 783.785156 C 126.359375 790.429688 130.816406 800.835938 138.132812 804.59375 C 145.445312 808.351562 149.96875 796.808594 150.101562 792.378906 C 150.234375 787.949219 149.699219 784.992188 153.425781 781.371094 C 157.148438 777.746094 156.21875 768.75 151.433594 767.476562 "/>
<path fill-rule="nonzero" fill="rgb(13.725281%, 11.764526%, 11.764526%)" fill-opacity="1" d="M 197.859375 692.453125 L 209.113281 692.453125 L 211.058594 686.785156 C 211.539062 685.382812 211.789062 684.328125 211.789062 683.636719 C 211.789062 683.09375 211.578125 682.601562 211.152344 682.179688 C 210.738281 681.773438 209.824219 681.5 208.429688 681.371094 L 208.429688 680.390625 L 217.589844 680.390625 L 217.589844 681.371094 C 216.375 681.636719 215.59375 681.980469 215.238281 682.410156 C 214.507812 683.265625 213.703125 685.003906 212.820312 687.613281 L 202.597656 717.40625 L 201.875 717.40625 L 191.773438 687.296875 C 190.960938 684.875 190.226562 683.308594 189.558594 682.582031 C 188.894531 681.863281 187.976562 681.460938 186.785156 681.371094 L 186.785156 680.390625 L 198.238281 680.390625 L 198.238281 681.371094 C 197.085938 681.445312 196.300781 681.679688 195.894531 682.089844 C 195.484375 682.5 195.285156 683 195.285156 683.59375 C 195.285156 684.375 195.570312 685.613281 196.140625 687.304688 Z M 198.515625 694.421875 L 203.410156 709.023438 L 208.4375 694.421875 Z M 179.144531 705.558594 L 179.144531 700.042969 C 177.515625 703.71875 175.839844 705.558594 174.125 705.558594 C 173.351562 705.558594 172.707031 705.257812 172.195312 704.65625 C 171.683594 704.066406 171.429688 703.375 171.429688 702.589844 C 171.429688 701.890625 171.613281 701.300781 171.976562 700.816406 C 172.351562 700.335938 172.789062 700.097656 173.289062 700.097656 C 173.789062 700.097656 174.34375 700.40625 174.957031 701.027344 C 175.578125 701.644531 176.039062 701.953125 176.332031 701.953125 C 176.585938 701.953125 176.863281 701.773438 177.164062 701.417969 C 177.800781 700.6875 178.464844 699.480469 179.144531 697.804688 L 179.144531 686.121094 C 179.144531 684.765625 179.003906 683.730469 178.734375 683.035156 C 178.550781 682.554688 178.222656 682.152344 177.753906 681.84375 C 177.28125 681.527344 176.609375 681.371094 175.722656 681.371094 L 175.722656 680.390625 L 185.761719 680.390625 L 185.761719 681.371094 C 184.765625 681.371094 184.03125 681.5625 183.546875 681.953125 C 183.191406 682.246094 182.941406 682.691406 182.804688 683.320312 C 182.730469 683.617188 182.691406 684.484375 182.691406 685.902344 L 182.691406 695.347656 C 182.691406 698.1875 182.738281 699.871094 182.832031 700.414062 C 182.925781 700.953125 183.09375 701.351562 183.34375 701.597656 C 183.59375 701.84375 183.90625 701.972656 184.269531 701.972656 C 184.714844 701.972656 185.214844 701.835938 185.769531 701.570312 L 185.980469 702.554688 L 180.042969 705.558594 Z M 165.878906 689.351562 C 167.066406 690.078125 167.988281 691.089844 168.632812 692.398438 C 169.265625 693.699219 169.589844 695.140625 169.589844 696.722656 C 169.589844 699.132812 168.859375 701.207031 167.398438 702.945312 C 165.941406 704.683594 164.074219 705.558594 161.792969 705.558594 C 159.929688 705.558594 158.316406 704.992188 156.949219 703.863281 L 152.808594 703.863281 C 152.195312 703.863281 151.835938 703.847656 151.742188 703.800781 C 151.640625 703.753906 151.566406 703.683594 151.53125 703.574219 C 151.441406 703.410156 151.398438 703.128906 151.398438 702.71875 C 151.398438 702.253906 151.433594 701.9375 151.507812 701.753906 C 151.546875 701.671875 151.625 701.597656 151.726562 701.542969 C 151.835938 701.488281 152.195312 701.464844 152.808594 701.464844 L 155.359375 701.464844 C 154.5625 700.1875 154.160156 698.550781 154.160156 696.558594 C 154.160156 694.292969 154.855469 692.34375 156.25 690.726562 C 157.644531 689.113281 159.515625 688.304688 161.867188 688.304688 C 162.832031 688.304688 163.816406 688.488281 164.832031 688.84375 C 165.453125 688.160156 165.878906 687.566406 166.105469 687.058594 C 166.324219 686.550781 166.433594 686.121094 166.433594 685.765625 C 166.433594 685.457031 166.316406 685.164062 166.082031 684.882812 C 165.839844 684.59375 165.378906 684.394531 164.699219 684.265625 C 164.300781 684.191406 163.296875 684.121094 161.699219 684.066406 C 158.761719 683.972656 156.855469 683.839844 155.984375 683.664062 C 154.65625 683.4375 153.597656 682.820312 152.808594 681.828125 C 152.011719 680.824219 151.617188 679.605469 151.617188 678.140625 C 151.617188 676.140625 152.371094 674.246094 153.882812 672.492188 C 156.109375 669.898438 159.011719 668.597656 162.589844 668.597656 C 165.34375 668.597656 167.667969 669.371094 169.558594 670.917969 C 170.632812 671.808594 171.164062 672.738281 171.164062 673.691406 C 171.164062 674.121094 171.085938 674.546875 170.933594 674.976562 C 170.691406 675.628906 170.1875 676.550781 169.433594 677.722656 C 169.332031 677.886719 168.609375 678.84375 167.25 680.605469 C 167.996094 681.160156 168.515625 681.652344 168.820312 682.089844 C 169.128906 682.527344 169.28125 683.027344 169.28125 683.582031 C 169.28125 684.210938 169.078125 684.9375 168.675781 685.785156 C 168.273438 686.621094 167.339844 687.8125 165.878906 689.351562 Z M 162.152344 704.246094 C 163.203125 704.246094 164.085938 703.726562 164.796875 702.683594 C 165.503906 701.636719 165.863281 700.035156 165.863281 697.878906 C 165.863281 695.074219 165.378906 692.910156 164.410156 691.371094 C 163.671875 690.199219 162.734375 689.617188 161.597656 689.617188 C 160.515625 689.617188 159.625 690.117188 158.929688 691.125 C 158.234375 692.136719 157.886719 693.71875 157.886719 695.886719 C 157.886719 698.695312 158.375 700.898438 159.355469 702.492188 C 160.085938 703.664062 161.011719 704.246094 162.152344 704.246094 Z M 166.074219 680.390625 C 166.746094 679.488281 167.25 678.640625 167.585938 677.859375 C 167.929688 677.074219 168.097656 676.359375 168.097656 675.703125 C 168.097656 674.855469 167.679688 674.109375 166.855469 673.464844 C 165.4375 672.363281 163.378906 671.816406 160.691406 671.816406 C 158.128906 671.816406 156.234375 672.382812 155.023438 673.511719 C 153.800781 674.636719 153.195312 675.839844 153.195312 677.121094 C 153.195312 678.050781 153.5625 678.707031 154.285156 679.097656 C 155.027344 679.488281 156.488281 679.714844 158.683594 679.789062 C 161.886719 679.898438 164.351562 680.097656 166.074219 680.390625 Z M 139.542969 705.558594 C 136.570312 705.558594 134.1875 704.15625 132.390625 701.34375 C 130.863281 698.949219 130.097656 696.195312 130.097656 693.082031 C 130.097656 690.898438 130.519531 688.6875 131.359375 686.449219 C 132.199219 684.210938 133.363281 682.519531 134.839844 681.382812 C 136.320312 680.242188 137.964844 679.679688 139.777344 679.679688 C 142.734375 679.679688 145.085938 681.144531 146.824219 684.074219 C 148.292969 686.550781 149.03125 689.316406 149.03125 692.390625 C 149.03125 694.628906 148.585938 696.859375 147.695312 699.070312 C 146.804688 701.28125 145.628906 702.917969 144.164062 703.972656 C 142.714844 705.027344 141.171875 705.558594 139.542969 705.558594 Z M 140.207031 703.808594 C 140.960938 703.808594 141.71875 703.527344 142.488281 702.972656 C 143.246094 702.410156 143.867188 701.433594 144.335938 700.035156 C 144.808594 698.632812 145.042969 696.832031 145.042969 694.628906 C 145.042969 691.082031 144.472656 688.023438 143.339844 685.449219 C 142.210938 682.871094 140.710938 681.589844 138.855469 681.589844 C 137.476562 681.589844 136.335938 682.300781 135.4375 683.71875 C 134.539062 685.140625 134.085938 687.578125 134.085938 691.035156 C 134.085938 695.367188 134.839844 698.769531 136.335938 701.253906 C 137.34375 702.953125 138.636719 703.808594 140.207031 703.808594 Z M 114.625 705.558594 L 114.625 697.257812 L 115.328125 697.257812 C 115.867188 699.859375 116.5625 701.625 117.410156 702.5625 C 118.246094 703.5 119.328125 703.972656 120.636719 703.972656 C 121.632812 703.972656 122.433594 703.644531 123.046875 702.992188 C 123.652344 702.335938 123.960938 701.609375 123.960938 700.808594 C 123.960938 699.816406 123.734375 698.960938 123.289062 698.25 C 122.851562 697.523438 121.953125 696.75 120.601562 695.929688 L 117.476562 694.046875 C 114.582031 692.28125 113.136719 689.960938 113.136719 687.085938 C 113.136719 684.867188 113.808594 683.074219 115.160156 681.71875 C 116.503906 680.363281 118.015625 679.679688 119.679688 679.679688 C 120.878906 679.679688 122.253906 679.941406 123.785156 680.460938 C 124.261719 680.636719 124.648438 680.71875 124.945312 680.71875 C 125.269531 680.71875 125.53125 680.496094 125.714844 680.0625 L 126.414062 680.0625 L 126.414062 688.796875 L 125.714844 688.796875 C 125.3125 686.304688 124.554688 684.421875 123.421875 683.15625 C 122.296875 681.890625 121.03125 681.261719 119.628906 681.261719 C 118.648438 681.261719 117.847656 681.617188 117.226562 682.335938 C 116.605469 683.054688 116.289062 683.929688 116.289062 684.9375 C 116.289062 686.15625 116.640625 687.1875 117.335938 688.023438 C 118.03125 688.859375 119.410156 689.90625 121.484375 691.179688 C 123.550781 692.453125 124.902344 693.601562 125.546875 694.636719 C 126.183594 695.648438 126.503906 696.929688 126.503906 698.476562 C 126.503906 700.488281 125.949219 702.171875 124.84375 703.527344 C 123.742188 704.882812 122.316406 705.558594 120.5625 705.558594 C 119.789062 705.558594 118.863281 705.347656 117.757812 704.929688 C 117.035156 704.65625 116.554688 704.519531 116.3125 704.519531 C 116.078125 704.519531 115.902344 704.585938 115.773438 704.710938 C 115.648438 704.839844 115.496094 705.121094 115.328125 705.558594 Z M 74.25 717.40625 L 73.59375 705.121094 L 74.25 705.121094 C 75.136719 708.796875 76.390625 711.453125 78.027344 713.0625 C 79.664062 714.683594 81.621094 715.492188 83.914062 715.492188 C 85.828125 715.492188 87.566406 714.882812 89.117188 713.664062 C 90.664062 712.445312 91.886719 710.507812 92.777344 707.832031 C 93.660156 705.164062 94.105469 701.84375 94.105469 697.878906 C 94.105469 694.601562 93.6875 691.761719 92.847656 689.359375 C 92.007812 686.960938 90.746094 685.121094 89.066406 683.839844 C 87.378906 682.554688 85.457031 681.917969 83.300781 681.917969 C 81.425781 681.917969 79.765625 682.417969 78.335938 683.417969 C 76.894531 684.421875 75.316406 686.414062 73.601562 689.398438 L 72.9375 688.851562 C 74.390625 685.640625 76.085938 683.292969 78.019531 681.800781 C 79.957031 680.316406 82.257812 679.570312 84.917969 679.570312 C 89.714844 679.570312 93.433594 681.789062 96.0625 686.238281 C 98.027344 689.550781 99.015625 693.445312 99.015625 697.921875 C 99.015625 701.535156 98.363281 704.855469 97.070312 707.878906 C 95.777344 710.90625 93.996094 713.246094 91.730469 714.910156 C 89.460938 716.574219 86.984375 717.40625 84.296875 717.40625 C 82.207031 717.40625 80.144531 716.769531 78.109375 715.484375 C 77.515625 715.09375 77.085938 714.894531 76.828125 714.894531 C 76.449219 714.894531 76.113281 715.066406 75.828125 715.402344 C 75.457031 715.882812 75.191406 716.550781 75.039062 717.40625 Z M 58.953125 683.9375 C 60.964844 682 62.226562 680.871094 62.746094 680.570312 C 63.511719 680.125 64.332031 679.898438 65.199219 679.898438 C 66.558594 679.898438 67.675781 680.480469 68.554688 681.636719 C 69.429688 682.789062 69.867188 684.308594 69.867188 686.195312 C 69.867188 687.386719 69.65625 688.425781 69.226562 689.289062 C 68.640625 690.496094 67.625 691.636719 66.179688 692.710938 C 64.726562 693.773438 62.320312 695.074219 58.953125 696.605469 L 58.953125 697.558594 C 58.953125 699.988281 59.261719 701.652344 59.882812 702.5625 C 60.503906 703.464844 61.402344 703.921875 62.585938 703.921875 C 63.476562 703.921875 64.191406 703.617188 64.71875 703.007812 C 65.257812 702.410156 65.527344 701.71875 65.527344 700.933594 L 65.484375 699.386719 C 65.484375 698.570312 65.652344 697.933594 65.988281 697.484375 C 66.324219 697.039062 66.769531 696.820312 67.3125 696.820312 C 67.84375 696.820312 68.28125 697.050781 68.617188 697.515625 C 68.953125 697.976562 69.121094 698.613281 69.121094 699.414062 C 69.121094 700.945312 68.496094 702.355469 67.238281 703.636719 C 65.980469 704.921875 64.214844 705.558594 61.941406 705.558594 C 60.195312 705.558594 58.773438 705.191406 57.652344 704.464844 C 56.8125 703.921875 56.191406 703.054688 55.792969 701.882812 C 55.535156 701.125 55.402344 699.5625 55.402344 697.203125 L 55.402344 688.925781 C 55.402344 686.605469 55.367188 685.175781 55.292969 684.65625 C 55.222656 684.128906 55.105469 683.78125 54.945312 683.601562 C 54.777344 683.429688 54.585938 683.335938 54.375 683.335938 C 54.140625 683.335938 53.945312 683.402344 53.769531 683.519531 C 53.46875 683.757812 52.890625 684.402344 52.027344 685.464844 L 52.027344 683.972656 C 53.636719 681.289062 55.171875 679.953125 56.632812 679.953125 C 57.332031 679.953125 57.894531 680.253906 58.3125 680.851562 C 58.726562 681.460938 58.941406 682.492188 58.953125 683.9375 Z M 58.953125 685.675781 L 58.953125 694.964844 C 61.125 693.902344 62.519531 693.144531 63.15625 692.699219 C 64.285156 691.917969 65.097656 691.109375 65.585938 690.253906 C 66.078125 689.398438 66.316406 688.46875 66.316406 687.460938 C 66.316406 686.175781 66.011719 685.121094 65.390625 684.273438 C 64.777344 683.429688 64.0625 683.011719 63.257812 683.011719 C 62.167969 683.011719 60.738281 683.902344 58.953125 685.675781 Z M 44.804688 705.558594 L 44.804688 700.042969 C 43.175781 703.71875 41.503906 705.558594 39.785156 705.558594 C 39.011719 705.558594 38.367188 705.257812 37.859375 704.65625 C 37.347656 704.066406 37.089844 703.375 37.089844 702.589844 C 37.089844 701.890625 37.273438 701.300781 37.636719 700.816406 C 38.011719 700.335938 38.449219 700.097656 38.953125 700.097656 C 39.449219 700.097656 40.003906 700.40625 40.617188 701.027344 C 41.238281 701.644531 41.699219 701.953125 41.992188 701.953125 C 42.246094 701.953125 42.527344 701.773438 42.824219 701.417969 C 43.460938 700.6875 44.125 699.480469 44.804688 697.804688 L 44.804688 686.121094 C 44.804688 684.765625 44.664062 683.730469 44.394531 683.035156 C 44.214844 682.554688 43.882812 682.152344 43.417969 681.84375 C 42.941406 681.527344 42.269531 681.371094 41.386719 681.371094 L 41.386719 680.390625 L 51.421875 680.390625 L 51.421875 681.371094 C 50.429688 681.371094 49.691406 681.5625 49.210938 681.953125 C 48.851562 682.246094 48.601562 682.691406 48.464844 683.320312 C 48.390625 683.617188 48.355469 684.484375 48.355469 685.902344 L 48.355469 695.347656 C 48.355469 698.1875 48.398438 699.871094 48.492188 700.414062 C 48.589844 700.953125 48.757812 701.351562 49.003906 701.597656 C 49.253906 701.84375 49.566406 701.972656 49.933594 701.972656 C 50.378906 701.972656 50.875 701.835938 51.429688 701.570312 L 51.640625 702.554688 L 45.703125 705.558594 Z M 32.707031 695.621094 C 32.722656 692.007812 32.011719 689.179688 30.589844 687.121094 C 29.164062 685.074219 27.484375 684.046875 25.554688 684.046875 C 24.277344 684.046875 23.160156 684.484375 22.210938 685.355469 C 21.261719 686.222656 20.464844 687.742188 19.820312 689.890625 L 19.164062 689.351562 C 19.464844 686.894531 20.332031 684.664062 21.773438 682.671875 C 23.210938 680.679688 25.015625 679.679688 27.175781 679.679688 C 29.53125 679.679688 31.546875 680.816406 33.21875 683.101562 C 34.890625 685.382812 35.730469 688.449219 35.730469 692.300781 C 35.730469 696.46875 34.871094 699.726562 33.152344 702.054688 C 31.4375 704.390625 29.28125 705.558594 26.6875 705.558594 C 24.496094 705.558594 22.691406 704.65625 21.28125 702.855469 C 19.871094 701.054688 19.164062 698.640625 19.164062 695.621094 Z M 32.707031 697.148438 L 23.632812 697.148438 C 23.707031 698.714844 23.855469 699.816406 24.082031 700.453125 C 24.4375 701.445312 24.972656 702.226562 25.679688 702.789062 C 26.382812 703.363281 27.121094 703.644531 27.894531 703.644531 C 29.078125 703.644531 30.136719 703.074219 31.070312 701.925781 C 32.007812 700.78125 32.546875 699.1875 32.707031 697.148438 "/>
</svg>
