<svg xmlns="http://www.w3.org/2000/svg" 
                    viewBox="57.628906 521.847656 600.582032 183.97265599999992" 
                    width="600.582032" 
                    height="183.97265599999992"
                    data-content-extracted="true"
                    data-original-bounds="57.628906,521.847656,658.210938,705.820312">
                      
<path fill-rule="nonzero" fill="rgb(14.108276%, 19.862366%, 25.779724%)" fill-opacity="1" d="M 573.941406 599.507812 C 578.480469 599.507812 583.019531 599.484375 587.558594 599.519531 C 589.113281 599.53125 589.859375 598.945312 589.808594 597.414062 C 589.738281 595.285156 589.878906 593.140625 589.695312 591.023438 C 589.175781 584.921875 586.339844 581.585938 580.578125 580.398438 C 576.277344 579.515625 571.917969 579.539062 567.613281 580.40625 C 562.636719 581.410156 559.734375 584.386719 558.773438 589.144531 C 558.238281 591.792969 558.492188 594.460938 558.367188 597.117188 C 558.285156 598.871094 559.035156 599.5625 560.882812 599.53125 C 565.234375 599.464844 569.589844 599.511719 573.941406 599.507812 M 574.019531 618.265625 C 560.449219 618.265625 546.878906 618.269531 533.304688 618.261719 C 530.273438 618.261719 530.128906 618.148438 530.152344 615.253906 C 530.230469 606.835938 529.96875 598.414062 530.335938 589.996094 C 530.992188 574.789062 538.886719 564.863281 554.285156 560.882812 C 567.890625 557.367188 581.664062 557.363281 595.210938 561.269531 C 609.074219 565.269531 616.691406 574.859375 617.511719 588.648438 C 618.054688 597.773438 617.605469 606.90625 617.777344 616.035156 C 617.8125 617.933594 616.816406 618.414062 615.105469 618.265625 C 614.984375 618.253906 614.855469 618.265625 614.734375 618.265625 C 601.160156 618.265625 587.589844 618.265625 574.019531 618.265625 "/>
<path fill-rule="nonzero" fill="rgb(14.151001%, 19.923401%, 25.917053%)" fill-opacity="1" d="M 436.3125 580.441406 C 436.3125 594.199219 436.300781 607.957031 436.328125 621.714844 C 436.332031 623.847656 436.453125 625.984375 436.652344 628.105469 C 437.097656 632.839844 440.289062 635.789062 445.296875 636.074219 C 449.347656 636.308594 453.386719 636.054688 457.410156 635.566406 C 459.875 635.269531 460.210938 635.5 460.21875 637.78125 C 460.238281 643.710938 460.214844 649.640625 460.234375 655.574219 C 460.238281 656.808594 460.039062 657.839844 458.492188 658.058594 C 448.90625 659.40625 439.273438 660.253906 429.742188 658.007812 C 417.476562 655.125 409.714844 646.074219 408.578125 633.953125 C 408.269531 630.695312 408.222656 627.441406 408.222656 624.179688 C 408.230469 610.71875 408.226562 597.257812 408.222656 583.796875 C 408.222656 580.3125 408.222656 580.308594 404.472656 580.304688 C 401.484375 580.300781 398.496094 580.265625 395.507812 580.308594 C 393.917969 580.332031 393.273438 579.683594 393.285156 578.175781 C 393.328125 573.132812 393.332031 568.09375 393.285156 563.054688 C 393.273438 561.511719 393.964844 560.945312 395.535156 560.96875 C 398.960938 561.019531 402.386719 560.929688 405.808594 560.996094 C 407.554688 561.03125 408.273438 560.429688 408.246094 558.714844 C 408.171875 554.152344 408.277344 549.582031 408.195312 545.019531 C 408.167969 543.402344 408.632812 542.230469 410.011719 541.203125 C 412.898438 539.046875 415.703125 536.777344 418.472656 534.484375 C 419.585938 533.566406 420.769531 533.207031 422.21875 533.226562 C 425.953125 533.28125 429.6875 533.238281 433.421875 533.246094 C 436.132812 533.257812 436.308594 533.410156 436.308594 535.964844 C 436.316406 550.789062 436.3125 565.617188 436.3125 580.441406 "/>
<path fill-rule="nonzero" fill="rgb(14.108276%, 19.862366%, 25.779724%)" fill-opacity="1" d="M 140.410156 590.550781 C 140.40625 568.78125 140.40625 547.019531 140.410156 525.253906 C 140.410156 521.859375 140.414062 521.855469 143.878906 521.855469 C 151.101562 521.851562 158.324219 521.851562 165.546875 521.855469 C 168.589844 521.855469 168.652344 521.914062 168.65625 524.886719 C 168.65625 566.046875 168.65625 607.203125 168.65625 648.363281 C 168.65625 651.03125 168.664062 653.699219 168.652344 656.367188 C 168.644531 659.109375 168.535156 659.222656 165.746094 659.226562 C 158.273438 659.234375 150.804688 659.234375 143.328125 659.226562 C 140.542969 659.226562 140.414062 659.105469 140.410156 656.378906 C 140.40625 634.4375 140.410156 612.492188 140.410156 590.550781 "/>
<path fill-rule="nonzero" fill="rgb(14.151001%, 19.923401%, 25.917053%)" fill-opacity="1" d="M 88.429688 590.71875 C 88.429688 612.488281 88.429688 634.253906 88.425781 656.023438 C 88.425781 659.21875 88.417969 659.226562 85.128906 659.226562 C 77.777344 659.230469 70.429688 659.234375 63.082031 659.222656 C 60.535156 659.222656 60.359375 659.066406 60.359375 656.742188 C 60.351562 612.613281 60.351562 568.484375 60.359375 524.351562 C 60.359375 522.023438 60.542969 521.863281 63.074219 521.859375 C 70.546875 521.847656 78.019531 521.851562 85.492188 521.855469 C 88.292969 521.859375 88.425781 521.984375 88.425781 524.699219 C 88.429688 546.707031 88.429688 568.710938 88.429688 590.71875 "/>
<path fill-rule="nonzero" fill="rgb(14.151001%, 19.923401%, 25.917053%)" fill-opacity="1" d="M 481.816406 590.539062 C 481.8125 568.714844 481.8125 546.886719 481.816406 525.058594 C 481.816406 521.863281 481.824219 521.855469 485.105469 521.855469 C 492.453125 521.851562 499.800781 521.847656 507.148438 521.859375 C 509.671875 521.863281 509.871094 522.035156 509.871094 524.351562 C 509.875 568.480469 509.875 612.609375 509.871094 656.738281 C 509.871094 659.050781 509.675781 659.21875 507.144531 659.222656 C 499.609375 659.234375 492.074219 659.234375 484.539062 659.222656 C 481.96875 659.21875 481.820312 659.074219 481.820312 656.558594 C 481.8125 634.550781 481.816406 612.546875 481.816406 590.539062 "/>
<path fill-rule="nonzero" fill="rgb(14.151001%, 19.923401%, 25.917053%)" fill-opacity="1" d="M 193.699219 597.222656 C 193.699219 586.011719 193.695312 574.804688 193.703125 563.59375 C 193.703125 560.796875 193.816406 560.691406 196.765625 560.6875 C 204.175781 560.683594 211.585938 560.679688 218.996094 560.691406 C 221.585938 560.695312 221.765625 560.871094 221.769531 563.320312 C 221.773438 581.707031 221.769531 600.09375 221.78125 618.476562 C 221.78125 619.777344 221.777344 621.097656 221.984375 622.378906 C 223.050781 628.960938 227.335938 632.089844 234.3125 631.328125 C 237.648438 630.960938 240.964844 630.40625 244.289062 629.929688 C 246.90625 629.554688 247.164062 629.734375 247.175781 632.167969 C 247.191406 636.613281 247.144531 641.0625 247.199219 645.511719 C 247.214844 646.863281 246.816406 647.878906 245.6875 648.753906 C 241.875 651.707031 238.105469 654.71875 234.339844 657.730469 C 233.339844 658.53125 232.179688 658.960938 230.933594 659.058594 C 222.566406 659.703125 214.480469 658.8125 207.160156 654.566406 C 199.378906 650.054688 195.515625 643.117188 194.136719 634.742188 C 193.777344 632.5625 193.695312 630.378906 193.695312 628.179688 C 193.707031 617.859375 193.703125 607.539062 193.699219 597.222656 "/>
<path fill-rule="nonzero" fill="rgb(14.151001%, 19.923401%, 25.917053%)" fill-opacity="1" d="M 316.511719 590.871094 C 320.371094 590.871094 324.234375 590.902344 328.09375 590.855469 C 329.488281 590.835938 330.382812 591.171875 330.9375 592.550781 C 332.03125 595.257812 334.566406 596.210938 337.304688 596.574219 C 343.285156 597.363281 349.273438 598.097656 355.277344 598.710938 C 362.367188 599.429688 368.734375 601.578125 373.816406 606.554688 C 377.734375 610.390625 380.234375 614.980469 380.707031 620.261719 C 381.261719 626.449219 381.550781 632.707031 380.308594 638.875 C 378.738281 646.660156 374.023438 652.144531 366.484375 655.460938 C 361.023438 657.863281 355.203125 658.800781 349.269531 659.148438 C 345.980469 659.335938 342.671875 659.179688 339.371094 659.234375 C 337.949219 659.257812 337.320312 658.675781 337.324219 657.332031 C 337.335938 651.164062 337.339844 644.996094 337.316406 638.824219 C 337.3125 637.421875 337.910156 636.765625 339.441406 636.796875 C 341.742188 636.839844 344.039062 636.773438 346.328125 636.40625 C 349.71875 635.863281 351.792969 634.066406 352.5625 630.855469 C 352.886719 629.507812 352.972656 628.160156 352.925781 626.792969 C 352.828125 624 351.386719 622.121094 348.6875 621.066406 C 346.335938 620.152344 343.824219 620.089844 341.363281 619.785156 C 336.050781 619.132812 330.722656 618.613281 325.417969 617.929688 C 312.035156 616.203125 302.363281 605.859375 302.4375 593.425781 C 302.449219 591.105469 302.664062 590.886719 305.117188 590.875 C 308.914062 590.855469 312.714844 590.867188 316.511719 590.871094 "/>
<path fill-rule="nonzero" fill="rgb(14.151001%, 19.923401%, 25.917053%)" fill-opacity="1" d="M 253.496094 608.898438 C 253.496094 593.84375 253.496094 578.785156 253.5 563.730469 C 253.5 560.765625 253.574219 560.691406 256.601562 560.6875 C 263.945312 560.683594 271.289062 560.679688 278.632812 560.691406 C 281.394531 560.691406 281.554688 560.839844 281.558594 563.359375 C 281.5625 593.710938 281.5625 624.0625 281.554688 654.410156 C 281.554688 656.925781 281.394531 657.085938 278.832031 657.085938 C 271.304688 657.097656 263.773438 657.097656 256.242188 657.085938 C 253.679688 657.085938 253.503906 656.917969 253.503906 654.425781 C 253.496094 639.25 253.5 624.074219 253.496094 608.898438 "/>
<path fill-rule="nonzero" fill="rgb(14.151001%, 19.923401%, 25.917053%)" fill-opacity="1" d="M 584.160156 659.214844 C 575.542969 659.457031 566.972656 659.226562 558.578125 657.097656 C 553.253906 655.746094 548.179688 653.828125 543.589844 650.867188 C 534.515625 645.003906 530.894531 636.464844 530.363281 626.402344 C 530.289062 624.980469 530.925781 624.355469 532.445312 624.359375 C 540.476562 624.386719 548.507812 624.378906 556.535156 624.363281 C 557.671875 624.363281 558.371094 624.699219 558.6875 625.855469 C 561.105469 634.703125 564.648438 637.445312 574.601562 637.832031 C 587.066406 638.320312 599.484375 637.675781 611.835938 635.992188 C 614.078125 635.683594 614.34375 635.886719 614.351562 638.058594 C 614.375 643.570312 614.308594 649.085938 614.386719 654.597656 C 614.414062 656.472656 613.601562 657.222656 611.703125 657.433594 C 602.550781 658.441406 593.375 659.117188 584.160156 659.214844 "/>
<path fill-rule="nonzero" fill="rgb(14.151001%, 19.923401%, 25.917053%)" fill-opacity="1" d="M 316.675781 585.226562 C 312.691406 585.226562 308.703125 585.1875 304.722656 585.246094 C 303.023438 585.269531 302.378906 584.601562 302.445312 583.007812 C 302.898438 572.347656 308.070312 565.242188 318.210938 561.664062 C 324.476562 559.449219 331.035156 558.710938 337.644531 558.554688 C 348.730469 558.300781 359.792969 558.851562 370.824219 559.917969 C 370.886719 559.921875 370.949219 559.925781 371.011719 559.933594 C 375.023438 560.363281 375.023438 560.363281 375.027344 564.269531 C 375.027344 569.488281 375.03125 574.703125 375.023438 579.921875 C 375.019531 582.972656 375.011719 583.007812 371.757812 582.699219 C 363.027344 581.878906 354.308594 580.882812 345.519531 580.871094 C 342.902344 580.867188 340.289062 580.835938 337.707031 581.355469 C 335.296875 581.84375 332.980469 582.5 331.371094 584.449219 C 330.691406 585.269531 329.742188 585.222656 328.8125 585.222656 C 324.765625 585.234375 320.71875 585.226562 316.675781 585.226562 "/>
<path fill-rule="nonzero" fill="rgb(14.151001%, 19.923401%, 25.917053%)" fill-opacity="1" d="M 114.523438 578.730469 C 120.246094 578.730469 125.96875 578.71875 131.691406 578.738281 C 134.128906 578.742188 134.359375 578.964844 134.363281 581.296875 C 134.378906 587.578125 134.378906 593.855469 134.363281 600.136719 C 134.359375 602.46875 134.140625 602.679688 131.683594 602.683594 C 120.238281 602.695312 108.792969 602.695312 97.347656 602.683594 C 94.910156 602.679688 94.667969 602.449219 94.660156 600.128906 C 94.644531 593.851562 94.644531 587.570312 94.660156 581.289062 C 94.667969 578.980469 94.921875 578.742188 97.355469 578.738281 C 103.078125 578.71875 108.800781 578.730469 114.523438 578.730469 "/>
<path fill-rule="nonzero" fill="rgb(14.108276%, 19.862366%, 25.779724%)" fill-opacity="1" d="M 302.820312 645.621094 C 302.820312 642.421875 302.859375 639.222656 302.804688 636.023438 C 302.78125 634.511719 303.414062 634.039062 304.964844 634.261719 C 313.023438 635.425781 321.128906 636.21875 329.257812 636.746094 C 330.582031 636.835938 331.164062 637.398438 331.164062 638.632812 C 331.15625 644.851562 331.152344 651.074219 331.167969 657.296875 C 331.171875 658.609375 330.546875 659.0625 329.195312 658.964844 C 321.195312 658.371094 313.199219 657.785156 305.195312 657.269531 C 303.371094 657.152344 302.730469 656.398438 302.789062 654.6875 C 302.890625 651.667969 302.816406 648.644531 302.820312 645.621094 "/>
<path fill-rule="nonzero" fill="rgb(14.151001%, 19.923401%, 25.917053%)" fill-opacity="1" d="M 460.921875 570.601562 C 460.921875 573.089844 460.871094 575.574219 460.941406 578.058594 C 460.980469 579.625 460.351562 580.328125 458.65625 580.3125 C 454.058594 580.265625 449.460938 580.269531 444.863281 580.308594 C 443.289062 580.320312 442.609375 579.710938 442.621094 578.195312 C 442.660156 573.164062 442.660156 568.136719 442.617188 563.105469 C 442.605469 561.617188 443.191406 560.953125 444.808594 560.96875 C 449.40625 561.019531 454.007812 561.019531 458.601562 560.964844 C 460.257812 560.945312 460.988281 561.523438 460.941406 563.148438 C 460.867188 565.628906 460.921875 568.117188 460.921875 570.601562 "/>
<path fill-rule="nonzero" fill="rgb(14.108276%, 19.862366%, 25.779724%)" fill-opacity="1" d="M 635.058594 647.980469 C 635.082031 641.867188 638.386719 637.839844 644.003906 637.078125 C 644.882812 636.960938 645.832031 636.75 646.015625 637.976562 C 646.171875 639.015625 645.511719 639.40625 644.546875 639.660156 C 638.253906 641.308594 635.738281 649.484375 640.027344 654.265625 C 641.175781 655.542969 642.667969 656.199219 644.367188 656.488281 C 645.382812 656.660156 646.226562 657.023438 645.988281 658.199219 C 645.730469 659.480469 644.660156 659.21875 643.753906 659.085938 C 638.242188 658.289062 635.035156 654.183594 635.058594 647.980469 "/>
<path fill-rule="nonzero" fill="rgb(14.108276%, 19.862366%, 25.779724%)" fill-opacity="1" d="M 658.1875 648.117188 C 658.175781 653.90625 655.171875 657.894531 650.007812 658.976562 C 649.644531 659.054688 649.277344 659.117188 648.90625 659.152344 C 648.105469 659.230469 647.363281 659.140625 647.195312 658.210938 C 647.027344 657.285156 647.539062 656.839844 648.453125 656.558594 C 654.117188 654.824219 656.222656 651.164062 654.917969 645.46875 C 654.214844 642.382812 652.34375 640.410156 649.058594 639.734375 C 648.753906 639.671875 648.445312 639.628906 648.148438 639.542969 C 647.273438 639.285156 647.015625 638.652344 647.179688 637.871094 C 647.347656 637.035156 648.007812 636.984375 648.761719 637.03125 C 652.964844 637.289062 656.421875 640.023438 657.617188 644.078125 C 658.003906 645.398438 658.210938 646.742188 658.1875 648.117188 "/>
<path fill-rule="nonzero" fill="rgb(14.108276%, 19.862366%, 25.779724%)" fill-opacity="1" d="M 642.546875 647.757812 C 642.546875 646.394531 642.539062 645.035156 642.546875 643.671875 C 642.554688 642.90625 642.746094 642.210938 643.695312 642.101562 C 644.671875 641.992188 645.71875 641.769531 646.53125 642.507812 C 646.992188 642.929688 646.949219 643.589844 646.457031 643.9375 C 645.257812 644.796875 645.40625 645.996094 645.394531 647.171875 C 645.378906 648.710938 645.398438 650.25 645.371094 651.789062 C 645.351562 652.726562 645.242188 653.628906 643.886719 653.585938 C 642.664062 653.546875 642.542969 652.730469 642.539062 651.847656 C 642.53125 650.484375 642.535156 649.121094 642.535156 647.757812 "/>
<path fill-rule="nonzero" fill="rgb(14.108276%, 19.862366%, 25.779724%)" fill-opacity="1" d="M 651.121094 645.5625 C 651.101562 646.214844 651.253906 647.003906 650.769531 647.449219 C 649.191406 648.902344 650.113281 650.203125 650.816406 651.597656 C 651.09375 652.152344 651.945312 652.910156 650.9375 653.40625 C 650.042969 653.84375 649.109375 653.53125 648.5625 652.597656 C 647.773438 651.257812 646.945312 649.933594 646.210938 648.570312 C 645.769531 647.753906 645.976562 647.050781 646.988281 646.753906 C 648.292969 646.375 648.625 645.625 648.078125 644.445312 C 647.722656 643.667969 647.367188 642.722656 648.492188 642.335938 C 649.5 641.988281 650.257812 642.65625 650.761719 643.484375 C 651.152344 644.128906 651.101562 644.855469 651.121094 645.5625 "/>
<path fill-rule="nonzero" fill="rgb(89.361572%, 12.831116%, 14.923096%)" fill-opacity="1" d="M 77.996094 700.929688 C 77.996094 701.234375 77.972656 701.492188 77.929688 701.699219 C 77.886719 701.90625 77.820312 702.070312 77.730469 702.199219 C 77.640625 702.324219 77.53125 702.417969 77.398438 702.476562 C 77.265625 702.535156 77.121094 702.5625 76.960938 702.5625 L 59.699219 702.5625 C 59.117188 702.5625 58.625 702.460938 58.226562 702.253906 C 57.828125 702.046875 57.628906 701.710938 57.628906 701.246094 L 57.628906 683.351562 C 57.628906 682.886719 57.828125 682.550781 58.226562 682.34375 C 58.625 682.136719 59.117188 682.035156 59.699219 682.035156 L 76.855469 682.035156 C 77.015625 682.035156 77.15625 682.0625 77.28125 682.113281 C 77.402344 682.167969 77.507812 682.261719 77.597656 682.390625 C 77.6875 682.523438 77.753906 682.695312 77.796875 682.898438 C 77.839844 683.105469 77.863281 683.367188 77.863281 683.683594 C 77.863281 683.980469 77.839844 684.234375 77.796875 684.4375 C 77.753906 684.644531 77.6875 684.8125 77.597656 684.9375 C 77.507812 685.066406 77.402344 685.15625 77.28125 685.214844 C 77.15625 685.273438 77.015625 685.304688 76.855469 685.304688 L 64.585938 685.304688 L 64.585938 690.316406 L 74.96875 690.316406 C 75.128906 690.316406 75.273438 690.347656 75.40625 690.402344 C 75.539062 690.460938 75.652344 690.550781 75.738281 690.671875 C 75.828125 690.796875 75.894531 690.960938 75.9375 691.164062 C 75.980469 691.371094 76.003906 691.621094 76.003906 691.917969 C 76.003906 692.226562 75.980469 692.480469 75.9375 692.679688 C 75.894531 692.882812 75.828125 693.042969 75.738281 693.164062 C 75.652344 693.285156 75.539062 693.371094 75.40625 693.425781 C 75.273438 693.480469 75.128906 693.503906 74.96875 693.503906 L 64.585938 693.503906 L 64.585938 699.296875 L 76.960938 699.296875 C 77.121094 699.296875 77.265625 699.324219 77.398438 699.382812 C 77.53125 699.441406 77.640625 699.535156 77.730469 699.660156 C 77.820312 699.785156 77.886719 699.953125 77.929688 700.160156 C 77.972656 700.367188 77.996094 700.621094 77.996094 700.929688 "/>
<path fill-rule="nonzero" fill="rgb(89.361572%, 12.831116%, 14.923096%)" fill-opacity="1" d="M 112.492188 701.105469 C 112.492188 701.347656 112.421875 701.5625 112.277344 701.753906 C 112.136719 701.945312 111.949219 702.105469 111.710938 702.230469 C 111.46875 702.355469 111.1875 702.449219 110.859375 702.507812 C 110.53125 702.566406 110.199219 702.59375 109.863281 702.59375 L 106.890625 702.59375 C 106.269531 702.59375 105.734375 702.558594 105.28125 702.484375 C 104.832031 702.410156 104.414062 702.273438 104.035156 702.078125 C 103.652344 701.882812 103.285156 701.621094 102.933594 701.285156 C 102.578125 700.953125 102.179688 700.523438 101.738281 699.992188 L 93.1875 690.394531 C 92.691406 689.824219 92.1875 689.210938 91.671875 688.546875 C 91.160156 687.886719 90.699219 687.246094 90.292969 686.621094 L 90.238281 686.621094 C 90.308594 687.382812 90.363281 688.140625 90.398438 688.898438 C 90.433594 689.652344 90.453125 690.433594 90.453125 691.238281 L 90.453125 701.976562 C 90.453125 702.082031 90.402344 702.179688 90.304688 702.261719 C 90.207031 702.347656 90.039062 702.417969 89.800781 702.476562 C 89.5625 702.535156 89.238281 702.578125 88.832031 702.609375 C 88.421875 702.644531 87.902344 702.660156 87.265625 702.660156 C 86.644531 702.660156 86.132812 702.644531 85.722656 702.609375 C 85.316406 702.578125 84.996094 702.535156 84.769531 702.476562 C 84.539062 702.417969 84.378906 702.347656 84.289062 702.261719 C 84.203125 702.179688 84.15625 702.082031 84.15625 701.976562 L 84.15625 683.527344 C 84.15625 683.03125 84.402344 682.65625 84.886719 682.410156 C 85.375 682.160156 85.972656 682.035156 86.679688 682.035156 L 90.425781 682.035156 C 91.097656 682.035156 91.664062 682.070312 92.125 682.140625 C 92.585938 682.207031 92.996094 682.320312 93.359375 682.480469 C 93.722656 682.636719 94.0625 682.859375 94.382812 683.136719 C 94.699219 683.417969 95.027344 683.765625 95.363281 684.175781 L 102.054688 691.679688 C 102.445312 692.136719 102.828125 692.582031 103.210938 693.019531 C 103.589844 693.460938 103.960938 693.898438 104.3125 694.339844 C 104.667969 694.777344 105.011719 695.207031 105.347656 695.632812 C 105.683594 696.054688 106.011719 696.476562 106.332031 696.898438 L 106.355469 696.898438 C 106.304688 696.160156 106.265625 695.386719 106.238281 694.585938 C 106.210938 693.78125 106.199219 693.011719 106.199219 692.285156 L 106.199219 682.652344 C 106.199219 682.546875 106.253906 682.453125 106.355469 682.367188 C 106.464844 682.285156 106.640625 682.210938 106.890625 682.144531 C 107.136719 682.082031 107.464844 682.039062 107.871094 682.011719 C 108.277344 681.984375 108.800781 681.972656 109.4375 681.972656 C 110.039062 681.972656 110.546875 681.984375 110.953125 682.011719 C 111.359375 682.039062 111.671875 682.082031 111.894531 682.144531 C 112.117188 682.210938 112.269531 682.285156 112.359375 682.367188 C 112.449219 682.453125 112.492188 682.546875 112.492188 682.652344 "/>
<path fill-rule="nonzero" fill="rgb(89.361572%, 12.831116%, 14.923096%)" fill-opacity="1" d="M 148.316406 701.105469 C 148.316406 701.347656 148.242188 701.5625 148.101562 701.753906 C 147.960938 701.945312 147.769531 702.105469 147.53125 702.230469 C 147.292969 702.355469 147.007812 702.449219 146.683594 702.507812 C 146.355469 702.566406 146.023438 702.59375 145.6875 702.59375 L 142.710938 702.59375 C 142.09375 702.59375 141.558594 702.558594 141.105469 702.484375 C 140.652344 702.410156 140.238281 702.273438 139.859375 702.078125 C 139.476562 701.882812 139.109375 701.621094 138.753906 701.285156 C 138.402344 700.953125 138.003906 700.523438 137.5625 699.992188 L 129.007812 690.394531 C 128.515625 689.824219 128.007812 689.210938 127.496094 688.546875 C 126.980469 687.886719 126.523438 687.246094 126.117188 686.621094 L 126.0625 686.621094 C 126.132812 687.382812 126.1875 688.140625 126.222656 688.898438 C 126.257812 689.652344 126.273438 690.433594 126.273438 691.238281 L 126.273438 701.976562 C 126.273438 702.082031 126.226562 702.179688 126.128906 702.261719 C 126.03125 702.347656 125.863281 702.417969 125.625 702.476562 C 125.386719 702.535156 125.0625 702.578125 124.652344 702.609375 C 124.246094 702.644531 123.726562 702.660156 123.089844 702.660156 C 122.46875 702.660156 121.953125 702.644531 121.546875 702.609375 C 121.140625 702.578125 120.820312 702.535156 120.59375 702.476562 C 120.359375 702.417969 120.203125 702.347656 120.113281 702.261719 C 120.023438 702.179688 119.980469 702.082031 119.980469 701.976562 L 119.980469 683.527344 C 119.980469 683.03125 120.222656 682.65625 120.710938 682.410156 C 121.199219 682.160156 121.796875 682.035156 122.503906 682.035156 L 126.246094 682.035156 C 126.921875 682.035156 127.488281 682.070312 127.949219 682.140625 C 128.40625 682.207031 128.820312 682.320312 129.183594 682.480469 C 129.546875 682.636719 129.886719 682.859375 130.203125 683.136719 C 130.523438 683.417969 130.851562 683.765625 131.1875 684.175781 L 137.878906 691.679688 C 138.269531 692.136719 138.652344 692.582031 139.035156 693.019531 C 139.414062 693.460938 139.78125 693.898438 140.136719 694.339844 C 140.488281 694.777344 140.835938 695.207031 141.171875 695.632812 C 141.507812 696.054688 141.835938 696.476562 142.152344 696.898438 L 142.179688 696.898438 C 142.128906 696.160156 142.089844 695.386719 142.0625 694.585938 C 142.035156 693.78125 142.023438 693.011719 142.023438 692.285156 L 142.023438 682.652344 C 142.023438 682.546875 142.074219 682.453125 142.179688 682.367188 C 142.289062 682.285156 142.464844 682.210938 142.710938 682.144531 C 142.960938 682.082031 143.289062 682.039062 143.695312 682.011719 C 144.101562 681.984375 144.625 681.972656 145.261719 681.972656 C 145.863281 681.972656 146.367188 681.984375 146.777344 682.011719 C 147.183594 682.039062 147.496094 682.082031 147.71875 682.144531 C 147.9375 682.210938 148.09375 682.285156 148.183594 682.367188 C 148.269531 682.453125 148.316406 682.546875 148.316406 682.652344 "/>
<path fill-rule="nonzero" fill="rgb(89.361572%, 12.831116%, 14.923096%)" fill-opacity="1" d="M 162.8125 701.992188 C 162.8125 702.097656 162.757812 702.191406 162.640625 702.277344 C 162.527344 702.363281 162.335938 702.433594 162.070312 702.484375 C 161.804688 702.535156 161.449219 702.578125 161.007812 702.609375 C 160.566406 702.644531 160 702.660156 159.308594 702.660156 C 158.636719 702.660156 158.074219 702.644531 157.621094 702.609375 C 157.171875 702.578125 156.8125 702.535156 156.546875 702.484375 C 156.28125 702.433594 156.09375 702.363281 155.976562 702.277344 C 155.859375 702.191406 155.804688 702.097656 155.804688 701.992188 L 155.804688 682.605469 C 155.804688 682.5 155.859375 682.40625 155.976562 682.320312 C 156.09375 682.234375 156.285156 682.167969 156.5625 682.113281 C 156.835938 682.0625 157.191406 682.019531 157.636719 681.988281 C 158.078125 681.957031 158.636719 681.941406 159.308594 681.941406 C 160 681.941406 160.566406 681.957031 161.007812 681.988281 C 161.449219 682.019531 161.804688 682.0625 162.070312 682.113281 C 162.335938 682.167969 162.527344 682.234375 162.640625 682.320312 C 162.757812 682.40625 162.8125 682.5 162.8125 682.605469 "/>
<path fill-rule="nonzero" fill="rgb(89.361572%, 12.831116%, 14.923096%)" fill-opacity="1" d="M 190.671875 696.40625 C 190.671875 697.488281 190.335938 698.433594 189.660156 699.246094 C 188.988281 700.0625 188.078125 700.742188 186.925781 701.285156 C 185.777344 701.832031 184.429688 702.242188 182.890625 702.515625 C 181.351562 702.789062 179.703125 702.929688 177.949219 702.929688 C 176.765625 702.929688 175.664062 702.871094 174.644531 702.753906 C 173.628906 702.636719 172.730469 702.496094 171.949219 702.332031 C 171.171875 702.171875 170.519531 701.996094 169.996094 701.816406 C 169.476562 701.636719 169.101562 701.480469 168.867188 701.34375 C 168.640625 701.203125 168.476562 701.007812 168.378906 700.746094 C 168.28125 700.488281 168.230469 700.117188 168.230469 699.628906 C 168.230469 699.300781 168.25 699.023438 168.285156 698.804688 C 168.320312 698.582031 168.378906 698.402344 168.457031 698.265625 C 168.539062 698.128906 168.644531 698.027344 168.777344 697.972656 C 168.910156 697.914062 169.0625 697.882812 169.242188 697.882812 C 169.488281 697.882812 169.839844 697.972656 170.289062 698.144531 C 170.742188 698.320312 171.320312 698.511719 172.03125 698.722656 C 172.738281 698.9375 173.585938 699.128906 174.566406 699.304688 C 175.546875 699.476562 176.683594 699.566406 177.980469 699.566406 C 178.828125 699.566406 179.589844 699.503906 180.261719 699.382812 C 180.933594 699.261719 181.503906 699.089844 181.976562 698.867188 C 182.445312 698.644531 182.800781 698.371094 183.050781 698.042969 C 183.296875 697.714844 183.421875 697.351562 183.421875 696.949219 C 183.421875 696.480469 183.210938 696.082031 182.785156 695.75 C 182.359375 695.414062 181.804688 695.121094 181.125 694.859375 C 180.441406 694.601562 179.667969 694.359375 178.800781 694.132812 C 177.933594 693.902344 177.039062 693.664062 176.117188 693.410156 C 175.199219 693.15625 174.304688 692.867188 173.4375 692.546875 C 172.570312 692.222656 171.796875 691.835938 171.113281 691.386719 C 170.433594 690.9375 169.878906 690.40625 169.453125 689.792969 C 169.027344 689.179688 168.816406 688.445312 168.816406 687.585938 C 168.816406 686.605469 169.121094 685.738281 169.730469 684.992188 C 170.34375 684.246094 171.164062 683.628906 172.203125 683.136719 C 173.238281 682.644531 174.460938 682.277344 175.867188 682.035156 C 177.273438 681.792969 178.765625 681.671875 180.34375 681.671875 C 181.15625 681.671875 181.96875 681.707031 182.785156 681.78125 C 183.597656 681.855469 184.359375 681.957031 185.066406 682.082031 C 185.777344 682.210938 186.40625 682.351562 186.953125 682.511719 C 187.503906 682.671875 187.867188 682.800781 188.042969 682.90625 C 188.21875 683.015625 188.339844 683.105469 188.402344 683.179688 C 188.464844 683.25 188.515625 683.351562 188.5625 683.472656 C 188.605469 683.59375 188.636719 683.746094 188.652344 683.929688 C 188.671875 684.117188 188.679688 684.347656 188.679688 684.621094 C 188.679688 684.929688 188.664062 685.1875 188.640625 685.398438 C 188.613281 685.609375 188.570312 685.785156 188.507812 685.921875 C 188.445312 686.058594 188.355469 686.160156 188.242188 686.222656 C 188.128906 686.285156 187.972656 686.320312 187.777344 686.320312 C 187.582031 686.320312 187.273438 686.246094 186.847656 686.097656 C 186.421875 685.949219 185.898438 685.785156 185.28125 685.613281 C 184.660156 685.4375 183.945312 685.28125 183.128906 685.136719 C 182.316406 684.992188 181.421875 684.921875 180.449219 684.921875 C 179.6875 684.921875 179.023438 684.980469 178.457031 685.089844 C 177.890625 685.199219 177.414062 685.355469 177.035156 685.550781 C 176.65625 685.746094 176.371094 685.980469 176.1875 686.253906 C 176 686.53125 175.90625 686.820312 175.90625 687.128906 C 175.90625 687.582031 176.113281 687.976562 176.53125 688.308594 C 176.945312 688.644531 177.503906 688.9375 178.203125 689.199219 C 178.902344 689.457031 179.695312 689.699219 180.582031 689.925781 C 181.464844 690.15625 182.367188 690.394531 183.289062 690.648438 C 184.210938 690.902344 185.113281 691.191406 185.996094 691.515625 C 186.882812 691.835938 187.671875 692.222656 188.359375 692.671875 C 189.050781 693.121094 189.609375 693.652344 190.035156 694.257812 C 190.460938 694.867188 190.671875 695.582031 190.671875 696.40625 "/>
<path fill-rule="nonzero" fill="rgb(89.361572%, 12.831116%, 14.923096%)" fill-opacity="1" d="M 241.476562 685.269531 C 241.476562 685.578125 241.453125 685.84375 241.414062 686.0625 C 241.375 686.285156 241.320312 686.464844 241.25 686.597656 C 241.179688 686.726562 241.09375 686.820312 240.988281 686.875 C 240.886719 686.925781 240.765625 686.953125 240.625 686.953125 C 240.417969 686.953125 240.089844 686.859375 239.628906 686.667969 C 239.171875 686.476562 238.566406 686.269531 237.808594 686.050781 C 237.054688 685.828125 236.152344 685.621094 235.105469 685.429688 C 234.054688 685.238281 232.835938 685.144531 231.449219 685.144531 C 229.96875 685.144531 228.628906 685.316406 227.429688 685.660156 C 226.234375 686.003906 225.210938 686.492188 224.359375 687.121094 C 223.507812 687.75 222.851562 688.503906 222.394531 689.386719 C 221.9375 690.269531 221.710938 691.246094 221.710938 692.316406 C 221.710938 693.488281 221.941406 694.523438 222.40625 695.414062 C 222.871094 696.3125 223.523438 697.058594 224.359375 697.660156 C 225.191406 698.265625 226.199219 698.71875 227.371094 699.027344 C 228.546875 699.332031 229.84375 699.484375 231.261719 699.484375 C 231.953125 699.484375 232.640625 699.433594 233.316406 699.328125 C 233.996094 699.222656 234.625 699.0625 235.210938 698.851562 L 235.210938 694.09375 L 229.417969 694.09375 C 229.132812 694.09375 228.914062 693.972656 228.753906 693.734375 C 228.597656 693.496094 228.519531 693.09375 228.519531 692.519531 C 228.519531 692.226562 228.539062 691.976562 228.578125 691.777344 C 228.617188 691.574219 228.675781 691.414062 228.753906 691.292969 C 228.835938 691.171875 228.929688 691.082031 229.039062 691.023438 C 229.148438 690.964844 229.273438 690.933594 229.417969 690.933594 L 239.746094 690.933594 C 240 690.933594 240.226562 690.964844 240.421875 691.023438 C 240.621094 691.082031 240.792969 691.167969 240.941406 691.285156 C 241.09375 691.402344 241.207031 691.539062 241.285156 691.703125 C 241.363281 691.867188 241.402344 692.054688 241.402344 692.269531 L 241.402344 700.4375 C 241.402344 700.753906 241.320312 701.03125 241.15625 701.269531 C 240.988281 701.507812 240.652344 701.695312 240.140625 701.835938 C 239.625 701.972656 238.992188 702.113281 238.234375 702.261719 C 237.480469 702.410156 236.695312 702.535156 235.882812 702.644531 C 235.070312 702.746094 234.253906 702.828125 233.425781 702.878906 C 232.597656 702.933594 231.765625 702.960938 230.929688 702.960938 C 228.484375 702.960938 226.300781 702.726562 224.371094 702.253906 C 222.4375 701.785156 220.804688 701.101562 219.464844 700.207031 C 218.125 699.3125 217.097656 698.226562 216.390625 696.9375 C 215.679688 695.65625 215.324219 694.199219 215.324219 692.570312 C 215.324219 690.886719 215.703125 689.378906 216.460938 688.039062 C 217.21875 686.703125 218.289062 685.566406 219.675781 684.628906 C 221.0625 683.691406 222.738281 682.976562 224.699219 682.480469 C 226.664062 681.980469 228.847656 681.734375 231.261719 681.734375 C 232.585938 681.734375 233.789062 681.796875 234.878906 681.914062 C 235.964844 682.039062 236.914062 682.1875 237.726562 682.359375 C 238.539062 682.535156 239.214844 682.722656 239.746094 682.921875 C 240.285156 683.125 240.660156 683.300781 240.871094 683.445312 C 241.085938 683.59375 241.238281 683.804688 241.332031 684.074219 C 241.425781 684.34375 241.476562 684.742188 241.476562 685.269531 "/>
<path fill-rule="nonzero" fill="rgb(89.361572%, 12.831116%, 14.923096%)" fill-opacity="1" d="M 258.804688 686 L 258.78125 686 L 254.453125 694.726562 L 263.128906 694.726562 Z M 272.847656 701.054688 C 273.039062 701.4375 273.15625 701.738281 273.203125 701.960938 C 273.25 702.183594 273.1875 702.347656 273.015625 702.460938 C 272.839844 702.570312 272.53125 702.640625 272.09375 702.667969 C 271.648438 702.691406 271.042969 702.707031 270.269531 702.707031 C 269.46875 702.707031 268.839844 702.699219 268.390625 702.683594 C 267.941406 702.667969 267.597656 702.636719 267.363281 702.589844 C 267.128906 702.539062 266.960938 702.472656 266.867188 702.390625 C 266.773438 702.304688 266.691406 702.195312 266.628906 702.054688 L 264.574219 697.929688 L 253.082031 697.929688 L 251.144531 701.945312 C 251.078125 702.09375 250.996094 702.21875 250.894531 702.316406 C 250.792969 702.417969 250.628906 702.496094 250.398438 702.554688 C 250.171875 702.613281 249.847656 702.652344 249.429688 702.675781 C 249.011719 702.695312 248.464844 702.707031 247.789062 702.707031 C 247.0625 702.707031 246.492188 702.691406 246.085938 702.660156 C 245.675781 702.628906 245.390625 702.550781 245.234375 702.429688 C 245.074219 702.308594 245.019531 702.136719 245.066406 701.914062 C 245.113281 701.691406 245.234375 701.394531 245.421875 701.023438 L 254.855469 682.8125 C 254.949219 682.632812 255.058594 682.488281 255.1875 682.378906 C 255.3125 682.265625 255.515625 682.179688 255.789062 682.121094 C 256.066406 682.0625 256.449219 682.027344 256.9375 682.011719 C 257.425781 681.996094 258.070312 681.988281 258.875 681.988281 C 259.804688 681.988281 260.546875 681.996094 261.097656 682.011719 C 261.648438 682.027344 262.078125 682.0625 262.386719 682.121094 C 262.691406 682.179688 262.914062 682.269531 263.046875 682.382812 C 263.183594 682.5 263.296875 682.660156 263.390625 682.859375 "/>
<path fill-rule="nonzero" fill="rgb(89.361572%, 12.831116%, 14.923096%)" fill-opacity="1" d="M 293.9375 700.867188 C 293.9375 701.183594 293.917969 701.449219 293.878906 701.667969 C 293.839844 701.882812 293.777344 702.0625 293.699219 702.207031 C 293.621094 702.347656 293.523438 702.453125 293.40625 702.515625 C 293.285156 702.578125 293.148438 702.609375 292.992188 702.609375 L 278.972656 702.609375 C 278.449219 702.609375 278.015625 702.507812 277.660156 702.300781 C 277.304688 702.097656 277.128906 701.761719 277.128906 701.292969 L 277.128906 682.652344 C 277.128906 682.546875 277.179688 682.453125 277.28125 682.367188 C 277.382812 682.285156 277.554688 682.214844 277.789062 682.160156 C 278.027344 682.109375 278.34375 682.066406 278.746094 682.035156 C 279.148438 682.003906 279.648438 681.988281 280.246094 681.988281 C 280.863281 681.988281 281.367188 682.003906 281.761719 682.035156 C 282.15625 682.066406 282.472656 682.109375 282.707031 682.160156 C 282.941406 682.214844 283.113281 682.285156 283.214844 682.367188 C 283.316406 682.453125 283.367188 682.546875 283.367188 682.652344 L 283.367188 699.167969 L 292.992188 699.167969 C 293.148438 699.167969 293.285156 699.199219 293.40625 699.257812 C 293.523438 699.3125 293.621094 699.410156 293.699219 699.542969 C 293.777344 699.675781 293.839844 699.847656 293.878906 700.0625 C 293.917969 700.28125 293.9375 700.550781 293.9375 700.867188 "/>
<path fill-rule="nonzero" fill="rgb(89.361572%, 12.831116%, 14.923096%)" fill-opacity="1" d="M 327.105469 701.546875 C 327.011719 701.800781 326.882812 702.007812 326.71875 702.160156 C 326.550781 702.3125 326.304688 702.429688 325.972656 702.507812 C 325.640625 702.585938 325.214844 702.640625 324.695312 702.664062 C 324.175781 702.691406 323.515625 702.707031 322.710938 702.707031 C 321.8125 702.707031 321.089844 702.691406 320.546875 702.664062 C 320.003906 702.640625 319.574219 702.585938 319.257812 702.507812 C 318.941406 702.429688 318.714844 702.3125 318.570312 702.160156 C 318.429688 702.007812 318.320312 701.800781 318.242188 701.546875 L 313.347656 688.539062 L 313.300781 688.539062 L 308.664062 701.546875 C 308.585938 701.792969 308.476562 701.988281 308.335938 702.144531 C 308.191406 702.296875 307.96875 702.414062 307.660156 702.5 C 307.355469 702.585938 306.9375 702.640625 306.40625 702.664062 C 305.878906 702.691406 305.183594 702.707031 304.316406 702.707031 C 303.402344 702.707031 302.671875 702.691406 302.128906 702.664062 C 301.585938 702.640625 301.15625 702.585938 300.839844 702.507812 C 300.523438 702.429688 300.296875 702.3125 300.152344 702.160156 C 300.011719 702.007812 299.894531 701.800781 299.800781 701.546875 L 292.847656 683.636719 C 292.707031 683.257812 292.628906 682.957031 292.613281 682.742188 C 292.597656 682.523438 292.6875 682.359375 292.886719 682.242188 C 293.082031 682.125 293.402344 682.054688 293.855469 682.027344 C 294.304688 682 294.929688 681.988281 295.734375 681.988281 C 296.472656 681.988281 297.0625 681.996094 297.496094 682.011719 C 297.929688 682.027344 298.253906 682.0625 298.476562 682.121094 C 298.695312 682.179688 298.847656 682.265625 298.925781 682.378906 C 299.003906 682.488281 299.066406 682.644531 299.113281 682.84375 L 304.480469 698.566406 L 304.503906 698.566406 L 310.085938 682.953125 C 310.148438 682.753906 310.230469 682.589844 310.332031 682.464844 C 310.433594 682.335938 310.609375 682.238281 310.851562 682.171875 C 311.097656 682.101562 311.433594 682.054688 311.859375 682.027344 C 312.28125 682 312.851562 681.988281 313.5625 681.988281 C 314.316406 681.988281 314.921875 681.996094 315.367188 682.019531 C 315.816406 682.039062 316.164062 682.085938 316.410156 682.152344 C 316.652344 682.222656 316.832031 682.320312 316.941406 682.449219 C 317.050781 682.574219 317.136719 682.742188 317.199219 682.953125 L 322.96875 698.566406 L 323.015625 698.566406 L 328.382812 682.890625 C 328.429688 682.722656 328.492188 682.578125 328.574219 682.457031 C 328.652344 682.335938 328.800781 682.238281 329.023438 682.171875 C 329.242188 682.101562 329.558594 682.054688 329.96875 682.027344 C 330.378906 682 330.953125 681.988281 331.691406 681.988281 C 332.386719 681.988281 332.925781 682 333.3125 682.027344 C 333.699219 682.054688 333.980469 682.125 334.152344 682.242188 C 334.324219 682.359375 334.398438 682.53125 334.378906 682.757812 C 334.355469 682.984375 334.269531 683.292969 334.128906 683.683594 "/>
<path fill-rule="nonzero" fill="rgb(89.361572%, 12.831116%, 14.923096%)" fill-opacity="1" d="M 347.535156 686 L 347.511719 686 L 343.183594 694.726562 L 351.859375 694.726562 Z M 361.578125 701.054688 C 361.765625 701.4375 361.886719 701.738281 361.933594 701.960938 C 361.980469 702.183594 361.914062 702.347656 361.742188 702.460938 C 361.570312 702.570312 361.261719 702.640625 360.820312 702.667969 C 360.378906 702.691406 359.773438 702.707031 359 702.707031 C 358.195312 702.707031 357.570312 702.699219 357.121094 702.683594 C 356.671875 702.667969 356.328125 702.636719 356.09375 702.589844 C 355.855469 702.539062 355.691406 702.472656 355.597656 702.390625 C 355.503906 702.304688 355.421875 702.195312 355.359375 702.054688 L 353.304688 697.929688 L 341.8125 697.929688 L 339.875 701.945312 C 339.808594 702.09375 339.726562 702.21875 339.625 702.316406 C 339.523438 702.417969 339.359375 702.496094 339.128906 702.554688 C 338.898438 702.613281 338.578125 702.652344 338.160156 702.675781 C 337.742188 702.695312 337.195312 702.707031 336.515625 702.707031 C 335.789062 702.707031 335.222656 702.691406 334.8125 702.660156 C 334.402344 702.628906 334.121094 702.550781 333.964844 702.429688 C 333.804688 702.308594 333.75 702.136719 333.796875 701.914062 C 333.84375 701.691406 333.964844 701.394531 334.152344 701.023438 L 343.585938 682.8125 C 343.679688 682.632812 343.789062 682.488281 343.917969 682.378906 C 344.042969 682.265625 344.242188 682.179688 344.519531 682.121094 C 344.796875 682.0625 345.175781 682.027344 345.664062 682.011719 C 346.152344 681.996094 346.800781 681.988281 347.605469 681.988281 C 348.535156 681.988281 349.273438 681.996094 349.828125 682.011719 C 350.378906 682.027344 350.808594 682.0625 351.117188 682.121094 C 351.421875 682.179688 351.644531 682.269531 351.777344 682.382812 C 351.910156 682.5 352.027344 682.660156 352.121094 682.859375 "/>
<path fill-rule="nonzero" fill="rgb(89.361572%, 12.831116%, 14.923096%)" fill-opacity="1" d="M 374.273438 694.820312 L 374.273438 702.039062 C 374.273438 702.144531 374.222656 702.242188 374.121094 702.324219 C 374.019531 702.410156 373.847656 702.480469 373.613281 702.53125 C 373.375 702.585938 373.054688 702.628906 372.652344 702.660156 C 372.253906 702.691406 371.753906 702.707031 371.152344 702.707031 C 370.539062 702.707031 370.035156 702.691406 369.640625 702.660156 C 369.246094 702.628906 368.925781 702.585938 368.683594 702.53125 C 368.4375 702.480469 368.269531 702.410156 368.171875 702.324219 C 368.078125 702.242188 368.03125 702.144531 368.03125 702.039062 L 368.03125 694.820312 L 359.664062 683.636719 C 359.363281 683.246094 359.171875 682.941406 359.085938 682.726562 C 358.996094 682.507812 359.042969 682.34375 359.226562 682.234375 C 359.40625 682.121094 359.742188 682.054688 360.230469 682.027344 C 360.71875 682.003906 361.394531 681.988281 362.261719 681.988281 C 362.988281 681.988281 363.566406 681.996094 364 682.019531 C 364.433594 682.039062 364.777344 682.078125 365.027344 682.136719 C 365.28125 682.195312 365.46875 682.273438 365.585938 682.367188 C 365.703125 682.464844 365.816406 682.585938 365.929688 682.734375 L 369.332031 687.777344 C 369.664062 688.265625 369.988281 688.777344 370.3125 689.316406 C 370.636719 689.855469 370.964844 690.421875 371.296875 691.015625 L 371.34375 691.015625 C 371.640625 690.441406 371.949219 689.886719 372.265625 689.347656 C 372.578125 688.808594 372.886719 688.296875 373.1875 687.808594 L 376.542969 682.796875 C 376.621094 682.628906 376.71875 682.492188 376.839844 682.390625 C 376.957031 682.289062 377.132812 682.210938 377.371094 682.144531 C 377.605469 682.082031 377.929688 682.039062 378.339844 682.019531 C 378.75 681.996094 379.292969 681.988281 379.972656 681.988281 C 380.867188 681.988281 381.566406 682.003906 382.0625 682.027344 C 382.558594 682.054688 382.898438 682.121094 383.078125 682.234375 C 383.261719 682.34375 383.304688 682.511719 383.210938 682.734375 C 383.117188 682.953125 382.925781 683.257812 382.644531 683.636719 "/>
<path fill-rule="nonzero" fill="rgb(89.361572%, 12.831116%, 14.923096%)" fill-opacity="1" d="M 429.261719 696.277344 C 429.261719 697.355469 428.972656 698.304688 428.386719 699.117188 C 427.804688 699.933594 427.011719 700.609375 426.015625 701.15625 C 425.015625 701.699219 423.851562 702.109375 422.515625 702.386719 C 421.175781 702.660156 419.75 702.796875 418.230469 702.796875 C 417.199219 702.796875 416.246094 702.738281 415.359375 702.625 C 414.476562 702.507812 413.699219 702.367188 413.023438 702.203125 C 412.347656 702.039062 411.78125 701.867188 411.328125 701.6875 C 410.878906 701.507812 410.550781 701.347656 410.351562 701.210938 C 410.152344 701.074219 410.007812 700.878906 409.925781 700.617188 C 409.839844 700.355469 409.796875 699.984375 409.796875 699.5 C 409.796875 699.171875 409.8125 698.894531 409.84375 698.675781 C 409.875 698.453125 409.925781 698.273438 409.992188 698.132812 C 410.0625 697.996094 410.15625 697.898438 410.269531 697.839844 C 410.386719 697.78125 410.519531 697.753906 410.671875 697.753906 C 410.886719 697.753906 411.191406 697.839844 411.582031 698.015625 C 411.976562 698.191406 412.476562 698.382812 413.09375 698.59375 C 413.707031 698.804688 414.4375 698.996094 415.292969 699.171875 C 416.144531 699.347656 417.132812 699.433594 418.253906 699.433594 C 418.988281 699.433594 419.648438 699.375 420.234375 699.253906 C 420.816406 699.132812 421.3125 698.960938 421.71875 698.738281 C 422.125 698.515625 422.4375 698.242188 422.652344 697.910156 C 422.867188 697.585938 422.972656 697.21875 422.972656 696.816406 C 422.972656 696.351562 422.789062 695.953125 422.421875 695.621094 C 422.054688 695.285156 421.574219 694.992188 420.980469 694.730469 C 420.390625 694.472656 419.71875 694.230469 418.964844 694.003906 C 418.214844 693.773438 417.4375 693.53125 416.640625 693.28125 C 415.839844 693.027344 415.066406 692.738281 414.3125 692.414062 C 413.5625 692.09375 412.886719 691.707031 412.296875 691.257812 C 411.707031 690.808594 411.226562 690.277344 410.859375 689.660156 C 410.488281 689.050781 410.304688 688.3125 410.304688 687.457031 C 410.304688 686.472656 410.570312 685.609375 411.101562 684.863281 C 411.628906 684.117188 412.34375 683.5 413.242188 683.007812 C 414.140625 682.515625 415.199219 682.148438 416.421875 681.90625 C 417.640625 681.660156 418.933594 681.539062 420.300781 681.539062 C 421.007812 681.539062 421.714844 681.578125 422.421875 681.652344 C 423.128906 681.726562 423.789062 681.824219 424.402344 681.953125 C 425.015625 682.078125 425.5625 682.222656 426.039062 682.382812 C 426.515625 682.539062 426.828125 682.671875 426.980469 682.777344 C 427.136719 682.882812 427.238281 682.972656 427.292969 683.046875 C 427.347656 683.121094 427.394531 683.21875 427.433594 683.339844 C 427.46875 683.460938 427.496094 683.617188 427.511719 683.800781 C 427.527344 683.984375 427.535156 684.214844 427.535156 684.492188 C 427.535156 684.796875 427.523438 685.058594 427.5 685.269531 C 427.476562 685.480469 427.4375 685.65625 427.386719 685.789062 C 427.332031 685.929688 427.253906 686.03125 427.15625 686.09375 C 427.054688 686.15625 426.921875 686.1875 426.753906 686.1875 C 426.582031 686.1875 426.316406 686.113281 425.945312 685.964844 C 425.578125 685.816406 425.125 685.65625 424.585938 685.480469 C 424.050781 685.308594 423.425781 685.148438 422.722656 685.007812 C 422.015625 684.863281 421.238281 684.792969 420.394531 684.792969 C 419.734375 684.792969 419.15625 684.847656 418.664062 684.960938 C 418.175781 685.070312 417.765625 685.222656 417.433594 685.417969 C 417.105469 685.613281 416.859375 685.851562 416.695312 686.125 C 416.535156 686.402344 416.453125 686.691406 416.453125 686.996094 C 416.453125 687.453125 416.636719 687.847656 416.996094 688.179688 C 417.355469 688.511719 417.839844 688.808594 418.449219 689.066406 C 419.054688 689.328125 419.742188 689.570312 420.511719 689.796875 C 421.277344 690.023438 422.0625 690.265625 422.859375 690.519531 C 423.65625 690.773438 424.441406 691.0625 425.210938 691.382812 C 425.976562 691.707031 426.660156 692.09375 427.257812 692.542969 C 427.859375 692.992188 428.34375 693.519531 428.710938 694.128906 C 429.078125 694.738281 429.261719 695.453125 429.261719 696.277344 "/>
<path fill-rule="nonzero" fill="rgb(89.361572%, 12.831116%, 14.923096%)" fill-opacity="1" d="M 457.160156 701.863281 C 457.160156 701.96875 457.109375 702.0625 457.007812 702.148438 C 456.910156 702.230469 456.746094 702.300781 456.515625 702.355469 C 456.285156 702.40625 455.976562 702.449219 455.59375 702.480469 C 455.210938 702.511719 454.726562 702.527344 454.140625 702.527344 C 453.542969 702.527344 453.046875 702.511719 452.65625 702.480469 C 452.265625 702.449219 451.957031 702.40625 451.734375 702.355469 C 451.511719 702.300781 451.351562 702.230469 451.25 702.148438 C 451.152344 702.0625 451.101562 701.96875 451.101562 701.863281 L 451.101562 693.566406 L 439.953125 693.566406 L 439.953125 701.863281 C 439.953125 701.96875 439.90625 702.0625 439.8125 702.148438 C 439.722656 702.230469 439.558594 702.300781 439.328125 702.355469 C 439.097656 702.40625 438.792969 702.449219 438.40625 702.480469 C 438.023438 702.511719 437.53125 702.527344 436.933594 702.527344 C 436.351562 702.527344 435.863281 702.511719 435.472656 702.480469 C 435.078125 702.449219 434.769531 702.40625 434.539062 702.355469 C 434.308594 702.300781 434.144531 702.230469 434.042969 702.148438 C 433.941406 702.0625 433.894531 701.96875 433.894531 701.863281 L 433.894531 682.476562 C 433.894531 682.371094 433.941406 682.277344 434.042969 682.191406 C 434.144531 682.105469 434.308594 682.035156 434.539062 681.984375 C 434.769531 681.933594 435.078125 681.890625 435.472656 681.859375 C 435.863281 681.824219 436.351562 681.808594 436.933594 681.808594 C 437.53125 681.808594 438.023438 681.824219 438.40625 681.859375 C 438.792969 681.890625 439.097656 681.933594 439.328125 681.984375 C 439.558594 682.035156 439.722656 682.105469 439.8125 682.191406 C 439.90625 682.277344 439.953125 682.371094 439.953125 682.476562 L 439.953125 690.011719 L 451.101562 690.011719 L 451.101562 682.476562 C 451.101562 682.371094 451.152344 682.277344 451.25 682.191406 C 451.351562 682.105469 451.511719 682.035156 451.734375 681.984375 C 451.957031 681.933594 452.265625 681.890625 452.65625 681.859375 C 453.046875 681.824219 453.542969 681.808594 454.140625 681.808594 C 454.726562 681.808594 455.210938 681.824219 455.59375 681.859375 C 455.976562 681.890625 456.285156 681.933594 456.515625 681.984375 C 456.746094 682.035156 456.910156 682.105469 457.007812 682.191406 C 457.109375 682.277344 457.160156 682.371094 457.160156 682.476562 "/>
<path fill-rule="nonzero" fill="rgb(89.361572%, 12.831116%, 14.923096%)" fill-opacity="1" d="M 474.390625 685.824219 L 474.367188 685.824219 L 470.152344 694.550781 L 478.605469 694.550781 Z M 488.070312 700.878906 C 488.257812 701.257812 488.371094 701.5625 488.417969 701.78125 C 488.464844 702.003906 488.402344 702.171875 488.234375 702.28125 C 488.066406 702.394531 487.765625 702.460938 487.335938 702.488281 C 486.90625 702.515625 486.3125 702.527344 485.5625 702.527344 C 484.777344 702.527344 484.167969 702.519531 483.730469 702.503906 C 483.292969 702.488281 482.960938 702.457031 482.730469 702.410156 C 482.496094 702.363281 482.335938 702.296875 482.246094 702.210938 C 482.152344 702.128906 482.074219 702.015625 482.015625 701.878906 L 480.011719 697.753906 L 468.816406 697.753906 L 466.925781 701.765625 C 466.863281 701.914062 466.785156 702.039062 466.683594 702.140625 C 466.585938 702.242188 466.421875 702.320312 466.199219 702.378906 C 465.976562 702.4375 465.664062 702.476562 465.257812 702.496094 C 464.847656 702.519531 464.316406 702.527344 463.65625 702.527344 C 462.949219 702.527344 462.394531 702.511719 461.996094 702.480469 C 461.597656 702.449219 461.320312 702.371094 461.167969 702.25 C 461.011719 702.128906 460.960938 701.957031 461.003906 701.734375 C 461.050781 701.511719 461.167969 701.21875 461.351562 700.847656 L 470.542969 682.636719 C 470.636719 682.453125 470.742188 682.308594 470.863281 682.199219 C 470.988281 682.089844 471.183594 682.003906 471.453125 681.945312 C 471.722656 681.886719 472.09375 681.851562 472.570312 681.835938 C 473.046875 681.816406 473.675781 681.808594 474.460938 681.808594 C 475.363281 681.808594 476.085938 681.816406 476.625 681.835938 C 477.160156 681.851562 477.578125 681.886719 477.878906 681.945312 C 478.179688 682.003906 478.394531 682.089844 478.523438 682.207031 C 478.65625 682.324219 478.765625 682.480469 478.859375 682.683594 "/>
<path fill-rule="nonzero" fill="rgb(89.361572%, 12.831116%, 14.923096%)" fill-opacity="1" d="M 516.820312 700.972656 C 516.820312 701.21875 516.757812 701.433594 516.636719 701.625 C 516.511719 701.816406 516.347656 701.972656 516.140625 702.101562 C 515.933594 702.226562 515.6875 702.320312 515.402344 702.378906 C 515.121094 702.4375 514.832031 702.464844 514.539062 702.464844 L 511.960938 702.464844 C 511.421875 702.464844 510.957031 702.429688 510.566406 702.355469 C 510.175781 702.28125 509.8125 702.144531 509.484375 701.949219 C 509.152344 701.753906 508.835938 701.488281 508.527344 701.15625 C 508.222656 700.824219 507.875 700.390625 507.492188 699.863281 L 500.074219 690.265625 C 499.644531 689.695312 499.207031 689.078125 498.761719 688.417969 C 498.316406 687.757812 497.917969 687.113281 497.5625 686.488281 L 497.519531 686.488281 C 497.578125 687.25 497.625 688.011719 497.65625 688.765625 C 497.6875 689.523438 497.703125 690.304688 497.703125 691.105469 L 497.703125 701.847656 C 497.703125 701.953125 497.660156 702.046875 497.574219 702.132812 C 497.488281 702.21875 497.34375 702.289062 497.136719 702.347656 C 496.929688 702.40625 496.648438 702.449219 496.296875 702.480469 C 495.941406 702.511719 495.488281 702.527344 494.9375 702.527344 C 494.398438 702.527344 493.953125 702.511719 493.601562 702.480469 C 493.246094 702.449219 492.972656 702.40625 492.773438 702.347656 C 492.570312 702.289062 492.433594 702.21875 492.355469 702.132812 C 492.28125 702.046875 492.242188 701.953125 492.242188 701.847656 L 492.242188 683.394531 C 492.242188 682.898438 492.453125 682.527344 492.875 682.277344 C 493.296875 682.027344 493.816406 681.90625 494.429688 681.90625 L 497.679688 681.90625 C 498.261719 681.90625 498.753906 681.9375 499.152344 682.007812 C 499.550781 682.078125 499.910156 682.191406 500.222656 682.347656 C 500.539062 682.507812 500.835938 682.726562 501.109375 683.007812 C 501.386719 683.289062 501.671875 683.632812 501.964844 684.046875 L 507.769531 691.550781 C 508.105469 692.007812 508.4375 692.453125 508.769531 692.890625 C 509.101562 693.328125 509.417969 693.769531 509.726562 694.207031 C 510.03125 694.644531 510.332031 695.078125 510.625 695.5 C 510.914062 695.921875 511.199219 696.347656 511.476562 696.769531 L 511.5 696.769531 C 511.453125 696.03125 511.417969 695.257812 511.394531 694.453125 C 511.371094 693.648438 511.363281 692.882812 511.363281 692.152344 L 511.363281 682.523438 C 511.363281 682.417969 511.40625 682.324219 511.5 682.238281 C 511.59375 682.152344 511.746094 682.078125 511.960938 682.015625 C 512.175781 681.953125 512.460938 681.90625 512.8125 681.882812 C 513.164062 681.855469 513.617188 681.84375 514.171875 681.84375 C 514.695312 681.84375 515.132812 681.855469 515.484375 681.882812 C 515.839844 681.90625 516.109375 681.953125 516.300781 682.015625 C 516.496094 682.078125 516.628906 682.152344 516.703125 682.238281 C 516.78125 682.324219 516.820312 682.417969 516.820312 682.523438 "/>
<path fill-rule="nonzero" fill="rgb(89.361572%, 12.831116%, 14.923096%)" fill-opacity="1" d="M 547.894531 700.972656 C 547.894531 701.21875 547.835938 701.433594 547.710938 701.625 C 547.589844 701.816406 547.425781 701.972656 547.214844 702.101562 C 547.007812 702.226562 546.761719 702.320312 546.480469 702.378906 C 546.195312 702.4375 545.90625 702.464844 545.613281 702.464844 L 543.035156 702.464844 C 542.496094 702.464844 542.03125 702.429688 541.640625 702.355469 C 541.25 702.28125 540.890625 702.144531 540.558594 701.949219 C 540.230469 701.753906 539.910156 701.488281 539.601562 701.15625 C 539.296875 700.824219 538.949219 700.390625 538.566406 699.863281 L 531.148438 690.265625 C 530.71875 689.695312 530.28125 689.078125 529.835938 688.417969 C 529.390625 687.757812 528.992188 687.113281 528.636719 686.488281 L 528.59375 686.488281 C 528.652344 687.25 528.699219 688.011719 528.730469 688.765625 C 528.761719 689.523438 528.777344 690.304688 528.777344 691.105469 L 528.777344 701.847656 C 528.777344 701.953125 528.734375 702.046875 528.648438 702.132812 C 528.566406 702.21875 528.421875 702.289062 528.210938 702.347656 C 528.003906 702.40625 527.726562 702.449219 527.371094 702.480469 C 527.019531 702.511719 526.566406 702.527344 526.011719 702.527344 C 525.476562 702.527344 525.027344 702.511719 524.675781 702.480469 C 524.324219 702.449219 524.046875 702.40625 523.847656 702.347656 C 523.648438 702.289062 523.507812 702.21875 523.433594 702.132812 C 523.355469 702.046875 523.316406 701.953125 523.316406 701.847656 L 523.316406 683.394531 C 523.316406 682.898438 523.527344 682.527344 523.949219 682.277344 C 524.371094 682.027344 524.890625 681.90625 525.503906 681.90625 L 528.753906 681.90625 C 529.335938 681.90625 529.828125 681.9375 530.226562 682.007812 C 530.628906 682.078125 530.984375 682.191406 531.300781 682.347656 C 531.613281 682.507812 531.910156 682.726562 532.1875 683.007812 C 532.460938 683.289062 532.746094 683.632812 533.039062 684.046875 L 538.84375 691.550781 C 539.179688 692.007812 539.515625 692.453125 539.84375 692.890625 C 540.175781 693.328125 540.492188 693.769531 540.800781 694.207031 C 541.109375 694.644531 541.40625 695.078125 541.699219 695.5 C 541.992188 695.921875 542.273438 696.347656 542.550781 696.769531 L 542.574219 696.769531 C 542.527344 696.03125 542.492188 695.257812 542.472656 694.453125 C 542.449219 693.648438 542.4375 692.882812 542.4375 692.152344 L 542.4375 682.523438 C 542.4375 682.417969 542.480469 682.324219 542.574219 682.238281 C 542.667969 682.152344 542.820312 682.078125 543.035156 682.015625 C 543.25 681.953125 543.535156 681.90625 543.886719 681.882812 C 544.242188 681.855469 544.695312 681.84375 545.246094 681.84375 C 545.769531 681.84375 546.207031 681.855469 546.558594 681.882812 C 546.914062 681.90625 547.1875 681.953125 547.378906 682.015625 C 547.570312 682.078125 547.703125 682.152344 547.78125 682.238281 C 547.855469 682.324219 547.894531 682.417969 547.894531 682.523438 "/>
<path fill-rule="nonzero" fill="rgb(89.361572%, 12.831116%, 14.923096%)" fill-opacity="1" d="M 574.847656 692.152344 C 574.847656 691.074219 574.722656 690.09375 574.480469 689.210938 C 574.234375 688.328125 573.8125 687.570312 573.222656 686.941406 C 572.632812 686.3125 571.84375 685.824219 570.863281 685.480469 C 569.878906 685.140625 568.652344 684.96875 567.175781 684.96875 C 565.6875 684.96875 564.441406 685.160156 563.445312 685.546875 C 562.445312 685.933594 561.640625 686.445312 561.027344 687.09375 C 560.410156 687.738281 559.976562 688.492188 559.722656 689.351562 C 559.472656 690.214844 559.34375 691.128906 559.34375 692.089844 C 559.34375 693.210938 559.46875 694.21875 559.714844 695.113281 C 559.957031 696.007812 560.371094 696.769531 560.957031 697.402344 C 561.539062 698.039062 562.324219 698.523438 563.308594 698.855469 C 564.289062 699.1875 565.523438 699.355469 567.015625 699.355469 C 568.503906 699.355469 569.75 699.164062 570.746094 698.785156 C 571.746094 698.402344 572.550781 697.886719 573.164062 697.230469 C 573.777344 696.574219 574.214844 695.808594 574.46875 694.9375 C 574.722656 694.066406 574.847656 693.136719 574.847656 692.152344 M 581.203125 691.929688 C 581.203125 693.636719 580.898438 695.15625 580.285156 696.5 C 579.667969 697.84375 578.757812 698.984375 577.542969 699.917969 C 576.328125 700.855469 574.828125 701.570312 573.039062 702.0625 C 571.25 702.550781 569.179688 702.796875 566.832031 702.796875 C 564.511719 702.796875 562.488281 702.589844 560.761719 702.171875 C 559.035156 701.753906 557.59375 701.117188 556.441406 700.261719 C 555.289062 699.402344 554.425781 698.3125 553.851562 696.992188 C 553.273438 695.671875 552.988281 694.105469 552.988281 692.296875 C 552.988281 690.636719 553.292969 689.140625 553.90625 687.8125 C 554.523438 686.488281 555.4375 685.359375 556.648438 684.429688 C 557.863281 683.496094 559.363281 682.785156 561.152344 682.285156 C 562.941406 681.789062 565.019531 681.539062 567.382812 681.539062 C 569.640625 681.539062 571.632812 681.746094 573.363281 682.160156 C 575.089844 682.570312 576.53125 683.203125 577.691406 684.0625 C 578.851562 684.917969 579.726562 686 580.316406 687.308594 C 580.910156 688.613281 581.203125 690.15625 581.203125 691.929688 "/>
<path fill-rule="nonzero" fill="rgb(89.361572%, 12.831116%, 14.923096%)" fill-opacity="1" d="M 610.875 700.972656 C 610.875 701.21875 610.8125 701.433594 610.691406 701.625 C 610.566406 701.816406 610.402344 701.972656 610.195312 702.101562 C 609.988281 702.226562 609.742188 702.320312 609.457031 702.378906 C 609.175781 702.4375 608.886719 702.464844 608.59375 702.464844 L 606.015625 702.464844 C 605.476562 702.464844 605.011719 702.429688 604.621094 702.355469 C 604.230469 702.28125 603.867188 702.144531 603.539062 701.949219 C 603.207031 701.753906 602.890625 701.488281 602.582031 701.15625 C 602.273438 700.824219 601.929688 700.390625 601.546875 699.863281 L 594.128906 690.265625 C 593.699219 689.695312 593.261719 689.078125 592.8125 688.417969 C 592.371094 687.757812 591.96875 687.113281 591.617188 686.488281 L 591.570312 686.488281 C 591.632812 687.25 591.679688 688.011719 591.710938 688.765625 C 591.738281 689.523438 591.753906 690.304688 591.753906 691.105469 L 591.753906 701.847656 C 591.753906 701.953125 591.714844 702.046875 591.628906 702.132812 C 591.542969 702.21875 591.398438 702.289062 591.191406 702.347656 C 590.984375 702.40625 590.703125 702.449219 590.351562 702.480469 C 589.996094 702.511719 589.542969 702.527344 588.992188 702.527344 C 588.453125 702.527344 588.007812 702.511719 587.65625 702.480469 C 587.300781 702.449219 587.023438 702.40625 586.824219 702.347656 C 586.625 702.289062 586.488281 702.21875 586.410156 702.132812 C 586.335938 702.046875 586.296875 701.953125 586.296875 701.847656 L 586.296875 683.394531 C 586.296875 682.898438 586.507812 682.527344 586.929688 682.277344 C 587.351562 682.027344 587.871094 681.90625 588.484375 681.90625 L 591.730469 681.90625 C 592.316406 681.90625 592.808594 681.9375 593.207031 682.007812 C 593.605469 682.078125 593.964844 682.191406 594.277344 682.347656 C 594.59375 682.507812 594.886719 682.726562 595.164062 683.007812 C 595.441406 683.289062 595.726562 683.632812 596.015625 684.046875 L 601.820312 691.550781 C 602.160156 692.007812 602.492188 692.453125 602.824219 692.890625 C 603.152344 693.328125 603.472656 693.769531 603.78125 694.207031 C 604.085938 694.644531 604.386719 695.078125 604.679688 695.5 C 604.96875 695.921875 605.253906 696.347656 605.53125 696.769531 L 605.554688 696.769531 C 605.507812 696.03125 605.472656 695.257812 605.449219 694.453125 C 605.425781 693.648438 605.414062 692.882812 605.414062 692.152344 L 605.414062 682.523438 C 605.414062 682.417969 605.460938 682.324219 605.554688 682.238281 C 605.644531 682.152344 605.800781 682.078125 606.015625 682.015625 C 606.230469 681.953125 606.511719 681.90625 606.867188 681.882812 C 607.21875 681.855469 607.671875 681.84375 608.226562 681.84375 C 608.746094 681.84375 609.183594 681.855469 609.539062 681.882812 C 609.890625 681.90625 610.164062 681.953125 610.355469 682.015625 C 610.546875 682.078125 610.683594 682.152344 610.757812 682.238281 C 610.835938 682.324219 610.875 682.417969 610.875 682.523438 "/>
<path fill-rule="nonzero" fill="rgb(89.361572%, 12.831116%, 14.923096%)" fill-opacity="1" d="M 202.582031 705.566406 L 206.15625 705.566406 L 206.15625 679.527344 L 202.582031 679.527344 Z M 202.582031 705.566406 "/>
<path fill-rule="nonzero" fill="rgb(89.361572%, 12.831116%, 14.923096%)" fill-opacity="1" d="M 392.566406 705.820312 L 396.140625 705.820312 L 396.140625 679.777344 L 392.566406 679.777344 Z M 392.566406 705.820312 "/>

                  </svg>