<svg xmlns="http://www.w3.org/2000/svg" 
                    viewBox="26.25 46.15625 769.5 1119.5" 
                    width="769.5" 
                    height="1119.5"
                    data-content-extracted="true"
                    data-original-bounds="26.25,46.15625,795.75,1165.65625">
                      
<path fill-rule="nonzero" fill="rgb(13.729858%, 12.159729%, 12.548828%)" fill-opacity="1" d="M 140.75 160.65625 L 26.25 160.65625 L 26.25 46.15625 L 140.75 46.15625 Z M 140.75 160.65625 "/>
<path fill-rule="nonzero" fill="rgb(92.939758%, 10.978699%, 14.118958%)" fill-opacity="1" d="M 271.75 160.65625 L 157.25 160.65625 L 157.25 46.15625 L 271.75 46.15625 Z M 271.75 160.65625 "/>
<path fill-rule="nonzero" fill="rgb(100%, 94.898987%, 0%)" fill-opacity="1" d="M 402.75 160.65625 L 288.25 160.65625 L 288.25 46.15625 L 402.75 46.15625 Z M 402.75 160.65625 "/>
<path fill-rule="nonzero" fill="rgb(0%, 65.098572%, 31.369019%)" fill-opacity="1" d="M 533.75 160.65625 L 419.25 160.65625 L 419.25 46.15625 L 533.75 46.15625 Z M 533.75 160.65625 "/>
<path fill-rule="nonzero" fill="rgb(0%, 67.83905%, 93.728638%)" fill-opacity="1" d="M 664.75 160.65625 L 550.25 160.65625 L 550.25 46.15625 L 664.75 46.15625 Z M 664.75 160.65625 "/>
<path fill-rule="nonzero" fill="rgb(18.03894%, 19.219971%, 57.249451%)" fill-opacity="1" d="M 795.75 160.65625 L 681.25 160.65625 L 681.25 46.15625 L 795.75 46.15625 Z M 795.75 160.65625 "/>
<path fill-rule="nonzero" fill="rgb(92.549133%, 0%, 54.899597%)" fill-opacity="1" d="M 140.75 307.65625 L 26.25 307.65625 L 26.25 193.15625 L 140.75 193.15625 Z M 140.75 307.65625 "/>
<path fill-rule="nonzero" fill="rgb(75.02594%, 10.392761%, 17.410278%)" fill-opacity="1" d="M 271.75 307.65625 L 157.25 307.65625 L 157.25 193.15625 L 271.75 193.15625 Z M 271.75 307.65625 "/>
<path fill-rule="nonzero" fill="rgb(93.592834%, 17.965698%, 19.71283%)" fill-opacity="1" d="M 402.75 307.65625 L 288.25 307.65625 L 288.25 193.15625 L 402.75 193.15625 Z M 402.75 307.65625 "/>
<path fill-rule="nonzero" fill="rgb(94.335938%, 27.375793%, 13.926697%)" fill-opacity="1" d="M 533.75 307.65625 L 419.25 307.65625 L 419.25 193.15625 L 533.75 193.15625 Z M 533.75 307.65625 "/>
<path fill-rule="nonzero" fill="rgb(96.469116%, 52.938843%, 7.058716%)" fill-opacity="1" d="M 664.75 307.65625 L 550.25 307.65625 L 550.25 193.15625 L 664.75 193.15625 Z M 664.75 307.65625 "/>
<path fill-rule="nonzero" fill="rgb(97.50824%, 65.449524%, 16.833496%)" fill-opacity="1" d="M 795.75 307.65625 L 681.25 307.65625 L 681.25 193.15625 L 795.75 193.15625 Z M 795.75 307.65625 "/>
<path fill-rule="nonzero" fill="rgb(95.001221%, 93.907166%, 11.380005%)" fill-opacity="1" d="M 140.75 454.65625 L 26.25 454.65625 L 26.25 340.15625 L 140.75 340.15625 Z M 140.75 454.65625 "/>
<path fill-rule="nonzero" fill="rgb(80.000305%, 88.938904%, 6.272888%)" fill-opacity="1" d="M 271.75 454.65625 L 157.25 454.65625 L 157.25 340.15625 L 271.75 340.15625 Z M 271.75 454.65625 "/>
<path fill-rule="nonzero" fill="rgb(50%, 79.998779%, 15.684509%)" fill-opacity="1" d="M 402.75 454.65625 L 288.25 454.65625 L 288.25 340.15625 L 402.75 340.15625 Z M 402.75 454.65625 "/>
<path fill-rule="nonzero" fill="rgb(25%, 72.549438%, 23.526001%)" fill-opacity="1" d="M 533.75 454.65625 L 419.25 454.65625 L 419.25 340.15625 L 533.75 340.15625 Z M 533.75 454.65625 "/>
<path fill-rule="nonzero" fill="rgb(15.193176%, 58.828735%, 23.498535%)" fill-opacity="1" d="M 664.75 454.65625 L 550.25 454.65625 L 550.25 340.15625 L 664.75 340.15625 Z M 664.75 454.65625 "/>
<path fill-rule="nonzero" fill="rgb(11.178589%, 39.247131%, 20.497131%)" fill-opacity="1" d="M 795.75 454.65625 L 681.25 454.65625 L 681.25 340.15625 L 795.75 340.15625 Z M 795.75 454.65625 "/>
<path fill-rule="nonzero" fill="rgb(31.558228%, 67.883301%, 89.750671%)" fill-opacity="1" d="M 140.75 601.65625 L 26.25 601.65625 L 26.25 487.15625 L 140.75 487.15625 Z M 140.75 601.65625 "/>
<path fill-rule="nonzero" fill="rgb(22.108459%, 44.499207%, 75.782776%)" fill-opacity="1" d="M 271.75 601.65625 L 157.25 601.65625 L 157.25 487.15625 L 271.75 487.15625 Z M 271.75 601.65625 "/>
<path fill-rule="nonzero" fill="rgb(17.286682%, 21.737671%, 57.260132%)" fill-opacity="1" d="M 402.75 601.65625 L 288.25 601.65625 L 288.25 487.15625 L 402.75 487.15625 Z M 402.75 601.65625 "/>
<path fill-rule="nonzero" fill="rgb(14.117432%, 14.784241%, 36.538696%)" fill-opacity="1" d="M 533.75 601.65625 L 419.25 601.65625 L 419.25 487.15625 L 533.75 487.15625 Z M 533.75 601.65625 "/>
<path fill-rule="nonzero" fill="rgb(36.66687%, 14.414978%, 56.661987%)" fill-opacity="1" d="M 664.75 601.65625 L 550.25 601.65625 L 550.25 487.15625 L 664.75 487.15625 Z M 664.75 601.65625 "/>
<path fill-rule="nonzero" fill="rgb(55.2948%, 9.609985%, 56.074524%)" fill-opacity="1" d="M 795.75 601.65625 L 681.25 601.65625 L 681.25 487.15625 L 795.75 487.15625 Z M 795.75 601.65625 "/>
<path fill-rule="nonzero" fill="rgb(61.151123%, 8.518982%, 37.969971%)" fill-opacity="1" d="M 140.75 748.65625 L 26.25 748.65625 L 26.25 634.15625 L 140.75 634.15625 Z M 140.75 748.65625 "/>
<path fill-rule="nonzero" fill="rgb(85.430908%, 6.96106%, 35.038757%)" fill-opacity="1" d="M 271.75 748.65625 L 157.25 748.65625 L 157.25 634.15625 L 271.75 634.15625 Z M 271.75 748.65625 "/>
<path fill-rule="nonzero" fill="rgb(92.996216%, 7.034302%, 48.406982%)" fill-opacity="1" d="M 402.75 748.65625 L 288.25 748.65625 L 288.25 634.15625 L 402.75 634.15625 Z M 402.75 748.65625 "/>
<path fill-rule="nonzero" fill="rgb(74.838257%, 69.689941%, 56.587219%)" fill-opacity="1" d="M 533.75 748.65625 L 419.25 748.65625 L 419.25 634.15625 L 533.75 634.15625 Z M 533.75 748.65625 "/>
<path fill-rule="nonzero" fill="rgb(58.882141%, 49.563599%, 44.590759%)" fill-opacity="1" d="M 664.75 748.65625 L 550.25 748.65625 L 550.25 634.15625 L 664.75 634.15625 Z M 664.75 748.65625 "/>
<path fill-rule="nonzero" fill="rgb(41.490173%, 36.761475%, 31.259155%)" fill-opacity="1" d="M 795.75 748.65625 L 681.25 748.65625 L 681.25 634.15625 L 795.75 634.15625 Z M 795.75 748.65625 "/>
<path fill-rule="nonzero" fill="rgb(32.139587%, 25.767517%, 23.031616%)" fill-opacity="1" d="M 140.75 887.65625 L 26.25 887.65625 L 26.25 773.15625 L 140.75 773.15625 Z M 140.75 887.65625 "/>
<path fill-rule="nonzero" fill="rgb(74.848938%, 57.608032%, 35.704041%)" fill-opacity="1" d="M 271.75 887.65625 L 157.25 887.65625 L 157.25 773.15625 L 271.75 773.15625 Z M 271.75 887.65625 "/>
<path fill-rule="nonzero" fill="rgb(51.963806%, 32.380676%, 19.908142%)" fill-opacity="1" d="M 402.75 887.65625 L 288.25 887.65625 L 288.25 773.15625 L 402.75 773.15625 Z M 402.75 887.65625 "/>
<path fill-rule="nonzero" fill="rgb(43.383789%, 26.147461%, 13.935852%)" fill-opacity="1" d="M 533.75 887.65625 L 419.25 887.65625 L 419.25 773.15625 L 533.75 773.15625 Z M 533.75 887.65625 "/>
<path fill-rule="nonzero" fill="rgb(35.269165%, 19.084167%, 7.975769%)" fill-opacity="1" d="M 664.75 887.65625 L 550.25 887.65625 L 550.25 773.15625 L 664.75 773.15625 Z M 664.75 887.65625 "/>
<path fill-rule="nonzero" fill="rgb(20.922852%, 12.237549%, 8.889771%)" fill-opacity="1" d="M 795.75 887.65625 L 681.25 887.65625 L 681.25 773.15625 L 795.75 773.15625 Z M 795.75 887.65625 "/>
<path fill-rule="nonzero" fill="rgb(22.357178%, 20.944214%, 21.295166%)" fill-opacity="1" d="M 140.75 1026.65625 L 26.25 1026.65625 L 26.25 912.15625 L 140.75 912.15625 Z M 140.75 1026.65625 "/>
<path fill-rule="nonzero" fill="rgb(30.984497%, 29.728699%, 30.039978%)" fill-opacity="1" d="M 271.75 1026.65625 L 157.25 1026.65625 L 157.25 912.15625 L 271.75 912.15625 Z M 271.75 1026.65625 "/>
<path fill-rule="nonzero" fill="rgb(39.610291%, 38.511658%, 38.78479%)" fill-opacity="1" d="M 402.75 1026.65625 L 288.25 1026.65625 L 288.25 912.15625 L 402.75 912.15625 Z M 402.75 1026.65625 "/>
<path fill-rule="nonzero" fill="rgb(48.23761%, 47.296143%, 47.529602%)" fill-opacity="1" d="M 533.75 1026.65625 L 419.25 1026.65625 L 419.25 912.15625 L 533.75 912.15625 Z M 533.75 1026.65625 "/>
<path fill-rule="nonzero" fill="rgb(56.864929%, 56.079102%, 56.274414%)" fill-opacity="1" d="M 664.75 1026.65625 L 550.25 1026.65625 L 550.25 912.15625 L 664.75 912.15625 Z M 664.75 1026.65625 "/>
<path fill-rule="nonzero" fill="rgb(65.492249%, 64.863586%, 65.019226%)" fill-opacity="1" d="M 795.75 1026.65625 L 681.25 1026.65625 L 681.25 912.15625 L 795.75 912.15625 Z M 795.75 1026.65625 "/>
<path fill-rule="nonzero" fill="rgb(74.119568%, 73.648071%, 73.765564%)" fill-opacity="1" d="M 140.75 1165.65625 L 26.25 1165.65625 L 26.25 1051.15625 L 140.75 1051.15625 Z M 140.75 1165.65625 "/>
<path fill-rule="nonzero" fill="rgb(82.745361%, 82.43103%, 82.50885%)" fill-opacity="1" d="M 271.75 1165.65625 L 157.25 1165.65625 L 157.25 1051.15625 L 271.75 1051.15625 Z M 271.75 1165.65625 "/>
<path fill-rule="nonzero" fill="rgb(91.372681%, 91.215515%, 91.255188%)" fill-opacity="1" d="M 402.75 1165.65625 L 288.25 1165.65625 L 288.25 1051.15625 L 402.75 1051.15625 Z M 402.75 1165.65625 "/>
<path fill-rule="nonzero" fill="rgb(95.68634%, 95.608521%, 95.628357%)" fill-opacity="1" d="M 533.75 1165.65625 L 419.25 1165.65625 L 419.25 1051.15625 L 533.75 1051.15625 Z M 533.75 1165.65625 "/>
<path fill-rule="nonzero" fill="rgb(100%, 100%, 100%)" fill-opacity="1" d="M 664.75 1165.65625 L 550.25 1165.65625 L 550.25 1051.15625 L 664.75 1051.15625 Z M 664.75 1165.65625 "/>
<path fill-rule="nonzero" fill="rgb(0%, 0%, 0%)" fill-opacity="1" d="M 795.75 1165.65625 L 681.25 1165.65625 L 681.25 1051.15625 L 795.75 1051.15625 Z M 795.75 1165.65625 "/>

                  </svg>