<?xml version="1.0" encoding="UTF-8"?>
<svg style="background:transparent !important" xmlns="http://www.w3.org/2000/svg" xmlns:xlink="http://www.w3.org/1999/xlink" width="277.886718" height="187.578125" viewBox="2.835938 4.988281 277.886718 187.578125">
<path fill-rule="nonzero" fill="rgb(100%, 100%, 100%)" fill-opacity="1" d="M 76.304688 65.742188 L 61.519531 65.742188 C 61.429688 65.742188 61.355469 65.816406 61.355469 65.90625 L 61.355469 88.167969 C 61.355469 88.257812 61.429688 88.335938 61.519531 88.335938 L 76.304688 88.335938 C 76.394531 88.335938 76.46875 88.257812 76.46875 88.167969 L 76.46875 84.390625 C 76.46875 84.300781 76.394531 84.226562 76.304688 84.226562 L 65.464844 84.226562 L 65.464844 79.09375 L 75.960938 79.09375 C 76.050781 79.09375 76.125 79.019531 76.125 78.925781 L 76.125 75.148438 C 76.125 75.058594 76.050781 74.984375 75.960938 74.984375 L 65.464844 74.984375 L 65.464844 69.851562 L 76.304688 69.851562 C 76.394531 69.851562 76.46875 69.773438 76.46875 69.683594 L 76.46875 65.90625 C 76.46875 65.816406 76.394531 65.742188 76.304688 65.742188 "/>
<path fill-rule="nonzero" fill="rgb(100%, 100%, 100%)" fill-opacity="1" d="M 93.734375 74.984375 C 93.203125 73.960938 92.441406 73.144531 91.457031 72.554688 C 90.390625 71.917969 89.144531 71.625 87.753906 71.679688 C 87.074219 71.707031 86.394531 71.875 85.789062 72.171875 C 84.957031 72.574219 84.253906 73.101562 83.691406 73.742188 L 83.691406 72.398438 C 83.691406 72.304688 83.617188 72.230469 83.527344 72.230469 L 79.746094 72.230469 C 79.65625 72.230469 79.582031 72.304688 79.582031 72.398438 L 79.582031 88.171875 C 79.582031 88.261719 79.65625 88.335938 79.746094 88.335938 L 83.527344 88.335938 C 83.617188 88.335938 83.691406 88.261719 83.691406 88.171875 L 83.691406 78.972656 C 83.691406 78.460938 83.835938 77.960938 84.121094 77.488281 C 84.40625 77.011719 84.828125 76.601562 85.375 76.277344 C 85.917969 75.949219 86.554688 75.78125 87.269531 75.78125 C 88.285156 75.78125 89.046875 76.105469 89.59375 76.777344 C 90.140625 77.445312 90.414062 78.402344 90.414062 79.617188 L 90.414062 88.171875 C 90.414062 88.261719 90.492188 88.335938 90.582031 88.335938 L 94.402344 88.335938 C 94.445312 88.335938 94.488281 88.316406 94.519531 88.285156 C 94.550781 88.253906 94.566406 88.210938 94.566406 88.167969 L 94.523438 78.5 C 94.523438 77.191406 94.257812 76.007812 93.734375 74.984375 "/>
<path fill-rule="nonzero" fill="rgb(100%, 100%, 100%)" fill-opacity="1" d="M 110.105469 80.28125 C 110.105469 81.679688 109.683594 82.804688 108.863281 83.628906 C 108.039062 84.453125 107.007812 84.871094 105.796875 84.871094 C 104.617188 84.871094 103.59375 84.417969 102.757812 83.523438 C 101.914062 82.628906 101.472656 81.527344 101.445312 80.265625 C 101.472656 79.023438 101.914062 77.9375 102.757812 77.042969 C 103.59375 76.148438 104.617188 75.695312 105.796875 75.695312 C 107.007812 75.695312 108.039062 76.113281 108.863281 76.9375 C 109.683594 77.761719 110.105469 78.886719 110.105469 80.28125 Z M 114.046875 72.230469 L 110.269531 72.230469 C 110.179688 72.230469 110.105469 72.308594 110.105469 72.398438 L 110.105469 73.707031 C 109.71875 73.21875 109.1875 72.785156 108.515625 72.421875 C 107.652344 71.953125 106.707031 71.714844 105.710938 71.714844 C 103.355469 71.714844 101.328125 72.542969 99.683594 74.171875 C 98.039062 75.800781 97.207031 77.859375 97.207031 80.28125 C 97.207031 82.710938 98.039062 84.773438 99.683594 86.417969 C 101.324219 88.058594 103.355469 88.894531 105.710938 88.894531 C 106.707031 88.894531 107.652344 88.65625 108.515625 88.1875 C 109.152344 87.839844 109.664062 87.433594 110.046875 86.972656 C 110 87.308594 109.925781 87.625 109.832031 87.929688 C 109.679688 88.414062 109.441406 88.90625 109.121094 89.394531 C 108.808594 89.867188 108.347656 90.242188 107.75 90.515625 C 107.140625 90.792969 106.398438 90.929688 105.539062 90.929688 C 104.066406 90.929688 102.636719 90.410156 101.3125 89.390625 C 101.277344 89.351562 101.222656 89.335938 101.171875 89.34375 C 101.121094 89.351562 101.078125 89.382812 101.054688 89.421875 L 99.074219 92.78125 C 99.039062 92.855469 99.0625 92.945312 99.128906 92.992188 C 101.152344 94.378906 103.320312 95.082031 105.582031 95.082031 C 107.058594 95.082031 108.382812 94.832031 109.515625 94.339844 C 110.652344 93.84375 111.570312 93.160156 112.242188 92.3125 C 112.910156 91.472656 113.414062 90.535156 113.730469 89.53125 C 114.050781 88.53125 114.214844 87.464844 114.214844 86.367188 L 114.214844 72.398438 C 114.214844 72.308594 114.136719 72.230469 114.046875 72.230469 "/>
<path fill-rule="nonzero" fill="rgb(100%, 100%, 100%)" fill-opacity="1" d="M 121.570312 72.230469 L 117.75 72.230469 C 117.65625 72.230469 117.582031 72.308594 117.582031 72.398438 L 117.582031 88.167969 C 117.582031 88.261719 117.65625 88.335938 117.75 88.335938 L 121.570312 88.335938 C 121.660156 88.335938 121.734375 88.261719 121.734375 88.167969 L 121.734375 72.398438 C 121.734375 72.308594 121.660156 72.230469 121.570312 72.230469 "/>
<path fill-rule="nonzero" fill="rgb(100%, 100%, 100%)" fill-opacity="1" d="M 119.628906 65.183594 C 118.988281 65.214844 118.441406 65.453125 117.996094 65.894531 C 117.496094 66.398438 117.273438 67.035156 117.335938 67.785156 C 117.375 68.238281 117.558594 68.671875 117.855469 69.007812 C 118.347656 69.566406 118.953125 69.851562 119.660156 69.851562 C 120.359375 69.851562 120.964844 69.570312 121.453125 69.019531 C 121.753906 68.683594 121.9375 68.25 121.980469 67.800781 C 122.050781 67.042969 121.820312 66.394531 121.300781 65.875 C 120.839844 65.414062 120.265625 65.183594 119.628906 65.183594 "/>
<path fill-rule="nonzero" fill="rgb(100%, 100%, 100%)" fill-opacity="1" d="M 139.214844 74.984375 C 138.683594 73.960938 137.921875 73.144531 136.9375 72.554688 C 135.871094 71.917969 134.621094 71.625 133.234375 71.679688 C 132.554688 71.707031 131.875 71.875 131.269531 72.171875 C 130.433594 72.578125 129.730469 73.105469 129.171875 73.742188 L 129.171875 72.398438 C 129.171875 72.304688 129.097656 72.230469 129.007812 72.230469 L 125.226562 72.230469 C 125.136719 72.230469 125.0625 72.304688 125.0625 72.398438 L 125.0625 88.171875 C 125.0625 88.261719 125.136719 88.335938 125.226562 88.335938 L 129.007812 88.335938 C 129.097656 88.335938 129.171875 88.261719 129.171875 88.171875 L 129.171875 78.972656 C 129.171875 78.460938 129.316406 77.960938 129.601562 77.488281 C 129.886719 77.011719 130.308594 76.601562 130.855469 76.277344 C 131.398438 75.949219 132.035156 75.78125 132.75 75.78125 C 133.765625 75.78125 134.527344 76.105469 135.074219 76.777344 C 135.617188 77.445312 135.894531 78.402344 135.894531 79.617188 L 135.894531 88.171875 C 135.894531 88.261719 135.96875 88.335938 136.058594 88.335938 L 139.882812 88.335938 C 139.925781 88.335938 139.96875 88.316406 140 88.285156 C 140.03125 88.253906 140.046875 88.210938 140.046875 88.167969 L 140.003906 78.5 C 140.003906 77.191406 139.738281 76.007812 139.214844 74.984375 "/>
<path fill-rule="nonzero" fill="rgb(100%, 100%, 100%)" fill-opacity="1" d="M 148.730469 76.460938 C 149.457031 75.925781 150.269531 75.652344 151.148438 75.652344 C 152.140625 75.652344 153.019531 75.925781 153.757812 76.460938 C 154.441406 76.953125 154.957031 77.597656 155.289062 78.378906 L 147.21875 78.378906 C 147.554688 77.597656 148.0625 76.949219 148.730469 76.460938 Z M 151.148438 71.714844 C 148.574219 71.714844 146.371094 72.777344 144.601562 74.875 C 143.589844 76.074219 142.957031 77.523438 142.765625 79.074219 C 142.484375 81.34375 142.972656 83.40625 144.214844 85.199219 C 144.878906 86.160156 145.761719 86.988281 146.769531 87.589844 C 148.210938 88.457031 149.796875 88.894531 151.492188 88.894531 C 152.679688 88.894531 153.871094 88.671875 155.03125 88.238281 C 156.191406 87.804688 157.164062 87.226562 157.941406 86.507812 C 157.988281 86.445312 157.984375 86.351562 157.929688 86.296875 L 155.476562 83.714844 C 155.421875 83.660156 155.335938 83.652344 155.269531 83.695312 C 154.070312 84.472656 152.8125 84.871094 151.535156 84.871094 C 150.480469 84.871094 149.558594 84.609375 148.785156 84.101562 C 148.085938 83.640625 147.5625 83.050781 147.230469 82.359375 L 159.183594 82.359375 C 159.257812 82.359375 159.324219 82.3125 159.34375 82.242188 C 159.519531 81.65625 159.609375 80.933594 159.609375 80.089844 C 159.609375 77.90625 158.796875 75.945312 157.199219 74.261719 C 155.597656 72.574219 153.5625 71.714844 151.148438 71.714844 "/>
<path fill-rule="nonzero" fill="rgb(100%, 100%, 100%)" fill-opacity="1" d="M 166.820312 78.378906 C 167.15625 77.597656 167.664062 76.953125 168.332031 76.460938 C 169.058594 75.925781 169.871094 75.652344 170.75 75.652344 C 171.742188 75.652344 172.621094 75.925781 173.363281 76.460938 C 174.042969 76.953125 174.558594 77.597656 174.894531 78.378906 Z M 170.75 71.714844 C 168.175781 71.714844 165.972656 72.78125 164.203125 74.875 C 163.191406 76.074219 162.558594 77.523438 162.367188 79.074219 C 162.085938 81.347656 162.574219 83.40625 163.816406 85.203125 C 164.480469 86.160156 165.367188 86.988281 166.371094 87.589844 C 167.8125 88.457031 169.398438 88.894531 171.09375 88.894531 C 172.28125 88.894531 173.472656 88.671875 174.632812 88.238281 C 175.792969 87.804688 176.765625 87.226562 177.527344 86.527344 C 177.589844 86.464844 177.589844 86.359375 177.527344 86.296875 L 175.078125 83.714844 C 175.023438 83.660156 174.9375 83.652344 174.871094 83.695312 C 173.671875 84.476562 172.417969 84.871094 171.136719 84.871094 C 170.082031 84.871094 169.160156 84.613281 168.390625 84.101562 C 167.6875 83.640625 167.164062 83.050781 166.832031 82.359375 L 178.789062 82.359375 C 178.859375 82.359375 178.925781 82.3125 178.945312 82.242188 C 179.121094 81.65625 179.210938 80.933594 179.210938 80.089844 C 179.210938 77.910156 178.398438 75.945312 176.800781 74.261719 C 175.199219 72.574219 173.164062 71.714844 170.75 71.714844 "/>
<path fill-rule="nonzero" fill="rgb(100%, 100%, 100%)" fill-opacity="1" d="M 190.847656 71.761719 C 190.640625 71.730469 190.226562 71.703125 189.585938 71.671875 L 189.578125 71.671875 C 188.722656 71.671875 187.941406 71.890625 187.253906 72.320312 C 186.75 72.640625 186.328125 73.058594 186 73.5625 L 186 72.355469 C 186 72.265625 185.925781 72.1875 185.835938 72.1875 L 182.058594 72.1875 C 181.964844 72.1875 181.890625 72.265625 181.890625 72.355469 L 181.890625 88.167969 C 181.890625 88.261719 181.964844 88.335938 182.058594 88.335938 L 185.835938 88.335938 C 185.925781 88.335938 186 88.261719 186 88.167969 L 186 78.800781 C 186 77.871094 186.324219 77.183594 186.988281 76.695312 C 187.890625 76.03125 189.097656 75.816406 190.394531 76.039062 C 190.476562 76.039062 190.546875 75.976562 190.558594 75.890625 L 190.988281 71.921875 C 190.988281 71.84375 190.925781 71.769531 190.847656 71.761719 "/>
<path fill-rule="nonzero" fill="rgb(100%, 100%, 100%)" fill-opacity="1" d="M 195.984375 65.183594 L 195.976562 65.183594 C 195.335938 65.214844 194.785156 65.453125 194.34375 65.894531 C 193.839844 66.398438 193.617188 67.035156 193.683594 67.789062 C 193.71875 68.238281 193.90625 68.671875 194.203125 69.007812 C 194.691406 69.566406 195.300781 69.851562 196.003906 69.851562 C 196.707031 69.851562 197.308594 69.570312 197.796875 69.019531 C 198.097656 68.683594 198.285156 68.25 198.328125 67.800781 C 198.398438 67.042969 198.167969 66.394531 197.648438 65.875 C 197.1875 65.414062 196.628906 65.183594 195.984375 65.183594 "/>
<path fill-rule="nonzero" fill="rgb(100%, 100%, 100%)" fill-opacity="1" d="M 197.914062 72.230469 L 194.09375 72.230469 C 194.003906 72.230469 193.929688 72.308594 193.929688 72.398438 L 193.929688 88.167969 C 193.929688 88.261719 194.003906 88.335938 194.09375 88.335938 L 197.914062 88.335938 C 198.003906 88.335938 198.082031 88.261719 198.082031 88.167969 L 198.082031 72.398438 C 198.082031 72.308594 198.003906 72.230469 197.914062 72.230469 "/>
<path fill-rule="nonzero" fill="rgb(100%, 100%, 100%)" fill-opacity="1" d="M 215.558594 74.984375 C 215.03125 73.960938 214.265625 73.144531 213.285156 72.554688 C 212.214844 71.917969 210.96875 71.625 209.578125 71.679688 C 208.898438 71.707031 208.21875 71.875 207.613281 72.171875 C 206.777344 72.578125 206.070312 73.109375 205.519531 73.742188 L 205.519531 72.398438 C 205.519531 72.304688 205.441406 72.230469 205.351562 72.230469 L 201.574219 72.230469 C 201.484375 72.230469 201.410156 72.304688 201.410156 72.398438 L 201.410156 88.171875 C 201.410156 88.261719 201.484375 88.335938 201.574219 88.335938 L 205.351562 88.335938 C 205.441406 88.335938 205.519531 88.261719 205.519531 88.171875 L 205.519531 78.972656 C 205.519531 78.460938 205.660156 77.960938 205.945312 77.488281 C 206.234375 77.011719 206.65625 76.601562 207.199219 76.277344 C 207.746094 75.949219 208.382812 75.78125 209.09375 75.78125 C 210.113281 75.78125 210.871094 76.105469 211.417969 76.777344 C 211.964844 77.445312 212.242188 78.402344 212.242188 79.617188 L 212.242188 88.171875 C 212.242188 88.261719 212.316406 88.335938 212.40625 88.335938 L 216.230469 88.335938 C 216.273438 88.335938 216.316406 88.316406 216.347656 88.285156 C 216.375 88.253906 216.394531 88.210938 216.394531 88.167969 L 216.351562 78.5 C 216.351562 77.191406 216.085938 76.007812 215.558594 74.984375 "/>
<path fill-rule="nonzero" fill="rgb(100%, 100%, 100%)" fill-opacity="1" d="M 231.929688 80.28125 C 231.929688 81.679688 231.511719 82.804688 230.6875 83.628906 C 229.863281 84.453125 228.832031 84.871094 227.621094 84.871094 C 226.441406 84.871094 225.417969 84.417969 224.582031 83.523438 C 223.738281 82.628906 223.300781 81.53125 223.269531 80.265625 C 223.300781 79.023438 223.738281 77.9375 224.582031 77.042969 C 225.421875 76.148438 226.441406 75.695312 227.621094 75.695312 C 228.832031 75.695312 229.863281 76.113281 230.6875 76.9375 C 231.511719 77.761719 231.929688 78.886719 231.929688 80.28125 Z M 235.875 72.230469 L 232.09375 72.230469 C 232.003906 72.230469 231.929688 72.308594 231.929688 72.398438 L 231.929688 73.707031 C 231.542969 73.21875 231.011719 72.785156 230.34375 72.421875 C 229.476562 71.953125 228.53125 71.714844 227.535156 71.714844 C 225.179688 71.714844 223.152344 72.542969 221.511719 74.171875 C 219.867188 75.800781 219.03125 77.855469 219.03125 80.28125 C 219.03125 82.710938 219.867188 84.773438 221.507812 86.417969 C 223.152344 88.058594 225.179688 88.894531 227.535156 88.894531 C 228.53125 88.894531 229.476562 88.65625 230.34375 88.1875 C 230.980469 87.839844 231.492188 87.433594 231.871094 86.972656 C 231.824219 87.308594 231.753906 87.625 231.65625 87.929688 C 231.503906 88.414062 231.265625 88.90625 230.945312 89.394531 C 230.632812 89.867188 230.171875 90.242188 229.574219 90.515625 C 228.96875 90.792969 228.222656 90.929688 227.363281 90.929688 C 225.890625 90.929688 224.464844 90.410156 223.140625 89.390625 C 223.101562 89.351562 223.050781 89.335938 222.996094 89.34375 C 222.949219 89.351562 222.90625 89.382812 222.878906 89.421875 L 220.898438 92.78125 C 220.863281 92.855469 220.886719 92.945312 220.953125 92.992188 C 222.976562 94.378906 225.148438 95.082031 227.40625 95.082031 C 228.882812 95.082031 230.207031 94.832031 231.339844 94.339844 C 232.476562 93.84375 233.398438 93.160156 234.070312 92.3125 C 234.738281 91.46875 235.238281 90.535156 235.558594 89.53125 C 235.875 88.53125 236.039062 87.464844 236.039062 86.367188 L 236.039062 72.398438 C 236.039062 72.308594 235.964844 72.230469 235.875 72.230469 "/>
<path fill-rule="nonzero" fill="rgb(24.705505%, 41.175842%, 69.412231%)" fill-opacity="1" d="M 31.703125 5.097656 C 25.9375 4.988281 20.164062 6.726562 15.394531 9.964844 C 18.046875 9.878906 20.679688 11.230469 22.136719 13.441406 C 23.414062 15.328125 23.816406 17.792969 23.160156 19.980469 C 27.042969 17.613281 31.953125 17.03125 36.277344 18.449219 C 38.714844 19.242188 40.972656 20.617188 42.757812 22.464844 C 43.9375 23.664062 45.59375 24.390625 47.285156 24.363281 C 49.277344 24.398438 51.246094 23.398438 52.398438 21.773438 C 54.113281 19.5 53.96875 16.058594 52.066406 13.9375 C 46.855469 8.394531 39.3125 5.113281 31.703125 5.097656 "/>
<path fill-rule="nonzero" fill="rgb(24.705505%, 41.175842%, 69.412231%)" fill-opacity="1" d="M 11.695312 22.949219 C 13.144531 24.070312 15.085938 24.515625 16.882812 24.160156 C 18.890625 23.789062 20.671875 22.386719 21.515625 20.527344 C 22.078125 19.335938 22.226562 17.972656 22.015625 16.675781 C 21.6875 14.726562 20.410156 12.964844 18.652344 12.066406 C 17.332031 11.367188 15.753906 11.140625 14.296875 11.484375 C 12.75 11.882812 11.535156 13.027344 10.503906 14.195312 C 9.457031 15.363281 8.984375 16.988281 9.203125 18.539062 C 9.375 20.269531 10.316406 21.894531 11.695312 22.949219 "/>
<path fill-rule="nonzero" fill="rgb(100%, 91.764832%, 0%)" fill-opacity="1" d="M 10.390625 43.5625 C 12.347656 41.8125 15.207031 41.167969 17.726562 41.910156 C 15.96875 38.984375 15.152344 35.496094 15.503906 32.097656 C 15.738281 29.722656 16.519531 27.40625 17.757812 25.367188 C 15.425781 26.019531 12.8125 25.527344 10.898438 24.042969 C 8.878906 22.546875 7.75 20.039062 7.769531 17.546875 C 4.816406 21.878906 3.105469 27.023438 2.835938 32.257812 L 2.835938 35.011719 C 3.089844 40.214844 4.78125 45.332031 7.695312 49.65625 C 7.691406 47.363281 8.644531 45.070312 10.390625 43.5625 "/>
<path fill-rule="nonzero" fill="rgb(87.451172%, 26.274109%, 5.882263%)" fill-opacity="1" d="M 20.867188 53.109375 C 21.765625 51.785156 22.15625 50.117188 21.910156 48.535156 C 21.660156 46.699219 20.5625 45.011719 18.996094 44.023438 C 17.625 43.128906 15.898438 42.828125 14.292969 43.128906 C 13.035156 43.371094 11.84375 43.996094 10.949219 44.921875 C 9.488281 46.335938 8.804688 48.5 9.160156 50.5 C 9.414062 51.863281 10.296875 53 11.265625 53.945312 C 12.054688 54.777344 13.019531 55.492188 14.152344 55.765625 C 16.660156 56.367188 19.441406 55.253906 20.867188 53.109375 "/>
<path fill-rule="nonzero" fill="rgb(87.451172%, 26.274109%, 5.882263%)" fill-opacity="1" d="M 48.691406 43.378906 C 47.09375 42.957031 45.332031 43.179688 43.90625 44.019531 C 43.257812 44.390625 42.710938 44.898438 42.1875 45.421875 C 39.632812 47.792969 36.273438 49.269531 32.800781 49.570312 C 29.4375 49.878906 25.980469 49.066406 23.101562 47.292969 C 23.867188 49.921875 23.132812 52.917969 21.207031 54.867188 C 19.699219 56.464844 17.488281 57.359375 15.296875 57.277344 C 22.015625 61.953125 30.804688 63.417969 38.703125 61.308594 C 43.558594 60.039062 48.066406 57.457031 51.59375 53.886719 C 53.214844 52.296875 53.792969 49.785156 53.125 47.628906 C 52.519531 45.570312 50.773438 43.898438 48.691406 43.378906 "/>
<path fill-rule="nonzero" fill="rgb(100%, 100%, 100%)" fill-opacity="1" d="M 242.808594 9.785156 C 241.738281 9.007812 240.371094 9.386719 239.148438 9.296875 C 236.523438 9.175781 233.789062 10.132812 232.058594 12.160156 C 230.472656 13.671875 229.65625 15.835938 229.496094 17.984375 C 229.515625 26.867188 229.5 35.753906 229.503906 44.636719 C 229.457031 45.371094 229.851562 46.089844 230.453125 46.5 C 231.386719 47.066406 232.519531 46.875 233.5625 46.898438 C 234.371094 46.914062 235.238281 46.636719 235.75 45.976562 C 236.058594 45.449219 236.128906 44.816406 236.140625 44.214844 C 236.136719 38.324219 236.140625 32.429688 236.136719 26.539062 C 237.617188 26.53125 239.101562 26.542969 240.582031 26.539062 C 241.355469 26.570312 242.097656 26.09375 242.476562 25.433594 C 242.960938 24.550781 242.886719 23.5 242.804688 22.535156 C 242.6875 21.4375 241.722656 20.53125 240.625 20.488281 C 239.117188 20.441406 237.605469 20.492188 236.101562 20.46875 C 235.96875 18.722656 236.277344 16.492188 238.011719 15.617188 C 239.34375 14.84375 240.949219 15.515625 242.34375 14.992188 C 243.230469 14.589844 243.683594 13.585938 243.679688 12.644531 C 243.726562 11.648438 243.675781 10.445312 242.808594 9.785156 "/>
<path fill-rule="nonzero" fill="rgb(100%, 100%, 100%)" fill-opacity="1" d="M 280.625 43.175781 C 280.613281 34.160156 280.632812 25.140625 280.617188 16.125 C 280.628906 14.972656 279.769531 13.742188 278.546875 13.722656 C 277.546875 13.710938 276.539062 13.660156 275.542969 13.757812 C 274.496094 13.996094 273.820312 15.082031 273.863281 16.121094 C 273.859375 25.554688 273.863281 34.988281 273.859375 44.421875 C 273.867188 45.101562 274.058594 45.859375 274.648438 46.265625 C 275.558594 47.035156 276.828125 46.78125 277.925781 46.871094 C 278.792969 46.960938 279.6875 46.578125 280.21875 45.886719 C 280.722656 45.074219 280.621094 44.089844 280.625 43.175781 "/>
<path fill-rule="nonzero" fill="rgb(100%, 100%, 100%)" fill-opacity="1" d="M 155.734375 22.738281 C 155.867188 21.496094 154.679688 20.496094 153.503906 20.484375 C 151.921875 20.449219 150.34375 20.488281 148.765625 20.472656 C 148.75 18.957031 148.796875 17.445312 148.75 15.929688 C 148.753906 15.175781 148.355469 14.445312 147.683594 14.085938 C 147.082031 13.652344 146.308594 13.816406 145.621094 13.785156 C 144.808594 13.824219 143.894531 13.625 143.199219 14.152344 C 142.441406 14.601562 142.179688 15.515625 142.210938 16.347656 C 142.21875 22.265625 142.210938 28.179688 142.214844 34.097656 C 142.230469 36.203125 142.105469 38.320312 142.480469 40.402344 C 142.910156 42.621094 144.25 44.785156 146.347656 45.753906 C 148.511719 46.691406 150.914062 46.707031 153.230469 46.617188 C 154.15625 46.523438 154.949219 45.753906 155.0625 44.832031 C 155.183594 43.605469 155.304688 42.058594 154.195312 41.226562 C 153.476562 40.597656 152.472656 40.875 151.609375 40.789062 C 150.402344 40.769531 149.15625 39.894531 148.972656 38.65625 C 148.769531 37.699219 148.816406 36.71875 148.816406 35.746094 C 148.820312 32.632812 148.816406 29.519531 148.820312 26.40625 C 150.304688 26.40625 151.792969 26.410156 153.273438 26.410156 C 154.015625 26.429688 154.800781 26.183594 155.269531 25.585938 C 155.960938 24.804688 155.6875 23.6875 155.734375 22.738281 "/>
<path fill-rule="nonzero" fill="rgb(100%, 100%, 100%)" fill-opacity="1" d="M 224.707031 20.476562 C 223.148438 20.460938 221.59375 20.484375 220.039062 20.472656 C 220.027344 18.878906 219.964844 17.289062 219.90625 15.699219 C 219.890625 15.082031 219.507812 14.535156 219.023438 14.183594 C 218.15625 13.523438 217.007812 13.875 216.003906 13.78125 C 215.144531 13.6875 214.242188 14.019531 213.761719 14.757812 C 213.234375 15.605469 213.394531 16.636719 213.378906 17.582031 C 213.378906 24.253906 213.378906 30.929688 213.378906 37.601562 C 213.410156 38.699219 213.539062 39.800781 213.792969 40.867188 C 214.351562 43 215.742188 45.054688 217.828125 45.929688 C 219.863281 46.824219 222.113281 46.640625 224.28125 46.632812 C 225.34375 46.621094 226.265625 45.699219 226.316406 44.644531 C 226.371094 43.503906 226.503906 42.113281 225.523438 41.304688 C 224.796875 40.601562 223.742188 40.863281 222.839844 40.789062 C 221.628906 40.777344 220.390625 39.886719 220.199219 38.652344 C 219.984375 37.5625 220.039062 36.449219 220.035156 35.347656 C 220.039062 32.367188 220.035156 29.390625 220.039062 26.410156 C 221.652344 26.394531 223.273438 26.429688 224.890625 26.402344 C 225.910156 26.402344 226.988281 25.679688 227.03125 24.589844 C 227.066406 23.710938 227.117188 22.8125 226.972656 21.9375 C 226.699219 20.972656 225.648438 20.476562 224.707031 20.476562 "/>
<path fill-rule="nonzero" fill="rgb(100%, 100%, 100%)" fill-opacity="1" d="M 163.082031 30.425781 C 163.859375 28.027344 166.039062 26.140625 168.53125 25.746094 C 169.695312 25.675781 170.882812 25.539062 172.035156 25.777344 C 173.316406 26.117188 174.417969 26.964844 175.238281 27.988281 C 175.816406 28.683594 175.96875 29.597656 176.257812 30.429688 C 171.867188 30.433594 167.472656 30.441406 163.082031 30.425781 Z M 181.332031 26.414062 C 180.683594 24.917969 179.589844 23.667969 178.4375 22.535156 C 176.832031 21.253906 174.871094 20.417969 172.859375 20.007812 C 170.816406 19.699219 168.714844 19.527344 166.660156 19.878906 C 164.867188 20.117188 163.1875 20.898438 161.648438 21.832031 C 158.554688 23.898438 156.445312 27.34375 155.878906 31.011719 C 155.707031 32.441406 155.773438 33.882812 155.835938 35.316406 C 156.164062 39.078125 157.925781 42.855469 161.066406 45.0625 C 162.121094 45.945312 163.4375 46.386719 164.707031 46.859375 C 169.8125 48.511719 175.707031 47.570312 179.988281 44.316406 C 180.335938 44.042969 180.761719 43.710938 180.683594 43.210938 C 180.550781 42.5 179.964844 42.007812 179.519531 41.484375 C 178.835938 40.78125 178.28125 39.894531 177.371094 39.457031 C 176.792969 39.222656 176.21875 39.574219 175.703125 39.808594 C 174.179688 40.582031 172.53125 41.175781 170.8125 41.261719 C 169.710938 41.328125 168.574219 41.441406 167.496094 41.132812 C 166.5625 40.832031 165.6875 40.351562 164.914062 39.746094 C 163.886719 38.796875 163.164062 37.554688 162.742188 36.226562 C 168.800781 36.179688 174.859375 36.285156 180.914062 36.261719 C 181.558594 36.28125 182.433594 36.066406 182.550781 35.3125 C 182.882812 33.890625 182.640625 32.421875 182.523438 30.988281 C 182.402344 29.40625 181.882812 27.886719 181.332031 26.414062 "/>
<path fill-rule="nonzero" fill="rgb(100%, 100%, 100%)" fill-opacity="1" d="M 80.882812 39.160156 C 80.425781 38.804688 79.804688 39 79.394531 39.320312 C 78.457031 40.015625 77.445312 40.644531 76.3125 40.949219 C 74.730469 41.472656 72.984375 41.203125 71.515625 40.476562 C 69.605469 39.566406 68.394531 37.59375 67.96875 35.574219 C 67.449219 33.507812 67.875 31.265625 68.921875 29.429688 C 69.769531 27.921875 71.253906 26.769531 72.949219 26.398438 C 74.65625 25.953125 76.476562 26.355469 78.019531 27.136719 C 78.667969 27.445312 79.203125 28.105469 79.972656 28.066406 C 80.667969 28.058594 81.113281 27.445312 81.554688 26.992188 C 82.183594 26.25 82.933594 25.617188 83.5 24.820312 C 83.878906 24.300781 83.78125 23.539062 83.347656 23.082031 C 82.269531 21.921875 80.761719 21.328125 79.335938 20.722656 C 77.410156 19.929688 75.296875 19.808594 73.238281 19.953125 C 69.796875 20.328125 66.304688 21.875 64.203125 24.710938 C 61.023438 28.464844 60.546875 33.953125 62.132812 38.496094 C 63.34375 41.496094 65.550781 44.085938 68.351562 45.714844 C 70.363281 46.703125 72.5625 47.394531 74.820312 47.394531 C 77.195312 47.449219 79.53125 46.738281 81.632812 45.660156 C 82.558594 45.027344 83.601562 44.464844 84.292969 43.554688 C 84.640625 42.726562 83.828125 42.023438 83.308594 41.484375 C 82.4375 40.773438 81.78125 39.832031 80.882812 39.160156 "/>
<path fill-rule="nonzero" fill="rgb(100%, 100%, 100%)" fill-opacity="1" d="M 103.699219 38.203125 C 102.554688 39.914062 100.597656 41.035156 98.546875 41.191406 C 96.796875 41.335938 95.078125 40.59375 93.71875 39.535156 C 92.53125 38.378906 91.648438 36.863281 91.417969 35.207031 C 91.152344 33.238281 91.324219 31.109375 92.414062 29.394531 C 93.296875 27.847656 94.863281 26.785156 96.558594 26.308594 C 100.253906 25.339844 104.316406 28.300781 104.726562 32.054688 C 105.042969 34.125 104.945312 36.433594 103.699219 38.203125 Z M 102.503906 20.640625 C 100.546875 19.871094 98.417969 19.832031 96.34375 19.9375 C 92.964844 20.226562 89.675781 21.882812 87.535156 24.535156 C 85.699219 26.742188 84.484375 29.546875 84.46875 32.445312 C 84.464844 33.941406 84.402344 35.464844 84.777344 36.929688 C 85.566406 40.117188 87.484375 43.039062 90.164062 44.953125 C 91.15625 45.800781 92.398438 46.226562 93.59375 46.703125 C 98.464844 48.472656 104.265625 46.894531 107.671875 43.019531 C 108.925781 41.5625 110.039062 39.90625 110.53125 38.027344 C 111.398438 35.378906 111.503906 32.46875 110.777344 29.773438 C 109.792969 25.601562 106.5625 22.039062 102.503906 20.640625 "/>
<path fill-rule="nonzero" fill="rgb(100%, 100%, 100%)" fill-opacity="1" d="M 137.167969 25.421875 C 136.261719 23.90625 135.15625 22.421875 133.570312 21.5625 C 131.828125 20.449219 129.726562 19.925781 127.671875 19.988281 C 124.6875 20.144531 121.785156 21.488281 119.726562 23.652344 C 119.730469 22.753906 119.761719 21.726562 119.015625 21.078125 C 118.246094 20.15625 116.949219 20.464844 115.902344 20.417969 C 114.691406 20.265625 113.421875 21.285156 113.46875 22.53125 C 113.464844 29.902344 113.464844 37.269531 113.46875 44.640625 C 113.449219 45.214844 113.667969 45.800781 114.125 46.164062 C 115.109375 47.050781 116.554688 46.660156 117.757812 46.738281 C 118.941406 46.828125 120.019531 45.804688 120.035156 44.628906 C 120.066406 40.628906 120.039062 36.632812 120.046875 32.636719 C 120.011719 30.914062 120.867188 29.289062 122.023438 28.0625 C 123.226562 26.984375 124.789062 26.261719 126.417969 26.214844 C 128.128906 26.261719 129.828125 27.042969 130.921875 28.371094 C 132.003906 29.679688 132.5 31.425781 132.320312 33.109375 C 132.277344 36.8125 132.320312 40.515625 132.296875 44.222656 C 132.277344 44.960938 132.40625 45.789062 133.011719 46.289062 C 133.851562 47.066406 135.082031 46.875 136.132812 46.902344 C 137.09375 46.953125 138.199219 46.652344 138.710938 45.769531 C 139.023438 45.023438 138.917969 44.183594 138.9375 43.394531 C 138.917969 39.609375 138.972656 35.820312 138.910156 32.035156 C 138.890625 29.726562 138.28125 27.441406 137.167969 25.421875 "/>
<path fill-rule="nonzero" fill="rgb(100%, 100%, 100%)" fill-opacity="1" d="M 209.835938 28.46875 C 209.234375 26.367188 208.148438 24.40625 206.648438 22.816406 C 204.542969 20.832031 201.578125 19.789062 198.695312 20.007812 C 195.789062 20.269531 192.984375 21.617188 191.035156 23.796875 C 190.996094 22.96875 191.191406 21.996094 190.585938 21.320312 C 190.199219 20.828125 189.632812 20.410156 188.980469 20.425781 C 188.152344 20.417969 187.320312 20.375 186.496094 20.46875 C 185.507812 20.730469 184.714844 21.695312 184.785156 22.738281 C 184.796875 30.035156 184.777344 37.335938 184.792969 44.632812 C 184.78125 45.675781 185.660156 46.636719 186.703125 46.707031 C 187.597656 46.773438 188.492188 46.757812 189.390625 46.722656 C 190.472656 46.714844 191.484375 45.726562 191.394531 44.621094 C 191.394531 40.699219 191.394531 36.78125 191.390625 32.863281 C 191.394531 31.664062 191.769531 30.484375 192.371094 29.460938 C 193.753906 26.980469 197.035156 25.535156 199.746094 26.582031 C 201.84375 27.289062 203.371094 29.269531 203.707031 31.429688 C 203.804688 32.246094 203.695312 33.070312 203.703125 33.886719 C 203.699219 37.335938 203.707031 40.78125 203.699219 44.226562 C 203.707031 44.792969 203.703125 45.40625 204.066406 45.875 C 204.515625 46.640625 205.457031 46.917969 206.296875 46.898438 C 207.375 46.871094 208.582031 47.082031 209.519531 46.410156 C 210.164062 45.972656 210.339844 45.144531 210.339844 44.414062 C 210.332031 42.144531 210.335938 39.878906 210.335938 37.609375 C 210.300781 34.558594 210.523438 31.46875 209.835938 28.46875 "/>
<path fill-rule="nonzero" fill="rgb(100%, 100%, 100%)" fill-opacity="1" d="M 270.347656 22.738281 C 270.390625 21.769531 269.761719 20.796875 268.832031 20.503906 C 267.886719 20.335938 266.917969 20.449219 265.964844 20.421875 C 264.714844 20.316406 263.652344 21.515625 263.746094 22.726562 C 263.746094 26.589844 263.742188 30.453125 263.75 34.3125 C 263.753906 37.332031 261.546875 40.277344 258.542969 40.867188 C 256.609375 41.363281 254.527344 40.664062 253.085938 39.339844 C 252.109375 38.167969 251.328125 36.707031 251.367188 35.144531 C 251.414062 31.011719 251.371094 26.875 251.390625 22.742188 C 251.492188 21.496094 250.296875 20.300781 249.050781 20.417969 C 248.148438 20.441406 247.242188 20.355469 246.347656 20.480469 C 245.472656 20.753906 244.691406 21.5625 244.71875 22.523438 C 244.675781 25.074219 244.714844 27.625 244.703125 30.175781 C 244.71875 32.3125 244.648438 34.453125 244.8125 36.585938 C 245.074219 38.828125 245.804688 41.023438 247.019531 42.933594 C 248.425781 45.136719 250.777344 46.675781 253.355469 47.085938 C 255.960938 47.660156 258.691406 47.066406 261.042969 45.886719 C 262.210938 45.242188 263.183594 44.328125 264.144531 43.414062 C 264.246094 44.390625 263.984375 45.660156 264.910156 46.324219 C 265.847656 47.078125 267.140625 46.90625 268.265625 46.875 C 269.179688 46.828125 270.101562 46.191406 270.269531 45.257812 C 270.417969 44.363281 270.332031 43.453125 270.351562 42.550781 C 270.347656 35.945312 270.355469 29.339844 270.347656 22.738281 "/>
<path fill-rule="nonzero" fill="rgb(100%, 100%, 100%)" fill-opacity="1" d="M 76.304688 163.226562 L 61.519531 163.226562 C 61.429688 163.226562 61.355469 163.300781 61.355469 163.390625 L 61.355469 185.652344 C 61.355469 185.742188 61.429688 185.820312 61.519531 185.820312 L 76.304688 185.820312 C 76.394531 185.820312 76.46875 185.742188 76.46875 185.652344 L 76.46875 181.875 C 76.46875 181.785156 76.394531 181.710938 76.304688 181.710938 L 65.464844 181.710938 L 65.464844 176.578125 L 75.960938 176.578125 C 76.050781 176.578125 76.125 176.503906 76.125 176.414062 L 76.125 172.632812 C 76.125 172.542969 76.050781 172.46875 75.960938 172.46875 L 65.464844 172.46875 L 65.464844 167.335938 L 76.304688 167.335938 C 76.394531 167.335938 76.46875 167.257812 76.46875 167.167969 L 76.46875 163.390625 C 76.46875 163.300781 76.394531 163.226562 76.304688 163.226562 "/>
<path fill-rule="nonzero" fill="rgb(100%, 100%, 100%)" fill-opacity="1" d="M 93.734375 172.46875 C 93.203125 171.445312 92.441406 170.628906 91.457031 170.039062 C 90.390625 169.402344 89.144531 169.109375 87.753906 169.164062 C 87.074219 169.191406 86.394531 169.359375 85.789062 169.65625 C 84.957031 170.058594 84.253906 170.585938 83.691406 171.226562 L 83.691406 169.882812 C 83.691406 169.789062 83.617188 169.71875 83.527344 169.71875 L 79.746094 169.71875 C 79.65625 169.71875 79.582031 169.789062 79.582031 169.882812 L 79.582031 185.65625 C 79.582031 185.746094 79.65625 185.820312 79.746094 185.820312 L 83.527344 185.820312 C 83.617188 185.820312 83.691406 185.746094 83.691406 185.65625 L 83.691406 176.457031 C 83.691406 175.945312 83.835938 175.445312 84.121094 174.972656 C 84.40625 174.496094 84.828125 174.085938 85.375 173.761719 C 85.917969 173.433594 86.554688 173.265625 87.269531 173.265625 C 88.285156 173.265625 89.046875 173.589844 89.59375 174.261719 C 90.140625 174.929688 90.414062 175.886719 90.414062 177.101562 L 90.414062 185.65625 C 90.414062 185.746094 90.492188 185.820312 90.582031 185.820312 L 94.402344 185.820312 C 94.445312 185.820312 94.488281 185.800781 94.519531 185.769531 C 94.550781 185.738281 94.566406 185.695312 94.566406 185.652344 L 94.523438 175.984375 C 94.523438 174.675781 94.257812 173.492188 93.734375 172.46875 "/>
<path fill-rule="nonzero" fill="rgb(100%, 100%, 100%)" fill-opacity="1" d="M 110.105469 177.769531 C 110.105469 179.164062 109.683594 180.289062 108.863281 181.113281 C 108.039062 181.9375 107.007812 182.355469 105.796875 182.355469 C 104.617188 182.355469 103.59375 181.902344 102.757812 181.007812 C 101.914062 180.113281 101.472656 179.011719 101.445312 177.75 C 101.472656 176.507812 101.914062 175.421875 102.757812 174.527344 C 103.59375 173.632812 104.617188 173.179688 105.796875 173.179688 C 107.007812 173.179688 108.039062 173.597656 108.863281 174.421875 C 109.683594 175.246094 110.105469 176.371094 110.105469 177.769531 Z M 114.046875 169.71875 L 110.269531 169.71875 C 110.179688 169.71875 110.105469 169.792969 110.105469 169.882812 L 110.105469 171.191406 C 109.71875 170.703125 109.1875 170.269531 108.515625 169.90625 C 107.652344 169.4375 106.707031 169.199219 105.710938 169.199219 C 103.355469 169.199219 101.328125 170.027344 99.683594 171.65625 C 98.039062 173.285156 97.207031 175.34375 97.207031 177.769531 C 97.207031 180.195312 98.039062 182.257812 99.683594 183.902344 C 101.324219 185.542969 103.355469 186.378906 105.710938 186.378906 C 106.707031 186.378906 107.652344 186.140625 108.515625 185.671875 C 109.152344 185.324219 109.664062 184.917969 110.046875 184.460938 C 110 184.792969 109.925781 185.109375 109.832031 185.414062 C 109.679688 185.898438 109.441406 186.390625 109.121094 186.878906 C 108.808594 187.351562 108.347656 187.726562 107.75 188 C 107.140625 188.277344 106.398438 188.414062 105.539062 188.414062 C 104.066406 188.414062 102.636719 187.894531 101.3125 186.875 C 101.277344 186.839844 101.222656 186.820312 101.171875 186.828125 C 101.121094 186.835938 101.078125 186.867188 101.054688 186.90625 L 99.074219 190.265625 C 99.039062 190.339844 99.0625 190.433594 99.128906 190.476562 C 101.152344 191.863281 103.320312 192.566406 105.582031 192.566406 C 107.058594 192.566406 108.382812 192.320312 109.515625 191.824219 C 110.652344 191.328125 111.570312 190.644531 112.242188 189.796875 C 112.910156 188.957031 113.414062 188.019531 113.730469 187.015625 C 114.050781 186.015625 114.214844 184.953125 114.214844 183.851562 L 114.214844 169.882812 C 114.214844 169.792969 114.136719 169.71875 114.046875 169.71875 "/>
<path fill-rule="nonzero" fill="rgb(100%, 100%, 100%)" fill-opacity="1" d="M 121.570312 169.71875 L 117.75 169.71875 C 117.65625 169.71875 117.582031 169.792969 117.582031 169.882812 L 117.582031 185.65625 C 117.582031 185.746094 117.65625 185.820312 117.75 185.820312 L 121.570312 185.820312 C 121.660156 185.820312 121.734375 185.746094 121.734375 185.65625 L 121.734375 169.882812 C 121.734375 169.792969 121.660156 169.71875 121.570312 169.71875 "/>
<path fill-rule="nonzero" fill="rgb(100%, 100%, 100%)" fill-opacity="1" d="M 119.628906 162.667969 C 118.988281 162.699219 118.441406 162.9375 117.996094 163.378906 C 117.496094 163.882812 117.273438 164.519531 117.335938 165.273438 C 117.375 165.722656 117.558594 166.15625 117.855469 166.492188 C 118.347656 167.050781 118.953125 167.335938 119.660156 167.335938 C 120.359375 167.335938 120.964844 167.054688 121.453125 166.503906 C 121.753906 166.167969 121.9375 165.734375 121.980469 165.285156 C 122.050781 164.527344 121.820312 163.878906 121.300781 163.359375 C 120.839844 162.898438 120.265625 162.667969 119.628906 162.667969 "/>
<path fill-rule="nonzero" fill="rgb(100%, 100%, 100%)" fill-opacity="1" d="M 139.214844 172.46875 C 138.683594 171.445312 137.921875 170.628906 136.9375 170.039062 C 135.871094 169.402344 134.621094 169.109375 133.234375 169.164062 C 132.554688 169.191406 131.875 169.359375 131.269531 169.65625 C 130.433594 170.0625 129.730469 170.589844 129.171875 171.226562 L 129.171875 169.882812 C 129.171875 169.789062 129.097656 169.71875 129.007812 169.71875 L 125.226562 169.71875 C 125.136719 169.71875 125.0625 169.789062 125.0625 169.882812 L 125.0625 185.65625 C 125.0625 185.746094 125.136719 185.820312 125.226562 185.820312 L 129.007812 185.820312 C 129.097656 185.820312 129.171875 185.746094 129.171875 185.65625 L 129.171875 176.457031 C 129.171875 175.945312 129.316406 175.445312 129.601562 174.972656 C 129.886719 174.496094 130.308594 174.085938 130.855469 173.761719 C 131.398438 173.433594 132.035156 173.265625 132.75 173.265625 C 133.765625 173.265625 134.527344 173.589844 135.074219 174.261719 C 135.617188 174.929688 135.894531 175.886719 135.894531 177.101562 L 135.894531 185.65625 C 135.894531 185.746094 135.96875 185.820312 136.058594 185.820312 L 139.882812 185.820312 C 139.925781 185.820312 139.96875 185.800781 140 185.769531 C 140.03125 185.738281 140.046875 185.695312 140.046875 185.652344 L 140.003906 175.984375 C 140.003906 174.675781 139.738281 173.492188 139.214844 172.46875 "/>
<path fill-rule="nonzero" fill="rgb(100%, 100%, 100%)" fill-opacity="1" d="M 148.730469 173.945312 C 149.457031 173.410156 150.269531 173.140625 151.148438 173.140625 C 152.140625 173.140625 153.019531 173.410156 153.757812 173.945312 C 154.441406 174.4375 154.957031 175.082031 155.289062 175.863281 L 147.21875 175.863281 C 147.554688 175.082031 148.0625 174.433594 148.730469 173.945312 Z M 151.148438 169.199219 C 148.574219 169.199219 146.371094 170.265625 144.601562 172.359375 C 143.589844 173.558594 142.957031 175.007812 142.765625 176.558594 C 142.484375 178.832031 142.972656 180.890625 144.214844 182.683594 C 144.878906 183.644531 145.761719 184.472656 146.769531 185.074219 C 148.210938 185.941406 149.796875 186.378906 151.492188 186.378906 C 152.679688 186.378906 153.871094 186.15625 155.03125 185.722656 C 156.191406 185.289062 157.164062 184.710938 157.941406 183.992188 C 157.988281 183.929688 157.984375 183.835938 157.929688 183.78125 L 155.476562 181.199219 C 155.421875 181.144531 155.335938 181.136719 155.269531 181.179688 C 154.070312 181.957031 152.8125 182.355469 151.535156 182.355469 C 150.480469 182.355469 149.558594 182.097656 148.785156 181.585938 C 148.085938 181.125 147.5625 180.535156 147.230469 179.84375 L 159.183594 179.84375 C 159.257812 179.84375 159.324219 179.796875 159.34375 179.726562 C 159.519531 179.140625 159.609375 178.417969 159.609375 177.574219 C 159.609375 175.394531 158.796875 173.429688 157.199219 171.746094 C 155.597656 170.058594 153.5625 169.199219 151.148438 169.199219 "/>
<path fill-rule="nonzero" fill="rgb(100%, 100%, 100%)" fill-opacity="1" d="M 166.820312 175.863281 C 167.15625 175.082031 167.664062 174.4375 168.332031 173.945312 C 169.058594 173.410156 169.871094 173.136719 170.75 173.136719 C 171.742188 173.136719 172.621094 173.410156 173.363281 173.945312 C 174.042969 174.4375 174.558594 175.085938 174.894531 175.863281 Z M 170.75 169.199219 C 168.175781 169.199219 165.972656 170.265625 164.203125 172.359375 C 163.191406 173.558594 162.558594 175.007812 162.367188 176.558594 C 162.085938 178.832031 162.574219 180.890625 163.816406 182.6875 C 164.480469 183.644531 165.367188 184.472656 166.371094 185.074219 C 167.8125 185.941406 169.398438 186.378906 171.09375 186.378906 C 172.28125 186.378906 173.472656 186.15625 174.632812 185.722656 C 175.792969 185.289062 176.765625 184.710938 177.527344 184.011719 C 177.589844 183.949219 177.589844 183.84375 177.527344 183.78125 L 175.078125 181.199219 C 175.023438 181.144531 174.9375 181.136719 174.871094 181.179688 C 173.671875 181.960938 172.417969 182.355469 171.136719 182.355469 C 170.082031 182.355469 169.160156 182.097656 168.390625 181.585938 C 167.6875 181.125 167.164062 180.535156 166.832031 179.84375 L 178.789062 179.84375 C 178.859375 179.84375 178.925781 179.796875 178.945312 179.726562 C 179.121094 179.140625 179.210938 178.417969 179.210938 177.574219 C 179.210938 175.394531 178.398438 173.429688 176.800781 171.746094 C 175.199219 170.058594 173.164062 169.199219 170.75 169.199219 "/>
<path fill-rule="nonzero" fill="rgb(100%, 100%, 100%)" fill-opacity="1" d="M 190.847656 169.246094 C 190.640625 169.214844 190.226562 169.1875 189.585938 169.15625 L 189.578125 169.15625 C 188.722656 169.15625 187.941406 169.375 187.253906 169.804688 C 186.75 170.125 186.328125 170.542969 186 171.050781 L 186 169.839844 C 186 169.75 185.925781 169.671875 185.835938 169.671875 L 182.058594 169.671875 C 181.964844 169.671875 181.890625 169.75 181.890625 169.839844 L 181.890625 185.65625 C 181.890625 185.746094 181.964844 185.820312 182.058594 185.820312 L 185.835938 185.820312 C 185.925781 185.820312 186 185.746094 186 185.65625 L 186 176.285156 C 186 175.355469 186.324219 174.667969 186.988281 174.179688 C 187.890625 173.515625 189.097656 173.300781 190.394531 173.523438 C 190.476562 173.523438 190.546875 173.460938 190.558594 173.378906 L 190.988281 169.40625 C 190.988281 169.328125 190.925781 169.253906 190.847656 169.246094 "/>
<path fill-rule="nonzero" fill="rgb(100%, 100%, 100%)" fill-opacity="1" d="M 195.984375 162.667969 L 195.976562 162.667969 C 195.335938 162.699219 194.785156 162.9375 194.34375 163.378906 C 193.839844 163.882812 193.617188 164.519531 193.683594 165.273438 C 193.71875 165.722656 193.90625 166.15625 194.203125 166.492188 C 194.691406 167.050781 195.300781 167.335938 196.003906 167.335938 C 196.707031 167.335938 197.308594 167.054688 197.796875 166.503906 C 198.097656 166.167969 198.285156 165.734375 198.328125 165.285156 C 198.398438 164.527344 198.167969 163.878906 197.648438 163.359375 C 197.1875 162.898438 196.628906 162.667969 195.984375 162.667969 "/>
<path fill-rule="nonzero" fill="rgb(100%, 100%, 100%)" fill-opacity="1" d="M 197.914062 169.71875 L 194.09375 169.71875 C 194.003906 169.71875 193.929688 169.792969 193.929688 169.882812 L 193.929688 185.65625 C 193.929688 185.746094 194.003906 185.820312 194.09375 185.820312 L 197.914062 185.820312 C 198.003906 185.820312 198.082031 185.746094 198.082031 185.65625 L 198.082031 169.882812 C 198.082031 169.792969 198.003906 169.71875 197.914062 169.71875 "/>
<path fill-rule="nonzero" fill="rgb(100%, 100%, 100%)" fill-opacity="1" d="M 215.558594 172.46875 C 215.03125 171.445312 214.265625 170.628906 213.285156 170.039062 C 212.214844 169.402344 210.96875 169.109375 209.578125 169.164062 C 208.898438 169.191406 208.21875 169.359375 207.613281 169.65625 C 206.777344 170.0625 206.070312 170.59375 205.519531 171.226562 L 205.519531 169.882812 C 205.519531 169.789062 205.441406 169.71875 205.351562 169.71875 L 201.574219 169.71875 C 201.484375 169.71875 201.410156 169.789062 201.410156 169.882812 L 201.410156 185.65625 C 201.410156 185.746094 201.484375 185.820312 201.574219 185.820312 L 205.351562 185.820312 C 205.441406 185.820312 205.519531 185.746094 205.519531 185.65625 L 205.519531 176.457031 C 205.519531 175.945312 205.660156 175.445312 205.945312 174.972656 C 206.234375 174.496094 206.65625 174.085938 207.199219 173.761719 C 207.746094 173.433594 208.382812 173.265625 209.09375 173.265625 C 210.113281 173.265625 210.871094 173.589844 211.417969 174.261719 C 211.964844 174.929688 212.242188 175.886719 212.242188 177.101562 L 212.242188 185.65625 C 212.242188 185.746094 212.316406 185.820312 212.40625 185.820312 L 216.230469 185.820312 C 216.273438 185.820312 216.316406 185.800781 216.347656 185.769531 C 216.375 185.738281 216.394531 185.695312 216.394531 185.652344 L 216.351562 175.984375 C 216.351562 174.675781 216.085938 173.492188 215.558594 172.46875 "/>
<path fill-rule="nonzero" fill="rgb(100%, 100%, 100%)" fill-opacity="1" d="M 231.929688 177.769531 C 231.929688 179.164062 231.511719 180.289062 230.6875 181.113281 C 229.863281 181.9375 228.832031 182.355469 227.621094 182.355469 C 226.441406 182.355469 225.417969 181.902344 224.582031 181.007812 C 223.738281 180.113281 223.300781 179.015625 223.269531 177.75 C 223.300781 176.507812 223.738281 175.421875 224.582031 174.527344 C 225.421875 173.632812 226.441406 173.179688 227.621094 173.179688 C 228.832031 173.179688 229.863281 173.597656 230.6875 174.421875 C 231.511719 175.246094 231.929688 176.371094 231.929688 177.769531 Z M 235.875 169.71875 L 232.09375 169.71875 C 232.003906 169.71875 231.929688 169.792969 231.929688 169.882812 L 231.929688 171.191406 C 231.542969 170.703125 231.011719 170.269531 230.34375 169.90625 C 229.476562 169.4375 228.53125 169.199219 227.535156 169.199219 C 225.179688 169.199219 223.152344 170.027344 221.511719 171.65625 C 219.867188 173.285156 219.03125 175.339844 219.03125 177.769531 C 219.03125 180.195312 219.867188 182.257812 221.507812 183.902344 C 223.152344 185.542969 225.179688 186.378906 227.535156 186.378906 C 228.53125 186.378906 229.476562 186.140625 230.34375 185.671875 C 230.980469 185.324219 231.492188 184.917969 231.871094 184.460938 C 231.824219 184.792969 231.753906 185.109375 231.65625 185.414062 C 231.503906 185.898438 231.265625 186.390625 230.945312 186.878906 C 230.632812 187.351562 230.171875 187.726562 229.574219 188 C 228.96875 188.277344 228.222656 188.414062 227.363281 188.414062 C 225.890625 188.414062 224.464844 187.894531 223.140625 186.875 C 223.101562 186.839844 223.050781 186.820312 222.996094 186.828125 C 222.949219 186.835938 222.90625 186.867188 222.878906 186.90625 L 220.898438 190.265625 C 220.863281 190.339844 220.886719 190.433594 220.953125 190.476562 C 222.976562 191.863281 225.148438 192.566406 227.40625 192.566406 C 228.882812 192.566406 230.207031 192.320312 231.339844 191.824219 C 232.476562 191.328125 233.398438 190.644531 234.070312 189.796875 C 234.738281 188.953125 235.238281 188.019531 235.558594 187.015625 C 235.875 186.015625 236.039062 184.949219 236.039062 183.851562 L 236.039062 169.882812 C 236.039062 169.792969 235.964844 169.71875 235.875 169.71875 "/>
<path fill-rule="nonzero" fill="rgb(24.705505%, 41.175842%, 69.412231%)" fill-opacity="1" d="M 31.703125 102.582031 C 25.9375 102.472656 20.164062 104.210938 15.394531 107.449219 C 18.046875 107.363281 20.679688 108.714844 22.136719 110.929688 C 23.414062 112.8125 23.816406 115.277344 23.160156 117.464844 C 27.042969 115.101562 31.953125 114.519531 36.277344 115.9375 C 38.714844 116.726562 40.972656 118.101562 42.757812 119.949219 C 43.9375 121.148438 45.59375 121.878906 47.285156 121.847656 C 49.277344 121.882812 51.246094 120.882812 52.398438 119.261719 C 54.113281 116.984375 53.96875 113.542969 52.066406 111.421875 C 46.855469 105.878906 39.3125 102.597656 31.703125 102.582031 "/>
<path fill-rule="nonzero" fill="rgb(24.705505%, 41.175842%, 69.412231%)" fill-opacity="1" d="M 11.695312 120.433594 C 13.144531 121.554688 15.085938 122.003906 16.882812 121.644531 C 18.890625 121.273438 20.671875 119.871094 21.515625 118.015625 C 22.078125 116.820312 22.226562 115.457031 22.015625 114.160156 C 21.6875 112.210938 20.410156 110.449219 18.652344 109.550781 C 17.332031 108.851562 15.753906 108.625 14.296875 108.96875 C 12.75 109.367188 11.535156 110.511719 10.503906 111.679688 C 9.457031 112.847656 8.984375 114.472656 9.203125 116.023438 C 9.375 117.753906 10.316406 119.378906 11.695312 120.433594 "/>
<path fill-rule="nonzero" fill="rgb(100%, 91.764832%, 0%)" fill-opacity="1" d="M 10.390625 141.046875 C 12.347656 139.296875 15.207031 138.652344 17.726562 139.394531 C 15.96875 136.46875 15.152344 132.980469 15.503906 129.582031 C 15.738281 127.207031 16.519531 124.890625 17.757812 122.851562 C 15.425781 123.503906 12.8125 123.011719 10.898438 121.527344 C 8.878906 120.03125 7.75 117.523438 7.769531 115.03125 C 4.816406 119.363281 3.105469 124.507812 2.835938 129.742188 L 2.835938 132.496094 C 3.089844 137.699219 4.78125 142.816406 7.695312 147.140625 C 7.691406 144.847656 8.644531 142.554688 10.390625 141.046875 "/>
<path fill-rule="nonzero" fill="rgb(87.451172%, 26.274109%, 5.882263%)" fill-opacity="1" d="M 20.867188 150.59375 C 21.765625 149.269531 22.15625 147.605469 21.910156 146.019531 C 21.660156 144.183594 20.5625 142.496094 18.996094 141.507812 C 17.625 140.613281 15.898438 140.3125 14.292969 140.613281 C 13.035156 140.855469 11.84375 141.480469 10.949219 142.40625 C 9.488281 143.820312 8.804688 145.984375 9.160156 147.984375 C 9.414062 149.347656 10.296875 150.484375 11.265625 151.429688 C 12.054688 152.261719 13.019531 152.976562 14.152344 153.25 C 16.660156 153.851562 19.441406 152.742188 20.867188 150.59375 "/>
<path fill-rule="nonzero" fill="rgb(87.451172%, 26.274109%, 5.882263%)" fill-opacity="1" d="M 48.691406 140.863281 C 47.09375 140.441406 45.332031 140.664062 43.90625 141.503906 C 43.257812 141.875 42.710938 142.382812 42.1875 142.90625 C 39.632812 145.277344 36.273438 146.753906 32.800781 147.054688 C 29.4375 147.363281 25.980469 146.550781 23.101562 144.777344 C 23.867188 147.40625 23.132812 150.402344 21.207031 152.351562 C 19.699219 153.949219 17.488281 154.84375 15.296875 154.761719 C 22.015625 159.4375 30.804688 160.90625 38.703125 158.792969 C 43.558594 157.523438 48.066406 154.941406 51.59375 151.371094 C 53.214844 149.78125 53.792969 147.269531 53.125 145.117188 C 52.519531 143.054688 50.773438 141.382812 48.691406 140.863281 "/>
<path fill-rule="nonzero" fill="rgb(100%, 100%, 100%)" fill-opacity="1" d="M 242.808594 107.269531 C 241.738281 106.492188 240.371094 106.871094 239.148438 106.78125 C 236.523438 106.660156 233.789062 107.617188 232.058594 109.648438 C 230.472656 111.15625 229.65625 113.320312 229.496094 115.46875 C 229.515625 124.351562 229.5 133.238281 229.503906 142.121094 C 229.457031 142.855469 229.851562 143.574219 230.453125 143.984375 C 231.386719 144.550781 232.519531 144.359375 233.5625 144.382812 C 234.371094 144.398438 235.238281 144.121094 235.75 143.460938 C 236.058594 142.933594 236.128906 142.300781 236.140625 141.699219 C 236.136719 135.808594 236.140625 129.914062 236.136719 124.023438 C 237.617188 124.015625 239.101562 124.027344 240.582031 124.023438 C 241.355469 124.054688 242.097656 123.578125 242.476562 122.917969 C 242.960938 122.035156 242.886719 120.984375 242.804688 120.019531 C 242.6875 118.925781 241.722656 118.015625 240.625 117.972656 C 239.117188 117.925781 237.605469 117.976562 236.101562 117.953125 C 235.96875 116.207031 236.277344 113.976562 238.011719 113.101562 C 239.34375 112.328125 240.949219 113 242.34375 112.476562 C 243.230469 112.074219 243.683594 111.070312 243.679688 110.128906 C 243.726562 109.132812 243.675781 107.929688 242.808594 107.269531 "/>
<path fill-rule="nonzero" fill="rgb(100%, 100%, 100%)" fill-opacity="1" d="M 280.625 140.664062 C 280.613281 131.644531 280.632812 122.625 280.617188 113.609375 C 280.628906 112.457031 279.769531 111.226562 278.546875 111.207031 C 277.546875 111.195312 276.539062 111.144531 275.542969 111.242188 C 274.496094 111.480469 273.820312 112.566406 273.863281 113.605469 C 273.859375 123.039062 273.863281 132.472656 273.859375 141.90625 C 273.867188 142.585938 274.058594 143.34375 274.648438 143.75 C 275.558594 144.519531 276.828125 144.265625 277.925781 144.355469 C 278.792969 144.445312 279.6875 144.0625 280.21875 143.371094 C 280.722656 142.558594 280.621094 141.574219 280.625 140.664062 "/>
<path fill-rule="nonzero" fill="rgb(100%, 100%, 100%)" fill-opacity="1" d="M 155.734375 120.222656 C 155.867188 118.980469 154.679688 117.980469 153.503906 117.96875 C 151.921875 117.933594 150.34375 117.972656 148.765625 117.957031 C 148.75 116.441406 148.796875 114.929688 148.75 113.414062 C 148.753906 112.660156 148.355469 111.929688 147.683594 111.570312 C 147.082031 111.136719 146.308594 111.300781 145.621094 111.269531 C 144.808594 111.308594 143.894531 111.109375 143.199219 111.636719 C 142.441406 112.085938 142.179688 113 142.210938 113.832031 C 142.21875 119.75 142.210938 125.664062 142.214844 131.582031 C 142.230469 133.6875 142.105469 135.808594 142.480469 137.886719 C 142.910156 140.109375 144.25 142.269531 146.347656 143.242188 C 148.511719 144.175781 150.914062 144.191406 153.230469 144.101562 C 154.15625 144.007812 154.949219 143.242188 155.0625 142.316406 C 155.183594 141.089844 155.304688 139.542969 154.195312 138.710938 C 153.476562 138.082031 152.472656 138.359375 151.609375 138.273438 C 150.402344 138.253906 149.15625 137.378906 148.972656 136.140625 C 148.769531 135.183594 148.816406 134.203125 148.816406 133.230469 C 148.820312 130.117188 148.816406 127.003906 148.820312 123.890625 C 150.304688 123.890625 151.792969 123.894531 153.273438 123.894531 C 154.015625 123.914062 154.800781 123.667969 155.269531 123.070312 C 155.960938 122.289062 155.6875 121.171875 155.734375 120.222656 "/>
<path fill-rule="nonzero" fill="rgb(100%, 100%, 100%)" fill-opacity="1" d="M 224.707031 117.960938 C 223.148438 117.945312 221.59375 117.96875 220.039062 117.957031 C 220.027344 116.363281 219.964844 114.773438 219.90625 113.183594 C 219.890625 112.566406 219.507812 112.019531 219.023438 111.667969 C 218.15625 111.007812 217.007812 111.359375 216.003906 111.265625 C 215.144531 111.171875 214.242188 111.503906 213.761719 112.242188 C 213.234375 113.089844 213.394531 114.121094 213.378906 115.066406 C 213.378906 121.738281 213.378906 128.414062 213.378906 135.085938 C 213.410156 136.183594 213.539062 137.285156 213.792969 138.351562 C 214.351562 140.484375 215.742188 142.539062 217.828125 143.414062 C 219.863281 144.308594 222.113281 144.125 224.28125 144.117188 C 225.34375 144.105469 226.265625 143.183594 226.316406 142.128906 C 226.371094 140.988281 226.503906 139.601562 225.523438 138.789062 C 224.796875 138.085938 223.742188 138.347656 222.839844 138.273438 C 221.628906 138.261719 220.390625 137.371094 220.199219 136.136719 C 219.984375 135.046875 220.039062 133.933594 220.035156 132.832031 C 220.039062 129.851562 220.035156 126.875 220.039062 123.894531 C 221.652344 123.878906 223.273438 123.914062 224.890625 123.886719 C 225.910156 123.886719 226.988281 123.164062 227.03125 122.074219 C 227.066406 121.195312 227.117188 120.296875 226.972656 119.421875 C 226.699219 118.457031 225.648438 117.960938 224.707031 117.960938 "/>
<path fill-rule="nonzero" fill="rgb(100%, 100%, 100%)" fill-opacity="1" d="M 163.082031 127.910156 C 163.859375 125.511719 166.039062 123.625 168.53125 123.230469 C 169.695312 123.160156 170.882812 123.023438 172.035156 123.261719 C 173.316406 123.605469 174.417969 124.449219 175.238281 125.472656 C 175.816406 126.167969 175.96875 127.082031 176.257812 127.914062 C 171.867188 127.917969 167.472656 127.925781 163.082031 127.910156 Z M 181.332031 123.898438 C 180.683594 122.402344 179.589844 121.152344 178.4375 120.019531 C 176.832031 118.738281 174.871094 117.902344 172.859375 117.492188 C 170.816406 117.183594 168.714844 117.011719 166.660156 117.363281 C 164.867188 117.601562 163.1875 118.382812 161.648438 119.316406 C 158.554688 121.382812 156.445312 124.828125 155.878906 128.496094 C 155.707031 129.925781 155.773438 131.367188 155.835938 132.800781 C 156.164062 136.5625 157.925781 140.339844 161.066406 142.546875 C 162.121094 143.429688 163.4375 143.871094 164.707031 144.34375 C 169.8125 145.996094 175.707031 145.054688 179.988281 141.800781 C 180.335938 141.53125 180.761719 141.195312 180.683594 140.695312 C 180.550781 139.984375 179.964844 139.492188 179.519531 138.96875 C 178.835938 138.265625 178.28125 137.378906 177.371094 136.941406 C 176.792969 136.707031 176.21875 137.058594 175.703125 137.292969 C 174.179688 138.066406 172.53125 138.660156 170.8125 138.746094 C 169.710938 138.8125 168.574219 138.925781 167.496094 138.617188 C 166.5625 138.316406 165.6875 137.835938 164.914062 137.230469 C 163.886719 136.28125 163.164062 135.039062 162.742188 133.710938 C 168.800781 133.664062 174.859375 133.769531 180.914062 133.746094 C 181.558594 133.765625 182.433594 133.550781 182.550781 132.796875 C 182.882812 131.375 182.640625 129.90625 182.523438 128.472656 C 182.402344 126.890625 181.882812 125.371094 181.332031 123.898438 "/>
<path fill-rule="nonzero" fill="rgb(100%, 100%, 100%)" fill-opacity="1" d="M 80.882812 136.644531 C 80.425781 136.289062 79.804688 136.484375 79.394531 136.804688 C 78.457031 137.5 77.445312 138.128906 76.3125 138.433594 C 74.730469 138.957031 72.984375 138.6875 71.515625 137.960938 C 69.605469 137.050781 68.394531 135.078125 67.96875 133.058594 C 67.449219 130.992188 67.875 128.75 68.921875 126.914062 C 69.769531 125.40625 71.253906 124.253906 72.949219 123.882812 C 74.65625 123.4375 76.476562 123.839844 78.019531 124.621094 C 78.667969 124.929688 79.203125 125.589844 79.972656 125.550781 C 80.667969 125.542969 81.113281 124.929688 81.554688 124.476562 C 82.183594 123.734375 82.933594 123.101562 83.5 122.308594 C 83.878906 121.785156 83.78125 121.023438 83.347656 120.566406 C 82.269531 119.40625 80.761719 118.816406 79.335938 118.207031 C 77.410156 117.414062 75.296875 117.292969 73.238281 117.4375 C 69.796875 117.8125 66.304688 119.359375 64.203125 122.195312 C 61.023438 125.949219 60.546875 131.4375 62.132812 135.984375 C 63.34375 138.980469 65.550781 141.570312 68.351562 143.199219 C 70.363281 144.1875 72.5625 144.878906 74.820312 144.878906 C 77.195312 144.933594 79.53125 144.222656 81.632812 143.144531 C 82.558594 142.511719 83.601562 141.949219 84.292969 141.039062 C 84.640625 140.210938 83.828125 139.507812 83.308594 138.96875 C 82.4375 138.257812 81.78125 137.320312 80.882812 136.644531 "/>
<path fill-rule="nonzero" fill="rgb(100%, 100%, 100%)" fill-opacity="1" d="M 103.699219 135.6875 C 102.554688 137.398438 100.597656 138.519531 98.546875 138.675781 C 96.796875 138.820312 95.078125 138.078125 93.71875 137.019531 C 92.53125 135.863281 91.648438 134.347656 91.417969 132.691406 C 91.152344 130.722656 91.324219 128.59375 92.414062 126.878906 C 93.296875 125.332031 94.863281 124.269531 96.558594 123.792969 C 100.253906 122.824219 104.316406 125.785156 104.726562 129.539062 C 105.042969 131.609375 104.945312 133.917969 103.699219 135.6875 Z M 102.503906 118.128906 C 100.546875 117.359375 98.417969 117.316406 96.34375 117.421875 C 92.964844 117.710938 89.675781 119.367188 87.535156 122.019531 C 85.699219 124.226562 84.484375 127.03125 84.46875 129.929688 C 84.464844 131.425781 84.402344 132.949219 84.777344 134.414062 C 85.566406 137.601562 87.484375 140.523438 90.164062 142.4375 C 91.15625 143.285156 92.398438 143.714844 93.59375 144.1875 C 98.464844 145.957031 104.265625 144.378906 107.671875 140.503906 C 108.925781 139.046875 110.039062 137.390625 110.53125 135.511719 C 111.398438 132.863281 111.503906 129.953125 110.777344 127.257812 C 109.792969 123.085938 106.5625 119.523438 102.503906 118.128906 "/>
<path fill-rule="nonzero" fill="rgb(100%, 100%, 100%)" fill-opacity="1" d="M 137.167969 122.90625 C 136.261719 121.390625 135.15625 119.90625 133.570312 119.046875 C 131.828125 117.933594 129.726562 117.410156 127.671875 117.472656 C 124.6875 117.628906 121.785156 118.972656 119.726562 121.136719 C 119.730469 120.238281 119.761719 119.210938 119.015625 118.5625 C 118.246094 117.640625 116.949219 117.949219 115.902344 117.902344 C 114.691406 117.75 113.421875 118.769531 113.46875 120.015625 C 113.464844 127.386719 113.464844 134.753906 113.46875 142.125 C 113.449219 142.699219 113.667969 143.285156 114.125 143.648438 C 115.109375 144.539062 116.554688 144.144531 117.757812 144.222656 C 118.941406 144.3125 120.019531 143.289062 120.035156 142.113281 C 120.066406 138.113281 120.039062 134.117188 120.046875 130.121094 C 120.011719 128.398438 120.867188 126.773438 122.023438 125.546875 C 123.226562 124.46875 124.789062 123.746094 126.417969 123.699219 C 128.128906 123.746094 129.828125 124.527344 130.921875 125.855469 C 132.003906 127.164062 132.5 128.910156 132.320312 130.59375 C 132.277344 134.296875 132.320312 138 132.296875 141.707031 C 132.277344 142.445312 132.40625 143.273438 133.011719 143.773438 C 133.851562 144.550781 135.082031 144.363281 136.132812 144.386719 C 137.09375 144.4375 138.199219 144.136719 138.710938 143.253906 C 139.023438 142.507812 138.917969 141.667969 138.9375 140.878906 C 138.917969 137.09375 138.972656 133.304688 138.910156 129.523438 C 138.890625 127.210938 138.28125 124.925781 137.167969 122.90625 "/>
<path fill-rule="nonzero" fill="rgb(100%, 100%, 100%)" fill-opacity="1" d="M 209.835938 125.953125 C 209.234375 123.851562 208.148438 121.890625 206.648438 120.300781 C 204.542969 118.316406 201.578125 117.273438 198.695312 117.492188 C 195.789062 117.753906 192.984375 119.101562 191.035156 121.28125 C 190.996094 120.453125 191.191406 119.480469 190.585938 118.804688 C 190.199219 118.3125 189.632812 117.894531 188.980469 117.914062 C 188.152344 117.902344 187.320312 117.859375 186.496094 117.953125 C 185.507812 118.214844 184.714844 119.179688 184.785156 120.222656 C 184.796875 127.519531 184.777344 134.820312 184.792969 142.117188 C 184.78125 143.160156 185.660156 144.121094 186.703125 144.191406 C 187.597656 144.257812 188.492188 144.242188 189.390625 144.210938 C 190.472656 144.199219 191.484375 143.210938 191.394531 142.105469 C 191.394531 138.1875 191.394531 134.265625 191.390625 130.347656 C 191.394531 129.148438 191.769531 127.96875 192.371094 126.945312 C 193.753906 124.464844 197.035156 123.019531 199.746094 124.066406 C 201.84375 124.773438 203.371094 126.753906 203.707031 128.914062 C 203.804688 129.730469 203.695312 130.554688 203.703125 131.371094 C 203.699219 134.820312 203.707031 138.265625 203.699219 141.710938 C 203.707031 142.277344 203.703125 142.890625 204.066406 143.359375 C 204.515625 144.125 205.457031 144.402344 206.296875 144.382812 C 207.375 144.355469 208.582031 144.566406 209.519531 143.894531 C 210.164062 143.460938 210.339844 142.628906 210.339844 141.898438 C 210.332031 139.628906 210.335938 137.363281 210.335938 135.09375 C 210.300781 132.042969 210.523438 128.953125 209.835938 125.953125 "/>
<path fill-rule="nonzero" fill="rgb(100%, 100%, 100%)" fill-opacity="1" d="M 270.347656 120.222656 C 270.390625 119.253906 269.761719 118.28125 268.832031 117.988281 C 267.886719 117.820312 266.917969 117.933594 265.964844 117.90625 C 264.714844 117.800781 263.652344 119 263.746094 120.210938 C 263.746094 124.074219 263.742188 127.9375 263.75 131.796875 C 263.753906 134.816406 261.546875 137.761719 258.542969 138.351562 C 256.609375 138.847656 254.527344 138.148438 253.085938 136.824219 C 252.109375 135.652344 251.328125 134.191406 251.367188 132.628906 C 251.414062 128.496094 251.371094 124.359375 251.390625 120.226562 C 251.492188 118.980469 250.296875 117.785156 249.050781 117.90625 C 248.148438 117.925781 247.242188 117.839844 246.347656 117.964844 C 245.472656 118.238281 244.691406 119.046875 244.71875 120.007812 C 244.675781 122.558594 244.714844 125.109375 244.703125 127.660156 C 244.71875 129.796875 244.648438 131.9375 244.8125 134.070312 C 245.074219 136.3125 245.804688 138.511719 247.019531 140.417969 C 248.425781 142.621094 250.777344 144.160156 253.355469 144.574219 C 255.960938 145.144531 258.691406 144.550781 261.042969 143.371094 C 262.210938 142.730469 263.183594 141.816406 264.144531 140.898438 C 264.246094 141.875 263.984375 143.144531 264.910156 143.808594 C 265.847656 144.5625 267.140625 144.390625 268.265625 144.359375 C 269.179688 144.3125 270.101562 143.675781 270.269531 142.742188 C 270.417969 141.847656 270.332031 140.9375 270.351562 140.039062 C 270.347656 133.429688 270.355469 126.824219 270.347656 120.222656 "/>
</svg>
