<?xml version="1.0" encoding="UTF-8"?>
<!-- CMYK_PDF_CONVERTED -->
<svg data-vectorized-cmyk="true" data-original-cmyk-pdf="true" xmlns="http://www.w3.org/2000/svg" xmlns:xlink="http://www.w3.org/1999/xlink" width="816" height="154.699219" viewBox="10 64.726562 816 154.699219">
<path fill-rule="nonzero" fill="rgb(100%, 100%, 100%)" fill-opacity="1" d="M 826 178.515625 L 10 178.515625 L 10 183.398438 L 89.898438 183.398438 C 86.074219 186.65625 83.472656 191.285156 82.847656 196.53125 L 10 196.53125 L 10 201.414062 L 82.847656 201.414062 C 83.472656 206.660156 86.074219 211.289062 89.898438 214.546875 L 10 214.546875 L 10 219.425781 L 826 219.425781 L 826 214.546875 L 746.101562 214.546875 C 749.925781 211.289062 752.53125 206.660156 753.15625 201.414062 L 826 201.414062 L 826 196.53125 L 753.15625 196.53125 C 752.53125 191.285156 749.925781 186.65625 746.101562 183.398438 L 826 183.398438 Z M 826 178.515625 "/>
<path fill-rule="nonzero" fill="rgb(6.47583%, 5.92804%, 5.235291%)" fill-opacity="1" d="M 121.199219 185.316406 L 136.792969 185.316406 C 138.699219 185.316406 140.320312 185.988281 141.667969 187.332031 C 143.011719 188.675781 143.6875 190.300781 143.6875 192.207031 L 143.6875 194.9375 L 137.128906 194.9375 L 137.128906 193.550781 C 137.128906 192.878906 136.894531 192.308594 136.4375 191.847656 C 135.972656 191.386719 135.40625 191.15625 134.730469 191.15625 L 123.261719 191.15625 C 122.585938 191.15625 122.019531 191.386719 121.558594 191.847656 C 121.097656 192.308594 120.863281 192.878906 120.863281 193.550781 L 120.863281 204.390625 C 120.863281 205.066406 121.097656 205.632812 121.558594 206.09375 C 122.019531 206.558594 122.585938 206.789062 123.261719 206.789062 L 134.730469 206.789062 C 135.40625 206.789062 135.972656 206.558594 136.4375 206.09375 C 136.894531 205.632812 137.128906 205.066406 137.128906 204.390625 L 137.128906 203.003906 L 143.6875 203.003906 L 143.6875 205.738281 C 143.6875 207.644531 143.011719 209.269531 141.667969 210.613281 C 140.320312 211.957031 138.699219 212.628906 136.792969 212.628906 L 121.199219 212.628906 C 119.292969 212.628906 117.671875 211.957031 116.324219 210.613281 C 114.980469 209.269531 114.308594 207.644531 114.308594 205.738281 L 114.308594 192.207031 C 114.308594 190.300781 114.980469 188.675781 116.324219 187.332031 C 117.671875 185.988281 119.292969 185.316406 121.199219 185.316406 "/>
<path fill-rule="nonzero" fill="rgb(6.47583%, 5.92804%, 5.235291%)" fill-opacity="1" d="M 156.964844 191.15625 C 156.289062 191.15625 155.722656 191.386719 155.261719 191.847656 C 154.800781 192.308594 154.566406 192.878906 154.566406 193.550781 L 154.566406 204.390625 C 154.566406 205.066406 154.800781 205.632812 155.261719 206.09375 C 155.722656 206.558594 156.289062 206.789062 156.964844 206.789062 L 168.4375 206.789062 C 169.109375 206.789062 169.675781 206.558594 170.136719 206.09375 C 170.597656 205.632812 170.832031 205.066406 170.832031 204.390625 L 170.832031 193.550781 C 170.832031 192.878906 170.597656 192.308594 170.136719 191.847656 C 169.675781 191.386719 169.109375 191.15625 168.4375 191.15625 Z M 154.902344 185.316406 L 170.496094 185.316406 C 172.398438 185.316406 174.023438 185.988281 175.371094 187.332031 C 176.714844 188.675781 177.386719 190.300781 177.386719 192.207031 L 177.386719 205.738281 C 177.386719 207.644531 176.714844 209.269531 175.371094 210.613281 C 174.023438 211.957031 172.398438 212.628906 170.496094 212.628906 L 154.902344 212.628906 C 152.996094 212.628906 151.375 211.957031 150.027344 210.613281 C 148.683594 209.269531 148.011719 207.644531 148.011719 205.738281 L 148.011719 192.207031 C 148.011719 190.300781 148.683594 188.675781 150.027344 187.332031 C 151.375 185.988281 152.996094 185.316406 154.902344 185.316406 "/>
<path fill-rule="nonzero" fill="rgb(6.47583%, 5.92804%, 5.235291%)" fill-opacity="1" d="M 181.714844 185.316406 L 188.984375 185.316406 L 204.535156 204.308594 L 204.535156 185.316406 L 211.089844 185.316406 L 211.089844 212.628906 L 203.820312 212.628906 L 188.269531 193.632812 L 188.269531 212.628906 L 181.714844 212.628906 Z M 181.714844 185.316406 "/>
<path fill-rule="nonzero" fill="rgb(6.47583%, 5.92804%, 5.235291%)" fill-opacity="1" d="M 215.417969 185.316406 L 244.792969 185.316406 L 244.792969 190.90625 L 233.40625 190.90625 L 233.40625 212.628906 L 226.847656 212.628906 L 226.847656 190.90625 L 215.417969 190.90625 Z M 215.417969 185.316406 "/>
<path fill-rule="nonzero" fill="rgb(6.47583%, 5.92804%, 5.235291%)" fill-opacity="1" d="M 255.679688 191.15625 L 255.679688 197.964844 L 269.546875 197.964844 C 270.21875 197.964844 270.789062 197.730469 271.25 197.273438 C 271.710938 196.808594 271.941406 196.242188 271.941406 195.570312 L 271.941406 193.550781 C 271.941406 192.878906 271.710938 192.308594 271.25 191.847656 C 270.789062 191.386719 270.21875 191.15625 269.546875 191.15625 Z M 249.125 185.316406 L 271.609375 185.316406 C 273.511719 185.316406 275.136719 185.988281 276.480469 187.332031 C 277.828125 188.675781 278.5 190.300781 278.5 192.207031 L 278.5 196.910156 C 278.5 198.511719 278.015625 199.925781 277.050781 201.160156 C 276.082031 202.390625 274.84375 203.1875 273.328125 203.554688 L 279.464844 212.628906 L 272.027344 212.628906 L 266.058594 203.804688 L 255.679688 203.804688 L 255.679688 212.628906 L 249.125 212.628906 Z M 249.125 185.316406 "/>
<path fill-rule="nonzero" fill="rgb(6.47583%, 5.92804%, 5.235291%)" fill-opacity="1" d="M 300.855469 191.449219 L 295.140625 202.292969 L 306.570312 202.292969 Z M 297.574219 185.316406 L 304.132812 185.316406 L 319.175781 212.628906 L 312.074219 212.628906 L 309.175781 207.125 L 292.535156 207.125 L 289.636719 212.628906 L 282.53125 212.628906 Z M 297.574219 185.316406 "/>
<path fill-rule="nonzero" fill="rgb(6.47583%, 5.92804%, 5.235291%)" fill-opacity="1" d="M 328.167969 185.316406 L 343.761719 185.316406 C 345.667969 185.316406 347.289062 185.988281 348.636719 187.332031 C 349.980469 188.675781 350.65625 190.300781 350.65625 192.207031 L 350.65625 194.9375 L 344.097656 194.9375 L 344.097656 193.550781 C 344.097656 192.878906 343.867188 192.308594 343.40625 191.847656 C 342.941406 191.386719 342.375 191.15625 341.703125 191.15625 L 330.230469 191.15625 C 329.554688 191.15625 328.988281 191.386719 328.527344 191.847656 C 328.066406 192.308594 327.832031 192.878906 327.832031 193.550781 L 327.832031 204.390625 C 327.832031 205.066406 328.066406 205.632812 328.527344 206.09375 C 328.988281 206.558594 329.554688 206.789062 330.230469 206.789062 L 341.703125 206.789062 C 342.375 206.789062 342.941406 206.558594 343.40625 206.09375 C 343.867188 205.632812 344.097656 205.066406 344.097656 204.390625 L 344.097656 203.003906 L 350.65625 203.003906 L 350.65625 205.738281 C 350.65625 207.644531 349.980469 209.269531 348.636719 210.613281 C 347.289062 211.957031 345.667969 212.628906 343.761719 212.628906 L 328.167969 212.628906 C 326.265625 212.628906 324.640625 211.957031 323.296875 210.613281 C 321.949219 209.269531 321.28125 207.644531 321.28125 205.738281 L 321.28125 192.207031 C 321.28125 190.300781 321.949219 188.675781 323.296875 187.332031 C 324.640625 185.988281 326.265625 185.316406 328.167969 185.316406 "/>
<path fill-rule="nonzero" fill="rgb(6.47583%, 5.92804%, 5.235291%)" fill-opacity="1" d="M 354.140625 185.316406 L 383.515625 185.316406 L 383.515625 190.90625 L 372.128906 190.90625 L 372.128906 212.628906 L 365.570312 212.628906 L 365.570312 190.90625 L 354.140625 190.90625 Z M 354.140625 185.316406 "/>
<path fill-rule="nonzero" fill="rgb(6.47583%, 5.92804%, 5.235291%)" fill-opacity="1" d="M 387.847656 185.316406 L 394.402344 185.316406 L 394.402344 212.628906 L 387.847656 212.628906 Z M 387.847656 185.316406 "/>
<path fill-rule="nonzero" fill="rgb(6.47583%, 5.92804%, 5.235291%)" fill-opacity="1" d="M 398.773438 185.316406 L 406.039062 185.316406 L 421.59375 204.308594 L 421.59375 185.316406 L 428.148438 185.316406 L 428.148438 212.628906 L 420.878906 212.628906 L 405.328125 193.632812 L 405.328125 212.628906 L 398.773438 212.628906 Z M 398.773438 185.316406 "/>
<path fill-rule="nonzero" fill="rgb(6.47583%, 5.92804%, 5.235291%)" fill-opacity="1" d="M 439.367188 185.316406 L 454.960938 185.316406 C 456.863281 185.316406 458.488281 185.988281 459.832031 187.332031 C 461.179688 188.675781 461.851562 190.300781 461.851562 192.207031 L 461.851562 194.769531 L 455.296875 194.769531 L 455.296875 193.550781 C 455.296875 192.878906 455.0625 192.308594 454.601562 191.847656 C 454.140625 191.386719 453.574219 191.15625 452.898438 191.15625 L 441.425781 191.15625 C 440.753906 191.15625 440.183594 191.386719 439.722656 191.847656 C 439.261719 192.308594 439.03125 192.878906 439.03125 193.550781 L 439.03125 204.390625 C 439.03125 205.066406 439.261719 205.632812 439.722656 206.09375 C 440.183594 206.558594 440.753906 206.789062 441.425781 206.789062 L 452.898438 206.789062 C 453.574219 206.789062 454.140625 206.558594 454.601562 206.09375 C 455.0625 205.632812 455.296875 205.066406 455.296875 204.390625 L 455.296875 201.742188 L 443.695312 201.742188 L 443.695312 197.039062 L 461.851562 197.039062 L 461.851562 205.738281 C 461.851562 207.644531 461.179688 209.269531 459.832031 210.613281 C 458.488281 211.957031 456.863281 212.628906 454.960938 212.628906 L 439.367188 212.628906 C 437.460938 212.628906 435.839844 211.957031 434.492188 210.613281 C 433.148438 209.269531 432.476562 207.644531 432.476562 205.738281 L 432.476562 192.207031 C 432.476562 190.300781 433.148438 188.675781 434.492188 187.332031 C 435.839844 185.988281 437.460938 185.316406 439.367188 185.316406 "/>
<path fill-rule="nonzero" fill="rgb(6.47583%, 5.92804%, 5.235291%)" fill-opacity="1" d="M 489.878906 185.316406 L 505.222656 185.316406 C 507.125 185.316406 508.75 185.988281 510.09375 187.332031 C 511.441406 188.675781 512.113281 190.300781 512.113281 192.207031 L 512.113281 194.433594 L 505.558594 194.433594 L 505.558594 193.550781 C 505.527344 192.878906 505.285156 192.308594 504.820312 191.847656 C 504.359375 191.386719 503.804688 191.15625 503.160156 191.15625 L 491.773438 191.15625 C 491.128906 191.15625 490.597656 191.34375 490.175781 191.722656 C 489.753906 192.101562 489.542969 192.597656 489.542969 193.214844 L 489.542969 193.886719 C 489.542969 194.449219 490.117188 194.894531 491.265625 195.230469 C 492.414062 195.570312 493.847656 195.808594 495.554688 195.949219 C 497.261719 196.089844 499.121094 196.292969 501.121094 196.578125 C 503.125 196.855469 504.984375 197.199219 506.691406 197.605469 C 508.402344 198.011719 509.828125 198.675781 510.976562 199.605469 C 512.125 200.527344 512.699219 201.664062 512.699219 203.003906 L 512.699219 205.738281 C 512.699219 207.644531 512.027344 209.269531 510.683594 210.613281 C 509.339844 211.957031 507.714844 212.628906 505.808594 212.628906 L 489.878906 212.628906 C 487.976562 212.628906 486.351562 211.957031 485.007812 210.613281 C 483.660156 209.269531 482.992188 207.644531 482.992188 205.738281 L 482.992188 203.507812 L 489.542969 203.507812 L 489.542969 204.390625 C 489.542969 205.066406 489.777344 205.632812 490.238281 206.09375 C 490.699219 206.558594 491.265625 206.789062 491.941406 206.789062 L 503.917969 206.789062 C 504.5625 206.789062 505.09375 206.597656 505.511719 206.21875 C 505.933594 205.84375 506.144531 205.347656 506.144531 204.726562 L 506.144531 204.058594 C 506.144531 203.554688 505.714844 203.148438 504.863281 202.835938 C 504.007812 202.53125 502.902344 202.292969 501.542969 202.121094 C 500.183594 201.957031 498.683594 201.804688 497.046875 201.664062 C 495.40625 201.523438 493.761719 201.300781 492.109375 201.007812 C 490.453125 200.71875 488.949219 200.351562 487.589844 199.914062 C 486.234375 199.484375 485.125 198.839844 484.269531 197.980469 C 483.417969 197.132812 482.992188 196.113281 482.992188 194.9375 L 482.992188 192.207031 C 482.992188 190.300781 483.660156 188.675781 485.007812 187.332031 C 486.351562 185.988281 487.976562 185.316406 489.878906 185.316406 "/>
<path fill-rule="nonzero" fill="rgb(6.47583%, 5.92804%, 5.235291%)" fill-opacity="1" d="M 517.027344 185.316406 L 542.410156 185.316406 L 542.410156 190.90625 L 523.582031 190.90625 L 523.582031 196.15625 L 541.402344 196.15625 L 541.402344 201.742188 L 523.582031 201.742188 L 523.582031 207.039062 L 542.410156 207.039062 L 542.410156 212.628906 L 517.027344 212.628906 Z M 517.027344 185.316406 "/>
<path fill-rule="nonzero" fill="rgb(6.47583%, 5.92804%, 5.235291%)" fill-opacity="1" d="M 553.335938 191.15625 L 553.335938 197.964844 L 567.207031 197.964844 C 567.878906 197.964844 568.445312 197.730469 568.90625 197.273438 C 569.371094 196.808594 569.601562 196.242188 569.601562 195.570312 L 569.601562 193.550781 C 569.601562 192.878906 569.371094 192.308594 568.90625 191.847656 C 568.445312 191.386719 567.878906 191.15625 567.207031 191.15625 Z M 546.78125 185.316406 L 569.265625 185.316406 C 571.171875 185.316406 572.792969 185.988281 574.140625 187.332031 C 575.484375 188.675781 576.15625 190.300781 576.15625 192.207031 L 576.15625 196.910156 C 576.15625 198.511719 575.675781 199.925781 574.707031 201.160156 C 573.738281 202.390625 572.503906 203.1875 570.988281 203.554688 L 577.125 212.628906 L 569.683594 212.628906 L 563.71875 203.804688 L 553.335938 203.804688 L 553.335938 212.628906 L 546.78125 212.628906 Z M 546.78125 185.316406 "/>
<path fill-rule="nonzero" fill="rgb(6.47583%, 5.92804%, 5.235291%)" fill-opacity="1" d="M 577.460938 185.316406 L 584.5625 185.316406 L 595.78125 206.496094 L 607.003906 185.316406 L 614.109375 185.316406 L 599.058594 212.628906 L 592.503906 212.628906 Z M 577.460938 185.316406 "/>
<path fill-rule="nonzero" fill="rgb(6.47583%, 5.92804%, 5.235291%)" fill-opacity="1" d="M 617.589844 185.316406 L 624.148438 185.316406 L 624.148438 212.628906 L 617.589844 212.628906 Z M 617.589844 185.316406 "/>
<path fill-rule="nonzero" fill="rgb(6.47583%, 5.92804%, 5.235291%)" fill-opacity="1" d="M 635.414062 185.316406 L 651.007812 185.316406 C 652.910156 185.316406 654.535156 185.988281 655.878906 187.332031 C 657.226562 188.675781 657.898438 190.300781 657.898438 192.207031 L 657.898438 194.9375 L 651.339844 194.9375 L 651.339844 193.550781 C 651.339844 192.878906 651.109375 192.308594 650.648438 191.847656 C 650.1875 191.386719 649.617188 191.15625 648.949219 191.15625 L 637.472656 191.15625 C 636.800781 191.15625 636.234375 191.386719 635.769531 191.847656 C 635.304688 192.308594 635.078125 192.878906 635.078125 193.550781 L 635.078125 204.390625 C 635.078125 205.066406 635.304688 205.632812 635.769531 206.09375 C 636.234375 206.558594 636.800781 206.789062 637.472656 206.789062 L 648.949219 206.789062 C 649.617188 206.789062 650.1875 206.558594 650.648438 206.09375 C 651.109375 205.632812 651.339844 205.066406 651.339844 204.390625 L 651.339844 203.003906 L 657.898438 203.003906 L 657.898438 205.738281 C 657.898438 207.644531 657.226562 209.269531 655.878906 210.613281 C 654.535156 211.957031 652.910156 212.628906 651.007812 212.628906 L 635.414062 212.628906 C 633.511719 212.628906 631.882812 211.957031 630.539062 210.613281 C 629.195312 209.269531 628.519531 207.644531 628.519531 205.738281 L 628.519531 192.207031 C 628.519531 190.300781 629.195312 188.675781 630.539062 187.332031 C 631.882812 185.988281 633.511719 185.316406 635.414062 185.316406 "/>
<path fill-rule="nonzero" fill="rgb(6.47583%, 5.92804%, 5.235291%)" fill-opacity="1" d="M 662.222656 185.316406 L 687.609375 185.316406 L 687.609375 190.90625 L 668.78125 190.90625 L 668.78125 196.15625 L 686.601562 196.15625 L 686.601562 201.742188 L 668.78125 201.742188 L 668.78125 207.039062 L 687.609375 207.039062 L 687.609375 212.628906 L 662.222656 212.628906 Z M 662.222656 185.316406 "/>
<path fill-rule="nonzero" fill="rgb(6.47583%, 5.92804%, 5.235291%)" fill-opacity="1" d="M 698.871094 185.316406 L 714.210938 185.316406 C 716.117188 185.316406 717.742188 185.988281 719.082031 187.332031 C 720.429688 188.675781 721.101562 190.300781 721.101562 192.207031 L 721.101562 194.433594 L 714.550781 194.433594 L 714.550781 193.550781 C 714.515625 192.878906 714.273438 192.308594 713.808594 191.847656 C 713.351562 191.386719 712.796875 191.15625 712.152344 191.15625 L 700.761719 191.15625 C 700.113281 191.15625 699.582031 191.34375 699.164062 191.722656 C 698.746094 192.101562 698.535156 192.597656 698.535156 193.214844 L 698.535156 193.886719 C 698.535156 194.449219 699.105469 194.894531 700.257812 195.230469 C 701.40625 195.570312 702.835938 195.808594 704.546875 195.949219 C 706.253906 196.089844 708.109375 196.292969 710.113281 196.578125 C 712.117188 196.855469 713.972656 197.199219 715.679688 197.605469 C 717.390625 198.011719 718.816406 198.675781 719.964844 199.605469 C 721.113281 200.527344 721.691406 201.664062 721.691406 203.003906 L 721.691406 205.738281 C 721.691406 207.644531 721.019531 209.269531 719.675781 210.613281 C 718.328125 211.957031 716.703125 212.628906 714.796875 212.628906 L 698.871094 212.628906 C 696.96875 212.628906 695.339844 211.957031 693.996094 210.613281 C 692.652344 209.269531 691.976562 207.644531 691.976562 205.738281 L 691.976562 203.507812 L 698.535156 203.507812 L 698.535156 204.390625 C 698.535156 205.066406 698.761719 205.632812 699.226562 206.09375 C 699.691406 206.558594 700.257812 206.789062 700.929688 206.789062 L 712.90625 206.789062 C 713.554688 206.789062 714.085938 206.597656 714.503906 206.21875 C 714.921875 205.84375 715.132812 205.347656 715.132812 204.726562 L 715.132812 204.058594 C 715.132812 203.554688 714.707031 203.148438 713.855469 202.835938 C 713 202.53125 711.890625 202.292969 710.53125 202.121094 C 709.171875 201.957031 707.675781 201.804688 706.035156 201.664062 C 704.398438 201.523438 702.75 201.300781 701.097656 201.007812 C 699.445312 200.71875 697.941406 200.351562 696.582031 199.914062 C 695.21875 199.484375 694.117188 198.839844 693.261719 197.980469 C 692.402344 197.132812 691.976562 196.113281 691.976562 194.9375 L 691.976562 192.207031 C 691.976562 190.300781 692.652344 188.675781 693.996094 187.332031 C 695.339844 185.988281 696.96875 185.316406 698.871094 185.316406 "/>
<path fill-rule="nonzero" fill="rgb(75.750732%, 71.430969%, 9.455872%)" fill-opacity="1" d="M 120.480469 64.726562 L 25.488281 64.726562 C 21.40625 64.726562 17.808594 66.480469 14.683594 69.984375 C 11.558594 73.492188 10 78.492188 10 84.992188 L 10 137.191406 C 10 143.691406 11.558594 148.695312 14.683594 152.199219 C 17.808594 155.710938 21.40625 157.457031 25.488281 157.457031 L 120.480469 157.457031 C 124.558594 157.457031 128.160156 155.710938 131.285156 152.199219 C 134.40625 148.695312 135.972656 143.691406 135.972656 137.191406 L 135.972656 123.042969 L 114.441406 123.042969 L 114.441406 128.585938 C 114.441406 131.140625 113.867188 133.210938 112.722656 134.796875 C 111.574219 136.398438 110.238281 137.191406 108.707031 137.191406 L 36.882812 137.191406 C 35.351562 137.191406 34.078125 136.398438 33.058594 134.796875 C 32.035156 133.210938 31.527344 131.140625 31.527344 128.585938 L 31.527344 93.597656 C 31.527344 91.050781 31.941406 88.980469 32.769531 87.382812 C 33.597656 85.789062 35.03125 84.992188 37.074219 84.992188 L 108.898438 84.992188 C 110.683594 84.992188 112.054688 85.789062 113.007812 87.382812 C 113.964844 88.980469 114.441406 91.050781 114.441406 93.597656 L 114.441406 98.949219 L 135.972656 98.949219 L 135.972656 84.992188 C 135.972656 78.75 134.40625 73.808594 131.285156 70.175781 C 128.160156 66.542969 124.558594 64.726562 120.480469 64.726562 "/>
<path fill-rule="nonzero" fill="rgb(75.750732%, 71.430969%, 9.455872%)" fill-opacity="1" d="M 173.554688 64.726562 L 152.027344 64.726562 L 152.027344 157.457031 L 267.828125 157.457031 L 267.828125 137.191406 L 173.554688 137.191406 Z M 173.554688 64.726562 "/>
<path fill-rule="nonzero" fill="rgb(75.750732%, 71.430969%, 9.455872%)" fill-opacity="1" d="M 388.328125 128.589844 C 388.328125 131.140625 387.753906 133.210938 386.609375 134.796875 C 385.460938 136.398438 384.125 137.191406 382.59375 137.191406 L 310.769531 137.191406 C 309.242188 137.191406 307.964844 136.398438 306.945312 134.796875 C 305.925781 133.210938 305.414062 131.140625 305.414062 128.589844 L 305.414062 93.597656 C 305.414062 91.050781 305.828125 88.980469 306.65625 87.382812 C 307.484375 85.789062 308.921875 84.992188 310.960938 84.992188 L 382.785156 84.992188 C 384.566406 84.992188 385.941406 85.789062 386.898438 87.382812 C 387.851562 88.980469 388.328125 91.050781 388.328125 93.597656 Z M 394.367188 64.726562 L 299.375 64.726562 C 295.296875 64.726562 291.695312 66.480469 288.570312 69.984375 C 285.445312 73.492188 283.890625 78.492188 283.890625 84.992188 L 283.890625 137.191406 C 283.890625 143.691406 285.445312 148.695312 288.570312 152.199219 C 291.695312 155.710938 295.296875 157.457031 299.375 157.457031 L 394.367188 157.457031 C 398.445312 157.457031 402.046875 155.710938 405.171875 152.199219 C 408.292969 148.695312 409.855469 143.691406 409.855469 137.191406 L 409.855469 84.992188 C 409.855469 78.75 408.292969 73.808594 405.171875 70.175781 C 402.046875 66.542969 398.445312 64.726562 394.367188 64.726562 "/>
<path fill-rule="nonzero" fill="rgb(75.750732%, 71.430969%, 9.455872%)" fill-opacity="1" d="M 567.980469 157.457031 L 683.785156 157.457031 L 683.785156 137.191406 L 589.503906 137.191406 L 589.503906 121.132812 L 683.785156 121.132812 L 683.785156 100.863281 L 589.503906 100.863281 L 589.503906 84.992188 L 683.785156 84.992188 L 683.785156 64.726562 L 567.980469 64.726562 Z M 567.980469 157.457031 "/>
<path fill-rule="nonzero" fill="rgb(75.750732%, 71.430969%, 9.455872%)" fill-opacity="1" d="M 804.28125 94.554688 C 804.28125 97.105469 803.707031 98.792969 802.5625 99.621094 C 801.414062 100.453125 800.074219 100.863281 798.546875 100.863281 L 721.367188 100.863281 L 721.367188 84.992188 L 798.355469 84.992188 C 800.136719 84.992188 801.574219 85.566406 802.65625 86.714844 C 803.738281 87.863281 804.28125 89.773438 804.28125 92.449219 Z M 814.339844 120.558594 C 817.648438 119.539062 820.386719 117.375 822.558594 114.058594 C 824.722656 110.742188 825.8125 106.347656 825.8125 100.863281 L 825.8125 84.992188 C 825.8125 78.75 824.246094 73.808594 821.125 70.175781 C 818.003906 66.542969 814.398438 64.726562 810.320312 64.726562 L 699.839844 64.726562 L 699.839844 157.457031 L 721.367188 157.457031 L 721.367188 121.132812 L 793.304688 121.132812 L 804.28125 157.457031 L 826 157.457031 Z M 814.339844 120.558594 "/>
<path fill-rule="nonzero" fill="rgb(75.750732%, 71.430969%, 9.455872%)" fill-opacity="1" d="M 487.480469 129.523438 L 445.621094 64.726562 L 419.414062 64.726562 L 479.261719 157.457031 L 495.703125 157.457031 L 555.550781 64.726562 L 529.34375 64.726562 Z M 487.480469 129.523438 "/>
<path fill-rule="nonzero" fill="rgb(52.032471%, 46.577454%, 12.858582%)" fill-opacity="1" d="M 10 137.191406 C 10 143.691406 11.558594 148.695312 14.683594 152.199219 C 17.808594 155.710938 21.40625 157.457031 25.488281 157.457031 L 120.480469 157.457031 C 124.558594 157.457031 128.160156 155.710938 131.285156 152.199219 C 134.40625 148.695312 135.972656 143.691406 135.972656 137.191406 L 135.972656 123.042969 L 114.441406 123.042969 L 114.441406 128.585938 C 114.441406 131.136719 113.867188 133.210938 112.722656 134.796875 C 111.574219 136.398438 110.234375 137.191406 108.707031 137.191406 L 36.882812 137.191406 C 35.351562 137.191406 34.078125 136.398438 33.058594 134.796875 C 32.035156 133.210938 31.527344 131.136719 31.527344 128.585938 L 31.527344 111.089844 L 10 111.089844 Z M 10 137.191406 "/>
<path fill-rule="nonzero" fill="rgb(52.032471%, 46.577454%, 12.858582%)" fill-opacity="1" d="M 152.027344 157.457031 L 267.832031 157.457031 L 267.832031 137.191406 L 173.554688 137.191406 L 173.554688 111.09375 L 152.027344 111.09375 Z M 152.027344 157.457031 "/>
<path fill-rule="nonzero" fill="rgb(52.032471%, 46.577454%, 12.858582%)" fill-opacity="1" d="M 388.328125 128.589844 C 388.328125 131.140625 387.757812 133.210938 386.609375 134.796875 C 385.460938 136.398438 384.125 137.191406 382.59375 137.191406 L 310.769531 137.191406 C 309.242188 137.191406 307.964844 136.398438 306.945312 134.796875 C 305.925781 133.210938 305.414062 131.140625 305.414062 128.589844 L 305.414062 111.09375 L 283.890625 111.09375 L 283.890625 137.191406 C 283.890625 143.691406 285.445312 148.695312 288.570312 152.199219 C 291.695312 155.710938 295.296875 157.457031 299.375 157.457031 L 394.367188 157.457031 C 398.445312 157.457031 402.046875 155.710938 405.171875 152.199219 C 408.292969 148.695312 409.855469 143.691406 409.855469 137.191406 L 409.855469 111.09375 L 388.328125 111.09375 Z M 388.328125 128.589844 "/>
<path fill-rule="nonzero" fill="rgb(52.032471%, 46.577454%, 12.858582%)" fill-opacity="1" d="M 567.980469 157.457031 L 683.785156 157.457031 L 683.785156 137.191406 L 589.503906 137.191406 L 589.503906 121.132812 L 683.785156 121.132812 L 683.785156 111.09375 L 567.980469 111.09375 Z M 567.980469 157.457031 "/>
<path fill-rule="nonzero" fill="rgb(52.032471%, 46.577454%, 12.858582%)" fill-opacity="1" d="M 822.558594 114.054688 C 823.148438 113.15625 823.640625 112.15625 824.070312 111.09375 L 699.839844 111.09375 L 699.839844 157.457031 L 721.363281 157.457031 L 721.363281 121.132812 L 793.304688 121.132812 L 804.277344 157.457031 L 826 157.457031 L 814.335938 120.558594 C 817.648438 119.539062 820.390625 117.371094 822.558594 114.054688 "/>
<path fill-rule="nonzero" fill="rgb(52.032471%, 46.577454%, 12.858582%)" fill-opacity="1" d="M 487.480469 129.523438 L 475.574219 111.09375 L 449.339844 111.09375 L 479.261719 157.457031 L 495.703125 157.457031 L 525.625 111.09375 L 499.390625 111.09375 Z M 487.480469 129.523438 "/>
<path fill-rule="nonzero" fill="rgb(75.750732%, 71.430969%, 9.455872%)" fill-opacity="1" d="M 120.480469 64.726562 L 25.488281 64.726562 C 21.40625 64.726562 17.808594 66.480469 14.683594 69.984375 C 11.558594 73.492188 10 78.492188 10 84.992188 L 10 137.191406 C 10 143.691406 11.558594 148.695312 14.683594 152.199219 C 17.808594 155.710938 21.40625 157.457031 25.488281 157.457031 L 120.480469 157.457031 C 124.558594 157.457031 128.160156 155.710938 131.285156 152.199219 C 134.40625 148.695312 135.972656 143.691406 135.972656 137.191406 L 135.972656 123.042969 L 114.441406 123.042969 L 114.441406 128.585938 C 114.441406 131.140625 113.867188 133.210938 112.722656 134.796875 C 111.574219 136.398438 110.238281 137.191406 108.707031 137.191406 L 36.882812 137.191406 C 35.351562 137.191406 34.078125 136.398438 33.058594 134.796875 C 32.035156 133.210938 31.527344 131.140625 31.527344 128.585938 L 31.527344 93.597656 C 31.527344 91.050781 31.941406 88.980469 32.769531 87.382812 C 33.597656 85.789062 35.03125 84.992188 37.074219 84.992188 L 108.898438 84.992188 C 110.683594 84.992188 112.054688 85.789062 113.007812 87.382812 C 113.964844 88.980469 114.441406 91.050781 114.441406 93.597656 L 114.441406 98.949219 L 135.972656 98.949219 L 135.972656 84.992188 C 135.972656 78.75 134.40625 73.808594 131.285156 70.175781 C 128.160156 66.542969 124.558594 64.726562 120.480469 64.726562 M 120.480469 66.554688 C 124.03125 66.554688 127.109375 68.128906 129.894531 71.371094 C 132.710938 74.644531 134.140625 79.230469 134.140625 84.992188 L 134.140625 97.121094 L 116.273438 97.121094 L 116.273438 93.597656 C 116.273438 90.726562 115.703125 88.320312 114.578125 86.441406 C 113.292969 84.296875 111.328125 83.160156 108.898438 83.160156 L 37.074219 83.160156 C 33.621094 83.160156 31.945312 85 31.148438 86.539062 C 30.183594 88.386719 29.695312 90.761719 29.695312 93.597656 L 29.695312 128.585938 C 29.695312 131.488281 30.308594 133.910156 31.515625 135.78125 C 33.21875 138.460938 35.375 139.023438 36.882812 139.023438 L 108.707031 139.023438 C 110.183594 139.023438 112.335938 138.476562 114.207031 135.871094 C 115.578125 133.96875 116.273438 131.519531 116.273438 128.585938 L 116.273438 124.875 L 134.140625 124.875 L 134.140625 137.191406 C 134.140625 143.199219 132.71875 147.835938 129.914062 150.980469 C 127.136719 154.109375 124.046875 155.625 120.480469 155.625 L 25.488281 155.625 C 21.917969 155.625 18.832031 154.109375 16.050781 150.980469 C 13.25 147.839844 11.832031 143.203125 11.832031 137.191406 L 11.832031 84.992188 C 11.832031 78.988281 13.25 74.347656 16.054688 71.203125 C 18.835938 68.078125 21.925781 66.554688 25.488281 66.554688 Z M 120.480469 66.554688 "/>
<path fill-rule="nonzero" fill="rgb(75.750732%, 71.430969%, 9.455872%)" fill-opacity="1" d="M 173.554688 64.726562 L 152.027344 64.726562 L 152.027344 157.457031 L 267.828125 157.457031 L 267.828125 137.191406 L 173.554688 137.191406 Z M 171.722656 66.554688 L 171.722656 139.023438 L 266 139.023438 L 266 155.625 L 153.859375 155.625 L 153.859375 66.554688 Z M 171.722656 66.554688 "/>
<path fill-rule="nonzero" fill="rgb(75.750732%, 71.430969%, 9.455872%)" fill-opacity="1" d="M 310.769531 137.191406 C 309.242188 137.191406 307.964844 136.398438 306.949219 134.796875 C 305.921875 133.210938 305.414062 131.140625 305.414062 128.585938 L 305.414062 93.597656 C 305.414062 91.050781 305.828125 88.980469 306.660156 87.382812 C 307.484375 85.789062 308.921875 84.996094 310.960938 84.996094 L 382.785156 84.996094 C 384.566406 84.996094 385.941406 85.789062 386.898438 87.382812 C 387.851562 88.980469 388.328125 91.050781 388.328125 93.597656 L 388.328125 128.585938 C 388.328125 131.140625 387.753906 133.210938 386.609375 134.796875 C 385.460938 136.398438 384.125 137.191406 382.59375 137.191406 Z M 394.367188 64.726562 L 299.375 64.726562 C 295.292969 64.726562 291.695312 66.480469 288.574219 69.984375 C 285.449219 73.492188 283.890625 78.492188 283.890625 84.996094 L 283.890625 137.191406 C 283.890625 143.691406 285.449219 148.695312 288.574219 152.199219 C 291.695312 155.710938 295.292969 157.457031 299.375 157.457031 L 394.367188 157.457031 C 398.449219 157.457031 402.046875 155.710938 405.171875 152.199219 C 408.292969 148.695312 409.855469 143.691406 409.855469 137.191406 L 409.855469 84.996094 C 409.855469 78.75 408.292969 73.808594 405.171875 70.175781 C 402.046875 66.542969 398.449219 64.726562 394.367188 64.726562 M 310.769531 139.023438 L 382.59375 139.023438 C 384.070312 139.023438 386.222656 138.476562 388.09375 135.871094 C 389.464844 133.96875 390.160156 131.519531 390.160156 128.585938 L 390.160156 93.597656 C 390.160156 90.726562 389.589844 88.320312 388.46875 86.441406 C 387.179688 84.296875 385.214844 83.164062 382.785156 83.164062 L 310.960938 83.164062 C 307.507812 83.164062 305.832031 85 305.035156 86.539062 C 304.074219 88.386719 303.585938 90.761719 303.585938 93.597656 L 303.585938 128.585938 C 303.585938 131.488281 304.195312 133.910156 305.402344 135.78125 C 307.105469 138.460938 309.261719 139.023438 310.769531 139.023438 M 394.367188 66.558594 C 397.921875 66.558594 401 68.132812 403.785156 71.371094 C 406.597656 74.644531 408.027344 79.230469 408.027344 84.996094 L 408.027344 137.191406 C 408.027344 143.195312 406.605469 147.835938 403.804688 150.984375 C 401.023438 154.105469 397.9375 155.625 394.367188 155.625 L 299.375 155.625 C 295.804688 155.625 292.71875 154.105469 289.9375 150.980469 C 287.136719 147.839844 285.71875 143.199219 285.71875 137.191406 L 285.71875 84.996094 C 285.71875 78.984375 287.140625 74.347656 289.9375 71.203125 C 292.726562 68.074219 295.8125 66.558594 299.375 66.558594 Z M 394.367188 66.558594 "/>
<path fill-rule="nonzero" fill="rgb(75.750732%, 71.430969%, 9.455872%)" fill-opacity="1" d="M 683.78125 64.726562 L 567.976562 64.726562 L 567.976562 157.457031 L 683.78125 157.457031 L 683.78125 137.191406 L 589.503906 137.191406 L 589.503906 121.128906 L 683.78125 121.128906 L 683.78125 100.863281 L 589.503906 100.863281 L 589.503906 84.992188 L 683.78125 84.992188 Z M 681.953125 66.554688 L 681.953125 83.160156 L 587.675781 83.160156 L 587.675781 102.695312 L 681.953125 102.695312 L 681.953125 119.300781 L 587.675781 119.300781 L 587.675781 139.023438 L 681.953125 139.023438 L 681.953125 155.625 L 569.808594 155.625 L 569.808594 66.554688 Z M 681.953125 66.554688 "/>
<path fill-rule="nonzero" fill="rgb(75.750732%, 71.430969%, 9.455872%)" fill-opacity="1" d="M 721.363281 100.863281 L 721.363281 84.992188 L 798.355469 84.992188 C 800.136719 84.992188 801.574219 85.566406 802.65625 86.714844 C 803.738281 87.863281 804.277344 89.773438 804.277344 92.449219 L 804.277344 94.554688 C 804.277344 97.105469 803.707031 98.792969 802.5625 99.621094 C 801.414062 100.453125 800.074219 100.863281 798.546875 100.863281 Z M 810.320312 64.726562 L 699.839844 64.726562 L 699.839844 157.457031 L 721.363281 157.457031 L 721.363281 121.132812 L 793.304688 121.132812 L 804.277344 157.457031 L 826 157.457031 L 814.335938 120.558594 C 817.648438 119.539062 820.386719 117.371094 822.558594 114.058594 C 824.722656 110.742188 825.8125 106.347656 825.8125 100.863281 L 825.8125 84.992188 C 825.8125 78.75 824.246094 73.808594 821.125 70.175781 C 818.003906 66.542969 814.398438 64.726562 810.320312 64.726562 M 719.535156 102.695312 L 798.546875 102.695312 C 800.464844 102.695312 802.175781 102.160156 803.636719 101.105469 C 805.300781 99.902344 806.109375 97.757812 806.109375 94.554688 L 806.109375 92.449219 C 806.109375 89.261719 805.417969 86.976562 803.988281 85.457031 C 802.550781 83.933594 800.65625 83.160156 798.355469 83.160156 L 719.535156 83.160156 L 719.535156 102.695312 M 810.320312 66.558594 C 813.871094 66.558594 816.953125 68.132812 819.734375 71.371094 C 822.550781 74.644531 823.980469 79.230469 823.980469 84.992188 L 823.980469 100.863281 C 823.980469 105.953125 822.988281 110.054688 821.027344 113.054688 C 819.082031 116.027344 816.71875 117.910156 813.800781 118.808594 L 812.035156 119.351562 L 812.59375 121.109375 L 823.5 155.625 L 805.640625 155.625 L 795.058594 120.601562 L 794.664062 119.300781 L 719.535156 119.300781 L 719.535156 155.625 L 701.671875 155.625 L 701.671875 66.558594 Z M 810.320312 66.558594 "/>
<path fill-rule="nonzero" fill="rgb(75.750732%, 71.430969%, 9.455872%)" fill-opacity="1" d="M 555.550781 64.726562 L 529.34375 64.726562 L 487.484375 129.523438 L 445.621094 64.726562 L 419.414062 64.726562 L 479.261719 157.457031 L 495.703125 157.457031 Z M 552.1875 66.554688 L 494.707031 155.625 L 480.257812 155.625 L 422.777344 66.554688 L 444.625 66.554688 L 485.945312 130.515625 L 487.484375 132.898438 L 489.019531 130.515625 L 530.339844 66.554688 Z M 552.1875 66.554688 "/>
</svg>
