<?xml version="1.0" encoding="UTF-8"?>
<svg xmlns="http://www.w3.org/2000/svg" xmlns:xlink="http://www.w3.org/1999/xlink" width="476.21875000000006" height="533.7617190000001" viewBox="182.835938 328.394531 476.21875000000006 533.7617190000001">
<defs>
<clipPath id="clip-0">
<path clip-rule="nonzero" d="M 182.835938 328.394531 L 580 328.394531 L 580 793 L 182.835938 793 Z M 182.835938 328.394531 "/>
</clipPath>
<clipPath id="clip-1">
<path clip-rule="nonzero" d="M 499.460938 328.394531 L 659.054688 328.394531 L 659.054688 534.757812 L 499.460938 534.757812 Z M 499.460938 328.394531 "/>
</clipPath>
<clipPath id="clip-2">
<path clip-rule="nonzero" d="M 232 820 L 271 820 L 271 862.15625 L 232 862.15625 Z M 232 820 "/>
</clipPath>
</defs>
<g clip-path="url(#clip-0)">
<path fill-rule="nonzero" fill="rgb(41.567993%, 51.763916%, 14.901733%)" fill-opacity="1" d="M 571.359375 513.09375 C 571.359375 513.09375 581.980469 413.785156 579.449219 395.628906 C 576.921875 377.476562 535.539062 328.394531 535.539062 328.394531 C 535.539062 328.394531 546.351562 375.433594 549.777344 395.628906 C 551.789062 407.5 544.933594 444.886719 538.9375 473.730469 C 535.792969 469.613281 532.519531 465.585938 529.042969 461.703125 C 523.742188 455.789062 514.640625 455.28125 508.726562 460.585938 C 502.800781 465.882812 502.300781 474.976562 507.597656 480.898438 C 535.453125 511.988281 550.789062 552.128906 550.789062 593.910156 C 550.789062 687.382812 474.714844 763.425781 381.203125 763.425781 C 287.695312 763.425781 211.613281 687.382812 211.613281 593.910156 C 211.613281 500.441406 287.695312 424.398438 381.203125 424.398438 C 396.925781 424.398438 412.484375 426.542969 427.445312 430.769531 C 435.09375 432.914062 443.039062 428.484375 445.207031 420.84375 C 447.367188 413.199219 442.921875 405.253906 435.277344 403.085938 C 417.765625 398.144531 399.578125 395.628906 381.203125 395.628906 C 271.824219 395.628906 182.835938 484.582031 182.835938 593.910156 C 182.835938 703.246094 271.824219 792.191406 381.203125 792.191406 C 490.585938 792.191406 579.570312 703.246094 579.570312 593.910156 C 579.570312 570.394531 575.378906 547.339844 567.4375 525.675781 Z M 571.359375 513.09375 "/>
</g>
<g clip-path="url(#clip-1)">
<path fill-rule="nonzero" fill="rgb(57.646179%, 68.626404%, 0%)" fill-opacity="1" d="M 611.027344 437.796875 C 609.117188 438.261719 607.339844 438.601562 605.566406 438.949219 C 601.785156 419.304688 593.984375 399.039062 583.269531 383.089844 C 563.285156 353.335938 540.621094 332.832031 535.539062 328.394531 C 539.085938 333.195312 544.179688 340.878906 549.347656 351.40625 C 558.738281 370.582031 568.144531 398.871094 568.707031 432.210938 C 568.703125 449.054688 564.078125 466.21875 560.882812 481.464844 C 557.613281 496.804688 557.5625 510.707031 561.246094 523.988281 C 562.25 527.527344 563.425781 531 564.71875 534.394531 C 571.402344 534.679688 578.914062 533.964844 587.152344 531.605469 C 610.082031 525.03125 637.269531 494 647.328125 464.015625 C 656.710938 436.058594 658.710938 411 659.054688 405.464844 C 654.273438 410.664062 633.292969 432.40625 611.027344 437.796875 M 535.539062 328.394531 C 538.347656 333.605469 542.195312 341.691406 545.71875 352.292969 C 552.320312 371.730469 557.53125 400.6875 554.414062 430.3125 C 552.632812 444.988281 547 459.203125 541.691406 475.414062 C 536.222656 491.5 533.824219 511.023438 537.128906 528.347656 C 537.484375 530.175781 537.867188 531.972656 538.28125 533.746094 C 521.765625 527.011719 497.152344 510.839844 500.089844 474.726562 C 503.28125 435.527344 518.332031 427.320312 531.097656 398.605469 C 542.40625 373.175781 537.019531 336.851562 535.539062 328.394531 "/>
</g>
<path fill-rule="nonzero" fill="rgb(61.959839%, 72.940063%, 18.823242%)" fill-opacity="1" d="M 530.933594 593.925781 C 530.933594 677.679688 463.011719 745.566406 379.179688 745.566406 C 295.398438 745.566406 227.480469 677.679688 227.480469 593.925781 Z M 530.933594 593.925781 "/>
<path fill-rule="nonzero" fill="rgb(61.959839%, 72.940063%, 18.823242%)" fill-opacity="1" d="M 530.933594 593.925781 C 530.933594 672.875 470.621094 737.71875 393.496094 744.90625 L 393.449219 744.90625 C 391.765625 745.074219 390.078125 745.199219 388.351562 745.277344 C 385.3125 745.484375 382.273438 745.566406 379.179688 745.566406 C 376.761719 745.566406 374.332031 745.527344 371.949219 745.402344 C 366.234375 745.113281 360.601562 744.539062 355.050781 743.632812 C 282.738281 732.089844 227.480469 669.460938 227.480469 593.925781 Z M 530.933594 593.925781 "/>
<path fill-rule="nonzero" fill="rgb(74.508667%, 83.135986%, 55.293274%)" fill-opacity="1" d="M 252.144531 501.730469 L 294.925781 501.730469 L 294.925781 516.324219 L 266.953125 516.324219 L 266.953125 530.488281 L 294.925781 530.488281 L 294.925781 544.816406 L 266.953125 544.816406 L 266.953125 565.425781 L 294.925781 565.425781 L 294.925781 580.066406 L 252.144531 580.066406 Z M 252.144531 501.730469 "/>
<path fill-rule="nonzero" fill="rgb(74.508667%, 83.135986%, 55.293274%)" fill-opacity="1" d="M 397.992188 515.496094 L 387.554688 525.4375 C 380.464844 517.945312 372.476562 514.195312 363.605469 514.195312 C 356.121094 514.195312 349.808594 516.75 344.683594 521.867188 C 339.554688 526.984375 336.992188 533.292969 336.992188 540.796875 C 336.992188 546.015625 338.125 550.65625 340.398438 554.707031 C 342.667969 558.757812 345.878906 561.941406 350.03125 564.246094 C 354.179688 566.5625 358.796875 567.707031 363.875 567.707031 C 368.199219 567.707031 372.160156 566.902344 375.738281 565.289062 C 379.328125 563.671875 383.265625 560.730469 387.554688 556.464844 L 397.667969 567.011719 C 391.882812 572.664062 386.414062 576.574219 381.257812 578.761719 C 376.109375 580.945312 370.238281 582.035156 363.628906 582.035156 C 351.445312 582.035156 341.472656 578.175781 333.714844 570.457031 C 325.957031 562.730469 322.074219 552.835938 322.074219 540.765625 C 322.074219 532.957031 323.839844 526.011719 327.371094 519.945312 C 330.90625 513.875 335.96875 508.996094 342.558594 505.296875 C 349.144531 501.605469 356.242188 499.757812 363.84375 499.757812 C 370.304688 499.757812 376.535156 501.121094 382.515625 503.851562 C 388.5 506.582031 393.65625 510.46875 397.992188 515.496094 "/>
<path fill-rule="nonzero" fill="rgb(74.508667%, 83.135986%, 55.293274%)" fill-opacity="1" d="M 465.011719 514.351562 C 457.757812 514.351562 451.664062 516.871094 446.722656 521.914062 C 441.78125 526.957031 439.308594 533.367188 439.308594 541.136719 C 439.308594 549.796875 442.421875 556.648438 448.644531 561.691406 C 453.472656 565.636719 459.019531 567.605469 465.28125 567.605469 C 472.359375 567.605469 478.378906 565.050781 483.359375 559.9375 C 488.335938 554.820312 490.828125 548.527344 490.828125 541.027344 C 490.828125 533.578125 488.320312 527.261719 483.308594 522.101562 C 478.292969 516.933594 472.191406 514.351562 465.011719 514.351562 M 465.171875 499.757812 C 476.261719 499.757812 485.792969 503.773438 493.773438 511.792969 C 501.75 519.816406 505.742188 529.601562 505.742188 541.136719 C 505.742188 552.574219 501.808594 562.246094 493.933594 570.164062 C 486.0625 578.078125 476.515625 582.035156 465.28125 582.035156 C 453.519531 582.035156 443.742188 577.96875 435.960938 569.839844 C 428.179688 561.714844 424.28125 552.054688 424.28125 540.875 C 424.28125 533.382812 426.101562 526.5 429.722656 520.210938 C 433.347656 513.925781 438.332031 508.945312 444.679688 505.277344 C 451.019531 501.597656 457.851562 499.757812 465.171875 499.757812 "/>
<path fill-rule="nonzero" fill="rgb(25.881958%, 33.724976%, 10.195923%)" fill-opacity="1" d="M 255.9375 604.398438 L 272.035156 604.398438 L 272.035156 611.082031 L 262.070312 611.082031 L 262.070312 617.621094 L 272.035156 617.621094 L 272.035156 624.203125 L 262.070312 624.203125 L 262.070312 640.417969 L 255.9375 640.417969 Z M 255.9375 604.398438 "/>
<path fill-rule="nonzero" fill="rgb(25.881958%, 33.724976%, 10.195923%)" fill-opacity="1" d="M 291.207031 618.472656 L 293.140625 618.472656 C 295.101562 618.472656 296.457031 618.1875 297.195312 617.613281 C 297.9375 617.039062 298.308594 616.089844 298.308594 614.765625 C 298.308594 613.976562 298.121094 613.292969 297.761719 612.714844 C 297.386719 612.132812 296.898438 611.714844 296.289062 611.460938 C 295.671875 611.207031 294.539062 611.082031 292.902344 611.082031 L 291.207031 611.082031 Z M 285.03125 604.398438 L 291.578125 604.398438 C 295.15625 604.398438 297.707031 604.746094 299.226562 605.453125 C 300.75 606.167969 301.96875 607.347656 302.898438 609 C 303.820312 610.648438 304.285156 612.601562 304.285156 614.84375 C 304.285156 617.214844 303.773438 619.195312 302.75 620.785156 C 301.730469 622.378906 300.191406 623.585938 298.132812 624.398438 L 305.8125 640.417969 L 299.0625 640.417969 L 291.773438 625.160156 L 291.207031 625.160156 L 291.207031 640.417969 L 285.03125 640.417969 Z M 285.03125 604.398438 "/>
<path fill-rule="nonzero" fill="rgb(25.881958%, 33.724976%, 10.195923%)" fill-opacity="1" d="M 317.457031 604.398438 L 323.589844 604.398438 L 323.589844 640.417969 L 317.457031 640.417969 Z M 317.457031 604.398438 "/>
<path fill-rule="nonzero" fill="rgb(25.881958%, 33.724976%, 10.195923%)" fill-opacity="1" d="M 337.644531 604.398438 L 355.347656 604.398438 L 355.347656 611.101562 L 343.777344 611.101562 L 343.777344 617.621094 L 355.347656 617.621094 L 355.347656 624.203125 L 343.777344 624.203125 L 343.777344 633.683594 L 355.347656 633.683594 L 355.347656 640.417969 L 337.644531 640.417969 Z M 337.644531 604.398438 "/>
<path fill-rule="nonzero" fill="rgb(25.881958%, 33.724976%, 10.195923%)" fill-opacity="1" d="M 368.214844 604.398438 L 374.136719 604.398438 L 388.015625 628.101562 L 388.015625 604.398438 L 394.1875 604.398438 L 394.1875 640.417969 L 388.253906 640.417969 L 374.394531 616.789062 L 374.394531 640.417969 L 368.214844 640.417969 Z M 368.214844 604.398438 "/>
<path fill-rule="nonzero" fill="rgb(25.881958%, 33.724976%, 10.195923%)" fill-opacity="1" d="M 414.839844 611 L 414.839844 633.730469 L 417.707031 633.730469 C 420.53125 633.730469 422.574219 633.375 423.847656 632.652344 C 425.117188 631.933594 426.160156 630.722656 426.96875 629.023438 C 427.78125 627.328125 428.183594 625.230469 428.183594 622.75 C 428.183594 618.925781 427.214844 615.957031 425.292969 613.851562 C 423.558594 611.957031 420.769531 611 416.933594 611 Z M 408.710938 604.398438 L 416.03125 604.398438 C 420.738281 604.398438 424.246094 605.042969 426.535156 606.339844 C 428.828125 607.640625 430.71875 609.75 432.195312 612.667969 C 433.679688 615.59375 434.421875 619.003906 434.421875 622.90625 C 434.421875 625.683594 434.011719 628.234375 433.175781 630.5625 C 432.34375 632.890625 431.199219 634.816406 429.738281 636.351562 C 428.28125 637.878906 426.699219 638.949219 424.992188 639.535156 C 423.289062 640.121094 420.335938 640.417969 416.136719 640.417969 L 408.710938 640.417969 Z M 408.710938 604.398438 "/>
<path fill-rule="nonzero" fill="rgb(25.881958%, 33.724976%, 10.195923%)" fill-opacity="1" d="M 447.398438 604.398438 L 453.570312 604.398438 L 453.570312 633.882812 L 462.566406 633.882812 L 462.566406 640.417969 L 447.398438 640.417969 Z M 447.398438 604.398438 "/>
<path fill-rule="nonzero" fill="rgb(25.881958%, 33.724976%, 10.195923%)" fill-opacity="1" d="M 472.046875 604.398438 L 478.675781 604.398438 L 484.726562 617.355469 L 490.75 604.398438 L 497.296875 604.398438 L 487.804688 624.816406 L 487.804688 640.417969 L 481.589844 640.417969 L 481.589844 624.816406 Z M 472.046875 604.398438 "/>
<path fill-rule="nonzero" fill="rgb(25.881958%, 33.724976%, 10.195923%)" fill-opacity="1" d="M 371.949219 745.402344 C 366.234375 745.113281 360.601562 744.539062 355.050781 743.632812 C 350.035156 739.8125 345.765625 733.980469 343.75 725.144531 C 338.695312 703.320312 345.433594 696.253906 347.40625 678.421875 C 349.128906 662.679688 339.921875 643.859375 337.664062 639.542969 C 340.089844 641.882812 343.542969 645.585938 347.324219 650.761719 C 354.273438 660.171875 362.121094 675.007812 365.535156 691.609375 C 367.140625 699.910156 366.519531 708.585938 366.4375 718.324219 C 366.277344 727.113281 368.003906 737.019531 371.949219 745.402344 "/>
<path fill-rule="nonzero" fill="rgb(25.881958%, 33.724976%, 10.195923%)" fill-opacity="1" d="M 421.859375 693.832031 C 421.574219 711.871094 412.199219 733.445312 400.894531 740.964844 C 398.34375 742.648438 395.875 743.925781 393.496094 744.90625 L 393.449219 744.90625 C 391.765625 745.074219 390.078125 745.199219 388.351562 745.277344 C 387.371094 744.007812 386.421875 742.695312 385.511719 741.335938 C 381.199219 734.757812 378.8125 727.199219 377.910156 718.277344 C 377.003906 709.441406 376.554688 699.335938 373.632812 690.171875 C 367.550781 672.171875 357.5625 658.445312 349.128906 649.652344 C 344.488281 644.804688 340.414062 641.519531 337.664062 639.542969 C 341.152344 641.0625 357.023438 648.296875 373.058594 661 C 381.609375 667.773438 389.378906 677.429688 394.84375 687.457031 C 395.753906 686.964844 396.660156 686.472656 397.605469 685.898438 C 408.742188 679.117188 416.390625 663.664062 418.078125 660.007812 C 418.859375 663.085938 422.109375 677.023438 421.859375 693.832031 "/>
<path fill-rule="nonzero" fill="rgb(100%, 100%, 100%)" fill-opacity="1" d="M 202.769531 821.394531 L 227.296875 821.394531 L 227.296875 828.828125 L 211.878906 828.828125 L 211.878906 837.996094 L 226.285156 837.996094 L 226.285156 845.375 L 211.878906 845.375 L 211.878906 861.5 L 202.769531 861.5 Z M 202.769531 821.394531 "/>
<g clip-path="url(#clip-2)">
<path fill-rule="nonzero" fill="rgb(100%, 100%, 100%)" fill-opacity="1" d="M 241.886719 841.566406 C 241.886719 849.417969 245.578125 854.960938 251.648438 854.960938 C 257.777344 854.960938 261.292969 849.125 261.292969 841.328125 C 261.292969 834.125 257.839844 827.933594 251.589844 827.933594 C 245.453125 827.933594 241.886719 833.769531 241.886719 841.566406 M 270.878906 841.027344 C 270.878906 854.183594 262.902344 862.15625 251.171875 862.15625 C 239.261719 862.15625 232.296875 853.171875 232.296875 841.746094 C 232.296875 829.722656 239.972656 820.738281 251.824219 820.738281 C 264.152344 820.738281 270.878906 829.960938 270.878906 841.027344 "/>
</g>
<path fill-rule="nonzero" fill="rgb(100%, 100%, 100%)" fill-opacity="1" d="M 285.816406 839.183594 L 289.394531 839.183594 C 293.917969 839.183594 296.601562 836.925781 296.601562 833.414062 C 296.601562 829.722656 294.097656 827.878906 289.933594 827.816406 C 287.730469 827.816406 286.472656 827.996094 285.816406 828.117188 Z M 276.828125 821.925781 C 279.75 821.449219 284.097656 821.09375 288.917969 821.09375 C 294.871094 821.09375 299.039062 821.980469 301.894531 824.246094 C 304.277344 826.152344 305.585938 828.949219 305.585938 832.636719 C 305.585938 837.757812 301.957031 841.265625 298.503906 842.515625 L 298.503906 842.691406 C 301.300781 843.828125 302.847656 846.503906 303.859375 850.195312 C 305.113281 854.714844 306.363281 859.957031 307.136719 861.5 L 297.847656 861.5 C 297.191406 860.367188 296.238281 857.097656 295.050781 852.15625 C 293.976562 847.15625 292.253906 845.792969 288.5625 845.730469 L 285.816406 845.730469 L 285.816406 861.5 L 276.828125 861.5 Z M 276.828125 821.925781 "/>
<path fill-rule="nonzero" fill="rgb(100%, 100%, 100%)" fill-opacity="1" d="M 329.585938 829.007812 L 318.804688 829.007812 L 318.804688 821.394531 L 349.648438 821.394531 L 349.648438 829.007812 L 338.695312 829.007812 L 338.695312 861.5 L 329.585938 861.5 Z M 329.585938 829.007812 "/>
<path fill-rule="nonzero" fill="rgb(100%, 100%, 100%)" fill-opacity="1" d="M 363.578125 821.394531 L 363.578125 836.800781 L 378.519531 836.800781 L 378.519531 821.394531 L 387.570312 821.394531 L 387.570312 861.5 L 378.519531 861.5 L 378.519531 844.722656 L 363.578125 844.722656 L 363.578125 861.5 L 354.464844 861.5 L 354.464844 821.394531 Z M 363.578125 821.394531 "/>
<path fill-rule="nonzero" fill="rgb(100%, 100%, 100%)" fill-opacity="1" d="M 419.363281 844.542969 L 404.597656 844.542969 L 404.597656 854.066406 L 421.089844 854.066406 L 421.089844 861.5 L 395.492188 861.5 L 395.492188 821.394531 L 420.257812 821.394531 L 420.257812 828.828125 L 404.597656 828.828125 L 404.597656 837.164062 L 419.363281 837.164062 Z M 419.363281 844.542969 "/>
<path fill-rule="nonzero" fill="rgb(100%, 100%, 100%)" fill-opacity="1" d="M 448.296875 840.140625 C 449.074219 840.316406 450.027344 840.378906 451.332031 840.378906 C 456.15625 840.378906 459.132812 837.9375 459.132812 833.824219 C 459.132812 830.136719 456.574219 827.933594 452.046875 827.933594 C 450.207031 827.933594 448.957031 828.117188 448.296875 828.296875 Z M 439.308594 821.925781 C 442.105469 821.449219 446.039062 821.09375 451.574219 821.09375 C 457.167969 821.09375 461.160156 822.164062 463.839844 824.308594 C 466.398438 826.328125 468.128906 829.667969 468.128906 833.59375 C 468.128906 837.519531 466.816406 840.851562 464.4375 843.117188 C 461.335938 846.03125 456.753906 847.335938 451.390625 847.335938 C 450.207031 847.335938 449.132812 847.28125 448.296875 847.15625 L 448.296875 861.5 L 439.308594 861.5 Z M 439.308594 821.925781 "/>
<path fill-rule="nonzero" fill="rgb(100%, 100%, 100%)" fill-opacity="1" d="M 473.898438 821.394531 L 483.007812 821.394531 L 483.007812 853.882812 L 498.964844 853.882812 L 498.964844 861.5 L 473.898438 861.5 Z M 473.898438 821.394531 "/>
<path fill-rule="nonzero" fill="rgb(100%, 100%, 100%)" fill-opacity="1" d="M 524.207031 844.421875 L 521.707031 835.914062 C 520.992188 833.535156 520.28125 830.558594 519.679688 828.171875 L 519.566406 828.171875 C 518.964844 830.558594 518.371094 833.59375 517.714844 835.914062 L 515.335938 844.421875 Z M 514.023438 851.207031 L 511.167969 861.5 L 501.761719 861.5 L 514.023438 821.394531 L 525.9375 821.394531 L 538.378906 861.5 L 528.613281 861.5 L 525.515625 851.207031 Z M 514.023438 851.207031 "/>
<path fill-rule="nonzero" fill="rgb(100%, 100%, 100%)" fill-opacity="1" d="M 543.734375 861.5 L 543.734375 821.394531 L 554.332031 821.394531 L 562.671875 836.089844 C 565.054688 840.316406 567.429688 845.316406 569.214844 849.839844 L 569.402344 849.839844 C 568.800781 844.542969 568.625 839.125 568.625 833.113281 L 568.625 821.394531 L 576.960938 821.394531 L 576.960938 861.5 L 567.429688 861.5 L 558.855469 846.03125 C 556.476562 841.746094 553.859375 836.570312 551.890625 831.867188 L 551.714844 831.925781 C 551.949219 837.226562 552.074219 842.875 552.074219 849.417969 L 552.074219 861.5 Z M 543.734375 861.5 "/>
<path fill-rule="nonzero" fill="rgb(100%, 100%, 100%)" fill-opacity="1" d="M 608.691406 844.542969 L 593.925781 844.542969 L 593.925781 854.066406 L 610.417969 854.066406 L 610.417969 861.5 L 584.816406 861.5 L 584.816406 821.394531 L 609.585938 821.394531 L 609.585938 828.828125 L 593.925781 828.828125 L 593.925781 837.164062 L 608.691406 837.164062 Z M 608.691406 844.542969 "/>
<path fill-rule="nonzero" fill="rgb(100%, 100%, 100%)" fill-opacity="1" d="M 624.644531 829.007812 L 613.871094 829.007812 L 613.871094 821.394531 L 644.710938 821.394531 L 644.710938 829.007812 L 633.757812 829.007812 L 633.757812 861.5 L 624.644531 861.5 Z M 624.644531 829.007812 "/>
</svg>
