<?xml version="1.0" encoding="UTF-8"?>
<svg xmlns="http://www.w3.org/2000/svg" xmlns:xlink="http://www.w3.org/1999/xlink" width="537.230469" height="602.5351562" viewBox="0 -0.0351562 537.230469 602.5351562">
<defs>
<clipPath id="clip-0">
<path clip-rule="nonzero" d="M 357 0 L 537.21875 0 L 537.21875 233 L 357 233 Z M 357 0 "/>
</clipPath>
<clipPath id="clip-1">
<path clip-rule="nonzero" d="M 55 555 L 100 555 L 100 602.5 L 55 602.5 Z M 55 555 "/>
</clipPath>
</defs>
<path fill="none" stroke-width="20" stroke-linecap="butt" stroke-linejoin="miter" stroke="rgb(39.460754%, 54.457092%, 13.876343%)" stroke-opacity="1" stroke-miterlimit="4" d="M 2347.617188 1319.21875 C 2420.078125 1334.726562 2480.585938 1371.953125 2529.21875 1430.898438 C 2627.5 1549.882812 2692.382812 1732.5 2696.40625 1885.390625 C 2699.882812 2016.914062 2686.171875 2148.359375 2655.3125 2279.6875 C 2654.960938 2281.328125 2653.398438 2282.382812 2651.757812 2282.070312 C 2650.78125 2281.875 2650 2281.210938 2649.609375 2280.3125 C 2598.007812 2168.203125 2510.390625 2036.71875 2397.5 1979.21875 C 2393.945312 1977.34375 2389.609375 1978.671875 2387.695312 1982.1875 C 2318.085938 2108.984375 2225.820312 2215.195312 2110.898438 2300.78125 C 2005.3125 2379.453125 1893.710938 2446.601562 1776.210938 2502.1875 C 1776.09375 2502.1875 1776.015625 2502.226562 1776.054688 2502.304688 C 1776.054688 2502.382812 1776.171875 2502.460938 1776.289062 2502.5 L 1943.59375 2502.5 C 1945.703125 2502.5 1947.382812 2504.257812 1947.382812 2506.40625 L 1947.382812 2578.515625 C 1947.382812 2580.820312 1945.546875 2582.695312 1943.28125 2582.695312 L 1823.398438 2582.695312 C 1820.078125 2582.695312 1817.382812 2585.390625 1817.382812 2588.710938 L 1817.382812 2679.609375 C 1817.382812 2682.578125 1819.804688 2685 1822.8125 2685 L 1942.695312 2685 C 1945.195312 2685 1947.1875 2686.992188 1947.1875 2689.492188 L 1947.1875 2757.1875 C 1947.1875 2760.078125 1944.882812 2762.382812 1941.992188 2762.382812 L 1822.5 2762.382812 C 1819.726562 2762.382812 1817.5 2764.648438 1817.5 2767.382812 L 1817.5 2828.007812 C 1817.5 2830.429688 1819.453125 2832.382812 1821.914062 2832.382812 L 1943.28125 2832.382812 C 1945.46875 2832.382812 1947.1875 2834.179688 1947.1875 2836.40625 L 1947.1875 2908.085938 C 1947.1875 2910.585938 1945.195312 2912.617188 1942.695312 2912.617188 L 1751.601562 2912.617188 C 1748.085938 2912.617188 1745.195312 2909.726562 1745.195312 2906.210938 L 1745.195312 2506.484375 C 1745.195312 2506.132812 1745.390625 2505.742188 1745.703125 2505.507812 C 1749.414062 2502.890625 1757.070312 2488.984375 1768.59375 2463.710938 C 1805.546875 2382.890625 1831.210938 2305 1845.703125 2230 C 1861.015625 2150.703125 1860.195312 2083.203125 1844.296875 2007.695312 C 1823.515625 1908.398438 1783.515625 1784.296875 1794.804688 1664.296875 C 1801.484375 1593.789062 1812.460938 1537.617188 1827.8125 1495.898438 C 1850.195312 1434.765625 1887.734375 1381.601562 1940.390625 1336.40625 " transform="matrix(0.1, 0, 0, -0.1, 0, 602.5)"/>
<path fill="none" stroke-width="20" stroke-linecap="butt" stroke-linejoin="miter" stroke="rgb(39.460754%, 54.457092%, 13.876343%)" stroke-opacity="1" stroke-miterlimit="4" d="M 2317.617188 1318.59375 C 2238.28125 1416.796875 2204.6875 1529.296875 2195.78125 1652.8125 C 2186.992188 1774.609375 2174.804688 1884.414062 2131.601562 1993.710938 C 2054.921875 2187.578125 1937.460938 2352.460938 1779.21875 2488.398438 C 1779.21875 2488.476562 1779.140625 2488.515625 1779.101562 2488.515625 C 1779.023438 2488.515625 1778.984375 2488.476562 1778.984375 2488.398438 L 1775.78125 2486.289062 C 1774.921875 2485.78125 1774.6875 2484.6875 1775.234375 2483.789062 C 1775.3125 2483.632812 1775.390625 2483.515625 1775.507812 2483.398438 C 1799.882812 2460.117188 1823.320312 2433.359375 1845.78125 2403.085938 C 1938.515625 2278.085938 2005.195312 2141.5625 2045.78125 1993.515625 C 2066.914062 1916.484375 2076.484375 1843.632812 2074.492188 1774.882812 C 2071.71875 1679.023438 2071.367188 1608.4375 2073.515625 1563.085938 C 2077.5 1479.882812 2098.4375 1397.578125 2136.289062 1316.09375 " transform="matrix(0.1, 0, 0, -0.1, 0, 602.5)"/>
<path fill="none" stroke-width="20" stroke-linecap="butt" stroke-linejoin="miter" stroke="rgb(45.759583%, 60.415649%, 12.431335%)" stroke-opacity="1" stroke-miterlimit="4" d="M 4373.28125 3698.085938 L 4313.515625 3698.085938 C 4308.710938 3698.046875 4304.335938 3700.976562 4302.617188 3705.507812 C 4230.859375 3889.21875 4215.78125 4078.4375 4257.382812 4273.085938 C 4291.289062 4431.914062 4313.164062 4536.601562 4323.085938 4587.1875 C 4351.171875 4730.078125 4357.148438 4875.273438 4341.015625 5022.8125 C 4303.515625 5367.382812 4197.1875 5693.28125 4009.101562 5977.695312 C 4008.632812 5978.398438 4007.734375 5978.59375 4006.992188 5978.203125 C 4006.25 5977.773438 4005.976562 5976.914062 4006.289062 5976.210938 C 4148.90625 5664.609375 4213.671875 5337.265625 4200.585938 4994.21875 C 4197.929688 4923.789062 4191.132812 4859.570312 4180.195312 4801.484375 C 4140.507812 4590.703125 4041.210938 4395.898438 4001.40625 4187.109375 C 3975.195312 4049.492188 3973.4375 3912.03125 3996.09375 3774.6875 " transform="matrix(0.1, 0, 0, -0.1, 0, 602.5)"/>
<path fill="none" stroke-width="20" stroke-linecap="butt" stroke-linejoin="miter" stroke="rgb(39.460754%, 54.457092%, 13.876343%)" stroke-opacity="1" stroke-miterlimit="4" d="M 1007.1875 2758.007812 C 1007.1875 2760.507812 1005.195312 2762.5 1002.695312 2762.5 L 899.6875 2762.5 C 897.226562 2762.5 895.195312 2764.492188 895.195312 2766.992188 L 895.195312 2830.703125 C 895.195312 2833.203125 897.226562 2835.195312 899.6875 2835.195312 L 1002.617188 2835.195312 C 1005.078125 2835.195312 1007.109375 2837.226562 1007.109375 2839.6875 L 1007.109375 2907.890625 C 1007.109375 2910.390625 1005.078125 2912.382812 1002.617188 2912.382812 L 827.109375 2912.382812 C 824.609375 2912.382812 822.617188 2910.390625 822.617188 2907.890625 L 822.617188 2507.109375 C 822.617188 2504.609375 824.609375 2502.617188 827.109375 2502.617188 L 890.507812 2502.617188 C 892.96875 2502.617188 895 2504.609375 895 2507.109375 L 895 2680.585938 C 895 2683.085938 897.03125 2685.117188 899.492188 2685.117188 L 1002.695312 2685.117188 C 1005.195312 2685.117188 1007.1875 2687.109375 1007.1875 2689.609375 L 1007.1875 2758.007812 " transform="matrix(0.1, 0, 0, -0.1, 0, 602.5)"/>
<path fill="none" stroke-width="20" stroke-linecap="butt" stroke-linejoin="miter" stroke="rgb(39.460754%, 54.457092%, 13.876343%)" stroke-opacity="1" stroke-miterlimit="4" d="M 1222.617188 2672.1875 C 1222.5 2673.671875 1223.59375 2674.960938 1225.078125 2675.078125 C 1226.289062 2675.195312 1227.34375 2674.492188 1227.8125 2673.398438 L 1308.789062 2504.804688 C 1309.492188 2503.4375 1310.898438 2502.578125 1312.382812 2502.617188 L 1387.1875 2502.617188 C 1388.046875 2502.65625 1388.671875 2503.28125 1388.671875 2504.0625 C 1388.671875 2504.296875 1388.59375 2504.492188 1388.515625 2504.6875 L 1305.195312 2678.085938 C 1303.75 2681.132812 1305.039062 2684.765625 1308.046875 2686.25 C 1308.125 2686.25 1308.164062 2686.289062 1308.203125 2686.289062 C 1351.875 2706.5625 1372.617188 2743.398438 1370.390625 2796.796875 C 1367.617188 2864.882812 1336.210938 2902.265625 1276.210938 2908.984375 C 1244.882812 2912.617188 1205.703125 2913.710938 1158.710938 2912.382812 C 1155.234375 2912.304688 1152.5 2909.492188 1152.5 2906.09375 L 1152.5 2506.484375 C 1152.5 2504.296875 1154.296875 2502.5 1156.484375 2502.5 L 1218.789062 2502.5 C 1220.898438 2502.5 1222.617188 2504.21875 1222.617188 2506.289062 L 1222.617188 2672.1875 " transform="matrix(0.1, 0, 0, -0.1, 0, 602.5)"/>
<path fill="none" stroke-width="20" stroke-linecap="butt" stroke-linejoin="miter" stroke="rgb(39.460754%, 54.457092%, 13.876343%)" stroke-opacity="1" stroke-miterlimit="4" d="M 1587.382812 2908.59375 C 1587.382812 2910.820312 1585.625 2912.617188 1583.398438 2912.617188 L 1521.40625 2912.617188 C 1519.179688 2912.617188 1517.382812 2910.820312 1517.382812 2908.59375 L 1517.382812 2506.40625 C 1517.382812 2504.179688 1519.179688 2502.382812 1521.40625 2502.382812 L 1583.398438 2502.382812 C 1585.625 2502.382812 1587.382812 2504.179688 1587.382812 2506.40625 L 1587.382812 2908.59375 " transform="matrix(0.1, 0, 0, -0.1, 0, 602.5)"/>
<path fill="none" stroke-width="20" stroke-linecap="butt" stroke-linejoin="miter" stroke="rgb(39.460754%, 54.457092%, 13.876343%)" stroke-opacity="1" stroke-miterlimit="4" d="M 2206.796875 2689.101562 C 2277.929688 2567.617188 2313.828125 2506.40625 2314.492188 2505.390625 C 2315.46875 2503.4375 2317.5 2502.226562 2319.6875 2502.1875 L 2378.710938 2501.914062 C 2382.070312 2501.835938 2384.84375 2504.53125 2384.882812 2507.890625 C 2384.882812 2507.929688 2384.882812 2507.96875 2384.882812 2508.007812 L 2384.882812 2908.710938 C 2384.882812 2910.703125 2383.320312 2912.304688 2381.40625 2912.304688 L 2316.015625 2912.304688 C 2314.023438 2912.304688 2312.382812 2910.703125 2312.382812 2908.710938 L 2312.382812 2657.1875 C 2312.34375 2656.132812 2311.445312 2655.351562 2310.390625 2655.429688 C 2309.765625 2655.46875 2309.21875 2655.78125 2308.90625 2656.289062 C 2303.28125 2665.507812 2289.6875 2688.515625 2268.085938 2725.3125 C 2196.914062 2846.757812 2161.015625 2908.007812 2160.390625 2908.984375 C 2159.414062 2910.9375 2157.421875 2912.1875 2155.195312 2912.1875 L 2096.210938 2912.5 C 2092.8125 2912.578125 2090.078125 2909.882812 2090 2906.484375 C 2090 2906.484375 2090 2906.445312 2090 2906.40625 L 2090 2505.703125 C 2090 2503.710938 2091.5625 2502.109375 2093.515625 2502.109375 L 2158.90625 2502.109375 C 2160.898438 2502.109375 2162.5 2503.710938 2162.5 2505.703125 L 2162.5 2757.1875 C 2162.65625 2758.242188 2163.59375 2758.984375 2164.648438 2758.828125 C 2165.117188 2758.789062 2165.585938 2758.515625 2165.898438 2758.085938 C 2171.5625 2748.90625 2185.195312 2725.898438 2206.796875 2689.101562 " transform="matrix(0.1, 0, 0, -0.1, 0, 602.5)"/>
<path fill="none" stroke-width="20" stroke-linecap="butt" stroke-linejoin="miter" stroke="rgb(39.460754%, 54.457092%, 13.876343%)" stroke-opacity="1" stroke-miterlimit="4" d="M 2545.390625 2907.5 L 2544.609375 2505.3125 C 2544.53125 2503.164062 2546.25 2501.367188 2548.398438 2501.289062 C 2548.4375 2501.289062 2548.476562 2501.289062 2548.515625 2501.289062 L 2668.085938 2501.09375 C 2761.054688 2500.898438 2836.5625 2581.601562 2836.796875 2681.40625 C 2836.796875 2681.445312 2836.796875 2681.484375 2836.796875 2681.484375 L 2836.796875 2730.117188 C 2836.992188 2829.84375 2761.835938 2910.898438 2668.90625 2911.09375 L 2549.296875 2911.289062 C 2547.1875 2911.289062 2545.46875 2909.609375 2545.390625 2907.5 " transform="matrix(0.1, 0, 0, -0.1, 0, 602.5)"/>
<path fill="none" stroke-width="20" stroke-linecap="butt" stroke-linejoin="miter" stroke="rgb(39.460754%, 54.457092%, 13.876343%)" stroke-opacity="1" stroke-miterlimit="4" d="M 3150.703125 2502.5 C 3153.085938 2502.5 3155 2504.414062 3155 2506.796875 L 3155 2575.703125 C 3155 2578.085938 3153.085938 2580 3150.703125 2580 L 3059.414062 2580 C 3057.03125 2580 3055.117188 2581.914062 3055.117188 2584.296875 L 3055.117188 2908.398438 C 3055.117188 2910.78125 3053.164062 2912.695312 3050.78125 2912.695312 L 2986.796875 2912.695312 C 2984.414062 2912.695312 2982.5 2910.78125 2982.5 2908.398438 L 2982.5 2506.796875 C 2982.5 2504.414062 2984.414062 2502.5 2986.796875 2502.5 L 3150.703125 2502.5 " transform="matrix(0.1, 0, 0, -0.1, 0, 602.5)"/>
<path fill="none" stroke-width="20" stroke-linecap="butt" stroke-linejoin="miter" stroke="rgb(39.460754%, 54.457092%, 13.876343%)" stroke-opacity="1" stroke-miterlimit="4" d="M 3403.710938 2502.5 C 3421.5625 2502.5 3431.757812 2502.695312 3434.296875 2503.085938 C 3437.617188 2503.671875 3440.039062 2506.523438 3440.117188 2509.882812 L 3440.195312 2669.609375 C 3440.195312 2675.390625 3441.445312 2681.132812 3443.90625 2686.40625 L 3548.59375 2910.507812 C 3548.945312 2911.210938 3548.632812 2912.03125 3547.929688 2912.382812 C 3547.734375 2912.460938 3547.539062 2912.5 3547.304688 2912.5 L 3474.492188 2912.5 C 3472.96875 2912.5 3471.5625 2911.601562 3470.898438 2910.195312 C 3451.015625 2869.21875 3431.210938 2826.875 3411.40625 2783.203125 C 3408.398438 2776.523438 3405.976562 2773.203125 3404.101562 2773.203125 C 3402.304688 2773.203125 3399.882812 2776.523438 3396.914062 2783.203125 C 3377.226562 2826.914062 3357.539062 2869.335938 3337.8125 2910.390625 C 3337.148438 2911.796875 3335.742188 2912.695312 3334.21875 2912.695312 L 3261.40625 2912.890625 C 3260.625 2912.929688 3259.960938 2912.304688 3259.960938 2911.523438 C 3259.960938 2911.328125 3260 2911.09375 3260.117188 2910.898438 L 3364.101562 2686.484375 C 3366.523438 2681.210938 3367.8125 2675.507812 3367.8125 2669.6875 L 3367.382812 2510 C 3367.460938 2506.640625 3369.882812 2503.789062 3373.203125 2503.203125 C 3375.742188 2502.8125 3385.898438 2502.578125 3403.710938 2502.5 " transform="matrix(0.1, 0, 0, -0.1, 0, 602.5)"/>
<path fill="none" stroke-width="20" stroke-linecap="butt" stroke-linejoin="miter" stroke="rgb(39.460754%, 54.457092%, 13.876343%)" stroke-opacity="1" stroke-miterlimit="4" d="M 1223.085938 2830.703125 L 1222.109375 2756.289062 C 1222.109375 2754.414062 1223.59375 2752.851562 1225.507812 2752.8125 L 1255.78125 2752.382812 C 1280 2752.03125 1299.882812 2768.515625 1300.195312 2789.21875 C 1300.195312 2789.257812 1300.195312 2789.257812 1300.195312 2789.296875 L 1300.195312 2795.703125 C 1300.46875 2816.367188 1281.171875 2833.4375 1256.992188 2833.789062 L 1226.71875 2834.21875 C 1224.765625 2834.257812 1223.164062 2832.734375 1223.085938 2830.78125 C 1223.085938 2830.78125 1223.085938 2830.742188 1223.085938 2830.703125 " transform="matrix(0.1, 0, 0, -0.1, 0, 602.5)"/>
<path fill="none" stroke-width="20" stroke-linecap="butt" stroke-linejoin="miter" stroke="rgb(39.460754%, 54.457092%, 13.876343%)" stroke-opacity="1" stroke-miterlimit="4" d="M 2617.5 2829.21875 L 2617.5 2583.007812 C 2617.5 2580.625 2619.414062 2578.710938 2621.796875 2578.710938 L 2659.492188 2578.710938 C 2717.617188 2578.710938 2764.6875 2627.382812 2764.6875 2687.382812 L 2764.6875 2724.804688 C 2764.6875 2784.84375 2717.617188 2833.515625 2659.492188 2833.515625 L 2621.796875 2833.515625 C 2619.414062 2833.515625 2617.5 2831.5625 2617.5 2829.21875 " transform="matrix(0.1, 0, 0, -0.1, 0, 602.5)"/>
<g clip-path="url(#clip-0)">
<path fill-rule="nonzero" fill="rgb(55.13916%, 68.502808%, 11.66687%)" fill-opacity="1" d="M 437.328125 232.691406 L 431.351562 232.691406 C 430.871094 232.695312 430.433594 232.402344 430.261719 231.949219 C 423.085938 213.578125 421.578125 194.65625 425.738281 175.191406 C 429.128906 159.308594 431.316406 148.839844 432.308594 143.78125 C 435.117188 129.492188 435.714844 114.972656 434.101562 100.21875 C 430.351562 65.761719 419.71875 33.171875 400.910156 4.730469 C 400.863281 4.660156 400.773438 4.640625 400.699219 4.679688 C 400.625 4.722656 400.597656 4.808594 400.628906 4.878906 C 414.890625 36.039062 421.367188 68.773438 420.058594 103.078125 C 419.792969 110.121094 419.113281 116.542969 418.019531 122.351562 C 414.050781 143.429688 404.121094 162.910156 400.140625 183.789062 C 397.519531 197.550781 397.34375 211.296875 399.609375 225.03125 L 400.839844 231.371094 C 400.875 231.539062 400.765625 231.703125 400.59375 231.734375 C 400.53125 231.746094 400.46875 231.742188 400.410156 231.71875 C 373.089844 220.699219 356.289062 198.941406 357.519531 168.519531 C 358.113281 153.800781 360.992188 140.214844 366.160156 127.761719 C 368.246094 122.734375 371.730469 116.21875 376.609375 108.21875 C 381.21875 100.652344 384.957031 94.273438 387.828125 89.078125 C 394.511719 77.019531 398.46875 64.246094 399.699219 50.761719 C 401.265625 33.660156 400.601562 17.148438 397.699219 1.230469 C 397.679688 1.121094 397.601562 0.917969 397.46875 0.609375 C 397.371094 0.386719 397.476562 0.128906 397.703125 0.03125 C 397.863281 -0.0351562 398.050781 -0.00390625 398.179688 0.109375 C 415.261719 15.597656 430.703125 32.648438 444.511719 51.269531 C 461.210938 73.789062 471.898438 97.988281 476.578125 123.871094 C 476.640625 124.21875 476.972656 124.460938 477.328125 124.410156 C 482.28125 123.75 487.308594 122.320312 492.410156 120.121094 C 509.171875 112.878906 523.851562 100.71875 536.648438 87.128906 C 536.773438 86.996094 536.984375 86.988281 537.117188 87.113281 C 537.191406 87.183594 537.230469 87.285156 537.21875 87.390625 C 535.648438 106.421875 532.261719 125.101562 527.070312 143.421875 C 523.882812 154.667969 519.777344 164.855469 514.75 173.988281 C 504.519531 192.570312 489.558594 210.410156 471.339844 222.320312 C 461.019531 229.070312 449.691406 231.71875 437.328125 232.691406 "/>
</g>
<path fill-rule="nonzero" fill="rgb(37.052917%, 53.092957%, 14.076233%)" fill-opacity="1" d="M 437.328125 232.691406 C 443.078125 251.203125 446.371094 268.988281 447.210938 286.050781 C 449.929688 341.289062 434.949219 390.78125 402.269531 434.53125 C 390.683594 450.042969 376.765625 464.105469 360.519531 476.71875 C 303.539062 520.949219 228.519531 534.667969 159.628906 514.128906 C 104.679688 497.761719 58.140625 460.53125 29.320312 410.671875 C 11.773438 380.324219 2 346.957031 0 310.570312 L 0 288.628906 C 3.144531 236.351562 21.640625 190.804688 55.480469 151.988281 C 93.667969 108.179688 148.789062 80.699219 206.960938 76.390625 C 230.707031 74.628906 254.511719 76.640625 278.378906 82.421875 C 284.945312 84.007812 289.261719 85.765625 291.320312 87.699219 C 301.839844 97.609375 295.980469 114.519531 281.851562 116.25 C 280.003906 116.476562 277.128906 116.074219 273.21875 115.039062 C 216.089844 99.980469 157.070312 111.429688 110.140625 146.070312 C 86.6875 163.378906 67.9375 185.371094 53.890625 212.058594 C 35.710938 246.601562 28.679688 288.28125 34.628906 327.359375 C 40.542969 366.167969 56.675781 399.960938 83.03125 428.738281 C 145.578125 497.03125 248.269531 510.699219 326.429688 460.648438 C 404.609375 410.578125 436.359375 311.390625 399.609375 225.03125 C 397.34375 211.296875 397.519531 197.550781 400.140625 183.789062 C 404.121094 162.910156 414.050781 143.429688 418.019531 122.351562 C 419.113281 116.542969 419.792969 110.121094 420.058594 103.078125 C 421.367188 68.773438 414.890625 36.039062 400.628906 4.878906 C 400.597656 4.808594 400.625 4.722656 400.699219 4.679688 C 400.773438 4.640625 400.863281 4.660156 400.910156 4.730469 C 419.71875 33.171875 430.351562 65.761719 434.101562 100.21875 C 435.714844 114.972656 435.117188 129.492188 432.308594 143.78125 C 431.316406 148.839844 429.128906 159.308594 425.738281 175.191406 C 421.578125 194.65625 423.085938 213.578125 430.261719 231.949219 C 430.433594 232.402344 430.871094 232.695312 431.351562 232.691406 L 437.328125 232.691406 "/>
<path fill-rule="nonzero" fill="rgb(68.887329%, 83.287048%, 50.238037%)" fill-opacity="1" d="M 242.371094 211.429688 L 231.429688 222.371094 C 231.222656 222.582031 230.875 222.582031 230.660156 222.371094 C 230.65625 222.367188 230.652344 222.363281 230.648438 222.359375 C 227.46875 219.027344 224.128906 216.363281 220.621094 214.371094 C 207.269531 206.789062 190.949219 208.460938 180.859375 220.421875 C 170.050781 233.230469 172.039062 253.929688 185.539062 263.980469 C 196.828125 272.390625 212.890625 271.839844 224.101562 263.089844 C 226.71875 261.042969 228.832031 259.21875 230.441406 257.609375 C 230.628906 257.421875 230.933594 257.421875 231.128906 257.609375 L 242.398438 268.890625 C 242.554688 269.039062 242.558594 269.285156 242.410156 269.441406 C 242.40625 269.445312 242.402344 269.445312 242.398438 269.449219 C 234.21875 277.289062 225.398438 283.609375 214.25 285.511719 C 200.570312 287.839844 185.558594 285.78125 174.261719 276.980469 C 163.507812 268.605469 157.75 257.230469 156.988281 242.851562 C 156.128906 226.808594 161.789062 212.46875 174.640625 202.96875 C 196.03125 187.179688 224.828125 191.191406 242.390625 210.589844 C 242.609375 210.832031 242.597656 211.199219 242.371094 211.429688 "/>
<path fill-rule="nonzero" fill="rgb(68.887329%, 83.287048%, 50.238037%)" fill-opacity="1" d="M 317.132812 209.921875 C 301.097656 210.507812 288.59375 224.40625 289.199219 240.964844 C 289.808594 257.523438 303.296875 270.46875 319.328125 269.878906 C 335.363281 269.292969 347.867188 255.394531 347.261719 238.835938 C 346.652344 222.277344 333.164062 209.332031 317.132812 209.921875 Z M 315.257812 193.285156 C 340.71875 191.640625 362.710938 211.164062 364.375 236.898438 C 366.039062 262.632812 346.746094 284.824219 321.28125 286.472656 C 295.820312 288.117188 273.828125 268.59375 272.164062 242.859375 C 270.503906 217.128906 289.796875 194.933594 315.257812 193.285156 "/>
<path fill-rule="nonzero" fill="rgb(68.887329%, 83.287048%, 50.238037%)" fill-opacity="1" d="M 126.5 195.851562 L 126.5 211.898438 C 126.5 212.09375 126.34375 212.25 126.148438 212.25 L 95.351562 212.25 C 95.15625 212.25 95 212.40625 95 212.601562 L 95 227.648438 C 95 227.84375 95.15625 228 95.351562 228 L 126.148438 228 C 126.34375 228 126.5 228.15625 126.5 228.351562 L 126.5 243.910156 C 126.5 244.101562 126.34375 244.261719 126.148438 244.261719 L 95.351562 244.261719 C 95.15625 244.261719 95 244.417969 95 244.609375 L 95 266.910156 C 95 267.101562 95.15625 267.261719 95.351562 267.261719 L 126.148438 267.261719 C 126.34375 267.261719 126.5 267.417969 126.5 267.609375 L 126.5 283.898438 C 126.5 284.09375 126.34375 284.25 126.148438 284.25 L 78.351562 284.25 C 78.15625 284.25 78 284.09375 78 283.898438 L 78 195.851562 C 78 195.65625 78.15625 195.5 78.351562 195.5 L 126.148438 195.5 C 126.34375 195.5 126.5 195.65625 126.5 195.851562 "/>
<path fill-rule="nonzero" fill="rgb(57.331848%, 76.391602%, 16.653442%)" fill-opacity="1" d="M 340.371094 352.25 C 342.15625 352.25 343.175781 352.230469 343.429688 352.191406 C 343.761719 352.132812 344.003906 351.847656 344.011719 351.511719 L 344.019531 335.539062 C 344.019531 334.960938 344.144531 334.386719 344.390625 333.859375 L 354.859375 311.449219 C 354.894531 311.378906 354.863281 311.296875 354.792969 311.261719 C 354.773438 311.253906 354.753906 311.25 354.730469 311.25 L 347.449219 311.25 C 347.296875 311.25 347.15625 311.339844 347.089844 311.480469 C 345.101562 315.578125 343.121094 319.8125 341.140625 324.179688 C 340.839844 324.847656 340.597656 325.179688 340.410156 325.179688 C 340.230469 325.179688 339.988281 324.847656 339.691406 324.179688 C 337.722656 319.808594 335.753906 315.566406 333.78125 311.460938 C 333.714844 311.320312 333.574219 311.230469 333.421875 311.230469 L 326.140625 311.210938 C 326.0625 311.207031 325.996094 311.269531 325.996094 311.347656 C 325.996094 311.367188 326 311.390625 326.011719 311.410156 L 336.410156 333.851562 C 336.652344 334.378906 336.78125 334.949219 336.78125 335.53125 L 336.738281 351.5 C 336.746094 351.835938 336.988281 352.121094 337.320312 352.179688 C 337.574219 352.21875 338.589844 352.242188 340.371094 352.25 Z M 315.070312 352.25 C 315.308594 352.25 315.5 352.058594 315.5 351.820312 L 315.5 344.929688 C 315.5 344.691406 315.308594 344.5 315.070312 344.5 L 305.941406 344.5 C 305.703125 344.5 305.511719 344.308594 305.511719 344.070312 L 305.511719 311.660156 C 305.511719 311.421875 305.316406 311.230469 305.078125 311.230469 L 298.679688 311.230469 C 298.441406 311.230469 298.25 311.421875 298.25 311.660156 L 298.25 351.820312 C 298.25 352.058594 298.441406 352.25 298.679688 352.25 Z M 254.539062 311.75 L 254.460938 351.96875 C 254.453125 352.183594 254.625 352.363281 254.839844 352.371094 C 254.84375 352.371094 254.847656 352.371094 254.851562 352.371094 L 266.808594 352.390625 C 276.105469 352.410156 283.65625 344.339844 283.679688 334.359375 C 283.679688 334.355469 283.679688 334.351562 283.679688 334.351562 L 283.679688 329.488281 C 283.699219 319.515625 276.183594 311.410156 266.890625 311.390625 L 254.929688 311.371094 C 254.71875 311.371094 254.546875 311.539062 254.539062 311.75 Z M 220.679688 333.589844 C 227.792969 345.738281 231.382812 351.859375 231.449219 351.960938 C 231.546875 352.15625 231.75 352.277344 231.96875 352.28125 L 237.871094 352.308594 C 238.207031 352.316406 238.484375 352.046875 238.488281 351.710938 C 238.488281 351.707031 238.488281 351.703125 238.488281 351.699219 L 238.488281 311.628906 C 238.488281 311.429688 238.332031 311.269531 238.140625 311.269531 L 231.601562 311.269531 C 231.402344 311.269531 231.238281 311.429688 231.238281 311.628906 L 231.238281 336.78125 C 231.234375 336.886719 231.144531 336.964844 231.039062 336.957031 C 230.976562 336.953125 230.921875 336.921875 230.890625 336.871094 C 230.328125 335.949219 228.96875 333.648438 226.808594 329.96875 C 219.691406 317.824219 216.101562 311.699219 216.039062 311.601562 C 215.941406 311.40625 215.742188 311.28125 215.519531 311.28125 L 209.621094 311.25 C 209.28125 311.242188 209.007812 311.511719 209 311.851562 C 209 311.851562 209 311.855469 209 311.859375 L 209 351.929688 C 209 352.128906 209.15625 352.289062 209.351562 352.289062 L 215.890625 352.289062 C 216.089844 352.289062 216.25 352.128906 216.25 351.929688 L 216.25 326.78125 C 216.265625 326.675781 216.359375 326.601562 216.464844 326.617188 C 216.511719 326.621094 216.558594 326.648438 216.589844 326.691406 C 217.15625 327.609375 218.519531 329.910156 220.679688 333.589844 Z M 158.738281 311.640625 C 158.738281 311.417969 158.5625 311.238281 158.339844 311.238281 L 152.140625 311.238281 C 151.917969 311.238281 151.738281 311.417969 151.738281 311.640625 L 151.738281 351.859375 C 151.738281 352.082031 151.917969 352.261719 152.140625 352.261719 L 158.339844 352.261719 C 158.5625 352.261719 158.738281 352.082031 158.738281 351.859375 Z M 122.261719 335.28125 C 122.25 335.132812 122.359375 335.003906 122.507812 334.992188 C 122.628906 334.980469 122.734375 335.050781 122.78125 335.160156 L 130.878906 352.019531 C 130.949219 352.15625 131.089844 352.242188 131.238281 352.238281 L 138.71875 352.238281 C 138.804688 352.234375 138.867188 352.171875 138.867188 352.09375 C 138.867188 352.070312 138.859375 352.050781 138.851562 352.03125 L 130.519531 334.691406 C 130.375 334.386719 130.503906 334.023438 130.804688 333.875 C 130.8125 333.875 130.816406 333.871094 130.820312 333.871094 C 135.1875 331.84375 137.261719 328.160156 137.039062 322.820312 C 136.761719 316.011719 133.621094 312.273438 127.621094 311.601562 C 124.488281 311.238281 120.570312 311.128906 115.871094 311.261719 C 115.523438 311.269531 115.25 311.550781 115.25 311.890625 L 115.25 351.851562 C 115.25 352.070312 115.429688 352.25 115.648438 352.25 L 121.878906 352.25 C 122.089844 352.25 122.261719 352.078125 122.261719 351.871094 Z M 100.71875 326.699219 C 100.71875 326.449219 100.519531 326.25 100.269531 326.25 L 89.96875 326.25 C 89.722656 326.25 89.519531 326.050781 89.519531 325.800781 L 89.519531 319.429688 C 89.519531 319.179688 89.722656 318.980469 89.96875 318.980469 L 100.261719 318.980469 C 100.507812 318.980469 100.710938 318.777344 100.710938 318.53125 L 100.710938 311.710938 C 100.710938 311.460938 100.507812 311.261719 100.261719 311.261719 L 82.710938 311.261719 C 82.460938 311.261719 82.261719 311.460938 82.261719 311.710938 L 82.261719 351.789062 C 82.261719 352.039062 82.460938 352.238281 82.710938 352.238281 L 89.050781 352.238281 C 89.296875 352.238281 89.5 352.039062 89.5 351.789062 L 89.5 334.441406 C 89.5 334.191406 89.703125 333.988281 89.949219 333.988281 L 100.269531 333.988281 C 100.519531 333.988281 100.71875 333.789062 100.71875 333.539062 Z M 234.761719 470.578125 C 242.007812 469.027344 248.058594 465.304688 252.921875 459.410156 C 262.75 447.511719 269.238281 429.25 269.640625 413.960938 C 269.988281 400.808594 268.617188 387.664062 265.53125 374.53125 C 265.496094 374.367188 265.339844 374.261719 265.175781 374.292969 C 265.078125 374.3125 265 374.378906 264.960938 374.46875 C 259.800781 385.679688 251.039062 398.828125 239.75 404.578125 C 239.394531 404.765625 238.960938 404.632812 238.769531 404.28125 C 231.808594 391.601562 222.582031 380.980469 211.089844 372.421875 C 200.53125 364.554688 189.371094 357.839844 177.621094 352.28125 C 177.609375 352.28125 177.601562 352.277344 177.605469 352.269531 C 177.605469 352.261719 177.617188 352.253906 177.628906 352.25 L 194.359375 352.25 C 194.570312 352.25 194.738281 352.074219 194.738281 351.859375 L 194.738281 344.648438 C 194.738281 344.417969 194.554688 344.230469 194.328125 344.230469 L 182.339844 344.230469 C 182.007812 344.230469 181.738281 343.960938 181.738281 343.628906 L 181.738281 334.539062 C 181.738281 334.242188 181.980469 334 182.28125 334 L 194.269531 334 C 194.519531 334 194.71875 333.800781 194.71875 333.550781 L 194.71875 326.78125 C 194.71875 326.492188 194.488281 326.261719 194.199219 326.261719 L 182.25 326.261719 C 181.972656 326.261719 181.75 326.035156 181.75 325.761719 L 181.75 319.699219 C 181.75 319.457031 181.945312 319.261719 182.191406 319.261719 L 194.328125 319.261719 C 194.546875 319.261719 194.71875 319.082031 194.71875 318.859375 L 194.71875 311.691406 C 194.71875 311.441406 194.519531 311.238281 194.269531 311.238281 L 175.160156 311.238281 C 174.808594 311.238281 174.519531 311.527344 174.519531 311.878906 L 174.519531 351.851562 C 174.519531 351.886719 174.539062 351.925781 174.570312 351.949219 C 174.941406 352.210938 175.707031 353.601562 176.859375 356.128906 C 180.554688 364.210938 183.121094 372 184.570312 379.5 C 186.101562 387.429688 186.019531 394.179688 184.429688 401.730469 C 182.351562 411.660156 178.351562 424.070312 179.480469 436.070312 C 180.148438 443.121094 181.246094 448.738281 182.78125 452.910156 C 185.019531 459.023438 188.773438 464.339844 194.039062 468.859375 C 152.808594 462.191406 115.410156 440.621094 89.03125 408.46875 C 69.34375 384.476562 57.03125 357.066406 52.101562 326.238281 C 50.699219 317.519531 50.027344 308.785156 50.082031 300.039062 C 50.082031 299.742188 50.320312 299.5 50.621094 299.5 L 392.371094 299.5 C 392.679688 299.5 392.929688 299.75 392.929688 300.058594 C 392.929688 300.0625 392.929688 300.066406 392.929688 300.070312 C 392.644531 329.523438 385.632812 356.800781 371.898438 381.898438 C 345.808594 429.558594 298.800781 461.949219 244.761719 469.488281 C 241.246094 469.984375 237.914062 470.347656 234.761719 470.578125 "/>
<path fill-rule="nonzero" fill="rgb(21.955872%, 32.196045%, 9.651184%)" fill-opacity="1" d="M 100.71875 326.699219 L 100.71875 333.539062 C 100.71875 333.789062 100.519531 333.988281 100.269531 333.988281 L 89.949219 333.988281 C 89.703125 333.988281 89.5 334.191406 89.5 334.441406 L 89.5 351.789062 C 89.5 352.039062 89.296875 352.238281 89.050781 352.238281 L 82.710938 352.238281 C 82.460938 352.238281 82.261719 352.039062 82.261719 351.789062 L 82.261719 311.710938 C 82.261719 311.460938 82.460938 311.261719 82.710938 311.261719 L 100.261719 311.261719 C 100.507812 311.261719 100.710938 311.460938 100.710938 311.710938 L 100.710938 318.53125 C 100.710938 318.777344 100.507812 318.980469 100.261719 318.980469 L 89.96875 318.980469 C 89.722656 318.980469 89.519531 319.179688 89.519531 319.429688 L 89.519531 325.800781 C 89.519531 326.050781 89.722656 326.25 89.96875 326.25 L 100.269531 326.25 C 100.519531 326.25 100.71875 326.449219 100.71875 326.699219 "/>
<path fill-rule="nonzero" fill="rgb(21.955872%, 32.196045%, 9.651184%)" fill-opacity="1" d="M 122.308594 319.429688 L 122.210938 326.871094 C 122.210938 327.058594 122.359375 327.214844 122.550781 327.21875 L 125.578125 327.261719 C 128 327.296875 129.988281 325.648438 130.019531 323.578125 C 130.019531 323.574219 130.019531 323.574219 130.019531 323.570312 L 130.019531 322.929688 C 130.046875 320.863281 128.117188 319.15625 125.699219 319.121094 L 122.671875 319.078125 C 122.476562 319.074219 122.316406 319.226562 122.308594 319.421875 C 122.308594 319.421875 122.308594 319.425781 122.308594 319.429688 Z M 122.261719 335.28125 L 122.261719 351.871094 C 122.261719 352.078125 122.089844 352.25 121.878906 352.25 L 115.648438 352.25 C 115.429688 352.25 115.25 352.070312 115.25 351.851562 L 115.25 311.890625 C 115.25 311.550781 115.523438 311.269531 115.871094 311.261719 C 120.570312 311.128906 124.488281 311.238281 127.621094 311.601562 C 133.621094 312.273438 136.761719 316.011719 137.039062 322.820312 C 137.261719 328.160156 135.1875 331.84375 130.820312 333.871094 C 130.511719 334.007812 130.375 334.367188 130.515625 334.675781 C 130.515625 334.679688 130.519531 334.6875 130.519531 334.691406 L 138.851562 352.03125 C 138.890625 352.097656 138.859375 352.183594 138.789062 352.222656 C 138.765625 352.234375 138.742188 352.238281 138.71875 352.238281 L 131.238281 352.238281 C 131.089844 352.242188 130.949219 352.15625 130.878906 352.019531 L 122.78125 335.160156 C 122.726562 335.023438 122.566406 334.953125 122.429688 335.007812 C 122.320312 335.054688 122.25 335.164062 122.261719 335.28125 "/>
<path fill-rule="nonzero" fill="rgb(21.955872%, 32.196045%, 9.651184%)" fill-opacity="1" d="M 152.140625 311.238281 L 158.339844 311.238281 C 158.5625 311.238281 158.738281 311.417969 158.738281 311.640625 L 158.738281 351.859375 C 158.738281 352.082031 158.5625 352.261719 158.339844 352.261719 L 152.140625 352.261719 C 151.917969 352.261719 151.738281 352.082031 151.738281 351.859375 L 151.738281 311.640625 C 151.738281 311.417969 151.917969 311.238281 152.140625 311.238281 "/>
<path fill-rule="nonzero" fill="rgb(21.955872%, 32.196045%, 9.651184%)" fill-opacity="1" d="M 234.761719 470.578125 C 233.527344 470.40625 232.527344 470.425781 231.761719 470.640625 C 223.828125 460.820312 220.46875 449.570312 219.578125 437.21875 C 218.699219 425.039062 217.480469 414.058594 213.160156 403.128906 C 205.492188 383.742188 193.746094 367.253906 177.921875 353.660156 C 177.921875 353.652344 177.914062 353.648438 177.910156 353.648438 C 177.902344 353.648438 177.898438 353.652344 177.898438 353.660156 L 177.578125 353.871094 C 177.492188 353.921875 177.46875 354.03125 177.523438 354.121094 C 177.53125 354.136719 177.539062 354.148438 177.550781 354.160156 C 179.988281 356.488281 182.332031 359.164062 184.578125 362.191406 C 193.851562 374.691406 200.519531 388.34375 204.578125 403.148438 C 206.691406 410.851562 207.648438 418.136719 207.449219 425.011719 C 207.171875 434.597656 207.136719 441.65625 207.351562 446.191406 C 207.75 454.511719 209.84375 462.742188 213.628906 470.890625 L 203.308594 470.371094 C 203.277344 470.371094 203.242188 470.367188 203.210938 470.359375 L 194.039062 468.859375 C 188.773438 464.339844 185.019531 459.023438 182.78125 452.910156 C 181.246094 448.738281 180.148438 443.121094 179.480469 436.070312 C 178.351562 424.070312 182.351562 411.660156 184.429688 401.730469 C 186.019531 394.179688 186.101562 387.429688 184.570312 379.5 C 183.121094 372 180.554688 364.210938 176.859375 356.128906 C 175.707031 353.601562 174.941406 352.210938 174.570312 351.949219 C 174.539062 351.925781 174.519531 351.886719 174.519531 351.851562 L 174.519531 311.878906 C 174.519531 311.527344 174.808594 311.238281 175.160156 311.238281 L 194.269531 311.238281 C 194.519531 311.238281 194.71875 311.441406 194.71875 311.691406 L 194.71875 318.859375 C 194.71875 319.082031 194.546875 319.261719 194.328125 319.261719 L 182.191406 319.261719 C 181.945312 319.261719 181.75 319.457031 181.75 319.699219 L 181.75 325.761719 C 181.75 326.035156 181.972656 326.261719 182.25 326.261719 L 194.199219 326.261719 C 194.488281 326.261719 194.71875 326.492188 194.71875 326.78125 L 194.71875 333.550781 C 194.71875 333.800781 194.519531 334 194.269531 334 L 182.28125 334 C 181.980469 334 181.738281 334.242188 181.738281 334.539062 L 181.738281 343.628906 C 181.738281 343.960938 182.007812 344.230469 182.339844 344.230469 L 194.328125 344.230469 C 194.554688 344.230469 194.738281 344.417969 194.738281 344.648438 L 194.738281 351.859375 C 194.738281 352.074219 194.570312 352.25 194.359375 352.25 L 177.628906 352.25 C 177.617188 352.253906 177.605469 352.261719 177.605469 352.269531 C 177.601562 352.277344 177.609375 352.28125 177.621094 352.28125 C 189.371094 357.839844 200.53125 364.554688 211.089844 372.421875 C 222.582031 380.980469 231.808594 391.601562 238.769531 404.28125 C 238.960938 404.632812 239.394531 404.765625 239.75 404.578125 C 251.039062 398.828125 259.800781 385.679688 264.960938 374.46875 C 265.023438 374.316406 265.203125 374.246094 265.355469 374.3125 C 265.445312 374.351562 265.511719 374.433594 265.53125 374.53125 C 268.617188 387.664062 269.988281 400.808594 269.640625 413.960938 C 269.238281 429.25 262.75 447.511719 252.921875 459.410156 C 248.058594 465.304688 242.007812 469.027344 234.761719 470.578125 "/>
<path fill-rule="nonzero" fill="rgb(21.955872%, 32.196045%, 9.651184%)" fill-opacity="1" d="M 220.679688 333.589844 C 218.519531 329.910156 217.15625 327.609375 216.589844 326.691406 C 216.527344 326.605469 216.40625 326.589844 216.324219 326.652344 C 216.28125 326.683594 216.257812 326.730469 216.25 326.78125 L 216.25 351.929688 C 216.25 352.128906 216.089844 352.289062 215.890625 352.289062 L 209.351562 352.289062 C 209.15625 352.289062 209 352.128906 209 351.929688 L 209 311.859375 C 209 311.523438 209.273438 311.25 209.609375 311.25 C 209.613281 311.25 209.617188 311.25 209.621094 311.25 L 215.519531 311.28125 C 215.742188 311.28125 215.941406 311.40625 216.039062 311.601562 C 216.101562 311.699219 219.691406 317.824219 226.808594 329.96875 C 228.96875 333.648438 230.328125 335.949219 230.890625 336.871094 C 230.945312 336.960938 231.0625 336.984375 231.152344 336.929688 C 231.203125 336.894531 231.234375 336.839844 231.238281 336.78125 L 231.238281 311.628906 C 231.238281 311.429688 231.402344 311.269531 231.601562 311.269531 L 238.140625 311.269531 C 238.332031 311.269531 238.488281 311.429688 238.488281 311.628906 L 238.488281 351.699219 C 238.488281 352.035156 238.21875 352.308594 237.878906 352.308594 C 237.878906 352.308594 237.871094 352.308594 237.871094 352.308594 L 231.96875 352.28125 C 231.75 352.277344 231.546875 352.15625 231.449219 351.960938 C 231.382812 351.859375 227.792969 345.738281 220.679688 333.589844 "/>
<path fill-rule="nonzero" fill="rgb(21.955872%, 32.196045%, 9.651184%)" fill-opacity="1" d="M 261.75 319.578125 L 261.75 344.199219 C 261.75 344.4375 261.941406 344.628906 262.179688 344.628906 L 265.949219 344.628906 C 271.761719 344.628906 276.46875 339.761719 276.46875 333.761719 L 276.46875 330.019531 C 276.46875 324.015625 271.761719 319.148438 265.949219 319.148438 L 262.179688 319.148438 C 261.941406 319.148438 261.75 319.34375 261.75 319.578125 Z M 254.539062 311.75 C 254.546875 311.539062 254.71875 311.371094 254.929688 311.371094 L 266.890625 311.390625 C 276.183594 311.410156 283.699219 319.515625 283.679688 329.488281 L 283.679688 334.351562 C 283.660156 344.328125 276.113281 352.40625 266.816406 352.390625 C 266.816406 352.390625 266.8125 352.390625 266.808594 352.390625 L 254.851562 352.371094 C 254.636719 352.371094 254.460938 352.195312 254.460938 351.980469 C 254.460938 351.976562 254.460938 351.972656 254.460938 351.96875 L 254.539062 311.75 "/>
<path fill-rule="nonzero" fill="rgb(21.955872%, 32.196045%, 9.651184%)" fill-opacity="1" d="M 315.070312 352.25 L 298.679688 352.25 C 298.441406 352.25 298.25 352.058594 298.25 351.820312 L 298.25 311.660156 C 298.25 311.421875 298.441406 311.230469 298.679688 311.230469 L 305.078125 311.230469 C 305.316406 311.230469 305.511719 311.421875 305.511719 311.660156 L 305.511719 344.070312 C 305.511719 344.308594 305.703125 344.5 305.941406 344.5 L 315.070312 344.5 C 315.308594 344.5 315.5 344.691406 315.5 344.929688 L 315.5 351.820312 C 315.5 352.058594 315.308594 352.25 315.070312 352.25 "/>
<path fill-rule="nonzero" fill="rgb(21.955872%, 32.196045%, 9.651184%)" fill-opacity="1" d="M 340.410156 325.179688 C 340.597656 325.179688 340.839844 324.847656 341.140625 324.179688 C 343.121094 319.8125 345.101562 315.578125 347.089844 311.480469 C 347.15625 311.339844 347.296875 311.25 347.449219 311.25 L 354.730469 311.25 C 354.808594 311.246094 354.871094 311.308594 354.871094 311.386719 C 354.875 311.40625 354.867188 311.429688 354.859375 311.449219 L 344.390625 333.859375 C 344.144531 334.386719 344.019531 334.960938 344.019531 335.539062 L 344.011719 351.511719 C 344.003906 351.847656 343.761719 352.132812 343.429688 352.191406 C 343.175781 352.230469 342.15625 352.25 340.371094 352.25 C 338.589844 352.242188 337.574219 352.21875 337.320312 352.179688 C 336.988281 352.121094 336.746094 351.835938 336.738281 351.5 L 336.78125 335.53125 C 336.78125 334.949219 336.652344 334.378906 336.410156 333.851562 L 326.011719 311.410156 C 325.976562 311.339844 326.007812 311.257812 326.074219 311.222656 C 326.097656 311.214844 326.117188 311.210938 326.140625 311.210938 L 333.421875 311.230469 C 333.574219 311.230469 333.714844 311.320312 333.78125 311.460938 C 335.753906 315.566406 337.722656 319.808594 339.691406 324.179688 C 339.988281 324.847656 340.230469 325.179688 340.410156 325.179688 "/>
<path fill-rule="nonzero" fill="rgb(57.331848%, 76.391602%, 16.653442%)" fill-opacity="1" d="M 122.308594 319.429688 C 122.308594 319.238281 122.46875 319.078125 122.660156 319.078125 C 122.664062 319.078125 122.667969 319.078125 122.671875 319.078125 L 125.699219 319.121094 C 128.117188 319.15625 130.046875 320.863281 130.019531 322.929688 L 130.019531 323.570312 C 129.992188 325.640625 128.007812 327.292969 125.589844 327.261719 C 125.585938 327.261719 125.582031 327.261719 125.578125 327.261719 L 122.550781 327.21875 C 122.359375 327.214844 122.210938 327.058594 122.210938 326.871094 L 122.308594 319.429688 "/>
<path fill-rule="nonzero" fill="rgb(57.331848%, 76.391602%, 16.653442%)" fill-opacity="1" d="M 261.75 319.578125 C 261.75 319.34375 261.941406 319.148438 262.179688 319.148438 L 265.949219 319.148438 C 271.761719 319.148438 276.46875 324.015625 276.46875 330.019531 L 276.46875 333.761719 C 276.46875 339.761719 271.761719 344.628906 265.949219 344.628906 L 262.179688 344.628906 C 261.941406 344.628906 261.75 344.4375 261.75 344.199219 L 261.75 319.578125 "/>
<path fill-rule="nonzero" fill="rgb(57.331848%, 76.391602%, 16.653442%)" fill-opacity="1" d="M 231.761719 470.640625 L 213.628906 470.890625 C 209.84375 462.742188 207.75 454.511719 207.351562 446.191406 C 207.136719 441.65625 207.171875 434.597656 207.449219 425.011719 C 207.648438 418.136719 206.691406 410.851562 204.578125 403.148438 C 200.519531 388.34375 193.851562 374.691406 184.578125 362.191406 C 182.332031 359.164062 179.988281 356.488281 177.550781 354.160156 C 177.476562 354.085938 177.476562 353.96875 177.546875 353.898438 C 177.554688 353.886719 177.566406 353.878906 177.578125 353.871094 L 177.898438 353.660156 C 177.898438 353.652344 177.902344 353.648438 177.910156 353.648438 C 177.914062 353.648438 177.921875 353.652344 177.921875 353.660156 C 193.746094 367.253906 205.492188 383.742188 213.160156 403.128906 C 217.480469 414.058594 218.699219 425.039062 219.578125 437.21875 C 220.46875 449.570312 223.828125 460.820312 231.761719 470.640625 "/>
<g clip-path="url(#clip-1)">
<path fill-rule="nonzero" fill="rgb(100%, 100%, 100%)" fill-opacity="1" d="M 77.53125 563.648438 C 71.480469 563.648438 66.582031 570.488281 66.582031 578.917969 C 66.582031 587.351562 71.480469 594.191406 77.53125 594.191406 C 83.578125 594.191406 88.480469 587.351562 88.480469 578.917969 C 88.480469 570.488281 83.578125 563.648438 77.53125 563.648438 Z M 78.320312 602.5 L 75.96875 602.5 C 62.476562 600.710938 55.753906 592.78125 55.800781 578.710938 C 55.839844 567.910156 61.910156 557.820312 72.988281 555.839844 C 92.109375 552.417969 103.199219 568.808594 98.351562 586.179688 C 95.496094 596.417969 88.820312 601.859375 78.320312 602.5 "/>
</g>
<path fill-rule="nonzero" fill="rgb(100%, 100%, 100%)" fill-opacity="1" d="M 116.230469 564.269531 L 116.269531 575.628906 C 116.269531 575.945312 116.523438 576.199219 116.839844 576.199219 L 121.148438 576.179688 C 125.070312 576.167969 128.238281 573.40625 128.230469 570.011719 L 128.230469 569.808594 C 128.222656 566.414062 125.035156 563.667969 121.113281 563.679688 C 121.113281 563.679688 121.109375 563.679688 121.109375 563.679688 L 116.800781 563.699219 C 116.484375 563.699219 116.230469 563.957031 116.230469 564.269531 Z M 115.621094 601.75 L 106.359375 601.75 C 106.160156 601.75 106 601.589844 106 601.390625 L 106 557.128906 C 105.996094 556.890625 106.179688 556.683594 106.421875 556.648438 C 110.308594 556.121094 114.746094 555.832031 119.738281 555.769531 C 127.71875 555.679688 137.109375 557.351562 138.398438 566.769531 C 139.074219 571.710938 137.515625 575.617188 133.730469 578.488281 C 132.996094 579.042969 132.285156 579.519531 131.601562 579.917969 C 131.402344 580.03125 131.332031 580.28125 131.441406 580.476562 C 131.472656 580.53125 131.511719 580.574219 131.558594 580.609375 C 134.054688 582.382812 135.71875 585 136.550781 588.460938 C 136.890625 589.886719 138.066406 594.097656 140.078125 601.089844 C 140.15625 601.367188 139.996094 601.652344 139.71875 601.730469 C 139.675781 601.742188 139.628906 601.75 139.578125 601.75 L 130.121094 601.75 C 129.722656 601.75 129.367188 601.5 129.230469 601.128906 C 128.78125 599.941406 127.648438 595.882812 125.820312 588.949219 C 124.558594 584.199219 121.171875 583.679688 116.820312 583.769531 C 116.496094 583.78125 116.238281 584.042969 116.238281 584.359375 L 116.238281 601.121094 C 116.238281 601.46875 115.960938 601.75 115.621094 601.75 "/>
<path fill-rule="nonzero" fill="rgb(100%, 100%, 100%)" fill-opacity="1" d="M 299.410156 564.640625 L 299.570312 576.660156 C 299.574219 577.125 299.957031 577.496094 300.421875 577.488281 C 300.421875 577.488281 300.425781 577.488281 300.429688 577.488281 L 304.121094 577.441406 C 308.253906 577.378906 311.558594 574.355469 311.511719 570.679688 L 311.511719 570.300781 C 311.460938 566.621094 308.070312 563.683594 303.933594 563.738281 C 303.929688 563.738281 303.925781 563.738281 303.921875 563.738281 L 300.230469 563.789062 C 299.769531 563.800781 299.402344 564.179688 299.410156 564.640625 Z M 298.859375 601.75 L 289.589844 601.75 C 289.265625 601.75 289 601.484375 289 601.160156 L 289 557.371094 C 289 557.042969 289.238281 556.765625 289.558594 556.71875 C 296.699219 555.628906 303.328125 555.492188 309.449219 556.320312 C 316.75 557.308594 321.75 562.410156 321.808594 570.019531 C 321.910156 583.121094 310.851562 586.058594 300.03125 585.640625 C 299.742188 585.628906 299.5 585.847656 299.488281 586.128906 C 299.488281 586.136719 299.488281 586.144531 299.488281 586.148438 L 299.488281 601.121094 C 299.488281 601.46875 299.207031 601.75 298.859375 601.75 "/>
<path fill-rule="nonzero" fill="rgb(100%, 100%, 100%)" fill-opacity="1" d="M 50.238281 556.628906 L 50.238281 564.371094 C 50.238281 564.582031 50.070312 564.75 49.859375 564.75 L 33.378906 564.75 C 33.167969 564.75 33 564.917969 33 565.128906 L 33 574.621094 C 33 574.832031 33.167969 575 33.378906 575 L 48.871094 575 C 49.082031 575 49.25 575.167969 49.25 575.378906 L 49.25 583.121094 C 49.25 583.332031 49.082031 583.5 48.871094 583.5 L 33.378906 583.5 C 33.167969 583.5 33 583.667969 33 583.878906 L 33 601.371094 C 33 601.578125 32.832031 601.75 32.621094 601.75 L 22.628906 601.75 C 22.417969 601.75 22.25 601.578125 22.25 601.371094 L 22.25 556.628906 C 22.25 556.417969 22.417969 556.25 22.628906 556.25 L 49.859375 556.25 C 50.070312 556.25 50.238281 556.417969 50.238281 556.628906 "/>
<path fill-rule="nonzero" fill="rgb(100%, 100%, 100%)" fill-opacity="1" d="M 170.691406 556.238281 C 176.53125 556.246094 182.21875 556.261719 187.761719 556.28125 C 187.996094 556.28125 188.191406 556.472656 188.191406 556.710938 L 188.191406 564.601562 C 188.191406 564.832031 188.003906 565.019531 187.769531 565.019531 L 176.601562 565.019531 C 176.261719 565.019531 175.988281 565.292969 175.988281 565.628906 L 175.929688 601.101562 C 175.929688 601.402344 175.722656 601.667969 175.429688 601.738281 C 175.351562 601.761719 173.738281 601.765625 170.601562 601.761719 C 167.46875 601.753906 165.859375 601.738281 165.78125 601.71875 C 165.484375 601.648438 165.28125 601.382812 165.28125 601.082031 L 165.359375 565.609375 C 165.359375 565.273438 165.085938 565 164.75 565 L 153.578125 564.949219 C 153.347656 564.949219 153.160156 564.761719 153.160156 564.53125 L 153.199219 556.640625 C 153.199219 556.402344 153.394531 556.210938 153.628906 556.210938 C 159.171875 556.21875 164.855469 556.226562 170.691406 556.238281 "/>
<path fill-rule="nonzero" fill="rgb(100%, 100%, 100%)" fill-opacity="1" d="M 212.25 573.5 C 217.058594 573.5 219.589844 573.496094 219.851562 573.488281 C 220.210938 573.484375 220.5 573.191406 220.5 572.832031 L 220.5 556.851562 C 220.5 556.519531 220.773438 556.25 221.109375 556.25 L 230.410156 556.25 C 230.734375 556.25 231 556.515625 231 556.839844 L 231 601.140625 C 231 601.476562 230.726562 601.75 230.390625 601.75 L 221.148438 601.75 C 220.789062 601.75 220.5 601.457031 220.5 601.101562 L 220.5 583.128906 C 220.5 582.933594 220.34375 582.773438 220.148438 582.769531 C 219.878906 582.757812 217.242188 582.75 212.25 582.75 C 207.257812 582.75 204.621094 582.757812 204.351562 582.769531 C 204.15625 582.773438 204 582.933594 204 583.128906 L 204 601.101562 C 204 601.457031 203.710938 601.75 203.351562 601.75 L 194.109375 601.75 C 193.773438 601.75 193.5 601.476562 193.5 601.140625 L 193.5 556.839844 C 193.5 556.515625 193.765625 556.25 194.089844 556.25 L 203.390625 556.25 C 203.726562 556.25 204 556.519531 204 556.851562 L 204 572.832031 C 204 573.191406 204.289062 573.484375 204.648438 573.488281 C 204.910156 573.496094 207.441406 573.5 212.25 573.5 "/>
<path fill-rule="nonzero" fill="rgb(100%, 100%, 100%)" fill-opacity="1" d="M 239.738281 556.941406 C 239.738281 556.558594 240.050781 556.25 240.429688 556.25 L 267.648438 556.261719 C 267.835938 556.261719 267.984375 556.40625 267.988281 556.589844 L 267.980469 564.429688 C 267.980469 564.605469 267.835938 564.75 267.660156 564.75 L 250.679688 564.75 C 250.441406 564.75 250.25 564.941406 250.25 565.179688 L 250.238281 573.558594 C 250.238281 573.804688 250.433594 574 250.671875 574 L 266.441406 574.011719 C 266.664062 574.011719 266.851562 574.195312 266.851562 574.417969 L 266.878906 582.058594 C 266.878906 582.304688 266.6875 582.5 266.449219 582.5 L 250.820312 582.5 C 250.492188 582.5 250.230469 582.765625 250.230469 583.089844 L 250.238281 592.410156 C 250.246094 592.730469 250.511719 592.988281 250.839844 592.988281 L 268.378906 593 C 268.578125 593 268.738281 593.160156 268.738281 593.359375 L 268.738281 601.359375 C 268.738281 601.570312 268.574219 601.738281 268.371094 601.738281 L 240.359375 601.738281 C 240.023438 601.738281 239.75 601.46875 239.75 601.128906 L 239.738281 556.941406 "/>
<path fill-rule="nonzero" fill="rgb(100%, 100%, 100%)" fill-opacity="1" d="M 338.75 556.648438 L 338.75 592.359375 C 338.75 592.574219 338.925781 592.75 339.140625 592.75 L 356.359375 592.75 C 356.574219 592.75 356.75 592.925781 356.75 593.140625 L 356.75 601.359375 C 356.75 601.574219 356.574219 601.75 356.359375 601.75 L 328.640625 601.75 C 328.425781 601.75 328.25 601.574219 328.25 601.359375 L 328.25 556.648438 C 328.25 556.433594 328.425781 556.261719 328.640625 556.261719 L 338.359375 556.261719 C 338.574219 556.261719 338.75 556.433594 338.75 556.648438 "/>
<path fill-rule="nonzero" fill="rgb(100%, 100%, 100%)" fill-opacity="1" d="M 379.621094 565.390625 L 375.398438 581.710938 C 375.339844 581.941406 375.476562 582.175781 375.707031 582.234375 C 375.742188 582.246094 375.78125 582.25 375.820312 582.25 L 384.289062 582.25 C 384.582031 582.246094 384.816406 582.007812 384.816406 581.714844 C 384.8125 581.660156 384.804688 581.609375 384.789062 581.558594 L 379.78125 565.390625 C 379.78125 565.347656 379.742188 565.308594 379.699219 565.308594 C 379.65625 565.308594 379.621094 565.347656 379.621094 565.390625 Z M 373.648438 556.25 L 386.800781 556.25 C 386.972656 556.25 387.128906 556.363281 387.179688 556.53125 L 401.03125 601.230469 C 401.097656 601.441406 400.980469 601.664062 400.769531 601.730469 C 400.730469 601.746094 400.691406 601.75 400.648438 601.75 L 390.191406 601.75 C 390.015625 601.75 389.863281 601.636719 389.808594 601.46875 L 386.351562 590.28125 C 386.296875 590.113281 386.144531 590 385.96875 590 L 374.101562 590 C 373.921875 589.996094 373.761719 590.109375 373.710938 590.28125 L 370.300781 601.46875 C 370.246094 601.640625 370.089844 601.753906 369.910156 601.75 L 359.980469 601.75 C 359.757812 601.75 359.582031 601.570312 359.582031 601.347656 C 359.582031 601.308594 359.589844 601.269531 359.601562 601.230469 L 373.261719 556.53125 C 373.3125 556.359375 373.472656 556.246094 373.648438 556.25 "/>
<path fill-rule="nonzero" fill="rgb(100%, 100%, 100%)" fill-opacity="1" d="M 444.5 556.589844 L 444.5 601.140625 C 444.5 601.476562 444.226562 601.75 443.890625 601.75 L 434.011719 601.75 C 433.683594 601.75 433.378906 601.570312 433.21875 601.28125 L 416.371094 569.839844 C 416.359375 569.835938 416.347656 569.835938 416.34375 569.847656 C 416.339844 569.847656 416.339844 569.847656 416.339844 569.851562 L 416.558594 601.480469 C 416.558594 601.625 416.445312 601.738281 416.300781 601.738281 L 407.300781 601.738281 C 407.132812 601.738281 407 601.605469 407 601.441406 L 407 556.820312 C 407 556.503906 407.261719 556.25 407.578125 556.25 L 418.558594 556.25 C 418.90625 556.25 419.222656 556.433594 419.390625 556.730469 C 424.871094 566.199219 431.269531 576.558594 435.351562 587.058594 C 435.363281 587.121094 435.425781 587.160156 435.484375 587.144531 C 435.546875 587.132812 435.585938 587.070312 435.570312 587.011719 C 434.941406 576.871094 434.785156 566.710938 435.101562 556.53125 C 435.105469 556.375 435.234375 556.25 435.390625 556.25 L 444.160156 556.25 C 444.347656 556.25 444.5 556.402344 444.5 556.589844 "/>
<path fill-rule="nonzero" fill="rgb(100%, 100%, 100%)" fill-opacity="1" d="M 481.5 556.621094 L 481.5 564.378906 C 481.5 564.585938 481.335938 564.75 481.128906 564.75 L 464.121094 564.75 C 463.914062 564.75 463.75 564.914062 463.75 565.121094 L 463.75 573.628906 C 463.75 573.835938 463.914062 574 464.121094 574 L 480.011719 574 C 480.214844 574 480.378906 574.164062 480.378906 574.371094 L 480.378906 582.128906 C 480.378906 582.335938 480.214844 582.5 480.011719 582.5 L 464.121094 582.5 C 463.914062 582.5 463.75 582.664062 463.75 582.871094 L 463.75 592.640625 C 463.75 592.84375 463.914062 593.011719 464.121094 593.011719 L 481.878906 593.011719 C 482.085938 593.011719 482.25 593.175781 482.25 593.378906 L 482.25 601.378906 C 482.25 601.582031 482.085938 601.75 481.878906 601.75 L 453.621094 601.75 C 453.414062 601.75 453.25 601.582031 453.25 601.378906 L 453.25 556.621094 C 453.25 556.414062 453.414062 556.25 453.621094 556.25 L 481.128906 556.25 C 481.335938 556.25 481.5 556.414062 481.5 556.621094 "/>
<path fill-rule="nonzero" fill="rgb(100%, 100%, 100%)" fill-opacity="1" d="M 503.511719 601.738281 C 500.378906 601.738281 498.769531 601.730469 498.691406 601.710938 C 498.394531 601.636719 498.191406 601.375 498.191406 601.070312 L 498.179688 565.628906 C 498.179688 565.296875 497.914062 565.023438 497.578125 565.019531 L 486.421875 565 C 486.1875 565 486 564.8125 486 564.582031 L 486.011719 556.699219 C 486.011719 556.464844 486.203125 556.269531 486.441406 556.269531 C 491.980469 556.257812 497.664062 556.253906 503.488281 556.261719 C 509.316406 556.253906 515 556.253906 520.539062 556.261719 C 520.773438 556.261719 520.964844 556.445312 520.96875 556.679688 L 520.988281 564.570312 C 520.988281 564.800781 520.800781 564.988281 520.570312 564.988281 L 509.410156 565.011719 C 509.074219 565.011719 508.800781 565.28125 508.800781 565.621094 L 508.828125 601.058594 C 508.828125 601.363281 508.625 601.625 508.328125 601.699219 C 508.25 601.71875 506.644531 601.734375 503.511719 601.738281 "/>
</svg>
