<?xml version="1.0" encoding="UTF-8"?>
<!-- CMYK_PDF_CONVERTED -->
<svg data-vectorized-cmyk="true" data-original-cmyk-pdf="true" xmlns="http://www.w3.org/2000/svg" xmlns:xlink="http://www.w3.org/1999/xlink" width="841.89" height="1190.55" viewBox="0 0 841.89 1190.55">
<path fill-rule="nonzero" fill="rgb(21.868896%, 39.736938%, 72.198486%)" fill-opacity="1" d="M 333.175781 986.859375 C 318.699219 731.78125 309.214844 724.292969 303.414062 702.523438 C 297.671875 680.980469 297.214844 651.707031 301.539062 629.101562 C 299.121094 650.6875 300.480469 676.367188 305.835938 696.484375 C 311.261719 716.867188 319.410156 726.3125 326.96875 723.355469 "/>
<path fill-rule="nonzero" fill="rgb(21.868896%, 39.736938%, 72.198486%)" fill-opacity="1" d="M 317.105469 480.355469 C 322.78125 585.625 332.277344 593.09375 338.082031 614.882812 C 343.820312 636.425781 344.273438 665.699219 339.949219 688.308594 C 342.367188 666.722656 341.011719 641.035156 335.65625 620.917969 C 330.21875 600.539062 322.070312 591.09375 314.515625 594.054688 "/>
<path fill-rule="nonzero" fill="rgb(21.772766%, 62.173462%, 23.87085%)" fill-opacity="1" d="M 320.890625 778.605469 L 336.527344 778.605469 L 335.226562 811.570312 L 319.601562 811.570312 Z M 320.890625 778.605469 "/>
<path fill-rule="nonzero" fill="rgb(21.772766%, 62.173462%, 23.87085%)" fill-opacity="1" d="M 322.640625 733.046875 L 338.28125 733.046875 L 336.972656 766.03125 L 321.351562 766.03125 Z M 322.640625 733.046875 "/>
<path fill-rule="nonzero" fill="rgb(21.772766%, 62.173462%, 23.87085%)" fill-opacity="1" d="M 324.511719 688.855469 L 340.144531 688.855469 L 338.839844 721.84375 L 323.21875 721.84375 Z M 324.511719 688.855469 "/>
<path fill-rule="nonzero" fill="rgb(7.914734%, 10.845947%, 14.756775%)" fill-opacity="1" d="M 314.863281 690.367188 L 322.832031 690.367188 L 317.289062 825.769531 L 334.660156 825.769531 L 332.820312 872.285156 L 307.480469 872.285156 Z M 314.863281 690.367188 "/>
<path fill-rule="nonzero" fill="rgb(7.914734%, 10.845947%, 14.756775%)" fill-opacity="1" d="M 321.46875 519.222656 L 329.433594 519.222656 L 325.066406 629.425781 L 342.433594 629.425781 L 340.59375 675.925781 L 315.253906 675.925781 Z M 321.46875 519.222656 "/>
<path fill-rule="nonzero" fill="rgb(7.914734%, 10.845947%, 14.756775%)" fill-opacity="1" d="M 360.953125 987.140625 L 366.402344 987.140625 L 366.402344 973.984375 L 362.972656 973.984375 L 362.972656 958.253906 L 366.101562 958.253906 L 366.101562 945.097656 L 362.972656 945.097656 L 362.972656 930.753906 L 366.289062 930.753906 L 366.289062 917.597656 L 360.953125 917.597656 Z M 367.660156 987.140625 L 369.515625 987.140625 L 369.453125 939.628906 L 369.476562 939.628906 L 372.117188 987.140625 L 374.621094 987.140625 L 374.621094 917.597656 L 372.773438 917.597656 L 372.808594 964.824219 L 372.785156 964.824219 L 370.234375 917.597656 L 367.660156 917.597656 Z M 383.050781 946.484375 L 379.914062 946.484375 L 379.914062 959.644531 L 381.097656 959.644531 L 381.097656 973.410156 C 363.980469 720.128906 363.777344 720.234375 363.570312 720.234375 C 362.429688 720.234375 361.605469 718.113281 361.605469 714.625 C 361.605469 710.484375 362.65625 708.890625 363.917969 708.890625 C 364.289062 708.890625 364.859375 709.15625 365.351562 710.035156 L 382.84375 919.492188 C 364.90625 705.507812 364.089844 705.382812 363.703125 705.382812 C 361.554688 705.382812 359.996094 707.929688 359.996094 714.625 C 359.996094 721.335938 361.804688 723.742188 363.367188 723.742188 C 363.90625 723.742188 364.644531 723.679688 365.632812 722.929688 Z M 384.585938 987.140625 L 386.609375 987.140625 L 386.609375 917.59375 L 384.585938 917.59375 Z M 388.144531 987.140625 L 389.992188 987.140625 L 389.933594 939.628906 L 389.953125 939.628906 L 392.59375 987.140625 L 395.097656 987.140625 L 395.097656 917.597656 L 393.257812 917.597656 L 393.289062 964.824219 L 393.265625 964.824219 L 390.710938 917.597656 L 388.144531 917.597656 Z M 396.488281 987.140625 L 401.9375 987.140625 L 401.9375 973.984375 L 398.496094 973.984375 L 398.496094 958.253906 L 401.636719 958.253906 L 401.636719 945.097656 L 398.496094 945.097656 L 398.496094 930.753906 L 401.816406 930.753906 L 401.816406 917.597656 L 396.488281 917.597656 Z M 403.105469 987.140625 L 408.554688 987.140625 L 408.554688 973.984375 L 405.121094 973.984375 L 405.121094 958.253906 L 408.253906 958.253906 L 408.253906 945.097656 L 405.121094 945.097656 L 405.121094 930.753906 L 408.441406 930.753906 L 408.441406 917.597656 L 403.105469 917.597656 Z M 409.722656 987.140625 L 411.738281 987.140625 L 411.738281 959.644531 L 412.164062 959.644531 C 388.78125 716.414062 388.984375 717.175781 389.308594 720.234375 L 414.015625 987.140625 L 416.121094 987.140625 L 415.382812 968.210938 C 390.40625 716.4375 390.375 715.09375 389.871094 714.683594 L 414.3125 952.664062 C 390.621094 714.09375 390.992188 712.519531 390.992188 710.152344 C 390.992188 707.09375 390.148438 705.6875 389.105469 705.6875 L 409.722656 917.597656 Z M 411.738281 930.753906 L 412.269531 930.753906 C 388.882812 709.03125 389.433594 709.339844 389.433594 710.988281 C 389.433594 713.011719 388.796875 713.054688 388.292969 713.054688 L 411.738281 946.484375 Z M 417.105469 987.140625 L 419.121094 987.140625 L 419.121094 917.59375 L 417.105469 917.59375 Z M 420.660156 987.140625 L 422.515625 987.140625 L 422.449219 939.628906 L 422.46875 939.628906 L 425.113281 987.140625 L 427.613281 987.140625 L 427.613281 917.597656 L 425.773438 917.597656 L 425.808594 964.824219 L 425.789062 964.824219 L 423.226562 917.597656 L 420.660156 917.597656 Z M 436.046875 946.484375 L 432.914062 946.484375 L 432.914062 959.644531 L 434.097656 959.644531 L 434.097656 973.410156 C 405.066406 720.128906 404.867188 720.234375 404.652344 720.234375 C 403.511719 720.234375 402.695312 718.113281 402.695312 714.625 C 402.695312 710.484375 403.738281 708.890625 405.007812 708.890625 C 405.378906 708.890625 405.949219 709.15625 406.433594 710.035156 L 435.839844 919.492188 C 405.988281 705.507812 405.175781 705.382812 404.785156 705.382812 C 402.636719 705.382812 401.085938 707.929688 401.085938 714.625 C 401.085938 721.335938 402.890625 723.742188 404.449219 723.742188 C 404.988281 723.742188 405.726562 723.679688 406.722656 722.929688 Z M 436.046875 946.484375 "/>
<path fill-rule="nonzero" fill="rgb(7.914734%, 10.845947%, 14.756775%)" fill-opacity="1" d="M 440.660156 987.140625 L 444.746094 987.140625 L 444.746094 976.1875 L 442.261719 976.1875 L 442.261719 931.753906 L 440.660156 931.753906 Z M 444.980469 955.785156 L 445.867188 955.785156 L 445.867188 972.617188 C 414.339844 722.234375 414.601562 723.679688 415.675781 723.679688 C 415.980469 723.679688 416.199219 723.5625 416.429688 723.476562 L 448.523438 978.023438 C 416.269531 721.152344 416.140625 721.253906 416.027344 721.253906 C 415.640625 721.253906 415.542969 720.601562 415.542969 719.316406 L 447.425781 955.785156 L 448.515625 955.785156 L 448.515625 945.808594 L 447.425781 945.808594 L 447.425781 932.160156 L 445.894531 936.507812 L 445.894531 945.808594 L 444.980469 945.808594 Z M 454.042969 927.632812 L 452.476562 927.632812 L 452.476562 951.113281 L 452.464844 951.113281 C 419.144531 713.011719 418.734375 712.644531 418.25 712.644531 C 417.289062 712.644531 416.757812 715.378906 416.757812 717.96875 C 416.757812 721.089844 417.316406 723.679688 418.351562 723.679688 C 418.90625 723.679688 419.398438 722.71875 419.554688 721.539062 L 452.613281 979.777344 L 452.613281 987.140625 L 454.042969 987.140625 Z M 450.597656 966.046875 C 418 716.640625 418.261719 715.417969 418.734375 715.417969 C 419.175781 715.417969 419.472656 716.585938 419.472656 718.191406 C 419.472656 719.722656 419.136719 720.886719 418.734375 720.886719 C 418.277344 720.886719 418 719.722656 418 718.050781 Z M 455.085938 987.140625 L 456.539062 987.140625 L 456.539062 974.289062 L 455.085938 974.289062 Z M 455.085938 987.140625 "/>
<path fill-rule="nonzero" fill="rgb(7.914734%, 10.845947%, 14.756775%)" fill-opacity="1" d="M 388.375 863.921875 L 388.375 738.289062 L 378.203125 563.46875 L 377.785156 556.351562 L 387.371094 556.351562 L 387.507812 559.289062 L 390.832031 630.894531 C 372.054688 635.238281 372.382812 637.648438 372.695312 639.996094 C 372.882812 641.402344 373.0625 642.835938 373.257812 644.300781 C 373.433594 642.910156 373.613281 641.507812 373.800781 640.035156 C 374.132812 637.527344 374.460938 635.121094 374.824219 632.488281 L 394.902344 630.914062 L 398.175781 559.328125 L 398.308594 556.351562 L 407.78125 556.351562 L 407.339844 563.574219 L 396.738281 736.128906 L 396.738281 863.921875 Z M 388.375 863.921875 "/>
<path fill-rule="nonzero" fill="rgb(7.914734%, 10.845947%, 14.756775%)" fill-opacity="1" d="M 407.9375 863.921875 L 407.9375 556.351562 L 417.328125 556.351562 L 417.484375 558.800781 L 424.210938 667.921875 L 424.210938 667.945312 C 398.296875 645.992188 399.050781 650.421875 399.753906 654.886719 C 400.101562 657.132812 400.445312 659.378906 400.769531 661.621094 C 400.703125 658.886719 400.648438 656.128906 400.605469 653.300781 C 400.53125 647.953125 400.507812 642.503906 400.507812 636.789062 L 428.023438 556.351562 L 435.8125 556.351562 L 435.8125 863.921875 L 427.285156 863.921875 L 427.136719 861.410156 L 420.210938 746.511719 C 393.652344 657.683594 392.820312 652.886719 392.019531 647.992188 C 391.605469 645.402344 391.195312 642.792969 390.8125 640.222656 C 390.851562 643.484375 390.886719 646.851562 390.90625 650.339844 C 390.945312 655.96875 390.96875 661.765625 390.96875 667.824219 L 415.722656 863.921875 Z M 407.9375 863.921875 "/>
<path fill-rule="nonzero" fill="rgb(7.914734%, 10.845947%, 14.756775%)" fill-opacity="1" d="M 441.050781 785.355469 C 411.414062 673.167969 412.464844 674.429688 413.640625 675.328125 C 414.601562 676.046875 415.648438 676.515625 416.710938 676.515625 C 417.898438 676.515625 418.808594 675.820312 419.410156 674.554688 C 419.988281 673.371094 420.285156 671.617188 420.285156 669.515625 C 420.285156 667.535156 420.035156 665.984375 419.464844 664.558594 C 418.828125 662.988281 417.820312 661.5625 416.355469 659.96875 C 414.210938 657.703125 412.4375 654.769531 411.1875 650.929688 C 409.910156 647.03125 409.1875 642.21875 409.1875 636.34375 C 409.1875 629.328125 410.183594 623.144531 411.988281 618.757812 C 413.6875 614.679688 416.105469 612.207031 419.097656 612.207031 C 420.539062 612.207031 421.796875 612.65625 422.890625 613.394531 C 423.980469 614.109375 424.898438 615.105469 425.671875 616.144531 L 460.902344 568.632812 L 460.78125 572.628906 L 459.148438 627.019531 L 458.984375 632.628906 L 458.410156 630.101562 C 423.578125 631.566406 422.90625 630.691406 422.050781 630 C 421.207031 629.308594 420.175781 628.796875 418.988281 628.796875 C 417.90625 628.796875 417.105469 629.46875 416.5625 630.550781 C 416.011719 631.671875 415.742188 633.222656 415.742188 634.894531 C 415.742188 636.855469 416.039062 638.300781 416.675781 639.648438 C 417.402344 641.179688 418.539062 642.609375 420.132812 644.441406 L 453.34375 677.738281 C 422.414062 646.992188 424.09375 650.09375 425.214844 653.96875 C 426.363281 657.925781 426.914062 662.621094 426.914062 668.273438 C 426.914062 675.390625 425.960938 681.984375 423.980469 686.609375 C 422.238281 690.671875 419.71875 693.203125 416.382812 693.203125 C 415.019531 693.203125 413.660156 692.6875 412.460938 691.875 C 411.0625 690.953125 409.859375 689.632812 409.066406 688.308594 L 438.71875 847.785156 L 438.8125 844.191406 L 440.296875 788.496094 L 440.460938 782.5625 Z M 441.050781 785.355469 "/>
<path fill-rule="nonzero" fill="rgb(7.914734%, 10.845947%, 14.756775%)" fill-opacity="1" d="M 464.941406 556.328125 L 473.257812 556.328125 L 473.257812 677.636719 C 435.730469 643.648438 435.890625 642.871094 436.046875 642.117188 L 473.878906 668.660156 C 436.242188 641.199219 436.433594 640.28125 436.636719 639.304688 L 474.640625 657.457031 L 481.992188 558.449219 L 482.152344 556.328125 L 492.5 556.328125 L 491.835938 564.183594 L 481.339844 688.386719 L 492.449219 856.554688 L 492.9375 863.921875 L 483.136719 863.921875 L 482.988281 861.453125 L 475.433594 739.003906 L 473.257812 763.546875 L 473.257812 863.921875 L 464.941406 863.921875 Z M 464.941406 556.328125 "/>
<path fill-rule="nonzero" fill="rgb(7.914734%, 10.845947%, 14.756775%)" fill-opacity="1" d="M 514.597656 737.945312 L 502.675781 737.945312 L 502.675781 798.941406 L 515.992188 798.941406 L 515.992188 863.921875 L 494.265625 863.921875 L 494.265625 556.328125 L 515.3125 556.328125 L 515.3125 621.304688 L 502.675781 621.304688 L 502.675781 673.433594 L 514.597656 673.433594 Z M 514.597656 737.945312 "/>
<path fill-rule="nonzero" fill="rgb(7.914734%, 10.845947%, 14.756775%)" fill-opacity="1" d="M 360.242188 552.980469 L 360.242188 803.550781 C 347.957031 679.777344 347.957031 692.792969 353.257812 692.792969 L 384.382812 867.164062 L 384.382812 788.496094 L 370.160156 788.496094 L 370.160156 552.980469 Z M 360.242188 552.980469 "/>
<path fill-rule="nonzero" fill="rgb(7.914734%, 10.845947%, 14.756775%)" fill-opacity="1" d="M 516.039062 552.980469 L 526.917969 739.65625 L 526.917969 867.164062 L 535.992188 867.164062 L 535.992188 745.160156 L 526.339844 552.980469 Z M 516.039062 552.980469 "/>
<path fill-rule="nonzero" fill="rgb(21.868896%, 39.736938%, 72.198486%)" fill-opacity="1" d="M 541.570312 655.988281 L 547.089844 552.980469 L 538.171875 552.980469 L 532.640625 655.988281 Z M 541.570312 655.988281 "/>
</svg>
