<?xml version="1.0" encoding="UTF-8"?>
<svg xmlns="http://www.w3.org/2000/svg" xmlns:xlink="http://www.w3.org/1999/xlink" width="841.698" height="1190.28" viewBox="0 0 841.698 1190.28">
<path fill-rule="evenodd" fill="rgb(67.842102%, 10.980225%, 18.03894%)" fill-opacity="1" d="M 475.285156 586.226562 L 475.730469 586.078125 C 474.988281 584.597656 475.210938 584.199219 473.648438 583.65625 C 473.574219 583.066406 473.5 581.976562 473.199219 581.484375 C 472.53125 580.25 472.53125 581.929688 472.378906 579.511719 L 471.636719 579.5625 L 471.785156 581.683594 C 472.53125 581.878906 471.488281 581.386719 472.902344 581.878906 L 473.273438 584.300781 C 475.058594 584.890625 474.097656 585.039062 475.285156 586.226562 "/>
<path fill-rule="evenodd" fill="rgb(67.842102%, 10.980225%, 18.03894%)" fill-opacity="1" d="M 478.859375 574.871094 L 480.574219 574.03125 L 479.976562 573.734375 C 479.007812 574.179688 479.382812 573.882812 478.859375 574.871094 "/>
<path fill-rule="evenodd" fill="rgb(67.842102%, 10.980225%, 18.03894%)" fill-opacity="1" d="M 475.804688 598.910156 C 478.335938 598.910156 484.519531 597.925781 483.847656 594.617188 C 481.539062 594.125 481.691406 596.542969 477.816406 598.515625 C 475.359375 599.699219 475.878906 599.011719 475.804688 598.910156 "/>
<path fill-rule="evenodd" fill="rgb(67.842102%, 10.980225%, 18.03894%)" fill-opacity="1" d="M 443.339844 576.453125 C 443.339844 575.019531 443.339844 575.265625 441.695312 574.722656 C 440.359375 574.277344 440.210938 573.980469 439.6875 575.164062 C 440.285156 575.957031 442.21875 576.203125 443.339844 576.453125 "/>
<path fill-rule="evenodd" fill="rgb(67.842102%, 10.980225%, 18.03894%)" fill-opacity="1" d="M 443.859375 574.917969 C 444.007812 576.402344 444.457031 576.894531 445.945312 577.535156 L 445.867188 574.722656 Z M 443.859375 574.917969 "/>
<path fill-rule="evenodd" fill="rgb(67.842102%, 10.980225%, 18.03894%)" fill-opacity="1" d="M 489.136719 596.492188 C 488.914062 595.210938 488.691406 594.863281 487.199219 595.355469 L 487.722656 597.132812 Z M 489.136719 596.492188 "/>
<path fill-rule="evenodd" fill="rgb(67.842102%, 10.980225%, 18.03894%)" fill-opacity="1" d="M 482.210938 589.777344 C 480.722656 589.878906 480.945312 591.210938 482.359375 591.554688 Z M 482.210938 589.777344 "/>
<path fill-rule="evenodd" fill="rgb(100%, 100%, 100%)" fill-opacity="1" d="M 461.734375 558.234375 C 462.625 557.789062 461.957031 557.789062 463.074219 558.085938 C 463.816406 559.320312 463.667969 559.515625 463.667969 560.851562 L 464.859375 561.246094 C 465.679688 560.257812 466.496094 558.382812 465.382812 557.34375 C 465.304688 553.988281 459.570312 554.382812 459.648438 557.9375 C 459.050781 558.824219 459.273438 559.613281 459.871094 560.554688 L 461.433594 560.503906 Z M 461.734375 558.234375 "/>
<path fill-rule="evenodd" fill="rgb(100%, 100%, 100%)" fill-opacity="1" d="M 449.222656 560.605469 C 449.820312 561.441406 449.96875 561.292969 451.007812 561.488281 C 452.421875 561.738281 453.246094 561.738281 454.511719 561.097656 L 453.316406 560.554688 L 448.847656 559.863281 L 448.921875 560.652344 Z M 449.222656 560.605469 "/>
<path fill-rule="evenodd" fill="rgb(67.842102%, 10.980225%, 18.03894%)" fill-opacity="1" d="M 466.644531 597.679688 C 467.164062 597.433594 471.859375 598.515625 475.507812 596.542969 C 477.519531 595.453125 481.613281 592.988281 477.964844 591.210938 C 477.148438 591.851562 476.625 592.789062 475.730469 593.628906 C 473.351562 595.753906 469.996094 597.480469 466.644531 597.679688 "/>
<path fill-rule="evenodd" fill="rgb(67.842102%, 10.980225%, 18.03894%)" fill-opacity="1" d="M 437.378906 605.972656 C 437.53125 605.824219 440.433594 602.515625 440.808594 602.070312 C 442.070312 600.59375 442.667969 598.8125 443.484375 597.085938 C 444.378906 595.355469 445.050781 593.578125 445.71875 591.652344 C 446.316406 589.925781 447.804688 587.40625 445.496094 586.863281 C 444.457031 588.640625 443.339844 594.910156 442.21875 597.578125 C 441.175781 600.246094 440.359375 602.171875 438.722656 604.539062 C 438.722656 604.636719 437.976562 605.625 437.976562 605.625 C 437.53125 606.167969 437.898438 606.117188 437.378906 605.972656 "/>
<path fill-rule="evenodd" fill="rgb(67.842102%, 10.980225%, 18.03894%)" fill-opacity="1" d="M 472.753906 598.515625 C 475.285156 598.367188 476.996094 598.171875 479.230469 596.890625 C 480.871094 596 483.773438 593.777344 480.347656 592.890625 C 478.484375 595.113281 476.179688 598.121094 472.753906 598.515625 "/>
<path fill-rule="evenodd" fill="rgb(67.842102%, 10.980225%, 18.03894%)" fill-opacity="1" d="M 469.625 578.917969 C 471.859375 579.359375 474.242188 578.375 474.316406 576.105469 L 471.261719 575.414062 C 470.59375 576.5 469.179688 577.683594 469.625 578.917969 "/>
<path fill-rule="evenodd" fill="rgb(67.842102%, 10.980225%, 18.03894%)" fill-opacity="1" d="M 482.28125 574.722656 C 483.625 574.871094 485.710938 572.699219 487.199219 571.957031 C 485.933594 571.117188 485.863281 571.613281 484.890625 570.183594 C 485.265625 571.859375 480.648438 572.75 482.28125 574.722656 "/>
<path fill-rule="evenodd" fill="rgb(67.842102%, 10.980225%, 18.03894%)" fill-opacity="1" d="M 478.859375 574.871094 C 478.933594 575.414062 478.5625 576.351562 479.675781 576.84375 C 480.871094 577.339844 481.691406 576.84375 482.433594 576.402344 C 482.507812 575.164062 481.613281 574.773438 480.722656 573.390625 L 479.976562 573.734375 L 480.574219 574.03125 Z M 478.859375 574.871094 "/>
<path fill-rule="evenodd" fill="rgb(67.842102%, 10.980225%, 18.03894%)" fill-opacity="1" d="M 498.070312 590.765625 C 501.054688 588.34375 495.019531 587.113281 493.753906 588.542969 L 494.273438 589.136719 C 494.5 589.285156 494.792969 589.335938 495.019531 589.386719 C 498.445312 590.320312 497.03125 590.621094 498.070312 590.765625 "/>
<path fill-rule="evenodd" fill="rgb(67.842102%, 10.980225%, 18.03894%)" fill-opacity="1" d="M 438.273438 575.5625 C 439.6875 574.03125 441.175781 572.550781 437.75 572.300781 C 435.816406 573.488281 435.964844 575.164062 438.273438 575.5625 "/>
<path fill-rule="evenodd" fill="rgb(67.842102%, 10.980225%, 18.03894%)" fill-opacity="1" d="M 432.765625 570.769531 C 433.582031 571.859375 434.398438 572.597656 435.816406 573.242188 L 436.933594 572.058594 C 436.117188 571.265625 435.371094 570.425781 434.847656 569.488281 Z M 432.765625 570.769531 "/>
<path fill-rule="evenodd" fill="rgb(67.842102%, 10.980225%, 18.03894%)" fill-opacity="1" d="M 483.625 584.351562 C 481.242188 584.199219 479.53125 585.238281 481.464844 587.113281 L 484.074219 586.277344 C 484.59375 585.238281 484.21875 585.1875 483.625 584.351562 "/>
<path fill-rule="evenodd" fill="rgb(67.842102%, 10.980225%, 18.03894%)" fill-opacity="1" d="M 486.976562 588.742188 C 487.351562 588.496094 488.988281 587.65625 489.0625 587.65625 C 489.957031 586.914062 489.359375 585.929688 488.242188 585.832031 C 486.824219 585.78125 484.890625 587.90625 486.976562 588.742188 "/>
<path fill-rule="evenodd" fill="rgb(67.842102%, 10.980225%, 18.03894%)" fill-opacity="1" d="M 474.6875 577.632812 C 476.253906 577.785156 477.296875 577.386719 478.785156 576.894531 L 478.191406 575.660156 L 475.058594 576.351562 Z M 474.6875 577.632812 "/>
<path fill-rule="evenodd" fill="rgb(79.998779%, 7.058716%, 17.254639%)" fill-opacity="1" d="M 504.253906 579.859375 C 502.761719 580.546875 501.796875 582.078125 501.644531 583.707031 C 503.507812 584.695312 503.734375 583.410156 508.496094 581.78125 C 509.984375 581.289062 514.679688 580.398438 515.425781 579.3125 C 514.976562 578.128906 513.261719 577.980469 511.773438 577.980469 L 512.296875 578.71875 C 511.328125 579.710938 508.871094 580.203125 507.378906 580.644531 C 506.265625 580.992188 506.339844 581.1875 505.222656 581.78125 C 505.074219 581.832031 503.953125 582.375 503.953125 582.375 L 502.914062 582.324219 C 502.839844 582.273438 502.761719 582.324219 502.613281 582.273438 C 503.136719 580.746094 503.734375 581.140625 504.253906 579.859375 "/>
<path fill-rule="evenodd" fill="rgb(79.998779%, 7.058716%, 17.254639%)" fill-opacity="1" d="M 475.285156 586.226562 C 474.097656 585.039062 475.058594 584.890625 473.273438 584.300781 L 472.902344 581.878906 C 471.488281 581.386719 472.53125 581.878906 471.785156 581.683594 L 471.636719 579.5625 L 469.101562 579.808594 C 468.882812 581.730469 472.378906 585.730469 473.648438 587.210938 Z M 475.285156 586.226562 "/>
<path fill-rule="evenodd" fill="rgb(79.998779%, 7.058716%, 17.254639%)" fill-opacity="1" d="M 496.730469 576.453125 C 496.882812 577.191406 497.253906 576.84375 498.296875 577.242188 C 498.21875 578.128906 498 578.570312 497.925781 579.609375 C 497.925781 580.546875 498.070312 580.941406 497.925781 581.976562 C 495.914062 581.4375 493.832031 578.230469 494.273438 576.152344 L 495.464844 576.253906 C 494.71875 575.609375 495.167969 575.757812 493.902344 575.707031 C 492.636719 577.683594 496.65625 583.753906 498.667969 583.753906 C 498.964844 582.820312 498.523438 581.535156 498.59375 580.203125 C 498.742188 578.96875 499.117188 577.832031 499.261719 576.648438 Z M 496.730469 576.453125 "/>
<path fill-rule="evenodd" fill="rgb(67.842102%, 10.980225%, 18.03894%)" fill-opacity="1" d="M 492.414062 607.402344 C 491.894531 606.019531 489.660156 604.539062 487.273438 598.070312 C 486.15625 595.0625 484.964844 587.90625 483.625 587.066406 C 482.0625 587.707031 482.433594 588.199219 482.878906 589.730469 C 483.105469 590.765625 483.550781 591.652344 483.847656 592.59375 C 487.945312 604.34375 491.59375 605.578125 492.414062 607.402344 "/>
<path fill-rule="evenodd" fill="rgb(67.842102%, 10.980225%, 18.03894%)" fill-opacity="1" d="M 488.988281 588.34375 C 486.902344 589.53125 488.09375 591.554688 488.839844 593.53125 C 490.179688 596.9375 494.125 604.734375 496.957031 606.167969 C 491.519531 601.28125 490.625 590.371094 488.988281 588.34375 "/>
<path fill-rule="evenodd" fill="rgb(67.842102%, 10.980225%, 18.03894%)" fill-opacity="1" d="M 498.523438 602.515625 C 499.117188 603.15625 499.117188 602.8125 499.710938 603.550781 C 494.574219 597.132812 494.644531 591.652344 492.785156 590.46875 L 491.894531 591.359375 C 492.933594 594.222656 495.09375 598.617188 497.253906 601.035156 C 497.847656 601.625 498 602.070312 498.523438 602.515625 "/>
<path fill-rule="evenodd" fill="rgb(100%, 100%, 100%)" fill-opacity="1" d="M 452.945312 573.832031 C 454.582031 576.105469 455.773438 578.277344 459.496094 577.734375 C 460.914062 577.535156 462.027344 576.746094 463 575.804688 C 463.59375 575.265625 464.859375 573.4375 465.082031 572.796875 C 462.921875 573.734375 461.804688 574.328125 459.273438 574.476562 C 456.667969 574.671875 456.070312 574.375 454.207031 573.785156 C 453.019531 573.390625 453.539062 572.992188 452.945312 573.832031 "/>
<path fill-rule="evenodd" fill="rgb(100%, 100%, 100%)" fill-opacity="1" d="M 463 559.761719 C 463.59375 558.628906 463.519531 558.925781 462.699219 558.28125 C 462.105469 559.171875 461.878906 559.171875 463 559.761719 "/>
<path fill-rule="evenodd" fill="rgb(91.371155%, 17.64679%, 21.960449%)" fill-opacity="1" d="M 499.859375 583.558594 C 501.574219 583.015625 502.242188 577.929688 509.316406 577.140625 C 508.125 576.84375 507.378906 576.253906 505.445312 576.105469 C 503.808594 575.957031 501.945312 575.855469 500.382812 576.304688 C 499.335938 577.929688 498.371094 581.976562 499.859375 583.558594 "/>
<path fill-rule="evenodd" fill="rgb(79.998779%, 7.058716%, 17.254639%)" fill-opacity="1" d="M 452.871094 587.210938 C 454.207031 591.210938 466.570312 591.0625 467.835938 586.128906 C 465.601562 586.519531 462.625 589.039062 456.667969 588.050781 C 455.253906 587.804688 454.207031 587.308594 452.871094 587.210938 "/>
<path fill-rule="evenodd" fill="rgb(67.842102%, 10.980225%, 18.03894%)" fill-opacity="1" d="M 455.550781 592 C 460.539062 598.515625 476.550781 592.59375 472.605469 586.964844 C 470.144531 588.84375 469.25 590.320312 465.679688 591.507812 C 461.285156 592.988281 459.570312 591.949219 455.550781 592 "/>
<path fill-rule="evenodd" fill="rgb(67.842102%, 10.980225%, 18.03894%)" fill-opacity="1" d="M 462.328125 595.953125 C 465.453125 596.890625 467.765625 597.382812 471.488281 595.753906 C 473.351562 594.910156 478.335938 591.898438 474.464844 590.273438 C 471.636719 592.398438 470.222656 594.074219 465.902344 595.160156 Z M 462.328125 595.953125 "/>
<path fill-rule="evenodd" fill="rgb(67.842102%, 10.980225%, 18.03894%)" fill-opacity="1" d="M 497.402344 590.816406 C 495.988281 589.925781 495.464844 589.632812 493.527344 589.828125 L 494.5 592.59375 C 496.136719 592.296875 496.957031 592.246094 497.402344 590.816406 "/>
<path fill-rule="evenodd" fill="rgb(91.371155%, 17.64679%, 21.960449%)" fill-opacity="1" d="M 451.007812 561.488281 C 449.96875 561.292969 449.820312 561.441406 449.222656 560.605469 L 448.253906 561.441406 C 450.785156 565.195312 457.261719 563.367188 459.496094 563.714844 C 461.210938 563.960938 460.839844 565.09375 461.734375 566.183594 L 463.074219 566.03125 C 463.292969 565.390625 463.445312 566.726562 465.828125 565.882812 C 466.796875 565.589844 468.136719 564.898438 468.808594 564.949219 C 467.019531 564.203125 468.582031 563.960938 467.910156 562.578125 C 467.164062 561.246094 466.71875 561.789062 466.644531 563.070312 C 465.53125 563.023438 466.199219 563.417969 465.601562 562.476562 C 464.785156 561.246094 461.210938 561.046875 459.570312 561.148438 L 458.457031 561.789062 C 457.789062 559.761719 459.347656 561.886719 458.230469 559.863281 C 457.191406 560.210938 455.773438 561.246094 454.804688 561.691406 C 452.792969 562.578125 452.199219 561.738281 451.007812 561.488281 "/>
<path fill-rule="evenodd" fill="rgb(91.371155%, 17.64679%, 21.960449%)" fill-opacity="1" d="M 489.660156 565.589844 L 489.878906 566.675781 C 492.710938 567.117188 495.691406 566.628906 497.179688 563.960938 C 497.925781 562.675781 498.296875 561.789062 499.1875 560.554688 C 500.902344 558.183594 500.753906 560.058594 502.539062 559.070312 L 503.808594 555.667969 L 505.292969 556.011719 L 507.011719 550.828125 L 507.011719 549.542969 L 506.636719 549.050781 C 505.597656 550.828125 505.597656 553.296875 504.105469 554.726562 C 503.660156 554.578125 503.136719 554.679688 503.210938 553.789062 L 501.425781 557.296875 C 500.605469 557.148438 500.082031 556.902344 500.382812 556.15625 C 498.964844 561.195312 491.222656 562.183594 489.660156 565.589844 "/>
<path fill-rule="evenodd" fill="rgb(91.371155%, 17.64679%, 21.960449%)" fill-opacity="1" d="M 418.390625 556.355469 L 417.945312 557.25 C 418.6875 557.984375 419.136719 558.28125 419.953125 558.824219 C 422.414062 560.652344 418.390625 559.8125 423.082031 562.035156 C 424.199219 562.578125 424.050781 563.167969 424.796875 563.617188 C 425.464844 564.058594 429.558594 564.800781 429.78125 564.652344 C 429.113281 562.035156 421.441406 560.851562 420.027344 556.109375 L 419.433594 557.148438 Z M 418.390625 556.355469 "/>
<path fill-rule="evenodd" fill="rgb(91.371155%, 17.64679%, 21.960449%)" fill-opacity="1" d="M 504.253906 579.859375 C 503.734375 581.140625 503.136719 580.746094 502.613281 582.273438 C 502.761719 582.324219 502.839844 582.273438 502.914062 582.324219 L 503.953125 582.375 C 503.953125 582.375 505.074219 581.832031 505.222656 581.78125 C 506.339844 581.1875 506.265625 580.992188 507.378906 580.644531 C 508.871094 580.203125 511.328125 579.710938 512.296875 578.71875 L 511.773438 577.980469 C 509.316406 577.632812 505.816406 578.03125 504.253906 579.859375 "/>
<path fill-rule="evenodd" fill="rgb(91.371155%, 17.64679%, 21.960449%)" fill-opacity="1" d="M 468.730469 567.023438 C 469.847656 568.207031 468.808594 568.308594 471.113281 568.898438 C 472.453125 569.292969 473.273438 568.945312 473.050781 567.515625 C 472.605469 565.292969 470.144531 566.675781 468.730469 567.023438 "/>
<path fill-rule="evenodd" fill="rgb(100%, 100%, 100%)" fill-opacity="1" d="M 452.648438 551.222656 L 454.136719 551.617188 C 453.617188 552.902344 453.617188 551.320312 453.316406 552.949219 C 455.773438 553.742188 456.964844 553.148438 459.570312 552.949219 C 461.878906 552.703125 462.921875 551.320312 465.453125 552.65625 L 467.164062 553.445312 L 467.316406 552.605469 C 466.421875 550.386719 464.5625 551.617188 463 550.929688 C 463.742188 549.789062 464.5625 550.1875 465.972656 550.039062 C 467.019531 549.789062 466.496094 550.234375 466.71875 549.398438 C 467.09375 548.109375 464.859375 548.804688 464.339844 548.902344 C 462.476562 549.25 461.804688 548.855469 460.167969 548.753906 C 457.632812 548.609375 458.308594 549.59375 456.371094 549.839844 C 453.914062 550.1875 454.433594 550.039062 452.648438 551.222656 "/>
<path fill-rule="evenodd" fill="rgb(91.371155%, 17.64679%, 21.960449%)" fill-opacity="1" d="M 488.839844 558.628906 C 488.019531 559.863281 486.976562 560.898438 486.382812 562.378906 C 486.011719 563.566406 485.117188 566.230469 486.753906 566.628906 C 487.945312 564.355469 489.433594 563.023438 491.742188 561.789062 C 496.0625 559.566406 494.5 561.292969 497.253906 557 L 496.359375 556.355469 C 496.957031 555.074219 497.402344 555.171875 497.179688 554.382812 C 496.804688 552.949219 497.402344 553.394531 497.03125 552.554688 C 494.421875 553.644531 490.101562 556.503906 488.839844 558.628906 "/>
<path fill-rule="evenodd" fill="rgb(79.998779%, 7.058716%, 17.254639%)" fill-opacity="1" d="M 468.582031 582.523438 C 469.398438 578.71875 466.050781 581.289062 464.484375 581.929688 C 462.328125 582.820312 459.871094 583.117188 457.484375 582.769531 C 454.136719 582.324219 449.144531 579.460938 447.957031 576.695312 L 446.984375 576.796875 C 448.105469 585.679688 459.871094 587.210938 465.753906 584.25 C 466.796875 583.707031 467.316406 583.015625 468.582031 582.523438 "/>
<path fill-rule="evenodd" fill="rgb(67.842102%, 10.980225%, 18.03894%)" fill-opacity="1" d="M 507.011719 550.828125 C 508.648438 555.074219 505.519531 562.429688 502.613281 565.539062 C 501.128906 567.117188 498.742188 568.550781 496.285156 569.242188 C 494.421875 569.785156 488.988281 570.082031 488.09375 568.257812 C 486.902344 569.042969 486.753906 569.535156 486.605469 570.972656 C 493.832031 573.539062 498.667969 573.140625 503.953125 567.710938 C 507.605469 563.960938 509.835938 553.839844 507.011719 549.542969 Z M 507.011719 550.828125 "/>
<path fill-rule="evenodd" fill="rgb(67.842102%, 10.980225%, 18.03894%)" fill-opacity="1" d="M 431.574219 567.464844 C 431.644531 569.242188 425.464844 569.242188 423.898438 568.898438 C 421.21875 568.308594 419.355469 567.070312 417.644531 565.390625 C 413.621094 561.390625 412.730469 556.949219 413.25 551.371094 C 411.09375 553.691406 412.582031 569.292969 423.898438 571.363281 C 426.65625 571.859375 432.019531 570.625 433.136719 569.933594 C 432.765625 568.453125 432.988281 568.355469 431.574219 567.464844 "/>
<path fill-rule="evenodd" fill="rgb(67.842102%, 10.980225%, 18.03894%)" fill-opacity="1" d="M 468.582031 582.523438 C 467.316406 583.015625 466.796875 583.707031 465.753906 584.25 C 459.871094 587.210938 448.105469 585.679688 446.984375 576.796875 L 447.957031 576.695312 C 447.507812 575.855469 448.328125 576.453125 447.058594 575.757812 L 446.761719 576.351562 C 446.6875 576.453125 446.6875 576.550781 446.613281 576.648438 C 446.613281 576.796875 446.539062 576.84375 446.539062 576.945312 C 446.390625 577.734375 446.984375 579.410156 447.285156 580.105469 C 449.59375 585.976562 456.742188 588.199219 462.847656 586.421875 C 465.082031 585.832031 467.988281 584.742188 468.582031 582.523438 "/>
<path fill-rule="evenodd" fill="rgb(76.077271%, 74.900818%, 72.155762%)" fill-opacity="1" d="M 444.15625 546.730469 C 445.347656 549.101562 448.773438 550.828125 451.679688 550.777344 C 450.5625 550.679688 449.59375 550.285156 448.847656 549.445312 C 451.304688 550.1875 450.785156 549.988281 451.082031 549.398438 C 452.945312 549.742188 453.246094 549.25 454.878906 548.507812 C 454.207031 547.917969 453.835938 548.015625 453.390625 547.175781 C 456.070312 548.507812 458.007812 547.421875 460.839844 547.125 C 463.519531 546.929688 467.09375 547.769531 468.730469 547.472656 C 469.554688 545.347656 469.25 545.546875 469.027344 543.421875 C 470.074219 545.644531 470.144531 546.089844 468.808594 547.964844 C 469.773438 547.964844 469.328125 548.160156 470.371094 547.570312 C 469.925781 548.3125 469.398438 548.609375 468.507812 548.707031 C 472.007812 549 475.730469 546.632812 476.328125 543.324219 C 475.136719 544.167969 475.585938 544.117188 474.167969 543.667969 C 471.335938 542.832031 469.925781 544.117188 468.363281 541.792969 C 467.242188 542.78125 467.691406 543.867188 465.382812 544.117188 C 463.742188 544.265625 462.175781 543.867188 460.539062 543.917969 C 458.605469 543.917969 457.789062 544.609375 456.144531 544.855469 C 453.835938 545.199219 453.464844 544.410156 451.679688 544.167969 C 450.039062 547.816406 447.957031 547.472656 444.15625 546.730469 "/>
<path fill-rule="evenodd" fill="rgb(76.077271%, 74.900818%, 72.155762%)" fill-opacity="1" d="M 452.648438 551.222656 C 454.433594 550.039062 453.914062 550.1875 456.371094 549.839844 C 458.308594 549.59375 457.632812 548.609375 460.167969 548.753906 C 461.804688 548.855469 462.476562 549.25 464.339844 548.902344 C 464.859375 548.804688 467.09375 548.109375 466.71875 549.398438 C 466.496094 550.234375 467.019531 549.789062 465.972656 550.039062 L 467.691406 550.484375 L 467.617188 548.3125 C 464.265625 546.285156 455.996094 548.261719 452.421875 550.1875 Z M 452.648438 551.222656 "/>
<path fill-rule="evenodd" fill="rgb(79.998779%, 7.058716%, 17.254639%)" fill-opacity="1" d="M 454.207031 577.882812 C 455.550781 578.472656 456.742188 579.460938 458.308594 579.609375 C 461.0625 579.859375 460.761719 578.621094 463.074219 578.082031 C 461.136719 581.585938 456.070312 581.78125 454.207031 577.882812 Z M 473.050781 567.515625 C 473.273438 568.945312 472.453125 569.292969 471.113281 568.898438 C 468.808594 568.308594 469.847656 568.207031 468.730469 567.023438 C 468.136719 569.242188 468.882812 566.675781 467.464844 568.550781 C 467.09375 569.042969 467.019531 569.4375 466.796875 570.035156 C 466.496094 571.070312 466.277344 572.25 465.53125 572.847656 C 464.785156 577.089844 458.082031 580.746094 453.984375 576.351562 C 452.125 574.226562 452.125 571.761719 450.785156 570.574219 C 449.371094 569.242188 447.582031 567.5625 445.648438 566.773438 C 444.304688 573.882812 451.601562 582.125 459.570312 582.125 C 469.027344 582.078125 474.539062 568.75 473.050781 567.515625 "/>
<path fill-rule="evenodd" fill="rgb(79.998779%, 7.058716%, 17.254639%)" fill-opacity="1" d="M 463.074219 566.03125 L 461.734375 566.183594 C 460.839844 565.09375 461.210938 563.960938 459.496094 563.714844 C 457.261719 563.367188 450.785156 565.195312 448.253906 561.441406 L 449.222656 560.605469 L 448.921875 560.652344 L 448.847656 559.863281 C 446.6875 560.800781 448.105469 564.304688 448.402344 566.03125 L 448.175781 566.082031 C 449.515625 567.265625 450.933594 571.710938 456.964844 572.550781 C 461.433594 573.140625 464.859375 570.671875 466.871094 567.808594 L 464.265625 568.503906 C 467.316406 564.949219 485.785156 564.703125 486.382812 555.617188 C 484.144531 556.902344 486.304688 557.199219 482.210938 560.457031 C 479.457031 562.625 472.679688 564.109375 469.179688 565.144531 C 467.464844 565.636719 463.667969 567.910156 463.074219 566.03125 "/>
<path fill-rule="evenodd" fill="rgb(100%, 100%, 100%)" fill-opacity="1" d="M 444.15625 546.730469 C 447.957031 547.472656 450.039062 547.816406 451.679688 544.167969 C 453.464844 544.410156 453.835938 545.199219 456.144531 544.855469 C 457.789062 544.609375 458.605469 543.917969 460.539062 543.917969 C 462.175781 543.867188 463.742188 544.265625 465.382812 544.117188 C 467.691406 543.867188 467.242188 542.78125 468.363281 541.792969 C 469.925781 544.117188 471.335938 542.832031 474.167969 543.667969 C 475.585938 544.117188 475.136719 544.167969 476.328125 543.324219 C 477.738281 538.238281 471.707031 533.351562 466.347656 537.152344 L 467.019531 538.929688 C 465.601562 537.648438 465.679688 537.054688 463.59375 535.773438 C 459.570312 533.304688 452.5 533.894531 451.679688 541.300781 C 450.710938 539.671875 451.230469 539.769531 448.625 539.523438 C 447.210938 539.375 445.71875 539.476562 444.457031 540.265625 C 442.371094 541.644531 442.441406 545.25 444.15625 546.730469 "/>
<path fill-rule="evenodd" fill="rgb(79.998779%, 7.058716%, 17.254639%)" fill-opacity="1" d="M 336.691406 653.59375 C 336.070312 649.195312 343.019531 646.859375 346.855469 646.101562 C 346.855469 650.914062 341.980469 655.105469 336.691406 653.59375 Z M 436.4375 641.359375 C 436.332031 645.070312 434.257812 656.824219 427.832031 651.601562 C 423.578125 648.09375 432.914062 641.910156 436.4375 641.359375 Z M 395.273438 635.246094 C 394.132812 638.75 386.976562 646.859375 383.453125 642.253906 C 380.65625 638.472656 384.074219 629.746094 387.085938 627.132812 C 388.328125 629.402344 387.707031 630.226562 390.089844 632.425781 C 391.957031 634.144531 393.617188 634.144531 395.273438 635.246094 Z M 413.003906 636.960938 C 414.871094 633.660156 425.445312 618.886719 424.304688 631.945312 C 423.375 643.5625 411.863281 646.929688 413.003906 640.464844 C 413.210938 640.464844 417.046875 643.351562 417.464844 639.710938 C 417.667969 636.753906 414.351562 637.648438 413.003906 636.960938 Z M 467.75 636.960938 C 468.578125 633.527344 474.074219 627.339844 477.804688 626.71875 C 477.597656 630.15625 471.066406 635.933594 467.75 636.960938 Z M 488.277344 631.121094 C 487.554688 629.605469 486.824219 625.277344 489.730469 625.757812 C 490.039062 627.683594 489.625 629.675781 488.277344 631.121094 Z M 396.414062 632.21875 C 391.644531 631.050781 388.949219 621.496094 392.886719 618.335938 C 396.308594 615.585938 397.867188 620.53125 397.96875 623.007812 C 398.074219 626.03125 397.453125 629.402344 396.414062 632.21875 Z M 440.171875 625.757812 C 439.960938 624.175781 440.269531 621.703125 442.347656 621.632812 C 442.761719 623.351562 441.308594 624.933594 440.171875 625.757812 Z M 458.835938 622.527344 C 459.558594 620.53125 461.007812 617.648438 462.667969 616.136719 L 465.363281 616.34375 Z M 355.042969 618.40625 C 353.074219 611.117188 360.539062 605.480469 365.828125 609.882812 C 368.421875 612.078125 367.175781 615.449219 364.375 616.890625 C 361.472656 618.335938 358.363281 618.679688 355.042969 618.40625 Z M 463.808594 614.210938 C 464.636719 611.945312 466.816406 609.949219 468.890625 608.914062 C 469.097656 610.359375 468.683594 611.667969 467.957031 612.90625 C 466.917969 614.625 465.777344 614.28125 463.808594 614.210938 Z M 417.566406 618.265625 C 418.1875 614.554688 420.882812 605.824219 425.03125 604.863281 C 425.132812 607.335938 419.636719 616.6875 417.566406 618.265625 Z M 412.070312 633.800781 C 413.625 626.71875 422.230469 616.960938 426.171875 608.367188 C 428.347656 603.761719 426.589844 600.121094 421.609375 603.28125 C 410.304688 610.429688 411.550781 635.175781 398.589844 633.042969 C 404.292969 619.09375 396.207031 611.117188 389.984375 616.824219 C 387.1875 619.433594 387.914062 621.21875 386.460938 623.695312 C 374.332031 628.230469 380.863281 635.792969 375.675781 643.351562 C 370.390625 650.984375 366.550781 644.726562 352.660156 642.734375 L 354.734375 621.289062 C 357.949219 619.914062 362.613281 621.359375 367.074219 617.71875 C 370.285156 615.171875 370.492188 610.222656 367.175781 607.886719 C 363.960938 605.617188 357.949219 606.03125 354.839844 608.296875 C 350.585938 611.53125 351.519531 614.898438 349.65625 617.992188 C 345.714844 617.992188 318.445312 615.515625 325.390625 625.757812 C 329.539062 626.308594 328.398438 623.761719 329.019531 621.152344 C 335.964844 619.023438 342.082031 619.433594 349.753906 620.464844 L 347.269531 643.628906 C 342.707031 645.34375 331.820312 648.234375 334.828125 654.898438 C 337.625 657.785156 343.640625 655.933594 346.644531 654.007812 C 352.140625 650.503906 350.378906 648.714844 352.761719 645.484375 C 357.535156 645.898438 361.472656 650.570312 367.589844 651.050781 C 374.847656 651.601562 375.886719 646.789062 379.203125 643.007812 C 387.085938 649.609375 394.652344 643.28125 397.660156 636 L 406.164062 633.660156 C 405.847656 636.480469 403.152344 641.289062 404.605469 643.695312 C 406.785156 645.140625 409.0625 643.28125 410.101562 641.289062 C 411.964844 643.765625 410.621094 646.101562 416.117188 645.898438 C 425.757812 645.554688 432.390625 636.34375 436.019531 634.214844 L 436.019531 638.953125 C 432.496094 640.742188 429.59375 641.359375 426.792969 644.453125 C 418.707031 653.320312 433.53125 659.023438 438.511719 651.328125 C 440.792969 647.890625 440.683594 643.492188 441.207031 639.570312 L 446.082031 636.273438 C 445.769531 640.191406 443.175781 647.066406 450.953125 646.445312 C 455.722656 646.101562 458.835938 640.878906 461.527344 640.054688 C 461.425781 643.695312 461.21875 647.066406 464.847656 649.0625 C 475.109375 654.898438 484.753906 637.511719 486.929688 636.550781 L 493.773438 636.273438 C 492.941406 639.296875 490.144531 642.941406 489.109375 647.066406 C 487.863281 652.632812 490.972656 656.410156 496.675781 653.25 C 500.097656 651.328125 510.777344 638.75 510.464844 635.246094 C 505.695312 634.898438 501.136719 651.464844 493.566406 651.671875 C 493.773438 646.652344 501.757812 637.785156 499.476562 633.59375 C 496.054688 631.878906 494.1875 634.832031 490.144531 633.871094 C 489.9375 631.257812 494.1875 626.996094 491.078125 623.695312 C 487.96875 622.386719 484.855469 623.96875 483.613281 626.855469 C 481.851562 630.980469 483.199219 632.152344 484.648438 635.246094 C 483.09375 639.09375 473.761719 648.78125 468.476562 647.339844 C 465.777344 645.691406 466.09375 642.875 466.605469 640.125 C 469.71875 637.921875 471.792969 637.648438 475.214844 634.488281 C 477.597656 632.285156 481.125 628.847656 479.566406 625.480469 C 469.820312 618.886719 459.246094 644.523438 450.433594 643.492188 C 450.125 639.710938 452.300781 635.175781 453.851562 632.011719 C 456.550781 626.652344 456.550781 627.753906 460.59375 623.96875 C 462.976562 621.839844 465.984375 618.265625 468.164062 616.34375 C 470.339844 614.484375 478.015625 614.347656 481.019531 614.695312 C 481.746094 616.070312 481.957031 620.53125 485.683594 616.890625 C 486.515625 610.5 474.28125 613.25 470.445312 613.25 C 471.066406 610.976562 472.207031 609.125 470.859375 606.785156 C 465.363281 603.558594 460.695312 611.597656 457.792969 614.347656 L 450.953125 613.179688 C 451.46875 610.570312 452.195312 608.847656 448.152344 610.222656 C 446.59375 615.515625 452.402344 615.65625 456.445312 616.273438 C 456.03125 618.128906 451.261719 625.34375 450.019531 627.886719 C 448.464844 630.707031 448.773438 631.121094 446.183594 633.25 C 444.835938 634.28125 442.453125 636.6875 440.683594 636.6875 C 440.378906 633.9375 439.234375 629.949219 441.308594 627.820312 C 449.394531 619.023438 440.269531 617.785156 437.578125 620.671875 C 435.917969 622.386719 435.8125 625.34375 435.710938 627.542969 C 435.503906 630.707031 431.457031 636.617188 428.246094 637.511719 C 428.867188 633.25 431.253906 622.386719 422.75 623.832031 C 419.636719 624.316406 412.589844 631.53125 412.070312 633.800781 "/>
<path fill-rule="evenodd" fill="rgb(0%, 0%, 0%)" fill-opacity="1" d="M 475.804688 598.914062 C 475.878906 599.011719 475.359375 599.699219 477.816406 598.515625 C 481.691406 596.542969 481.539062 594.125 483.847656 594.617188 C 484.519531 597.925781 478.335938 598.914062 475.804688 598.914062 Z M 487.199219 595.355469 C 488.691406 594.863281 488.914062 595.210938 489.136719 596.492188 L 487.722656 597.132812 Z M 472.753906 598.515625 C 476.179688 598.121094 478.484375 595.113281 480.347656 592.890625 C 483.773438 593.777344 480.871094 596 479.230469 596.890625 C 476.996094 598.171875 475.285156 598.367188 472.753906 598.515625 Z M 466.644531 597.679688 C 469.996094 597.480469 473.351562 595.753906 475.730469 593.628906 C 476.625 592.789062 477.148438 591.851562 477.964844 591.210938 C 481.613281 592.988281 477.519531 595.453125 475.507812 596.542969 C 471.859375 598.515625 467.164062 597.433594 466.644531 597.679688 Z M 487.570312 592.050781 L 487.644531 593.53125 C 486.15625 593.382812 485.933594 592.199219 487.570312 592.050781 Z M 462.328125 595.953125 L 465.902344 595.160156 C 470.222656 594.074219 471.636719 592.398438 474.464844 590.273438 C 478.335938 591.898438 473.351562 594.910156 471.488281 595.753906 C 467.765625 597.382812 465.453125 596.890625 462.328125 595.953125 Z M 491.894531 591.359375 L 492.785156 590.46875 C 494.644531 591.652344 494.574219 597.132812 499.710938 603.550781 C 499.117188 602.8125 499.117188 603.15625 498.523438 602.515625 C 498 602.070312 497.847656 601.625 497.253906 601.035156 C 495.09375 598.617188 492.933594 594.222656 491.894531 591.359375 Z M 482.210938 589.777344 L 482.359375 591.554688 C 480.945312 591.210938 480.722656 589.878906 482.210938 589.777344 Z M 493.527344 589.828125 C 495.464844 589.632812 495.988281 589.925781 497.402344 590.816406 C 496.957031 592.246094 496.136719 592.296875 494.5 592.59375 Z M 488.988281 588.34375 C 490.625 590.371094 491.519531 601.28125 496.957031 606.167969 C 494.125 604.734375 490.179688 596.9375 488.839844 593.53125 C 488.09375 591.554688 486.902344 589.53125 488.988281 588.34375 Z M 485.488281 590.125 C 486.15625 589.484375 486.382812 589.285156 486.976562 590.125 C 486.679688 590.320312 487.351562 590.421875 486.382812 590.46875 C 484.816406 590.519531 486.011719 590.519531 485.488281 590.125 Z M 455.550781 592 C 459.570312 591.949219 461.285156 592.988281 465.679688 591.507812 C 469.25 590.320312 470.144531 588.84375 472.605469 586.964844 C 476.550781 592.59375 460.539062 598.515625 455.550781 592 Z M 490.402344 589.582031 C 491.070312 588.542969 491.667969 588.199219 492.933594 588.742188 C 493.085938 590.421875 491.519531 590.371094 490.402344 589.582031 Z M 493.753906 588.542969 C 495.019531 587.113281 501.054688 588.34375 498.070312 590.769531 C 497.03125 590.621094 498.445312 590.320312 495.019531 589.386719 C 494.792969 589.335938 494.5 589.285156 494.273438 589.136719 Z M 483.625 587.066406 C 484.964844 587.90625 486.15625 595.0625 487.273438 598.070312 C 489.660156 604.539062 491.894531 606.019531 492.414062 607.402344 C 491.59375 605.578125 487.945312 604.34375 483.847656 592.59375 C 483.550781 591.652344 483.105469 590.769531 482.878906 589.730469 C 482.433594 588.199219 482.0625 587.707031 483.625 587.066406 Z M 479.601562 588.890625 C 479.902344 587.855469 480.945312 587.609375 481.691406 588.394531 C 480.945312 588.941406 480.648438 589.136719 479.601562 588.890625 Z M 437.378906 605.972656 C 437.898438 606.117188 437.53125 606.167969 437.976562 605.625 C 437.976562 605.625 438.722656 604.636719 438.722656 604.539062 C 440.359375 602.171875 441.175781 600.246094 442.21875 597.578125 C 443.339844 594.910156 444.457031 588.640625 445.496094 586.863281 C 447.804688 587.40625 446.316406 589.925781 445.71875 591.652344 C 445.050781 593.578125 444.378906 595.355469 443.484375 597.085938 C 442.667969 598.8125 442.070312 600.59375 440.808594 602.070312 C 440.433594 602.515625 437.53125 605.824219 437.378906 605.972656 Z M 486.976562 588.742188 C 484.890625 587.90625 486.824219 585.78125 488.242188 585.832031 C 489.359375 585.929688 489.957031 586.914062 489.0625 587.65625 C 488.988281 587.65625 487.351562 588.496094 486.976562 588.742188 Z M 496.359375 586.914062 C 498 586.914062 498.964844 586.765625 500.007812 587.90625 L 499.5625 589.136719 C 499.042969 588.496094 498.667969 588.152344 497.847656 587.855469 L 497.847656 587.804688 C 495.539062 587.707031 497.105469 587.753906 496.359375 586.914062 Z M 476.699219 589.386719 C 475.132812 588.691406 475.359375 587.753906 475.585938 587.015625 L 480.199219 586.324219 C 480.421875 587.65625 480.199219 587.164062 478.785156 587.953125 C 478.042969 588.394531 477.445312 589.039062 476.699219 589.386719 Z M 483.625 584.351562 C 484.21875 585.1875 484.59375 585.238281 484.074219 586.277344 L 481.464844 587.113281 C 479.53125 585.238281 481.242188 584.199219 483.625 584.351562 Z M 450.039062 585.089844 C 454.804688 586.914062 458.605469 589.335938 465.902344 586.175781 C 467.390625 585.53125 468.808594 583.953125 470.144531 583.65625 C 474.242188 591.851562 453.167969 596.097656 450.039062 585.089844 Z M 445.277344 585.730469 C 445.347656 583.707031 447.957031 583.753906 448.328125 585.433594 C 447.433594 586.078125 446.464844 585.878906 445.277344 585.730469 Z M 471.636719 579.5625 L 472.378906 579.511719 C 472.53125 581.929688 472.53125 580.25 473.199219 581.484375 C 473.5 581.976562 473.574219 583.066406 473.648438 583.65625 C 475.210938 584.199219 474.988281 584.597656 475.730469 586.078125 L 475.285156 586.226562 L 473.648438 587.210938 C 472.378906 585.730469 468.882812 581.730469 469.101562 579.808594 Z M 504.253906 579.859375 C 505.816406 578.03125 509.316406 577.632812 511.773438 577.980469 C 513.261719 577.980469 514.976562 578.128906 515.425781 579.3125 C 514.679688 580.398438 509.984375 581.289062 508.496094 581.78125 C 503.734375 583.410156 503.507812 584.695312 501.644531 583.707031 C 501.796875 582.078125 502.761719 580.546875 504.253906 579.859375 Z M 447.957031 576.695312 C 449.144531 579.460938 454.136719 582.324219 457.484375 582.769531 C 459.871094 583.117188 462.328125 582.820312 464.484375 581.929688 C 466.050781 581.289062 469.398438 578.71875 468.582031 582.523438 C 467.988281 584.742188 465.082031 585.832031 462.847656 586.421875 C 456.742188 588.199219 449.59375 585.976562 447.285156 580.105469 C 446.984375 579.410156 446.390625 577.734375 446.539062 576.945312 C 446.539062 576.84375 446.613281 576.796875 446.613281 576.648438 C 446.6875 576.550781 446.6875 576.453125 446.761719 576.351562 L 447.058594 575.757812 C 448.328125 576.453125 447.507812 575.855469 447.957031 576.695312 Z M 495.464844 576.253906 L 496.730469 576.453125 L 499.261719 576.648438 C 499.117188 577.832031 498.742188 578.96875 498.59375 580.203125 C 498.523438 581.535156 498.964844 582.820312 498.667969 583.753906 C 496.65625 583.753906 492.636719 577.683594 493.902344 575.707031 C 495.167969 575.757812 494.71875 575.609375 495.464844 576.253906 Z M 499.859375 583.558594 C 498.371094 581.976562 499.335938 577.929688 500.382812 576.304688 C 501.945312 575.855469 503.808594 575.957031 505.445312 576.105469 C 507.378906 576.253906 508.125 576.84375 509.316406 577.140625 C 502.242188 577.929688 501.574219 583.015625 499.859375 583.558594 Z M 474.6875 577.632812 L 475.058594 576.351562 L 478.191406 575.660156 L 478.785156 576.894531 C 477.296875 577.386719 476.253906 577.785156 474.6875 577.632812 Z M 469.625 578.917969 C 469.179688 577.683594 470.59375 576.5 471.261719 575.414062 L 474.316406 576.105469 C 474.242188 578.375 471.859375 579.359375 469.625 578.917969 Z M 443.859375 574.917969 L 445.867188 574.722656 L 445.945312 577.535156 C 444.457031 576.894531 444.007812 576.402344 443.859375 574.917969 Z M 439.6875 575.164062 C 440.210938 573.980469 440.359375 574.277344 441.695312 574.722656 C 443.339844 575.265625 443.339844 575.019531 443.339844 576.453125 C 442.21875 576.203125 440.285156 575.957031 439.6875 575.164062 Z M 479.976562 573.734375 L 480.722656 573.390625 C 481.613281 574.773438 482.507812 575.164062 482.433594 576.402344 C 481.691406 576.84375 480.871094 577.339844 479.675781 576.84375 C 478.5625 576.351562 478.933594 575.414062 478.859375 574.871094 C 479.382812 573.882812 479.007812 574.179688 479.976562 573.734375 Z M 438.273438 575.5625 C 435.964844 575.164062 435.816406 573.488281 437.75 572.300781 C 441.175781 572.550781 439.6875 574.03125 438.273438 575.5625 Z M 482.28125 574.722656 C 480.648438 572.75 485.265625 571.859375 484.890625 570.183594 C 485.863281 571.613281 485.933594 571.117188 487.199219 571.957031 C 485.707031 572.699219 483.625 574.871094 482.28125 574.722656 Z M 434.847656 569.488281 C 435.371094 570.425781 436.117188 571.265625 436.933594 572.058594 L 435.816406 573.242188 C 434.398438 572.597656 433.582031 571.859375 432.765625 570.769531 Z M 465.53125 572.847656 L 465.082031 572.796875 C 464.859375 573.4375 463.59375 575.265625 463 575.804688 C 462.027344 576.746094 460.914062 577.535156 459.496094 577.734375 C 455.773438 578.277344 454.582031 576.105469 452.945312 573.832031 C 452.347656 572.992188 452.574219 572.894531 452.273438 571.8125 C 455.699219 572.992188 458.230469 574.722656 463.222656 572.203125 C 464.785156 571.464844 465.011719 570.820312 466.125 570.183594 C 465.972656 571.660156 465.453125 571.464844 465.53125 572.847656 M 465.53125 572.847656 C 466.277344 572.25 466.496094 571.070312 466.796875 570.035156 C 467.019531 569.4375 467.09375 569.042969 467.464844 568.550781 C 468.882812 566.675781 468.136719 569.242188 468.730469 567.023438 C 470.144531 566.675781 472.605469 565.292969 473.050781 567.515625 C 474.539062 568.75 469.027344 582.078125 459.570312 582.125 C 451.601562 582.125 444.304688 573.882812 445.648438 566.773438 C 447.582031 567.5625 449.371094 569.242188 450.785156 570.574219 C 452.125 571.761719 452.125 574.226562 453.984375 576.351562 C 458.082031 580.746094 464.785156 577.089844 465.53125 572.847656 Z M 413.25 551.371094 L 413.996094 548.953125 C 415.265625 550.386719 414.21875 556.503906 417.347656 553.789062 L 418.390625 556.355469 L 419.433594 557.148438 L 420.027344 556.109375 C 421.441406 560.851562 429.113281 562.035156 429.78125 564.652344 C 430.828125 565.195312 431.496094 566.230469 431.574219 567.464844 C 432.988281 568.355469 432.765625 568.453125 433.136719 569.933594 C 432.019531 570.625 426.65625 571.859375 423.898438 571.363281 C 412.582031 569.292969 411.09375 553.691406 413.25 551.371094 Z M 488.09375 568.257812 C 488.242188 567.167969 488.765625 566.230469 489.660156 565.589844 C 491.222656 562.183594 498.964844 561.195312 500.382812 556.15625 C 500.082031 556.902344 500.605469 557.148438 501.425781 557.296875 L 503.210938 553.789062 C 503.136719 554.679688 503.660156 554.578125 504.105469 554.726562 C 505.597656 553.296875 505.597656 550.828125 506.636719 549.050781 L 507.011719 549.542969 C 509.835938 553.839844 507.605469 563.960938 503.953125 567.710938 C 498.667969 573.140625 493.832031 573.539062 486.605469 570.972656 C 486.753906 569.535156 486.902344 569.042969 488.09375 568.257812 Z M 486.753906 566.625 L 485.785156 570.183594 C 484.671875 567.960938 483.847656 566.328125 485.039062 563.664062 C 485.863281 561.886719 487.125 559.371094 488.839844 558.628906 C 490.101562 556.503906 494.421875 553.644531 497.03125 552.554688 C 497.402344 553.394531 496.804688 552.949219 497.179688 554.382812 C 497.402344 555.171875 496.957031 555.074219 496.359375 556.355469 L 497.253906 557 C 494.5 561.292969 496.0625 559.566406 491.742188 561.789062 C 489.433594 563.023438 487.945312 564.355469 486.753906 566.625 Z M 428.890625 556.207031 C 430.601562 557.199219 432.988281 560.210938 433.953125 561.988281 C 436.636719 566.675781 433.582031 567.960938 433.953125 569.4375 C 433.433594 561.886719 425.464844 561.195312 424.871094 559.46875 L 423.007812 557.046875 C 424.347656 554.628906 423.15625 556.109375 422.78125 554.578125 C 422.707031 554.136719 423.527344 553.644531 422.632812 552.3125 C 424.871094 553.246094 427.175781 554.578125 428.890625 556.207031 Z M 467.988281 553.839844 C 467.539062 553.394531 467.691406 553.542969 467.390625 553.050781 C 466.945312 552.3125 467.617188 552.949219 467.316406 552.605469 L 467.164062 553.445312 L 465.453125 552.65625 L 465.011719 552.753906 C 468.65625 554.429688 467.988281 558.433594 468.882812 559.960938 L 469.101562 556.703125 C 474.167969 556.605469 472.902344 560.109375 472.828125 563.46875 C 470.59375 564.847656 469.847656 563.714844 468.808594 564.949219 C 468.136719 564.898438 466.796875 565.589844 465.828125 565.882812 C 463.445312 566.726562 463.292969 565.390625 463.074219 566.03125 C 463.667969 567.910156 467.464844 565.636719 469.179688 565.144531 C 472.679688 564.109375 479.457031 562.625 482.210938 560.457031 C 486.304688 557.199219 484.144531 556.902344 486.382812 555.617188 C 485.785156 564.703125 467.316406 564.949219 464.265625 568.503906 L 466.871094 567.808594 C 464.859375 570.671875 461.433594 573.140625 456.964844 572.550781 C 450.933594 571.710938 449.515625 567.265625 448.175781 566.082031 L 447.730469 566.429688 C 447.210938 567.167969 447.136719 566.726562 445.867188 566.082031 C 442.21875 564.15625 434.398438 560.652344 433.726562 557.046875 L 436.261719 559.710938 L 436.484375 559.417969 C 434.101562 555.519531 432.539062 554.925781 435.59375 550.089844 C 436.785156 548.210938 441.695312 543.375 440.210938 541.496094 C 439.613281 541.941406 432.765625 550.089844 432.390625 553.839844 C 432.019531 556.800781 433.433594 557.199219 433.804688 559.21875 C 435.070312 559.863281 436.933594 562.035156 439.015625 563.167969 C 440.734375 564.15625 443.113281 565.539062 444.902344 566.132812 C 444.457031 570.132812 446.019531 571.710938 445.945312 573.832031 C 443.710938 574.328125 441.847656 574.773438 440.359375 572.992188 C 439.015625 571.414062 437.75 572.300781 435.964844 570.132812 C 434.324219 568.058594 436.410156 567.5625 435.890625 564.402344 C 435.59375 562.578125 434.253906 561.195312 433.582031 559.566406 C 432.765625 559.070312 426.285156 551.765625 421.589844 551.324219 C 421.667969 552.457031 421.816406 551.914062 422.113281 552.703125 C 422.632812 554.480469 422.039062 552.851562 421.960938 553.988281 C 421.890625 555.46875 422.039062 554.089844 422.488281 555.269531 C 423.007812 556.753906 422.707031 555.074219 421.890625 556.851562 L 424.050781 559.515625 C 421.742188 558.824219 421.441406 556.355469 420.179688 555.074219 L 418.984375 555.914062 L 417.496094 552.753906 C 415.859375 552.902344 417.273438 553.199219 416.007812 553.789062 C 415.335938 552.261719 415.484375 549.25 414.292969 548.109375 C 409.527344 549.445312 410.195312 570.230469 424.125 572.203125 C 426.878906 572.597656 431.273438 571.117188 432.242188 571.5625 C 434.921875 572.75 436.039062 575.757812 437.378906 576.152344 C 439.761719 576.945312 442.144531 576.152344 445.347656 578.082031 C 446.539062 578.816406 446.167969 579.808594 446.835938 581.289062 C 447.507812 582.71875 448.476562 583.3125 448.996094 584.300781 C 443.1875 582.175781 444.972656 586.277344 443.859375 590.371094 C 440.808594 602.023438 436.710938 605.082031 436.335938 607.351562 C 439.242188 606.714844 442.21875 601.378906 443.558594 598.863281 C 444.53125 597.085938 445.347656 595.355469 446.019531 593.53125 C 446.539062 592.148438 447.433594 588.59375 448.03125 587.753906 C 449.445312 588.003906 451.527344 589.285156 452.574219 590.273438 C 455.253906 592.890625 448.773438 604.539062 448.699219 605.921875 C 451.976562 605.921875 455.253906 596.296875 455.773438 593.578125 L 459.421875 595.453125 C 459.648438 599.058594 456.890625 603.109375 457.113281 605.035156 C 459.496094 604.734375 461.285156 598.617188 461.734375 596.542969 C 466.050781 597.726562 467.691406 598.863281 472.679688 599.503906 C 478.113281 600.246094 480.5 599.453125 485.558594 598.667969 C 486.605469 601.230469 490.847656 608.339844 493.679688 608.6875 C 493.382812 606.070312 488.316406 601.480469 488.019531 597.824219 L 489.210938 597.480469 C 490.921875 598.269531 493.902344 606.367188 497.925781 607.402344 C 498.296875 605.28125 490.699219 598.070312 492.488281 595.902344 C 493.527344 596.050781 498.21875 605.675781 502.320312 605.726562 C 502.171875 604.488281 496.0625 598.617188 495.242188 594.273438 C 496.957031 592.890625 498.59375 591.753906 499.933594 589.976562 C 501.203125 588.394531 502.171875 585.730469 503.734375 584.742188 C 506.710938 582.964844 516.464844 580.496094 517.433594 579.609375 C 516.765625 578.082031 514.308594 577.535156 512.519531 577.289062 C 508.945312 576.796875 506.785156 574.277344 499.710938 575.757812 C 496.65625 576.402344 495.390625 574.574219 493.085938 575.3125 C 491.964844 579.410156 495.464844 582.125 497.550781 584.597656 C 493.308594 589.089844 492.933594 587.40625 489.957031 588.640625 C 490.03125 587.113281 490.847656 585.582031 488.316406 585.484375 C 485.933594 585.433594 485.863281 586.421875 484.890625 587.804688 C 484.890625 586.371094 485.488281 585.878906 484.742188 584.398438 C 479.082031 581.78125 480.574219 587.953125 476.921875 586.277344 C 475.878906 585.78125 473.050781 580.496094 473.050781 579.3125 C 475.433594 578.128906 477.445312 577.734375 480.199219 577.683594 C 484.296875 577.683594 482.433594 576.007812 485.339844 573.929688 C 489.136719 571.316406 487.871094 572.5 491.816406 573.09375 C 494.792969 573.585938 497.105469 573.242188 499.785156 572.007812 C 510.957031 567.023438 510.0625 549.839844 506.710938 548.0625 C 505.519531 548.707031 504.699219 552.0625 504.328125 553.394531 C 502.988281 553.148438 504.773438 552.507812 502.691406 553.050781 L 501.347656 556.109375 C 500.15625 555.371094 501.796875 555.171875 499.933594 555.421875 C 498.964844 557.199219 498.148438 559.21875 496.136719 560.011719 C 502.015625 551.714844 494.871094 560.058594 498.523438 554.382812 L 497.628906 553.394531 L 498.816406 551.566406 C 494.199219 551.421875 488.691406 558.332031 486.902344 558.925781 C 486.304688 560.605469 484.519531 562.035156 483.847656 564.355469 C 482.953125 567.660156 485.1875 568.699219 483.699219 570.625 C 481.691406 573.292969 480.050781 572.351562 478.5625 573.980469 C 476.625 576.152344 474.539062 575.363281 471.933594 574.96875 C 472.082031 573.488281 473.125 571.761719 473.648438 570.230469 C 474.6875 567.167969 473.648438 567.808594 473.792969 565.6875 C 475.507812 564.75 478.859375 563.863281 481.019531 562.824219 C 484.296875 561.292969 484.59375 559.566406 486.53125 558.28125 C 487.050781 554.726562 488.914062 554.480469 483.925781 547.671875 C 482.878906 546.285156 481.691406 544.855469 480.722656 543.375 C 479.753906 541.992188 479.007812 539.175781 477.59375 538.585938 C 477.148438 543.226562 483.328125 548.410156 484.816406 552.902344 C 486.753906 558.824219 478.484375 562.625 473.574219 563.367188 C 473.722656 561.246094 474.316406 558.28125 472.160156 557 C 471.042969 556.355469 467.164062 555.617188 467.988281 553.839844 "/>
<path fill-rule="evenodd" fill="rgb(79.998779%, 7.058716%, 17.254639%)" fill-opacity="1" d="M 413.25 551.371094 C 412.730469 556.949219 413.621094 561.390625 417.644531 565.390625 C 419.355469 567.070312 421.21875 568.308594 423.898438 568.898438 C 425.464844 569.242188 431.644531 569.242188 431.574219 567.464844 C 431.496094 566.230469 430.828125 565.195312 429.78125 564.652344 C 429.558594 564.800781 425.464844 564.058594 424.796875 563.617188 C 424.050781 563.167969 424.199219 562.578125 423.082031 562.035156 C 418.390625 559.8125 422.414062 560.652344 419.953125 558.824219 C 419.136719 558.28125 418.6875 557.984375 417.945312 557.25 L 418.390625 556.355469 L 417.347656 553.789062 C 414.21875 556.503906 415.265625 550.386719 413.996094 548.953125 Z M 413.25 551.371094 "/>
<path fill-rule="evenodd" fill="rgb(79.998779%, 7.058716%, 17.254639%)" fill-opacity="1" d="M 489.660156 565.589844 C 488.765625 566.230469 488.242188 567.167969 488.09375 568.257812 C 488.988281 570.082031 494.421875 569.785156 496.285156 569.242188 C 498.742188 568.550781 501.128906 567.117188 502.613281 565.539062 C 505.519531 562.429688 508.648438 555.074219 507.011719 550.828125 L 505.292969 556.011719 L 503.808594 555.667969 L 502.539062 559.070312 C 500.753906 560.058594 500.902344 558.183594 499.1875 560.554688 C 498.296875 561.789062 497.925781 562.675781 497.179688 563.960938 C 495.691406 566.628906 492.710938 567.117188 489.878906 566.675781 Z M 489.660156 565.589844 "/>
<path fill-rule="evenodd" fill="rgb(0%, 0%, 0%)" fill-opacity="1" d="M 476.328125 543.324219 C 475.730469 546.632812 472.007812 549 468.507812 548.707031 C 469.398438 548.609375 469.925781 548.3125 470.371094 547.570312 C 469.328125 548.160156 469.773438 547.964844 468.808594 547.964844 C 470.144531 546.089844 470.074219 545.644531 469.027344 543.421875 C 469.25 545.546875 469.554688 545.347656 468.730469 547.472656 C 467.09375 547.769531 463.519531 546.929688 460.839844 547.125 C 458.007812 547.421875 456.070312 548.507812 453.390625 547.175781 C 453.835938 548.015625 454.207031 547.917969 454.878906 548.507812 C 453.246094 549.25 452.945312 549.742188 451.082031 549.398438 C 450.785156 549.988281 451.304688 550.1875 448.847656 549.445312 C 449.59375 550.285156 450.5625 550.679688 451.679688 550.777344 C 448.773438 550.828125 445.347656 549.101562 444.15625 546.730469 C 442.441406 545.25 442.371094 541.644531 444.457031 540.265625 C 445.71875 539.476562 447.210938 539.375 448.625 539.523438 C 451.230469 539.769531 450.710938 539.671875 451.679688 541.300781 C 452.5 533.894531 459.570312 533.304688 463.59375 535.773438 C 465.679688 537.054688 465.601562 537.648438 467.019531 538.929688 L 466.347656 537.152344 C 471.707031 533.351562 477.738281 538.238281 476.328125 543.324219 Z M 436.484375 559.417969 L 436.261719 559.710938 C 438.796875 562.085938 444.230469 565.09375 447.730469 566.429688 L 448.175781 566.082031 L 448.402344 566.03125 C 446.910156 565.933594 446.910156 566.03125 446.167969 564.847656 C 445.867188 562.527344 444.972656 559.664062 445.945312 557.445312 L 449.292969 556.503906 L 450.488281 555.667969 C 451.601562 554.234375 452.5 553.050781 454.730469 553.691406 C 456.964844 554.285156 455.105469 554.234375 457.191406 553.644531 C 458.679688 553.296875 458.976562 553.246094 459.421875 554.234375 C 460.6875 552.902344 463.292969 551.867188 465.011719 552.753906 L 465.453125 552.65625 C 462.921875 551.320312 461.878906 552.703125 459.570312 552.949219 C 456.964844 553.148438 455.773438 553.742188 453.316406 552.949219 C 453.617188 551.320312 453.617188 552.902344 454.136719 551.617188 L 452.648438 551.222656 L 452.421875 550.1875 C 455.996094 548.261719 464.265625 546.285156 467.617188 548.3125 L 467.691406 550.484375 L 465.972656 550.039062 C 464.5625 550.1875 463.742188 549.789062 463 550.929688 C 464.5625 551.617188 466.421875 550.386719 467.316406 552.605469 C 467.617188 552.949219 466.945312 552.3125 467.390625 553.050781 C 467.691406 553.542969 467.539062 553.394531 467.988281 553.839844 C 468.433594 550.777344 468.0625 553.246094 469.554688 552.410156 C 469.25 550.433594 468.507812 551.914062 468.433594 549.789062 C 469.847656 548.804688 472.453125 549.199219 474.6875 547.273438 C 479.457031 543.078125 476.476562 536.957031 473.050781 535.671875 C 469.476562 534.292969 468.507812 535.871094 465.828125 536.660156 C 463 534.683594 461.136719 533.351562 457.191406 534.09375 C 452.792969 534.929688 453.019531 536.757812 451.15625 539.375 C 446.167969 538.484375 440.582031 539.226562 442.59375 545.445312 C 444.007812 549.59375 448.253906 550.730469 452.199219 551.664062 C 451.15625 552.113281 450.710938 552.164062 450.488281 553.296875 L 452.574219 552.65625 C 452.347656 553.839844 452.273438 552.902344 450.1875 555.023438 C 448.921875 556.355469 448.175781 555.964844 446.6875 556.65625 C 443.933594 557.984375 445.125 562.085938 445.425781 564.453125 C 441.773438 563.367188 439.316406 560.996094 436.484375 559.417969 "/>
<path fill-rule="evenodd" fill="rgb(79.998779%, 7.058716%, 17.254639%)" fill-opacity="1" d="M 450.488281 555.667969 L 449.664062 559.023438 L 451.601562 559.566406 C 452.050781 556.503906 453.09375 554.234375 456.742188 555.023438 C 458.824219 556.40625 458.902344 559.46875 456.296875 560.308594 L 453.316406 560.554688 L 454.511719 561.097656 C 453.246094 561.738281 452.421875 561.738281 451.007812 561.488281 C 452.199219 561.738281 452.792969 562.578125 454.804688 561.691406 C 455.773438 561.246094 457.191406 560.210938 458.230469 559.863281 C 459.347656 561.886719 457.789062 559.761719 458.457031 561.789062 L 459.570312 561.148438 C 459.125 560.996094 458.824219 561.539062 458.902344 558.53125 C 458.976562 552.3125 468.210938 553.492188 466.050781 560.554688 C 465.828125 561.34375 465.902344 560.898438 465.828125 561.738281 C 465.753906 562.476562 466.277344 561.9375 465.601562 562.476562 C 466.199219 563.417969 465.53125 563.023438 466.644531 563.070312 C 466.71875 561.789062 467.164062 561.246094 467.910156 562.578125 C 468.582031 563.960938 467.019531 564.203125 468.808594 564.949219 C 469.847656 563.714844 470.59375 564.847656 472.828125 563.46875 C 472.902344 560.109375 474.167969 556.605469 469.101562 556.703125 L 468.882812 559.960938 C 467.988281 558.433594 468.65625 554.429688 465.011719 552.753906 C 463.292969 551.867188 460.6875 552.902344 459.421875 554.234375 C 458.976562 553.246094 458.679688 553.296875 457.191406 553.644531 C 455.105469 554.234375 456.964844 554.285156 454.730469 553.691406 C 452.5 553.050781 451.601562 554.234375 450.488281 555.667969 "/>
<path fill-rule="evenodd" fill="rgb(67.842102%, 10.980225%, 18.03894%)" fill-opacity="1" d="M 452.871094 587.210938 C 454.207031 587.308594 455.253906 587.804688 456.667969 588.050781 C 462.625 589.039062 465.601562 586.519531 467.835938 586.128906 C 466.570312 591.0625 454.207031 591.210938 452.871094 587.210938 Z M 450.039062 585.089844 C 453.167969 596.097656 474.242188 591.851562 470.144531 583.65625 C 468.808594 583.953125 467.390625 585.53125 465.902344 586.175781 C 458.605469 589.335938 454.804688 586.914062 450.039062 585.089844 "/>
<path fill-rule="evenodd" fill="rgb(67.842102%, 10.980225%, 18.03894%)" fill-opacity="1" d="M 424.871094 559.46875 C 425.464844 561.195312 433.433594 561.886719 433.953125 569.4375 C 433.582031 567.960938 436.636719 566.675781 433.953125 561.988281 C 432.988281 560.210938 430.601562 557.199219 428.890625 556.207031 C 428.890625 557.046875 429.261719 556.457031 428.742188 557.097656 L 425.019531 555.121094 L 424.945312 557.34375 C 424.871094 558.53125 425.238281 558.085938 424.871094 559.46875 "/>
<path fill-rule="evenodd" fill="rgb(0%, 0%, 0%)" fill-opacity="1" d="M 450.488281 555.667969 L 449.292969 556.503906 C 449.445312 557 449.222656 558.28125 448.921875 558.824219 C 448.402344 559.960938 448.105469 559.121094 447.433594 560.308594 C 446.390625 562.136719 448.105469 563.417969 446.167969 564.847656 C 446.910156 566.03125 446.910156 565.933594 448.402344 566.03125 C 448.105469 564.304688 446.6875 560.800781 448.847656 559.863281 L 453.316406 560.554688 C 453.539062 560.457031 453.246094 560.503906 453.914062 560.359375 C 453.984375 560.359375 454.433594 560.308594 454.511719 560.257812 L 454.433594 558.777344 L 453.984375 560.160156 L 452.421875 559.863281 L 452.574219 557.984375 C 453.167969 556.109375 454.207031 555.074219 456.371094 555.71875 C 457.789062 556.503906 458.230469 558.976562 456.371094 559.417969 L 456.296875 560.308594 C 458.902344 559.46875 458.824219 556.40625 456.742188 555.023438 C 453.09375 554.234375 452.050781 556.503906 451.601562 559.566406 L 449.664062 559.023438 Z M 450.488281 555.667969 "/>
<path fill-rule="evenodd" fill="rgb(0%, 0%, 0%)" fill-opacity="1" d="M 462.699219 558.28125 C 463.519531 558.925781 463.59375 558.628906 463 559.761719 C 461.878906 559.171875 462.105469 559.171875 462.699219 558.28125 Z M 461.734375 558.234375 L 461.433594 560.503906 L 459.871094 560.554688 C 459.273438 559.613281 459.050781 558.824219 459.648438 557.9375 C 459.570312 554.382812 465.304688 553.988281 465.382812 557.34375 C 466.496094 558.382812 465.679688 560.257812 464.859375 561.246094 L 463.667969 560.851562 C 463.667969 559.515625 463.816406 559.320312 463.074219 558.085938 C 461.957031 557.789062 462.625 557.789062 461.734375 558.234375 Z M 459.570312 561.148438 C 461.210938 561.046875 464.785156 561.246094 465.601562 562.476562 C 466.277344 561.9375 465.753906 562.476562 465.828125 561.738281 C 465.902344 560.898438 465.828125 561.34375 466.050781 560.554688 C 468.210938 553.492188 458.976562 552.3125 458.902344 558.53125 C 458.824219 561.539062 459.125 560.996094 459.570312 561.148438 "/>
<path fill-rule="evenodd" fill="rgb(76.077271%, 74.900818%, 72.155762%)" fill-opacity="1" d="M 452.945312 573.832031 C 453.539062 572.992188 453.019531 573.390625 454.207031 573.785156 C 456.070312 574.375 456.667969 574.671875 459.273438 574.476562 C 461.804688 574.328125 462.921875 573.734375 465.082031 572.796875 L 465.53125 572.847656 C 465.453125 571.464844 465.972656 571.660156 466.125 570.183594 C 465.011719 570.820312 464.785156 571.464844 463.222656 572.203125 C 458.230469 574.722656 455.699219 572.992188 452.273438 571.8125 C 452.574219 572.894531 452.347656 572.992188 452.945312 573.832031 "/>
<path fill-rule="evenodd" fill="rgb(79.998779%, 7.058716%, 17.254639%)" fill-opacity="1" d="M 446.167969 564.847656 C 448.105469 563.417969 446.390625 562.136719 447.433594 560.308594 C 448.105469 559.121094 448.402344 559.960938 448.921875 558.824219 C 449.222656 558.28125 449.445312 557 449.292969 556.503906 L 445.945312 557.445312 C 444.972656 559.664062 445.867188 562.527344 446.167969 564.847656 "/>
<path fill-rule="evenodd" fill="rgb(91.371155%, 17.64679%, 21.960449%)" fill-opacity="1" d="M 424.871094 559.46875 C 425.238281 558.085938 424.871094 558.53125 424.945312 557.34375 L 425.019531 555.121094 L 428.742188 557.097656 C 429.261719 556.457031 428.890625 557.046875 428.890625 556.207031 C 427.175781 554.578125 424.871094 553.246094 422.632812 552.3125 C 423.527344 553.644531 422.707031 554.136719 422.78125 554.578125 C 423.15625 556.109375 424.347656 554.628906 423.007812 557.046875 Z M 424.871094 559.46875 "/>
<path fill-rule="evenodd" fill="rgb(91.371155%, 17.64679%, 21.960449%)" fill-opacity="1" d="M 496.730469 576.453125 L 495.464844 576.253906 L 494.273438 576.152344 C 493.832031 578.230469 495.914062 581.4375 497.925781 581.976562 C 498.070312 580.941406 497.925781 580.546875 497.925781 579.609375 C 498 578.570312 498.21875 578.128906 498.296875 577.242188 C 497.253906 576.84375 496.882812 577.191406 496.730469 576.453125 "/>
<path fill-rule="evenodd" fill="rgb(100%, 100%, 100%)" fill-opacity="1" d="M 454.582031 557.9375 L 455.476562 557.691406 L 455.179688 559.070312 C 456.59375 558.875 455.476562 559.320312 456.371094 558.433594 L 456.371094 559.417969 C 458.230469 558.976562 457.789062 556.503906 456.371094 555.71875 C 454.207031 555.074219 453.167969 556.109375 452.574219 557.984375 L 452.421875 559.863281 L 453.984375 560.160156 L 454.433594 558.777344 Z M 454.582031 557.9375 "/>
<path fill-rule="evenodd" fill="rgb(67.842102%, 10.980225%, 18.03894%)" fill-opacity="1" d="M 486.753906 566.628906 C 485.117188 566.230469 486.011719 563.566406 486.382812 562.378906 C 486.976562 560.898438 488.019531 559.863281 488.839844 558.628906 C 487.125 559.367188 485.863281 561.886719 485.039062 563.664062 C 483.847656 566.328125 484.671875 567.960938 485.785156 570.183594 Z M 486.753906 566.628906 "/>
<path fill-rule="evenodd" fill="rgb(67.842102%, 10.980225%, 18.03894%)" fill-opacity="1" d="M 454.207031 577.882812 C 456.070312 581.78125 461.136719 581.585938 463.074219 578.082031 C 460.761719 578.621094 461.0625 579.859375 458.308594 579.609375 C 456.742188 579.460938 455.550781 578.472656 454.207031 577.882812 "/>
<path fill-rule="evenodd" fill="rgb(67.842102%, 10.980225%, 18.03894%)" fill-opacity="1" d="M 476.699219 589.386719 C 477.445312 589.039062 478.042969 588.394531 478.785156 587.953125 C 480.199219 587.164062 480.421875 587.65625 480.199219 586.324219 L 475.585938 587.015625 C 475.359375 587.753906 475.136719 588.691406 476.699219 589.386719 "/>
<path fill-rule="evenodd" fill="rgb(79.998779%, 7.058716%, 17.254639%)" fill-opacity="1" d="M 447.730469 566.429688 C 444.230469 565.09375 438.796875 562.085938 436.261719 559.710938 L 433.726562 557.046875 C 434.398438 560.652344 442.21875 564.15625 445.867188 566.082031 C 447.136719 566.726562 447.210938 567.167969 447.730469 566.429688 "/>
<path fill-rule="evenodd" fill="rgb(67.842102%, 10.980225%, 18.03894%)" fill-opacity="1" d="M 445.277344 585.730469 C 446.464844 585.878906 447.433594 586.078125 448.328125 585.433594 C 447.957031 583.753906 445.347656 583.707031 445.277344 585.730469 "/>
<path fill-rule="evenodd" fill="rgb(0%, 0%, 0%)" fill-opacity="1" d="M 454.582031 557.9375 L 454.433594 558.777344 L 454.511719 560.257812 C 454.433594 560.308594 453.984375 560.359375 453.914062 560.359375 C 453.246094 560.503906 453.539062 560.457031 453.316406 560.554688 L 456.296875 560.308594 L 456.371094 559.417969 L 456.371094 558.433594 C 455.476562 559.320312 456.59375 558.875 455.179688 559.070312 L 455.476562 557.691406 Z M 454.582031 557.9375 "/>
<path fill-rule="evenodd" fill="rgb(67.842102%, 10.980225%, 18.03894%)" fill-opacity="1" d="M 496.359375 586.914062 C 497.105469 587.753906 495.539062 587.707031 497.847656 587.804688 L 497.847656 587.855469 C 498.667969 588.152344 499.042969 588.496094 499.5625 589.136719 L 500.007812 587.90625 C 498.964844 586.765625 498 586.914062 496.359375 586.914062 "/>
<path fill-rule="evenodd" fill="rgb(67.842102%, 10.980225%, 18.03894%)" fill-opacity="1" d="M 490.402344 589.582031 C 491.519531 590.371094 493.085938 590.421875 492.933594 588.742188 C 491.667969 588.199219 491.070312 588.542969 490.402344 589.582031 "/>
<path fill-rule="evenodd" fill="rgb(67.842102%, 10.980225%, 18.03894%)" fill-opacity="1" d="M 487.570312 592.050781 C 485.933594 592.199219 486.15625 593.382812 487.644531 593.53125 Z M 487.570312 592.050781 "/>
<path fill-rule="nonzero" fill="rgb(100%, 100%, 100%)" fill-opacity="1" d="M 355.804688 599.167969 C 355.636719 599.207031 354.574219 599.230469 352.605469 599.230469 C 350.644531 599.230469 349.664062 599.03125 349.664062 598.628906 C 349.664062 598.621094 349.863281 598.457031 350.25 598.140625 C 350.644531 597.824219 350.921875 597.324219 351.097656 596.628906 C 351.277344 595.941406 351.363281 594.542969 351.363281 592.4375 C 351.363281 591.351562 351.117188 590.722656 350.625 590.542969 C 350.257812 590.40625 348.984375 590.339844 346.800781 590.339844 C 344.617188 590.339844 343.320312 590.445312 342.914062 590.660156 C 342.507812 590.875 342.308594 591.546875 342.308594 592.667969 C 342.308594 595.027344 342.371094 596.4375 342.515625 596.894531 C 342.660156 597.359375 342.832031 597.699219 343.042969 597.933594 L 343.378906 598.238281 C 343.699219 598.535156 343.859375 598.730469 343.859375 598.816406 C 343.859375 599.226562 342.480469 599.429688 339.710938 599.429688 L 339.0625 599.429688 C 337.9375 599.429688 337.375 599.226562 337.375 598.816406 C 337.375 598.683594 337.65625 598.496094 338.21875 598.253906 C 338.785156 598.015625 339.140625 597.648438 339.296875 597.167969 C 339.449219 596.679688 339.527344 594.441406 339.527344 590.441406 C 339.527344 586.441406 339.457031 584.214844 339.3125 583.761719 C 339.175781 583.308594 338.980469 582.976562 338.734375 582.773438 L 338.308594 582.519531 C 337.820312 582.222656 337.574219 582.027344 337.574219 581.929688 C 337.574219 581.582031 337.878906 581.375 338.484375 581.308594 C 339.085938 581.238281 340.453125 581.207031 342.585938 581.207031 C 343.695312 581.207031 344.246094 581.386719 344.246094 581.742188 C 344.246094 581.769531 344.058594 581.90625 343.699219 582.152344 C 343.332031 582.394531 343.097656 582.640625 342.980469 582.878906 C 342.683594 583.5 342.527344 584.910156 342.527344 587.105469 C 342.527344 588.210938 342.746094 588.851562 343.175781 589.03125 C 343.605469 589.210938 344.988281 589.296875 347.320312 589.296875 C 349.65625 589.296875 350.972656 589.101562 351.261719 588.710938 C 351.433594 588.488281 351.519531 587.558594 351.519531 585.933594 C 351.519531 584.304688 351.402344 583.269531 351.179688 582.828125 C 351.082031 582.644531 350.863281 582.417969 350.507812 582.136719 C 350.152344 581.855469 349.972656 581.691406 349.972656 581.652344 C 349.972656 581.265625 351.375 581.074219 354.164062 581.074219 C 355.65625 581.074219 356.402344 581.171875 356.402344 581.378906 L 356.402344 581.726562 C 356.402344 581.828125 356.152344 582.019531 355.648438 582.300781 C 355.152344 582.589844 354.804688 583.007812 354.613281 583.546875 C 354.417969 584.089844 354.320312 585.964844 354.320312 589.175781 L 354.335938 590.472656 L 354.347656 591.140625 L 354.367188 593.117188 C 354.367188 595.285156 354.421875 596.5625 354.539062 596.957031 C 354.660156 597.347656 354.855469 597.640625 355.128906 597.828125 C 355.910156 598.367188 356.300781 598.632812 356.300781 598.640625 C 356.300781 598.902344 356.136719 599.074219 355.804688 599.167969 Z M 366.746094 593.859375 C 366.746094 593.328125 366.609375 593.066406 366.320312 593.066406 L 366.25 593.066406 C 365.929688 593.066406 365.351562 593.191406 364.511719 593.433594 C 363.667969 593.679688 363.085938 593.921875 362.757812 594.164062 C 361.9375 594.773438 361.523438 595.453125 361.523438 596.207031 L 361.523438 596.382812 C 361.523438 596.875 361.691406 597.296875 362.019531 597.648438 C 362.351562 597.996094 362.742188 598.175781 363.191406 598.175781 L 363.363281 598.203125 L 363.628906 598.203125 C 364.371094 598.203125 365.054688 597.929688 365.699219 597.386719 C 366.34375 596.84375 366.660156 596.257812 366.660156 595.632812 C 366.679688 595.511719 366.691406 595.421875 366.691406 595.378906 L 366.703125 595.285156 L 366.734375 594.78125 L 366.734375 594.605469 L 366.746094 594.351562 Z M 370.265625 597.777344 C 370.792969 597.828125 371.046875 597.953125 371.046875 598.148438 C 371.046875 598.347656 370.921875 598.546875 370.667969 598.75 C 370.089844 599.210938 369.4375 599.445312 368.699219 599.445312 C 368.304688 599.445312 367.898438 599.269531 367.480469 598.902344 C 367.066406 598.539062 366.785156 598.367188 366.628906 598.367188 C 366.480469 598.367188 365.972656 598.578125 365.101562 599.011719 C 364.234375 599.445312 363.519531 599.660156 362.941406 599.660156 L 362.613281 599.660156 C 361.652344 599.660156 360.84375 599.355469 360.1875 598.757812 C 359.53125 598.152344 359.203125 597.441406 359.203125 596.609375 L 359.203125 596.320312 C 359.203125 594.390625 360.941406 593.054688 364.410156 592.304688 C 365.210938 592.128906 365.734375 591.976562 365.96875 591.863281 C 366.4375 591.625 366.675781 591.140625 366.675781 590.414062 C 366.675781 589.6875 366.476562 589.125 366.078125 588.726562 C 365.671875 588.332031 365.148438 588.136719 364.496094 588.136719 C 363.84375 588.136719 363.269531 588.277344 362.773438 588.558594 C 362.515625 588.707031 362.214844 589.0625 361.875 589.632812 C 361.539062 590.199219 361.15625 590.484375 360.730469 590.484375 C 360.136719 590.484375 359.835938 590.167969 359.835938 589.523438 C 359.835938 588.882812 360.339844 588.269531 361.339844 587.679688 C 362.339844 587.089844 363.390625 586.796875 364.480469 586.796875 C 366.5 586.796875 367.851562 587.386719 368.546875 588.558594 C 368.875 589.140625 369.042969 590.609375 369.042969 592.957031 C 369.042969 595.3125 369.113281 596.691406 369.265625 597.09375 C 369.417969 597.492188 369.753906 597.71875 370.265625 597.777344 Z M 383.832031 592.519531 C 383.832031 591.335938 383.519531 590.300781 382.886719 589.40625 C 382.261719 588.523438 381.453125 588.082031 380.472656 588.082031 L 380.207031 588.082031 C 379.230469 588.082031 378.421875 588.53125 377.773438 589.429688 C 377.394531 589.945312 377.203125 591.011719 377.203125 592.613281 L 377.203125 593.921875 L 377.21875 594.066406 L 377.234375 594.480469 L 377.257812 595.03125 C 377.257812 595.832031 377.484375 596.464844 377.925781 596.914062 C 378.582031 597.578125 379.277344 597.90625 380.023438 597.90625 L 380.558594 597.90625 C 381.390625 597.90625 382.140625 597.476562 382.800781 596.625 C 383.46875 595.765625 383.800781 594.78125 383.800781 593.65625 L 383.832031 593.335938 Z M 382.628906 598.65625 C 381.898438 598.953125 381.210938 599.097656 380.558594 599.097656 C 379.90625 599.097656 379.300781 599.023438 378.730469 598.886719 C 378.167969 598.738281 377.875 598.671875 377.855469 598.671875 C 377.347656 598.671875 377.09375 599.277344 377.09375 600.496094 C 377.09375 601.710938 377.179688 602.488281 377.347656 602.820312 C 377.515625 603.152344 377.835938 603.449219 378.304688 603.714844 C 378.765625 603.96875 379.003906 604.1875 379.003906 604.367188 C 379.003906 604.609375 378.378906 604.726562 377.136719 604.726562 L 376.78125 604.726562 L 376.425781 604.710938 L 376.058594 604.710938 C 374.039062 604.710938 373.03125 604.578125 373.03125 604.316406 C 373.03125 604.097656 373.261719 603.84375 373.714844 603.550781 C 374.171875 603.253906 374.484375 602.742188 374.636719 602.019531 C 374.792969 601.292969 374.871094 599.109375 374.871094 595.460938 C 374.871094 591.8125 374.808594 589.773438 374.6875 589.328125 C 374.574219 588.886719 374.378906 588.570312 374.089844 588.375 C 373.527344 587.980469 373.242188 587.734375 373.242188 587.625 C 373.242188 587.519531 373.308594 587.414062 373.4375 587.316406 C 373.933594 586.941406 374.835938 586.757812 376.160156 586.757812 C 376.507812 586.757812 376.773438 586.933594 376.953125 587.277344 L 377.121094 587.757812 C 377.199219 587.972656 377.257812 588.082031 377.316406 588.082031 C 377.457031 588.082031 377.738281 587.957031 378.15625 587.707031 C 379.34375 586.976562 380.363281 586.609375 381.210938 586.609375 C 382.710938 586.609375 383.898438 587.0625 384.777344 587.972656 C 385.316406 588.527344 385.730469 589.160156 386.027344 589.867188 C 386.3125 590.574219 386.464844 591.257812 386.464844 591.917969 L 386.464844 592.65625 C 386.464844 593.507812 386.304688 594.320312 385.996094 595.085938 C 385.273438 596.84375 384.15625 598.035156 382.628906 598.65625 Z M 399.742188 592.519531 C 399.742188 591.335938 399.425781 590.300781 398.796875 589.40625 C 398.171875 588.523438 397.363281 588.082031 396.382812 588.082031 L 396.117188 588.082031 C 395.140625 588.082031 394.332031 588.53125 393.683594 589.429688 C 393.304688 589.945312 393.113281 591.011719 393.113281 592.613281 L 393.113281 593.921875 L 393.125 594.066406 L 393.140625 594.480469 L 393.171875 595.03125 C 393.171875 595.832031 393.390625 596.464844 393.835938 596.914062 C 394.488281 597.578125 395.183594 597.90625 395.933594 597.90625 L 396.46875 597.90625 C 397.300781 597.90625 398.050781 597.476562 398.710938 596.625 C 399.378906 595.765625 399.710938 594.78125 399.710938 593.65625 L 399.742188 593.335938 Z M 398.539062 598.65625 C 397.808594 598.953125 397.121094 599.097656 396.46875 599.097656 C 395.816406 599.097656 395.210938 599.023438 394.644531 598.886719 C 394.078125 598.738281 393.78125 598.671875 393.761719 598.671875 C 393.257812 598.671875 393 599.277344 393 600.496094 C 393 601.710938 393.089844 602.488281 393.257812 602.820312 C 393.425781 603.152344 393.746094 603.449219 394.214844 603.714844 C 394.675781 603.96875 394.914062 604.1875 394.914062 604.367188 C 394.914062 604.609375 394.289062 604.726562 393.042969 604.726562 L 392.691406 604.726562 L 392.335938 604.710938 L 391.96875 604.710938 C 389.949219 604.710938 388.9375 604.578125 388.9375 604.316406 C 388.9375 604.097656 389.171875 603.84375 389.621094 603.550781 C 390.085938 603.253906 390.390625 602.742188 390.546875 602.019531 C 390.703125 601.292969 390.78125 599.109375 390.78125 595.460938 C 390.78125 591.8125 390.722656 589.773438 390.597656 589.328125 C 390.484375 588.886719 390.285156 588.570312 390 588.375 C 389.433594 587.980469 389.148438 587.734375 389.148438 587.625 C 389.148438 587.519531 389.21875 587.414062 389.347656 587.316406 C 389.839844 586.941406 390.746094 586.757812 392.070312 586.757812 C 392.414062 586.757812 392.679688 586.933594 392.859375 587.277344 L 393.03125 587.757812 C 393.105469 587.972656 393.171875 588.082031 393.226562 588.082031 C 393.367188 588.082031 393.648438 587.957031 394.066406 587.707031 C 395.253906 586.976562 396.273438 586.609375 397.121094 586.609375 C 398.621094 586.609375 399.808594 587.0625 400.6875 587.972656 C 401.226562 588.527344 401.640625 589.160156 401.9375 589.867188 C 402.222656 590.574219 402.375 591.257812 402.375 591.917969 L 402.375 592.65625 C 402.375 593.507812 402.214844 594.320312 401.90625 595.085938 C 401.183594 596.84375 400.0625 598.035156 398.539062 598.65625 Z M 407.113281 604.589844 C 406.613281 604.589844 406.179688 604.46875 405.824219 604.21875 C 405.46875 603.96875 405.285156 603.738281 405.285156 603.527344 C 405.285156 603.015625 405.832031 602.761719 406.933594 602.761719 C 407.597656 602.761719 408.253906 602.371094 408.894531 601.585938 C 409.539062 600.800781 409.855469 599.898438 409.855469 598.867188 C 409.855469 598.46875 409.699219 597.863281 409.378906 597.054688 C 408.121094 593.894531 407.058594 591.480469 406.1875 589.804688 C 406.050781 589.527344 405.710938 589.097656 405.175781 588.515625 C 404.636719 587.929688 404.371094 587.570312 404.371094 587.421875 C 404.371094 587.03125 405.421875 586.835938 407.539062 586.835938 L 407.964844 586.835938 C 408.765625 586.835938 409.167969 586.964844 409.167969 587.207031 C 409.167969 587.335938 409.078125 587.566406 408.910156 587.898438 C 408.742188 588.238281 408.652344 588.519531 408.652344 588.75 C 408.652344 589.550781 409.375 591.574219 410.8125 594.808594 C 411.109375 595.492188 411.332031 595.832031 411.472656 595.832031 C 411.566406 595.832031 411.730469 595.574219 411.96875 595.058594 C 413.386719 591.925781 414.089844 589.777344 414.089844 588.628906 C 414.089844 588.289062 413.976562 588 413.757812 587.757812 C 413.53125 587.519531 413.425781 587.375 413.425781 587.316406 C 413.425781 587 413.910156 586.835938 414.882812 586.835938 C 416.53125 586.835938 417.359375 587.003906 417.359375 587.335938 C 417.359375 587.527344 417.09375 587.925781 416.566406 588.523438 C 416.042969 589.117188 415.679688 589.621094 415.484375 590.019531 C 415.292969 590.421875 414.472656 592.425781 413.023438 596.035156 C 411.574219 599.644531 410.65625 601.785156 410.269531 602.453125 C 409.445312 603.878906 408.519531 604.589844 407.480469 604.589844 Z M 407.113281 604.589844 "/>
<path fill-rule="nonzero" fill="rgb(100%, 100%, 100%)" fill-opacity="1" d="M 366.953125 568.140625 C 366.523438 568.140625 366.25 568.421875 366.125 568.980469 C 366.054688 569.273438 366.023438 570.632812 366.023438 573.0625 C 366.023438 575.492188 366.085938 576.933594 366.210938 577.390625 C 366.289062 577.667969 366.507812 577.902344 366.871094 578.089844 C 367.234375 578.277344 367.410156 578.417969 367.410156 578.507812 C 367.410156 578.6875 367.289062 578.800781 367.042969 578.828125 C 366.925781 578.847656 366.273438 578.855469 365.089844 578.855469 L 363.933594 578.867188 C 363.214844 578.867188 362.859375 578.78125 362.859375 578.617188 C 362.859375 578.449219 363.046875 578.265625 363.421875 578.078125 C 363.800781 577.882812 364.035156 577.59375 364.125 577.214844 C 364.21875 576.828125 364.265625 575.433594 364.265625 573.027344 C 364.265625 570.621094 364.226562 569.269531 364.136719 568.960938 C 364.054688 568.660156 363.957031 568.453125 363.839844 568.351562 C 363.722656 568.25 363.507812 568.199219 363.199219 568.199219 C 362.136719 568.199219 361.390625 568.542969 360.964844 569.226562 C 360.648438 569.730469 360.484375 569.980469 360.472656 569.980469 C 360.277344 569.980469 360.179688 569.789062 360.179688 569.417969 C 360.179688 568.386719 360.277344 567.726562 360.484375 567.445312 C 360.621094 567.253906 360.96875 567.15625 361.542969 567.15625 L 362.097656 567.140625 L 362.949219 567.132812 L 365.824219 567.132812 L 366.125 567.140625 L 368.449219 567.132812 C 369.253906 567.132812 369.738281 567.207031 369.90625 567.355469 C 370.070312 567.5 370.15625 568.03125 370.15625 568.945312 L 370.15625 569.21875 C 370.15625 569.667969 370.070312 569.894531 369.886719 569.894531 C 369.789062 569.894531 369.621094 569.707031 369.386719 569.339844 C 369.144531 568.96875 368.847656 568.679688 368.5 568.464844 C 368.144531 568.25 367.632812 568.140625 366.953125 568.140625 Z M 371.753906 567.632812 C 371.753906 567.328125 372.242188 567.175781 373.226562 567.175781 L 373.492188 567.175781 C 373.851562 567.175781 374.078125 567.324219 374.164062 567.625 C 374.230469 567.839844 374.304688 568.5625 374.378906 569.78125 C 374.457031 571.007812 374.601562 571.625 374.804688 571.625 C 374.820312 571.625 375.101562 571.496094 375.648438 571.242188 C 376.199219 570.988281 376.683594 570.859375 377.117188 570.859375 C 377.546875 570.859375 377.96875 570.988281 378.382812 571.246094 C 378.800781 571.503906 379.09375 571.816406 379.265625 572.183594 C 379.441406 572.554688 379.527344 573.402344 379.527344 574.726562 C 379.527344 576.050781 379.570312 576.855469 379.65625 577.144531 C 379.742188 577.433594 379.890625 577.679688 380.097656 577.894531 C 380.3125 578.105469 380.414062 578.25 380.414062 578.324219 C 380.414062 578.402344 380.355469 578.472656 380.230469 578.53125 C 379.867188 578.707031 379.328125 578.800781 378.601562 578.800781 C 377.878906 578.800781 377.519531 578.699219 377.519531 578.5 C 377.519531 578.433594 377.578125 578.339844 377.695312 578.207031 C 377.808594 578.074219 377.890625 577.96875 377.925781 577.890625 C 377.957031 577.8125 377.976562 577.402344 377.976562 576.667969 L 377.988281 576.355469 L 378.003906 576.050781 C 378.035156 575.476562 378.050781 574.816406 378.050781 574.082031 C 378.050781 573.34375 377.914062 572.820312 377.660156 572.503906 C 377.398438 572.183594 376.964844 572.027344 376.355469 572.027344 C 376.125 572.027344 375.835938 572.113281 375.488281 572.28125 C 375.140625 572.453125 374.835938 572.722656 374.582031 573.101562 C 374.328125 573.476562 374.199219 574.230469 374.199219 575.363281 C 374.199219 576.503906 374.246094 577.222656 374.332031 577.527344 C 374.417969 577.832031 374.554688 578.066406 374.738281 578.230469 C 374.925781 578.394531 375.015625 578.511719 375.015625 578.582031 C 375.015625 578.773438 374.566406 578.867188 373.664062 578.867188 L 373.347656 578.855469 L 373.035156 578.855469 C 372.167969 578.855469 371.734375 578.738281 371.734375 578.5 C 371.734375 578.410156 371.855469 578.238281 372.09375 577.980469 C 372.332031 577.722656 372.496094 577.449219 372.574219 577.160156 C 372.652344 576.875 372.699219 576.117188 372.699219 574.882812 C 372.699219 573.660156 372.675781 572.683594 372.644531 571.949219 C 372.613281 571.222656 372.59375 570.835938 372.59375 570.78125 L 372.640625 569.652344 L 372.660156 569.125 C 372.660156 568.660156 372.625 568.355469 372.546875 568.210938 C 372.472656 568.070312 372.371094 567.960938 372.25 567.894531 L 372.058594 567.820312 C 371.855469 567.734375 371.753906 567.671875 371.753906 567.632812 Z M 387.671875 573.46875 L 387.671875 573.371094 C 387.671875 572.941406 387.5 572.546875 387.160156 572.1875 C 386.820312 571.828125 386.398438 571.648438 385.902344 571.648438 L 385.554688 571.648438 C 385.03125 571.648438 384.601562 571.859375 384.25 572.28125 C 383.90625 572.699219 383.734375 573.148438 383.734375 573.625 C 383.734375 573.84375 384.15625 573.953125 384.996094 573.953125 L 386.113281 573.953125 L 386.171875 573.941406 L 386.789062 573.910156 L 386.855469 573.902344 L 387.175781 573.871094 C 387.503906 573.871094 387.671875 573.742188 387.671875 573.46875 Z M 388.941406 577.03125 C 389.0625 577.03125 389.121094 577.101562 389.121094 577.230469 C 389.121094 577.367188 389.007812 577.558594 388.78125 577.808594 C 388.554688 578.054688 388.171875 578.304688 387.632812 578.5625 C 387.089844 578.8125 386.523438 578.9375 385.9375 578.9375 C 384.757812 578.9375 383.824219 578.582031 383.136719 577.863281 C 382.453125 577.148438 382.109375 576.195312 382.109375 575.011719 C 382.109375 573.253906 382.863281 571.984375 384.359375 571.207031 C 384.824219 570.964844 385.328125 570.84375 385.859375 570.84375 L 386.234375 570.84375 C 387 570.84375 387.660156 571.078125 388.21875 571.546875 C 388.511719 571.792969 388.746094 572.105469 388.925781 572.476562 C 389.105469 572.839844 389.195312 573.164062 389.195312 573.4375 L 389.195312 573.605469 C 389.195312 573.964844 389 574.199219 388.601562 574.3125 C 388.207031 574.421875 387.429688 574.5 386.269531 574.554688 C 385.113281 574.601562 384.453125 574.660156 384.296875 574.722656 C 383.96875 574.851562 383.808594 575.117188 383.808594 575.53125 C 383.808594 576.257812 384.082031 576.863281 384.636719 577.347656 C 385.078125 577.730469 385.671875 577.925781 386.433594 577.925781 C 386.808594 577.925781 387.25 577.816406 387.765625 577.59375 C 387.832031 577.566406 388.015625 577.464844 388.34375 577.292969 C 388.664062 577.121094 388.863281 577.03125 388.941406 577.03125 "/>
</svg>
