<?xml version="1.0" encoding="UTF-8"?>
<!-- CMYK_PDF_CONVERTED -->
<svg data-vectorized-cmyk="true" data-original-cmyk-pdf="true" xmlns="http://www.w3.org/2000/svg" xmlns:xlink="http://www.w3.org/1999/xlink" width="841.89" height="1190.55" viewBox="0 0 841.89 1190.55">
<path fill-rule="nonzero" fill="rgb(13.729858%, 12.159729%, 12.548828%)" fill-opacity="1" d="M 26.25 160.660156 L 140.75 160.660156 L 140.75 46.160156 L 26.25 46.160156 Z M 26.25 160.660156 "/>
<path fill-rule="nonzero" fill="rgb(92.939758%, 10.978699%, 14.118958%)" fill-opacity="1" d="M 157.25 160.660156 L 271.75 160.660156 L 271.75 46.160156 L 157.25 46.160156 Z M 157.25 160.660156 "/>
<path fill-rule="nonzero" fill="rgb(100%, 94.898987%, 0%)" fill-opacity="1" d="M 288.25 160.660156 L 402.75 160.660156 L 402.75 46.160156 L 288.25 46.160156 Z M 288.25 160.660156 "/>
<path fill-rule="nonzero" fill="rgb(0%, 65.098572%, 31.369019%)" fill-opacity="1" d="M 419.25 160.660156 L 533.75 160.660156 L 533.75 46.160156 L 419.25 46.160156 Z M 419.25 160.660156 "/>
<path fill-rule="nonzero" fill="rgb(0%, 67.83905%, 93.728638%)" fill-opacity="1" d="M 550.25 160.660156 L 664.75 160.660156 L 664.75 46.160156 L 550.25 46.160156 Z M 550.25 160.660156 "/>
<path fill-rule="nonzero" fill="rgb(18.03894%, 19.219971%, 57.249451%)" fill-opacity="1" d="M 681.25 160.660156 L 795.75 160.660156 L 795.75 46.160156 L 681.25 46.160156 Z M 681.25 160.660156 "/>
<path fill-rule="nonzero" fill="rgb(92.549133%, 0%, 54.899597%)" fill-opacity="1" d="M 26.25 307.65625 L 140.75 307.65625 L 140.75 193.15625 L 26.25 193.15625 Z M 26.25 307.65625 "/>
<path fill-rule="nonzero" fill="rgb(75.02594%, 10.394287%, 17.393494%)" fill-opacity="1" d="M 157.25 307.65625 L 271.75 307.65625 L 271.75 193.15625 L 157.25 193.15625 Z M 157.25 307.65625 "/>
<path fill-rule="nonzero" fill="rgb(93.589783%, 17.927551%, 19.734192%)" fill-opacity="1" d="M 288.25 307.65625 L 402.75 307.65625 L 402.75 193.15625 L 288.25 193.15625 Z M 288.25 307.65625 "/>
<path fill-rule="nonzero" fill="rgb(94.329834%, 27.304077%, 13.975525%)" fill-opacity="1" d="M 419.25 307.65625 L 533.75 307.65625 L 533.75 193.15625 L 419.25 193.15625 Z M 419.25 307.65625 "/>
<path fill-rule="nonzero" fill="rgb(96.469116%, 52.938843%, 7.058716%)" fill-opacity="1" d="M 550.25 307.65625 L 664.75 307.65625 L 664.75 193.15625 L 550.25 193.15625 Z M 550.25 307.65625 "/>
<path fill-rule="nonzero" fill="rgb(97.506714%, 65.438843%, 16.86554%)" fill-opacity="1" d="M 681.25 307.65625 L 795.75 307.65625 L 795.75 193.15625 L 681.25 193.15625 Z M 681.25 307.65625 "/>
<path fill-rule="nonzero" fill="rgb(95.001221%, 93.90564%, 11.340332%)" fill-opacity="1" d="M 26.25 454.65625 L 140.75 454.65625 L 140.75 340.15625 L 26.25 340.15625 Z M 26.25 454.65625 "/>
<path fill-rule="nonzero" fill="rgb(80.006409%, 88.94043%, 6.271362%)" fill-opacity="1" d="M 157.25 454.65625 L 271.75 454.65625 L 271.75 340.15625 L 157.25 340.15625 Z M 157.25 454.65625 "/>
<path fill-rule="nonzero" fill="rgb(50%, 79.998779%, 15.684509%)" fill-opacity="1" d="M 288.25 454.65625 L 402.75 454.65625 L 402.75 340.15625 L 288.25 340.15625 Z M 288.25 454.65625 "/>
<path fill-rule="nonzero" fill="rgb(25%, 72.549438%, 23.526001%)" fill-opacity="1" d="M 419.25 454.65625 L 533.75 454.65625 L 533.75 340.15625 L 419.25 340.15625 Z M 419.25 454.65625 "/>
<path fill-rule="nonzero" fill="rgb(15.228271%, 58.827209%, 23.484802%)" fill-opacity="1" d="M 550.25 454.65625 L 664.75 454.65625 L 664.75 340.15625 L 550.25 340.15625 Z M 550.25 454.65625 "/>
<path fill-rule="nonzero" fill="rgb(11.151123%, 39.237976%, 20.535278%)" fill-opacity="1" d="M 681.25 454.65625 L 795.75 454.65625 L 795.75 340.15625 L 681.25 340.15625 Z M 681.25 454.65625 "/>
<path fill-rule="nonzero" fill="rgb(31.63147%, 67.907715%, 89.758301%)" fill-opacity="1" d="M 26.25 601.65625 L 140.75 601.65625 L 140.75 487.15625 L 26.25 487.15625 Z M 26.25 601.65625 "/>
<path fill-rule="nonzero" fill="rgb(22.143555%, 44.502258%, 75.784302%)" fill-opacity="1" d="M 157.25 601.65625 L 271.75 601.65625 L 271.75 487.15625 L 157.25 487.15625 Z M 157.25 601.65625 "/>
<path fill-rule="nonzero" fill="rgb(17.271423%, 21.774292%, 57.287598%)" fill-opacity="1" d="M 288.25 601.65625 L 402.75 601.65625 L 402.75 487.15625 L 288.25 487.15625 Z M 288.25 601.65625 "/>
<path fill-rule="nonzero" fill="rgb(14.117432%, 14.784241%, 36.538696%)" fill-opacity="1" d="M 419.25 601.65625 L 533.75 601.65625 L 533.75 487.15625 L 419.25 487.15625 Z M 419.25 601.65625 "/>
<path fill-rule="nonzero" fill="rgb(36.66687%, 14.414978%, 56.661987%)" fill-opacity="1" d="M 550.25 601.65625 L 664.75 601.65625 L 664.75 487.15625 L 550.25 487.15625 Z M 550.25 601.65625 "/>
<path fill-rule="nonzero" fill="rgb(55.2948%, 9.609985%, 56.074524%)" fill-opacity="1" d="M 681.25 601.65625 L 795.75 601.65625 L 795.75 487.15625 L 681.25 487.15625 Z M 681.25 601.65625 "/>
<path fill-rule="nonzero" fill="rgb(61.13739%, 8.520508%, 37.962341%)" fill-opacity="1" d="M 26.25 748.65625 L 140.75 748.65625 L 140.75 634.15625 L 26.25 634.15625 Z M 26.25 748.65625 "/>
<path fill-rule="nonzero" fill="rgb(85.423279%, 6.962585%, 35.038757%)" fill-opacity="1" d="M 157.25 748.65625 L 271.75 748.65625 L 271.75 634.15625 L 157.25 634.15625 Z M 157.25 748.65625 "/>
<path fill-rule="nonzero" fill="rgb(93.002319%, 7.10907%, 48.434448%)" fill-opacity="1" d="M 288.25 748.65625 L 402.75 748.65625 L 402.75 634.15625 L 288.25 634.15625 Z M 288.25 748.65625 "/>
<path fill-rule="nonzero" fill="rgb(74.838257%, 69.689941%, 56.596375%)" fill-opacity="1" d="M 419.25 748.65625 L 533.75 748.65625 L 533.75 634.15625 L 419.25 634.15625 Z M 419.25 748.65625 "/>
<path fill-rule="nonzero" fill="rgb(58.891296%, 49.569702%, 44.590759%)" fill-opacity="1" d="M 550.25 748.65625 L 664.75 748.65625 L 664.75 634.15625 L 550.25 634.15625 Z M 550.25 748.65625 "/>
<path fill-rule="nonzero" fill="rgb(41.490173%, 36.759949%, 31.277466%)" fill-opacity="1" d="M 681.25 748.65625 L 795.75 748.65625 L 795.75 634.15625 L 681.25 634.15625 Z M 681.25 748.65625 "/>
<path fill-rule="nonzero" fill="rgb(32.099915%, 25.787354%, 23.031616%)" fill-opacity="1" d="M 26.25 887.65625 L 140.75 887.65625 L 140.75 773.15625 L 26.25 773.15625 Z M 26.25 887.65625 "/>
<path fill-rule="nonzero" fill="rgb(74.848938%, 57.617188%, 35.676575%)" fill-opacity="1" d="M 157.25 887.65625 L 271.75 887.65625 L 271.75 773.15625 L 157.25 773.15625 Z M 157.25 887.65625 "/>
<path fill-rule="nonzero" fill="rgb(51.956177%, 32.403564%, 19.876099%)" fill-opacity="1" d="M 288.25 887.65625 L 402.75 887.65625 L 402.75 773.15625 L 288.25 773.15625 Z M 288.25 887.65625 "/>
<path fill-rule="nonzero" fill="rgb(43.385315%, 26.124573%, 13.917542%)" fill-opacity="1" d="M 419.25 887.65625 L 533.75 887.65625 L 533.75 773.15625 L 419.25 773.15625 Z M 419.25 887.65625 "/>
<path fill-rule="nonzero" fill="rgb(35.272217%, 19.113159%, 7.972717%)" fill-opacity="1" d="M 550.25 887.65625 L 664.75 887.65625 L 664.75 773.15625 L 550.25 773.15625 Z M 550.25 887.65625 "/>
<path fill-rule="nonzero" fill="rgb(20.957947%, 12.283325%, 8.898926%)" fill-opacity="1" d="M 681.25 887.65625 L 795.75 887.65625 L 795.75 773.15625 L 681.25 773.15625 Z M 681.25 887.65625 "/>
<path fill-rule="nonzero" fill="rgb(22.322083%, 20.909119%, 21.260071%)" fill-opacity="1" d="M 26.25 1026.65625 L 140.75 1026.65625 L 140.75 912.15625 L 26.25 912.15625 Z M 26.25 1026.65625 "/>
<path fill-rule="nonzero" fill="rgb(30.917358%, 29.660034%, 29.972839%)" fill-opacity="1" d="M 157.25 1026.65625 L 271.75 1026.65625 L 271.75 912.15625 L 157.25 912.15625 Z M 157.25 1026.65625 "/>
<path fill-rule="nonzero" fill="rgb(39.677429%, 38.580322%, 38.851929%)" fill-opacity="1" d="M 288.25 1026.65625 L 402.75 1026.65625 L 402.75 912.15625 L 288.25 912.15625 Z M 288.25 1026.65625 "/>
<path fill-rule="nonzero" fill="rgb(48.272705%, 47.331238%, 47.564697%)" fill-opacity="1" d="M 419.25 1026.65625 L 533.75 1026.65625 L 533.75 912.15625 L 419.25 912.15625 Z M 419.25 1026.65625 "/>
<path fill-rule="nonzero" fill="rgb(56.864929%, 56.079102%, 56.274414%)" fill-opacity="1" d="M 550.25 1026.65625 L 664.75 1026.65625 L 664.75 912.15625 L 550.25 912.15625 Z M 550.25 1026.65625 "/>
<path fill-rule="nonzero" fill="rgb(65.501404%, 64.872742%, 65.028381%)" fill-opacity="1" d="M 681.25 1026.65625 L 795.75 1026.65625 L 795.75 912.15625 L 681.25 912.15625 Z M 681.25 1026.65625 "/>
<path fill-rule="nonzero" fill="rgb(74.113464%, 73.643494%, 73.75946%)" fill-opacity="1" d="M 26.25 1165.65625 L 140.75 1165.65625 L 140.75 1051.15625 L 26.25 1051.15625 Z M 26.25 1165.65625 "/>
<path fill-rule="nonzero" fill="rgb(82.751465%, 82.437134%, 82.514954%)" fill-opacity="1" d="M 157.25 1165.65625 L 271.75 1165.65625 L 271.75 1051.15625 L 157.25 1051.15625 Z M 157.25 1165.65625 "/>
<path fill-rule="nonzero" fill="rgb(91.363525%, 91.20636%, 91.246033%)" fill-opacity="1" d="M 288.25 1165.65625 L 402.75 1165.65625 L 402.75 1051.15625 L 288.25 1051.15625 Z M 288.25 1165.65625 "/>
<path fill-rule="nonzero" fill="rgb(95.68634%, 95.608521%, 95.628357%)" fill-opacity="1" d="M 419.25 1165.65625 L 533.75 1165.65625 L 533.75 1051.15625 L 419.25 1051.15625 Z M 419.25 1165.65625 "/>
<path fill-rule="nonzero" fill="rgb(100%, 100%, 100%)" fill-opacity="1" d="M 550.25 1165.65625 L 664.75 1165.65625 L 664.75 1051.15625 L 550.25 1051.15625 Z M 550.25 1165.65625 "/>
<path fill-rule="nonzero" fill="rgb(0%, 0%, 0%)" fill-opacity="1" d="M 681.25 1165.65625 L 795.75 1165.65625 L 795.75 1051.15625 L 681.25 1051.15625 Z M 681.25 1165.65625 "/>
</svg>
