<?xml version="1.0" encoding="UTF-8"?>
<!-- CMYK_PDF_CONVERTED -->
<svg data-vectorized-cmyk="true" data-original-cmyk-pdf="true" xmlns="http://www.w3.org/2000/svg" xmlns:xlink="http://www.w3.org/1999/xlink" width="841.89" height="1190.55" viewBox="0 0 841.89 1190.55">
<path fill-rule="nonzero" fill="rgb(7.000732%, 7.241821%, 7.885742%)" fill-opacity="1" d="M 140.75 160.65625 L 26.25 160.65625 L 26.25 46.15625 L 140.75 46.15625 Z M 140.75 160.65625 "/>
<path fill-rule="nonzero" fill="rgb(92.76886%, 12.489319%, 15.208435%)" fill-opacity="1" d="M 271.75 160.65625 L 157.25 160.65625 L 157.25 46.15625 L 271.75 46.15625 Z M 271.75 160.65625 "/>
<path fill-rule="nonzero" fill="rgb(99.172974%, 94.563293%, 4.981995%)" fill-opacity="1" d="M 402.75 160.65625 L 288.25 160.65625 L 288.25 46.15625 L 402.75 46.15625 Z M 402.75 160.65625 "/>
<path fill-rule="nonzero" fill="rgb(1.985168%, 65.284729%, 31.750488%)" fill-opacity="1" d="M 533.75 160.65625 L 419.25 160.65625 L 419.25 46.15625 L 533.75 46.15625 Z M 533.75 160.65625 "/>
<path fill-rule="nonzero" fill="rgb(9.204102%, 67.147827%, 91.900635%)" fill-opacity="1" d="M 664.75 160.65625 L 550.25 160.65625 L 550.25 46.15625 L 664.75 46.15625 Z M 664.75 160.65625 "/>
<path fill-rule="nonzero" fill="rgb(18.777466%, 19.741821%, 56.468201%)" fill-opacity="1" d="M 795.75 160.65625 L 681.25 160.65625 L 681.25 46.15625 L 795.75 46.15625 Z M 795.75 160.65625 "/>
<path fill-rule="nonzero" fill="rgb(91.989136%, 5.14679%, 54.139709%)" fill-opacity="1" d="M 140.75 307.65625 L 26.25 307.65625 L 26.25 193.15625 L 140.75 193.15625 Z M 140.75 307.65625 "/>
<path fill-rule="nonzero" fill="rgb(76.013184%, 10.501099%, 17.29126%)" fill-opacity="1" d="M 271.75 307.65625 L 157.25 307.65625 L 157.25 193.15625 L 271.75 193.15625 Z M 271.75 307.65625 "/>
<path fill-rule="nonzero" fill="rgb(93.722534%, 27.560425%, 13.729858%)" fill-opacity="1" d="M 402.75 307.65625 L 288.25 307.65625 L 288.25 193.15625 L 402.75 193.15625 Z M 402.75 307.65625 "/>
<path fill-rule="nonzero" fill="rgb(96.157837%, 53.038025%, 8.100891%)" fill-opacity="1" d="M 533.75 307.65625 L 419.25 307.65625 L 419.25 193.15625 L 533.75 193.15625 Z M 533.75 307.65625 "/>
<path fill-rule="nonzero" fill="rgb(97.161865%, 65.559387%, 16.741943%)" fill-opacity="1" d="M 664.75 307.65625 L 550.25 307.65625 L 550.25 193.15625 L 664.75 193.15625 Z M 664.75 307.65625 "/>
<path fill-rule="nonzero" fill="rgb(94.877625%, 93.553162%, 11.631775%)" fill-opacity="1" d="M 795.75 307.65625 L 681.25 307.65625 L 681.25 193.15625 L 795.75 193.15625 Z M 795.75 307.65625 "/>
<path fill-rule="nonzero" fill="rgb(80.500793%, 89.163208%, 7.598877%)" fill-opacity="1" d="M 140.75 454.65625 L 26.25 454.65625 L 26.25 340.15625 L 140.75 340.15625 Z M 140.75 454.65625 "/>
<path fill-rule="nonzero" fill="rgb(50.401306%, 80.181885%, 16.859436%)" fill-opacity="1" d="M 271.75 454.65625 L 157.25 454.65625 L 157.25 340.15625 L 271.75 340.15625 Z M 271.75 454.65625 "/>
<path fill-rule="nonzero" fill="rgb(15.246582%, 59.060669%, 24.139404%)" fill-opacity="1" d="M 402.75 454.65625 L 288.25 454.65625 L 288.25 340.15625 L 402.75 340.15625 Z M 402.75 454.65625 "/>
<path fill-rule="nonzero" fill="rgb(11.767578%, 40.049744%, 20.759583%)" fill-opacity="1" d="M 533.75 454.65625 L 419.25 454.65625 L 419.25 340.15625 L 533.75 340.15625 Z M 533.75 454.65625 "/>
<path fill-rule="nonzero" fill="rgb(25.106812%, 72.935486%, 41.372681%)" fill-opacity="1" d="M 664.75 454.65625 L 550.25 454.65625 L 550.25 340.15625 L 664.75 340.15625 Z M 664.75 454.65625 "/>
<path fill-rule="nonzero" fill="rgb(21.728516%, 67.240906%, 61.758423%)" fill-opacity="1" d="M 795.75 454.65625 L 681.25 454.65625 L 681.25 340.15625 L 795.75 340.15625 Z M 795.75 454.65625 "/>
<path fill-rule="nonzero" fill="rgb(31.607056%, 68.200684%, 89.131165%)" fill-opacity="1" d="M 140.75 601.65625 L 26.25 601.65625 L 26.25 487.15625 L 140.75 487.15625 Z M 140.75 601.65625 "/>
<path fill-rule="nonzero" fill="rgb(22.070312%, 44.40918%, 75.183105%)" fill-opacity="1" d="M 271.75 601.65625 L 157.25 601.65625 L 157.25 487.15625 L 271.75 487.15625 Z M 271.75 601.65625 "/>
<path fill-rule="nonzero" fill="rgb(17.375183%, 21.658325%, 56.292725%)" fill-opacity="1" d="M 402.75 601.65625 L 288.25 601.65625 L 288.25 487.15625 L 402.75 487.15625 Z M 402.75 601.65625 "/>
<path fill-rule="nonzero" fill="rgb(12.612915%, 13.807678%, 34.046936%)" fill-opacity="1" d="M 533.75 601.65625 L 419.25 601.65625 L 419.25 487.15625 L 533.75 487.15625 Z M 533.75 601.65625 "/>
<path fill-rule="nonzero" fill="rgb(36.508179%, 15.306091%, 55.912781%)" fill-opacity="1" d="M 664.75 601.65625 L 550.25 601.65625 L 550.25 487.15625 L 664.75 487.15625 Z M 664.75 601.65625 "/>
<path fill-rule="nonzero" fill="rgb(55.13916%, 10.394287%, 55.427551%)" fill-opacity="1" d="M 795.75 601.65625 L 681.25 601.65625 L 681.25 487.15625 L 795.75 487.15625 Z M 795.75 601.65625 "/>
<path fill-rule="nonzero" fill="rgb(61.289978%, 7.833862%, 37.254333%)" fill-opacity="1" d="M 140.75 748.65625 L 26.25 748.65625 L 26.25 634.15625 L 140.75 634.15625 Z M 140.75 748.65625 "/>
<path fill-rule="nonzero" fill="rgb(85.559082%, 7.225037%, 34.786987%)" fill-opacity="1" d="M 271.75 748.65625 L 157.25 748.65625 L 157.25 634.15625 L 271.75 634.15625 Z M 271.75 748.65625 "/>
<path fill-rule="nonzero" fill="rgb(92.704773%, 7.263184%, 48.147583%)" fill-opacity="1" d="M 402.75 748.65625 L 288.25 748.65625 L 288.25 634.15625 L 402.75 634.15625 Z M 402.75 748.65625 "/>
<path fill-rule="nonzero" fill="rgb(75.588989%, 70.179749%, 56.771851%)" fill-opacity="1" d="M 533.75 748.65625 L 419.25 748.65625 L 419.25 634.15625 L 533.75 634.15625 Z M 533.75 748.65625 "/>
<path fill-rule="nonzero" fill="rgb(58.828735%, 49.867249%, 44.384766%)" fill-opacity="1" d="M 664.75 748.65625 L 550.25 748.65625 L 550.25 634.15625 L 664.75 634.15625 Z M 664.75 748.65625 "/>
<path fill-rule="nonzero" fill="rgb(41.706848%, 37.181091%, 31.791687%)" fill-opacity="1" d="M 795.75 748.65625 L 681.25 748.65625 L 681.25 634.15625 L 795.75 634.15625 Z M 795.75 748.65625 "/>
<path fill-rule="nonzero" fill="rgb(32.249451%, 25.645447%, 22.967529%)" fill-opacity="1" d="M 140.75 887.65625 L 26.25 887.65625 L 26.25 773.15625 L 140.75 773.15625 Z M 140.75 887.65625 "/>
<path fill-rule="nonzero" fill="rgb(75.561523%, 57.865906%, 35.968018%)" fill-opacity="1" d="M 271.75 887.65625 L 157.25 887.65625 L 157.25 773.15625 L 271.75 773.15625 Z M 271.75 887.65625 "/>
<path fill-rule="nonzero" fill="rgb(53.799438%, 35.357666%, 22.257996%)" fill-opacity="1" d="M 402.75 887.65625 L 288.25 887.65625 L 288.25 773.15625 L 402.75 773.15625 Z M 402.75 887.65625 "/>
<path fill-rule="nonzero" fill="rgb(45.056152%, 28.410339%, 14.622498%)" fill-opacity="1" d="M 533.75 887.65625 L 419.25 887.65625 L 419.25 773.15625 L 533.75 773.15625 Z M 533.75 887.65625 "/>
<path fill-rule="nonzero" fill="rgb(36.053467%, 18.986511%, 7.756042%)" fill-opacity="1" d="M 664.75 887.65625 L 550.25 887.65625 L 550.25 773.15625 L 664.75 773.15625 Z M 664.75 887.65625 "/>
<path fill-rule="nonzero" fill="rgb(21.405029%, 12.817383%, 9.204102%)" fill-opacity="1" d="M 795.75 887.65625 L 681.25 887.65625 L 681.25 773.15625 L 795.75 773.15625 Z M 795.75 887.65625 "/>
<path fill-rule="nonzero" fill="rgb(18.185425%, 17.901611%, 19.056702%)" fill-opacity="1" d="M 140.75 1026.65625 L 26.25 1026.65625 L 26.25 912.15625 L 140.75 912.15625 Z M 140.75 1026.65625 "/>
<path fill-rule="nonzero" fill="rgb(28.578186%, 29.006958%, 30.264282%)" fill-opacity="1" d="M 271.75 1026.65625 L 157.25 1026.65625 L 157.25 912.15625 L 271.75 912.15625 Z M 271.75 1026.65625 "/>
<path fill-rule="nonzero" fill="rgb(38.821411%, 39.189148%, 41.027832%)" fill-opacity="1" d="M 402.75 1026.65625 L 288.25 1026.65625 L 288.25 912.15625 L 402.75 912.15625 Z M 402.75 1026.65625 "/>
<path fill-rule="nonzero" fill="rgb(48.703003%, 49.708557%, 51.428223%)" fill-opacity="1" d="M 533.75 1026.65625 L 419.25 1026.65625 L 419.25 912.15625 L 533.75 912.15625 Z M 533.75 1026.65625 "/>
<path fill-rule="nonzero" fill="rgb(57.907104%, 59.997559%, 60.600281%)" fill-opacity="1" d="M 664.75 1026.65625 L 550.25 1026.65625 L 550.25 912.15625 L 664.75 912.15625 Z M 664.75 1026.65625 "/>
<path fill-rule="nonzero" fill="rgb(66.914368%, 68.496704%, 69.17572%)" fill-opacity="1" d="M 795.75 1026.65625 L 681.25 1026.65625 L 681.25 912.15625 L 795.75 912.15625 Z M 795.75 1026.65625 "/>
<path fill-rule="nonzero" fill="rgb(75.480652%, 77.346802%, 77.163696%)" fill-opacity="1" d="M 140.75 1165.65625 L 26.25 1165.65625 L 26.25 1051.15625 L 140.75 1051.15625 Z M 140.75 1165.65625 "/>
<path fill-rule="nonzero" fill="rgb(83.642578%, 84.518433%, 84.983826%)" fill-opacity="1" d="M 271.75 1165.65625 L 157.25 1165.65625 L 157.25 1051.15625 L 271.75 1051.15625 Z M 271.75 1165.65625 "/>
<path fill-rule="nonzero" fill="rgb(83.642578%, 84.518433%, 84.983826%)" fill-opacity="1" d="M 402.75 1165.65625 L 288.25 1165.65625 L 288.25 1051.15625 L 402.75 1051.15625 Z M 402.75 1165.65625 "/>
<path fill-rule="nonzero" fill="rgb(91.902161%, 91.970825%, 91.525269%)" fill-opacity="1" d="M 533.75 1165.65625 L 419.25 1165.65625 L 419.25 1051.15625 L 533.75 1051.15625 Z M 533.75 1165.65625 "/>
<path fill-rule="nonzero" fill="rgb(100%, 100%, 100%)" fill-opacity="1" d="M 664.75 1165.65625 L 550.25 1165.65625 L 550.25 1051.15625 L 664.75 1051.15625 Z M 664.75 1165.65625 "/>
<path fill-rule="nonzero" fill="rgb(3.903198%, 4.464722%, 5.921936%)" fill-opacity="1" d="M 795.75 1165.65625 L 681.25 1165.65625 L 681.25 1051.15625 L 795.75 1051.15625 Z M 795.75 1165.65625 "/>
</svg>
