<?xml version="1.0" encoding="UTF-8"?>
<svg xmlns="http://www.w3.org/2000/svg" xmlns:xlink="http://www.w3.org/1999/xlink" width="595.2756" height="419.5276" viewBox="0 0 595.2756 419.5276">
<path fill-rule="evenodd" fill="rgb(67.932129%, 11.036682%, 18.218994%)" fill-opacity="1" d="M 393.496094 193.144531 L 394.28125 192.867188 C 392.96875 190.109375 393.363281 189.371094 390.609375 188.359375 C 390.480469 187.253906 390.347656 185.230469 389.824219 184.3125 C 388.644531 182.011719 388.644531 185.140625 388.378906 180.628906 L 387.070312 180.722656 L 387.332031 184.679688 C 388.644531 185.046875 386.808594 184.125 389.296875 185.046875 L 389.953125 189.554688 C 393.101562 190.660156 391.398438 190.9375 393.496094 193.144531 "/>
<path fill-rule="evenodd" fill="rgb(67.932129%, 11.036682%, 18.218994%)" fill-opacity="1" d="M 399.789062 171.980469 L 402.804688 170.414062 L 401.757812 169.863281 C 400.050781 170.691406 400.707031 170.140625 399.789062 171.980469 "/>
<path fill-rule="evenodd" fill="rgb(67.932129%, 11.036682%, 18.218994%)" fill-opacity="1" d="M 394.414062 216.792969 C 398.871094 216.792969 409.753906 214.953125 408.574219 208.789062 C 404.511719 207.867188 404.773438 212.378906 397.953125 216.058594 C 393.625 218.265625 394.542969 216.980469 394.414062 216.792969 "/>
<path fill-rule="evenodd" fill="rgb(67.932129%, 11.036682%, 18.218994%)" fill-opacity="1" d="M 337.238281 174.925781 C 337.238281 172.253906 337.238281 172.714844 334.351562 171.703125 C 331.992188 170.875 331.730469 170.324219 330.8125 172.53125 C 331.859375 174.003906 335.269531 174.464844 337.238281 174.925781 "/>
<path fill-rule="evenodd" fill="rgb(67.932129%, 11.036682%, 18.218994%)" fill-opacity="1" d="M 338.15625 172.070312 C 338.417969 174.832031 339.207031 175.753906 341.828125 176.949219 L 341.695312 171.703125 Z M 338.15625 172.070312 "/>
<path fill-rule="evenodd" fill="rgb(67.932129%, 11.036682%, 18.218994%)" fill-opacity="1" d="M 417.886719 212.285156 C 417.492188 209.894531 417.097656 209.25 414.476562 210.167969 L 415.394531 213.480469 Z M 417.886719 212.285156 "/>
<path fill-rule="evenodd" fill="rgb(67.932129%, 11.036682%, 18.218994%)" fill-opacity="1" d="M 405.691406 199.769531 C 403.066406 199.953125 403.460938 202.4375 405.953125 203.082031 Z M 405.691406 199.769531 "/>
<path fill-rule="evenodd" fill="rgb(99.998474%, 99.998474%, 99.998474%)" fill-opacity="1" d="M 369.628906 140.96875 C 371.203125 140.140625 370.023438 140.140625 371.988281 140.691406 C 373.300781 142.992188 373.039062 143.359375 373.039062 145.84375 L 375.136719 146.582031 C 376.578125 144.738281 378.019531 141.242188 376.054688 139.3125 C 375.921875 133.054688 365.824219 133.789062 365.957031 140.414062 C 364.90625 142.070312 365.300781 143.542969 366.351562 145.292969 L 369.105469 145.199219 Z M 369.628906 140.96875 "/>
<path fill-rule="evenodd" fill="rgb(99.998474%, 99.998474%, 99.998474%)" fill-opacity="1" d="M 347.597656 145.386719 C 348.648438 146.949219 348.910156 146.671875 350.746094 147.039062 C 353.234375 147.5 354.679688 147.5 356.910156 146.304688 L 354.808594 145.292969 L 346.941406 144.003906 L 347.074219 145.476562 Z M 347.597656 145.386719 "/>
<path fill-rule="evenodd" fill="rgb(67.932129%, 11.036682%, 18.218994%)" fill-opacity="1" d="M 378.28125 214.496094 C 379.199219 214.035156 387.460938 216.058594 393.886719 212.378906 C 397.429688 210.351562 404.640625 205.75 398.214844 202.4375 C 396.773438 203.636719 395.855469 205.382812 394.28125 206.949219 C 390.085938 210.90625 384.183594 214.125 378.28125 214.496094 "/>
<path fill-rule="evenodd" fill="rgb(67.932129%, 11.036682%, 18.218994%)" fill-opacity="1" d="M 326.746094 229.953125 C 327.011719 229.679688 332.125 223.511719 332.78125 222.683594 C 335.007812 219.925781 336.058594 216.609375 337.5 213.390625 C 339.074219 210.167969 340.253906 206.855469 341.433594 203.265625 C 342.484375 200.046875 345.105469 195.351562 341.039062 194.339844 C 339.207031 197.652344 337.238281 209.339844 335.269531 214.3125 C 333.433594 219.28125 331.992188 222.867188 329.109375 227.285156 C 329.109375 227.46875 327.796875 229.308594 327.796875 229.308594 C 327.011719 230.324219 327.664062 230.230469 326.746094 229.953125 "/>
<path fill-rule="evenodd" fill="rgb(67.932129%, 11.036682%, 18.218994%)" fill-opacity="1" d="M 389.035156 216.058594 C 393.496094 215.78125 396.511719 215.414062 400.445312 213.023438 C 403.328125 211.367188 408.445312 207.222656 402.410156 205.566406 C 399.132812 209.710938 395.066406 215.324219 389.035156 216.058594 "/>
<path fill-rule="evenodd" fill="rgb(67.932129%, 11.036682%, 18.218994%)" fill-opacity="1" d="M 383.527344 179.523438 C 387.460938 180.351562 391.660156 178.511719 391.789062 174.28125 L 386.414062 172.992188 C 385.234375 175.015625 382.742188 177.222656 383.527344 179.523438 "/>
<path fill-rule="evenodd" fill="rgb(67.932129%, 11.036682%, 18.218994%)" fill-opacity="1" d="M 405.820312 171.703125 C 408.179688 171.980469 411.855469 167.929688 414.476562 166.550781 C 412.246094 164.984375 412.117188 165.90625 410.410156 163.238281 C 411.066406 166.367188 402.9375 168.023438 405.820312 171.703125 "/>
<path fill-rule="evenodd" fill="rgb(67.932129%, 11.036682%, 18.218994%)" fill-opacity="1" d="M 399.789062 171.980469 C 399.921875 172.992188 399.265625 174.738281 401.230469 175.660156 C 403.328125 176.582031 404.773438 175.660156 406.082031 174.832031 C 406.214844 172.53125 404.640625 171.796875 403.066406 169.21875 L 401.757812 169.863281 L 402.804688 170.414062 Z M 399.789062 171.980469 "/>
<path fill-rule="evenodd" fill="rgb(67.932129%, 11.036682%, 18.218994%)" fill-opacity="1" d="M 433.621094 201.609375 C 438.867188 197.101562 428.246094 194.800781 426.015625 197.46875 L 426.933594 198.574219 C 427.328125 198.851562 427.851562 198.941406 428.246094 199.035156 C 434.277344 200.78125 431.785156 201.335938 433.621094 201.609375 "/>
<path fill-rule="evenodd" fill="rgb(67.932129%, 11.036682%, 18.218994%)" fill-opacity="1" d="M 328.320312 173.269531 C 330.8125 170.414062 333.433594 167.65625 327.402344 167.195312 C 323.992188 169.402344 324.257812 172.53125 328.320312 173.269531 "/>
<path fill-rule="evenodd" fill="rgb(67.932129%, 11.036682%, 18.218994%)" fill-opacity="1" d="M 318.617188 164.339844 C 320.058594 166.367188 321.5 167.746094 323.992188 168.941406 L 325.960938 166.734375 C 324.519531 165.261719 323.207031 163.699219 322.289062 161.949219 Z M 318.617188 164.339844 "/>
<path fill-rule="evenodd" fill="rgb(67.932129%, 11.036682%, 18.218994%)" fill-opacity="1" d="M 408.179688 189.648438 C 403.984375 189.371094 400.96875 191.304688 404.378906 194.800781 L 408.96875 193.238281 C 409.886719 191.304688 409.230469 191.210938 408.179688 189.648438 "/>
<path fill-rule="evenodd" fill="rgb(67.932129%, 11.036682%, 18.218994%)" fill-opacity="1" d="M 414.082031 197.839844 C 414.738281 197.378906 417.625 195.8125 417.753906 195.8125 C 419.328125 194.433594 418.277344 192.59375 416.3125 192.410156 C 413.820312 192.316406 410.410156 196.273438 414.082031 197.839844 "/>
<path fill-rule="evenodd" fill="rgb(67.932129%, 11.036682%, 18.218994%)" fill-opacity="1" d="M 392.445312 177.132812 C 395.199219 177.410156 397.035156 176.671875 399.65625 175.753906 L 398.609375 173.453125 L 393.101562 174.738281 Z M 392.445312 177.132812 "/>
<path fill-rule="evenodd" fill="rgb(80.026245%, 7.385254%, 17.253113%)" fill-opacity="1" d="M 444.503906 181.273438 C 441.882812 182.5625 440.179688 185.414062 439.914062 188.453125 C 443.195312 190.292969 443.585938 187.898438 451.980469 184.863281 C 454.601562 183.941406 462.863281 182.285156 464.175781 180.261719 C 463.390625 178.054688 460.371094 177.777344 457.75 177.777344 L 458.667969 179.15625 C 456.964844 181 452.636719 181.917969 450.011719 182.746094 C 448.046875 183.390625 448.175781 183.757812 446.210938 184.863281 C 445.949219 184.953125 443.980469 185.96875 443.980469 185.96875 L 442.144531 185.875 C 442.015625 185.78125 441.882812 185.875 441.621094 185.78125 C 442.539062 182.929688 443.585938 183.667969 444.503906 181.273438 "/>
<path fill-rule="evenodd" fill="rgb(80.026245%, 7.385254%, 17.253113%)" fill-opacity="1" d="M 393.496094 193.144531 C 391.398438 190.9375 393.101562 190.660156 389.953125 189.554688 L 389.296875 185.046875 C 386.808594 184.125 388.644531 185.046875 387.332031 184.679688 L 387.070312 180.722656 L 382.609375 181.183594 C 382.21875 184.769531 388.378906 192.226562 390.609375 194.984375 Z M 393.496094 193.144531 "/>
<path fill-rule="evenodd" fill="rgb(80.026245%, 7.385254%, 17.253113%)" fill-opacity="1" d="M 431.261719 174.925781 C 431.523438 176.304688 432.179688 175.660156 434.015625 176.398438 C 433.882812 178.054688 433.492188 178.882812 433.359375 180.8125 C 433.359375 182.5625 433.621094 183.296875 433.359375 185.230469 C 429.820312 184.21875 426.148438 178.238281 426.933594 174.371094 L 429.03125 174.554688 C 427.71875 173.359375 428.507812 173.636719 426.277344 173.542969 C 424.046875 177.222656 431.128906 188.542969 434.671875 188.542969 C 435.195312 186.796875 434.410156 184.402344 434.539062 181.917969 C 434.800781 179.617188 435.457031 177.5 435.71875 175.292969 Z M 431.261719 174.925781 "/>
<path fill-rule="evenodd" fill="rgb(67.932129%, 11.036682%, 18.218994%)" fill-opacity="1" d="M 423.65625 232.625 C 422.738281 230.046875 418.804688 227.285156 414.605469 215.230469 C 412.640625 209.617188 410.542969 196.273438 408.179688 194.710938 C 405.425781 195.90625 406.082031 196.824219 406.871094 199.679688 C 407.265625 201.609375 408.050781 203.265625 408.574219 205.015625 C 415.789062 226.917969 422.214844 229.21875 423.65625 232.625 "/>
<path fill-rule="evenodd" fill="rgb(67.932129%, 11.036682%, 18.218994%)" fill-opacity="1" d="M 417.625 197.101562 C 413.953125 199.3125 416.050781 203.082031 417.359375 206.765625 C 419.722656 213.113281 426.671875 227.652344 431.65625 230.324219 C 422.082031 221.210938 420.507812 200.875 417.625 197.101562 "/>
<path fill-rule="evenodd" fill="rgb(67.932129%, 11.036682%, 18.218994%)" fill-opacity="1" d="M 434.410156 223.511719 C 435.457031 224.707031 435.457031 224.066406 436.507812 225.445312 C 427.457031 213.480469 427.589844 203.265625 424.3125 201.058594 L 422.738281 202.714844 C 424.574219 208.054688 428.375 216.242188 432.179688 220.753906 C 433.226562 221.855469 433.492188 222.683594 434.410156 223.511719 "/>
<path fill-rule="evenodd" fill="rgb(99.998474%, 99.998474%, 99.998474%)" fill-opacity="1" d="M 354.15625 170.046875 C 357.039062 174.28125 359.136719 178.328125 365.695312 177.316406 C 368.1875 176.949219 370.152344 175.476562 371.859375 173.726562 C 372.90625 172.714844 375.136719 169.3125 375.53125 168.113281 C 371.726562 169.863281 369.757812 170.96875 365.300781 171.242188 C 360.710938 171.609375 359.660156 171.058594 356.382812 169.953125 C 354.285156 169.21875 355.203125 168.480469 354.15625 170.046875 "/>
<path fill-rule="evenodd" fill="rgb(99.998474%, 99.998474%, 99.998474%)" fill-opacity="1" d="M 371.859375 143.820312 C 372.90625 141.703125 372.777344 142.257812 371.332031 141.058594 C 370.285156 142.714844 369.890625 142.714844 371.859375 143.820312 "/>
<path fill-rule="evenodd" fill="rgb(91.357422%, 17.845154%, 22.154236%)" fill-opacity="1" d="M 436.769531 188.175781 C 439.785156 187.164062 440.964844 177.683594 453.421875 176.210938 C 451.324219 175.660156 450.011719 174.554688 446.605469 174.28125 C 443.71875 174.003906 440.441406 173.820312 437.6875 174.648438 C 435.851562 177.683594 434.144531 185.230469 436.769531 188.175781 "/>
<path fill-rule="evenodd" fill="rgb(80.026245%, 7.385254%, 17.253113%)" fill-opacity="1" d="M 354.023438 194.984375 C 356.382812 202.4375 378.152344 202.164062 380.382812 192.960938 C 376.445312 193.695312 371.203125 198.390625 360.710938 196.550781 C 358.21875 196.089844 356.382812 195.167969 354.023438 194.984375 "/>
<path fill-rule="evenodd" fill="rgb(67.932129%, 11.036682%, 18.218994%)" fill-opacity="1" d="M 358.742188 203.910156 C 367.53125 216.058594 395.722656 205.015625 388.773438 194.523438 C 384.445312 198.023438 382.871094 200.78125 376.578125 202.992188 C 368.839844 205.75 365.824219 203.820312 358.742188 203.910156 "/>
<path fill-rule="evenodd" fill="rgb(67.932129%, 11.036682%, 18.218994%)" fill-opacity="1" d="M 370.675781 211.273438 C 376.183594 213.023438 380.25 213.941406 386.808594 210.90625 C 390.085938 209.339844 398.871094 203.726562 392.050781 200.691406 C 387.070312 204.648438 384.578125 207.777344 376.972656 209.800781 Z M 370.675781 211.273438 "/>
<path fill-rule="evenodd" fill="rgb(67.932129%, 11.036682%, 18.218994%)" fill-opacity="1" d="M 432.441406 201.703125 C 429.949219 200.046875 429.03125 199.496094 425.621094 199.863281 L 427.328125 205.015625 C 430.210938 204.464844 431.65625 204.371094 432.441406 201.703125 "/>
<path fill-rule="evenodd" fill="rgb(91.357422%, 17.845154%, 22.154236%)" fill-opacity="1" d="M 350.746094 147.039062 C 348.910156 146.671875 348.648438 146.949219 347.597656 145.386719 L 345.894531 146.949219 C 350.351562 153.941406 361.757812 150.539062 365.695312 151.183594 C 368.710938 151.640625 368.054688 153.757812 369.628906 155.785156 L 371.988281 155.507812 C 372.382812 154.3125 372.644531 156.796875 376.839844 155.230469 C 378.546875 154.679688 380.90625 153.390625 382.085938 153.484375 C 378.9375 152.101562 381.691406 151.640625 380.511719 149.066406 C 379.199219 146.582031 378.414062 147.59375 378.28125 149.984375 C 376.316406 149.894531 377.496094 150.628906 376.445312 148.882812 C 375.003906 146.582031 368.710938 146.210938 365.824219 146.398438 L 363.859375 147.59375 C 362.679688 143.820312 365.433594 147.777344 363.464844 144.003906 C 361.628906 144.648438 359.136719 146.582031 357.433594 147.410156 C 353.890625 149.066406 352.84375 147.5 350.746094 147.039062 "/>
<path fill-rule="evenodd" fill="rgb(91.357422%, 17.845154%, 22.154236%)" fill-opacity="1" d="M 418.804688 154.679688 L 419.195312 156.703125 C 424.179688 157.53125 429.425781 156.613281 432.046875 151.640625 C 433.359375 149.25 434.015625 147.59375 435.589844 145.292969 C 438.605469 140.875 438.34375 144.371094 441.488281 142.53125 L 443.71875 136.183594 L 446.339844 136.824219 L 449.359375 127.164062 L 449.359375 124.769531 L 448.703125 123.851562 C 446.867188 127.164062 446.867188 131.765625 444.242188 134.433594 C 443.457031 134.15625 442.539062 134.34375 442.667969 132.683594 L 439.523438 139.21875 C 438.082031 138.941406 437.164062 138.484375 437.6875 137.101562 C 435.195312 146.488281 421.558594 148.328125 418.804688 154.679688 "/>
<path fill-rule="evenodd" fill="rgb(91.357422%, 17.845154%, 22.154236%)" fill-opacity="1" d="M 293.308594 137.46875 L 292.519531 139.128906 C 293.832031 140.507812 294.621094 141.058594 296.0625 142.070312 C 300.390625 145.476562 293.308594 143.914062 301.570312 148.054688 C 303.535156 149.066406 303.273438 150.167969 304.585938 151 C 305.765625 151.828125 312.976562 153.207031 313.371094 152.929688 C 312.191406 148.054688 298.683594 145.84375 296.191406 137.011719 L 295.144531 138.941406 Z M 293.308594 137.46875 "/>
<path fill-rule="evenodd" fill="rgb(91.357422%, 17.845154%, 22.154236%)" fill-opacity="1" d="M 444.503906 181.273438 C 443.585938 183.667969 442.539062 182.929688 441.621094 185.78125 C 441.882812 185.875 442.015625 185.78125 442.144531 185.875 L 443.980469 185.96875 C 443.980469 185.96875 445.949219 184.953125 446.210938 184.863281 C 448.175781 183.757812 448.046875 183.390625 450.011719 182.746094 C 452.636719 181.917969 456.964844 181 458.667969 179.15625 L 457.75 177.777344 C 453.421875 177.132812 447.257812 177.871094 444.503906 181.273438 "/>
<path fill-rule="evenodd" fill="rgb(91.357422%, 17.845154%, 22.154236%)" fill-opacity="1" d="M 381.953125 157.347656 C 383.921875 159.554688 382.085938 159.742188 386.152344 160.84375 C 388.511719 161.582031 389.953125 160.9375 389.558594 158.269531 C 388.773438 154.125 384.445312 156.703125 381.953125 157.347656 "/>
<path fill-rule="evenodd" fill="rgb(99.998474%, 99.998474%, 99.998474%)" fill-opacity="1" d="M 353.628906 127.898438 L 356.253906 128.636719 C 355.335938 131.027344 355.335938 128.082031 354.808594 131.121094 C 359.136719 132.59375 361.234375 131.488281 365.824219 131.121094 C 369.890625 130.660156 371.726562 128.082031 376.183594 130.570312 L 379.199219 132.042969 L 379.464844 130.476562 C 377.890625 126.335938 374.613281 128.636719 371.859375 127.347656 C 373.167969 125.230469 374.613281 125.96875 377.101562 125.691406 C 378.9375 125.230469 378.019531 126.058594 378.414062 124.496094 C 379.070312 122.101562 375.136719 123.390625 374.21875 123.574219 C 370.941406 124.21875 369.757812 123.484375 366.875 123.296875 C 362.414062 123.023438 363.597656 124.863281 360.1875 125.324219 C 355.859375 125.96875 356.777344 125.691406 353.628906 127.898438 "/>
<path fill-rule="evenodd" fill="rgb(91.357422%, 17.845154%, 22.154236%)" fill-opacity="1" d="M 417.359375 141.703125 C 415.917969 144.003906 414.082031 145.9375 413.035156 148.699219 C 412.378906 150.90625 410.804688 155.875 413.6875 156.613281 C 415.789062 152.378906 418.410156 149.894531 422.476562 147.59375 C 430.082031 143.453125 427.328125 146.671875 432.179688 138.667969 L 430.605469 137.46875 C 431.65625 135.078125 432.441406 135.261719 432.046875 133.789062 C 431.390625 131.121094 432.441406 131.949219 431.785156 130.382812 C 427.195312 132.410156 419.589844 137.746094 417.359375 141.703125 "/>
<path fill-rule="evenodd" fill="rgb(80.026245%, 7.385254%, 17.253113%)" fill-opacity="1" d="M 381.691406 186.242188 C 383.132812 179.15625 377.234375 183.941406 374.480469 185.140625 C 370.675781 186.796875 366.351562 187.347656 362.152344 186.703125 C 356.253906 185.875 347.464844 180.539062 345.367188 175.382812 L 343.664062 175.570312 C 345.632812 192.132812 366.351562 194.984375 376.710938 189.464844 C 378.546875 188.453125 379.464844 187.164062 381.691406 186.242188 "/>
<path fill-rule="evenodd" fill="rgb(67.932129%, 11.036682%, 18.218994%)" fill-opacity="1" d="M 449.359375 127.164062 C 452.242188 135.078125 446.734375 148.789062 441.621094 154.585938 C 439 157.53125 434.800781 160.199219 430.472656 161.488281 C 427.195312 162.5 417.625 163.054688 416.050781 159.648438 C 413.953125 161.121094 413.6875 162.039062 413.425781 164.710938 C 426.148438 169.496094 434.671875 168.757812 443.980469 158.636719 C 450.40625 151.640625 454.339844 132.777344 449.359375 124.769531 Z M 449.359375 127.164062 "/>
<path fill-rule="evenodd" fill="rgb(67.932129%, 11.036682%, 18.218994%)" fill-opacity="1" d="M 316.519531 158.175781 C 316.648438 161.488281 305.765625 161.488281 303.011719 160.84375 C 298.289062 159.742188 295.011719 157.4375 291.996094 154.3125 C 284.914062 146.855469 283.34375 138.574219 284.261719 128.175781 C 280.457031 132.5 283.078125 161.582031 303.011719 165.445312 C 307.863281 166.367188 317.304688 164.066406 319.273438 162.777344 C 318.617188 160.015625 319.011719 159.832031 316.519531 158.175781 "/>
<path fill-rule="evenodd" fill="rgb(67.932129%, 11.036682%, 18.218994%)" fill-opacity="1" d="M 381.691406 186.242188 C 379.464844 187.164062 378.546875 188.453125 376.710938 189.464844 C 366.351562 194.984375 345.632812 192.132812 343.664062 175.570312 L 345.367188 175.382812 C 344.582031 173.820312 346.023438 174.925781 343.792969 173.636719 L 343.269531 174.738281 C 343.140625 174.925781 343.140625 175.109375 343.007812 175.292969 C 343.007812 175.570312 342.875 175.660156 342.875 175.84375 C 342.613281 177.316406 343.664062 180.445312 344.1875 181.734375 C 348.253906 192.683594 360.84375 196.824219 371.59375 193.511719 C 375.53125 192.410156 380.644531 190.382812 381.691406 186.242188 "/>
<path fill-rule="evenodd" fill="rgb(75.785828%, 74.742126%, 71.911621%)" fill-opacity="1" d="M 338.679688 119.527344 C 340.777344 123.941406 346.8125 127.164062 351.925781 127.070312 C 349.957031 126.886719 348.253906 126.152344 346.941406 124.585938 C 351.269531 125.96875 350.351562 125.597656 350.875 124.496094 C 354.15625 125.140625 354.679688 124.21875 357.5625 122.839844 C 356.382812 121.734375 355.726562 121.917969 354.941406 120.355469 C 359.660156 122.839844 363.070312 120.8125 368.054688 120.261719 C 372.777344 119.894531 379.070312 121.457031 381.953125 120.90625 C 383.398438 116.949219 382.871094 117.316406 382.480469 113.359375 C 384.316406 117.5 384.445312 118.328125 382.085938 121.828125 C 383.789062 121.828125 383.003906 122.195312 384.839844 121.089844 C 384.054688 122.472656 383.132812 123.023438 381.5625 123.207031 C 387.726562 123.757812 394.28125 119.34375 395.332031 113.175781 C 393.234375 114.742188 394.019531 114.648438 391.527344 113.820312 C 386.542969 112.257812 384.054688 114.648438 381.300781 110.324219 C 379.332031 112.164062 380.117188 114.1875 376.054688 114.648438 C 373.167969 114.925781 370.414062 114.1875 367.53125 114.28125 C 364.121094 114.28125 362.679688 115.570312 359.792969 116.027344 C 355.726562 116.671875 355.070312 115.203125 351.925781 114.742188 C 349.039062 121.550781 345.367188 120.90625 338.679688 119.527344 "/>
<path fill-rule="evenodd" fill="rgb(75.785828%, 74.742126%, 71.911621%)" fill-opacity="1" d="M 353.628906 127.898438 C 356.777344 125.691406 355.859375 125.96875 360.1875 125.324219 C 363.597656 124.863281 362.414062 123.023438 366.875 123.296875 C 369.757812 123.484375 370.941406 124.21875 374.21875 123.574219 C 375.136719 123.390625 379.070312 122.101562 378.414062 124.496094 C 378.019531 126.058594 378.9375 125.230469 377.101562 125.691406 L 380.117188 126.519531 L 379.988281 122.472656 C 374.085938 118.699219 359.53125 122.378906 353.234375 125.96875 Z M 353.628906 127.898438 "/>
<path fill-rule="evenodd" fill="rgb(80.026245%, 7.385254%, 17.253113%)" fill-opacity="1" d="M 356.382812 177.59375 C 358.742188 178.699219 360.84375 180.539062 363.597656 180.8125 C 368.449219 181.273438 367.921875 178.972656 371.988281 177.960938 C 368.578125 184.496094 359.660156 184.863281 356.382812 177.59375 Z M 389.558594 158.269531 C 389.953125 160.9375 388.511719 161.582031 386.152344 160.84375 C 382.085938 159.742188 383.921875 159.554688 381.953125 157.347656 C 380.90625 161.488281 382.21875 156.703125 379.726562 160.199219 C 379.070312 161.121094 378.9375 161.855469 378.546875 162.960938 C 378.019531 164.894531 377.628906 167.101562 376.316406 168.207031 C 375.003906 176.121094 363.203125 182.929688 355.988281 174.738281 C 352.710938 170.78125 352.710938 166.183594 350.351562 163.972656 C 347.859375 161.488281 344.710938 158.359375 341.304688 156.886719 C 338.941406 170.140625 351.792969 185.507812 365.824219 185.507812 C 382.480469 185.414062 392.183594 160.570312 389.558594 158.269531 "/>
<path fill-rule="evenodd" fill="rgb(80.026245%, 7.385254%, 17.253113%)" fill-opacity="1" d="M 371.988281 155.507812 L 369.628906 155.785156 C 368.054688 153.757812 368.710938 151.640625 365.695312 151.183594 C 361.757812 150.539062 350.351562 153.941406 345.894531 146.949219 L 347.597656 145.386719 L 347.074219 145.476562 L 346.941406 144.003906 C 343.140625 145.753906 345.632812 152.285156 346.15625 155.507812 L 345.761719 155.597656 C 348.121094 157.808594 350.613281 166.089844 361.234375 167.65625 C 369.105469 168.757812 375.136719 164.15625 378.675781 158.820312 L 374.085938 160.109375 C 379.464844 153.484375 411.984375 153.023438 413.035156 136.089844 C 409.097656 138.484375 412.902344 139.035156 405.691406 145.109375 C 400.839844 149.15625 388.90625 151.917969 382.742188 153.851562 C 379.726562 154.769531 373.039062 159.003906 371.988281 155.507812 "/>
<path fill-rule="evenodd" fill="rgb(99.998474%, 99.998474%, 99.998474%)" fill-opacity="1" d="M 338.679688 119.527344 C 345.367188 120.90625 349.039062 121.550781 351.925781 114.742188 C 355.070312 115.203125 355.726562 116.671875 359.792969 116.027344 C 362.679688 115.570312 364.121094 114.28125 367.53125 114.28125 C 370.414062 114.1875 373.167969 114.925781 376.054688 114.648438 C 380.117188 114.1875 379.332031 112.164062 381.300781 110.324219 C 384.054688 114.648438 386.542969 112.257812 391.527344 113.820312 C 394.019531 114.648438 393.234375 114.742188 395.332031 113.175781 C 397.820312 103.699219 387.199219 94.585938 377.757812 101.671875 L 378.9375 104.984375 C 376.445312 102.59375 376.578125 101.488281 372.90625 99.097656 C 365.824219 94.496094 353.367188 95.597656 351.925781 109.402344 C 350.21875 106.367188 351.136719 106.550781 346.546875 106.089844 C 344.058594 105.8125 341.433594 106 339.207031 107.472656 C 335.535156 110.046875 335.664062 116.765625 338.679688 119.527344 "/>
<path fill-rule="evenodd" fill="rgb(80.026245%, 7.385254%, 17.253113%)" fill-opacity="1" d="M 149.445312 318.726562 C 148.351562 310.527344 160.582031 306.171875 167.339844 304.761719 C 167.339844 313.730469 158.757812 321.546875 149.445312 318.726562 Z M 325.085938 295.921875 C 324.902344 302.839844 321.25 324.75 309.933594 315.011719 C 302.445312 308.476562 318.878906 296.949219 325.085938 295.921875 Z M 252.601562 284.519531 C 250.59375 291.054688 237.996094 306.171875 231.789062 297.585938 C 226.859375 290.539062 232.882812 274.269531 238.179688 269.398438 C 240.371094 273.628906 239.273438 275.167969 243.472656 279.265625 C 246.761719 282.46875 249.679688 282.46875 252.601562 284.519531 Z M 283.824219 287.722656 C 287.109375 281.570312 305.730469 254.023438 303.722656 278.367188 C 302.082031 300.023438 281.8125 306.300781 283.824219 294.257812 C 284.1875 294.257812 290.945312 299.636719 291.675781 292.847656 C 292.039062 287.335938 286.195312 289.003906 283.824219 287.722656 Z M 380.222656 287.722656 C 381.683594 281.316406 391.363281 269.785156 397.933594 268.632812 C 397.570312 275.039062 386.066406 285.800781 380.222656 287.722656 Z M 416.375 276.832031 C 415.097656 274.011719 413.820312 265.941406 418.929688 266.835938 C 419.476562 270.425781 418.75 274.140625 416.375 276.832031 Z M 254.609375 278.882812 C 246.210938 276.703125 241.464844 258.894531 248.402344 253 C 254.425781 247.875 257.167969 257.101562 257.347656 261.710938 C 257.53125 267.347656 256.4375 273.628906 254.609375 278.882812 Z M 331.660156 266.835938 C 331.292969 263.890625 331.839844 259.277344 335.492188 259.152344 C 336.222656 262.355469 333.667969 265.300781 331.660156 266.835938 Z M 364.523438 260.816406 C 365.800781 257.101562 368.355469 251.71875 371.277344 248.898438 L 376.023438 249.285156 Z M 181.761719 253.128906 C 178.292969 239.546875 191.4375 229.039062 200.75 237.242188 C 205.316406 241.339844 203.125 247.617188 198.195312 250.308594 C 193.082031 253 187.605469 253.640625 181.761719 253.128906 Z M 373.285156 245.3125 C 374.746094 241.085938 378.582031 237.371094 382.234375 235.445312 C 382.597656 238.136719 381.867188 240.574219 380.589844 242.878906 C 378.761719 246.082031 376.753906 245.441406 373.285156 245.3125 Z M 291.855469 252.871094 C 292.953125 245.953125 297.699219 229.683594 305.003906 227.886719 C 305.183594 232.5 295.507812 249.925781 291.855469 252.871094 Z M 282.179688 281.828125 C 284.917969 268.632812 300.070312 250.4375 307.011719 234.421875 C 310.84375 225.835938 307.742188 219.046875 298.976562 224.941406 C 279.074219 238.265625 281.265625 284.390625 258.445312 280.417969 C 268.484375 254.410156 254.246094 239.546875 243.289062 250.179688 C 238.359375 255.050781 239.640625 258.382812 237.082031 262.996094 C 215.722656 271.449219 227.222656 285.542969 218.09375 299.636719 C 208.785156 313.859375 202.027344 302.199219 177.5625 298.484375 L 181.214844 258.507812 C 186.875 255.945312 195.089844 258.636719 202.941406 251.847656 C 208.601562 247.105469 208.964844 237.882812 203.125 233.527344 C 197.464844 229.296875 186.875 230.066406 181.398438 234.292969 C 173.910156 240.316406 175.554688 246.59375 172.269531 252.359375 C 165.332031 252.359375 117.3125 247.746094 129.542969 266.835938 C 136.847656 267.863281 134.839844 263.121094 135.933594 258.253906 C 148.167969 254.28125 158.9375 255.050781 172.449219 256.972656 L 168.070312 300.148438 C 160.035156 303.351562 140.863281 308.734375 146.160156 321.164062 C 151.089844 326.542969 161.679688 323.085938 166.972656 319.496094 C 176.648438 312.960938 173.546875 309.632812 177.746094 303.609375 C 186.144531 304.378906 193.082031 313.089844 203.855469 313.988281 C 216.632812 315.011719 218.460938 306.042969 224.300781 298.996094 C 238.179688 311.296875 251.507812 299.507812 256.800781 285.929688 L 271.773438 281.570312 C 271.226562 286.824219 266.476562 295.792969 269.035156 300.277344 C 272.867188 302.96875 276.886719 299.507812 278.710938 295.792969 C 281.996094 300.40625 279.625 304.761719 289.300781 304.378906 C 306.28125 303.738281 317.964844 286.570312 324.355469 282.597656 L 324.355469 291.4375 C 318.148438 294.769531 313.035156 295.921875 308.105469 301.6875 C 293.863281 318.214844 319.972656 328.851562 328.738281 314.5 C 332.753906 308.09375 332.570312 299.894531 333.484375 292.589844 L 342.066406 286.441406 C 341.519531 293.746094 336.953125 306.554688 350.648438 305.402344 C 359.046875 304.761719 364.523438 295.023438 369.269531 293.488281 C 369.085938 300.277344 368.722656 306.554688 375.113281 310.273438 C 393.1875 321.164062 410.167969 288.746094 414 286.953125 L 426.050781 286.441406 C 424.589844 292.078125 419.660156 298.867188 417.835938 306.554688 C 415.644531 316.933594 421.121094 323.980469 431.164062 318.085938 C 437.1875 314.5 455.996094 291.054688 455.445312 284.519531 C 447.046875 283.878906 439.015625 314.757812 425.6875 315.140625 C 426.050781 305.789062 440.109375 289.257812 436.09375 281.445312 C 430.070312 278.242188 426.78125 283.75 419.660156 281.957031 C 419.296875 277.085938 426.78125 269.144531 421.304688 262.996094 C 415.828125 260.558594 410.351562 263.507812 408.160156 268.886719 C 405.054688 276.574219 407.429688 278.753906 409.984375 284.519531 C 407.246094 291.695312 390.8125 309.757812 381.503906 307.070312 C 376.753906 303.992188 377.304688 298.742188 378.214844 293.617188 C 383.695312 289.515625 387.34375 289.003906 393.371094 283.109375 C 397.570312 279.007812 403.777344 272.601562 401.039062 266.324219 C 383.875 254.023438 365.253906 301.816406 349.734375 299.894531 C 349.1875 292.847656 353.019531 284.390625 355.757812 278.496094 C 360.507812 268.503906 360.507812 270.554688 367.625 263.507812 C 371.824219 259.535156 377.121094 252.871094 380.953125 249.285156 C 384.789062 245.824219 398.300781 245.570312 403.59375 246.210938 C 404.871094 248.773438 405.238281 257.101562 411.808594 250.308594 C 413.269531 238.394531 391.726562 243.519531 384.972656 243.519531 C 386.066406 239.289062 388.074219 235.832031 385.703125 231.476562 C 376.023438 225.453125 367.808594 240.445312 362.695312 245.570312 L 350.648438 243.390625 C 351.558594 238.523438 352.835938 235.320312 345.71875 237.882812 C 342.976562 247.746094 353.203125 248.003906 360.324219 249.15625 C 359.59375 252.617188 351.195312 266.070312 349.003906 270.808594 C 346.265625 276.0625 346.8125 276.832031 342.25 280.804688 C 339.875 282.726562 335.675781 287.210938 332.570312 287.210938 C 332.023438 282.085938 330.015625 274.652344 333.667969 270.679688 C 347.90625 254.28125 331.839844 251.976562 327.09375 257.355469 C 324.171875 260.558594 323.988281 266.070312 323.808594 270.167969 C 323.441406 276.0625 316.320312 287.082031 310.660156 288.746094 C 311.757812 280.804688 315.957031 260.558594 300.984375 263.25 C 295.507812 264.148438 283.09375 277.601562 282.179688 281.828125 "/>
<path fill-rule="evenodd" fill="rgb(0%, 0%, 0%)" fill-opacity="1" d="M 394.414062 216.796875 C 394.542969 216.980469 393.625 218.265625 397.953125 216.058594 C 404.773438 212.378906 404.511719 207.867188 408.574219 208.789062 C 409.753906 214.953125 398.871094 216.796875 394.414062 216.796875 Z M 414.476562 210.167969 C 417.097656 209.25 417.492188 209.894531 417.886719 212.285156 L 415.394531 213.480469 Z M 389.035156 216.058594 C 395.066406 215.324219 399.132812 209.710938 402.410156 205.566406 C 408.445312 207.222656 403.328125 211.367188 400.445312 213.023438 C 396.511719 215.414062 393.496094 215.78125 389.035156 216.058594 Z M 378.28125 214.496094 C 384.183594 214.125 390.085938 210.90625 394.28125 206.949219 C 395.855469 205.382812 396.773438 203.636719 398.214844 202.4375 C 404.640625 205.753906 397.429688 210.351562 393.886719 212.378906 C 387.460938 216.058594 379.199219 214.035156 378.28125 214.496094 Z M 415.132812 204.003906 L 415.261719 206.765625 C 412.640625 206.488281 412.246094 204.28125 415.132812 204.003906 Z M 370.675781 211.273438 L 376.972656 209.800781 C 384.578125 207.777344 387.070312 204.648438 392.050781 200.691406 C 398.871094 203.726562 390.085938 209.339844 386.808594 210.90625 C 380.25 213.941406 376.183594 213.023438 370.675781 211.273438 Z M 422.738281 202.714844 L 424.3125 201.058594 C 427.589844 203.265625 427.457031 213.480469 436.507812 225.445312 C 435.457031 224.066406 435.457031 224.707031 434.410156 223.511719 C 433.492188 222.683594 433.226562 221.855469 432.179688 220.753906 C 428.375 216.242188 424.574219 208.050781 422.738281 202.714844 Z M 405.691406 199.769531 L 405.953125 203.082031 C 403.460938 202.4375 403.066406 199.953125 405.691406 199.769531 Z M 425.621094 199.863281 C 429.03125 199.496094 429.949219 200.046875 432.441406 201.703125 C 431.65625 204.371094 430.210938 204.464844 427.328125 205.015625 Z M 417.625 197.101562 C 420.507812 200.875 422.082031 221.210938 431.65625 230.324219 C 426.671875 227.652344 419.722656 213.113281 417.359375 206.765625 C 416.050781 203.082031 413.953125 199.3125 417.625 197.101562 Z M 411.460938 200.414062 C 412.640625 199.21875 413.035156 198.851562 414.082031 200.414062 C 413.558594 200.78125 414.738281 200.96875 413.035156 201.058594 C 410.28125 201.152344 412.378906 201.152344 411.460938 200.414062 Z M 358.742188 203.910156 C 365.824219 203.820312 368.839844 205.753906 376.578125 202.992188 C 382.871094 200.78125 384.445312 198.023438 388.773438 194.523438 C 395.722656 205.015625 367.53125 216.058594 358.742188 203.910156 Z M 420.113281 199.402344 C 421.292969 197.46875 422.34375 196.824219 424.574219 197.839844 C 424.835938 200.96875 422.082031 200.875 420.113281 199.402344 Z M 426.015625 197.46875 C 428.246094 194.800781 438.867188 197.101562 433.621094 201.613281 C 431.785156 201.335938 434.277344 200.78125 428.246094 199.035156 C 427.851562 198.941406 427.328125 198.851562 426.933594 198.574219 Z M 408.179688 194.710938 C 410.542969 196.273438 412.640625 209.617188 414.605469 215.230469 C 418.804688 227.285156 422.738281 230.046875 423.65625 232.625 C 422.214844 229.21875 415.789062 226.917969 408.574219 205.015625 C 408.050781 203.265625 407.265625 201.613281 406.871094 199.679688 C 406.082031 196.824219 405.425781 195.90625 408.179688 194.710938 Z M 401.101562 198.113281 C 401.625 196.179688 403.460938 195.722656 404.773438 197.195312 C 403.460938 198.207031 402.9375 198.574219 401.101562 198.113281 Z M 326.746094 229.953125 C 327.664062 230.230469 327.011719 230.324219 327.796875 229.308594 C 327.796875 229.308594 329.109375 227.46875 329.109375 227.285156 C 331.992188 222.867188 333.433594 219.28125 335.269531 214.3125 C 337.238281 209.339844 339.207031 197.652344 341.039062 194.339844 C 345.105469 195.351562 342.484375 200.046875 341.433594 203.265625 C 340.253906 206.855469 339.074219 210.167969 337.5 213.390625 C 336.058594 216.609375 335.007812 219.925781 332.78125 222.683594 C 332.125 223.511719 327.011719 229.679688 326.746094 229.953125 Z M 414.082031 197.839844 C 410.410156 196.273438 413.820312 192.316406 416.3125 192.410156 C 418.277344 192.59375 419.328125 194.433594 417.753906 195.8125 C 417.625 195.8125 414.738281 197.378906 414.082031 197.839844 Z M 430.605469 194.433594 C 433.492188 194.433594 435.195312 194.15625 437.03125 196.273438 L 436.246094 198.574219 C 435.328125 197.378906 434.671875 196.734375 433.226562 196.179688 L 433.226562 196.089844 C 429.164062 195.90625 431.917969 195.996094 430.605469 194.433594 Z M 395.984375 199.035156 C 393.230469 197.746094 393.625 195.996094 394.019531 194.617188 L 402.148438 193.328125 C 402.542969 195.8125 402.148438 194.894531 399.65625 196.367188 C 398.347656 197.195312 397.296875 198.390625 395.984375 199.035156 Z M 408.179688 189.648438 C 409.230469 191.210938 409.886719 191.304688 408.96875 193.238281 L 404.378906 194.800781 C 400.96875 191.304688 403.984375 189.371094 408.179688 189.648438 Z M 349.039062 191.027344 C 357.433594 194.433594 364.121094 198.941406 376.972656 193.050781 C 379.59375 191.855469 382.085938 188.914062 384.445312 188.359375 C 391.660156 203.636719 354.546875 211.550781 349.039062 191.027344 Z M 340.648438 192.226562 C 340.777344 188.453125 345.367188 188.542969 346.023438 191.671875 C 344.449219 192.867188 342.746094 192.5 340.648438 192.226562 Z M 387.070312 180.722656 L 388.378906 180.628906 C 388.644531 185.140625 388.644531 182.011719 389.824219 184.3125 C 390.347656 185.230469 390.480469 187.253906 390.609375 188.359375 C 393.363281 189.371094 392.96875 190.109375 394.28125 192.867188 L 393.496094 193.144531 L 390.609375 194.984375 C 388.378906 192.226562 382.21875 184.769531 382.609375 181.183594 Z M 444.503906 181.273438 C 447.257812 177.871094 453.421875 177.132812 457.75 177.777344 C 460.371094 177.777344 463.390625 178.054688 464.175781 180.261719 C 462.863281 182.285156 454.601562 183.941406 451.980469 184.863281 C 443.585938 187.898438 443.195312 190.292969 439.914062 188.453125 C 440.179688 185.414062 441.882812 182.5625 444.503906 181.273438 Z M 345.367188 175.382812 C 347.464844 180.539062 356.253906 185.875 362.152344 186.703125 C 366.351562 187.347656 370.675781 186.796875 374.480469 185.140625 C 377.234375 183.941406 383.132812 179.15625 381.691406 186.242188 C 380.644531 190.382812 375.53125 192.410156 371.59375 193.511719 C 360.84375 196.824219 348.253906 192.683594 344.1875 181.734375 C 343.664062 180.445312 342.613281 177.316406 342.875 175.84375 C 342.875 175.660156 343.007812 175.570312 343.007812 175.292969 C 343.140625 175.109375 343.140625 174.925781 343.269531 174.738281 L 343.792969 173.636719 C 346.023438 174.925781 344.582031 173.820312 345.367188 175.382812 Z M 429.03125 174.554688 L 431.261719 174.925781 L 435.71875 175.292969 C 435.457031 177.5 434.800781 179.617188 434.539062 181.917969 C 434.410156 184.402344 435.195312 186.796875 434.671875 188.542969 C 431.128906 188.542969 424.046875 177.222656 426.277344 173.542969 C 428.507812 173.636719 427.71875 173.359375 429.03125 174.554688 Z M 436.769531 188.175781 C 434.144531 185.230469 435.851562 177.683594 437.6875 174.648438 C 440.441406 173.820312 443.71875 174.003906 446.605469 174.28125 C 450.011719 174.554688 451.324219 175.660156 453.421875 176.210938 C 440.964844 177.683594 439.785156 187.164062 436.769531 188.175781 Z M 392.445312 177.132812 L 393.101562 174.738281 L 398.609375 173.453125 L 399.65625 175.753906 C 397.035156 176.671875 395.199219 177.410156 392.445312 177.132812 Z M 383.527344 179.523438 C 382.742188 177.222656 385.234375 175.015625 386.414062 172.992188 L 391.789062 174.28125 C 391.660156 178.511719 387.460938 180.351562 383.527344 179.523438 Z M 338.15625 172.070312 L 341.695312 171.703125 L 341.828125 176.949219 C 339.207031 175.753906 338.417969 174.832031 338.15625 172.070312 Z M 330.8125 172.53125 C 331.730469 170.324219 331.992188 170.875 334.351562 171.703125 C 337.238281 172.714844 337.238281 172.253906 337.238281 174.925781 C 335.269531 174.464844 331.859375 174.003906 330.8125 172.53125 Z M 401.757812 169.863281 L 403.066406 169.21875 C 404.640625 171.796875 406.214844 172.53125 406.082031 174.832031 C 404.773438 175.660156 403.328125 176.582031 401.230469 175.660156 C 399.265625 174.738281 399.921875 172.992188 399.789062 171.980469 C 400.707031 170.140625 400.050781 170.691406 401.757812 169.863281 Z M 328.320312 173.269531 C 324.257812 172.53125 323.992188 169.402344 327.402344 167.195312 C 333.433594 167.65625 330.8125 170.414062 328.320312 173.269531 Z M 405.820312 171.703125 C 402.9375 168.023438 411.066406 166.367188 410.410156 163.238281 C 412.117188 165.90625 412.246094 164.984375 414.476562 166.550781 C 411.851562 167.929688 408.179688 171.980469 405.820312 171.703125 Z M 322.289062 161.949219 C 323.207031 163.699219 324.519531 165.261719 325.960938 166.734375 L 323.992188 168.941406 C 321.5 167.746094 320.058594 166.367188 318.617188 164.339844 Z M 376.316406 168.207031 L 375.53125 168.113281 C 375.136719 169.3125 372.90625 172.714844 371.859375 173.726562 C 370.152344 175.476562 368.1875 176.949219 365.695312 177.316406 C 359.136719 178.328125 357.039062 174.28125 354.15625 170.046875 C 353.105469 168.480469 353.5 168.296875 352.972656 166.273438 C 359.007812 168.480469 363.464844 171.703125 372.25 167.011719 C 375.003906 165.628906 375.398438 164.433594 377.363281 163.238281 C 377.101562 165.996094 376.183594 165.628906 376.316406 168.207031 M 376.316406 168.207031 C 377.628906 167.101562 378.019531 164.894531 378.546875 162.960938 C 378.9375 161.855469 379.070312 161.121094 379.726562 160.199219 C 382.21875 156.703125 380.90625 161.488281 381.953125 157.347656 C 384.445312 156.703125 388.773438 154.125 389.558594 158.269531 C 392.183594 160.570312 382.480469 185.414062 365.824219 185.507812 C 351.792969 185.507812 338.941406 170.140625 341.304688 156.886719 C 344.710938 158.359375 347.859375 161.488281 350.351562 163.972656 C 352.710938 166.183594 352.710938 170.78125 355.988281 174.738281 C 363.203125 182.929688 375.003906 176.121094 376.316406 168.207031 Z M 284.261719 128.175781 L 285.570312 123.667969 C 287.800781 126.335938 285.964844 137.746094 291.472656 132.683594 L 293.308594 137.46875 L 295.144531 138.941406 L 296.191406 137.011719 C 298.683594 145.84375 312.191406 148.054688 313.371094 152.929688 C 315.207031 153.941406 316.386719 155.875 316.519531 158.175781 C 319.011719 159.832031 318.617188 160.015625 319.273438 162.777344 C 317.304688 164.066406 307.863281 166.367188 303.011719 165.445312 C 283.078125 161.582031 280.457031 132.5 284.261719 128.175781 Z M 416.050781 159.648438 C 416.3125 157.625 417.230469 155.875 418.804688 154.679688 C 421.558594 148.328125 435.195312 146.488281 437.6875 137.101562 C 437.164062 138.484375 438.082031 138.941406 439.523438 139.21875 L 442.667969 132.683594 C 442.539062 134.34375 443.457031 134.15625 444.242188 134.433594 C 446.867188 131.765625 446.867188 127.164062 448.703125 123.851562 L 449.359375 124.769531 C 454.339844 132.777344 450.40625 151.640625 443.980469 158.636719 C 434.671875 168.757812 426.148438 169.496094 413.425781 164.710938 C 413.6875 162.039062 413.953125 161.121094 416.050781 159.648438 Z M 413.6875 156.609375 L 411.984375 163.238281 C 410.019531 159.097656 408.574219 156.058594 410.671875 151.089844 C 412.117188 147.777344 414.34375 143.085938 417.359375 141.703125 C 419.589844 137.746094 427.195312 132.410156 431.785156 130.382812 C 432.441406 131.949219 431.390625 131.121094 432.046875 133.789062 C 432.441406 135.261719 431.65625 135.078125 430.605469 137.46875 L 432.179688 138.667969 C 427.328125 146.671875 430.082031 143.453125 422.476562 147.59375 C 418.410156 149.894531 415.789062 152.378906 413.6875 156.609375 Z M 311.796875 137.195312 C 314.8125 139.035156 319.011719 144.648438 320.714844 147.960938 C 325.4375 156.703125 320.058594 159.097656 320.714844 161.855469 C 319.796875 147.777344 305.765625 146.488281 304.71875 143.269531 L 301.4375 138.757812 C 303.796875 134.25 301.699219 137.011719 301.042969 134.15625 C 300.914062 133.328125 302.355469 132.410156 300.78125 129.925781 C 304.71875 131.671875 308.78125 134.15625 311.796875 137.195312 Z M 380.644531 132.777344 C 379.855469 131.949219 380.117188 132.226562 379.59375 131.304688 C 378.808594 129.925781 379.988281 131.121094 379.464844 130.476562 L 379.199219 132.042969 L 376.183594 130.570312 L 375.398438 130.753906 C 381.824219 133.882812 380.644531 141.335938 382.21875 144.1875 L 382.609375 138.113281 C 391.527344 137.929688 389.296875 144.464844 389.167969 150.722656 C 385.234375 153.296875 383.921875 151.183594 382.085938 153.484375 C 380.90625 153.390625 378.546875 154.679688 376.839844 155.230469 C 372.644531 156.796875 372.382812 154.3125 371.988281 155.507812 C 373.039062 159.003906 379.726562 154.769531 382.742188 153.851562 C 388.90625 151.917969 400.839844 149.15625 405.691406 145.109375 C 412.902344 139.035156 409.097656 138.484375 413.035156 136.089844 C 411.984375 153.023438 379.464844 153.484375 374.085938 160.109375 L 378.675781 158.820312 C 375.136719 164.15625 369.105469 168.757812 361.234375 167.65625 C 350.613281 166.089844 348.121094 157.808594 345.761719 155.597656 L 344.976562 156.242188 C 344.058594 157.625 343.925781 156.796875 341.695312 155.597656 C 335.269531 152.011719 321.5 145.476562 320.320312 138.757812 L 324.78125 143.726562 L 325.171875 143.175781 C 320.976562 135.90625 318.222656 134.800781 323.601562 125.785156 C 325.699219 122.285156 334.351562 113.269531 331.730469 109.769531 C 330.679688 110.601562 318.617188 125.785156 317.960938 132.777344 C 317.304688 138.296875 319.796875 139.035156 320.453125 142.808594 C 322.683594 144.003906 325.960938 148.054688 329.632812 150.167969 C 332.648438 152.011719 336.84375 154.585938 339.992188 155.691406 C 339.207031 163.144531 341.957031 166.089844 341.828125 170.046875 C 337.894531 170.96875 334.613281 171.796875 331.992188 168.480469 C 329.632812 165.539062 327.402344 167.195312 324.257812 163.144531 C 321.371094 159.28125 325.042969 158.359375 324.125 152.46875 C 323.601562 149.066406 321.238281 146.488281 320.058594 143.453125 C 318.617188 142.53125 307.207031 128.914062 298.945312 128.085938 C 299.078125 130.199219 299.339844 129.1875 299.863281 130.660156 C 300.78125 133.972656 299.734375 130.9375 299.601562 133.054688 C 299.472656 135.8125 299.734375 133.238281 300.519531 135.445312 C 301.4375 138.207031 300.914062 135.078125 299.472656 138.390625 L 303.273438 143.359375 C 299.210938 142.070312 298.683594 137.46875 296.457031 135.078125 L 294.355469 136.640625 L 291.734375 130.753906 C 288.847656 131.027344 291.339844 131.582031 289.113281 132.683594 C 287.929688 129.832031 288.195312 124.21875 286.09375 122.101562 C 277.703125 124.585938 278.882812 163.328125 303.40625 167.011719 C 308.257812 167.746094 315.992188 164.984375 317.699219 165.8125 C 322.421875 168.023438 324.386719 173.636719 326.746094 174.371094 C 330.945312 175.84375 335.140625 174.371094 340.777344 177.960938 C 342.875 179.339844 342.222656 181.183594 343.402344 183.941406 C 344.582031 186.609375 346.285156 187.714844 347.203125 189.554688 C 336.976562 185.597656 340.121094 193.238281 338.15625 200.875 C 332.78125 222.59375 325.566406 228.296875 324.910156 232.53125 C 330.027344 231.335938 335.269531 221.394531 337.632812 216.703125 C 339.335938 213.390625 340.777344 210.167969 341.957031 206.765625 C 342.875 204.1875 344.449219 197.5625 345.5 195.996094 C 347.992188 196.457031 351.664062 198.851562 353.5 200.691406 C 358.21875 205.566406 346.8125 227.285156 346.679688 229.863281 C 352.449219 229.863281 358.21875 211.917969 359.136719 206.855469 L 365.5625 210.351562 C 365.957031 217.070312 361.105469 224.617188 361.496094 228.207031 C 365.695312 227.652344 368.839844 216.242188 369.628906 212.378906 C 377.234375 214.585938 380.117188 216.703125 388.90625 217.898438 C 398.476562 219.28125 402.675781 217.808594 411.589844 216.335938 C 413.425781 221.121094 420.902344 234.371094 425.886719 235.015625 C 425.359375 230.140625 416.441406 221.582031 415.917969 214.769531 L 418.015625 214.125 C 421.03125 215.597656 426.277344 230.691406 433.359375 232.625 C 434.015625 228.667969 420.640625 215.230469 423.785156 211.183594 C 425.621094 211.457031 433.882812 229.402344 441.097656 229.496094 C 440.835938 227.195312 430.082031 216.242188 428.636719 208.144531 C 431.65625 205.566406 434.539062 203.453125 436.898438 200.140625 C 439.128906 197.195312 440.835938 192.226562 443.585938 190.382812 C 448.832031 187.070312 466.011719 182.46875 467.714844 180.8125 C 466.535156 177.960938 462.210938 176.949219 459.0625 176.488281 C 452.765625 175.570312 448.964844 170.875 436.507812 173.636719 C 431.128906 174.832031 428.902344 171.425781 424.835938 172.808594 C 422.867188 180.445312 429.03125 185.507812 432.703125 190.109375 C 425.230469 198.484375 424.574219 195.351562 419.328125 197.652344 C 419.460938 194.800781 420.902344 191.949219 416.441406 191.765625 C 412.246094 191.671875 412.117188 193.511719 410.410156 196.089844 C 410.410156 193.421875 411.460938 192.5 410.148438 189.738281 C 400.183594 184.863281 402.804688 196.367188 396.378906 193.238281 C 394.542969 192.316406 389.558594 182.46875 389.558594 180.261719 C 393.757812 178.054688 397.296875 177.316406 402.148438 177.222656 C 409.363281 177.222656 406.082031 174.097656 411.199219 170.230469 C 417.886719 165.355469 415.65625 167.5625 422.605469 168.667969 C 427.851562 169.585938 431.917969 168.941406 436.636719 166.640625 C 456.308594 157.347656 454.734375 125.324219 448.832031 122.011719 C 446.734375 123.207031 445.292969 129.464844 444.636719 131.949219 C 442.277344 131.488281 445.421875 130.292969 441.753906 131.304688 L 439.390625 137.011719 C 437.292969 135.628906 440.179688 135.261719 436.898438 135.722656 C 435.195312 139.035156 433.753906 142.808594 430.210938 144.28125 C 440.570312 128.820312 427.984375 144.371094 434.410156 133.789062 L 432.835938 131.949219 L 434.933594 128.542969 C 426.800781 128.269531 417.097656 141.152344 413.953125 142.257812 C 412.902344 145.386719 409.753906 148.054688 408.574219 152.378906 C 407 158.542969 410.933594 160.476562 408.3125 164.066406 C 404.773438 169.035156 401.886719 167.285156 399.265625 170.324219 C 395.855469 174.371094 392.183594 172.898438 387.59375 172.164062 C 387.855469 169.402344 389.691406 166.183594 390.609375 163.328125 C 392.445312 157.625 390.609375 158.820312 390.871094 154.863281 C 393.886719 153.113281 399.789062 151.457031 403.59375 149.527344 C 409.363281 146.671875 409.886719 143.453125 413.296875 141.058594 C 414.214844 134.433594 417.492188 133.972656 408.707031 121.273438 C 406.871094 118.699219 404.773438 116.027344 403.066406 113.269531 C 401.363281 110.691406 400.050781 105.445312 397.558594 104.34375 C 396.773438 112.992188 407.65625 122.65625 410.28125 131.027344 C 413.6875 142.070312 399.132812 149.15625 390.480469 150.539062 C 390.742188 146.582031 391.789062 141.058594 387.988281 138.667969 C 386.019531 137.46875 379.199219 136.089844 380.644531 132.777344 "/>
<path fill-rule="evenodd" fill="rgb(80.026245%, 7.385254%, 17.253113%)" fill-opacity="1" d="M 284.261719 128.175781 C 283.34375 138.574219 284.914062 146.855469 291.996094 154.3125 C 295.011719 157.4375 298.289062 159.742188 303.011719 160.84375 C 305.765625 161.488281 316.648438 161.488281 316.519531 158.175781 C 316.386719 155.875 315.207031 153.941406 313.371094 152.929688 C 312.976562 153.207031 305.765625 151.828125 304.585938 151 C 303.273438 150.167969 303.535156 149.066406 301.570312 148.054688 C 293.308594 143.914062 300.390625 145.476562 296.0625 142.070312 C 294.621094 141.058594 293.832031 140.507812 292.519531 139.128906 L 293.308594 137.46875 L 291.472656 132.683594 C 285.964844 137.746094 287.800781 126.335938 285.570312 123.667969 Z M 284.261719 128.175781 "/>
<path fill-rule="evenodd" fill="rgb(80.026245%, 7.385254%, 17.253113%)" fill-opacity="1" d="M 418.804688 154.679688 C 417.230469 155.875 416.3125 157.625 416.050781 159.648438 C 417.625 163.054688 427.195312 162.5 430.472656 161.488281 C 434.800781 160.199219 439 157.53125 441.621094 154.585938 C 446.734375 148.789062 452.242188 135.078125 449.359375 127.164062 L 446.339844 136.824219 L 443.71875 136.183594 L 441.488281 142.53125 C 438.34375 144.371094 438.605469 140.875 435.589844 145.292969 C 434.015625 147.59375 433.359375 149.25 432.046875 151.640625 C 429.425781 156.613281 424.179688 157.53125 419.195312 156.703125 Z M 418.804688 154.679688 "/>
<path fill-rule="evenodd" fill="rgb(0%, 0%, 0%)" fill-opacity="1" d="M 395.332031 113.175781 C 394.28125 119.34375 387.726562 123.757812 381.5625 123.207031 C 383.132812 123.023438 384.054688 122.472656 384.839844 121.089844 C 383.003906 122.195312 383.789062 121.828125 382.085938 121.828125 C 384.445312 118.328125 384.316406 117.5 382.480469 113.359375 C 382.871094 117.316406 383.398438 116.949219 381.953125 120.90625 C 379.070312 121.457031 372.777344 119.894531 368.054688 120.261719 C 363.070312 120.8125 359.660156 122.839844 354.941406 120.355469 C 355.726562 121.917969 356.382812 121.734375 357.5625 122.839844 C 354.679688 124.21875 354.15625 125.140625 350.875 124.496094 C 350.351562 125.597656 351.269531 125.96875 346.941406 124.585938 C 348.253906 126.152344 349.957031 126.886719 351.925781 127.070312 C 346.8125 127.164062 340.777344 123.941406 338.679688 119.527344 C 335.664062 116.765625 335.535156 110.046875 339.207031 107.472656 C 341.433594 106 344.058594 105.8125 346.546875 106.089844 C 351.136719 106.550781 350.21875 106.367188 351.925781 109.402344 C 353.367188 95.597656 365.824219 94.496094 372.90625 99.097656 C 376.578125 101.488281 376.445312 102.59375 378.9375 104.984375 L 377.757812 101.671875 C 387.199219 94.585938 397.820312 103.699219 395.332031 113.175781 Z M 325.171875 143.175781 L 324.78125 143.726562 C 329.238281 148.144531 338.8125 153.757812 344.976562 156.242188 L 345.761719 155.597656 L 346.15625 155.507812 C 343.53125 155.324219 343.53125 155.507812 342.222656 153.296875 C 341.695312 148.972656 340.121094 143.636719 341.828125 139.496094 L 347.726562 137.746094 L 349.828125 136.183594 C 351.792969 133.511719 353.367188 131.304688 357.300781 132.5 C 361.234375 133.605469 357.957031 133.511719 361.628906 132.410156 C 364.25 131.765625 364.777344 131.671875 365.5625 133.511719 C 367.792969 131.027344 372.382812 129.097656 375.398438 130.753906 L 376.183594 130.570312 C 371.726562 128.082031 369.890625 130.660156 365.824219 131.121094 C 361.234375 131.488281 359.136719 132.59375 354.808594 131.121094 C 355.335938 128.082031 355.335938 131.027344 356.253906 128.636719 L 353.628906 127.898438 L 353.234375 125.96875 C 359.53125 122.378906 374.085938 118.699219 379.988281 122.472656 L 380.117188 126.519531 L 377.101562 125.691406 C 374.613281 125.96875 373.167969 125.230469 371.859375 127.347656 C 374.613281 128.636719 377.890625 126.335938 379.464844 130.476562 C 379.988281 131.121094 378.808594 129.925781 379.59375 131.304688 C 380.117188 132.226562 379.855469 131.949219 380.644531 132.777344 C 381.429688 127.070312 380.773438 131.671875 383.398438 130.109375 C 382.871094 126.425781 381.5625 129.1875 381.429688 125.230469 C 383.921875 123.390625 388.511719 124.125 392.445312 120.539062 C 400.839844 112.714844 395.59375 101.304688 389.558594 98.914062 C 383.265625 96.335938 381.5625 99.28125 376.839844 100.753906 C 371.859375 97.070312 368.578125 94.585938 361.628906 95.96875 C 353.890625 97.53125 354.285156 100.9375 351.007812 105.8125 C 342.222656 104.15625 332.386719 105.539062 335.925781 117.132812 C 338.417969 124.863281 345.894531 126.980469 352.84375 128.726562 C 351.007812 129.554688 350.21875 129.648438 349.828125 131.765625 L 353.5 130.570312 C 353.105469 132.777344 352.972656 131.027344 349.300781 134.984375 C 347.074219 137.46875 345.761719 136.734375 343.140625 138.023438 C 338.289062 140.507812 340.386719 148.144531 340.910156 152.5625 C 334.484375 150.539062 330.15625 146.121094 325.171875 143.175781 "/>
<path fill-rule="evenodd" fill="rgb(80.026245%, 7.385254%, 17.253113%)" fill-opacity="1" d="M 349.828125 136.183594 L 348.382812 142.441406 L 351.792969 143.453125 C 352.582031 137.746094 354.417969 133.511719 360.84375 134.984375 C 364.511719 137.5625 364.644531 143.269531 360.054688 144.832031 L 354.808594 145.292969 L 356.910156 146.304688 C 354.679688 147.5 353.234375 147.5 350.746094 147.039062 C 352.84375 147.5 353.890625 149.066406 357.433594 147.410156 C 359.136719 146.582031 361.628906 144.648438 363.464844 144.003906 C 365.433594 147.777344 362.679688 143.820312 363.859375 147.59375 L 365.824219 146.398438 C 365.039062 146.121094 364.511719 147.132812 364.644531 141.519531 C 364.777344 129.925781 381.035156 132.132812 377.234375 145.292969 C 376.839844 146.765625 376.972656 145.9375 376.839844 147.5 C 376.710938 148.882812 377.628906 147.871094 376.445312 148.882812 C 377.496094 150.628906 376.316406 149.894531 378.28125 149.984375 C 378.414062 147.59375 379.199219 146.582031 380.511719 149.066406 C 381.691406 151.640625 378.9375 152.101562 382.085938 153.484375 C 383.921875 151.183594 385.234375 153.296875 389.167969 150.722656 C 389.296875 144.464844 391.527344 137.929688 382.609375 138.113281 L 382.21875 144.1875 C 380.644531 141.335938 381.824219 133.882812 375.398438 130.753906 C 372.382812 129.097656 367.792969 131.027344 365.5625 133.511719 C 364.777344 131.671875 364.25 131.765625 361.628906 132.410156 C 357.957031 133.511719 361.234375 133.605469 357.300781 132.5 C 353.367188 131.304688 351.792969 133.511719 349.828125 136.183594 "/>
<path fill-rule="evenodd" fill="rgb(67.932129%, 11.036682%, 18.218994%)" fill-opacity="1" d="M 354.023438 194.984375 C 356.382812 195.167969 358.21875 196.089844 360.710938 196.550781 C 371.203125 198.390625 376.445312 193.695312 380.382812 192.960938 C 378.152344 202.164062 356.382812 202.4375 354.023438 194.984375 Z M 349.039062 191.027344 C 354.546875 211.550781 391.660156 203.636719 384.445312 188.359375 C 382.085938 188.914062 379.59375 191.855469 376.972656 193.054688 C 364.121094 198.941406 357.433594 194.433594 349.039062 191.027344 "/>
<path fill-rule="evenodd" fill="rgb(67.932129%, 11.036682%, 18.218994%)" fill-opacity="1" d="M 304.71875 143.269531 C 305.765625 146.488281 319.796875 147.777344 320.714844 161.855469 C 320.058594 159.097656 325.4375 156.703125 320.714844 147.960938 C 319.011719 144.648438 314.8125 139.035156 311.796875 137.195312 C 311.796875 138.757812 312.453125 137.65625 311.535156 138.851562 L 304.980469 135.167969 L 304.847656 139.3125 C 304.71875 141.519531 305.371094 140.691406 304.71875 143.269531 "/>
<path fill-rule="evenodd" fill="rgb(0%, 0%, 0%)" fill-opacity="1" d="M 349.828125 136.183594 L 347.726562 137.746094 C 347.992188 138.667969 347.597656 141.058594 347.074219 142.070312 C 346.15625 144.1875 345.632812 142.625 344.449219 144.832031 C 342.613281 148.238281 345.632812 150.628906 342.222656 153.296875 C 343.53125 155.507812 343.53125 155.324219 346.15625 155.507812 C 345.632812 152.285156 343.140625 145.753906 346.941406 144.003906 L 354.808594 145.292969 C 355.203125 145.109375 354.679688 145.199219 355.859375 144.925781 C 355.988281 144.925781 356.777344 144.832031 356.910156 144.738281 L 356.777344 141.980469 L 355.988281 144.554688 L 353.234375 144.003906 L 353.5 140.507812 C 354.546875 137.011719 356.382812 135.078125 360.1875 136.273438 C 362.679688 137.746094 363.464844 142.347656 360.1875 143.175781 L 360.054688 144.832031 C 364.644531 143.269531 364.511719 137.5625 360.84375 134.984375 C 354.417969 133.511719 352.582031 137.746094 351.792969 143.453125 L 348.382812 142.441406 Z M 349.828125 136.183594 "/>
<path fill-rule="evenodd" fill="rgb(0%, 0%, 0%)" fill-opacity="1" d="M 371.332031 141.058594 C 372.777344 142.257812 372.90625 141.703125 371.859375 143.820312 C 369.890625 142.714844 370.285156 142.714844 371.332031 141.058594 Z M 369.628906 140.96875 L 369.105469 145.199219 L 366.351562 145.292969 C 365.300781 143.542969 364.90625 142.070312 365.957031 140.414062 C 365.824219 133.789062 375.921875 133.054688 376.054688 139.3125 C 378.019531 141.242188 376.578125 144.738281 375.136719 146.582031 L 373.039062 145.84375 C 373.039062 143.359375 373.300781 142.992188 371.988281 140.691406 C 370.023438 140.140625 371.203125 140.140625 369.628906 140.96875 Z M 365.824219 146.398438 C 368.710938 146.210938 375.003906 146.582031 376.445312 148.882812 C 377.628906 147.871094 376.710938 148.882812 376.839844 147.5 C 376.972656 145.9375 376.839844 146.765625 377.234375 145.292969 C 381.035156 132.132812 364.777344 129.925781 364.644531 141.519531 C 364.511719 147.132812 365.039062 146.121094 365.824219 146.398438 "/>
<path fill-rule="evenodd" fill="rgb(75.785828%, 74.742126%, 71.911621%)" fill-opacity="1" d="M 354.15625 170.046875 C 355.203125 168.480469 354.285156 169.21875 356.382812 169.953125 C 359.660156 171.058594 360.710938 171.609375 365.300781 171.242188 C 369.757812 170.96875 371.726562 169.863281 375.53125 168.113281 L 376.316406 168.207031 C 376.183594 165.628906 377.101562 165.996094 377.363281 163.238281 C 375.398438 164.433594 375.003906 165.628906 372.25 167.011719 C 363.464844 171.703125 359.007812 168.480469 352.972656 166.273438 C 353.5 168.296875 353.105469 168.480469 354.15625 170.046875 "/>
<path fill-rule="evenodd" fill="rgb(80.026245%, 7.385254%, 17.253113%)" fill-opacity="1" d="M 342.222656 153.296875 C 345.632812 150.628906 342.613281 148.238281 344.449219 144.832031 C 345.632812 142.625 346.15625 144.1875 347.074219 142.070312 C 347.597656 141.058594 347.992188 138.667969 347.726562 137.746094 L 341.828125 139.496094 C 340.121094 143.636719 341.695312 148.972656 342.222656 153.296875 "/>
<path fill-rule="evenodd" fill="rgb(91.357422%, 17.845154%, 22.154236%)" fill-opacity="1" d="M 304.71875 143.269531 C 305.371094 140.691406 304.71875 141.519531 304.847656 139.3125 L 304.980469 135.167969 L 311.535156 138.851562 C 312.453125 137.65625 311.796875 138.757812 311.796875 137.195312 C 308.78125 134.15625 304.71875 131.671875 300.78125 129.925781 C 302.355469 132.410156 300.914062 133.328125 301.042969 134.15625 C 301.699219 137.011719 303.796875 134.25 301.4375 138.757812 Z M 304.71875 143.269531 "/>
<path fill-rule="evenodd" fill="rgb(91.357422%, 17.845154%, 22.154236%)" fill-opacity="1" d="M 431.261719 174.925781 L 429.03125 174.554688 L 426.933594 174.371094 C 426.148438 178.238281 429.820312 184.21875 433.359375 185.230469 C 433.621094 183.296875 433.359375 182.5625 433.359375 180.8125 C 433.492188 178.882812 433.882812 178.054688 434.015625 176.398438 C 432.179688 175.660156 431.523438 176.304688 431.261719 174.925781 "/>
<path fill-rule="evenodd" fill="rgb(99.998474%, 99.998474%, 99.998474%)" fill-opacity="1" d="M 357.039062 140.414062 L 358.613281 139.957031 L 358.089844 142.53125 C 360.578125 142.164062 358.613281 142.992188 360.1875 141.335938 L 360.1875 143.175781 C 363.464844 142.347656 362.679688 137.746094 360.1875 136.273438 C 356.382812 135.078125 354.546875 137.011719 353.5 140.507812 L 353.234375 144.003906 L 355.988281 144.554688 L 356.777344 141.980469 Z M 357.039062 140.414062 "/>
<path fill-rule="evenodd" fill="rgb(67.932129%, 11.036682%, 18.218994%)" fill-opacity="1" d="M 413.6875 156.613281 C 410.804688 155.875 412.378906 150.90625 413.035156 148.699219 C 414.082031 145.9375 415.917969 144.003906 417.359375 141.703125 C 414.34375 143.082031 412.117188 147.777344 410.671875 151.089844 C 408.574219 156.058594 410.019531 159.097656 411.984375 163.238281 Z M 413.6875 156.613281 "/>
<path fill-rule="evenodd" fill="rgb(67.932129%, 11.036682%, 18.218994%)" fill-opacity="1" d="M 356.382812 177.59375 C 359.660156 184.863281 368.578125 184.496094 371.988281 177.960938 C 367.921875 178.972656 368.449219 181.273438 363.597656 180.8125 C 360.84375 180.539062 358.742188 178.699219 356.382812 177.59375 "/>
<path fill-rule="evenodd" fill="rgb(67.932129%, 11.036682%, 18.218994%)" fill-opacity="1" d="M 395.984375 199.035156 C 397.296875 198.390625 398.347656 197.195312 399.65625 196.367188 C 402.148438 194.894531 402.542969 195.8125 402.148438 193.328125 L 394.019531 194.617188 C 393.625 195.996094 393.234375 197.746094 395.984375 199.035156 "/>
<path fill-rule="evenodd" fill="rgb(80.026245%, 7.385254%, 17.253113%)" fill-opacity="1" d="M 344.976562 156.242188 C 338.8125 153.757812 329.238281 148.144531 324.78125 143.726562 L 320.320312 138.757812 C 321.5 145.476562 335.269531 152.011719 341.695312 155.597656 C 343.925781 156.796875 344.058594 157.625 344.976562 156.242188 "/>
<path fill-rule="evenodd" fill="rgb(67.932129%, 11.036682%, 18.218994%)" fill-opacity="1" d="M 340.648438 192.226562 C 342.746094 192.5 344.449219 192.867188 346.023438 191.671875 C 345.367188 188.542969 340.777344 188.453125 340.648438 192.226562 "/>
<path fill-rule="evenodd" fill="rgb(0%, 0%, 0%)" fill-opacity="1" d="M 357.039062 140.414062 L 356.777344 141.980469 L 356.910156 144.738281 C 356.777344 144.832031 355.988281 144.925781 355.859375 144.925781 C 354.679688 145.199219 355.203125 145.109375 354.808594 145.292969 L 360.054688 144.832031 L 360.1875 143.175781 L 360.1875 141.335938 C 358.613281 142.992188 360.578125 142.164062 358.089844 142.53125 L 358.613281 139.957031 Z M 357.039062 140.414062 "/>
<path fill-rule="evenodd" fill="rgb(67.932129%, 11.036682%, 18.218994%)" fill-opacity="1" d="M 430.605469 194.433594 C 431.917969 195.996094 429.164062 195.90625 433.226562 196.089844 L 433.226562 196.183594 C 434.671875 196.734375 435.328125 197.378906 436.246094 198.574219 L 437.03125 196.273438 C 435.195312 194.15625 433.492188 194.433594 430.605469 194.433594 "/>
<path fill-rule="evenodd" fill="rgb(67.932129%, 11.036682%, 18.218994%)" fill-opacity="1" d="M 420.113281 199.402344 C 422.082031 200.875 424.835938 200.96875 424.574219 197.839844 C 422.34375 196.824219 421.292969 197.46875 420.113281 199.402344 "/>
<path fill-rule="evenodd" fill="rgb(67.932129%, 11.036682%, 18.218994%)" fill-opacity="1" d="M 415.132812 204.003906 C 412.246094 204.28125 412.640625 206.488281 415.261719 206.765625 Z M 415.132812 204.003906 "/>
<path fill-rule="nonzero" fill="rgb(100%, 100%, 100%)" fill-opacity="1" d="M 183.101562 217.269531 C 182.800781 217.34375 180.929688 217.386719 177.46875 217.386719 C 174.015625 217.386719 172.289062 217.015625 172.289062 216.265625 C 172.289062 216.25 172.636719 215.949219 173.324219 215.355469 C 174.015625 214.769531 174.507812 213.832031 174.8125 212.539062 C 175.128906 211.253906 175.28125 208.652344 175.28125 204.730469 C 175.28125 202.703125 174.847656 201.523438 173.980469 201.191406 C 173.332031 200.941406 171.089844 200.816406 167.242188 200.816406 C 163.398438 200.816406 161.117188 201.011719 160.402344 201.410156 C 159.6875 201.8125 159.332031 203.0625 159.332031 205.15625 C 159.332031 209.550781 159.449219 212.179688 159.703125 213.039062 C 159.953125 213.898438 160.257812 214.539062 160.625 214.972656 L 161.21875 215.542969 C 161.789062 216.09375 162.070312 216.453125 162.070312 216.613281 C 162.070312 217.378906 159.636719 217.761719 154.761719 217.761719 L 153.621094 217.761719 C 151.640625 217.761719 150.652344 217.378906 150.652344 216.613281 C 150.652344 216.367188 151.144531 216.019531 152.132812 215.566406 C 153.128906 215.125 153.757812 214.445312 154.03125 213.542969 C 154.300781 212.632812 154.4375 208.457031 154.4375 201.003906 C 154.4375 193.550781 154.320312 189.398438 154.0625 188.554688 C 153.816406 187.707031 153.476562 187.09375 153.042969 186.710938 L 152.292969 186.234375 C 151.433594 185.6875 151 185.324219 151 185.136719 C 151 184.488281 151.539062 184.105469 152.601562 183.980469 C 153.664062 183.851562 156.070312 183.792969 159.824219 183.792969 C 161.773438 183.792969 162.742188 184.125 162.742188 184.789062 C 162.742188 184.839844 162.417969 185.09375 161.78125 185.554688 C 161.140625 186.003906 160.726562 186.464844 160.519531 186.90625 C 159.992188 188.070312 159.722656 190.699219 159.722656 194.785156 C 159.722656 196.84375 160.105469 198.042969 160.863281 198.375 C 161.617188 198.707031 164.050781 198.875 168.160156 198.875 C 172.277344 198.875 174.59375 198.511719 175.101562 197.777344 C 175.402344 197.363281 175.554688 195.632812 175.554688 192.605469 C 175.554688 189.570312 175.351562 187.636719 174.957031 186.8125 C 174.789062 186.472656 174.398438 186.046875 173.769531 185.527344 C 173.148438 185 172.832031 184.695312 172.832031 184.617188 C 172.832031 183.902344 175.300781 183.546875 180.214844 183.546875 C 182.835938 183.546875 184.15625 183.730469 184.15625 184.113281 L 184.15625 184.761719 C 184.15625 184.949219 183.714844 185.304688 182.828125 185.832031 C 181.953125 186.371094 181.339844 187.144531 181 188.15625 C 180.660156 189.167969 180.488281 192.664062 180.488281 198.644531 L 180.515625 201.0625 L 180.539062 202.3125 L 180.566406 205.996094 C 180.566406 210.039062 180.667969 212.417969 180.871094 213.152344 C 181.085938 213.882812 181.425781 214.425781 181.910156 214.777344 C 183.289062 215.773438 183.976562 216.273438 183.976562 216.289062 C 183.976562 216.777344 183.6875 217.097656 183.101562 217.269531 Z M 202.371094 207.375 C 202.371094 206.386719 202.125 205.902344 201.621094 205.902344 L 201.492188 205.902344 C 200.933594 205.902344 199.910156 206.132812 198.429688 206.582031 C 196.949219 207.042969 195.921875 207.492188 195.34375 207.945312 C 193.898438 209.078125 193.171875 210.34375 193.171875 211.757812 L 193.171875 212.078125 C 193.171875 213 193.460938 213.78125 194.042969 214.4375 C 194.628906 215.089844 195.316406 215.421875 196.109375 215.421875 L 196.414062 215.472656 L 196.882812 215.472656 C 198.183594 215.472656 199.390625 214.964844 200.523438 213.953125 C 201.65625 212.9375 202.21875 211.851562 202.21875 210.683594 C 202.25 210.453125 202.269531 210.292969 202.269531 210.207031 L 202.292969 210.039062 L 202.34375 209.09375 L 202.34375 208.769531 L 202.371094 208.292969 Z M 208.570312 214.675781 C 209.492188 214.777344 209.941406 215.007812 209.941406 215.371094 C 209.941406 215.738281 209.71875 216.113281 209.269531 216.496094 C 208.257812 217.355469 207.109375 217.789062 205.808594 217.789062 C 205.109375 217.789062 204.394531 217.457031 203.664062 216.777344 C 202.929688 216.101562 202.4375 215.773438 202.164062 215.773438 C 201.902344 215.773438 201.007812 216.171875 199.476562 216.980469 C 197.945312 217.789062 196.679688 218.1875 195.667969 218.1875 L 195.085938 218.1875 C 193.394531 218.1875 191.972656 217.625 190.816406 216.503906 C 189.660156 215.378906 189.082031 214.054688 189.082031 212.503906 L 189.082031 211.960938 C 189.082031 208.371094 192.144531 205.878906 198.253906 204.480469 C 199.664062 204.152344 200.582031 203.871094 201 203.65625 C 201.824219 203.207031 202.242188 202.304688 202.242188 200.953125 C 202.242188 199.597656 201.894531 198.550781 201.1875 197.8125 C 200.480469 197.074219 199.554688 196.707031 198.40625 196.707031 C 197.257812 196.707031 196.246094 196.96875 195.367188 197.496094 C 194.917969 197.769531 194.390625 198.433594 193.792969 199.496094 C 193.199219 200.558594 192.527344 201.085938 191.777344 201.085938 C 190.730469 201.085938 190.203125 200.492188 190.203125 199.292969 C 190.203125 198.101562 191.089844 196.953125 192.851562 195.855469 C 194.609375 194.757812 196.457031 194.214844 198.378906 194.214844 C 201.9375 194.214844 204.320312 195.3125 205.535156 197.496094 C 206.113281 198.578125 206.410156 201.316406 206.410156 205.699219 C 206.410156 210.089844 206.539062 212.65625 206.800781 213.40625 C 207.074219 214.148438 207.660156 214.570312 208.570312 214.675781 Z M 232.453125 204.882812 C 232.453125 202.671875 231.898438 200.738281 230.792969 199.078125 C 229.6875 197.429688 228.265625 196.605469 226.539062 196.605469 L 226.070312 196.605469 C 224.355469 196.605469 222.925781 197.445312 221.785156 199.121094 C 221.121094 200.082031 220.78125 202.066406 220.78125 205.050781 L 220.78125 207.492188 L 220.804688 207.765625 L 220.832031 208.539062 L 220.882812 209.5625 C 220.882812 211.058594 221.273438 212.234375 222.054688 213.074219 C 223.207031 214.308594 224.429688 214.921875 225.75 214.921875 L 226.691406 214.921875 C 228.15625 214.921875 229.476562 214.121094 230.640625 212.53125 C 231.816406 210.929688 232.402344 209.09375 232.402344 207 L 232.453125 206.398438 Z M 230.335938 216.316406 C 229.050781 216.871094 227.839844 217.140625 226.691406 217.140625 C 225.542969 217.140625 224.472656 217.003906 223.476562 216.742188 C 222.480469 216.476562 221.964844 216.34375 221.929688 216.34375 C 221.035156 216.34375 220.585938 217.480469 220.585938 219.746094 C 220.585938 222.015625 220.738281 223.460938 221.035156 224.082031 C 221.332031 224.703125 221.894531 225.257812 222.71875 225.742188 C 223.535156 226.21875 223.953125 226.628906 223.953125 226.960938 C 223.953125 227.410156 222.855469 227.632812 220.660156 227.632812 L 220.039062 227.632812 L 219.410156 227.605469 L 218.765625 227.605469 C 215.207031 227.605469 213.429688 227.359375 213.429688 226.867188 C 213.429688 226.464844 213.839844 225.988281 214.636719 225.445312 C 215.445312 224.890625 215.992188 223.9375 216.261719 222.585938 C 216.535156 221.234375 216.671875 217.160156 216.671875 210.359375 C 216.671875 203.5625 216.570312 199.761719 216.355469 198.933594 C 216.152344 198.109375 215.804688 197.515625 215.300781 197.148438 C 214.304688 196.417969 213.804688 195.957031 213.804688 195.753906 C 213.804688 195.558594 213.921875 195.363281 214.152344 195.183594 C 215.019531 194.484375 216.613281 194.136719 218.941406 194.136719 C 219.554688 194.136719 220.023438 194.460938 220.339844 195.105469 L 220.636719 196.007812 C 220.773438 196.398438 220.882812 196.605469 220.984375 196.605469 C 221.230469 196.605469 221.726562 196.375 222.457031 195.90625 C 224.550781 194.546875 226.34375 193.863281 227.839844 193.863281 C 230.480469 193.863281 232.570312 194.707031 234.121094 196.398438 C 235.066406 197.4375 235.796875 198.613281 236.316406 199.929688 C 236.824219 201.25 237.089844 202.527344 237.089844 203.757812 L 237.089844 205.128906 C 237.089844 206.71875 236.808594 208.234375 236.265625 209.664062 C 234.996094 212.9375 233.023438 215.160156 230.335938 216.316406 Z M 260.46875 204.882812 C 260.46875 202.671875 259.914062 200.738281 258.808594 199.078125 C 257.703125 197.429688 256.28125 196.605469 254.554688 196.605469 L 254.085938 196.605469 C 252.367188 196.605469 250.941406 197.445312 249.800781 199.121094 C 249.136719 200.082031 248.796875 202.066406 248.796875 205.050781 L 248.796875 207.492188 L 248.820312 207.765625 L 248.847656 208.539062 L 248.898438 209.5625 C 248.898438 211.058594 249.289062 212.234375 250.070312 213.074219 C 251.21875 214.308594 252.445312 214.921875 253.765625 214.921875 L 254.707031 214.921875 C 256.171875 214.921875 257.492188 214.121094 258.65625 212.53125 C 259.832031 210.929688 260.417969 209.09375 260.417969 207 L 260.46875 206.398438 Z M 258.351562 216.316406 C 257.066406 216.871094 255.855469 217.140625 254.707031 217.140625 C 253.558594 217.140625 252.488281 217.003906 251.492188 216.742188 C 250.496094 216.476562 249.976562 216.34375 249.945312 216.34375 C 249.050781 216.34375 248.601562 217.480469 248.601562 219.746094 C 248.601562 222.015625 248.753906 223.460938 249.050781 224.082031 C 249.347656 224.703125 249.910156 225.257812 250.734375 225.742188 C 251.550781 226.21875 251.96875 226.628906 251.96875 226.960938 C 251.96875 227.410156 250.871094 227.632812 248.675781 227.632812 L 248.054688 227.632812 L 247.425781 227.605469 L 246.78125 227.605469 C 243.222656 227.605469 241.445312 227.359375 241.445312 226.867188 C 241.445312 226.464844 241.855469 225.988281 242.652344 225.445312 C 243.460938 224.890625 244.007812 223.9375 244.277344 222.585938 C 244.550781 221.234375 244.6875 217.160156 244.6875 210.359375 C 244.6875 203.5625 244.585938 199.761719 244.371094 198.933594 C 244.167969 198.109375 243.820312 197.515625 243.316406 197.148438 C 242.320312 196.417969 241.820312 195.957031 241.820312 195.753906 C 241.820312 195.558594 241.9375 195.363281 242.167969 195.183594 C 243.035156 194.484375 244.628906 194.136719 246.957031 194.136719 C 247.570312 194.136719 248.039062 194.460938 248.351562 195.105469 L 248.652344 196.007812 C 248.789062 196.398438 248.898438 196.605469 249 196.605469 C 249.246094 196.605469 249.738281 196.375 250.472656 195.90625 C 252.566406 194.546875 254.359375 193.863281 255.855469 193.863281 C 258.496094 193.863281 260.585938 194.707031 262.136719 196.398438 C 263.082031 197.4375 263.8125 198.613281 264.332031 199.929688 C 264.839844 201.25 265.105469 202.527344 265.105469 203.757812 L 265.105469 205.128906 C 265.105469 206.71875 264.824219 208.234375 264.28125 209.664062 C 263.011719 212.9375 261.039062 215.160156 258.351562 216.316406 Z M 273.449219 227.382812 C 272.566406 227.382812 271.808594 227.15625 271.179688 226.6875 C 270.550781 226.21875 270.234375 225.792969 270.234375 225.394531 C 270.234375 224.441406 271.195312 223.972656 273.128906 223.972656 C 274.300781 223.972656 275.457031 223.242188 276.589844 221.777344 C 277.722656 220.316406 278.28125 218.628906 278.28125 216.714844 C 278.28125 215.96875 278.003906 214.835938 277.441406 213.332031 C 275.226562 207.441406 273.355469 202.941406 271.824219 199.820312 C 271.578125 199.300781 270.984375 198.5 270.039062 197.414062 C 269.085938 196.324219 268.617188 195.652344 268.617188 195.378906 C 268.617188 194.648438 270.472656 194.28125 274.199219 194.28125 L 274.949219 194.28125 C 276.359375 194.28125 277.066406 194.519531 277.066406 194.980469 C 277.066406 195.21875 276.914062 195.644531 276.613281 196.265625 C 276.316406 196.894531 276.164062 197.421875 276.164062 197.847656 C 276.164062 199.34375 277.433594 203.113281 279.960938 209.144531 C 280.484375 210.421875 280.878906 211.058594 281.125 211.058594 C 281.292969 211.058594 281.582031 210.574219 282 209.613281 C 284.492188 203.769531 285.734375 199.769531 285.734375 197.625 C 285.734375 196.996094 285.539062 196.453125 285.148438 196.007812 C 284.757812 195.558594 284.570312 195.285156 284.570312 195.183594 C 284.570312 194.589844 285.421875 194.28125 287.128906 194.28125 C 290.039062 194.28125 291.496094 194.597656 291.496094 195.210938 C 291.496094 195.574219 291.027344 196.316406 290.101562 197.429688 C 289.171875 198.535156 288.535156 199.472656 288.195312 200.21875 C 287.855469 200.96875 286.40625 204.703125 283.855469 211.433594 C 281.304688 218.164062 279.6875 222.152344 279.007812 223.394531 C 277.558594 226.058594 275.925781 227.382812 274.097656 227.382812 Z M 273.449219 227.382812 "/>
<path fill-rule="nonzero" fill="rgb(100%, 100%, 100%)" fill-opacity="1" d="M 202.734375 159.433594 C 201.980469 159.433594 201.492188 159.957031 201.269531 161 C 201.152344 161.546875 201.09375 164.082031 201.09375 168.609375 C 201.09375 173.136719 201.207031 175.824219 201.425781 176.675781 C 201.5625 177.191406 201.949219 177.628906 202.585938 177.980469 C 203.222656 178.332031 203.539062 178.59375 203.539062 178.761719 C 203.539062 179.09375 203.324219 179.300781 202.890625 179.359375 C 202.683594 179.390625 201.535156 179.40625 199.453125 179.40625 L 197.417969 179.425781 C 196.152344 179.425781 195.519531 179.269531 195.519531 178.960938 C 195.519531 178.648438 195.855469 178.3125 196.515625 177.957031 C 197.179688 177.597656 197.59375 177.058594 197.757812 176.347656 C 197.917969 175.628906 198 173.027344 198 168.542969 C 198 164.058594 197.929688 161.539062 197.777344 160.964844 C 197.632812 160.398438 197.453125 160.015625 197.25 159.828125 C 197.046875 159.640625 196.667969 159.542969 196.125 159.542969 C 194.25 159.542969 192.9375 160.183594 192.1875 161.457031 C 191.632812 162.394531 191.34375 162.863281 191.320312 162.863281 C 190.976562 162.863281 190.800781 162.511719 190.800781 161.816406 C 190.800781 159.894531 190.976562 158.664062 191.335938 158.140625 C 191.582031 157.78125 192.199219 157.601562 193.203125 157.601562 L 194.179688 157.570312 L 195.679688 157.554688 L 200.746094 157.554688 L 201.269531 157.570312 L 205.371094 157.554688 C 206.785156 157.554688 207.636719 157.695312 207.929688 157.96875 C 208.226562 158.238281 208.375 159.230469 208.375 160.933594 L 208.375 161.441406 C 208.375 162.28125 208.21875 162.703125 207.898438 162.703125 C 207.730469 162.703125 207.433594 162.355469 207.015625 161.671875 C 206.59375 160.980469 206.070312 160.4375 205.453125 160.035156 C 204.832031 159.636719 203.925781 159.433594 202.734375 159.433594 Z M 211.1875 158.488281 C 211.1875 157.921875 212.046875 157.636719 213.773438 157.636719 L 214.246094 157.636719 C 214.878906 157.636719 215.277344 157.914062 215.433594 158.472656 C 215.546875 158.875 215.675781 160.21875 215.808594 162.496094 C 215.949219 164.78125 216.199219 165.925781 216.554688 165.925781 C 216.585938 165.925781 217.082031 165.6875 218.046875 165.210938 C 219.011719 164.738281 219.867188 164.5 220.628906 164.5 C 221.386719 164.5 222.132812 164.742188 222.859375 165.222656 C 223.59375 165.703125 224.109375 166.285156 224.417969 166.976562 C 224.722656 167.664062 224.875 169.242188 224.875 171.710938 C 224.875 174.179688 224.949219 175.683594 225.101562 176.21875 C 225.257812 176.757812 225.515625 177.21875 225.882812 177.617188 C 226.253906 178.011719 226.4375 178.28125 226.4375 178.421875 C 226.4375 178.5625 226.332031 178.691406 226.109375 178.808594 C 225.472656 179.132812 224.523438 179.300781 223.246094 179.300781 C 221.976562 179.300781 221.339844 179.113281 221.339844 178.746094 C 221.339844 178.625 221.441406 178.449219 221.648438 178.199219 C 221.851562 177.953125 221.988281 177.753906 222.050781 177.609375 C 222.109375 177.460938 222.144531 176.703125 222.144531 175.332031 L 222.160156 174.75 L 222.191406 174.179688 C 222.246094 173.109375 222.273438 171.882812 222.273438 170.511719 C 222.273438 169.136719 222.039062 168.15625 221.582031 167.566406 C 221.125 166.976562 220.359375 166.683594 219.285156 166.683594 C 218.886719 166.683594 218.375 166.839844 217.761719 167.15625 C 217.148438 167.472656 216.613281 167.976562 216.167969 168.679688 C 215.71875 169.378906 215.496094 170.785156 215.496094 172.902344 C 215.496094 175.019531 215.574219 176.363281 215.722656 176.929688 C 215.878906 177.5 216.117188 177.9375 216.441406 178.238281 C 216.769531 178.546875 216.929688 178.765625 216.929688 178.902344 C 216.929688 179.253906 216.140625 179.425781 214.550781 179.425781 L 213.996094 179.40625 L 213.445312 179.40625 C 211.917969 179.40625 211.152344 179.1875 211.152344 178.746094 C 211.152344 178.578125 211.363281 178.253906 211.785156 177.773438 C 212.203125 177.296875 212.492188 176.789062 212.628906 176.25 C 212.769531 175.714844 212.847656 174.300781 212.847656 172.007812 C 212.847656 169.722656 212.8125 167.898438 212.753906 166.539062 C 212.699219 165.179688 212.667969 164.457031 212.667969 164.359375 L 212.75 162.257812 L 212.78125 161.269531 C 212.78125 160.40625 212.71875 159.839844 212.582031 159.570312 C 212.453125 159.300781 212.273438 159.101562 212.054688 158.976562 L 211.726562 158.835938 C 211.363281 158.675781 211.1875 158.5625 211.1875 158.488281 Z M 239.210938 169.367188 L 239.210938 169.179688 C 239.210938 168.386719 238.910156 167.652344 238.3125 166.980469 C 237.710938 166.308594 236.972656 165.972656 236.101562 165.972656 L 235.488281 165.972656 C 234.570312 165.972656 233.804688 166.367188 233.195312 167.148438 C 232.585938 167.933594 232.28125 168.769531 232.28125 169.664062 C 232.28125 170.070312 233.023438 170.269531 234.507812 170.269531 L 236.476562 170.269531 L 236.574219 170.25 L 237.664062 170.1875 L 237.777344 170.171875 L 238.34375 170.121094 C 238.917969 170.121094 239.210938 169.875 239.210938 169.367188 Z M 241.453125 176.011719 C 241.664062 176.011719 241.769531 176.136719 241.769531 176.382812 C 241.769531 176.632812 241.570312 176.988281 241.167969 177.453125 C 240.769531 177.914062 240.09375 178.382812 239.144531 178.859375 C 238.191406 179.328125 237.195312 179.5625 236.164062 179.5625 C 234.082031 179.5625 232.4375 178.894531 231.230469 177.558594 C 230.027344 176.222656 229.421875 174.449219 229.421875 172.242188 C 229.421875 168.96875 230.742188 166.601562 233.386719 165.152344 C 234.203125 164.699219 235.089844 164.472656 236.019531 164.472656 L 236.683594 164.472656 C 238.03125 164.472656 239.195312 164.910156 240.175781 165.785156 C 240.691406 166.246094 241.109375 166.824219 241.421875 167.515625 C 241.738281 168.199219 241.894531 168.796875 241.894531 169.304688 L 241.894531 169.621094 C 241.894531 170.292969 241.550781 170.730469 240.855469 170.9375 C 240.160156 171.140625 238.789062 171.292969 236.746094 171.390625 C 234.707031 171.480469 233.546875 171.589844 233.277344 171.703125 C 232.695312 171.945312 232.410156 172.445312 232.410156 173.207031 C 232.410156 174.5625 232.894531 175.695312 233.875 176.601562 C 234.644531 177.3125 235.695312 177.671875 237.035156 177.671875 C 237.695312 177.671875 238.476562 177.46875 239.382812 177.054688 C 239.492188 177.003906 239.824219 176.816406 240.394531 176.496094 C 240.960938 176.175781 241.316406 176.011719 241.453125 176.011719 "/>
</svg>
