<?xml version="1.0" encoding="UTF-8"?>
<!-- CMYK_PDF_CONVERTED -->
<svg data-vectorized-cmyk="true" data-original-cmyk-pdf="true" xmlns="http://www.w3.org/2000/svg" xmlns:xlink="http://www.w3.org/1999/xlink" width="419.528" height="595.276" viewBox="0 0 419.528 595.276">
<path fill-rule="nonzero" fill="#C0C0C0" fill-opacity="1" d="M 328.050781 135.082031 C 345.363281 170.851562 351.433594 209.234375 350.109375 241.234375 C 345.542969 284.542969 327.558594 318.476562 302.429688 338.507812 C 289.574219 348.765625 276.722656 355.363281 260.867188 359.339844 C 245.585938 363.410156 229.78125 365.046875 213.835938 364.640625 C 181.957031 363.738281 149.257812 355.050781 117.800781 337.316406 C 102.136719 328.359375 86.78125 317.050781 72.902344 302.660156 C 59.058594 288.328125 46.601562 270.84375 38.316406 250.097656 C 30.734375 231.71875 27.238281 212.882812 27.527344 194.078125 C 27.660156 174.574219 29.789062 155.863281 34.496094 138.648438 C 39.195312 121.460938 46.582031 105.832031 56.734375 93.015625 C 66.84375 80.164062 79.707031 70.214844 94.195312 63.574219 C 123.3125 50.226562 157.738281 49.707031 190.867188 57.949219 C 224 66.355469 257.226562 83.398438 284.410156 110.339844 C 289.625 113.769531 296.8125 119.894531 304.351562 129.058594 C 311.84375 138.195312 319.714844 150.476562 325.058594 165.726562 C 330.417969 180.898438 332.929688 199.105469 330.039062 218.015625 C 327.285156 236.921875 319.175781 256.160156 307.351562 273.601562 C 295.558594 291.277344 280.3125 306.613281 263.832031 321.355469 C 248.050781 335.351562 230.074219 345.828125 211.628906 350.601562 C 193.207031 355.53125 174.617188 354.660156 158.277344 350 C 141.863281 345.402344 127.710938 337.355469 116.230469 329.035156 C 101.207031 317.175781 90.078125 303.6875 82.148438 292.03125 C 74.203125 280.328125 69.335938 270.433594 66.40625 264.496094 C 63.480469 258.550781 62.285156 256.582031 62.777344 259.933594 C 63.382812 263.222656 65.601562 271.988281 72.636719 285.910156 C 59.199219 261.023438 55.5625 241.261719 54.058594 226.789062 C 52.769531 212.148438 53.800781 202.199219 55.285156 193.105469 C 56.894531 184.011719 58.988281 175.609375 63.355469 164.410156 C 67.84375 153.367188 74.550781 139.078125 89.953125 122.117188 C 83.605469 130.316406 78.246094 139.167969 74.128906 148.4375 C 89.5 123.183594 116.136719 102.914062 151.226562 87.628906 C 163.910156 81.273438 177.636719 76.886719 191.882812 74.695312 C 218.191406 73.738281 241.488281 79.15625 262.3125 87.199219 C 283.144531 95.375 301.734375 106.328125 318.785156 119.945312 C 335.777344 133.605469 351.417969 150.023438 364.535156 170.667969 C 377.445312 191.226562 388.273438 216.570312 389.976562 246.523438 C 389.566406 236.804688 388.449219 230.078125 387.742188 225.742188 C 387.003906 221.390625 386.640625 219.40625 386.738281 219.140625 C 386.925781 218.617188 388.992188 225.015625 390.667969 233.789062 C 392.394531 242.546875 393.28125 253.695312 393.1875 262.085938 C 393.128906 270.464844 392.582031 276.089844 393.574219 273.980469 C 392.65625 278.578125 390.992188 286.566406 388 295.171875 C 385.070312 303.808594 380.742188 312.972656 376.203125 320.363281 C 371.722656 327.800781 367.179688 333.523438 364.828125 336.210938 C 362.472656 338.902344 362.402344 338.65625 365.945312 333.621094 C 350.582031 353.597656 331.335938 369.710938 310.808594 381.054688 C 290.265625 392.484375 268.347656 399.023438 247.3125 401.128906 C 204.972656 405.425781 167.710938 392.335938 144.210938 376.382812 C 133.328125 370.898438 122.886719 364.347656 113.035156 356.878906 C 87.957031 337.414062 70.074219 313.445312 58.394531 287.566406 C 46.761719 261.617188 41.222656 233.523438 42.347656 203.816406 C 41.835938 201.046875 41.375 198.253906 40.996094 195.445312 C 41.714844 175.6875 47.964844 147.359375 59.425781 122.535156 C 70.980469 97.558594 89.726562 78.152344 103.222656 68.527344 C 142.277344 36.757812 201.382812 21.3125 256.828125 34.984375 C 284.328125 41.695312 310.742188 56.164062 329.613281 78.171875 C 348.707031 100.007812 358.738281 128.871094 360.445312 156.503906 C 360.859375 170.292969 359.773438 181.539062 358.492188 190.84375 C 357.195312 200.105469 355.808594 207.515625 354.496094 213.613281 C 351.8125 225.816406 349.808594 232.992188 347.902344 239.886719 C 345.914062 246.738281 343.972656 253.359375 339.285156 263.664062 C 334.453125 273.796875 327.136719 288.179688 310.402344 306.671875 C 299.425781 317.988281 285.125 330.023438 268.328125 339.851562 C 251.582031 349.726562 232.382812 357.320312 213.164062 361.132812 C 193.949219 365.046875 174.832031 365.15625 158.699219 362.558594 C 142.53125 360.050781 129.441406 354.964844 121.070312 350.523438 C 140.894531 359.117188 157.828125 361.460938 172.199219 361.902344 C 186.640625 362.230469 198.789062 360.519531 210.730469 357.773438 C 222.664062 354.929688 234.464844 350.984375 247.945312 344.761719 C 261.355469 338.425781 276.632812 329.882812 293.707031 315.394531 C 286.894531 320.542969 290.855469 317.164062 298.921875 309.25 C 306.984375 301.328125 318.417969 287.945312 326.769531 274.078125 C 335.277344 260.332031 340.816406 246.527344 342.503906 241.09375 C 344 235.535156 343.144531 238.964844 333.996094 256.585938 C 315.820312 295.398438 281.570312 329.261719 239.042969 345.589844 C 217.910156 353.828125 194.902344 357.78125 172.019531 356.375 C 149.15625 355.035156 126.496094 348.101562 106.785156 335.890625 C 87.019531 323.742188 70.492188 306.371094 58.292969 286.519531 C 46.164062 266.644531 37.480469 244.601562 33.007812 222.226562 C 28.234375 199.882812 26.570312 177.171875 29.402344 155.566406 C 32.144531 133.976562 39.6875 113.707031 50.957031 97.082031 C 50.390625 100.449219 56.460938 91.144531 70.507812 78.886719 C 84.429688 66.578125 107.707031 52.902344 135.714844 46.683594 C 163.589844 40.125 195.261719 40.738281 222.710938 47.039062 C 250.292969 53.128906 273.378906 64.601562 287.714844 73.714844 L 290.664062 77.273438 C 302.695312 85.578125 312.933594 94.574219 322.582031 104.652344 C 332.332031 114.476562 341.527344 124.988281 350.167969 137.289062 C 358.75 149.59375 366.910156 163.761719 372.746094 181.175781 C 378.507812 198.476562 381.800781 219.515625 377.378906 242.996094 C 371.742188 271.027344 355.386719 295.773438 334.554688 313.523438 C 313.644531 331.40625 288.449219 342.917969 262.824219 348.09375 C 237.15625 353.304688 210.964844 352.164062 186.996094 345.605469 C 162.972656 339.109375 141.300781 327.214844 123.226562 312.453125 C 109.867188 301.605469 97.445312 288.867188 86.402344 274.71875 C 75.265625 260.910156 67.15625 244.65625 61.851562 227.367188 C 51.28125 192.796875 51.34375 155.09375 60.496094 122.960938 C 65.042969 106.875 72.003906 92.171875 80.851562 80.03125 C 89.652344 67.828125 100.449219 58.390625 111.582031 51.921875 C 134.148438 38.910156 156.65625 37.996094 171.25 38.503906 C 150.308594 35.851562 128.179688 38.558594 109.203125 48.773438 C 90.113281 58.753906 75.027344 75.566406 65.050781 94.511719 C 54.976562 113.523438 49.53125 134.558594 47.484375 155.402344 C 45.476562 176.285156 46.894531 197.171875 51.40625 216.90625 C 55.933594 236.625 63.640625 255.289062 74.640625 271.191406 C 85.816406 286.785156 98.535156 300.496094 112.195312 312.378906 C 139.566406 336.148438 171.355469 351.472656 203.078125 358.171875 C 173.175781 353.183594 151.785156 342.742188 135.269531 332.835938 C 118.75 322.707031 106.832031 312.707031 96.242188 302.65625 C 90.941406 297.597656 86.050781 292.503906 81.167969 287.007812 C 76.425781 281.636719 71.457031 275.789062 66.804688 268.796875 C 57.65625 254.917969 49.148438 237.425781 43.695312 213.203125 C 46.535156 230.425781 51.707031 247.457031 59.769531 263.308594 C 52.550781 250.796875 47.140625 237.308594 43.3125 223.402344 C 45.425781 234.320312 42.054688 226.171875 39.070312 215.683594 C 36.019531 205.234375 34.097656 192.40625 33.570312 195.859375 C 36.351562 222.5 43.96875 249.023438 58.207031 272.5 C 61.664062 278.25 65.988281 284.214844 69.914062 289.054688 C 71.664062 291.28125 74.011719 294.070312 76.066406 296.472656 C 78.160156 298.910156 80.300781 301.296875 82.488281 303.652344 C 91.242188 313.046875 100.714844 321.792969 110.898438 329.636719 C 94.8125 316.5625 87 307.195312 83.085938 302.5 C 79.261719 297.6875 79.496094 297.242188 81.910156 299.238281 C 86.613281 303.375 100.980469 316.378906 110.894531 322.777344 C 130.949219 339.136719 154.070312 351.753906 178.789062 359.039062 C 170.179688 356.335938 155.066406 349.902344 148.953125 346.234375 C 145.847656 344.476562 144.855469 343.675781 147.761719 344.902344 C 150.699219 345.996094 157.476562 349.34375 170.671875 353.652344 C 185.101562 358.828125 202.738281 362.453125 220.933594 363.1875 C 239.128906 364.019531 257.75 361.921875 274.351562 358.207031 C 255.042969 364.585938 234.5625 367.65625 213.953125 367.230469 C 237.632812 368.414062 259.863281 365.667969 280.605469 359.828125 C 301.332031 353.941406 320.671875 344.902344 338.117188 332.292969 C 355.472656 319.683594 371.097656 303.296875 382.21875 282.441406 C 393.359375 261.75 399.457031 236.121094 396.769531 209.820312 C 397.296875 199.078125 396.605469 188.167969 394.757812 177.472656 C 385.148438 145.410156 366.695312 118.714844 345.992188 96.515625 C 348.667969 98.695312 351.285156 100.972656 353.90625 103.285156 C 350.894531 99.765625 347.816406 96.332031 344.664062 92.996094 L 335.390625 83.515625 C 328.730469 76.78125 321.722656 70.601562 314.34375 64.878906 C 299.625 53.433594 283.582031 43.988281 266.785156 36.625 C 239.21875 25.371094 222.144531 23.464844 211.46875 22.277344 C 200.691406 21.355469 195.878906 21.90625 190.714844 22.222656 C 168.335938 20.789062 146.152344 23.289062 127.800781 28.0625 C 109.390625 32.75 94.925781 39.566406 86.457031 43.820312 C 101.984375 34.285156 118.851562 27.539062 136.128906 23.214844 C 119.988281 26.226562 103.972656 31.332031 88.757812 38.972656 C 96.621094 35.179688 98.289062 34.859375 96.054688 36.039062 C 93.835938 37.261719 87.796875 40.328125 80.773438 44.761719 C 73.730469 49.175781 65.785156 55.128906 59.417969 61.011719 C 53.011719 66.855469 48.152344 72.507812 46.207031 75.105469 C 26.75 97.515625 19.757812 117.609375 15.582031 131.457031 C 11.648438 145.621094 10.589844 154.707031 9.738281 162.316406 C 8.960938 169.949219 8.597656 176.222656 8.550781 185.121094 C 8.597656 194 8.914062 205.59375 11.753906 223.261719 C 18.847656 259.714844 36.84375 298.492188 58.90625 323.261719 C 80.730469 348.441406 103.242188 358.988281 105.476562 358.585938 C 135.019531 375.027344 169.785156 381.078125 203.132812 377.09375 C 236.558594 373.246094 268.753906 359.785156 295.828125 339.234375 C 322.960938 318.710938 344.8125 290.878906 358.804688 259.878906 C 365.859375 244.398438 370.996094 228.207031 374.339844 211.902344 C 375.199219 207.84375 375.902344 203.710938 376.539062 199.699219 C 377.078125 196.292969 377.765625 191.597656 378.167969 187.558594 C 379.066406 179.324219 379.507812 171.019531 379.394531 162.691406 C 378.523438 143.191406 374.605469 123.386719 366.855469 105.136719 C 359.929688 86.3125 349.53125 70.292969 337.710938 57.621094 C 325.878906 44.890625 312.730469 35.3125 299.417969 28.082031 C 272.660156 13.726562 245.558594 8.019531 218.707031 7.292969 C 191.816406 6.785156 164.628906 11.269531 136.871094 22.921875 C 109.398438 34.632812 80.484375 54.03125 57.542969 86.757812 C 59.703125 83.152344 61.972656 79.597656 64.390625 76.152344 C 55.535156 87.695312 48.117188 100.394531 42.300781 113.746094 C 39.394531 120.425781 36.890625 127.265625 34.761719 134.199219 L 33.246094 139.417969 L 32.015625 144.125 C 31.183594 147.101562 30.128906 150.949219 29.335938 154.394531 C 21.300781 182.835938 20.261719 208.859375 23.007812 232.019531 C 25.832031 255.246094 32.320312 275.84375 41.628906 295.3125 C 51.023438 314.757812 63.3125 333.230469 80.085938 351.367188 C 96.933594 369.363281 118.351562 387.328125 147.734375 402.082031 C 179.625 417.46875 210.503906 422.628906 237.0625 421.898438 C 263.742188 421.144531 286.128906 414.625 304.09375 406.382812 C 322.113281 398.042969 335.910156 388.222656 346.878906 378.277344 C 357.882812 368.292969 366.078125 358.535156 372.664062 348.855469 C 383.230469 335.175781 392.753906 318.796875 398.699219 300.355469 C 404.753906 281.980469 406.980469 261.769531 405.425781 242.261719 C 402.363281 202.898438 385.003906 167.960938 366.582031 143.625 C 375.03125 153.960938 382.671875 165.152344 389.21875 177.152344 C 381.871094 161.296875 372.625 146.496094 361.980469 132.921875 C 347.449219 115.976562 334.574219 104.953125 322.980469 96.074219 C 311.320312 87.261719 300.757812 80.703125 289.027344 74.617188 C 277.257812 68.660156 264.273438 63.058594 246.929688 58.648438 C 229.648438 54.484375 207.585938 50.972656 179.027344 55.46875 C 159.535156 58.097656 143.074219 64.292969 130.359375 70.761719 C 117.527344 77.015625 107.078125 83.734375 98.714844 90.222656 C 81.949219 103.296875 73.015625 114.992188 66.871094 124.601562 C 60.808594 134.355469 57.417969 142.3125 54.125 151.710938 C 50.988281 161.136719 47.679688 172.101562 45.671875 188.976562 C 41.269531 214.074219 43.804688 240.277344 51.539062 264.4375 C 59.285156 288.640625 72.070312 311.09375 88.890625 329.910156 L 87.253906 326.84375 C 103.167969 342.371094 116.238281 350.382812 128.21875 356.683594 C 140.328125 362.753906 151.671875 367.210938 167.148438 370.125 C 182.457031 372.695312 202.898438 374.0625 229.667969 363.90625 C 242.914062 358.75 257.433594 350.445312 272.144531 337.816406 C 286.136719 325.089844 302.644531 310.164062 317.636719 288.800781 C 315.113281 290.851562 312.574219 292.820312 309.996094 294.710938 C 331.953125 268.265625 342.140625 243.183594 344.757812 215.214844 C 345.902344 201.1875 344.832031 186.261719 340.355469 170.125 C 335.851562 154.019531 327.867188 136.679688 314.609375 118.917969 C 308.109375 110.253906 297.503906 97.613281 282.539062 85.027344 C 267.65625 72.402344 248.445312 59.921875 226.75 50.609375 C 205.105469 41.25 180.988281 35.101562 157.625 33.941406 C 134.300781 32.652344 111.855469 36.679688 94.578125 44.351562 C 76.511719 50.890625 60.980469 61.472656 49.09375 74.296875 C 37.136719 87.105469 28.804688 101.894531 23.136719 116.695312 C 11.960938 146.585938 10.199219 175.921875 11.554688 203.535156 C 13.5625 231.585938 23.089844 257.691406 38.316406 281.027344 C 53.570312 304.386719 74.363281 325.339844 101.066406 343.285156 C 132.949219 365.554688 165.390625 374.921875 189.890625 378.609375 C 214.605469 382.347656 231.777344 380.910156 239.238281 382.640625 C 234.628906 383.003906 230.027344 383.296875 225.414062 383.324219 C 234.941406 384.742188 244.675781 385.414062 254.519531 385.238281 L 257.453125 381.453125 C 263.203125 380.53125 269.203125 379.140625 275.355469 377.359375 C 278.484375 376.453125 281.390625 375.496094 284.769531 374.238281 C 287.757812 372.945312 290.796875 371.660156 293.890625 370.054688 C 306.175781 363.949219 317.914062 355.433594 327.945312 345.277344 C 348.328125 324.980469 360.339844 298.617188 367.222656 278.582031 C 375.191406 240.730469 371.921875 201.699219 361 166.121094 C 368.324219 192.535156 370.832031 223.671875 366.285156 253.925781 L 367.546875 250.980469 C 365.957031 265.417969 361.023438 290.527344 348.792969 313.019531 C 342.835938 324.265625 335.171875 334.679688 327.035156 342.972656 C 318.964844 351.367188 310.394531 357.515625 303.40625 361.644531 C 314.257812 354.371094 323.863281 345.234375 332.046875 334.953125 C 324.574219 343.449219 319.792969 347.234375 317.699219 348.75 C 315.585938 350.25 316.078125 349.460938 317.90625 347.535156 C 321.609375 343.710938 329.773438 334.386719 333.210938 329.15625 C 346.898438 311.492188 352.46875 296.589844 356.113281 285.722656 C 359.5625 274.679688 360.832031 267.09375 361.738281 260.207031 C 362.582031 253.304688 363.054688 247.03125 363.277344 238.160156 C 363.398438 229.296875 363.511719 217.792969 361.570312 200.550781 C 360.992188 192.765625 359.296875 181.523438 357.722656 173.652344 C 356.1875 165.789062 355.09375 161.191406 356.996094 166.386719 C 354.304688 156.496094 350.035156 142.632812 343.441406 128.152344 C 336.941406 113.65625 328.078125 98.617188 318.019531 86.121094 C 308.015625 73.597656 296.972656 63.628906 287.984375 57.519531 C 279.035156 51.292969 272.449219 48.546875 271.390625 48.820312 C 268.515625 47.0625 267.371094 46.488281 264.710938 44.980469 C 269.503906 50.292969 280.863281 59.089844 293.316406 73.738281 C 305.734375 88.355469 318.964844 109.195312 328.050781 135.082031 "/>
<path fill-rule="nonzero" fill="#C0C0C0" fill-opacity="1" d="M 162.90625 126.429688 C 39.148438 222.859375 303.277344 343.703125 292.136719 210.984375 C 286.542969 162.71875 191.019531 102.324219 151.652344 132.445312 C 84.148438 180.664062 174.050781 259.164062 224.660156 241.085938 C 320.25 204.972656 224.765625 78.226562 162.90625 126.429688 C 95.410156 168.601562 174.023438 295.359375 235.878906 277.308594 C 320.207031 247.195312 286.570312 132.558594 213.488281 120.445312 C 134.792969 114.347656 84.117188 228.929688 162.800781 271.210938 C 353.867188 373.914062 224.839844 -24.328125 117.886719 180.691406 "/>
<path fill-rule="nonzero" fill="#C0C0C0" fill-opacity="1" d="M 214.089844 117.9375 C 211.429688 116.910156 208.71875 115.960938 205.960938 115.109375 C 232.75 123.140625 257.1875 138.976562 277.171875 160.078125 C 266.941406 147.871094 254.601562 136.964844 240.78125 127.941406 C 226.949219 118.972656 211.585938 111.734375 194.660156 108.4375 C 186.210938 106.839844 177.289062 106.28125 168.132812 107.753906 C 163.566406 108.488281 158.960938 109.757812 154.511719 111.695312 C 150.175781 113.53125 145.539062 116.445312 142.285156 119.265625 C 130.359375 128.703125 119.84375 143.753906 118.40625 158.957031 C 116.890625 160.09375 114.039062 165.757812 113.335938 174.195312 C 112.492188 182.59375 114.238281 193.167969 117.957031 202.082031 C 125.316406 220.242188 138.382812 231.707031 139.121094 231.691406 C 149.792969 240.359375 161.523438 247.078125 174.257812 251.789062 C 165.515625 248.496094 157.257812 244.1875 149.507812 239 C 157.257812 244.1875 165.515625 248.496094 174.257812 251.789062 C 184.320312 255.457031 195.097656 257.90625 206.589844 257.925781 C 212.34375 257.863281 218.257812 257.25 224.175781 255.550781 C 230.390625 253.769531 234.984375 251.429688 240.03125 248.828125 C 249.828125 243.550781 259.628906 236.167969 266.898438 225.496094 C 274.265625 214.949219 278.070312 201.207031 277.585938 188.238281 C 277.207031 175.203125 273.363281 163.035156 267.8125 152.261719 C 262.21875 141.464844 254.828125 131.902344 246.027344 123.757812 C 237.210938 115.660156 226.898438 108.890625 215.0625 104.730469 C 203.328125 100.566406 189.71875 99.273438 176.625 102.757812 C 169.753906 104.542969 161.699219 108.117188 154.085938 113.929688 L 155.335938 113.054688 C 148.039062 117.527344 140.121094 123.964844 133.863281 133.1875 C 127.554688 142.289062 123.308594 153.882812 121.996094 165.667969 C 119.34375 189.488281 126.273438 212.679688 136.390625 232.144531 C 146.675781 251.710938 160.660156 268.246094 176.257812 279.945312 C 191.734375 291.722656 209.667969 297.929688 224.0625 297.882812 C 228.75 297.925781 233.523438 297.433594 238.207031 296.375 L 239.96875 295.953125 L 240.410156 295.851562 L 240.621094 295.792969 L 242.15625 295.292969 L 242.761719 295.074219 L 245.203125 294.207031 C 246.832031 293.628906 249.246094 292.621094 251.152344 291.8125 L 246.605469 293.605469 L 243.613281 294.648438 L 242.390625 295.054688 L 242.105469 295.152344 L 240.703125 295.621094 L 240.59375 295.640625 L 240.394531 295.6875 L 239.605469 295.878906 L 236.601562 296.535156 C 232.671875 297.164062 228.636719 297.847656 220.878906 297.402344 C 225.738281 297.449219 230.628906 296.898438 235.355469 295.773438 C 236.539062 295.542969 237.703125 295.160156 238.867188 294.832031 L 239.722656 294.570312 L 240.164062 294.445312 L 241.769531 293.894531 L 242.980469 293.371094 L 245.382812 292.324219 L 248.351562 290.925781 C 255.9375 287.285156 262.738281 282.855469 269.089844 277.527344 C 281.757812 266.925781 291.191406 252.234375 295.527344 236.652344 C 294.316406 239.234375 293.453125 240.679688 292.089844 242.9375 C 290.746094 245.171875 288.972656 248.300781 285.203125 253.609375 C 288.113281 249.1875 290.585938 244.417969 292.566406 239.453125 C 294.261719 232.230469 296.410156 220.402344 295.839844 208.613281 C 295.445312 196.820312 292.542969 185.410156 289.789062 178.605469 C 291.789062 181.300781 288.613281 169.910156 283.757812 160.8125 L 284.976562 164.773438 C 278.582031 151.195312 268.714844 138.34375 256.390625 128.605469 C 244.125 118.804688 229.351562 112.46875 215.027344 110.226562 L 214.542969 110.15625 L 214.214844 110.136719 C 205.800781 109.550781 197.636719 110.171875 190.164062 111.671875 C 185.5625 112.644531 182.085938 113.3125 179.925781 113.621094 C 169.664062 117.34375 160.164062 123.003906 151.878906 130.042969 C 152.429688 128.644531 146.878906 132.601562 143.0625 136.15625 C 139.25 139.675781 136.714844 142.246094 141.855469 136.113281 C 133.664062 145.621094 126.652344 156.167969 121.617188 167.679688 C 116.597656 179.140625 113.648438 191.6875 113.992188 203.96875 C 113.535156 214.863281 115.097656 226.152344 119.144531 236.59375 C 123.128906 247.058594 129.496094 256.539062 137.28125 264.117188 C 144.914062 271.710938 154.453125 277.589844 163.195312 281.804688 C 172.28125 286.28125 181.441406 290.15625 191.328125 293 C 201.152344 295.78125 211.605469 297.652344 222.574219 296.589844 C 233.410156 295.675781 245.09375 290.839844 252.921875 281.746094 C 260.804688 272.777344 264.585938 261.449219 266.097656 250.707031 C 267.613281 239.84375 267.082031 229.15625 265.53125 218.851562 L 265.226562 220.949219 C 263.125 206.523438 258.699219 193.65625 252.90625 180.859375 C 246.964844 168.140625 239.796875 155.226562 229.035156 142.015625 C 220.492188 133.523438 208.191406 124.820312 195.980469 122.730469 C 183.761719 120.335938 173.738281 124.671875 170.425781 127.710938 C 158.90625 132.707031 152.457031 139.746094 146.640625 146.589844 C 140.917969 153.679688 135.871094 161.351562 129.484375 172.804688 C 131.84375 170.328125 128.925781 176 126.632812 181.132812 C 124.355469 186.199219 122.332031 191.003906 125.925781 185.316406 C 130.871094 178.199219 133.257812 174.433594 135.480469 170.925781 C 137.714844 167.464844 139.753906 164.160156 144.640625 159.15625 L 143.996094 159.15625 C 154.207031 146.625 166.746094 136.378906 179.269531 134.492188 C 191.582031 132.3125 204.019531 138.761719 214.277344 149.785156 C 224.527344 160.757812 232.492188 175.3125 237.976562 190.613281 C 243.398438 205.921875 246.558594 222.5 245.828125 237.804688 C 245.808594 247.945312 243.539062 257.84375 238.921875 264.09375 C 234.445312 270.292969 227.558594 273.414062 218.050781 273.496094 C 208.664062 273.554688 197.996094 270.660156 187.652344 266.464844 C 177.347656 262.125 166.425781 256.941406 158.78125 251.035156 C 150.164062 244.46875 143.457031 235.804688 139.933594 225.605469 C 136.332031 215.453125 135.925781 203.8125 138.332031 192.652344 C 143.050781 170.070312 158.300781 150.746094 174.933594 140.917969 C 182.914062 136.058594 189.78125 135.253906 197.296875 134.703125 C 202.125 133.828125 207.25 133.535156 212.554688 133.851562 L 211.496094 133.730469 C 227.09375 136.003906 243.082031 145.242188 254.621094 159.570312 C 266.234375 173.726562 273.269531 192.511719 273.46875 209.910156 L 273.507812 207.921875 C 273.867188 218.769531 271.320312 227.914062 267.171875 235.652344 C 262.90625 243.378906 257.035156 249.84375 248.84375 255.707031 C 249.15625 256.019531 246.578125 257.808594 245.328125 258.765625 C 244.824219 258.773438 242.875 259.820312 239.625 261.351562 C 237.796875 262.214844 236.558594 262.789062 233.789062 263.902344 L 231.765625 264.703125 L 231.640625 264.753906 L 231.574219 264.773438 C 230.730469 265.058594 232.683594 264.402344 232.476562 264.480469 L 232.453125 264.480469 L 232.253906 264.527344 L 231.859375 264.640625 L 231.0625 264.855469 C 229.984375 265.164062 228.828125 265.402344 227.605469 265.589844 C 222.753906 266.394531 216.703125 266.101562 210.109375 264.109375 C 203.527344 262.160156 196.519531 258.550781 189.964844 253.820312 C 176.75 244.363281 165.675781 230.652344 159.027344 218.984375 C 152.238281 207.277344 149.621094 197.835938 149.359375 195.871094 C 148.628906 193.628906 148.023438 191.277344 147.484375 188.859375 C 145.636719 177.980469 146.203125 166.855469 149.945312 157.703125 C 153.582031 148.484375 160.421875 141.582031 168.824219 136.894531 L 168.84375 136.890625 L 169.808594 136.210938 C 178.722656 129.960938 188.601562 128.03125 198.226562 129.632812 C 207.882812 131.183594 217.121094 135.988281 224.964844 141.96875 C 231.933594 146.074219 238.867188 152.621094 243.605469 157.984375 C 246.523438 164.277344 248.710938 164.5625 251.605469 172.375 C 253.367188 182.984375 252.628906 190.242188 252.382812 193.914062 C 251.996094 197.542969 252.734375 198.15625 253.976562 193.441406 C 253.679688 201.214844 250.753906 208.394531 245.832031 214.160156 C 240.960938 219.96875 234.3125 224.378906 227.484375 227.703125 C 224.28125 229.367188 221.136719 230.875 218.324219 231.726562 C 215.351562 232.664062 212.15625 233.222656 208.796875 233.402344 C 203.066406 233.753906 199.765625 232.410156 197.078125 230.894531 C 189.667969 229.5 187.105469 228.15625 184.582031 226.941406 C 182.082031 225.574219 179.414062 224.289062 172.472656 219.902344 C 171.144531 218.28125 162.117188 213.257812 154.523438 206.144531 C 146.703125 199.230469 141.363281 190.367188 140.832031 188.238281 L 142.082031 190.480469 C 138.183594 182.179688 138 174.824219 139.613281 168.785156 C 141.328125 162.707031 144.679688 157.496094 150.378906 151.496094 C 152.484375 149.378906 154.632812 147.605469 157.039062 145.765625 C 160.527344 143.175781 161.546875 142.511719 163.976562 141.414062 C 168.339844 139.460938 173.878906 138.636719 179.828125 138.816406 C 191.8125 139.207031 204.96875 143.363281 217.160156 149.191406 C 229.414062 155.070312 240.996094 162.726562 250.992188 171.457031 C 260.953125 180.148438 269.484375 190.164062 274.367188 200.113281 C 276.074219 199.734375 269.15625 191.636719 270.144531 190.058594 C 274.191406 195.835938 277.304688 202.089844 278.71875 207.941406 C 278.839844 208.613281 279.078125 209.492188 279.113281 209.953125 L 279.257812 210.785156 L 279.433594 212.328125 L 279.519531 216.90625 C 279.503906 220.410156 279.226562 223.796875 278.660156 226.960938 C 276.347656 239.960938 269.886719 247.609375 258.992188 251.535156 C 254.988281 252.703125 249.429688 252.78125 247.355469 252.464844 C 239.257812 252.394531 242.597656 253.511719 236.433594 253.164062 L 235.683594 251.738281 C 226.460938 252.027344 222.566406 248.457031 213.976562 246.542969 C 213.390625 246.933594 210.226562 246.039062 207.242188 244.859375 C 207.535156 243.539062 198.035156 241.207031 198.992188 240.085938 L 198.859375 240.152344 C 197.117188 239.320312 195.839844 238.800781 193.839844 237.496094 C 192.113281 236.917969 183.152344 233.429688 174.875 228.472656 C 166.503906 223.660156 159.273438 217.335938 157.902344 216.105469 L 156.964844 214.625 C 153.746094 210.714844 151.800781 209.5 153.296875 212.097656 C 152.078125 210.378906 150.914062 208.640625 149.886719 206.859375 L 150.335938 207.417969 C 149.273438 205.664062 148.304688 203.875 147.457031 202.066406 C 147.054688 201.011719 147.179688 199.609375 148.394531 200.832031 C 146.546875 198.09375 145.023438 194.699219 144.535156 191.570312 C 145.550781 200.308594 150.835938 211.777344 157.316406 220.722656 C 153.855469 217.820312 149.585938 210.945312 147.238281 206.976562 C 144.992188 201.703125 141.660156 191.09375 142.394531 183.332031 C 142.320312 181.675781 140.679688 180.371094 141.859375 176.472656 C 143.210938 174.789062 142.605469 172.039062 144.449219 169.117188 C 143.730469 172.910156 142.785156 176.335938 142.484375 180.078125 C 143.152344 179.785156 143.464844 177.597656 144.054688 175.152344 C 144.613281 172.722656 145.476562 170.003906 146.167969 168.683594 C 146.140625 167.199219 149.683594 160.632812 152.464844 156.433594 C 152.171875 158.933594 155.363281 153.667969 157.910156 151.90625 C 160.242188 149.476562 161.523438 147.546875 160.222656 148.234375 C 160.15625 147.324219 157.582031 149.6875 155.515625 151.824219 C 153.457031 153.945312 151.851562 155.847656 152.738281 153.472656 C 153.941406 152.863281 158.195312 147.507812 160.960938 144.875 C 160.496094 144.28125 158.761719 146.292969 160.023438 144.015625 C 161.605469 142.601562 163.128906 140.96875 164.550781 139.59375 C 165.878906 138.308594 167.242188 137.132812 168.597656 136.566406 C 168 137.292969 166.425781 138.40625 165.566406 139.125 C 167.742188 137.390625 162.542969 143.042969 158.539062 149.078125 C 154.484375 155.050781 152.078125 160.9375 153.6875 158.179688 C 152.921875 158.6875 156.035156 152.136719 160.800781 146.117188 C 163.132812 143.09375 165.6875 140.242188 167.375 138.371094 C 169.394531 136.28125 170.46875 135.117188 169.65625 135.742188 C 166.523438 137.789062 170.972656 132.984375 167.789062 135.199219 C 166.824219 136.351562 165.886719 137.488281 165.164062 138.507812 C 161.398438 141.359375 159.097656 141.882812 160.03125 140.277344 C 163.160156 137.558594 159.410156 142.414062 156.328125 147.476562 C 153.167969 152.550781 150.929688 157.765625 152.476562 154.929688 L 150.695312 156.839844 C 151.726562 154.28125 156.253906 148.164062 158.933594 146.675781 C 158.449219 146.128906 160.980469 143.167969 163.28125 140.800781 L 164.222656 140.125 C 166.273438 137.824219 170.6875 134.589844 168.179688 135.34375 C 160.324219 141.910156 161.871094 138.292969 163.214844 134.578125 C 164.871094 130.785156 166.503906 126.738281 158.425781 133.234375 C 166.027344 129.011719 156.964844 136.128906 151.101562 142.953125 C 150.175781 143.222656 146.789062 145.542969 142.710938 150.683594 C 139.699219 155.503906 141.410156 153.847656 141.148438 154.960938 C 139.167969 157.371094 136.476562 162.683594 136.058594 161.636719 C 135.3125 166.109375 132.898438 168.070312 132.203125 173.5 C 131.941406 178.242188 132.628906 173.261719 132.65625 176.621094 C 131.515625 183.554688 132.808594 193.46875 134.589844 198.828125 C 134.421875 201.117188 135.890625 208.074219 132.851562 203.925781 C 129.289062 193.230469 135.867188 207.257812 132.121094 196.332031 C 131.960938 198.988281 131.050781 196.589844 130.28125 193.167969 C 129.457031 189.753906 129.136719 185.34375 128.460938 184.285156 C 127.6875 188.132812 128.851562 196.066406 131.371094 202.027344 L 131.164062 200.71875 C 132.992188 206.160156 138.570312 215.800781 141.542969 221.125 C 140.210938 220.363281 141.375 222.835938 138.871094 219.523438 C 140.300781 221.695312 141.828125 223.796875 143.417969 225.839844 C 144.195312 226.464844 144.980469 227.101562 143.675781 225.292969 C 146.324219 227.800781 148.542969 230.628906 150.230469 232.902344 C 150.265625 233.457031 157.941406 240.226562 166.253906 245.242188 C 174.476562 250.40625 183.042969 254.039062 182.414062 253.960938 C 187.09375 256.433594 187.84375 257.957031 192.824219 259.472656 C 193.175781 259.34375 181.34375 254.785156 171.046875 248.511719 C 160.660156 242.441406 152.019531 234.804688 154.738281 237.230469 C 156.128906 239.207031 168.484375 248.8125 182.101562 255.113281 C 195.609375 261.761719 209.871094 265.199219 211.285156 266.226562 C 215.0625 267.257812 219.703125 268.140625 218.9375 267.246094 C 225.316406 268.921875 216.734375 268.160156 221.242188 269.753906 C 221.371094 269.667969 220.917969 269.339844 222.398438 269.648438 L 226.773438 271.261719 C 231.980469 271.484375 238.347656 272.105469 244.851562 271.828125 C 251.324219 271.589844 257.9375 270.363281 262.9375 267.867188 C 260.160156 269.566406 256.894531 272.015625 249.75 273.539062 L 248.464844 273.300781 C 247.46875 273.695312 241.574219 274.140625 241.730469 274.789062 C 248.585938 275.160156 254.675781 274.371094 261.636719 271.640625 C 262.992188 271.4375 264.585938 271.101562 265.664062 270.886719 C 265.605469 270.808594 265.472656 270.78125 265.472656 270.667969 C 267.917969 270.207031 267.691406 270.296875 266.949219 270.925781 C 266.855469 271.015625 266.742188 271.128906 266.507812 271.269531 C 268.910156 271.421875 275.84375 268.320312 282.011719 262.054688 C 288.339844 255.902344 292.621094 246.75 295 240.324219 C 295.859375 236.324219 294.886719 239.851562 295.707031 234.882812 C 297.527344 228.171875 298.140625 222.324219 298.316406 216.476562 C 298.339844 215.019531 298.371094 213.550781 298.316406 212.070312 L 298.292969 210.945312 C 298.265625 210.589844 298.332031 210.964844 298.230469 209.988281 L 298.179688 209.464844 C 298.097656 208.71875 298.085938 208.136719 297.9375 207.230469 C 297.421875 203.597656 296.636719 200.425781 295.40625 196.835938 C 292.835938 192.796875 292.46875 192.714844 293.707031 198.199219 C 292.535156 194.761719 291.085938 191.476562 289.457031 188.328125 C 292.707031 192.0625 290.960938 187.300781 288.773438 182.816406 C 286.617188 178.367188 284.144531 174.195312 288.207031 177.90625 C 286.84375 174.9375 282.988281 169.648438 278.734375 165.519531 C 277.902344 165.515625 276.714844 165.351562 271.546875 160.183594 C 264.660156 152.613281 266.257812 154.46875 260.257812 148.519531 C 259.15625 146.660156 261.742188 148.351562 261.824219 147.640625 C 250.992188 140.480469 253.769531 139.269531 243.320312 132.710938 C 236.753906 128.667969 222.964844 122.179688 222.074219 123.429688 C 212.574219 119.378906 212.734375 118.679688 214.089844 117.9375 "/>
<path fill-rule="nonzero" fill="#C0C0C0" fill-opacity="1" d="M 90.769531 549.839844 L 84.113281 549.839844 L 84.113281 525.4375 L 90.769531 525.4375 Z M 83.828125 519.128906 C 83.828125 516.960938 85.035156 515.875 87.453125 515.875 C 89.867188 515.875 91.074219 516.960938 91.074219 519.128906 C 91.074219 520.160156 90.773438 520.964844 90.171875 521.539062 C 89.566406 522.113281 88.660156 522.402344 87.453125 522.402344 C 85.035156 522.402344 83.828125 521.3125 83.828125 519.128906 M 80.292969 530.433594 L 74.53125 530.433594 L 74.53125 549.839844 L 67.871094 549.839844 L 67.871094 530.433594 L 64.207031 530.433594 L 64.207031 527.226562 L 67.871094 525.4375 L 67.871094 523.648438 C 67.871094 520.867188 68.558594 518.835938 69.925781 517.558594 C 71.292969 516.277344 73.484375 515.636719 76.496094 515.636719 C 78.792969 515.636719 80.839844 515.976562 82.628906 516.660156 L 80.925781 521.550781 C 79.585938 521.128906 78.351562 520.917969 77.214844 520.917969 C 76.269531 520.917969 75.585938 521.199219 75.164062 521.757812 C 74.742188 522.320312 74.53125 523.035156 74.53125 523.910156 L 74.53125 525.4375 L 80.292969 525.4375 Z M 80.292969 530.433594 "/>
<path fill-rule="nonzero" fill="#C0C0C0" fill-opacity="1" d="M 117.578125 549.839844 L 110.921875 549.839844 L 110.921875 535.585938 C 110.921875 533.824219 110.605469 532.503906 109.980469 531.625 C 109.355469 530.742188 108.359375 530.304688 106.992188 530.304688 C 105.128906 530.304688 103.78125 530.925781 102.953125 532.167969 C 102.125 533.414062 101.707031 535.476562 101.707031 538.359375 L 101.707031 549.839844 L 95.050781 549.839844 L 95.050781 525.4375 L 100.136719 525.4375 L 101.03125 528.558594 L 101.402344 528.558594 C 102.144531 527.378906 103.167969 526.488281 104.46875 525.882812 C 105.773438 525.28125 107.253906 524.976562 108.910156 524.976562 C 111.75 524.976562 113.902344 525.746094 115.371094 527.28125 C 116.84375 528.816406 117.578125 531.03125 117.578125 533.929688 Z M 117.578125 549.839844 "/>
<path fill-rule="nonzero" fill="#C0C0C0" fill-opacity="1" d="M 126.839844 533.425781 C 126.839844 534.75 127.144531 535.796875 127.746094 536.570312 C 128.351562 537.339844 129.273438 537.726562 130.507812 537.726562 C 131.757812 537.726562 132.675781 537.339844 133.257812 536.570312 C 133.839844 535.796875 134.132812 534.75 134.132812 533.425781 C 134.132812 530.488281 132.921875 529.015625 130.507812 529.015625 C 128.0625 529.015625 126.839844 530.488281 126.839844 533.425781 M 124.417969 553.289062 C 124.417969 554.207031 124.859375 554.925781 125.738281 555.449219 C 126.621094 555.972656 127.851562 556.234375 129.4375 556.234375 C 131.824219 556.234375 133.695312 555.910156 135.046875 555.253906 C 136.402344 554.597656 137.078125 553.703125 137.078125 552.570312 C 137.078125 551.652344 136.679688 551.019531 135.878906 550.667969 C 135.078125 550.320312 133.839844 550.144531 132.167969 550.144531 L 128.71875 550.144531 C 127.496094 550.144531 126.472656 550.433594 125.652344 551.007812 C 124.828125 551.582031 124.417969 552.34375 124.417969 553.289062 M 143.253906 525.4375 L 143.253906 528.820312 L 139.4375 529.800781 C 140.132812 530.894531 140.484375 532.117188 140.484375 533.46875 C 140.484375 536.089844 139.570312 538.128906 137.746094 539.589844 C 135.917969 541.054688 133.382812 541.785156 130.136719 541.785156 L 128.9375 541.71875 L 127.953125 541.609375 C 127.269531 542.132812 126.929688 542.714844 126.929688 543.355469 C 126.929688 544.316406 128.152344 544.796875 130.59375 544.796875 L 134.742188 544.796875 C 137.421875 544.796875 139.460938 545.371094 140.867188 546.523438 C 142.269531 547.671875 142.972656 549.359375 142.972656 551.585938 C 142.972656 554.4375 141.78125 556.652344 139.402344 558.222656 C 137.023438 559.792969 133.609375 560.578125 129.15625 560.578125 C 125.75 560.578125 123.148438 559.988281 121.351562 558.800781 C 119.554688 557.613281 118.65625 555.953125 118.65625 553.8125 C 118.65625 552.34375 119.113281 551.113281 120.03125 550.125 C 120.949219 549.132812 122.292969 548.429688 124.070312 548.007812 C 123.386719 547.714844 122.789062 547.238281 122.28125 546.578125 C 121.769531 545.914062 121.515625 545.210938 121.515625 544.46875 C 121.515625 543.539062 121.785156 542.765625 122.324219 542.144531 C 122.863281 541.527344 123.640625 540.921875 124.660156 540.324219 C 123.378906 539.769531 122.363281 538.882812 121.613281 537.660156 C 120.863281 536.4375 120.488281 534.996094 120.488281 533.339844 C 120.488281 530.675781 121.355469 528.617188 123.085938 527.160156 C 124.820312 525.707031 127.292969 524.976562 130.507812 524.976562 C 131.191406 524.976562 132.003906 525.039062 132.941406 525.164062 C 133.878906 525.289062 134.480469 525.378906 134.742188 525.4375 Z M 143.253906 525.4375 "/>
<path fill-rule="nonzero" fill="#C0C0C0" fill-opacity="1" d="M 159.789062 538.53125 L 157.214844 538.621094 C 155.28125 538.679688 153.839844 539.027344 152.894531 539.667969 C 151.945312 540.308594 151.476562 541.28125 151.476562 542.59375 C 151.476562 544.46875 152.550781 545.410156 154.703125 545.410156 C 156.246094 545.410156 157.480469 544.964844 158.40625 544.078125 C 159.328125 543.191406 159.789062 542.011719 159.789062 540.542969 Z M 161.753906 549.839844 L 160.46875 546.523438 L 160.292969 546.523438 C 159.171875 547.933594 158.019531 548.910156 156.832031 549.457031 C 155.648438 550.003906 154.101562 550.277344 152.195312 550.277344 C 149.851562 550.277344 148.007812 549.605469 146.660156 548.269531 C 145.316406 546.929688 144.644531 545.023438 144.644531 542.550781 C 144.644531 539.960938 145.546875 538.050781 147.359375 536.820312 C 149.171875 535.589844 151.902344 534.910156 155.554688 534.777344 L 159.789062 534.648438 L 159.789062 533.578125 C 159.789062 531.105469 158.523438 529.867188 155.992188 529.867188 C 154.042969 529.867188 151.75 530.457031 149.117188 531.636719 L 146.914062 527.140625 C 149.71875 525.667969 152.835938 524.933594 156.253906 524.933594 C 159.527344 524.933594 162.039062 525.648438 163.785156 527.074219 C 165.53125 528.5 166.40625 530.667969 166.40625 533.578125 L 166.40625 549.839844 Z M 161.753906 549.839844 "/>
<path fill-rule="nonzero" fill="#C0C0C0" fill-opacity="1" d="M 177.234375 549.839844 L 170.578125 549.839844 L 170.578125 515.875 L 177.234375 515.875 Z M 177.234375 549.839844 "/>
<path fill-rule="nonzero" fill="#C0C0C0" fill-opacity="1" d="M 182.472656 548.136719 C 182.472656 546.710938 183.054688 546 184.21875 546 C 185.414062 546 186.011719 546.710938 186.011719 548.136719 C 186.011719 549.5625 185.414062 550.277344 184.21875 550.277344 C 183.054688 550.277344 182.472656 549.5625 182.472656 548.136719 "/>
<path fill-rule="nonzero" fill="#C0C0C0" fill-opacity="1" d="M 193.019531 549.839844 L 190.859375 549.839844 L 190.859375 526.113281 L 193.019531 526.113281 Z M 190.554688 519.519531 C 190.554688 518.125 191.011719 517.425781 191.929688 517.425781 C 192.378906 517.425781 192.730469 517.609375 192.988281 517.972656 C 193.242188 518.335938 193.367188 518.851562 193.367188 519.519531 C 193.367188 520.175781 193.242188 520.691406 192.988281 521.070312 C 192.730469 521.449219 192.378906 521.636719 191.929688 521.636719 C 191.011719 521.636719 190.554688 520.933594 190.554688 519.519531 "/>
<path fill-rule="nonzero" fill="#C0C0C0" fill-opacity="1" d="M 208.035156 527.574219 C 205.753906 527.574219 203.917969 528.328125 202.535156 529.835938 C 201.152344 531.339844 200.347656 533.511719 200.113281 536.351562 L 214.78125 536.351562 C 214.78125 533.597656 214.183594 531.449219 212.992188 529.898438 C 211.800781 528.351562 210.148438 527.574219 208.035156 527.574219 M 208.667969 550.277344 C 205.222656 550.277344 202.53125 549.214844 200.605469 547.089844 C 198.675781 544.964844 197.710938 541.988281 197.710938 538.160156 C 197.710938 534.378906 198.644531 531.347656 200.507812 529.070312 C 202.367188 526.792969 204.878906 525.65625 208.035156 525.65625 C 210.832031 525.65625 213.035156 526.628906 214.652344 528.578125 C 216.265625 530.53125 217.074219 533.175781 217.074219 536.523438 L 217.074219 538.273438 L 199.984375 538.273438 C 200.011719 541.53125 200.773438 544.019531 202.265625 545.738281 C 203.753906 547.453125 205.890625 548.3125 208.667969 548.3125 C 210.023438 548.3125 211.214844 548.21875 212.238281 548.027344 C 213.265625 547.839844 214.5625 547.429688 216.136719 546.804688 L 216.136719 548.769531 C 214.796875 549.351562 213.558594 549.75 212.425781 549.960938 C 211.289062 550.171875 210.039062 550.277344 208.667969 550.277344 "/>
<path fill-rule="nonzero" fill="#C0C0C0" fill-opacity="1" d="M 319.453125 523.90625 C 321.152344 522.996094 322.355469 522.277344 323.078125 521.75 C 325.6875 520.121094 326.832031 518.359375 326.503906 516.464844 C 326.109375 515.15625 324.875 514.308594 322.785156 513.914062 L 322.878906 513.523438 L 329.050781 514.011719 C 329.382812 514.207031 329.578125 514.375 329.644531 514.5 C 330.816406 514.765625 331.925781 514.960938 332.96875 515.089844 C 336.824219 515.742188 338.78125 516.238281 338.847656 516.558594 C 338.914062 516.824219 338.78125 516.953125 338.460938 516.953125 C 333.882812 517.605469 331.402344 518.03125 331.011719 518.226562 C 329.253906 519.273438 327.90625 520.1875 326.996094 520.96875 C 325.167969 522.019531 322.65625 523.09375 319.453125 524.203125 Z M 320.726562 507.546875 C 320.726562 511.203125 321.574219 513.195312 323.273438 513.523438 L 323.078125 514.011719 C 321.835938 513.6875 320.234375 513.652344 318.277344 513.914062 L 317.492188 518.816406 L 317.296875 518.816406 C 313.507812 509.34375 307.238281 501.933594 298.492188 496.578125 L 298.492188 496.285156 C 298.816406 496.089844 299.273438 495.828125 299.863281 495.5 C 300.121094 495.304688 300.351562 495.105469 300.546875 494.914062 C 300.394531 493.605469 300.394531 492.5 300.546875 491.582031 C 300.742188 490.734375 301.589844 489.753906 303.097656 488.644531 L 300.453125 484.132812 C 299.402344 482.375 298.816406 481.394531 298.683594 481.199219 C 298.164062 480.085938 298.714844 479.273438 300.351562 478.746094 C 298.519531 476.398438 297.640625 474.898438 297.703125 474.242188 C 298.164062 473.851562 299.699219 474.566406 302.3125 476.398438 C 301.265625 474.046875 300.546875 472.644531 300.15625 472.1875 C 299.507812 471.402344 298.828125 470.34375 298.148438 469 C 297.460938 467.664062 297.183594 466.800781 297.316406 466.40625 C 297.964844 466.273438 300.933594 469.085938 306.226562 474.832031 C 305.445312 472.808594 304.789062 471.339844 304.269531 470.421875 C 303.675781 469.050781 303.042969 467.222656 302.359375 464.941406 C 301.671875 462.652344 301.425781 461.476562 301.625 461.410156 C 302.078125 461.277344 303.484375 463.207031 305.832031 467.191406 C 308.644531 472.023438 310.082031 474.410156 310.152344 474.339844 C 310.40625 474.148438 309.65625 471.996094 307.894531 467.886719 C 307.367188 466.78125 306.753906 465.121094 306.035156 462.902344 C 305.183594 460.359375 304.886719 459.023438 305.152344 458.894531 C 305.542969 458.628906 306.984375 460.714844 309.460938 465.148438 C 310.308594 466.90625 311.191406 468.703125 312.109375 470.527344 C 313.605469 473.398438 314.421875 474.800781 314.554688 474.730469 L 312.300781 468.460938 C 312.039062 467.8125 311.664062 466.257812 311.175781 463.808594 C 310.6875 461.363281 310.539062 460.074219 310.734375 459.945312 C 310.996094 459.808594 311.90625 461.25 313.480469 464.253906 C 314.324219 465.820312 316.320312 471.140625 319.453125 480.21875 C 319.320312 479.175781 319.195312 478.226562 319.058594 477.375 C 318.867188 476.199219 318.703125 474.996094 318.578125 473.753906 C 318.578125 472.90625 318.605469 472.089844 318.667969 471.304688 C 318.933594 471.367188 319.417969 472.464844 320.132812 474.585938 C 320.855469 476.707031 321.308594 478.359375 321.507812 479.53125 C 322.09375 482.867188 322.484375 485.933594 322.683594 488.738281 C 322.816406 489.652344 322.878906 490.667969 322.878906 491.773438 C 322.878906 495.105469 322.328125 498.992188 321.210938 503.433594 C 320.890625 504.804688 320.726562 506.179688 320.726562 507.546875 M 312.597656 526.238281 C 304.171875 528.132812 297.1875 529.277344 291.632812 529.667969 C 289.804688 529.933594 284.582031 531.5625 275.960938 534.5625 L 274.003906 531.621094 L 278.605469 529.957031 C 278.929688 528.851562 279.097656 528.199219 279.097656 528.003906 C 279.222656 527.480469 279.359375 526.863281 279.488281 526.140625 C 279.878906 525.945312 280.269531 525.71875 280.660156 525.453125 C 281.316406 525.066406 282.519531 524.707031 284.289062 524.378906 C 287.421875 523.59375 289.546875 523.171875 290.652344 523.105469 L 290.652344 522.8125 C 289.152344 522.292969 288.269531 521.867188 288.007812 521.539062 C 287.617188 521.019531 287.679688 520.527344 288.203125 520.070312 L 288.203125 519.875 C 286.703125 519.742188 285.789062 519.351562 285.464844 518.699219 C 285.132812 517.917969 285.363281 517.328125 286.148438 516.9375 L 286.148438 516.644531 C 283.273438 516.125 281.835938 515.242188 281.835938 514 C 281.835938 513.414062 282.164062 512.992188 282.816406 512.730469 L 282.816406 512.433594 C 280.203125 511.652344 278.898438 510.574219 278.898438 509.203125 C 278.898438 508.617188 279.257812 508.160156 279.976562 507.832031 L 279.878906 507.539062 C 277.328125 507.015625 276.054688 506.265625 276.054688 505.285156 C 276.054688 504.761719 276.414062 504.308594 277.136719 503.917969 L 277.136719 503.71875 C 271.195312 503.523438 268.058594 503.066406 267.730469 502.351562 C 267.40625 501.371094 268.15625 500.589844 269.988281 500.003906 L 269.988281 499.707031 C 265.871094 499.902344 263.453125 499.640625 262.738281 498.921875 C 262.601562 498.140625 264.296875 497.359375 267.832031 496.570312 L 267.921875 496.183594 C 264.53125 496.183594 262.117188 496.082031 260.679688 495.886719 C 257.542969 495.367188 255.976562 494.746094 255.976562 494.027344 C 255.910156 493.640625 256.65625 493.441406 258.230469 493.441406 C 261.105469 493.441406 262.703125 493.410156 263.03125 493.34375 C 265.246094 493.210938 267.113281 493.050781 268.613281 492.855469 L 268.710938 492.460938 C 265.441406 492.070312 263.226562 491.742188 262.050781 491.480469 C 257.609375 490.308594 255.386719 489.292969 255.386719 488.449219 C 255.386719 487.859375 258.164062 488.054688 263.714844 489.03125 C 266.457031 489.492188 268.515625 489.652344 269.890625 489.527344 L 269.988281 489.230469 L 264.597656 487.761719 C 262.046875 487.042969 260.613281 486.621094 260.289062 486.488281 C 256.433594 485.445312 254.636719 484.59375 254.894531 483.941406 C 255.027344 483.679688 255.515625 483.546875 256.371094 483.546875 C 256.753906 483.546875 259.148438 483.976562 263.519531 484.824219 C 265.734375 485.28125 267.792969 485.703125 269.691406 486.097656 C 270.605469 486.292969 271.71875 486.390625 273.019531 486.390625 L 273.117188 486.097656 C 268.679688 484.726562 266.128906 483.875 265.476562 483.546875 C 264.238281 483.027344 262.964844 482.472656 261.660156 481.886719 C 260.351562 481.292969 259.761719 480.808594 259.894531 480.414062 C 260.023438 480.222656 260.320312 480.117188 260.777344 480.117188 C 260.839844 480.117188 263.125 480.640625 267.632812 481.6875 C 270.832031 482.792969 273.609375 483.78125 275.960938 484.628906 C 277.003906 485.019531 278.375 485.410156 280.074219 485.800781 L 280.074219 485.703125 C 275.234375 482.898438 272.890625 481.394531 273.019531 481.199219 C 273.085938 480.9375 274.164062 481.167969 276.253906 481.878906 C 277.945312 482.535156 279.125 483.023438 279.78125 483.351562 C 284.21875 485.574219 287.914062 487.792969 290.847656 490.011719 C 292.808594 491.582031 294.636719 493.242188 296.332031 495.011719 L 296.039062 495.203125 L 287.714844 491.777344 C 285.230469 490.796875 282.523438 490.308594 279.585938 490.308594 C 278.539062 490.308594 277.890625 490.46875 277.625 490.796875 C 277.5625 491.648438 281.34375 492.984375 288.988281 494.8125 L 289.082031 495.203125 C 283.792969 494.03125 279.90625 493.445312 277.429688 493.445312 C 276.125 493.445312 275.339844 493.605469 275.074219 493.933594 C 275.46875 494.714844 279.617188 495.828125 287.519531 497.265625 L 287.519531 497.457031 C 283.402344 496.9375 280.234375 496.675781 278.019531 496.675781 C 275.996094 496.675781 274.878906 496.871094 274.683594 497.257812 C 275.273438 498.242188 279.710938 499.222656 288.007812 500.199219 L 288.007812 500.496094 C 285.660156 500.296875 283.699219 500.199219 282.132812 500.199219 C 279.453125 500.199219 278.046875 500.398438 277.921875 500.789062 C 278.769531 502.160156 282.589844 503.070312 289.378906 503.53125 L 289.476562 503.824219 C 285.949219 504.476562 284.21875 504.933594 284.289062 505.195312 C 285.007812 506.042969 287.453125 506.695312 291.632812 507.152344 L 291.730469 507.347656 C 288.070312 507.9375 286.3125 508.648438 286.441406 509.5 C 287.226562 510.285156 289.933594 510.808594 294.570312 511.070312 L 294.667969 511.359375 C 292.253906 511.882812 290.582031 512.4375 289.671875 513.023438 C 289.28125 513.21875 289.082031 513.453125 289.082031 513.710938 C 289.671875 514.496094 292.480469 514.984375 297.511719 515.179688 L 297.511719 515.472656 C 294.898438 515.796875 293.105469 516.222656 292.121094 516.742188 C 291.667969 516.945312 291.441406 517.167969 291.441406 517.429688 C 291.890625 518.34375 294.570312 518.835938 299.46875 518.894531 L 299.46875 519.089844 C 297.574219 519.484375 296.269531 519.972656 295.550781 520.5625 C 295.289062 520.757812 295.160156 520.988281 295.160156 521.246094 C 295.484375 522.816406 298.492188 524.15625 304.171875 525.265625 C 308.152344 525.980469 310.867188 526.238281 312.300781 526.042969 Z M 312.597656 526.238281 "/>
<path fill-rule="nonzero" fill="#C0C0C0" fill-opacity="1" d="M 347.46875 552.84375 L 347.46875 553.234375 C 347.398438 553.300781 347.335938 553.335938 347.269531 553.335938 C 341.394531 552.941406 335.417969 552.746094 329.347656 552.746094 C 303.414062 552.746094 278.175781 555.882812 253.625 562.152344 C 253.554688 562.152344 253.492188 562.085938 253.425781 561.957031 L 253.425781 561.855469 L 253.527344 561.757812 C 272.722656 553.851562 293.816406 549.898438 316.804688 549.898438 C 327.578125 549.898438 337.769531 550.847656 347.363281 552.746094 C 347.429688 552.746094 347.46875 552.777344 347.46875 552.84375 "/>
<path fill-rule="nonzero" fill="#C0C0C0" fill-opacity="1" d="M 73.03125 482.261719 C 71.035156 482.261719 69.429688 482.917969 68.222656 484.234375 C 67.011719 485.554688 66.308594 487.453125 66.105469 489.933594 L 78.929688 489.933594 C 78.929688 487.527344 78.410156 485.648438 77.367188 484.292969 C 76.320312 482.9375 74.878906 482.261719 73.03125 482.261719 M 73.585938 502.109375 C 70.570312 502.109375 68.21875 501.183594 66.535156 499.324219 C 64.847656 497.464844 64.003906 494.863281 64.003906 491.519531 C 64.003906 488.210938 64.820312 485.558594 66.449219 483.570312 C 68.078125 481.578125 70.269531 480.582031 73.03125 480.582031 C 75.476562 480.582031 77.402344 481.433594 78.816406 483.140625 C 80.226562 484.84375 80.933594 487.160156 80.933594 490.085938 L 80.933594 491.613281 L 65.988281 491.613281 C 66.015625 494.464844 66.679688 496.640625 67.984375 498.140625 C 69.289062 499.640625 71.15625 500.394531 73.585938 500.394531 C 74.769531 500.394531 75.808594 500.3125 76.707031 500.144531 C 77.601562 499.980469 78.738281 499.625 80.113281 499.078125 L 80.113281 500.792969 C 78.941406 501.304688 77.863281 501.648438 76.867188 501.832031 C 75.875 502.019531 74.78125 502.109375 73.585938 502.109375 "/>
<path fill-rule="nonzero" fill="#C0C0C0" fill-opacity="1" d="M 91.203125 501.730469 L 83.1875 480.980469 L 85.132812 480.980469 L 90.496094 495.085938 C 91.207031 496.894531 91.742188 498.472656 92.101562 499.820312 L 92.214844 499.820312 C 92.734375 498.089844 93.269531 496.5 93.816406 495.050781 L 99.179688 480.980469 L 101.128906 480.980469 L 93.113281 501.730469 Z M 91.203125 501.730469 "/>
<path fill-rule="nonzero" fill="#C0C0C0" fill-opacity="1" d="M 112.425781 482.261719 C 110.429688 482.261719 108.824219 482.917969 107.617188 484.234375 C 106.40625 485.554688 105.703125 487.453125 105.5 489.933594 L 118.324219 489.933594 C 118.324219 487.527344 117.804688 485.648438 116.761719 484.292969 C 115.714844 482.9375 114.273438 482.261719 112.425781 482.261719 M 112.980469 502.109375 C 109.964844 502.109375 107.613281 501.183594 105.929688 499.324219 C 104.242188 497.464844 103.398438 494.863281 103.398438 491.519531 C 103.398438 488.210938 104.214844 485.558594 105.84375 483.570312 C 107.472656 481.578125 109.664062 480.582031 112.425781 480.582031 C 114.871094 480.582031 116.796875 481.433594 118.210938 483.140625 C 119.621094 484.84375 120.328125 487.160156 120.328125 490.085938 L 120.328125 491.613281 L 105.382812 491.613281 C 105.410156 494.464844 106.074219 496.640625 107.378906 498.140625 C 108.683594 499.640625 110.550781 500.394531 112.980469 500.394531 C 114.164062 500.394531 115.203125 500.3125 116.101562 500.144531 C 116.996094 499.980469 118.132812 499.625 119.507812 499.078125 L 119.507812 500.792969 C 118.335938 501.304688 117.257812 501.648438 116.261719 501.832031 C 115.269531 502.019531 114.175781 502.109375 112.980469 502.109375 "/>
<path fill-rule="nonzero" fill="#C0C0C0" fill-opacity="1" d="M 140.523438 501.730469 L 140.523438 488.273438 C 140.523438 486.1875 140.082031 484.667969 139.207031 483.722656 C 138.328125 482.773438 136.964844 482.300781 135.121094 482.300781 C 132.640625 482.300781 130.824219 482.925781 129.671875 484.179688 C 128.519531 485.433594 127.945312 487.464844 127.945312 490.277344 L 127.945312 501.730469 L 126.054688 501.730469 L 126.054688 480.980469 L 127.660156 480.980469 L 128.019531 483.824219 L 128.136719 483.824219 C 129.484375 481.660156 131.882812 480.582031 135.332031 480.582031 C 140.039062 480.582031 142.390625 483.105469 142.390625 488.160156 L 142.390625 501.730469 Z M 140.523438 501.730469 "/>
<path fill-rule="nonzero" fill="#C0C0C0" fill-opacity="1" d="M 154.589844 500.429688 C 155.785156 500.429688 156.828125 500.328125 157.71875 500.125 L 157.71875 501.652344 C 156.804688 501.957031 155.746094 502.109375 154.550781 502.109375 C 152.71875 502.109375 151.367188 501.621094 150.496094 500.640625 C 149.625 499.660156 149.1875 498.121094 149.1875 496.023438 L 149.1875 482.625 L 146.113281 482.625 L 146.113281 481.515625 L 149.1875 480.65625 L 150.140625 475.960938 L 151.113281 475.960938 L 151.113281 480.980469 L 157.203125 480.980469 L 157.203125 482.625 L 151.113281 482.625 L 151.113281 495.753906 C 151.113281 497.34375 151.394531 498.523438 151.957031 499.285156 C 152.515625 500.050781 153.394531 500.429688 154.589844 500.429688 "/>
<path fill-rule="nonzero" fill="#C0C0C0" fill-opacity="1" d="M 175.070312 496.328125 C 175.070312 498.183594 174.363281 499.613281 172.949219 500.613281 C 171.539062 501.613281 169.535156 502.109375 166.9375 502.109375 C 164.164062 502.109375 161.964844 501.683594 160.332031 500.832031 L 160.332031 498.789062 C 162.421875 499.832031 164.621094 500.355469 166.9375 500.355469 C 168.988281 500.355469 170.542969 500.015625 171.605469 499.335938 C 172.667969 498.652344 173.199219 497.746094 173.199219 496.613281 C 173.199219 495.570312 172.777344 494.691406 171.929688 493.980469 C 171.082031 493.265625 169.691406 492.566406 167.757812 491.878906 C 165.683594 491.128906 164.226562 490.484375 163.386719 489.941406 C 162.546875 489.402344 161.914062 488.792969 161.488281 488.109375 C 161.0625 487.429688 160.851562 486.601562 160.851562 485.621094 C 160.851562 484.066406 161.5 482.839844 162.804688 481.9375 C 164.109375 481.03125 165.933594 480.582031 168.273438 480.582031 C 170.515625 480.582031 172.636719 481 174.648438 481.839844 L 173.941406 483.558594 C 171.90625 482.71875 170.015625 482.300781 168.273438 482.300781 C 166.582031 482.300781 165.238281 482.578125 164.246094 483.140625 C 163.253906 483.699219 162.757812 484.476562 162.757812 485.46875 C 162.757812 486.550781 163.144531 487.414062 163.914062 488.0625 C 164.683594 488.710938 166.1875 489.4375 168.425781 490.238281 C 170.296875 490.914062 171.660156 491.519531 172.511719 492.0625 C 173.363281 492.601562 174.003906 493.214844 174.429688 493.902344 C 174.855469 494.589844 175.070312 495.398438 175.070312 496.328125 "/>
<path fill-rule="nonzero" fill="#C0C0C0" fill-opacity="1" d="M 192.457031 501.730469 L 190.566406 501.730469 L 190.566406 480.980469 L 192.457031 480.980469 Z M 190.300781 475.21875 C 190.300781 473.996094 190.699219 473.386719 191.503906 473.386719 C 191.898438 473.386719 192.203125 473.546875 192.429688 473.863281 C 192.652344 474.179688 192.761719 474.632812 192.761719 475.21875 C 192.761719 475.789062 192.652344 476.242188 192.429688 476.574219 C 192.203125 476.902344 191.898438 477.070312 191.503906 477.070312 C 190.699219 477.070312 190.300781 476.453125 190.300781 475.21875 "/>
<path fill-rule="nonzero" fill="#C0C0C0" fill-opacity="1" d="M 213.871094 501.730469 L 213.871094 488.273438 C 213.871094 486.1875 213.433594 484.667969 212.554688 483.722656 C 211.675781 482.773438 210.316406 482.300781 208.472656 482.300781 C 205.988281 482.300781 204.171875 482.925781 203.019531 484.179688 C 201.871094 485.433594 201.292969 487.464844 201.292969 490.277344 L 201.292969 501.730469 L 199.402344 501.730469 L 199.402344 480.980469 L 201.007812 480.980469 L 201.371094 483.824219 L 201.484375 483.824219 C 202.832031 481.660156 205.230469 480.582031 208.679688 480.582031 C 213.386719 480.582031 215.742188 483.105469 215.742188 488.160156 L 215.742188 501.730469 Z M 213.871094 501.730469 "/>
</svg>
