<?xml version="1.0" encoding="UTF-8"?>
<svg data-original-cmyk-pdf="/home/runner/workspace/uploads/original_889f568865668606303e79ce5e732388.pdf" data-cmyk-preserved="true" xmlns="http://www.w3.org/2000/svg" xmlns:xlink="http://www.w3.org/1999/xlink" width="738" height="278" viewBox="0 0 738 278">
<path fill-rule="nonzero" fill="rgb(73.873901%, 73.365784%, 74.282837%)" fill-opacity="1" d="M 372.664062 99.726562 L 261.304688 99.726562 L 189.410156 32.683594 L 300.773438 32.683594 Z M 372.664062 99.726562 "/>
<path fill-rule="nonzero" fill="rgb(36.289978%, 67.503357%, 89.076233%)" fill-opacity="1" d="M 508.664062 99.726562 L 397.304688 99.726562 L 325.410156 32.683594 L 436.773438 32.683594 Z M 508.664062 99.726562 "/>
<path fill-rule="nonzero" fill="rgb(73.873901%, 73.365784%, 74.282837%)" fill-opacity="1" d="M 372.664062 178.679688 L 261.304688 178.679688 L 189.410156 245.726562 L 300.773438 245.726562 Z M 372.664062 178.679688 "/>
<path fill-rule="nonzero" fill="rgb(36.289978%, 67.503357%, 89.076233%)" fill-opacity="1" d="M 508.664062 178.679688 L 397.304688 178.679688 L 325.410156 245.726562 L 436.773438 245.726562 Z M 508.664062 178.679688 "/>
<path fill-rule="nonzero" fill="rgb(13.729858%, 12.159729%, 12.548828%)" fill-opacity="1" d="M 83.429688 154.171875 C 83.039062 155.804688 82.726562 157.296875 82.570312 159.921875 C 76.761719 163.046875 70.015625 164.539062 63.109375 164.539062 C 44.90625 164.539062 34.316406 153.746094 34.316406 139.121094 C 34.316406 125.417969 43.730469 114.058594 64.367188 114.058594 C 73.859375 114.058594 80.214844 116.398438 83.746094 117.820312 C 82.570312 120.730469 82.253906 121.652344 81.863281 124.917969 L 81.078125 124.917969 C 78.960938 120.871094 72.054688 117.109375 64.050781 117.109375 C 51.65625 117.109375 43.417969 125.347656 43.417969 139.050781 C 43.417969 153.816406 53.539062 161.128906 64.679688 161.128906 C 68.210938 161.128906 76.371094 160.417969 82.492188 153.816406 Z M 83.429688 154.171875 "/>
<path fill-rule="nonzero" fill="rgb(13.729858%, 12.159729%, 12.548828%)" fill-opacity="1" d="M 111.121094 134.078125 C 116.222656 131.238281 118.339844 126.980469 118.339844 123.714844 C 118.339844 120.730469 116.300781 117.890625 112.300781 117.890625 C 108.375 117.890625 105.789062 120.445312 105.789062 124.210938 C 105.789062 127.476562 107.671875 130.03125 111.121094 134.078125 M 110.808594 160.5625 C 115.910156 160.5625 119.125 158.148438 122.109375 155.804688 C 118.027344 152.042969 109.554688 143.097656 106.335938 139.191406 C 103.746094 140.539062 98.648438 143.449219 98.648438 149.558594 C 98.648438 156.585938 105.238281 160.5625 110.808594 160.5625 M 134.738281 136.5625 C 135.601562 137.699219 137.09375 139.261719 138.582031 139.972656 C 135.367188 145.792969 131.050781 150.90625 129.011719 152.964844 C 130.894531 154.953125 134.503906 158.785156 139.367188 162.691406 L 139.367188 163.683594 C 137.800781 163.261719 136.386719 163.261719 134.738281 163.261719 C 133.5625 163.261719 131.445312 163.261719 129.640625 163.683594 C 127.050781 160.703125 125.011719 158.785156 123.914062 157.792969 C 121.085938 160.347656 116.144531 164.609375 107.042969 164.609375 C 97.078125 164.609375 91.507812 159.210938 91.507812 152.042969 C 91.507812 145.792969 95.195312 141.890625 104.925781 137.488281 C 100.53125 132.304688 99.902344 128.96875 99.902344 126.695312 C 99.902344 122.007812 102.960938 115.476562 112.300781 115.476562 C 119.910156 115.476562 122.96875 119.3125 122.96875 123.714844 C 122.96875 129.25 118.65625 132.019531 112.691406 135.925781 C 117.085938 140.824219 123.128906 147.570312 126.738281 150.90625 C 129.246094 148.847656 133.484375 142.386719 134.113281 136.707031 Z M 134.738281 136.5625 "/>
<path fill-rule="nonzero" fill="rgb(13.729858%, 12.159729%, 12.548828%)" fill-opacity="1" d="M 176.554688 123.570312 C 175.535156 120.871094 172.867188 116.96875 165.648438 116.96875 C 157.097656 116.96875 155.605469 122.648438 155.605469 125.132812 C 155.605469 130.742188 160.78125 132.660156 164.785156 134.078125 C 173.335938 137.0625 174.828125 137.558594 177.574219 139.617188 C 181.183594 142.242188 181.96875 146.007812 181.96875 148.703125 C 181.96875 156.089844 176.238281 164.539062 162.273438 164.539062 C 157.097656 164.539062 152.074219 163.402344 147.996094 160.632812 C 149.171875 157.011719 149.328125 154.882812 149.40625 153.957031 L 150.425781 153.957031 C 152.703125 158.21875 157.332031 161.34375 163.527344 161.34375 C 171.769531 161.34375 175.140625 156.445312 175.140625 151.898438 C 175.140625 146.148438 170.667969 144.019531 165.414062 142.101562 C 156.230469 138.621094 155.210938 138.269531 153.09375 136.5625 C 150.425781 134.574219 149.171875 131.027344 149.171875 127.761719 C 149.171875 118.601562 157.332031 113.988281 166.589844 113.988281 C 172.710938 113.988281 178.046875 116.117188 179.929688 117.25 C 179.300781 118.316406 177.886719 121.15625 177.652344 123.570312 Z M 176.554688 123.570312 "/>
<path fill-rule="nonzero" fill="rgb(36.289978%, 67.503357%, 89.076233%)" fill-opacity="1" d="M 226.765625 117.679688 C 224.488281 117.679688 222.839844 117.890625 221.820312 118.03125 C 221.664062 121.226562 221.664062 124.496094 221.664062 127.6875 C 221.664062 130.957031 221.742188 135.925781 221.742188 137.417969 C 223.234375 137.558594 224.019531 137.558594 225.902344 137.488281 C 229.433594 137.34375 240.261719 136.917969 240.261719 127.050781 C 240.261719 118.742188 232.492188 117.679688 226.765625 117.679688 M 253.285156 163.683594 C 251.636719 163.472656 250.382812 163.261719 248.65625 163.261719 C 247.007812 163.261719 245.203125 163.472656 243.007812 163.683594 C 235.550781 153.035156 229.824219 146.363281 223.78125 139.902344 L 221.742188 139.902344 C 221.742188 144.941406 221.664062 152.324219 222.292969 163.683594 C 220.957031 163.402344 219.152344 163.261719 217.742188 163.261719 C 215.625 163.261719 214.761719 163.472656 213.582031 163.683594 C 213.976562 155.308594 214.132812 146.859375 214.132812 136.492188 C 214.132812 129.890625 213.898438 122.507812 213.660156 114.554688 C 216.644531 114.839844 218.839844 114.839844 220.488281 114.839844 C 221.898438 114.839844 228.332031 114.765625 229.589844 114.765625 C 238.925781 114.765625 241.828125 115.832031 244.417969 117.75 C 247.398438 119.949219 248.417969 122.859375 248.417969 126.269531 C 248.417969 136.421875 237.828125 138.195312 233.042969 138.976562 C 235.945312 143.023438 252.34375 161.625 253.285156 162.832031 Z M 253.285156 163.683594 "/>
<path fill-rule="nonzero" fill="rgb(36.289978%, 67.503357%, 89.076233%)" fill-opacity="1" d="M 287.96875 161.699219 C 300.363281 161.699219 309.152344 153.53125 309.152344 138.976562 C 309.152344 135.285156 308.445312 129.535156 305.699219 125.347656 C 301.460938 118.886719 293.539062 116.96875 288.203125 116.96875 C 277.769531 116.96875 267.253906 123.359375 267.253906 139.402344 C 267.253906 153.25 275.886719 161.699219 287.96875 161.699219 M 318.097656 138.621094 C 318.097656 153.460938 306.484375 164.75 287.8125 164.75 C 270.707031 164.75 258.308594 155.238281 258.308594 139.476562 C 258.308594 124.351562 269.371094 113.914062 288.59375 113.914062 C 304.992188 113.914062 318.097656 122.648438 318.097656 138.621094 "/>
<path fill-rule="nonzero" fill="rgb(36.289978%, 67.503357%, 89.076233%)" fill-opacity="1" d="M 357.714844 161.699219 C 370.109375 161.699219 378.898438 153.53125 378.898438 138.976562 C 378.898438 135.285156 378.191406 129.535156 375.445312 125.347656 C 371.207031 118.886719 363.285156 116.96875 357.949219 116.96875 C 347.515625 116.96875 337 123.359375 337 139.402344 C 337 153.25 345.632812 161.699219 357.714844 161.699219 M 387.84375 138.621094 C 387.84375 153.460938 376.230469 164.75 357.558594 164.75 C 340.453125 164.75 328.054688 155.238281 328.054688 139.476562 C 328.054688 124.351562 339.117188 113.914062 358.339844 113.914062 C 374.738281 113.914062 387.84375 122.648438 387.84375 138.621094 "/>
<path fill-rule="nonzero" fill="rgb(36.289978%, 67.503357%, 89.076233%)" fill-opacity="1" d="M 407.453125 149.414062 C 407.375 156.445312 407.6875 159.425781 408.082031 163.6875 C 406.824219 163.472656 405.644531 163.257812 403.453125 163.257812 C 401.332031 163.257812 400.390625 163.472656 399.136719 163.6875 C 399.683594 156.445312 400 148.847656 400 139.617188 C 400 132.730469 399.761719 121.441406 399.371094 114.625 C 403.761719 115.050781 406.117188 115.050781 412.003906 115.050781 C 422.515625 115.050781 425.261719 114.910156 428.167969 114.625 C 428.007812 115.40625 427.851562 116.042969 427.851562 117.109375 C 427.851562 118.175781 428.007812 118.8125 428.167969 119.523438 C 424.792969 119.097656 419.0625 118.53125 412.632812 118.53125 C 411.058594 118.53125 409.414062 118.53125 407.609375 118.601562 C 407.453125 121.441406 407.453125 122.648438 407.453125 126.835938 C 407.453125 131.453125 407.453125 132.304688 407.53125 136.066406 C 413.964844 136.136719 421.496094 136.066406 426.515625 135.5 C 426.359375 136.28125 426.203125 136.917969 426.203125 137.984375 C 426.203125 138.976562 426.359375 139.546875 426.515625 140.253906 C 421.96875 139.617188 417.023438 139.476562 413.726562 139.476562 C 411.453125 139.476562 409.492188 139.546875 407.53125 139.617188 Z M 407.453125 149.414062 "/>
<path fill-rule="nonzero" fill="rgb(36.289978%, 67.503357%, 89.076233%)" fill-opacity="1" d="M 440.71875 114.554688 C 441.972656 114.839844 442.914062 114.980469 445.03125 114.980469 C 447.230469 114.980469 448.246094 114.839844 449.582031 114.554688 C 449.113281 123.003906 448.953125 131.453125 448.953125 139.902344 C 448.953125 152.679688 449.269531 158.359375 449.503906 163.683594 C 448.015625 163.472656 446.363281 163.261719 444.640625 163.261719 C 442.914062 163.261719 441.738281 163.472656 440.480469 163.683594 C 441.03125 155.945312 441.265625 152.324219 441.265625 138.410156 C 441.265625 128.1875 441.265625 127.546875 440.71875 114.554688 "/>
<path fill-rule="nonzero" fill="rgb(36.289978%, 67.503357%, 89.076233%)" fill-opacity="1" d="M 469.824219 131.453125 C 470.058594 148.632812 470.375 152.679688 471.078125 163.683594 C 470.136719 163.472656 469.195312 163.261719 467.785156 163.261719 C 466.371094 163.261719 465.664062 163.472656 464.722656 163.683594 C 465.117188 160.136719 465.742188 147.925781 465.742188 140.539062 C 465.742188 137.699219 465.507812 125.347656 465.507812 122.789062 L 465.507812 114.269531 C 465.976562 114.339844 466.371094 114.410156 466.761719 114.410156 C 467.234375 114.410156 467.707031 114.339844 468.410156 114.269531 L 471 117.039062 C 473.121094 119.238281 475.003906 121.15625 479.789062 125.699219 C 495.480469 140.679688 497.207031 142.386719 507.171875 151.546875 L 507.171875 148.917969 C 507.171875 130.8125 507.171875 124.566406 506.148438 114.269531 C 507.011719 114.484375 507.957031 114.695312 509.210938 114.695312 C 510.464844 114.695312 511.5625 114.484375 512.585938 114.269531 C 511.25 124.492188 511.25 134.789062 511.25 145.011719 C 511.25 150.550781 511.25 159.070312 511.5625 164.109375 C 510.933594 164.039062 510.546875 163.96875 510.074219 163.96875 C 509.679688 163.96875 509.367188 164.039062 508.816406 164.109375 C 506.386719 161.414062 494.617188 149.554688 489.125 144.941406 C 487.792969 143.804688 486.457031 142.597656 485.125 141.390625 L 469.824219 126.980469 Z M 469.824219 131.453125 "/>
<path fill-rule="nonzero" fill="rgb(36.289978%, 67.503357%, 89.076233%)" fill-opacity="1" d="M 570.71875 125.417969 C 568.835938 122.71875 564.753906 117.039062 553.222656 117.039062 C 541.769531 117.039062 531.648438 124.210938 531.648438 138.90625 C 531.648438 153.816406 542.550781 161.414062 554.085938 161.414062 C 555.183594 161.414062 561.382812 161.414062 566.011719 158.714844 C 566.167969 147.425781 566.167969 146.148438 565.617188 141.535156 C 566.953125 141.816406 568.128906 141.960938 570.246094 141.960938 C 572.207031 141.960938 573.230469 141.746094 574.40625 141.535156 C 574.015625 145.722656 573.621094 150.054688 573.621094 155.449219 C 573.621094 157.152344 573.621094 159.070312 573.859375 160.632812 C 566.5625 162.90625 560.753906 164.609375 552.042969 164.609375 C 534.625 164.609375 522.699219 154.3125 522.699219 139.050781 C 522.699219 125.628906 532.273438 113.984375 553.066406 113.984375 C 560.441406 113.984375 568.757812 115.617188 574.25 118.175781 C 572.523438 121.511719 571.898438 124.066406 571.582031 125.417969 Z M 570.71875 125.417969 "/>
<path fill-rule="nonzero" fill="rgb(13.729858%, 12.159729%, 12.548828%)" fill-opacity="1" d="M 615.09375 160.980469 C 617.742188 160.980469 622.105469 160.792969 624.492188 160.417969 C 624.390625 160.839844 624.285156 161.308594 624.285156 161.96875 C 624.285156 162.71875 624.390625 163.1875 624.492188 163.566406 C 621.117188 163.472656 618.9375 163.285156 613.277344 163.285156 C 608.703125 163.285156 607.402344 163.425781 604.601562 163.566406 C 605.015625 157.550781 605.070312 152.566406 605.070312 146.410156 C 605.070312 140.019531 604.753906 133.0625 604.652344 131.042969 C 605.484375 131.183594 606.15625 131.324219 607.457031 131.324219 C 608.808594 131.324219 609.792969 131.183594 610.730469 131.042969 C 610.261719 143.074219 610.261719 146.269531 610.261719 160.886719 C 612.753906 160.980469 613.792969 160.980469 615.09375 160.980469 "/>
<path fill-rule="nonzero" fill="rgb(13.729858%, 12.159729%, 12.548828%)" fill-opacity="1" d="M 633.019531 133.675781 C 627.566406 133.722656 623.773438 133.910156 621.488281 134.332031 C 621.589844 133.816406 621.695312 133.394531 621.695312 132.6875 C 621.695312 131.9375 621.589844 131.511719 621.488281 131.042969 C 624.707031 131.324219 631.355469 131.324219 635.457031 131.324219 C 640.546875 131.324219 646.054688 131.324219 649.378906 131.042969 C 649.277344 131.464844 649.171875 131.984375 649.171875 132.6875 C 649.171875 133.394531 649.277344 133.816406 649.378906 134.332031 C 647.769531 134.050781 644.546875 133.722656 638.316406 133.675781 C 638.261719 136.917969 638.210938 140.207031 638.210938 143.40625 C 638.210938 149.089844 638.003906 156.46875 638.578125 163.566406 C 636.8125 163.332031 635.667969 163.285156 635.25 163.285156 C 634.054688 163.285156 633.019531 163.472656 632.550781 163.566406 C 632.964844 158.394531 633.121094 151.535156 633.121094 145.191406 C 633.121094 140.914062 633.070312 136.871094 633.019531 133.675781 "/>
<path fill-rule="nonzero" fill="rgb(13.729858%, 12.159729%, 12.548828%)" fill-opacity="1" d="M 676.644531 135.742188 C 673.007812 133.253906 668.59375 133.253906 664.441406 133.253906 C 661.945312 133.253906 661.53125 133.300781 659.871094 133.441406 C 659.660156 137.765625 659.609375 142.558594 659.609375 146.882812 C 659.609375 155.480469 659.609375 156.46875 659.761719 161.121094 C 661.53125 161.308594 662.828125 161.402344 665.324219 161.402344 C 667.554688 161.402344 672.539062 161.402344 676.074219 159.148438 C 680.90625 156.046875 681.890625 150.734375 681.890625 146.976562 C 681.890625 143.453125 681.007812 138.703125 676.644531 135.742188 M 667.917969 163.566406 C 667.402344 163.566406 661.011719 163.378906 659.660156 163.378906 C 658.257812 163.378906 657.066406 163.425781 654.101562 163.566406 C 654.464844 158.820312 654.726562 155.578125 654.726562 144.765625 C 654.726562 137.765625 654.625 135.976562 654.308594 130.949219 C 657.167969 131.042969 659.972656 131.089844 662.828125 131.089844 C 672.125 131.089844 677.113281 131.089844 681.945312 134.566406 C 686.460938 137.8125 687.65625 142.324219 687.65625 146.410156 C 687.65625 158.300781 678.304688 163.566406 667.917969 163.566406 "/>
<path fill-rule="nonzero" fill="rgb(13.729858%, 12.159729%, 12.548828%)" fill-opacity="1" d="M 698.925781 160.886719 C 698.925781 162.53125 697.476562 163.894531 695.65625 163.894531 C 693.785156 163.894531 692.332031 162.53125 692.332031 160.933594 C 692.332031 159.289062 693.785156 157.925781 695.65625 157.925781 C 697.476562 157.925781 698.925781 159.289062 698.925781 160.886719 "/>
</svg>
