<?xml version="1.0" encoding="UTF-8"?>
<svg xmlns="http://www.w3.org/2000/svg" xmlns:xlink="http://www.w3.org/1999/xlink" width="252.521" height="241.839" viewBox="0 0 252.521 241.839">
<defs>
<clipPath id="clip-0">
<path clip-rule="nonzero" d="M 0 146 L 105 146 L 105 241.839844 L 0 241.839844 Z M 0 146 "/>
</clipPath>
<clipPath id="clip-1">
<path clip-rule="nonzero" d="M 143 145 L 252.519531 145 L 252.519531 241.839844 L 143 241.839844 Z M 143 145 "/>
</clipPath>
<clipPath id="clip-2">
<path clip-rule="nonzero" d="M 0 97 L 252.519531 97 L 252.519531 241.839844 L 0 241.839844 Z M 0 97 "/>
</clipPath>
</defs>
<path fill-rule="nonzero" fill="rgb(32.899475%, 59.199524%, 79.998779%)" fill-opacity="1" d="M 125.683594 6 L 125.960938 185.007812 C 125.960938 185.007812 87.574219 177.289062 63.601562 144.351562 C 52.222656 125.902344 45.496094 107.96875 44.980469 96.589844 C 45.152344 85.207031 44.980469 5.949219 44.980469 5.949219 Z M 125.683594 6 "/>
<path fill-rule="nonzero" fill="rgb(0%, 5.499268%, 27.799988%)" fill-opacity="1" d="M 124.960938 4.722656 L 124.671875 183.78125 C 124.671875 183.78125 162.832031 180.082031 187.363281 144.90625 C 203.398438 122.660156 205.136719 106.742188 205.65625 95.359375 C 205.484375 83.980469 205.65625 4.722656 205.65625 4.722656 Z M 124.960938 4.722656 "/>
<path fill-rule="nonzero" fill="rgb(92.199707%, 3.09906%, 10.598755%)" fill-opacity="1" d="M 120.734375 148.441406 L 112.933594 148.441406 L 112.933594 154.164062 L 104.285156 154.164062 L 104.285156 148.441406 L 98.542969 148.441406 L 98.542969 141.019531 L 104.285156 141.019531 L 104.285156 135.203125 L 112.933594 135.203125 L 112.933594 141.019531 L 120.917969 141.019531 L 120.917969 133.679688 L 115.800781 133.679688 L 115.800781 125.664062 L 120.917969 125.664062 L 120.917969 121.820312 L 128.9375 121.820312 L 128.9375 125.664062 L 134.082031 125.664062 L 134.082031 133.679688 L 128.9375 133.679688 L 128.9375 141.019531 L 139.464844 141.019531 L 139.464844 135.25 L 148.113281 135.25 L 148.113281 141.019531 L 153.917969 141.019531 L 153.917969 148.441406 L 148.113281 148.441406 L 148.113281 154.210938 L 139.464844 154.210938 L 139.464844 148.441406 L 129.074219 148.441406 L 124.933594 172.601562 Z M 120.734375 148.441406 "/>
<path fill-rule="nonzero" fill="rgb(0%, 0%, 0%)" fill-opacity="1" d="M 129.4375 121.320312 L 120.421875 121.320312 L 120.421875 125.164062 L 115.300781 125.164062 L 115.300781 134.179688 L 120.421875 134.179688 L 120.421875 140.519531 L 113.433594 140.519531 L 113.433594 134.703125 L 103.785156 134.703125 L 103.785156 140.519531 L 98.042969 140.519531 L 98.042969 148.941406 L 103.785156 148.941406 L 103.785156 154.664062 L 113.433594 154.664062 L 113.433594 148.941406 L 120.3125 148.941406 L 123.945312 169.832031 L 124.9375 175.542969 L 125.914062 169.832031 L 129.496094 148.941406 L 138.964844 148.941406 L 138.964844 154.710938 L 148.613281 154.710938 L 148.613281 148.941406 L 154.417969 148.941406 L 154.417969 140.519531 L 148.613281 140.519531 L 148.613281 134.75 L 138.964844 134.75 L 138.964844 140.519531 L 129.4375 140.519531 L 129.4375 134.179688 L 134.582031 134.179688 L 134.582031 125.164062 L 129.4375 125.164062 Z M 128.4375 122.320312 L 128.4375 126.164062 L 133.582031 126.164062 L 133.582031 133.179688 L 128.4375 133.179688 L 128.4375 141.519531 L 139.964844 141.519531 L 139.964844 135.75 L 147.613281 135.75 L 147.613281 141.519531 L 153.417969 141.519531 L 153.417969 147.941406 L 147.613281 147.941406 L 147.613281 153.710938 L 139.964844 153.710938 L 139.964844 147.941406 L 128.652344 147.941406 L 124.929688 169.660156 L 121.152344 147.941406 L 112.433594 147.941406 L 112.433594 153.664062 L 104.785156 153.664062 L 104.785156 147.941406 L 99.042969 147.941406 L 99.042969 141.519531 L 104.785156 141.519531 L 104.785156 135.703125 L 112.433594 135.703125 L 112.433594 141.519531 L 121.421875 141.519531 L 121.421875 133.179688 L 116.300781 133.179688 L 116.300781 126.164062 L 121.421875 126.164062 L 121.421875 122.320312 Z M 128.4375 122.320312 "/>
<path fill-rule="nonzero" fill="rgb(99.198914%, 95.298767%, 17.999268%)" fill-opacity="1" d="M 101.648438 98.59375 C 101.648438 98.59375 82.421875 117.132812 80.871094 118.511719 C 79.320312 119.890625 67.980469 131.230469 67.117188 132.046875 C 66.257812 132.867188 63.972656 134.765625 65.265625 136.273438 C 66.558594 137.78125 67.507812 138.816406 67.851562 139.25 C 68.195312 139.679688 69.230469 140.886719 71.257812 138.859375 C 73.285156 136.832031 86.21875 124.808594 87.335938 123.644531 C 88.457031 122.480469 97.984375 113.683594 99.042969 112.5625 C 100.097656 111.441406 105.574219 106.527344 107.339844 104.371094 C 106.390625 103.421875 101.648438 98.59375 101.648438 98.59375 "/>
<path fill="none" stroke-width="2" stroke-linecap="butt" stroke-linejoin="miter" stroke="rgb(0%, 0%, 0%)" stroke-opacity="1" stroke-miterlimit="10" d="M -0.0013625 0.00195 C -0.0013625 0.00195 -19.227925 -18.537112 -20.778706 -19.916019 C -22.329487 -21.294925 -33.669331 -32.634769 -34.532612 -33.451175 C -35.391987 -34.271487 -37.677144 -36.169925 -36.384175 -37.677737 C -35.091206 -39.18555 -34.141987 -40.220706 -33.798237 -40.6543 C -33.454487 -41.083987 -32.419331 -42.291019 -30.391987 -40.263675 C -28.364644 -38.236331 -15.43105 -26.212894 -14.313862 -25.048831 C -13.192769 -23.884769 -3.665425 -15.087894 -2.606831 -13.9668 C -1.552144 -12.845706 3.924419 -7.931644 5.690044 -5.775394 C 4.740825 -4.826175 -0.0013625 0.00195 -0.0013625 0.00195 Z M -0.0013625 0.00195 " transform="matrix(1, 0, 0, -1, 101.6498, 98.5957)"/>
<path fill-rule="nonzero" fill="rgb(99.198914%, 95.298767%, 17.999268%)" fill-opacity="1" stroke-width="2" stroke-linecap="butt" stroke-linejoin="miter" stroke="rgb(0%, 0%, 0%)" stroke-opacity="1" stroke-miterlimit="10" d="M -0.00155625 -0.00098125 C -0.00155625 -0.00098125 -17.005462 14.096675 -21.079681 17.913081 C -25.1539 21.725581 -34.251556 31.9248 -38.173431 37.569331 C -42.095306 43.217769 -44.899994 47.20605 -44.638275 47.721675 C -44.380462 48.241206 -42.732025 47.659175 -40.43515 46.104487 C -38.142181 44.553706 -27.224212 36.350581 -25.1539 34.584956 C -23.083587 32.815425 -13.599212 24.280269 -11.013275 21.952144 C -8.427337 19.627925 3.428131 8.33105 5.584381 6.432612 C 5.885163 6.045894 6.057038 5.959956 6.057038 5.959956 Z M -0.00155625 -0.00098125 " transform="matrix(1, 0, 0, -1, 100.5289, 65.4873)"/>
<path fill-rule="nonzero" fill="rgb(0%, 0%, 0%)" fill-opacity="1" d="M 102.511719 62.953125 C 102.511719 62.953125 87.164062 48.730469 84.835938 46.488281 C 82.507812 44.246094 71.386719 33.726562 70.480469 32.691406 C 69.574219 31.65625 65.308594 27.429688 64.746094 26.742188 C 64.1875 26.050781 65.136719 26.398438 66.128906 27.128906 C 67.117188 27.863281 78.199219 37.648438 80.65625 40.019531 C 83.113281 42.390625 102.921875 61.253906 103.375 61.746094 C 102.898438 62.265625 102.511719 62.953125 102.511719 62.953125 "/>
<path fill-rule="nonzero" fill="rgb(99.198914%, 95.298767%, 17.999268%)" fill-opacity="1" stroke-width="2" stroke-linecap="butt" stroke-linejoin="miter" stroke="rgb(0%, 0%, 0%)" stroke-opacity="1" stroke-miterlimit="10" d="M 0.00090625 -0.00046875 L 23.969656 23.108906 L 29.055594 18.366719 L 48.887625 39.57375 C 48.887625 39.57375 51.989188 27.76125 48.368094 20.347187 C 44.747 12.933125 38.625906 5.862812 33.282156 -0.00046875 C 29.141531 3.878437 21.383719 11.210469 21.383719 11.210469 L 4.137625 -4.656719 Z M 0.00090625 -0.00046875 " transform="matrix(1, 0, 0, -1, 143.3155, 59.355)"/>
<path fill-rule="nonzero" fill="rgb(99.198914%, 95.298767%, 17.999268%)" fill-opacity="1" d="M 151.777344 63.332031 L 143.878906 54.800781 C 143.085938 53.945312 143.136719 52.609375 143.992188 51.816406 C 144.847656 51.023438 146.183594 51.074219 146.976562 51.929688 L 154.875 60.464844 C 155.667969 61.320312 155.617188 62.65625 154.761719 63.449219 C 153.90625 64.242188 152.566406 64.1875 151.777344 63.332031 "/>
<path fill="none" stroke-width="2" stroke-linecap="butt" stroke-linejoin="miter" stroke="rgb(0%, 0%, 0%)" stroke-opacity="1" stroke-miterlimit="10" d="M 0.00184375 0.00136875 L -7.896594 8.532619 C -8.689562 9.388088 -8.638781 10.724025 -7.783312 11.516994 C -6.927844 12.309963 -5.591906 12.259181 -4.798937 11.403713 L 3.0995 2.868556 C 3.892469 2.013088 3.841688 0.67715 2.986219 -0.115819 C 2.13075 -0.908787 0.790906 -0.8541 0.00184375 0.00136875 Z M 0.00184375 0.00136875 " transform="matrix(1, 0, 0, -1, 151.7755, 63.3334)"/>
<path fill-rule="nonzero" fill="rgb(99.198914%, 95.298767%, 17.999268%)" fill-opacity="1" d="M 112.027344 118.78125 L 112.027344 113.242188 C 112.027344 112.074219 112.972656 111.128906 114.140625 111.128906 C 115.308594 111.128906 116.253906 112.074219 116.253906 113.242188 L 116.253906 118.78125 C 116.253906 119.949219 115.308594 120.894531 114.140625 120.894531 C 112.972656 120.894531 112.027344 119.949219 112.027344 118.78125 "/>
<path fill="none" stroke-width="2" stroke-linecap="butt" stroke-linejoin="miter" stroke="rgb(0%, 0%, 0%)" stroke-opacity="1" stroke-miterlimit="10" d="M -0.00085625 0.00065 L -0.00085625 5.539712 C -0.00085625 6.707681 0.944456 7.652994 2.112425 7.652994 C 3.280394 7.652994 4.225706 6.707681 4.225706 5.539712 L 4.225706 0.00065 C 4.225706 -1.167319 3.280394 -2.112631 2.112425 -2.112631 C 0.944456 -2.112631 -0.00085625 -1.167319 -0.00085625 0.00065 Z M -0.00085625 0.00065 " transform="matrix(1, 0, 0, -1, 112.0282, 118.7819)"/>
<path fill-rule="nonzero" fill="rgb(99.198914%, 95.298767%, 17.999268%)" fill-opacity="1" d="M 165.949219 82.15625 L 160.796875 80.121094 C 159.710938 79.695312 159.179688 78.464844 159.609375 77.382812 C 160.035156 76.296875 161.261719 75.765625 162.347656 76.191406 L 167.5 78.226562 C 168.585938 78.65625 169.117188 79.882812 168.691406 80.96875 C 168.261719 82.050781 167.035156 82.585938 165.949219 82.15625 "/>
<path fill="none" stroke-width="2" stroke-linecap="butt" stroke-linejoin="miter" stroke="rgb(0%, 0%, 0%)" stroke-opacity="1" stroke-miterlimit="10" d="M 0.00041875 0.00045 L -5.151925 2.035606 C -6.237863 2.461387 -6.769113 3.691856 -6.339425 4.773887 C -5.913644 5.859825 -4.687081 6.391075 -3.601144 5.965294 L 1.5512 3.930137 C 2.637137 3.50045 3.168387 2.273887 2.742606 1.18795 C 2.312919 0.105919 1.086356 -0.429238 0.00041875 0.00045 Z M 0.00041875 0.00045 " transform="matrix(1, 0, 0, -1, 165.9488, 82.1567)"/>
<path fill-rule="nonzero" fill="rgb(99.198914%, 95.298767%, 17.999268%)" fill-opacity="1" d="M 183.363281 135.714844 C 183.363281 137.402344 181.996094 138.773438 180.304688 138.773438 C 178.613281 138.773438 177.242188 137.402344 177.242188 135.714844 C 177.242188 134.023438 178.613281 132.652344 180.304688 132.652344 C 181.996094 132.652344 183.363281 134.023438 183.363281 135.714844 "/>
<path fill="none" stroke-width="2" stroke-linecap="butt" stroke-linejoin="miter" stroke="rgb(0%, 0%, 0%)" stroke-opacity="1" stroke-miterlimit="10" d="M -0.00121875 -0.00154375 C -0.00121875 -1.689044 -1.368406 -3.060137 -3.059812 -3.060137 C -4.751219 -3.060137 -6.122312 -1.689044 -6.122312 -0.00154375 C -6.122312 1.689863 -4.751219 3.060956 -3.059812 3.060956 C -1.368406 3.060956 -0.00121875 1.689863 -0.00121875 -0.00154375 Z M -0.00121875 -0.00154375 " transform="matrix(1, 0, 0, -1, 183.3645, 135.7133)"/>
<path fill-rule="nonzero" fill="rgb(99.198914%, 95.298767%, 17.999268%)" fill-opacity="1" stroke-width="2" stroke-linecap="butt" stroke-linejoin="miter" stroke="rgb(0%, 0%, 0%)" stroke-opacity="1" stroke-miterlimit="10" d="M -0.00174375 -0.00008125 L 2.717006 -8.925862 L 15.0881 2.929606 L 6.3381 5.648356 Z M -0.00174375 -0.00008125 " transform="matrix(1, 0, 0, -1, 168.9119, 129.6132)"/>
<path fill-rule="nonzero" fill="rgb(99.198914%, 95.298767%, 17.999268%)" fill-opacity="1" stroke-width="2" stroke-linecap="butt" stroke-linejoin="miter" stroke="rgb(0%, 0%, 0%)" stroke-opacity="1" stroke-miterlimit="10" d="M 0.00016875 0.00109375 L 18.492356 -17.545781 L 24.8322 -11.897344 L 5.992356 5.387813 Z M 0.00016875 0.00109375 " transform="matrix(1, 0, 0, -1, 150.4178, 112.0675)"/>
<path fill-rule="nonzero" fill="rgb(99.198914%, 95.298767%, 17.999268%)" fill-opacity="1" d="M 116.75 118.144531 C 116.75 118.144531 145.15625 115.042969 150.417969 112.066406 C 148.132812 110.171875 142.828125 106.246094 142.828125 106.246094 C 142.828125 106.246094 127.355469 112.023438 116.75 112.5 C 116.707031 115.472656 116.75 118.144531 116.75 118.144531 "/>
<path fill="none" stroke-width="2" stroke-linecap="butt" stroke-linejoin="miter" stroke="rgb(0%, 0%, 0%)" stroke-opacity="1" stroke-miterlimit="10" d="M 0.001 0.00146875 C 0.001 0.00146875 28.40725 3.103031 33.668969 6.079594 C 31.383812 7.974125 26.079125 11.899906 26.079125 11.899906 C 26.079125 11.899906 10.606469 6.122563 0.001 5.646 C -0.0419688 2.673344 0.001 0.00146875 0.001 0.00146875 Z M 0.001 0.00146875 " transform="matrix(1, 0, 0, -1, 116.749, 118.146)"/>
<path fill-rule="nonzero" fill="rgb(99.198914%, 95.298767%, 17.999268%)" fill-opacity="1" stroke-width="2" stroke-linecap="butt" stroke-linejoin="miter" stroke="rgb(0%, 0%, 0%)" stroke-opacity="1" stroke-miterlimit="10" d="M -0.00166875 -0.00034375 L -6.939169 -5.656594 L 0.646769 -11.476906 L 6.638956 -6.090187 Z M -0.00166875 -0.00034375 " transform="matrix(1, 0, 0, -1, 149.7712, 100.5895)"/>
<path fill-rule="nonzero" fill="rgb(99.198914%, 95.298767%, 17.999268%)" fill-opacity="1" d="M 166.152344 82.65625 C 166.152344 82.65625 159.40625 101.882812 156.410156 106.679688 C 153.308594 103.832031 149.769531 100.589844 149.769531 100.589844 C 149.769531 100.589844 156.710938 91.039062 159.6875 80.113281 C 162.597656 81.019531 166.152344 82.65625 166.152344 82.65625 "/>
<path fill="none" stroke-width="2" stroke-linecap="butt" stroke-linejoin="miter" stroke="rgb(0%, 0%, 0%)" stroke-opacity="1" stroke-miterlimit="10" d="M -0.00055625 -0.00045 C -0.00055625 -0.00045 -6.74665 -19.227013 -9.742744 -24.023888 C -12.844306 -21.176231 -16.383369 -17.934044 -16.383369 -17.934044 C -16.383369 -17.934044 -9.441963 -8.383263 -6.4654 2.542519 C -3.555244 1.636269 -0.00055625 -0.00045 -0.00055625 -0.00045 Z M -0.00055625 -0.00045 " transform="matrix(1, 0, 0, -1, 166.1529, 82.6558)"/>
<path fill-rule="nonzero" fill="rgb(100%, 100%, 100%)" fill-opacity="1" d="M 154.371094 81.824219 C 154.371094 97.933594 141.308594 110.996094 125.199219 110.996094 C 109.085938 110.996094 96.027344 97.933594 96.027344 81.824219 C 96.027344 65.710938 109.085938 52.652344 125.199219 52.652344 C 141.308594 52.652344 154.371094 65.710938 154.371094 81.824219 "/>
<path fill="none" stroke-width="2" stroke-linecap="butt" stroke-linejoin="miter" stroke="rgb(0%, 0%, 0%)" stroke-opacity="1" stroke-miterlimit="10" d="M 0.00159375 -0.00091875 C 0.00159375 -16.110294 -13.060906 -29.172794 -29.170281 -29.172794 C -45.283562 -29.172794 -58.342156 -16.110294 -58.342156 -0.00091875 C -58.342156 16.112363 -45.283562 29.170956 -29.170281 29.170956 C -13.060906 29.170956 0.00159375 16.112363 0.00159375 -0.00091875 Z M 0.00159375 -0.00091875 " transform="matrix(1, 0, 0, -1, 154.3695, 81.8233)"/>
<path fill="none" stroke-width="2" stroke-linecap="butt" stroke-linejoin="miter" stroke="rgb(0%, 0%, 0%)" stroke-opacity="1" stroke-miterlimit="10" d="M 0.00125 0.0006875 C 0.00125 0.0006875 5.911406 6.981156 14.446562 6.895219 C 22.981719 6.809281 28.845 -0.378219 28.845 -0.378219 C 29.0325 -0.604781 30.923125 -0.253219 31.18875 -0.229781 C 33.055937 -0.0500938 34.915312 0.242875 36.739531 0.688187 C 41.091094 1.762406 44.540312 3.774125 46.989531 7.582719 C 49.380156 11.305375 50.450469 15.360062 50.266875 19.770219 " transform="matrix(1, 0, 0, -1, 96.03, 81.446)"/>
<path fill="none" stroke-width="2" stroke-linecap="butt" stroke-linejoin="miter" stroke="rgb(0%, 0%, 0%)" stroke-opacity="1" stroke-miterlimit="10" d="M 0.0011625 -0.0008875 C -4.166806 1.725675 -8.373838 3.784269 -11.498838 7.124112 C -15.25665 11.139737 -15.924619 15.999112 -15.7879 21.327237 C -15.75665 22.506925 -15.690244 23.682706 -15.6004 24.854581 " transform="matrix(1, 0, 0, -1, 140.4754, 106.6788)"/>
<path fill="none" stroke-width="2" stroke-linecap="butt" stroke-linejoin="miter" stroke="rgb(0%, 0%, 0%)" stroke-opacity="1" stroke-miterlimit="10" d="M -0.00021875 0.00145 C -1.660375 2.513169 -3.648656 4.853013 -5.808813 6.946763 C -9.871313 10.888169 -15.273656 13.083481 -20.859594 13.665513 C -26.398656 14.243638 -33.336156 13.786606 -38.324438 11.142075 " transform="matrix(1, 0, 0, -1, 137.9885, 78.8452)"/>
<path fill="none" stroke-width="2" stroke-linecap="butt" stroke-linejoin="miter" stroke="rgb(0%, 0%, 0%)" stroke-opacity="1" stroke-miterlimit="10" d="M -0.00041875 0.001225 C -1.719169 2.466069 -3.719169 4.770756 -5.875419 6.864506 C -13.250419 14.028569 -24.059013 15.864506 -33.937919 14.559819 " transform="matrix(1, 0, 0, -1, 144.5512, 71.1106)"/>
<path fill="none" stroke-width="2" stroke-linecap="butt" stroke-linejoin="miter" stroke="rgb(0%, 0%, 0%)" stroke-opacity="1" stroke-miterlimit="10" d="M -0.001575 0.000275 C -4.603138 -10.89035 -1.763294 -23.753631 7.658581 -31.0466 C 9.486706 -32.464569 11.369519 -33.800506 13.185925 -35.238006 " transform="matrix(1, 0, 0, -1, 115.7672, 75.5159)"/>
<path fill="none" stroke-width="2" stroke-linecap="butt" stroke-linejoin="miter" stroke="rgb(0%, 0%, 0%)" stroke-opacity="1" stroke-miterlimit="10" d="M 0.00124375 0.000275 C -1.045631 -4.409881 -1.709694 -8.972381 -1.299537 -13.507538 C -0.686256 -20.304413 2.739525 -27.230194 7.188744 -32.343475 " transform="matrix(1, 0, 0, -1, 104.8386, 75.5159)"/>
<path fill="none" stroke-width="2" stroke-linecap="butt" stroke-linejoin="miter" stroke="rgb(0%, 0%, 0%)" stroke-opacity="1" stroke-miterlimit="10" d="M 0.000075 0.0003 C 5.839919 -0.234075 12.918044 0.597956 17.781325 4.1253 C 22.23445 7.355769 25.441481 12.332331 27.273512 17.46905 C 27.480544 18.054987 27.67195 18.648737 27.839919 19.246394 " transform="matrix(1, 0, 0, -1, 124.9843, 91.6878)"/>
<path fill="none" stroke-width="2" stroke-linecap="butt" stroke-linejoin="miter" stroke="rgb(0%, 0%, 0%)" stroke-opacity="1" stroke-miterlimit="10" d="M 0.0007375 -0.0002625 C 7.957769 0.616925 16.403081 3.714581 21.69605 9.9138 " transform="matrix(1, 0, 0, -1, 130.9602, 101.6013)"/>
<path fill-rule="nonzero" fill="rgb(100%, 100%, 100%)" fill-opacity="1" d="M 87.824219 19.78125 C 87.824219 19.78125 82.195312 21.9375 80.582031 23.164062 C 78.964844 24.394531 75.792969 26.722656 80.320312 27.304688 C 84.847656 27.886719 90.410156 28.726562 95.582031 29.179688 C 100.753906 29.632812 102.351562 29.523438 103.664062 29.179688 C 104.980469 28.832031 105.992188 29.71875 106.585938 30.472656 C 107.460938 30.664062 112.71875 30.558594 115.15625 30.578125 C 117.589844 30.601562 128.066406 31.246094 131.816406 31.140625 C 135.566406 31.03125 141.667969 31.828125 144.664062 29.867188 C 147.660156 27.90625 149.621094 26.203125 155.265625 26.722656 C 160.914062 27.238281 165.03125 28.769531 166.863281 29.070312 C 168.695312 29.371094 171.476562 29.933594 173.09375 28.230469 C 174.710938 26.527344 173.074219 24.609375 172.125 24.070312 C 171.175781 23.53125 169.363281 22.429688 169.539062 21.71875 C 169.710938 21.007812 171.003906 19.476562 171.457031 18.59375 C 171.910156 17.710938 172.039062 15.511719 171.671875 14.757812 C 171.304688 14.003906 171.285156 13.3125 169.34375 13.3125 C 167.402344 13.3125 165.613281 13.527344 163.523438 15.167969 C 161.433594 16.804688 157.746094 19.972656 155.71875 20.253906 C 153.695312 20.535156 150.308594 20.058594 145.007812 18.488281 C 139.707031 16.914062 133.648438 16.050781 121.523438 16.019531 C 109.398438 15.984375 105.617188 16.019531 102.609375 16.796875 C 99.601562 17.570312 97.726562 17.363281 95.980469 17.582031 C 94.234375 17.796875 89.019531 19.304688 87.824219 19.78125 "/>
<path fill="none" stroke-width="2" stroke-linecap="butt" stroke-linejoin="miter" stroke="rgb(0%, 0%, 0%)" stroke-opacity="1" stroke-miterlimit="10" d="M 0.00191875 -0.00115 C 0.00191875 -0.00115 -5.626987 -2.1574 -7.240269 -3.383963 C -8.857456 -4.614431 -12.029331 -6.942556 -7.501987 -7.524588 C -2.974644 -8.106619 2.587856 -8.946463 7.759731 -9.399588 C 12.931606 -9.852713 14.529263 -9.743338 15.841763 -9.399588 C 17.158169 -9.051931 18.169888 -9.93865 18.763638 -10.692556 C 19.638638 -10.883963 24.89645 -10.778494 27.33395 -10.798025 C 29.767544 -10.821463 40.244106 -11.465994 43.994106 -11.360525 C 47.744106 -11.25115 53.845669 -12.048025 56.841763 -10.087088 C 59.837856 -8.12615 61.798794 -6.423025 67.443325 -6.942556 C 73.091763 -7.458181 77.20895 -8.989431 79.040981 -9.290213 C 80.873013 -9.590994 83.654263 -10.153494 85.27145 -8.450369 C 86.888638 -6.747244 85.251919 -4.829275 84.3027 -4.290213 C 83.353481 -3.75115 81.540981 -2.649588 81.716763 -1.93865 C 81.888638 -1.227713 83.181606 0.303537 83.634731 1.18635 C 84.087856 2.069162 84.216763 4.268381 83.849575 5.022287 C 83.482388 5.776194 83.462856 6.4676 81.52145 6.4676 C 79.580044 6.4676 77.790981 6.252756 75.701138 4.612131 C 73.611294 2.975412 69.923794 -0.192556 67.89645 -0.473806 C 65.873013 -0.755056 62.486294 -0.278494 57.185513 1.291819 C 51.884731 2.866037 45.826138 3.729319 33.701138 3.760569 C 21.576138 3.795725 17.794888 3.760569 14.787075 2.983225 C 11.779263 2.209787 9.904263 2.416819 8.158169 2.198069 C 6.412075 1.983225 1.197231 0.475412 0.00191875 -0.00115 Z M 0.00191875 -0.00115 " transform="matrix(1, 0, 0, -1, 87.8223, 19.7801)"/>
<path fill-rule="nonzero" fill="rgb(0%, 0%, 0%)" fill-opacity="1" d="M 81.832031 27.164062 C 81.832031 27.164062 84.050781 25.492188 84.890625 25.332031 C 85.730469 25.167969 86.476562 25.675781 86.28125 26.246094 C 86.085938 26.816406 85.796875 27.140625 85.699219 27.789062 C 84.921875 27.722656 81.832031 27.164062 81.832031 27.164062 "/>
<path fill-rule="nonzero" fill="rgb(0%, 0%, 0%)" fill-opacity="1" d="M 91.164062 28.316406 C 91.164062 28.316406 93.78125 26.246094 94.171875 25.761719 C 94.558594 25.277344 94.816406 24.566406 95.171875 24.792969 C 95.527344 25.019531 95.789062 25.9375 95.496094 26.542969 C 95.207031 27.152344 94.394531 28.1875 94.394531 28.640625 C 94.074219 28.605469 91.164062 28.316406 91.164062 28.316406 "/>
<path fill-rule="nonzero" fill="rgb(0%, 0%, 0%)" fill-opacity="1" d="M 87.21875 20.265625 C 87.21875 20.265625 87.605469 21.460938 87.734375 22.042969 C 87.867188 22.625 88.027344 23.238281 88.449219 23.078125 C 88.867188 22.917969 89.480469 22.691406 89.417969 22.011719 C 89.351562 21.332031 89.304688 20.246094 89.253906 19.78125 C 88.769531 19.84375 87.21875 20.265625 87.21875 20.265625 "/>
<path fill-rule="nonzero" fill="rgb(0%, 0%, 0%)" fill-opacity="1" d="M 100.085938 17.710938 C 100.085938 17.710938 101.089844 21.039062 100.992188 22.851562 C 100.894531 24.660156 100.992188 25.921875 98.695312 29.027344 C 99.632812 29.09375 100.183594 29.027344 100.183594 29.027344 C 100.183594 29.027344 101.996094 26.367188 102.1875 23.238281 C 102.316406 21.15625 101.6875 17.710938 101.378906 17.417969 C 100.832031 17.644531 100.085938 17.710938 100.085938 17.710938 "/>
<path fill-rule="nonzero" fill="rgb(0%, 0%, 0%)" fill-opacity="1" d="M 137.195312 23.84375 C 137.023438 23.84375 119 24.058594 117.882812 24.230469 C 116.761719 24.402344 114.949219 25.394531 117.882812 25.265625 C 120.8125 25.136719 137.796875 25.050781 138.703125 25.050781 C 139.609375 25.050781 137.195312 23.84375 137.195312 23.84375 "/>
<path fill-rule="nonzero" fill="rgb(53.69873%, 53.29895%, 55.699158%)" fill-opacity="1" d="M 158.472656 21.9375 C 158.660156 21.871094 158.832031 21.804688 158.972656 21.738281 C 160.128906 21.175781 161.136719 20.429688 162.203125 19.726562 C 162.84375 19.304688 163.476562 18.863281 164.0625 18.363281 C 164.652344 17.859375 165.113281 17.210938 165.730469 16.746094 C 166.199219 16.394531 166.832031 16.113281 167.414062 16.035156 C 168.09375 15.949219 168.398438 16.226562 168.574219 16.855469 C 168.945312 18.195312 168.046875 19.222656 167.15625 20.089844 C 166.777344 20.460938 166.382812 20.953125 166.40625 21.515625 C 166.429688 22.113281 166.910156 22.484375 167.324219 22.847656 C 168.25 23.660156 169.675781 24.550781 170.019531 25.808594 C 170.621094 28.015625 166.613281 26.152344 165.902344 25.945312 C 163.484375 25.226562 161.011719 24.6875 158.511719 24.332031 C 158.132812 24.277344 157.742188 24.222656 157.417969 24.019531 C 156.960938 23.734375 156.804688 23.171875 157.109375 22.710938 C 157.398438 22.273438 158.007812 22.101562 158.472656 21.9375 "/>
<path fill-rule="nonzero" fill="rgb(53.69873%, 53.29895%, 55.699158%)" fill-opacity="1" d="M 140.234375 17.085938 C 140.234375 17.085938 144.628906 12.527344 145.632812 11.425781 C 146.636719 10.328125 147.734375 9.230469 149.867188 9.359375 C 152.003906 9.488281 153.261719 11.417969 153.523438 13.214844 C 153.78125 15.015625 153.707031 18.898438 153.679688 20.304688 C 152.511719 20.195312 149.785156 19.816406 146.160156 18.820312 C 142.539062 17.824219 140.945312 17.214844 140.234375 17.085938 "/>
<path fill="none" stroke-width="2" stroke-linecap="butt" stroke-linejoin="miter" stroke="rgb(0%, 0%, 0%)" stroke-opacity="1" stroke-miterlimit="10" d="M 0.001275 -0.0002375 C 0.001275 -0.0002375 4.395806 4.558356 5.399713 5.659919 C 6.403619 6.757575 7.501275 7.855231 9.634088 7.726325 C 11.770806 7.597419 13.028619 5.667731 13.290338 3.870856 C 13.54815 2.070075 13.473931 -1.812737 13.446588 -3.218987 C 12.278619 -3.109612 9.552056 -2.730706 5.927056 -1.734612 C 2.305963 -0.738519 0.712213 -0.129144 0.001275 -0.0002375 Z M 0.001275 -0.0002375 " transform="matrix(1, 0, 0, -1, 140.2331, 17.0857)"/>
<path fill-rule="nonzero" fill="rgb(53.69873%, 53.29895%, 55.699158%)" fill-opacity="1" d="M 155.117188 28.359375 C 155.117188 28.359375 155.332031 34.523438 154.730469 35.34375 C 154.125 36.160156 152.230469 38.574219 149.726562 35.816406 C 147.226562 33.058594 145.933594 31.378906 144.664062 29.867188 C 146.152344 28.882812 148.144531 27.394531 149.910156 27.054688 C 151.671875 26.71875 153.902344 26.574219 155.269531 26.722656 C 155.246094 27.710938 155.117188 28.359375 155.117188 28.359375 "/>
<path fill="none" stroke-width="2" stroke-linecap="butt" stroke-linejoin="miter" stroke="rgb(0%, 0%, 0%)" stroke-opacity="1" stroke-miterlimit="10" d="M 0.0003875 -0.000375 C 0.0003875 -0.000375 0.215231 -6.164438 -0.386331 -6.98475 C -0.9918 -7.801156 -2.886331 -10.215219 -5.390237 -7.457406 C -7.890237 -4.699594 -9.183206 -3.019906 -10.452737 -1.508188 C -8.964456 -0.523813 -6.972269 0.964469 -5.206644 1.304312 C -3.444925 1.64025 -1.214456 1.784781 0.152731 1.636344 C 0.129294 0.648062 0.0003875 -0.000375 0.0003875 -0.000375 Z M 0.0003875 -0.000375 " transform="matrix(1, 0, 0, -1, 155.1168, 28.359)"/>
<path fill-rule="nonzero" fill="rgb(53.69873%, 53.29895%, 55.699158%)" fill-opacity="1" d="M 124.746094 35.96875 C 124.398438 35.792969 121.296875 33.4375 121.210938 31.210938 L 121.210938 30.828125 L 130.050781 31.210938 C 130.050781 31.210938 129.960938 35.148438 129.53125 35.96875 C 129.101562 36.785156 127.246094 37.21875 124.746094 35.96875 "/>
<path fill="none" stroke-width="2" stroke-linecap="butt" stroke-linejoin="miter" stroke="rgb(0%, 0%, 0%)" stroke-opacity="1" stroke-miterlimit="10" d="M 0.00019375 -0.00085 C -0.347463 0.174931 -3.449025 2.5304 -3.534963 4.756962 L -3.534963 5.139775 L 5.304881 4.756962 C 5.304881 4.756962 5.215037 0.819462 4.78535 -0.00085 C 4.355662 -0.817256 2.500194 -1.25085 0.00019375 -0.00085 Z M 0.00019375 -0.00085 " transform="matrix(1, 0, 0, -1, 124.7459, 35.9679)"/>
<path fill-rule="nonzero" fill="rgb(53.69873%, 53.29895%, 55.699158%)" fill-opacity="1" d="M 104.0625 34.546875 C 103.804688 34.546875 100.097656 33.03125 99.285156 29.4375 C 101.507812 29.46875 102.964844 29.496094 104.0625 29.109375 C 105.195312 28.917969 106.132812 29.691406 106.40625 30.257812 C 106.683594 30.828125 106.878906 32.25 106.585938 33.605469 C 106.296875 34.964844 104.0625 34.546875 104.0625 34.546875 "/>
<path fill="none" stroke-width="2" stroke-linecap="butt" stroke-linejoin="miter" stroke="rgb(0%, 0%, 0%)" stroke-opacity="1" stroke-miterlimit="10" d="M -0.0015 -0.001675 C -0.259313 -0.001675 -3.966344 1.51395 -4.778844 5.1077 C -2.556188 5.07645 -1.099156 5.049106 -0.0015 5.435825 C 1.131312 5.627231 2.068812 4.853794 2.34225 4.287388 C 2.619594 3.717075 2.814906 2.2952 2.521937 0.939731 C 2.232875 -0.419644 -0.0015 -0.001675 -0.0015 -0.001675 Z M -0.0015 -0.001675 " transform="matrix(1, 0, 0, -1, 104.064, 34.5452)"/>
<path fill-rule="nonzero" fill="rgb(0%, 0%, 0.799561%)" fill-opacity="1" d="M 184.964844 146.019531 C 163.417969 174.195312 132.136719 182.648438 124.988281 182.648438 C 124.988281 182.648438 54.277344 170.464844 45.738281 96.585938 C 45.65625 34.390625 45.738281 7.625 45.738281 7.625 L 204.355469 7.625 L 204.355469 96.585938 C 204.355469 96.585938 206.511719 117.84375 184.964844 146.019531 M 207.558594 96.644531 L 207.558594 4.085938 L 42.535156 4.085938 C 42.535156 4.085938 42.449219 31.9375 42.535156 96.644531 C 51.414062 173.507812 124.984375 186.183594 124.984375 186.183594 C 132.421875 186.183594 164.96875 177.390625 187.382812 148.074219 C 209.800781 118.761719 207.558594 96.644531 207.558594 96.644531 "/>
<path fill-rule="nonzero" fill="rgb(100%, 100%, 100%)" fill-opacity="1" d="M 28.160156 188.621094 C 28.160156 188.621094 30.226562 217.460938 30.097656 224.960938 C 33.203125 221.988281 40.011719 214.355469 41.394531 212.632812 C 42.6875 216.082031 46.652344 231.167969 47.601562 233.84375 C 51.566406 229.101562 62.085938 211.230469 62.085938 211.230469 Z M 28.160156 188.621094 "/>
<g clip-path="url(#clip-0)">
<path fill="none" stroke-width="3" stroke-linecap="butt" stroke-linejoin="miter" stroke="rgb(0%, 0%, 0%)" stroke-opacity="1" stroke-miterlimit="10" d="M 0.00185625 -0.00129375 C 0.00185625 -0.00129375 2.068262 -28.841138 1.939356 -36.341138 C 5.044825 -33.368481 11.853419 -25.735669 13.236231 -24.013013 C 14.5292 -27.462231 18.494044 -42.548169 19.443262 -45.22395 C 23.408106 -40.481763 33.927638 -22.610669 33.927638 -22.610669 Z M 0.00185625 -0.00129375 " transform="matrix(1, 0, 0, -1, 28.1583, 188.6198)"/>
</g>
<path fill-rule="nonzero" fill="rgb(100%, 100%, 100%)" fill-opacity="1" d="M 221.03125 188.207031 C 221.03125 188.207031 218.902344 217.90625 219.035156 225.628906 C 215.835938 222.566406 208.824219 214.707031 207.402344 212.933594 C 206.070312 216.484375 201.988281 232.019531 201.011719 234.773438 C 196.925781 229.890625 186.09375 211.488281 186.09375 211.488281 Z M 221.03125 188.207031 "/>
<g clip-path="url(#clip-1)">
<path fill="none" stroke-width="3" stroke-linecap="butt" stroke-linejoin="miter" stroke="rgb(0%, 0%, 0%)" stroke-opacity="1" stroke-miterlimit="10" d="M -0.00045 -0.00123125 C -0.00045 -0.00123125 -2.129356 -29.70045 -1.996544 -37.423106 C -5.195763 -34.360606 -12.207481 -26.501231 -13.629356 -24.727794 C -14.961388 -28.278575 -19.043419 -43.813731 -20.019981 -46.567637 C -24.105919 -41.684825 -34.93795 -23.282481 -34.93795 -23.282481 Z M -0.00045 -0.00123125 " transform="matrix(1, 0, 0, -1, 221.0317, 188.2058)"/>
</g>
<path fill-rule="nonzero" fill="rgb(100%, 100%, 100%)" fill-opacity="1" d="M 39.367188 163.3125 C 39.367188 163.3125 42.210938 159.433594 41.609375 156.160156 C 41.003906 152.882812 38.589844 150.382812 37.382812 150.121094 C 36.175781 149.863281 31.78125 149.777344 33.503906 155.039062 C 35.226562 160.296875 39.453125 164.175781 44.367188 167.625 C 49.28125 171.074219 63.335938 180.730469 71.699219 184.957031 C 80.0625 189.179688 98.988281 200.128906 124.960938 200.300781 C 145.332031 200.300781 163.953125 191.765625 167.144531 190.472656 C 170.335938 189.179688 182.878906 185.429688 199.347656 171.203125 C 208.226562 163.53125 215.773438 156.957031 216.417969 153.207031 C 217 149.777344 216.355469 146.414062 215.125 146.15625 C 213.898438 145.898438 209.695312 145.378906 208.140625 150.878906 C 206.589844 156.375 208.207031 158.960938 209.886719 161.03125 C 208.417969 163.183594 194.816406 175.542969 190.5625 178.285156 C 190.433594 176.722656 191.113281 173.035156 194.605469 165.792969 C 198.097656 158.550781 203.527344 149.109375 204.824219 147.105469 C 206.117188 145.101562 208.894531 141.285156 210.773438 140.574219 C 212.648438 139.863281 214.585938 138.828125 217.691406 141.542969 C 220.792969 144.257812 233.082031 155.898438 237.285156 159.132812 C 241.488281 162.367188 244.589844 164.5625 245.238281 165.144531 C 245.886719 165.726562 247.890625 167.410156 245.820312 169.996094 C 243.75 172.582031 228.316406 190.0625 216.503906 198.945312 C 204.691406 207.824219 181.070312 221.015625 169.34375 224.894531 C 157.617188 228.777344 145.632812 232.570312 125.714844 232.226562 C 105.800781 231.878906 95.539062 230.15625 79.414062 223.429688 C 63.292969 216.707031 44.324219 206.964844 32.253906 196.703125 C 20.183594 186.441406 12.078125 178.835938 7.292969 171.914062 C 5.417969 169.523438 5.160156 165.964844 7.292969 164.089844 C 9.425781 162.214844 24.753906 150.121094 26.820312 147.792969 C 28.890625 145.46875 35.359375 137.1875 39.691406 140.875 C 44.023438 144.5625 48.160156 148.441406 52.171875 157.105469 C 56.179688 165.769531 60.480469 175.375 61.707031 178.867188 C 58.765625 177.023438 52.484375 173.035156 52.484375 173.035156 C 52.484375 173.035156 45.46875 169.046875 39.269531 163.445312 C 39.195312 163.308594 39.367188 163.3125 39.367188 163.3125 "/>
<g clip-path="url(#clip-2)">
<path fill="none" stroke-width="3" stroke-linecap="butt" stroke-linejoin="miter" stroke="rgb(0%, 0%, 0%)" stroke-opacity="1" stroke-miterlimit="10" d="M 0.0002875 0.0018 C 0.0002875 0.0018 2.844037 3.880706 2.242475 7.154144 C 1.637006 10.431488 -0.777056 12.931488 -1.984088 13.193206 C -3.191119 13.451019 -7.58565 13.536956 -5.862994 8.275238 C -4.140338 3.017425 0.086225 -0.861481 5.000287 -4.3107 C 9.91435 -7.759919 23.969037 -17.416169 32.332319 -21.642731 C 40.6956 -25.865387 59.621381 -36.814606 85.594037 -36.986481 C 105.965131 -36.986481 124.586225 -28.451325 127.777631 -27.158356 C 130.969038 -25.865387 143.512006 -22.115387 159.980756 -7.888825 C 168.859663 -0.21695 176.406538 6.357269 177.051069 10.107269 C 177.6331 13.536956 176.988569 16.900238 175.7581 17.15805 C 174.531538 17.415863 170.328413 17.935394 168.773725 12.435394 C 167.222944 6.9393 168.840131 4.353363 170.519819 2.28305 C 169.051069 0.130706 155.449506 -12.228669 151.1956 -14.970856 C 151.066694 -13.408356 151.746381 -9.720856 155.238569 -2.478669 C 158.730756 4.763519 164.160444 14.204925 165.457319 16.208831 C 166.750288 18.212738 169.527631 22.029144 171.406538 22.740081 C 173.281538 23.451019 175.219038 24.486175 178.324506 21.771331 C 181.426069 19.056488 193.715131 7.415863 197.918256 4.181488 C 202.121381 0.947113 205.222944 -1.2482 205.871381 -1.830231 C 206.519819 -2.412262 208.523725 -4.095856 206.453413 -6.681794 C 204.3831 -9.267731 188.949506 -26.7482 177.137006 -35.631012 C 165.324506 -44.509919 141.703413 -57.701325 129.97685 -61.580231 C 118.250287 -65.463044 106.265912 -69.256012 86.347944 -68.912262 C 66.433881 -68.564606 56.172162 -66.84195 40.047162 -60.115387 C 23.926069 -53.392731 4.957319 -43.650544 -7.112994 -33.388825 C -19.183306 -23.127106 -27.288775 -15.521637 -32.073931 -8.599762 C -33.948931 -6.209137 -34.206744 -2.650544 -32.073931 -0.775544 C -29.941119 1.099456 -14.612994 13.193206 -12.546588 15.521331 C -10.476275 17.84555 -4.007525 26.1268 0.324506 22.4393 C 4.656537 18.7518 8.793256 14.872894 12.804975 6.208831 C 16.812787 -2.455231 21.113569 -12.0607 22.340131 -15.552887 C 19.398725 -13.709137 13.117475 -9.720856 13.117475 -9.720856 C 13.117475 -9.720856 6.10185 -5.732575 -0.0973688 -0.131012 C -0.171588 0.00570625 0.0002875 0.0018 0.0002875 0.0018 Z M 0.0002875 0.0018 " transform="matrix(1, 0, 0, -1, 39.3669, 163.3143)"/>
</g>
<path fill-rule="nonzero" fill="rgb(0%, 0%, 0%)" fill-opacity="1" d="M 31 181.382812 C 30.152344 181.878906 28.804688 182.570312 28.125 182.835938 C 27.6875 182.574219 26.300781 181.757812 25.253906 180.753906 C 21.558594 177.199219 22.292969 173.378906 24.371094 171.214844 C 27.078125 168.398438 31.082031 168.585938 34.378906 171.757812 C 35.578125 172.90625 36.359375 174.210938 36.664062 174.582031 C 36.121094 175.289062 35.246094 176.386719 34.769531 177.078125 L 34.128906 176.644531 C 34.859375 175.304688 34.929688 174.40625 34.476562 173.417969 C 34.277344 172.964844 33.835938 172.433594 33.460938 172.078125 C 31.46875 170.164062 28.882812 170.84375 26.832031 172.976562 C 24.4375 175.46875 24.109375 178.398438 25.992188 180.207031 C 27.148438 181.320312 28.492188 181.460938 30.671875 180.679688 Z M 31 181.382812 "/>
<path fill-rule="nonzero" fill="rgb(0%, 0%, 0%)" fill-opacity="1" d="M 31.214844 185.988281 C 30.53125 185.410156 30.460938 184.488281 31.058594 183.78125 C 31.640625 183.089844 32.566406 183.003906 33.25 183.582031 C 33.933594 184.160156 34.015625 185.097656 33.433594 185.789062 C 32.835938 186.492188 31.914062 186.578125 31.214844 185.988281 "/>
<path fill-rule="nonzero" fill="rgb(0%, 0%, 0%)" fill-opacity="1" d="M 43.792969 191.339844 C 43.179688 191.894531 41.546875 193.164062 41.101562 193.464844 L 33.566406 187.75 L 33.988281 187.195312 C 35.394531 188.117188 35.59375 188.105469 36.550781 186.84375 L 40.894531 181.117188 C 41.851562 179.855469 41.789062 179.621094 40.71875 178.664062 L 41.140625 178.109375 L 45.882812 181.707031 L 45.460938 182.261719 C 44.195312 181.46875 43.964844 181.457031 43.007812 182.71875 L 38.585938 188.550781 C 37.957031 189.375 37.703125 189.777344 38.527344 190.425781 C 38.546875 190.460938 39.246094 190.992188 39.304688 191.039062 C 40.171875 191.695312 40.535156 191.6875 41.207031 191.558594 C 41.726562 191.476562 42.609375 191.128906 43.351562 190.722656 Z M 43.792969 191.339844 "/>
<path fill-rule="nonzero" fill="rgb(0%, 0%, 0%)" fill-opacity="1" d="M 44.273438 195.867188 C 43.53125 195.363281 43.363281 194.453125 43.878906 193.6875 C 44.386719 192.9375 45.292969 192.753906 46.035156 193.257812 C 46.777344 193.757812 46.960938 194.679688 46.457031 195.429688 C 45.9375 196.195312 45.03125 196.378906 44.273438 195.867188 "/>
<path fill-rule="nonzero" fill="rgb(0%, 0%, 0%)" fill-opacity="1" d="M 60.339844 199.414062 C 59.308594 199.023438 59.15625 199.019531 58.503906 200.125 L 57.765625 201.375 C 57.417969 201.960938 57.109375 202.523438 56.933594 203.007812 C 56.007812 202.660156 53.972656 201.984375 52.640625 201.199219 C 48.78125 198.917969 47.9375 195.285156 49.835938 192.070312 C 51.996094 188.414062 56.082031 188.355469 59.582031 190.417969 C 60.910156 191.203125 62.164062 192.382812 62.679688 192.753906 C 62.289062 193.488281 61.691406 194.800781 61.277344 195.761719 L 60.570312 195.496094 C 60.992188 193.882812 60.796875 192.824219 59.980469 191.882812 C 59.679688 191.527344 59.109375 191.105469 58.699219 190.863281 C 56.710938 189.6875 54.210938 190.511719 52.5625 193.308594 C 50.875 196.164062 50.558594 199.027344 53.25 200.617188 C 53.578125 200.808594 54.035156 201.015625 54.4375 201.011719 C 54.769531 201.007812 55.0625 200.808594 55.363281 200.308594 L 56.207031 198.878906 C 56.875 197.738281 56.714844 197.488281 55.429688 196.511719 L 55.785156 195.910156 L 60.695312 198.8125 Z M 60.339844 199.414062 "/>
<path fill-rule="nonzero" fill="rgb(0%, 0%, 0%)" fill-opacity="1" d="M 60.375 205.335938 C 59.574219 204.933594 59.292969 204.050781 59.710938 203.226562 C 60.121094 202.417969 60.996094 202.121094 61.796875 202.527344 C 62.597656 202.929688 62.894531 203.820312 62.484375 204.628906 C 62.066406 205.453125 61.191406 205.75 60.375 205.335938 "/>
<path fill-rule="nonzero" fill="rgb(0%, 0%, 0%)" fill-opacity="1" d="M 74.214844 203.699219 C 75.898438 204.371094 76.804688 203.902344 77.324219 202.605469 C 77.933594 201.082031 77.15625 200.101562 76.183594 199.710938 C 75.757812 199.539062 75.472656 199.484375 75.292969 199.515625 C 75.050781 199.5625 75.003906 199.726562 74.855469 200.09375 L 73.523438 203.421875 Z M 71.875 207.539062 C 71.371094 208.800781 71.800781 209.417969 72.765625 209.785156 C 73.746094 210.15625 75.039062 209.699219 75.691406 208.070312 C 76.371094 206.371094 75.824219 205.21875 73.84375 204.421875 L 73.222656 204.175781 Z M 76.371094 204.828125 C 78.097656 205.902344 79.058594 207.304688 78.390625 208.96875 C 77.957031 210.054688 76.859375 210.792969 75.625 210.949219 C 74.527344 211.078125 73.277344 210.863281 71.964844 210.339844 L 67.007812 208.351562 L 67.265625 207.703125 C 68.6875 208.109375 68.863281 208.078125 69.453125 206.609375 L 72.125 199.933594 C 72.714844 198.464844 72.546875 198.214844 71.324219 197.621094 L 71.585938 196.972656 L 76.96875 199.132812 C 78.316406 199.671875 79.09375 200.1875 79.628906 200.90625 C 80.113281 201.589844 80.273438 202.425781 79.929688 203.285156 C 79.347656 204.738281 77.613281 205.058594 76.371094 204.828125 "/>
<path fill-rule="nonzero" fill="rgb(0%, 0%, 0%)" fill-opacity="1" d="M 84.382812 209.929688 C 84 210.007812 83.617188 210.085938 83.191406 210.171875 C 82.535156 210.28125 82.109375 210.503906 81.914062 211.117188 C 81.601562 212.125 82.199219 212.707031 82.597656 212.832031 C 82.855469 212.910156 83.113281 212.972656 83.488281 212.792969 C 83.753906 211.945312 84.121094 210.777344 84.382812 209.929688 M 84.640625 214.992188 C 84.148438 214.835938 83.800781 214.550781 83.628906 214.261719 C 83.445312 213.964844 83.394531 213.671875 83.367188 213.445312 C 82.53125 213.679688 81.453125 213.996094 81.109375 213.886719 C 79.542969 213.398438 79.007812 211.90625 79.359375 210.792969 C 79.65625 209.835938 80.230469 209.542969 81.3125 209.464844 C 82.511719 209.40625 84.085938 209.421875 84.617188 209.191406 L 84.863281 208.402344 C 85.15625 207.464844 84.972656 206.835938 84.191406 206.589844 C 83.878906 206.492188 83.582031 206.558594 83.347656 206.722656 C 83.039062 206.941406 82.855469 207.277344 82.542969 207.773438 C 82.261719 208.222656 81.929688 208.257812 81.566406 208.140625 C 81.09375 207.992188 80.628906 207.375 80.785156 206.871094 C 80.886719 206.546875 81.179688 206.378906 81.6875 206.222656 C 82.675781 205.9375 83.914062 205.753906 85 205.855469 C 85.730469 206.082031 86.296875 206.4375 86.710938 206.964844 C 87.328125 207.746094 87.308594 208.570312 87.023438 209.488281 L 86.046875 212.605469 C 85.777344 213.46875 86 213.773438 86.292969 213.867188 C 86.472656 213.921875 86.671875 213.925781 86.902344 213.898438 L 86.910156 214.574219 Z M 84.640625 214.992188 "/>
<path fill-rule="nonzero" fill="rgb(0%, 0%, 0%)" fill-opacity="1" d="M 91.882812 206.59375 C 91.179688 206.414062 90.703125 205.667969 90.882812 204.957031 C 91.074219 204.207031 91.84375 203.816406 92.566406 204.003906 C 93.304688 204.191406 93.753906 204.890625 93.5625 205.640625 C 93.382812 206.351562 92.640625 206.785156 91.882812 206.59375 M 87.300781 215.507812 L 87.457031 214.886719 C 88.488281 215.011719 88.617188 214.96875 88.949219 213.671875 L 89.863281 210.105469 C 90.175781 208.882812 90.101562 208.785156 89.261719 208.453125 L 89.414062 207.851562 C 90.613281 208.019531 91.835938 208.082031 92.925781 208.046875 C 92.730469 208.816406 92.539062 209.566406 92.347656 210.3125 L 91.335938 214.28125 C 91.015625 215.523438 91.058594 215.667969 92.097656 216.070312 L 91.9375 216.691406 Z M 87.300781 215.507812 "/>
<path fill-rule="nonzero" fill="rgb(0%, 0%, 0%)" fill-opacity="1" d="M 92.628906 216.851562 L 92.761719 216.222656 C 93.859375 216.285156 93.917969 216.199219 94.164062 215.039062 L 95.953125 206.644531 C 96.160156 205.683594 96.070312 205.550781 95.144531 205.136719 L 95.269531 204.546875 C 96.585938 204.695312 97.9375 204.75 98.890625 204.664062 C 98.714844 205.496094 98.539062 206.324219 98.355469 207.175781 L 96.570312 215.550781 C 96.3125 216.769531 96.351562 216.855469 97.386719 217.210938 L 97.253906 217.839844 Z M 92.628906 216.851562 "/>
<path fill-rule="nonzero" fill="rgb(0%, 0%, 0%)" fill-opacity="1" d="M 103.53125 210.976562 C 102.777344 210.855469 101.996094 211.628906 101.648438 213.082031 C 102.421875 213.1875 103.140625 213.285156 103.933594 213.394531 C 104.203125 213.414062 104.320312 213.398438 104.371094 213.082031 C 104.539062 212.152344 104.265625 211.09375 103.53125 210.976562 M 106.011719 217.429688 C 104.59375 218.921875 103.027344 219.054688 102.234375 218.929688 C 99.710938 218.523438 98.578125 216.453125 98.933594 214.234375 C 99.140625 212.929688 99.96875 211.746094 100.882812 211.109375 C 101.863281 210.40625 102.992188 210.109375 104.027344 210.273438 C 105.875 210.570312 106.914062 212.285156 106.648438 213.808594 C 106.597656 214.125 106.527344 214.4375 106.292969 214.457031 C 105.921875 214.492188 103.246094 214.199219 101.40625 213.980469 C 101.164062 215.96875 102.117188 217.152344 103.472656 217.367188 C 104.207031 217.484375 104.980469 217.34375 105.753906 216.875 Z M 106.011719 217.429688 "/>
<path fill-rule="nonzero" fill="rgb(0%, 0%, 0%)" fill-opacity="1" d="M 125.144531 209.0625 C 123.976562 209.15625 123.601562 209.386719 123.503906 210.230469 C 123.414062 210.960938 123.324219 211.601562 123.246094 213.238281 L 122.890625 220.738281 L 121.824219 220.6875 L 114.324219 210.886719 L 114.121094 215.144531 C 114.042969 216.785156 114.046875 217.523438 114.078125 218.070312 C 114.113281 218.90625 114.496094 219.355469 115.902344 219.5 L 115.867188 220.195312 L 111.140625 219.972656 L 111.175781 219.273438 C 112.265625 219.230469 112.757812 218.972656 112.914062 218.089844 C 113.019531 217.417969 113.089844 216.742188 113.167969 215.101562 L 113.382812 210.636719 C 113.410156 210.015625 113.394531 209.597656 113.054688 209.089844 C 112.734375 208.601562 112.28125 208.523438 111.484375 208.410156 L 111.515625 207.714844 L 115.230469 207.890625 L 122.09375 216.582031 L 122.257812 213.191406 C 122.335938 211.554688 122.34375 210.929688 122.320312 210.230469 C 122.300781 209.417969 122.015625 209.007812 120.4375 208.839844 L 120.472656 208.140625 L 125.179688 208.363281 Z M 125.144531 209.0625 "/>
<path fill-rule="nonzero" fill="rgb(0%, 0%, 0%)" fill-opacity="1" d="M 129.664062 215.828125 C 129.324219 216.027344 128.988281 216.226562 128.613281 216.445312 C 128.03125 216.765625 127.699219 217.117188 127.71875 217.757812 C 127.753906 218.8125 128.507812 219.167969 128.929688 219.152344 C 129.195312 219.144531 129.460938 219.117188 129.757812 218.824219 C 129.730469 217.941406 129.691406 216.714844 129.664062 215.828125 M 131.566406 220.523438 C 131.050781 220.539062 130.628906 220.382812 130.371094 220.164062 C 130.097656 219.945312 129.957031 219.6875 129.855469 219.484375 C 129.144531 219.976562 128.230469 220.628906 127.867188 220.640625 C 126.230469 220.691406 125.234375 219.460938 125.199219 218.289062 C 125.167969 217.292969 125.609375 216.824219 126.609375 216.398438 C 127.71875 215.945312 129.210938 215.445312 129.640625 215.054688 L 129.613281 214.226562 C 129.582031 213.246094 129.203125 212.710938 128.382812 212.734375 C 128.058594 212.746094 127.796875 212.90625 127.632812 213.136719 C 127.410156 213.445312 127.347656 213.824219 127.210938 214.398438 C 127.097656 214.910156 126.792969 215.050781 126.414062 215.0625 C 125.917969 215.078125 125.273438 214.644531 125.257812 214.117188 C 125.246094 213.78125 125.46875 213.527344 125.898438 213.210938 C 126.738281 212.617188 127.84375 212.035156 128.90625 211.777344 C 129.667969 211.753906 130.320312 211.902344 130.886719 212.261719 C 131.722656 212.800781 131.976562 213.585938 132.007812 214.546875 L 132.113281 217.808594 C 132.140625 218.710938 132.453125 218.929688 132.757812 218.917969 C 132.949219 218.914062 133.136719 218.851562 133.34375 218.75 L 133.574219 219.382812 Z M 131.566406 220.523438 "/>
<path fill-rule="nonzero" fill="rgb(0%, 0%, 0%)" fill-opacity="1" d="M 143.949219 219.121094 L 143.863281 218.484375 C 144.640625 218.265625 144.6875 218.183594 144.515625 216.894531 L 144.085938 213.695312 C 143.90625 212.367188 143.1875 212.046875 142.527344 212.136719 C 142.035156 212.203125 141.644531 212.445312 141.183594 212.886719 L 141.792969 217.410156 C 141.949219 218.550781 142.035156 218.617188 142.824219 218.625 L 142.910156 219.261719 L 138.523438 219.851562 L 138.4375 219.214844 C 139.398438 218.914062 139.507812 218.878906 139.347656 217.664062 L 138.824219 213.777344 C 138.671875 212.65625 138.511719 212.621094 137.660156 212.5625 L 137.578125 211.964844 C 138.65625 211.6875 139.929688 211.269531 140.941406 210.789062 C 140.957031 211.050781 141.027344 211.710938 141.085938 212.140625 C 141.425781 211.828125 141.785156 211.492188 142.183594 211.171875 C 142.707031 210.757812 143.046875 210.5625 143.59375 210.488281 C 145.125 210.28125 146.238281 211.253906 146.496094 213.160156 L 146.96875 216.695312 C 147.125 217.855469 147.246094 217.894531 148.171875 217.902344 L 148.257812 218.539062 Z M 143.949219 219.121094 "/>
<path fill-rule="nonzero" fill="rgb(0%, 0%, 0%)" fill-opacity="1" d="M 160.984375 210.429688 C 159.96875 210.859375 159.855469 210.960938 160.144531 212.210938 L 160.46875 213.628906 C 160.621094 214.289062 160.785156 214.910156 160.992188 215.386719 C 160.082031 215.769531 158.140625 216.683594 156.632812 217.03125 C 152.265625 218.039062 149.152344 215.988281 148.308594 212.351562 C 147.355469 208.214844 150.277344 205.351562 154.234375 204.4375 C 155.742188 204.089844 157.460938 204.078125 158.089844 203.992188 C 158.3125 204.792969 158.785156 206.15625 159.148438 207.136719 L 158.453125 207.433594 C 157.644531 205.972656 156.773438 205.34375 155.53125 205.222656 C 155.070312 205.171875 154.367188 205.257812 153.902344 205.367188 C 151.652344 205.886719 150.40625 208.207031 151.136719 211.367188 C 151.882812 214.605469 153.625 216.894531 156.675781 216.1875 C 157.046875 216.101562 157.519531 215.9375 157.804688 215.65625 C 158.046875 215.425781 158.121094 215.078125 157.992188 214.511719 L 157.617188 212.890625 C 157.320312 211.605469 157.03125 211.535156 155.425781 211.714844 L 155.269531 211.035156 L 160.828125 209.75 Z M 160.984375 210.429688 "/>
<path fill-rule="nonzero" fill="rgb(0%, 0%, 0%)" fill-opacity="1" d="M 166.515625 209.226562 C 166.25 209.515625 165.980469 209.800781 165.683594 210.113281 C 165.214844 210.585938 164.992188 211.015625 165.191406 211.625 C 165.519531 212.628906 166.34375 212.757812 166.742188 212.625 C 166.996094 212.542969 167.246094 212.441406 167.445312 212.078125 C 167.171875 211.238281 166.792969 210.070312 166.515625 209.226562 M 169.660156 213.203125 C 169.167969 213.363281 168.71875 213.332031 168.414062 213.191406 C 168.089844 213.0625 167.878906 212.851562 167.722656 212.683594 C 167.183594 213.355469 166.484375 214.238281 166.140625 214.351562 C 164.582031 214.859375 163.285156 213.953125 162.921875 212.839844 C 162.609375 211.890625 162.90625 211.316406 163.742188 210.628906 C 164.683594 209.886719 165.976562 208.988281 166.277344 208.492188 L 166.019531 207.703125 C 165.714844 206.769531 165.199219 206.363281 164.421875 206.617188 C 164.113281 206.71875 163.902344 206.945312 163.8125 207.214844 C 163.6875 207.570312 163.734375 207.953125 163.761719 208.539062 C 163.792969 209.0625 163.546875 209.285156 163.183594 209.402344 C 162.710938 209.554688 161.972656 209.320312 161.808594 208.816406 C 161.703125 208.496094 161.84375 208.191406 162.167969 207.769531 C 162.808594 206.964844 163.707031 206.097656 164.652344 205.550781 C 165.378906 205.3125 166.046875 205.273438 166.691406 205.460938 C 167.644531 205.742188 168.109375 206.425781 168.40625 207.339844 L 169.421875 210.445312 C 169.703125 211.304688 170.0625 211.425781 170.351562 211.332031 C 170.53125 211.269531 170.695312 211.15625 170.867188 211.003906 L 171.265625 211.550781 Z M 169.660156 213.203125 "/>
<path fill-rule="nonzero" fill="rgb(0%, 0%, 0%)" fill-opacity="1" d="M 171.984375 212.132812 L 171.75 211.535156 C 172.703125 210.984375 172.707031 210.882812 172.277344 209.773438 L 169.179688 201.769531 C 168.824219 200.855469 168.675781 200.789062 167.675781 200.953125 L 167.457031 200.390625 C 168.636719 199.792969 169.800781 199.101562 170.554688 198.507812 C 170.859375 199.296875 171.164062 200.089844 171.480469 200.898438 L 174.570312 208.886719 C 175.019531 210.046875 175.101562 210.097656 176.164062 209.828125 L 176.394531 210.425781 Z M 171.984375 212.132812 "/>
<path fill-rule="nonzero" fill="rgb(0%, 0%, 0%)" fill-opacity="1" d="M 177.085938 210.140625 L 176.832031 209.550781 C 177.761719 208.964844 177.757812 208.859375 177.285156 207.769531 L 173.871094 199.894531 C 173.480469 198.996094 173.332031 198.9375 172.339844 199.140625 L 172.097656 198.585938 C 173.253906 197.941406 174.386719 197.203125 175.113281 196.578125 C 175.453125 197.359375 175.792969 198.136719 176.136719 198.933594 L 179.542969 206.792969 C 180.039062 207.933594 180.121094 207.980469 181.171875 207.667969 L 181.425781 208.257812 Z M 177.085938 210.140625 "/>
<path fill-rule="nonzero" fill="rgb(0%, 0%, 0%)" fill-opacity="1" d="M 182.839844 198.863281 C 182.105469 199.234375 181.773438 200.351562 182.816406 202.425781 C 183.867188 204.511719 185.375 205.757812 186.445312 205.21875 C 187.09375 204.894531 187.570312 204.101562 186.332031 201.644531 C 185.152344 199.300781 183.894531 198.332031 182.839844 198.863281 M 182.703125 198.085938 C 185.105469 196.878906 187.519531 197.898438 188.539062 199.917969 C 189.90625 202.628906 188.617188 204.992188 186.609375 206.003906 C 184.035156 207.300781 181.601562 206.121094 180.609375 204.148438 C 179.308594 201.570312 180.742188 199.074219 182.703125 198.085938 "/>
<path fill-rule="nonzero" fill="rgb(0%, 0%, 0%)" fill-opacity="1" d="M 195.433594 201.328125 C 194.597656 201.824219 194.246094 202.167969 194.125 202.523438 C 193.980469 202.917969 193.996094 203.347656 194.199219 203.6875 C 194.710938 204.546875 195.925781 204.722656 197.335938 203.882812 C 198.597656 203.132812 199.035156 202.082031 198.515625 201.207031 C 198.15625 200.605469 197.53125 200.453125 196.949219 200.625 C 196.4375 200.773438 196.039062 200.964844 195.433594 201.328125 M 192.753906 199.0625 C 192.695312 199.335938 192.6875 199.625 192.785156 199.785156 C 192.9375 200.046875 193.453125 200.203125 194.078125 199.832031 C 194.601562 199.519531 195.386719 199.050781 195.929688 198.726562 C 196.929688 198.132812 198.628906 197.667969 199.574219 199.257812 C 200.664062 201.089844 199.269531 203.894531 197.089844 205.191406 C 194.945312 206.46875 193.359375 206.007812 192.828125 205.117188 C 192.597656 204.730469 192.589844 204.382812 192.789062 203.933594 C 193.050781 203.363281 193.3125 202.832031 193.535156 202.390625 C 192.738281 202.539062 192.199219 202.417969 191.765625 202.214844 C 191.414062 202.074219 191.078125 201.726562 190.972656 201.480469 C 191.550781 200.699219 191.949219 199.800781 192.039062 199.242188 Z M 191.027344 194.335938 C 190.519531 194.640625 190.367188 195.539062 191.074219 196.722656 C 191.726562 197.828125 192.644531 198.507812 193.417969 198.050781 C 194.054688 197.667969 194.019531 196.789062 193.328125 195.625 C 192.71875 194.605469 191.8125 193.867188 191.027344 194.335938 M 193.636719 198.753906 C 191.765625 199.867188 189.964844 199.601562 189.097656 198.140625 C 188.054688 196.390625 189.265625 194.550781 190.742188 193.671875 C 191.429688 193.261719 192.066406 193.058594 192.847656 192.992188 C 193.535156 192.582031 194.628906 191.773438 194.972656 191.417969 L 195.132812 191.496094 C 195.207031 191.847656 195.3125 192.507812 195.125 192.863281 C 194.84375 193.03125 194.347656 193.238281 194.109375 193.359375 C 194.527344 193.503906 194.925781 193.835938 195.292969 194.453125 C 196.257812 196.074219 195.242188 197.796875 193.636719 198.753906 "/>
<path fill-rule="nonzero" fill="rgb(0%, 0%, 0%)" fill-opacity="1" d="M 199.75 198.222656 L 199.390625 197.691406 C 200.203125 196.945312 200.179688 196.847656 199.519531 195.859375 L 194.742188 188.730469 C 194.195312 187.914062 194.039062 187.882812 193.097656 188.261719 L 192.761719 187.761719 C 193.78125 186.917969 194.765625 185.988281 195.367188 185.242188 C 195.839844 185.949219 196.3125 186.65625 196.796875 187.375 L 201.5625 194.488281 C 202.257812 195.523438 202.34375 195.554688 203.324219 195.058594 L 203.679688 195.589844 Z M 199.75 198.222656 "/>
<path fill-rule="nonzero" fill="rgb(0%, 0%, 0%)" fill-opacity="1" d="M 205.542969 188.632812 C 205.382812 188.988281 205.21875 189.34375 205.039062 189.742188 C 204.742188 190.335938 204.671875 190.8125 205.054688 191.328125 C 205.6875 192.175781 206.507812 192.03125 206.84375 191.78125 C 207.058594 191.621094 207.261719 191.445312 207.335938 191.039062 C 206.804688 190.328125 206.074219 189.34375 205.542969 188.632812 M 209.792969 191.394531 C 209.378906 191.703125 208.941406 191.816406 208.605469 191.785156 C 208.257812 191.761719 207.992188 191.628906 207.792969 191.523438 C 207.492188 192.332031 207.117188 193.390625 206.828125 193.609375 C 205.511719 194.589844 203.992188 194.144531 203.292969 193.207031 C 202.695312 192.40625 202.789062 191.769531 203.363281 190.847656 C 204.015625 189.839844 204.953125 188.578125 205.082031 188.011719 L 204.585938 187.347656 C 203.996094 186.5625 203.378906 186.339844 202.722656 186.828125 C 202.460938 187.023438 202.339844 187.304688 202.335938 187.585938 C 202.332031 187.964844 202.5 188.316406 202.714844 188.859375 C 202.910156 189.347656 202.746094 189.636719 202.441406 189.863281 C 202.042969 190.160156 201.265625 190.175781 200.953125 189.75 C 200.75 189.480469 200.785156 189.144531 200.957031 188.640625 C 201.304688 187.671875 201.882812 186.5625 202.601562 185.742188 C 203.214844 185.285156 203.835938 185.035156 204.503906 185.007812 C 205.5 184.96875 206.15625 185.46875 206.730469 186.238281 L 208.683594 188.855469 C 209.226562 189.582031 209.605469 189.582031 209.847656 189.398438 C 210.003906 189.285156 210.121094 189.125 210.234375 188.921875 L 210.785156 189.3125 Z M 209.792969 191.394531 "/>
<path fill-rule="nonzero" fill="rgb(0%, 0%, 0%)" fill-opacity="1" d="M 216.429688 183.265625 C 216.558594 184.78125 216.105469 186.226562 215.214844 186.976562 C 213.203125 188.671875 210.757812 188.167969 209.40625 186.566406 C 208.507812 185.5 208.210938 184.023438 208.574219 182.558594 C 208.941406 181.042969 209.699219 180.078125 210.359375 179.527344 C 210.910156 179.058594 211.511719 178.824219 211.933594 178.789062 C 212.257812 178.761719 212.476562 178.875 212.660156 179.089844 C 212.984375 179.507812 212.917969 180.253906 212.683594 180.453125 C 212.582031 180.535156 212.445312 180.578125 212.230469 180.5625 C 211.164062 180.574219 210.472656 180.757812 210.082031 181.089844 C 209.511719 181.570312 209.289062 182.695312 210.601562 184.253906 C 212.21875 186.171875 214.15625 185.601562 214.78125 185.070312 C 215.378906 184.566406 215.683594 184.039062 215.832031 183.152344 Z M 216.429688 183.265625 "/>
<path fill-rule="nonzero" fill="rgb(0%, 0%, 0%)" fill-opacity="1" d="M 222.03125 180.480469 L 221.585938 180.019531 C 222.101562 179.339844 222.050781 179.207031 221.34375 178.472656 L 219.039062 176.082031 C 218.03125 175.035156 217.253906 175.105469 216.71875 175.625 C 216.386719 175.941406 216.121094 176.378906 216.09375 176.980469 L 219.363281 180.378906 C 220.070312 181.109375 220.230469 181.140625 220.957031 180.628906 L 221.398438 181.089844 L 218.128906 184.238281 L 217.6875 183.777344 C 218.28125 183.046875 218.363281 182.886719 217.539062 182.03125 L 211.480469 175.742188 C 210.878906 175.117188 210.652344 175.046875 209.765625 175.667969 L 209.347656 175.230469 C 210.273438 174.183594 211.050781 173.066406 211.527344 172.242188 C 212.011719 172.746094 212.535156 173.289062 213.019531 173.792969 L 215.582031 176.453125 C 215.617188 175.527344 215.886719 174.457031 216.585938 173.785156 C 217.78125 172.632812 219.242188 172.71875 220.683594 174.214844 L 223.078125 176.699219 C 223.902344 177.554688 224.011719 177.476562 224.773438 176.949219 L 225.21875 177.410156 Z M 222.03125 180.480469 "/>
</svg>
