<?xml version="1.0" encoding="UTF-8"?>
<svg style="background:transparent !important" xmlns="http://www.w3.org/2000/svg" xmlns:xlink="http://www.w3.org/1999/xlink" width="841.8898" height="1190.5512" viewBox="0 0 841.8898 1190.5512">
<defs>
<clipPath id="clip-0">
<path clip-rule="nonzero" d="M 775 0 L 841.890625 0 L 841.890625 994 L 775 994 Z M 775 0 "/>
</clipPath>
<clipPath id="clip-1">
<path clip-rule="nonzero" d="M 818 1136 L 841.890625 1136 L 841.890625 1156 L 818 1156 Z M 818 1136 "/>
</clipPath>
</defs>
<path fill-rule="nonzero" fill="rgb(25.881958%, 27.058411%, 29.019165%)" fill-opacity="1" d="M 253.929688 336.566406 C 253.929688 344.65625 258.535156 351.214844 264.210938 351.214844 L 300.300781 351.214844 C 337.234375 351.214844 356.800781 326.4375 356.800781 282.6875 C 356.800781 238.9375 337.234375 214.167969 300.300781 214.167969 L 264.210938 214.167969 C 258.535156 214.167969 253.929688 220.722656 253.929688 228.816406 Z M 173.207031 159.128906 C 173.207031 151.039062 177.804688 144.476562 183.476562 144.476562 L 308.230469 144.476562 C 359.050781 144.476562 436.277344 180.875 436.277344 282.6875 C 436.277344 379.867188 359.050781 420.902344 309.945312 420.902344 L 183.476562 420.902344 C 177.804688 420.902344 173.207031 414.34375 173.207031 406.253906 Z M 173.207031 159.128906 "/>
<path fill-rule="nonzero" fill="rgb(54.118347%, 14.901733%, 16.078186%)" fill-opacity="1" d="M 466.269531 353.117188 L 455.847656 353.074219 C 452.222656 353.058594 449.835938 349.328125 451.316406 346.015625 C 456.96875 333.394531 462.652344 302.535156 464.019531 270.21875 C 464.226562 265.3125 467.5 261.136719 472.410156 261.152344 L 559.105469 262.488281 C 563.84375 262.503906 567.683594 266.441406 567.488281 271.179688 C 550.703125 686.953125 19.703125 634.9375 0.761719 300.6875 C -7.335938 59.121094 293.328125 -122.300781 502.273438 104.707031 C 505.5625 108.285156 505.054688 113.941406 501.238281 116.953125 L 450.617188 156.867188 C 447.113281 159.632812 442.023438 159.195312 439.105469 155.804688 C 331.785156 30.816406 115.769531 68.3125 83.957031 259.320312 C 83.902344 259.648438 83.859375 259.980469 83.835938 260.3125 C 65.433594 509.167969 387.347656 563.691406 470.851562 360.074219 C 472.207031 356.769531 469.84375 353.132812 466.269531 353.117188 "/>
<path fill-rule="nonzero" fill="rgb(25.881958%, 27.058411%, 29.019165%)" fill-opacity="1" d="M 253.648438 958.746094 C 253.648438 966.835938 258.25 973.394531 263.929688 973.394531 L 300.019531 973.394531 C 336.949219 973.394531 356.519531 948.617188 356.519531 904.871094 C 356.519531 861.121094 336.949219 836.347656 300.019531 836.347656 L 263.929688 836.347656 C 258.25 836.347656 253.648438 842.902344 253.648438 850.996094 Z M 172.921875 781.308594 C 172.921875 773.222656 177.523438 766.660156 183.195312 766.660156 L 307.945312 766.660156 C 358.769531 766.660156 435.992188 803.054688 435.992188 904.871094 C 435.992188 1002.046875 358.769531 1043.082031 309.664062 1043.082031 L 183.195312 1043.082031 C 177.523438 1043.082031 172.921875 1036.523438 172.921875 1028.433594 Z M 172.921875 781.308594 "/>
<path fill-rule="nonzero" fill="rgb(54.118347%, 14.901733%, 16.078186%)" fill-opacity="1" d="M 465.988281 975.300781 L 455.566406 975.257812 C 451.941406 975.238281 449.550781 971.507812 451.03125 968.195312 C 456.683594 955.574219 462.367188 924.714844 463.734375 892.398438 C 463.945312 887.496094 467.21875 883.320312 472.125 883.335938 L 558.820312 884.667969 C 563.5625 884.6875 567.398438 888.621094 567.203125 893.359375 C 550.417969 1309.132812 19.417969 1257.117188 0.476562 922.867188 C -7.621094 681.300781 293.046875 499.878906 501.992188 726.886719 C 505.28125 730.46875 504.769531 736.125 500.953125 739.132812 L 450.335938 779.046875 C 446.828125 781.816406 441.738281 781.378906 438.824219 777.988281 C 331.503906 652.996094 115.488281 690.492188 83.671875 881.5 C 83.621094 881.828125 83.578125 882.160156 83.550781 882.492188 C 65.152344 1131.351562 387.0625 1185.871094 470.570312 982.257812 C 471.925781 978.949219 469.5625 975.3125 465.988281 975.300781 "/>
<path fill-rule="nonzero" fill="rgb(54.118347%, 14.901733%, 16.078186%)" fill-opacity="1" d="M 690.128906 978.859375 L 690.128906 972.464844 L 644.480469 960.238281 L 644.480469 960.097656 L 690.128906 947.941406 L 690.128906 941.617188 L 636.265625 927.167969 L 636.265625 933.28125 L 681 944.675781 L 681 944.8125 L 636.265625 956.832031 L 636.265625 963.363281 L 681 975.453125 L 681 975.59375 L 636.265625 986.777344 L 636.265625 993.242188 Z M 691.5 897.777344 C 691.5 882.839844 679.480469 872.070312 663.199219 872.070312 C 646.914062 872.070312 634.894531 882.839844 634.894531 897.777344 C 634.894531 912.714844 646.914062 923.484375 663.199219 923.484375 C 679.480469 923.484375 691.5 912.714844 691.5 897.777344 Z M 685.566406 897.777344 C 685.566406 909.3125 675.597656 917.230469 663.199219 917.230469 C 650.796875 917.230469 640.828125 909.3125 640.828125 897.777344 C 640.828125 886.242188 650.796875 878.324219 663.199219 878.324219 C 675.597656 878.324219 685.566406 886.242188 685.566406 897.777344 Z M 690.128906 862.691406 L 690.128906 856.855469 L 665.9375 856.855469 L 665.9375 849.351562 L 690.128906 836.011719 L 690.128906 828.855469 L 665.328125 842.820312 C 664.035156 835.179688 658.9375 830.523438 651.101562 830.523438 C 637.785156 830.523438 636.265625 840.597656 636.265625 850.117188 L 636.265625 862.691406 Z M 642.199219 856.855469 L 642.199219 848.65625 C 642.199219 842.960938 643.339844 836.777344 651.101562 836.777344 C 660.003906 836.777344 660.003906 845.183594 660.003906 851.644531 L 660.003906 856.855469 Z M 690.128906 820.242188 L 690.128906 814.40625 L 662.742188 814.40625 L 662.742188 813.570312 L 690.128906 790.160156 L 690.128906 781.613281 L 660.839844 807.109375 L 636.265625 782.792969 L 636.265625 791.203125 L 659.546875 813.570312 L 659.546875 814.40625 L 636.265625 814.40625 L 636.265625 820.242188 Z M 682.371094 574.710938 L 682.371094 581.03125 L 700.628906 585.757812 L 700.628906 580.40625 Z M 690.128906 544.628906 L 690.128906 538.792969 L 665.023438 538.792969 L 665.023438 512.53125 L 690.128906 512.53125 L 690.128906 506.691406 L 636.265625 506.691406 L 636.265625 512.53125 L 659.089844 512.53125 L 659.089844 538.792969 L 636.265625 538.792969 L 636.265625 544.628906 Z M 691.5 471.605469 C 691.5 456.667969 679.480469 445.902344 663.199219 445.902344 C 646.914062 445.902344 634.894531 456.667969 634.894531 471.605469 C 634.894531 486.542969 646.914062 497.3125 663.199219 497.3125 C 679.480469 497.3125 691.5 486.542969 691.5 471.605469 Z M 685.566406 471.605469 C 685.566406 483.140625 675.597656 491.0625 663.199219 491.0625 C 650.796875 491.0625 640.828125 483.140625 640.828125 471.605469 C 640.828125 460.074219 650.796875 452.152344 663.199219 452.152344 C 675.597656 452.152344 685.566406 460.074219 685.566406 471.605469 Z M 690.128906 436.519531 L 690.128906 430.683594 L 644.9375 430.683594 L 644.9375 430.542969 L 690.128906 412.898438 L 690.128906 409.355469 L 644.9375 391.707031 L 644.9375 391.566406 L 690.128906 391.566406 L 690.128906 385.734375 L 636.265625 385.734375 L 636.265625 394.210938 L 678.488281 411.023438 L 678.488281 411.160156 L 636.265625 427.835938 L 636.265625 436.519531 Z M 690.128906 373.503906 L 690.128906 341.335938 L 684.195312 341.335938 L 684.195312 367.667969 L 665.023438 367.667969 L 665.023438 344.253906 L 659.089844 344.253906 L 659.089844 367.667969 L 642.199219 367.667969 L 642.199219 342.585938 L 636.265625 342.585938 L 636.265625 373.503906 Z M 641.515625 724.640625 C 637.179688 728.949219 634.894531 735.203125 634.894531 740.757812 C 634.894531 749.929688 639.839844 759.796875 651.785156 759.796875 C 661.523438 759.796875 665.023438 753.476562 667.230469 747.222656 C 669.511719 740.757812 670.804688 737.007812 674.914062 737.007812 C 679.25 737.007812 680.773438 740.203125 680.773438 743.816406 C 680.773438 747.707031 678.339844 752.082031 675.066406 754.445312 L 683.738281 762.230469 C 688.683594 757.921875 691.5 750.832031 691.5 743.816406 C 691.5 734.089844 685.945312 724.988281 673.542969 724.988281 C 662.816406 724.988281 659.699219 733.605469 657.339844 740.273438 C 655.742188 744.929688 654.601562 747.847656 651.027344 747.847656 C 646.765625 747.847656 645.625 744.023438 645.625 740.96875 C 645.625 737.910156 647.449219 734.230469 650.265625 732.214844 Z M 690.128906 670.589844 L 636.265625 691.015625 L 636.265625 702.546875 L 690.128906 723.179688 L 690.128906 710.257812 L 679.554688 706.648438 L 679.554688 687.609375 L 690.128906 683.789062 Z M 669.132812 690.875 L 669.132812 703.242188 L 650.644531 696.988281 Z M 647.375 634.113281 L 636.265625 634.113281 L 636.265625 666.488281 L 690.128906 666.488281 L 690.128906 654.746094 L 669.207031 654.746094 L 669.207031 635.710938 L 658.480469 635.710938 L 658.480469 654.746094 L 647.375 654.746094 Z M 690.128906 592.148438 L 679.023438 592.148438 L 679.023438 615.007812 L 667.839844 615.007812 L 667.839844 594.578125 L 657.414062 594.578125 L 657.414062 615.007812 L 647.296875 615.007812 L 647.296875 593.398438 L 636.265625 593.398438 L 636.265625 626.46875 L 690.128906 626.46875 Z M 690.128906 271.09375 L 636.265625 271.09375 L 636.265625 282.976562 L 656.65625 282.976562 L 656.65625 302.152344 L 636.265625 302.152344 L 636.265625 314.03125 L 690.128906 314.03125 L 690.128906 302.152344 L 667.613281 302.152344 L 667.613281 282.976562 L 690.128906 282.976562 Z M 690.128906 226.632812 L 679.023438 226.632812 L 679.023438 249.488281 L 667.839844 249.488281 L 667.839844 229.0625 L 657.414062 229.0625 L 657.414062 249.488281 L 647.296875 249.488281 L 647.296875 227.882812 L 636.265625 227.882812 L 636.265625 260.953125 L 690.128906 260.953125 Z M 690.128906 172.230469 L 636.265625 192.65625 L 636.265625 204.191406 L 690.128906 224.824219 L 690.128906 211.902344 L 679.554688 208.289062 L 679.554688 189.25 L 690.128906 185.429688 Z M 669.132812 192.515625 L 669.132812 204.882812 L 650.644531 198.628906 Z M 690.128906 137.144531 L 678.792969 137.144531 L 678.792969 156.179688 L 636.265625 156.179688 L 636.265625 168.128906 L 690.128906 168.128906 Z M 647.375 102.128906 L 636.265625 102.128906 L 636.265625 141.800781 L 647.375 141.800781 L 647.375 127.902344 L 690.128906 127.902344 L 690.128906 116.023438 L 647.375 116.023438 Z M 690.128906 53.769531 L 636.265625 53.769531 L 636.265625 65.652344 L 656.65625 65.652344 L 656.65625 84.828125 L 636.265625 84.828125 L 636.265625 96.707031 L 690.128906 96.707031 L 690.128906 84.828125 L 667.613281 84.828125 L 667.613281 65.652344 L 690.128906 65.652344 Z M 636.265625 0.832031 L 636.265625 14.726562 L 656.199219 25.21875 L 636.265625 35.707031 L 636.265625 50.089844 L 667.308594 31.609375 L 690.128906 31.609375 L 690.128906 19.726562 L 667.308594 19.726562 Z M 636.265625 0.832031 "/>
<g clip-path="url(#clip-0)">
<path fill-rule="nonzero" fill="rgb(54.118347%, 14.901733%, 16.078186%)" fill-opacity="1" d="M 830.789062 978.859375 L 830.789062 972.464844 L 785.140625 960.238281 L 785.140625 960.097656 L 830.789062 947.941406 L 830.789062 941.617188 L 776.925781 927.167969 L 776.925781 933.28125 L 821.660156 944.675781 L 821.660156 944.8125 L 776.925781 956.832031 L 776.925781 963.363281 L 821.660156 975.453125 L 821.660156 975.59375 L 776.925781 986.777344 L 776.925781 993.242188 Z M 832.160156 897.777344 C 832.160156 882.839844 820.140625 872.070312 803.859375 872.070312 C 787.578125 872.070312 775.554688 882.839844 775.554688 897.777344 C 775.554688 912.714844 787.578125 923.484375 803.859375 923.484375 C 820.140625 923.484375 832.160156 912.714844 832.160156 897.777344 Z M 826.226562 897.777344 C 826.226562 909.3125 816.257812 917.230469 803.859375 917.230469 C 791.457031 917.230469 781.492188 909.3125 781.492188 897.777344 C 781.492188 886.242188 791.457031 878.324219 803.859375 878.324219 C 816.257812 878.324219 826.226562 886.242188 826.226562 897.777344 Z M 830.789062 862.691406 L 830.789062 856.855469 L 806.597656 856.855469 L 806.597656 849.351562 L 830.789062 836.011719 L 830.789062 828.855469 L 805.988281 842.820312 C 804.695312 835.179688 799.597656 830.523438 791.761719 830.523438 C 778.449219 830.523438 776.925781 840.597656 776.925781 850.117188 L 776.925781 862.691406 Z M 782.859375 856.855469 L 782.859375 848.65625 C 782.859375 842.960938 784 836.777344 791.761719 836.777344 C 800.664062 836.777344 800.664062 845.183594 800.664062 851.644531 L 800.664062 856.855469 Z M 830.789062 820.242188 L 830.789062 814.40625 L 803.402344 814.40625 L 803.402344 813.570312 L 830.789062 790.160156 L 830.789062 781.613281 L 801.5 807.109375 L 776.925781 782.792969 L 776.925781 791.203125 L 800.207031 813.570312 L 800.207031 814.40625 L 776.925781 814.40625 L 776.925781 820.242188 Z M 823.03125 574.710938 L 823.03125 581.03125 L 841.289062 585.757812 L 841.289062 580.40625 Z M 830.789062 544.628906 L 830.789062 538.792969 L 805.683594 538.792969 L 805.683594 512.53125 L 830.789062 512.53125 L 830.789062 506.691406 L 776.925781 506.691406 L 776.925781 512.53125 L 799.75 512.53125 L 799.75 538.792969 L 776.925781 538.792969 L 776.925781 544.628906 Z M 832.160156 471.605469 C 832.160156 456.667969 820.140625 445.902344 803.859375 445.902344 C 787.578125 445.902344 775.554688 456.667969 775.554688 471.605469 C 775.554688 486.542969 787.578125 497.3125 803.859375 497.3125 C 820.140625 497.3125 832.160156 486.542969 832.160156 471.605469 Z M 826.226562 471.605469 C 826.226562 483.140625 816.257812 491.0625 803.859375 491.0625 C 791.457031 491.0625 781.492188 483.140625 781.492188 471.605469 C 781.492188 460.074219 791.457031 452.152344 803.859375 452.152344 C 816.257812 452.152344 826.226562 460.074219 826.226562 471.605469 Z M 830.789062 436.519531 L 830.789062 430.683594 L 785.601562 430.683594 L 785.601562 430.542969 L 830.789062 412.898438 L 830.789062 409.355469 L 785.601562 391.707031 L 785.601562 391.566406 L 830.789062 391.566406 L 830.789062 385.734375 L 776.925781 385.734375 L 776.925781 394.210938 L 819.148438 411.023438 L 819.148438 411.160156 L 776.925781 427.835938 L 776.925781 436.519531 Z M 830.789062 373.503906 L 830.789062 341.335938 L 824.855469 341.335938 L 824.855469 367.667969 L 805.683594 367.667969 L 805.683594 344.253906 L 799.75 344.253906 L 799.75 367.667969 L 782.859375 367.667969 L 782.859375 342.585938 L 776.925781 342.585938 L 776.925781 373.503906 Z M 782.175781 724.640625 C 777.839844 728.949219 775.554688 735.203125 775.554688 740.757812 C 775.554688 749.929688 780.5 759.796875 792.445312 759.796875 C 802.183594 759.796875 805.683594 753.476562 807.890625 747.222656 C 810.171875 740.757812 811.464844 737.007812 815.574219 737.007812 C 819.910156 737.007812 821.433594 740.203125 821.433594 743.816406 C 821.433594 747.707031 819 752.082031 815.726562 754.445312 L 824.398438 762.230469 C 829.347656 757.921875 832.160156 750.832031 832.160156 743.816406 C 832.160156 734.089844 826.605469 724.988281 814.203125 724.988281 C 803.476562 724.988281 800.359375 733.605469 798 740.273438 C 796.402344 744.929688 795.261719 747.847656 791.6875 747.847656 C 787.425781 747.847656 786.285156 744.023438 786.285156 740.96875 C 786.285156 737.910156 788.109375 734.230469 790.925781 732.214844 Z M 830.789062 670.589844 L 776.925781 691.015625 L 776.925781 702.546875 L 830.789062 723.179688 L 830.789062 710.257812 L 820.214844 706.648438 L 820.214844 687.609375 L 830.789062 683.789062 Z M 809.792969 690.875 L 809.792969 703.242188 L 791.304688 696.988281 Z M 788.035156 634.113281 L 776.925781 634.113281 L 776.925781 666.488281 L 830.789062 666.488281 L 830.789062 654.746094 L 809.867188 654.746094 L 809.867188 635.710938 L 799.140625 635.710938 L 799.140625 654.746094 L 788.035156 654.746094 Z M 830.789062 592.148438 L 819.683594 592.148438 L 819.683594 615.007812 L 808.5 615.007812 L 808.5 594.578125 L 798.078125 594.578125 L 798.078125 615.007812 L 787.957031 615.007812 L 787.957031 593.398438 L 776.925781 593.398438 L 776.925781 626.46875 L 830.789062 626.46875 Z M 830.789062 271.09375 L 776.925781 271.09375 L 776.925781 282.976562 L 797.316406 282.976562 L 797.316406 302.152344 L 776.925781 302.152344 L 776.925781 314.03125 L 830.789062 314.03125 L 830.789062 302.152344 L 808.273438 302.152344 L 808.273438 282.976562 L 830.789062 282.976562 Z M 830.789062 226.632812 L 819.683594 226.632812 L 819.683594 249.488281 L 808.5 249.488281 L 808.5 229.0625 L 798.078125 229.0625 L 798.078125 249.488281 L 787.957031 249.488281 L 787.957031 227.882812 L 776.925781 227.882812 L 776.925781 260.953125 L 830.789062 260.953125 Z M 830.789062 172.230469 L 776.925781 192.65625 L 776.925781 204.191406 L 830.789062 224.824219 L 830.789062 211.902344 L 820.214844 208.289062 L 820.214844 189.25 L 830.789062 185.429688 Z M 809.792969 192.515625 L 809.792969 204.882812 L 791.304688 198.628906 Z M 830.789062 137.144531 L 819.453125 137.144531 L 819.453125 156.179688 L 776.925781 156.179688 L 776.925781 168.128906 L 830.789062 168.128906 Z M 788.035156 102.128906 L 776.925781 102.128906 L 776.925781 141.800781 L 788.035156 141.800781 L 788.035156 127.902344 L 830.789062 127.902344 L 830.789062 116.023438 L 788.035156 116.023438 Z M 830.789062 53.769531 L 776.925781 53.769531 L 776.925781 65.652344 L 797.316406 65.652344 L 797.316406 84.828125 L 776.925781 84.828125 L 776.925781 96.707031 L 830.789062 96.707031 L 830.789062 84.828125 L 808.273438 84.828125 L 808.273438 65.652344 L 830.789062 65.652344 Z M 776.925781 0.832031 L 776.925781 14.726562 L 796.859375 25.21875 L 776.925781 35.707031 L 776.925781 50.089844 L 807.96875 31.609375 L 830.789062 31.609375 L 830.789062 19.726562 L 807.96875 19.726562 Z M 776.925781 0.832031 "/>
</g>
<path fill-rule="nonzero" fill="rgb(25.881958%, 27.058411%, 29.019165%)" fill-opacity="1" d="M 585.273438 1160.582031 C 585.273438 1161.605469 585.855469 1162.433594 586.574219 1162.433594 L 591.128906 1162.433594 C 595.796875 1162.433594 598.269531 1159.304688 598.269531 1153.777344 C 598.269531 1148.253906 595.796875 1145.125 591.128906 1145.125 L 586.574219 1145.125 C 585.855469 1145.125 585.273438 1145.953125 585.273438 1146.972656 Z M 575.078125 1138.171875 C 575.078125 1137.152344 575.660156 1136.320312 576.375 1136.320312 L 592.132812 1136.320312 C 598.550781 1136.320312 608.304688 1140.917969 608.304688 1153.777344 C 608.304688 1166.054688 598.550781 1171.234375 592.347656 1171.234375 L 576.375 1171.234375 C 575.660156 1171.234375 575.078125 1170.40625 575.078125 1169.386719 Z M 575.078125 1138.171875 "/>
<path fill-rule="nonzero" fill="rgb(54.118347%, 14.901733%, 16.078186%)" fill-opacity="1" d="M 612.09375 1162.671875 L 610.777344 1162.667969 C 610.320312 1162.667969 610.019531 1162.195312 610.203125 1161.777344 C 610.917969 1160.183594 611.636719 1156.285156 611.808594 1152.203125 C 611.835938 1151.582031 612.25 1151.054688 612.871094 1151.058594 L 623.820312 1151.226562 C 624.417969 1151.230469 624.902344 1151.726562 624.878906 1152.324219 C 622.757812 1204.839844 555.691406 1198.269531 553.296875 1156.050781 C 552.273438 1125.539062 590.25 1102.625 616.640625 1131.296875 C 617.058594 1131.75 616.992188 1132.464844 616.511719 1132.84375 L 610.117188 1137.886719 C 609.671875 1138.234375 609.03125 1138.179688 608.664062 1137.753906 C 595.109375 1121.964844 567.824219 1126.699219 563.804688 1150.824219 C 563.796875 1150.867188 563.792969 1150.910156 563.789062 1150.953125 C 561.464844 1182.382812 602.125 1189.269531 612.671875 1163.550781 C 612.84375 1163.136719 612.546875 1162.675781 612.09375 1162.671875 "/>
<path fill-rule="nonzero" fill="rgb(25.881958%, 27.058411%, 29.019165%)" fill-opacity="1" d="M 642.5625 1150.292969 C 642.5625 1150.75 642.933594 1151.121094 643.390625 1151.121094 L 646.910156 1151.121094 C 650.371094 1151.121094 651.765625 1149.40625 651.765625 1146.371094 C 651.765625 1143.339844 650.371094 1141.621094 646.910156 1141.621094 L 643.390625 1141.621094 C 642.933594 1141.621094 642.5625 1141.992188 642.5625 1142.449219 Z M 634.996094 1137.621094 C 634.996094 1137.160156 635.367188 1136.792969 635.824219 1136.792969 L 649.726562 1136.792969 C 656.222656 1136.792969 659.65625 1139.3125 659.65625 1146.371094 C 659.65625 1153.109375 656.25 1155.953125 649.890625 1155.953125 L 635.824219 1155.953125 C 635.367188 1155.953125 634.996094 1155.582031 634.996094 1155.125 Z M 634.996094 1137.621094 "/>
<path fill-rule="nonzero" fill="rgb(25.881958%, 27.058411%, 29.019165%)" fill-opacity="1" d="M 666.121094 1136.792969 L 684.832031 1136.792969 C 685.289062 1136.792969 685.660156 1137.164062 685.660156 1137.621094 L 685.660156 1140.632812 C 685.660156 1141.089844 685.289062 1141.460938 684.832031 1141.460938 L 673.6875 1141.460938 C 673.230469 1141.460938 672.859375 1141.832031 672.859375 1142.289062 L 672.859375 1143.210938 C 672.859375 1143.667969 673.230469 1144.035156 673.6875 1144.035156 L 683.921875 1144.035156 C 684.378906 1144.035156 684.75 1144.40625 684.75 1144.863281 L 684.75 1147.878906 C 684.75 1148.335938 684.378906 1148.707031 683.921875 1148.707031 L 673.6875 1148.707031 C 673.230469 1148.707031 672.859375 1149.078125 672.859375 1149.535156 L 672.859375 1150.457031 C 672.859375 1150.914062 673.230469 1151.28125 673.6875 1151.28125 L 684.832031 1151.28125 C 685.289062 1151.28125 685.660156 1151.652344 685.660156 1152.109375 L 685.660156 1155.125 C 685.660156 1155.582031 685.289062 1155.953125 684.832031 1155.953125 L 666.121094 1155.953125 C 665.664062 1155.953125 665.292969 1155.582031 665.292969 1155.125 L 665.292969 1137.621094 C 665.292969 1137.164062 665.664062 1136.792969 666.121094 1136.792969 "/>
<path fill-rule="nonzero" fill="rgb(25.881958%, 27.058411%, 29.019165%)" fill-opacity="1" d="M 695.402344 1147.820312 C 691.699219 1147.257812 690.167969 1145.109375 690.167969 1142.425781 C 690.167969 1137.460938 695.027344 1136.121094 701.25 1136.121094 C 709.074219 1136.121094 712.679688 1137.992188 713.433594 1141.425781 C 713.542969 1141.929688 713.132812 1142.398438 712.621094 1142.398438 L 705.453125 1142.398438 C 705.109375 1142.398438 704.792969 1142.191406 704.683594 1141.867188 C 704.519531 1141.390625 704.136719 1141.070312 703.613281 1140.871094 C 702.941406 1140.574219 702.082031 1140.46875 701.25 1140.46875 C 698.996094 1140.46875 698.21875 1141.03125 698.21875 1141.835938 C 698.21875 1142.375 698.460938 1142.722656 699.210938 1142.828125 L 708.253906 1144.171875 C 712.066406 1144.734375 714.429688 1146.507812 714.429688 1149.753906 C 714.429688 1154.421875 710.617188 1156.621094 702.109375 1156.621094 C 696.621094 1156.621094 690.65625 1155.910156 689.964844 1151.109375 C 689.894531 1150.617188 690.296875 1150.183594 690.792969 1150.183594 L 698.339844 1150.183594 C 698.683594 1150.183594 699.007812 1150.390625 699.113281 1150.71875 C 699.226562 1151.078125 699.457031 1151.347656 699.828125 1151.550781 C 700.394531 1151.820312 701.226562 1151.953125 702.40625 1151.953125 C 704.765625 1151.953125 705.410156 1151.308594 705.410156 1150.398438 C 705.410156 1149.835938 705.0625 1149.269531 704.042969 1149.109375 Z M 695.402344 1147.820312 "/>
<path fill-rule="nonzero" fill="rgb(25.881958%, 27.058411%, 29.019165%)" fill-opacity="1" d="M 719.710938 1136.792969 L 725.621094 1136.792969 C 726.078125 1136.792969 726.449219 1137.164062 726.449219 1137.621094 L 726.449219 1155.125 C 726.449219 1155.582031 726.078125 1155.953125 725.621094 1155.953125 L 719.710938 1155.953125 C 719.253906 1155.953125 718.882812 1155.582031 718.882812 1155.125 L 718.882812 1137.621094 C 718.882812 1137.164062 719.253906 1136.792969 719.710938 1136.792969 "/>
<path fill-rule="nonzero" fill="rgb(25.881958%, 27.058411%, 29.019165%)" fill-opacity="1" d="M 747.109375 1145.03125 L 756.214844 1145.03125 C 756.671875 1145.03125 757.042969 1145.402344 757.042969 1145.859375 L 757.042969 1155.125 C 757.042969 1155.582031 756.671875 1155.953125 756.214844 1155.953125 L 754.308594 1155.953125 C 753.996094 1155.953125 753.707031 1155.773438 753.566406 1155.488281 L 753.398438 1155.144531 C 753.171875 1154.6875 752.589844 1154.519531 752.175781 1154.8125 C 750.332031 1156.109375 747.964844 1156.621094 744.160156 1156.621094 C 738.847656 1156.621094 731.628906 1155.308594 731.628906 1146.453125 C 731.628906 1138.050781 738.335938 1136.121094 744.132812 1136.121094 C 751.964844 1136.121094 755.96875 1138.113281 756.972656 1142.355469 C 757.09375 1142.871094 756.6875 1143.367188 756.160156 1143.367188 L 749.222656 1143.367188 C 748.878906 1143.367188 748.578125 1143.144531 748.449219 1142.824219 C 748.175781 1142.140625 747.699219 1141.6875 747.140625 1141.40625 C 746.414062 1141.058594 745.554688 1140.949219 744.5625 1140.949219 C 741.476562 1140.949219 739.519531 1142.480469 739.519531 1146.371094 C 739.519531 1149.914062 741.398438 1151.792969 745.152344 1151.792969 C 746.648438 1151.792969 747.691406 1151.4375 748.398438 1150.835938 C 748.984375 1150.339844 748.628906 1149.378906 747.859375 1149.378906 L 747.109375 1149.378906 C 746.652344 1149.378906 746.28125 1149.007812 746.28125 1148.550781 L 746.28125 1145.859375 C 746.28125 1145.402344 746.652344 1145.03125 747.109375 1145.03125 "/>
<path fill-rule="nonzero" fill="rgb(25.881958%, 27.058411%, 29.019165%)" fill-opacity="1" d="M 763.746094 1136.792969 L 771.136719 1136.792969 C 771.402344 1136.792969 771.652344 1136.917969 771.808594 1137.132812 L 779.234375 1147.417969 L 779.316406 1147.417969 L 779.316406 1137.621094 C 779.316406 1137.164062 779.683594 1136.792969 780.140625 1136.792969 L 785.734375 1136.792969 C 786.191406 1136.792969 786.5625 1137.164062 786.5625 1137.621094 L 786.5625 1155.125 C 786.5625 1155.582031 786.191406 1155.953125 785.734375 1155.953125 L 778.683594 1155.953125 C 778.421875 1155.953125 778.175781 1155.828125 778.019531 1155.621094 L 770.21875 1145.21875 L 770.164062 1145.21875 L 770.164062 1155.125 C 770.164062 1155.582031 769.792969 1155.953125 769.335938 1155.953125 L 763.746094 1155.953125 C 763.289062 1155.953125 762.917969 1155.582031 762.917969 1155.125 L 762.917969 1137.621094 C 762.917969 1137.164062 763.289062 1136.792969 763.746094 1136.792969 "/>
<path fill-rule="nonzero" fill="rgb(25.881958%, 27.058411%, 29.019165%)" fill-opacity="1" d="M 793.507812 1136.792969 L 812.21875 1136.792969 C 812.675781 1136.792969 813.046875 1137.164062 813.046875 1137.621094 L 813.046875 1140.632812 C 813.046875 1141.089844 812.675781 1141.460938 812.21875 1141.460938 L 801.074219 1141.460938 C 800.617188 1141.460938 800.246094 1141.832031 800.246094 1142.289062 L 800.246094 1143.210938 C 800.246094 1143.667969 800.617188 1144.035156 801.074219 1144.035156 L 811.304688 1144.035156 C 811.765625 1144.035156 812.132812 1144.40625 812.132812 1144.863281 L 812.132812 1147.878906 C 812.132812 1148.335938 811.765625 1148.707031 811.304688 1148.707031 L 801.074219 1148.707031 C 800.617188 1148.707031 800.246094 1149.078125 800.246094 1149.535156 L 800.246094 1150.457031 C 800.246094 1150.914062 800.617188 1151.28125 801.074219 1151.28125 L 812.21875 1151.28125 C 812.675781 1151.28125 813.046875 1151.652344 813.046875 1152.109375 L 813.046875 1155.125 C 813.046875 1155.582031 812.675781 1155.953125 812.21875 1155.953125 L 793.507812 1155.953125 C 793.050781 1155.953125 792.679688 1155.582031 792.679688 1155.125 L 792.679688 1137.621094 C 792.679688 1137.164062 793.050781 1136.792969 793.507812 1136.792969 "/>
<g clip-path="url(#clip-1)">
<path fill-rule="nonzero" fill="rgb(25.881958%, 27.058411%, 29.019165%)" fill-opacity="1" d="M 826.0625 1144.390625 C 826.0625 1144.847656 826.433594 1145.21875 826.890625 1145.21875 L 831.429688 1145.21875 C 832.902344 1145.21875 833.519531 1144.628906 833.519531 1143.417969 C 833.519531 1141.972656 832.582031 1141.621094 831.320312 1141.621094 L 826.890625 1141.621094 C 826.433594 1141.621094 826.0625 1141.992188 826.0625 1142.449219 Z M 818.492188 1137.617188 C 818.492188 1137.160156 818.863281 1136.792969 819.320312 1136.792969 L 834.433594 1136.792969 C 836.609375 1136.792969 837.921875 1136.980469 838.96875 1137.488281 C 840.390625 1138.1875 841.574219 1140.039062 841.574219 1142.132812 C 841.574219 1143.929688 840.820312 1145.863281 838.621094 1146.507812 L 838.621094 1146.558594 C 839.75 1146.882812 840.660156 1147.847656 840.792969 1149.511719 L 841.117188 1153.699219 C 841.152344 1154.082031 841.246094 1154.453125 841.382812 1154.796875 C 841.597656 1155.351562 841.21875 1155.953125 840.621094 1155.953125 L 834.414062 1155.953125 C 834.011719 1155.953125 833.660156 1155.667969 833.597656 1155.269531 C 833.507812 1154.691406 833.476562 1153.824219 833.386719 1152.328125 C 833.308594 1150.90625 832.824219 1150.046875 831.429688 1150.046875 L 826.890625 1150.046875 C 826.433594 1150.046875 826.0625 1150.417969 826.0625 1150.875 L 826.0625 1155.125 C 826.0625 1155.582031 825.691406 1155.953125 825.234375 1155.953125 L 819.320312 1155.953125 C 818.863281 1155.953125 818.492188 1155.582031 818.492188 1155.125 Z M 818.492188 1137.617188 "/>
</g>
<path fill-rule="nonzero" fill="rgb(54.118347%, 14.901733%, 16.078186%)" fill-opacity="1" d="M 649.457031 1169.191406 L 658.5625 1169.191406 C 659.019531 1169.191406 659.390625 1169.5625 659.390625 1170.019531 L 659.390625 1179.289062 C 659.390625 1179.746094 659.019531 1180.117188 658.5625 1180.117188 L 656.65625 1180.117188 C 656.339844 1180.117188 656.054688 1179.9375 655.914062 1179.652344 L 655.746094 1179.308594 C 655.519531 1178.851562 654.9375 1178.683594 654.523438 1178.976562 C 652.679688 1180.273438 650.3125 1180.785156 646.507812 1180.785156 C 641.195312 1180.785156 633.976562 1179.472656 633.976562 1170.617188 C 633.976562 1162.214844 640.683594 1160.285156 646.480469 1160.285156 C 654.3125 1160.285156 658.316406 1162.277344 659.320312 1166.519531 C 659.441406 1167.035156 659.035156 1167.53125 658.507812 1167.53125 L 651.570312 1167.53125 C 651.226562 1167.53125 650.925781 1167.308594 650.796875 1166.988281 C 650.523438 1166.304688 650.046875 1165.851562 649.488281 1165.570312 C 648.761719 1165.222656 647.902344 1165.113281 646.910156 1165.113281 C 643.824219 1165.113281 641.867188 1166.644531 641.867188 1170.535156 C 641.867188 1174.078125 643.746094 1175.957031 647.5 1175.957031 C 648.996094 1175.957031 650.039062 1175.601562 650.746094 1175 C 651.332031 1174.503906 650.976562 1173.539062 650.207031 1173.539062 L 649.457031 1173.539062 C 649 1173.539062 648.628906 1173.171875 648.628906 1172.714844 L 648.628906 1170.019531 C 648.628906 1169.5625 649 1169.191406 649.457031 1169.191406 "/>
<path fill-rule="nonzero" fill="rgb(54.118347%, 14.901733%, 16.078186%)" fill-opacity="1" d="M 673.371094 1168.554688 C 673.371094 1169.011719 673.742188 1169.382812 674.199219 1169.382812 L 678.738281 1169.382812 C 680.210938 1169.382812 680.828125 1168.792969 680.828125 1167.582031 C 680.828125 1166.132812 679.890625 1165.785156 678.628906 1165.785156 L 674.199219 1165.785156 C 673.742188 1165.785156 673.371094 1166.15625 673.371094 1166.613281 Z M 665.800781 1161.78125 C 665.800781 1161.324219 666.171875 1160.953125 666.628906 1160.953125 L 681.742188 1160.953125 C 683.917969 1160.953125 685.230469 1161.140625 686.277344 1161.652344 C 687.699219 1162.351562 688.878906 1164.203125 688.878906 1166.296875 C 688.878906 1168.09375 688.128906 1170.023438 685.929688 1170.667969 L 685.929688 1170.722656 C 687.054688 1171.046875 687.96875 1172.011719 688.101562 1173.675781 L 688.425781 1177.863281 C 688.460938 1178.242188 688.554688 1178.617188 688.691406 1178.960938 C 688.910156 1179.515625 688.527344 1180.117188 687.933594 1180.117188 L 681.722656 1180.117188 C 681.320312 1180.117188 680.96875 1179.832031 680.90625 1179.433594 C 680.816406 1178.855469 680.785156 1177.988281 680.695312 1176.492188 C 680.613281 1175.070312 680.132812 1174.210938 678.738281 1174.210938 L 674.199219 1174.210938 C 673.742188 1174.210938 673.371094 1174.582031 673.371094 1175.039062 L 673.371094 1179.289062 C 673.371094 1179.746094 673 1180.117188 672.542969 1180.117188 L 666.628906 1180.117188 C 666.171875 1180.117188 665.800781 1179.746094 665.800781 1179.289062 Z M 665.800781 1161.78125 "/>
<path fill-rule="nonzero" fill="rgb(54.118347%, 14.901733%, 16.078186%)" fill-opacity="1" d="M 706.644531 1175.957031 C 709.730469 1175.957031 711.691406 1174.425781 711.691406 1170.535156 C 711.691406 1166.644531 709.730469 1165.113281 706.644531 1165.113281 C 703.558594 1165.113281 701.601562 1166.644531 701.601562 1170.535156 C 701.601562 1174.425781 703.558594 1175.957031 706.644531 1175.957031 Z M 706.644531 1160.285156 C 711.234375 1160.285156 719.742188 1160.605469 719.742188 1170.535156 C 719.742188 1180.464844 711.234375 1180.785156 706.644531 1180.785156 C 702.058594 1180.785156 693.550781 1180.464844 693.550781 1170.535156 C 693.550781 1160.605469 702.058594 1160.285156 706.644531 1160.285156 "/>
<path fill-rule="nonzero" fill="rgb(54.118347%, 14.901733%, 16.078186%)" fill-opacity="1" d="M 725.800781 1160.953125 L 731.714844 1160.953125 C 732.171875 1160.953125 732.542969 1161.324219 732.542969 1161.78125 L 732.542969 1171.054688 C 732.542969 1174.046875 733.734375 1175.710938 736.722656 1175.761719 C 738.980469 1175.796875 740.324219 1174.332031 740.324219 1172.546875 L 740.324219 1161.78125 C 740.324219 1161.324219 740.695312 1160.953125 741.152344 1160.953125 L 747.0625 1160.953125 C 747.519531 1160.953125 747.890625 1161.324219 747.890625 1161.78125 L 747.890625 1172.84375 C 747.890625 1178.933594 744.214844 1180.785156 736.433594 1180.785156 C 728.648438 1180.785156 724.972656 1178.933594 724.972656 1172.84375 L 724.972656 1161.78125 C 724.972656 1161.324219 725.34375 1160.953125 725.800781 1160.953125 "/>
<path fill-rule="nonzero" fill="rgb(54.118347%, 14.901733%, 16.078186%)" fill-opacity="1" d="M 761.710938 1168.660156 C 761.710938 1169.117188 762.082031 1169.488281 762.539062 1169.488281 L 766.59375 1169.488281 C 768.5 1169.488281 769.222656 1168.898438 769.222656 1167.503906 C 769.222656 1166.054688 768.5 1165.464844 766.59375 1165.464844 L 762.539062 1165.464844 C 762.082031 1165.464844 761.710938 1165.832031 761.710938 1166.292969 Z M 754.144531 1161.78125 C 754.144531 1161.324219 754.515625 1160.953125 754.972656 1160.953125 L 769.761719 1160.953125 C 775.128906 1160.953125 777.113281 1163.371094 777.113281 1167.636719 C 777.113281 1171.3125 775.183594 1174.15625 769.816406 1174.15625 L 762.539062 1174.15625 C 762.082031 1174.15625 761.710938 1174.53125 761.710938 1174.984375 L 761.710938 1179.289062 C 761.710938 1179.746094 761.339844 1180.117188 760.882812 1180.117188 L 754.972656 1180.117188 C 754.515625 1180.117188 754.144531 1179.746094 754.144531 1179.289062 Z M 754.144531 1161.78125 "/>
<path fill-rule="nonzero" fill="rgb(0%, 0%, 0%)" fill-opacity="1" d="M 571.078125 1063.65625 L 588.050781 1035.167969 L 573.957031 1035.167969 L 573.957031 1027.28125 L 603.914062 1027.28125 L 585.992188 1055.722656 L 601.875 1055.722656 L 601.875 1063.65625 Z M 571.078125 1063.65625 "/>
<path fill-rule="nonzero" fill="rgb(0%, 0%, 0%)" fill-opacity="1" d="M 607.257812 1027.28125 L 627.464844 1027.28125 L 627.464844 1034.300781 L 615.261719 1034.300781 L 615.261719 1041.578125 L 627.535156 1041.578125 L 627.535156 1048.460938 L 615.261719 1048.460938 L 615.261719 1056.972656 L 627.464844 1056.972656 L 627.464844 1063.65625 L 607.257812 1063.65625 Z M 607.257812 1027.28125 "/>
<path fill-rule="nonzero" fill="rgb(0%, 0%, 0%)" fill-opacity="1" d="M 698.042969 1070.449219 L 707.851562 1070.449219 L 707.851562 1084.589844 L 720.929688 1084.589844 L 720.929688 1070.449219 L 730.738281 1070.449219 L 730.738281 1106.824219 L 720.929688 1106.824219 L 720.929688 1092.515625 L 707.851562 1092.515625 L 707.851562 1106.824219 L 698.042969 1106.824219 Z M 698.042969 1070.449219 "/>
<path fill-rule="nonzero" fill="rgb(0%, 0%, 0%)" fill-opacity="1" d="M 756.179688 1093.238281 L 751.253906 1080.105469 L 746.390625 1093.238281 Z M 747.425781 1070.449219 L 754.851562 1070.449219 L 769.46875 1106.824219 L 761.542969 1106.824219 L 758.863281 1099.5 L 744.085938 1099.5 L 741.339844 1106.824219 L 733.425781 1106.824219 Z M 747.425781 1070.449219 "/>
<path fill-rule="nonzero" fill="rgb(0%, 0%, 0%)" fill-opacity="1" d="M 775.882812 1087.566406 L 777.484375 1087.566406 C 782.824219 1087.566406 786.796875 1085.089844 786.941406 1080.417969 C 787.089844 1075.78125 784.367188 1074.109375 778.980469 1074.109375 L 775.882812 1074.109375 Z M 771.925781 1070.449219 L 779.933594 1070.449219 C 783.175781 1070.449219 785.007812 1070.769531 787.105469 1072.5 C 789.058594 1074.125 790.945312 1076.804688 790.945312 1080.367188 C 790.945312 1086.320312 786.359375 1090.582031 781.746094 1090.511719 C 781.507812 1090.511719 781.984375 1090.511719 781.746094 1090.511719 L 793.160156 1106.824219 L 788.011719 1106.824219 L 777.011719 1090.511719 L 775.882812 1090.511719 L 775.882812 1106.824219 L 771.925781 1106.824219 Z M 771.925781 1070.449219 "/>
<path fill-rule="nonzero" fill="rgb(0%, 0%, 0%)" fill-opacity="1" d="M 635.644531 1044.34375 L 637.246094 1044.34375 C 642.585938 1044.34375 646.558594 1041.871094 646.707031 1037.199219 C 646.851562 1032.558594 644.132812 1030.890625 638.746094 1030.890625 L 635.644531 1030.890625 Z M 631.6875 1027.226562 L 639.699219 1027.226562 C 642.9375 1027.226562 644.773438 1027.546875 646.871094 1029.277344 C 648.824219 1030.90625 650.710938 1033.585938 650.710938 1037.148438 C 650.710938 1043.101562 646.121094 1047.359375 641.507812 1047.292969 C 641.269531 1047.289062 641.746094 1047.292969 641.507812 1047.292969 L 652.921875 1063.601562 L 647.773438 1063.601562 L 636.773438 1047.292969 L 635.644531 1047.292969 L 635.644531 1063.601562 L 631.6875 1063.601562 Z M 631.6875 1027.226562 "/>
<path fill-rule="nonzero" fill="rgb(0%, 0%, 0%)" fill-opacity="1" d="M 689.582031 1045.765625 C 689.582031 1036.71875 682.246094 1029.382812 673.199219 1029.382812 C 664.148438 1029.382812 656.8125 1036.71875 656.8125 1045.765625 C 656.8125 1054.816406 664.148438 1062.152344 673.199219 1062.152344 C 682.246094 1062.152344 689.582031 1054.816406 689.582031 1045.765625 Z M 673.199219 1064.621094 C 662.785156 1064.621094 654.34375 1056.179688 654.34375 1045.765625 C 654.34375 1035.355469 662.785156 1026.914062 673.199219 1026.914062 C 683.609375 1026.914062 692.050781 1035.355469 692.050781 1045.765625 C 692.050781 1056.179688 683.609375 1064.621094 673.199219 1064.621094 "/>
<path fill-rule="nonzero" fill="rgb(0%, 0%, 0%)" fill-opacity="1" d="M 797.804688 1106.902344 L 795.605469 1106.902344 L 803.496094 1069.125 L 816.691406 1102.109375 L 830.277344 1069.351562 L 838.113281 1106.84375 L 835.632812 1106.84375 L 829.488281 1076.679688 L 816.632812 1108.027344 L 804.230469 1076.851562 Z M 797.804688 1106.902344 "/>
<path fill-rule="nonzero" fill="rgb(0%, 0%, 0%)" fill-opacity="1" d="M 734.996094 1067.097656 C 734.996094 1044.820312 716.9375 1026.761719 694.660156 1026.761719 L 694.660156 1067.25 Z M 734.996094 1067.097656 "/>
<path fill-rule="nonzero" fill="rgb(0%, 0%, 0%)" fill-opacity="1" d="M 654.3125 1067.414062 C 654.3125 1089.691406 672.371094 1107.75 694.648438 1107.75 L 694.648438 1067.261719 Z M 654.3125 1067.414062 "/>
</svg>
