<?xml version="1.0" encoding="UTF-8"?>
<svg xmlns="http://www.w3.org/2000/svg" xmlns:xlink="http://www.w3.org/1999/xlink" width="92.648437" height="52.832031" viewBox="53.417969 192.050781 92.648437 52.832031">
  <defs></defs>
  <path fill-rule="evenodd" fill="rgb(92.939758%, 10.978699%, 14.118958%)" fill-opacity="1" d="M 82.195312 193.972656 L 82.195312 215.445312 L 75.605469 215.445312 C 72.53125 215.445312 70.574219 215.722656 69.730469 216.269531 C 68.886719 216.820312 68.46875 217.734375 68.46875 219.015625 C 68.46875 220.40625 69.035156 221.460938 70.171875 222.171875 C 71.304688 222.886719 73.027344 223.242188 75.335938 223.242188 C 78.304688 223.242188 80.539062 222.84375 82.039062 222.039062 C 83.542969 221.273438 85.355469 219.097656 87.476562 215.507812 C 93.585938 205.214844 98.597656 198.734375 102.515625 196.058594 C 106.433594 193.386719 112.746094 192.050781 121.460938 192.050781 C 127.796875 192.050781 132.464844 192.792969 135.464844 194.273438 C 138.46875 195.757812 140.984375 198.621094 143.015625 202.871094 C 145.050781 207.117188 146.066406 212.058594 146.066406 217.699219 C 146.066406 223.886719 144.894531 229.164062 142.550781 233.539062 C 140.207031 237.914062 137.222656 240.78125 133.597656 242.136719 C 129.972656 243.492188 124.828125 244.167969 118.167969 244.167969 L 112.347656 244.167969 L 112.347656 222.695312 L 123.164062 222.695312 C 126.496094 222.695312 128.636719 222.394531 129.589844 221.789062 C 130.542969 221.183594 131.019531 220.113281 131.019531 218.574219 C 131.019531 217.039062 130.414062 215.894531 129.203125 215.144531 C 127.996094 214.394531 126.203125 214.019531 123.824219 214.019531 C 118.589844 214.019531 115.164062 214.730469 113.554688 216.160156 C 111.941406 217.625 109.253906 221.230469 105.480469 226.980469 C 101.671875 232.726562 98.910156 236.535156 97.1875 238.402344 C 95.46875 240.269531 93.089844 241.816406 90.050781 243.042969 C 87.011719 244.269531 83.128906 244.882812 78.40625 244.882812 C 71.597656 244.882812 66.617188 244.011719 63.46875 242.273438 C 60.320312 240.535156 57.859375 237.722656 56.082031 233.84375 C 54.308594 229.960938 53.417969 225.277344 53.417969 219.785156 C 53.417969 213.78125 54.390625 208.664062 56.332031 204.433594 C 58.269531 200.207031 60.714844 197.40625 63.660156 196.03125 C 66.609375 194.660156 71.617188 193.972656 78.679688 193.972656 L 82.195312 193.972656 "/>
</svg>