<?xml version="1.0" encoding="UTF-8"?>
<svg xmlns="http://www.w3.org/2000/svg" xmlns:xlink="http://www.w3.org/1999/xlink" width="95.86328200000003" height="57.953124" viewBox="784.566406 372.117188 95.86328200000003 57.953124">
  <defs></defs>
  <path fill-rule="evenodd" fill="rgb(97.410583%, 97.364807%, 97.375488%)" fill-opacity="1" d="M 860.285156 401.40625 C 860.296875 401.335938 860.300781 401.265625 860.296875 401.195312 C 860.300781 401.074219 860.285156 400.953125 860.253906 400.835938 C 860.144531 400.785156 860.027344 400.75 859.910156 400.726562 C 859.648438 400.664062 859.382812 400.617188 859.117188 400.582031 C 858.5 400.496094 857.878906 400.4375 857.253906 400.40625 C 856.519531 400.363281 855.789062 400.339844 855.054688 400.324219 C 854.242188 400.3125 853.429688 400.304688 852.617188 400.304688 L 784.566406 400.304688 L 784.566406 372.117188 L 846.519531 372.117188 C 847.421875 372.117188 848.324219 372.117188 849.226562 372.121094 C 850.5625 372.125 851.894531 372.144531 853.230469 372.183594 C 854.503906 372.214844 855.773438 372.28125 857.042969 372.378906 C 857.828125 372.4375 858.617188 372.515625 859.402344 372.609375 C 859.984375 372.683594 860.5625 372.769531 861.140625 372.871094 C 862.019531 373.03125 862.890625 373.238281 863.746094 373.5 C 864.640625 373.773438 865.515625 374.113281 866.363281 374.511719 C 867.15625 374.886719 867.925781 375.3125 868.667969 375.777344 C 870.410156 376.878906 872.011719 378.191406 873.433594 379.6875 C 874.546875 380.859375 875.53125 382.148438 876.363281 383.535156 C 877.046875 384.675781 877.636719 385.867188 878.128906 387.097656 C 878.601562 388.28125 878.996094 389.492188 879.3125 390.726562 C 879.71875 392.3125 880.011719 393.925781 880.183594 395.554688 C 880.351562 397.171875 880.429688 398.800781 880.414062 400.429688 C 880.40625 402.128906 880.304688 403.824219 880.109375 405.511719 C 879.90625 407.304688 879.574219 409.078125 879.117188 410.824219 C 878.882812 411.730469 878.605469 412.628906 878.296875 413.511719 C 877.820312 414.867188 877.25 416.191406 876.585938 417.46875 C 876.246094 418.113281 875.882812 418.746094 875.492188 419.359375 C 874.058594 421.628906 872.230469 423.625 870.101562 425.257812 C 868.613281 426.410156 866.976562 427.355469 865.234375 428.070312 C 864.390625 428.410156 863.523438 428.691406 862.644531 428.914062 C 861.492188 429.195312 860.320312 429.402344 859.144531 429.53125 C 858.355469 429.621094 857.566406 429.6875 856.773438 429.738281 C 854.828125 429.859375 852.878906 429.9375 850.929688 429.980469 C 849.109375 430.019531 847.289062 430.046875 845.472656 430.054688 C 843.550781 430.066406 841.632812 430.070312 839.710938 430.070312 L 784.566406 430.070312 L 784.566406 401.882812 L 853.769531 401.882812 C 854.921875 401.886719 856.070312 401.863281 857.21875 401.816406 C 857.914062 401.789062 858.605469 401.726562 859.296875 401.628906 C 859.632812 401.585938 859.964844 401.511719 860.285156 401.40625 "/>
</svg>