<?xml version="1.0" encoding="UTF-8"?>
<svg xmlns="http://www.w3.org/2000/svg" xmlns:xlink="http://www.w3.org/1999/xlink" width="97.75" height="57.953125" viewBox="50.878906 189.484375 97.75 57.953125">
  <defs></defs>
  <path fill-rule="evenodd" fill="rgb(97.410583%, 97.364807%, 97.375488%)" fill-opacity="1" d="M 84.730469 215.101562 C 85.230469 214.328125 85.722656 213.546875 86.210938 212.765625 C 87.285156 211.058594 88.371094 209.359375 89.46875 207.671875 C 90.085938 206.726562 90.710938 205.785156 91.34375 204.855469 C 91.964844 203.941406 92.597656 203.039062 93.246094 202.144531 C 93.847656 201.316406 94.46875 200.503906 95.109375 199.703125 C 95.558594 199.148438 96.023438 198.601562 96.5 198.066406 C 97.171875 197.3125 97.886719 196.589844 98.632812 195.910156 C 99.34375 195.257812 100.101562 194.652344 100.894531 194.101562 C 102.09375 193.269531 103.378906 192.570312 104.726562 192.019531 C 105.59375 191.667969 106.480469 191.363281 107.382812 191.117188 C 108.3125 190.859375 109.253906 190.644531 110.199219 190.472656 C 111.082031 190.308594 111.96875 190.171875 112.859375 190.0625 C 114.25 189.886719 115.648438 189.757812 117.046875 189.675781 C 119.40625 189.53125 121.769531 189.484375 124.128906 189.527344 C 124.832031 189.546875 125.53125 189.574219 126.230469 189.617188 C 127.269531 189.679688 128.304688 189.785156 129.335938 189.933594 C 130.355469 190.078125 131.367188 190.28125 132.363281 190.539062 C 133.242188 190.765625 134.109375 191.050781 134.953125 191.386719 C 136.550781 192.019531 138.050781 192.871094 139.40625 193.921875 C 140.246094 194.578125 141.023438 195.308594 141.730469 196.105469 C 142.371094 196.835938 142.957031 197.609375 143.488281 198.421875 C 143.890625 199.035156 144.269531 199.671875 144.613281 200.320312 C 145.140625 201.300781 145.609375 202.3125 146.019531 203.347656 C 146.429688 204.378906 146.792969 205.425781 147.101562 206.492188 C 147.636719 208.34375 148.027344 210.230469 148.265625 212.144531 C 148.386719 213.089844 148.472656 214.035156 148.523438 214.988281 C 148.628906 216.914062 148.621094 218.84375 148.5 220.769531 C 148.40625 222.269531 148.230469 223.765625 147.972656 225.246094 C 147.707031 226.777344 147.339844 228.285156 146.875 229.769531 C 146.320312 231.546875 145.605469 233.269531 144.738281 234.914062 C 144.179688 235.972656 143.546875 236.988281 142.84375 237.957031 C 142.492188 238.433594 142.121094 238.898438 141.734375 239.34375 C 140.667969 240.570312 139.4375 241.644531 138.074219 242.527344 C 137.445312 242.9375 136.789062 243.3125 136.117188 243.644531 C 135.125 244.136719 134.097656 244.554688 133.042969 244.902344 C 131.058594 245.554688 129.011719 246.015625 126.9375 246.285156 C 126.203125 246.378906 125.464844 246.453125 124.726562 246.511719 C 123.625 246.59375 122.523438 246.644531 121.417969 246.671875 C 120.335938 246.695312 119.25 246.703125 118.164062 246.703125 L 109.8125 246.703125 L 109.8125 225.132812 C 108.519531 227.007812 107.238281 228.890625 105.976562 230.78125 C 105.261719 231.84375 104.539062 232.902344 103.808594 233.953125 C 103.101562 234.96875 102.375 235.972656 101.628906 236.960938 C 101.164062 237.574219 100.6875 238.171875 100.191406 238.757812 C 99.835938 239.179688 99.46875 239.59375 99.089844 239.996094 C 98.535156 240.585938 97.949219 241.144531 97.339844 241.675781 C 96.167969 242.683594 94.890625 243.550781 93.519531 244.265625 C 92.539062 244.78125 91.523438 245.226562 90.480469 245.601562 C 88.714844 246.230469 86.890625 246.6875 85.035156 246.960938 C 83.59375 247.171875 82.144531 247.304688 80.691406 247.359375 C 78.878906 247.429688 77.066406 247.4375 75.257812 247.378906 C 74.558594 247.355469 73.863281 247.316406 73.171875 247.265625 C 72.097656 247.1875 71.03125 247.070312 69.972656 246.90625 C 68.898438 246.742188 67.835938 246.515625 66.789062 246.230469 C 65.871094 245.976562 64.96875 245.664062 64.089844 245.296875 C 62.792969 244.75 61.558594 244.066406 60.40625 243.257812 C 59.257812 242.441406 58.203125 241.496094 57.269531 240.4375 C 56.648438 239.726562 56.074219 238.972656 55.558594 238.179688 C 55.171875 237.585938 54.8125 236.972656 54.484375 236.347656 C 53.988281 235.410156 53.550781 234.441406 53.167969 233.453125 C 52.464844 231.613281 51.929688 229.714844 51.566406 227.777344 C 51.316406 226.433594 51.136719 225.078125 51.03125 223.71875 C 50.925781 222.355469 50.878906 220.984375 50.886719 219.617188 C 50.890625 218.691406 50.917969 217.761719 50.96875 216.835938 C 51.046875 215.402344 51.191406 213.976562 51.398438 212.558594 C 51.613281 211.105469 51.90625 209.660156 52.28125 208.238281 C 52.722656 206.550781 53.300781 204.898438 54.003906 203.304688 C 54.453125 202.289062 54.96875 201.304688 55.550781 200.359375 C 56.121094 199.425781 56.773438 198.546875 57.496094 197.726562 C 58.59375 196.503906 59.871094 195.453125 61.289062 194.617188 C 62.175781 194.09375 63.109375 193.644531 64.070312 193.273438 C 65.957031 192.546875 67.925781 192.050781 69.933594 191.796875 C 70.664062 191.703125 71.394531 191.632812 72.128906 191.582031 C 73.226562 191.511719 74.328125 191.46875 75.429688 191.453125 C 76.515625 191.441406 77.601562 191.4375 78.683594 191.4375 L 84.730469 191.4375 Z M 82.761719 217.980469 L 75.605469 217.980469 C 74.964844 217.976562 74.320312 217.984375 73.679688 218.007812 C 73.332031 218.019531 72.980469 218.046875 72.632812 218.078125 C 72.277344 218.113281 71.925781 218.175781 71.582031 218.265625 C 71.433594 218.304688 71.292969 218.355469 71.152344 218.417969 C 71.117188 218.429688 71.085938 218.449219 71.054688 218.46875 C 71.023438 218.554688 71.007812 218.648438 71.003906 218.738281 C 70.984375 218.980469 71.007812 219.222656 71.070312 219.453125 C 71.101562 219.578125 71.15625 219.699219 71.234375 219.804688 C 71.304688 219.882812 71.386719 219.953125 71.476562 220.011719 C 71.621094 220.101562 71.777344 220.179688 71.9375 220.238281 C 72.265625 220.363281 72.609375 220.457031 72.953125 220.515625 C 73.429688 220.597656 73.90625 220.652344 74.390625 220.679688 C 75.828125 220.757812 77.269531 220.6875 78.695312 220.464844 C 79.070312 220.40625 79.445312 220.328125 79.8125 220.230469 C 80.167969 220.132812 80.515625 219.992188 80.839844 219.808594 C 81.101562 219.65625 81.347656 219.476562 81.574219 219.273438 C 82.011719 218.882812 82.40625 218.449219 82.761719 217.980469 Z M 113.3125 220.160156 L 123.164062 220.160156 C 123.867188 220.164062 124.566406 220.152344 125.269531 220.128906 C 125.65625 220.113281 126.039062 220.085938 126.425781 220.046875 C 126.832031 220.011719 127.230469 219.9375 127.625 219.835938 C 127.804688 219.785156 127.976562 219.726562 128.144531 219.648438 C 128.214844 219.617188 128.28125 219.578125 128.34375 219.527344 C 128.375 219.472656 128.398438 219.414062 128.414062 219.351562 C 128.449219 219.226562 128.472656 219.09375 128.480469 218.960938 C 128.503906 218.640625 128.476562 218.320312 128.398438 218.007812 C 128.363281 217.847656 128.292969 217.695312 128.199219 217.5625 C 128.117188 217.464844 128.019531 217.382812 127.914062 217.316406 C 127.75 217.214844 127.578125 217.128906 127.398438 217.058594 C 127.042969 216.925781 126.675781 216.824219 126.300781 216.757812 C 125.765625 216.660156 125.226562 216.601562 124.683594 216.578125 C 124.261719 216.558594 123.839844 216.550781 123.417969 216.550781 C 122.070312 216.550781 120.726562 216.632812 119.386719 216.789062 C 118.972656 216.839844 118.558594 216.902344 118.144531 216.976562 C 117.800781 217.039062 117.457031 217.113281 117.117188 217.207031 C 116.628906 217.335938 116.15625 217.519531 115.710938 217.761719 C 115.480469 217.890625 115.261719 218.035156 115.054688 218.203125 C 114.84375 218.378906 114.640625 218.566406 114.453125 218.765625 C 114.128906 219.117188 113.820312 219.484375 113.53125 219.863281 C 113.457031 219.964844 113.382812 220.0625 113.3125 220.160156 "/>
</svg>