<?xml version="1.0" encoding="UTF-8"?>
<svg xmlns="http://www.w3.org/2000/svg" xmlns:xlink="http://www.w3.org/1999/xlink" width="92.64453100000003" height="54.64453200000003" viewBox="785.234375 438.539062 92.64453100000003 54.64453200000003">
  <defs></defs>
  <path fill-rule="evenodd" fill="rgb(92.939758%, 10.978699%, 14.118958%)" fill-opacity="1" d="M 825.816406 438.539062 L 825.816406 461.660156 L 810.363281 461.660156 C 805.871094 461.660156 803.066406 461.910156 801.953125 462.402344 C 800.839844 462.898438 800.28125 463.988281 800.28125 465.671875 C 800.28125 467.574219 800.960938 468.78125 802.3125 469.296875 C 803.667969 469.808594 806.597656 470.0625 811.101562 470.0625 L 852.398438 470.0625 C 856.71875 470.0625 859.535156 469.808594 860.855469 469.296875 C 862.171875 468.78125 862.832031 467.628906 862.832031 465.835938 C 862.832031 464.113281 862.171875 462.988281 860.851562 462.457031 C 859.527344 461.925781 856.429688 461.660156 851.546875 461.660156 L 840.371094 461.660156 L 840.371094 438.539062 L 843.835938 438.539062 C 853.039062 438.539062 859.566406 439.191406 863.414062 440.492188 C 867.265625 441.789062 870.636719 444.664062 873.535156 449.113281 C 876.429688 453.5625 877.878906 459.042969 877.878906 465.5625 C 877.878906 472.335938 876.652344 477.917969 874.199219 482.3125 C 871.746094 486.703125 868.351562 489.613281 864.011719 491.042969 C 859.675781 492.46875 853.148438 493.183594 844.433594 493.183594 L 818.460938 493.183594 C 812.050781 493.183594 807.246094 492.964844 804.042969 492.523438 C 800.839844 492.085938 797.753906 490.777344 794.789062 488.597656 C 791.824219 486.421875 789.488281 483.398438 787.789062 479.535156 C 786.085938 475.675781 785.234375 471.234375 785.234375 466.21875 C 785.234375 459.410156 786.550781 453.789062 789.183594 449.359375 C 791.816406 444.929688 795.097656 442.019531 799.027344 440.628906 C 802.957031 439.238281 809.074219 438.539062 817.371094 438.539062 L 825.816406 438.539062 "/>
</svg>