<?xml version="1.0" encoding="UTF-8"?>
<svg xmlns="http://www.w3.org/2000/svg" xmlns:xlink="http://www.w3.org/1999/xlink" width="309.027344" height="720.601562" viewBox="2.578125 2.992188 309.027344 720.601562">
  <defs></defs>
  <path clip-rule="evenodd" d="M 243.589844 4.074219 L 243.769531 482.117188 C 245.074219 484.367188 246.269531 486.683594 247.488281 489.292969 C 248.707031 491.90625 249.949219 494.8125 250.519531 496.699219 C 251.089844 498.582031 250.988281 499.441406 250.960938 500.308594 C 250.933594 501.175781 250.980469 502.046875 251.21875 502.628906 C 251.460938 503.210938 251.894531 503.5 252.371094 503.546875 L 264.574219 503.328125 C 265.535156 503.289062 266.496094 503.542969 267.535156 504.199219 C 268.578125 504.851562 269.699219 505.910156 270.390625 507.066406 C 271.082031 508.226562 271.34375 509.488281 271.25 510.617188 C 271.15625 511.746094 270.707031 512.742188 268.921875 519.53125 C 267.136719 526.316406 264.015625 538.898438 260.960938 551.496094 L 272.933594 551.660156 C 273.074219 550.878906 273.21875 550.101562 273.546875 549.527344 C 273.871094 548.957031 274.378906 548.597656 274.890625 548.234375 L 280.347656 548.125 C 282.3125 548.214844 284.277344 548.902344 285.71875 550.007812 C 287.15625 551.109375 288.0625 552.632812 288.566406 554.671875 C 289.066406 556.714844 289.164062 559.277344 288.636719 561.210938 C 288.105469 563.140625 286.949219 564.441406 285.824219 565.476562 C 284.699219 566.511719 283.601562 567.28125 281.535156 567.617188 C 279.46875 567.957031 276.4375 567.863281 272.191406 567.84375 C 267.949219 567.824219 262.488281 567.878906 257.03125 567.914062 C 256.40625 569.015625 255.859375 570.160156 255.363281 571.386719 C 254.867188 572.609375 254.421875 573.914062 254.144531 575.625 C 253.867188 577.332031 253.765625 579.445312 253.859375 580.769531 C 253.957031 582.097656 254.253906 582.628906 254.722656 582.992188 L 307.125 582.902344 C 308.09375 583.625 309.0625 584.351562 309.796875 584.871094 C 310.527344 585.390625 311.023438 585.703125 311.519531 586.019531 L 311.605469 663.160156 L 306.953125 665.160156 L 256.300781 665.273438 C 255.351562 674.609375 253.277344 683.835938 250.375 692.316406 C 247.476562 700.796875 243.75 708.527344 239.277344 713.71875 C 234.804688 718.90625 229.585938 721.554688 224.355469 722.566406 C 219.125 723.582031 213.882812 722.960938 208.886719 722.960938 C 203.890625 722.964844 199.136719 723.59375 192.871094 719.886719 C 186.605469 716.183594 178.824219 708.148438 172.988281 698.339844 C 167.148438 688.53125 163.253906 676.949219 161.796875 665.113281 C 150.960938 665.3125 140.128906 665.511719 113.589844 665.582031 C 87.054688 665.65625 44.816406 665.597656 2.578125 665.542969 L 2.613281 657.464844 L 10.164062 657.464844 L 10.207031 653.664062 L 24.191406 653.664062 L 24.191406 643.378906 L 17.484375 643.378906 L 17.484375 641.375 L 6.78125 641.375 L 6.78125 634.945312 L 15.484375 634.945312 L 15.5 631.347656 L 21.960938 631.347656 L 21.976562 628.683594 L 23.9375 628.574219 L 23.9375 624.542969 L 14.460938 624.542969 L 14.351562 622.90625 L 2.8125 623.015625 L 2.917969 617.347656 L 6.839844 617.347656 L 6.730469 616.148438 L 9.5625 616.039062 L 10.542969 611.027344 L 17.074219 607.648438 L 17.074219 599.910156 L 19.796875 599.910156 L 19.6875 596.3125 L 23.390625 596.3125 L 23.390625 593.699219 L 12.828125 593.699219 L 12.9375 592.171875 L 9.78125 592.171875 L 10.542969 590.101562 L 15.769531 588.46875 L 15.441406 586.722656 L 9.019531 586.722656 L 10.976562 584.324219 L 24.808594 584.324219 L 24.808594 583.128906 L 140.941406 583.300781 L 134.828125 565.46875 L 85.046875 565.46875 L 80.179688 560.980469 L 78.929688 522.699219 L 84.796875 513.347656 C 94.523438 514.101562 104.253906 514.855469 111.449219 515.125 C 118.644531 515.394531 123.304688 515.183594 127.96875 514.96875 L 127.972656 507.695312 L 132.855469 503.925781 L 138.417969 503.953125 L 142.914062 500.96875 L 156.84375 496.398438 C 156.757812 494.644531 156.933594 492.878906 157.363281 491.246094 C 157.796875 489.617188 158.480469 488.125 159.386719 486.621094 C 160.289062 485.121094 161.417969 483.605469 162.6875 482.226562 L 161.753906 4.074219 C 162.105469 3.523438 162.757812 3.132812 163.382812 3.152344 C 164.011719 3.171875 164.609375 3.601562 165.007812 4.089844 C 165.402344 4.574219 165.59375 5.113281 165.996094 5.398438 C 166.402344 5.683594 167.019531 5.710938 167.230469 5.238281 C 167.4375 4.769531 167.230469 3.804688 167.488281 3.398438 C 167.746094 2.992188 168.464844 3.148438 168.886719 3.429688 C 169.308594 3.710938 169.433594 4.125 169.664062 4.695312 C 169.894531 5.269531 170.226562 6 170.683594 6.082031 C 171.140625 6.160156 171.722656 5.589844 171.921875 4.925781 C 172.117188 4.261719 171.933594 3.503906 172.363281 3.3125 C 172.792969 3.121094 173.832031 3.5 174.339844 4.109375 C 174.847656 4.714844 174.820312 5.550781 174.996094 6.011719 C 175.171875 6.472656 175.546875 6.558594 175.867188 6.476562 C 176.191406 6.390625 176.460938 6.136719 176.65625 5.761719 C 176.855469 5.386719 176.972656 4.894531 177.445312 5.039062 C 177.921875 5.1875 178.746094 5.972656 179.261719 5.929688 C 179.78125 5.886719 179.992188 5.007812 180.425781 4.753906 C 180.859375 4.5 181.519531 4.871094 182.261719 5.15625 C 183.003906 5.441406 183.828125 5.644531 184.363281 5.484375 C 184.902344 5.328125 185.148438 4.8125 185.5625 4.605469 C 185.980469 4.398438 186.566406 4.503906 187.09375 4.929688 C 187.617188 5.355469 188.089844 6.105469 188.589844 6.328125 C 189.09375 6.550781 189.628906 6.246094 190.015625 5.8125 C 190.398438 5.378906 190.636719 4.8125 191.140625 4.578125 C 191.644531 4.34375 192.421875 4.445312 192.78125 4.8125 C 193.144531 5.179688 193.097656 5.8125 193.308594 6.117188 C 193.519531 6.425781 193.992188 6.402344 194.410156 6.144531 C 194.824219 5.886719 195.183594 5.390625 195.632812 5.304688 C 196.082031 5.214844 196.621094 5.535156 197.238281 5.867188 C 197.855469 6.195312 198.550781 6.53125 199.085938 6.3125 C 199.617188 6.097656 199.992188 5.328125 200.480469 5.089844 C 200.96875 4.847656 201.574219 5.132812 201.964844 5.660156 C 202.351562 6.191406 202.527344 6.964844 202.867188 7.085938 C 203.203125 7.207031 203.710938 6.675781 204.304688 6.265625 C 204.894531 5.855469 205.574219 5.570312 206.332031 5.738281 C 207.089844 5.910156 207.929688 6.542969 208.65625 6.492188 C 209.382812 6.445312 210 5.714844 210.523438 5.660156 C 211.046875 5.609375 211.476562 6.238281 211.859375 6.867188 C 212.246094 7.496094 212.582031 8.121094 213.1875 8.429688 C 213.796875 8.738281 214.667969 8.726562 215.273438 8.449219 C 215.878906 8.171875 216.21875 7.628906 216.59375 7.230469 C 216.964844 6.828125 217.371094 6.574219 217.777344 6.539062 C 218.179688 6.503906 218.582031 6.6875 219.164062 6.988281 C 219.742188 7.292969 220.503906 7.714844 221.070312 7.695312 C 221.640625 7.675781 222.011719 7.210938 222.441406 6.714844 C 222.867188 6.21875 223.355469 5.6875 223.851562 5.726562 C 224.347656 5.765625 224.851562 6.371094 225.433594 6.839844 C 226.015625 7.308594 226.667969 7.636719 227.035156 7.355469 C 227.40625 7.074219 227.488281 6.183594 227.855469 5.738281 C 228.21875 5.296875 228.863281 5.300781 229.328125 5.734375 C 229.796875 6.164062 230.089844 7.019531 230.566406 7.382812 C 231.039062 7.742188 231.703125 7.609375 232.167969 7.230469 C 232.632812 6.851562 232.90625 6.226562 233.378906 5.902344 C 233.847656 5.578125 234.523438 5.554688 234.992188 6.035156 C 235.460938 6.523438 235.726562 7.515625 236.210938 8.007812 C 236.695312 8.5 237.398438 8.488281 237.769531 8.109375 C 238.144531 7.730469 238.1875 6.984375 238.488281 6.628906 C 238.789062 6.273438 239.347656 6.3125 239.925781 6.605469 C 240.503906 6.898438 241.097656 7.453125 241.527344 7.367188 C 241.953125 7.277344 242.214844 6.554688 242.527344 5.894531 C 242.839844 5.238281 243.207031 4.648438 243.589844 4.074219 "/>
</svg>