<?xml version="1.0" encoding="UTF-8"?>
<svg xmlns="http://www.w3.org/2000/svg" xmlns:xlink="http://www.w3.org/1999/xlink" width="97.75390599999997" height="57.953125" viewBox="416.785156 189.484375 97.75390599999997 57.953125">
  <defs></defs>
  <path fill-rule="evenodd" fill="rgb(97.410583%, 97.364807%, 97.375488%)" fill-opacity="1" d="M 450.636719 215.101562 C 451.136719 214.328125 451.632812 213.546875 452.121094 212.765625 C 453.191406 211.058594 454.277344 209.359375 455.378906 207.671875 C 455.992188 206.726562 456.617188 205.785156 457.253906 204.855469 C 457.871094 203.941406 458.503906 203.039062 459.152344 202.144531 C 459.753906 201.316406 460.378906 200.503906 461.019531 199.703125 C 461.46875 199.148438 461.929688 198.601562 462.40625 198.066406 C 463.082031 197.3125 463.792969 196.589844 464.539062 195.910156 C 465.253906 195.257812 466.007812 194.652344 466.800781 194.101562 C 468 193.269531 469.285156 192.570312 470.636719 192.019531 C 471.503906 191.667969 472.390625 191.363281 473.289062 191.117188 C 474.21875 190.859375 475.160156 190.644531 476.105469 190.472656 C 476.988281 190.308594 477.875 190.171875 478.765625 190.0625 C 480.15625 189.886719 481.554688 189.757812 482.953125 189.675781 C 485.3125 189.53125 487.675781 189.484375 490.039062 189.527344 C 490.738281 189.546875 491.4375 189.574219 492.136719 189.617188 C 493.175781 189.679688 494.214844 189.785156 495.242188 189.933594 C 496.261719 190.078125 497.273438 190.28125 498.269531 190.539062 C 499.152344 190.765625 500.015625 191.050781 500.859375 191.386719 C 502.457031 192.019531 503.957031 192.871094 505.3125 193.921875 C 506.152344 194.578125 506.929688 195.308594 507.636719 196.105469 C 508.277344 196.835938 508.863281 197.609375 509.394531 198.421875 C 509.800781 199.035156 510.175781 199.671875 510.523438 200.320312 C 511.046875 201.300781 511.515625 202.3125 511.929688 203.347656 C 512.339844 204.378906 512.699219 205.425781 513.007812 206.492188 C 513.546875 208.34375 513.933594 210.230469 514.171875 212.144531 C 514.292969 213.089844 514.378906 214.035156 514.433594 214.988281 C 514.539062 216.914062 514.53125 218.84375 514.410156 220.769531 C 514.3125 222.269531 514.136719 223.765625 513.878906 225.246094 C 513.613281 226.777344 513.246094 228.285156 512.78125 229.769531 C 512.226562 231.546875 511.511719 233.269531 510.644531 234.914062 C 510.089844 235.972656 509.453125 236.988281 508.75 237.957031 C 508.402344 238.433594 508.03125 238.898438 507.640625 239.34375 C 506.574219 240.570312 505.34375 241.644531 503.980469 242.527344 C 503.351562 242.9375 502.699219 243.3125 502.023438 243.644531 C 501.03125 244.136719 500.003906 244.554688 498.949219 244.902344 C 496.964844 245.554688 494.921875 246.015625 492.847656 246.285156 C 492.109375 246.378906 491.371094 246.453125 490.632812 246.511719 C 489.53125 246.59375 488.429688 246.644531 487.324219 246.671875 C 486.242188 246.695312 485.15625 246.703125 484.070312 246.703125 L 475.71875 246.703125 L 475.71875 225.132812 C 474.425781 227.007812 473.148438 228.890625 471.882812 230.78125 C 471.167969 231.84375 470.445312 232.902344 469.714844 233.953125 C 469.011719 234.96875 468.28125 235.972656 467.535156 236.960938 C 467.070312 237.574219 466.59375 238.171875 466.097656 238.757812 C 465.742188 239.179688 465.375 239.59375 464.996094 239.996094 C 464.441406 240.585938 463.859375 241.144531 463.246094 241.675781 C 462.078125 242.683594 460.796875 243.550781 459.429688 244.265625 C 458.445312 244.78125 457.429688 245.226562 456.386719 245.601562 C 454.621094 246.230469 452.796875 246.6875 450.941406 246.960938 C 449.503906 247.171875 448.050781 247.304688 446.597656 247.359375 C 444.789062 247.429688 442.976562 247.4375 441.164062 247.378906 C 440.46875 247.355469 439.773438 247.316406 439.078125 247.265625 C 438.007812 247.1875 436.941406 247.070312 435.878906 246.90625 C 434.804688 246.742188 433.742188 246.515625 432.695312 246.230469 C 431.777344 245.976562 430.878906 245.664062 429.996094 245.296875 C 428.699219 244.75 427.464844 244.066406 426.316406 243.257812 C 425.164062 242.441406 424.109375 241.496094 423.179688 240.4375 C 422.554688 239.726562 421.984375 238.972656 421.46875 238.179688 C 421.078125 237.585938 420.722656 236.972656 420.390625 236.347656 C 419.894531 235.410156 419.457031 234.441406 419.074219 233.453125 C 418.371094 231.613281 417.835938 229.714844 417.476562 227.777344 C 417.222656 226.433594 417.046875 225.078125 416.9375 223.71875 C 416.832031 222.355469 416.785156 220.984375 416.792969 219.617188 C 416.796875 218.691406 416.824219 217.761719 416.875 216.835938 C 416.953125 215.402344 417.097656 213.976562 417.304688 212.558594 C 417.519531 211.105469 417.816406 209.660156 418.191406 208.238281 C 418.632812 206.550781 419.207031 204.898438 419.910156 203.304688 C 420.359375 202.289062 420.878906 201.304688 421.457031 200.359375 C 422.027344 199.425781 422.679688 198.546875 423.40625 197.726562 C 424.5 196.503906 425.78125 195.453125 427.195312 194.617188 C 428.085938 194.09375 429.015625 193.644531 429.976562 193.273438 C 431.867188 192.546875 433.835938 192.050781 435.84375 191.796875 C 436.570312 191.703125 437.300781 191.632812 438.035156 191.582031 C 439.136719 191.511719 440.238281 191.46875 441.339844 191.453125 C 442.421875 191.441406 443.507812 191.4375 444.59375 191.4375 L 450.636719 191.4375 Z M 448.667969 217.980469 L 441.511719 217.980469 C 440.871094 217.976562 440.230469 217.984375 439.585938 218.007812 C 439.238281 218.019531 438.886719 218.046875 438.539062 218.078125 C 438.183594 218.113281 437.835938 218.175781 437.488281 218.265625 C 437.34375 218.304688 437.199219 218.355469 437.058594 218.417969 C 437.023438 218.429688 436.992188 218.449219 436.964844 218.46875 C 436.933594 218.554688 436.914062 218.648438 436.910156 218.738281 C 436.894531 218.980469 436.914062 219.222656 436.980469 219.453125 C 437.007812 219.578125 437.0625 219.699219 437.140625 219.804688 C 437.210938 219.882812 437.292969 219.953125 437.382812 220.011719 C 437.527344 220.101562 437.683594 220.179688 437.84375 220.238281 C 438.175781 220.363281 438.515625 220.457031 438.863281 220.515625 C 439.335938 220.597656 439.816406 220.652344 440.296875 220.679688 C 441.734375 220.757812 443.179688 220.6875 444.601562 220.464844 C 444.976562 220.40625 445.351562 220.328125 445.71875 220.230469 C 446.078125 220.132812 446.421875 219.992188 446.746094 219.808594 C 447.007812 219.65625 447.253906 219.476562 447.484375 219.273438 C 447.917969 218.882812 448.316406 218.449219 448.667969 217.980469 Z M 479.21875 220.160156 L 489.074219 220.160156 C 489.773438 220.164062 490.476562 220.152344 491.175781 220.128906 C 491.5625 220.113281 491.949219 220.085938 492.335938 220.046875 C 492.738281 220.011719 493.140625 219.9375 493.53125 219.835938 C 493.710938 219.785156 493.882812 219.726562 494.050781 219.648438 C 494.125 219.617188 494.191406 219.578125 494.25 219.527344 C 494.28125 219.472656 494.308594 219.414062 494.320312 219.351562 C 494.355469 219.226562 494.378906 219.09375 494.386719 218.960938 C 494.410156 218.640625 494.382812 218.320312 494.304688 218.007812 C 494.269531 217.847656 494.203125 217.695312 494.105469 217.5625 C 494.023438 217.464844 493.929688 217.382812 493.820312 217.316406 C 493.65625 217.214844 493.484375 217.128906 493.304688 217.058594 C 492.949219 216.925781 492.582031 216.824219 492.210938 216.757812 C 491.671875 216.660156 491.132812 216.601562 490.589844 216.578125 C 490.167969 216.558594 489.746094 216.550781 489.324219 216.550781 C 487.976562 216.550781 486.632812 216.632812 485.292969 216.789062 C 484.878906 216.839844 484.464844 216.902344 484.054688 216.976562 C 483.707031 217.039062 483.363281 217.113281 483.023438 217.207031 C 482.535156 217.335938 482.0625 217.519531 481.617188 217.761719 C 481.386719 217.890625 481.167969 218.035156 480.960938 218.203125 C 480.75 218.378906 480.550781 218.566406 480.359375 218.765625 C 480.035156 219.117188 479.726562 219.484375 479.441406 219.863281 C 479.367188 219.964844 479.289062 220.0625 479.21875 220.160156 "/>
</svg>