<?xml version="1.0" encoding="UTF-8"?>
<svg xmlns="http://www.w3.org/2000/svg" xmlns:xlink="http://www.w3.org/1999/xlink" width="92.648437" height="54.64453200000003" viewBox="53.417969 438.539062 92.648437 54.64453200000003">
  <defs></defs>
  <path fill-rule="evenodd" fill="rgb(92.939758%, 10.978699%, 14.118958%)" fill-opacity="1" d="M 94.003906 438.539062 L 94.003906 461.660156 L 78.550781 461.660156 C 74.054688 461.660156 71.253906 461.910156 70.140625 462.402344 C 69.023438 462.898438 68.46875 463.988281 68.46875 465.671875 C 68.46875 467.574219 69.144531 468.78125 70.5 469.296875 C 71.851562 469.808594 74.78125 470.0625 79.285156 470.0625 L 120.585938 470.0625 C 124.902344 470.0625 127.722656 469.808594 129.039062 469.296875 C 130.359375 468.78125 131.019531 467.628906 131.019531 465.835938 C 131.019531 464.113281 130.355469 462.988281 129.035156 462.457031 C 127.714844 461.925781 124.613281 461.660156 119.730469 461.660156 L 108.558594 461.660156 L 108.558594 438.539062 L 112.019531 438.539062 C 121.222656 438.539062 127.75 439.191406 131.601562 440.492188 C 135.449219 441.789062 138.824219 444.664062 141.71875 449.113281 C 144.617188 453.5625 146.066406 459.042969 146.066406 465.5625 C 146.066406 472.335938 144.839844 477.917969 142.386719 482.3125 C 139.933594 486.703125 136.535156 489.613281 132.199219 491.042969 C 127.859375 492.46875 121.335938 493.183594 112.621094 493.183594 L 86.644531 493.183594 C 80.238281 493.183594 75.433594 492.964844 72.230469 492.523438 C 69.027344 492.085938 65.941406 490.777344 62.976562 488.597656 C 60.011719 486.421875 57.675781 483.398438 55.972656 479.535156 C 54.269531 475.675781 53.417969 471.234375 53.417969 466.21875 C 53.417969 459.410156 54.734375 453.789062 57.367188 449.359375 C 60 444.929688 63.28125 442.019531 67.214844 440.628906 C 71.144531 439.238281 77.257812 438.539062 85.558594 438.539062 L 94.003906 438.539062 "/>
</svg>