<?xml version="1.0" encoding="UTF-8"?>
<svg xmlns="http://www.w3.org/2000/svg" xmlns:xlink="http://www.w3.org/1999/xlink" width="92.64453099999997" height="54.64453200000003" viewBox="419.328125 438.539062 92.64453099999997 54.64453200000003">
  <defs></defs>
  <path fill-rule="evenodd" fill="rgb(92.939758%, 10.978699%, 14.118958%)" fill-opacity="1" d="M 459.910156 438.539062 L 459.910156 461.660156 L 444.457031 461.660156 C 439.964844 461.660156 437.160156 461.910156 436.046875 462.402344 C 434.929688 462.898438 434.375 463.988281 434.375 465.671875 C 434.375 467.574219 435.050781 468.78125 436.40625 469.296875 C 437.761719 469.808594 440.691406 470.0625 445.191406 470.0625 L 486.492188 470.0625 C 490.8125 470.0625 493.628906 469.808594 494.949219 469.296875 C 496.265625 468.78125 496.925781 467.628906 496.925781 465.835938 C 496.925781 464.113281 496.265625 462.988281 494.941406 462.457031 C 493.621094 461.925781 490.519531 461.660156 485.640625 461.660156 L 474.464844 461.660156 L 474.464844 438.539062 L 477.929688 438.539062 C 487.132812 438.539062 493.65625 439.191406 497.507812 440.492188 C 501.355469 441.789062 504.730469 444.664062 507.628906 449.113281 C 510.523438 453.5625 511.972656 459.042969 511.972656 465.5625 C 511.972656 472.335938 510.746094 477.917969 508.292969 482.3125 C 505.839844 486.703125 502.445312 489.613281 498.105469 491.042969 C 493.765625 492.46875 487.242188 493.183594 478.527344 493.183594 L 452.550781 493.183594 C 446.144531 493.183594 441.339844 492.964844 438.136719 492.523438 C 434.933594 492.085938 431.847656 490.777344 428.882812 488.597656 C 425.917969 486.421875 423.582031 483.398438 421.878906 479.535156 C 420.179688 475.675781 419.328125 471.234375 419.328125 466.21875 C 419.328125 459.410156 420.644531 453.789062 423.277344 449.359375 C 425.90625 444.929688 429.191406 442.019531 433.121094 440.628906 C 437.050781 439.238281 443.164062 438.539062 451.464844 438.539062 L 459.910156 438.539062 "/>
</svg>