<?xml version="1.0" encoding="UTF-8"?>
<svg xmlns="http://www.w3.org/2000/svg" xmlns:xlink="http://www.w3.org/1999/xlink" width="97.769531" height="59.71875" viewBox="50.859375 436.003906 97.769531 59.71875">
  <defs></defs>
  <path fill-rule="evenodd" fill="rgb(97.410583%, 97.364807%, 97.375488%)" fill-opacity="1" d="M 71.109375 464.789062 C 71.078125 464.871094 71.054688 464.957031 71.042969 465.042969 C 71.007812 465.257812 70.996094 465.476562 71 465.691406 C 71 465.960938 71.03125 466.230469 71.09375 466.492188 C 71.117188 466.601562 71.15625 466.710938 71.210938 466.808594 C 71.277344 466.847656 71.347656 466.882812 71.417969 466.910156 C 71.605469 466.980469 71.796875 467.035156 71.996094 467.078125 C 72.40625 467.167969 72.824219 467.234375 73.246094 467.285156 C 74.027344 467.375 74.8125 467.4375 75.597656 467.464844 C 76.828125 467.511719 78.054688 467.535156 79.285156 467.53125 L 120.585938 467.53125 C 121.125 467.53125 121.664062 467.527344 122.203125 467.519531 C 122.964844 467.511719 123.722656 467.488281 124.480469 467.449219 C 124.816406 467.429688 125.152344 467.40625 125.488281 467.378906 C 126.089844 467.328125 126.691406 467.25 127.285156 467.140625 C 127.558594 467.089844 127.832031 467.019531 128.09375 466.921875 C 128.167969 466.894531 128.242188 466.859375 128.308594 466.816406 C 128.347656 466.757812 128.375 466.691406 128.390625 466.621094 C 128.460938 466.371094 128.488281 466.113281 128.484375 465.851562 C 128.488281 465.625 128.464844 465.398438 128.410156 465.175781 C 128.390625 465.097656 128.363281 465.023438 128.320312 464.957031 C 128.242188 464.90625 128.160156 464.863281 128.070312 464.832031 C 127.875 464.761719 127.675781 464.703125 127.46875 464.65625 C 127.042969 464.5625 126.609375 464.492188 126.171875 464.441406 C 125.347656 464.347656 124.515625 464.285156 123.683594 464.257812 C 122.367188 464.210938 121.050781 464.191406 119.734375 464.195312 L 106.023438 464.195312 L 106.023438 436.007812 L 112.019531 436.007812 C 113.265625 436.007812 114.507812 436.007812 115.753906 436.015625 C 116.691406 436.023438 117.625 436.039062 118.558594 436.066406 C 119.949219 436.101562 121.335938 436.175781 122.71875 436.289062 C 125.191406 436.488281 127.648438 436.90625 130.050781 437.539062 C 130.847656 437.753906 131.636719 437.996094 132.410156 438.273438 C 133.566406 438.683594 134.683594 439.179688 135.757812 439.765625 C 136.847656 440.355469 137.875 441.050781 138.835938 441.832031 C 139.699219 442.542969 140.507812 443.320312 141.253906 444.15625 C 141.816406 444.789062 142.347656 445.449219 142.84375 446.132812 C 143.589844 447.164062 144.265625 448.25 144.867188 449.375 C 145.988281 451.472656 146.851562 453.699219 147.441406 456.003906 C 147.84375 457.578125 148.136719 459.179688 148.316406 460.792969 C 148.410156 461.589844 148.476562 462.386719 148.523438 463.1875 C 148.625 465.046875 148.628906 466.90625 148.527344 468.765625 C 148.441406 470.382812 148.261719 471.996094 147.988281 473.59375 C 147.707031 475.21875 147.316406 476.820312 146.8125 478.394531 C 146.46875 479.457031 146.070312 480.503906 145.613281 481.523438 C 145.269531 482.296875 144.890625 483.050781 144.476562 483.785156 C 143.859375 484.894531 143.148438 485.949219 142.359375 486.941406 C 141.5625 487.941406 140.667969 488.859375 139.6875 489.683594 C 138.816406 490.40625 137.878906 491.046875 136.890625 491.597656 C 136.15625 492.011719 135.402344 492.378906 134.625 492.703125 C 134.039062 492.949219 133.449219 493.175781 132.847656 493.378906 C 131.9375 493.6875 131.011719 493.953125 130.078125 494.183594 C 127.960938 494.703125 125.804688 495.078125 123.632812 495.300781 C 122.726562 495.394531 121.8125 495.472656 120.898438 495.527344 C 119.519531 495.609375 118.136719 495.660156 116.753906 495.6875 C 115.378906 495.710938 113.996094 495.722656 112.617188 495.71875 L 86.648438 495.71875 C 84.859375 495.722656 83.074219 495.703125 81.285156 495.667969 C 79.554688 495.636719 77.824219 495.558594 76.09375 495.441406 C 75.269531 495.386719 74.445312 495.3125 73.621094 495.226562 C 73 495.160156 72.382812 495.082031 71.765625 494.984375 C 70.824219 494.835938 69.886719 494.636719 68.964844 494.382812 C 67.09375 493.867188 65.300781 493.097656 63.640625 492.089844 C 61.136719 490.582031 58.917969 488.644531 57.089844 486.367188 C 56.480469 485.605469 55.921875 484.808594 55.414062 483.976562 C 54.671875 482.769531 54.027344 481.503906 53.484375 480.195312 C 52.964844 478.9375 52.519531 477.648438 52.160156 476.335938 C 51.691406 474.636719 51.355469 472.902344 51.152344 471.152344 C 50.949219 469.34375 50.859375 467.519531 50.890625 465.699219 C 50.898438 464.714844 50.9375 463.734375 51.007812 462.757812 C 51.113281 461.1875 51.304688 459.628906 51.582031 458.082031 C 51.875 456.453125 52.28125 454.851562 52.804688 453.28125 C 53.433594 451.410156 54.246094 449.609375 55.234375 447.902344 C 55.867188 446.8125 56.582031 445.769531 57.371094 444.785156 C 58.152344 443.808594 59.023438 442.90625 59.972656 442.085938 C 60.800781 441.375 61.691406 440.734375 62.632812 440.171875 C 63.847656 439.453125 65.125 438.847656 66.449219 438.363281 C 67.304688 438.046875 68.175781 437.769531 69.054688 437.535156 C 71.054688 436.996094 73.089844 436.613281 75.148438 436.394531 C 76.011719 436.300781 76.875 436.230469 77.738281 436.175781 C 79.046875 436.101562 80.351562 436.050781 81.660156 436.03125 C 82.960938 436.011719 84.261719 436.003906 85.558594 436.007812 L 96.539062 436.007812 L 96.539062 464.195312 L 78.550781 464.195312 C 77.601562 464.191406 76.652344 464.203125 75.707031 464.222656 C 74.925781 464.234375 74.144531 464.277344 73.367188 464.34375 C 72.867188 464.386719 72.375 464.457031 71.882812 464.554688 C 71.644531 464.601562 71.414062 464.664062 71.1875 464.753906 C 71.160156 464.765625 71.132812 464.777344 71.109375 464.789062 "/>
</svg>