<?xml version="1.0" encoding="UTF-8"?>
<svg xmlns="http://www.w3.org/2000/svg" xmlns:xlink="http://www.w3.org/1999/xlink" width="90.78125" height="52.882813000000056" viewBox="421.195312 374.644531 90.78125 52.882813000000056">
  <defs></defs>
  <path fill-rule="evenodd" fill="rgb(92.939758%, 10.978699%, 14.118958%)" fill-opacity="1" d="M 421.195312 374.644531 C 436.050781 374.644531 465.761719 374.644531 480.617188 374.644531 C 487.355469 374.644531 492.085938 374.863281 494.8125 375.300781 C 497.539062 375.742188 500.34375 377.039062 503.214844 379.203125 C 506.089844 381.359375 508.269531 384.207031 509.75 387.742188 C 511.234375 391.273438 511.976562 395.4375 511.976562 400.234375 C 511.976562 405.542969 511.097656 410.230469 509.339844 414.292969 C 507.582031 418.359375 505.292969 421.394531 502.476562 423.410156 C 499.65625 425.425781 496.679688 426.613281 493.550781 426.980469 C 490.421875 427.347656 483.839844 427.527344 473.808594 427.527344 L 421.195312 427.527344 L 421.195312 404.410156 L 487.867188 404.410156 C 491.746094 404.410156 494.226562 404.199219 495.308594 403.777344 C 496.386719 403.355469 496.929688 402.503906 496.929688 401.222656 C 496.929688 399.757812 496.332031 398.816406 495.144531 398.394531 C 493.953125 397.972656 491.144531 397.765625 486.714844 397.765625 L 421.195312 397.765625 L 421.195312 374.644531 "/>
</svg>