<?xml version="1.0" encoding="UTF-8"?>
<svg xmlns="http://www.w3.org/2000/svg" xmlns:xlink="http://www.w3.org/1999/xlink" width="92.64453099999997" height="52.832031" viewBox="419.328125 192.050781 92.64453099999997 52.832031">
  <defs></defs>
  <path fill-rule="evenodd" fill="rgb(92.939758%, 10.978699%, 14.118958%)" fill-opacity="1" d="M 448.105469 193.972656 L 448.105469 215.445312 L 441.511719 215.445312 C 438.4375 215.445312 436.480469 215.722656 435.636719 216.269531 C 434.796875 216.820312 434.375 217.734375 434.375 219.015625 C 434.375 220.40625 434.941406 221.460938 436.078125 222.171875 C 437.214844 222.886719 438.9375 223.242188 441.242188 223.242188 C 444.210938 223.242188 446.445312 222.84375 447.949219 222.039062 C 449.449219 221.273438 451.261719 219.097656 453.382812 215.507812 C 459.492188 205.214844 464.503906 198.734375 468.421875 196.058594 C 472.339844 193.386719 478.65625 192.050781 487.371094 192.050781 C 493.703125 192.050781 498.371094 192.792969 501.371094 194.273438 C 504.375 195.757812 506.894531 198.621094 508.925781 202.871094 C 510.957031 207.117188 511.972656 212.058594 511.972656 217.699219 C 511.972656 223.886719 510.800781 229.164062 508.457031 233.539062 C 506.113281 237.914062 503.128906 240.78125 499.507812 242.136719 C 495.882812 243.492188 490.738281 244.167969 484.074219 244.167969 L 478.253906 244.167969 L 478.253906 222.695312 L 489.070312 222.695312 C 492.402344 222.695312 494.546875 222.394531 495.496094 221.789062 C 496.449219 221.183594 496.925781 220.113281 496.925781 218.574219 C 496.925781 217.039062 496.320312 215.894531 495.113281 215.144531 C 493.90625 214.394531 492.109375 214.019531 489.730469 214.019531 C 484.496094 214.019531 481.070312 214.730469 479.460938 216.160156 C 477.851562 217.625 475.160156 221.230469 471.386719 226.980469 C 467.582031 232.726562 464.816406 236.535156 463.097656 238.402344 C 461.375 240.269531 458.996094 241.816406 455.957031 243.042969 C 452.917969 244.269531 449.035156 244.882812 444.3125 244.882812 C 437.503906 244.882812 432.523438 244.011719 429.378906 242.273438 C 426.226562 240.535156 423.765625 237.722656 421.988281 233.84375 C 420.214844 229.960938 419.328125 225.277344 419.328125 219.785156 C 419.328125 213.78125 420.296875 208.664062 422.238281 204.433594 C 424.179688 200.207031 426.621094 197.40625 429.570312 196.03125 C 432.515625 194.660156 437.523438 193.972656 444.589844 193.972656 L 448.105469 193.972656 "/>
</svg>