<?xml version="1.0" encoding="UTF-8"?>
<svg xmlns="http://www.w3.org/2000/svg" xmlns:xlink="http://www.w3.org/1999/xlink" width="841.8898" height="595.2756" viewBox="0 0 841.8898 595.2756">
<path fill-rule="evenodd" fill="rgb(25.881958%, 53.726196%, 67.843628%)" fill-opacity="1" d="M 494.144531 493.683594 C 492.703125 496.039062 482.128906 505.117188 478.960938 507.738281 C 476.433594 509.832031 473.671875 512.164062 470.769531 514.042969 C 467.753906 515.996094 464.660156 517.578125 461.519531 519.277344 C 453.28125 523.726562 429.9375 535.179688 420.703125 536.570312 C 424.121094 533.78125 465.730469 518.554688 493.394531 493.03125 C 494.285156 491.652344 493.367188 492.65625 494.464844 491.640625 L 499.84375 487.847656 C 498.105469 490.335938 496.609375 492.222656 494.144531 493.683594 Z M 53.597656 300.183594 C 53.703125 300.363281 53.8125 300.433594 53.851562 300.765625 L 54.648438 304.953125 C 56.289062 328.492188 59.976562 348.683594 67.347656 371.324219 C 74.253906 392.53125 83.980469 412.886719 94.496094 429.167969 C 141.726562 502.289062 217.277344 548.371094 308.835938 554.082031 C 347.910156 556.519531 385.5 551.992188 421.351562 539.664062 C 431.988281 536.007812 442.039062 530.882812 451.652344 527.464844 C 333.285156 605.492188 160.941406 562.679688 90.113281 440.148438 C 68.097656 402.066406 51.710938 353.992188 53.597656 300.183594 Z M 299.167969 49.019531 C 504.097656 39.070312 638.632812 260.769531 538.460938 436.140625 C 528.238281 454.039062 517.875 468.316406 504.390625 480.457031 C 496.429688 487.621094 487.222656 495.621094 478.363281 501.871094 C 438.492188 529.988281 390.421875 549.09375 337.726562 550.621094 C 261.269531 552.839844 192.542969 520.800781 151.285156 484.421875 C 128.773438 464.574219 111.71875 444.949219 94.609375 414.550781 C 60.355469 353.695312 55.128906 274.183594 80.234375 208.46875 C 89.402344 184.46875 109.722656 149.035156 128.21875 130.5625 C 139.203125 119.59375 147.859375 110.363281 161.191406 100.285156 C 201.226562 70.019531 244.019531 51.699219 299.167969 49.019531 Z M 508.820312 486.875 C 503.734375 491.09375 494.222656 499.46875 488.867188 502.078125 C 498.203125 494.171875 515.234375 474.261719 522.949219 464.75 L 533.8125 451.898438 C 547.667969 434.257812 558.910156 416.199219 569.691406 392.820312 C 585.984375 357.484375 594.65625 314.699219 592.78125 274.210938 C 591.804688 253.117188 589.101562 247.230469 587.539062 231.816406 C 591.390625 238.5625 594.992188 262.324219 596.140625 272.230469 C 601.0625 314.789062 593.585938 358.554688 576.71875 395.945312 C 561.113281 430.535156 536.996094 463.492188 508.820312 486.875 Z M 58.398438 281.46875 C 58.390625 261.476562 60.8125 240.871094 66.875 223.425781 C 72.722656 206.589844 79.292969 191.792969 87.253906 177.925781 C 97.203125 160.601562 103.027344 153.890625 114.898438 138.992188 C 120.949219 131.394531 141.542969 110.777344 148.660156 106.832031 C 147.121094 108.957031 145.789062 109.417969 143.898438 111.316406 C 138.753906 116.484375 135.148438 119.292969 129.953125 125.050781 C 80.703125 179.589844 59.390625 233.890625 60.457031 312.871094 C 60.035156 312.113281 60.1875 312.621094 59.769531 311.082031 Z M 576.652344 294.046875 C 572.726562 223.472656 540.652344 160.050781 494.285156 116.308594 C 442.871094 67.804688 383.066406 44.886719 305.824219 44.960938 L 307.492188 44.402344 C 308.542969 44.144531 307.605469 44.347656 308.65625 44.171875 C 309.171875 44.089844 310.402344 44 310.9375 43.964844 C 360.769531 40.5625 411.28125 50.40625 455.148438 73.082031 C 495.769531 94.082031 528.660156 123.855469 551.539062 156.574219 C 564.785156 175.519531 572.734375 196.128906 579.183594 219.292969 C 593.597656 271.054688 591.035156 323.855469 573.421875 374.214844 C 568.8125 387.398438 551.515625 426.410156 543.253906 433.878906 C 544.515625 429.804688 548.402344 423.492188 550.464844 419.152344 C 568.457031 381.296875 579.019531 336.636719 576.652344 294.046875 Z M 71.734375 202.125 C 72.457031 195.566406 81.460938 175.535156 84.578125 169.308594 C 89.765625 158.945312 94.851562 149.195312 100.992188 140.246094 C 111.863281 124.40625 128.125 103.671875 142.914062 91.226562 C 160.8125 76.160156 173.554688 65.09375 196.1875 53.582031 C 267.804688 17.160156 344.703125 10.753906 419.222656 39.859375 C 446.09375 50.351562 482.273438 72.101562 502.796875 92.644531 C 507.019531 96.875 510.195312 100.46875 514.253906 104.246094 C 516.738281 106.558594 523.347656 113.769531 524.667969 116.222656 L 501.136719 96.28125 C 436.253906 45.003906 344.285156 27.082031 263.222656 48.203125 C 218.375 59.886719 181.425781 77.429688 146.550781 104.757812 C 117.339844 127.652344 86.1875 166.25 71.734375 202.125 Z M 312.75 18.21875 C 271.289062 20.492188 235.640625 30.921875 203.320312 46.890625 C 187.375 54.769531 173.417969 63.714844 160.609375 73.332031 C 153.460938 78.699219 148.023438 83.445312 141.722656 88.722656 C 139.953125 90.207031 139.203125 91.269531 137.453125 93.011719 C 119.597656 110.804688 108.273438 122.71875 94.378906 145.519531 C 85.441406 160.179688 78.222656 174.472656 71.566406 191.890625 C 64.511719 210.355469 61.679688 226.566406 56.847656 246.347656 C 42.136719 306.554688 49.035156 366.453125 73.929688 420.738281 C 91.28125 458.578125 121.210938 493.785156 151.328125 516.015625 C 204.917969 555.570312 269.320312 576.324219 338.917969 569.21875 C 378.367188 565.1875 413.929688 552.601562 442.894531 535.570312 C 450.503906 531.097656 456.839844 526.957031 463.734375 522.164062 C 490.898438 503.269531 497.277344 501.464844 522.871094 477.195312 C 563.621094 438.554688 607.617188 367.710938 601.65625 281.234375 C 598.789062 239.613281 586.351562 205.257812 569.789062 175.253906 C 568.011719 172.03125 565.320312 167.855469 563.503906 164.351562 C 561.355469 160.214844 559.925781 157.507812 557.507812 153.269531 C 545.339844 131.929688 528.984375 110.539062 512.347656 94.292969 C 469.660156 52.59375 400.960938 13.382812 312.75 18.21875 "/>
<path fill-rule="evenodd" fill="rgb(100%, 100%, 100%)" fill-opacity="1" d="M 196.4375 339.054688 L 214.515625 339.128906 C 216.929688 338.578125 221.679688 328.199219 222.808594 326.015625 L 236.222656 295.964844 C 237.78125 291.882812 240.078125 282.785156 241.808594 279.8125 C 243.488281 289.847656 245.480469 299.808594 247.761719 309.652344 C 249.730469 318.15625 253.699219 330.582031 254.933594 339.125 L 276.546875 339.078125 C 284.042969 326.175781 283.546875 328.285156 290.191406 312.996094 C 297.789062 295.511719 318.347656 240.34375 319.921875 223.609375 L 298.316406 223.507812 C 294.320312 237.527344 275.914062 305.398438 270.519531 310.9375 C 268.867188 308.132812 261.429688 267.777344 260.0625 261.023438 C 254.652344 234.304688 257.007812 223.804688 235.53125 224.523438 C 235.035156 241.457031 232.601562 256.066406 227.59375 270.835938 C 223.792969 282.054688 216.214844 300.210938 209.902344 307.257812 C 207.738281 303.726562 199.300781 264.054688 197.488281 256.378906 C 192.320312 234.484375 194.113281 222.550781 166.945312 223.140625 Z M 196.4375 339.054688 "/>
<path fill-rule="evenodd" fill="rgb(100%, 100%, 100%)" fill-opacity="1" d="M 327.148438 242.601562 L 360.667969 242.628906 L 355.808594 339.066406 L 379.863281 339.113281 L 383.75 242.621094 C 403.671875 242.628906 424.4375 246.125 424.113281 222.855469 C 404.761719 222.855469 385.410156 222.855469 366.058594 222.855469 C 358.640625 222.855469 344.652344 221.796875 338.628906 224.363281 C 332.128906 227.132812 327.0625 233.347656 327.148438 242.601562 "/>
<path fill-rule="evenodd" fill="rgb(100%, 100%, 100%)" fill-opacity="1" d="M 439.90625 339.035156 L 463.574219 339.089844 C 464.511719 335.355469 466.269531 289.121094 466.625 281.390625 C 467.46875 263.097656 469.390625 240.816406 468.683594 222.996094 C 457.15625 222.105469 446.765625 224.957031 445.429688 235.640625 C 444.128906 246.039062 444.140625 259.183594 443.542969 269.84375 C 442.257812 292.816406 440.648438 316.15625 439.90625 339.035156 "/>
<path fill-rule="evenodd" fill="rgb(100%, 100%, 100%)" fill-opacity="1" d="M 119.632812 420.945312 C 122.75 420.019531 124.414062 412.234375 125.304688 409.082031 C 126.035156 409.824219 125.730469 409.332031 126.355469 410.445312 C 126.953125 411.511719 126.515625 410.554688 127.007812 411.914062 C 127.957031 414.53125 128.460938 419.214844 130.175781 420.992188 C 133.09375 419.867188 135.828125 409.664062 137.125 406.351562 C 138.429688 403.035156 139.230469 403.375 140.007812 401.214844 C 137.621094 401.226562 133.945312 400.535156 132.566406 402.070312 L 136 403.082031 C 135.558594 406.734375 132.625 414.957031 130.90625 417.222656 C 130.207031 414.722656 129.363281 411.765625 128.578125 408.996094 C 126.238281 400.761719 127.902344 404.167969 129.925781 401 L 122.015625 401.28125 C 122.664062 402.820312 122.417969 401.902344 123.328125 402.988281 C 126.183594 406.386719 124.507812 408.816406 120.933594 417.164062 C 119.476562 414.984375 117.359375 406.515625 117.148438 403.386719 C 119.527344 401.492188 118.300781 403.589844 119.664062 401.195312 L 111.949219 401.230469 L 113.566406 403.53125 C 116.777344 408.175781 116.546875 416.144531 119.632812 420.945312 Z M 312.617188 416.566406 C 309.769531 423.128906 300.257812 417.84375 303.789062 409.664062 C 306.5 403.378906 316.003906 408.773438 312.617188 416.566406 Z M 319.324219 424.476562 L 317.351562 423.605469 C 314.128906 422.746094 312.589844 423.253906 310.527344 420.238281 C 314.625 418.722656 317.660156 413.644531 314.855469 408.457031 C 312.382812 403.878906 305.113281 404.324219 302.105469 408.617188 C 299.964844 411.667969 298.476562 418.496094 306.515625 420.898438 C 310.804688 422.179688 314.679688 428.371094 319.324219 424.476562 Z M 444.574219 420.691406 L 449.871094 420.707031 C 448.660156 418.34375 450.109375 420.636719 447.972656 418.546875 L 448.058594 409.625 C 450.9375 412.996094 455.628906 420.429688 457.644531 421.296875 C 458.65625 419.199219 458.355469 415.367188 458.40625 412.589844 C 458.523438 406.511719 458.945312 409.132812 460.121094 405.464844 L 455.21875 405.511719 C 456.304688 409.660156 456.769531 402.492188 456.6875 416.210938 C 456.011719 415.296875 453.910156 412.863281 452.875 411.445312 C 451.253906 409.222656 450.328125 407.863281 448.800781 405.609375 L 444.550781 405.425781 C 444.972656 406.699219 444.855469 405.90625 445.292969 406.546875 C 446.941406 408.980469 446.644531 413.898438 446.164062 417.144531 C 445.675781 420.464844 445.710938 418.105469 444.574219 420.691406 Z M 255.054688 408.660156 C 255.046875 410.867188 255.085938 413.097656 255.070312 415.296875 C 255.035156 419.910156 254.832031 417.636719 253.121094 420.820312 L 259.144531 420.699219 C 257.296875 417.992188 257.03125 418.839844 257.460938 414.058594 L 264.699219 413.632812 C 264.992188 420.6875 264.09375 418.078125 262.8125 420.40625 L 269.074219 420.648438 C 268.753906 419.992188 265.558594 418.40625 267.355469 408.722656 C 267.75 406.609375 267.984375 407.53125 268.6875 405.339844 L 263.355469 405.542969 C 264.460938 409.148438 261.992188 402.507812 264.007812 406.703125 C 264.304688 407.320312 264.234375 406.59375 264.617188 408.097656 C 264.964844 409.46875 264.792969 410.648438 264.746094 412.0625 L 257.53125 412.257812 C 257.609375 406.910156 257.785156 409.085938 259.085938 405.5625 L 253.554688 405.515625 C 254.535156 408.660156 254.546875 405.105469 255.054688 408.660156 Z M 272.730469 420.765625 L 277.992188 420.707031 C 277.882812 420.570312 277.675781 420.167969 277.617188 420.285156 C 277.558594 420.402344 277.332031 419.953125 277.257812 419.851562 C 275.347656 417.265625 275.890625 414.261719 276.21875 409.691406 C 279.476562 411.878906 282.382812 419.617188 285.675781 421.320312 C 286.351562 420.144531 285.773438 422.230469 286.261719 419.785156 C 286.414062 419.007812 286.449219 418.0625 286.476562 417.261719 C 286.902344 404.855469 286.359375 411.910156 288.238281 405.371094 L 283.328125 405.546875 C 283.65625 406.828125 286.070312 407.15625 284.640625 416.207031 L 276.910156 405.59375 L 272.664062 405.492188 C 273.074219 406.660156 275.789062 407.363281 274.320312 417.148438 C 274.023438 419.121094 273.644531 419.082031 272.730469 420.765625 Z M 467.738281 418.984375 C 466.949219 415.695312 466.96875 409.902344 468.1875 407.128906 C 473.144531 406.777344 475.839844 408.925781 475.519531 413.933594 C 475.234375 418.390625 472.570312 420.195312 467.738281 418.984375 Z M 463.238281 420.828125 C 470.699219 420.628906 477.71875 421.207031 478.257812 413.277344 C 478.835938 404.808594 471.046875 405.496094 463.664062 405.46875 C 464.105469 407.402344 464.328125 406.15625 464.882812 408.050781 L 465.050781 417.222656 C 464.539062 420.183594 464.6875 418.082031 463.238281 420.828125 Z M 387.851562 406.792969 C 390.617188 407.003906 390.601562 407.082031 392.09375 408.660156 C 392.222656 412.390625 391.210938 412.8125 387.328125 412.828125 Z M 385.003906 408.660156 C 384.96875 421.792969 385.375 416.15625 383.046875 420.757812 L 388.894531 420.738281 C 388.195312 419.21875 387.707031 419.667969 387.28125 417.714844 C 386.890625 415.9375 387.320312 415.503906 387.804688 414.515625 C 393.128906 415.5 388.625 421.125 396.753906 420.832031 L 393.828125 417.765625 C 392.953125 416.6875 392.203125 415.304688 391.636719 413.933594 C 393.390625 412.207031 396.621094 409.511719 393.734375 406.699219 C 391.964844 404.976562 386.515625 405.328125 383.464844 405.625 C 384.386719 408.613281 384.316406 404.8125 385.003906 408.660156 Z M 189.964844 407.132812 C 196.390625 405.851562 196.195312 413.910156 189.65625 412.503906 Z M 187.332031 408.660156 C 187.324219 410.863281 187.355469 413.09375 187.335938 415.292969 C 187.296875 419.171875 186.816406 418 185.363281 420.652344 L 191.234375 420.589844 C 190.304688 418.46875 188.167969 418.511719 190.136719 414.527344 C 192.601562 414.917969 190.898438 413.578125 192.589844 416.09375 C 194.238281 418.546875 194.523438 422.464844 199.152344 420.414062 C 197.773438 418.949219 195.96875 418.933594 193.953125 413.933594 C 196.15625 411.792969 197.34375 411.46875 196.75 407.195312 C 193.722656 405.007812 190.824219 405.105469 185.789062 405.636719 C 186.683594 408.496094 186.679688 405.128906 187.332031 408.660156 Z M 518.660156 418.796875 C 517.785156 416.164062 517.960938 410.097656 518.921875 407.1875 C 530.511719 405.804688 527.648438 422.925781 518.660156 418.796875 Z M 514.097656 420.773438 C 521.800781 420.734375 528.667969 421.128906 529.171875 413.148438 C 529.691406 404.984375 521.402344 405.394531 514.519531 405.507812 C 514.65625 406.011719 517.132812 409.054688 515.976562 417.117188 C 515.550781 420.117188 515.476562 418.234375 514.097656 420.773438 Z M 222 420.8125 L 233.464844 420.710938 L 233.886719 416.484375 C 230.007812 418.324219 233.578125 419.65625 226.347656 419.230469 L 226.230469 413.761719 C 229.089844 413.632812 230.476562 414.40625 231.683594 412.613281 C 229.902344 411.703125 230.597656 412.15625 226.304688 412.144531 L 226.65625 407.132812 L 230.753906 407.027344 C 233.109375 409.839844 230.128906 408.179688 233.214844 409.488281 L 233.597656 405.371094 L 222.503906 405.503906 L 223.894531 417.230469 C 223.363281 420.3125 223.613281 418.050781 222 420.8125 Z M 144.324219 413.746094 C 145.125 411.324219 145.144531 410.273438 146.753906 408.449219 L 148.15625 414.09375 Z M 138.960938 420.738281 L 145.277344 420.71875 C 144.265625 418.648438 145.679688 420.695312 144.382812 419.660156 C 144.253906 419.554688 143.710938 419.210938 143.570312 419.109375 L 143.671875 415.617188 C 146.09375 415.371094 150.292969 414.769531 149.324219 418.363281 L 148.804688 419.382812 C 148.6875 419.578125 147.703125 420.613281 147.578125 420.792969 L 154.246094 420.695312 L 152.964844 418.832031 C 149.351562 414.054688 150.152344 407.292969 147.308594 405.34375 C 144.816406 406.078125 145.785156 405.398438 144.707031 408.046875 Z M 434.894531 408.664062 L 436.421875 413.964844 L 432.390625 413.96875 Z M 427.199219 420.621094 L 433.472656 420.773438 C 431.804688 418 433.277344 420.847656 430.90625 418.546875 L 432.066406 415.546875 L 436.945312 415.449219 C 438.632812 420.160156 437.429688 418.03125 435.785156 420.71875 L 442.464844 420.691406 C 441.035156 417.335938 441.183594 421.484375 438.78125 413.679688 C 437.953125 410.976562 437.390625 407.507812 435.902344 405.382812 C 432.109375 406.066406 432.777344 409.605469 429.535156 416.769531 C 428.558594 418.929688 428.105469 418.664062 427.199219 420.621094 Z M 331.980469 408.660156 C 332.617188 405.457031 332.527344 408.226562 333.554688 405.566406 L 328.488281 405.449219 C 329.328125 408.203125 330.191406 404.949219 330.183594 413.285156 C 330.179688 416.699219 330.0625 419.226562 326.511719 419.300781 C 323.019531 419.371094 322.492188 417.054688 322.429688 413.96875 C 322.320312 408.578125 322.765625 409.179688 324 405.394531 L 318.667969 405.484375 C 319.632812 408.890625 320.070312 403.914062 320.101562 413.960938 C 320.113281 417.109375 320.1875 419.648438 323.292969 420.617188 C 332.515625 423.484375 331.976562 415.171875 331.980469 408.660156 Z M 403.445312 414.082031 C 404.417969 413.367188 401.550781 412.996094 408.574219 413.171875 C 407.855469 412.726562 408.246094 412.789062 406.886719 412.472656 C 406.65625 412.421875 405.839844 412.398438 405.613281 412.359375 C 403.433594 411.96875 405.09375 412.65625 403.597656 411.707031 L 403.855469 407.140625 L 407.953125 407.042969 C 410.160156 409.855469 407.605469 408.472656 410.203125 409.234375 L 410.8125 405.457031 L 399.703125 405.5 C 400.03125 406.789062 400.128906 406.425781 400.257812 406.695312 C 400.8125 407.855469 400.453125 406.421875 400.914062 408.066406 L 401.078125 417.21875 C 400.585938 420.148438 400.742188 418.058594 399.257812 420.824219 L 410.640625 420.679688 L 411.085938 416.460938 C 407.257812 418.285156 410.257812 419.683594 403.523438 419.195312 Z M 340.777344 414.175781 C 341.566406 413.578125 340.492188 413.574219 342.949219 413.140625 C 343.4375 413.050781 345.386719 413.183594 345.945312 413.199219 C 345.148438 412.679688 345.714844 412.828125 344.289062 412.480469 L 341.398438 411.9375 C 341.3125 411.746094 341.105469 411.761719 340.960938 411.667969 L 341.21875 407.097656 C 346.546875 406.808594 345.347656 407.355469 346.953125 409.441406 C 347.769531 408.425781 347.226562 410.429688 347.949219 407.609375 C 348.128906 406.90625 348.066406 406.160156 348.105469 405.457031 L 337.085938 405.511719 C 338.238281 409.097656 335.609375 402.335938 337.71875 406.699219 C 339.4375 410.253906 339.019531 416.773438 336.96875 420.242188 C 336.878906 420.394531 336.734375 420.613281 336.640625 420.8125 C 340.242188 420.734375 344.648438 421.40625 347.984375 420.300781 L 348.441406 416.441406 C 346.0625 417.550781 347.480469 416.878906 345.808594 419.152344 L 340.78125 419.097656 Z M 174.171875 414.089844 C 175.148438 413.355469 172.105469 412.996094 179.304688 413.171875 L 176.316406 412.359375 C 176.105469 412.320312 175.917969 412.339844 175.71875 412.296875 C 174.386719 411.996094 175.15625 412.242188 174.316406 411.699219 L 174.570312 407.144531 L 178.667969 407.039062 C 180.859375 409.796875 178.324219 408.445312 180.910156 409.242188 L 181.53125 405.449219 L 170.417969 405.503906 C 170.75 406.820312 170.835938 406.414062 170.972656 406.695312 C 171.535156 407.867188 171.160156 406.390625 171.632812 408.0625 C 172.039062 409.484375 171.863281 411.121094 171.851562 412.613281 C 171.789062 420.9375 171.839844 417.351562 169.96875 420.824219 L 181.363281 420.683594 L 181.808594 416.453125 C 177.953125 418.316406 181.179688 419.71875 174.242188 419.1875 Z M 352.371094 411.316406 C 353.683594 412.535156 354.460938 413.078125 356.625 414.171875 C 359.363281 415.550781 359.78125 415.109375 359.578125 418.703125 L 354.894531 419.445312 L 352.882812 415.792969 C 352.472656 416.4375 351.507812 416.136719 352.308594 420.347656 C 360.65625 422.183594 366.984375 416.472656 358.523438 412.269531 C 355.757812 410.894531 355.328125 411.265625 354.609375 408.660156 C 356.175781 406.613281 356.171875 406.816406 359.203125 407.050781 L 360.652344 410.132812 C 360.949219 409.820312 362.078125 410.207031 361.957031 407.222656 C 361.855469 404.707031 361.898438 406.746094 361.535156 405.808594 C 356.4375 404.078125 351.890625 405.621094 352.371094 411.316406 Z M 249.625 415.796875 C 247.390625 416.792969 248.0625 417.117188 246.3125 419.164062 C 240.601562 419.695312 237.804688 416.007812 239.414062 410.472656 C 240.054688 408.277344 241.269531 407.210938 243.632812 406.988281 C 246.804688 406.695312 247.007812 408.261719 247.390625 408.714844 C 248.4375 409.957031 247.167969 409.324219 248.777344 409.96875 L 249.445312 405.734375 C 241.707031 404.519531 235.316406 406.957031 236.476562 415.0625 C 237.4375 421.785156 245.515625 421.472656 247.953125 420.386719 C 249.894531 419.519531 249.488281 418.304688 249.625 415.796875 Z M 498.523438 409.765625 C 502.136719 408.429688 497.808594 407.195312 503.648438 406.820312 L 503.839844 418.546875 C 501.53125 420.195312 502.355469 418.605469 501.304688 420.515625 L 508.765625 420.617188 C 507.761719 418.347656 508.386719 420.390625 506.148438 418.546875 L 506.402344 406.886719 C 512.011719 407.019531 508.089844 408.597656 511.433594 409.769531 L 511.398438 405.652344 L 498.773438 405.433594 Z M 154.246094 409.765625 C 156.523438 408.585938 155.238281 408.546875 156.683594 407.445312 C 157.839844 406.5625 157.996094 406.890625 159.542969 406.914062 L 159.691406 418.609375 L 157.15625 420.695312 C 159.738281 420.769531 162.363281 421.066406 164.691406 420.195312 L 161.957031 418.734375 L 162.214844 407.1875 C 166.175781 406.234375 164.605469 408.613281 167.074219 409.757812 L 167.367188 405.746094 L 154.65625 405.390625 Z M 214.015625 410.503906 L 214.324219 406.640625 C 216.554688 406.460938 213.746094 405.925781 215.828125 406.601562 C 216.992188 406.980469 216.722656 406.953125 217.351562 407.429688 C 218.621094 409.839844 217.296875 408.867188 219.125 409.773438 L 219.300781 405.53125 L 206.742188 405.421875 L 206.328125 409.683594 C 208.191406 408.785156 206.6875 409.6875 207.796875 408.59375 C 209.449219 406.964844 207.152344 408.691406 208.742188 407.480469 C 209.964844 406.550781 210.007812 406.898438 211.636719 406.871094 L 211.804688 418.605469 C 209.292969 420.402344 210.597656 418.300781 209.253906 420.660156 L 216.691406 420.765625 C 215.144531 417.890625 217.089844 420.722656 214.015625 418.71875 Z M 374.460938 403.386719 C 374.789062 406.871094 375.597656 416.183594 373.617188 418.90625 L 372.136719 420.871094 L 379.671875 420.582031 C 378.65625 417.828125 379.675781 420.558594 376.984375 418.546875 L 377.222656 403.1875 C 380.003906 401.640625 378.203125 403.339844 379.457031 401.117188 L 372.304688 401.398438 C 373.125 403.566406 372.261719 401.703125 374.460938 403.386719 Z M 487.597656 420.824219 L 497.839844 420.75 L 498.644531 415.863281 C 496.183594 416.882812 497.414062 416.882812 495.875 419.089844 L 491.6875 419.050781 C 491.253906 415.027344 491.085938 409.753906 492.648438 406.785156 C 492.988281 406.140625 492.753906 407.023438 493.324219 405.34375 L 487.90625 405.507812 C 488.8125 408.460938 489.34375 404.867188 489.304688 412.613281 C 489.277344 418.421875 489.828125 416.625 487.894531 420.21875 C 487.8125 420.375 487.683594 420.617188 487.597656 420.824219 Z M 425.351562 418.695312 L 425.378906 416.304688 C 425.28125 416.453125 425.050781 416.453125 424.984375 416.707031 C 424.921875 416.953125 424.648438 417.019531 424.570312 417.089844 C 424.480469 417.171875 423.949219 417.632812 423.789062 417.785156 C 422.792969 419.777344 421.796875 419.601562 419.0625 418.945312 C 418.683594 416.371094 418.835938 413.867188 418.945312 411.257812 C 419.128906 406.832031 419.742188 408.261719 420.703125 405.402344 L 415.078125 405.566406 C 416.15625 409.089844 416.753906 403.023438 416.625 415.289062 C 416.589844 418.589844 415.949219 418.59375 414.878906 420.582031 L 424.699219 420.820312 C 424.808594 420.605469 425.019531 420.214844 425.042969 420.316406 Z M 293.269531 408.660156 C 293.261719 410.867188 293.285156 413.085938 293.273438 415.289062 C 293.246094 419.628906 293.019531 417.816406 291.304688 420.789062 L 297.652344 420.675781 L 295.519531 418.546875 C 295.425781 416.113281 295.503906 413.699219 295.597656 411.261719 C 295.808594 405.882812 296.371094 408.453125 297.417969 405.351562 L 291.648438 405.515625 C 292.488281 408.058594 292.816406 405.679688 293.269531 408.660156 Z M 403.445312 414.082031 C 406.578125 413.808594 407.601562 414.671875 409.253906 412.613281 C 408.050781 411.851562 409.308594 412.050781 406.949219 411.785156 C 406.28125 411.707031 404.648438 411.804688 403.597656 411.707031 C 405.09375 412.65625 403.433594 411.96875 405.613281 412.359375 C 405.839844 412.398438 406.65625 412.421875 406.886719 412.472656 C 408.246094 412.789062 407.855469 412.726562 408.574219 413.171875 C 401.550781 412.996094 404.417969 413.367188 403.445312 414.082031 Z M 340.777344 414.175781 C 343.945312 413.792969 344.984375 414.695312 346.632812 412.613281 C 345.601562 411.917969 347.125 412.074219 344.355469 411.75 C 343.707031 411.675781 342.039062 411.773438 340.960938 411.667969 C 341.105469 411.761719 341.3125 411.746094 341.398438 411.9375 L 344.289062 412.480469 C 345.714844 412.828125 345.148438 412.679688 345.945312 413.199219 C 345.386719 413.183594 343.4375 413.050781 342.949219 413.140625 C 340.492188 413.574219 341.566406 413.578125 340.777344 414.175781 Z M 423.789062 417.785156 C 423.949219 417.632812 424.480469 417.171875 424.570312 417.089844 C 424.648438 417.019531 424.921875 416.953125 424.984375 416.707031 C 425.050781 416.453125 425.28125 416.453125 425.378906 416.304688 L 425.351562 418.695312 C 425.539062 418.375 426.125 419.527344 425.976562 417.191406 C 425.882812 415.691406 425.839844 416.378906 425.359375 415.523438 C 423.648438 416.820312 424.730469 415.046875 423.789062 417.785156 Z M 214.015625 410.503906 L 214.960938 407.085938 L 217.351562 407.429688 C 216.722656 406.953125 216.992188 406.980469 215.828125 406.601562 C 213.746094 405.925781 216.554688 406.460938 214.324219 406.640625 Z M 214.015625 410.503906 "/>
</svg>
