<?xml version="1.0" encoding="UTF-8"?>
<svg data-original-cmyk-pdf="/home/runner/workspace/uploads/original_9bf0f85ee67621839aaebcce2c583f38.pdf" data-cmyk-preserved="true" xmlns="http://www.w3.org/2000/svg" xmlns:xlink="http://www.w3.org/1999/xlink" width="841.8898" height="1190.5512" viewBox="0 0 841.8898 1190.5512">
<path fill-rule="nonzero" fill="rgb(10.195923%, 10.195923%, 9.411621%)" fill-opacity="1" d="M 695.171875 637 C 696.160156 647.84375 704.042969 656.21875 714.886719 661.394531 C 725.726562 666.570312 738.296875 664.84375 742.484375 659.425781 C 746.671875 654.003906 750.367188 643.902344 753.328125 633.796875 C 756.28125 623.695312 756.777344 615.5625 751.355469 610.386719 C 745.933594 605.210938 736.078125 601.765625 723.265625 598.804688 C 710.449219 595.851562 697.390625 600.777344 695.914062 613.59375 C 694.804688 623.1875 694.523438 629.84375 695.171875 637 Z M 719.566406 568.988281 C 724.496094 574.660156 736.570312 579.585938 745.441406 581.3125 C 754.3125 583.035156 763.921875 580.324219 768.113281 569.730469 C 772.300781 559.132812 769.074219 541.300781 772.054688 527.59375 C 776.984375 504.921875 807.042969 414.734375 811.972656 402.414062 C 816.898438 390.09375 815.667969 379.253906 811.480469 374.324219 C 807.289062 369.398438 799.40625 364.222656 789.304688 362.003906 C 779.203125 359.785156 767.863281 361.019531 763.429688 370.628906 C 758.992188 380.238281 764.660156 384.675781 761.457031 395.269531 C 758.253906 405.863281 727.453125 507.878906 723.511719 523.15625 C 719.566406 538.4375 715.425781 541.730469 713.160156 548.292969 C 710.695312 555.4375 714.640625 563.324219 719.566406 568.988281 Z M 329.988281 633.796875 C 368.675781 633.304688 397.011719 603.488281 416.480469 582.789062 C 435.945312 562.09375 443.585938 526.851562 425.105469 503.195312 C 406.621094 479.539062 376.804688 488.90625 343.292969 517 C 309.78125 545.089844 296.167969 579.082031 295.492188 600.777344 C 294.996094 616.550781 307.316406 634.085938 329.988281 633.796875 Z M 349.699219 443.566406 C 376.5625 439.128906 414.015625 412.765625 438.65625 384.425781 C 455.582031 364.964844 469.949219 339.089844 452.703125 316.417969 C 435.453125 293.746094 400.828125 296.214844 366.949219 314.691406 C 331.714844 333.914062 309.632812 373.003906 308.796875 411.039062 C 308.304688 433.460938 322.84375 448 349.699219 443.566406 Z M 407.484375 240.890625 C 425.867188 227.632812 448.699219 192.839844 453.320312 175.65625 C 457.9375 158.464844 461.636719 120.765625 446.664062 108.753906 C 431.695312 96.738281 403.421875 99.882812 383.460938 113.742188 C 362.390625 128.375 330.234375 166.042969 325.800781 218.898438 C 323.394531 247.558594 331.511719 264.191406 348.34375 264.363281 C 366.457031 264.546875 388.265625 254.753906 407.484375 240.890625 Z M 303.621094 285.984375 C 310.34375 288.394531 312.863281 294.855469 312.125 301.878906 C 313.789062 299.292969 319.148438 293.746094 322.84375 292.269531 C 311.386719 288.570312 290.5 275.265625 283.109375 246.621094 C 280.519531 254.195312 272.390625 271.570312 267.582031 280.441406 C 280.152344 278.960938 291.238281 281.550781 303.621094 285.984375 Z M 86.472656 91.011719 C 89.59375 81.582031 85.132812 78.097656 88.875 73.085938 C 92.914062 67.671875 97.929688 65.691406 105.507812 65.691406 C 113.082031 65.691406 125.949219 70.273438 131.394531 75.367188 C 136.839844 80.457031 138.144531 91.46875 135.417969 98.691406 C 132.695312 105.914062 126.066406 120.242188 122.511719 132.789062 C 118.964844 145.339844 111.265625 172.453125 109.015625 186.542969 C 106.765625 200.632812 105.597656 214.136719 105.226562 224.550781 C 105.109375 227.863281 108.898438 229.167969 110.4375 225.96875 C 111.976562 222.773438 125.234375 193.410156 130.5625 180.148438 C 135.894531 166.890625 156.140625 122.488281 162.414062 113.492188 C 164.488281 110.519531 165.964844 108.992188 169.992188 108.871094 C 174.015625 108.753906 187.160156 109.347656 194.617188 110.886719 C 202.078125 112.425781 207.171875 120.121094 211.195312 131.015625 C 215.21875 141.90625 231.441406 200.988281 233.097656 216.972656 C 233.421875 220.089844 235.109375 221.828125 237.832031 221.945312 C 240.558594 222.0625 242.6875 220.167969 244.347656 216.378906 C 246.003906 212.589844 266.105469 170.109375 275.902344 148.488281 C 285.695312 126.863281 299.554688 96.371094 301.40625 91.195312 C 303.253906 86.019531 300.296875 78.257812 303.992188 71.234375 C 307.6875 64.214844 312.125 59.59375 316.1875 58.300781 C 320.253906 57.003906 325.984375 57.191406 331.160156 58.484375 C 336.332031 59.777344 353.707031 65.875 357.402344 68.648438 C 361.097656 71.421875 361.097656 76.597656 359.804688 80.292969 C 366.457031 70.867188 388.265625 56.265625 401.203125 52.941406 C 414.136719 49.613281 434.652344 51.644531 450.734375 58.667969 C 466.808594 65.691406 489.207031 83.640625 495.453125 99.882812 C 495.640625 90.273438 493.976562 72.34375 489.910156 62.734375 C 487.328125 56.632812 486.398438 49.984375 493.605469 48.136719 C 500.8125 46.285156 521.882812 48.503906 529.828125 52.199219 C 537.777344 55.898438 544.984375 68.464844 544.800781 82.324219 C 544.613281 96.1875 543.503906 201.710938 543.503906 207.257812 C 543.503906 212.800781 548.496094 212.984375 550.898438 206.886719 C 553.300781 200.789062 590.265625 106.71875 595.621094 99.144531 C 600.980469 91.566406 604.308594 87.871094 611.699219 88.238281 C 619.09375 88.609375 628.148438 88.792969 634.433594 90.273438 C 640.714844 91.75 645.335938 97.664062 648.847656 108.199219 C 652.359375 118.734375 667.699219 175.65625 669.175781 179.902344 C 670.65625 184.15625 677.121094 184.15625 680.078125 177.6875 C 683.035156 171.21875 702.074219 123.539062 708.542969 106.71875 C 715.007812 89.902344 729.054688 58.667969 732.382812 51.832031 C 735.707031 44.992188 733.671875 38.710938 737.738281 30.761719 C 741.804688 22.816406 746.058594 19.859375 756.960938 19.488281 C 767.863281 19.121094 779.875 25.402344 784.867188 28.175781 C 789.855469 30.949219 791.152344 41.667969 786.714844 50.90625 C 782.28125 60.148438 772.269531 71.039062 766.941406 82.695312 C 751.835938 115.730469 723.328125 189.332031 700.59375 242.738281 C 695.714844 254.203125 685.808594 257.339844 678.230469 256.230469 C 670.65625 255.121094 661.230469 252.71875 653.28125 248.101562 C 645.335938 243.476562 639.789062 234.054688 635.539062 223.519531 C 631.292969 212.984375 623.714844 184.710938 622.050781 178.242188 C 620.386719 171.773438 613.207031 171.707031 610.222656 179.164062 C 605.050781 192.101562 579.542969 259.003906 564.574219 280.808594 C 559.980469 287.503906 550.15625 290.976562 539.808594 289.679688 C 529.460938 288.386719 515.785156 281.734375 510.976562 275.453125 C 506.171875 269.167969 501.367188 257.710938 498.597656 246.992188 C 495.824219 236.273438 488.429688 200.050781 487.324219 194.6875 C 481.59375 226.84375 466.808594 250.871094 448.699219 265.839844 C 464.777344 272.800781 489.417969 285.863281 497.300781 303.109375 C 505.1875 320.359375 508.636719 354.363281 499.519531 373.339844 C 490.402344 392.308594 462.066406 427.300781 430.773438 448.246094 C 439.640625 450.21875 463.484375 473.011719 467.179688 488.722656 C 468.105469 476.523438 464.777344 458.226562 461.945312 453.175781 C 459.109375 448.125 460.585938 438.390625 470.320312 437.40625 C 480.054688 436.421875 496.933594 437.777344 504.203125 441.101562 C 511.472656 444.429688 515.785156 452.1875 515.539062 464.144531 C 515.292969 476.09375 514.058594 546.199219 513.8125 551.742188 C 513.566406 557.285156 517.320312 557.671875 519.359375 552.847656 C 525.023438 539.421875 547.199219 478.1875 552.5625 465.992188 C 557.921875 453.792969 565.128906 449.726562 582.871094 451.757812 C 600.609375 453.792969 611.144531 458.96875 615.582031 480.21875 C 620.019531 501.472656 630.992188 562.703125 632.214844 568.007812 C 633.878906 575.210938 640.160156 575.027344 642.746094 569.296875 C 645.335938 563.570312 675.234375 473.511719 678.785156 460.261719 C 683.589844 442.335938 677.859375 433.460938 679.710938 426.992188 C 681.558594 420.527344 684.886719 413.6875 695.601562 414.242188 C 706.320312 414.796875 723.140625 416.832031 729.609375 421.820312 C 736.078125 426.8125 737.554688 435.125 735.152344 442.148438 C 732.75 449.171875 728.5 457.488281 723.695312 473.9375 C 718.890625 490.386719 684.449219 599.03125 668.066406 634.351562 C 662.152344 647.105469 651.433594 655.789062 638.128906 653.203125 C 624.820312 650.613281 604.492188 639.527344 598.394531 619.566406 C 592.296875 599.605469 581.207031 549.894531 580.097656 545.089844 C 578.988281 540.28125 574.367188 538.4375 572.335938 544.535156 C 570.304688 550.632812 542.441406 632.042969 529.460938 651.722656 C 523.730469 660.410156 514.308594 665.398438 502.664062 662.257812 C 491.019531 659.117188 479.929688 653.019531 473.460938 645.625 C 466.996094 638.234375 464.59375 628.992188 463.851562 622.339844 C 463.113281 615.6875 461.636719 603.304688 461.265625 597.019531 C 435.390625 632.875 389.929688 657.265625 360.171875 664.292969 C 330.417969 671.3125 301.035156 664.660156 288.097656 654.679688 C 264.257812 665.398438 213.804688 688.316406 157.808594 696.449219 C 101.808594 704.578125 58.75 703.285156 30.472656 665.03125 C 15.027344 644.132812 20.226562 609.371094 40.269531 583.53125 C 83.699219 527.53125 129.164062 505.171875 164.828125 498.515625 C 200.5 491.863281 220.457031 496.484375 243.1875 505.910156 C 250.011719 508.738281 255.386719 520.136719 250.953125 529.75 C 246.515625 539.359375 234.132812 545.457031 221.9375 541.578125 C 209.738281 537.695312 187.375 535.476562 162.980469 545.273438 C 138.585938 555.070312 83.984375 587.816406 74.089844 632.132812 C 69.835938 651.167969 89.894531 659.988281 124.355469 658.007812 C 166.125 655.605469 232.839844 629.730469 254.464844 619.566406 C 249.65625 603.121094 250.027344 575.398438 264.8125 545.828125 C 279.597656 516.257812 308.980469 490.015625 321.546875 480.773438 C 295.675781 473.753906 272.203125 451.390625 267.03125 436.972656 C 261.855469 422.558594 264.257812 391.695312 264.996094 382.269531 C 253.539062 404.449219 241.339844 440.117188 238.199219 449.359375 C 235.058594 458.597656 238.199219 465.992188 235.058594 475.414062 C 231.914062 484.839844 226.742188 489.089844 215.46875 488.722656 C 204.195312 488.351562 191.628906 484.839844 180.910156 474.675781 C 170.191406 464.507812 148.753906 448.800781 137.847656 440.300781 C 126.945312 431.800781 111.789062 417.753906 106.800781 413.503906 C 101.808594 409.253906 96.925781 413.910156 94.601562 420.34375 C 88.132812 438.265625 76.675781 483.175781 71.132812 511.636719 C 70.1875 516.476562 67.621094 525.871094 54.3125 526.976562 C 41.007812 528.085938 30.105469 517.921875 25.296875 512.378906 C 20.492188 506.832031 23.449219 499.070312 25.667969 491.308594 C 27.886719 483.546875 49.3125 403.625 51.910156 392.992188 C 55.976562 376.355469 48.585938 374.875 51.726562 363.050781 C 54.867188 351.222656 61.335938 347.710938 75.199219 347.710938 C 89.058594 347.710938 104.210938 353.441406 114.191406 363.234375 C 124.171875 373.03125 178.691406 423.296875 182.203125 426.8125 C 185.714844 430.320312 191.035156 429.808594 193.105469 424.589844 C 206.042969 392.066406 233.394531 337.546875 247.625 311.117188 C 249.582031 307.480469 247.808594 302.0625 248.734375 298.738281 C 240.046875 301.507812 210.660156 302.0625 201.421875 277.484375 C 196.074219 263.261719 185.15625 205.59375 182.386719 191.917969 C 181.550781 187.789062 176.472656 186.375 173.886719 193.027344 C 171.300781 199.679688 134.335938 288.328125 125.710938 304.097656 C 117.085938 319.867188 101.316406 322.085938 87.269531 321.097656 C 73.226562 320.113281 58.441406 306.5625 56.964844 279.457031 C 55.484375 252.347656 58.621094 206.847656 65.585938 170.789062 C 71.253906 141.464844 79.386719 112.386719 86.472656 91.011719 "/>
<path fill-rule="nonzero" fill="rgb(10.195923%, 10.195923%, 9.411621%)" fill-opacity="1" d="M 581.285156 367.777344 C 582.660156 367.222656 584.394531 366.691406 585.539062 365.746094 C 587.273438 364.316406 589.054688 362.855469 590.589844 361.214844 C 591.671875 360.058594 592.660156 358.808594 593.601562 357.535156 C 593.699219 357.398438 593.765625 357.613281 593.859375 357.363281 C 593.96875 357.070312 594.078125 356.773438 594.1875 356.484375 C 594.375 355.976562 594.5625 355.46875 594.75 354.964844 L 594.769531 354.917969 C 595.636719 352.582031 596.574219 350.015625 596.246094 347.511719 C 595.660156 343.019531 594.417969 338.777344 592.621094 334.621094 C 592.332031 333.941406 592.195312 333.316406 591.8125 332.746094 C 590.96875 331.496094 590.113281 330.25 589.238281 329.019531 C 588.832031 328.445312 588.417969 327.875 587.984375 327.320312 C 587.597656 326.828125 586.761719 326.539062 586.203125 326.277344 C 585.074219 325.746094 583.914062 325.265625 582.75 324.824219 C 581.175781 324.21875 579.300781 324.359375 577.75 323.710938 C 577.144531 323.457031 576.3125 323.507812 575.679688 323.480469 C 573.402344 323.386719 571.128906 323.457031 568.898438 323.953125 C 566.945312 324.386719 564.863281 324.945312 563.050781 325.789062 C 560.863281 326.804688 558.960938 328.351562 557.09375 329.851562 C 556.335938 330.460938 556.046875 331.375 555.664062 332.261719 C 555.320312 333.066406 554.988281 333.882812 554.664062 334.695312 C 554.234375 335.773438 553.949219 336.867188 553.726562 338.003906 C 552.992188 341.753906 552.742188 345.742188 553.339844 349.53125 C 553.832031 352.660156 555.207031 355.652344 556.78125 358.363281 C 558.554688 361.40625 560.953125 363.433594 563.9375 365.203125 C 567.207031 367.136719 570.753906 368.316406 574.566406 368.554688 C 575.816406 368.632812 577.128906 368.390625 578.371094 368.261719 C 579.035156 368.191406 579.699219 368.117188 580.359375 368.042969 C 580.671875 368.007812 581.070312 368.050781 581.285156 367.777344 "/>
<path fill-rule="nonzero" fill="rgb(10.195923%, 10.195923%, 9.411621%)" fill-opacity="1" d="M 621.257812 353.253906 C 622.039062 353.871094 622.664062 354.8125 622.984375 355.753906 C 621.03125 355.878906 618.492188 355.3125 617.492188 353.46875 C 617.207031 352.945312 616.738281 352.144531 616.710938 351.535156 C 616.6875 350.960938 616.660156 350.390625 616.632812 349.816406 C 618.132812 349.832031 619.550781 350.03125 620.996094 350.429688 C 621.378906 350.535156 621.789062 350.898438 622.113281 351.113281 C 622.867188 351.617188 623.65625 352.167969 624.21875 352.890625 C 623.351562 353.132812 622.164062 353.4375 621.257812 353.253906 C 622.191406 353.992188 621.640625 353.332031 621.257812 353.253906 Z M 615.648438 351.816406 C 615.398438 352.828125 615.234375 353.425781 614.480469 354.074219 C 613.898438 354.574219 613.355469 355.183594 612.640625 355.484375 C 612.441406 354.765625 612.203125 354.019531 612.140625 353.277344 C 611.398438 353.953125 610.441406 354.542969 609.503906 354.898438 C 609.171875 353.75 609.480469 352.351562 610.046875 351.308594 C 610.773438 349.972656 612.097656 349.457031 613.457031 348.957031 C 613.976562 348.765625 614.5 348.585938 615.027344 348.414062 C 615.34375 348.316406 615.542969 348.597656 615.804688 348.785156 C 615.953125 348.894531 615.835938 349.691406 615.832031 349.863281 C 615.8125 350.511719 615.804688 351.183594 615.648438 351.816406 C 615.417969 352.757812 615.878906 350.878906 615.648438 351.816406 Z M 614.261719 344.992188 C 614.296875 346.453125 612.648438 348.4375 611.332031 348.980469 C 611.03125 349.101562 610.105469 349.65625 610.050781 349.15625 C 609.957031 348.292969 610.035156 347.324219 610.53125 346.585938 C 609.78125 346.921875 608.945312 346.953125 608.140625 346.859375 C 608.707031 345.425781 609.757812 343.640625 611.402344 343.289062 C 612.152344 343.132812 612.902344 342.976562 613.660156 342.863281 C 613.800781 342.839844 613.941406 342.820312 614.085938 342.808594 C 614.121094 343.179688 614.160156 343.550781 614.191406 343.921875 C 614.222656 344.277344 614.253906 344.636719 614.261719 344.992188 C 614.265625 345.242188 614.257812 344.746094 614.261719 344.992188 Z M 612.992188 340.226562 C 612.84375 339.25 612.777344 338.507812 612.625 337.535156 C 615.15625 337.34375 617.460938 338.773438 618.746094 340.945312 C 618.183594 341.230469 617.429688 341.304688 616.8125 341.210938 C 617.105469 341.960938 617.277344 342.75 617.542969 343.507812 C 615.949219 343.058594 613.765625 342.234375 613.074219 340.570312 Z M 620.785156 347.007812 C 620.316406 347.09375 619.832031 347.140625 619.355469 347.191406 C 619.722656 347.355469 620.351562 347.480469 620.585938 347.816406 C 620.929688 348.308594 621.269531 348.796875 621.613281 349.289062 C 620.117188 349.367188 618.835938 349.507812 617.4375 348.835938 C 616.546875 348.402344 615.960938 347.429688 615.476562 346.597656 C 615.261719 346.230469 615.15625 345.875 615.09375 345.453125 C 615.0625 345.230469 615.035156 345.003906 615.003906 344.78125 C 614.941406 344.34375 615.320312 344.410156 615.699219 344.335938 C 617.300781 344.023438 619.207031 344.40625 620.695312 345.074219 C 621.046875 345.230469 621.28125 345.476562 621.5625 345.734375 C 621.855469 345.996094 622.375 346.132812 622.390625 346.5 C 622.394531 346.726562 621.027344 346.960938 620.785156 347.007812 C 620.363281 347.085938 621.214844 346.929688 620.785156 347.007812 Z M 630.949219 342.757812 C 627.132812 336.425781 623.3125 330.09375 619.535156 323.738281 C 618.175781 321.453125 616.816406 319.167969 615.46875 316.871094 C 615.277344 316.539062 615.085938 316.210938 614.894531 315.878906 C 614.832031 315.765625 614.769531 315.65625 614.707031 315.546875 C 614.308594 315.566406 613.910156 315.558594 613.515625 315.558594 C 613.230469 315.5625 611.238281 315.40625 611.136719 315.632812 C 611.011719 315.921875 610.914062 316.226562 610.808594 316.527344 C 609.644531 319.886719 608.65625 323.308594 607.441406 326.652344 C 604.609375 334.449219 601.765625 342.234375 598.800781 349.984375 C 597.785156 352.632812 596.773438 355.28125 595.769531 357.9375 C 594.980469 360.035156 594.191406 362.136719 593.402344 364.238281 C 593.105469 365.035156 592.410156 366.101562 592.628906 366.960938 C 592.652344 367.058594 592.882812 368.074219 592.917969 368.066406 C 593.152344 368.023438 593.382812 367.976562 593.617188 367.929688 C 594.816406 367.695312 596.023438 367.457031 597.222656 367.21875 C 600.628906 366.550781 604.03125 365.878906 607.4375 365.210938 C 610.882812 364.53125 614.320312 363.828125 617.75 363.078125 C 617.820312 363.0625 616.835938 358.160156 616.765625 357.792969 C 616.546875 356.628906 616.320312 355.46875 616.101562 354.308594 C 616.042969 354.015625 615.988281 353.726562 615.933594 353.433594 C 615.925781 353.417969 615.898438 353.332031 615.910156 353.3125 C 616.109375 352.941406 616.390625 353.347656 616.492188 353.496094 C 616.738281 353.859375 617.007812 354.207031 617.289062 354.542969 C 617.484375 354.777344 618.152344 355.269531 618.207031 355.546875 C 618.285156 355.976562 618.375 356.40625 618.457031 356.835938 C 618.726562 358.195312 619 359.554688 619.273438 360.917969 C 619.304688 361.070312 619.601562 362.78125 619.683594 362.765625 C 620.253906 362.652344 620.828125 362.535156 621.398438 362.421875 C 623.871094 361.929688 626.339844 361.4375 628.8125 360.945312 C 632.390625 360.234375 635.96875 359.546875 639.558594 358.875 C 639.886719 358.8125 640.214844 358.75 640.542969 358.6875 C 637.445312 353.316406 634.183594 348.050781 630.949219 342.757812 "/>
<path fill-rule="nonzero" fill="rgb(10.195923%, 10.195923%, 9.411621%)" fill-opacity="1" d="M 639.855469 327.253906 C 642.289062 335.914062 642.90625 344.9375 644.519531 353.75 C 644.773438 355.144531 645.042969 356.535156 645.335938 357.921875 C 645.433594 358.382812 645.875 358.097656 646.285156 358.019531 C 648.777344 357.566406 651.273438 357.113281 653.765625 356.660156 C 655.066406 356.421875 656.367188 356.167969 657.671875 355.957031 C 657.472656 355.292969 657.441406 354.59375 657.386719 353.902344 C 657.296875 352.777344 657.125 351.667969 656.839844 350.574219 C 656.355469 348.699219 655.976562 346.8125 655.652344 344.902344 C 655.488281 343.914062 655.34375 342.921875 655.179688 341.933594 C 655.007812 340.917969 654.839844 339.902344 654.667969 338.886719 C 654.546875 338.179688 654.429688 337.46875 654.308594 336.761719 C 654.3125 336.78125 654.238281 336.339844 654.238281 336.339844 C 654.238281 336.339844 654.125 335.660156 654.074219 335.359375 C 654.023438 335.054688 653.972656 334.75 653.921875 334.445312 C 653.824219 333.855469 653.726562 333.269531 653.628906 332.6875 C 653.472656 331.769531 653.320312 330.851562 653.167969 329.933594 L 653.140625 329.773438 C 653.097656 329.5 653.054688 329.222656 653.003906 328.953125 C 652.921875 328.5 652.820312 328.050781 652.695312 327.605469 C 652.566406 327.136719 652.417969 326.671875 652.238281 326.21875 L 662.683594 323.773438 C 662.816406 323.742188 663.570312 323.660156 663.535156 323.5 C 663.378906 322.746094 663.21875 321.992188 663.066406 321.242188 C 662.707031 319.523438 662.347656 317.808594 661.992188 316.089844 C 662.324219 316.402344 662.691406 316.910156 663.074219 317.128906 C 662.371094 314.046875 661.695312 310.789062 661.109375 307.625 C 655.066406 309.242188 648.824219 310.234375 642.691406 311.445312 C 636.730469 312.625 630.808594 314 624.890625 315.355469 C 624.238281 315.503906 623.589844 315.65625 622.9375 315.808594 C 622.703125 315.859375 622.945312 316.382812 622.984375 316.570312 C 623.460938 318.828125 623.933594 321.082031 624.410156 323.339844 C 624.828125 325.335938 625.25 327.328125 625.667969 329.324219 C 625.742188 329.683594 625.882812 329.535156 626.238281 329.476562 C 627.128906 329.332031 628.019531 329.1875 628.910156 329.042969 C 632.558594 328.445312 636.207031 327.851562 639.855469 327.253906 C 640.210938 328.511719 639.855469 327.253906 639.855469 327.253906 "/>
<path fill-rule="nonzero" fill="rgb(10.195923%, 10.195923%, 9.411621%)" fill-opacity="1" d="M 669.722656 335.515625 C 669.589844 334.664062 669.457031 333.816406 669.324219 332.964844 C 669.113281 331.625 668.902344 330.289062 668.695312 328.953125 C 664.730469 329.804688 660.765625 330.65625 656.800781 331.507812 C 656.519531 331.566406 655.972656 331.515625 656.042969 331.851562 C 656.230469 332.757812 656.414062 333.660156 656.601562 334.566406 C 657.039062 336.667969 657.472656 338.765625 657.90625 340.867188 C 657.933594 340.992188 663.890625 339.714844 664.375 339.617188 C 665.839844 339.316406 667.308594 339.019531 668.78125 338.722656 C 669.1875 338.640625 669.597656 338.554688 670.007812 338.472656 C 670.363281 338.402344 670.097656 337.925781 670.054688 337.632812 C 670.054688 337.632812 670.011719 337.371094 669.980469 337.164062 C 669.945312 336.9375 669.90625 336.707031 669.871094 336.480469 C 669.859375 336.28125 669.78125 335.90625 669.722656 335.515625 "/>
<path fill-rule="nonzero" fill="rgb(10.195923%, 10.195923%, 9.411621%)" fill-opacity="1" d="M 611.367188 404.316406 C 609.378906 404.71875 607.371094 405.058594 605.371094 405.414062 C 603.5625 405.734375 601.628906 406.265625 599.796875 406.308594 C 599.679688 406.316406 599.847656 406.316406 599.523438 406.3125 C 599.183594 406.308594 599.242188 406.230469 599.144531 405.949219 C 599.015625 405.566406 598.898438 405.183594 598.792969 404.796875 C 598.523438 403.839844 598.3125 402.871094 598.125 401.898438 C 597.660156 399.539062 597.304688 397.15625 596.925781 394.78125 C 596.277344 390.679688 595.742188 386.585938 595.253906 382.464844 C 594.824219 378.871094 594.015625 375.535156 592.773438 372.140625 C 592.601562 371.675781 592.277344 371.921875 591.816406 372.003906 C 590.804688 372.179688 589.796875 372.355469 588.785156 372.535156 C 586.257812 372.980469 583.726562 373.425781 581.199219 373.871094 C 580.558594 373.984375 579.921875 374.09375 579.28125 374.210938 C 578.859375 374.28125 579.328125 377.957031 579.382812 378.382812 C 579.765625 381.480469 580.546875 384.511719 580.96875 387.605469 C 581.351562 390.390625 581.6875 393.183594 582.019531 395.976562 C 582.082031 396.511719 582.175781 396.835938 582.394531 397.347656 C 582.492188 397.570312 582.324219 398.378906 582.367188 398.714844 C 582.769531 401.785156 583.171875 404.855469 583.582031 407.925781 C 584.039062 406.207031 584.023438 404.292969 584.046875 402.523438 C 584.964844 407.980469 585.886719 413.441406 586.808594 418.902344 C 595.492188 417.300781 604.179688 415.703125 612.847656 414.039062 C 614.121094 413.796875 615.394531 413.550781 616.660156 413.292969 C 616.941406 413.234375 617.617188 413.226562 617.589844 412.917969 C 617.507812 412.03125 617.304688 411.152344 617.117188 410.28125 C 616.6875 408.300781 616.191406 406.339844 615.675781 404.386719 C 615.648438 404.273438 615.484375 403.40625 615.371094 403.429688 C 614.042969 403.75 612.707031 404.042969 611.367188 404.316406 C 609.148438 404.765625 613.589844 403.863281 611.367188 404.316406 "/>
<path fill-rule="nonzero" fill="rgb(10.195923%, 10.195923%, 9.411621%)" fill-opacity="1" d="M 625.882812 374.953125 C 625.292969 377.375 624.71875 379.800781 624.175781 382.234375 C 624.089844 382.128906 623.980469 382.050781 623.980469 382.050781 C 623.65625 381.496094 623.070312 380.804688 622.746094 380.382812 C 622.492188 380.054688 621.652344 378.695312 621.085938 378.144531 C 620.925781 377.984375 620.679688 377.644531 620.566406 377.46875 C 620.359375 377.140625 619.972656 376.757812 619.835938 376.582031 C 619.535156 376.191406 619.0625 375.753906 618.863281 375.324219 C 618.792969 375.308594 618.414062 374.714844 618.320312 374.585938 C 618 374.167969 617.683594 373.753906 617.367188 373.335938 C 616.820312 372.609375 616.269531 371.882812 615.722656 371.15625 C 615.542969 370.945312 615.308594 370.605469 615.195312 370.457031 L 615.074219 370.292969 C 614.886719 370.039062 614.695312 369.789062 614.507812 369.535156 C 614.171875 369.085938 613.832031 368.636719 613.5 368.183594 C 613.171875 367.738281 612.691406 366.640625 612.109375 366.757812 C 610.898438 367.003906 609.699219 367.273438 608.496094 367.539062 C 607.128906 367.84375 605.769531 368.152344 604.40625 368.457031 C 604.027344 368.546875 603.648438 368.632812 603.269531 368.71875 C 602.96875 368.785156 603.082031 368.882812 603.117188 369.199219 C 603.1875 369.742188 603.253906 370.289062 603.320312 370.832031 C 603.375 371.285156 603.90625 371.820312 604.15625 372.191406 C 605.183594 373.710938 606.234375 375.21875 607.277344 376.726562 C 609.453125 379.863281 611.5625 383.046875 613.683594 386.222656 C 614.867188 387.996094 616.050781 389.765625 617.214844 391.546875 C 617.703125 392.296875 618.195312 393.050781 618.671875 393.8125 C 619.042969 394.398438 619.195312 395.003906 619.382812 395.664062 C 620.234375 398.71875 620.980469 401.808594 621.710938 404.890625 C 622.328125 407.46875 622.925781 410.050781 623.511719 412.636719 C 623.53125 412.742188 623.671875 413.632812 623.773438 413.617188 C 624.390625 413.496094 625.011719 413.382812 625.628906 413.265625 C 629.304688 412.574219 632.984375 411.882812 636.660156 411.191406 C 635.890625 407.457031 635.121094 403.722656 634.351562 399.992188 C 633.886719 397.734375 633.417969 395.472656 632.953125 393.210938 C 632.847656 392.6875 632.734375 392.160156 632.625 391.636719 C 632.59375 391.464844 632.65625 391.351562 632.710938 391.179688 C 632.992188 390.257812 633.191406 389.59375 633.484375 388.636719 C 633.84375 387.445312 634.203125 386.257812 634.5625 385.074219 L 634.613281 384.902344 C 634.726562 384.515625 634.804688 384.257812 634.925781 383.867188 L 634.964844 383.730469 C 636.6875 378.015625 638.429688 372.304688 640.027344 366.554688 C 635.832031 367.175781 631.695312 368.15625 627.496094 368.777344 C 627.011719 370.460938 626.378906 372.90625 625.882812 374.953125 "/>
<path fill-rule="nonzero" fill="rgb(10.195923%, 10.195923%, 9.411621%)" fill-opacity="1" d="M 662.464844 376.667969 C 662.390625 376.402344 662.3125 376.132812 662.238281 375.863281 C 662.148438 375.539062 662.109375 375.363281 662.027344 375.125 C 661.960938 374.886719 661.894531 374.644531 661.824219 374.40625 C 661.726562 374.128906 661.710938 374.003906 661.671875 373.867188 C 661.433594 373.023438 661.203125 372.175781 660.980469 371.332031 C 660.921875 371.035156 660.78125 370.535156 660.75 370.378906 C 660.707031 370.167969 660.601562 369.902344 660.574219 369.796875 C 660.488281 369.542969 660.414062 369.183594 660.347656 368.921875 L 660.058594 367.800781 C 659.832031 366.914062 659.609375 366.027344 659.386719 365.136719 C 659.265625 364.636719 658.308594 360.085938 658.128906 360.101562 C 656.671875 360.238281 655.230469 360.464844 653.785156 360.667969 C 650.839844 361.078125 647.898438 361.503906 644.960938 361.9375 C 646.058594 369.144531 647.15625 376.347656 648.242188 383.558594 C 648.601562 385.9375 648.960938 388.3125 649.320312 390.695312 C 649.390625 391.160156 649.460938 391.628906 649.53125 392.097656 C 649.535156 392.117188 650.589844 391.964844 650.660156 391.957031 C 655.082031 391.371094 659.507812 390.785156 663.929688 390.203125 C 664.550781 390.117188 664.273438 389.734375 664.222656 389.140625 C 664.097656 387.628906 663.96875 386.117188 663.839844 384.605469 C 663.726562 383.277344 663.613281 381.945312 663.5 380.609375 C 663.453125 380.039062 662.949219 378.015625 662.617188 377.191406 C 662.523438 376.964844 662.503906 376.84375 662.464844 376.667969 "/>
<path fill-rule="nonzero" fill="rgb(10.195923%, 10.195923%, 9.411621%)" fill-opacity="1" d="M 660.265625 392.546875 C 659.152344 392.480469 658.03125 392.253906 656.925781 392.101562 C 656.105469 391.988281 655.359375 392.683594 654.660156 393.074219 C 653.90625 393.496094 653.480469 393.769531 652.917969 394.40625 C 652.1875 395.238281 651.453125 396.070312 650.71875 396.902344 C 650.578125 397.0625 650.644531 397.480469 650.632812 397.683594 C 650.589844 398.34375 650.550781 399.003906 650.515625 399.664062 C 650.5 399.984375 650.5 400.164062 650.582031 400.46875 C 650.683594 400.855469 650.773438 401.246094 650.855469 401.632812 C 650.960938 402.128906 650.925781 402.933594 651.332031 403.238281 C 652.628906 404.207031 653.851562 405.511719 655.402344 406.066406 C 655.996094 406.273438 656.613281 406.433594 657.234375 406.550781 C 657.683594 406.636719 658.65625 406.078125 659.066406 405.925781 C 660.335938 405.441406 661.542969 404.871094 662.6875 404.132812 C 662.917969 403.984375 664.207031 403.332031 664.222656 403.027344 C 664.253906 402.414062 664.285156 401.796875 664.316406 401.183594 C 664.339844 400.703125 664.476562 400.09375 664.390625 399.621094 C 664.179688 398.410156 663.96875 397.203125 663.757812 395.996094 C 663.675781 395.5 663.085938 394.980469 662.800781 394.585938 C 662.078125 393.582031 661.5 392.921875 660.265625 392.546875 C 659.929688 392.527344 661.246094 392.84375 660.265625 392.546875 "/>
</svg>
