<?xml version="1.0" encoding="UTF-8"?>
<!-- CMYK_PDF_CONVERTED -->
<svg data-vectorized-cmyk="true" data-original-cmyk-pdf="true" xmlns="http://www.w3.org/2000/svg" xmlns:xlink="http://www.w3.org/1999/xlink" width="651.96875" height="518.808594" viewBox="85.046875 19.359375 651.96875 518.808594">
<path fill-rule="nonzero" fill="rgb(100%, 100%, 100%)" fill-opacity="1" d="M 325.390625 139.984375 L 435.285156 139.984375 L 435.285156 104.15625 L 395.5625 104.15625 C 389.960938 104.15625 385.9375 104.65625 385.9375 104.65625 L 385.9375 103.65625 C 385.9375 103.65625 392.414062 98.15625 396.085938 93.988281 L 434.410156 50.492188 L 434.410156 20.828125 L 327.667969 20.828125 L 327.667969 56.660156 L 367.5625 56.660156 C 373.164062 56.660156 377.1875 56.160156 377.1875 56.160156 L 377.1875 57.160156 C 377.1875 57.160156 371.589844 61.65625 367.039062 66.492188 L 325.390625 109.988281 Z M 216.691406 139.984375 L 308.035156 139.984375 L 308.035156 107.488281 L 262.1875 107.488281 L 262.1875 95.824219 L 296.835938 95.824219 L 296.835938 64.15625 L 262.1875 64.15625 L 262.1875 53.324219 L 305.585938 53.324219 L 305.585938 20.828125 L 216.691406 20.828125 Z M 130.542969 74.992188 L 130.542969 54.160156 L 139.996094 54.160156 C 146.820312 54.160156 150.144531 58.492188 150.144531 64.492188 C 150.144531 70.492188 146.644531 74.992188 139.46875 74.992188 Z M 85.046875 139.984375 L 130.542969 139.984375 L 130.542969 105.820312 L 137.195312 105.820312 L 153.292969 139.984375 L 202.113281 139.984375 L 182.867188 105.65625 C 180.589844 101.65625 177.617188 97.65625 176.566406 96.324219 L 176.566406 95.988281 C 187.589844 88.324219 196.164062 76.65625 196.164062 61.65625 C 196.164062 39.492188 177.089844 20.828125 148.394531 20.828125 L 85.046875 20.828125 Z M 85.046875 139.984375 "/>
<path fill-rule="nonzero" fill="rgb(96.008301%, 89.836121%, 11.62262%)" fill-opacity="1" d="M 453.378906 139.984375 L 541.894531 139.984375 L 541.894531 111.777344 L 506.183594 111.777344 C 508.382812 110.488281 512.109375 108.230469 515.15625 105.332031 L 541.050781 79.054688 L 541.050781 56.972656 L 454.730469 56.972656 L 454.730469 86.792969 L 488.75 86.792969 C 486.550781 88.082031 483.164062 90.339844 479.949219 93.078125 L 453.378906 118.0625 Z M 453.378906 139.984375 "/>
<path fill-rule="nonzero" fill="rgb(100%, 100%, 100%)" fill-opacity="1" d="M 682.316406 85.335938 C 683.832031 78.941406 687.871094 72.882812 696.285156 72.882812 C 703.1875 72.882812 707.730469 78.773438 707.730469 85.335938 Z M 651.855469 96.277344 C 651.855469 119.335938 668.515625 141.71875 699.484375 141.71875 C 722.542969 141.71875 736.511719 129.097656 736.511719 129.097656 L 725.738281 108.730469 C 725.738281 108.730469 714.292969 117.484375 701.839844 117.484375 C 692.582031 117.484375 683.832031 112.601562 681.644531 102 L 736.34375 102 C 736.34375 102 737.015625 95.773438 737.015625 92.910156 C 737.015625 68.84375 722.542969 51.003906 696.960938 51.003906 C 669.019531 51.003906 651.855469 70.863281 651.855469 96.277344 M 607.421875 139.699219 L 636.539062 139.699219 L 636.539062 53.023438 L 607.421875 53.023438 Z M 607.757812 42.082031 L 636.203125 42.082031 L 636.203125 19.359375 L 607.757812 19.359375 Z M 559.285156 139.699219 L 586.890625 139.699219 L 586.890625 112.097656 L 559.285156 112.097656 Z M 559.285156 139.699219 "/>
<path fill-rule="nonzero" fill="rgb(100%, 100%, 100%)" fill-opacity="1" d="M 325.390625 338.210938 L 435.285156 338.210938 L 435.285156 302.378906 L 395.5625 302.378906 C 389.960938 302.378906 385.9375 302.878906 385.9375 302.878906 L 385.9375 301.878906 C 385.9375 301.878906 392.414062 296.378906 396.085938 292.214844 L 434.410156 248.714844 L 434.410156 219.050781 L 327.667969 219.050781 L 327.667969 254.882812 L 367.5625 254.882812 C 373.164062 254.882812 377.1875 254.382812 377.1875 254.382812 L 377.1875 255.382812 C 377.1875 255.382812 371.589844 259.882812 367.039062 264.714844 L 325.390625 308.210938 Z M 216.691406 338.210938 L 308.035156 338.210938 L 308.035156 305.710938 L 262.1875 305.710938 L 262.1875 294.046875 L 296.835938 294.046875 L 296.835938 262.382812 L 262.1875 262.382812 L 262.1875 251.550781 L 305.585938 251.550781 L 305.585938 219.050781 L 216.691406 219.050781 Z M 130.542969 273.214844 L 130.542969 252.382812 L 139.996094 252.382812 C 146.820312 252.382812 150.144531 256.714844 150.144531 262.714844 C 150.144531 268.714844 146.644531 273.214844 139.46875 273.214844 Z M 85.046875 338.210938 L 130.542969 338.210938 L 130.542969 304.046875 L 137.195312 304.046875 L 153.292969 338.210938 L 202.113281 338.210938 L 182.867188 303.878906 C 180.589844 299.878906 177.617188 295.878906 176.566406 294.546875 L 176.566406 294.214844 C 187.589844 286.546875 196.164062 274.882812 196.164062 259.882812 C 196.164062 237.71875 177.089844 219.050781 148.394531 219.050781 L 85.046875 219.050781 Z M 85.046875 338.210938 "/>
<path fill-rule="nonzero" fill="rgb(96.008301%, 89.836121%, 11.62262%)" fill-opacity="1" d="M 453.378906 338.210938 L 541.894531 338.210938 L 541.894531 310 L 506.183594 310 C 508.382812 308.710938 512.109375 306.453125 515.15625 303.554688 L 541.050781 277.277344 L 541.050781 255.195312 L 454.730469 255.195312 L 454.730469 285.015625 L 488.75 285.015625 C 486.550781 286.304688 483.164062 288.5625 479.949219 291.304688 L 453.378906 316.289062 Z M 453.378906 338.210938 "/>
<path fill-rule="nonzero" fill="rgb(100%, 100%, 100%)" fill-opacity="1" d="M 682.316406 283.5625 C 683.832031 277.167969 687.871094 271.105469 696.285156 271.105469 C 703.1875 271.105469 707.730469 277 707.730469 283.5625 Z M 651.855469 294.5 C 651.855469 317.558594 668.515625 339.945312 699.484375 339.945312 C 722.542969 339.945312 736.511719 327.320312 736.511719 327.320312 L 725.738281 306.957031 C 725.738281 306.957031 714.292969 315.707031 701.839844 315.707031 C 692.582031 315.707031 683.832031 310.828125 681.644531 300.222656 L 736.34375 300.222656 C 736.34375 300.222656 737.015625 293.996094 737.015625 291.136719 C 737.015625 267.066406 722.542969 249.226562 696.960938 249.226562 C 669.019531 249.226562 651.855469 269.085938 651.855469 294.5 M 607.421875 337.925781 L 636.539062 337.925781 L 636.539062 251.246094 L 607.421875 251.246094 Z M 607.757812 240.308594 L 636.203125 240.308594 L 636.203125 217.585938 L 607.757812 217.585938 Z M 559.285156 337.925781 L 586.890625 337.925781 L 586.890625 310.320312 L 559.285156 310.320312 Z M 559.285156 337.925781 "/>
<path fill-rule="nonzero" fill="rgb(100%, 100%, 100%)" fill-opacity="1" d="M 325.390625 536.433594 L 435.285156 536.433594 L 435.285156 500.601562 L 395.5625 500.601562 C 389.960938 500.601562 385.9375 501.101562 385.9375 501.101562 L 385.9375 500.101562 C 385.9375 500.101562 392.414062 494.601562 396.085938 490.4375 L 434.410156 446.9375 L 434.410156 417.273438 L 327.667969 417.273438 L 327.667969 453.105469 L 367.5625 453.105469 C 373.164062 453.105469 377.1875 452.605469 377.1875 452.605469 L 377.1875 453.605469 C 377.1875 453.605469 371.589844 458.105469 367.039062 462.9375 L 325.390625 506.433594 Z M 216.691406 536.433594 L 308.035156 536.433594 L 308.035156 503.933594 L 262.1875 503.933594 L 262.1875 492.269531 L 296.835938 492.269531 L 296.835938 460.605469 L 262.1875 460.605469 L 262.1875 449.773438 L 305.585938 449.773438 L 305.585938 417.273438 L 216.691406 417.273438 Z M 130.542969 471.4375 L 130.542969 450.605469 L 139.996094 450.605469 C 146.820312 450.605469 150.144531 454.9375 150.144531 460.9375 C 150.144531 466.9375 146.644531 471.4375 139.46875 471.4375 Z M 85.046875 536.433594 L 130.542969 536.433594 L 130.542969 502.269531 L 137.195312 502.269531 L 153.292969 536.433594 L 202.113281 536.433594 L 182.867188 502.101562 C 180.589844 498.101562 177.617188 494.101562 176.566406 492.769531 L 176.566406 492.4375 C 187.589844 484.769531 196.164062 473.105469 196.164062 458.105469 C 196.164062 435.941406 177.089844 417.273438 148.394531 417.273438 L 85.046875 417.273438 Z M 85.046875 536.433594 "/>
<path fill-rule="nonzero" fill="rgb(96.008301%, 89.836121%, 11.62262%)" fill-opacity="1" d="M 453.378906 536.433594 L 541.894531 536.433594 L 541.894531 508.226562 L 506.183594 508.226562 C 508.382812 506.933594 512.109375 504.679688 515.15625 501.777344 L 541.050781 475.503906 L 541.050781 453.421875 L 454.730469 453.421875 L 454.730469 483.238281 L 488.75 483.238281 C 486.550781 484.53125 483.164062 486.785156 479.949219 489.527344 L 453.378906 514.511719 Z M 453.378906 536.433594 "/>
<path fill-rule="nonzero" fill="rgb(100%, 100%, 100%)" fill-opacity="1" d="M 682.316406 481.785156 C 683.832031 475.390625 687.871094 469.332031 696.285156 469.332031 C 703.1875 469.332031 707.730469 475.222656 707.730469 481.785156 Z M 651.855469 492.726562 C 651.855469 515.78125 668.515625 538.167969 699.484375 538.167969 C 722.542969 538.167969 736.511719 525.542969 736.511719 525.542969 L 725.738281 505.179688 C 725.738281 505.179688 714.292969 513.933594 701.839844 513.933594 C 692.582031 513.933594 683.832031 509.050781 681.644531 498.445312 L 736.34375 498.445312 C 736.34375 498.445312 737.015625 492.21875 737.015625 489.359375 C 737.015625 465.289062 722.542969 447.453125 696.960938 447.453125 C 669.019531 447.453125 651.855469 467.3125 651.855469 492.726562 M 607.421875 536.148438 L 636.539062 536.148438 L 636.539062 449.472656 L 607.421875 449.472656 Z M 607.757812 438.53125 L 636.203125 438.53125 L 636.203125 415.808594 L 607.757812 415.808594 Z M 559.285156 536.148438 L 586.890625 536.148438 L 586.890625 508.546875 L 559.285156 508.546875 Z M 559.285156 536.148438 "/>
</svg>
