<?xml version="1.0" encoding="UTF-8"?>
<!-- CMYK_PDF_CONVERTED -->
<svg data-vectorized-cmyk="true" data-original-cmyk-pdf="true" xmlns="http://www.w3.org/2000/svg" xmlns:xlink="http://www.w3.org/1999/xlink" width="595.276" height="841.89" viewBox="0 0 595.276 841.89">
<path fill-rule="nonzero" fill="rgb(6.307983%, 5.787659%, 5.090332%)" fill-opacity="1" d="M 382.664062 509.863281 L 382.664062 418.390625 L 455.222656 418.390625 Z M 301.125 416.164062 L 298.320312 416.164062 L 298.351562 417.296875 L 298.351562 338.027344 L 318.082031 310.878906 L 372.441406 416.164062 Z M 298.320312 610.890625 L 221.6875 610.890625 C 232.03125 607.515625 241.039062 602.960938 248.660156 597.1875 C 267.027344 583.289062 276.207031 563.460938 276.207031 537.695312 C 276.207031 507.34375 262.300781 485.792969 234.503906 473.035156 C 256.179688 461.105469 267.5 442.886719 268.476562 418.390625 L 297.21875 418.390625 L 297.21875 418.359375 L 298.320312 418.359375 Z M 186.105469 549.746094 C 180.875 553.707031 172.390625 555.675781 160.660156 555.675781 L 124.699219 555.675781 L 124.699219 505.558594 L 160.660156 505.558594 C 172.648438 505.558594 181.191406 507.535156 186.296875 511.488281 C 191.394531 515.445312 193.949219 521.882812 193.949219 530.808594 C 193.949219 539.484375 191.332031 545.796875 186.105469 549.746094 M 124.699219 407.230469 L 158.75 407.230469 C 168.441406 407.230469 175.453125 408.824219 179.792969 412.011719 C 184.125 415.203125 186.296875 420.496094 186.296875 427.890625 C 186.296875 435.03125 184.125 440.265625 179.792969 443.574219 C 175.453125 446.894531 168.441406 448.550781 158.75 448.550781 L 124.699219 448.550781 Z M 463.316406 521.328125 L 550.757812 416.164062 L 550.757812 44.378906 L 176.730469 44.378906 L 176.730469 122.335938 L 481.242188 122.335938 L 481.242188 416.164062 L 464.414062 416.164062 L 373.21875 246.984375 L 455.929688 145.214844 L 367.257812 145.214844 L 297.21875 235.890625 L 297.21875 145.214844 L 219.632812 145.214844 L 219.632812 242.949219 L 134.550781 242.949219 L 134.550781 44.378906 L 47.699219 44.378906 L 47.699219 317.554688 L 219.632812 317.554688 L 219.632812 350.492188 C 206.734375 346.746094 191.289062 344.863281 173.289062 344.863281 L 45.5 344.863281 L 45.5 699.273438 L 382.609375 699.273438 L 382.609375 698.449219 L 382.664062 698.449219 L 382.664062 614.238281 L 404.804688 587.355469 L 461.21875 698.449219 L 550.757812 698.449219 Z M 463.316406 521.328125 "/>
<path fill-rule="nonzero" fill="rgb(96.02356%, 47.514343%, 14.590454%)" fill-opacity="1" d="M 80.933594 93.980469 L 80.933594 66.183594 L 87.132812 66.183594 L 87.132812 88.5 L 101.199219 88.5 L 101.199219 93.980469 Z M 80.933594 93.980469 "/>
<path fill-rule="nonzero" fill="rgb(96.02356%, 47.514343%, 14.590454%)" fill-opacity="1" d="M 84.847656 124.433594 L 92.027344 124.433594 L 88.472656 111.296875 Z M 83.988281 128.847656 L 82.519531 134.152344 L 76.25 134.152344 L 85.285156 106.359375 L 92.0625 106.359375 L 101.101562 134.152344 L 94.863281 134.152344 L 93.394531 128.847656 Z M 83.988281 128.847656 "/>
<path fill-rule="nonzero" fill="rgb(96.02356%, 47.514343%, 14.590454%)" fill-opacity="1" d="M 99.253906 172.382812 C 98.167969 173.234375 96.972656 173.867188 95.671875 174.28125 C 94.367188 174.699219 92.90625 174.90625 91.285156 174.90625 C 89.4375 174.90625 87.738281 174.582031 86.1875 173.941406 C 84.636719 173.296875 83.296875 172.363281 82.175781 171.136719 C 80.949219 169.785156 80.027344 168.210938 79.410156 166.429688 C 78.792969 164.640625 78.480469 162.65625 78.480469 160.472656 C 78.480469 159.011719 78.617188 157.628906 78.890625 156.324219 C 79.167969 155.015625 79.566406 153.828125 80.09375 152.765625 C 81.214844 150.511719 82.679688 148.808594 84.488281 147.652344 C 86.300781 146.496094 88.425781 145.917969 90.863281 145.917969 C 92.300781 145.917969 93.652344 146.09375 94.925781 146.445312 C 96.199219 146.792969 97.425781 147.324219 98.605469 148.035156 L 98.605469 154.480469 C 97.835938 153.488281 96.925781 152.746094 95.882812 152.25 C 94.835938 151.753906 93.652344 151.503906 92.335938 151.503906 C 90.070312 151.503906 88.253906 152.316406 86.886719 153.929688 C 85.523438 155.550781 84.839844 157.703125 84.839844 160.402344 C 84.839844 163.160156 85.53125 165.332031 86.914062 166.917969 C 88.300781 168.507812 90.1875 169.300781 92.582031 169.300781 C 93.921875 169.300781 95.152344 169.058594 96.265625 168.574219 C 97.382812 168.089844 98.378906 167.363281 99.253906 166.390625 Z M 99.253906 172.382812 "/>
<path fill-rule="nonzero" fill="rgb(96.02356%, 47.514343%, 14.590454%)" fill-opacity="1" d="M 79.015625 214.5 L 79.015625 186.707031 L 85.214844 186.707031 L 85.214844 199.300781 L 95.25 186.707031 L 102.394531 186.707031 L 91.378906 200.15625 L 102.902344 214.5 L 95.441406 214.5 L 85.214844 201.523438 L 85.214844 214.5 Z M 79.015625 214.5 "/>
<path fill-rule="nonzero" fill="rgb(96.02356%, 47.514343%, 14.590454%)" fill-opacity="1" d="M 78.605469 254.671875 L 78.605469 226.878906 L 99.726562 226.878906 L 99.726562 232.359375 L 84.804688 232.359375 L 84.804688 237.738281 L 98.761719 237.738281 L 98.761719 242.90625 L 84.804688 242.90625 L 84.804688 249.191406 L 99.726562 249.191406 L 99.726562 254.671875 Z M 78.605469 254.671875 "/>
<path fill-rule="nonzero" fill="rgb(96.02356%, 47.514343%, 14.590454%)" fill-opacity="1" d="M 93.859375 294.847656 L 84.734375 279.539062 C 84.476562 279.09375 84.222656 278.53125 83.972656 277.839844 C 83.722656 277.152344 83.492188 276.371094 83.28125 275.492188 C 83.386719 276.59375 83.464844 277.632812 83.519531 278.617188 C 83.570312 279.605469 83.597656 280.519531 83.597656 281.359375 L 83.597656 294.847656 L 78.183594 294.847656 L 78.183594 267.050781 L 83.5625 267.050781 L 92.28125 281.796875 C 92.738281 282.558594 93.113281 283.324219 93.410156 284.101562 C 93.710938 284.875 93.941406 285.675781 94.105469 286.492188 C 93.988281 285.324219 93.898438 284.246094 93.839844 283.261719 C 93.78125 282.273438 93.753906 281.402344 93.753906 280.644531 L 93.753906 267.050781 L 99.199219 267.050781 L 99.199219 294.847656 Z M 93.859375 294.847656 "/>
<path fill-rule="nonzero" fill="rgb(96.02356%, 47.514343%, 14.590454%)" fill-opacity="1" d="M 248.238281 188.605469 L 248.238281 164.515625 L 253.613281 164.515625 L 253.613281 175.429688 L 262.3125 164.515625 L 268.503906 164.515625 L 258.957031 176.171875 L 268.945312 188.605469 L 262.476562 188.605469 L 253.613281 177.359375 L 253.613281 188.605469 Z M 248.238281 188.605469 "/>
<path fill-rule="nonzero" fill="rgb(96.02356%, 47.514343%, 14.590454%)" fill-opacity="1" d="M 253.9375 199.332031 L 259.3125 199.332031 L 259.3125 223.421875 L 253.9375 223.421875 Z M 253.9375 199.332031 "/>
<path fill-rule="nonzero" fill="rgb(96.02356%, 47.514343%, 14.590454%)" fill-opacity="1" d="M 249.902344 258.238281 L 249.902344 234.148438 L 255.277344 234.148438 L 255.277344 253.488281 L 267.464844 253.488281 L 267.464844 258.238281 Z M 249.902344 258.238281 "/>
<path fill-rule="nonzero" fill="rgb(96.02356%, 47.514343%, 14.590454%)" fill-opacity="1" d="M 249.902344 293.054688 L 249.902344 268.964844 L 255.277344 268.964844 L 255.277344 288.304688 L 267.464844 288.304688 L 267.464844 293.054688 Z M 249.902344 293.054688 "/>
<path fill-rule="nonzero" fill="rgb(96.02356%, 47.514343%, 14.590454%)" fill-opacity="1" d="M 253.292969 319.445312 L 259.519531 319.445312 L 256.4375 308.0625 Z M 252.550781 323.273438 L 251.273438 327.871094 L 245.839844 327.871094 L 253.675781 303.78125 L 259.546875 303.78125 L 267.378906 327.871094 L 261.976562 327.871094 L 260.699219 323.273438 Z M 252.550781 323.273438 "/>
<path fill-rule="nonzero" fill="rgb(96.02356%, 47.514343%, 14.590454%)" fill-opacity="1" d="M 249.902344 362.6875 L 249.902344 338.597656 L 255.277344 338.597656 L 255.277344 357.9375 L 267.464844 357.9375 L 267.464844 362.6875 Z M 249.902344 362.6875 "/>
<path fill-rule="nonzero" fill="rgb(96.02356%, 47.514343%, 14.590454%)" fill-opacity="1" d="M 253.292969 389.078125 L 259.519531 389.078125 L 256.4375 377.695312 Z M 252.550781 392.902344 L 251.273438 397.503906 L 245.839844 397.503906 L 253.675781 373.414062 L 259.546875 373.414062 L 267.378906 397.503906 L 261.976562 397.503906 L 260.699219 392.902344 Z M 252.550781 392.902344 "/>
<path fill-rule="nonzero" fill="rgb(96.02356%, 47.514343%, 14.590454%)" fill-opacity="1" d="M 331.574219 466.867188 L 331.574219 442.777344 L 336.945312 442.777344 L 336.945312 453.691406 L 345.644531 442.777344 L 351.835938 442.777344 L 342.289062 454.433594 L 352.277344 466.867188 L 345.8125 466.867188 L 336.945312 455.621094 L 336.945312 466.867188 Z M 331.574219 466.867188 "/>
<path fill-rule="nonzero" fill="rgb(96.02356%, 47.514343%, 14.590454%)" fill-opacity="1" d="M 337.273438 477.59375 L 342.648438 477.59375 L 342.648438 501.683594 L 337.273438 501.683594 Z M 337.273438 477.59375 "/>
<path fill-rule="nonzero" fill="rgb(96.02356%, 47.514343%, 14.590454%)" fill-opacity="1" d="M 333.234375 536.5 L 333.234375 512.410156 L 338.609375 512.410156 L 338.609375 531.75 L 350.796875 531.75 L 350.796875 536.5 Z M 333.234375 536.5 "/>
<path fill-rule="nonzero" fill="rgb(96.02356%, 47.514343%, 14.590454%)" fill-opacity="1" d="M 332.507812 571.316406 L 332.507812 547.226562 L 349.75 547.226562 L 349.75 551.980469 L 337.878906 551.980469 L 337.878906 556.636719 L 348.882812 556.636719 L 348.882812 561.117188 L 337.878906 561.117188 L 337.878906 571.316406 Z M 332.507812 571.316406 "/>
<path fill-rule="nonzero" fill="rgb(96.02356%, 47.514343%, 14.590454%)" fill-opacity="1" d="M 337.273438 582.046875 L 342.648438 582.046875 L 342.648438 606.136719 L 337.273438 606.136719 Z M 337.273438 582.046875 "/>
<path fill-rule="nonzero" fill="rgb(96.02356%, 47.514343%, 14.590454%)" fill-opacity="1" d="M 336.625 632.523438 L 342.851562 632.523438 L 339.769531 621.140625 Z M 335.882812 636.347656 L 334.609375 640.949219 L 329.175781 640.949219 L 337.007812 616.859375 L 342.882812 616.859375 L 350.714844 640.949219 L 345.308594 640.949219 L 344.035156 636.347656 Z M 335.882812 636.347656 "/>
<path fill-rule="nonzero" fill="rgb(96.02356%, 47.514343%, 14.590454%)" fill-opacity="1" d="M 344.4375 675.769531 L 336.527344 662.5 C 336.308594 662.117188 336.085938 661.625 335.867188 661.027344 C 335.652344 660.433594 335.453125 659.753906 335.269531 658.996094 C 335.359375 659.945312 335.429688 660.851562 335.472656 661.703125 C 335.519531 662.558594 335.542969 663.351562 335.542969 664.078125 L 335.542969 675.769531 L 330.851562 675.769531 L 330.851562 651.675781 L 335.511719 651.675781 L 343.070312 664.460938 C 343.46875 665.117188 343.792969 665.78125 344.050781 666.453125 C 344.308594 667.128906 344.507812 667.820312 344.648438 668.527344 C 344.546875 667.515625 344.472656 666.582031 344.421875 665.726562 C 344.375 664.871094 344.347656 664.113281 344.347656 663.457031 L 344.347656 651.675781 L 349.066406 651.675781 L 349.066406 675.769531 Z M 344.4375 675.769531 "/>
<path fill-rule="nonzero" fill="rgb(96.02356%, 47.514343%, 14.590454%)" fill-opacity="1" d="M 77.828125 368.988281 L 77.828125 373.984375 L 79.5625 373.984375 C 80.625 373.984375 81.40625 373.78125 81.902344 373.378906 C 82.398438 372.976562 82.644531 372.34375 82.644531 371.476562 C 82.644531 370.597656 82.410156 369.960938 81.933594 369.570312 C 81.457031 369.179688 80.667969 368.988281 79.5625 368.988281 Z M 77.804688 377.167969 L 77.804688 382.640625 L 80.691406 382.640625 C 81.875 382.640625 82.726562 382.425781 83.25 381.996094 C 83.773438 381.570312 84.03125 380.871094 84.03125 379.902344 C 84.03125 378.945312 83.773438 378.25 83.25 377.816406 C 82.726562 377.382812 81.875 377.167969 80.691406 377.167969 Z M 73.308594 386.03125 L 73.308594 365.648438 L 79.664062 365.648438 C 81.121094 365.648438 82.203125 365.691406 82.910156 365.78125 C 83.617188 365.871094 84.164062 366.019531 84.558594 366.226562 C 85.382812 366.652344 85.992188 367.222656 86.390625 367.933594 C 86.789062 368.644531 86.988281 369.523438 86.988281 370.566406 C 86.988281 371.550781 86.808594 372.378906 86.445312 373.046875 C 86.085938 373.710938 85.523438 374.285156 84.75 374.765625 C 86.035156 375.210938 86.992188 375.851562 87.625 376.691406 C 88.25 377.53125 88.566406 378.59375 88.566406 379.878906 C 88.566406 382.027344 87.941406 383.589844 86.691406 384.566406 C 85.441406 385.542969 83.445312 386.03125 80.691406 386.03125 Z M 73.308594 386.03125 "/>
<path fill-rule="nonzero" fill="rgb(96.02356%, 47.514343%, 14.590454%)" fill-opacity="1" d="M 77.246094 408.363281 L 82.511719 408.363281 L 79.902344 398.726562 Z M 76.613281 411.597656 L 75.535156 415.488281 L 70.9375 415.488281 L 77.566406 395.105469 L 82.539062 395.105469 L 89.164062 415.488281 L 84.59375 415.488281 L 83.515625 411.597656 Z M 76.613281 411.597656 "/>
<path fill-rule="nonzero" fill="rgb(96.02356%, 47.514343%, 14.590454%)" fill-opacity="1" d="M 74.375 444.949219 L 74.375 424.566406 L 78.921875 424.566406 L 78.921875 440.929688 L 89.234375 440.929688 L 89.234375 444.949219 Z M 74.375 444.949219 "/>
<path fill-rule="nonzero" fill="rgb(96.02356%, 47.514343%, 14.590454%)" fill-opacity="1" d="M 74.375 474.410156 L 74.375 454.027344 L 78.921875 454.027344 L 78.921875 470.390625 L 89.234375 470.390625 L 89.234375 474.410156 Z M 74.375 474.410156 "/>
<path fill-rule="nonzero" fill="rgb(96.02356%, 47.514343%, 14.590454%)" fill-opacity="1" d="M 77.765625 503.871094 L 77.765625 494.558594 L 70.109375 483.488281 L 75.261719 483.488281 L 80.078125 491.167969 L 84.96875 483.488281 L 89.992188 483.488281 L 82.3125 494.558594 L 82.3125 503.871094 Z M 77.765625 503.871094 "/>
<path fill-rule="nonzero" fill="rgb(96.02356%, 47.514343%, 14.590454%)" fill-opacity="1" d="M 87.808594 531.90625 C 87.011719 532.53125 86.136719 532.992188 85.179688 533.296875 C 84.226562 533.601562 83.152344 533.753906 81.964844 533.753906 C 80.609375 533.753906 79.367188 533.519531 78.226562 533.046875 C 77.085938 532.578125 76.105469 531.890625 75.285156 530.992188 C 74.386719 530 73.710938 528.847656 73.257812 527.539062 C 72.800781 526.226562 72.574219 524.773438 72.574219 523.171875 C 72.574219 522.101562 72.675781 521.085938 72.878906 520.125 C 73.078125 519.167969 73.371094 518.300781 73.757812 517.519531 C 74.578125 515.867188 75.652344 514.617188 76.980469 513.769531 C 78.308594 512.921875 79.867188 512.496094 81.65625 512.496094 C 82.710938 512.496094 83.703125 512.625 84.632812 512.882812 C 85.570312 513.140625 86.46875 513.53125 87.335938 514.050781 L 87.335938 518.777344 C 86.769531 518.050781 86.101562 517.503906 85.335938 517.140625 C 84.570312 516.777344 83.703125 516.59375 82.734375 516.59375 C 81.074219 516.59375 79.742188 517.1875 78.738281 518.375 C 77.738281 519.558594 77.238281 521.140625 77.238281 523.121094 C 77.238281 525.140625 77.746094 526.734375 78.757812 527.898438 C 79.773438 529.0625 81.160156 529.644531 82.914062 529.644531 C 83.898438 529.644531 84.800781 529.46875 85.617188 529.109375 C 86.433594 528.757812 87.164062 528.222656 87.808594 527.511719 Z M 87.808594 531.90625 "/>
<path fill-rule="nonzero" fill="rgb(96.02356%, 47.514343%, 14.590454%)" fill-opacity="1" d="M 77.246094 555.660156 L 82.511719 555.660156 L 79.902344 546.027344 Z M 76.613281 558.898438 L 75.535156 562.789062 L 70.9375 562.789062 L 77.566406 542.40625 L 82.539062 542.40625 L 89.164062 562.789062 L 84.59375 562.789062 L 83.515625 558.898438 Z M 76.613281 558.898438 "/>
<path fill-rule="nonzero" fill="rgb(96.02356%, 47.514343%, 14.590454%)" fill-opacity="1" d="M 82.171875 580.578125 C 83.660156 581.296875 84.726562 582.089844 85.363281 582.960938 C 86 583.828125 86.316406 584.910156 86.316406 586.203125 C 86.316406 588.128906 85.710938 589.6875 84.496094 590.882812 C 83.28125 592.078125 81.6875 592.675781 79.71875 592.675781 C 78.484375 592.675781 77.351562 592.433594 76.320312 591.949219 C 75.289062 591.464844 74.320312 590.722656 73.410156 589.722656 L 75.621094 586.855469 C 76.222656 587.558594 76.855469 588.09375 77.527344 588.464844 C 78.199219 588.832031 78.878906 589.015625 79.566406 589.015625 C 80.324219 589.015625 80.941406 588.789062 81.414062 588.339844 C 81.882812 587.890625 82.121094 587.300781 82.121094 586.574219 C 82.121094 586.058594 81.980469 585.632812 81.703125 585.289062 C 81.421875 584.949219 80.871094 584.566406 80.039062 584.148438 L 77.90625 583.070312 C 76.425781 582.3125 75.375 581.507812 74.757812 580.65625 C 74.144531 579.796875 73.832031 578.734375 73.832031 577.46875 C 73.832031 575.738281 74.425781 574.296875 75.613281 573.144531 C 76.800781 571.996094 78.292969 571.417969 80.089844 571.417969 C 81.347656 571.417969 82.464844 571.65625 83.441406 572.125 C 84.417969 572.59375 85.257812 573.308594 85.957031 574.257812 L 83.429688 576.839844 C 82.925781 576.230469 82.410156 575.785156 81.886719 575.503906 C 81.363281 575.21875 80.792969 575.082031 80.167969 575.082031 C 79.558594 575.082031 79.054688 575.273438 78.660156 575.664062 C 78.261719 576.054688 78.0625 576.550781 78.0625 577.148438 C 78.0625 577.644531 78.207031 578.082031 78.496094 578.457031 C 78.789062 578.835938 79.234375 579.171875 79.832031 579.472656 Z M 82.171875 580.578125 "/>
<path fill-rule="nonzero" fill="rgb(96.02356%, 47.514343%, 14.590454%)" fill-opacity="1" d="M 71.988281 605.273438 L 71.988281 601.328125 L 88.144531 601.328125 L 88.144531 605.273438 L 82.328125 605.273438 L 82.328125 621.710938 L 77.804688 621.710938 L 77.804688 605.273438 Z M 71.988281 605.273438 "/>
<path fill-rule="nonzero" fill="rgb(96.02356%, 47.514343%, 14.590454%)" fill-opacity="1" d="M 74.375 651.171875 L 74.375 630.789062 L 78.921875 630.789062 L 78.921875 647.152344 L 89.234375 647.152344 L 89.234375 651.171875 Z M 74.375 651.171875 "/>
<path fill-rule="nonzero" fill="rgb(96.02356%, 47.514343%, 14.590454%)" fill-opacity="1" d="M 72.667969 680.632812 L 72.667969 660.25 L 88.15625 660.25 L 88.15625 664.269531 L 77.214844 664.269531 L 77.214844 668.214844 L 87.449219 668.214844 L 87.449219 672.003906 L 77.214844 672.003906 L 77.214844 676.613281 L 88.15625 676.613281 L 88.15625 680.632812 Z M 72.667969 680.632812 "/>
<path fill-rule="nonzero" fill="rgb(96.02356%, 47.514343%, 14.590454%)" fill-opacity="1" d="M 550.757812 451.441406 L 550.757812 651.554688 L 488.875 524.554688 Z M 550.757812 451.441406 "/>
<path fill-rule="nonzero" fill="rgb(96.02356%, 47.514343%, 14.590454%)" fill-opacity="1" d="M 460.785156 176.914062 L 460.785156 358.769531 L 398.898438 250.03125 Z M 460.785156 176.914062 "/>
<path fill-rule="nonzero" fill="rgb(96.02356%, 47.514343%, 14.590454%)" fill-opacity="1" d="M 27.839844 715.351562 L 568.421875 715.351562 L 568.421875 28.300781 L 27.839844 28.300781 Z M 574.507812 721.4375 L 21.75 721.4375 L 21.75 22.210938 L 574.507812 22.210938 Z M 574.507812 721.4375 "/>
</svg>
