<?xml version="1.0" encoding="UTF-8"?>
<svg data-vectorized-cmyk="true" data-original-cmyk-pdf="true" xmlns="http://www.w3.org/2000/svg" xmlns:xlink="http://www.w3.org/1999/xlink" width="449.917969" height="399" viewBox="49.921875 9 449.917969 399">
<path fill-rule="nonzero" fill="rgb(0.392151%, 39.215088%, 49.01886%)" fill-opacity="1" d="M 235.976562 245.828125 L 82.699219 245.828125 L 82.699219 234.695312 L 235.976562 234.695312 Z M 235.976562 245.828125 "/>
<path fill-rule="nonzero" fill="rgb(0.392151%, 39.215088%, 49.01886%)" fill-opacity="1" d="M 235.976562 245.828125 L 224.273438 245.828125 L 224.273438 165.621094 L 235.976562 165.621094 Z M 235.976562 245.828125 "/>
<path fill-rule="nonzero" fill="rgb(0.392151%, 39.215088%, 49.01886%)" fill-opacity="1" d="M 505.285156 245.828125 L 400.957031 245.828125 L 400.957031 234.695312 L 505.285156 234.695312 Z M 505.285156 245.828125 "/>
<path fill-rule="nonzero" fill="rgb(0.392151%, 39.215088%, 49.01886%)" fill-opacity="1" d="M 412.660156 245.828125 L 400.957031 245.828125 L 400.957031 165.621094 L 412.660156 165.621094 Z M 412.660156 245.828125 "/>
<path fill-rule="nonzero" fill="rgb(0.392151%, 39.215088%, 49.01886%)" fill-opacity="1" d="M 318.609375 98.117188 L 416.519531 180.320312 L 436.066406 180.320312 L 318.609375 81.703125 L 203.582031 180.320312 L 222.722656 180.320312 Z M 318.609375 98.117188 "/>
<path fill-rule="nonzero" fill="rgb(0.392151%, 39.215088%, 49.01886%)" fill-opacity="1" d="M 315.9375 188.527344 L 295.410156 188.527344 L 295.410156 168 L 315.9375 168 Z M 315.9375 188.527344 "/>
<path fill-rule="nonzero" fill="rgb(92.941284%, 42.352295%, 31.37207%)" fill-opacity="1" d="M 315.9375 213.496094 L 295.410156 213.496094 L 295.410156 192.96875 L 315.9375 192.96875 Z M 315.9375 213.496094 "/>
<path fill-rule="nonzero" fill="rgb(92.941284%, 42.352295%, 31.37207%)" fill-opacity="1" d="M 340.445312 188.527344 L 319.917969 188.527344 L 319.917969 168 L 340.445312 168 Z M 340.445312 188.527344 "/>
<path fill-rule="nonzero" fill="rgb(0.392151%, 39.215088%, 49.01886%)" fill-opacity="1" d="M 340.445312 213.496094 L 319.917969 213.496094 L 319.917969 192.96875 L 340.445312 192.96875 Z M 340.445312 213.496094 "/>
<path fill-rule="nonzero" fill="rgb(0.392151%, 39.215088%, 49.01886%)" fill-opacity="1" d="M 203.625 166.617188 L 208.539062 162.746094 L 208.539062 43.269531 L 215 47.734375 L 215 157.652344 L 223.910156 150.632812 L 223.910156 39.308594 L 182.078125 9 L 141.3125 38.238281 L 141.3125 72.8125 L 106.738281 90.742188 L 106.738281 237.578125 L 142.382812 238.355469 L 142.382812 80.496094 L 168.847656 95.4375 L 168.847656 238.933594 L 185.785156 239.304688 L 185.785156 27.550781 L 192.25 32.015625 L 192.25 239.445312 L 197.160156 239.554688 L 197.160156 35.410156 L 203.625 39.875 Z M 203.625 166.617188 "/>
<path fill-rule="nonzero" fill="rgb(0.392151%, 39.215088%, 49.01886%)" fill-opacity="1" d="M 148.785156 238.496094 L 162.441406 238.792969 L 162.441406 99.917969 L 148.785156 92.234375 Z M 148.785156 238.496094 "/>
<path fill-rule="nonzero" fill="rgb(0.392151%, 39.215088%, 49.01886%)" fill-opacity="1" d="M 203.625 188.550781 L 203.625 239.695312 L 208.539062 239.800781 L 208.539062 188.550781 Z M 203.625 188.550781 "/>
<path fill-rule="nonzero" fill="rgb(0.392151%, 39.215088%, 49.01886%)" fill-opacity="1" d="M 213.738281 188.550781 L 213.738281 239.695312 L 218.652344 239.800781 L 218.652344 188.550781 Z M 213.738281 188.550781 "/>
<path fill-rule="nonzero" fill="rgb(0.392151%, 39.215088%, 49.01886%)" fill-opacity="1" d="M 267.894531 136.460938 L 245.914062 149.101562 L 245.914062 111.296875 L 267.894531 111.296875 Z M 267.894531 136.460938 "/>
<path fill-rule="nonzero" fill="rgb(0.392151%, 39.215088%, 49.01886%)" fill-opacity="1" d="M 513.28125 88.460938 L 505.988281 88.460938 L 505.988281 95.496094 L 511.230469 95.496094 C 512.066406 95.496094 512.746094 96.175781 512.746094 97.011719 L 512.746094 111.820312 C 512.746094 112.613281 512.28125 113.3125 511.539062 113.597656 C 504.382812 116.316406 467.621094 130.285156 462.703125 132.199219 C 457.253906 134.320312 455.921875 137.441406 455.921875 141.980469 L 455.921875 156.402344 C 454.261719 156.464844 452.339844 156.59375 451.058594 156.878906 C 448.4375 157.460938 448.394531 160.164062 448.394531 161.078125 C 448.394531 161.996094 448.480469 163.453125 450.308594 163.453125 L 450.984375 163.453125 C 450.984375 163.464844 450.976562 163.476562 450.976562 163.488281 L 450.976562 222.558594 C 450.976562 224.746094 452.746094 226.515625 454.933594 226.515625 L 462.539062 226.515625 C 464.726562 226.515625 466.5 224.746094 466.5 222.558594 L 466.5 163.488281 C 466.5 163.476562 466.492188 163.464844 466.492188 163.453125 L 467.164062 163.453125 C 468.996094 163.453125 469.078125 161.996094 469.078125 161.078125 C 469.078125 160.164062 469.035156 157.460938 466.414062 156.878906 C 465.285156 156.625 463.65625 156.496094 462.140625 156.425781 L 462.140625 141.363281 C 462.140625 140.144531 462.871094 139.0625 464.015625 138.636719 C 472.921875 135.328125 510.660156 121.300781 514.347656 119.730469 C 518.535156 117.949219 519.425781 116.257812 519.425781 112.515625 L 519.425781 95.675781 C 519.425781 93.714844 518.535156 88.460938 513.28125 88.460938 "/>
<path fill-rule="nonzero" fill="rgb(92.941284%, 42.352295%, 31.37207%)" fill-opacity="1" d="M 497.332031 73.046875 L 419.644531 73.046875 C 415.316406 73.046875 411.804688 76.558594 411.804688 80.886719 L 411.804688 89.261719 L 404.410156 89.261719 L 404.410156 94.785156 L 411.804688 94.785156 L 411.804688 101.378906 C 411.804688 105.707031 415.316406 109.21875 419.644531 109.21875 L 497.332031 109.21875 C 501.664062 109.21875 505.171875 105.707031 505.171875 101.378906 L 505.171875 80.886719 C 505.171875 76.558594 501.664062 73.046875 497.332031 73.046875 "/>
<path fill-rule="nonzero" fill="rgb(92.941284%, 42.352295%, 31.37207%)" fill-opacity="1" d="M 72.523438 308.675781 C 74.957031 308.675781 77.171875 308.285156 79.167969 307.507812 C 81.160156 306.730469 82.855469 305.640625 84.25 304.238281 C 85.644531 302.839844 86.726562 301.167969 87.503906 299.234375 C 88.28125 297.300781 88.667969 295.199219 88.667969 292.933594 L 88.667969 292.796875 C 88.667969 290.53125 88.28125 288.417969 87.503906 286.460938 C 86.726562 284.503906 85.644531 282.828125 84.25 281.421875 C 82.855469 280.023438 81.160156 278.921875 79.167969 278.121094 C 77.171875 277.320312 74.957031 276.921875 72.523438 276.921875 L 63.355469 276.921875 L 63.355469 308.675781 Z M 55.25 269.546875 L 72.589844 269.546875 C 76.222656 269.546875 79.554688 270.136719 82.589844 271.304688 C 85.621094 272.480469 88.234375 274.109375 90.425781 276.191406 C 92.621094 278.273438 94.3125 280.71875 95.507812 283.53125 C 96.703125 286.34375 97.300781 289.386719 97.300781 292.664062 L 97.300781 292.796875 C 97.300781 296.074219 96.703125 299.128906 95.507812 301.964844 C 94.3125 304.800781 92.621094 307.257812 90.425781 309.339844 C 88.234375 311.421875 85.621094 313.058594 82.589844 314.257812 C 79.554688 315.453125 76.222656 316.050781 72.589844 316.050781 L 55.25 316.050781 Z M 55.25 269.546875 "/>
<path fill-rule="nonzero" fill="rgb(92.941284%, 42.352295%, 31.37207%)" fill-opacity="1" d="M 119.757812 287.816406 C 122.148438 286.929688 123.964844 285.921875 125.203125 284.792969 C 126.445312 283.664062 127.0625 282.257812 127.0625 280.574219 L 127.0625 280.441406 C 127.0625 278.894531 126.566406 277.628906 125.570312 276.65625 C 124.574219 275.683594 123.300781 275.195312 121.75 275.195312 C 120.066406 275.195312 118.726562 275.714844 117.730469 276.753906 C 116.738281 277.792969 116.238281 279.136719 116.238281 280.773438 L 116.238281 280.90625 C 116.238281 282.058594 116.503906 283.144531 117.035156 284.164062 C 117.566406 285.183594 118.472656 286.398438 119.757812 287.816406 M 118.5625 309.9375 C 120.15625 309.9375 121.683594 309.585938 123.144531 308.875 C 124.605469 308.167969 126 307.171875 127.332031 305.886719 L 116.96875 295.324219 C 114.796875 296.25 113.222656 297.394531 112.253906 298.742188 C 111.277344 300.09375 110.789062 301.523438 110.789062 303.03125 L 110.789062 303.160156 C 110.789062 305.15625 111.519531 306.78125 112.980469 308.042969 C 114.445312 309.304688 116.304688 309.9375 118.5625 309.9375 M 131.980469 310.667969 C 129.988281 312.527344 127.816406 314 125.472656 315.085938 C 123.121094 316.167969 120.53125 316.714844 117.699219 316.714844 C 115.527344 316.714844 113.523438 316.402344 111.6875 315.78125 C 109.847656 315.164062 108.253906 314.269531 106.902344 313.09375 C 105.554688 311.917969 104.488281 310.511719 103.714844 308.875 C 102.941406 307.234375 102.554688 305.417969 102.554688 303.425781 L 102.554688 303.292969 C 102.554688 300.28125 103.402344 297.703125 105.113281 295.554688 C 106.816406 293.40625 109.261719 291.644531 112.453125 290.273438 C 111.121094 288.589844 110.144531 286.972656 109.527344 285.425781 C 108.90625 283.875 108.597656 282.257812 108.597656 280.574219 L 108.597656 280.441406 C 108.597656 278.894531 108.90625 277.410156 109.527344 275.992188 C 110.144531 274.574219 111.035156 273.332031 112.183594 272.269531 C 113.335938 271.207031 114.730469 270.355469 116.371094 269.714844 C 118.007812 269.070312 119.867188 268.75 121.949219 268.75 C 123.808594 268.75 125.492188 269.039062 127 269.613281 C 128.503906 270.191406 129.800781 270.988281 130.882812 272.003906 C 131.972656 273.023438 132.8125 274.222656 133.410156 275.59375 C 134.007812 276.964844 134.304688 278.425781 134.304688 279.976562 L 134.304688 280.109375 C 134.304688 283.167969 133.378906 285.65625 131.515625 287.585938 C 129.65625 289.507812 127.175781 291.050781 124.078125 292.199219 L 132.046875 300.304688 C 132.933594 298.976562 133.796875 297.558594 134.640625 296.050781 C 135.480469 294.550781 136.277344 292.976562 137.03125 291.335938 L 143.210938 294.589844 C 142.277344 296.449219 141.292969 298.277344 140.25 300.074219 C 139.210938 301.867188 138.09375 303.582031 136.898438 305.21875 L 144.207031 312.660156 L 138.160156 316.980469 Z M 131.980469 310.667969 "/>
<path fill-rule="nonzero" fill="rgb(92.941284%, 42.352295%, 31.37207%)" fill-opacity="1" d="M 179.082031 297.582031 L 171.042969 278.980469 L 163.070312 297.582031 Z M 167.390625 269.214844 L 174.960938 269.214844 L 195.425781 316.050781 L 186.789062 316.050781 L 182.070312 304.820312 L 160.082031 304.820312 L 155.296875 316.050781 L 146.925781 316.050781 Z M 167.390625 269.214844 "/>
<path fill-rule="nonzero" fill="rgb(92.941284%, 42.352295%, 31.37207%)" fill-opacity="1" d="M 238.433594 293.730469 C 241.542969 293.730469 244 292.949219 245.800781 291.394531 C 247.597656 289.835938 248.5 287.835938 248.5 285.390625 L 248.5 285.257812 C 248.5 282.503906 247.585938 280.421875 245.769531 279.023438 C 243.941406 277.621094 241.5 276.921875 238.433594 276.921875 L 228.902344 276.921875 L 228.902344 293.730469 Z M 220.796875 269.546875 L 239.132812 269.546875 C 241.835938 269.546875 244.28125 269.914062 246.472656 270.640625 C 248.664062 271.375 250.523438 272.425781 252.054688 273.800781 C 253.582031 275.171875 254.753906 276.808594 255.574219 278.714844 C 256.394531 280.617188 256.804688 282.746094 256.804688 285.089844 L 256.804688 285.226562 C 256.804688 287.839844 256.316406 290.128906 255.335938 292.101562 C 254.363281 294.070312 253.027344 295.722656 251.34375 297.050781 C 249.65625 298.378906 247.679688 299.386719 245.417969 300.074219 C 243.152344 300.757812 240.730469 301.101562 238.15625 301.101562 L 228.902344 301.101562 L 228.902344 316.050781 L 220.796875 316.050781 Z M 220.796875 269.546875 "/>
<path fill-rule="nonzero" fill="rgb(92.941284%, 42.352295%, 31.37207%)" fill-opacity="1" d="M 292.078125 297.582031 L 284.039062 278.980469 L 276.070312 297.582031 Z M 280.386719 269.214844 L 287.960938 269.214844 L 308.421875 316.050781 L 299.785156 316.050781 L 295.066406 304.820312 L 273.078125 304.820312 L 268.296875 316.050781 L 259.925781 316.050781 Z M 280.386719 269.214844 "/>
<path fill-rule="nonzero" fill="rgb(92.941284%, 42.352295%, 31.37207%)" fill-opacity="1" d="M 315.59375 269.546875 L 323.699219 269.546875 L 323.699219 316.050781 L 315.59375 316.050781 Z M 315.59375 269.546875 "/>
<path fill-rule="nonzero" fill="rgb(92.941284%, 42.352295%, 31.37207%)" fill-opacity="1" d="M 334.925781 269.546875 L 342.484375 269.546875 L 367.347656 301.699219 L 367.347656 269.546875 L 375.453125 269.546875 L 375.453125 316.050781 L 368.621094 316.050781 L 343.03125 282.964844 L 343.03125 316.050781 L 334.925781 316.050781 Z M 334.925781 269.546875 "/>
<path fill-rule="nonzero" fill="rgb(92.941284%, 42.352295%, 31.37207%)" fill-opacity="1" d="M 397.574219 277.121094 L 382.824219 277.121094 L 382.824219 269.546875 L 420.558594 269.546875 L 420.558594 277.121094 L 405.808594 277.121094 L 405.808594 316.050781 L 397.574219 316.050781 Z M 397.574219 277.121094 "/>
<path fill-rule="nonzero" fill="rgb(92.941284%, 42.352295%, 31.37207%)" fill-opacity="1" d="M 428.394531 269.546875 L 436.5 269.546875 L 436.5 316.050781 L 428.394531 316.050781 Z M 428.394531 269.546875 "/>
<path fill-rule="nonzero" fill="rgb(92.941284%, 42.352295%, 31.37207%)" fill-opacity="1" d="M 447.726562 269.546875 L 455.28125 269.546875 L 480.144531 301.699219 L 480.144531 269.546875 L 488.25 269.546875 L 488.25 316.050781 L 481.417969 316.050781 L 455.832031 282.964844 L 455.832031 316.050781 L 447.726562 316.050781 Z M 447.726562 269.546875 "/>
<path fill-rule="nonzero" fill="rgb(92.941284%, 42.352295%, 31.37207%)" fill-opacity="1" d="M 521 316.847656 C 517.367188 316.847656 514.066406 316.238281 511.101562 315.019531 C 508.132812 313.804688 505.597656 312.117188 503.496094 309.972656 C 501.390625 307.824219 499.765625 305.300781 498.613281 302.398438 C 497.460938 299.496094 496.882812 296.34375 496.882812 292.929688 L 496.882812 292.796875 C 496.882812 289.566406 497.476562 286.488281 498.660156 283.566406 C 499.839844 280.640625 501.5 278.085938 503.640625 275.890625 C 505.78125 273.699219 508.324219 271.960938 511.265625 270.675781 C 514.214844 269.390625 517.433594 268.75 520.933594 268.75 C 522.96875 268.75 524.820312 268.894531 526.480469 269.179688 C 528.140625 269.46875 529.679688 269.878906 531.097656 270.410156 C 532.515625 270.941406 533.851562 271.597656 535.117188 272.371094 C 536.378906 273.144531 537.609375 274.042969 538.804688 275.0625 L 533.621094 281.238281 C 532.734375 280.488281 531.828125 279.800781 530.898438 279.179688 C 529.96875 278.558594 528.996094 278.039062 527.972656 277.617188 C 526.957031 277.195312 525.839844 276.867188 524.621094 276.621094 C 523.402344 276.378906 522.0625 276.257812 520.601562 276.257812 C 518.476562 276.257812 516.492188 276.703125 514.65625 277.585938 C 512.816406 278.472656 511.222656 279.664062 509.871094 281.148438 C 508.523438 282.636719 507.460938 284.375 506.683594 286.375 C 505.910156 288.371094 505.519531 290.476562 505.519531 292.699219 L 505.519531 292.828125 C 505.519531 295.230469 505.894531 297.445312 506.648438 299.488281 C 507.398438 301.53125 508.46875 303.285156 509.859375 304.746094 C 511.253906 306.210938 512.910156 307.363281 514.832031 308.207031 C 516.753906 309.050781 518.90625 309.472656 521.292969 309.472656 C 523.5 309.472656 525.566406 309.148438 527.488281 308.503906 C 529.410156 307.859375 531.078125 307 532.492188 305.933594 L 532.492188 297.183594 L 520.601562 297.183594 L 520.601562 290.074219 L 540.398438 290.074219 L 540.398438 309.605469 C 539.246094 310.582031 537.972656 311.507812 536.578125 312.398438 C 535.183594 313.28125 533.675781 314.058594 532.058594 314.71875 C 530.441406 315.382812 528.707031 315.90625 526.847656 316.28125 C 524.988281 316.660156 523.035156 316.847656 521 316.847656 "/>
<path fill-rule="nonzero" fill="rgb(92.941284%, 42.352295%, 31.37207%)" fill-opacity="1" d="M 70.613281 371.238281 C 67.636719 371.238281 64.898438 370.699219 62.382812 369.617188 C 59.875 368.535156 57.695312 367.058594 55.84375 365.183594 C 54 363.3125 52.550781 361.097656 51.5 358.546875 C 50.449219 355.996094 49.921875 353.273438 49.921875 350.371094 L 49.921875 350.257812 C 49.921875 347.359375 50.4375 344.644531 51.46875 342.113281 C 52.5 339.582031 53.949219 337.359375 55.816406 335.445312 C 57.683594 333.53125 59.890625 332.027344 62.441406 330.925781 C 64.992188 329.824219 67.816406 329.273438 70.90625 329.273438 C 72.761719 329.273438 74.453125 329.429688 75.976562 329.738281 C 77.503906 330.046875 78.902344 330.480469 80.179688 331.039062 C 81.457031 331.601562 82.632812 332.269531 83.714844 333.039062 C 84.796875 333.816406 85.824219 334.664062 86.789062 335.59375 L 82.207031 340.867188 C 80.585938 339.359375 78.867188 338.144531 77.050781 337.214844 C 75.234375 336.285156 73.164062 335.824219 70.847656 335.824219 C 68.914062 335.824219 67.128906 336.203125 65.484375 336.953125 C 63.84375 337.707031 62.421875 338.730469 61.226562 340.027344 C 60.027344 341.320312 59.101562 342.839844 58.445312 344.574219 C 57.785156 346.316406 57.457031 348.167969 57.457031 350.140625 L 57.457031 350.257812 C 57.457031 352.230469 57.785156 354.09375 58.445312 355.851562 C 59.101562 357.609375 60.027344 359.144531 61.226562 360.460938 C 62.421875 361.773438 63.84375 362.808594 65.484375 363.558594 C 67.128906 364.316406 68.914062 364.691406 70.847656 364.691406 C 73.320312 364.691406 75.445312 364.21875 77.222656 363.269531 C 79 362.324219 80.761719 361.039062 82.496094 359.414062 L 87.078125 364.054688 C 86.035156 365.175781 84.945312 366.167969 83.804688 367.039062 C 82.660156 367.910156 81.433594 368.660156 80.121094 369.300781 C 78.808594 369.9375 77.371094 370.417969 75.804688 370.746094 C 74.238281 371.074219 72.507812 371.238281 70.613281 371.238281 "/>
<path fill-rule="nonzero" fill="rgb(92.941284%, 42.352295%, 31.37207%)" fill-opacity="1" d="M 114.839844 364.691406 C 116.84375 364.691406 118.679688 364.316406 120.355469 363.558594 C 122.03125 362.808594 123.460938 361.785156 124.65625 360.492188 C 125.847656 359.195312 126.78125 357.679688 127.453125 355.9375 C 128.128906 354.199219 128.464844 352.34375 128.464844 350.371094 L 128.464844 350.257812 C 128.464844 348.289062 128.128906 346.421875 127.453125 344.664062 C 126.78125 342.90625 125.835938 341.378906 124.625 340.085938 C 123.414062 338.792969 121.960938 337.757812 120.269531 336.984375 C 118.574219 336.210938 116.726562 335.824219 114.726562 335.824219 C 112.722656 335.824219 110.886719 336.203125 109.214844 336.953125 C 107.539062 337.707031 106.105469 338.730469 104.914062 340.027344 C 103.722656 341.320312 102.789062 342.839844 102.113281 344.578125 C 101.441406 346.316406 101.101562 348.171875 101.101562 350.140625 L 101.101562 350.257812 C 101.101562 352.230469 101.441406 354.09375 102.113281 355.851562 C 102.789062 357.609375 103.730469 359.136719 104.945312 360.429688 C 106.152344 361.726562 107.605469 362.761719 109.300781 363.53125 C 110.996094 364.304688 112.839844 364.691406 114.839844 364.691406 M 114.726562 371.242188 C 111.59375 371.242188 108.738281 370.6875 106.148438 369.589844 C 103.558594 368.484375 101.335938 366.988281 99.480469 365.097656 C 97.625 363.207031 96.175781 360.992188 95.132812 358.460938 C 94.089844 355.929688 93.570312 353.234375 93.570312 350.371094 L 93.570312 350.257812 C 93.570312 347.394531 94.089844 344.703125 95.132812 342.171875 C 96.175781 339.640625 97.644531 337.417969 99.539062 335.503906 C 101.429688 333.59375 103.671875 332.078125 106.261719 330.957031 C 108.851562 329.832031 111.714844 329.273438 114.839844 329.273438 C 117.972656 329.273438 120.832031 329.824219 123.421875 330.925781 C 126.011719 332.027344 128.234375 333.523438 130.085938 335.417969 C 131.941406 337.3125 133.390625 339.527344 134.433594 342.054688 C 135.476562 344.585938 136 347.28125 136 350.140625 L 136 350.257812 C 136 353.117188 135.476562 355.8125 134.433594 358.34375 C 133.390625 360.875 131.921875 363.097656 130.03125 365.007812 C 128.136719 366.921875 125.894531 368.4375 123.304688 369.5625 C 120.71875 370.679688 117.855469 371.242188 114.726562 371.242188 "/>
<path fill-rule="nonzero" fill="rgb(92.941284%, 42.352295%, 31.37207%)" fill-opacity="1" d="M 145.507812 329.96875 L 152.097656 329.96875 L 173.792969 358.023438 L 173.792969 329.96875 L 180.867188 329.96875 L 180.867188 370.546875 L 174.90625 370.546875 L 152.578125 341.679688 L 152.578125 370.546875 L 145.507812 370.546875 Z M 145.507812 329.96875 "/>
<path fill-rule="nonzero" fill="rgb(92.941284%, 42.352295%, 31.37207%)" fill-opacity="1" d="M 202.140625 336.578125 L 189.273438 336.578125 L 189.273438 329.96875 L 222.195312 329.96875 L 222.195312 336.578125 L 209.328125 336.578125 L 209.328125 370.546875 L 202.140625 370.546875 Z M 202.140625 336.578125 "/>
<path fill-rule="nonzero" fill="rgb(92.941284%, 42.352295%, 31.37207%)" fill-opacity="1" d="M 248.140625 350.082031 C 250.695312 350.082031 252.734375 349.472656 254.246094 348.25 C 255.757812 347.027344 256.511719 345.371094 256.511719 343.273438 L 256.511719 343.15625 C 256.511719 340.945312 255.773438 339.265625 254.304688 338.121094 C 252.832031 336.976562 250.757812 336.402344 248.082031 336.402344 L 237.671875 336.402344 L 237.671875 350.082031 Z M 230.601562 329.96875 L 248.683594 329.96875 C 251.234375 329.96875 253.496094 330.324219 255.46875 331.039062 C 257.441406 331.757812 259.082031 332.75 260.394531 334.027344 C 261.476562 335.148438 262.308594 336.441406 262.886719 337.910156 C 263.46875 339.378906 263.757812 341.003906 263.757812 342.78125 L 263.757812 342.894531 C 263.757812 344.558594 263.515625 346.054688 263.03125 347.386719 C 262.546875 348.71875 261.882812 349.902344 261.035156 350.921875 C 260.183594 351.949219 259.167969 352.820312 257.992188 353.535156 C 256.808594 354.246094 255.507812 354.796875 254.078125 355.1875 L 265.03125 370.546875 L 256.628906 370.546875 L 246.625 356.402344 L 237.671875 356.402344 L 237.671875 370.546875 L 230.601562 370.546875 Z M 230.601562 329.96875 "/>
<path fill-rule="nonzero" fill="rgb(92.941284%, 42.352295%, 31.37207%)" fill-opacity="1" d="M 297.957031 354.433594 L 290.941406 338.199219 L 283.988281 354.433594 Z M 287.753906 329.679688 L 294.363281 329.679688 L 312.214844 370.546875 L 304.679688 370.546875 L 300.5625 360.75 L 281.375 360.75 L 277.203125 370.546875 L 269.902344 370.546875 Z M 287.753906 329.679688 "/>
<path fill-rule="nonzero" fill="rgb(92.941284%, 42.352295%, 31.37207%)" fill-opacity="1" d="M 338.9375 371.238281 C 335.960938 371.238281 333.21875 370.699219 330.707031 369.617188 C 328.195312 368.535156 326.015625 367.058594 324.167969 365.183594 C 322.324219 363.3125 320.875 361.097656 319.824219 358.546875 C 318.769531 355.996094 318.246094 353.273438 318.246094 350.371094 L 318.246094 350.257812 C 318.246094 347.359375 318.761719 344.644531 319.792969 342.113281 C 320.824219 339.582031 322.273438 337.359375 324.140625 335.445312 C 326.003906 333.53125 328.214844 332.027344 330.765625 330.925781 C 333.316406 329.824219 336.136719 329.273438 339.226562 329.273438 C 341.085938 329.273438 342.773438 329.429688 344.300781 329.738281 C 345.828125 330.046875 347.226562 330.480469 348.503906 331.039062 C 349.777344 331.601562 350.957031 332.269531 352.039062 333.039062 C 353.121094 333.816406 354.144531 334.664062 355.113281 335.59375 L 350.53125 340.867188 C 348.910156 339.359375 347.1875 338.144531 345.371094 337.214844 C 343.554688 336.285156 341.488281 335.824219 339.171875 335.824219 C 337.238281 335.824219 335.453125 336.203125 333.808594 336.953125 C 332.164062 337.707031 330.746094 338.730469 329.550781 340.027344 C 328.347656 341.320312 327.421875 342.839844 326.765625 344.574219 C 326.105469 346.316406 325.78125 348.167969 325.78125 350.140625 L 325.78125 350.257812 C 325.78125 352.230469 326.105469 354.09375 326.765625 355.851562 C 327.421875 357.609375 328.347656 359.144531 329.550781 360.460938 C 330.746094 361.773438 332.164062 362.808594 333.808594 363.558594 C 335.453125 364.316406 337.238281 364.691406 339.171875 364.691406 C 341.644531 364.691406 343.765625 364.21875 345.546875 363.269531 C 347.324219 362.324219 349.085938 361.039062 350.820312 359.414062 L 355.402344 364.054688 C 354.355469 365.175781 353.265625 366.167969 352.128906 367.039062 C 350.984375 367.910156 349.757812 368.660156 348.445312 369.300781 C 347.128906 369.9375 345.691406 370.417969 344.128906 370.746094 C 342.558594 371.074219 340.832031 371.238281 338.9375 371.238281 "/>
<path fill-rule="nonzero" fill="rgb(92.941284%, 42.352295%, 31.37207%)" fill-opacity="1" d="M 373.660156 336.578125 L 360.792969 336.578125 L 360.792969 329.96875 L 393.714844 329.96875 L 393.714844 336.578125 L 380.847656 336.578125 L 380.847656 370.546875 L 373.660156 370.546875 Z M 373.660156 336.578125 "/>
<path fill-rule="nonzero" fill="rgb(92.941284%, 42.352295%, 31.37207%)" fill-opacity="1" d="M 421.59375 364.691406 C 423.59375 364.691406 425.433594 364.316406 427.105469 363.558594 C 428.78125 362.808594 430.214844 361.785156 431.40625 360.492188 C 432.597656 359.195312 433.535156 357.679688 434.207031 355.9375 C 434.882812 354.199219 435.21875 352.34375 435.21875 350.371094 L 435.21875 350.257812 C 435.21875 348.289062 434.882812 346.421875 434.207031 344.664062 C 433.535156 342.90625 432.589844 341.378906 431.378906 340.085938 C 430.164062 338.792969 428.710938 337.757812 427.023438 336.984375 C 425.328125 336.210938 423.480469 335.824219 421.480469 335.824219 C 419.476562 335.824219 417.640625 336.203125 415.96875 336.953125 C 414.292969 337.707031 412.859375 338.730469 411.667969 340.027344 C 410.476562 341.320312 409.542969 342.839844 408.867188 344.578125 C 408.195312 346.316406 407.855469 348.171875 407.855469 350.140625 L 407.855469 350.257812 C 407.855469 352.230469 408.195312 354.09375 408.867188 355.851562 C 409.542969 357.609375 410.484375 359.136719 411.699219 360.429688 C 412.90625 361.726562 414.359375 362.761719 416.054688 363.53125 C 417.75 364.304688 419.59375 364.691406 421.59375 364.691406 M 421.480469 371.242188 C 418.347656 371.242188 415.492188 370.6875 412.902344 369.589844 C 410.3125 368.484375 408.089844 366.988281 406.234375 365.097656 C 404.378906 363.207031 402.929688 360.992188 401.886719 358.460938 C 400.84375 355.929688 400.324219 353.234375 400.324219 350.371094 L 400.324219 350.257812 C 400.324219 347.394531 400.84375 344.703125 401.886719 342.171875 C 402.929688 339.640625 404.398438 337.417969 406.292969 335.503906 C 408.183594 333.59375 410.425781 332.078125 413.015625 330.957031 C 415.605469 329.832031 418.464844 329.273438 421.59375 329.273438 C 424.726562 329.273438 427.585938 329.824219 430.171875 330.925781 C 432.761719 332.027344 434.988281 333.523438 436.839844 335.417969 C 438.695312 337.3125 440.144531 339.527344 441.1875 342.054688 C 442.230469 344.585938 442.753906 347.28125 442.753906 350.140625 L 442.753906 350.257812 C 442.753906 353.117188 442.230469 355.8125 441.1875 358.34375 C 440.144531 360.875 438.675781 363.097656 436.78125 365.007812 C 434.890625 366.921875 432.644531 368.4375 430.058594 369.5625 C 427.46875 370.679688 424.609375 371.242188 421.480469 371.242188 "/>
<path fill-rule="nonzero" fill="rgb(92.941284%, 42.352295%, 31.37207%)" fill-opacity="1" d="M 469.800781 350.082031 C 472.355469 350.082031 474.390625 349.472656 475.902344 348.25 C 477.414062 347.027344 478.171875 345.371094 478.171875 343.273438 L 478.171875 343.15625 C 478.171875 340.945312 477.433594 339.265625 475.960938 338.121094 C 474.488281 336.976562 472.414062 336.402344 469.738281 336.402344 L 459.332031 336.402344 L 459.332031 350.082031 Z M 452.257812 329.96875 L 470.34375 329.96875 C 472.894531 329.96875 475.15625 330.324219 477.128906 331.039062 C 479.097656 331.757812 480.738281 332.75 482.054688 334.027344 C 483.136719 335.148438 483.96875 336.441406 484.546875 337.910156 C 485.128906 339.378906 485.417969 341.003906 485.417969 342.78125 L 485.417969 342.894531 C 485.417969 344.558594 485.175781 346.054688 484.691406 347.386719 C 484.207031 348.71875 483.542969 349.902344 482.691406 350.921875 C 481.839844 351.949219 480.828125 352.820312 479.648438 353.535156 C 478.46875 354.246094 477.167969 354.796875 475.734375 355.1875 L 486.691406 370.546875 L 478.289062 370.546875 L 468.285156 356.402344 L 459.332031 356.402344 L 459.332031 370.546875 L 452.257812 370.546875 Z M 452.257812 329.96875 "/>
<path fill-rule="nonzero" fill="rgb(92.941284%, 42.352295%, 31.37207%)" fill-opacity="1" d="M 509.296875 371.125 C 506.171875 371.125 503.171875 370.59375 500.3125 369.53125 C 497.453125 368.46875 494.808594 366.835938 492.375 364.632812 L 496.664062 359.53125 C 498.632812 361.234375 500.621094 362.539062 502.632812 363.445312 C 504.640625 364.355469 506.921875 364.808594 509.472656 364.808594 C 511.675781 364.808594 513.421875 364.34375 514.71875 363.417969 C 516.011719 362.488281 516.664062 361.25 516.664062 359.703125 L 516.664062 359.589844 C 516.664062 358.855469 516.535156 358.207031 516.285156 357.648438 C 516.03125 357.089844 515.566406 356.554688 514.886719 356.054688 C 514.210938 355.550781 513.28125 355.089844 512.097656 354.664062 C 510.917969 354.238281 509.378906 353.816406 507.480469 353.386719 C 505.308594 352.886719 503.382812 352.316406 501.699219 351.679688 C 500.011719 351.039062 498.597656 350.269531 497.453125 349.359375 C 496.308594 348.453125 495.4375 347.339844 494.835938 346.027344 C 494.234375 344.714844 493.9375 343.128906 493.9375 341.273438 L 493.9375 341.15625 C 493.9375 339.417969 494.285156 337.824219 494.972656 336.375 C 495.664062 334.925781 496.613281 333.6875 497.820312 332.667969 C 499.027344 331.640625 500.476562 330.839844 502.175781 330.257812 C 503.871094 329.679688 505.726562 329.386719 507.734375 329.386719 C 510.710938 329.386719 513.382812 329.824219 515.761719 330.695312 C 518.136719 331.566406 520.371094 332.832031 522.460938 334.492188 L 518.628906 339.878906 C 516.777344 338.53125 514.941406 337.496094 513.125 336.78125 C 511.308594 336.066406 509.472656 335.707031 507.617188 335.707031 C 505.53125 335.707031 503.910156 336.171875 502.75 337.097656 C 501.589844 338.027344 501.007812 339.164062 501.007812 340.519531 L 501.007812 340.636719 C 501.007812 341.410156 501.144531 342.09375 501.417969 342.691406 C 501.6875 343.292969 502.179688 343.832031 502.898438 344.316406 C 503.617188 344.796875 504.601562 345.253906 505.863281 345.675781 C 507.121094 346.105469 508.71875 346.546875 510.65625 347.011719 C 512.789062 347.550781 514.675781 348.152344 516.324219 348.808594 C 517.96875 349.464844 519.332031 350.269531 520.421875 351.214844 C 521.503906 352.164062 522.328125 353.261719 522.890625 354.519531 C 523.453125 355.773438 523.734375 357.234375 523.734375 358.894531 L 523.734375 359.011719 C 523.734375 360.902344 523.378906 362.605469 522.671875 364.109375 C 521.957031 365.617188 520.972656 366.894531 519.707031 367.9375 C 518.441406 368.980469 516.921875 369.773438 515.148438 370.316406 C 513.375 370.855469 511.425781 371.125 509.296875 371.125 "/>
<path fill-rule="nonzero" fill="rgb(100%, 100%, 100%)" fill-opacity="1" d="M 58.46875 399.929688 L 53.515625 399.929688 L 53.515625 396.148438 L 58.46875 396.148438 L 58.46875 391.222656 L 62.355469 391.222656 L 62.355469 396.148438 L 67.308594 396.148438 L 67.308594 399.929688 L 62.355469 399.929688 L 62.355469 404.855469 L 58.46875 404.855469 Z M 58.46875 399.929688 "/>
<path fill-rule="nonzero" fill="rgb(100%, 100%, 100%)" fill-opacity="1" d="M 70.601562 404.691406 L 73.503906 401.925781 C 74.816406 403.402344 76.1875 404.222656 78.132812 404.222656 C 79.71875 404.222656 80.839844 403.320312 80.839844 401.898438 L 80.839844 401.84375 C 80.839844 400.28125 79.441406 399.40625 77.089844 399.40625 L 75.339844 399.40625 L 74.679688 396.722656 L 79.253906 392.128906 L 71.726562 392.128906 L 71.726562 388.511719 L 84.671875 388.511719 L 84.671875 391.6875 L 79.828125 396.3125 C 82.429688 396.753906 84.972656 398.121094 84.972656 401.679688 L 84.972656 401.734375 C 84.972656 405.347656 82.347656 408 78.074219 408 C 74.628906 408 72.246094 406.632812 70.601562 404.691406 "/>
<path fill-rule="nonzero" fill="rgb(100%, 100%, 100%)" fill-opacity="1" d="M 87.992188 405.128906 L 90.539062 402.089844 C 91.988281 403.402344 93.410156 404.167969 95.109375 404.167969 C 97.078125 404.167969 98.308594 403.210938 98.308594 401.515625 L 98.308594 401.460938 C 98.308594 399.816406 96.914062 398.859375 94.917969 398.859375 C 93.714844 398.859375 92.617188 399.1875 91.714844 399.570312 L 89.277344 397.957031 L 89.828125 388.511719 L 101.597656 388.511719 L 101.597656 392.210938 L 93.4375 392.210938 L 93.21875 395.519531 C 93.984375 395.328125 94.671875 395.191406 95.738281 395.191406 C 99.460938 395.191406 102.441406 397 102.441406 401.320312 L 102.441406 401.378906 C 102.441406 405.429688 99.570312 408 95.164062 408 C 92.097656 408 89.851562 406.90625 87.992188 405.128906 "/>
<path fill-rule="nonzero" fill="rgb(100%, 100%, 100%)" fill-opacity="1" d="M 105.355469 404.691406 L 108.253906 401.925781 C 109.570312 403.402344 110.9375 404.222656 112.882812 404.222656 C 114.46875 404.222656 115.589844 403.320312 115.589844 401.898438 L 115.589844 401.84375 C 115.589844 400.28125 114.195312 399.40625 111.84375 399.40625 L 110.089844 399.40625 L 109.429688 396.722656 L 114.003906 392.128906 L 106.476562 392.128906 L 106.476562 388.511719 L 119.421875 388.511719 L 119.421875 391.6875 L 114.578125 396.3125 C 117.179688 396.753906 119.722656 398.121094 119.722656 401.679688 L 119.722656 401.734375 C 119.722656 405.347656 117.097656 408 112.824219 408 C 109.378906 408 106.996094 406.632812 105.355469 404.691406 "/>
<path fill-rule="nonzero" fill="rgb(100%, 100%, 100%)" fill-opacity="1" d="M 133.0625 394.015625 L 133.0625 393.960938 C 133.0625 392.785156 132.046875 391.71875 130.320312 391.71875 C 128.597656 391.71875 127.585938 392.757812 127.585938 393.933594 L 127.585938 393.988281 C 127.585938 395.328125 128.652344 396.34375 130.320312 396.34375 C 131.992188 396.34375 133.0625 395.355469 133.0625 394.015625 M 133.632812 402.089844 L 133.632812 402.035156 C 133.632812 400.558594 132.238281 399.683594 130.320312 399.683594 C 128.40625 399.683594 127.011719 400.558594 127.011719 402.035156 L 127.011719 402.089844 C 127.011719 403.402344 128.242188 404.472656 130.320312 404.472656 C 132.402344 404.472656 133.632812 403.429688 133.632812 402.089844 M 122.929688 402.417969 L 122.929688 402.363281 C 122.929688 400.035156 124 398.667969 126.023438 397.738281 C 124.546875 396.835938 123.589844 395.601562 123.589844 393.550781 L 123.589844 393.496094 C 123.589844 390.566406 126.269531 388.242188 130.320312 388.242188 C 134.371094 388.242188 137.054688 390.539062 137.054688 393.496094 L 137.054688 393.550781 C 137.054688 395.601562 136.097656 396.835938 134.617188 397.738281 C 136.5625 398.75 137.710938 399.980469 137.710938 402.253906 L 137.710938 402.308594 C 137.710938 405.863281 134.566406 407.945312 130.320312 407.945312 C 126.082031 407.945312 122.929688 405.757812 122.929688 402.417969 "/>
<path fill-rule="nonzero" fill="rgb(100%, 100%, 100%)" fill-opacity="1" d="M 149.929688 392.152344 L 140.925781 392.152344 L 140.925781 388.511719 L 154.722656 388.511719 L 154.722656 391.6875 L 146.128906 407.671875 L 141.363281 407.671875 Z M 149.929688 392.152344 "/>
<path fill-rule="nonzero" fill="rgb(100%, 100%, 100%)" fill-opacity="1" d="M 164.96875 400.117188 L 164.96875 394.152344 L 159.875 400.117188 Z M 164.96875 403.539062 L 155.605469 403.539062 L 154.921875 400.558594 L 165.433594 388.378906 L 168.988281 388.378906 L 168.988281 400.117188 L 171.5625 400.117188 L 171.5625 403.539062 L 168.988281 403.539062 L 168.988281 407.671875 L 164.96875 407.671875 Z M 164.96875 403.539062 "/>
<path fill-rule="nonzero" fill="rgb(100%, 100%, 100%)" fill-opacity="1" d="M 184.214844 400.117188 L 184.214844 394.152344 L 179.125 400.117188 Z M 184.214844 403.539062 L 174.855469 403.539062 L 174.171875 400.558594 L 184.679688 388.378906 L 188.238281 388.378906 L 188.238281 400.117188 L 190.8125 400.117188 L 190.8125 403.539062 L 188.238281 403.539062 L 188.238281 407.671875 L 184.214844 407.671875 Z M 184.214844 403.539062 "/>
<path fill-rule="nonzero" fill="rgb(100%, 100%, 100%)" fill-opacity="1" d="M 203.464844 400.117188 L 203.464844 394.152344 L 198.375 400.117188 Z M 203.464844 403.539062 L 194.105469 403.539062 L 193.421875 400.558594 L 203.929688 388.378906 L 207.488281 388.378906 L 207.488281 400.117188 L 210.0625 400.117188 L 210.0625 403.539062 L 207.488281 403.539062 L 207.488281 407.671875 L 203.464844 407.671875 Z M 203.464844 403.539062 "/>
<path fill-rule="nonzero" fill="rgb(100%, 100%, 100%)" fill-opacity="1" d="M 224.21875 401.566406 L 224.21875 401.515625 C 224.21875 399.898438 222.957031 398.722656 220.878906 398.722656 C 218.800781 398.722656 217.59375 399.871094 217.59375 401.484375 L 217.59375 401.542969 C 217.59375 403.15625 218.851562 404.390625 220.933594 404.390625 C 223.015625 404.390625 224.21875 403.210938 224.21875 401.566406 M 215.566406 405.945312 C 214.175781 404.554688 213.296875 402.5 213.296875 398.695312 L 213.296875 398.640625 C 213.296875 392.726562 215.976562 388.183594 221.699219 388.183594 C 224.300781 388.183594 225.996094 388.953125 227.691406 390.292969 L 225.476562 393.550781 C 224.21875 392.59375 223.203125 392.015625 221.5625 392.015625 C 218.6875 392.015625 217.839844 394.78125 217.703125 396.449219 C 218.71875 395.765625 219.921875 395.222656 221.671875 395.222656 C 225.476562 395.222656 228.402344 397.328125 228.402344 401.320312 L 228.402344 401.378906 C 228.402344 405.289062 225.257812 408 221.097656 408 C 218.605469 408 216.910156 407.289062 215.566406 405.945312 "/>
<path fill-rule="nonzero" fill="rgb(100%, 100%, 100%)" fill-opacity="1" d="M 241.222656 400.117188 L 241.222656 394.152344 L 236.128906 400.117188 Z M 241.222656 403.539062 L 231.859375 403.539062 L 231.175781 400.558594 L 241.6875 388.378906 L 245.242188 388.378906 L 245.242188 400.117188 L 247.816406 400.117188 L 247.816406 403.539062 L 245.242188 403.539062 L 245.242188 407.671875 L 241.222656 407.671875 Z M 241.222656 403.539062 "/>
<path fill-rule="nonzero" fill="rgb(100%, 100%, 100%)" fill-opacity="1" d="M 260.933594 394.015625 L 260.933594 393.960938 C 260.933594 392.785156 259.921875 391.71875 258.195312 391.71875 C 256.472656 391.71875 255.460938 392.757812 255.460938 393.933594 L 255.460938 393.988281 C 255.460938 395.328125 256.527344 396.34375 258.195312 396.34375 C 259.867188 396.34375 260.933594 395.355469 260.933594 394.015625 M 261.507812 402.089844 L 261.507812 402.035156 C 261.507812 400.558594 260.113281 399.683594 258.195312 399.683594 C 256.28125 399.683594 254.886719 400.558594 254.886719 402.035156 L 254.886719 402.089844 C 254.886719 403.402344 256.117188 404.472656 258.195312 404.472656 C 260.277344 404.472656 261.507812 403.429688 261.507812 402.089844 M 250.804688 402.417969 L 250.804688 402.363281 C 250.804688 400.035156 251.875 398.667969 253.898438 397.738281 C 252.421875 396.835938 251.464844 395.601562 251.464844 393.550781 L 251.464844 393.496094 C 251.464844 390.566406 254.144531 388.242188 258.195312 388.242188 C 262.246094 388.242188 264.929688 390.539062 264.929688 393.496094 L 264.929688 393.550781 C 264.929688 395.601562 263.972656 396.835938 262.492188 397.738281 C 264.4375 398.75 265.585938 399.980469 265.585938 402.253906 L 265.585938 402.308594 C 265.585938 405.863281 262.441406 407.945312 258.195312 407.945312 C 253.953125 407.945312 250.804688 405.757812 250.804688 402.417969 "/>
<path fill-rule="nonzero" fill="rgb(100%, 100%, 100%)" fill-opacity="1" d="M 272.082031 392.644531 L 268.742188 393.46875 L 267.867188 390.019531 L 273.367188 388.378906 L 276.242188 388.378906 L 276.242188 407.671875 L 272.082031 407.671875 Z M 272.082031 392.644531 "/>
<path fill-rule="nonzero" fill="rgb(100%, 100%, 100%)" fill-opacity="1" d="M 302.21875 399.929688 L 297.261719 399.929688 L 297.261719 396.148438 L 302.21875 396.148438 L 302.21875 391.222656 L 306.101562 391.222656 L 306.101562 396.148438 L 311.058594 396.148438 L 311.058594 399.929688 L 306.101562 399.929688 L 306.101562 404.855469 L 302.21875 404.855469 Z M 302.21875 399.929688 "/>
<path fill-rule="nonzero" fill="rgb(100%, 100%, 100%)" fill-opacity="1" d="M 314.351562 404.691406 L 317.25 401.925781 C 318.566406 403.402344 319.933594 404.222656 321.878906 404.222656 C 323.464844 404.222656 324.585938 403.320312 324.585938 401.898438 L 324.585938 401.84375 C 324.585938 400.28125 323.191406 399.40625 320.839844 399.40625 L 319.085938 399.40625 L 318.425781 396.722656 L 323 392.128906 L 315.472656 392.128906 L 315.472656 388.511719 L 328.417969 388.511719 L 328.417969 391.6875 L 323.574219 396.3125 C 326.175781 396.753906 328.71875 398.121094 328.71875 401.679688 L 328.71875 401.734375 C 328.71875 405.347656 326.09375 408 321.824219 408 C 318.375 408 315.992188 406.632812 314.351562 404.691406 "/>
<path fill-rule="nonzero" fill="rgb(100%, 100%, 100%)" fill-opacity="1" d="M 331.742188 405.128906 L 334.285156 402.089844 C 335.734375 403.402344 337.160156 404.167969 338.855469 404.167969 C 340.828125 404.167969 342.054688 403.210938 342.054688 401.515625 L 342.054688 401.460938 C 342.054688 399.816406 340.664062 398.859375 338.664062 398.859375 C 337.460938 398.859375 336.367188 399.1875 335.464844 399.570312 L 333.027344 397.957031 L 333.574219 388.511719 L 345.34375 388.511719 L 345.34375 392.210938 L 337.183594 392.210938 L 336.964844 395.519531 C 337.734375 395.328125 338.417969 395.191406 339.484375 395.191406 C 343.207031 395.191406 346.191406 397 346.191406 401.320312 L 346.191406 401.378906 C 346.191406 405.429688 343.316406 408 338.910156 408 C 335.84375 408 333.601562 406.90625 331.742188 405.128906 "/>
<path fill-rule="nonzero" fill="rgb(100%, 100%, 100%)" fill-opacity="1" d="M 349.101562 404.691406 L 352 401.925781 C 353.316406 403.402344 354.683594 404.222656 356.628906 404.222656 C 358.21875 404.222656 359.339844 403.320312 359.339844 401.898438 L 359.339844 401.84375 C 359.339844 400.28125 357.941406 399.40625 355.589844 399.40625 L 353.835938 399.40625 L 353.179688 396.722656 L 357.75 392.128906 L 350.222656 392.128906 L 350.222656 388.511719 L 363.171875 388.511719 L 363.171875 391.6875 L 358.324219 396.3125 C 360.925781 396.753906 363.472656 398.121094 363.472656 401.679688 L 363.472656 401.734375 C 363.472656 405.347656 360.84375 408 356.574219 408 C 353.125 408 350.746094 406.632812 349.101562 404.691406 "/>
<path fill-rule="nonzero" fill="rgb(100%, 100%, 100%)" fill-opacity="1" d="M 376.808594 394.015625 L 376.808594 393.960938 C 376.808594 392.785156 375.796875 391.71875 374.070312 391.71875 C 372.347656 391.71875 371.332031 392.757812 371.332031 393.933594 L 371.332031 393.988281 C 371.332031 395.328125 372.398438 396.34375 374.070312 396.34375 C 375.738281 396.34375 376.808594 395.355469 376.808594 394.015625 M 377.382812 402.089844 L 377.382812 402.035156 C 377.382812 400.558594 375.984375 399.683594 374.070312 399.683594 C 372.152344 399.683594 370.757812 400.558594 370.757812 402.035156 L 370.757812 402.089844 C 370.757812 403.402344 371.988281 404.472656 374.070312 404.472656 C 376.148438 404.472656 377.382812 403.429688 377.382812 402.089844 M 366.679688 402.417969 L 366.679688 402.363281 C 366.679688 400.035156 367.746094 398.667969 369.773438 397.738281 C 368.296875 396.835938 367.339844 395.601562 367.339844 393.550781 L 367.339844 393.496094 C 367.339844 390.566406 370.019531 388.242188 374.070312 388.242188 C 378.121094 388.242188 380.804688 390.539062 380.804688 393.496094 L 380.804688 393.550781 C 380.804688 395.601562 379.847656 396.835938 378.367188 397.738281 C 380.3125 398.75 381.460938 399.980469 381.460938 402.253906 L 381.460938 402.308594 C 381.460938 405.863281 378.3125 407.945312 374.070312 407.945312 C 369.828125 407.945312 366.679688 405.757812 366.679688 402.417969 "/>
<path fill-rule="nonzero" fill="rgb(100%, 100%, 100%)" fill-opacity="1" d="M 384.125 404.691406 L 387.027344 401.925781 C 388.339844 403.402344 389.707031 404.222656 391.652344 404.222656 C 393.238281 404.222656 394.363281 403.320312 394.363281 401.898438 L 394.363281 401.84375 C 394.363281 400.28125 392.964844 399.40625 390.613281 399.40625 L 388.859375 399.40625 L 388.203125 396.722656 L 392.773438 392.128906 L 385.246094 392.128906 L 385.246094 388.511719 L 398.195312 388.511719 L 398.195312 391.6875 L 393.347656 396.3125 C 395.949219 396.753906 398.496094 398.121094 398.496094 401.679688 L 398.496094 401.734375 C 398.496094 405.347656 395.867188 408 391.597656 408 C 388.148438 408 385.769531 406.632812 384.125 404.691406 "/>
<path fill-rule="nonzero" fill="rgb(100%, 100%, 100%)" fill-opacity="1" d="M 411.367188 400.117188 L 411.367188 394.152344 L 406.273438 400.117188 Z M 411.367188 403.539062 L 402.003906 403.539062 L 401.320312 400.558594 L 411.832031 388.378906 L 415.386719 388.378906 L 415.386719 400.117188 L 417.960938 400.117188 L 417.960938 403.539062 L 415.386719 403.539062 L 415.386719 407.671875 L 411.367188 407.671875 Z M 411.367188 403.539062 "/>
<path fill-rule="nonzero" fill="rgb(100%, 100%, 100%)" fill-opacity="1" d="M 421.0625 404.332031 L 427.441406 399.105469 C 429.824219 397.136719 430.753906 396.097656 430.753906 394.507812 C 430.753906 392.890625 429.683594 392.015625 428.179688 392.015625 C 426.703125 392.015625 425.6875 392.839844 424.265625 394.589844 L 421.308594 392.210938 C 423.199219 389.636719 425.035156 388.238281 428.453125 388.238281 C 432.421875 388.238281 435.046875 390.566406 435.046875 394.152344 L 435.046875 394.207031 C 435.046875 397.410156 433.40625 398.996094 430.011719 401.625 L 426.894531 404.03125 L 435.242188 404.03125 L 435.242188 407.671875 L 421.0625 407.671875 Z M 421.0625 404.332031 "/>
<path fill-rule="nonzero" fill="rgb(100%, 100%, 100%)" fill-opacity="1" d="M 438.207031 404.691406 L 441.105469 401.925781 C 442.421875 403.402344 443.789062 404.222656 445.734375 404.222656 C 447.320312 404.222656 448.441406 403.320312 448.441406 401.898438 L 448.441406 401.84375 C 448.441406 400.28125 447.046875 399.40625 444.695312 399.40625 L 442.941406 399.40625 L 442.28125 396.722656 L 446.855469 392.128906 L 439.328125 392.128906 L 439.328125 388.511719 L 452.273438 388.511719 L 452.273438 391.6875 L 447.429688 396.3125 C 450.03125 396.753906 452.574219 398.121094 452.574219 401.679688 L 452.574219 401.734375 C 452.574219 405.347656 449.949219 408 445.675781 408 C 442.230469 408 439.847656 406.632812 438.207031 404.691406 "/>
<path fill-rule="nonzero" fill="rgb(100%, 100%, 100%)" fill-opacity="1" d="M 465.910156 394.015625 L 465.910156 393.960938 C 465.910156 392.785156 464.898438 391.71875 463.171875 391.71875 C 461.449219 391.71875 460.4375 392.757812 460.4375 393.933594 L 460.4375 393.988281 C 460.4375 395.328125 461.503906 396.34375 463.171875 396.34375 C 464.84375 396.34375 465.910156 395.355469 465.910156 394.015625 M 466.484375 402.089844 L 466.484375 402.035156 C 466.484375 400.558594 465.089844 399.683594 463.171875 399.683594 C 461.257812 399.683594 459.863281 400.558594 459.863281 402.035156 L 459.863281 402.089844 C 459.863281 403.402344 461.09375 404.472656 463.171875 404.472656 C 465.253906 404.472656 466.484375 403.429688 466.484375 402.089844 M 455.78125 402.417969 L 455.78125 402.363281 C 455.78125 400.035156 456.851562 398.667969 458.875 397.738281 C 457.398438 396.835938 456.441406 395.601562 456.441406 393.550781 L 456.441406 393.496094 C 456.441406 390.566406 459.121094 388.242188 463.171875 388.242188 C 467.222656 388.242188 469.90625 390.539062 469.90625 393.496094 L 469.90625 393.550781 C 469.90625 395.601562 468.949219 396.835938 467.46875 397.738281 C 469.414062 398.75 470.5625 399.980469 470.5625 402.253906 L 470.5625 402.308594 C 470.5625 405.863281 467.417969 407.945312 463.171875 407.945312 C 458.933594 407.945312 455.78125 405.757812 455.78125 402.417969 "/>
<path fill-rule="nonzero" fill="rgb(100%, 100%, 100%)" fill-opacity="1" d="M 477.058594 392.644531 L 473.722656 393.46875 L 472.84375 390.019531 L 478.347656 388.378906 L 481.21875 388.378906 L 481.21875 407.671875 L 477.058594 407.671875 Z M 477.058594 392.644531 "/>
<path fill-rule="nonzero" fill="rgb(100%, 100%, 100%)" fill-opacity="1" d="M 496.535156 401.566406 L 496.535156 401.515625 C 496.535156 399.898438 495.277344 398.722656 493.195312 398.722656 C 491.117188 398.722656 489.914062 399.871094 489.914062 401.484375 L 489.914062 401.542969 C 489.914062 403.15625 491.171875 404.390625 493.25 404.390625 C 495.332031 404.390625 496.535156 403.210938 496.535156 401.566406 M 487.886719 405.945312 C 486.492188 404.554688 485.617188 402.5 485.617188 398.695312 L 485.617188 398.640625 C 485.617188 392.726562 488.296875 388.183594 494.015625 388.183594 C 496.617188 388.183594 498.3125 388.953125 500.011719 390.292969 L 497.796875 393.550781 C 496.535156 392.59375 495.523438 392.015625 493.878906 392.015625 C 491.007812 392.015625 490.160156 394.78125 490.023438 396.449219 C 491.035156 395.765625 492.238281 395.222656 493.992188 395.222656 C 497.796875 395.222656 500.722656 397.328125 500.722656 401.320312 L 500.722656 401.378906 C 500.722656 405.289062 497.574219 408 493.417969 408 C 490.925781 408 489.226562 407.289062 487.886719 405.945312 "/>
<path fill-rule="nonzero" fill="rgb(100%, 100%, 100%)" fill-opacity="1" d="M 503.988281 404.332031 L 510.363281 399.105469 C 512.746094 397.136719 513.679688 396.097656 513.679688 394.507812 C 513.679688 392.890625 512.609375 392.015625 511.101562 392.015625 C 509.625 392.015625 508.613281 392.839844 507.191406 394.589844 L 504.234375 392.210938 C 506.121094 389.636719 507.957031 388.238281 511.378906 388.238281 C 515.347656 388.238281 517.972656 390.566406 517.972656 394.152344 L 517.972656 394.207031 C 517.972656 397.410156 516.332031 398.996094 512.9375 401.625 L 509.816406 404.03125 L 518.164062 404.03125 L 518.164062 407.671875 L 503.988281 407.671875 Z M 503.988281 404.332031 "/>
</svg>
