<?xml version="1.0" encoding="UTF-8"?>
<!-- CMYK_PDF_CONVERTED -->
<svg data-vectorized-cmyk="true" data-original-cmyk-pdf="true" xmlns="http://www.w3.org/2000/svg" xmlns:xlink="http://www.w3.org/1999/xlink" width="841.8898" height="595.2756" viewBox="0 0 841.8898 595.2756">
<path fill-rule="nonzero" fill="rgb(100%, 100%, 100%)" fill-opacity="1" d="M 590.925781 147.441406 L 540.257812 147.441406 L 522.9375 129.753906 L 522.9375 43.710938 L 515.015625 43.710938 L 515.015625 28.417969 L 552.417969 28.417969 L 552.417969 43.710938 L 544.496094 43.710938 L 544.496094 123.859375 L 552.601562 131.964844 L 578.214844 131.964844 L 586.503906 123.859375 L 586.503906 43.710938 L 578.582031 43.710938 L 578.582031 28.417969 L 615.984375 28.417969 L 615.984375 43.710938 L 608.246094 43.710938 L 608.246094 129.753906 Z M 612.851562 131.78125 L 612.851562 48.6875 L 620.773438 48.6875 L 620.773438 23.628906 L 573.976562 23.628906 L 573.976562 48.6875 L 581.714844 48.6875 L 581.714844 122.015625 C 580.484375 123.246094 579.5625 124.136719 578.949219 124.6875 C 578.335938 125.242188 577.476562 126.070312 576.371094 127.175781 L 554.628906 127.175781 C 553.402344 125.945312 552.449219 125.054688 551.773438 124.503906 C 551.097656 123.949219 550.207031 123.121094 549.101562 122.015625 L 549.101562 48.6875 L 557.023438 48.6875 L 557.023438 23.628906 L 510.410156 23.628906 L 510.410156 48.6875 L 518.148438 48.6875 L 518.148438 131.78125 L 538.414062 152.234375 L 592.769531 152.234375 Z M 594.425781 156.285156 L 536.574219 156.285156 L 514.28125 133.441406 L 514.28125 52.554688 L 506.355469 52.554688 L 506.355469 19.574219 L 561.078125 19.574219 L 561.078125 52.554688 L 553.15625 52.554688 L 553.15625 120.175781 L 556.289062 123.304688 L 574.710938 123.304688 C 575.082031 122.816406 575.511719 122.355469 576.003906 121.925781 C 576.492188 121.496094 577.109375 120.910156 577.84375 120.175781 L 577.84375 52.554688 L 569.921875 52.554688 L 569.921875 19.574219 L 624.644531 19.574219 L 624.644531 52.554688 L 616.90625 52.554688 L 616.90625 133.441406 Z M 680.101562 131.964844 L 680.101562 147.441406 L 642.515625 147.441406 L 642.515625 131.964844 L 650.4375 131.964844 L 650.4375 43.710938 L 642.515625 43.710938 L 642.515625 28.417969 L 680.101562 28.417969 L 680.101562 43.710938 L 672.179688 43.710938 L 672.179688 88.300781 L 716.03125 43.710938 L 702.210938 43.710938 L 702.210938 28.417969 L 750.300781 28.417969 L 750.300781 43.710938 L 742.378906 43.710938 L 698.894531 87.929688 L 742.378906 131.964844 L 750.300781 131.964844 L 750.300781 147.441406 L 702.210938 147.441406 L 702.210938 131.964844 L 716.398438 131.964844 L 685.628906 101.195312 L 672.179688 114.832031 L 672.179688 131.964844 Z M 676.96875 127.175781 L 676.96875 116.855469 L 685.628906 108.011719 C 689.191406 111.574219 692.539062 114.863281 695.671875 117.871094 C 698.804688 120.878906 701.90625 123.980469 704.976562 127.175781 L 697.421875 127.175781 L 697.421875 152.234375 L 755.089844 152.234375 L 755.089844 127.175781 L 744.40625 127.175781 L 705.527344 87.929688 L 744.40625 48.6875 L 755.089844 48.6875 L 755.089844 23.628906 L 697.421875 23.628906 L 697.421875 48.6875 L 704.605469 48.6875 L 676.96875 76.691406 L 676.96875 48.6875 L 684.890625 48.6875 L 684.890625 23.628906 L 637.726562 23.628906 L 637.726562 48.6875 L 645.648438 48.6875 L 645.648438 127.175781 L 637.726562 127.175781 L 637.726562 152.234375 L 684.890625 152.234375 L 684.890625 127.175781 Z M 680.839844 123.304688 L 688.761719 123.304688 L 688.761719 156.285156 L 633.855469 156.285156 L 633.855469 123.304688 L 641.777344 123.304688 L 641.777344 52.554688 L 633.855469 52.554688 L 633.855469 19.574219 L 688.761719 19.574219 L 688.761719 52.554688 L 680.839844 52.554688 L 680.839844 66.925781 L 695.027344 52.554688 L 693.367188 52.554688 L 693.367188 19.574219 L 759.144531 19.574219 L 759.144531 52.554688 L 746.0625 52.554688 L 711.238281 87.929688 L 746.0625 123.304688 L 759.144531 123.304688 L 759.144531 156.285156 L 693.367188 156.285156 L 693.367188 123.304688 L 695.027344 123.304688 L 685.628906 113.726562 L 680.839844 118.515625 Z M 775.359375 147.441406 L 775.359375 131.964844 L 781.621094 131.964844 L 781.621094 43.710938 L 775.359375 43.710938 L 775.359375 28.417969 L 805.207031 28.417969 L 805.207031 43.710938 L 798.941406 43.710938 L 798.941406 131.964844 L 805.207031 131.964844 L 805.207031 147.441406 Z M 808.890625 152.234375 L 808.890625 127.175781 L 802.625 127.175781 L 802.625 48.6875 L 808.890625 48.6875 L 808.890625 23.628906 L 771.488281 23.628906 L 771.488281 48.6875 L 777.9375 48.6875 L 777.9375 127.175781 L 771.488281 127.175781 L 771.488281 152.234375 Z M 768.355469 156.285156 L 768.355469 123.304688 L 774.804688 123.304688 L 774.804688 52.554688 L 768.355469 52.554688 L 768.355469 19.574219 L 812.023438 19.574219 L 812.023438 52.554688 L 805.757812 52.554688 L 805.757812 123.304688 L 812.023438 123.304688 L 812.023438 156.285156 Z M 538.597656 296.683594 L 575.449219 296.683594 L 575.449219 288.761719 L 590.1875 288.761719 L 590.1875 312.160156 L 510.226562 312.160156 L 510.226562 296.683594 L 517.78125 296.683594 L 517.78125 208.429688 L 510.226562 208.429688 L 510.226562 193.136719 L 546.152344 193.136719 L 546.152344 208.429688 L 538.597656 208.429688 Z M 543.207031 213.402344 L 550.757812 213.402344 L 550.757812 188.347656 L 505.617188 188.347656 L 505.617188 213.402344 L 513.171875 213.402344 L 513.171875 291.894531 L 505.617188 291.894531 L 505.617188 316.949219 L 594.609375 316.949219 L 594.609375 283.96875 L 570.84375 283.96875 L 570.84375 291.894531 L 543.207031 291.894531 Z M 547.074219 217.273438 L 547.074219 288.023438 L 567.15625 288.023438 L 567.15625 279.917969 L 598.480469 279.917969 L 598.480469 321.003906 L 501.75 321.003906 L 501.75 288.023438 L 509.304688 288.023438 L 509.304688 217.273438 L 501.75 217.273438 L 501.75 184.292969 L 554.628906 184.292969 L 554.628906 217.273438 Z M 678.074219 229.800781 L 678.074219 216.902344 L 670.152344 208.429688 L 645.09375 208.429688 L 637.171875 216.902344 L 637.171875 288.578125 L 645.09375 296.683594 L 670.152344 296.683594 L 678.074219 288.578125 L 678.074219 276.601562 L 699.261719 276.601562 L 699.261719 294.472656 L 682.3125 312.160156 L 632.933594 312.160156 L 616.167969 294.472656 L 616.167969 210.824219 L 632.933594 193.136719 L 682.3125 193.136719 L 699.261719 210.824219 L 699.261719 229.800781 Z M 703.683594 234.59375 L 703.683594 208.796875 L 684.15625 188.347656 L 631.09375 188.347656 L 611.5625 208.796875 L 611.5625 296.5 L 631.09375 316.949219 L 684.15625 316.949219 L 703.683594 296.5 L 703.683594 271.808594 L 673.46875 271.808594 L 673.46875 286.734375 C 672.242188 287.960938 671.320312 288.851562 670.703125 289.40625 C 670.089844 289.957031 669.292969 290.789062 668.308594 291.894531 L 646.9375 291.894531 C 645.832031 290.664062 644.941406 289.773438 644.265625 289.222656 C 643.589844 288.667969 642.761719 287.839844 641.777344 286.734375 L 641.777344 218.746094 L 646.9375 213.402344 L 668.308594 213.402344 L 673.46875 218.746094 L 673.46875 234.59375 Z M 669.597656 238.644531 L 669.597656 220.589844 L 666.46875 217.273438 L 648.59375 217.273438 L 645.648438 220.589844 L 645.648438 284.890625 C 646.015625 285.261719 646.445312 285.691406 646.9375 286.179688 C 647.429688 286.671875 647.980469 287.285156 648.59375 288.023438 L 666.46875 288.023438 C 666.957031 287.53125 667.449219 287.070312 667.941406 286.640625 C 668.433594 286.210938 668.984375 285.628906 669.597656 284.890625 L 669.597656 267.757812 L 707.554688 267.757812 L 707.554688 298.15625 L 685.8125 321.003906 L 629.433594 321.003906 L 607.691406 298.15625 L 607.691406 207.140625 L 629.433594 184.292969 L 685.8125 184.292969 L 707.554688 207.140625 L 707.554688 238.644531 Z M 742.007812 260.570312 L 725.242188 243.066406 L 725.242188 210.824219 L 742.007812 193.136719 L 791.386719 193.136719 L 808.339844 210.824219 L 808.339844 226.117188 L 787.148438 226.117188 L 787.148438 216.902344 L 779.226562 208.429688 L 754.167969 208.429688 L 746.246094 216.902344 L 746.246094 236.988281 L 754.167969 245.277344 L 791.386719 245.277344 L 808.339844 262.964844 L 808.339844 294.472656 L 791.386719 312.160156 L 742.007812 312.160156 L 725.242188 294.472656 L 725.242188 279.734375 L 746.246094 279.734375 L 746.246094 288.578125 L 754.167969 296.683594 L 779.226562 296.683594 L 787.148438 288.578125 L 787.148438 269.046875 L 779.226562 260.570312 Z M 777.382812 265.546875 L 782.542969 270.886719 L 782.542969 286.734375 C 781.316406 287.960938 780.394531 288.851562 779.78125 289.40625 C 779.164062 289.957031 778.367188 290.789062 777.382812 291.894531 L 756.011719 291.894531 C 754.90625 290.664062 754.015625 289.773438 753.339844 289.222656 C 752.664062 288.667969 751.835938 287.839844 750.851562 286.734375 L 750.851562 274.941406 L 720.636719 274.941406 L 720.636719 296.5 L 740.167969 316.949219 L 793.230469 316.949219 L 812.761719 296.5 L 812.761719 260.9375 L 793.230469 240.488281 L 756.011719 240.488281 C 754.90625 239.257812 754.015625 238.339844 753.339844 237.722656 C 752.664062 237.109375 751.835938 236.25 750.851562 235.144531 L 750.851562 218.746094 L 756.011719 213.402344 L 777.382812 213.402344 L 782.542969 218.746094 L 782.542969 230.90625 L 812.761719 230.90625 L 812.761719 208.796875 L 793.230469 188.347656 L 740.167969 188.347656 L 720.636719 208.796875 L 720.636719 244.910156 L 740.167969 265.546875 Z M 738.507812 269.414062 L 716.765625 246.75 L 716.765625 207.140625 L 738.507812 184.292969 L 794.886719 184.292969 L 816.628906 207.140625 L 816.628906 234.960938 L 778.675781 234.960938 L 778.675781 220.589844 L 775.542969 217.273438 L 757.667969 217.273438 L 754.722656 220.589844 L 754.722656 233.300781 C 755.089844 233.792969 755.519531 234.253906 756.011719 234.683594 C 756.503906 235.113281 757.054688 235.695312 757.667969 236.433594 L 794.886719 236.433594 L 816.628906 259.28125 L 816.628906 298.15625 L 794.886719 321.003906 L 738.507812 321.003906 L 716.765625 298.15625 L 716.765625 270.886719 L 754.722656 270.886719 L 754.722656 284.890625 C 755.089844 285.261719 755.519531 285.691406 756.011719 286.179688 C 756.503906 286.671875 757.054688 287.285156 757.667969 288.023438 L 775.542969 288.023438 C 776.035156 287.53125 776.523438 287.070312 777.015625 286.640625 C 777.507812 286.210938 778.058594 285.628906 778.675781 284.890625 L 778.675781 272.730469 L 775.542969 269.414062 Z M 738.507812 269.414062 "/>
<path fill-rule="nonzero" fill="rgb(100%, 100%, 100%)" fill-opacity="1" d="M 119.875 446.515625 L 119.875 421.164062 L 204.757812 421.164062 C 205.625 425.628906 206.132812 430.949219 206.132812 436.707031 C 206.132812 455.722656 200.925781 479.265625 184.175781 496.015625 C 167.875 512.992188 147.050781 522.050781 119.433594 522.050781 C 68.273438 522.050781 25.261719 480.398438 25.261719 429.234375 C 25.261719 378.078125 68.273438 336.421875 119.433594 336.421875 C 147.730469 336.421875 167.875 347.515625 183.042969 362.003906 L 165.160156 379.886719 C 154.292969 369.699219 139.578125 361.777344 119.433594 361.777344 C 82.078125 361.777344 52.878906 391.882812 52.878906 429.234375 C 52.878906 466.585938 82.078125 496.695312 119.433594 496.695312 C 143.65625 496.695312 157.460938 486.960938 166.289062 478.132812 C 173.484375 470.941406 178.222656 460.621094 180.058594 446.515625 Z M 119.875 446.515625 "/>
<path fill-rule="nonzero" fill="rgb(100%, 100%, 100%)" fill-opacity="1" d="M 309.226562 462.289062 C 309.226562 440.78125 293.609375 426.066406 275.5 426.066406 C 257.386719 426.066406 241.769531 440.78125 241.769531 462.289062 C 241.769531 483.566406 257.386719 498.507812 275.5 498.507812 C 293.609375 498.507812 309.226562 483.566406 309.226562 462.289062 Z M 335.488281 462.289062 C 335.488281 496.695312 308.546875 522.050781 275.5 522.050781 C 242.445312 522.050781 215.507812 496.695312 215.507812 462.289062 C 215.507812 427.652344 242.445312 402.523438 275.5 402.523438 C 308.546875 402.523438 335.488281 427.652344 335.488281 462.289062 "/>
<path fill-rule="nonzero" fill="rgb(100%, 100%, 100%)" fill-opacity="1" d="M 440.09375 462.289062 C 440.09375 440.78125 424.472656 426.066406 406.367188 426.066406 C 388.253906 426.066406 372.636719 440.78125 372.636719 462.289062 C 372.636719 483.566406 388.253906 498.507812 406.367188 498.507812 C 424.472656 498.507812 440.09375 483.566406 440.09375 462.289062 Z M 466.351562 462.289062 C 466.351562 496.695312 439.414062 522.050781 406.367188 522.050781 C 373.3125 522.050781 346.375 496.695312 346.375 462.289062 C 346.375 427.652344 373.3125 402.523438 406.367188 402.523438 C 439.414062 402.523438 466.351562 427.652344 466.351562 462.289062 "/>
<path fill-rule="nonzero" fill="rgb(100%, 100%, 100%)" fill-opacity="1" d="M 568.699219 462.515625 C 568.699219 441.460938 554.660156 426.066406 536.777344 426.066406 C 518.667969 426.066406 503.5 441.460938 503.5 462.515625 C 503.5 483.339844 518.667969 498.507812 536.777344 498.507812 C 554.660156 498.507812 568.699219 483.339844 568.699219 462.515625 Z M 591.789062 406.148438 L 591.789062 513.445312 C 591.789062 557.589844 565.753906 575.699219 534.96875 575.699219 C 505.992188 575.699219 488.558594 556.230469 481.996094 540.386719 L 504.859375 530.878906 C 508.933594 540.613281 518.894531 552.15625 534.96875 552.15625 C 554.660156 552.15625 566.886719 539.933594 566.886719 517.070312 L 566.886719 508.46875 L 565.980469 508.46875 C 560.09375 515.710938 548.777344 522.050781 534.515625 522.050781 C 504.632812 522.050781 477.242188 496.015625 477.242188 462.515625 C 477.242188 428.785156 504.632812 402.523438 534.515625 402.523438 C 548.777344 402.523438 560.09375 408.863281 565.980469 415.882812 L 566.886719 415.882812 L 566.886719 406.148438 Z M 591.789062 406.148438 "/>
<path fill-rule="nonzero" fill="rgb(100%, 100%, 100%)" fill-opacity="1" d="M 636.265625 518.429688 L 610.003906 518.429688 L 610.003906 343.351562 L 636.265625 343.351562 Z M 636.265625 518.429688 "/>
<path fill-rule="nonzero" fill="rgb(100%, 100%, 100%)" fill-opacity="1" d="M 674.960938 460.476562 L 728.382812 438.292969 C 725.441406 430.820312 716.613281 425.613281 706.199219 425.613281 C 692.84375 425.613281 674.28125 437.386719 674.960938 460.476562 Z M 737.667969 481.980469 L 758.039062 495.5625 C 751.472656 505.296875 735.628906 522.050781 708.238281 522.050781 C 674.28125 522.050781 648.929688 495.789062 648.929688 462.289062 C 648.929688 426.746094 674.507812 402.523438 705.292969 402.523438 C 736.308594 402.523438 751.472656 427.199219 756.453125 440.554688 L 759.171875 447.34375 L 679.261719 480.398438 C 685.375 492.394531 694.882812 498.507812 708.238281 498.507812 C 721.59375 498.507812 730.875 491.941406 737.667969 481.980469 "/>
<path fill-rule="nonzero" fill="rgb(100%, 100%, 100%)" fill-opacity="1" d="M 58.972656 34.25 C 64.375 34.25 69.777344 34.25 75.179688 34.25 C 75.1875 42.292969 75.179688 50.335938 75.183594 58.378906 C 83.453125 58.378906 91.71875 58.375 99.988281 58.378906 C 99.984375 62.261719 99.988281 66.148438 99.984375 70.035156 L 58.972656 70.035156 C 58.96875 58.105469 58.972656 46.179688 58.972656 34.25 "/>
<path fill-rule="nonzero" fill="rgb(100%, 100%, 100%)" fill-opacity="1" d="M 131.476562 55.210938 C 134.824219 55.203125 138.167969 55.210938 141.515625 55.203125 C 139.828125 51.550781 138.132812 47.898438 136.445312 44.246094 C 134.792969 47.902344 133.117188 51.546875 131.476562 55.210938 Z M 108.398438 70.035156 C 114.136719 58.105469 119.875 46.175781 125.617188 34.25 C 133.09375 34.25 140.566406 34.253906 148.042969 34.25 C 154.15625 46.175781 160.257812 58.105469 166.371094 70.035156 C 160.367188 70.035156 154.363281 70.03125 148.355469 70.035156 C 147.589844 68.382812 146.855469 66.714844 146.078125 65.070312 C 139.738281 65.074219 133.394531 65.078125 127.050781 65.066406 C 126.296875 66.714844 125.566406 68.375 124.828125 70.03125 C 119.355469 70.039062 113.875 70.03125 108.398438 70.035156 "/>
<path fill-rule="nonzero" fill="rgb(100%, 100%, 100%)" fill-opacity="1" d="M 191.34375 44.605469 C 191.339844 49.632812 191.34375 54.652344 191.339844 59.679688 C 194.800781 59.648438 198.265625 59.742188 201.722656 59.617188 C 204.480469 59.429688 207.425781 58.960938 209.632812 57.164062 C 211.203125 55.902344 211.9375 53.835938 211.839844 51.859375 C 211.902344 49.90625 211.015625 47.933594 209.398438 46.808594 C 206.992188 45.105469 203.9375 44.75 201.070312 44.621094 C 197.828125 44.589844 194.585938 44.617188 191.34375 44.605469 Z M 175.128906 70.035156 C 175.132812 58.105469 175.128906 46.179688 175.132812 34.25 C 181.828125 34.25 188.523438 34.25 195.21875 34.25 C 200.230469 34.304688 205.269531 34.035156 210.257812 34.710938 C 214.25 35.238281 218.28125 36.230469 221.75 38.351562 C 224.386719 39.953125 226.570312 42.363281 227.660156 45.269531 C 228.628906 47.707031 228.757812 50.363281 228.6875 52.953125 C 228.652344 55.886719 227.996094 58.875 226.398438 61.367188 C 224.542969 64.320312 221.527344 66.355469 218.320312 67.597656 C 213.800781 69.34375 208.914062 69.878906 204.101562 70.003906 C 194.445312 70.074219 184.789062 70.015625 175.128906 70.035156 "/>
<path fill-rule="nonzero" fill="rgb(100%, 100%, 100%)" fill-opacity="1" d="M 199.769531 84.996094 C 199.769531 91.867188 199.769531 98.730469 199.773438 105.597656 C 205.246094 105.597656 210.722656 105.597656 216.199219 105.597656 L 216.199219 102.238281 C 211.96875 102.234375 207.742188 102.242188 203.511719 102.234375 C 203.519531 100.390625 203.5 98.546875 203.519531 96.703125 C 206.960938 96.714844 210.398438 96.703125 213.839844 96.707031 L 213.839844 93.429688 C 210.398438 93.425781 206.953125 93.425781 203.511719 93.429688 L 203.511719 88.359375 L 216.226562 88.359375 L 216.226562 84.996094 Z M 167 84.996094 C 166.996094 91.867188 166.996094 98.730469 167 105.597656 L 182.152344 105.597656 L 182.152344 102.238281 C 178.347656 102.238281 174.539062 102.242188 170.738281 102.238281 C 170.738281 96.492188 170.738281 90.746094 170.738281 84.996094 C 169.492188 84.996094 168.246094 84.996094 167 84.996094 Z M 131.488281 84.996094 C 131.484375 91.867188 131.484375 98.730469 131.488281 105.597656 C 135.171875 105.597656 138.851562 105.605469 142.535156 105.597656 C 144.300781 105.546875 146.199219 105.175781 147.507812 103.898438 C 148.980469 102.460938 149.273438 100.183594 148.84375 98.246094 C 148.453125 96.503906 146.761719 95.425781 145.121094 95.050781 C 146.007812 94.703125 146.917969 94.296875 147.53125 93.535156 C 148.351562 92.566406 148.457031 91.222656 148.347656 90.007812 C 148.234375 88.597656 147.511719 87.242188 146.375 86.390625 C 145.097656 85.410156 143.453125 85.042969 141.871094 84.996094 Z M 108.363281 84.996094 C 108.355469 91.859375 108.375 98.726562 108.355469 105.589844 C 109.605469 105.609375 110.851562 105.59375 112.105469 105.597656 C 112.105469 98.730469 112.101562 91.867188 112.105469 85 C 110.855469 84.996094 109.609375 84.996094 108.363281 84.996094 Z M 72.527344 85 C 72.527344 91.867188 72.527344 98.730469 72.527344 105.597656 C 76.199219 105.597656 79.867188 105.601562 83.539062 105.597656 C 85.308594 105.554688 87.210938 105.1875 88.53125 103.917969 C 90.027344 102.457031 90.328125 100.136719 89.863281 98.179688 C 89.445312 96.449219 87.753906 95.421875 86.128906 95.035156 C 87.519531 94.625 88.90625 93.679688 89.253906 92.191406 C 89.65625 90.460938 89.382812 88.488281 88.183594 87.117188 C 86.882812 85.597656 84.800781 85.035156 82.867188 84.996094 C 79.421875 84.996094 75.972656 84.996094 72.527344 85 Z M 58.972656 76.949219 C 115.664062 76.945312 172.355469 76.945312 229.046875 76.949219 C 229.042969 89.226562 229.058594 101.507812 229.039062 113.789062 C 172.351562 113.78125 115.660156 113.792969 58.972656 113.785156 C 58.972656 101.503906 58.96875 89.226562 58.972656 76.949219 "/>
<path fill-rule="nonzero" fill="rgb(100%, 100%, 100%)" fill-opacity="1" d="M 76.132812 88.25 C 78.308594 88.253906 80.484375 88.246094 82.65625 88.253906 C 83.570312 88.304688 84.632812 88.484375 85.21875 89.261719 C 85.722656 90.113281 85.6875 91.210938 85.347656 92.117188 C 84.945312 93.066406 83.816406 93.386719 82.871094 93.445312 C 80.625 93.46875 78.378906 93.445312 76.132812 93.453125 C 76.128906 91.71875 76.128906 89.984375 76.132812 88.25 "/>
<path fill-rule="nonzero" fill="rgb(100%, 100%, 100%)" fill-opacity="1" d="M 135.089844 88.25 C 137.34375 88.261719 139.597656 88.230469 141.847656 88.265625 C 142.777344 88.351562 143.945312 88.605469 144.34375 89.570312 C 144.65625 90.398438 144.625 91.363281 144.28125 92.179688 C 143.8125 93.144531 142.628906 93.421875 141.648438 93.453125 C 139.457031 93.449219 137.269531 93.46875 135.082031 93.441406 C 135.101562 91.710938 135.085938 89.980469 135.089844 88.25 "/>
<path fill-rule="nonzero" fill="rgb(100%, 100%, 100%)" fill-opacity="1" d="M 76.132812 96.707031 C 78.457031 96.710938 80.777344 96.699219 83.097656 96.714844 C 84.207031 96.703125 85.496094 97.128906 85.96875 98.226562 C 86.414062 99.34375 86.34375 100.839844 85.347656 101.652344 C 84.484375 102.367188 83.296875 102.359375 82.234375 102.347656 C 80.199219 102.34375 78.167969 102.347656 76.132812 102.347656 C 76.128906 100.464844 76.128906 98.589844 76.132812 96.707031 "/>
<path fill-rule="nonzero" fill="rgb(100%, 100%, 100%)" fill-opacity="1" d="M 135.089844 96.707031 C 137.417969 96.710938 139.738281 96.699219 142.0625 96.71875 C 143.175781 96.707031 144.46875 97.132812 144.929688 98.234375 C 145.34375 99.296875 145.320312 100.679688 144.453125 101.519531 C 143.785156 102.191406 142.785156 102.335938 141.875 102.347656 C 139.613281 102.347656 137.351562 102.34375 135.09375 102.347656 C 135.089844 100.464844 135.089844 98.589844 135.089844 96.707031 "/>
<path fill-rule="nonzero" fill="rgb(100%, 100%, 100%)" fill-opacity="1" d="M 71.117188 134.226562 C 72.425781 134.222656 73.734375 134.226562 75.046875 134.226562 C 75.046875 141.519531 75.046875 148.808594 75.046875 156.101562 C 73.734375 156.097656 72.425781 156.105469 71.113281 156.097656 C 71.117188 148.808594 71.113281 141.515625 71.117188 134.226562 "/>
<path fill-rule="nonzero" fill="rgb(100%, 100%, 100%)" fill-opacity="1" d="M 91.984375 137.167969 C 91.933594 139.195312 91.976562 141.222656 91.964844 143.25 C 92.84375 143.179688 93.820312 143.453125 94.628906 142.992188 C 95.519531 142.335938 95.292969 141.09375 95.324219 140.128906 C 95.285156 139.257812 95.507812 138.191406 94.808594 137.519531 C 93.988281 136.9375 92.914062 137.277344 91.984375 137.167969 Z M 88.085938 134.226562 C 90.542969 134.226562 93.003906 134.21875 95.460938 134.230469 C 96.683594 134.261719 98.042969 134.71875 98.660156 135.859375 C 99.488281 137.367188 99.117188 139.144531 99.203125 140.789062 C 99.285156 142.242188 98.53125 143.742188 97.136719 144.296875 C 98.273438 144.757812 99.050781 145.863281 99.160156 147.078125 C 99.253906 148.375 99.175781 149.675781 99.199219 150.972656 C 99.238281 152.679688 99.039062 154.4375 99.585938 156.09375 C 98.289062 156.109375 96.984375 156.097656 95.6875 156.101562 C 95.355469 155.304688 95.339844 154.429688 95.324219 153.585938 C 95.316406 151.777344 95.339844 149.972656 95.316406 148.171875 C 95.296875 147.539062 95.074219 146.789062 94.421875 146.550781 C 93.628906 146.285156 92.78125 146.433594 91.964844 146.398438 C 91.960938 149.632812 91.964844 152.867188 91.960938 156.101562 C 90.671875 156.101562 89.378906 156.097656 88.089844 156.101562 C 88.082031 148.808594 88.089844 141.519531 88.085938 134.226562 "/>
<path fill-rule="nonzero" fill="rgb(100%, 100%, 100%)" fill-opacity="1" d="M 112.296875 134.226562 C 115.511719 134.226562 118.726562 134.222656 121.941406 134.226562 C 121.945312 135.359375 121.9375 136.492188 121.949219 137.628906 C 120.015625 137.65625 118.078125 137.636719 116.144531 137.640625 C 116.140625 139.4375 116.140625 141.238281 116.148438 143.035156 C 117.753906 143.035156 119.359375 143.035156 120.96875 143.035156 L 120.96875 146.558594 C 119.359375 146.558594 117.753906 146.558594 116.148438 146.558594 C 116.140625 148.566406 116.140625 150.574219 116.148438 152.578125 C 118.132812 152.578125 120.117188 152.578125 122.105469 152.578125 L 122.105469 156.101562 C 118.835938 156.097656 115.5625 156.105469 112.292969 156.097656 C 112.296875 148.808594 112.292969 141.515625 112.296875 134.226562 "/>
<path fill-rule="nonzero" fill="rgb(100%, 100%, 100%)" fill-opacity="1" d="M 134.765625 156.101562 C 134.773438 148.808594 134.753906 141.515625 134.773438 134.222656 C 136.082031 134.230469 137.386719 134.222656 138.695312 134.226562 C 138.699219 140.316406 138.699219 146.40625 138.695312 152.496094 C 140.476562 152.5 142.257812 152.496094 144.039062 152.496094 C 144.035156 153.699219 144.039062 154.898438 144.035156 156.101562 C 140.945312 156.097656 137.855469 156.101562 134.765625 156.101562 "/>
<path fill-rule="nonzero" fill="rgb(100%, 100%, 100%)" fill-opacity="1" d="M 160.796875 148.78125 C 161.765625 148.78125 162.734375 148.78125 163.699219 148.785156 C 163.191406 145.519531 162.582031 142.265625 162.246094 138.980469 C 161.839844 142.257812 161.304688 145.515625 160.796875 148.78125 Z M 159.855469 134.226562 C 161.488281 134.222656 163.125 134.230469 164.757812 134.222656 C 166.074219 141.511719 167.363281 148.808594 168.679688 156.097656 C 167.414062 156.105469 166.148438 156.097656 164.882812 156.101562 C 164.664062 154.757812 164.449219 153.40625 164.230469 152.0625 L 160.273438 152.0625 C 160.050781 153.40625 159.863281 154.757812 159.644531 156.101562 C 158.488281 156.101562 157.335938 156.097656 156.179688 156.105469 C 157.398438 148.8125 158.632812 141.519531 159.855469 134.226562 "/>
<path fill-rule="nonzero" fill="rgb(100%, 100%, 100%)" fill-opacity="1" d="M 181.148438 134.226562 C 182.429688 134.222656 183.714844 134.230469 185 134.222656 C 186.480469 138.882812 188.097656 143.507812 189.425781 148.222656 C 189.191406 143.5625 189.359375 138.890625 189.308594 134.226562 C 190.4375 134.222656 191.566406 134.222656 192.695312 134.226562 C 192.695312 141.515625 192.695312 148.808594 192.695312 156.097656 C 191.5625 156.101562 190.425781 156.101562 189.292969 156.097656 C 187.914062 152.046875 186.515625 148 185.144531 143.945312 C 184.871094 143.09375 184.628906 142.238281 184.433594 141.371094 C 184.722656 146.277344 184.546875 151.191406 184.585938 156.105469 C 183.4375 156.097656 182.292969 156.101562 181.148438 156.101562 C 181.148438 148.808594 181.148438 141.519531 181.148438 134.226562 "/>
<path fill-rule="nonzero" fill="rgb(100%, 100%, 100%)" fill-opacity="1" d="M 209.691406 137.34375 L 209.691406 152.769531 C 210.46875 152.734375 211.292969 152.871094 212.03125 152.566406 C 212.710938 152.25 212.898438 151.429688 212.914062 150.75 C 212.921875 146.992188 212.917969 143.234375 212.917969 139.476562 C 212.90625 138.773438 212.792969 137.90625 212.097656 137.550781 C 211.34375 137.214844 210.488281 137.378906 209.691406 137.34375 Z M 205.761719 134.226562 L 212.351562 134.226562 C 213.5625 134.25 214.894531 134.488281 215.769531 135.402344 C 216.628906 136.304688 216.84375 137.605469 216.875 138.804688 C 216.878906 142.867188 216.871094 146.929688 216.878906 150.992188 C 216.882812 152.335938 216.691406 153.808594 215.753906 154.84375 C 214.839844 155.824219 213.429688 156.082031 212.148438 156.101562 C 210.019531 156.101562 207.890625 156.101562 205.761719 156.097656 C 205.761719 148.808594 205.757812 141.515625 205.761719 134.226562 "/>
<path fill-rule="nonzero" fill="rgb(100%, 100%, 100%)" fill-opacity="1" d="M 269.851562 177.289062 C 275.253906 177.289062 280.65625 177.289062 286.058594 177.289062 C 286.066406 185.332031 286.058594 193.375 286.058594 201.417969 C 294.328125 201.417969 302.597656 201.414062 310.867188 201.417969 C 310.863281 205.304688 310.867188 209.1875 310.863281 213.074219 L 269.851562 213.074219 C 269.847656 201.144531 269.851562 189.21875 269.851562 177.289062 "/>
<path fill-rule="nonzero" fill="rgb(100%, 100%, 100%)" fill-opacity="1" d="M 342.355469 198.25 C 345.699219 198.242188 349.046875 198.25 352.394531 198.242188 C 350.707031 194.589844 349.007812 190.9375 347.324219 187.285156 C 345.671875 190.941406 343.996094 194.585938 342.355469 198.25 Z M 319.277344 213.074219 C 325.015625 201.144531 330.753906 189.214844 336.496094 177.289062 C 343.96875 177.289062 351.445312 177.292969 358.921875 177.289062 C 365.035156 189.214844 371.136719 201.144531 377.246094 213.074219 C 371.246094 213.074219 365.242188 213.070312 359.234375 213.074219 C 358.46875 211.421875 357.730469 209.753906 356.957031 208.109375 C 350.613281 208.113281 344.273438 208.117188 337.929688 208.105469 C 337.171875 209.753906 336.445312 211.414062 335.707031 213.070312 C 330.230469 213.078125 324.753906 213.070312 319.277344 213.074219 "/>
<path fill-rule="nonzero" fill="rgb(100%, 100%, 100%)" fill-opacity="1" d="M 402.21875 187.644531 C 402.21875 192.671875 402.21875 197.691406 402.21875 202.71875 C 405.679688 202.691406 409.140625 202.78125 412.601562 202.65625 C 415.359375 202.472656 418.300781 202 420.511719 200.203125 C 422.082031 198.941406 422.816406 196.875 422.714844 194.898438 C 422.777344 192.945312 421.894531 190.972656 420.277344 189.847656 C 417.867188 188.144531 414.816406 187.789062 411.945312 187.660156 C 408.703125 187.628906 405.460938 187.65625 402.21875 187.644531 Z M 386.007812 213.074219 C 386.011719 201.144531 386.003906 189.21875 386.011719 177.289062 C 392.707031 177.289062 399.402344 177.289062 406.097656 177.289062 C 411.109375 177.34375 416.148438 177.074219 421.136719 177.75 C 425.128906 178.28125 429.160156 179.269531 432.625 181.390625 C 435.265625 182.992188 437.449219 185.402344 438.539062 188.308594 C 439.503906 190.746094 439.636719 193.402344 439.566406 195.992188 C 439.53125 198.925781 438.875 201.914062 437.277344 204.40625 C 435.421875 207.359375 432.40625 209.394531 429.199219 210.636719 C 424.679688 212.382812 419.792969 212.917969 414.980469 213.042969 C 405.324219 213.113281 395.667969 213.054688 386.007812 213.074219 "/>
<path fill-rule="nonzero" fill="rgb(100%, 100%, 100%)" fill-opacity="1" d="M 410.648438 228.035156 C 410.648438 234.90625 410.648438 241.769531 410.652344 248.640625 C 416.125 248.636719 421.601562 248.640625 427.078125 248.640625 L 427.078125 245.277344 C 422.847656 245.277344 418.617188 245.28125 414.390625 245.277344 C 414.398438 243.433594 414.378906 241.585938 414.398438 239.742188 C 417.839844 239.753906 421.277344 239.742188 424.71875 239.746094 L 424.71875 236.46875 C 421.277344 236.464844 417.832031 236.464844 414.390625 236.46875 L 414.390625 231.398438 L 427.101562 231.398438 L 427.101562 228.035156 Z M 377.875 228.035156 C 377.875 234.90625 377.875 241.769531 377.875 248.640625 L 393.027344 248.640625 L 393.027344 245.277344 C 389.226562 245.277344 385.417969 245.28125 381.617188 245.277344 C 381.617188 239.53125 381.617188 233.785156 381.617188 228.035156 C 380.367188 228.035156 379.121094 228.035156 377.875 228.035156 Z M 342.367188 228.035156 C 342.363281 234.90625 342.363281 241.769531 342.367188 248.640625 C 346.046875 248.636719 349.730469 248.644531 353.414062 248.636719 C 355.175781 248.585938 357.078125 248.214844 358.386719 246.9375 C 359.855469 245.5 360.152344 243.222656 359.722656 241.289062 C 359.332031 239.542969 357.640625 238.464844 356 238.089844 C 356.886719 237.742188 357.796875 237.335938 358.410156 236.574219 C 359.230469 235.609375 359.335938 234.261719 359.226562 233.050781 C 359.113281 231.636719 358.390625 230.28125 357.253906 229.429688 C 355.976562 228.453125 354.332031 228.082031 352.75 228.035156 Z M 319.242188 228.035156 C 319.234375 234.902344 319.253906 241.765625 319.230469 248.628906 C 320.480469 248.652344 321.730469 248.632812 322.980469 248.640625 C 322.980469 241.769531 322.980469 234.90625 322.980469 228.039062 C 321.734375 228.035156 320.488281 228.035156 319.242188 228.035156 Z M 283.402344 228.039062 C 283.40625 234.90625 283.402344 241.769531 283.402344 248.640625 C 287.074219 248.636719 290.746094 248.640625 294.417969 248.636719 C 296.1875 248.59375 298.089844 248.226562 299.410156 246.957031 C 300.90625 245.496094 301.203125 243.175781 300.742188 241.21875 C 300.320312 239.488281 298.632812 238.460938 297.007812 238.074219 C 298.394531 237.664062 299.785156 236.71875 300.132812 235.230469 C 300.535156 233.503906 300.261719 231.527344 299.0625 230.15625 C 297.761719 228.636719 295.679688 228.074219 293.742188 228.035156 C 290.296875 228.035156 286.851562 228.035156 283.402344 228.039062 Z M 269.851562 219.988281 C 326.542969 219.984375 383.234375 219.984375 439.925781 219.988281 C 439.921875 232.269531 439.9375 244.550781 439.917969 256.832031 C 383.230469 256.820312 326.539062 256.832031 269.851562 256.824219 C 269.851562 244.542969 269.847656 232.265625 269.851562 219.988281 "/>
<path fill-rule="nonzero" fill="rgb(100%, 100%, 100%)" fill-opacity="1" d="M 287.011719 231.289062 C 289.1875 231.292969 291.359375 231.285156 293.535156 231.292969 C 294.445312 231.34375 295.511719 231.523438 296.097656 232.300781 C 296.601562 233.152344 296.566406 234.253906 296.226562 235.15625 C 295.820312 236.105469 294.695312 236.425781 293.75 236.484375 C 291.503906 236.511719 289.257812 236.488281 287.011719 236.496094 C 287.007812 234.761719 287.007812 233.023438 287.011719 231.289062 "/>
<path fill-rule="nonzero" fill="rgb(100%, 100%, 100%)" fill-opacity="1" d="M 345.96875 231.289062 C 348.222656 231.300781 350.476562 231.269531 352.726562 231.304688 C 353.65625 231.390625 354.824219 231.644531 355.222656 232.609375 C 355.53125 233.4375 355.503906 234.402344 355.160156 235.21875 C 354.691406 236.183594 353.507812 236.460938 352.527344 236.492188 C 350.335938 236.488281 348.148438 236.511719 345.960938 236.480469 C 345.980469 234.75 345.960938 233.019531 345.96875 231.289062 "/>
<path fill-rule="nonzero" fill="rgb(100%, 100%, 100%)" fill-opacity="1" d="M 287.011719 239.746094 C 289.332031 239.753906 291.65625 239.738281 293.976562 239.753906 C 295.085938 239.742188 296.375 240.171875 296.84375 241.265625 C 297.289062 242.382812 297.21875 243.878906 296.226562 244.691406 C 295.363281 245.40625 294.171875 245.398438 293.113281 245.386719 C 291.078125 245.382812 289.042969 245.386719 287.011719 245.386719 C 287.007812 243.507812 287.007812 241.628906 287.011719 239.746094 "/>
<path fill-rule="nonzero" fill="rgb(100%, 100%, 100%)" fill-opacity="1" d="M 345.96875 239.746094 C 348.292969 239.753906 350.617188 239.738281 352.941406 239.757812 C 354.050781 239.746094 355.34375 240.171875 355.808594 241.273438 C 356.222656 242.335938 356.199219 243.722656 355.332031 244.558594 C 354.664062 245.230469 353.660156 245.378906 352.753906 245.386719 C 350.492188 245.386719 348.230469 245.382812 345.972656 245.386719 C 345.96875 243.507812 345.96875 241.628906 345.96875 239.746094 "/>
<path fill-rule="nonzero" fill="rgb(100%, 100%, 100%)" fill-opacity="1" d="M 281.996094 277.265625 C 283.304688 277.261719 284.613281 277.265625 285.925781 277.265625 C 285.925781 284.558594 285.925781 291.847656 285.925781 299.140625 C 284.613281 299.136719 283.304688 299.144531 281.992188 299.136719 C 281.996094 291.847656 281.992188 284.554688 281.996094 277.265625 "/>
<path fill-rule="nonzero" fill="rgb(100%, 100%, 100%)" fill-opacity="1" d="M 302.863281 280.207031 C 302.8125 282.234375 302.855469 284.261719 302.839844 286.289062 C 303.722656 286.21875 304.699219 286.492188 305.503906 286.03125 C 306.398438 285.375 306.171875 284.132812 306.203125 283.171875 C 306.160156 282.296875 306.386719 281.230469 305.683594 280.558594 C 304.863281 279.976562 303.792969 280.316406 302.863281 280.207031 Z M 298.964844 277.265625 C 301.421875 277.265625 303.878906 277.257812 306.339844 277.269531 C 307.5625 277.300781 308.921875 277.757812 309.539062 278.898438 C 310.367188 280.40625 309.992188 282.1875 310.082031 283.828125 C 310.164062 285.28125 309.40625 286.785156 308.015625 287.339844 C 309.152344 287.796875 309.929688 288.902344 310.035156 290.121094 C 310.132812 291.414062 310.050781 292.714844 310.078125 294.015625 C 310.117188 295.71875 309.914062 297.480469 310.464844 299.132812 C 309.164062 299.152344 307.863281 299.136719 306.566406 299.140625 C 306.234375 298.34375 306.214844 297.46875 306.203125 296.625 C 306.195312 294.816406 306.214844 293.015625 306.195312 291.210938 C 306.175781 290.578125 305.953125 289.828125 305.296875 289.589844 C 304.507812 289.324219 303.65625 289.472656 302.839844 289.4375 C 302.839844 292.671875 302.839844 295.90625 302.839844 299.140625 C 301.550781 299.140625 300.257812 299.136719 298.964844 299.140625 C 298.960938 291.847656 298.964844 284.558594 298.964844 277.265625 "/>
<path fill-rule="nonzero" fill="rgb(100%, 100%, 100%)" fill-opacity="1" d="M 323.171875 277.265625 C 326.390625 277.265625 329.605469 277.261719 332.820312 277.265625 C 332.824219 278.398438 332.816406 279.535156 332.828125 280.671875 C 330.894531 280.695312 328.957031 280.675781 327.023438 280.679688 C 327.019531 282.480469 327.019531 284.277344 327.023438 286.078125 C 328.632812 286.074219 330.238281 286.078125 331.84375 286.078125 L 331.84375 289.597656 C 330.238281 289.597656 328.632812 289.601562 327.023438 289.597656 C 327.019531 291.605469 327.019531 293.613281 327.023438 295.617188 C 329.011719 295.617188 330.996094 295.617188 332.984375 295.617188 L 332.984375 299.140625 C 329.714844 299.136719 326.441406 299.144531 323.171875 299.136719 C 323.171875 291.847656 323.171875 284.554688 323.171875 277.265625 "/>
<path fill-rule="nonzero" fill="rgb(100%, 100%, 100%)" fill-opacity="1" d="M 345.644531 299.140625 C 345.652344 291.847656 345.632812 284.554688 345.652344 277.261719 C 346.960938 277.269531 348.265625 277.261719 349.574219 277.265625 C 349.578125 283.355469 349.578125 289.445312 349.574219 295.535156 C 351.355469 295.539062 353.132812 295.535156 354.914062 295.535156 C 354.914062 296.738281 354.917969 297.9375 354.914062 299.140625 C 351.824219 299.136719 348.734375 299.140625 345.644531 299.140625 "/>
<path fill-rule="nonzero" fill="rgb(100%, 100%, 100%)" fill-opacity="1" d="M 371.675781 291.820312 C 372.644531 291.820312 373.613281 291.820312 374.578125 291.824219 C 374.070312 288.558594 373.460938 285.304688 373.125 282.019531 C 372.71875 285.296875 372.183594 288.558594 371.675781 291.820312 Z M 370.734375 277.265625 C 372.367188 277.261719 374 277.269531 375.636719 277.261719 C 376.953125 284.550781 378.242188 291.847656 379.554688 299.136719 C 378.292969 299.144531 377.023438 299.136719 375.761719 299.140625 C 375.539062 297.796875 375.328125 296.445312 375.109375 295.101562 L 371.148438 295.101562 C 370.929688 296.445312 370.738281 297.796875 370.523438 299.140625 C 369.367188 299.140625 368.214844 299.136719 367.058594 299.144531 C 368.277344 291.851562 369.511719 284.558594 370.734375 277.265625 "/>
<path fill-rule="nonzero" fill="rgb(100%, 100%, 100%)" fill-opacity="1" d="M 392.023438 277.265625 C 393.308594 277.261719 394.59375 277.269531 395.875 277.261719 C 397.359375 281.921875 398.976562 286.550781 400.304688 291.261719 C 400.066406 286.601562 400.234375 281.929688 400.1875 277.265625 C 401.316406 277.261719 402.445312 277.261719 403.574219 277.265625 C 403.574219 284.554688 403.574219 291.847656 403.574219 299.136719 C 402.4375 299.140625 401.304688 299.140625 400.171875 299.136719 C 398.792969 295.085938 397.390625 291.039062 396.023438 286.984375 C 395.75 286.136719 395.507812 285.277344 395.308594 284.410156 C 395.597656 289.316406 395.421875 294.234375 395.464844 299.144531 C 394.316406 299.136719 393.171875 299.140625 392.027344 299.140625 C 392.023438 291.847656 392.023438 284.558594 392.023438 277.265625 "/>
<path fill-rule="nonzero" fill="rgb(100%, 100%, 100%)" fill-opacity="1" d="M 420.570312 280.382812 L 420.570312 295.808594 C 421.347656 295.773438 422.171875 295.910156 422.910156 295.605469 C 423.589844 295.289062 423.777344 294.472656 423.792969 293.789062 C 423.800781 290.03125 423.796875 286.273438 423.796875 282.515625 C 423.785156 281.8125 423.671875 280.949219 422.976562 280.59375 C 422.222656 280.253906 421.367188 280.421875 420.570312 280.382812 Z M 416.640625 277.265625 L 423.230469 277.265625 C 424.441406 277.289062 425.773438 277.53125 426.648438 278.441406 C 427.507812 279.34375 427.722656 280.644531 427.753906 281.84375 C 427.757812 285.90625 427.75 289.96875 427.757812 294.03125 C 427.761719 295.375 427.570312 296.847656 426.632812 297.882812 C 425.71875 298.863281 424.308594 299.121094 423.027344 299.140625 C 420.894531 299.140625 418.765625 299.140625 416.640625 299.136719 C 416.640625 291.847656 416.636719 284.554688 416.640625 277.265625 "/>
</svg>
