<?xml version="1.0" encoding="UTF-8"?>
<svg xmlns="http://www.w3.org/2000/svg" xmlns:xlink="http://www.w3.org/1999/xlink" width="653.019531" height="200.457031" viewBox="87.433594 40.460938 653.019531 200.457031">
<path fill-rule="nonzero" fill="rgb(89.019775%, 0%, 5.882263%)" fill-opacity="1" d="M 192.613281 166.253906 L 223.035156 177.886719 C 218.472656 199.257812 210.648438 214.949219 199.785156 225.5 C 188.917969 235.777344 175.011719 240.917969 158.492188 240.917969 C 137.632812 240.917969 120.683594 231.992188 107.425781 214.40625 C 94.171875 196.824219 87.433594 173.019531 87.433594 142.449219 C 87.433594 110.257812 94.171875 85.097656 107.425781 67.242188 C 120.898438 49.386719 138.5 40.460938 160.234375 40.460938 C 179.355469 40.460938 194.785156 47.496094 206.738281 61.5625 C 213.691406 69.679688 219.125 81.582031 222.601562 97.269531 L 191.527344 106.46875 C 189.789062 96.460938 185.875 88.613281 180.007812 82.664062 C 174.140625 76.980469 166.96875 74.007812 158.710938 74.007812 C 147.195312 74.007812 137.851562 79.144531 130.679688 89.425781 C 123.507812 99.707031 119.8125 116.476562 119.8125 139.472656 C 119.8125 163.820312 123.289062 181.402344 130.460938 191.683594 C 137.632812 202.234375 146.757812 207.375 158.058594 207.375 C 166.535156 207.375 173.707031 204.128906 179.574219 197.363281 C 185.65625 190.871094 190.003906 180.320312 192.613281 166.253906 M 249.980469 237.671875 L 249.980469 43.976562 L 316.261719 43.976562 C 332.777344 43.976562 344.945312 45.601562 352.335938 49.117188 C 359.941406 52.636719 366.027344 58.855469 370.589844 67.785156 C 375.152344 76.710938 377.328125 86.71875 377.328125 98.351562 C 377.328125 112.691406 373.847656 124.863281 367.113281 134.332031 C 360.160156 143.800781 349.945312 149.753906 336.472656 152.1875 C 343.207031 157.058594 348.859375 162.46875 353.207031 168.417969 C 357.550781 174.371094 363.417969 184.921875 371.023438 199.800781 L 389.929688 237.671875 L 352.335938 237.671875 L 329.953125 195.472656 C 321.695312 180.320312 316.261719 170.851562 313.21875 167.066406 C 310.175781 163.007812 307.136719 160.304688 303.875 158.949219 C 300.398438 157.597656 295.183594 156.785156 287.792969 156.785156 L 281.492188 156.785156 L 281.492188 237.671875 Z M 281.492188 125.945312 L 304.746094 125.945312 C 319.738281 125.945312 329.300781 125.136719 332.996094 123.511719 C 336.6875 121.890625 339.730469 119.183594 341.6875 115.394531 C 343.859375 111.339844 344.945312 106.46875 344.945312 100.789062 C 344.945312 94.296875 343.644531 88.886719 340.816406 84.828125 C 337.992188 81.039062 334.082031 78.335938 328.867188 77.253906 C 326.476562 76.980469 318.652344 76.710938 306.046875 76.710938 L 281.492188 76.710938 Z M 406.878906 237.671875 L 406.878906 43.976562 L 522.054688 43.976562 L 522.054688 76.710938 L 438.390625 76.710938 L 438.390625 119.726562 L 516.1875 119.726562 L 516.1875 152.457031 L 438.390625 152.457031 L 438.390625 204.9375 L 525.097656 204.9375 L 525.097656 237.671875 Z M 573.125 237.671875 L 536.617188 43.976562 L 568.996094 43.976562 L 592.246094 177.074219 L 620.496094 43.976562 L 658.09375 43.976562 L 685.257812 179.238281 L 708.941406 43.976562 L 740.453125 43.976562 L 703.074219 237.671875 L 669.390625 237.671875 L 638.75 92.941406 L 607.675781 237.671875 Z M 573.125 237.671875 "/>
</svg>
