<?xml version="1.0" encoding="UTF-8"?>
<svg xmlns="http://www.w3.org/2000/svg" xmlns:xlink="http://www.w3.org/1999/xlink" width="479.054688" height="537.175781" viewBox="0 0 479.054688 537.175781">
<defs>
<clipPath id="clip-0">
<path clip-rule="nonzero" d="M 318 0 L 479.054688 0 L 479.054688 208 L 318 208 Z M 318 0 "/>
</clipPath>
<clipPath id="clip-1">
<path clip-rule="nonzero" d="M 49 495 L 89 495 L 89 537.175781 L 49 537.175781 Z M 49 495 "/>
</clipPath>
</defs>
<path fill-rule="nonzero" fill="rgb(38.592529%, 55.502319%, 12.983704%)" fill-opacity="1" d="M 390.835938 185.882812 C 390.835938 185.882812 401.519531 85.9375 398.976562 67.667969 C 396.4375 49.398438 354.804688 0 354.804688 0 C 354.804688 0 365.675781 47.335938 369.121094 67.667969 C 371.148438 79.613281 364.253906 117.238281 358.21875 146.261719 C 355.058594 142.121094 351.765625 138.070312 348.265625 134.160156 C 342.9375 128.210938 333.78125 127.699219 327.828125 133.035156 C 321.871094 138.367188 321.367188 147.519531 326.699219 153.476562 C 354.714844 184.769531 370.148438 225.164062 370.148438 267.214844 C 370.148438 361.285156 293.617188 437.8125 199.546875 437.8125 C 105.480469 437.8125 28.949219 361.285156 28.949219 267.214844 C 28.949219 173.148438 105.480469 96.617188 199.546875 96.617188 C 215.367188 96.617188 231.019531 98.773438 246.0625 103.03125 C 253.757812 105.191406 261.753906 100.734375 263.929688 93.039062 C 266.109375 85.347656 261.632812 77.347656 253.941406 75.171875 C 236.332031 70.191406 218.03125 67.667969 199.546875 67.667969 C 89.519531 67.667969 0 157.183594 0 267.214844 C 0 377.25 89.519531 466.765625 199.546875 466.765625 C 309.578125 466.765625 399.09375 377.25 399.09375 267.214844 C 399.09375 243.546875 394.878906 220.347656 386.890625 198.546875 Z M 390.835938 185.882812 "/>
<g clip-path="url(#clip-0)">
<path fill-rule="nonzero" fill="rgb(57.749939%, 68.591309%, 0%)" fill-opacity="1" d="M 430.734375 110.101562 C 428.824219 110.566406 427.03125 110.914062 425.246094 111.257812 C 421.4375 91.488281 413.59375 71.097656 402.816406 55.050781 C 382.714844 25.101562 359.917969 4.46875 354.804688 0 C 358.371094 4.828125 363.492188 12.5625 368.695312 23.15625 C 378.136719 42.453125 387.605469 70.925781 388.171875 104.480469 C 388.164062 121.433594 383.511719 138.703125 380.296875 154.046875 C 377.007812 169.488281 376.960938 183.480469 380.664062 196.839844 C 381.671875 200.40625 382.851562 203.898438 384.15625 207.316406 C 390.878906 207.605469 398.433594 206.882812 406.722656 204.507812 C 429.789062 197.894531 457.136719 166.664062 467.253906 136.492188 C 476.691406 108.351562 478.710938 83.132812 479.054688 77.558594 C 474.25 82.792969 453.136719 104.679688 430.734375 110.101562 M 354.804688 0 C 357.625 5.246094 361.492188 13.378906 365.042969 24.054688 C 371.6875 43.617188 376.929688 72.753906 373.789062 102.574219 C 372 117.339844 366.332031 131.648438 360.992188 147.957031 C 355.492188 164.148438 353.074219 183.792969 356.398438 201.234375 C 356.757812 203.074219 357.144531 204.878906 357.558594 206.667969 C 340.945312 199.890625 316.183594 183.613281 319.140625 147.269531 C 322.355469 107.820312 337.496094 99.558594 350.335938 70.660156 C 361.707031 45.066406 356.289062 8.511719 354.804688 0 "/>
</g>
<path fill-rule="nonzero" fill="rgb(58.822632%, 77.432251%, 15.737915%)" fill-opacity="1" d="M 350.167969 267.230469 C 350.167969 351.519531 281.84375 419.839844 197.515625 419.839844 C 113.234375 419.839844 44.910156 351.519531 44.910156 267.230469 Z M 350.167969 267.230469 "/>
<path fill-rule="nonzero" fill="rgb(58.822632%, 77.432251%, 15.737915%)" fill-opacity="1" d="M 350.167969 267.230469 C 350.167969 346.679688 289.496094 411.941406 211.910156 419.179688 L 211.867188 419.179688 C 210.171875 419.34375 208.476562 419.46875 206.742188 419.550781 C 203.679688 419.757812 200.621094 419.839844 197.515625 419.839844 C 195.078125 419.839844 192.636719 419.796875 190.238281 419.675781 C 184.492188 419.386719 178.824219 418.804688 173.242188 417.898438 C 100.492188 406.273438 44.910156 343.246094 44.910156 267.230469 Z M 350.167969 267.230469 "/>
<path fill-rule="nonzero" fill="rgb(71.124268%, 84.764099%, 52.105713%)" fill-opacity="1" d="M 69.722656 174.445312 L 112.757812 174.445312 L 112.757812 189.128906 L 84.621094 189.128906 L 84.621094 203.386719 L 112.757812 203.386719 L 112.757812 217.804688 L 84.621094 217.804688 L 84.621094 238.542969 L 112.757812 238.542969 L 112.757812 253.28125 L 69.722656 253.28125 Z M 69.722656 174.445312 "/>
<path fill-rule="nonzero" fill="rgb(71.124268%, 84.764099%, 52.105713%)" fill-opacity="1" d="M 216.4375 188.300781 L 205.941406 198.304688 C 198.800781 190.761719 190.769531 186.984375 181.84375 186.984375 C 174.3125 186.984375 167.96875 189.5625 162.808594 194.710938 C 157.648438 199.859375 155.074219 206.207031 155.074219 213.757812 C 155.074219 219.011719 156.214844 223.683594 158.5 227.761719 C 160.78125 231.835938 164.015625 235.039062 168.191406 237.359375 C 172.367188 239.6875 177.007812 240.847656 182.113281 240.847656 C 186.46875 240.847656 190.449219 240.035156 194.054688 238.40625 C 197.660156 236.78125 201.621094 233.820312 205.941406 229.53125 L 216.113281 240.144531 C 210.289062 245.832031 204.789062 249.769531 199.609375 251.96875 C 194.429688 254.167969 188.515625 255.265625 181.871094 255.265625 C 169.613281 255.265625 159.582031 251.378906 151.777344 243.609375 C 143.96875 235.835938 140.066406 225.878906 140.066406 213.730469 C 140.066406 205.871094 141.84375 198.882812 145.398438 192.777344 C 148.953125 186.667969 154.042969 181.753906 160.675781 178.035156 C 167.300781 174.320312 174.4375 172.460938 182.082031 172.460938 C 188.585938 172.460938 194.847656 173.835938 200.867188 176.582031 C 206.886719 179.332031 212.078125 183.238281 216.4375 188.300781 "/>
<path fill-rule="nonzero" fill="rgb(71.124268%, 84.764099%, 52.105713%)" fill-opacity="1" d="M 283.859375 187.148438 C 276.5625 187.148438 270.429688 189.6875 265.457031 194.757812 C 260.484375 199.832031 258 206.28125 258 214.105469 C 258 222.820312 261.128906 229.71875 267.390625 234.792969 C 272.25 238.757812 277.832031 240.742188 284.125 240.742188 C 291.242188 240.742188 297.304688 238.167969 302.3125 233.023438 C 307.320312 227.878906 309.824219 221.535156 309.824219 213.996094 C 309.824219 206.496094 307.300781 200.144531 302.261719 194.945312 C 297.214844 189.746094 291.082031 187.148438 283.859375 187.148438 M 284.019531 172.460938 C 295.171875 172.460938 304.765625 176.5 312.789062 184.574219 C 320.816406 192.652344 324.828125 202.492188 324.828125 214.105469 C 324.828125 225.613281 320.871094 235.34375 312.949219 243.316406 C 305.03125 251.28125 295.421875 255.265625 284.125 255.265625 C 272.292969 255.265625 262.460938 251.171875 254.628906 242.992188 C 246.800781 234.8125 242.886719 225.089844 242.886719 213.839844 C 242.886719 206.296875 244.707031 199.367188 248.355469 193.042969 C 252.003906 186.71875 257.015625 181.707031 263.398438 178.011719 C 269.78125 174.3125 276.652344 172.460938 284.019531 172.460938 "/>
<path fill-rule="nonzero" fill="rgb(23.391724%, 33.753967%, 8.526611%)" fill-opacity="1" d="M 73.539062 277.765625 L 89.726562 277.765625 L 89.726562 284.492188 L 79.707031 284.492188 L 79.707031 291.074219 L 89.726562 291.074219 L 89.726562 297.699219 L 79.707031 297.699219 L 79.707031 314.015625 L 73.539062 314.015625 Z M 73.539062 277.765625 "/>
<path fill-rule="nonzero" fill="rgb(23.391724%, 33.753967%, 8.526611%)" fill-opacity="1" d="M 109.015625 291.933594 L 110.964844 291.933594 C 112.9375 291.933594 114.300781 291.644531 115.042969 291.066406 C 115.785156 290.492188 116.160156 289.539062 116.160156 288.199219 C 116.160156 287.410156 115.976562 286.722656 115.605469 286.136719 C 115.238281 285.550781 114.742188 285.132812 114.125 284.875 C 113.503906 284.617188 112.371094 284.492188 110.71875 284.492188 L 109.015625 284.492188 Z M 102.808594 277.765625 L 109.386719 277.765625 C 112.988281 277.765625 115.558594 278.121094 117.085938 278.835938 C 118.613281 279.550781 119.84375 280.738281 120.773438 282.398438 C 121.703125 284.058594 122.171875 286.019531 122.171875 288.285156 C 122.171875 290.667969 121.65625 292.660156 120.628906 294.261719 C 119.601562 295.867188 118.054688 297.078125 115.984375 297.898438 L 123.710938 314.015625 L 116.921875 314.015625 L 109.585938 298.660156 L 109.015625 298.660156 L 109.015625 314.015625 L 102.808594 314.015625 Z M 102.808594 277.765625 "/>
<path fill-rule="nonzero" fill="rgb(23.391724%, 33.753967%, 8.526611%)" fill-opacity="1" d="M 135.421875 277.765625 L 141.589844 277.765625 L 141.589844 314.015625 L 135.421875 314.015625 Z M 135.421875 277.765625 "/>
<path fill-rule="nonzero" fill="rgb(23.391724%, 33.753967%, 8.526611%)" fill-opacity="1" d="M 155.730469 277.765625 L 173.542969 277.765625 L 173.542969 284.519531 L 161.898438 284.519531 L 161.898438 291.074219 L 173.542969 291.074219 L 173.542969 297.699219 L 161.898438 297.699219 L 161.898438 307.238281 L 173.542969 307.238281 L 173.542969 314.015625 L 155.730469 314.015625 Z M 155.730469 277.765625 "/>
<path fill-rule="nonzero" fill="rgb(23.391724%, 33.753967%, 8.526611%)" fill-opacity="1" d="M 186.484375 277.765625 L 192.441406 277.765625 L 206.402344 301.621094 L 206.402344 277.765625 L 212.613281 277.765625 L 212.613281 314.015625 L 206.640625 314.015625 L 192.695312 290.234375 L 192.695312 314.015625 L 186.484375 314.015625 Z M 186.484375 277.765625 "/>
<path fill-rule="nonzero" fill="rgb(23.391724%, 33.753967%, 8.526611%)" fill-opacity="1" d="M 233.386719 284.417969 L 233.386719 307.289062 L 236.273438 307.289062 C 239.109375 307.289062 241.167969 306.929688 242.449219 306.203125 C 243.726562 305.480469 244.773438 304.261719 245.585938 302.550781 C 246.402344 300.84375 246.808594 298.734375 246.808594 296.234375 C 246.808594 292.386719 245.839844 289.402344 243.902344 287.28125 C 242.15625 285.375 239.351562 284.417969 235.492188 284.417969 Z M 227.21875 277.765625 L 234.578125 277.765625 C 239.320312 277.765625 242.84375 278.414062 245.152344 279.722656 C 247.457031 281.027344 249.351562 283.152344 250.84375 286.09375 C 252.339844 289.035156 253.082031 292.472656 253.082031 296.394531 C 253.082031 299.191406 252.667969 301.753906 251.832031 304.097656 C 250.996094 306.441406 249.84375 308.382812 248.375 309.925781 C 246.902344 311.46875 245.3125 312.539062 243.597656 313.128906 C 241.886719 313.722656 238.914062 314.019531 234.691406 314.019531 L 227.21875 314.019531 Z M 227.21875 277.765625 "/>
<path fill-rule="nonzero" fill="rgb(23.391724%, 33.753967%, 8.526611%)" fill-opacity="1" d="M 266.136719 277.765625 L 272.347656 277.765625 L 272.347656 307.4375 L 281.398438 307.4375 L 281.398438 314.015625 L 266.136719 314.015625 Z M 266.136719 277.765625 "/>
<path fill-rule="nonzero" fill="rgb(23.391724%, 33.753967%, 8.526611%)" fill-opacity="1" d="M 290.933594 277.765625 L 297.601562 277.765625 L 303.691406 290.804688 L 309.75 277.765625 L 316.332031 277.765625 L 306.785156 298.316406 L 306.785156 314.015625 L 300.527344 314.015625 L 300.527344 298.316406 Z M 290.933594 277.765625 "/>
<path fill-rule="nonzero" fill="rgb(23.391724%, 33.753967%, 8.526611%)" fill-opacity="1" d="M 190.238281 419.675781 C 184.492188 419.382812 178.824219 418.804688 173.242188 417.898438 C 168.195312 414.050781 163.894531 408.175781 161.867188 399.285156 C 156.78125 377.324219 163.566406 370.210938 165.550781 352.261719 C 167.285156 336.421875 158.023438 317.480469 155.746094 313.136719 C 158.1875 315.496094 161.660156 319.21875 165.464844 324.429688 C 172.457031 333.902344 180.355469 348.828125 183.789062 365.539062 C 185.402344 373.890625 184.78125 382.617188 184.699219 392.417969 C 184.53125 401.269531 186.269531 411.238281 190.238281 419.675781 "/>
<path fill-rule="nonzero" fill="rgb(23.391724%, 33.753967%, 8.526611%)" fill-opacity="1" d="M 240.445312 367.769531 C 240.15625 385.925781 230.726562 407.640625 219.355469 415.207031 C 216.789062 416.902344 214.308594 418.1875 211.910156 419.179688 L 211.867188 419.179688 C 210.175781 419.34375 208.476562 419.46875 206.742188 419.550781 C 205.75 418.265625 204.796875 416.945312 203.886719 415.582031 C 199.546875 408.964844 197.144531 401.351562 196.234375 392.378906 C 195.324219 383.488281 194.871094 373.3125 191.933594 364.089844 C 185.8125 345.976562 175.765625 332.164062 167.285156 323.3125 C 162.613281 318.433594 158.519531 315.125 155.746094 313.136719 C 159.261719 314.671875 175.226562 321.945312 191.355469 334.726562 C 199.957031 341.550781 207.773438 351.269531 213.277344 361.359375 C 214.183594 360.863281 215.09375 360.367188 216.046875 359.789062 C 227.253906 352.964844 234.945312 337.417969 236.640625 333.734375 C 237.429688 336.835938 240.695312 350.855469 240.445312 367.769531 "/>
<path fill-rule="nonzero" fill="rgb(100%, 100%, 100%)" fill-opacity="1" d="M 20.050781 496.148438 L 44.726562 496.148438 L 44.726562 503.632812 L 29.214844 503.632812 L 29.214844 512.859375 L 43.710938 512.859375 L 43.710938 520.285156 L 29.214844 520.285156 L 29.214844 536.515625 L 20.050781 536.515625 Z M 20.050781 496.148438 "/>
<g clip-path="url(#clip-1)">
<path fill-rule="nonzero" fill="rgb(100%, 100%, 100%)" fill-opacity="1" d="M 59.398438 516.453125 C 59.398438 524.355469 63.113281 529.925781 69.222656 529.925781 C 75.390625 529.925781 78.925781 524.058594 78.925781 516.210938 C 78.925781 508.964844 75.449219 502.734375 69.160156 502.734375 C 62.992188 502.734375 59.398438 508.605469 59.398438 516.453125 M 88.566406 515.914062 C 88.566406 529.148438 80.542969 537.175781 68.742188 537.175781 C 56.765625 537.175781 49.757812 528.132812 49.757812 516.632812 C 49.757812 504.53125 57.484375 495.488281 69.402344 495.488281 C 81.800781 495.488281 88.566406 504.773438 88.566406 515.914062 "/>
</g>
<path fill-rule="nonzero" fill="rgb(100%, 100%, 100%)" fill-opacity="1" d="M 103.601562 514.054688 L 107.191406 514.054688 C 111.746094 514.054688 114.441406 511.777344 114.441406 508.246094 C 114.441406 504.53125 111.925781 502.675781 107.734375 502.617188 C 105.515625 502.617188 104.257812 502.796875 103.601562 502.914062 Z M 94.554688 496.6875 C 97.492188 496.207031 101.863281 495.847656 106.714844 495.847656 C 112.703125 495.847656 116.898438 496.746094 119.769531 499.023438 C 122.167969 500.9375 123.484375 503.753906 123.484375 507.46875 C 123.484375 512.617188 119.832031 516.152344 116.355469 517.410156 L 116.355469 517.589844 C 119.171875 518.726562 120.730469 521.421875 121.746094 525.136719 C 123.003906 529.6875 124.261719 534.957031 125.042969 536.515625 L 115.699219 536.515625 C 115.039062 535.378906 114.082031 532.082031 112.882812 527.113281 C 111.804688 522.082031 110.066406 520.703125 106.355469 520.644531 L 103.601562 520.644531 L 103.601562 536.515625 L 94.554688 536.515625 Z M 94.554688 496.6875 "/>
<path fill-rule="nonzero" fill="rgb(100%, 100%, 100%)" fill-opacity="1" d="M 147.621094 503.8125 L 136.78125 503.8125 L 136.78125 496.148438 L 167.804688 496.148438 L 167.804688 503.8125 L 156.785156 503.8125 L 156.785156 536.515625 L 147.621094 536.515625 Z M 147.621094 503.8125 "/>
<path fill-rule="nonzero" fill="rgb(100%, 100%, 100%)" fill-opacity="1" d="M 181.816406 496.148438 L 181.816406 511.660156 L 196.851562 511.660156 L 196.851562 496.148438 L 205.953125 496.148438 L 205.953125 536.515625 L 196.851562 536.515625 L 196.851562 519.625 L 181.816406 519.625 L 181.816406 536.515625 L 172.652344 536.515625 L 172.652344 496.148438 Z M 181.816406 496.148438 "/>
<path fill-rule="nonzero" fill="rgb(100%, 100%, 100%)" fill-opacity="1" d="M 237.9375 519.445312 L 223.082031 519.445312 L 223.082031 529.027344 L 239.671875 529.027344 L 239.671875 536.515625 L 213.917969 536.515625 L 213.917969 496.148438 L 238.835938 496.148438 L 238.835938 503.632812 L 223.082031 503.632812 L 223.082031 512.019531 L 237.9375 512.019531 Z M 237.9375 519.445312 "/>
<path fill-rule="nonzero" fill="rgb(100%, 100%, 100%)" fill-opacity="1" d="M 267.042969 515.015625 C 267.820312 515.195312 268.777344 515.253906 270.097656 515.253906 C 274.949219 515.253906 277.941406 512.796875 277.941406 508.667969 C 277.941406 504.953125 275.367188 502.734375 270.816406 502.734375 C 268.960938 502.734375 267.703125 502.917969 267.042969 503.09375 Z M 258 496.6875 C 260.8125 496.207031 264.765625 495.847656 270.335938 495.847656 C 275.96875 495.847656 279.980469 496.925781 282.675781 499.082031 C 285.25 501.117188 286.988281 504.472656 286.988281 508.425781 C 286.988281 512.378906 285.671875 515.734375 283.273438 518.007812 C 280.160156 520.941406 275.546875 522.261719 270.15625 522.261719 C 268.960938 522.261719 267.882812 522.203125 267.042969 522.082031 L 267.042969 536.515625 L 258 536.515625 Z M 258 496.6875 "/>
<path fill-rule="nonzero" fill="rgb(100%, 100%, 100%)" fill-opacity="1" d="M 292.796875 496.148438 L 301.960938 496.148438 L 301.960938 528.847656 L 318.011719 528.847656 L 318.011719 536.515625 L 292.796875 536.515625 Z M 292.796875 496.148438 "/>
<path fill-rule="nonzero" fill="rgb(100%, 100%, 100%)" fill-opacity="1" d="M 343.402344 519.328125 L 340.890625 510.761719 C 340.171875 508.367188 339.449219 505.371094 338.851562 502.976562 L 338.730469 502.976562 C 338.132812 505.371094 337.535156 508.425781 336.875 510.761719 L 334.480469 519.328125 Z M 333.160156 526.15625 L 330.285156 536.515625 L 320.824219 536.515625 L 333.160156 496.148438 L 345.140625 496.148438 L 357.660156 536.515625 L 347.835938 536.515625 L 344.722656 526.15625 Z M 333.160156 526.15625 "/>
<path fill-rule="nonzero" fill="rgb(100%, 100%, 100%)" fill-opacity="1" d="M 363.046875 536.515625 L 363.046875 496.148438 L 373.707031 496.148438 L 382.09375 510.941406 C 384.488281 515.195312 386.882812 520.226562 388.683594 524.777344 L 388.863281 524.777344 C 388.261719 519.445312 388.082031 513.996094 388.082031 507.945312 L 388.082031 496.148438 L 396.46875 496.148438 L 396.46875 536.515625 L 386.882812 536.515625 L 378.261719 520.945312 C 375.863281 516.632812 373.230469 511.421875 371.253906 506.6875 L 371.074219 506.75 C 371.3125 512.082031 371.433594 517.769531 371.433594 524.359375 L 371.433594 536.515625 Z M 363.046875 536.515625 "/>
<path fill-rule="nonzero" fill="rgb(100%, 100%, 100%)" fill-opacity="1" d="M 428.390625 519.445312 L 413.535156 519.445312 L 413.535156 529.027344 L 430.125 529.027344 L 430.125 536.515625 L 404.371094 536.515625 L 404.371094 496.148438 L 429.289062 496.148438 L 429.289062 503.632812 L 413.535156 503.632812 L 413.535156 512.019531 L 428.390625 512.019531 Z M 428.390625 519.445312 "/>
<path fill-rule="nonzero" fill="rgb(100%, 100%, 100%)" fill-opacity="1" d="M 444.4375 503.8125 L 433.597656 503.8125 L 433.597656 496.148438 L 464.621094 496.148438 L 464.621094 503.8125 L 453.601562 503.8125 L 453.601562 536.515625 L 444.4375 536.515625 Z M 444.4375 503.8125 "/>
</svg>
