<?xml version="1.0" encoding="UTF-8"?>
<svg data-vectorized-cmyk="true" data-original-cmyk-pdf="true" xmlns="http://www.w3.org/2000/svg" xmlns:xlink="http://www.w3.org/1999/xlink" width="798.261719" height="255.832031" viewBox="0 0 798.261719 255.832031">
<defs>
<clipPath id="clip-0">
<path clip-rule="nonzero" d="M 758.992188 88.871094 L 798.261719 88.871094 L 798.261719 162.09375 L 758.992188 162.09375 Z M 758.992188 88.871094 "/>
</clipPath>
<clipPath id="clip-1">
<path clip-rule="nonzero" d="M 161.261719 0 L 390.074219 0 L 390.074219 122.710938 L 161.261719 122.710938 Z M 161.261719 0 "/ fill="#000000">
</clipPath>
<clipPath id="clip-2">
<path clip-rule="nonzero" d="M 758.320312 133.3125 L 784.558594 133.3125 L 784.558594 204.675781 L 758.320312 204.675781 Z M 758.320312 133.3125 "/>
</clipPath>
<clipPath id="clip-3">
<path clip-rule="nonzero" d="M 300.132812 42.832031 L 523.136719 42.832031 L 523.136719 124.824219 L 300.132812 124.824219 Z M 300.132812 42.832031 "/>
</clipPath>
<clipPath id="clip-4">
<path clip-rule="nonzero" d="M 716.410156 37.269531 L 750.023438 37.269531 L 750.023438 255.832031 L 716.410156 255.832031 Z M 716.410156 37.269531 "/>
</clipPath>
<clipPath id="clip-5">
<path clip-rule="nonzero" d="M 0 150.746094 L 683.003906 150.746094 L 683.003906 255.792969 L 0 255.792969 Z M 0 150.746094 "/ fill="#000000">
</clipPath>
</defs>
<g clip-path="url(#clip-0)">
<path fill-rule="nonzero" fill="rgb(16.862488%, 28.627014%, 59.216309%)" fill-opacity="1" d="M 798.261719 142.929688 L 759.328125 88.871094 L 758.996094 127.242188 L 761.582031 131.882812 L 778.414062 162.09375 L 798.261719 142.929688 "/>
</g>
<g clip-path="url(#clip-1)">
<path fill-rule="nonzero" fill="rgb(16.862488%, 28.627014%, 59.216309%)" fill-opacity="1" d="M 330.183594 0 L 161.257812 121.667969 L 281.15625 122.710938 L 295.664062 114.632812 L 390.074219 62.03125 L 330.183594 0 "/>
</g>
<g clip-path="url(#clip-2)">
<path fill-rule="nonzero" fill="rgb(16.862488%, 28.627014%, 59.216309%)" fill-opacity="1" d="M 758.941406 133.3125 L 758.320312 204.675781 L 784.558594 179.28125 L 758.941406 133.3125 "/>
</g>
<g clip-path="url(#clip-3)">
<path fill-rule="nonzero" fill="rgb(16.862488%, 28.627014%, 59.216309%)" fill-opacity="1" d="M 300.132812 122.878906 L 523.136719 124.828125 L 443.789062 42.832031 L 300.132812 122.878906 "/>
</g>
<g clip-path="url(#clip-4)">
<path fill-rule="nonzero" fill="rgb(16.862488%, 28.627014%, 59.216309%)" fill-opacity="1" d="M 718.507812 37.269531 L 718.363281 53.523438 C 718.300781 61.042969 721.550781 65.484375 726.949219 65.535156 L 727.042969 65.535156 C 731.316406 65.570312 733.5 63.15625 734.792969 59.34375 C 735.984375 62.144531 738.128906 64.234375 741.777344 64.265625 L 741.867188 64.265625 C 744.027344 64.285156 745.703125 63.535156 747.015625 62.285156 C 748.835938 60.453125 749.847656 57.671875 749.882812 53.710938 L 750.023438 37.542969 Z M 740.050781 55.648438 C 738.207031 55.636719 737.316406 54.09375 737.339844 51.4375 L 737.386719 45.945312 L 742.925781 45.992188 L 742.878906 51.714844 C 742.851562 54.277344 741.898438 55.667969 740.140625 55.648438 Z M 728.335938 56.808594 L 728.242188 56.808594 C 726.398438 56.792969 725.375 55.296875 725.398438 52.59375 L 725.457031 45.84375 L 731.265625 45.894531 L 731.207031 52.558594 C 731.183594 55.484375 730.042969 56.824219 728.335938 56.808594 Z M 718.238281 68.113281 L 718.160156 76.847656 L 727.707031 76.929688 L 727.671875 80.800781 L 718.074219 87.070312 L 717.984375 97.109375 L 729.035156 89.6875 C 730.667969 93.621094 733.84375 96.214844 738.707031 96.253906 L 738.796875 96.257812 C 741.902344 96.285156 744.296875 95.359375 746.160156 93.527344 C 748.296875 91.429688 749.582031 88.109375 749.625 83.292969 L 749.757812 68.386719 Z M 734.550781 76.992188 L 742.160156 77.058594 L 742.109375 82.820312 C 742.085938 85.703125 740.808594 87.535156 738.289062 87.515625 L 738.195312 87.511719 C 735.902344 87.496094 734.476562 85.726562 734.5 82.800781 Z M 717.964844 99.136719 L 717.742188 124.710938 L 725.171875 124.773438 L 725.320312 107.847656 L 730.320312 107.890625 L 730.1875 123.019531 L 737.074219 123.078125 L 737.207031 107.949219 L 742.023438 107.992188 L 741.878906 124.699219 L 749.261719 124.761719 L 749.484375 99.414062 Z M 717.714844 127.863281 L 717.492188 153.4375 L 724.921875 153.503906 L 725.070312 136.574219 L 730.070312 136.617188 L 729.9375 151.746094 L 736.824219 151.804688 L 736.957031 136.675781 L 741.777344 136.71875 L 741.628906 153.421875 L 749.011719 153.488281 L 749.234375 128.136719 Z M 717.464844 156.589844 L 717.363281 168.609375 C 717.261719 179.914062 723.957031 186.589844 733.054688 186.671875 L 733.144531 186.671875 C 742.238281 186.75 748.78125 180.277344 748.875 169.066406 L 748.984375 156.863281 Z M 741.175781 169.089844 C 741.128906 174.359375 738.128906 177.800781 733.085938 177.757812 L 732.996094 177.753906 C 727.910156 177.707031 725.054688 174.21875 725.101562 168.949219 L 725.136719 165.390625 L 741.207031 165.53125 Z M 716.410156 205.617188 C 716.324219 215.34375 723.597656 222.703125 732.648438 222.78125 L 732.738281 222.78125 C 741.789062 222.859375 749.101562 215.71875 749.1875 205.992188 C 749.269531 196.269531 741.996094 188.90625 732.945312 188.832031 L 732.855469 188.828125 C 723.804688 188.75 716.492188 195.890625 716.410156 205.617188 Z M 724.285156 205.777344 C 724.328125 200.957031 728.320312 197.707031 732.867188 197.746094 L 732.957031 197.746094 C 737.503906 197.785156 741.347656 201.015625 741.308594 205.835938 C 741.265625 210.652344 737.320312 213.859375 732.726562 213.820312 L 732.636719 213.820312 C 728.089844 213.78125 724.242188 210.546875 724.285156 205.777344 Z M 716.863281 225.792969 L 716.785156 234.4375 L 734.078125 234.589844 L 716.667969 247.949219 L 716.601562 255.554688 L 748.117188 255.832031 L 748.195312 247.1875 L 731.535156 247.042969 L 748.308594 234.21875 L 748.378906 226.070312 L 716.863281 225.792969 "/>
</g>
<g clip-path="url(#clip-5)">
<path fill-rule="nonzero" fill="rgb(16.862488%, 28.627014%, 59.216309%)" fill-opacity="1" d="M 0 249.238281 L 50.796875 249.679688 C 74.296875 249.882812 88.175781 239.730469 88.324219 222.855469 L 88.324219 222.566406 C 88.441406 209.203125 80.898438 202.378906 68.976562 198.339844 C 77.734375 194.613281 84.265625 187.917969 84.367188 176.519531 L 84.367188 176.234375 C 84.421875 169.484375 82.078125 164.253906 78.179688 160.140625 C 72.453125 154.460938 63.753906 151.296875 51.378906 151.1875 L 0.859375 150.746094 Z M 57.4375 181.917969 C 57.390625 187.679688 52.578125 190.457031 44.277344 190.382812 L 27.113281 190.234375 L 27.261719 172.925781 L 45.136719 173.082031 C 53.148438 173.15625 57.492188 176.144531 57.4375 181.628906 Z M 61.0625 218.527344 L 61.054688 218.8125 C 61.007812 224.578125 56.332031 227.777344 47.894531 227.703125 L 26.792969 227.519531 L 26.949219 209.371094 L 47.773438 209.554688 C 56.921875 209.628906 61.109375 213.1875 61.0625 218.527344 Z M 96.382812 250.078125 L 123.679688 250.316406 L 123.941406 220.492188 L 136.039062 220.59375 L 155.628906 250.59375 L 187 250.871094 L 163.808594 216.332031 C 176.089844 211.234375 184.199219 201.308594 184.328125 186.113281 L 184.335938 185.835938 C 184.417969 176.125 181.523438 168.644531 175.804688 162.824219 C 169.25 156.148438 158.875 152.128906 143.824219 151.988281 L 97.242188 151.585938 Z M 124.132812 199.097656 L 124.335938 175.320312 L 142.347656 175.480469 C 151.359375 175.550781 157.085938 179.546875 157.019531 187.421875 L 157.011719 187.707031 C 156.957031 194.882812 151.421875 199.335938 142.28125 199.253906 Z M 193.328125 250.925781 L 273.257812 251.628906 L 273.449219 228.40625 L 220.550781 227.945312 L 220.691406 212.320312 L 267.964844 212.738281 L 268.148438 191.210938 L 220.875 190.796875 L 221.003906 175.746094 L 273.210938 176.199219 L 273.414062 153.125 L 194.195312 152.433594 Z M 283.105469 251.710938 L 363.027344 252.410156 L 363.230469 229.1875 L 310.320312 228.726562 L 310.460938 213.105469 L 357.734375 213.519531 L 357.917969 191.996094 L 310.644531 191.582031 L 310.773438 176.519531 L 362.980469 176.980469 L 363.183594 153.90625 L 283.964844 153.214844 Z M 372.875 252.492188 L 410.4375 252.816406 C 445.761719 253.128906 466.628906 232.207031 466.878906 203.78125 L 466.878906 203.496094 C 467.128906 175.074219 446.902344 154.636719 411.867188 154.332031 L 373.734375 154 Z M 411.933594 178.394531 C 428.402344 178.539062 439.15625 187.917969 439.019531 203.679688 L 439.007812 203.957031 C 438.871094 219.855469 427.960938 228.773438 411.5 228.625 L 400.378906 228.527344 L 400.820312 178.300781 Z M 526.085938 255.796875 C 556.484375 256.0625 579.472656 233.332031 579.722656 205.046875 L 579.722656 204.769531 C 579.972656 176.484375 557.652344 153.632812 527.257812 153.363281 C 496.871094 153.105469 473.871094 175.839844 473.628906 204.125 L 473.621094 204.398438 C 473.378906 232.683594 495.691406 255.539062 526.085938 255.796875 Z M 526.585938 231.179688 C 511.523438 231.042969 501.359375 218.574219 501.492188 204.363281 L 501.492188 204.085938 C 501.609375 189.875 511.707031 177.859375 526.769531 177.988281 C 541.820312 178.117188 551.84375 190.445312 551.722656 204.804688 L 551.714844 205.082031 C 551.59375 219.292969 541.496094 231.308594 526.585938 231.179688 Z M 589.140625 254.375 L 616.152344 254.613281 L 616.628906 200.582031 L 658.371094 254.984375 L 682.144531 255.1875 L 683.003906 156.703125 L 655.992188 156.460938 L 655.539062 208.523438 L 615.46875 156.113281 L 589.996094 155.890625 L 589.140625 254.375 "/>
</g>
</svg>
