<svg xmlns="http://www.w3.org/2000/svg" 
                      viewBox="0 0 250.867188 239.421875" 
                      width="250.867188" 
                      height="239.421875"
                      preserveAspectRatio="none"
                      data-content-extracted="true"
                      data-overflow="horizontal:10,vertical:10"
                      data-original-bounds="18.632812,23.238281,259.5,252.660156">
                        <g transform="translate(-13.632812000000001, -18.238281)">
                          
<path fill-rule="nonzero" fill="rgb(25.489807%, 57.647705%, 57.647705%)" fill-opacity="1" d="M 59.6875 171.535156 C 61.597656 170.769531 62.183594 169.722656 62.183594 167.582031 C 62.183594 164.804688 60.171875 163.222656 55.9375 163.222656 L 46.429688 163.222656 L 46.429688 166.511719 L 47.90625 166.511719 L 47.90625 177.730469 L 46.429688 177.730469 L 46.429688 181.042969 L 56.117188 181.042969 C 61.039062 181.042969 63.054688 179.464844 63.054688 175.867188 C 63.054688 173.394531 61.523438 172.042969 59.6875 171.535156 Z M 53.183594 166.585938 L 54.792969 166.585938 C 55.761719 166.585938 56.472656 167.277344 56.472656 168.449219 C 56.472656 169.671875 56.089844 170.414062 54.742188 170.414062 L 53.183594 170.414062 Z M 55.226562 177.730469 L 53.183594 177.730469 L 53.183594 173.292969 L 55.148438 173.292969 C 56.550781 173.292969 57.289062 174.238281 57.289062 175.535156 C 57.289062 176.914062 56.296875 177.730469 55.226562 177.730469 "/>
<path fill-rule="nonzero" fill="rgb(25.489807%, 57.647705%, 57.647705%)" fill-opacity="1" d="M 81.664062 172.222656 C 81.664062 166.484375 78.757812 162.738281 72.507812 162.738281 C 67.230469 162.738281 63.558594 166.535156 63.558594 172.042969 C 63.558594 178.417969 67.359375 181.503906 72.6875 181.503906 C 78.449219 181.503906 81.664062 177.984375 81.664062 172.222656 Z M 72.6875 177.5 C 71.054688 177.5 69.859375 175.382812 69.859375 172.042969 C 69.859375 168.882812 70.929688 166.636719 72.484375 166.664062 C 74.449219 166.664062 75.289062 169.136719 75.289062 172.222656 C 75.289062 175.382812 74.292969 177.5 72.6875 177.5 "/>
<path fill-rule="nonzero" fill="rgb(25.489807%, 57.647705%, 57.647705%)" fill-opacity="1" d="M 97.800781 168.855469 L 97.800781 163.222656 L 82.554688 163.222656 L 82.554688 166.585938 L 84.132812 166.585938 L 84.132812 177.652344 L 82.554688 177.652344 L 82.554688 181.042969 L 92.039062 181.042969 L 92.039062 177.652344 L 89.4375 177.652344 L 89.4375 174.414062 L 94.28125 174.414062 L 94.28125 171.023438 L 89.4375 171.023438 L 89.4375 166.585938 L 93.289062 166.585938 L 93.289062 168.855469 Z M 97.800781 168.855469 "/>
<path fill-rule="nonzero" fill="rgb(25.489807%, 57.647705%, 57.647705%)" fill-opacity="1" d="M 98.691406 166.585938 L 100.273438 166.585938 L 100.273438 177.652344 L 98.691406 177.652344 L 98.691406 181.042969 L 108.175781 181.042969 L 108.175781 177.652344 L 105.574219 177.652344 L 105.574219 174.414062 L 110.417969 174.414062 L 110.417969 171.023438 L 105.574219 171.023438 L 105.574219 166.585938 L 109.425781 166.585938 L 109.425781 168.855469 L 113.9375 168.855469 L 113.9375 163.222656 L 98.691406 163.222656 Z M 98.691406 166.585938 "/>
<path fill-rule="nonzero" fill="rgb(25.489807%, 57.647705%, 57.647705%)" fill-opacity="1" d="M 123.292969 166.585938 L 123.292969 163.222656 L 114.828125 163.222656 L 114.828125 166.585938 L 116.433594 166.585938 L 116.433594 177.652344 L 114.828125 177.652344 L 114.828125 181.042969 L 123.292969 181.042969 L 123.292969 177.652344 L 121.710938 177.652344 L 121.710938 166.585938 Z M 123.292969 166.585938 "/>
<path fill-rule="nonzero" fill="rgb(25.489807%, 57.647705%, 57.647705%)" fill-opacity="1" d="M 136.804688 181.042969 L 142.289062 181.042969 L 142.289062 166.511719 L 143.972656 166.511719 L 143.972656 163.222656 L 136.296875 163.222656 L 136.296875 166.511719 L 138.03125 166.511719 L 138.054688 172.578125 L 131.78125 163.222656 L 124.464844 163.222656 L 124.464844 166.511719 L 125.945312 166.511719 L 125.945312 177.753906 L 124.441406 177.753906 L 124.441406 181.042969 L 132.265625 181.042969 L 132.265625 177.753906 L 130.304688 177.753906 L 130.304688 171.328125 Z M 136.804688 181.042969 "/>
<path fill-rule="nonzero" fill="rgb(25.489807%, 57.647705%, 57.647705%)" fill-opacity="1" d="M 160.847656 177.652344 L 158.246094 177.652344 L 158.246094 174.414062 L 163.089844 174.414062 L 163.089844 171.023438 L 158.246094 171.023438 L 158.246094 166.585938 L 162.097656 166.585938 L 162.097656 168.855469 L 166.609375 168.855469 L 166.609375 163.222656 L 151.359375 163.222656 L 151.359375 166.585938 L 152.941406 166.585938 L 152.941406 177.652344 L 151.359375 177.652344 L 151.359375 181.042969 L 160.847656 181.042969 Z M 160.847656 177.652344 "/>
<path fill-rule="nonzero" fill="rgb(25.489807%, 57.647705%, 57.647705%)" fill-opacity="1" d="M 182.871094 168.855469 L 182.871094 163.222656 L 167.5 163.222656 L 167.5 166.585938 L 169.105469 166.585938 L 169.105469 177.652344 L 167.5 177.652344 L 167.5 181.042969 L 182.871094 181.042969 L 182.871094 175.28125 L 178.460938 175.28125 L 178.460938 177.652344 L 174.382812 177.652344 L 174.382812 173.496094 L 179.226562 173.496094 L 179.226562 170.105469 L 174.382812 170.105469 L 174.382812 166.585938 L 178.460938 166.585938 L 178.460938 168.855469 Z M 182.871094 168.855469 "/>
<path fill-rule="nonzero" fill="rgb(25.489807%, 57.647705%, 57.647705%)" fill-opacity="1" d="M 193.246094 176.609375 C 193.246094 179.589844 194.855469 181.351562 198.195312 181.351562 C 201.023438 181.351562 201.917969 179.386719 201.917969 177.269531 L 201.917969 175.867188 L 200.207031 175.867188 L 200.207031 176.710938 C 200.207031 177.21875 200.003906 177.527344 199.621094 177.527344 C 199.164062 177.527344 199.011719 176.890625 199.011719 175.792969 C 199.011719 173.957031 197.429688 172.425781 195.667969 172.171875 C 197.785156 171.867188 199.367188 170.464844 199.367188 168.472656 C 199.367188 165.566406 198.21875 163.222656 192.304688 163.222656 L 184.019531 163.222656 L 184.019531 166.5625 L 185.445312 166.5625 L 185.445312 177.679688 L 184.019531 177.679688 L 184.019531 181.042969 L 192.253906 181.042969 L 192.253906 177.679688 L 190.699219 177.679688 L 190.699219 173.726562 C 192.96875 173.726562 193.246094 174.289062 193.246094 176.609375 Z M 190.699219 166.535156 L 191.972656 166.535156 C 193.453125 166.535156 194.292969 167.300781 194.292969 168.804688 C 194.292969 170.15625 193.324219 170.871094 191.84375 170.871094 L 190.699219 170.871094 Z M 190.699219 166.535156 "/>
<path fill-rule="nonzero" fill="rgb(25.489807%, 57.647705%, 57.647705%)" fill-opacity="1" d="M 218.871094 176.710938 C 218.871094 177.21875 218.667969 177.527344 218.285156 177.527344 C 217.824219 177.527344 217.671875 176.890625 217.671875 175.792969 C 217.671875 173.957031 216.089844 172.425781 214.332031 172.171875 C 216.449219 171.867188 218.03125 170.464844 218.03125 168.472656 C 218.03125 165.566406 216.882812 163.222656 210.964844 163.222656 L 202.679688 163.222656 L 202.679688 166.5625 L 204.109375 166.5625 L 204.109375 177.679688 L 202.679688 177.679688 L 202.679688 181.042969 L 210.914062 181.042969 L 210.914062 177.679688 L 209.359375 177.679688 L 209.359375 173.726562 C 211.628906 173.726562 211.910156 174.289062 211.910156 176.609375 C 211.910156 179.589844 213.515625 181.351562 216.855469 181.351562 C 219.6875 181.351562 220.578125 179.386719 220.578125 177.269531 L 220.578125 175.867188 L 218.871094 175.867188 Z M 210.507812 170.871094 L 209.359375 170.871094 L 209.359375 166.535156 L 210.636719 166.535156 C 212.113281 166.535156 212.957031 167.300781 212.957031 168.804688 C 212.957031 170.15625 211.984375 170.871094 210.507812 170.871094 "/>
<path fill-rule="nonzero" fill="rgb(25.489807%, 57.647705%, 57.647705%)" fill-opacity="1" d="M 231.160156 163.222656 L 231.160156 166.484375 L 232.5625 166.484375 L 231.160156 169.0625 C 230.878906 169.671875 230.316406 170.742188 230.214844 171.253906 L 230.113281 171.253906 C 230.011719 170.820312 229.476562 169.671875 229.324219 169.1875 L 227.84375 166.484375 L 229.171875 166.484375 L 229.171875 163.222656 L 220.449219 163.222656 L 220.449219 166.484375 L 221.699219 166.484375 L 226.644531 174.722656 L 226.644531 177.730469 L 225.191406 177.730469 L 225.191406 181.042969 L 233.351562 181.042969 L 233.351562 177.730469 L 231.921875 177.730469 L 231.921875 174.773438 L 236.640625 166.484375 L 238.015625 166.484375 L 238.015625 163.222656 Z M 231.160156 163.222656 "/>
<path fill-rule="nonzero" fill="rgb(25.489807%, 57.647705%, 57.647705%)" fill-opacity="1" d="M 84.882812 199.949219 L 77.03125 199.949219 L 77.03125 203.347656 L 78.625 203.347656 L 78.625 214.523438 L 77.03125 214.523438 L 77.03125 217.949219 L 84.78125 217.949219 C 91.113281 217.949219 94.667969 214.574219 94.667969 208.703125 C 94.667969 203.785156 91.113281 199.949219 84.882812 199.949219 Z M 84.882812 214.523438 L 83.90625 214.523438 L 83.90625 203.347656 L 84.882812 203.347656 C 87.613281 203.347656 88.746094 205.949219 88.746094 208.703125 C 88.746094 211.921875 87.613281 214.472656 84.882812 214.523438 "/>
<path fill-rule="nonzero" fill="rgb(25.489807%, 57.647705%, 57.647705%)" fill-opacity="1" d="M 104.222656 199.460938 C 98.890625 199.460938 95.183594 203.296875 95.183594 208.859375 C 95.183594 215.296875 99.019531 218.414062 104.402344 218.414062 C 110.222656 218.414062 113.464844 214.859375 113.464844 209.039062 C 113.464844 203.246094 110.53125 199.460938 104.222656 199.460938 Z M 104.402344 214.371094 C 102.753906 214.371094 101.542969 212.230469 101.542969 208.859375 C 101.542969 205.667969 102.625 203.398438 104.195312 203.425781 C 106.179688 203.425781 107.027344 205.925781 107.027344 209.039062 C 107.027344 212.230469 106.023438 214.371094 104.402344 214.371094 "/>
<path fill-rule="nonzero" fill="rgb(25.489807%, 57.647705%, 57.647705%)" fill-opacity="1" d="M 126.339844 203.273438 L 128.089844 203.273438 L 128.117188 209.398438 L 121.785156 199.949219 L 114.394531 199.949219 L 114.394531 203.273438 L 115.886719 203.273438 L 115.886719 214.628906 L 114.367188 214.628906 L 114.367188 217.949219 L 122.273438 217.949219 L 122.273438 214.628906 L 120.289062 214.628906 L 120.289062 208.136719 L 126.855469 217.949219 L 132.390625 217.949219 L 132.390625 203.273438 L 134.089844 203.273438 L 134.089844 199.949219 L 126.339844 199.949219 Z M 126.339844 203.273438 "/>
<path fill-rule="nonzero" fill="rgb(25.489807%, 57.647705%, 57.647705%)" fill-opacity="1" d="M 135.25 203.347656 L 136.871094 203.347656 L 136.871094 214.523438 L 135.25 214.523438 L 135.25 217.949219 L 150.777344 217.949219 L 150.777344 212.128906 L 146.324219 212.128906 L 146.324219 214.523438 L 142.203125 214.523438 L 142.203125 210.328125 L 147.09375 210.328125 L 147.09375 206.902344 L 142.203125 206.902344 L 142.203125 203.347656 L 146.324219 203.347656 L 146.324219 205.640625 L 150.777344 205.640625 L 150.777344 199.949219 L 135.25 199.949219 Z M 135.25 203.347656 "/>
<path fill-rule="nonzero" fill="rgb(25.489807%, 57.647705%, 57.647705%)" fill-opacity="1" d="M 162.339844 211.511719 L 163.910156 211.511719 L 163.910156 212.59375 C 163.523438 213.261719 162.90625 213.855469 161.4375 213.855469 C 159.199219 213.855469 157.910156 211.742188 157.910156 209.117188 C 157.910156 206.542969 159.351562 204.277344 161.4375 204.277344 C 162.957031 204.277344 164.296875 205.460938 164.375 207.546875 L 168.984375 207.546875 L 168.984375 199.949219 L 165.148438 199.949219 L 164.605469 201.804688 C 164.195312 201.390625 163.316406 199.640625 159.585938 199.640625 C 155.566406 199.640625 151.679688 203.503906 151.679688 209.117188 C 151.679688 214.679688 155.257812 218.179688 159.765625 218.179688 C 161.746094 218.179688 163.34375 217.277344 163.910156 216.328125 L 164.707031 217.949219 L 169.859375 217.949219 L 169.859375 211.511719 L 170.886719 211.511719 L 170.886719 208.757812 L 162.339844 208.757812 Z M 162.339844 211.511719 "/>
<path fill-rule="nonzero" fill="rgb(25.489807%, 57.647705%, 57.647705%)" fill-opacity="1" d="M 185.589844 199.949219 L 175.703125 199.949219 L 175.703125 203.273438 L 176.757812 203.273438 L 173.28125 214.574219 L 171.53125 214.574219 L 171.53125 217.949219 L 179.71875 217.949219 L 179.71875 214.574219 L 177.710938 214.574219 L 178.253906 212.824219 L 183.53125 212.824219 L 184.070312 214.574219 L 181.625 214.574219 L 181.625 217.949219 L 191.949219 217.949219 L 191.949219 214.574219 L 190.148438 214.574219 Z M 179.207031 209.734375 L 180.878906 204.171875 L 182.578125 209.734375 Z M 179.207031 209.734375 "/>
<path fill-rule="nonzero" fill="rgb(25.489807%, 57.647705%, 57.647705%)" fill-opacity="1" d="M 202.949219 214.523438 L 199.625 214.523438 L 199.625 203.347656 L 200.992188 203.347656 L 200.992188 199.949219 L 192.851562 199.949219 L 192.851562 203.347656 L 194.269531 203.347656 L 194.269531 214.523438 L 192.851562 214.523438 L 192.851562 217.949219 L 207.273438 217.949219 L 207.273438 211.253906 L 202.949219 211.253906 Z M 202.949219 214.523438 "/>
<path fill-rule="nonzero" fill="rgb(25.489807%, 57.647705%, 57.647705%)" fill-opacity="1" d="M 169.90625 135.777344 C 184.242188 136.925781 199.058594 127.65625 199.058594 127.65625 C 169.90625 135.777344 161.207031 127.464844 130.335938 117.523438 C 99.464844 107.582031 82.164062 129.089844 82.164062 129.089844 C 82.164062 129.089844 95.449219 120.292969 113.894531 120.292969 C 132.34375 120.292969 155.566406 134.632812 169.90625 135.777344 "/>
<path fill-rule="nonzero" fill="rgb(25.489807%, 57.647705%, 57.647705%)" fill-opacity="1" d="M 74.394531 144.15625 C 82.492188 145.570312 93.226562 142.792969 98.171875 140.53125 C 103.113281 138.273438 111.917969 135.871094 111.917969 135.871094 C 111.917969 135.871094 109.140625 135.589844 105.183594 135.871094 C 101.230469 136.152344 91.839844 140.296875 82.847656 142.179688 C 73.855469 144.0625 64.980469 139.167969 64.980469 139.167969 C 64.980469 139.167969 66.296875 142.746094 74.394531 144.15625 "/>
<path fill-rule="nonzero" fill="rgb(25.489807%, 57.647705%, 57.647705%)" fill-opacity="1" d="M 86.289062 102.207031 C 87.300781 102.644531 88.332031 102.777344 88.332031 102.777344 C 88.332031 102.777344 88.015625 103.464844 88.777344 104.65625 C 89.539062 105.851562 88.839844 107.414062 88.878906 107.578125 C 90.851562 107.132812 91.484375 104.363281 91.253906 102.1875 C 92.710938 100.246094 97.027344 98.222656 101.769531 98.917969 C 106.511719 99.617188 113.003906 102.445312 113.003906 102.445312 C 113.003906 102.445312 112.316406 102.984375 111.523438 102.882812 C 110.726562 102.785156 109.792969 102.765625 109.746094 103.109375 C 109.703125 103.453125 110.109375 103.9375 111.570312 104.484375 C 113.027344 105.03125 115.289062 104.539062 115.289062 104.539062 C 115.289062 104.539062 114.566406 105.316406 113.839844 105.199219 C 113.109375 105.085938 112.421875 104.90625 112.375 105.25 C 112.332031 105.59375 113.285156 106.621094 115.265625 106.613281 C 117.25 106.601562 118.285156 105.777344 118.285156 105.777344 C 118.285156 105.777344 125.839844 111.816406 126.488281 112.054688 C 127.140625 112.292969 127.917969 110.925781 125.566406 108.847656 C 126.710938 106.992188 126.082031 102.914062 122.898438 99.480469 C 119.710938 96.046875 114.347656 93.296875 113.535156 92.816406 C 112.578125 90.84375 108.226562 88.617188 107.527344 88.410156 C 106.832031 88.199219 106.527344 88.632812 106.558594 89.082031 C 106.589844 89.53125 108.523438 90.777344 107.714844 91.46875 C 106.90625 92.160156 100.433594 92.59375 95.171875 95.71875 C 90.621094 98.570312 89.472656 100.324219 89.472656 100.324219 C 89.472656 100.324219 86.726562 100.339844 85.613281 100.921875 C 84.496094 101.507812 84.484375 102.300781 84.484375 102.300781 C 84.484375 102.300781 85.277344 101.769531 86.289062 102.207031 Z M 123.855469 106.410156 C 124.027344 106.140625 124.382812 106.0625 124.652344 106.230469 C 124.917969 106.402344 125 106.753906 124.832031 107.023438 C 124.660156 107.289062 124.304688 107.371094 124.035156 107.203125 C 123.769531 107.03125 123.6875 106.679688 123.855469 106.410156 Z M 119.148438 105.453125 L 119.265625 105.269531 C 120.644531 106.167969 126.441406 111.273438 126.441406 111.273438 C 126.441406 111.273438 126.441406 111.273438 126.226562 111.566406 C 124.6875 109.96875 118.992188 105.699219 118.992188 105.699219 Z M 104.800781 97.027344 C 107.925781 96.933594 110.882812 98.050781 111.753906 98.714844 C 112.625 99.375 113.378906 101.394531 113.378906 101.394531 C 113.378906 101.394531 112.273438 101.015625 108.25 99.453125 C 104.226562 97.890625 100.253906 98.195312 100.253906 98.195312 L 100.117188 97.910156 C 100.117188 97.910156 101.679688 97.117188 104.800781 97.027344 "/>
<path fill-rule="nonzero" fill="rgb(2.745056%, 71.372986%, 88.235474%)" fill-opacity="1" d="M 76.675781 61.300781 L 73.4375 61.300781 L 73.4375 76.070312 L 76.675781 76.070312 Z M 76.675781 61.300781 "/>
<path fill-rule="nonzero" fill="rgb(2.745056%, 71.372986%, 88.235474%)" fill-opacity="1" d="M 82.8125 67.003906 L 88.230469 76.070312 L 91.46875 76.070312 L 91.46875 61.300781 L 88.230469 61.300781 L 88.230469 70.453125 L 82.8125 61.300781 L 79.574219 61.300781 L 79.574219 76.070312 L 82.8125 76.070312 Z M 82.8125 67.003906 "/>
<path fill-rule="nonzero" fill="rgb(2.745056%, 71.372986%, 88.235474%)" fill-opacity="1" d="M 97.601562 61.300781 L 94.363281 61.300781 L 94.363281 76.070312 L 97.601562 76.070312 Z M 97.601562 61.300781 "/>
<path fill-rule="nonzero" fill="rgb(2.745056%, 71.372986%, 88.235474%)" fill-opacity="1" d="M 102.0625 68.980469 C 102.597656 69.277344 103.289062 69.589844 104.136719 69.910156 C 104.714844 70.132812 105.171875 70.324219 105.5 70.484375 C 105.828125 70.644531 106.101562 70.847656 106.324219 71.097656 C 106.542969 71.351562 106.65625 71.664062 106.65625 72.039062 C 106.65625 72.457031 106.535156 72.792969 106.296875 73.042969 C 106.054688 73.292969 105.726562 73.417969 105.308594 73.417969 C 104.832031 73.417969 104.4375 73.257812 104.128906 72.9375 C 103.816406 72.617188 103.636719 72.179688 103.585938 71.621094 L 100.140625 71.621094 C 100.226562 73.070312 100.757812 74.199219 101.730469 75.003906 C 102.703125 75.8125 103.941406 76.21875 105.441406 76.21875 C 106.441406 76.21875 107.289062 76.023438 107.992188 75.632812 C 108.691406 75.242188 109.222656 74.722656 109.582031 74.066406 C 109.941406 73.410156 110.121094 72.695312 110.121094 71.914062 C 110.121094 70.953125 109.925781 70.171875 109.535156 69.574219 C 109.140625 68.976562 108.675781 68.519531 108.132812 68.207031 C 107.589844 67.894531 106.886719 67.574219 106.03125 67.253906 C 105.4375 67.019531 104.980469 66.824219 104.667969 66.671875 C 104.351562 66.515625 104.089844 66.320312 103.878906 66.074219 C 103.671875 65.832031 103.566406 65.535156 103.566406 65.1875 C 103.566406 64.753906 103.683594 64.429688 103.917969 64.207031 C 104.152344 63.984375 104.457031 63.871094 104.835938 63.871094 C 105.277344 63.871094 105.628906 64.015625 105.886719 64.300781 C 106.144531 64.585938 106.308594 64.972656 106.371094 65.457031 L 109.875 65.457031 C 109.761719 64.09375 109.265625 63.023438 108.386719 62.242188 C 107.511719 61.460938 106.328125 61.070312 104.835938 61.070312 C 103.914062 61.070312 103.097656 61.242188 102.382812 61.582031 C 101.671875 61.925781 101.113281 62.414062 100.707031 63.058594 C 100.304688 63.695312 100.101562 64.457031 100.101562 65.332031 C 100.101562 66.28125 100.292969 67.050781 100.679688 67.640625 C 101.066406 68.234375 101.523438 68.679688 102.0625 68.980469 "/>
<path fill-rule="nonzero" fill="rgb(2.745056%, 71.372986%, 88.235474%)" fill-opacity="1" d="M 127.308594 75.003906 C 128.070312 74.296875 128.453125 73.308594 128.453125 72.039062 C 128.453125 71.175781 128.21875 70.417969 127.746094 69.761719 C 127.269531 69.109375 126.628906 68.675781 125.820312 68.46875 C 126.515625 68.285156 127.078125 67.898438 127.507812 67.308594 C 127.9375 66.714844 128.152344 65.972656 128.152344 65.082031 C 128.152344 63.871094 127.777344 62.9375 127.035156 62.285156 C 126.289062 61.628906 125.234375 61.300781 123.871094 61.300781 L 117.792969 61.300781 L 117.792969 76.070312 L 124.023438 76.070312 C 125.449219 76.070312 126.542969 75.714844 127.308594 75.003906 Z M 121.03125 64.164062 L 123.113281 64.164062 C 124.261719 64.164062 124.835938 64.691406 124.835938 65.75 C 124.835938 66.808594 124.273438 67.339844 123.152344 67.339844 L 121.03125 67.339844 Z M 121.03125 73.167969 L 121.03125 69.847656 L 123.320312 69.847656 C 123.902344 69.847656 124.351562 69.996094 124.667969 70.292969 C 124.980469 70.59375 125.140625 71.007812 125.140625 71.539062 C 125.140625 72.625 124.539062 73.167969 123.339844 73.167969 Z M 121.03125 73.167969 "/>
<path fill-rule="nonzero" fill="rgb(2.745056%, 71.372986%, 88.235474%)" fill-opacity="1" d="M 139.53125 55.621094 L 134.96875 58.042969 L 134.96875 60.464844 L 139.53125 58.3125 Z M 139.53125 55.621094 "/>
<path fill-rule="nonzero" fill="rgb(2.745056%, 71.372986%, 88.235474%)" fill-opacity="1" d="M 133.386719 75.246094 C 134.417969 75.894531 135.554688 76.21875 136.804688 76.21875 C 138.054688 76.21875 139.195312 75.894531 140.222656 75.246094 C 141.253906 74.597656 142.066406 73.695312 142.667969 72.539062 C 143.265625 71.386719 143.566406 70.082031 143.566406 68.632812 C 143.566406 67.1875 143.269531 65.886719 142.675781 64.738281 C 142.082031 63.589844 141.273438 62.691406 140.242188 62.042969 C 139.214844 61.394531 138.070312 61.070312 136.804688 61.070312 C 135.554688 61.070312 134.417969 61.394531 133.386719 62.042969 C 132.359375 62.691406 131.542969 63.589844 130.945312 64.738281 C 130.34375 65.886719 130.046875 67.1875 130.046875 68.632812 C 130.046875 70.082031 130.34375 71.386719 130.945312 72.539062 C 131.542969 73.695312 132.359375 74.597656 133.386719 75.246094 Z M 134.277344 65.53125 C 134.902344 64.773438 135.746094 64.394531 136.804688 64.394531 C 137.867188 64.394531 138.710938 64.777344 139.335938 65.542969 C 139.957031 66.308594 140.273438 67.339844 140.273438 68.632812 C 140.273438 69.929688 139.957031 70.960938 139.324219 71.726562 C 138.695312 72.492188 137.855469 72.875 136.804688 72.875 C 135.746094 72.875 134.902344 72.492188 134.277344 71.726562 C 133.652344 70.960938 133.339844 69.929688 133.339844 68.632812 C 133.339844 67.324219 133.652344 66.292969 134.277344 65.53125 "/>
<path fill-rule="nonzero" fill="rgb(2.745056%, 71.372986%, 88.235474%)" fill-opacity="1" d="M 153.738281 70.097656 L 157.980469 70.097656 L 157.980469 67.382812 L 153.738281 67.382812 L 153.738281 64.144531 L 159.230469 64.144531 L 159.230469 61.300781 L 150.5 61.300781 L 150.5 76.070312 L 153.738281 76.070312 Z M 153.738281 70.097656 "/>
<path fill-rule="nonzero" fill="rgb(2.745056%, 71.372986%, 88.235474%)" fill-opacity="1" d="M 164.796875 61.300781 L 161.558594 61.300781 L 161.558594 76.070312 L 164.796875 76.070312 Z M 164.796875 61.300781 "/>
<path fill-rule="nonzero" fill="rgb(2.745056%, 71.372986%, 88.235474%)" fill-opacity="1" d="M 170.933594 67.003906 L 176.351562 76.070312 L 179.589844 76.070312 L 179.589844 61.300781 L 176.351562 61.300781 L 176.351562 70.453125 L 170.933594 61.300781 L 167.695312 61.300781 L 167.695312 76.070312 L 170.933594 76.070312 Z M 170.933594 67.003906 "/>
<path fill-rule="nonzero" fill="rgb(2.745056%, 71.372986%, 88.235474%)" fill-opacity="1" d="M 185.726562 67.003906 L 191.144531 76.070312 L 194.378906 76.070312 L 194.378906 61.300781 L 191.144531 61.300781 L 191.144531 70.453125 L 185.726562 61.300781 L 182.488281 61.300781 L 182.488281 76.070312 L 185.726562 76.070312 Z M 185.726562 67.003906 "/>
<path fill-rule="nonzero" fill="rgb(2.745056%, 71.372986%, 88.235474%)" fill-opacity="1" d="M 205.609375 73.210938 L 200.515625 73.210938 L 200.515625 69.929688 L 205.042969 69.929688 L 205.042969 67.234375 L 200.515625 67.234375 L 200.515625 64.144531 L 205.609375 64.144531 L 205.609375 61.300781 L 197.277344 61.300781 L 197.277344 76.070312 L 205.609375 76.070312 Z M 205.609375 73.210938 "/>
<path fill-rule="nonzero" fill="rgb(2.745056%, 71.372986%, 88.235474%)" fill-opacity="1" d="M 113.441406 125.394531 C 104.261719 125.605469 90.984375 130.265625 81.027344 132.738281 C 71.070312 135.210938 65.796875 126.617188 65.796875 126.617188 C 65.796875 126.617188 66.621094 136.480469 79.6875 137.257812 C 92.75 138.035156 97.625 131.609375 113.019531 132.457031 C 129.894531 133.304688 133.640625 141.777344 135.121094 149.332031 C 137.523438 146.226562 138.230469 140.363281 135.617188 135.988281 C 132.15625 130.550781 122.621094 125.183594 113.441406 125.394531 "/>
<path fill-rule="nonzero" fill="rgb(2.745056%, 71.372986%, 88.235474%)" fill-opacity="1" d="M 206.007812 130.851562 C 200.921875 131.21875 188.839844 136.597656 177.273438 139.042969 C 165.703125 141.488281 154.289062 135.128906 154.289062 135.128906 C 154.289062 135.128906 155.984375 139.773438 166.402344 141.609375 C 176.816406 143.441406 190.625 139.835938 196.984375 136.902344 C 203.34375 133.96875 214.667969 130.851562 214.667969 130.851562 C 214.667969 130.851562 211.09375 130.484375 206.007812 130.851562 "/>
<path fill-rule="nonzero" fill="rgb(2.745056%, 71.372986%, 88.235474%)" fill-opacity="1" d="M 151.597656 105.226562 C 150.597656 104.796875 150.3125 103.257812 150.3125 103.257812 C 150.3125 103.257812 152.746094 105.65625 155 106.121094 C 157.253906 106.585938 158.148438 106.300781 158.363281 105.835938 C 158.578125 105.371094 157.398438 104.652344 156.324219 104.152344 C 155.25 103.652344 154.820312 102.433594 154.820312 102.433594 C 154.820312 102.433594 165.164062 104.011719 171.640625 106.871094 C 178.117188 109.734375 181.910156 115.675781 182.199219 119.253906 C 180.191406 121.796875 178.796875 125.769531 180.910156 127.878906 C 181.089844 127.699219 181.445312 125.195312 183.34375 124.300781 C 185.238281 123.40625 185.382812 122.296875 185.382812 122.296875 C 185.382812 122.296875 186.777344 122.941406 188.386719 123.191406 C 190 123.441406 190.570312 124.730469 190.570312 124.730469 C 190.570312 124.730469 191.179688 123.730469 190.25 122.117188 C 189.320312 120.507812 185.894531 118.324219 185.894531 118.324219 C 185.894531 118.324219 185.847656 115.222656 182.410156 108.066406 C 178.308594 100 170.566406 94.359375 170.101562 92.855469 C 169.636719 91.351562 173.035156 91.316406 173.429688 90.78125 C 173.824219 90.242188 173.789062 89.457031 172.75 89.171875 C 171.710938 88.882812 164.519531 88.238281 161.761719 89.957031 C 160.367188 89.921875 151.492188 89.132812 144.800781 90.921875 C 138.109375 92.714844 134.101562 97.328125 134.0625 100.550781 C 129.484375 101.300781 129.375 103.628906 130.378906 103.84375 C 131.378906 104.058594 145.585938 102.445312 145.585938 102.445312 C 145.585938 102.445312 146.230469 104.296875 148.699219 105.871094 C 151.167969 107.445312 153.171875 106.910156 153.386719 106.445312 C 153.601562 105.976562 152.601562 105.65625 151.597656 105.226562 Z M 159.328125 98.75 C 160.941406 98.605469 165.519531 99.535156 169.351562 102.113281 C 173.179688 104.691406 174.503906 106.910156 174.503906 106.910156 L 174.109375 107.160156 C 174.109375 107.160156 169.386719 103.652344 163.121094 102.433594 C 156.859375 101.21875 155.179688 100.824219 155.179688 100.824219 C 155.179688 100.824219 157.71875 98.890625 159.328125 98.75 Z M 137.277344 97.996094 C 137.746094 97.996094 138.125 98.378906 138.125 98.847656 C 138.125 99.316406 137.746094 99.699219 137.277344 99.699219 C 136.804688 99.699219 136.425781 99.316406 136.425781 98.847656 C 136.425781 98.378906 136.804688 97.996094 137.277344 97.996094 Z M 144.765625 101.363281 L 144.765625 101.789062 C 144.765625 101.789062 134.277344 102.648438 131.09375 103.4375 C 131.058594 102.902344 131.058594 102.902344 131.058594 102.902344 C 131.058594 102.902344 142.332031 101.074219 144.765625 101.039062 Z M 144.765625 101.363281 "/>
<path fill-rule="nonzero" fill="rgb(2.745056%, 71.372986%, 88.235474%)" fill-opacity="1" d="M 139.066406 23.238281 C 72.660156 23.238281 18.632812 74.695312 18.632812 137.949219 C 18.632812 201.199219 72.660156 252.660156 139.066406 252.660156 C 205.476562 252.660156 259.5 201.199219 259.5 137.949219 C 259.5 74.695312 205.476562 23.238281 139.066406 23.238281 Z M 139.066406 245.582031 C 76.5625 245.582031 25.710938 197.296875 25.710938 137.949219 C 25.710938 78.597656 76.5625 30.316406 139.066406 30.316406 C 201.574219 30.316406 252.425781 78.597656 252.425781 137.949219 C 252.425781 197.296875 201.574219 245.582031 139.066406 245.582031 "/>

                        </g>
                    </svg>