<?xml version="1.0" encoding="UTF-8"?>
<svg data-original-cmyk-pdf="/home/runner/workspace/uploads/original_b7d7af065f11b892cf577655787a8479.pdf" data-cmyk-preserved="true" xmlns="http://www.w3.org/2000/svg" xmlns:xlink="http://www.w3.org/1999/xlink" width="170.079" height="170.079" viewBox="0 0 170.079 170.079">
<defs>
<clipPath id="clip-0">
<path clip-rule="nonzero" d="M 0 146 L 35 146 L 35 170.078125 L 0 170.078125 Z M 0 146 "/ fill="#000000">
</clipPath>
<clipPath id="clip-1">
<path clip-rule="nonzero" d="M 19 146 L 57 146 L 57 170.078125 L 19 170.078125 Z M 19 146 "/ fill="#000000">
</clipPath>
<clipPath id="clip-2">
<path clip-rule="nonzero" d="M 80 146 L 117 146 L 117 170.078125 L 80 170.078125 Z M 80 146 "/ fill="#000000">
</clipPath>
<clipPath id="clip-3">
<path clip-rule="nonzero" d="M 118 146 L 154 146 L 154 170.078125 L 118 170.078125 Z M 118 146 "/ fill="#000000">
</clipPath>
<clipPath id="clip-4">
<path clip-rule="nonzero" d="M 139 146 L 170.078125 146 L 170.078125 170.078125 L 139 170.078125 Z M 139 146 "/ fill="#000000">
</clipPath>
<clipPath id="clip-5">
<path clip-rule="nonzero" d="M 138 127 L 170.078125 127 L 170.078125 164 L 138 164 Z M 138 127 "/ fill="#000000">
</clipPath>
</defs>
<path fill-rule="nonzero" fill="rgb(18.470764%, 63.887024%, 35.98175%)" fill-opacity="1" d="M 77.183594 68.9375 C 76.597656 68.375 76.007812 67.816406 75.429688 67.246094 C 74.0625 65.914062 72.472656 64.839844 70.839844 63.820312 C 68.753906 62.523438 66.503906 61.507812 64.121094 60.792969 C 61.964844 60.148438 59.746094 59.703125 57.464844 59.523438 C 55.71875 59.386719 53.972656 59.390625 52.238281 59.46875 C 50.195312 59.566406 48.183594 59.9375 46.207031 60.445312 C 43.988281 61.011719 41.878906 61.824219 39.878906 62.851562 C 36.8125 64.429688 34.132812 66.488281 31.832031 68.9375 C 30.496094 70.355469 29.355469 71.917969 28.347656 73.578125 C 27.679688 74.683594 27.078125 75.8125 26.597656 76.972656 C 25.808594 78.882812 25.191406 80.851562 24.917969 82.910156 C 24.726562 84.328125 24.5625 85.734375 24.5625 87.160156 C 24.5625 89.03125 24.746094 90.878906 25.125 92.71875 C 25.589844 94.964844 26.335938 97.117188 27.382812 99.175781 C 28.558594 101.496094 30.085938 103.597656 31.878906 105.558594 C 33.402344 107.222656 35.15625 108.628906 37.015625 109.917969 C 38.445312 110.910156 39.988281 111.773438 41.613281 112.460938 C 43.007812 113.054688 44.460938 113.539062 45.921875 113.980469 C 46.472656 114.144531 47.046875 114.320312 47.632812 114.375 C 47.945312 114.40625 47.960938 114.511719 47.890625 114.746094 C 47.652344 115.578125 47.433594 116.414062 47.1875 117.242188 C 46.414062 119.820312 45.636719 122.398438 44.859375 124.976562 C 44.4375 126.367188 44.007812 127.753906 43.59375 129.144531 C 43.503906 129.441406 43.316406 129.492188 43.03125 129.417969 C 40.144531 128.675781 37.324219 127.773438 34.609375 126.574219 C 32.605469 125.6875 30.652344 124.710938 28.820312 123.566406 C 27.25 122.582031 25.703125 121.542969 24.277344 120.351562 C 23.164062 119.421875 22.09375 118.457031 21.027344 117.484375 C 19.113281 115.742188 17.445312 113.808594 15.921875 111.761719 C 14.445312 109.777344 13.125 107.707031 12.050781 105.511719 C 11.058594 103.484375 10.191406 101.410156 9.539062 99.257812 C 9.09375 97.785156 8.679688 96.308594 8.421875 94.800781 C 8.21875 93.617188 8.050781 92.421875 7.90625 91.226562 C 7.699219 89.550781 7.757812 87.882812 7.726562 86.210938 C 7.675781 83.90625 8.066406 81.640625 8.480469 79.382812 C 8.878906 77.191406 9.539062 75.058594 10.308594 72.957031 C 10.800781 71.621094 11.441406 70.335938 12.046875 69.035156 C 12.574219 67.898438 13.199219 66.808594 13.859375 65.75 C 14.980469 63.964844 16.171875 62.210938 17.578125 60.601562 C 19.125 58.832031 20.691406 57.082031 22.496094 55.542969 C 24.207031 54.078125 26.019531 52.714844 27.917969 51.472656 C 29.238281 50.613281 30.625 49.835938 32.050781 49.117188 C 33.019531 48.628906 33.980469 48.121094 34.984375 47.703125 C 36.15625 47.207031 37.359375 46.765625 38.570312 46.351562 C 40.339844 45.742188 42.140625 45.214844 43.992188 44.867188 C 45.351562 44.613281 46.714844 44.359375 48.089844 44.15625 C 50.445312 43.808594 52.816406 43.726562 55.179688 43.761719 C 57.066406 43.789062 58.953125 43.867188 60.835938 44.144531 C 63.882812 44.59375 66.882812 45.183594 69.789062 46.140625 C 71.152344 46.589844 72.5 47.078125 73.8125 47.652344 C 74.570312 47.984375 75.363281 48.253906 76.089844 48.648438 C 76.449219 48.839844 76.796875 49.054688 77.164062 49.238281 C 77.441406 49.378906 77.347656 49.609375 77.347656 49.808594 C 77.351562 53.523438 77.351562 57.238281 77.351562 60.953125 C 77.351562 63.414062 77.351562 65.878906 77.351562 68.34375 C 77.351562 68.519531 77.351562 68.691406 77.351562 68.867188 C 77.292969 68.890625 77.238281 68.914062 77.183594 68.9375 "/>
<path fill-rule="nonzero" fill="rgb(100%, 100%, 100%)" fill-opacity="1" d="M 50.464844 130.972656 C 50.605469 130.5625 50.761719 130.160156 50.878906 129.742188 C 52.222656 124.941406 53.558594 120.140625 54.902344 115.339844 C 55.125 114.542969 55.292969 114.414062 56.078125 114.394531 C 59.945312 114.304688 63.617188 113.378906 67.105469 111.734375 C 71.597656 109.617188 75.367188 106.585938 78.355469 102.617188 C 81.21875 98.804688 83.082031 94.539062 83.871094 89.828125 C 84.164062 88.085938 84.363281 86.335938 84.339844 84.554688 C 84.292969 81.261719 84.328125 77.96875 84.324219 74.671875 C 84.324219 70.269531 84.316406 65.867188 84.316406 61.464844 C 84.316406 58.886719 84.273438 56.308594 84.335938 53.734375 C 84.417969 50.464844 84.53125 47.199219 84.746094 43.9375 C 84.847656 42.390625 85.421875 40.929688 86.097656 39.523438 C 87.753906 36.082031 90.453125 33.722656 93.871094 32.136719 C 96.578125 30.875 99.449219 30.214844 102.410156 29.910156 C 103.0625 29.839844 103.34375 29.777344 104 29.726562 C 104.066406 29.722656 105.421875 29.710938 105.484375 29.691406 C 106.570312 29.691406 106.742188 29.703125 107.828125 29.707031 C 107.917969 29.707031 109.34375 29.742188 109.582031 29.96875 C 108.882812 30.8125 107.835938 31.859375 107.34375 32.636719 C 103.582031 38.167969 101.199219 42.464844 101.355469 48.519531 C 101.410156 50.757812 101.324219 53.003906 101.324219 55.246094 C 101.320312 57.878906 101.34375 60.515625 101.339844 63.148438 C 101.339844 69.078125 101.332031 75.007812 101.316406 80.9375 C 101.308594 82.980469 101.320312 85.03125 101.222656 87.070312 C 101.019531 91.308594 100.140625 95.425781 98.796875 99.4375 C 95.800781 108.414062 90.425781 115.710938 83.03125 121.539062 C 79.21875 124.546875 74.988281 126.832031 70.441406 128.570312 C 65.546875 130.4375 60.457031 131.179688 55.269531 131.460938 C 54.960938 131.476562 54.65625 131.507812 54.347656 131.527344 L 54.210938 131.527344 C 54.089844 131.511719 53.96875 131.480469 53.847656 131.472656 C 52.71875 131.398438 51.59375 131.324219 50.464844 131.25 Z M 50.464844 130.972656 "/>
<path fill-rule="nonzero" fill="rgb(100%, 100%, 100%)" fill-opacity="1" d="M 50.464844 131.25 C 51.59375 131.324219 52.71875 131.398438 53.847656 131.472656 C 53.96875 131.480469 54.089844 131.507812 54.210938 131.527344 L 50.464844 131.527344 Z M 50.464844 131.25 "/>
<path fill-rule="nonzero" fill="rgb(95.671082%, 43.457031%, 8.654785%)" fill-opacity="1" d="M 154.15625 9.023438 L 154.15625 13.878906 C 154.144531 14.015625 154.121094 14.148438 154.121094 14.285156 C 154.117188 16.117188 154.117188 17.949219 154.121094 19.777344 C 154.121094 19.917969 154.144531 20.050781 154.15625 20.1875 L 154.15625 26.777344 C 154.144531 26.957031 154.117188 27.140625 154.121094 27.320312 C 154.140625 28.273438 154.074219 29.226562 154.15625 30.175781 L 154.15625 30.800781 C 154.070312 30.957031 154 31.015625 153.851562 30.832031 C 153.449219 30.335938 153.0625 29.824219 152.605469 29.386719 C 149.816406 26.730469 146.785156 24.402344 143.285156 22.738281 C 140.300781 21.320312 137.148438 20.53125 133.863281 20.246094 C 131.691406 20.054688 129.527344 20.128906 127.367188 20.40625 C 125.085938 20.695312 122.875 21.226562 120.769531 22.175781 C 119.082031 22.933594 117.414062 23.722656 115.769531 24.5625 C 115.164062 24.871094 114.613281 25.003906 113.902344 24.847656 C 110.632812 24.132812 107.320312 24.121094 104.007812 24.441406 C 99.992188 24.828125 96.121094 25.8125 92.371094 27.289062 C 91.855469 27.492188 91.265625 27.773438 90.679688 28.152344 C 90.464844 28.324219 90.222656 28.480469 89.886719 28.65625 C 89.652344 28.78125 89.621094 28.785156 89.539062 28.757812 C 89.433594 28.691406 89.765625 28.214844 89.816406 28.128906 C 90.335938 27.308594 90.886719 26.507812 91.378906 25.671875 C 93.601562 21.902344 96.308594 18.519531 99.519531 15.554688 C 104.546875 10.914062 110.214844 7.328125 116.769531 5.230469 C 119.792969 4.265625 122.878906 3.605469 126.019531 3.1875 C 127.625 2.972656 129.242188 2.933594 130.855469 2.835938 C 133.605469 2.882812 136.351562 3.003906 139.066406 3.476562 C 141.75 3.945312 144.402344 4.519531 146.957031 5.519531 C 149.242188 6.414062 151.394531 7.574219 153.59375 8.644531 C 153.800781 8.746094 153.988281 8.867188 154.15625 9.023438 "/>
<path fill-rule="nonzero" fill="rgb(95.671082%, 43.457031%, 8.654785%)" fill-opacity="1" d="M 107.457031 71.800781 C 108.117188 72.324219 108.503906 72.894531 108.988281 73.382812 C 111.277344 75.6875 113.925781 77.539062 116.894531 79.027344 C 118.96875 80.0625 121.140625 80.851562 123.40625 81.390625 C 125.460938 81.882812 127.550781 82.191406 129.683594 82.226562 C 130.902344 82.246094 132.117188 82.300781 133.328125 82.195312 C 134.816406 82.0625 136.296875 81.878906 137.753906 81.511719 C 138.941406 81.214844 140.125 80.9375 141.277344 80.523438 C 143.328125 79.792969 145.316406 78.941406 147.136719 77.808594 C 148.347656 77.054688 149.519531 76.246094 150.59375 75.300781 C 151.257812 74.71875 151.921875 74.128906 152.59375 73.550781 C 152.8125 73.363281 152.925781 73.3125 153.183594 73.566406 C 154.9375 75.285156 156.714844 76.976562 158.492188 78.675781 C 160.402344 80.496094 162.320312 82.3125 164.230469 84.132812 C 164.769531 84.644531 164.769531 84.847656 164.214844 85.332031 C 163.257812 86.175781 162.320312 87.046875 161.316406 87.839844 C 159.8125 89.023438 158.199219 90.074219 156.5625 91.09375 C 155.328125 91.859375 154.035156 92.523438 152.738281 93.179688 C 150.375 94.382812 147.875 95.296875 145.335938 96.089844 C 143.980469 96.511719 142.585938 96.855469 141.175781 97.128906 C 139.359375 97.484375 137.539062 97.828125 135.699219 98.003906 C 132.980469 98.261719 130.242188 98.355469 127.511719 98.179688 C 125.617188 98.058594 123.734375 97.828125 121.867188 97.484375 C 119.945312 97.132812 118.054688 96.667969 116.191406 96.109375 C 114.042969 95.46875 111.980469 94.632812 109.945312 93.734375 C 109.257812 93.433594 108.605469 93.058594 107.925781 92.734375 C 107.613281 92.582031 107.664062 92.328125 107.660156 92.085938 C 107.652344 88.761719 107.714844 85.441406 107.609375 82.121094 C 107.507812 78.910156 107.449219 75.699219 107.457031 72.484375 C 107.457031 72.296875 107.457031 72.109375 107.457031 71.800781 "/>
<path fill-rule="nonzero" fill="rgb(95.671082%, 43.457031%, 8.654785%)" fill-opacity="1" d="M 107.925781 92.734375 L 107.136719 92.203125 C 107.136719 92.203125 107.601562 89.476562 107.648438 83.707031 C 108.269531 83.449219 108.320312 84.5625 108.320312 84.5625 L 108.449219 90.097656 Z M 107.925781 92.734375 "/>
<path fill-rule="nonzero" fill="rgb(100%, 100%, 100%)" fill-opacity="1" d="M 18.59375 167.164062 L 16.945312 165.351562 L 14.507812 165.351562 L 14.507812 164.347656 L 17.222656 164.347656 C 18.039062 164.347656 18.46875 163.882812 18.46875 163.039062 C 18.46875 162.199219 18.003906 161.785156 17.222656 161.785156 L 13.675781 161.785156 L 13.675781 167.164062 L 12.546875 167.164062 L 12.546875 160.648438 L 17.222656 160.648438 C 18.710938 160.648438 19.589844 161.570312 19.589844 163.023438 C 19.589844 164.097656 19.089844 164.859375 18.246094 165.183594 L 20.207031 167.164062 Z M 18.59375 167.164062 "/>
<g clip-path="url(#clip-0)">
<path fill="#000000" d="M -0.00175 -0.0004625 L -1.650187 1.812037 L -4.087687 1.812037 L -4.087687 2.815944 L -1.372844 2.815944 C -0.556437 2.815944 -0.12675 3.280787 -0.12675 4.124537 C -0.12675 4.964381 -0.591594 5.378444 -1.372844 5.378444 L -4.919719 5.378444 L -4.919719 -0.0004625 L -6.048625 -0.0004625 L -6.048625 6.515162 L -1.372844 6.515162 C 0.115438 6.515162 0.994344 5.593287 0.994344 4.140162 C 0.994344 3.065944 0.494344 2.304225 -0.349406 1.980006 L 1.611531 -0.0004625 Z M -0.00175 -0.0004625 " transform="matrix(1, 0, 0, -1, 18.5955, 167.1636)"/>
</g>
<path fill-rule="nonzero" fill="rgb(100%, 100%, 100%)" fill-opacity="1" d="M 41.023438 167.164062 L 40.046875 165.523438 L 36.964844 165.523438 L 37.5 164.601562 L 39.5 164.601562 L 38.046875 162.164062 L 35.089844 167.164062 L 33.789062 167.164062 L 37.539062 160.925781 C 37.671875 160.703125 37.84375 160.558594 38.09375 160.558594 C 38.34375 160.558594 38.503906 160.703125 38.640625 160.925781 L 42.394531 167.164062 Z M 41.023438 167.164062 "/>
<g clip-path="url(#clip-1)">
<path fill="#000000" d="M -0.0003625 -0.0004625 L -0.976925 1.640162 L -4.058956 1.640162 L -3.5238 2.562037 L -1.5238 2.562037 L -2.976925 4.999537 L -5.933956 -0.0004625 L -7.234738 -0.0004625 L -3.484738 6.237819 C -3.351925 6.460475 -3.18005 6.605006 -2.93005 6.605006 C -2.68005 6.605006 -2.519894 6.460475 -2.383175 6.237819 L 1.370731 -0.0004625 Z M -0.0003625 -0.0004625 " transform="matrix(1, 0, 0, -1, 41.0238, 167.1636)"/>
</g>
<path fill-rule="nonzero" fill="rgb(100%, 100%, 100%)" fill-opacity="1" d="M -0.0006625 -0.0004625 L -0.0006625 6.515162 L 1.136056 6.515162 L 1.136056 1.136256 L 5.522775 1.136256 L 5.522775 -0.0004625 Z M -0.0006625 -0.0004625 " transform="matrix(1, 0, 0, -1, 56.5241, 167.1636)"/>
<path fill-rule="nonzero" fill="rgb(100%, 100%, 100%)" fill-opacity="1" d="M -0.0018375 -0.0004625 L -0.0018375 6.515162 L 1.138787 6.515162 L 1.138787 1.136256 L 5.5216 1.136256 L 5.5216 -0.0004625 Z M -0.0018375 -0.0004625 " transform="matrix(1, 0, 0, -1, 76.2909, 167.1636)"/>
<path fill-rule="nonzero" fill="rgb(100%, 100%, 100%)" fill-opacity="1" d="M 97.699219 167.164062 L 97.699219 164.691406 L 94.238281 160.648438 L 95.769531 160.648438 L 98.308594 163.652344 L 100.851562 160.648438 L 102.304688 160.648438 L 98.835938 164.691406 L 98.835938 167.164062 Z M 97.699219 167.164062 "/>
<g clip-path="url(#clip-2)">
<path fill="#000000" d="M 0.00111875 -0.0004625 L 0.00111875 2.472194 L -3.459819 6.515162 L -1.928569 6.515162 L 0.610494 3.511256 L 3.153463 6.515162 L 4.606588 6.515162 L 1.137838 2.472194 L 1.137838 -0.0004625 Z M 0.00111875 -0.0004625 " transform="matrix(1, 0, 0, -1, 97.6981, 167.1636)"/>
</g>
<path fill-rule="nonzero" fill="rgb(100%, 100%, 100%)" fill-opacity="1" d="M 116.480469 9.430562 L 117.617188 9.430562 L 117.617188 2.914937 L 116.480469 2.914937 Z M 116.480469 9.430562 " transform="matrix(1, 0, 0, -1, 0, 170.079)"/>
<path fill-rule="nonzero" fill="rgb(100%, 100%, 100%)" fill-opacity="1" d="M 133.296875 162.394531 L 133.296875 167.164062 L 132.214844 167.164062 L 132.214844 161.25 C 132.214844 160.828125 132.4375 160.566406 132.796875 160.566406 C 132.964844 160.566406 133.109375 160.628906 133.28125 160.800781 L 137.878906 165.363281 L 137.878906 160.59375 L 138.960938 160.59375 L 138.960938 166.5625 C 138.960938 166.992188 138.730469 167.246094 138.398438 167.246094 C 138.207031 167.246094 138.039062 167.164062 137.878906 167 Z M 133.296875 162.394531 "/>
<g clip-path="url(#clip-3)">
<path fill="#000000" d="M -0.001025 0.00116875 L -0.001025 -4.768363 L -1.083056 -4.768363 L -1.083056 1.1457 C -1.083056 1.567575 -0.8604 1.829294 -0.501025 1.829294 C -0.333056 1.829294 -0.188525 1.766794 -0.01665 1.594919 L 4.581006 -2.967581 L 4.581006 1.80195 L 5.663038 1.80195 L 5.663038 -4.1668 C 5.663038 -4.596488 5.432569 -4.850394 5.100538 -4.850394 C 4.909131 -4.850394 4.741163 -4.768363 4.581006 -4.6043 Z M -0.001025 0.00116875 " transform="matrix(1, 0, 0, -1, 133.2979, 162.3957)"/>
</g>
<path fill-rule="nonzero" fill="rgb(100%, 100%, 100%)" fill-opacity="1" d="M 156.46875 167.164062 C 154.652344 167.164062 153.308594 165.730469 153.308594 163.839844 C 153.308594 161.921875 154.652344 160.648438 156.46875 160.648438 L 160 160.648438 L 160 161.785156 L 156.46875 161.785156 C 155.304688 161.785156 154.445312 162.65625 154.445312 163.894531 C 154.445312 165.121094 155.296875 166.027344 156.46875 166.027344 L 159.257812 166.027344 L 159.257812 164.332031 L 156.316406 164.332031 L 156.316406 163.371094 L 160.40625 163.371094 L 160.40625 167.164062 Z M 156.46875 167.164062 "/>
<g clip-path="url(#clip-4)">
<path fill="#000000" d="M -0.00105 -0.0004625 C -1.817456 -0.0004625 -3.161206 1.433131 -3.161206 3.323756 C -3.161206 5.241725 -1.817456 6.515162 -0.00105 6.515162 L 3.5302 6.515162 L 3.5302 5.378444 L -0.00105 5.378444 C -1.165112 5.378444 -2.024487 4.50735 -2.024487 3.269069 C -2.024487 2.042506 -1.172925 1.136256 -0.00105 1.136256 L 2.788013 1.136256 L 2.788013 2.831569 L -0.153394 2.831569 L -0.153394 3.792506 L 3.93645 3.792506 L 3.93645 -0.0004625 Z M -0.00105 -0.0004625 " transform="matrix(1, 0, 0, -1, 156.4698, 167.1636)"/>
</g>
<path fill-rule="nonzero" fill="rgb(100%, 100%, 100%)" fill-opacity="1" d="M 0.0018125 0.001875 C -2.111469 0.001875 -3.673969 1.665937 -3.673969 3.86125 C -3.673969 6.087812 -2.111469 7.564375 0.0018125 7.564375 L 4.099469 7.564375 L 4.099469 6.244062 L 0.0018125 6.244062 C -1.353656 6.244062 -2.34975 5.232344 -2.34975 3.79875 C -2.34975 2.372969 -1.361469 1.322187 0.0018125 1.322187 L 4.099469 1.322187 L 4.099469 0.001875 Z M 0.0018125 0.001875 " transform="matrix(1, 0, 0, -1, 15.256, 149.3925)"/>
<path fill-rule="nonzero" fill="rgb(100%, 100%, 100%)" fill-opacity="1" d="M 0.0010875 0.001875 L -1.135631 1.904219 L -4.713756 1.904219 L -4.088756 2.974531 L -1.768444 2.974531 L -3.455944 5.806562 L -6.889537 0.001875 L -8.39735 0.001875 L -4.045787 7.240156 C -3.889537 7.501875 -3.694225 7.669844 -3.401256 7.669844 C -3.112194 7.669844 -2.924694 7.501875 -2.768444 7.240156 L 1.590931 0.001875 Z M 0.0010875 0.001875 " transform="matrix(1, 0, 0, -1, 28.8661, 149.3925)"/>
<path fill-rule="nonzero" fill="rgb(100%, 100%, 100%)" fill-opacity="1" d="M 0.00191875 0.001875 L 0.00191875 1.322187 L 5.669888 1.322187 C 6.376919 1.322187 6.77145 1.716719 6.77145 2.310469 C 6.77145 2.955 6.376919 3.287031 5.669888 3.287031 L 2.193325 3.287031 C 0.77145 3.287031 -0.115269 4.193281 -0.115269 5.439375 C -0.115269 6.658125 0.70895 7.564375 2.216763 7.564375 L 7.64645 7.564375 L 7.64645 6.244062 L 2.216763 6.244062 C 1.611294 6.244062 1.259731 5.888594 1.259731 5.318281 C 1.259731 4.744062 1.623013 4.400312 2.205044 4.400312 L 5.669888 4.400312 C 7.201138 4.400312 8.02145 3.681562 8.02145 2.216719 C 8.02145 0.947187 7.251919 0.001875 5.669888 0.001875 Z M 0.00191875 0.001875 " transform="matrix(1, 0, 0, -1, 31.8223, 149.3925)"/>
<path fill-rule="nonzero" fill="rgb(100%, 100%, 100%)" fill-opacity="1" d="M 43.808594 25.086812 L 48.003906 25.086812 L 48.003906 23.973531 L 43.808594 23.973531 Z M 41.53125 20.688375 L 41.53125 28.250875 L 48.28125 28.250875 L 48.28125 26.930562 L 42.84375 26.930562 L 42.84375 22.008687 L 48.292969 22.008687 L 48.292969 20.688375 Z M 41.53125 20.688375 " transform="matrix(1, 0, 0, -1, 0, 170.079)"/>
<path fill-rule="nonzero" fill="rgb(100%, 100%, 100%)" fill-opacity="1" d="M 0.0004625 0.001875 L 0.0004625 2.872969 L -4.015163 7.564375 L -2.237819 7.564375 L 0.707494 4.08 L 3.660619 7.564375 L 5.348119 7.564375 L 1.320775 2.872969 L 1.320775 0.001875 Z M 0.0004625 0.001875 " transform="matrix(1, 0, 0, -1, 53.4761, 149.3925)"/>
<path fill-rule="nonzero" fill="rgb(100%, 100%, 100%)" fill-opacity="1" d="M -0.00130625 0.001875 L -0.00130625 1.322187 L 2.768225 1.322187 C 4.537756 1.322187 5.2526 1.978437 5.2526 3.443281 L 5.2526 7.564375 L 6.576819 7.564375 L 6.576819 3.443281 C 6.576819 1.103437 5.401038 0.001875 2.768225 0.001875 Z M -0.00130625 0.001875 " transform="matrix(1, 0, 0, -1, 63.3724, 149.3925)"/>
<path fill-rule="nonzero" fill="rgb(100%, 100%, 100%)" fill-opacity="1" d="M -0.0007 0.001875 L -1.133513 1.904219 L -4.711638 1.904219 L -4.090544 2.974531 L -1.770231 2.974531 L -3.453825 5.806562 L -6.887419 0.001875 L -8.395231 0.001875 L -4.047575 7.240156 C -3.891325 7.501875 -3.692106 7.669844 -3.403044 7.669844 C -3.110075 7.669844 -2.922575 7.501875 -2.766325 7.240156 L 1.59305 0.001875 Z M -0.0007 0.001875 " transform="matrix(1, 0, 0, -1, 78.9382, 149.3925)"/>
<path fill-rule="nonzero" fill="rgb(100%, 100%, 100%)" fill-opacity="1" d="M -0.00065625 0.001875 L -0.00065625 2.872969 L -4.016281 7.564375 L -2.238938 7.564375 L 0.706375 4.08 L 3.663406 7.564375 L 5.347 7.564375 L 1.323562 2.872969 L 1.323562 0.001875 Z M -0.00065625 0.001875 " transform="matrix(1, 0, 0, -1, 83.2155, 149.3925)"/>
<path fill-rule="nonzero" fill="rgb(100%, 100%, 100%)" fill-opacity="1" d="M 0.00065625 0.001875 C -2.112625 0.001875 -3.671219 1.665937 -3.671219 3.86125 C -3.671219 6.087812 -2.112625 7.564375 0.00065625 7.564375 L 4.098313 7.564375 L 4.098313 6.244062 L 0.00065625 6.244062 C -1.350906 6.244062 -2.350906 5.232344 -2.350906 3.79875 C -2.350906 2.372969 -1.362625 1.322187 0.00065625 1.322187 L 4.098313 1.322187 L 4.098313 0.001875 Z M 0.00065625 0.001875 " transform="matrix(1, 0, 0, -1, 96.972, 149.3925)"/>
<path fill-rule="nonzero" fill="rgb(100%, 100%, 100%)" fill-opacity="1" d="M 0.0003875 0.0007875 C 1.394919 0.0007875 2.3832 1.051569 2.3832 2.47735 C 2.3832 3.903131 1.394919 4.922662 0.0003875 4.922662 L -1.843363 4.922662 C -3.194925 4.922662 -4.194925 3.910944 -4.194925 2.47735 C -4.194925 1.051569 -3.206644 0.0007875 -1.843363 0.0007875 Z M -1.843363 -1.319525 C -3.952738 -1.319525 -5.515238 0.344537 -5.515238 2.53985 C -5.515238 4.766412 -3.952738 6.242975 -1.843363 6.242975 L 0.0003875 6.242975 C 2.183981 6.242975 3.703512 4.735162 3.703512 2.53985 C 3.703512 0.344537 2.152731 -1.319525 0.0003875 -1.319525 Z M -1.843363 -1.319525 " transform="matrix(1, 0, 0, -1, 107.9918, 148.0711)"/>
<path fill-rule="nonzero" fill="rgb(100%, 100%, 100%)" fill-opacity="1" d="M 0.0003125 0.001875 L 0.0003125 7.564375 L 1.320625 7.564375 L 1.320625 1.322187 L 6.410469 1.322187 L 6.410469 0.001875 Z M 0.0003125 0.001875 " transform="matrix(1, 0, 0, -1, 113.32, 149.3925)"/>
<path fill-rule="nonzero" fill="rgb(100%, 100%, 100%)" fill-opacity="1" d="M 123.507812 25.086812 L 127.699219 25.086812 L 127.699219 23.973531 L 123.507812 23.973531 Z M 121.226562 20.688375 L 121.226562 28.250875 L 127.980469 28.250875 L 127.980469 26.930562 L 122.539062 26.930562 L 122.539062 22.008687 L 127.992188 22.008687 L 127.992188 20.688375 Z M 121.226562 20.688375 " transform="matrix(1, 0, 0, -1, 0, 170.079)"/>
<path fill-rule="nonzero" fill="rgb(100%, 100%, 100%)" fill-opacity="1" d="M 0.00045 0.001875 L -1.444862 5.318281 L -3.589394 0.396406 C -3.733925 0.0721875 -3.944862 -0.103594 -4.265175 -0.103594 C -4.577675 -0.103594 -4.808144 0.0721875 -4.940956 0.396406 L -7.073769 5.318281 L -8.519081 0.001875 L -9.823769 0.001875 L -7.87455 7.115156 C -7.784706 7.482344 -7.573769 7.658125 -7.222206 7.658125 C -6.940956 7.658125 -6.679237 7.501875 -6.554237 7.208906 L -4.222206 1.86125 L -1.894081 7.208906 C -1.769081 7.501875 -1.538612 7.658125 -1.257362 7.658125 C -0.93705 7.658125 -0.726112 7.482344 -0.62455 7.115156 L 1.31295 0.001875 Z M 0.00045 0.001875 " transform="matrix(1, 0, 0, -1, 139.0933, 149.3925)"/>
<path fill-rule="nonzero" fill="rgb(100%, 100%, 100%)" fill-opacity="1" d="M 0.00095 0.001875 L -1.135769 1.904219 L -4.713894 1.904219 L -4.088894 2.974531 L -1.768581 2.974531 L -3.452175 5.806562 L -6.889675 0.001875 L -8.397487 0.001875 L -4.049831 7.240156 C -3.889675 7.501875 -3.694362 7.669844 -3.401394 7.669844 C -3.112331 7.669844 -2.924831 7.501875 -2.768581 7.240156 L 1.590794 0.001875 Z M 0.00095 0.001875 " transform="matrix(1, 0, 0, -1, 149.7178, 149.3925)"/>
<path fill-rule="nonzero" fill="rgb(100%, 100%, 100%)" fill-opacity="1" d="M 153.902344 143.855469 L 153.902344 149.390625 L 152.644531 149.390625 L 152.644531 142.527344 C 152.644531 142.035156 152.902344 141.734375 153.320312 141.734375 C 153.515625 141.734375 153.683594 141.808594 153.878906 142.003906 L 159.21875 147.300781 L 159.21875 141.765625 L 160.476562 141.765625 L 160.476562 148.695312 C 160.476562 149.195312 160.207031 149.488281 159.820312 149.488281 C 159.601562 149.488281 159.40625 149.390625 159.21875 149.207031 Z M 153.902344 143.855469 "/>
<g clip-path="url(#clip-5)">
<path fill="#000000" d="M 0.00064375 0.00193125 L 0.00064375 -5.533225 L -1.257169 -5.533225 L -1.257169 1.330056 C -1.257169 1.822244 -0.999356 2.123025 -0.581388 2.123025 C -0.386075 2.123025 -0.218106 2.048806 -0.0227938 1.853494 L 5.31705 -3.443381 L 5.31705 2.091775 L 6.574862 2.091775 L 6.574862 -4.837913 C 6.574862 -5.337913 6.305331 -5.630881 5.918612 -5.630881 C 5.699862 -5.630881 5.50455 -5.533225 5.31705 -5.349631 Z M 0.00064375 0.00193125 " transform="matrix(1, 0, 0, -1, 153.9017, 143.8574)"/>
</g>
<path fill-rule="nonzero" fill="rgb(100%, 100%, 100%)" fill-opacity="1" d="M 160.542969 14.196187 L 11.980469 14.196187 L 11.980469 15.36025 L 160.542969 15.36025 Z M 160.542969 14.196187 " transform="matrix(1, 0, 0, -1, 0, 170.079)"/>
</svg>
