<?xml version="1.0" encoding="UTF-8"?>
<svg xmlns="http://www.w3.org/2000/svg" xmlns:xlink="http://www.w3.org/1999/xlink" 
     width="92.64453100000003" height="52.832031" 
     viewBox="785.234375 192.050781 92.64453100000003 52.832031">
  <path fill-rule="evenodd" fill="rgb(92.939758%, 10.978699%, 14.118958%)" fill-opacity="1" d="M 814.011719 193.972656 L 814.011719 215.445312 L 807.421875 215.445312 C 804.34375 215.445312 802.386719 215.722656 801.546875 216.269531 C 800.703125 216.820312 800.28125 217.734375 800.28125 219.015625 C 800.28125 220.40625 800.847656 221.460938 801.984375 222.171875 C 803.121094 222.886719 804.84375 223.242188 807.152344 223.242188 C 810.117188 223.242188 812.351562 222.84375 813.855469 222.039062 C 815.359375 221.273438 817.171875 219.097656 819.289062 215.507812 C 825.398438 205.214844 830.414062 198.734375 834.328125 196.058594 C 838.246094 193.386719 844.5625 192.050781 853.277344 192.050781 C 859.609375 192.050781 864.277344 192.792969 867.28125 194.273438 C 870.28125 195.757812 872.800781 198.621094 874.832031 202.871094 C 876.863281 207.117188 877.878906 212.058594 877.878906 217.699219 C 877.878906 223.886719 876.707031 229.164062 874.363281 233.539062 C 872.023438 237.914062 869.039062 240.78125 865.414062 242.136719 C 861.789062 243.492188 856.644531 244.167969 849.980469 244.167969 L 844.160156 244.167969 L 844.160156 222.695312 L 854.980469 222.695312 C 858.3125 222.695312 860.453125 222.394531 861.402344 221.789062 C 862.355469 221.183594 862.832031 220.113281 862.832031 218.574219 C 862.832031 217.039062 862.226562 215.894531 861.019531 215.144531 C 859.8125 214.394531 858.019531 214.019531 855.636719 214.019531 C 850.402344 214.019531 846.980469 214.730469 845.367188 216.160156 C 843.757812 217.625 841.066406 221.230469 837.296875 226.980469 C 833.488281 232.726562 830.722656 236.535156 829.003906 238.402344 C 827.28125 240.269531 824.902344 241.816406 821.863281 243.042969 C 818.824219 244.269531 814.945312 244.882812 810.222656 244.882812 C 803.410156 244.882812 798.433594 244.011719 795.285156 242.273438 C 792.136719 240.535156 789.671875 237.722656 787.898438 233.84375 C 786.121094 229.960938 785.234375 225.277344 785.234375 219.785156 C 785.234375 213.78125 786.203125 208.664062 788.144531 204.433594 C 790.085938 200.207031 792.527344 197.40625 795.476562 196.03125 C 798.421875 194.660156 803.429688 193.972656 810.496094 193.972656 L 814.011719 193.972656 "/>
</svg>