<?xml version="1.0" encoding="UTF-8"?>
<svg xmlns="http://www.w3.org/2000/svg" xmlns:xlink="http://www.w3.org/1999/xlink" 
     width="309.02734399999997" height="720.601562" 
     viewBox="734.394531 2.992188 309.02734399999997 720.601562">
  <path clip-rule="evenodd" d="M 975.40625 4.074219 L 975.582031 482.117188 C 976.886719 484.367188 978.085938 486.683594 979.304688 489.292969 C 980.523438 491.90625 981.761719 494.8125 982.335938 496.699219 C 982.902344 498.582031 982.804688 499.441406 982.773438 500.308594 C 982.746094 501.175781 982.792969 502.046875 983.035156 502.628906 C 983.273438 503.210938 983.710938 503.5 984.183594 503.546875 L 996.386719 503.328125 C 997.347656 503.289062 998.308594 503.542969 999.351562 504.199219 C 1000.390625 504.851562 1001.511719 505.910156 1002.199219 507.066406 C 1002.898438 508.226562 1003.160156 509.488281 1003.058594 510.617188 C 1002.96875 511.746094 1002.519531 512.742188 1000.738281 519.53125 C 998.953125 526.316406 995.828125 538.898438 992.773438 551.496094 L 1004.75 551.660156 C 1004.890625 550.878906 1005.03125 550.101562 1005.359375 549.527344 C 1005.691406 548.957031 1006.191406 548.597656 1006.699219 548.234375 L 1012.160156 548.125 C 1014.128906 548.214844 1016.089844 548.902344 1017.53125 550.007812 C 1018.96875 551.109375 1019.878906 552.632812 1020.378906 554.671875 C 1020.878906 556.714844 1020.980469 559.277344 1020.449219 561.210938 C 1019.921875 563.140625 1018.769531 564.441406 1017.640625 565.476562 C 1016.511719 566.511719 1015.421875 567.28125 1013.351562 567.617188 C 1011.28125 567.957031 1008.25 567.863281 1004.011719 567.84375 C 999.761719 567.824219 994.304688 567.878906 988.847656 567.914062 C 988.21875 569.015625 987.675781 570.160156 987.179688 571.386719 C 986.683594 572.609375 986.234375 573.914062 985.960938 575.625 C 985.683594 577.332031 985.578125 579.445312 985.675781 580.769531 C 985.773438 582.097656 986.070312 582.628906 986.539062 582.992188 L 1038.941406 582.902344 C 1039.910156 583.625 1040.878906 584.351562 1041.609375 584.871094 C 1042.339844 585.390625 1042.839844 585.703125 1043.328125 586.019531 L 1043.421875 663.160156 L 1038.769531 665.160156 L 988.113281 665.273438 C 987.164062 674.609375 985.089844 683.835938 982.191406 692.316406 C 979.289062 700.796875 975.5625 708.527344 971.089844 713.71875 C 966.617188 718.90625 961.398438 721.554688 956.167969 722.566406 C 950.9375 723.582031 945.699219 722.960938 940.699219 722.960938 C 935.703125 722.964844 930.953125 723.59375 924.6875 719.886719 C 918.417969 716.183594 910.640625 708.148438 904.800781 698.339844 C 898.964844 688.53125 895.066406 676.949219 893.609375 665.113281 C 882.773438 665.3125 871.941406 665.511719 845.40625 665.582031 C 818.867188 665.65625 776.632812 665.597656 734.394531 665.542969 L 734.429688 657.464844 L 741.980469 657.464844 L 742.019531 653.664062 L 756.007812 653.664062 L 756.007812 643.378906 L 749.300781 643.378906 L 749.300781 641.375 L 738.59375 641.375 L 738.59375 634.945312 L 747.300781 634.945312 L 747.3125 631.347656 L 753.773438 631.347656 L 753.789062 628.683594 L 755.75 628.574219 L 755.75 624.542969 L 746.277344 624.542969 L 746.167969 622.90625 L 734.625 623.015625 L 734.734375 617.347656 L 738.652344 617.347656 L 738.546875 616.148438 L 741.378906 616.039062 L 742.355469 611.027344 L 748.890625 607.648438 L 748.890625 599.910156 L 751.613281 599.910156 L 751.503906 596.3125 L 755.207031 596.3125 L 755.207031 593.699219 L 744.644531 593.699219 L 744.753906 592.171875 L 741.59375 592.171875 L 742.355469 590.101562 L 747.585938 588.46875 L 747.257812 586.722656 L 740.832031 586.722656 L 742.792969 584.324219 L 756.621094 584.324219 L 756.621094 583.128906 L 872.757812 583.300781 L 866.644531 565.46875 L 816.859375 565.46875 L 811.992188 560.980469 L 810.746094 522.699219 L 816.609375 513.347656 C 826.339844 514.101562 836.070312 514.855469 843.265625 515.125 C 850.460938 515.394531 855.121094 515.183594 859.78125 514.96875 L 859.785156 507.695312 L 864.671875 503.925781 L 870.234375 503.953125 L 874.726562 500.96875 L 888.65625 496.398438 C 888.570312 494.644531 888.75 492.878906 889.179688 491.246094 C 889.609375 489.617188 890.292969 488.125 891.199219 486.621094 C 892.105469 485.121094 893.230469 483.605469 894.5 482.226562 L 893.566406 4.074219 C 893.917969 3.523438 894.570312 3.132812 895.195312 3.152344 C 895.824219 3.171875 896.425781 3.601562 896.820312 4.089844 C 897.21875 4.574219 897.40625 5.113281 897.8125 5.398438 C 898.214844 5.683594 898.835938 5.710938 899.042969 5.238281 C 899.25 4.769531 899.046875 3.804688 899.304688 3.398438 C 899.558594 2.992188 900.277344 3.148438 900.699219 3.429688 C 901.121094 3.710938 901.25 4.125 901.480469 4.695312 C 901.710938 5.269531 902.042969 6 902.5 6.082031 C 902.957031 6.160156 903.535156 5.589844 903.734375 4.925781 C 903.933594 4.261719 903.75 3.503906 904.179688 3.3125 C 904.605469 3.121094 905.644531 3.5 906.152344 4.109375 C 906.660156 4.714844 906.636719 5.550781 906.808594 6.011719 C 906.984375 6.472656 907.359375 6.558594 907.683594 6.476562 C 908.003906 6.390625 908.277344 6.136719 908.472656 5.761719 C 908.667969 5.386719 908.789062 4.894531 909.261719 5.039062 C 909.734375 5.1875 910.558594 5.972656 911.078125 5.929688 C 911.59375 5.886719 911.804688 5.007812 912.238281 4.753906 C 912.675781 4.5 913.332031 4.871094 914.074219 5.15625 C 914.816406 5.441406 915.644531 5.644531 916.179688 5.484375 C 916.714844 5.328125 916.964844 4.8125 917.378906 4.605469 C 917.796875 4.398438 918.378906 4.503906 918.90625 4.929688 C 919.433594 5.355469 919.902344 6.105469 920.40625 6.328125 C 920.90625 6.550781 921.441406 6.246094 921.828125 5.8125 C 922.214844 5.378906 922.449219 4.8125 922.953125 4.578125 C 923.460938 4.34375 924.234375 4.445312 924.597656 4.8125 C 924.960938 5.179688 924.910156 5.8125 925.121094 6.117188 C 925.335938 6.425781 925.808594 6.402344 926.226562 6.144531 C 926.640625 5.886719 927 5.390625 927.449219 5.304688 C 927.898438 5.214844 928.4375 5.535156 929.054688 5.867188 C 929.671875 6.195312 930.363281 6.53125 930.898438 6.3125 C 931.433594 6.097656 931.808594 5.328125 932.296875 5.089844 C 932.785156 4.847656 933.390625 5.132812 933.777344 5.660156 C 934.167969 6.191406 934.339844 6.964844 934.679688 7.085938 C 935.019531 7.207031 935.527344 6.675781 936.117188 6.265625 C 936.710938 5.855469 937.386719 5.570312 938.144531 5.738281 C 938.902344 5.910156 939.742188 6.542969 940.46875 6.492188 C 941.199219 6.445312 941.816406 5.714844 942.339844 5.660156 C 942.863281 5.609375 943.289062 6.238281 943.675781 6.867188 C 944.058594 7.496094 944.398438 8.121094 945.003906 8.429688 C 945.609375 8.738281 946.480469 8.726562 947.089844 8.449219 C 947.695312 8.171875 948.035156 7.628906 948.40625 7.230469 C 948.78125 6.828125 949.1875 6.574219 949.589844 6.539062 C 949.992188 6.503906 950.394531 6.6875 950.976562 6.988281 C 951.558594 7.292969 952.320312 7.714844 952.886719 7.695312 C 953.453125 7.675781 953.824219 7.210938 954.253906 6.714844 C 954.683594 6.21875 955.167969 5.6875 955.664062 5.726562 C 956.160156 5.765625 956.667969 6.371094 957.246094 6.839844 C 957.828125 7.308594 958.480469 7.636719 958.851562 7.355469 C 959.21875 7.074219 959.304688 6.183594 959.667969 5.738281 C 960.03125 5.296875 960.675781 5.300781 961.144531 5.734375 C 961.613281 6.164062 961.902344 7.019531 962.378906 7.382812 C 962.855469 7.742188 963.515625 7.609375 963.980469 7.230469 C 964.449219 6.851562 964.71875 6.226562 965.191406 5.902344 C 965.664062 5.578125 966.335938 5.554688 966.804688 6.035156 C 967.277344 6.523438 967.542969 7.515625 968.027344 8.007812 C 968.511719 8.5 969.210938 8.488281 969.585938 8.109375 C 969.957031 7.730469 970.003906 6.984375 970.304688 6.628906 C 970.605469 6.273438 971.160156 6.3125 971.738281 6.605469 C 972.316406 6.898438 972.914062 7.453125 973.34375 7.367188 C 973.769531 7.277344 974.027344 6.554688 974.34375 5.894531 C 974.65625 5.238281 975.019531 4.648438 975.40625 4.074219 "/>
</svg>