<?xml version="1.0" encoding="UTF-8"?>
<svg xmlns="http://www.w3.org/2000/svg" xmlns:xlink="http://www.w3.org/1999/xlink" 
     width="97.765625" height="59.71875" 
     viewBox="782.675781 436.003906 97.765625 59.71875">
  <path fill-rule="evenodd" fill="rgb(97.410583%, 97.364807%, 97.375488%)" fill-opacity="1" d="M 802.921875 464.789062 C 802.890625 464.871094 802.867188 464.957031 802.855469 465.042969 C 802.824219 465.257812 802.808594 465.476562 802.816406 465.691406 C 802.816406 465.960938 802.847656 466.230469 802.90625 466.492188 C 802.929688 466.601562 802.96875 466.710938 803.027344 466.808594 C 803.089844 466.847656 803.160156 466.882812 803.234375 466.910156 C 803.421875 466.980469 803.613281 467.035156 803.808594 467.078125 C 804.222656 467.167969 804.640625 467.234375 805.058594 467.285156 C 805.839844 467.375 806.628906 467.4375 807.414062 467.464844 C 808.640625 467.511719 809.871094 467.535156 811.097656 467.53125 L 852.398438 467.53125 C 852.9375 467.53125 853.480469 467.527344 854.019531 467.519531 C 854.777344 467.511719 855.539062 467.488281 856.296875 467.449219 C 856.632812 467.429688 856.96875 467.40625 857.304688 467.378906 C 857.90625 467.328125 858.503906 467.25 859.097656 467.140625 C 859.375 467.089844 859.644531 467.019531 859.90625 466.921875 C 859.984375 466.894531 860.054688 466.859375 860.121094 466.816406 C 860.160156 466.757812 860.1875 466.691406 860.207031 466.621094 C 860.273438 466.371094 860.304688 466.113281 860.296875 465.851562 C 860.304688 465.625 860.277344 465.398438 860.222656 465.175781 C 860.207031 465.097656 860.175781 465.023438 860.136719 464.957031 C 860.058594 464.90625 859.972656 464.863281 859.886719 464.832031 C 859.691406 464.761719 859.488281 464.703125 859.285156 464.65625 C 858.855469 464.5625 858.421875 464.492188 857.988281 464.441406 C 857.160156 464.347656 856.332031 464.285156 855.5 464.257812 C 854.183594 464.210938 852.863281 464.191406 851.546875 464.195312 L 837.835938 464.195312 L 837.835938 436.007812 L 843.835938 436.007812 C 845.078125 436.007812 846.324219 436.007812 847.570312 436.015625 C 848.503906 436.023438 849.4375 436.039062 850.375 436.066406 C 851.761719 436.101562 853.148438 436.175781 854.53125 436.289062 C 857.007812 436.488281 859.460938 436.90625 861.863281 437.539062 C 862.660156 437.753906 863.449219 437.996094 864.226562 438.273438 C 865.378906 438.683594 866.496094 439.179688 867.574219 439.765625 C 868.660156 440.355469 869.691406 441.050781 870.648438 441.832031 C 871.515625 442.542969 872.324219 443.320312 873.066406 444.15625 C 873.632812 444.789062 874.160156 445.449219 874.65625 446.132812 C 875.40625 447.164062 876.082031 448.25 876.683594 449.375 C 877.800781 451.472656 878.664062 453.699219 879.257812 456.003906 C 879.660156 457.578125 879.953125 459.179688 880.132812 460.792969 C 880.222656 461.589844 880.289062 462.386719 880.335938 463.1875 C 880.441406 465.046875 880.441406 466.90625 880.339844 468.765625 C 880.253906 470.382812 880.074219 471.996094 879.800781 473.59375 C 879.523438 475.21875 879.128906 476.820312 878.625 478.394531 C 878.28125 479.457031 877.882812 480.503906 877.429688 481.523438 C 877.085938 482.296875 876.703125 483.050781 876.292969 483.785156 C 875.671875 484.894531 874.964844 485.949219 874.175781 486.941406 C 873.378906 487.941406 872.484375 488.859375 871.503906 489.683594 C 870.632812 490.40625 869.695312 491.046875 868.707031 491.597656 C 867.972656 492.011719 867.214844 492.378906 866.441406 492.703125 C 865.855469 492.949219 865.261719 493.175781 864.660156 493.378906 C 863.75 493.6875 862.828125 493.953125 861.894531 494.183594 C 859.773438 494.703125 857.621094 495.078125 855.449219 495.300781 C 854.539062 495.394531 853.628906 495.472656 852.714844 495.527344 C 851.335938 495.609375 849.953125 495.660156 848.570312 495.6875 C 847.191406 495.710938 845.8125 495.722656 844.433594 495.71875 L 818.460938 495.71875 C 816.675781 495.722656 814.886719 495.703125 813.101562 495.667969 C 811.367188 495.636719 809.636719 495.558594 807.910156 495.441406 C 807.082031 495.386719 806.257812 495.3125 805.4375 495.226562 C 804.816406 495.160156 804.199219 495.082031 803.582031 494.984375 C 802.636719 494.835938 801.699219 494.636719 800.777344 494.382812 C 798.90625 493.867188 797.113281 493.097656 795.457031 492.089844 C 792.953125 490.582031 790.734375 488.644531 788.902344 486.367188 C 788.296875 485.605469 787.734375 484.808594 787.226562 483.976562 C 786.488281 482.769531 785.84375 481.503906 785.300781 480.195312 C 784.777344 478.9375 784.335938 477.648438 783.976562 476.335938 C 783.503906 474.636719 783.167969 472.902344 782.964844 471.152344 C 782.761719 469.34375 782.675781 467.519531 782.703125 465.699219 C 782.714844 464.714844 782.753906 463.734375 782.820312 462.757812 C 782.925781 461.1875 783.117188 459.628906 783.398438 458.082031 C 783.6875 456.453125 784.097656 454.851562 784.621094 453.28125 C 785.246094 451.410156 786.058594 449.609375 787.050781 447.902344 C 787.679688 446.8125 788.394531 445.769531 789.183594 444.785156 C 789.96875 443.808594 790.839844 442.90625 791.785156 442.085938 C 792.617188 441.375 793.507812 440.734375 794.445312 440.171875 C 795.660156 439.453125 796.9375 438.847656 798.265625 438.363281 C 799.121094 438.046875 799.988281 437.769531 800.871094 437.535156 C 802.867188 436.996094 804.90625 436.613281 806.964844 436.394531 C 807.824219 436.300781 808.6875 436.230469 809.554688 436.175781 C 810.859375 436.101562 812.164062 436.050781 813.472656 436.03125 C 814.773438 436.011719 816.074219 436.003906 817.375 436.007812 L 828.351562 436.007812 L 828.351562 464.195312 L 810.363281 464.195312 C 809.414062 464.191406 808.46875 464.203125 807.519531 464.222656 C 806.738281 464.234375 805.960938 464.277344 805.183594 464.34375 C 804.683594 464.386719 804.1875 464.457031 803.695312 464.554688 C 803.460938 464.601562 803.226562 464.664062 803.003906 464.753906 C 802.976562 464.765625 802.949219 464.777344 802.921875 464.789062 "/>
</svg>