<?xml version="1.0" encoding="UTF-8"?>
<svg xmlns="http://www.w3.org/2000/svg" xmlns:xlink="http://www.w3.org/1999/xlink" 
     width="309.03125" height="720.601562" 
     viewBox="368.484375 2.992188 309.03125 720.601562">
  <path clip-rule="evenodd" d="M 609.496094 4.074219 L 609.675781 482.117188 C 610.980469 484.367188 612.175781 486.683594 613.394531 489.292969 C 614.613281 491.90625 615.855469 494.8125 616.425781 496.699219 C 616.996094 498.582031 616.894531 499.441406 616.867188 500.308594 C 616.839844 501.175781 616.886719 502.046875 617.128906 502.628906 C 617.367188 503.210938 617.804688 503.5 618.277344 503.546875 L 630.480469 503.328125 C 631.441406 503.289062 632.402344 503.542969 633.445312 504.199219 C 634.484375 504.851562 635.605469 505.910156 636.296875 507.066406 C 636.988281 508.226562 637.25 509.488281 637.15625 510.617188 C 637.0625 511.746094 636.613281 512.742188 634.828125 519.53125 C 633.042969 526.316406 629.921875 538.898438 626.867188 551.496094 L 638.839844 551.660156 C 638.984375 550.878906 639.125 550.101562 639.453125 549.527344 C 639.777344 548.957031 640.285156 548.597656 640.796875 548.234375 L 646.253906 548.125 C 648.21875 548.214844 650.1875 548.902344 651.625 550.007812 C 653.0625 551.109375 653.96875 552.632812 654.472656 554.671875 C 654.976562 556.714844 655.070312 559.277344 654.542969 561.210938 C 654.015625 563.140625 652.859375 564.441406 651.730469 565.476562 C 650.605469 566.511719 649.507812 567.28125 647.441406 567.617188 C 645.378906 567.957031 642.34375 567.863281 638.101562 567.84375 C 633.855469 567.824219 628.398438 567.878906 622.9375 567.914062 C 622.3125 569.015625 621.769531 570.160156 621.273438 571.386719 C 620.773438 572.609375 620.328125 573.914062 620.050781 575.625 C 619.773438 577.332031 619.671875 579.445312 619.769531 580.769531 C 619.863281 582.097656 620.160156 582.628906 620.632812 582.992188 L 673.03125 582.902344 C 674 583.625 674.96875 584.351562 675.703125 584.871094 C 676.433594 585.390625 676.929688 585.703125 677.425781 586.019531 L 677.515625 663.160156 L 672.859375 665.160156 L 622.207031 665.273438 C 621.257812 674.609375 619.183594 683.835938 616.28125 692.316406 C 613.382812 700.796875 609.65625 708.527344 605.183594 713.71875 C 600.710938 718.90625 595.492188 721.554688 590.261719 722.566406 C 585.03125 723.582031 579.789062 722.960938 574.792969 722.960938 C 569.796875 722.964844 565.046875 723.59375 558.777344 719.886719 C 552.511719 716.183594 544.730469 708.148438 538.894531 698.339844 C 533.054688 688.53125 529.160156 676.949219 527.703125 665.113281 C 516.867188 665.3125 506.035156 665.511719 479.496094 665.582031 C 452.960938 665.65625 410.722656 665.597656 368.484375 665.542969 L 368.519531 657.464844 L 376.070312 657.464844 L 376.113281 653.664062 L 390.097656 653.664062 L 390.097656 643.378906 L 383.390625 643.378906 L 383.390625 641.375 L 372.6875 641.375 L 372.6875 634.945312 L 381.394531 634.945312 L 381.40625 631.347656 L 387.867188 631.347656 L 387.882812 628.683594 L 389.84375 628.574219 L 389.84375 624.542969 L 380.371094 624.542969 L 380.261719 622.90625 L 368.71875 623.015625 L 368.828125 617.347656 L 372.746094 617.347656 L 372.636719 616.148438 L 375.46875 616.039062 L 376.449219 611.027344 L 382.984375 607.648438 L 382.984375 599.910156 L 385.703125 599.910156 L 385.597656 596.3125 L 389.296875 596.3125 L 389.296875 593.699219 L 378.734375 593.699219 L 378.84375 592.171875 L 375.6875 592.171875 L 376.449219 590.101562 L 381.675781 588.46875 L 381.351562 586.722656 L 374.925781 586.722656 L 376.886719 584.324219 L 390.714844 584.324219 L 390.714844 583.128906 L 506.851562 583.300781 L 500.734375 565.46875 L 450.953125 565.46875 L 446.085938 560.980469 L 444.839844 522.699219 L 450.703125 513.347656 C 460.433594 514.101562 470.160156 514.855469 477.355469 515.125 C 484.550781 515.394531 489.214844 515.183594 493.875 514.96875 L 493.878906 507.695312 L 498.761719 503.925781 L 504.324219 503.953125 L 508.820312 500.96875 L 522.75 496.398438 C 522.664062 494.644531 522.839844 492.878906 523.273438 491.246094 C 523.703125 489.617188 524.386719 488.125 525.292969 486.621094 C 526.195312 485.121094 527.324219 483.605469 528.59375 482.226562 L 527.660156 4.074219 C 528.011719 3.523438 528.664062 3.132812 529.289062 3.152344 C 529.917969 3.171875 530.519531 3.601562 530.914062 4.089844 C 531.308594 4.574219 531.5 5.113281 531.902344 5.398438 C 532.308594 5.683594 532.929688 5.710938 533.136719 5.238281 C 533.34375 4.769531 533.140625 3.804688 533.394531 3.398438 C 533.652344 2.992188 534.371094 3.148438 534.792969 3.429688 C 535.214844 3.710938 535.34375 4.125 535.570312 4.695312 C 535.800781 5.269531 536.136719 6 536.59375 6.082031 C 537.046875 6.160156 537.628906 5.589844 537.828125 4.925781 C 538.027344 4.261719 537.84375 3.503906 538.269531 3.3125 C 538.699219 3.121094 539.738281 3.5 540.246094 4.109375 C 540.753906 4.714844 540.730469 5.550781 540.902344 6.011719 C 541.078125 6.472656 541.453125 6.558594 541.773438 6.476562 C 542.097656 6.390625 542.367188 6.136719 542.566406 5.761719 C 542.761719 5.386719 542.882812 4.894531 543.355469 5.039062 C 543.828125 5.1875 544.652344 5.972656 545.171875 5.929688 C 545.6875 5.886719 545.898438 5.007812 546.332031 4.753906 C 546.765625 4.5 547.425781 4.871094 548.167969 5.15625 C 548.910156 5.441406 549.734375 5.644531 550.273438 5.484375 C 550.808594 5.328125 551.054688 4.8125 551.472656 4.605469 C 551.886719 4.398438 552.472656 4.503906 553 4.929688 C 553.527344 5.355469 553.996094 6.105469 554.496094 6.328125 C 555 6.550781 555.535156 6.246094 555.921875 5.8125 C 556.308594 5.378906 556.542969 4.8125 557.046875 4.578125 C 557.550781 4.34375 558.328125 4.445312 558.6875 4.8125 C 559.050781 5.179688 559.003906 5.8125 559.214844 6.117188 C 559.429688 6.425781 559.902344 6.402344 560.316406 6.144531 C 560.734375 5.886719 561.09375 5.390625 561.539062 5.304688 C 561.992188 5.214844 562.527344 5.535156 563.144531 5.867188 C 563.761719 6.195312 564.457031 6.53125 564.992188 6.3125 C 565.527344 6.097656 565.898438 5.328125 566.386719 5.089844 C 566.878906 4.847656 567.480469 5.132812 567.871094 5.660156 C 568.261719 6.191406 568.433594 6.964844 568.773438 7.085938 C 569.113281 7.207031 569.617188 6.675781 570.210938 6.265625 C 570.804688 5.855469 571.480469 5.570312 572.238281 5.738281 C 572.996094 5.910156 573.835938 6.542969 574.5625 6.492188 C 575.289062 6.445312 575.90625 5.714844 576.429688 5.660156 C 576.953125 5.609375 577.382812 6.238281 577.769531 6.867188 C 578.152344 7.496094 578.488281 8.121094 579.097656 8.429688 C 579.703125 8.738281 580.574219 8.726562 581.179688 8.449219 C 581.789062 8.171875 582.128906 7.628906 582.5 7.230469 C 582.871094 6.828125 583.277344 6.574219 583.683594 6.539062 C 584.085938 6.503906 584.488281 6.6875 585.070312 6.988281 C 585.652344 7.292969 586.410156 7.714844 586.980469 7.695312 C 587.546875 7.675781 587.917969 7.210938 588.347656 6.714844 C 588.777344 6.21875 589.261719 5.6875 589.757812 5.726562 C 590.253906 5.765625 590.761719 6.371094 591.339844 6.839844 C 591.921875 7.308594 592.574219 7.636719 592.945312 7.355469 C 593.3125 7.074219 593.398438 6.183594 593.761719 5.738281 C 594.125 5.296875 594.769531 5.300781 595.238281 5.734375 C 595.703125 6.164062 595.996094 7.019531 596.472656 7.382812 C 596.949219 7.742188 597.609375 7.609375 598.074219 7.230469 C 598.539062 6.851562 598.8125 6.226562 599.285156 5.902344 C 599.757812 5.578125 600.429688 5.554688 600.898438 6.035156 C 601.367188 6.523438 601.636719 7.515625 602.121094 8.007812 C 602.605469 8.5 603.304688 8.488281 603.679688 8.109375 C 604.050781 7.730469 604.09375 6.984375 604.394531 6.628906 C 604.695312 6.273438 605.253906 6.3125 605.832031 6.605469 C 606.410156 6.898438 607.007812 7.453125 607.433594 7.367188 C 607.863281 7.277344 608.121094 6.554688 608.433594 5.894531 C 608.746094 5.238281 609.113281 4.648438 609.496094 4.074219 "/>
</svg>