<?xml version="1.0" encoding="UTF-8"?>
<svg xmlns="http://www.w3.org/2000/svg" xmlns:xlink="http://www.w3.org/1999/xlink" 
     width="97.76953100000003" height="59.71875" 
     viewBox="416.765625 436.003906 97.76953100000003 59.71875">
  <path fill-rule="evenodd" fill="rgb(97.410583%, 97.364807%, 97.375488%)" fill-opacity="1" d="M 437.015625 464.789062 C 436.984375 464.871094 436.960938 464.957031 436.949219 465.042969 C 436.914062 465.257812 436.902344 465.476562 436.910156 465.691406 C 436.910156 465.960938 436.9375 466.230469 437 466.492188 C 437.023438 466.601562 437.0625 466.710938 437.117188 466.808594 C 437.183594 466.847656 437.253906 466.882812 437.324219 466.910156 C 437.511719 466.980469 437.707031 467.035156 437.902344 467.078125 C 438.316406 467.167969 438.730469 467.234375 439.152344 467.285156 C 439.933594 467.375 440.71875 467.4375 441.507812 467.464844 C 442.734375 467.511719 443.964844 467.535156 445.191406 467.53125 L 486.492188 467.53125 C 487.03125 467.53125 487.570312 467.527344 488.113281 467.519531 C 488.871094 467.511719 489.628906 467.488281 490.386719 467.449219 C 490.726562 467.429688 491.0625 467.40625 491.394531 467.378906 C 491.996094 467.328125 492.597656 467.25 493.191406 467.140625 C 493.46875 467.089844 493.738281 467.019531 494 466.921875 C 494.074219 466.894531 494.148438 466.859375 494.214844 466.816406 C 494.253906 466.757812 494.28125 466.691406 494.300781 466.621094 C 494.367188 466.371094 494.398438 466.113281 494.390625 465.851562 C 494.394531 465.625 494.371094 465.398438 494.316406 465.175781 C 494.300781 465.097656 494.269531 465.023438 494.230469 464.957031 C 494.152344 464.90625 494.066406 464.863281 493.980469 464.832031 C 493.78125 464.761719 493.582031 464.703125 493.378906 464.65625 C 492.949219 464.5625 492.515625 464.492188 492.078125 464.441406 C 491.253906 464.347656 490.421875 464.285156 489.59375 464.257812 C 488.273438 464.210938 486.957031 464.191406 485.640625 464.195312 L 471.929688 464.195312 L 471.929688 436.007812 L 477.925781 436.007812 C 479.171875 436.007812 480.417969 436.007812 481.660156 436.015625 C 482.597656 436.023438 483.53125 436.039062 484.46875 436.066406 C 485.855469 436.101562 487.242188 436.175781 488.625 436.289062 C 491.101562 436.488281 493.554688 436.90625 495.957031 437.539062 C 496.753906 437.753906 497.542969 437.996094 498.320312 438.273438 C 499.472656 438.683594 500.589844 439.179688 501.664062 439.765625 C 502.753906 440.355469 503.785156 441.050781 504.742188 441.832031 C 505.609375 442.542969 506.414062 443.320312 507.160156 444.15625 C 507.722656 444.789062 508.253906 445.449219 508.75 446.132812 C 509.496094 447.164062 510.175781 448.25 510.773438 449.375 C 511.894531 451.472656 512.757812 453.699219 513.351562 456.003906 C 513.753906 457.578125 514.046875 459.179688 514.226562 460.792969 C 514.316406 461.589844 514.382812 462.386719 514.429688 463.1875 C 514.53125 465.046875 514.535156 466.90625 514.433594 468.765625 C 514.347656 470.382812 514.167969 471.996094 513.894531 473.59375 C 513.613281 475.21875 513.222656 476.820312 512.71875 478.394531 C 512.375 479.457031 511.976562 480.503906 511.519531 481.523438 C 511.175781 482.296875 510.796875 483.050781 510.386719 483.785156 C 509.765625 484.894531 509.058594 485.949219 508.265625 486.941406 C 507.472656 487.941406 506.574219 488.859375 505.59375 489.683594 C 504.722656 490.40625 503.789062 491.046875 502.796875 491.597656 C 502.066406 492.011719 501.308594 492.378906 500.53125 492.703125 C 499.949219 492.949219 499.355469 493.175781 498.753906 493.378906 C 497.84375 493.6875 496.921875 493.953125 495.984375 494.183594 C 493.867188 494.703125 491.714844 495.078125 489.539062 495.300781 C 488.632812 495.394531 487.71875 495.472656 486.808594 495.527344 C 485.425781 495.609375 484.046875 495.660156 482.664062 495.6875 C 481.285156 495.710938 479.90625 495.722656 478.523438 495.71875 L 452.554688 495.71875 C 450.765625 495.722656 448.980469 495.703125 447.191406 495.667969 C 445.460938 495.636719 443.730469 495.558594 442.003906 495.441406 C 441.175781 495.386719 440.351562 495.3125 439.527344 495.226562 C 438.910156 495.160156 438.289062 495.082031 437.675781 494.984375 C 436.730469 494.835938 435.792969 494.636719 434.871094 494.382812 C 433 493.867188 431.207031 493.097656 429.546875 492.089844 C 427.046875 490.582031 424.828125 488.644531 422.996094 486.367188 C 422.390625 485.605469 421.828125 484.808594 421.320312 483.976562 C 420.578125 482.769531 419.9375 481.503906 419.394531 480.195312 C 418.871094 478.9375 418.425781 477.648438 418.066406 476.335938 C 417.597656 474.636719 417.261719 472.902344 417.058594 471.152344 C 416.855469 469.34375 416.765625 467.519531 416.796875 465.699219 C 416.808594 464.714844 416.847656 463.734375 416.914062 462.757812 C 417.019531 461.1875 417.210938 459.628906 417.488281 458.082031 C 417.78125 456.453125 418.1875 454.851562 418.714844 453.28125 C 419.339844 451.410156 420.152344 449.609375 421.140625 447.902344 C 421.773438 446.8125 422.488281 445.769531 423.277344 444.785156 C 424.0625 443.808594 424.929688 442.90625 425.878906 442.085938 C 426.710938 441.375 427.597656 440.734375 428.539062 440.171875 C 429.753906 439.453125 431.03125 438.847656 432.359375 438.363281 C 433.214844 438.046875 434.082031 437.769531 434.964844 437.535156 C 436.960938 436.996094 439 436.613281 441.058594 436.394531 C 441.917969 436.300781 442.78125 436.230469 443.648438 436.175781 C 444.953125 436.101562 446.257812 436.050781 447.566406 436.03125 C 448.867188 436.011719 450.167969 436.003906 451.46875 436.007812 L 462.445312 436.007812 L 462.445312 464.195312 L 444.457031 464.195312 C 443.507812 464.191406 442.5625 464.203125 441.613281 464.222656 C 440.832031 464.234375 440.050781 464.277344 439.273438 464.34375 C 438.777344 464.386719 438.28125 464.457031 437.789062 464.554688 C 437.554688 464.601562 437.320312 464.664062 437.09375 464.753906 C 437.066406 464.765625 437.039062 464.777344 437.015625 464.789062 "/>
</svg>