<?xml version="1.0" encoding="UTF-8"?>
<svg xmlns="http://www.w3.org/2000/svg" xmlns:xlink="http://www.w3.org/1999/xlink" 
     width="90.77734299999997" height="52.882813000000056" 
     viewBox="787.105469 374.644531 90.77734299999997 52.882813000000056">
  <path fill-rule="evenodd" fill="rgb(92.939758%, 10.978699%, 14.118958%)" fill-opacity="1" d="M 787.105469 374.644531 C 801.960938 374.644531 831.671875 374.644531 846.523438 374.644531 C 853.261719 374.644531 857.992188 374.863281 860.722656 375.300781 C 863.449219 375.742188 866.25 377.039062 869.121094 379.203125 C 871.996094 381.359375 874.175781 384.207031 875.660156 387.742188 C 877.140625 391.273438 877.882812 395.4375 877.882812 400.234375 C 877.882812 405.542969 877.003906 410.230469 875.246094 414.292969 C 873.488281 418.359375 871.199219 421.394531 868.382812 423.410156 C 865.5625 425.425781 862.589844 426.613281 859.457031 426.980469 C 856.328125 427.347656 849.746094 427.527344 839.714844 427.527344 L 787.105469 427.527344 L 787.105469 404.410156 L 853.773438 404.410156 C 857.65625 404.410156 860.136719 404.199219 861.214844 403.777344 C 862.296875 403.355469 862.835938 402.503906 862.835938 401.222656 C 862.835938 399.757812 862.238281 398.816406 861.050781 398.394531 C 859.859375 397.972656 857.050781 397.765625 852.621094 397.765625 L 787.105469 397.765625 L 787.105469 374.644531 "/>
</svg>