<?xml version="1.0" encoding="UTF-8"?>
<svg xmlns="http://www.w3.org/2000/svg" xmlns:xlink="http://www.w3.org/1999/xlink" 
     width="95.859375" height="57.953124" 
     viewBox="52.753906 372.117188 95.859375 57.953124">
  <path fill-rule="evenodd" fill="rgb(97.410583%, 97.364807%, 97.375488%)" fill-opacity="1" d="M 128.472656 401.40625 C 128.484375 401.335938 128.488281 401.265625 128.484375 401.195312 C 128.488281 401.074219 128.472656 400.953125 128.441406 400.835938 C 128.328125 400.785156 128.214844 400.75 128.097656 400.726562 C 127.835938 400.664062 127.570312 400.617188 127.304688 400.582031 C 126.683594 400.496094 126.0625 400.4375 125.4375 400.40625 C 124.707031 400.363281 123.972656 400.339844 123.242188 400.324219 C 122.429688 400.3125 121.617188 400.304688 120.804688 400.304688 L 52.753906 400.304688 L 52.753906 372.117188 L 114.707031 372.117188 C 115.609375 372.117188 116.511719 372.117188 117.410156 372.121094 C 118.746094 372.125 120.082031 372.144531 121.417969 372.183594 C 122.6875 372.214844 123.960938 372.28125 125.226562 372.378906 C 126.015625 372.4375 126.804688 372.515625 127.589844 372.609375 C 128.171875 372.683594 128.75 372.769531 129.328125 372.871094 C 130.207031 373.03125 131.078125 373.238281 131.933594 373.5 C 132.828125 373.773438 133.703125 374.113281 134.550781 374.511719 C 135.34375 374.886719 136.109375 375.3125 136.851562 375.777344 C 138.597656 376.878906 140.199219 378.191406 141.617188 379.6875 C 142.734375 380.859375 143.71875 382.148438 144.550781 383.535156 C 145.230469 384.675781 145.820312 385.867188 146.3125 387.097656 C 146.785156 388.28125 147.183594 389.492188 147.496094 390.726562 C 147.902344 392.3125 148.195312 393.925781 148.367188 395.554688 C 148.539062 397.171875 148.613281 398.800781 148.597656 400.429688 C 148.589844 402.128906 148.488281 403.824219 148.296875 405.511719 C 148.089844 407.304688 147.761719 409.078125 147.304688 410.824219 C 147.066406 411.730469 146.792969 412.628906 146.480469 413.511719 C 146.007812 414.867188 145.433594 416.191406 144.769531 417.46875 C 144.433594 418.113281 144.070312 418.746094 143.679688 419.359375 C 142.242188 421.628906 140.417969 423.625 138.289062 425.257812 C 136.796875 426.410156 135.160156 427.355469 133.421875 428.070312 C 132.578125 428.410156 131.710938 428.691406 130.828125 428.914062 C 129.675781 429.195312 128.507812 429.402344 127.328125 429.53125 C 126.539062 429.621094 125.75 429.6875 124.960938 429.738281 C 123.011719 429.859375 121.066406 429.9375 119.117188 429.980469 C 117.296875 430.019531 115.476562 430.046875 113.65625 430.054688 C 111.738281 430.066406 109.816406 430.070312 107.898438 430.070312 L 52.753906 430.070312 L 52.753906 401.882812 L 121.957031 401.882812 C 123.105469 401.886719 124.253906 401.863281 125.402344 401.816406 C 126.097656 401.789062 126.792969 401.726562 127.480469 401.628906 C 127.816406 401.585938 128.148438 401.511719 128.472656 401.40625 "/>
</svg>