<?xml version="1.0" encoding="UTF-8"?>
<svg xmlns="http://www.w3.org/2000/svg" xmlns:xlink="http://www.w3.org/1999/xlink" 
     width="95.85937500000006" height="57.953124" 
     viewBox="418.660156 372.117188 95.85937500000006 57.953124">
  <path fill-rule="evenodd" fill="rgb(97.410583%, 97.364807%, 97.375488%)" fill-opacity="1" d="M 494.378906 401.40625 C 494.390625 401.335938 494.394531 401.265625 494.390625 401.195312 C 494.394531 401.074219 494.378906 400.953125 494.347656 400.835938 C 494.234375 400.785156 494.121094 400.75 494.003906 400.726562 C 493.742188 400.664062 493.476562 400.617188 493.210938 400.582031 C 492.59375 400.496094 491.96875 400.4375 491.347656 400.40625 C 490.613281 400.363281 489.882812 400.339844 489.148438 400.324219 C 488.335938 400.3125 487.523438 400.304688 486.710938 400.304688 L 418.660156 400.304688 L 418.660156 372.117188 L 480.613281 372.117188 C 481.515625 372.117188 482.417969 372.117188 483.316406 372.121094 C 484.652344 372.125 485.988281 372.144531 487.324219 372.183594 C 488.597656 372.214844 489.867188 372.28125 491.136719 372.378906 C 491.921875 372.4375 492.710938 372.515625 493.496094 372.609375 C 494.078125 372.683594 494.65625 372.769531 495.234375 372.871094 C 496.113281 373.03125 496.984375 373.238281 497.839844 373.5 C 498.734375 373.773438 499.609375 374.113281 500.457031 374.511719 C 501.25 374.886719 502.019531 375.3125 502.761719 375.777344 C 504.503906 376.878906 506.105469 378.191406 507.527344 379.6875 C 508.640625 380.859375 509.625 382.148438 510.457031 383.535156 C 511.140625 384.675781 511.730469 385.867188 512.222656 387.097656 C 512.695312 388.28125 513.089844 389.492188 513.40625 390.726562 C 513.8125 392.3125 514.101562 393.925781 514.273438 395.554688 C 514.445312 397.171875 514.519531 398.800781 514.503906 400.429688 C 514.496094 402.128906 514.398438 403.824219 514.203125 405.511719 C 513.996094 407.304688 513.667969 409.078125 513.210938 410.824219 C 512.976562 411.730469 512.699219 412.628906 512.390625 413.511719 C 511.914062 414.867188 511.34375 416.191406 510.679688 417.46875 C 510.339844 418.113281 509.976562 418.746094 509.585938 419.359375 C 508.148438 421.628906 506.324219 423.625 504.195312 425.257812 C 502.703125 426.410156 501.066406 427.355469 499.328125 428.070312 C 498.484375 428.410156 497.617188 428.691406 496.734375 428.914062 C 495.585938 429.195312 494.414062 429.402344 493.234375 429.53125 C 492.449219 429.621094 491.65625 429.6875 490.867188 429.738281 C 488.921875 429.859375 486.972656 429.9375 485.023438 429.980469 C 483.203125 430.019531 481.382812 430.046875 479.5625 430.054688 C 477.644531 430.066406 475.722656 430.070312 473.804688 430.070312 L 418.660156 430.070312 L 418.660156 401.882812 L 487.863281 401.882812 C 489.011719 401.886719 490.160156 401.863281 491.308594 401.816406 C 492.003906 401.789062 492.699219 401.726562 493.390625 401.628906 C 493.726562 401.585938 494.054688 401.511719 494.378906 401.40625 "/>
</svg>