<?xml version="1.0" encoding="UTF-8"?>
<svg xmlns="http://www.w3.org/2000/svg" xmlns:xlink="http://www.w3.org/1999/xlink" 
     width="97.75390599999992" height="57.953125" 
     viewBox="782.691406 189.484375 97.75390599999992 57.953125">
  <path fill-rule="evenodd" fill="rgb(97.410583%, 97.364807%, 97.375488%)" fill-opacity="1" d="M 816.546875 215.101562 C 817.042969 214.328125 817.539062 213.546875 818.027344 212.765625 C 819.101562 211.058594 820.1875 209.359375 821.285156 207.671875 C 821.898438 206.726562 822.523438 205.785156 823.160156 204.855469 C 823.777344 203.941406 824.414062 203.039062 825.0625 202.144531 C 825.660156 201.316406 826.285156 200.503906 826.925781 199.703125 C 827.375 199.148438 827.839844 198.601562 828.316406 198.066406 C 828.988281 197.3125 829.699219 196.589844 830.445312 195.910156 C 831.160156 195.257812 831.914062 194.652344 832.707031 194.101562 C 833.90625 193.269531 835.191406 192.570312 836.542969 192.019531 C 837.410156 191.667969 838.296875 191.363281 839.199219 191.117188 C 840.128906 190.859375 841.066406 190.644531 842.015625 190.472656 C 842.894531 190.308594 843.78125 190.171875 844.671875 190.0625 C 846.066406 189.886719 847.460938 189.757812 848.863281 189.675781 C 851.21875 189.53125 853.582031 189.484375 855.945312 189.527344 C 856.644531 189.546875 857.347656 189.574219 858.046875 189.617188 C 859.085938 189.679688 860.121094 189.785156 861.148438 189.933594 C 862.171875 190.078125 863.179688 190.28125 864.179688 190.539062 C 865.058594 190.765625 865.921875 191.050781 866.769531 191.386719 C 868.363281 192.019531 869.863281 192.871094 871.222656 193.921875 C 872.058594 194.578125 872.839844 195.308594 873.542969 196.105469 C 874.183594 196.835938 874.773438 197.609375 875.304688 198.421875 C 875.707031 199.035156 876.082031 199.671875 876.429688 200.320312 C 876.953125 201.300781 877.421875 202.3125 877.835938 203.347656 C 878.246094 204.378906 878.605469 205.425781 878.914062 206.492188 C 879.453125 208.34375 879.839844 210.230469 880.078125 212.144531 C 880.199219 213.089844 880.285156 214.035156 880.339844 214.988281 C 880.445312 216.914062 880.4375 218.84375 880.316406 220.769531 C 880.222656 222.269531 880.046875 223.765625 879.789062 225.246094 C 879.519531 226.777344 879.15625 228.285156 878.6875 229.769531 C 878.132812 231.546875 877.417969 233.269531 876.550781 234.914062 C 875.996094 235.972656 875.363281 236.988281 874.660156 237.957031 C 874.308594 238.433594 873.9375 238.898438 873.546875 239.34375 C 872.480469 240.570312 871.25 241.644531 869.890625 242.527344 C 869.257812 242.9375 868.605469 243.3125 867.933594 243.644531 C 866.9375 244.136719 865.910156 244.554688 864.859375 244.902344 C 862.871094 245.554688 860.828125 246.015625 858.753906 246.285156 C 858.019531 246.378906 857.28125 246.453125 856.539062 246.511719 C 855.4375 246.59375 854.335938 246.644531 853.234375 246.671875 C 852.148438 246.695312 851.0625 246.703125 849.980469 246.703125 L 841.628906 246.703125 L 841.628906 225.132812 C 840.335938 227.007812 839.054688 228.890625 837.789062 230.78125 C 837.074219 231.84375 836.351562 232.902344 835.621094 233.953125 C 834.917969 234.96875 834.191406 235.972656 833.441406 236.960938 C 832.980469 237.574219 832.5 238.171875 832.003906 238.757812 C 831.648438 239.179688 831.28125 239.59375 830.902344 239.996094 C 830.351562 240.585938 829.765625 241.144531 829.152344 241.675781 C 827.984375 242.683594 826.703125 243.550781 825.335938 244.265625 C 824.355469 244.78125 823.339844 245.226562 822.296875 245.601562 C 820.527344 246.230469 818.703125 246.6875 816.847656 246.960938 C 815.410156 247.171875 813.960938 247.304688 812.503906 247.359375 C 810.695312 247.429688 808.882812 247.4375 807.070312 247.378906 C 806.375 247.355469 805.679688 247.316406 804.984375 247.265625 C 803.914062 247.1875 802.847656 247.070312 801.785156 246.90625 C 800.714844 246.742188 799.648438 246.515625 798.605469 246.230469 C 797.683594 245.976562 796.785156 245.664062 795.90625 245.296875 C 794.609375 244.75 793.371094 244.066406 792.222656 243.257812 C 791.070312 242.441406 790.019531 241.496094 789.085938 240.4375 C 788.460938 239.726562 787.890625 238.972656 787.375 238.179688 C 786.988281 237.585938 786.628906 236.972656 786.296875 236.347656 C 785.804688 235.410156 785.363281 234.441406 784.984375 233.453125 C 784.277344 231.613281 783.742188 229.714844 783.382812 227.777344 C 783.132812 226.433594 782.953125 225.078125 782.847656 223.71875 C 782.742188 222.355469 782.691406 220.984375 782.699219 219.617188 C 782.703125 218.691406 782.730469 217.761719 782.78125 216.835938 C 782.859375 215.402344 783.003906 213.976562 783.214844 212.558594 C 783.425781 211.105469 783.722656 209.660156 784.097656 208.238281 C 784.539062 206.550781 785.113281 204.898438 785.820312 203.304688 C 786.269531 202.289062 786.785156 201.304688 787.367188 200.359375 C 787.9375 199.425781 788.589844 198.546875 789.3125 197.726562 C 790.40625 196.503906 791.6875 195.453125 793.101562 194.617188 C 793.992188 194.09375 794.921875 193.644531 795.886719 193.273438 C 797.773438 192.546875 799.742188 192.050781 801.75 191.796875 C 802.476562 191.703125 803.210938 191.632812 803.941406 191.582031 C 805.042969 191.511719 806.144531 191.46875 807.246094 191.453125 C 808.328125 191.441406 809.414062 191.4375 810.5 191.4375 L 816.546875 191.4375 Z M 814.578125 217.980469 L 807.417969 217.980469 C 806.777344 217.976562 806.136719 217.984375 805.496094 218.007812 C 805.144531 218.019531 804.796875 218.046875 804.445312 218.078125 C 804.09375 218.113281 803.742188 218.175781 803.398438 218.265625 C 803.25 218.304688 803.105469 218.355469 802.964844 218.417969 C 802.933594 218.429688 802.898438 218.449219 802.871094 218.46875 C 802.839844 218.554688 802.820312 218.648438 802.816406 218.738281 C 802.800781 218.980469 802.824219 219.222656 802.886719 219.453125 C 802.917969 219.578125 802.972656 219.699219 803.046875 219.804688 C 803.117188 219.882812 803.199219 219.953125 803.289062 220.011719 C 803.4375 220.101562 803.589844 220.179688 803.753906 220.238281 C 804.082031 220.363281 804.421875 220.457031 804.769531 220.515625 C 805.242188 220.597656 805.722656 220.652344 806.203125 220.679688 C 807.640625 220.757812 809.085938 220.6875 810.507812 220.464844 C 810.886719 220.40625 811.257812 220.328125 811.625 220.230469 C 811.984375 220.132812 812.328125 219.992188 812.652344 219.808594 C 812.914062 219.65625 813.164062 219.476562 813.390625 219.273438 C 813.824219 218.882812 814.222656 218.449219 814.578125 217.980469 Z M 845.125 220.160156 L 854.980469 220.160156 C 855.683594 220.164062 856.382812 220.152344 857.082031 220.128906 C 857.46875 220.113281 857.855469 220.085938 858.242188 220.046875 C 858.644531 220.011719 859.046875 219.9375 859.441406 219.835938 C 859.617188 219.785156 859.789062 219.726562 859.960938 219.648438 C 860.03125 219.617188 860.097656 219.578125 860.15625 219.527344 C 860.191406 219.472656 860.214844 219.414062 860.230469 219.351562 C 860.265625 219.226562 860.285156 219.09375 860.292969 218.960938 C 860.320312 218.640625 860.289062 218.320312 860.214844 218.007812 C 860.175781 217.847656 860.109375 217.695312 860.011719 217.5625 C 859.929688 217.464844 859.835938 217.382812 859.726562 217.316406 C 859.5625 217.214844 859.390625 217.128906 859.210938 217.058594 C 858.855469 216.925781 858.488281 216.824219 858.117188 216.757812 C 857.582031 216.660156 857.039062 216.601562 856.496094 216.578125 C 856.074219 216.558594 855.652344 216.550781 855.230469 216.550781 C 853.886719 216.550781 852.539062 216.632812 851.203125 216.789062 C 850.785156 216.839844 850.371094 216.902344 849.960938 216.976562 C 849.613281 217.039062 849.269531 217.113281 848.929688 217.207031 C 848.441406 217.335938 847.96875 217.519531 847.523438 217.761719 C 847.292969 217.890625 847.074219 218.035156 846.871094 218.203125 C 846.65625 218.378906 846.457031 218.566406 846.269531 218.765625 C 845.941406 219.117188 845.636719 219.484375 845.347656 219.863281 C 845.273438 219.964844 845.199219 220.0625 845.125 220.160156 "/>
</svg>