<?xml version="1.0" encoding="UTF-8"?>
<svg xmlns="http://www.w3.org/2000/svg" xmlns:xlink="http://www.w3.org/1999/xlink" 
     width="90.777344" height="52.882813000000056" 
     viewBox="55.289062 374.644531 90.777344 52.882813000000056">
  <path fill-rule="evenodd" fill="rgb(92.939758%, 10.978699%, 14.118958%)" fill-opacity="1" d="M 55.289062 374.644531 C 70.144531 374.644531 99.855469 374.644531 114.710938 374.644531 C 121.445312 374.644531 126.179688 374.863281 128.90625 375.300781 C 131.632812 375.742188 134.433594 377.039062 137.308594 379.203125 C 140.183594 381.359375 142.359375 384.207031 143.84375 387.742188 C 145.328125 391.273438 146.066406 395.4375 146.066406 400.234375 C 146.066406 405.542969 145.1875 410.230469 143.433594 414.292969 C 141.675781 418.359375 139.386719 421.394531 136.566406 423.410156 C 133.746094 425.425781 130.773438 426.613281 127.644531 426.980469 C 124.511719 427.347656 117.933594 427.527344 107.898438 427.527344 L 55.289062 427.527344 L 55.289062 404.410156 L 121.960938 404.410156 C 125.839844 404.410156 128.320312 404.199219 129.402344 403.777344 C 130.480469 403.355469 131.019531 402.503906 131.019531 401.222656 C 131.019531 399.757812 130.425781 398.816406 129.234375 398.394531 C 128.046875 397.972656 125.234375 397.765625 120.804688 397.765625 L 55.289062 397.765625 L 55.289062 374.644531 "/>
</svg>