<?xml version="1.0" encoding="UTF-8"?>
<svg xmlns="http://www.w3.org/2000/svg" xmlns:xlink="http://www.w3.org/1999/xlink" width="241.113282" height="218.386718" viewBox="3.976562 3.527344 241.113282 218.386718">
<path fill-rule="evenodd" fill="rgb(100%, 100%, 100%)" fill-opacity="1" d="M 244.773438 8.546875 C 244.636719 5.828125 242.425781 3.675781 239.707031 3.617188 C 237.300781 3.585938 8.457031 3.527344 7.316406 4.003906 C 5.398438 4.757812 4.101562 6.570312 4.007812 8.628906 L 3.976562 191.675781 C 4.109375 195.488281 6.769531 196.347656 9.707031 197.773438 C 35.34375 210.246094 63.046875 217.921875 91.445312 220.417969 C 104.738281 221.671875 118.105469 221.914062 131.433594 221.140625 C 147.195312 220.292969 162.84375 217.960938 178.167969 214.179688 C 200.242188 208.832031 221.347656 200.066406 240.714844 188.207031 C 243.457031 186.71875 245.089844 183.78125 244.90625 180.671875 L 244.820312 122.503906 C 244.734375 121.25 244.773438 8.546875 244.773438 8.546875 "/>
<path fill-rule="evenodd" fill="rgb(100%, 100%, 100%)" fill-opacity="1" d="M 94.980469 139.625 C 92.929688 138.695312 90.96875 138.183594 88.863281 138.183594 C 85.460938 138.191406 83.0625 139.789062 81.738281 142.828125 C 80.140625 146.492188 80.203125 150.28125 81.726562 153.960938 C 83.082031 157.226562 86.449219 158.90625 89.921875 158.285156 C 90.972656 158.097656 91.667969 157.742188 91.574219 156.449219 C 91.46875 154.945312 91.5 153.429688 91.566406 151.921875 C 91.617188 150.757812 91.101562 150.335938 90.007812 150.429688 C 89.691406 150.453125 89.371094 150.441406 89.054688 150.429688 C 87.355469 150.367188 87.355469 150.363281 87.328125 148.710938 C 87.296875 146.613281 87.296875 146.601562 89.390625 146.582031 C 91.21875 146.566406 93.050781 146.613281 94.875 146.570312 C 95.894531 146.546875 96.285156 146.941406 96.277344 147.96875 C 96.242188 151.863281 96.226562 155.757812 96.285156 159.652344 C 96.304688 160.746094 95.835938 161.261719 94.878906 161.515625 C 90.789062 162.605469 86.691406 162.847656 82.726562 161.164062 C 78.371094 159.320312 76.238281 155.703125 75.511719 151.207031 C 75.074219 148.519531 75.160156 145.796875 75.980469 143.175781 C 77.519531 138.257812 80.800781 135.300781 85.9375 134.394531 C 88.746094 133.898438 91.460938 134.210938 94.191406 134.878906 C 95.152344 135.117188 95.53125 135.601562 95.394531 136.558594 C 95.265625 137.492188 95.457031 138.464844 94.980469 139.625 "/>
<path fill-rule="evenodd" fill="rgb(100%, 100%, 100%)" fill-opacity="1" d="M 168.546875 152.386719 C 168.597656 153.433594 168.484375 154.933594 167.957031 156.367188 C 167.449219 157.746094 166.488281 158.683594 164.980469 158.714844 C 163.480469 158.746094 162.394531 157.886719 161.902344 156.507812 C 160.800781 153.425781 160.789062 150.28125 161.914062 147.203125 C 162.503906 145.59375 163.707031 144.921875 165.222656 145.011719 C 166.746094 145.101562 167.566406 145.878906 168.128906 147.675781 C 168.566406 149.066406 168.515625 150.492188 168.546875 152.386719 M 161.246094 144.007812 C 160.796875 143.851562 160.785156 143.59375 160.804688 143.386719 C 160.945312 141.957031 160.191406 141.566406 158.933594 141.714844 C 158.617188 141.75 158.296875 141.714844 157.976562 141.71875 C 156.199219 141.757812 156.195312 141.757812 156.199219 143.578125 C 156.203125 151.453125 156.210938 159.324219 156.214844 167.199219 C 156.214844 170.644531 156.210938 170.601562 159.769531 170.449219 C 160.808594 170.402344 161.152344 170.066406 161.128906 169.046875 C 161.082031 166.503906 161.101562 163.957031 161.128906 161.414062 C 161.136719 160.929688 160.855469 160.28125 161.589844 160.011719 C 165.105469 163.835938 170.246094 162.421875 171.835938 159.023438 C 174.082031 154.214844 174.105469 149.304688 171.714844 144.546875 C 170.53125 142.195312 168.34375 141.328125 165.722656 141.464844 C 163.753906 141.570312 162.363281 142.640625 161.246094 144.007812 "/>
<path fill-rule="evenodd" fill="rgb(100%, 100%, 100%)" fill-opacity="1" d="M 146.878906 159.300781 C 145.398438 161.414062 143.695312 162.363281 141.417969 162.253906 C 138.71875 162.125 136.898438 160.8125 136.199219 158.203125 C 135.914062 157.136719 135.761719 156.007812 135.746094 154.902344 C 135.6875 151.085938 135.699219 147.265625 135.71875 143.449219 C 135.730469 141.769531 135.773438 141.722656 137.464844 141.730469 C 141.160156 141.742188 140.628906 141.320312 140.660156 144.867188 C 140.6875 147.652344 140.65625 150.4375 140.671875 153.21875 C 140.675781 154.015625 140.679688 154.816406 140.789062 155.601562 C 141.019531 157.289062 141.898438 158.191406 143.3125 158.300781 C 144.671875 158.40625 145.941406 157.597656 146.441406 156.195312 C 146.839844 155.066406 146.976562 153.878906 146.96875 152.671875 C 146.949219 149.570312 146.996094 146.46875 146.945312 143.367188 C 146.925781 142.1875 147.21875 141.65625 148.535156 141.695312 C 152.316406 141.800781 151.714844 141.367188 151.742188 144.84375 C 151.78125 150.011719 151.734375 155.183594 151.816406 160.351562 C 151.835938 161.574219 151.5625 162.035156 150.265625 162.039062 C 147.597656 162.050781 147.597656 162.125 146.878906 159.300781 "/>
<path fill-rule="evenodd" fill="rgb(100%, 100%, 100%)" fill-opacity="1" d="M 119.136719 151.84375 C 119.183594 150.328125 119.175781 148.734375 119.820312 147.238281 C 120.4375 145.8125 121.394531 144.898438 123.0625 144.910156 C 124.753906 144.929688 125.71875 145.90625 126.203125 147.359375 C 127.207031 150.378906 127.226562 153.445312 126.144531 156.453125 C 125.542969 158.113281 124.421875 158.855469 122.949219 158.820312 C 121.398438 158.789062 120.476562 157.882812 119.875 156.574219 C 119.195312 155.097656 119.179688 153.5 119.136719 151.84375 M 131.832031 152.027344 C 131.816406 150.441406 131.78125 148.867188 131.285156 147.324219 C 130.0625 143.519531 127.199219 141.453125 123.03125 141.4375 C 118.980469 141.417969 116.019531 143.390625 114.824219 147.050781 C 113.753906 150.308594 113.761719 153.617188 114.882812 156.863281 C 116.140625 160.515625 118.957031 162.289062 123.203125 162.242188 C 127.242188 162.199219 129.996094 160.296875 131.207031 156.722656 C 131.722656 155.199219 131.851562 153.625 131.832031 152.027344 "/>
<path fill-rule="evenodd" fill="rgb(100%, 100%, 100%)" fill-opacity="1" d="M 105.910156 144.699219 C 107.214844 143.125 108.226562 141.78125 110.050781 141.542969 C 111.496094 141.351562 111.710938 141.464844 111.71875 142.96875 C 111.722656 143.90625 111.910156 144.867188 111.488281 145.929688 C 111.136719 145.929688 110.757812 145.90625 110.382812 145.933594 C 107.925781 146.128906 106.5625 147.34375 106.355469 149.78125 C 106.195312 151.679688 106.265625 153.597656 106.25 155.503906 C 106.234375 157.253906 106.226562 159.003906 106.25 160.75 C 106.261719 161.667969 105.855469 162.070312 104.957031 162.007812 C 104.878906 162.003906 104.796875 162.007812 104.71875 162.007812 C 100.515625 162.003906 101.328125 162.226562 101.296875 158.84375 C 101.25 153.671875 101.3125 148.503906 101.234375 143.335938 C 101.21875 142.085938 101.566406 141.554688 102.824219 141.710938 C 103.136719 141.75 103.464844 141.757812 103.777344 141.710938 C 105.066406 141.523438 105.695312 142.027344 105.632812 143.367188 C 105.617188 143.664062 105.75 143.96875 105.910156 144.699219 "/>
<path fill-rule="evenodd" fill="rgb(100%, 100%, 100%)" fill-opacity="1" d="M 70.421875 73.453125 C 73.386719 67.0625 76.257812 60.863281 79.128906 54.660156 C 80.265625 52.210938 81.449219 49.777344 82.503906 47.289062 C 83 46.109375 83.632812 45.574219 84.988281 45.621094 C 88.007812 45.730469 91.035156 45.699219 94.058594 45.636719 C 95.230469 45.613281 95.636719 46.074219 95.546875 47.175781 C 95.503906 47.730469 95.542969 48.289062 95.542969 48.847656 L 95.542969 99.214844 C 95.542969 99.691406 95.554688 100.171875 95.539062 100.648438 C 95.492188 102.425781 95.492188 102.445312 93.640625 102.464844 C 91.414062 102.484375 89.183594 102.441406 86.957031 102.480469 C 85.964844 102.496094 85.460938 102.148438 85.515625 101.109375 C 85.546875 100.554688 85.519531 99.996094 85.519531 99.4375 L 85.519531 61.882812 C 84.65625 62.144531 84.601562 62.835938 84.355469 63.351562 C 80.835938 70.746094 77.300781 78.132812 73.859375 85.5625 C 73.175781 87.035156 72.390625 87.726562 70.65625 87.640625 C 66.054688 87.410156 67.242188 88.339844 65.261719 84.191406 C 62.015625 77.371094 58.824219 70.523438 55.585938 63.703125 C 55.296875 63.09375 55.160156 62.363281 54.277344 61.695312 L 54.277344 64.21875 C 54.277344 75.992188 54.277344 87.769531 54.273438 99.546875 C 54.273438 100.105469 54.253906 100.660156 54.273438 101.21875 C 54.308594 102.136719 53.867188 102.484375 52.972656 102.472656 C 50.667969 102.449219 48.355469 102.433594 46.050781 102.480469 C 44.972656 102.5 44.652344 101.984375 44.71875 101.023438 C 44.746094 100.628906 44.71875 100.230469 44.71875 99.832031 C 44.71875 82.644531 44.71875 65.457031 44.722656 48.269531 C 44.722656 45.445312 44.5625 45.660156 47.269531 45.65625 C 49.734375 45.652344 52.210938 45.761719 54.667969 45.617188 C 56.261719 45.527344 57.0625 46.058594 57.746094 47.519531 C 61.367188 55.304688 65.097656 63.039062 68.816406 70.777344 C 69.222656 71.621094 69.46875 72.570312 70.421875 73.453125 "/>
<path fill-rule="evenodd" fill="rgb(100%, 100%, 100%)" fill-opacity="1" d="M 178.882812 72.367188 C 181.320312 72.230469 183.828125 72.085938 186.339844 71.945312 C 187.453125 71.882812 188.554688 71.796875 189.632812 71.457031 C 192.542969 70.535156 194.355469 68.5625 195.09375 65.65625 C 195.542969 63.875 195.542969 62.019531 195.210938 60.203125 C 194.878906 58.378906 193.84375 57.023438 192.230469 56.09375 C 190.820312 55.277344 189.273438 54.863281 187.683594 54.800781 C 184.742188 54.683594 181.796875 54.722656 178.855469 54.664062 C 177.980469 54.644531 177.496094 54.90625 177.558594 55.871094 C 177.601562 56.503906 177.5625 57.144531 177.5625 57.78125 C 177.5625 71.707031 177.5625 85.632812 177.5625 99.558594 C 177.5625 100.195312 177.554688 100.832031 177.546875 101.46875 C 177.539062 102.160156 177.160156 102.457031 176.496094 102.457031 C 173.867188 102.453125 171.242188 102.449219 168.617188 102.464844 C 167.789062 102.46875 167.492188 102.046875 167.511719 101.28125 C 167.523438 100.804688 167.507812 100.328125 167.507812 99.847656 C 167.503906 82.660156 167.503906 65.472656 167.507812 48.28125 C 167.507812 45.464844 167.328125 45.65625 170.039062 45.65625 C 175.214844 45.660156 180.386719 45.632812 185.558594 45.683594 C 188.585938 45.714844 191.597656 45.996094 194.511719 46.890625 C 202.558594 49.351562 206.6875 55.992188 205.570312 64.304688 C 204.789062 70.097656 201.890625 74.355469 196.917969 77.296875 C 196.578125 77.5 196.246094 77.710938 195.628906 78.09375 C 202.515625 86.097656 209.335938 94.023438 216.117188 101.90625 C 215.699219 102.746094 215.066406 102.449219 214.570312 102.453125 C 211.386719 102.484375 208.203125 102.445312 205.019531 102.480469 C 204.082031 102.492188 203.382812 102.265625 202.746094 101.503906 C 194.890625 92.101562 187.003906 82.722656 179.136719 73.328125 C 178.953125 73.109375 178.640625 72.890625 178.882812 72.367188 "/>
<path fill-rule="evenodd" fill="rgb(100%, 100%, 100%)" fill-opacity="1" d="M 106.800781 74.464844 C 106.707031 69.464844 107.394531 64.851562 109.242188 60.457031 C 112.996094 51.523438 119.890625 46.636719 129.304688 45.144531 C 137.621094 43.828125 145.417969 45.625 152.871094 49.316406 C 153.839844 49.796875 154.316406 50.339844 154.28125 51.484375 C 154.195312 54.027344 154.277344 56.578125 154.246094 59.121094 C 154.226562 60.757812 153.300781 61.347656 151.804688 60.625 C 151.097656 60.289062 150.507812 59.714844 149.875 59.234375 C 144.828125 55.367188 139.1875 53.347656 132.773438 53.742188 C 126.609375 54.121094 121.882812 56.917969 119.386719 62.59375 C 116.0625 70.140625 115.925781 77.890625 119.324219 85.492188 C 121.824219 91.082031 126.375 93.933594 132.414062 94.429688 C 139.066406 94.976562 144.980469 93.070312 150.1875 88.914062 C 150.683594 88.519531 151.128906 88.023438 151.6875 87.75 C 153.234375 86.984375 154.234375 87.621094 154.25 89.347656 C 154.269531 91.816406 154.234375 94.28125 154.265625 96.746094 C 154.277344 97.613281 154.089844 98.214844 153.214844 98.648438 C 146.25 102.109375 138.980469 104.128906 131.125 103.398438 C 128.183594 103.125 125.296875 102.558594 122.542969 101.464844 C 114.578125 98.304688 110.03125 92.21875 107.886719 84.140625 C 107.03125 80.898438 106.691406 77.570312 106.800781 74.464844 "/>
<path fill-rule="evenodd" fill="#ffff00" fill-opacity="1" d="M 168.546875 152.386719 C 168.597656 153.433594 168.484375 154.933594 167.957031 156.367188 C 167.449219 157.746094 166.488281 158.683594 164.980469 158.714844 C 163.480469 158.746094 162.394531 157.886719 161.902344 156.507812 C 160.800781 153.425781 160.789062 150.28125 161.914062 147.203125 C 162.503906 145.59375 163.707031 144.921875 165.222656 145.011719 C 166.746094 145.101562 167.566406 145.878906 168.128906 147.675781 C 168.566406 149.066406 168.515625 150.492188 168.546875 152.386719 "/>
<path fill-rule="evenodd" fill="#ffff00" fill-opacity="1" d="M 119.136719 151.84375 C 119.183594 150.328125 119.175781 148.734375 119.820312 147.238281 C 120.4375 145.8125 121.394531 144.898438 123.0625 144.910156 C 124.753906 144.929688 125.71875 145.90625 126.203125 147.359375 C 127.207031 150.378906 127.226562 153.445312 126.144531 156.453125 C 125.542969 158.113281 124.421875 158.855469 122.949219 158.820312 C 121.398438 158.789062 120.476562 157.882812 119.875 156.574219 C 119.195312 155.097656 119.179688 153.5 119.136719 151.84375 "/>
<path fill-rule="evenodd" fill="#ffff00" fill-opacity="1" d="M 94.980469 139.625 C 92.929688 138.695312 90.96875 138.183594 88.863281 138.183594 C 85.460938 138.191406 83.0625 139.789062 81.738281 142.824219 C 80.140625 146.492188 80.203125 150.28125 81.726562 153.960938 C 83.082031 157.226562 86.449219 158.90625 89.921875 158.285156 C 90.972656 158.097656 91.667969 157.742188 91.574219 156.449219 C 91.46875 154.945312 91.5 153.429688 91.566406 151.921875 C 91.613281 150.757812 91.101562 150.335938 90.007812 150.429688 C 89.691406 150.453125 89.371094 150.441406 89.054688 150.429688 C 87.355469 150.367188 87.355469 150.363281 87.328125 148.710938 C 87.296875 146.613281 87.296875 146.601562 89.390625 146.582031 C 91.21875 146.566406 93.046875 146.613281 94.875 146.570312 C 95.894531 146.546875 96.285156 146.941406 96.277344 147.96875 C 96.242188 151.863281 96.226562 155.757812 96.285156 159.652344 C 96.304688 160.746094 95.835938 161.261719 94.878906 161.515625 C 90.789062 162.605469 86.691406 162.847656 82.726562 161.164062 C 78.371094 159.320312 76.238281 155.703125 75.511719 151.207031 C 75.074219 148.519531 75.160156 145.796875 75.980469 143.175781 C 77.519531 138.257812 80.800781 135.300781 85.9375 134.394531 C 88.746094 133.898438 91.460938 134.210938 94.191406 134.878906 C 95.152344 135.117188 95.53125 135.601562 95.394531 136.558594 C 95.265625 137.492188 95.457031 138.464844 94.980469 139.625 M 161.246094 144.007812 C 162.363281 142.640625 163.753906 141.570312 165.722656 141.464844 C 168.34375 141.328125 170.53125 142.195312 171.714844 144.546875 C 174.105469 149.304688 174.082031 154.214844 171.835938 159.023438 C 170.246094 162.421875 165.105469 163.835938 161.589844 160.011719 C 160.851562 160.28125 161.136719 160.929688 161.128906 161.414062 C 161.097656 163.957031 161.082031 166.503906 161.128906 169.046875 C 161.148438 170.066406 160.808594 170.40625 159.769531 170.449219 C 156.210938 170.601562 156.214844 170.644531 156.214844 167.199219 C 156.210938 159.324219 156.203125 151.453125 156.195312 143.578125 C 156.195312 141.757812 156.199219 141.757812 157.976562 141.71875 C 158.296875 141.714844 158.617188 141.75 158.929688 141.714844 C 160.191406 141.566406 160.945312 141.957031 160.804688 143.386719 C 160.785156 143.59375 160.792969 143.851562 161.246094 144.007812 M 146.878906 159.300781 C 145.398438 161.414062 143.695312 162.363281 141.417969 162.253906 C 138.71875 162.125 136.898438 160.8125 136.199219 158.203125 C 135.914062 157.136719 135.761719 156.007812 135.746094 154.902344 C 135.6875 151.085938 135.699219 147.265625 135.71875 143.449219 C 135.730469 141.769531 135.773438 141.722656 137.464844 141.730469 C 141.15625 141.742188 140.628906 141.320312 140.660156 144.867188 C 140.6875 147.652344 140.65625 150.4375 140.671875 153.21875 C 140.675781 154.015625 140.679688 154.816406 140.789062 155.601562 C 141.019531 157.289062 141.898438 158.191406 143.3125 158.300781 C 144.671875 158.402344 145.941406 157.597656 146.441406 156.195312 C 146.839844 155.066406 146.976562 153.878906 146.96875 152.671875 C 146.949219 149.570312 146.996094 146.46875 146.945312 143.367188 C 146.925781 142.1875 147.21875 141.65625 148.535156 141.695312 C 152.316406 141.800781 151.714844 141.367188 151.742188 144.84375 C 151.78125 150.011719 151.734375 155.183594 151.816406 160.351562 C 151.835938 161.574219 151.5625 162.035156 150.265625 162.039062 C 147.597656 162.050781 147.597656 162.125 146.878906 159.300781 M 131.828125 152.027344 C 131.851562 153.625 131.722656 155.199219 131.203125 156.722656 C 129.996094 160.296875 127.242188 162.199219 123.203125 162.242188 C 118.957031 162.289062 116.140625 160.515625 114.882812 156.867188 C 113.761719 153.617188 113.757812 150.308594 114.820312 147.050781 C 116.019531 143.386719 118.980469 141.417969 123.027344 141.433594 C 127.195312 141.453125 130.0625 143.519531 131.285156 147.324219 C 131.777344 148.867188 131.816406 150.441406 131.828125 152.027344 M 105.910156 144.699219 C 107.214844 143.125 108.226562 141.78125 110.054688 141.542969 C 111.496094 141.351562 111.710938 141.464844 111.71875 142.96875 C 111.722656 143.90625 111.910156 144.867188 111.488281 145.929688 C 111.136719 145.929688 110.757812 145.90625 110.382812 145.933594 C 107.925781 146.128906 106.5625 147.34375 106.355469 149.78125 C 106.195312 151.679688 106.265625 153.597656 106.25 155.503906 C 106.234375 157.253906 106.226562 159.003906 106.25 160.753906 C 106.265625 161.667969 105.855469 162.070312 104.957031 162.007812 C 104.878906 162.003906 104.796875 162.007812 104.71875 162.007812 C 100.515625 162.003906 101.328125 162.222656 101.296875 158.84375 C 101.25 153.671875 101.3125 148.503906 101.234375 143.335938 C 101.21875 142.085938 101.566406 141.554688 102.824219 141.714844 C 103.136719 141.753906 103.464844 141.757812 103.777344 141.710938 C 105.066406 141.523438 105.695312 142.027344 105.632812 143.367188 C 105.617188 143.664062 105.75 143.96875 105.910156 144.699219 M 124.585938 122.027344 L 11.859375 122.027344 C 11.300781 122.027344 10.742188 122.015625 10.1875 122.03125 C 8.351562 122.066406 8.347656 122.070312 8.300781 123.855469 C 8.285156 124.410156 8.296875 124.96875 8.296875 125.527344 C 8.304688 146.542969 8.289062 167.558594 8.328125 188.578125 C 8.335938 192.96875 7.566406 191.871094 11.601562 193.867188 C 36.933594 206.375 63.804688 213.382812 91.839844 216.09375 C 104.929688 217.359375 118.050781 217.535156 131.191406 216.804688 C 146.722656 215.941406 162.042969 213.707031 177.136719 209.960938 C 198.898438 204.558594 219.457031 196.246094 238.5625 184.429688 C 240.019531 183.527344 240.570312 182.546875 240.5625 180.824219 C 240.503906 162.195312 240.527344 143.566406 240.523438 124.941406 C 240.523438 121.636719 240.785156 122.03125 237.546875 122.03125 C 199.894531 122.023438 162.238281 122.027344 124.585938 122.027344 "/>
<path fill-rule="evenodd" fill="rgb(0.39978%, 11.399841%, 54.499817%)" fill-opacity="1" d="M 70.421875 73.453125 C 73.386719 67.0625 76.261719 60.863281 79.128906 54.664062 C 80.265625 52.210938 81.449219 49.777344 82.503906 47.289062 C 83 46.109375 83.632812 45.574219 84.988281 45.621094 C 88.007812 45.730469 91.035156 45.699219 94.058594 45.636719 C 95.230469 45.613281 95.636719 46.074219 95.546875 47.175781 C 95.503906 47.730469 95.542969 48.289062 95.542969 48.847656 L 95.542969 99.214844 C 95.542969 99.691406 95.554688 100.171875 95.539062 100.648438 C 95.492188 102.425781 95.492188 102.445312 93.640625 102.464844 C 91.414062 102.484375 89.183594 102.441406 86.957031 102.480469 C 85.964844 102.496094 85.460938 102.148438 85.515625 101.109375 C 85.546875 100.554688 85.519531 99.996094 85.519531 99.4375 L 85.519531 61.882812 C 84.65625 62.144531 84.601562 62.835938 84.355469 63.351562 C 80.835938 70.746094 77.300781 78.132812 73.859375 85.5625 C 73.175781 87.035156 72.390625 87.726562 70.65625 87.640625 C 66.054688 87.410156 67.242188 88.339844 65.261719 84.191406 C 62.015625 77.371094 58.824219 70.527344 55.585938 63.703125 C 55.296875 63.09375 55.160156 62.363281 54.277344 61.695312 L 54.277344 64.21875 C 54.277344 75.992188 54.277344 87.769531 54.277344 99.546875 C 54.277344 100.105469 54.253906 100.660156 54.273438 101.21875 C 54.308594 102.140625 53.867188 102.484375 52.972656 102.472656 C 50.667969 102.449219 48.355469 102.433594 46.050781 102.480469 C 44.972656 102.5 44.652344 101.988281 44.71875 101.023438 C 44.746094 100.628906 44.722656 100.230469 44.722656 99.832031 C 44.722656 82.644531 44.71875 65.457031 44.722656 48.269531 C 44.722656 45.445312 44.5625 45.660156 47.269531 45.65625 C 49.734375 45.652344 52.210938 45.761719 54.667969 45.617188 C 56.261719 45.527344 57.0625 46.058594 57.746094 47.519531 C 61.367188 55.304688 65.097656 63.039062 68.816406 70.777344 C 69.222656 71.621094 69.46875 72.570312 70.421875 73.453125 M 178.882812 72.367188 C 181.320312 72.230469 183.828125 72.089844 186.339844 71.945312 C 187.453125 71.882812 188.554688 71.796875 189.632812 71.453125 C 192.542969 70.535156 194.355469 68.5625 195.09375 65.65625 C 195.542969 63.875 195.542969 62.019531 195.210938 60.203125 C 194.878906 58.378906 193.84375 57.023438 192.230469 56.09375 C 190.816406 55.277344 189.273438 54.863281 187.683594 54.800781 C 184.742188 54.683594 181.796875 54.722656 178.855469 54.664062 C 177.980469 54.644531 177.496094 54.910156 177.558594 55.871094 C 177.601562 56.503906 177.5625 57.144531 177.5625 57.78125 C 177.5625 71.707031 177.5625 85.632812 177.5625 99.558594 C 177.5625 100.195312 177.554688 100.832031 177.546875 101.46875 C 177.539062 102.160156 177.160156 102.457031 176.496094 102.457031 C 173.867188 102.453125 171.242188 102.449219 168.617188 102.464844 C 167.789062 102.46875 167.492188 102.046875 167.511719 101.28125 C 167.523438 100.804688 167.507812 100.328125 167.507812 99.851562 C 167.507812 82.660156 167.503906 65.472656 167.507812 48.28125 C 167.507812 45.464844 167.328125 45.65625 170.042969 45.65625 C 175.214844 45.660156 180.386719 45.632812 185.558594 45.683594 C 188.585938 45.714844 191.59375 45.996094 194.511719 46.890625 C 202.554688 49.355469 206.6875 55.992188 205.566406 64.304688 C 204.789062 70.097656 201.890625 74.355469 196.917969 77.300781 C 196.582031 77.5 196.246094 77.710938 195.628906 78.09375 C 202.515625 86.097656 209.335938 94.027344 216.117188 101.90625 C 215.699219 102.746094 215.0625 102.449219 214.570312 102.453125 C 211.386719 102.484375 208.203125 102.445312 205.019531 102.480469 C 204.082031 102.492188 203.382812 102.265625 202.746094 101.503906 C 194.890625 92.101562 187.003906 82.722656 179.132812 73.328125 C 178.953125 73.109375 178.640625 72.890625 178.882812 72.367188 M 106.800781 74.464844 C 106.707031 69.464844 107.394531 64.851562 109.242188 60.457031 C 112.996094 51.523438 119.890625 46.636719 129.304688 45.144531 C 137.621094 43.828125 145.417969 45.625 152.871094 49.316406 C 153.839844 49.796875 154.316406 50.339844 154.28125 51.484375 C 154.195312 54.027344 154.277344 56.578125 154.246094 59.121094 C 154.226562 60.757812 153.300781 61.347656 151.804688 60.625 C 151.097656 60.289062 150.507812 59.714844 149.875 59.234375 C 144.828125 55.367188 139.1875 53.347656 132.773438 53.742188 C 126.613281 54.121094 121.882812 56.917969 119.386719 62.59375 C 116.0625 70.140625 115.925781 77.890625 119.324219 85.492188 C 121.824219 91.085938 126.375 93.933594 132.414062 94.429688 C 139.066406 94.976562 144.980469 93.070312 150.1875 88.914062 C 150.683594 88.519531 151.128906 88.023438 151.6875 87.75 C 153.234375 86.984375 154.234375 87.621094 154.25 89.347656 C 154.269531 91.816406 154.234375 94.28125 154.265625 96.746094 C 154.277344 97.613281 154.089844 98.214844 153.214844 98.648438 C 146.25 102.109375 138.980469 104.128906 131.125 103.398438 C 128.183594 103.125 125.296875 102.558594 122.542969 101.464844 C 114.578125 98.304688 110.03125 92.21875 107.886719 84.140625 C 107.03125 80.898438 106.691406 77.570312 106.800781 74.464844 M 124.078125 116.6875 L 150.34375 116.6875 C 179.550781 116.6875 208.761719 116.691406 237.972656 116.6875 C 240.324219 116.6875 240.324219 116.671875 240.34375 114.355469 C 240.347656 114.117188 240.34375 113.878906 240.34375 113.640625 L 240.34375 49.648438 C 240.34375 49.171875 240.300781 48.6875 240.351562 48.21875 C 240.460938 47.183594 239.96875 46.617188 239.066406 46.203125 C 237.328125 45.410156 235.636719 44.523438 233.910156 43.714844 C 202.496094 28.960938 169.28125 22.324219 134.730469 21.898438 C 114.371094 21.648438 94.234375 23.816406 74.398438 28.5 C 51.867188 33.824219 30.585938 42.234375 10.796875 54.339844 C 9.042969 55.410156 8.316406 56.503906 8.328125 58.644531 C 8.429688 77.027344 8.382812 95.414062 8.386719 113.800781 C 8.386719 117.125 8.160156 116.683594 11.378906 116.683594 C 48.945312 116.691406 86.511719 116.6875 124.078125 116.6875 "/>
<path fill-rule="evenodd" fill="#ffff00" fill-opacity="1" d="M 8.496094 48.984375 C 8.1875 48.066406 8.304688 47.265625 8.304688 46.476562 C 8.296875 34.53125 8.296875 22.589844 8.296875 10.648438 C 8.296875 10.171875 8.320312 9.691406 8.300781 9.214844 C 8.261719 8.320312 8.644531 7.882812 9.574219 7.945312 C 10.128906 7.984375 10.6875 7.949219 11.246094 7.949219 C 86.644531 7.949219 162.046875 7.945312 237.445312 7.957031 C 240.679688 7.957031 240.472656 7.421875 240.476562 11.046875 C 240.480469 19.964844 240.484375 28.882812 240.46875 37.796875 C 240.46875 38.65625 240.640625 39.542969 240.273438 40.394531 C 239.675781 40.785156 239.214844 40.339844 238.757812 40.117188 C 220.765625 31.386719 201.894531 25.304688 182.296875 21.460938 C 173.78125 19.792969 165.199219 18.625 156.554688 17.824219 C 143.6875 16.628906 130.800781 16.355469 117.910156 17.082031 C 83.003906 19.050781 49.726562 27.214844 18.679688 43.640625 C 15.9375 45.089844 13.261719 46.667969 10.546875 48.167969 C 9.945312 48.5 9.433594 49.082031 8.496094 48.984375 "/>
</svg>
