<?xml version="1.0" encoding="UTF-8"?>
<svg style="background:transparent !important" xmlns="http://www.w3.org/2000/svg" xmlns:xlink="http://www.w3.org/1999/xlink" width="841.889764" height="1190.551181" viewBox="0 0 841.889764 1190.551181">
<defs>
<clipPath id="clip-0">
<path clip-rule="nonzero" d="M 17.75 98.746094 L 214 98.746094 L 214 328 L 17.75 328 Z M 17.75 98.746094 "/>
</clipPath>
<clipPath id="clip-1">
<path clip-rule="nonzero" d="M 174 98.746094 L 253.023438 98.746094 L 253.023438 201 L 174 201 Z M 174 98.746094 "/>
</clipPath>
<clipPath id="clip-2">
<path clip-rule="nonzero" d="M 27 342 L 40 342 L 40 362.566406 L 27 362.566406 Z M 27 342 "/>
</clipPath>
<clipPath id="clip-3">
<path clip-rule="nonzero" d="M 42 342 L 62 342 L 62 362.566406 L 42 362.566406 Z M 42 342 "/>
</clipPath>
<clipPath id="clip-4">
<path clip-rule="nonzero" d="M 64 342 L 80 342 L 80 362.566406 L 64 362.566406 Z M 64 342 "/>
</clipPath>
<clipPath id="clip-5">
<path clip-rule="nonzero" d="M 84 342 L 101 342 L 101 362.566406 L 84 362.566406 Z M 84 342 "/>
</clipPath>
<clipPath id="clip-6">
<path clip-rule="nonzero" d="M 102 342 L 119 342 L 119 362.566406 L 102 362.566406 Z M 102 342 "/>
</clipPath>
<clipPath id="clip-7">
<path clip-rule="nonzero" d="M 122 342 L 136 342 L 136 362.566406 L 122 362.566406 Z M 122 342 "/>
</clipPath>
<clipPath id="clip-8">
<path clip-rule="nonzero" d="M 144 342 L 159 342 L 159 362.566406 L 144 362.566406 Z M 144 342 "/>
</clipPath>
<clipPath id="clip-9">
<path clip-rule="nonzero" d="M 161 342 L 174 342 L 174 362.566406 L 161 362.566406 Z M 161 342 "/>
</clipPath>
<clipPath id="clip-10">
<path clip-rule="nonzero" d="M 175 342 L 194 342 L 194 362.566406 L 175 362.566406 Z M 175 342 "/>
</clipPath>
<clipPath id="clip-11">
<path clip-rule="nonzero" d="M 196 342 L 213 342 L 213 362.566406 L 196 362.566406 Z M 196 342 "/>
</clipPath>
<clipPath id="clip-12">
<path clip-rule="nonzero" d="M 216 342 L 229 342 L 229 362.566406 L 216 362.566406 Z M 216 342 "/>
</clipPath>
<clipPath id="clip-13">
<path clip-rule="nonzero" d="M 230 342 L 246 342 L 246 362.566406 L 230 362.566406 Z M 230 342 "/>
</clipPath>
<clipPath id="clip-14">
<path clip-rule="nonzero" d="M 287.714844 150.140625 L 688 150.140625 L 688 617 L 287.714844 617 Z M 287.714844 150.140625 "/>
</clipPath>
<clipPath id="clip-15">
<path clip-rule="nonzero" d="M 606 150.140625 L 766.769531 150.140625 L 766.769531 358 L 606 358 Z M 606 150.140625 "/>
</clipPath>
<clipPath id="clip-16">
<path clip-rule="nonzero" d="M 337 645 L 377 645 L 377 687.3125 L 337 687.3125 Z M 337 645 "/>
</clipPath>
</defs>
<g clip-path="url(#clip-0)">
<path fill-rule="nonzero" fill="rgb(38.592529%, 55.502319%, 12.983704%)" fill-opacity="1" d="M 209.699219 190.039062 C 209.699219 190.039062 214.945312 140.949219 213.695312 131.980469 C 212.449219 123.007812 192 98.746094 192 98.746094 C 192 98.746094 197.339844 121.992188 199.035156 131.980469 C 200.027344 137.84375 196.640625 156.324219 193.679688 170.578125 C 192.125 168.546875 190.507812 166.554688 188.789062 164.636719 C 186.171875 161.710938 181.675781 161.460938 178.753906 164.082031 C 175.828125 166.699219 175.578125 171.195312 178.199219 174.121094 C 191.957031 189.488281 199.535156 209.328125 199.535156 229.980469 C 199.535156 276.179688 161.949219 313.765625 115.75 313.765625 C 69.550781 313.765625 31.964844 276.179688 31.964844 229.980469 C 31.964844 183.78125 69.550781 146.195312 115.75 146.195312 C 123.519531 146.195312 131.207031 147.257812 138.597656 149.347656 C 142.375 150.40625 146.304688 148.21875 147.371094 144.441406 C 148.441406 140.664062 146.242188 136.734375 142.464844 135.664062 C 133.816406 133.21875 124.828125 131.980469 115.75 131.980469 C 61.710938 131.980469 17.75 175.941406 17.75 229.980469 C 17.75 284.023438 61.710938 327.984375 115.75 327.984375 C 169.789062 327.984375 213.753906 284.023438 213.753906 229.980469 C 213.753906 218.359375 211.683594 206.964844 207.757812 196.257812 Z M 209.699219 190.039062 "/>
</g>
<g clip-path="url(#clip-1)">
<path fill-rule="nonzero" fill="rgb(52.813721%, 72.460938%, 15.257263%)" fill-opacity="1" d="M 229.292969 152.820312 C 228.351562 153.046875 227.472656 153.21875 226.597656 153.386719 C 224.726562 143.675781 220.875 133.664062 215.582031 125.78125 C 205.707031 111.074219 194.511719 100.941406 192 98.746094 C 193.753906 101.117188 196.265625 104.914062 198.824219 110.117188 C 203.460938 119.59375 208.109375 133.578125 208.386719 150.058594 C 208.386719 158.382812 206.101562 166.867188 204.519531 174.402344 C 202.90625 181.984375 202.882812 188.855469 204.703125 195.417969 C 205.199219 197.167969 205.777344 198.886719 206.417969 200.5625 C 209.71875 200.707031 213.429688 200.351562 217.5 199.183594 C 228.828125 195.9375 242.261719 180.597656 247.230469 165.78125 C 251.863281 151.960938 252.855469 139.574219 253.023438 136.835938 C 250.664062 139.40625 240.292969 150.15625 229.292969 152.820312 M 192 98.746094 C 193.386719 101.320312 195.285156 105.316406 197.03125 110.558594 C 200.292969 120.167969 202.867188 134.476562 201.328125 149.121094 C 200.445312 156.375 197.664062 163.402344 195.039062 171.410156 C 192.339844 179.363281 191.152344 189.011719 192.785156 197.578125 C 192.960938 198.480469 193.152344 199.367188 193.355469 200.246094 C 185.195312 196.914062 173.035156 188.921875 174.488281 171.074219 C 176.066406 151.699219 183.5 147.640625 189.808594 133.449219 C 195.390625 120.878906 192.730469 102.925781 192 98.746094 "/>
</g>
<path fill-rule="nonzero" fill="#00ffff" fill-opacity="1" d="M 189.722656 229.988281 C 189.722656 271.386719 156.167969 304.9375 114.753906 304.9375 C 73.359375 304.9375 39.804688 271.386719 39.804688 229.988281 Z M 189.722656 229.988281 "/>
<path fill-rule="nonzero" fill="#00ffff" fill-opacity="1" d="M 189.722656 229.988281 C 189.722656 269.007812 159.925781 301.058594 121.824219 304.613281 L 121.800781 304.613281 C 120.96875 304.695312 120.136719 304.757812 119.285156 304.796875 C 117.78125 304.898438 116.277344 304.9375 114.753906 304.9375 C 113.554688 304.9375 112.359375 304.917969 111.179688 304.859375 C 108.355469 304.714844 105.574219 304.429688 102.832031 303.984375 C 67.105469 298.277344 39.804688 267.324219 39.804688 229.988281 Z M 189.722656 229.988281 "/>
<path fill-rule="nonzero" fill="rgb(71.124268%, 84.764099%, 52.105713%)" fill-opacity="1" d="M 51.992188 184.417969 L 73.125 184.417969 L 73.125 191.632812 L 59.308594 191.632812 L 59.308594 198.632812 L 73.125 198.632812 L 73.125 205.714844 L 59.308594 205.714844 L 59.308594 215.902344 L 73.125 215.902344 L 73.125 223.136719 L 51.992188 223.136719 Z M 51.992188 184.417969 "/>
<path fill-rule="nonzero" fill="rgb(71.124268%, 84.764099%, 52.105713%)" fill-opacity="1" d="M 124.046875 191.226562 L 118.890625 196.136719 C 115.386719 192.433594 111.441406 190.578125 107.058594 190.578125 C 103.359375 190.578125 100.242188 191.84375 97.707031 194.371094 C 95.175781 196.902344 93.910156 200.019531 93.910156 203.726562 C 93.910156 206.308594 94.46875 208.601562 95.589844 210.605469 C 96.710938 212.605469 98.300781 214.179688 100.351562 215.320312 C 102.402344 216.460938 104.683594 217.03125 107.1875 217.03125 C 109.328125 217.03125 111.28125 216.632812 113.054688 215.832031 C 114.824219 215.035156 116.769531 213.578125 118.890625 211.472656 L 123.886719 216.6875 C 121.027344 219.480469 118.324219 221.414062 115.78125 222.492188 C 113.238281 223.574219 110.332031 224.113281 107.070312 224.113281 C 101.050781 224.113281 96.125 222.203125 92.289062 218.386719 C 88.457031 214.570312 86.539062 209.679688 86.539062 203.714844 C 86.539062 199.855469 87.410156 196.421875 89.15625 193.421875 C 90.902344 190.421875 93.402344 188.011719 96.660156 186.183594 C 99.914062 184.359375 103.417969 183.445312 107.175781 183.445312 C 110.367188 183.445312 113.441406 184.121094 116.398438 185.46875 C 119.355469 186.820312 121.90625 188.738281 124.046875 191.226562 "/>
<path fill-rule="nonzero" fill="rgb(71.124268%, 84.764099%, 52.105713%)" fill-opacity="1" d="M 157.160156 190.65625 C 153.574219 190.65625 150.5625 191.90625 148.121094 194.398438 C 145.679688 196.886719 144.457031 200.054688 144.457031 203.898438 C 144.457031 208.179688 145.996094 211.566406 149.070312 214.058594 C 151.457031 216.003906 154.199219 216.980469 157.289062 216.980469 C 160.785156 216.980469 163.761719 215.714844 166.222656 213.1875 C 168.679688 210.664062 169.910156 207.546875 169.910156 203.84375 C 169.910156 200.160156 168.671875 197.042969 166.195312 194.488281 C 163.71875 191.933594 160.707031 190.65625 157.160156 190.65625 M 157.238281 183.445312 C 162.714844 183.445312 167.425781 185.429688 171.367188 189.394531 C 175.308594 193.363281 177.28125 198.195312 177.28125 203.898438 C 177.28125 209.550781 175.335938 214.328125 171.445312 218.242188 C 167.558594 222.15625 162.839844 224.113281 157.289062 224.113281 C 151.476562 224.113281 146.648438 222.101562 142.804688 218.085938 C 138.957031 214.066406 137.035156 209.292969 137.035156 203.765625 C 137.035156 200.0625 137.929688 196.660156 139.722656 193.554688 C 141.511719 190.449219 143.976562 187.984375 147.109375 186.171875 C 150.242188 184.355469 153.621094 183.445312 157.238281 183.445312 "/>
<path fill-rule="nonzero" fill="rgb(23.391724%, 33.753967%, 8.526611%)" fill-opacity="1" d="M 53.863281 235.164062 L 61.816406 235.164062 L 61.816406 238.46875 L 56.894531 238.46875 L 56.894531 241.699219 L 61.816406 241.699219 L 61.816406 244.953125 L 56.894531 244.953125 L 56.894531 252.96875 L 53.863281 252.96875 Z M 53.863281 235.164062 "/>
<path fill-rule="nonzero" fill="rgb(23.391724%, 33.753967%, 8.526611%)" fill-opacity="1" d="M 71.289062 242.121094 L 72.246094 242.121094 C 73.214844 242.121094 73.882812 241.980469 74.25 241.695312 C 74.613281 241.414062 74.796875 240.945312 74.796875 240.289062 C 74.796875 239.898438 74.707031 239.5625 74.527344 239.273438 C 74.34375 238.988281 74.101562 238.78125 73.796875 238.65625 C 73.492188 238.527344 72.9375 238.46875 72.125 238.46875 L 71.289062 238.46875 Z M 68.238281 235.164062 L 71.46875 235.164062 C 73.242188 235.164062 74.5 235.335938 75.253906 235.6875 C 76.003906 236.039062 76.605469 236.621094 77.0625 237.4375 C 77.519531 238.253906 77.75 239.21875 77.75 240.328125 C 77.75 241.5 77.496094 242.476562 76.992188 243.265625 C 76.488281 244.054688 75.726562 244.648438 74.710938 245.050781 L 78.507812 252.96875 L 75.171875 252.96875 L 71.566406 245.425781 L 71.289062 245.425781 L 71.289062 252.96875 L 68.238281 252.96875 Z M 68.238281 235.164062 "/>
<path fill-rule="nonzero" fill="rgb(23.391724%, 33.753967%, 8.526611%)" fill-opacity="1" d="M 84.257812 235.164062 L 87.285156 235.164062 L 87.285156 252.96875 L 84.257812 252.96875 Z M 84.257812 235.164062 "/>
<path fill-rule="nonzero" fill="rgb(23.391724%, 33.753967%, 8.526611%)" fill-opacity="1" d="M 94.230469 235.164062 L 102.980469 235.164062 L 102.980469 238.480469 L 97.261719 238.480469 L 97.261719 241.699219 L 102.980469 241.699219 L 102.980469 244.953125 L 97.261719 244.953125 L 97.261719 249.636719 L 102.980469 249.636719 L 102.980469 252.96875 L 94.230469 252.96875 Z M 94.230469 235.164062 "/>
<path fill-rule="nonzero" fill="rgb(23.391724%, 33.753967%, 8.526611%)" fill-opacity="1" d="M 109.335938 235.164062 L 112.261719 235.164062 L 119.117188 246.878906 L 119.117188 235.164062 L 122.167969 235.164062 L 122.167969 252.96875 L 119.234375 252.96875 L 112.386719 241.285156 L 112.386719 252.96875 L 109.335938 252.96875 Z M 109.335938 235.164062 "/>
<path fill-rule="nonzero" fill="rgb(23.391724%, 33.753967%, 8.526611%)" fill-opacity="1" d="M 132.371094 238.429688 L 132.371094 249.664062 L 133.789062 249.664062 C 135.183594 249.664062 136.191406 249.484375 136.820312 249.128906 C 137.449219 248.773438 137.960938 248.175781 138.363281 247.335938 C 138.761719 246.496094 138.960938 245.460938 138.960938 244.234375 C 138.960938 242.34375 138.484375 240.878906 137.535156 239.835938 C 136.675781 238.898438 135.300781 238.429688 133.40625 238.429688 Z M 129.34375 235.164062 L 132.957031 235.164062 C 135.285156 235.164062 137.015625 235.480469 138.148438 236.125 C 139.28125 236.765625 140.210938 237.808594 140.945312 239.253906 C 141.679688 240.699219 142.042969 242.386719 142.042969 244.3125 C 142.042969 245.6875 141.839844 246.945312 141.429688 248.09375 C 141.019531 249.246094 140.453125 250.199219 139.730469 250.957031 C 139.007812 251.714844 138.226562 252.242188 137.386719 252.53125 C 136.542969 252.820312 135.085938 252.96875 133.011719 252.96875 L 129.34375 252.96875 Z M 129.34375 235.164062 "/>
<path fill-rule="nonzero" fill="rgb(23.391724%, 33.753967%, 8.526611%)" fill-opacity="1" d="M 148.453125 235.164062 L 151.503906 235.164062 L 151.503906 249.734375 L 155.949219 249.734375 L 155.949219 252.96875 L 148.453125 252.96875 Z M 148.453125 235.164062 "/>
<path fill-rule="nonzero" fill="rgb(23.391724%, 33.753967%, 8.526611%)" fill-opacity="1" d="M 160.632812 235.164062 L 163.910156 235.164062 L 166.898438 241.566406 L 169.875 235.164062 L 173.105469 235.164062 L 168.417969 245.257812 L 168.417969 252.96875 L 165.34375 252.96875 L 165.34375 245.257812 Z M 160.632812 235.164062 "/>
<path fill-rule="nonzero" fill="rgb(23.391724%, 33.753967%, 8.526611%)" fill-opacity="1" d="M 111.179688 304.859375 C 108.355469 304.714844 105.574219 304.429688 102.832031 303.984375 C 100.355469 302.09375 98.242188 299.210938 97.246094 294.84375 C 94.746094 284.058594 98.078125 280.566406 99.054688 271.75 C 99.90625 263.972656 95.355469 254.667969 94.238281 252.535156 C 95.4375 253.691406 97.144531 255.519531 99.011719 258.082031 C 102.445312 262.730469 106.324219 270.0625 108.011719 278.269531 C 108.804688 282.371094 108.5 286.660156 108.457031 291.472656 C 108.375 295.820312 109.230469 300.714844 111.179688 304.859375 "/>
<path fill-rule="nonzero" fill="rgb(23.391724%, 33.753967%, 8.526611%)" fill-opacity="1" d="M 135.839844 279.367188 C 135.695312 288.285156 131.066406 298.949219 125.480469 302.664062 C 124.21875 303.496094 123 304.125 121.824219 304.613281 L 121.800781 304.613281 C 120.96875 304.695312 120.136719 304.757812 119.285156 304.796875 C 118.796875 304.167969 118.328125 303.519531 117.882812 302.847656 C 115.75 299.597656 114.570312 295.859375 114.125 291.453125 C 113.679688 287.085938 113.453125 282.089844 112.011719 277.558594 C 109.007812 268.664062 104.070312 261.878906 99.90625 257.53125 C 97.613281 255.136719 95.601562 253.511719 94.238281 252.535156 C 95.964844 253.289062 103.808594 256.863281 111.726562 263.136719 C 115.953125 266.488281 119.792969 271.261719 122.492188 276.21875 C 122.941406 275.976562 123.386719 275.730469 123.855469 275.445312 C 129.359375 272.09375 133.136719 264.457031 133.96875 262.652344 C 134.355469 264.175781 135.960938 271.058594 135.839844 279.367188 "/>
<g clip-path="url(#clip-2)">
<path fill-rule="nonzero" fill="rgb(100%, 100%, 100%)" fill-opacity="1" d="M 27.597656 342.414062 L 39.714844 342.414062 L 39.714844 346.09375 L 32.097656 346.09375 L 32.097656 350.621094 L 39.214844 350.621094 L 39.214844 354.269531 L 32.097656 354.269531 L 32.097656 362.242188 L 27.597656 362.242188 Z M 27.597656 342.414062 "/>
</g>
<g clip-path="url(#clip-3)">
<path fill-rule="nonzero" fill="rgb(100%, 100%, 100%)" fill-opacity="1" d="M 46.921875 352.386719 C 46.921875 356.269531 48.746094 359.007812 51.746094 359.007812 C 54.773438 359.007812 56.511719 356.125 56.511719 352.269531 C 56.511719 348.710938 54.804688 345.652344 51.714844 345.652344 C 48.6875 345.652344 46.921875 348.535156 46.921875 352.386719 M 61.246094 352.121094 C 61.246094 358.625 57.304688 362.566406 51.511719 362.566406 C 45.625 362.566406 42.183594 358.125 42.183594 352.476562 C 42.183594 346.535156 45.980469 342.09375 51.832031 342.09375 C 57.921875 342.09375 61.246094 346.652344 61.246094 352.121094 "/>
</g>
<g clip-path="url(#clip-4)">
<path fill-rule="nonzero" fill="rgb(100%, 100%, 100%)" fill-opacity="1" d="M 68.628906 351.210938 L 70.394531 351.210938 C 72.628906 351.210938 73.953125 350.09375 73.953125 348.359375 C 73.953125 346.535156 72.71875 345.621094 70.660156 345.59375 C 69.570312 345.59375 68.953125 345.679688 68.628906 345.738281 Z M 64.1875 342.679688 C 65.628906 342.445312 67.777344 342.269531 70.160156 342.269531 C 73.101562 342.269531 75.160156 342.710938 76.570312 343.828125 C 77.746094 344.769531 78.394531 346.152344 78.394531 347.976562 C 78.394531 350.503906 76.601562 352.242188 74.894531 352.859375 L 74.894531 352.945312 C 76.277344 353.503906 77.042969 354.828125 77.542969 356.652344 C 78.160156 358.886719 78.777344 361.476562 79.160156 362.242188 L 74.570312 362.242188 C 74.246094 361.683594 73.777344 360.066406 73.1875 357.625 C 72.660156 355.152344 71.804688 354.476562 69.980469 354.445312 L 68.628906 354.445312 L 68.628906 362.242188 L 64.1875 362.242188 Z M 64.1875 342.679688 "/>
</g>
<g clip-path="url(#clip-5)">
<path fill-rule="nonzero" fill="rgb(100%, 100%, 100%)" fill-opacity="1" d="M 90.25 346.179688 L 84.925781 346.179688 L 84.925781 342.414062 L 100.160156 342.414062 L 100.160156 346.179688 L 94.75 346.179688 L 94.75 362.242188 L 90.25 362.242188 Z M 90.25 346.179688 "/>
</g>
<g clip-path="url(#clip-6)">
<path fill-rule="nonzero" fill="rgb(100%, 100%, 100%)" fill-opacity="1" d="M 107.042969 342.414062 L 107.042969 350.035156 L 114.425781 350.035156 L 114.425781 342.414062 L 118.898438 342.414062 L 118.898438 362.242188 L 114.425781 362.242188 L 114.425781 353.945312 L 107.042969 353.945312 L 107.042969 362.242188 L 102.542969 362.242188 L 102.542969 342.414062 Z M 107.042969 342.414062 "/>
</g>
<g clip-path="url(#clip-7)">
<path fill-rule="nonzero" fill="rgb(100%, 100%, 100%)" fill-opacity="1" d="M 134.605469 353.859375 L 127.308594 353.859375 L 127.308594 358.566406 L 135.457031 358.566406 L 135.457031 362.242188 L 122.808594 362.242188 L 122.808594 342.414062 L 135.046875 342.414062 L 135.046875 346.09375 L 127.308594 346.09375 L 127.308594 350.210938 L 134.605469 350.210938 Z M 134.605469 353.859375 "/>
</g>
<g clip-path="url(#clip-8)">
<path fill-rule="nonzero" fill="rgb(100%, 100%, 100%)" fill-opacity="1" d="M 148.898438 351.679688 C 149.28125 351.769531 149.753906 351.800781 150.398438 351.800781 C 152.78125 351.800781 154.253906 350.59375 154.253906 348.5625 C 154.253906 346.738281 152.988281 345.652344 150.753906 345.652344 C 149.839844 345.652344 149.222656 345.738281 148.898438 345.828125 Z M 144.457031 342.679688 C 145.839844 342.445312 147.78125 342.269531 150.515625 342.269531 C 153.28125 342.269531 155.253906 342.796875 156.578125 343.855469 C 157.84375 344.855469 158.695312 346.503906 158.695312 348.445312 C 158.695312 350.386719 158.046875 352.035156 156.871094 353.152344 C 155.34375 354.59375 153.078125 355.242188 150.429688 355.242188 C 149.839844 355.242188 149.3125 355.210938 148.898438 355.152344 L 148.898438 362.242188 L 144.457031 362.242188 Z M 144.457031 342.679688 "/>
</g>
<g clip-path="url(#clip-9)">
<path fill-rule="nonzero" fill="rgb(100%, 100%, 100%)" fill-opacity="1" d="M 161.546875 342.414062 L 166.046875 342.414062 L 166.046875 358.476562 L 173.929688 358.476562 L 173.929688 362.242188 L 161.546875 362.242188 Z M 161.546875 342.414062 "/>
</g>
<g clip-path="url(#clip-10)">
<path fill-rule="nonzero" fill="rgb(100%, 100%, 100%)" fill-opacity="1" d="M 186.402344 353.800781 L 185.167969 349.59375 C 184.8125 348.417969 184.460938 346.945312 184.167969 345.769531 L 184.109375 345.769531 C 183.8125 346.945312 183.519531 348.445312 183.195312 349.59375 L 182.019531 353.800781 Z M 181.371094 357.152344 L 179.960938 362.242188 L 175.3125 362.242188 L 181.371094 342.414062 L 187.253906 342.414062 L 193.402344 362.242188 L 188.578125 362.242188 L 187.050781 357.152344 Z M 181.371094 357.152344 "/>
</g>
<g clip-path="url(#clip-11)">
<path fill-rule="nonzero" fill="rgb(100%, 100%, 100%)" fill-opacity="1" d="M 196.050781 362.242188 L 196.050781 342.417969 L 201.285156 342.417969 L 205.402344 349.679688 C 206.582031 351.769531 207.757812 354.242188 208.640625 356.476562 L 208.726562 356.476562 C 208.433594 353.859375 208.34375 351.179688 208.34375 348.210938 L 208.34375 342.417969 L 212.464844 342.417969 L 212.464844 362.242188 L 207.757812 362.242188 L 203.519531 354.59375 C 202.34375 352.476562 201.050781 349.917969 200.078125 347.59375 L 199.992188 347.621094 C 200.109375 350.242188 200.167969 353.035156 200.167969 356.269531 L 200.167969 362.242188 Z M 196.050781 362.242188 "/>
</g>
<g clip-path="url(#clip-12)">
<path fill-rule="nonzero" fill="rgb(100%, 100%, 100%)" fill-opacity="1" d="M 228.140625 353.859375 L 220.847656 353.859375 L 220.847656 358.566406 L 228.996094 358.566406 L 228.996094 362.242188 L 216.34375 362.242188 L 216.34375 342.414062 L 228.582031 342.414062 L 228.582031 346.09375 L 220.847656 346.09375 L 220.847656 350.210938 L 228.140625 350.210938 Z M 228.140625 353.859375 "/>
</g>
<g clip-path="url(#clip-13)">
<path fill-rule="nonzero" fill="rgb(100%, 100%, 100%)" fill-opacity="1" d="M 236.023438 346.179688 L 230.699219 346.179688 L 230.699219 342.414062 L 245.9375 342.414062 L 245.9375 346.179688 L 240.523438 346.179688 L 240.523438 362.242188 L 236.023438 362.242188 Z M 236.023438 346.179688 "/>
</g>
<g clip-path="url(#clip-14)">
<path fill-rule="nonzero" fill="rgb(41.598511%, 51.799011%, 14.898682%)" fill-opacity="1" d="M 678.546875 336.023438 C 678.546875 336.023438 689.230469 236.074219 686.691406 217.804688 C 684.148438 199.539062 642.519531 150.140625 642.519531 150.140625 C 642.519531 150.140625 653.390625 197.476562 656.835938 217.804688 C 658.859375 229.75 651.964844 267.378906 645.929688 296.402344 C 642.773438 292.261719 639.476562 288.207031 635.980469 284.300781 C 630.648438 278.347656 621.496094 277.839844 615.542969 283.175781 C 609.582031 288.503906 609.078125 297.65625 614.414062 303.613281 C 642.429688 334.90625 657.859375 375.304688 657.859375 417.355469 C 657.859375 511.421875 581.328125 587.953125 487.261719 587.953125 C 393.195312 587.953125 316.664062 511.421875 316.664062 417.355469 C 316.664062 323.289062 393.195312 246.757812 487.261719 246.757812 C 503.082031 246.757812 518.730469 248.914062 533.777344 253.171875 C 541.46875 255.332031 549.46875 250.871094 551.644531 243.179688 C 553.820312 235.488281 549.347656 227.488281 541.65625 225.3125 C 524.042969 220.332031 505.746094 217.804688 487.261719 217.804688 C 377.230469 217.804688 287.714844 307.320312 287.714844 417.355469 C 287.714844 527.386719 377.230469 616.902344 487.261719 616.902344 C 597.292969 616.902344 686.808594 527.386719 686.808594 417.355469 C 686.808594 393.6875 682.589844 370.484375 674.601562 348.683594 Z M 678.546875 336.023438 "/>
</g>
<g clip-path="url(#clip-15)">
<path fill-rule="nonzero" fill="rgb(52.813721%, 72.460938%, 15.257263%)" fill-opacity="1" d="M 718.449219 260.238281 C 716.535156 260.707031 714.742188 261.050781 712.957031 261.398438 C 709.152344 241.625 701.308594 221.238281 690.53125 205.1875 C 670.425781 175.242188 647.628906 154.609375 642.519531 150.140625 C 646.085938 154.964844 651.203125 162.703125 656.40625 173.296875 C 665.851562 192.589844 675.316406 221.066406 675.882812 254.621094 C 675.875 271.574219 671.222656 288.84375 668.011719 304.1875 C 664.71875 319.628906 664.671875 333.617188 668.375 346.980469 C 669.386719 350.542969 670.566406 354.039062 671.871094 357.457031 C 678.59375 357.742188 686.148438 357.023438 694.433594 354.648438 C 717.503906 348.03125 744.851562 316.804688 754.96875 286.628906 C 764.40625 258.492188 766.421875 233.273438 766.769531 227.699219 C 761.960938 232.933594 740.847656 254.816406 718.449219 260.238281 M 642.519531 150.140625 C 645.339844 155.382812 649.207031 163.515625 652.757812 174.191406 C 659.398438 193.757812 664.640625 222.894531 661.503906 252.710938 C 659.714844 267.480469 654.042969 281.789062 648.707031 298.097656 C 643.203125 314.289062 640.789062 333.933594 644.113281 351.375 C 644.46875 353.214844 644.859375 355.019531 645.273438 356.804688 C 628.660156 350.027344 603.898438 333.75 606.855469 297.40625 C 610.070312 257.957031 625.207031 249.699219 638.050781 220.800781 C 649.421875 195.207031 644.003906 158.648438 642.519531 150.140625 "/>
</g>
<path fill-rule="nonzero" fill="rgb(61.999512%, 72.898865%, 18.798828%)" fill-opacity="1" d="M 637.878906 417.371094 C 637.878906 501.65625 569.558594 569.980469 485.230469 569.980469 C 400.945312 569.980469 332.625 501.65625 332.625 417.371094 Z M 637.878906 417.371094 "/>
<path fill-rule="nonzero" fill="rgb(61.999512%, 72.898865%, 18.798828%)" fill-opacity="1" d="M 637.878906 417.371094 C 637.878906 496.816406 577.210938 562.078125 499.625 569.316406 L 499.582031 569.316406 C 497.886719 569.480469 496.191406 569.605469 494.453125 569.691406 C 491.394531 569.898438 488.332031 569.980469 485.230469 569.980469 C 482.792969 569.980469 480.351562 569.9375 477.953125 569.8125 C 472.203125 569.523438 466.539062 568.945312 460.957031 568.035156 C 388.207031 556.414062 332.625 493.386719 332.625 417.371094 Z M 637.878906 417.371094 "/>
<path fill-rule="nonzero" fill="rgb(74.499512%, 83.099365%, 55.299377%)" fill-opacity="1" d="M 357.4375 324.582031 L 400.46875 324.582031 L 400.46875 339.269531 L 372.335938 339.269531 L 372.335938 353.523438 L 400.46875 353.523438 L 400.46875 367.945312 L 372.335938 367.945312 L 372.335938 388.683594 L 400.46875 388.683594 L 400.46875 403.421875 L 357.4375 403.421875 Z M 357.4375 324.582031 "/>
<path fill-rule="nonzero" fill="rgb(74.499512%, 83.099365%, 55.299377%)" fill-opacity="1" d="M 504.152344 338.441406 L 493.65625 348.445312 C 486.515625 340.898438 478.480469 337.125 469.558594 337.125 C 462.027344 337.125 455.679688 339.699219 450.523438 344.851562 C 445.363281 350 442.785156 356.347656 442.785156 363.898438 C 442.785156 369.152344 443.929688 373.820312 446.210938 377.898438 C 448.496094 381.976562 451.726562 385.179688 455.90625 387.5 C 460.082031 389.824219 464.722656 390.984375 469.828125 390.984375 C 474.179688 390.984375 478.160156 390.171875 481.769531 388.546875 C 485.371094 386.917969 489.335938 383.957031 493.65625 379.667969 L 503.828125 390.28125 C 498.003906 395.96875 492.503906 399.90625 487.320312 402.109375 C 482.140625 404.304688 476.226562 405.402344 469.582031 405.402344 C 457.328125 405.402344 447.296875 401.519531 439.488281 393.746094 C 431.683594 385.976562 427.777344 376.019531 427.777344 363.867188 C 427.777344 356.011719 429.554688 349.023438 433.113281 342.914062 C 436.667969 336.804688 441.757812 331.894531 448.386719 328.175781 C 455.011719 324.457031 462.152344 322.601562 469.796875 322.601562 C 476.300781 322.601562 482.5625 323.972656 488.582031 326.71875 C 494.601562 329.46875 499.789062 333.375 504.152344 338.441406 "/>
<path fill-rule="nonzero" fill="rgb(74.499512%, 83.099365%, 55.299377%)" fill-opacity="1" d="M 571.570312 337.285156 C 564.273438 337.285156 558.140625 339.824219 553.167969 344.898438 C 548.199219 349.972656 545.710938 356.421875 545.710938 364.246094 C 545.710938 372.960938 548.84375 379.859375 555.101562 384.929688 C 559.964844 388.898438 565.542969 390.878906 571.839844 390.878906 C 578.957031 390.878906 585.015625 388.308594 590.027344 383.164062 C 595.03125 378.015625 597.535156 371.675781 597.535156 364.136719 C 597.535156 356.636719 595.015625 350.28125 589.972656 345.085938 C 584.929688 339.886719 578.792969 337.285156 571.570312 337.285156 M 571.730469 322.601562 C 582.886719 322.601562 592.476562 326.640625 600.503906 334.710938 C 608.527344 342.789062 612.542969 352.632812 612.542969 364.246094 C 612.542969 375.75 608.582031 385.484375 600.664062 393.453125 C 592.746094 401.421875 583.136719 405.402344 571.839844 405.402344 C 560.003906 405.402344 550.171875 401.3125 542.34375 393.128906 C 534.515625 384.953125 530.597656 375.230469 530.597656 363.976562 C 530.597656 356.4375 532.421875 349.507812 536.070312 343.183594 C 539.714844 336.855469 544.730469 331.84375 551.113281 328.148438 C 557.492188 324.449219 564.367188 322.601562 571.730469 322.601562 "/>
<path fill-rule="nonzero" fill="rgb(25.898743%, 33.699036%, 10.198975%)" fill-opacity="1" d="M 361.25 427.902344 L 377.441406 427.902344 L 377.441406 434.632812 L 367.417969 434.632812 L 367.417969 441.210938 L 377.441406 441.210938 L 377.441406 447.839844 L 367.417969 447.839844 L 367.417969 464.15625 L 361.25 464.15625 Z M 361.25 427.902344 "/>
<path fill-rule="nonzero" fill="rgb(25.898743%, 33.699036%, 10.198975%)" fill-opacity="1" d="M 396.730469 442.070312 L 398.675781 442.070312 C 400.652344 442.070312 402.011719 441.785156 402.753906 441.207031 C 403.5 440.628906 403.871094 439.675781 403.871094 438.339844 C 403.871094 437.550781 403.6875 436.863281 403.320312 436.277344 C 402.949219 435.691406 402.457031 435.269531 401.839844 435.015625 C 401.21875 434.757812 400.082031 434.632812 398.433594 434.632812 L 396.730469 434.632812 Z M 390.519531 427.902344 L 397.097656 427.902344 C 400.703125 427.902344 403.269531 428.257812 404.796875 428.972656 C 406.328125 429.6875 407.558594 430.875 408.488281 432.535156 C 409.417969 434.195312 409.882812 436.160156 409.882812 438.425781 C 409.882812 440.808594 409.367188 442.800781 408.34375 444.402344 C 407.316406 446.007812 405.765625 447.21875 403.695312 448.035156 L 411.425781 464.15625 L 404.636719 464.15625 L 397.296875 448.800781 L 396.730469 448.800781 L 396.730469 464.15625 L 390.519531 464.15625 Z M 390.519531 427.902344 "/>
<path fill-rule="nonzero" fill="rgb(25.898743%, 33.699036%, 10.198975%)" fill-opacity="1" d="M 423.136719 427.902344 L 429.300781 427.902344 L 429.300781 464.15625 L 423.136719 464.15625 Z M 423.136719 427.902344 "/>
<path fill-rule="nonzero" fill="rgb(25.898743%, 33.699036%, 10.198975%)" fill-opacity="1" d="M 443.445312 427.902344 L 461.253906 427.902344 L 461.253906 434.65625 L 449.609375 434.65625 L 449.609375 441.210938 L 461.253906 441.210938 L 461.253906 447.839844 L 449.609375 447.839844 L 449.609375 457.378906 L 461.253906 457.378906 L 461.253906 464.15625 L 443.445312 464.15625 Z M 443.445312 427.902344 "/>
<path fill-rule="nonzero" fill="rgb(25.898743%, 33.699036%, 10.198975%)" fill-opacity="1" d="M 474.195312 427.902344 L 480.152344 427.902344 L 494.117188 451.761719 L 494.117188 427.902344 L 500.324219 427.902344 L 500.324219 464.15625 L 494.351562 464.15625 L 480.410156 440.371094 L 480.410156 464.15625 L 474.195312 464.15625 Z M 474.195312 427.902344 "/>
<path fill-rule="nonzero" fill="rgb(25.898743%, 33.699036%, 10.198975%)" fill-opacity="1" d="M 521.101562 434.554688 L 521.101562 457.425781 L 523.984375 457.425781 C 526.824219 457.425781 528.882812 457.066406 530.164062 456.339844 C 531.441406 455.617188 532.488281 454.402344 533.300781 452.691406 C 534.113281 450.980469 534.519531 448.871094 534.519531 446.375 C 534.519531 442.523438 533.550781 439.539062 531.613281 437.417969 C 529.871094 435.511719 527.066406 434.554688 523.207031 434.554688 Z M 514.933594 427.902344 L 522.292969 427.902344 C 527.035156 427.902344 530.558594 428.554688 532.863281 429.863281 C 535.167969 431.167969 537.066406 433.292969 538.558594 436.230469 C 540.050781 439.175781 540.796875 442.609375 540.796875 446.535156 C 540.796875 449.332031 540.378906 451.894531 539.542969 454.238281 C 538.710938 456.578125 537.558594 458.523438 536.085938 460.066406 C 534.617188 461.605469 533.027344 462.675781 531.3125 463.269531 C 529.597656 463.859375 526.628906 464.15625 522.402344 464.15625 L 514.933594 464.15625 Z M 514.933594 427.902344 "/>
<path fill-rule="nonzero" fill="rgb(25.898743%, 33.699036%, 10.198975%)" fill-opacity="1" d="M 553.851562 427.902344 L 560.0625 427.902344 L 560.0625 457.578125 L 569.109375 457.578125 L 569.109375 464.15625 L 553.851562 464.15625 Z M 553.851562 427.902344 "/>
<path fill-rule="nonzero" fill="rgb(25.898743%, 33.699036%, 10.198975%)" fill-opacity="1" d="M 578.648438 427.902344 L 585.316406 427.902344 L 591.402344 440.945312 L 597.464844 427.902344 L 604.046875 427.902344 L 594.496094 448.457031 L 594.496094 464.15625 L 588.242188 464.15625 L 588.242188 448.457031 Z M 578.648438 427.902344 "/>
<path fill-rule="nonzero" fill="rgb(25.898743%, 33.699036%, 10.198975%)" fill-opacity="1" d="M 477.953125 569.8125 C 472.203125 569.523438 466.539062 568.945312 460.953125 568.035156 C 455.910156 564.1875 451.609375 558.316406 449.582031 549.425781 C 444.496094 527.464844 451.277344 520.351562 453.261719 502.402344 C 455 486.5625 445.734375 467.621094 443.460938 463.277344 C 445.902344 465.632812 449.375 469.355469 453.179688 474.566406 C 460.167969 484.039062 468.066406 498.96875 471.5 515.675781 C 473.113281 524.03125 472.492188 532.757812 472.410156 542.558594 C 472.246094 551.410156 473.980469 561.375 477.953125 569.8125 "/>
<path fill-rule="nonzero" fill="rgb(25.898743%, 33.699036%, 10.198975%)" fill-opacity="1" d="M 528.160156 517.910156 C 527.871094 536.066406 518.441406 557.777344 507.066406 565.347656 C 504.503906 567.042969 502.023438 568.324219 499.625 569.316406 L 499.582031 569.316406 C 497.886719 569.480469 496.191406 569.605469 494.453125 569.691406 C 493.460938 568.40625 492.511719 567.085938 491.601562 565.71875 C 487.257812 559.101562 484.859375 551.492188 483.949219 542.515625 C 483.039062 533.625 482.585938 523.453125 479.648438 514.230469 C 473.527344 496.113281 463.476562 482.300781 455 473.453125 C 450.324219 468.570312 446.230469 465.261719 443.460938 463.277344 C 446.976562 464.808594 462.941406 472.085938 479.070312 484.867188 C 487.671875 491.691406 495.488281 501.410156 500.988281 511.5 C 501.898438 511.003906 502.808594 510.507812 503.761719 509.929688 C 514.96875 503.105469 522.660156 487.554688 524.355469 483.875 C 525.140625 486.976562 528.40625 500.996094 528.160156 517.910156 "/>
<path fill-rule="nonzero" fill="rgb(100%, 100%, 100%)" fill-opacity="1" d="M 307.765625 646.285156 L 332.441406 646.285156 L 332.441406 653.773438 L 316.929688 653.773438 L 316.929688 662.996094 L 331.421875 662.996094 L 331.421875 670.421875 L 316.929688 670.421875 L 316.929688 686.65625 L 307.765625 686.65625 Z M 307.765625 646.285156 "/>
<g clip-path="url(#clip-16)">
<path fill-rule="nonzero" fill="rgb(100%, 100%, 100%)" fill-opacity="1" d="M 347.113281 666.589844 C 347.113281 674.496094 350.828125 680.066406 356.9375 680.066406 C 363.105469 680.066406 366.636719 674.195312 366.636719 666.351562 C 366.636719 659.105469 363.164062 652.875 356.875 652.875 C 350.707031 652.875 347.113281 658.746094 347.113281 666.589844 M 376.28125 666.050781 C 376.28125 679.289062 368.253906 687.3125 356.457031 687.3125 C 344.476562 687.3125 337.46875 678.269531 337.46875 666.769531 C 337.46875 654.671875 345.195312 645.628906 357.117188 645.628906 C 369.515625 645.628906 376.28125 654.910156 376.28125 666.050781 "/>
</g>
<path fill-rule="nonzero" fill="rgb(100%, 100%, 100%)" fill-opacity="1" d="M 391.3125 664.195312 L 394.90625 664.195312 C 399.457031 664.195312 402.152344 661.917969 402.152344 658.386719 C 402.152344 654.671875 399.636719 652.816406 395.445312 652.753906 C 393.230469 652.753906 391.972656 652.933594 391.3125 653.054688 Z M 382.269531 646.824219 C 385.203125 646.347656 389.578125 645.988281 394.425781 645.988281 C 400.417969 645.988281 404.609375 646.886719 407.484375 649.160156 C 409.878906 651.078125 411.199219 653.894531 411.199219 657.605469 C 411.199219 662.757812 407.542969 666.289062 404.070312 667.546875 L 404.070312 667.730469 C 406.886719 668.867188 408.441406 671.5625 409.460938 675.273438 C 410.71875 679.828125 411.976562 685.097656 412.753906 686.65625 L 403.410156 686.65625 C 402.753906 685.515625 401.792969 682.222656 400.597656 677.25 C 399.519531 672.21875 397.78125 670.84375 394.066406 670.78125 L 391.3125 670.78125 L 391.3125 686.65625 L 382.269531 686.65625 Z M 382.269531 646.824219 "/>
<path fill-rule="nonzero" fill="rgb(100%, 100%, 100%)" fill-opacity="1" d="M 435.332031 653.953125 L 424.492188 653.953125 L 424.492188 646.285156 L 455.515625 646.285156 L 455.515625 653.953125 L 444.496094 653.953125 L 444.496094 686.65625 L 435.332031 686.65625 Z M 435.332031 653.953125 "/>
<path fill-rule="nonzero" fill="rgb(100%, 100%, 100%)" fill-opacity="1" d="M 469.53125 646.285156 L 469.53125 661.800781 L 484.5625 661.800781 L 484.5625 646.285156 L 493.667969 646.285156 L 493.667969 686.65625 L 484.5625 686.65625 L 484.5625 669.765625 L 469.53125 669.765625 L 469.53125 686.65625 L 460.367188 686.65625 L 460.367188 646.285156 Z M 469.53125 646.285156 "/>
<path fill-rule="nonzero" fill="rgb(100%, 100%, 100%)" fill-opacity="1" d="M 525.648438 669.585938 L 510.796875 669.585938 L 510.796875 679.167969 L 527.386719 679.167969 L 527.386719 686.65625 L 501.632812 686.65625 L 501.632812 646.285156 L 526.546875 646.285156 L 526.546875 653.773438 L 510.796875 653.773438 L 510.796875 662.160156 L 525.648438 662.160156 Z M 525.648438 669.585938 "/>
<path fill-rule="nonzero" fill="rgb(100%, 100%, 100%)" fill-opacity="1" d="M 554.757812 665.152344 C 555.535156 665.332031 556.492188 665.394531 557.808594 665.394531 C 562.660156 665.394531 565.65625 662.9375 565.65625 658.804688 C 565.65625 655.089844 563.082031 652.875 558.53125 652.875 C 556.671875 652.875 555.414062 653.054688 554.757812 653.234375 Z M 545.710938 646.824219 C 548.527344 646.347656 552.480469 645.988281 558.050781 645.988281 C 563.679688 645.988281 567.691406 647.066406 570.386719 649.222656 C 572.964844 651.257812 574.699219 654.613281 574.699219 658.566406 C 574.699219 662.519531 573.382812 665.871094 570.988281 668.148438 C 567.871094 671.082031 563.261719 672.398438 557.871094 672.398438 C 556.671875 672.398438 555.59375 672.339844 554.757812 672.222656 L 554.757812 686.65625 L 545.710938 686.65625 Z M 545.710938 646.824219 "/>
<path fill-rule="nonzero" fill="rgb(100%, 100%, 100%)" fill-opacity="1" d="M 580.507812 646.285156 L 589.671875 646.285156 L 589.671875 678.988281 L 605.722656 678.988281 L 605.722656 686.65625 L 580.507812 686.65625 Z M 580.507812 646.285156 "/>
<path fill-rule="nonzero" fill="rgb(100%, 100%, 100%)" fill-opacity="1" d="M 631.117188 669.464844 L 628.601562 660.902344 C 627.882812 658.503906 627.164062 655.511719 626.566406 653.113281 L 626.445312 653.113281 C 625.847656 655.511719 625.246094 658.566406 624.589844 660.902344 L 622.191406 669.464844 Z M 620.875 676.292969 L 618 686.65625 L 608.535156 686.65625 L 620.875 646.285156 L 632.851562 646.285156 L 645.371094 686.65625 L 635.550781 686.65625 L 632.433594 676.292969 Z M 620.875 676.292969 "/>
<path fill-rule="nonzero" fill="rgb(100%, 100%, 100%)" fill-opacity="1" d="M 650.761719 686.65625 L 650.761719 646.289062 L 661.421875 646.289062 L 669.804688 661.082031 C 672.203125 665.332031 674.597656 670.363281 676.394531 674.917969 L 676.574219 674.917969 C 675.976562 669.585938 675.796875 664.132812 675.796875 658.085938 L 675.796875 646.289062 L 684.179688 646.289062 L 684.179688 686.65625 L 674.597656 686.65625 L 665.972656 671.082031 C 663.578125 666.769531 660.941406 661.558594 658.964844 656.828125 L 658.785156 656.886719 C 659.027344 662.21875 659.144531 667.90625 659.144531 674.496094 L 659.144531 686.65625 Z M 650.761719 686.65625 "/>
<path fill-rule="nonzero" fill="rgb(100%, 100%, 100%)" fill-opacity="1" d="M 716.101562 669.585938 L 701.25 669.585938 L 701.25 679.167969 L 717.839844 679.167969 L 717.839844 686.65625 L 692.085938 686.65625 L 692.085938 646.285156 L 717 646.285156 L 717 653.773438 L 701.25 653.773438 L 701.25 662.160156 L 716.101562 662.160156 Z M 716.101562 669.585938 "/>
<path fill-rule="nonzero" fill="rgb(100%, 100%, 100%)" fill-opacity="1" d="M 732.152344 653.953125 L 721.3125 653.953125 L 721.3125 646.285156 L 752.335938 646.285156 L 752.335938 653.953125 L 741.316406 653.953125 L 741.316406 686.65625 L 732.152344 686.65625 Z M 732.152344 653.953125 "/>
</svg>
