<svg data-geometry-cropped="true" data-normalized="true" data-vectorized-cmyk="true" data-original-cmyk-pdf="true" xmlns="http://www.w3.org/2000/svg" xmlns:xlink="http://www.w3.org/1999/xlink" width="234.78" height="198.43" viewBox="0 0 234.78 198.43">
<g transform="translate(-26.45, -24.29)">
<defs>
<clipPath id="clip-0">
<path clip-rule="nonzero" d="M 26.445312 24.289062 L 261.222656 24.289062 L 261.222656 222.714844 L 26.445312 222.714844 Z M 26.445312 24.289062 "/>
</clipPath>
</defs>







<path fill-rule="nonzero" fill="rgb(0%, 46.231079%, 75.131226%)" fill-opacity="1" d="M 40.988281 95.261719 C 36.042969 95.261719 32.015625 99.753906 32.015625 105.277344 L 32.015625 207.132812 C 32.015625 212.65625 36.042969 217.148438 40.988281 217.148438 L 225.847656 217.148438 C 230.796875 217.148438 234.824219 212.65625 234.824219 207.132812 L 234.824219 105.277344 C 234.824219 99.753906 230.796875 95.261719 225.847656 95.261719 Z M 225.847656 218.921875 L 40.988281 218.921875 C 35.0625 218.921875 30.238281 213.632812 30.238281 207.132812 L 30.238281 105.277344 C 30.238281 98.777344 35.0625 93.488281 40.988281 93.488281 L 225.847656 93.488281 C 231.777344 93.488281 236.597656 98.777344 236.597656 105.277344 L 236.597656 207.132812 C 236.597656 213.632812 231.777344 218.921875 225.847656 218.921875 "/>
<path fill-rule="nonzero" fill="rgb(76.800537%, 92.469788%, 97.175598%)" fill-opacity="1" d="M 223.550781 203.894531 C 192.132812 169.398438 306.730469 135.730469 231.089844 52.679688 L 208.691406 28.082031 C 240.113281 62.582031 125.507812 96.242188 201.148438 179.296875 Z M 223.550781 203.894531 "/>




























</g>
</svg>