<?xml version="1.0" encoding="UTF-8"?>
<svg xmlns="http://www.w3.org/2000/svg" xmlns:xlink="http://www.w3.org/1999/xlink" width="419.528" height="595.276" viewBox="0 0 419.528 595.276">
<path fill-rule="nonzero" fill="rgb(40.545654%, 19.052124%, 39.645386%)" fill-opacity="1" d="M 90.769531 549.839844 L 84.113281 549.839844 L 84.113281 525.4375 L 90.769531 525.4375 Z M 83.828125 519.128906 C 83.828125 516.960938 85.035156 515.875 87.453125 515.875 C 89.867188 515.875 91.074219 516.960938 91.074219 519.128906 C 91.074219 520.160156 90.773438 520.964844 90.171875 521.539062 C 89.566406 522.113281 88.660156 522.402344 87.453125 522.402344 C 85.035156 522.402344 83.828125 521.3125 83.828125 519.128906 M 80.292969 530.433594 L 74.53125 530.433594 L 74.53125 549.839844 L 67.871094 549.839844 L 67.871094 530.433594 L 64.207031 530.433594 L 64.207031 527.226562 L 67.871094 525.4375 L 67.871094 523.648438 C 67.871094 520.867188 68.558594 518.835938 69.925781 517.558594 C 71.292969 516.277344 73.484375 515.636719 76.496094 515.636719 C 78.792969 515.636719 80.839844 515.976562 82.628906 516.660156 L 80.925781 521.550781 C 79.585938 521.128906 78.351562 520.917969 77.214844 520.917969 C 76.269531 520.917969 75.585938 521.199219 75.164062 521.757812 C 74.742188 522.320312 74.53125 523.035156 74.53125 523.910156 L 74.53125 525.4375 L 80.292969 525.4375 Z M 80.292969 530.433594 "/>
<path fill-rule="nonzero" fill="rgb(40.545654%, 19.052124%, 39.645386%)" fill-opacity="1" d="M 117.578125 549.839844 L 110.921875 549.839844 L 110.921875 535.585938 C 110.921875 533.824219 110.605469 532.503906 109.980469 531.625 C 109.355469 530.742188 108.359375 530.304688 106.992188 530.304688 C 105.128906 530.304688 103.78125 530.925781 102.953125 532.167969 C 102.125 533.414062 101.707031 535.476562 101.707031 538.359375 L 101.707031 549.839844 L 95.050781 549.839844 L 95.050781 525.4375 L 100.136719 525.4375 L 101.03125 528.558594 L 101.402344 528.558594 C 102.144531 527.378906 103.167969 526.488281 104.46875 525.882812 C 105.773438 525.28125 107.253906 524.976562 108.910156 524.976562 C 111.75 524.976562 113.902344 525.746094 115.371094 527.28125 C 116.84375 528.816406 117.578125 531.03125 117.578125 533.929688 Z M 117.578125 549.839844 "/>
<path fill-rule="nonzero" fill="rgb(40.545654%, 19.052124%, 39.645386%)" fill-opacity="1" d="M 126.839844 533.425781 C 126.839844 534.75 127.144531 535.796875 127.746094 536.570312 C 128.351562 537.339844 129.273438 537.726562 130.507812 537.726562 C 131.757812 537.726562 132.675781 537.339844 133.257812 536.570312 C 133.839844 535.796875 134.132812 534.75 134.132812 533.425781 C 134.132812 530.488281 132.921875 529.015625 130.507812 529.015625 C 128.0625 529.015625 126.839844 530.488281 126.839844 533.425781 M 124.417969 553.289062 C 124.417969 554.207031 124.859375 554.925781 125.738281 555.449219 C 126.621094 555.972656 127.851562 556.234375 129.4375 556.234375 C 131.824219 556.234375 133.695312 555.910156 135.046875 555.253906 C 136.402344 554.597656 137.078125 553.703125 137.078125 552.570312 C 137.078125 551.652344 136.679688 551.019531 135.878906 550.667969 C 135.078125 550.320312 133.839844 550.144531 132.167969 550.144531 L 128.71875 550.144531 C 127.496094 550.144531 126.472656 550.433594 125.652344 551.007812 C 124.828125 551.582031 124.417969 552.34375 124.417969 553.289062 M 143.253906 525.4375 L 143.253906 528.820312 L 139.4375 529.800781 C 140.132812 530.894531 140.484375 532.117188 140.484375 533.46875 C 140.484375 536.089844 139.570312 538.128906 137.746094 539.589844 C 135.917969 541.054688 133.382812 541.785156 130.136719 541.785156 L 128.9375 541.71875 L 127.953125 541.609375 C 127.269531 542.132812 126.929688 542.714844 126.929688 543.355469 C 126.929688 544.316406 128.152344 544.796875 130.59375 544.796875 L 134.742188 544.796875 C 137.421875 544.796875 139.460938 545.371094 140.867188 546.523438 C 142.269531 547.671875 142.972656 549.359375 142.972656 551.585938 C 142.972656 554.4375 141.78125 556.652344 139.402344 558.222656 C 137.023438 559.792969 133.609375 560.578125 129.15625 560.578125 C 125.75 560.578125 123.148438 559.988281 121.351562 558.800781 C 119.554688 557.613281 118.65625 555.953125 118.65625 553.8125 C 118.65625 552.34375 119.113281 551.113281 120.03125 550.125 C 120.949219 549.132812 122.292969 548.429688 124.070312 548.007812 C 123.386719 547.714844 122.789062 547.238281 122.28125 546.578125 C 121.769531 545.914062 121.515625 545.210938 121.515625 544.46875 C 121.515625 543.539062 121.785156 542.765625 122.324219 542.144531 C 122.863281 541.527344 123.640625 540.921875 124.660156 540.324219 C 123.378906 539.769531 122.363281 538.882812 121.613281 537.660156 C 120.863281 536.4375 120.488281 534.996094 120.488281 533.339844 C 120.488281 530.675781 121.355469 528.617188 123.085938 527.160156 C 124.820312 525.707031 127.292969 524.976562 130.507812 524.976562 C 131.191406 524.976562 132.003906 525.039062 132.941406 525.164062 C 133.878906 525.289062 134.480469 525.378906 134.742188 525.4375 Z M 143.253906 525.4375 "/>
<path fill-rule="nonzero" fill="rgb(40.545654%, 19.052124%, 39.645386%)" fill-opacity="1" d="M 159.789062 538.53125 L 157.214844 538.621094 C 155.28125 538.679688 153.839844 539.027344 152.894531 539.667969 C 151.945312 540.308594 151.476562 541.28125 151.476562 542.59375 C 151.476562 544.46875 152.550781 545.410156 154.703125 545.410156 C 156.246094 545.410156 157.480469 544.964844 158.40625 544.078125 C 159.328125 543.191406 159.789062 542.011719 159.789062 540.542969 Z M 161.753906 549.839844 L 160.46875 546.523438 L 160.292969 546.523438 C 159.171875 547.933594 158.019531 548.910156 156.832031 549.457031 C 155.648438 550.003906 154.101562 550.277344 152.195312 550.277344 C 149.851562 550.277344 148.007812 549.605469 146.660156 548.269531 C 145.316406 546.929688 144.644531 545.023438 144.644531 542.550781 C 144.644531 539.960938 145.546875 538.050781 147.359375 536.820312 C 149.171875 535.589844 151.902344 534.910156 155.554688 534.777344 L 159.789062 534.648438 L 159.789062 533.578125 C 159.789062 531.105469 158.523438 529.867188 155.992188 529.867188 C 154.042969 529.867188 151.75 530.457031 149.117188 531.636719 L 146.914062 527.140625 C 149.71875 525.667969 152.835938 524.933594 156.253906 524.933594 C 159.527344 524.933594 162.039062 525.648438 163.785156 527.074219 C 165.53125 528.5 166.40625 530.667969 166.40625 533.578125 L 166.40625 549.839844 Z M 161.753906 549.839844 "/>
<path fill-rule="nonzero" fill="rgb(40.545654%, 19.052124%, 39.645386%)" fill-opacity="1" d="M 177.234375 549.839844 L 170.578125 549.839844 L 170.578125 515.875 L 177.234375 515.875 Z M 177.234375 549.839844 "/>
<path fill-rule="nonzero" fill="rgb(40.545654%, 19.052124%, 39.645386%)" fill-opacity="1" d="M 182.472656 548.136719 C 182.472656 546.710938 183.054688 546 184.21875 546 C 185.414062 546 186.011719 546.710938 186.011719 548.136719 C 186.011719 549.5625 185.414062 550.277344 184.21875 550.277344 C 183.054688 550.277344 182.472656 549.5625 182.472656 548.136719 "/>
<path fill-rule="nonzero" fill="rgb(40.545654%, 19.052124%, 39.645386%)" fill-opacity="1" d="M 193.019531 549.839844 L 190.859375 549.839844 L 190.859375 526.113281 L 193.019531 526.113281 Z M 190.554688 519.519531 C 190.554688 518.125 191.011719 517.425781 191.929688 517.425781 C 192.378906 517.425781 192.730469 517.609375 192.988281 517.972656 C 193.242188 518.335938 193.367188 518.851562 193.367188 519.519531 C 193.367188 520.175781 193.242188 520.691406 192.988281 521.070312 C 192.730469 521.449219 192.378906 521.636719 191.929688 521.636719 C 191.011719 521.636719 190.554688 520.933594 190.554688 519.519531 "/>
<path fill-rule="nonzero" fill="rgb(40.545654%, 19.052124%, 39.645386%)" fill-opacity="1" d="M 208.035156 527.574219 C 205.753906 527.574219 203.917969 528.328125 202.535156 529.835938 C 201.152344 531.339844 200.347656 533.511719 200.113281 536.351562 L 214.78125 536.351562 C 214.78125 533.597656 214.183594 531.449219 212.992188 529.898438 C 211.800781 528.351562 210.148438 527.574219 208.035156 527.574219 M 208.667969 550.277344 C 205.222656 550.277344 202.53125 549.214844 200.605469 547.089844 C 198.675781 544.964844 197.710938 541.988281 197.710938 538.160156 C 197.710938 534.378906 198.644531 531.347656 200.507812 529.070312 C 202.367188 526.792969 204.878906 525.65625 208.035156 525.65625 C 210.832031 525.65625 213.035156 526.628906 214.652344 528.578125 C 216.265625 530.53125 217.074219 533.175781 217.074219 536.523438 L 217.074219 538.273438 L 199.984375 538.273438 C 200.011719 541.53125 200.773438 544.019531 202.265625 545.738281 C 203.753906 547.453125 205.890625 548.3125 208.667969 548.3125 C 210.023438 548.3125 211.214844 548.21875 212.238281 548.027344 C 213.265625 547.839844 214.5625 547.429688 216.136719 546.804688 L 216.136719 548.769531 C 214.796875 549.351562 213.558594 549.75 212.425781 549.960938 C 211.289062 550.171875 210.039062 550.277344 208.667969 550.277344 "/>
<path fill-rule="nonzero" fill="rgb(40.545654%, 19.052124%, 39.645386%)" fill-opacity="1" d="M 319.453125 523.90625 C 321.152344 522.996094 322.355469 522.277344 323.078125 521.75 C 325.6875 520.121094 326.832031 518.359375 326.503906 516.464844 C 326.109375 515.15625 324.875 514.308594 322.785156 513.914062 L 322.878906 513.523438 L 329.050781 514.011719 C 329.382812 514.207031 329.578125 514.375 329.644531 514.5 C 330.816406 514.765625 331.925781 514.960938 332.96875 515.089844 C 336.824219 515.742188 338.78125 516.238281 338.847656 516.558594 C 338.914062 516.824219 338.78125 516.953125 338.460938 516.953125 C 333.882812 517.605469 331.402344 518.03125 331.011719 518.226562 C 329.253906 519.273438 327.90625 520.1875 326.996094 520.96875 C 325.167969 522.019531 322.65625 523.09375 319.453125 524.203125 Z M 320.726562 507.546875 C 320.726562 511.203125 321.574219 513.195312 323.273438 513.523438 L 323.078125 514.011719 C 321.835938 513.6875 320.234375 513.652344 318.277344 513.914062 L 317.492188 518.816406 L 317.296875 518.816406 C 313.507812 509.34375 307.238281 501.933594 298.492188 496.578125 L 298.492188 496.285156 C 298.816406 496.089844 299.273438 495.828125 299.863281 495.5 C 300.121094 495.304688 300.351562 495.105469 300.546875 494.914062 C 300.394531 493.605469 300.394531 492.5 300.546875 491.582031 C 300.742188 490.734375 301.589844 489.753906 303.097656 488.644531 L 300.453125 484.132812 C 299.402344 482.375 298.816406 481.394531 298.683594 481.199219 C 298.164062 480.085938 298.714844 479.273438 300.351562 478.746094 C 298.519531 476.398438 297.640625 474.898438 297.703125 474.242188 C 298.164062 473.851562 299.699219 474.566406 302.3125 476.398438 C 301.265625 474.046875 300.546875 472.644531 300.15625 472.1875 C 299.507812 471.402344 298.828125 470.34375 298.148438 469 C 297.460938 467.664062 297.183594 466.800781 297.316406 466.40625 C 297.964844 466.273438 300.933594 469.085938 306.226562 474.832031 C 305.445312 472.808594 304.789062 471.339844 304.269531 470.421875 C 303.675781 469.050781 303.042969 467.222656 302.359375 464.941406 C 301.671875 462.652344 301.425781 461.476562 301.625 461.410156 C 302.078125 461.277344 303.484375 463.207031 305.832031 467.191406 C 308.644531 472.023438 310.082031 474.410156 310.152344 474.339844 C 310.40625 474.148438 309.65625 471.996094 307.894531 467.886719 C 307.367188 466.78125 306.753906 465.121094 306.035156 462.902344 C 305.183594 460.359375 304.886719 459.023438 305.152344 458.894531 C 305.542969 458.628906 306.984375 460.714844 309.460938 465.148438 C 310.308594 466.90625 311.191406 468.703125 312.109375 470.527344 C 313.605469 473.398438 314.421875 474.800781 314.554688 474.730469 L 312.300781 468.460938 C 312.039062 467.8125 311.664062 466.257812 311.175781 463.808594 C 310.6875 461.363281 310.539062 460.074219 310.734375 459.945312 C 310.996094 459.808594 311.90625 461.25 313.480469 464.253906 C 314.324219 465.820312 316.320312 471.140625 319.453125 480.21875 C 319.320312 479.175781 319.195312 478.226562 319.058594 477.375 C 318.867188 476.199219 318.703125 474.996094 318.578125 473.753906 C 318.578125 472.90625 318.605469 472.089844 318.667969 471.304688 C 318.933594 471.367188 319.417969 472.464844 320.132812 474.585938 C 320.855469 476.707031 321.308594 478.359375 321.507812 479.53125 C 322.09375 482.867188 322.484375 485.933594 322.683594 488.738281 C 322.816406 489.652344 322.878906 490.667969 322.878906 491.773438 C 322.878906 495.105469 322.328125 498.992188 321.210938 503.433594 C 320.890625 504.804688 320.726562 506.179688 320.726562 507.546875 M 312.597656 526.238281 C 304.171875 528.132812 297.1875 529.277344 291.632812 529.667969 C 289.804688 529.933594 284.582031 531.5625 275.960938 534.5625 L 274.003906 531.621094 L 278.605469 529.957031 C 278.929688 528.851562 279.097656 528.199219 279.097656 528.003906 C 279.222656 527.480469 279.359375 526.863281 279.488281 526.140625 C 279.878906 525.945312 280.269531 525.71875 280.660156 525.453125 C 281.316406 525.066406 282.519531 524.707031 284.289062 524.378906 C 287.421875 523.59375 289.546875 523.171875 290.652344 523.105469 L 290.652344 522.8125 C 289.152344 522.292969 288.269531 521.867188 288.007812 521.539062 C 287.617188 521.019531 287.679688 520.527344 288.203125 520.070312 L 288.203125 519.875 C 286.703125 519.742188 285.789062 519.351562 285.464844 518.699219 C 285.132812 517.917969 285.363281 517.328125 286.148438 516.9375 L 286.148438 516.644531 C 283.273438 516.125 281.835938 515.242188 281.835938 514 C 281.835938 513.414062 282.164062 512.992188 282.816406 512.730469 L 282.816406 512.433594 C 280.203125 511.652344 278.898438 510.574219 278.898438 509.203125 C 278.898438 508.617188 279.257812 508.160156 279.976562 507.832031 L 279.878906 507.539062 C 277.328125 507.015625 276.054688 506.265625 276.054688 505.285156 C 276.054688 504.761719 276.414062 504.308594 277.136719 503.917969 L 277.136719 503.71875 C 271.195312 503.523438 268.058594 503.066406 267.730469 502.351562 C 267.40625 501.371094 268.15625 500.589844 269.988281 500.003906 L 269.988281 499.707031 C 265.871094 499.902344 263.453125 499.640625 262.738281 498.921875 C 262.601562 498.140625 264.296875 497.359375 267.832031 496.570312 L 267.921875 496.183594 C 264.53125 496.183594 262.117188 496.082031 260.679688 495.886719 C 257.542969 495.367188 255.976562 494.746094 255.976562 494.027344 C 255.910156 493.640625 256.65625 493.441406 258.230469 493.441406 C 261.105469 493.441406 262.703125 493.410156 263.03125 493.34375 C 265.246094 493.210938 267.113281 493.050781 268.613281 492.855469 L 268.710938 492.460938 C 265.441406 492.070312 263.226562 491.742188 262.050781 491.480469 C 257.609375 490.308594 255.386719 489.292969 255.386719 488.449219 C 255.386719 487.859375 258.164062 488.054688 263.714844 489.03125 C 266.457031 489.492188 268.515625 489.652344 269.890625 489.527344 L 269.988281 489.230469 L 264.597656 487.761719 C 262.046875 487.042969 260.613281 486.621094 260.289062 486.488281 C 256.433594 485.445312 254.636719 484.59375 254.894531 483.941406 C 255.027344 483.679688 255.515625 483.546875 256.371094 483.546875 C 256.753906 483.546875 259.148438 483.976562 263.519531 484.824219 C 265.734375 485.28125 267.792969 485.703125 269.691406 486.097656 C 270.605469 486.292969 271.71875 486.390625 273.019531 486.390625 L 273.117188 486.097656 C 268.679688 484.726562 266.128906 483.875 265.476562 483.546875 C 264.238281 483.027344 262.964844 482.472656 261.660156 481.886719 C 260.351562 481.292969 259.761719 480.808594 259.894531 480.414062 C 260.023438 480.222656 260.320312 480.117188 260.777344 480.117188 C 260.839844 480.117188 263.125 480.640625 267.632812 481.6875 C 270.832031 482.792969 273.609375 483.78125 275.960938 484.628906 C 277.003906 485.019531 278.375 485.410156 280.074219 485.800781 L 280.074219 485.703125 C 275.234375 482.898438 272.890625 481.394531 273.019531 481.199219 C 273.085938 480.9375 274.164062 481.167969 276.253906 481.878906 C 277.945312 482.535156 279.125 483.023438 279.78125 483.351562 C 284.21875 485.574219 287.914062 487.792969 290.847656 490.011719 C 292.808594 491.582031 294.636719 493.242188 296.332031 495.011719 L 296.039062 495.203125 L 287.714844 491.777344 C 285.230469 490.796875 282.523438 490.308594 279.585938 490.308594 C 278.539062 490.308594 277.890625 490.46875 277.625 490.796875 C 277.5625 491.648438 281.34375 492.984375 288.988281 494.8125 L 289.082031 495.203125 C 283.792969 494.03125 279.90625 493.445312 277.429688 493.445312 C 276.125 493.445312 275.339844 493.605469 275.074219 493.933594 C 275.46875 494.714844 279.617188 495.828125 287.519531 497.265625 L 287.519531 497.457031 C 283.402344 496.9375 280.234375 496.675781 278.019531 496.675781 C 275.996094 496.675781 274.878906 496.871094 274.683594 497.257812 C 275.273438 498.242188 279.710938 499.222656 288.007812 500.199219 L 288.007812 500.496094 C 285.660156 500.296875 283.699219 500.199219 282.132812 500.199219 C 279.453125 500.199219 278.046875 500.398438 277.921875 500.789062 C 278.769531 502.160156 282.589844 503.070312 289.378906 503.53125 L 289.476562 503.824219 C 285.949219 504.476562 284.21875 504.933594 284.289062 505.195312 C 285.007812 506.042969 287.453125 506.695312 291.632812 507.152344 L 291.730469 507.347656 C 288.070312 507.9375 286.3125 508.648438 286.441406 509.5 C 287.226562 510.285156 289.933594 510.808594 294.570312 511.070312 L 294.667969 511.359375 C 292.253906 511.882812 290.582031 512.4375 289.671875 513.023438 C 289.28125 513.21875 289.082031 513.453125 289.082031 513.710938 C 289.671875 514.496094 292.480469 514.984375 297.511719 515.179688 L 297.511719 515.472656 C 294.898438 515.796875 293.105469 516.222656 292.121094 516.742188 C 291.667969 516.945312 291.441406 517.167969 291.441406 517.429688 C 291.890625 518.34375 294.570312 518.835938 299.46875 518.894531 L 299.46875 519.089844 C 297.574219 519.484375 296.269531 519.972656 295.550781 520.5625 C 295.289062 520.757812 295.160156 520.988281 295.160156 521.246094 C 295.484375 522.816406 298.492188 524.15625 304.171875 525.265625 C 308.152344 525.980469 310.867188 526.238281 312.300781 526.042969 Z M 312.597656 526.238281 "/>
<path fill-rule="nonzero" fill="rgb(40.545654%, 19.052124%, 39.645386%)" fill-opacity="1" d="M 347.46875 552.84375 L 347.46875 553.234375 C 347.398438 553.300781 347.335938 553.335938 347.269531 553.335938 C 341.394531 552.941406 335.417969 552.746094 329.347656 552.746094 C 303.414062 552.746094 278.175781 555.882812 253.625 562.152344 C 253.554688 562.152344 253.492188 562.085938 253.425781 561.957031 L 253.425781 561.855469 L 253.527344 561.757812 C 272.722656 553.851562 293.816406 549.898438 316.804688 549.898438 C 327.578125 549.898438 337.769531 550.847656 347.363281 552.746094 C 347.429688 552.746094 347.46875 552.777344 347.46875 552.84375 "/>
<path fill-rule="nonzero" fill="rgb(40.545654%, 19.052124%, 39.645386%)" fill-opacity="1" d="M 73.03125 482.261719 C 71.035156 482.261719 69.429688 482.917969 68.222656 484.234375 C 67.011719 485.554688 66.308594 487.453125 66.105469 489.933594 L 78.929688 489.933594 C 78.929688 487.527344 78.410156 485.648438 77.367188 484.292969 C 76.320312 482.9375 74.878906 482.261719 73.03125 482.261719 M 73.585938 502.109375 C 70.570312 502.109375 68.21875 501.183594 66.535156 499.324219 C 64.847656 497.464844 64.003906 494.863281 64.003906 491.519531 C 64.003906 488.210938 64.820312 485.558594 66.449219 483.570312 C 68.078125 481.578125 70.269531 480.582031 73.03125 480.582031 C 75.476562 480.582031 77.402344 481.433594 78.816406 483.140625 C 80.226562 484.84375 80.933594 487.160156 80.933594 490.085938 L 80.933594 491.613281 L 65.988281 491.613281 C 66.015625 494.464844 66.679688 496.640625 67.984375 498.140625 C 69.289062 499.640625 71.15625 500.394531 73.585938 500.394531 C 74.769531 500.394531 75.808594 500.3125 76.707031 500.144531 C 77.601562 499.980469 78.738281 499.625 80.113281 499.078125 L 80.113281 500.792969 C 78.941406 501.304688 77.863281 501.648438 76.867188 501.832031 C 75.875 502.019531 74.78125 502.109375 73.585938 502.109375 "/>
<path fill-rule="nonzero" fill="rgb(40.545654%, 19.052124%, 39.645386%)" fill-opacity="1" d="M 91.203125 501.730469 L 83.1875 480.980469 L 85.132812 480.980469 L 90.496094 495.085938 C 91.207031 496.894531 91.742188 498.472656 92.101562 499.820312 L 92.214844 499.820312 C 92.734375 498.089844 93.269531 496.5 93.816406 495.050781 L 99.179688 480.980469 L 101.128906 480.980469 L 93.113281 501.730469 Z M 91.203125 501.730469 "/>
<path fill-rule="nonzero" fill="rgb(40.545654%, 19.052124%, 39.645386%)" fill-opacity="1" d="M 112.425781 482.261719 C 110.429688 482.261719 108.824219 482.917969 107.617188 484.234375 C 106.40625 485.554688 105.703125 487.453125 105.5 489.933594 L 118.324219 489.933594 C 118.324219 487.527344 117.804688 485.648438 116.761719 484.292969 C 115.714844 482.9375 114.273438 482.261719 112.425781 482.261719 M 112.980469 502.109375 C 109.964844 502.109375 107.613281 501.183594 105.929688 499.324219 C 104.242188 497.464844 103.398438 494.863281 103.398438 491.519531 C 103.398438 488.210938 104.214844 485.558594 105.84375 483.570312 C 107.472656 481.578125 109.664062 480.582031 112.425781 480.582031 C 114.871094 480.582031 116.796875 481.433594 118.210938 483.140625 C 119.621094 484.84375 120.328125 487.160156 120.328125 490.085938 L 120.328125 491.613281 L 105.382812 491.613281 C 105.410156 494.464844 106.074219 496.640625 107.378906 498.140625 C 108.683594 499.640625 110.550781 500.394531 112.980469 500.394531 C 114.164062 500.394531 115.203125 500.3125 116.101562 500.144531 C 116.996094 499.980469 118.132812 499.625 119.507812 499.078125 L 119.507812 500.792969 C 118.335938 501.304688 117.257812 501.648438 116.261719 501.832031 C 115.269531 502.019531 114.175781 502.109375 112.980469 502.109375 "/>
<path fill-rule="nonzero" fill="rgb(40.545654%, 19.052124%, 39.645386%)" fill-opacity="1" d="M 140.523438 501.730469 L 140.523438 488.273438 C 140.523438 486.1875 140.082031 484.667969 139.207031 483.722656 C 138.328125 482.773438 136.964844 482.300781 135.121094 482.300781 C 132.640625 482.300781 130.824219 482.925781 129.671875 484.179688 C 128.519531 485.433594 127.945312 487.464844 127.945312 490.277344 L 127.945312 501.730469 L 126.054688 501.730469 L 126.054688 480.980469 L 127.660156 480.980469 L 128.019531 483.824219 L 128.136719 483.824219 C 129.484375 481.660156 131.882812 480.582031 135.332031 480.582031 C 140.039062 480.582031 142.390625 483.105469 142.390625 488.160156 L 142.390625 501.730469 Z M 140.523438 501.730469 "/>
<path fill-rule="nonzero" fill="rgb(40.545654%, 19.052124%, 39.645386%)" fill-opacity="1" d="M 154.589844 500.429688 C 155.785156 500.429688 156.828125 500.328125 157.71875 500.125 L 157.71875 501.652344 C 156.804688 501.957031 155.746094 502.109375 154.550781 502.109375 C 152.71875 502.109375 151.367188 501.621094 150.496094 500.640625 C 149.625 499.660156 149.1875 498.121094 149.1875 496.023438 L 149.1875 482.625 L 146.113281 482.625 L 146.113281 481.515625 L 149.1875 480.65625 L 150.140625 475.960938 L 151.113281 475.960938 L 151.113281 480.980469 L 157.203125 480.980469 L 157.203125 482.625 L 151.113281 482.625 L 151.113281 495.753906 C 151.113281 497.34375 151.394531 498.523438 151.957031 499.285156 C 152.515625 500.050781 153.394531 500.429688 154.589844 500.429688 "/>
<path fill-rule="nonzero" fill="rgb(40.545654%, 19.052124%, 39.645386%)" fill-opacity="1" d="M 175.070312 496.328125 C 175.070312 498.183594 174.363281 499.613281 172.949219 500.613281 C 171.539062 501.613281 169.535156 502.109375 166.9375 502.109375 C 164.164062 502.109375 161.964844 501.683594 160.332031 500.832031 L 160.332031 498.789062 C 162.421875 499.832031 164.621094 500.355469 166.9375 500.355469 C 168.988281 500.355469 170.542969 500.015625 171.605469 499.335938 C 172.667969 498.652344 173.199219 497.746094 173.199219 496.613281 C 173.199219 495.570312 172.777344 494.691406 171.929688 493.980469 C 171.082031 493.265625 169.691406 492.566406 167.757812 491.878906 C 165.683594 491.128906 164.226562 490.484375 163.386719 489.941406 C 162.546875 489.402344 161.914062 488.792969 161.488281 488.109375 C 161.0625 487.429688 160.851562 486.601562 160.851562 485.621094 C 160.851562 484.066406 161.5 482.839844 162.804688 481.9375 C 164.109375 481.03125 165.933594 480.582031 168.273438 480.582031 C 170.515625 480.582031 172.636719 481 174.648438 481.839844 L 173.941406 483.558594 C 171.90625 482.71875 170.015625 482.300781 168.273438 482.300781 C 166.582031 482.300781 165.238281 482.578125 164.246094 483.140625 C 163.253906 483.699219 162.757812 484.476562 162.757812 485.46875 C 162.757812 486.550781 163.144531 487.414062 163.914062 488.0625 C 164.683594 488.710938 166.1875 489.4375 168.425781 490.238281 C 170.296875 490.914062 171.660156 491.519531 172.511719 492.0625 C 173.363281 492.601562 174.003906 493.214844 174.429688 493.902344 C 174.855469 494.589844 175.070312 495.398438 175.070312 496.328125 "/>
<path fill-rule="nonzero" fill="rgb(40.545654%, 19.052124%, 39.645386%)" fill-opacity="1" d="M 192.457031 501.730469 L 190.566406 501.730469 L 190.566406 480.980469 L 192.457031 480.980469 Z M 190.300781 475.21875 C 190.300781 473.996094 190.699219 473.386719 191.503906 473.386719 C 191.898438 473.386719 192.203125 473.546875 192.429688 473.863281 C 192.652344 474.179688 192.761719 474.632812 192.761719 475.21875 C 192.761719 475.789062 192.652344 476.242188 192.429688 476.574219 C 192.203125 476.902344 191.898438 477.070312 191.503906 477.070312 C 190.699219 477.070312 190.300781 476.453125 190.300781 475.21875 "/>
<path fill-rule="nonzero" fill="rgb(40.545654%, 19.052124%, 39.645386%)" fill-opacity="1" d="M 213.871094 501.730469 L 213.871094 488.273438 C 213.871094 486.1875 213.433594 484.667969 212.554688 483.722656 C 211.675781 482.773438 210.316406 482.300781 208.472656 482.300781 C 205.988281 482.300781 204.171875 482.925781 203.019531 484.179688 C 201.871094 485.433594 201.292969 487.464844 201.292969 490.277344 L 201.292969 501.730469 L 199.402344 501.730469 L 199.402344 480.980469 L 201.007812 480.980469 L 201.371094 483.824219 L 201.484375 483.824219 C 202.832031 481.660156 205.230469 480.582031 208.679688 480.582031 C 213.386719 480.582031 215.742188 483.105469 215.742188 488.160156 L 215.742188 501.730469 Z M 213.871094 501.730469 "/>
<path fill-rule="nonzero" fill="rgb(13.729858%, 12.159729%, 12.548828%)" fill-opacity="1" d="M 335.425781 135.894531 C 353.429688 171.300781 359.738281 209.289062 358.363281 240.960938 C 353.617188 283.824219 334.914062 317.414062 308.777344 337.242188 C 295.410156 347.386719 282.046875 353.921875 265.558594 357.859375 C 249.648438 361.890625 233.226562 363.511719 216.640625 363.109375 C 183.484375 362.222656 149.476562 353.617188 116.761719 336.066406 C 100.46875 327.199219 84.5 316.007812 70.066406 301.761719 C 55.667969 287.578125 42.714844 270.273438 34.097656 249.738281 C 26.207031 231.546875 22.570312 212.898438 22.875 194.285156 C 23.015625 174.984375 25.226562 156.460938 30.128906 139.433594 C 35.011719 122.410156 42.695312 106.945312 53.25 94.257812 C 63.765625 81.53125 77.148438 71.695312 92.214844 65.121094 C 122.492188 51.90625 158.296875 51.394531 192.742188 59.539062 C 227.214844 67.871094 261.765625 84.734375 290.035156 111.40625 C 295.460938 114.796875 302.941406 120.859375 310.78125 129.9375 C 318.574219 138.96875 326.757812 151.136719 332.3125 166.230469 C 337.882812 181.246094 340.496094 199.265625 337.492188 217.988281 C 334.628906 236.695312 326.199219 255.742188 313.894531 273.007812 C 301.632812 290.5 285.78125 305.679688 268.632812 320.265625 C 252.222656 334.121094 233.53125 344.496094 214.339844 349.214844 C 195.1875 354.097656 175.851562 353.234375 158.859375 348.613281 C 141.789062 344.074219 127.070312 336.105469 115.128906 327.871094 C 99.503906 316.136719 87.929688 302.78125 79.683594 291.246094 C 71.421875 279.660156 66.359375 269.863281 63.3125 263.984375 C 60.265625 258.101562 59.019531 256.152344 59.539062 259.476562 C 60.167969 262.726562 62.480469 271.40625 69.789062 285.183594 C 55.816406 260.546875 52.03125 240.992188 50.46875 226.664062 C 49.132812 212.179688 50.203125 202.332031 51.746094 193.332031 C 53.417969 184.328125 55.601562 176.007812 60.140625 164.921875 C 64.808594 153.996094 71.785156 139.84375 87.800781 123.058594 C 81.199219 131.175781 75.625 139.941406 71.339844 149.109375 C 87.328125 124.121094 115.03125 104.054688 151.527344 88.933594 C 164.714844 82.632812 178.996094 78.300781 193.8125 76.128906 C 221.171875 75.175781 245.402344 80.539062 267.050781 88.5 C 288.71875 96.597656 308.058594 107.4375 325.785156 120.90625 C 343.464844 134.441406 359.730469 150.683594 373.367188 171.121094 C 386.800781 191.464844 398.0625 216.550781 399.832031 246.199219 C 399.398438 236.578125 398.238281 229.925781 397.503906 225.632812 C 396.734375 221.316406 396.363281 219.363281 396.460938 219.097656 C 396.648438 218.574219 398.808594 224.914062 400.546875 233.59375 C 402.347656 242.269531 403.261719 253.292969 403.171875 261.597656 C 403.105469 269.902344 402.542969 275.464844 403.566406 273.378906 C 402.613281 277.929688 400.882812 285.832031 397.777344 294.351562 C 394.730469 302.898438 390.230469 311.96875 385.503906 319.28125 C 380.84375 326.652344 376.121094 332.3125 373.671875 334.972656 C 371.226562 337.636719 371.148438 337.390625 374.832031 332.410156 C 358.855469 352.179688 338.847656 368.128906 317.492188 379.363281 C 296.128906 390.671875 273.332031 397.140625 251.457031 399.230469 C 207.421875 403.46875 168.667969 390.523438 144.226562 374.734375 C 132.917969 369.308594 122.046875 362.824219 111.808594 355.433594 C 85.730469 336.164062 67.125 312.441406 54.980469 286.824219 C 42.882812 261.136719 37.125 233.324219 38.285156 203.925781 C 37.753906 201.191406 37.28125 198.421875 36.890625 195.640625 C 37.636719 176.085938 44.132812 148.050781 56.050781 123.472656 C 68.070312 98.75 87.566406 79.546875 101.597656 70.015625 C 142.222656 38.570312 203.6875 23.289062 261.351562 36.820312 C 289.957031 43.464844 317.421875 57.78125 337.046875 79.566406 C 356.90625 101.175781 367.34375 129.753906 369.121094 157.101562 C 369.542969 170.75 368.414062 181.871094 367.089844 191.089844 C 365.734375 200.257812 364.289062 207.589844 362.933594 213.625 C 360.140625 225.699219 358.058594 232.804688 356.074219 239.625 C 354 246.414062 351.984375 252.96875 347.101562 263.160156 C 342.089844 273.195312 334.472656 287.433594 317.070312 305.730469 C 305.652344 316.933594 290.785156 328.84375 273.3125 338.570312 C 255.898438 348.347656 235.929688 355.867188 215.941406 359.640625 C 195.957031 363.511719 176.074219 363.617188 159.292969 361.054688 C 142.476562 358.570312 128.867188 353.527344 120.160156 349.136719 C 140.777344 357.644531 158.386719 359.964844 173.332031 360.394531 C 188.359375 360.730469 200.996094 359.03125 213.40625 356.316406 C 225.820312 353.496094 238.09375 349.597656 252.105469 343.433594 C 266.058594 337.15625 281.949219 328.703125 299.707031 314.367188 C 292.621094 319.46875 296.730469 316.117188 305.128906 308.285156 C 313.511719 300.441406 325.402344 287.1875 334.089844 273.46875 C 342.945312 259.867188 348.703125 246.210938 350.460938 240.824219 C 352.003906 235.320312 351.121094 238.722656 341.609375 256.164062 C 322.699219 294.566406 287.089844 328.097656 242.859375 344.261719 C 220.875 352.40625 196.949219 356.316406 173.148438 354.933594 C 149.375 353.605469 125.800781 346.738281 105.304688 334.648438 C 84.746094 322.632812 67.558594 305.433594 54.871094 285.789062 C 42.253906 266.117188 33.222656 244.292969 28.574219 222.152344 C 23.613281 200.03125 21.882812 177.558594 24.832031 156.167969 C 27.671875 134.804688 35.523438 114.738281 47.246094 98.285156 C 46.65625 101.617188 52.964844 92.410156 67.578125 80.273438 C 82.050781 68.089844 106.265625 54.546875 135.394531 48.394531 C 164.382812 41.910156 197.320312 42.519531 225.867188 48.75 C 254.550781 54.785156 278.570312 66.132812 293.464844 75.15625 L 296.542969 78.671875 C 309.0625 86.898438 319.703125 95.800781 329.738281 105.773438 C 339.878906 115.492188 349.441406 125.898438 358.429688 138.074219 C 367.355469 150.261719 375.835938 164.285156 381.898438 181.519531 C 387.902344 198.648438 391.3125 219.472656 386.734375 242.710938 C 380.867188 270.453125 363.855469 294.949219 342.175781 312.519531 C 320.441406 330.21875 294.242188 341.609375 267.59375 346.738281 C 240.894531 351.878906 213.652344 350.765625 188.734375 344.269531 C 163.742188 337.84375 141.199219 326.070312 122.402344 311.460938 C 108.515625 300.710938 95.59375 288.109375 84.105469 274.097656 C 72.53125 260.4375 64.089844 244.351562 58.578125 227.242188 C 47.582031 193.015625 47.640625 155.703125 57.160156 123.894531 C 61.890625 107.976562 69.128906 93.421875 78.339844 81.40625 C 87.488281 69.328125 98.71875 59.980469 110.296875 53.585938 C 133.761719 40.691406 157.167969 39.796875 172.351562 40.289062 C 150.566406 37.675781 127.550781 40.359375 107.820312 50.46875 C 87.96875 60.347656 72.277344 76.992188 61.898438 95.742188 C 51.421875 114.558594 45.761719 135.371094 43.628906 156.007812 C 41.546875 176.675781 43.019531 197.351562 47.707031 216.886719 C 52.425781 236.402344 60.433594 254.875 71.871094 270.617188 C 83.496094 286.046875 96.726562 299.617188 110.933594 311.378906 C 139.402344 334.90625 172.460938 350.078125 205.4375 356.710938 C 174.355469 351.769531 152.109375 341.441406 134.929688 331.632812 C 117.753906 321.609375 105.351562 311.703125 94.335938 301.761719 C 88.832031 296.746094 83.742188 291.695312 78.664062 286.273438 C 73.730469 280.957031 68.5625 275.167969 63.726562 268.25 C 54.214844 254.511719 45.359375 237.199219 39.691406 213.222656 C 42.648438 230.269531 48.023438 247.121094 56.414062 262.816406 C 48.898438 250.425781 43.277344 237.078125 39.285156 223.3125 C 41.488281 234.121094 37.980469 226.054688 34.882812 215.679688 C 31.710938 205.328125 29.707031 192.632812 29.164062 196.054688 C 32.054688 222.417969 39.976562 248.675781 54.785156 271.90625 C 58.378906 277.597656 62.871094 283.503906 66.960938 288.296875 C 68.777344 290.5 71.222656 293.261719 73.355469 295.636719 C 75.539062 298.054688 77.757812 300.414062 80.039062 302.742188 C 89.140625 312.050781 98.996094 320.707031 109.585938 328.46875 C 92.851562 315.527344 84.726562 306.25 80.65625 301.601562 C 76.675781 296.847656 76.921875 296.402344 79.429688 298.378906 C 84.332031 302.46875 99.269531 315.339844 109.578125 321.679688 C 130.441406 337.871094 154.488281 350.351562 180.191406 357.566406 C 171.230469 354.894531 155.519531 348.527344 149.160156 344.890625 C 145.925781 343.148438 144.90625 342.363281 147.921875 343.574219 C 150.96875 344.652344 158.023438 347.964844 171.75 352.238281 C 186.757812 357.359375 205.105469 360.945312 224.019531 361.675781 C 242.945312 362.5 262.316406 360.425781 279.582031 356.742188 C 259.484375 363.058594 238.191406 366.097656 216.769531 365.671875 C 241.394531 366.84375 264.507812 364.128906 286.085938 358.351562 C 307.636719 352.515625 327.75 343.574219 345.882812 331.09375 C 363.945312 318.613281 380.199219 302.390625 391.765625 281.753906 C 403.351562 261.273438 409.6875 235.902344 406.886719 209.871094 C 407.4375 199.238281 406.71875 188.4375 404.804688 177.855469 C 394.808594 146.125 375.617188 119.699219 354.085938 97.726562 C 356.867188 99.878906 359.589844 102.117188 362.3125 104.417969 C 359.175781 100.941406 355.984375 97.539062 352.703125 94.238281 L 343.0625 84.855469 C 336.132812 78.191406 328.84375 72.070312 321.167969 66.410156 C 305.867188 55.078125 289.183594 45.734375 271.710938 38.441406 C 243.035156 27.308594 225.277344 25.421875 214.171875 24.242188 C 202.972656 23.328125 197.96875 23.878906 192.59375 24.183594 C 169.324219 22.769531 146.25 25.246094 127.15625 29.972656 C 108.015625 34.609375 92.96875 41.351562 84.164062 45.566406 C 100.3125 36.121094 117.851562 29.449219 135.824219 25.15625 C 119.039062 28.152344 102.382812 33.203125 86.554688 40.769531 C 94.730469 37.007812 96.46875 36.691406 94.148438 37.863281 C 91.839844 39.0625 85.5625 42.105469 78.25 46.5 C 70.929688 50.863281 62.664062 56.757812 56.042969 62.578125 C 49.378906 68.363281 44.328125 73.957031 42.304688 76.53125 C 22.070312 98.710938 14.796875 118.597656 10.457031 132.308594 C 6.359375 146.328125 5.257812 155.320312 4.371094 162.847656 C 3.566406 170.40625 3.183594 176.617188 3.132812 185.421875 C 3.183594 194.214844 3.519531 205.695312 6.476562 223.175781 C 13.84375 259.257812 32.566406 297.632812 55.511719 322.152344 C 78.210938 347.082031 101.617188 357.515625 103.949219 357.113281 C 134.664062 373.398438 170.828125 379.382812 205.507812 375.441406 C 240.273438 371.628906 273.753906 358.304688 301.917969 337.953125 C 330.128906 317.648438 352.859375 290.105469 367.414062 259.414062 C 374.742188 244.097656 380.089844 228.070312 383.566406 211.933594 C 384.460938 207.914062 385.179688 203.824219 385.859375 199.855469 C 386.40625 196.476562 387.125 191.839844 387.546875 187.839844 C 388.480469 179.683594 388.945312 171.46875 388.824219 163.222656 C 387.921875 143.921875 383.84375 124.316406 375.785156 106.257812 C 368.582031 87.625 357.753906 71.765625 345.460938 59.226562 C 333.167969 46.617188 319.488281 37.144531 305.652344 29.992188 C 277.820312 15.78125 249.628906 10.132812 221.710938 9.414062 C 193.742188 8.902344 165.460938 13.34375 136.601562 24.882812 C 108.027344 36.476562 77.957031 55.667969 54.09375 88.066406 C 56.335938 84.5 58.695312 80.980469 61.21875 77.5625 C 52.003906 88.992188 44.289062 101.558594 38.246094 114.777344 C 35.21875 121.390625 32.613281 128.160156 30.402344 135.019531 L 28.820312 140.1875 L 27.542969 144.847656 C 26.679688 147.792969 25.578125 151.605469 24.761719 155.007812 C 16.402344 183.160156 15.320312 208.917969 18.179688 231.84375 C 21.117188 254.835938 27.859375 275.21875 37.539062 294.488281 C 47.316406 313.738281 60.101562 332.015625 77.542969 349.980469 C 95.054688 367.785156 117.332031 385.570312 147.894531 400.164062 C 181.058594 415.398438 213.171875 420.507812 240.792969 419.777344 C 268.546875 419.03125 291.824219 412.585938 310.503906 404.429688 C 329.253906 396.175781 343.601562 386.457031 355.011719 376.609375 C 366.449219 366.726562 374.96875 357.066406 381.828125 347.484375 C 392.816406 333.953125 402.71875 317.738281 408.902344 299.46875 C 415.199219 281.289062 417.519531 261.292969 415.886719 241.984375 C 412.714844 203.019531 394.664062 168.441406 375.5 144.34375 C 384.285156 154.585938 392.234375 165.660156 399.042969 177.539062 C 391.398438 161.847656 381.78125 147.195312 370.714844 133.761719 C 355.601562 116.988281 342.199219 106.070312 330.148438 97.285156 C 318.023438 88.558594 307.035156 82.0625 294.839844 76.050781 C 282.597656 70.152344 269.09375 64.601562 251.054688 60.238281 C 233.089844 56.121094 210.144531 52.640625 180.4375 57.082031 C 160.164062 59.695312 143.046875 65.828125 129.820312 72.226562 C 116.476562 78.417969 105.609375 85.070312 96.910156 91.488281 C 79.480469 104.4375 70.183594 116.015625 63.792969 125.527344 C 57.484375 135.175781 53.957031 143.046875 50.539062 152.355469 C 47.277344 161.679688 43.835938 172.539062 41.742188 189.242188 C 37.164062 214.085938 39.808594 240.019531 47.84375 263.9375 C 55.902344 287.886719 69.199219 310.113281 86.691406 328.734375 L 84.992188 325.6875 C 101.539062 341.066406 115.140625 348.996094 127.601562 355.238281 C 140.1875 361.242188 151.992188 365.652344 168.085938 368.542969 C 184.003906 371.089844 205.261719 372.433594 233.109375 362.382812 C 246.878906 357.28125 261.980469 349.066406 277.28125 336.566406 C 291.824219 323.96875 309.003906 309.1875 324.578125 288.050781 C 321.972656 290.066406 319.332031 292.023438 316.648438 293.898438 C 339.484375 267.71875 350.078125 242.898438 352.800781 215.207031 C 353.988281 201.328125 352.878906 186.550781 348.21875 170.582031 C 343.535156 154.632812 335.21875 137.476562 321.441406 119.894531 C 314.683594 111.328125 303.65625 98.808594 288.089844 86.347656 C 272.613281 73.859375 252.636719 61.503906 230.074219 52.289062 C 207.5625 43.019531 182.484375 36.9375 158.179688 35.777344 C 133.917969 34.511719 110.582031 38.5 92.605469 46.085938 C 73.820312 52.5625 57.671875 63.039062 45.3125 75.734375 C 32.871094 88.410156 24.203125 103.042969 18.308594 117.683594 C 6.683594 147.28125 4.855469 176.320312 6.257812 203.648438 C 8.351562 231.421875 18.257812 257.253906 34.097656 280.355469 C 49.957031 303.46875 71.585938 324.214844 99.359375 341.972656 C 132.515625 364.011719 166.257812 373.289062 191.738281 376.933594 C 217.4375 380.640625 235.300781 379.214844 243.054688 380.925781 C 238.269531 381.289062 233.484375 381.582031 228.679688 381.601562 C 238.59375 382.996094 248.714844 383.675781 258.953125 383.5 L 262 379.753906 C 267.984375 378.839844 274.214844 377.464844 280.621094 375.707031 C 283.875 374.800781 286.902344 373.859375 290.410156 372.609375 C 293.527344 371.332031 296.679688 370.054688 299.894531 368.472656 C 312.675781 362.429688 324.882812 354 335.320312 343.945312 C 356.515625 323.851562 369.003906 297.761719 376.160156 277.929688 C 384.453125 240.46875 381.050781 201.832031 369.691406 166.621094 C 377.308594 192.761719 379.921875 223.578125 375.1875 253.53125 L 376.503906 250.613281 C 374.851562 264.898438 369.722656 289.753906 356.996094 312.019531 C 350.796875 323.152344 342.835938 333.449219 334.367188 341.65625 C 325.972656 349.980469 317.0625 356.0625 309.796875 360.140625 C 321.078125 352.949219 331.074219 343.90625 339.582031 333.726562 C 331.8125 342.136719 326.835938 345.882812 324.667969 347.375 C 322.464844 348.871094 322.976562 348.082031 324.871094 346.175781 C 328.726562 342.394531 337.214844 333.164062 340.792969 327.988281 C 355.03125 310.507812 360.820312 295.757812 364.613281 284.996094 C 368.199219 274.066406 369.515625 266.5625 370.449219 259.742188 C 371.332031 252.910156 371.824219 246.699219 372.0625 237.925781 C 372.1875 229.148438 372.308594 217.761719 370.28125 200.703125 C 369.683594 192.988281 367.921875 181.863281 366.28125 174.070312 C 364.691406 166.289062 363.550781 161.738281 365.527344 166.878906 C 362.726562 157.089844 358.292969 143.371094 351.433594 129.035156 C 344.671875 114.6875 335.457031 99.800781 324.992188 87.4375 C 314.582031 75.035156 303.105469 65.171875 293.761719 59.128906 C 284.453125 52.964844 277.59375 50.242188 276.496094 50.519531 C 273.507812 48.769531 272.320312 48.210938 269.546875 46.714844 C 274.539062 51.972656 286.351562 60.679688 299.304688 75.175781 C 312.214844 89.648438 325.972656 110.277344 335.425781 135.894531 "/>
<path fill-rule="nonzero" fill="rgb(51.068115%, 79.655457%, 15.397644%)" fill-opacity="1" d="M 216.898438 118.925781 C 214.148438 117.90625 211.328125 116.972656 208.460938 116.125 C 236.316406 124.066406 261.730469 139.75 282.511719 160.640625 C 271.871094 148.554688 259.035156 137.765625 244.660156 128.832031 C 230.273438 119.949219 214.296875 112.785156 196.6875 109.523438 C 187.910156 107.941406 178.625 107.390625 169.113281 108.84375 C 164.355469 109.570312 159.5625 110.832031 154.941406 112.746094 C 150.433594 114.5625 145.605469 117.441406 142.226562 120.242188 C 129.824219 129.578125 118.878906 144.476562 117.394531 159.519531 C 115.8125 160.652344 112.84375 166.253906 112.117188 174.613281 C 111.242188 182.917969 113.050781 193.394531 116.921875 202.210938 C 124.566406 220.191406 138.167969 231.53125 138.933594 231.523438 C 150.027344 240.101562 162.242188 246.753906 175.46875 251.402344 C 166.378906 248.160156 157.792969 243.882812 149.734375 238.753906 C 157.792969 243.882812 166.378906 248.160156 175.46875 251.402344 C 185.945312 255.039062 197.148438 257.464844 209.097656 257.484375 C 215.082031 257.425781 221.234375 256.816406 227.386719 255.136719 C 233.859375 253.378906 238.628906 251.058594 243.875 248.484375 C 254.066406 243.253906 264.253906 235.953125 271.832031 225.390625 C 279.488281 214.945312 283.4375 201.34375 282.945312 188.511719 C 282.554688 175.609375 278.542969 163.558594 272.785156 152.898438 C 266.96875 142.214844 259.273438 132.742188 250.113281 124.6875 C 240.945312 116.675781 230.226562 109.976562 217.921875 105.855469 C 205.707031 101.730469 191.558594 100.453125 177.9375 103.902344 C 170.804688 105.671875 162.410156 109.207031 154.5 114.957031 L 155.796875 114.09375 C 148.210938 118.515625 139.964844 124.882812 133.472656 134.019531 C 126.90625 143.03125 122.492188 154.511719 121.117188 166.175781 C 118.367188 189.75 125.582031 212.703125 136.09375 231.964844 C 146.785156 251.332031 161.339844 267.703125 177.554688 279.28125 C 193.660156 290.933594 212.300781 297.085938 227.277344 297.035156 C 232.152344 297.074219 237.125 296.59375 241.996094 295.542969 L 243.816406 295.132812 L 244.265625 295.023438 L 244.503906 294.964844 L 246.09375 294.472656 L 246.722656 294.257812 L 249.261719 293.402344 C 250.960938 292.820312 253.476562 291.828125 255.449219 291.023438 L 250.714844 292.800781 L 247.609375 293.835938 L 246.332031 294.238281 L 246.046875 294.335938 L 244.570312 294.785156 L 244.472656 294.804688 L 244.257812 294.863281 L 243.433594 295.050781 L 240.316406 295.699219 C 236.230469 296.320312 232.023438 297 223.964844 296.554688 C 229.015625 296.605469 234.097656 296.0625 239.019531 294.945312 C 240.25 294.71875 241.457031 294.335938 242.667969 294 L 243.558594 293.753906 L 244.023438 293.636719 L 245.703125 293.085938 L 246.960938 292.566406 L 249.457031 291.523438 L 252.53125 290.148438 C 260.433594 286.542969 267.5 282.160156 274.101562 276.890625 C 287.277344 266.398438 297.085938 251.855469 301.597656 236.425781 C 300.339844 238.988281 299.433594 240.414062 298.019531 242.644531 C 296.625 244.855469 294.785156 247.960938 290.855469 253.21875 C 293.882812 248.835938 296.46875 244.121094 298.53125 239.195312 C 300.28125 232.054688 302.511719 220.347656 301.921875 208.675781 C 301.507812 197 298.5 185.710938 295.640625 178.976562 C 297.714844 181.640625 294.414062 170.371094 289.351562 161.367188 L 290.621094 165.28125 C 283.96875 151.847656 273.707031 139.121094 260.902344 129.480469 C 248.148438 119.78125 232.769531 113.511719 217.882812 111.292969 L 217.382812 111.222656 L 217.035156 111.203125 C 208.28125 110.625 199.800781 111.242188 192.027344 112.726562 C 187.234375 113.6875 183.617188 114.347656 181.375 114.644531 C 170.703125 118.328125 160.820312 123.9375 152.199219 130.90625 C 152.78125 129.53125 147.011719 133.441406 143.03125 136.960938 C 139.0625 140.4375 136.4375 142.984375 141.773438 136.921875 C 133.253906 146.324219 125.972656 156.769531 120.726562 168.160156 C 115.507812 179.507812 112.449219 191.921875 112.796875 204.074219 C 112.324219 214.867188 113.945312 226.027344 118.160156 236.378906 C 122.308594 246.734375 128.921875 256.109375 137.019531 263.617188 C 144.96875 271.125 154.875 276.949219 163.964844 281.117188 C 173.417969 285.550781 182.949219 289.390625 193.238281 292.203125 C 203.457031 294.953125 214.316406 296.8125 225.722656 295.761719 C 236.996094 294.847656 249.140625 290.070312 257.289062 281.070312 C 265.484375 272.183594 269.425781 260.972656 270.988281 250.339844 C 272.558594 239.589844 272.007812 229.007812 270.398438 218.816406 L 270.082031 220.890625 C 267.902344 206.609375 263.300781 193.875 257.269531 181.210938 C 251.085938 168.621094 243.648438 155.835938 232.445312 142.757812 C 223.570312 134.355469 210.769531 125.738281 198.0625 123.664062 C 185.355469 121.296875 174.929688 125.589844 171.488281 128.597656 C 159.511719 133.539062 152.808594 140.515625 146.757812 147.285156 C 140.8125 154.304688 135.5625 161.898438 128.910156 173.238281 C 131.359375 170.78125 128.320312 176.394531 125.941406 181.472656 C 123.574219 186.484375 121.480469 191.242188 125.207031 185.621094 C 130.355469 178.574219 132.832031 174.839844 135.152344 171.371094 C 137.46875 167.941406 139.601562 164.679688 144.671875 159.726562 L 143.996094 159.726562 C 154.617188 147.324219 167.65625 137.167969 180.6875 135.308594 C 193.492188 133.15625 206.433594 139.535156 217.105469 150.449219 C 227.757812 161.300781 236.03125 175.714844 241.742188 190.859375 C 247.390625 206.011719 250.675781 222.421875 249.90625 237.566406 C 249.886719 247.609375 247.53125 257.40625 242.726562 263.597656 C 238.066406 269.730469 230.914062 272.8125 221.015625 272.902344 C 211.269531 272.953125 200.175781 270.09375 189.40625 265.933594 C 178.683594 261.632812 167.324219 256.511719 159.375 250.664062 C 150.410156 244.167969 143.445312 235.589844 139.777344 225.5 C 136.035156 215.445312 135.613281 203.917969 138.109375 192.863281 C 143.023438 170.527344 158.894531 151.402344 176.179688 141.667969 C 184.472656 136.859375 191.625 136.066406 199.449219 135.515625 C 204.460938 134.660156 209.785156 134.363281 215.296875 134.679688 L 214.21875 134.5625 C 230.421875 136.800781 247.046875 145.949219 259.058594 160.132812 C 271.144531 174.144531 278.457031 192.734375 278.652344 209.960938 L 278.699219 207.988281 C 279.074219 218.726562 276.429688 227.777344 272.105469 235.433594 C 267.664062 243.089844 261.5625 249.484375 253.054688 255.292969 C 253.367188 255.597656 250.683594 257.367188 249.398438 258.320312 C 248.867188 258.320312 246.832031 259.359375 243.453125 260.875 C 241.566406 261.730469 240.269531 262.300781 237.390625 263.398438 L 235.285156 264.195312 L 235.148438 264.246094 L 235.089844 264.265625 C 234.214844 264.550781 236.25 263.902344 236.023438 263.96875 L 235.992188 263.96875 L 235.796875 264.019531 L 235.394531 264.128906 L 234.550781 264.34375 C 233.4375 264.648438 232.238281 264.882812 230.960938 265.070312 C 225.910156 265.867188 219.613281 265.582031 212.761719 263.605469 C 205.921875 261.679688 198.632812 258.105469 191.8125 253.425781 C 178.074219 244.0625 166.546875 230.488281 159.640625 218.945312 C 152.574219 207.359375 149.863281 198.011719 149.578125 196.066406 C 148.820312 193.847656 148.199219 191.515625 147.632812 189.121094 C 145.707031 178.359375 146.296875 167.34375 150.1875 158.28125 C 153.980469 149.164062 161.085938 142.335938 169.820312 137.695312 L 169.839844 137.6875 L 170.84375 137.019531 C 180.128906 130.828125 190.398438 128.921875 200.402344 130.503906 C 210.453125 132.035156 220.054688 136.792969 228.210938 142.707031 C 235.464844 146.777344 242.667969 153.253906 247.597656 158.566406 C 250.644531 164.796875 252.90625 165.074219 255.921875 172.796875 C 257.75 183.3125 256.984375 190.496094 256.738281 194.132812 C 256.335938 197.71875 257.101562 198.328125 258.390625 193.648438 C 258.074219 201.355469 255.027344 208.460938 249.917969 214.15625 C 244.855469 219.917969 237.9375 224.28125 230.835938 227.570312 C 227.503906 229.214844 224.230469 230.707031 221.300781 231.550781 C 218.226562 232.484375 214.886719 233.035156 211.398438 233.210938 C 205.433594 233.554688 202.003906 232.230469 199.210938 230.734375 C 191.5 229.351562 188.84375 228.023438 186.210938 226.816406 C 183.605469 225.460938 180.835938 224.191406 173.632812 219.847656 C 172.238281 218.234375 162.84375 213.273438 154.953125 206.238281 C 146.816406 199.390625 141.273438 190.613281 140.714844 188.511719 L 142.011719 190.730469 C 137.972656 182.515625 137.765625 175.226562 139.445312 169.25 C 141.234375 163.234375 144.710938 158.078125 150.648438 152.140625 C 152.828125 150.046875 155.058594 148.289062 157.566406 146.472656 C 161.191406 143.90625 162.253906 143.25 164.777344 142.167969 C 169.320312 140.230469 175.078125 139.417969 181.269531 139.59375 C 193.738281 139.976562 207.417969 144.09375 220.09375 149.851562 C 232.839844 155.679688 244.886719 163.257812 255.28125 171.902344 C 265.632812 180.503906 274.515625 190.40625 279.585938 200.261719 C 281.375 199.890625 274.171875 191.871094 275.210938 190.308594 C 279.40625 196.027344 282.640625 202.21875 284.125 208.007812 C 284.253906 208.675781 284.488281 209.550781 284.539062 210 L 284.675781 210.828125 L 284.851562 212.351562 L 284.960938 216.878906 C 284.941406 220.347656 284.65625 223.710938 284.054688 226.824219 C 281.65625 239.707031 274.925781 247.273438 263.597656 251.167969 C 259.429688 252.316406 253.652344 252.394531 251.5 252.082031 C 243.078125 252.011719 246.558594 253.121094 240.140625 252.777344 L 239.355469 251.363281 C 229.773438 251.648438 225.714844 248.109375 216.78125 246.222656 C 216.183594 246.605469 212.890625 245.722656 209.777344 244.550781 C 210.089844 243.246094 200.214844 240.9375 201.195312 239.824219 L 201.070312 239.894531 C 199.25 239.070312 197.925781 238.558594 195.839844 237.261719 C 194.054688 236.691406 184.738281 233.242188 176.128906 228.328125 C 167.421875 223.5625 159.886719 217.3125 158.46875 216.09375 L 157.488281 214.628906 C 154.144531 210.757812 152.113281 209.550781 153.675781 212.125 C 152.417969 210.425781 151.199219 208.703125 150.128906 206.945312 L 150.597656 207.496094 C 149.5 205.757812 148.476562 203.988281 147.601562 202.199219 C 147.179688 201.15625 147.316406 199.761719 148.585938 200.972656 C 146.667969 198.269531 145.074219 194.898438 144.566406 191.800781 C 145.617188 200.460938 151.121094 211.808594 157.851562 220.664062 C 154.253906 217.785156 149.820312 210.984375 147.386719 207.054688 C 145.046875 201.835938 141.578125 191.339844 142.335938 183.65625 C 142.257812 182.015625 140.546875 180.726562 141.785156 176.867188 C 143.179688 175.195312 142.558594 172.472656 144.46875 169.585938 C 143.730469 173.339844 142.738281 176.726562 142.441406 180.433594 C 143.121094 180.136719 143.445312 177.976562 144.0625 175.558594 C 144.644531 173.152344 145.539062 170.460938 146.273438 169.152344 C 146.246094 167.6875 149.929688 161.183594 152.820312 157.023438 C 152.503906 159.503906 155.824219 154.292969 158.480469 152.542969 C 160.90625 150.148438 162.242188 148.222656 160.886719 148.910156 C 160.808594 148.015625 158.144531 150.351562 155.992188 152.464844 C 153.84375 154.570312 152.171875 156.445312 153.105469 154.097656 C 154.351562 153.5 158.765625 148.191406 161.644531 145.585938 C 161.160156 144.996094 159.363281 146.980469 160.671875 144.730469 C 162.3125 143.335938 163.894531 141.726562 165.386719 140.359375 C 166.765625 139.09375 168.179688 137.921875 169.59375 137.363281 C 168.964844 138.089844 167.324219 139.179688 166.4375 139.898438 C 168.710938 138.179688 163.285156 143.777344 159.128906 149.753906 C 154.914062 155.660156 152.417969 161.488281 154.078125 158.753906 C 153.28125 159.257812 156.523438 152.78125 161.476562 146.816406 C 163.902344 143.828125 166.558594 141.007812 168.324219 139.152344 C 170.429688 137.085938 171.539062 135.917969 170.695312 136.546875 C 167.441406 138.582031 172.070312 133.824219 168.757812 136.015625 C 167.746094 137.144531 166.765625 138.277344 166.015625 139.289062 C 162.105469 142.109375 159.71875 142.628906 160.679688 141.035156 C 163.933594 138.34375 160.03125 143.148438 156.839844 148.160156 C 153.546875 153.183594 151.207031 158.351562 152.820312 155.542969 L 150.972656 157.429688 C 152.042969 154.902344 156.75 148.839844 159.53125 147.375 C 159.03125 146.835938 161.664062 143.898438 164.0625 141.558594 L 165.042969 140.890625 C 167.167969 138.609375 171.757812 135.40625 169.160156 136.152344 C 160.984375 142.660156 162.597656 139.070312 163.992188 135.398438 C 165.710938 131.644531 167.421875 127.644531 159.011719 134.070312 C 166.910156 129.882812 157.488281 136.929688 151.394531 143.691406 C 150.433594 143.957031 146.902344 146.253906 142.667969 151.335938 C 139.535156 156.113281 141.320312 154.46875 141.035156 155.570312 C 138.984375 157.960938 136.183594 163.214844 135.742188 162.183594 C 134.972656 166.605469 132.460938 168.550781 131.730469 173.917969 C 131.476562 178.613281 132.171875 173.683594 132.214844 177.011719 C 131.035156 183.871094 132.359375 193.679688 134.21875 198.976562 C 134.042969 201.257812 135.582031 208.144531 132.410156 204.035156 C 128.707031 193.453125 135.554688 207.339844 131.652344 196.519531 C 131.496094 199.152344 130.542969 196.773438 129.734375 193.394531 C 128.882812 189.992188 128.546875 185.652344 127.839844 184.597656 C 127.042969 188.402344 128.253906 196.265625 130.867188 202.160156 L 130.671875 200.863281 C 132.558594 206.25 138.363281 215.78125 141.449219 221.058594 C 140.074219 220.300781 141.28125 222.746094 138.667969 219.464844 C 140.152344 221.628906 141.753906 223.710938 143.40625 225.722656 C 144.222656 226.34375 145.035156 226.972656 143.679688 225.183594 C 146.421875 227.660156 148.730469 230.472656 150.480469 232.710938 C 150.519531 233.269531 158.519531 239.972656 167.15625 244.9375 C 175.707031 250.046875 184.617188 253.632812 183.949219 253.5625 C 188.835938 256.011719 189.609375 257.515625 194.78125 259.015625 C 195.152344 258.890625 182.839844 254.378906 172.128906 248.167969 C 161.339844 242.164062 152.359375 234.597656 155.179688 237.003906 C 156.625 238.960938 169.476562 248.464844 183.628906 254.695312 C 197.679688 261.285156 212.515625 264.6875 213.980469 265.699219 C 217.921875 266.722656 222.746094 267.597656 221.949219 266.710938 C 228.574219 268.371094 219.652344 267.617188 224.347656 269.199219 C 224.476562 269.109375 224.015625 268.785156 225.539062 269.089844 L 230.097656 270.683594 C 235.511719 270.90625 242.125 271.527344 248.886719 271.242188 C 255.628906 271.015625 262.515625 269.796875 267.703125 267.332031 C 264.816406 269 261.414062 271.429688 253.984375 272.941406 L 252.660156 272.695312 C 251.617188 273.089844 245.484375 273.523438 245.652344 274.179688 C 252.777344 274.542969 259.105469 273.765625 266.347656 271.046875 C 267.761719 270.859375 269.425781 270.523438 270.535156 270.308594 C 270.476562 270.230469 270.339844 270.210938 270.339844 270.101562 C 272.882812 269.640625 272.65625 269.730469 271.882812 270.355469 C 271.773438 270.445312 271.65625 270.554688 271.429688 270.691406 C 273.925781 270.847656 281.117188 267.761719 287.535156 261.570312 C 294.117188 255.480469 298.582031 246.429688 301.046875 240.0625 C 301.941406 236.101562 300.9375 239.589844 301.792969 234.675781 C 303.679688 228.035156 304.320312 222.246094 304.496094 216.457031 C 304.515625 215.011719 304.554688 213.570312 304.496094 212.085938 L 304.464844 210.984375 C 304.445312 210.628906 304.515625 211.003906 304.40625 210.03125 L 304.359375 209.519531 C 304.28125 208.78125 304.269531 208.203125 304.101562 207.308594 C 303.5625 203.710938 302.746094 200.578125 301.46875 197.019531 C 298.796875 193.019531 298.414062 192.941406 299.710938 198.367188 C 298.492188 194.96875 296.976562 191.714844 295.289062 188.597656 C 298.660156 192.292969 296.851562 187.585938 294.570312 183.144531 C 292.339844 178.742188 289.757812 174.613281 293.992188 178.28125 C 292.566406 175.34375 288.558594 170.113281 284.144531 166.027344 C 283.269531 166.015625 282.03125 165.859375 276.65625 160.738281 C 269.503906 153.253906 271.152344 155.089844 264.921875 149.191406 C 263.78125 147.355469 266.457031 149.027344 266.554688 148.328125 C 255.28125 141.234375 258.171875 140.035156 247.3125 133.550781 C 240.464844 129.550781 226.128906 123.125 225.214844 124.359375 C 215.335938 120.351562 215.484375 119.664062 216.898438 118.925781 "/>
</svg>
