<?xml version="1.0" encoding="UTF-8"?>
<!-- CMYK_PDF_CONVERTED -->
<svg data-vectorized-cmyk="true" data-original-cmyk-pdf="true" xmlns="http://www.w3.org/2000/svg" xmlns:xlink="http://www.w3.org/1999/xlink" width="841.89" height="595.276" viewBox="0 0 841.89 595.276">
<path fill-rule="nonzero" fill="rgb(16.629028%, 17.706299%, 42.858887%)" fill-opacity="1" d="M 275.570312 412.59375 C 274.140625 412.527344 240.257812 410.796875 215.726562 395.113281 C 186.273438 376.28125 166.789062 353.402344 156.160156 325.175781 C 144.179688 293.359375 150.054688 266.636719 152.265625 256.578125 L 152.476562 255.617188 C 152.847656 253.921875 153.222656 252.339844 153.574219 250.851562 C 155.019531 244.765625 155.976562 240.742188 154.460938 237.457031 C 152.1875 232.535156 140.105469 213.226562 139.984375 213.03125 L 138.769531 211.089844 L 170.746094 178.398438 L 172.71875 179.601562 C 184.148438 186.554688 197.1875 194.304688 198.847656 194.96875 C 199.5625 195.246094 200.140625 195.375 200.660156 195.375 C 201.457031 195.375 202.320312 195.054688 203.550781 194.304688 C 206.5 192.503906 211.472656 190.953125 211.683594 190.890625 L 222.167969 187.644531 L 214.664062 195.65625 C 214.472656 195.863281 195.046875 216.996094 188.070312 252.054688 C 182.417969 280.433594 185.046875 322.988281 209.371094 357.320312 C 230.144531 386.644531 249.371094 394.667969 255.6875 397.304688 L 256.652344 397.710938 C 258.023438 398.296875 259.738281 398.964844 261.558594 399.671875 C 267.363281 401.933594 273.945312 404.492188 277.546875 407.441406 L 284.34375 413 Z M 275.570312 412.59375 "/>
<path fill-rule="nonzero" fill="rgb(89.375305%, 57.266235%, 10.644531%)" fill-opacity="1" d="M 212.542969 193.667969 C 212.542969 193.667969 192.457031 215.109375 185.214844 251.484375 C 178.78125 283.808594 183.695312 326.109375 206.996094 359 C 229.371094 390.582031 249.964844 398.007812 255.507812 400.382812 C 261.050781 402.761719 271.347656 406.125 275.703125 409.691406 C 275.703125 409.691406 241.449219 408.105469 217.292969 392.660156 C 193.136719 377.21875 170.960938 356.230469 158.882812 324.152344 C 146.804688 292.074219 153.339844 265.34375 155.320312 256.238281 C 157.296875 247.128906 159.476562 241.386719 157.101562 236.238281 C 154.722656 231.089844 142.449219 211.488281 142.449219 211.488281 L 171.207031 182.085938 C 171.207031 182.085938 195.117188 196.636719 197.789062 197.679688 C 200.464844 198.71875 202.394531 198.417969 205.066406 196.785156 C 207.738281 195.152344 212.542969 193.667969 212.542969 193.667969 "/>
<path fill-rule="nonzero" fill="rgb(16.629028%, 17.706299%, 42.858887%)" fill-opacity="1" d="M 338.570312 403.207031 C 338.570312 403.207031 320.304688 410.183594 307.238281 414.046875 C 294.167969 417.90625 276.347656 418.945312 254.519531 415.234375 C 232.6875 411.523438 211.453125 401.570312 191.253906 385.832031 C 171.058594 370.089844 157.695312 347.8125 149.972656 328.804688 C 142.25 309.796875 142.101562 279.058594 142.101562 279.058594 L 109.132812 287.371094 L 109.132812 328.210938 L 142.101562 336.972656 C 142.101562 336.972656 146.40625 355.535156 150.714844 363.40625 C 155.023438 371.277344 157.25 372.464844 155.023438 378.109375 C 152.792969 383.75 140.320312 404.988281 140.320312 404.988281 L 169.277344 433.945312 C 169.277344 433.945312 184.425781 424.441406 191.703125 420.433594 C 198.976562 416.421875 206.699219 418.648438 220.511719 422.363281 C 234.320312 426.074219 254.667969 428.152344 283.773438 423.699219 C 312.878906 419.242188 333.671875 409.589844 338.570312 403.207031 "/>
<path fill-rule="nonzero" fill="rgb(16.629028%, 17.706299%, 42.858887%)" fill-opacity="1" d="M 241.550781 469.34375 L 231.703125 430.304688 L 235.722656 430.597656 C 235.800781 430.605469 243.582031 431.167969 254.300781 431.167969 C 263.332031 431.167969 271.75 430.78125 279.320312 430.011719 C 300.929688 427.824219 314.613281 422.269531 331.589844 414.660156 C 343.1875 409.460938 354.472656 401.214844 364.21875 390.820312 C 368.953125 385.769531 372.394531 384.210938 372.769531 384.050781 L 376.394531 382.496094 L 376.808594 386.417969 C 376.917969 387.480469 379.507812 412.554688 376.078125 422.835938 C 372.46875 433.667969 363.261719 438.292969 362.871094 438.488281 L 361.46875 439.175781 L 360.117188 438.386719 C 359.914062 438.265625 339.433594 426.28125 333.59375 423.859375 C 332.515625 423.414062 331.679688 423.203125 330.964844 423.203125 C 329.664062 423.203125 328.339844 423.933594 325.703125 425.449219 C 323.921875 426.476562 321.703125 427.753906 318.71875 429.152344 C 310.722656 432.90625 300.625 435.746094 296.675781 436.789062 L 287.621094 470 Z M 241.550781 469.34375 "/>
<path fill-rule="nonzero" fill="rgb(89.375305%, 57.266235%, 10.644531%)" fill-opacity="1" d="M 285.40625 467.0625 L 294.316406 434.390625 C 294.316406 434.390625 307.683594 431.125 317.484375 426.519531 C 327.285156 421.914062 328.621094 418.648438 334.710938 421.175781 C 340.796875 423.699219 361.589844 435.875 361.589844 435.875 C 361.589844 435.875 370.054688 431.71875 373.320312 421.914062 C 376.589844 412.117188 373.914062 386.722656 373.914062 386.722656 C 373.914062 386.722656 370.796875 388.058594 366.339844 392.808594 C 361.886719 397.5625 350.007812 409.589844 332.777344 417.3125 C 315.554688 425.035156 301.59375 430.679688 279.613281 432.90625 C 257.636719 435.132812 235.511719 433.5 235.511719 433.5 L 243.828125 466.46875 Z M 285.40625 467.0625 "/>
<path fill-rule="nonzero" fill="rgb(16.629028%, 17.706299%, 42.858887%)" fill-opacity="1" d="M 191.554688 296.28125 C 191.554688 296.28125 193.632812 278.015625 206.996094 254.40625 C 220.363281 230.792969 248.28125 214.011719 272.042969 208.367188 C 295.800781 202.726562 326.246094 209.113281 345.996094 222.03125 C 365.746094 234.949219 373.914062 246.089844 373.914062 246.089844 L 373.914062 204.65625 C 373.914062 196.191406 373.765625 194.855469 372.429688 192.925781 C 371.09375 190.992188 364.261719 184.460938 364.261719 184.460938 C 364.261719 184.460938 345.847656 196.191406 341.988281 198.269531 C 338.125 200.351562 334.5625 202.132812 329.957031 199.160156 C 325.355469 196.191406 320.898438 193.222656 312.136719 190.699219 C 303.375 188.171875 298.476562 187.429688 295.800781 180.007812 C 293.128906 172.582031 288.523438 152.234375 288.523438 152.234375 L 247.835938 152.234375 C 247.835938 152.234375 244.269531 163.074219 242.191406 172.582031 C 240.113281 182.085938 238.480469 184.757812 232.09375 189.359375 C 225.710938 193.964844 211.304688 204.210938 202.097656 225.300781 C 192.890625 246.386719 187.839844 273.265625 191.554688 296.28125 "/>
<path fill-rule="nonzero" fill="rgb(89.375305%, 57.266235%, 10.644531%)" fill-opacity="1" d="M 724.277344 438.996094 L 394.214844 438.996094 C 390.402344 438.996094 387.28125 435.875 387.28125 432.058594 L 387.28125 399.152344 C 387.28125 395.335938 390.402344 392.214844 394.214844 392.214844 L 724.277344 392.214844 C 728.089844 392.214844 731.214844 395.335938 731.214844 399.152344 L 731.214844 432.058594 C 731.214844 435.875 728.089844 438.996094 724.277344 438.996094 "/>
<path fill-rule="nonzero" fill="rgb(16.629028%, 17.706299%, 42.858887%)" fill-opacity="1" d="M 437.402344 433.691406 L 433.332031 433.691406 C 432.066406 433.738281 430.84375 433.785156 429.582031 433.828125 L 429.398438 433.511719 C 429.398438 429.941406 429.351562 426.324219 429.308594 422.707031 L 429.261719 415.746094 C 429.21875 413.078125 429.261719 410.363281 429.261719 407.699219 C 428.449219 410.863281 427.589844 414.027344 426.730469 417.191406 L 424.921875 423.835938 C 423.972656 427 423.117188 430.210938 422.300781 433.421875 L 421.984375 433.691406 L 418.457031 433.691406 C 417.375 433.738281 416.332031 433.785156 415.292969 433.828125 L 415.023438 433.558594 C 414.027344 429.667969 413.035156 425.734375 411.992188 421.894531 L 410.277344 415.472656 C 409.550781 412.804688 408.917969 410.140625 408.285156 407.515625 C 408.242188 410.363281 408.195312 413.167969 408.105469 416.015625 L 407.835938 424.832031 C 407.789062 427.679688 407.699219 430.527344 407.699219 433.421875 L 407.425781 433.691406 C 406.433594 433.691406 405.4375 433.648438 404.445312 433.691406 C 403.3125 433.691406 402.183594 433.785156 401.054688 433.828125 L 400.828125 433.558594 C 401.28125 427.632812 401.640625 421.710938 401.914062 415.789062 C 402.183594 411.179688 402.363281 406.613281 402.453125 402.046875 L 402.726562 401.773438 L 407.472656 401.773438 L 413.441406 401.640625 L 413.667969 401.910156 C 414.34375 404.804688 415.160156 407.699219 415.925781 410.589844 L 417.195312 415.699219 C 417.464844 416.648438 417.734375 417.597656 417.960938 418.546875 C 418.367188 420.3125 418.777344 422.027344 419.183594 423.792969 C 419.90625 421.167969 420.582031 418.546875 421.304688 415.925781 L 423.117188 409.371094 C 423.792969 406.929688 424.515625 404.488281 425.195312 402.046875 L 425.464844 401.773438 L 430.121094 401.773438 L 435.953125 401.640625 L 436.226562 401.910156 C 436.316406 408.285156 436.675781 414.660156 436.992188 420.988281 C 437.175781 425.148438 437.355469 429.308594 437.628906 433.421875 Z M 437.402344 433.691406 "/>
<path fill-rule="nonzero" fill="rgb(16.629028%, 17.706299%, 42.858887%)" fill-opacity="1" d="M 456.390625 416.558594 C 456.164062 415.835938 455.351562 414.027344 453.089844 414.027344 C 452.683594 414.027344 451.824219 414.117188 451.011719 414.703125 C 449.292969 415.972656 449.203125 418.410156 449.160156 418.863281 C 451.691406 418.863281 454.175781 418.820312 456.707031 418.726562 C 456.660156 417.871094 456.660156 417.328125 456.390625 416.558594 M 462.539062 432.609375 C 460.867188 433.285156 458.699219 434.234375 454.582031 434.234375 C 452.820312 434.234375 451.148438 434.054688 449.429688 433.511719 C 443.957031 431.792969 441.609375 427.183594 441.609375 421.757812 C 441.609375 420.492188 441.699219 416.285156 444.410156 413.03125 C 447.484375 409.324219 452.050781 409.1875 453.542969 409.1875 C 454.671875 409.1875 457.613281 409.234375 460.144531 411.359375 C 463.625 414.207031 463.988281 418.953125 463.988281 423.113281 L 463.714844 423.429688 C 458.832031 423.476562 453.996094 423.566406 449.113281 423.703125 C 449.25 424.425781 449.339844 425.011719 449.65625 425.644531 C 450.605469 427.769531 452.546875 428.449219 453.273438 428.675781 C 454.3125 428.945312 455.398438 428.945312 455.714844 428.945312 C 459.285156 428.945312 461.636719 427.632812 462.8125 427 L 463.128906 427.136719 C 462.992188 428.855469 462.902344 430.574219 462.8125 432.246094 Z M 462.539062 432.609375 "/>
<path fill-rule="nonzero" fill="rgb(16.629028%, 17.706299%, 42.858887%)" fill-opacity="1" d="M 485.6875 433.105469 C 484.558594 433.464844 482.613281 434.097656 479.628906 434.097656 C 477.191406 434.097656 475.789062 433.691406 474.75 433.375 C 469.59375 431.65625 467.015625 427.136719 467.015625 421.894531 C 467.015625 420.671875 467.199219 416.558594 469.820312 413.304688 C 471.265625 411.496094 474.160156 409.1875 479.496094 409.1875 C 481.9375 409.1875 483.746094 409.550781 486.050781 410.363281 L 486.277344 410.679688 C 486.140625 411.585938 486.003906 412.535156 485.871094 413.484375 C 485.78125 414.34375 485.734375 415.203125 485.644531 416.0625 L 485.191406 416.195312 C 484.558594 415.746094 483.023438 414.570312 480.714844 414.570312 C 479 414.570312 477.957031 415.203125 477.414062 415.652344 C 475.019531 417.507812 474.972656 420.941406 474.972656 421.621094 C 474.972656 423.160156 475.335938 428.628906 481.125 428.628906 C 483.566406 428.628906 485.011719 427.679688 485.824219 427.136719 L 486.1875 427.410156 C 486.09375 429.21875 486.003906 431.023438 485.960938 432.832031 Z M 485.6875 433.105469 "/>
<path fill-rule="nonzero" fill="rgb(16.629028%, 17.706299%, 42.858887%)" fill-opacity="1" d="M 507.617188 433.691406 L 504.226562 433.828125 L 503.953125 433.511719 C 504.089844 429.398438 504 425.238281 503.910156 421.078125 C 503.910156 419.679688 503.910156 417.554688 503.050781 416.285156 C 502.824219 415.878906 502.191406 415.203125 500.925781 415.203125 C 500.472656 415.203125 499.386719 415.382812 498.257812 416.105469 C 497.988281 416.285156 497.988281 416.285156 497.582031 416.605469 C 497.535156 419.769531 497.625 422.886719 497.714844 426.007812 C 497.761719 428.492188 497.804688 430.933594 497.941406 433.375 L 497.714844 433.691406 C 496.542969 433.691406 495.410156 433.648438 494.234375 433.691406 C 492.832031 433.691406 491.429688 433.785156 490.03125 433.828125 L 489.804688 433.511719 C 489.894531 430.167969 489.9375 426.867188 489.9375 423.519531 C 489.9375 418.367188 489.9375 413.167969 489.757812 408.011719 C 489.714844 405.03125 489.53125 402.089844 489.261719 399.105469 L 489.488281 398.835938 C 492.019531 398.429688 494.597656 398.023438 497.175781 397.617188 L 497.488281 397.933594 C 497.398438 402.542969 497.355469 407.246094 497.355469 411.902344 C 498.078125 411.449219 501.46875 409.1875 504.949219 409.1875 C 505.355469 409.1875 506.441406 409.234375 507.570312 409.640625 C 508.65625 410.003906 510.191406 410.863281 511.054688 413.484375 C 511.640625 415.246094 511.550781 416.785156 511.597656 420.355469 L 511.597656 423.746094 C 511.6875 426.957031 511.777344 430.167969 511.957031 433.375 L 511.640625 433.691406 Z M 507.617188 433.691406 "/>
<path fill-rule="nonzero" fill="rgb(16.629028%, 17.706299%, 42.858887%)" fill-opacity="1" d="M 529.773438 421.9375 C 526.789062 422.253906 524.933594 422.84375 523.984375 423.792969 C 523.667969 424.0625 523.171875 424.695312 523.171875 425.871094 C 523.171875 427.589844 524.4375 428.585938 526.066406 428.585938 C 526.921875 428.585938 528.097656 428.359375 529.773438 427.410156 Z M 537.277344 433.691406 C 536.144531 433.691406 535.058594 433.648438 533.929688 433.691406 C 532.664062 433.691406 531.355469 433.785156 530.089844 433.828125 L 529.816406 433.511719 L 529.816406 431.839844 C 528.867188 432.652344 526.878906 434.234375 523.578125 434.234375 C 523.035156 434.234375 521.722656 434.191406 520.324219 433.648438 C 517.292969 432.425781 515.621094 429.578125 515.621094 426.367188 C 515.621094 425.285156 515.847656 424.152344 516.296875 423.203125 C 517.066406 421.484375 518.515625 420.175781 520.140625 419.40625 C 522.042969 418.457031 524.976562 417.734375 529.679688 417.144531 C 529.636719 417.011719 529.679688 416.152344 529.320312 415.519531 C 528.59375 414.34375 526.378906 414.433594 526.335938 414.433594 C 522.761719 414.433594 519.597656 415.789062 518.558594 416.242188 L 518.242188 416.015625 C 518.332031 414.386719 518.378906 412.714844 518.46875 411.042969 L 518.742188 410.773438 C 522.128906 409.640625 524.4375 409.1875 528.007812 409.1875 C 528.777344 409.1875 531.398438 409.144531 533.75 410.363281 C 534.15625 410.589844 535.105469 411.089844 535.832031 412.035156 C 537.457031 414.164062 537.320312 417.734375 537.230469 420.222656 L 537.1875 423.566406 C 537.1875 425.691406 537.1875 427.816406 537.277344 429.941406 C 537.320312 431.070312 537.414062 432.246094 537.5 433.375 Z M 537.277344 433.691406 "/>
<path fill-rule="nonzero" fill="rgb(16.629028%, 17.706299%, 42.858887%)" fill-opacity="1" d="M 560.335938 433.691406 L 556.941406 433.828125 L 556.671875 433.511719 C 556.808594 429.351562 556.71875 425.148438 556.628906 420.988281 C 556.628906 419.585938 556.671875 417.28125 555.679688 416.0625 C 555 415.246094 553.960938 415.203125 553.644531 415.203125 C 552.015625 415.203125 550.613281 416.378906 550.296875 416.605469 C 550.253906 419.632812 550.34375 422.617188 550.386719 425.601562 C 550.433594 428.175781 550.523438 430.796875 550.660156 433.375 L 550.386719 433.691406 C 549.257812 433.691406 548.082031 433.648438 546.953125 433.691406 C 545.597656 433.691406 544.195312 433.785156 542.839844 433.828125 L 542.566406 433.511719 C 542.703125 427.320312 542.746094 421.125 542.386719 414.929688 C 542.296875 413.53125 542.160156 412.128906 542.023438 410.679688 L 542.34375 410.410156 C 543.742188 410.183594 545.144531 410.003906 546.546875 409.730469 C 547.675781 409.550781 548.808594 409.324219 549.890625 409.054688 L 550.386719 409.414062 L 550.296875 411.902344 C 552.648438 410.453125 554.773438 409.1875 557.621094 409.1875 C 558.4375 409.1875 559.25 409.324219 560.019531 409.550781 C 561.375 409.957031 563.273438 410.953125 563.996094 414.34375 C 564.3125 415.789062 564.3125 417.238281 564.3125 420.222656 L 564.3125 423.746094 C 564.402344 426.957031 564.492188 430.167969 564.675781 433.375 L 564.3125 433.691406 Z M 560.335938 433.691406 "/>
<path fill-rule="nonzero" fill="rgb(16.629028%, 17.706299%, 42.858887%)" fill-opacity="1" d="M 569.605469 405.753906 C 569.652344 404.441406 569.695312 403.128906 569.652344 401.820312 L 569.511719 399.515625 L 569.785156 399.199219 C 572.273438 398.925781 574.710938 398.609375 577.15625 398.292969 L 577.425781 398.566406 C 577.335938 400.601562 577.289062 402.632812 577.289062 404.714844 L 577.0625 405.03125 C 575.886719 405.164062 574.800781 405.300781 573.671875 405.480469 C 572.40625 405.664062 571.140625 405.84375 569.917969 406.070312 Z M 573.539062 433.691406 L 569.875 433.828125 L 569.558594 433.511719 C 569.742188 429.851562 569.875 426.1875 569.875 422.480469 C 569.875 419.859375 569.832031 417.28125 569.695312 414.660156 C 569.652344 413.347656 569.511719 412.035156 569.332031 410.679688 L 569.652344 410.410156 C 572.226562 410.003906 574.847656 409.550781 577.425781 409.054688 L 577.742188 409.414062 C 577.652344 413.03125 577.605469 416.648438 577.605469 420.222656 C 577.605469 424.605469 577.695312 428.992188 577.96875 433.375 L 577.652344 433.691406 Z M 573.539062 433.691406 "/>
<path fill-rule="nonzero" fill="rgb(16.629028%, 17.706299%, 42.858887%)" fill-opacity="1" d="M 600.574219 433.105469 C 599.441406 433.464844 597.5 434.097656 594.515625 434.097656 C 592.074219 434.097656 590.671875 433.691406 589.632812 433.375 C 584.476562 431.65625 581.902344 427.136719 581.902344 421.894531 C 581.902344 420.671875 582.082031 416.558594 584.703125 413.304688 C 586.152344 411.496094 589.046875 409.1875 594.378906 409.1875 C 596.820312 409.1875 598.628906 409.550781 600.933594 410.363281 L 601.160156 410.679688 C 601.023438 411.585938 600.890625 412.535156 600.753906 413.484375 C 600.664062 414.34375 600.621094 415.203125 600.527344 416.0625 L 600.078125 416.195312 C 599.441406 415.746094 597.90625 414.570312 595.597656 414.570312 C 593.882812 414.570312 592.84375 415.203125 592.300781 415.652344 C 589.902344 417.507812 589.859375 420.941406 589.859375 421.621094 C 589.859375 423.160156 590.21875 428.628906 596.007812 428.628906 C 598.449219 428.628906 599.894531 427.679688 600.707031 427.136719 L 601.070312 427.410156 C 600.980469 429.21875 600.890625 431.023438 600.84375 432.832031 Z M 600.574219 433.105469 "/>
<path fill-rule="nonzero" fill="rgb(16.629028%, 17.706299%, 42.858887%)" fill-opacity="1" d="M 617.347656 421.9375 C 614.363281 422.253906 612.511719 422.84375 611.5625 423.792969 C 611.242188 424.0625 610.746094 424.695312 610.746094 425.871094 C 610.746094 427.589844 612.011719 428.585938 613.640625 428.585938 C 614.5 428.585938 615.675781 428.359375 617.347656 427.410156 Z M 624.851562 433.691406 C 623.722656 433.691406 622.636719 433.648438 621.507812 433.691406 C 620.242188 433.691406 618.929688 433.785156 617.664062 433.828125 L 617.394531 433.511719 L 617.394531 431.839844 C 616.445312 432.652344 614.453125 434.234375 611.15625 434.234375 C 610.613281 434.234375 609.300781 434.191406 607.898438 433.648438 C 604.871094 432.425781 603.199219 429.578125 603.199219 426.367188 C 603.199219 425.285156 603.421875 424.152344 603.875 423.203125 C 604.644531 421.484375 606.089844 420.175781 607.71875 419.40625 C 609.617188 418.457031 612.554688 417.734375 617.257812 417.144531 C 617.210938 417.011719 617.257812 416.152344 616.894531 415.519531 C 616.171875 414.34375 613.957031 414.433594 613.910156 414.433594 C 610.339844 414.433594 607.175781 415.789062 606.132812 416.242188 L 605.820312 416.015625 C 605.910156 414.386719 605.953125 412.714844 606.046875 411.042969 L 606.316406 410.773438 C 609.707031 409.640625 612.011719 409.1875 615.585938 409.1875 C 616.351562 409.1875 618.976562 409.144531 621.328125 410.363281 C 621.734375 410.589844 622.683594 411.089844 623.40625 412.035156 C 625.035156 414.164062 624.898438 417.734375 624.808594 420.222656 L 624.761719 423.566406 C 624.761719 425.691406 624.761719 427.816406 624.851562 429.941406 C 624.898438 431.070312 624.988281 432.246094 625.078125 433.375 Z M 624.851562 433.691406 "/>
<path fill-rule="nonzero" fill="rgb(16.629028%, 17.706299%, 42.858887%)" fill-opacity="1" d="M 629.960938 433.511719 C 630.144531 429.804688 630.234375 426.050781 630.234375 422.300781 C 630.234375 418.636719 630.1875 414.976562 630.144531 411.269531 C 630.097656 408.375 630.054688 405.527344 629.871094 402.632812 L 629.601562 399.105469 L 629.828125 398.835938 C 632.359375 398.472656 634.9375 398.066406 637.511719 397.617188 L 637.828125 397.933594 C 637.691406 401.773438 637.558594 405.660156 637.558594 409.550781 C 637.558594 413.890625 637.648438 418.230469 637.738281 422.527344 C 637.78125 426.1875 637.875 429.804688 638.054688 433.375 L 637.738281 433.691406 C 635.25 433.691406 632.71875 433.738281 630.1875 433.828125 Z M 629.960938 433.511719 "/>
<path fill-rule="nonzero" fill="rgb(16.629028%, 17.706299%, 42.858887%)" fill-opacity="1" d="M 675.582031 433.691406 C 671.78125 433.691406 667.984375 433.648438 664.1875 433.691406 C 661.792969 433.738281 659.351562 433.785156 656.953125 433.828125 L 656.726562 433.558594 C 656.863281 427.726562 656.773438 421.9375 656.816406 416.105469 C 656.816406 413.167969 656.816406 410.230469 656.773438 407.289062 C 656.726562 405.527344 656.636719 403.808594 656.546875 402.046875 L 656.816406 401.773438 L 660.480469 401.773438 C 661.972656 401.730469 663.421875 401.683594 664.867188 401.640625 L 665.136719 401.910156 C 664.820312 408.648438 664.777344 415.429688 664.777344 422.210938 C 664.777344 424.0625 664.820312 425.960938 664.820312 427.816406 C 666.898438 427.816406 668.980469 427.816406 671.058594 427.726562 C 672.6875 427.632812 674.316406 427.542969 675.941406 427.5 L 676.167969 427.726562 C 676.03125 429.625 675.941406 431.523438 675.808594 433.421875 Z M 675.582031 433.691406 "/>
<path fill-rule="nonzero" fill="rgb(16.629028%, 17.706299%, 42.858887%)" fill-opacity="1" d="M 692.308594 433.691406 C 689.824219 434.191406 688.511719 434.234375 687.289062 434.234375 C 685.210938 434.234375 683.402344 433.875 681.957031 432.246094 C 681.144531 431.296875 680.871094 430.480469 680.734375 430.03125 C 680.371094 428.765625 680.464844 426.640625 680.464844 426.503906 L 680.464844 422.117188 L 680.597656 414.929688 C 679.695312 414.929688 678.746094 414.976562 677.75 415.019531 L 677.527344 414.75 C 677.664062 413.121094 677.796875 411.539062 677.929688 409.914062 L 678.203125 409.6875 C 679.015625 409.6875 679.832031 409.730469 680.597656 409.777344 C 680.644531 407.878906 680.597656 406.023438 680.554688 404.125 L 680.78125 403.808594 C 682.089844 403.492188 683.359375 403.175781 684.667969 402.816406 C 685.707031 402.496094 686.792969 402.183594 687.878906 401.863281 L 688.195312 402.136719 L 688.058594 409.730469 C 689.597656 409.730469 691.085938 409.777344 692.582031 409.730469 L 692.851562 410.003906 C 692.671875 411.628906 692.535156 413.210938 692.398438 414.839844 L 692.128906 415.109375 C 690.773438 415.019531 689.414062 414.976562 688.058594 414.929688 L 687.96875 421.304688 C 687.96875 422.617188 687.921875 423.972656 687.96875 425.285156 C 688.015625 426.640625 688.148438 427.5 688.464844 428.042969 C 689.007812 428.902344 690.363281 428.945312 690.636719 428.945312 C 691.222656 428.945312 691.675781 428.855469 692.714844 428.492188 L 693.078125 428.765625 C 692.898438 430.300781 692.761719 431.839844 692.625 433.375 Z M 692.308594 433.691406 "/>
<path fill-rule="nonzero" fill="rgb(16.629028%, 17.706299%, 42.858887%)" fill-opacity="1" d="M 711.433594 419.585938 C 711.433594 418.050781 711.433594 416.511719 711.386719 414.976562 C 710.617188 414.886719 710.394531 414.886719 709.941406 414.886719 C 709.261719 414.886719 707.542969 414.886719 706.050781 416.105469 C 704.785156 417.144531 703.792969 418.953125 703.792969 422.4375 C 703.792969 426.910156 705.871094 428.71875 708.175781 428.71875 C 709.035156 428.71875 709.851562 428.539062 711.296875 427.632812 C 711.339844 424.96875 711.433594 422.253906 711.433594 419.585938 M 715.003906 433.691406 C 713.875 433.738281 712.699219 433.785156 711.523438 433.828125 L 711.296875 433.511719 L 711.386719 431.792969 C 710.394531 432.742188 708.675781 434.234375 705.375 434.234375 C 704.109375 434.234375 701.125 434.054688 698.636719 431.433594 C 697.28125 429.941406 695.835938 427.363281 695.835938 422.84375 C 695.835938 421.53125 695.835938 417.460938 698.410156 414.070312 C 700.039062 411.855469 703.070312 409.550781 709.082031 409.550781 C 709.894531 409.550781 710.664062 409.597656 711.433594 409.550781 C 711.433594 407.472656 711.480469 405.390625 711.386719 403.265625 C 711.339844 401.863281 711.25 400.464844 711.117188 399.015625 L 711.386719 398.792969 C 713.828125 398.429688 716.316406 398.023438 718.847656 397.570312 L 719.117188 397.886719 C 718.847656 405.796875 718.800781 413.664062 718.800781 421.574219 C 718.800781 425.554688 718.847656 429.488281 719.117188 433.421875 L 718.847656 433.691406 Z M 715.003906 433.691406 "/>
<path fill-rule="nonzero" fill="rgb(16.629028%, 17.706299%, 42.858887%)" fill-opacity="1" d="M 452.011719 382.511719 L 439.039062 382.511719 L 427.324219 382.929688 L 426.625 382.09375 C 427.464844 361.175781 427.605469 340.394531 427.605469 319.617188 C 427.605469 313.757812 427.605469 308.039062 427.464844 302.183594 C 419.933594 302.324219 412.402344 302.460938 404.871094 302.742188 L 404.171875 302.042969 C 404.453125 296.324219 404.871094 290.605469 405.148438 284.890625 L 405.988281 283.910156 C 418.957031 283.910156 431.648438 283.773438 444.617188 283.910156 C 454.796875 283.910156 464.980469 283.910156 475.019531 283.773438 L 475.71875 284.472656 C 475.300781 290.1875 475.019531 295.90625 474.742188 301.765625 L 473.90625 302.601562 C 466.652344 302.324219 459.402344 302.042969 452.289062 302.042969 C 452.011719 308.878906 451.871094 315.710938 451.871094 322.542969 C 451.871094 331.609375 452.011719 340.8125 452.148438 349.878906 C 452.289062 360.476562 452.429688 371.078125 452.847656 381.675781 Z M 452.011719 382.511719 "/>
<path fill-rule="nonzero" fill="rgb(16.629028%, 17.706299%, 42.858887%)" fill-opacity="1" d="M 547.265625 382.511719 C 526.902344 382.511719 506.402344 382.652344 485.902344 382.792969 L 485.203125 381.816406 C 485.761719 368.984375 485.902344 356.15625 485.902344 343.183594 L 485.902344 314.316406 C 485.902344 304.414062 485.621094 294.652344 484.921875 284.890625 L 485.761719 284.054688 C 506.261719 284.054688 526.625 283.910156 546.984375 283.773438 L 547.683594 284.609375 C 547.265625 290.050781 546.84375 295.347656 546.707031 300.789062 L 545.871094 301.625 C 533.875 301.347656 522.023438 301.207031 510.167969 301.207031 C 510.027344 308.597656 510.027344 315.988281 510.167969 323.378906 C 521.464844 323.378906 532.621094 323.242188 543.777344 322.824219 L 544.613281 323.800781 C 544.195312 329.097656 543.917969 334.257812 543.636719 339.558594 L 542.800781 340.394531 C 531.921875 340.257812 521.046875 340.117188 510.167969 340.257812 C 510.167969 348.484375 510.304688 356.574219 510.449219 364.660156 C 517.835938 364.660156 525.367188 364.523438 532.761719 364.382812 C 538.058594 364.242188 543.359375 363.964844 548.660156 363.6875 L 549.355469 364.660156 C 548.9375 370.378906 548.660156 375.957031 548.378906 381.675781 Z M 547.265625 382.511719 "/>
<path fill-rule="nonzero" fill="rgb(16.629028%, 17.706299%, 42.858887%)" fill-opacity="1" d="M 631.78125 379.722656 C 627.179688 381.675781 619.648438 384.605469 607.515625 384.605469 C 604.585938 384.605469 597.195312 384.464844 589.246094 381.816406 C 567.769531 374.5625 557.589844 355.320312 557.589844 333.839844 C 557.589844 328.539062 558.144531 310.691406 570 297.023438 C 575.4375 290.746094 586.316406 281.960938 606.121094 281.960938 C 618.671875 281.960938 627.597656 285.167969 632.0625 286.980469 L 632.757812 287.816406 C 632.203125 294.234375 631.78125 300.507812 631.363281 306.925781 L 630.109375 307.203125 C 627.039062 304.832031 620.765625 300.507812 610.445312 300.507812 C 604.867188 300.507812 601.101562 301.902344 598.871094 302.878906 C 587.292969 308.320312 583.667969 321.988281 583.667969 333.5625 C 583.667969 337.328125 583.804688 352.109375 594.964844 360.476562 C 601.238281 365.078125 607.933594 365.359375 610.722656 365.359375 C 613.652344 365.359375 620.902344 364.800781 628.15625 360.617188 C 629.691406 359.640625 631.085938 358.664062 632.480469 357.550781 L 633.457031 358.105469 C 633.039062 365.078125 632.757812 372.054688 632.480469 378.886719 Z M 631.78125 379.722656 "/>
<path fill-rule="nonzero" fill="rgb(16.629028%, 17.706299%, 42.858887%)" fill-opacity="1" d="M 732.058594 382.511719 L 718.8125 382.511719 C 714.765625 382.652344 710.859375 382.792969 706.816406 382.929688 L 706.257812 382.09375 C 706.675781 371.496094 706.816406 360.757812 706.816406 350.15625 C 706.816406 346.53125 706.816406 342.765625 706.675781 339 C 695.519531 338.582031 684.363281 338.582031 673.203125 339.140625 C 673.34375 349.042969 673.34375 358.804688 673.761719 368.566406 C 673.902344 372.890625 674.042969 377.355469 674.320312 381.675781 L 673.625 382.511719 L 662.605469 382.511719 C 658.003906 382.511719 653.261719 382.792969 648.660156 382.929688 L 647.960938 382.09375 C 648.378906 371.773438 648.519531 361.59375 648.519531 351.273438 C 648.519531 342.625 648.378906 334.117188 648.242188 325.472656 C 648.101562 311.945312 647.824219 298.417969 647.125 284.890625 L 647.960938 284.054688 L 661.210938 284.054688 C 665.117188 283.910156 669.023438 283.773438 672.789062 283.632812 L 673.484375 284.472656 C 673.34375 292.003906 673.34375 299.53125 673.203125 307.0625 L 673.203125 321.289062 C 680.875 321.429688 688.40625 321.429688 696.078125 321.289062 C 699.566406 321.289062 703.050781 321.289062 706.539062 321.011719 C 706.539062 309.015625 706.121094 297.023438 705.421875 284.890625 L 706.121094 284.054688 L 717.277344 284.054688 C 721.738281 283.910156 726.339844 283.773438 730.804688 283.632812 L 731.5 284.472656 C 731.222656 302.042969 731.222656 319.753906 731.363281 337.46875 C 731.5 352.25 731.917969 366.894531 732.753906 381.675781 Z M 732.058594 382.511719 "/>
<path fill-rule="nonzero" fill="rgb(16.629028%, 17.706299%, 42.858887%)" fill-opacity="1" d="M 297.730469 388.828125 C 277.757812 388.828125 260.695312 384.316406 247.011719 375.417969 C 226.535156 362.097656 215.257812 338.851562 215.257812 309.957031 C 215.257812 295.933594 218.34375 261.136719 246.914062 240.960938 C 266.90625 226.847656 288.828125 226.847656 296.03125 226.847656 C 318.027344 226.847656 332.769531 232.199219 343.152344 236.859375 L 344.050781 237.261719 L 345.898438 240.484375 L 345.761719 241.5 C 344.535156 250.679688 343.46875 260.328125 342.589844 270.183594 L 342.421875 272.082031 L 337.425781 273.949219 L 335.707031 272.714844 C 330.363281 268.867188 319.242188 260.863281 302.191406 260.863281 C 292.988281 260.863281 280.101562 263.238281 270.984375 274.566406 C 264.332031 282.761719 260.820312 294.703125 260.820312 309.109375 C 260.820312 324.023438 264.703125 333.167969 267.015625 337.289062 C 269.378906 341.414062 272.523438 344.503906 273.535156 345.34375 L 273.667969 345.460938 C 279.625 351.042969 287.007812 353.753906 296.242188 353.753906 C 301.238281 353.582031 304.867188 352.972656 309.429688 351.863281 C 309.570312 346.132812 309.550781 340.347656 309.363281 334.628906 C 309.210938 328.742188 308.738281 322.917969 308.238281 316.753906 C 308.046875 314.378906 307.851562 311.976562 307.671875 309.542969 L 307.582031 308.320312 L 310.335938 305.027344 L 311.75 305.027344 C 323.625 305.027344 335.742188 304.8125 347.757812 304.390625 L 349.578125 304.328125 L 351.761719 308.136719 L 351.734375 308.996094 C 351.351562 320.601562 351.285156 333.445312 351.523438 348.253906 C 351.523438 356.964844 351.722656 365.289062 351.933594 374.105469 L 351.96875 375.558594 L 350.148438 378.734375 L 348.691406 379.265625 C 339.476562 382.609375 322.332031 388.828125 297.730469 388.828125 "/>
<path fill-rule="nonzero" fill="rgb(89.375305%, 57.266235%, 10.644531%)" fill-opacity="1" d="M 348.074219 376.269531 C 338.726562 379.660156 322.160156 385.804688 297.730469 385.804688 C 290.507812 385.804688 268.203125 385.59375 248.660156 372.882812 C 219.34375 353.8125 218.285156 320.339844 218.285156 309.957031 C 218.285156 300.210938 219.558594 263.980469 248.660156 243.429688 C 267.566406 230.082031 288.171875 229.871094 296.03125 229.871094 C 318.761719 229.871094 333.417969 235.804688 341.914062 239.617188 L 342.765625 241.101562 C 341.488281 250.632812 340.425781 260.378906 339.578125 269.914062 L 337.878906 270.550781 C 332.566406 266.734375 320.671875 257.839844 302.191406 257.839844 C 296.242188 257.839844 279.886719 258.6875 268.628906 272.667969 C 257.792969 286.015625 257.792969 304.871094 257.792969 309.109375 C 257.792969 323.726562 261.40625 333.472656 264.378906 338.769531 C 266.929688 343.21875 270.328125 346.609375 271.601562 347.667969 C 278.613281 354.238281 286.898438 356.777344 296.242188 356.777344 C 302.402344 356.566406 306.652344 355.71875 312.386719 354.238281 C 312.601562 347.667969 312.601562 341.101562 312.386719 334.53125 C 312.175781 326.269531 311.324219 318.007812 310.6875 309.320312 L 311.75 308.050781 C 323.644531 308.050781 335.753906 307.839844 347.863281 307.414062 L 348.710938 308.898438 C 348.285156 321.820312 348.285156 335.167969 348.5 348.304688 C 348.5 357.203125 348.710938 365.890625 348.925781 374.789062 Z M 348.074219 376.269531 "/>
<path fill-rule="nonzero" fill="rgb(16.629028%, 17.706299%, 42.858887%)" fill-opacity="1" d="M 404.808594 352.128906 C 391.28125 351.988281 377.753906 351.847656 364.503906 352.265625 L 363.804688 351.429688 C 364.226562 345.992188 364.503906 340.691406 364.644531 335.394531 L 365.617188 334.554688 C 373.566406 334.695312 381.378906 334.554688 389.328125 334.554688 C 394.90625 334.695312 400.347656 334.554688 405.925781 334.414062 L 406.621094 335.253906 C 406.203125 340.550781 405.925781 345.851562 405.644531 351.292969 Z M 404.808594 352.128906 "/>
<path fill-rule="nonzero" fill="rgb(16.629028%, 17.706299%, 42.858887%)" fill-opacity="1" d="M 478.679688 129.625 C 478.679688 129.625 543.636719 121.402344 609.828125 127.566406 C 676.019531 133.734375 719.1875 150.589844 719.1875 150.589844 L 719.1875 167.035156 C 719.1875 167.035156 658.753906 146.480469 614.351562 138.667969 C 569.953125 130.855469 478.679688 129.625 478.679688 129.625 "/>
<path fill-rule="nonzero" fill="rgb(89.375305%, 57.266235%, 10.644531%)" fill-opacity="1" d="M 550.765625 142.367188 C 550.765625 142.367188 597.90625 145.65625 622.574219 151.414062 C 647.242188 157.167969 661.769531 165.664062 661.769531 165.664062 L 661.769531 175.257812 C 661.769531 175.257812 636.550781 160.183594 609.417969 153.332031 C 582.285156 146.480469 550.765625 142.367188 550.765625 142.367188 "/>
</svg>
