<?xml version="1.0" encoding="UTF-8"?>
<!-- CMYK_PDF_CONVERTED -->
<svg data-vectorized-cmyk="true" data-original-cmyk-pdf="true" xmlns="http://www.w3.org/2000/svg" xmlns:xlink="http://www.w3.org/1999/xlink" width="80" height="15" viewBox="0 0 80 15">
<defs>
<filter id="filter-remove-color" x="0%" y="0%" width="100%" height="100%">
<feColorMatrix color-interpolation-filters="sRGB" values="0 0 0 0 1 0 0 0 0 1 0 0 0 0 1 0 0 0 1 0" />
</filter>
<mask id="mask-0">
<g filter="url(#filter-remove-color)">
<rect x="-8" y="-1.5" width="96" height="18" fill="rgb(0%, 0%, 0%)" fill-opacity="0.996002"/>
</g>
</mask>
<clipPath id="clip-0">
<path clip-rule="nonzero" d="M 0.828125 0.402344 L 0.839844 0.402344 L 0.839844 0.675781 L 0.828125 0.675781 Z M 0.828125 0.402344 "/>
</clipPath>
<clipPath id="clip-1">
<rect x="0" y="0" width="1" height="1"/>
</clipPath>
<g id="source-5" clip-path="url(#clip-1)">
<g clip-path="url(#clip-0)">
<path fill-rule="nonzero" fill="rgb(5.099487%, 5.099487%, 4.699707%)" fill-opacity="1" d="M 0.839844 0.675781 L 0.828125 0.402344 Z M 0.839844 0.675781 "/>
</g>
</g>
<mask id="mask-1">
<g filter="url(#filter-remove-color)">
<rect x="-8" y="-1.5" width="96" height="18" fill="rgb(0%, 0%, 0%)" fill-opacity="0.996002"/>
</g>
</mask>
<clipPath id="clip-2">
<path clip-rule="nonzero" d="M 0.964844 0.0390625 L 3.390625 0.0390625 L 3.390625 1.671875 L 0.964844 1.671875 Z M 0.964844 0.0390625 "/>
</clipPath>
<clipPath id="clip-3">
<rect x="0" y="0" width="4" height="2"/>
</clipPath>
<g id="source-8" clip-path="url(#clip-3)">
<g clip-path="url(#clip-2)">
<path fill-rule="nonzero" fill="rgb(5.099487%, 5.099487%, 4.699707%)" fill-opacity="1" d="M 2.179688 0.0390625 C 2.34375 0.0390625 2.496094 0.316406 2.640625 0.871094 L 2.761719 0.875 L 3 0.183594 C 3.035156 0.0859375 3.136719 0.0390625 3.234375 0.0742188 L 3.316406 0.101562 L 3.390625 0.257812 L 2.957031 1.492188 C 2.871094 1.738281 2.523438 1.730469 2.449219 1.476562 C 2.300781 0.960938 2.210938 0.699219 2.175781 0.699219 C 2.140625 0.699219 2.042969 0.957031 1.890625 1.472656 C 1.816406 1.722656 1.460938 1.730469 1.378906 1.480469 L 0.964844 0.238281 L 1.039062 0.0859375 L 1.121094 0.0585938 C 1.21875 0.0234375 1.324219 0.078125 1.355469 0.175781 L 1.585938 0.867188 L 1.707031 0.863281 C 1.855469 0.3125 2.015625 0.0390625 2.179688 0.0390625 "/>
</g>
</g>
<mask id="mask-2">
<g filter="url(#filter-remove-color)">
<rect x="-8" y="-1.5" width="96" height="18" fill="rgb(0%, 0%, 0%)" fill-opacity="0.996002"/>
</g>
</mask>
<clipPath id="clip-4">
<path clip-rule="nonzero" d="M 0.839844 0.0390625 L 2.011719 0.0390625 L 2.011719 1.691406 L 0.839844 1.691406 Z M 0.839844 0.0390625 "/>
</clipPath>
<clipPath id="clip-5">
<rect x="0" y="0" width="3" height="2"/>
</clipPath>
<g id="source-11" clip-path="url(#clip-5)">
<g clip-path="url(#clip-4)">
<path fill-rule="nonzero" fill="rgb(5.099487%, 5.099487%, 4.699707%)" fill-opacity="1" d="M 1.957031 0.859375 C 1.960938 0.980469 1.75 1.054688 1.328125 1.085938 L 1.25 1.160156 L 1.320312 1.300781 L 1.390625 1.328125 L 1.84375 1.328125 L 2.011719 1.476562 L 1.890625 1.660156 C 1.75 1.699219 1.464844 1.703125 1.03125 1.667969 L 0.855469 1.5 L 0.835938 0.25 L 1.007812 0.078125 C 1.441406 0.03125 1.726562 0.0234375 1.867188 0.0585938 L 1.996094 0.242188 L 1.832031 0.394531 L 1.375 0.40625 L 1.308594 0.433594 L 1.242188 0.578125 L 1.320312 0.648438 C 1.742188 0.667969 1.957031 0.738281 1.957031 0.859375 "/>
</g>
</g>
<mask id="mask-3">
<g filter="url(#filter-remove-color)">
<rect x="-8" y="-1.5" width="96" height="18" fill="rgb(0%, 0%, 0%)" fill-opacity="0.996078"/>
</g>
</mask>
<clipPath id="clip-6">
<path clip-rule="nonzero" d="M 0.402344 0.0429688 L 2.117188 0.0429688 L 2.117188 1.710938 L 0.402344 1.710938 Z M 0.402344 0.0429688 "/>
</clipPath>
<clipPath id="clip-7">
<rect x="0" y="0" width="3" height="2"/>
</clipPath>
<g id="source-14" clip-path="url(#clip-7)">
<g clip-path="url(#clip-6)">
<path fill-rule="nonzero" fill="rgb(5.099487%, 5.099487%, 4.699707%)" fill-opacity="1" d="M 1.261719 0.0429688 C 1.117188 0.0429688 1.011719 0.125 0.9375 0.292969 C 0.859375 0.46875 0.6875 0.871094 0.417969 1.496094 C 0.367188 1.609375 0.457031 1.710938 0.554688 1.710938 C 0.585938 1.710938 0.621094 1.699219 0.652344 1.667969 C 0.867188 1.472656 1.066406 1.378906 1.261719 1.378906 C 1.453125 1.378906 1.65625 1.472656 1.867188 1.667969 C 1.898438 1.699219 1.933594 1.710938 1.96875 1.710938 C 2.066406 1.710938 2.152344 1.605469 2.105469 1.496094 C 1.832031 0.871094 1.660156 0.46875 1.582031 0.292969 C 1.507812 0.125 1.402344 0.0429688 1.261719 0.0429688 M 1.273438 1.074219 C 1.199219 1.074219 1.140625 0.972656 1.140625 0.847656 C 1.144531 0.722656 1.207031 0.625 1.28125 0.625 C 1.355469 0.628906 1.417969 0.726562 1.414062 0.851562 C 1.410156 0.976562 1.347656 1.074219 1.273438 1.074219 "/>
</g>
</g>
<mask id="mask-4">
<g filter="url(#filter-remove-color)">
<rect x="-8" y="-1.5" width="96" height="18" fill="rgb(0%, 0%, 0%)" fill-opacity="0.996078"/>
</g>
</mask>
<clipPath id="clip-8">
<path clip-rule="nonzero" d="M 0.609375 0.0585938 L 1.90625 0.0585938 L 1.90625 1.691406 L 0.609375 1.691406 Z M 0.609375 0.0585938 "/>
</clipPath>
<clipPath id="clip-9">
<rect x="0" y="0" width="2" height="2"/>
</clipPath>
<g id="source-17" clip-path="url(#clip-9)">
<g clip-path="url(#clip-8)">
<path fill-rule="nonzero" fill="rgb(5.099487%, 5.099487%, 4.699707%)" fill-opacity="1" d="M 1.03125 0.0585938 C 0.9375 0.0585938 0.84375 0.0625 0.746094 0.0742188 L 0.609375 0.226562 L 0.609375 1.527344 L 0.773438 1.691406 L 0.847656 1.691406 L 0.972656 1.566406 L 0.972656 1.183594 C 0.972656 1.105469 1.035156 1.054688 1.101562 1.054688 C 1.144531 1.054688 1.183594 1.074219 1.210938 1.121094 L 1.449219 1.542969 L 1.664062 1.664062 L 1.816406 1.664062 L 1.902344 1.511719 L 1.6875 1.136719 L 1.714844 0.914062 C 2.042969 0.601562 1.933594 0.164062 1.476562 0.09375 C 1.328125 0.0703125 1.179688 0.0585938 1.03125 0.0585938 M 1.238281 0.707031 C 1.230469 0.707031 1.21875 0.707031 1.207031 0.707031 C 1.074219 0.695312 0.96875 0.617188 0.976562 0.53125 C 0.984375 0.453125 1.082031 0.398438 1.203125 0.398438 C 1.214844 0.398438 1.226562 0.398438 1.234375 0.398438 C 1.371094 0.410156 1.476562 0.488281 1.46875 0.574219 C 1.460938 0.652344 1.359375 0.707031 1.238281 0.707031 "/>
</g>
</g>
<mask id="mask-5">
<g filter="url(#filter-remove-color)">
<rect x="-8" y="-1.5" width="96" height="18" fill="rgb(0%, 0%, 0%)" fill-opacity="0.996002"/>
</g>
</mask>
<clipPath id="clip-10">
<path clip-rule="nonzero" d="M 0.21875 0.0625 L 1.710938 0.0625 L 1.710938 1.648438 L 0.21875 1.648438 Z M 0.21875 0.0625 "/>
</clipPath>
<clipPath id="clip-11">
<rect x="0" y="0" width="2" height="2"/>
</clipPath>
<g id="source-20" clip-path="url(#clip-11)">
<g clip-path="url(#clip-10)">
<path fill-rule="nonzero" fill="rgb(5.099487%, 5.099487%, 4.699707%)" fill-opacity="1" d="M 0.675781 0.863281 C 0.730469 1.253906 1.023438 1.378906 1.554688 1.234375 L 1.675781 1.304688 L 1.710938 1.421875 L 1.644531 1.558594 C 1.035156 1.777344 0.234375 1.609375 0.21875 0.875 C 0.203125 0.136719 1 -0.0625 1.617188 0.128906 L 1.691406 0.265625 L 1.660156 0.386719 L 1.539062 0.460938 C 1.003906 0.339844 0.714844 0.472656 0.675781 0.863281 "/>
</g>
</g>
<mask id="mask-6">
<g filter="url(#filter-remove-color)">
<rect x="-8" y="-1.5" width="96" height="18" fill="rgb(0%, 0%, 0%)" fill-opacity="0.996002"/>
</g>
</mask>
<clipPath id="clip-12">
<path clip-rule="nonzero" d="M 0.226562 0.046875 L 1.761719 0.046875 L 1.761719 1.6875 L 0.226562 1.6875 Z M 0.226562 0.046875 "/>
</clipPath>
<clipPath id="clip-13">
<rect x="0" y="0" width="2" height="2"/>
</clipPath>
<g id="source-23" clip-path="url(#clip-13)">
<g clip-path="url(#clip-12)">
<path fill-rule="nonzero" fill="rgb(5.099487%, 5.099487%, 4.699707%)" fill-opacity="1" d="M 0.992188 0.972656 C 0.691406 0.972656 0.585938 1.15625 0.671875 1.515625 L 0.570312 1.675781 C 0.386719 1.710938 0.273438 1.671875 0.230469 1.5625 L 0.226562 1.535156 L 0.226562 0.246094 C 0.226562 0.128906 0.332031 0.03125 0.445312 0.046875 C 0.636719 0.0742188 0.707031 0.207031 0.660156 0.449219 L 0.785156 0.636719 L 0.992188 0.65625 L 1.199219 0.636719 L 1.324219 0.449219 C 1.28125 0.207031 1.351562 0.0742188 1.535156 0.0507812 C 1.65625 0.03125 1.761719 0.128906 1.761719 0.246094 L 1.761719 1.535156 L 1.753906 1.5625 C 1.710938 1.671875 1.597656 1.710938 1.414062 1.675781 L 1.3125 1.519531 C 1.402344 1.15625 1.292969 0.972656 0.992188 0.972656 "/>
</g>
</g>
<mask id="mask-7">
<g filter="url(#filter-remove-color)">
<rect x="-8" y="-1.5" width="96" height="18" fill="rgb(0%, 0%, 0%)" fill-opacity="0.996002"/>
</g>
</mask>
<clipPath id="clip-14">
<path clip-rule="nonzero" d="M 0.339844 0.0703125 L 0.777344 0.0703125 L 0.777344 1.683594 L 0.339844 1.683594 Z M 0.339844 0.0703125 "/>
</clipPath>
<clipPath id="clip-15">
<rect x="0" y="0" width="1" height="2"/>
</clipPath>
<g id="source-26" clip-path="url(#clip-15)">
<g clip-path="url(#clip-14)">
<path fill-rule="nonzero" fill="rgb(5.099487%, 5.099487%, 4.699707%)" fill-opacity="1" d="M 0.777344 1.550781 L 0.640625 1.683594 L 0.472656 1.683594 L 0.339844 1.550781 L 0.339844 0.203125 L 0.476562 0.0703125 L 0.644531 0.0703125 L 0.777344 0.207031 Z M 0.777344 1.550781 "/>
</g>
</g>
<mask id="mask-8">
<g filter="url(#filter-remove-color)">
<rect x="-8" y="-1.5" width="96" height="18" fill="rgb(0%, 0%, 0%)" fill-opacity="0.996002"/>
</g>
</mask>
<clipPath id="clip-16">
<path clip-rule="nonzero" d="M 0.351562 0.0625 L 1.472656 0.0625 L 1.472656 1.671875 L 0.351562 1.671875 Z M 0.351562 0.0625 "/>
</clipPath>
<clipPath id="clip-17">
<rect x="0" y="0" width="2" height="2"/>
</clipPath>
<g id="source-29" clip-path="url(#clip-17)">
<g clip-path="url(#clip-16)">
<path fill-rule="nonzero" fill="rgb(5.099487%, 5.099487%, 4.699707%)" fill-opacity="1" d="M 0.636719 0.0625 L 0.535156 0.0625 C 0.433594 0.0625 0.351562 0.144531 0.351562 0.246094 L 0.351562 1.496094 C 0.351562 1.59375 0.429688 1.671875 0.523438 1.671875 L 1.324219 1.671875 L 1.472656 1.523438 L 1.472656 1.4375 L 1.355469 1.316406 L 0.96875 1.316406 C 0.875 1.316406 0.800781 1.242188 0.800781 1.148438 L 0.800781 0.230469 C 0.800781 0.136719 0.726562 0.0625 0.636719 0.0625 "/>
</g>
</g>
<mask id="mask-9">
<g filter="url(#filter-remove-color)">
<rect x="-8" y="-1.5" width="96" height="18" fill="rgb(0%, 0%, 0%)" fill-opacity="0.996078"/>
</g>
</mask>
<clipPath id="clip-18">
<path clip-rule="nonzero" d="M 0.832031 0.0078125 L 2.511719 0.0078125 L 2.511719 1.6875 L 0.832031 1.6875 Z M 0.832031 0.0078125 "/>
</clipPath>
<clipPath id="clip-19">
<rect x="0" y="0" width="3" height="2"/>
</clipPath>
<g id="source-32" clip-path="url(#clip-19)">
<g clip-path="url(#clip-18)">
<path fill-rule="nonzero" fill="rgb(5.099487%, 5.099487%, 4.699707%)" fill-opacity="1" d="M 1.238281 0.0078125 C 1.0625 0.0078125 0.914062 0.144531 0.902344 0.324219 L 0.835938 1.296875 C 0.820312 1.484375 0.960938 1.648438 1.144531 1.664062 L 1.449219 1.683594 C 1.480469 1.683594 1.511719 1.6875 1.542969 1.6875 C 2.054688 1.6875 2.476562 1.375 2.503906 0.964844 L 2.507812 0.890625 C 2.539062 0.457031 2.117188 0.0703125 1.5625 0.03125 Z M 1.511719 1.304688 C 1.503906 1.304688 1.492188 1.304688 1.480469 1.304688 L 1.449219 1.300781 C 1.359375 1.300781 1.289062 1.222656 1.292969 1.132812 L 1.316406 0.542969 L 1.484375 0.386719 L 1.515625 0.386719 C 1.835938 0.398438 2.082031 0.601562 2.070312 0.84375 L 2.070312 0.890625 C 2.0625 1.125 1.8125 1.304688 1.511719 1.304688 "/>
</g>
</g>
<mask id="mask-10">
<g filter="url(#filter-remove-color)">
<rect x="-8" y="-1.5" width="96" height="18" fill="rgb(0%, 0%, 0%)" fill-opacity="0.996002"/>
</g>
</mask>
<clipPath id="clip-20">
<path clip-rule="nonzero" d="M 0.0351562 0.0507812 L 1.558594 0.0507812 L 1.558594 1.683594 L 0.0351562 1.683594 Z M 0.0351562 0.0507812 "/>
</clipPath>
<clipPath id="clip-21">
<rect x="0" y="0" width="2" height="2"/>
</clipPath>
<g id="source-35" clip-path="url(#clip-21)">
<g clip-path="url(#clip-20)">
<path fill-rule="nonzero" fill="rgb(5.099487%, 5.099487%, 4.699707%)" fill-opacity="1" d="M 0.792969 0.660156 L 1 0.636719 L 1.125 0.449219 C 1.082031 0.210938 1.148438 0.078125 1.335938 0.0546875 C 1.457031 0.0390625 1.558594 0.128906 1.558594 0.25 L 1.558594 1.53125 L 1.554688 1.558594 C 1.515625 1.667969 1.402344 1.703125 1.21875 1.667969 L 1.117188 1.515625 C 1.203125 1.152344 1.097656 0.96875 0.792969 0.972656 C 0.496094 0.972656 0.394531 1.15625 0.484375 1.515625 L 0.378906 1.671875 C 0.195312 1.707031 0.0820312 1.667969 0.0429688 1.566406 L 0.0351562 1.535156 L 0.0351562 0.253906 C 0.0351562 0.132812 0.136719 0.0390625 0.253906 0.0546875 C 0.4375 0.078125 0.511719 0.214844 0.464844 0.453125 L 0.59375 0.640625 Z M 0.792969 0.660156 "/>
</g>
</g>
<mask id="mask-11">
<g filter="url(#filter-remove-color)">
<rect x="-8" y="-1.5" width="96" height="18" fill="rgb(0%, 0%, 0%)" fill-opacity="0.996078"/>
</g>
</mask>
<clipPath id="clip-22">
<path clip-rule="nonzero" d="M 0.0625 0.0507812 L 1.953125 0.0507812 L 1.953125 1.671875 L 0.0625 1.671875 Z M 0.0625 0.0507812 "/>
</clipPath>
<clipPath id="clip-23">
<rect x="0" y="0" width="2" height="2"/>
</clipPath>
<g id="source-38" clip-path="url(#clip-23)">
<g clip-path="url(#clip-22)">
<path fill-rule="nonzero" fill="rgb(5.099487%, 5.099487%, 4.699707%)" fill-opacity="1" d="M 1.011719 0.0507812 L 0.996094 0.0507812 C 0.472656 0.0585938 0.0546875 0.425781 0.0625 0.875 C 0.0664062 1.316406 0.488281 1.671875 1.003906 1.671875 L 1.019531 1.671875 C 1.542969 1.664062 1.957031 1.296875 1.953125 0.847656 C 1.945312 0.40625 1.527344 0.0507812 1.011719 0.0507812 M 0.980469 1.296875 C 0.714844 1.296875 0.5 1.113281 0.484375 0.875 C 0.476562 0.632812 0.691406 0.421875 0.96875 0.410156 L 0.996094 0.410156 C 1.261719 0.410156 1.480469 0.59375 1.492188 0.828125 C 1.503906 1.074219 1.289062 1.28125 1.007812 1.292969 Z M 0.980469 1.296875 "/>
</g>
</g>
<mask id="mask-12">
<g filter="url(#filter-remove-color)">
<rect x="-8" y="-1.5" width="96" height="18" fill="rgb(0%, 0%, 0%)" fill-opacity="0.996078"/>
</g>
</mask>
<clipPath id="clip-24">
<path clip-rule="nonzero" d="M 0.398438 0.0546875 L 2.285156 0.0546875 L 2.285156 1.667969 L 0.398438 1.667969 Z M 0.398438 0.0546875 "/>
</clipPath>
<clipPath id="clip-25">
<rect x="0" y="0" width="3" height="2"/>
</clipPath>
<g id="source-41" clip-path="url(#clip-25)">
<g clip-path="url(#clip-24)">
<path fill-rule="nonzero" fill="rgb(5.099487%, 5.099487%, 4.699707%)" fill-opacity="1" d="M 1.335938 0.0546875 C 0.824219 0.0546875 0.40625 0.40625 0.398438 0.847656 C 0.390625 1.292969 0.808594 1.660156 1.328125 1.671875 L 1.34375 1.671875 C 1.859375 1.671875 2.277344 1.316406 2.285156 0.878906 C 2.292969 0.433594 1.875 0.0625 1.351562 0.0546875 Z M 1.355469 1.324219 C 1.09375 1.324219 0.882812 1.113281 0.882812 0.851562 C 0.882812 0.585938 1.09375 0.375 1.355469 0.375 C 1.617188 0.375 1.828125 0.585938 1.828125 0.851562 C 1.828125 1.113281 1.617188 1.324219 1.355469 1.324219 "/>
</g>
</g>
<mask id="mask-13">
<g filter="url(#filter-remove-color)">
<rect x="-8" y="-1.5" width="96" height="18" fill="rgb(0%, 0%, 0%)" fill-opacity="0.996078"/>
</g>
</mask>
<clipPath id="clip-26">
<path clip-rule="nonzero" d="M 0.777344 0.0546875 L 2.402344 0.0546875 L 2.402344 1.667969 L 0.777344 1.667969 Z M 0.777344 0.0546875 "/>
</clipPath>
<clipPath id="clip-27">
<rect x="0" y="0" width="3" height="2"/>
</clipPath>
<g id="source-44" clip-path="url(#clip-27)">
<g clip-path="url(#clip-26)">
<path fill-rule="nonzero" fill="rgb(5.099487%, 5.099487%, 4.699707%)" fill-opacity="1" d="M 1.484375 0.0546875 L 0.960938 0.0546875 C 0.855469 0.0546875 0.773438 0.140625 0.773438 0.246094 L 0.773438 1.476562 C 0.773438 1.582031 0.863281 1.667969 0.96875 1.667969 L 1.484375 1.667969 C 1.992188 1.664062 2.40625 1.320312 2.402344 0.90625 L 2.402344 0.808594 C 2.402344 0.394531 1.992188 0.0546875 1.484375 0.0546875 M 1.355469 1.308594 C 1.261719 1.308594 1.183594 1.230469 1.183594 1.136719 L 1.171875 0.570312 C 1.171875 0.476562 1.246094 0.398438 1.339844 0.398438 L 1.382812 0.394531 L 1.394531 0.394531 C 1.71875 0.394531 1.980469 0.578125 1.988281 0.808594 L 1.988281 0.871094 C 1.992188 1.105469 1.726562 1.300781 1.394531 1.304688 Z M 1.355469 1.308594 "/>
</g>
</g>
</defs>
<path fill-rule="nonzero" fill="rgb(15.299988%, 28.199768%, 40.79895%)" fill-opacity="1" d="M 7.839844 7.675781 L 7.828125 7.402344 Z M 7.839844 7.675781 "/>
<path fill-rule="nonzero" fill="rgb(55.299377%, 74.899292%, 25.498962%)" fill-opacity="1" d="M 76.921875 0.171875 C 77.683594 0.261719 78.4375 0.476562 79.179688 0.816406 C 79.328125 0.886719 79.402344 1.054688 79.347656 1.210938 L 78.707031 3.042969 C 78.625 3.277344 78.355469 3.378906 78.144531 3.253906 C 77.507812 2.890625 76.394531 2.601562 76.054688 3.558594 C 75.984375 3.761719 76.070312 3.984375 76.257812 4.082031 C 77.789062 4.890625 79.113281 5.566406 79.539062 7.421875 L 79.539062 8.265625 C 79.121094 10.183594 77.921875 11.179688 75.9375 11.257812 C 74.773438 11.300781 73.75 11.054688 72.867188 10.523438 C 72.625 10.378906 72.519531 10.082031 72.613281 9.816406 L 73.265625 7.949219 C 73.332031 7.757812 73.5625 7.679688 73.730469 7.789062 C 74.472656 8.277344 75.46875 8.945312 76.277344 8.515625 C 76.527344 8.378906 76.652344 8.089844 76.566406 7.824219 C 76.457031 7.480469 76.246094 7.203125 75.9375 6.992188 C 74.386719 5.941406 72.605469 5.171875 73.085938 2.859375 C 73.457031 1.058594 74.9375 0.359375 76.613281 0.171875 Z M 76.921875 0.171875 "/>
<path fill-rule="nonzero" fill="rgb(55.299377%, 74.899292%, 25.498962%)" fill-opacity="1" d="M 12.867188 0.320312 C 15.972656 0.316406 17.46875 2.917969 17.472656 5.753906 C 17.472656 8.585938 15.984375 11.1875 12.875 11.191406 C 9.765625 11.195312 8.269531 8.59375 8.269531 5.761719 C 8.265625 2.925781 9.753906 0.324219 12.867188 0.320312 M 12.847656 2.921875 C 11.839844 2.929688 11.039062 4.207031 11.054688 5.773438 C 11.074219 7.339844 11.898438 8.601562 12.90625 8.589844 C 13.910156 8.582031 14.714844 7.300781 14.695312 5.738281 C 14.679688 4.171875 13.851562 2.910156 12.847656 2.921875 "/>
<path fill-rule="nonzero" fill="rgb(94.898987%, 71.798706%, 13.699341%)" fill-opacity="1" d="M 55.617188 1.683594 C 55.617188 2.433594 55.015625 3.039062 54.269531 3.039062 C 53.523438 3.039062 52.921875 2.433594 52.921875 1.683594 C 52.921875 0.933594 53.523438 0.324219 54.269531 0.324219 C 55.015625 0.324219 55.617188 0.933594 55.617188 1.683594 "/>
<path fill-rule="nonzero" fill="rgb(25.099182%, 51.399231%, 76.899719%)" fill-opacity="1" d="M 7.828125 7.402344 L 7.839844 7.675781 C 8.128906 10.253906 6.113281 10.988281 3.980469 11.0625 C 2.691406 11.109375 1.535156 11.113281 0.515625 11.078125 C 0.308594 11.070312 0.144531 10.898438 0.144531 10.691406 L 0.144531 0.859375 C 0.144531 0.621094 0.328125 0.425781 0.566406 0.414062 C 1.960938 0.367188 3.3125 0.394531 4.625 0.496094 C 5.945312 0.597656 7.152344 1.136719 7.359375 2.578125 C 7.519531 3.714844 7.261719 4.621094 6.589844 5.289062 L 6.601562 5.425781 C 7.292969 5.902344 7.703125 6.5625 7.828125 7.402344 M 2.722656 2.324219 L 2.722656 4.429688 L 2.835938 4.542969 L 3.238281 4.542969 C 4.035156 4.542969 4.683594 4.066406 4.683594 3.480469 L 4.683594 3.277344 C 4.683594 2.6875 4.035156 2.210938 3.238281 2.210938 L 2.835938 2.210938 Z M 2.722656 6.609375 L 2.722656 8.90625 L 2.855469 9.023438 L 3.726562 9.023438 C 4.4375 9.019531 5.011719 8.527344 5.007812 7.933594 L 5.003906 7.550781 C 5 6.957031 4.421875 6.480469 3.707031 6.484375 L 2.835938 6.484375 Z M 2.722656 6.609375 "/>
<path fill-rule="nonzero" fill="rgb(94.898987%, 71.798706%, 13.699341%)" fill-opacity="1" d="M 24.0625 11.09375 L 18.394531 11.09375 C 18.214844 11.09375 18.070312 10.949219 18.070312 10.769531 L 18.070312 0.738281 C 18.070312 0.558594 18.214844 0.414062 18.394531 0.414062 L 20.296875 0.414062 C 20.476562 0.414062 20.621094 0.558594 20.621094 0.738281 L 20.621094 8.058594 C 20.621094 8.238281 20.769531 8.386719 20.945312 8.386719 L 24.0625 8.386719 C 24.242188 8.386719 24.386719 8.535156 24.386719 8.714844 L 24.386719 10.769531 C 24.386719 10.949219 24.242188 11.09375 24.0625 11.09375 "/>
<path fill-rule="nonzero" fill="rgb(91.799927%, 28.999329%, 28.999329%)" fill-opacity="1" d="M 25.074219 0.839844 C 25.074219 0.578125 25.300781 0.375 25.558594 0.375 L 28.65625 0.375 C 31.242188 0.386719 33.332031 2.542969 33.324219 5.191406 L 33.324219 6.339844 C 33.316406 8.988281 31.207031 11.121094 28.621094 11.109375 L 25.523438 11.109375 C 25.265625 11.109375 25.074219 10.894531 25.074219 10.632812 Z M 27.628906 3.191406 L 27.628906 8.324219 L 27.785156 8.472656 L 28.589844 8.472656 C 29.636719 8.464844 30.480469 7.394531 30.476562 6.074219 L 30.476562 5.417969 C 30.46875 4.101562 29.617188 3.035156 28.570312 3.042969 L 27.765625 3.042969 Z M 27.628906 3.191406 "/>
<path fill-rule="nonzero" fill="rgb(25.099182%, 51.399231%, 76.899719%)" fill-opacity="1" d="M 42.703125 5.457031 C 43.847656 6.472656 44.1875 7.683594 43.722656 9.097656 C 43.175781 10.769531 41.324219 11.058594 39.757812 11.082031 C 38.800781 11.101562 37.726562 11.101562 36.539062 11.089844 C 36.34375 11.085938 36.191406 10.929688 36.191406 10.734375 L 36.191406 0.800781 C 36.191406 0.601562 36.347656 0.4375 36.542969 0.425781 C 38.144531 0.363281 39.558594 0.390625 40.789062 0.511719 C 42.246094 0.65625 43.265625 1.296875 43.410156 2.832031 C 43.496094 3.765625 43.257812 4.550781 42.6875 5.199219 Z M 38.738281 2.394531 L 38.738281 4.378906 C 38.742188 4.480469 38.824219 4.5625 38.925781 4.5625 L 39.152344 4.5625 C 40.019531 4.558594 40.722656 4.050781 40.71875 3.425781 L 40.71875 3.332031 C 40.71875 2.710938 40.011719 2.207031 39.140625 2.210938 L 38.914062 2.210938 C 38.816406 2.210938 38.734375 2.292969 38.738281 2.394531 M 38.738281 6.648438 L 38.738281 8.84375 C 38.738281 8.945312 38.816406 9.027344 38.914062 9.027344 L 39.683594 9.027344 C 40.425781 9.027344 41.03125 8.523438 41.03125 7.898438 L 41.03125 7.609375 C 41.035156 6.984375 40.433594 6.472656 39.6875 6.472656 L 38.921875 6.472656 C 38.820312 6.472656 38.738281 6.550781 38.738281 6.648438 "/>
<path fill-rule="nonzero" fill="rgb(55.299377%, 74.899292%, 25.498962%)" fill-opacity="1" d="M 48.128906 0.4375 C 48.527344 0.4375 48.898438 0.445312 49.242188 0.460938 C 49.375 0.464844 49.488281 0.554688 49.527344 0.683594 L 52.460938 10.59375 C 52.535156 10.84375 52.347656 11.09375 52.085938 11.09375 L 50.363281 11.09375 C 50.128906 11.09375 49.925781 10.941406 49.855469 10.714844 L 49.480469 9.449219 L 49.3125 9.320312 L 46.941406 9.320312 L 46.773438 9.449219 L 46.398438 10.714844 C 46.332031 10.941406 46.125 11.09375 45.890625 11.09375 L 44.167969 11.09375 C 43.90625 11.09375 43.722656 10.84375 43.796875 10.59375 L 46.730469 0.683594 C 46.765625 0.554688 46.882812 0.464844 47.011719 0.460938 C 47.355469 0.445312 47.726562 0.4375 48.128906 0.4375 M 47.511719 7.042969 L 47.601562 7.164062 L 48.660156 7.164062 L 48.753906 7.039062 L 48.21875 5.121094 C 48.191406 5.027344 48.058594 5.027344 48.035156 5.121094 Z M 47.511719 7.042969 "/>
<path fill-rule="nonzero" fill="rgb(91.799927%, 28.999329%, 28.999329%)" fill-opacity="1" d="M 58.988281 8.082031 C 58.941406 8 58.816406 8.035156 58.816406 8.128906 L 58.816406 10.769531 C 58.816406 10.949219 58.671875 11.09375 58.496094 11.09375 L 56.640625 11.09375 C 56.441406 11.09375 56.285156 10.933594 56.285156 10.734375 L 56.285156 0.785156 C 56.285156 0.597656 56.429688 0.441406 56.621094 0.429688 C 58.160156 0.339844 59.519531 0.398438 60.691406 0.601562 C 63.734375 1.128906 64.042969 5.636719 61.574219 7.128906 L 61.527344 7.378906 C 61.996094 8.003906 62.664062 8.953125 63.53125 10.230469 C 63.628906 10.371094 63.699219 10.550781 63.746094 10.765625 C 63.785156 10.933594 63.65625 11.097656 63.484375 11.097656 L 61.035156 11.097656 C 60.835938 11.097656 60.65625 10.992188 60.558594 10.820312 Z M 58.828125 2.636719 L 58.828125 5.636719 C 58.828125 5.730469 58.910156 5.808594 59.007812 5.808594 L 59.039062 5.804688 C 59.917969 5.800781 60.628906 5.085938 60.625 4.210938 L 60.625 4.039062 C 60.621094 3.164062 59.902344 2.457031 59.023438 2.460938 L 58.988281 2.460938 C 58.894531 2.460938 58.828125 2.539062 58.828125 2.636719 "/>
<path fill-rule="nonzero" fill="rgb(25.099182%, 51.399231%, 76.899719%)" fill-opacity="1" d="M 66.472656 11.078125 L 64.117188 11.078125 L 64.039062 11.003906 L 64.039062 0.488281 L 64.117188 0.414062 L 66.480469 0.414062 L 66.546875 0.453125 L 69.433594 5.488281 L 69.578125 5.449219 L 69.578125 0.496094 L 69.65625 0.421875 L 71.996094 0.421875 L 72.074219 0.496094 L 72.074219 11.003906 L 71.996094 11.082031 L 69.65625 11.082031 L 69.589844 11.046875 L 66.695312 5.996094 L 66.550781 6.035156 L 66.550781 11.003906 Z M 66.472656 11.078125 "/>
<path fill-rule="nonzero" fill="rgb(94.898987%, 71.798706%, 13.699341%)" fill-opacity="1" d="M 55.601562 10.6875 C 55.601562 10.914062 55.421875 11.09375 55.195312 11.09375 L 53.3125 11.09375 C 53.085938 11.09375 52.90625 10.914062 52.90625 10.6875 L 52.90625 3.800781 C 52.90625 3.578125 53.085938 3.394531 53.3125 3.394531 L 55.195312 3.394531 C 55.421875 3.394531 55.601562 3.578125 55.601562 3.800781 Z M 55.601562 10.6875 "/>
<g mask="url(#mask-0)">
<use xlink:href="#source-5" transform="matrix(1, 0, 0, 1, 7, 7)"/>
</g>
<g mask="url(#mask-1)">
<use xlink:href="#source-8" transform="matrix(1, 0, 0, 1, 52, 13)"/>
</g>
<g mask="url(#mask-2)">
<use xlink:href="#source-11" transform="matrix(1, 0, 0, 1, 55, 13)"/>
</g>
<g mask="url(#mask-3)">
<use xlink:href="#source-14" transform="matrix(1, 0, 0, 1, 57, 13)"/>
</g>
<g mask="url(#mask-4)">
<use xlink:href="#source-17" transform="matrix(1, 0, 0, 1, 59, 13)"/>
</g>
<g mask="url(#mask-5)">
<use xlink:href="#source-20" transform="matrix(1, 0, 0, 1, 62, 13)"/>
</g>
<g mask="url(#mask-6)">
<use xlink:href="#source-23" transform="matrix(1, 0, 0, 1, 64, 13)"/>
</g>
<g mask="url(#mask-7)">
<use xlink:href="#source-26" transform="matrix(1, 0, 0, 1, 66, 13)"/>
</g>
<g mask="url(#mask-8)">
<use xlink:href="#source-29" transform="matrix(1, 0, 0, 1, 67, 13)"/>
</g>
<g mask="url(#mask-9)">
<use xlink:href="#source-32" transform="matrix(1, 0, 0, 1, 68, 13)"/>
</g>
<g mask="url(#mask-10)">
<use xlink:href="#source-35" transform="matrix(1, 0, 0, 1, 71, 13)"/>
</g>
<g mask="url(#mask-11)">
<use xlink:href="#source-38" transform="matrix(1, 0, 0, 1, 73, 13)"/>
</g>
<g mask="url(#mask-12)">
<use xlink:href="#source-41" transform="matrix(1, 0, 0, 1, 75, 13)"/>
</g>
<g mask="url(#mask-13)">
<use xlink:href="#source-44" transform="matrix(1, 0, 0, 1, 77, 13)"/>
</g>
</svg>
