<?xml version="1.0" encoding="UTF-8"?>
<!-- CMYK_PDF_CONVERTED -->
<svg data-vectorized-cmyk="true" data-original-cmyk-pdf="true" xmlns="http://www.w3.org/2000/svg" xmlns:xlink="http://www.w3.org/1999/xlink" width="836.22" height="283.465" viewBox="0 0 836.22 283.465">
<defs>
<clipPath id="clip-0">
<path clip-rule="nonzero" d="M 33 46 L 237 46 L 237 250 L 33 250 Z M 33 46 "/>
</clipPath>
<clipPath id="clip-1">
<path clip-rule="nonzero" d="M 118.144531 75.363281 C 114.324219 80.585938 109.949219 85.394531 104.960938 89.515625 C 99.230469 94.242188 91.78125 98.945312 82.207031 101.332031 C 77.894531 102.40625 73.433594 102.9375 68.910156 102.9375 C 62.414062 102.9375 55.789062 101.835938 49.289062 99.644531 L 46.175781 98.59375 C 37.953125 113.464844 33.347656 130.613281 33.566406 148.859375 C 34.21875 203.613281 78.882812 248.347656 133.628906 249.082031 C 190.308594 249.84375 236.496094 204.128906 236.496094 147.625 C 236.496094 93.058594 192.429688 48.324219 138.433594 46.019531 Z M 118.144531 75.363281 "/>
</clipPath>
<linearGradient id="linear-pattern-0" gradientUnits="userSpaceOnUse" x1="-0.017306" y1="0" x2="0.98789" y2="0" gradientTransform="matrix(-0.308766, 203.079102, -203.079102, -0.308766, 135.176376, 49.379444)">
<stop offset="0" stop-color="rgb(27.46582%, 39.99176%, 72.746277%)" stop-opacity="1"/>
<stop offset="0.015625" stop-color="rgb(27.46582%, 39.99176%, 72.746277%)" stop-opacity="1"/>
<stop offset="0.0234375" stop-color="rgb(27.502441%, 40.068054%, 72.796631%)" stop-opacity="1"/>
<stop offset="0.03125" stop-color="rgb(27.581787%, 40.242004%, 72.909546%)" stop-opacity="1"/>
<stop offset="0.0390625" stop-color="rgb(27.671814%, 40.435791%, 73.034668%)" stop-opacity="1"/>
<stop offset="0.046875" stop-color="rgb(27.760315%, 40.629578%, 73.15979%)" stop-opacity="1"/>
<stop offset="0.0546875" stop-color="rgb(27.850342%, 40.82489%, 73.284912%)" stop-opacity="1"/>
<stop offset="0.0625" stop-color="rgb(27.940369%, 41.020203%, 73.410034%)" stop-opacity="1"/>
<stop offset="0.0703125" stop-color="rgb(28.031921%, 41.217041%, 73.535156%)" stop-opacity="1"/>
<stop offset="0.078125" stop-color="rgb(28.120422%, 41.412354%, 73.660278%)" stop-opacity="1"/>
<stop offset="0.0859375" stop-color="rgb(28.211975%, 41.609192%, 73.786926%)" stop-opacity="1"/>
<stop offset="0.09375" stop-color="rgb(28.303528%, 41.807556%, 73.912048%)" stop-opacity="1"/>
<stop offset="0.101562" stop-color="rgb(28.395081%, 42.00592%, 74.03717%)" stop-opacity="1"/>
<stop offset="0.109375" stop-color="rgb(28.485107%, 42.204285%, 74.163818%)" stop-opacity="1"/>
<stop offset="0.117187" stop-color="rgb(28.578186%, 42.404175%, 74.290466%)" stop-opacity="1"/>
<stop offset="0.125" stop-color="rgb(28.669739%, 42.602539%, 74.415588%)" stop-opacity="1"/>
<stop offset="0.132812" stop-color="rgb(28.762817%, 42.802429%, 74.542236%)" stop-opacity="1"/>
<stop offset="0.140625" stop-color="rgb(28.85437%, 43.003845%, 74.668884%)" stop-opacity="1"/>
<stop offset="0.148437" stop-color="rgb(28.947449%, 43.203735%, 74.794006%)" stop-opacity="1"/>
<stop offset="0.15625" stop-color="rgb(29.040527%, 43.405151%, 74.920654%)" stop-opacity="1"/>
<stop offset="0.164062" stop-color="rgb(29.135132%, 43.608093%, 75.047302%)" stop-opacity="1"/>
<stop offset="0.171875" stop-color="rgb(29.22821%, 43.809509%, 75.17395%)" stop-opacity="1"/>
<stop offset="0.179687" stop-color="rgb(29.321289%, 44.013977%, 75.300598%)" stop-opacity="1"/>
<stop offset="0.1875" stop-color="rgb(29.415894%, 44.216919%, 75.427246%)" stop-opacity="1"/>
<stop offset="0.195312" stop-color="rgb(29.510498%, 44.421387%, 75.553894%)" stop-opacity="1"/>
<stop offset="0.203125" stop-color="rgb(29.605103%, 44.625854%, 75.680542%)" stop-opacity="1"/>
<stop offset="0.210937" stop-color="rgb(29.699707%, 44.831848%, 75.808716%)" stop-opacity="1"/>
<stop offset="0.21875" stop-color="rgb(29.795837%, 45.036316%, 75.935364%)" stop-opacity="1"/>
<stop offset="0.226562" stop-color="rgb(29.890442%, 45.24231%, 76.062012%)" stop-opacity="1"/>
<stop offset="0.234375" stop-color="rgb(29.986572%, 45.449829%, 76.190186%)" stop-opacity="1"/>
<stop offset="0.242187" stop-color="rgb(30.081177%, 45.655823%, 76.316833%)" stop-opacity="1"/>
<stop offset="0.25" stop-color="rgb(30.178833%, 45.863342%, 76.443481%)" stop-opacity="1"/>
<stop offset="0.257812" stop-color="rgb(30.274963%, 46.072388%, 76.571655%)" stop-opacity="1"/>
<stop offset="0.265625" stop-color="rgb(30.371094%, 46.281433%, 76.699829%)" stop-opacity="1"/>
<stop offset="0.273438" stop-color="rgb(30.467224%, 46.490479%, 76.826477%)" stop-opacity="1"/>
<stop offset="0.28125" stop-color="rgb(30.56488%, 46.70105%, 76.954651%)" stop-opacity="1"/>
<stop offset="0.289062" stop-color="rgb(30.662537%, 46.910095%, 77.082825%)" stop-opacity="1"/>
<stop offset="0.296875" stop-color="rgb(30.760193%, 47.120667%, 77.210999%)" stop-opacity="1"/>
<stop offset="0.304687" stop-color="rgb(30.857849%, 47.332764%, 77.339172%)" stop-opacity="1"/>
<stop offset="0.3125" stop-color="rgb(30.957031%, 47.543335%, 77.467346%)" stop-opacity="1"/>
<stop offset="0.320312" stop-color="rgb(31.054688%, 47.755432%, 77.593994%)" stop-opacity="1"/>
<stop offset="0.328125" stop-color="rgb(31.15387%, 47.969055%, 77.722168%)" stop-opacity="1"/>
<stop offset="0.335938" stop-color="rgb(31.251526%, 48.181152%, 77.851868%)" stop-opacity="1"/>
<stop offset="0.34375" stop-color="rgb(31.350708%, 48.394775%, 77.980042%)" stop-opacity="1"/>
<stop offset="0.351562" stop-color="rgb(31.44989%, 48.609924%, 78.108215%)" stop-opacity="1"/>
<stop offset="0.359375" stop-color="rgb(31.550598%, 48.823547%, 78.236389%)" stop-opacity="1"/>
<stop offset="0.367187" stop-color="rgb(31.64978%, 49.040222%, 78.366089%)" stop-opacity="1"/>
<stop offset="0.375" stop-color="rgb(31.750488%, 49.255371%, 78.494263%)" stop-opacity="1"/>
<stop offset="0.382812" stop-color="rgb(31.84967%, 49.472046%, 78.623962%)" stop-opacity="1"/>
<stop offset="0.390625" stop-color="rgb(31.951904%, 49.688721%, 78.752136%)" stop-opacity="1"/>
<stop offset="0.398438" stop-color="rgb(32.051086%, 49.905396%, 78.881836%)" stop-opacity="1"/>
<stop offset="0.40625" stop-color="rgb(32.15332%, 50.123596%, 79.01001%)" stop-opacity="1"/>
<stop offset="0.414062" stop-color="rgb(32.255554%, 50.341797%, 79.139709%)" stop-opacity="1"/>
<stop offset="0.421875" stop-color="rgb(32.356262%, 50.561523%, 79.267883%)" stop-opacity="1"/>
<stop offset="0.429687" stop-color="rgb(32.458496%, 50.779724%, 79.397583%)" stop-opacity="1"/>
<stop offset="0.4375" stop-color="rgb(32.56073%, 50.999451%, 79.527283%)" stop-opacity="1"/>
<stop offset="0.445312" stop-color="rgb(32.662964%, 51.220703%, 79.656982%)" stop-opacity="1"/>
<stop offset="0.453125" stop-color="rgb(32.765198%, 51.441956%, 79.786682%)" stop-opacity="1"/>
<stop offset="0.460938" stop-color="rgb(32.868958%, 51.663208%, 79.916382%)" stop-opacity="1"/>
<stop offset="0.46875" stop-color="rgb(32.971191%, 51.88446%, 80.046082%)" stop-opacity="1"/>
<stop offset="0.476562" stop-color="rgb(33.074951%, 52.107239%, 80.175781%)" stop-opacity="1"/>
<stop offset="0.484375" stop-color="rgb(33.178711%, 52.330017%, 80.305481%)" stop-opacity="1"/>
<stop offset="0.492187" stop-color="rgb(33.283997%, 52.552795%, 80.436707%)" stop-opacity="1"/>
<stop offset="0.5" stop-color="rgb(33.38623%, 52.7771%, 80.566406%)" stop-opacity="1"/>
<stop offset="0.507812" stop-color="rgb(33.491516%, 53.001404%, 80.696106%)" stop-opacity="1"/>
<stop offset="0.515625" stop-color="rgb(33.595276%, 53.225708%, 80.827332%)" stop-opacity="1"/>
<stop offset="0.523438" stop-color="rgb(33.702087%, 53.451538%, 80.957031%)" stop-opacity="1"/>
<stop offset="0.53125" stop-color="rgb(33.805847%, 53.677368%, 81.086731%)" stop-opacity="1"/>
<stop offset="0.539062" stop-color="rgb(33.912659%, 53.904724%, 81.217957%)" stop-opacity="1"/>
<stop offset="0.546875" stop-color="rgb(34.016418%, 54.13208%, 81.349182%)" stop-opacity="1"/>
<stop offset="0.554687" stop-color="rgb(34.12323%, 54.359436%, 81.480408%)" stop-opacity="1"/>
<stop offset="0.5625" stop-color="rgb(34.228516%, 54.586792%, 81.610107%)" stop-opacity="1"/>
<stop offset="0.570313" stop-color="rgb(34.336853%, 54.815674%, 81.741333%)" stop-opacity="1"/>
<stop offset="0.578125" stop-color="rgb(34.442139%, 55.044556%, 81.872559%)" stop-opacity="1"/>
<stop offset="0.585938" stop-color="rgb(34.550476%, 55.273438%, 82.003784%)" stop-opacity="1"/>
<stop offset="0.59375" stop-color="rgb(34.655762%, 55.503845%, 82.13501%)" stop-opacity="1"/>
<stop offset="0.601562" stop-color="rgb(34.764099%, 55.734253%, 82.266235%)" stop-opacity="1"/>
<stop offset="0.609375" stop-color="rgb(34.872437%, 55.964661%, 82.397461%)" stop-opacity="1"/>
<stop offset="0.617188" stop-color="rgb(34.980774%, 56.196594%, 82.528687%)" stop-opacity="1"/>
<stop offset="0.625" stop-color="rgb(35.089111%, 56.428528%, 82.659912%)" stop-opacity="1"/>
<stop offset="0.632812" stop-color="rgb(35.195923%, 56.661987%, 82.791138%)" stop-opacity="1"/>
<stop offset="0.640625" stop-color="rgb(35.305786%, 56.893921%, 82.923889%)" stop-opacity="1"/>
<stop offset="0.648438" stop-color="rgb(35.414124%, 57.12738%, 83.055115%)" stop-opacity="1"/>
<stop offset="0.65625" stop-color="rgb(35.523987%, 57.362366%, 83.18634%)" stop-opacity="1"/>
<stop offset="0.664062" stop-color="rgb(35.632324%, 57.595825%, 83.319092%)" stop-opacity="1"/>
<stop offset="0.671875" stop-color="rgb(35.743713%, 57.830811%, 83.450317%)" stop-opacity="1"/>
<stop offset="0.679687" stop-color="rgb(35.852051%, 58.067322%, 83.583069%)" stop-opacity="1"/>
<stop offset="0.6875" stop-color="rgb(35.96344%, 58.302307%, 83.714294%)" stop-opacity="1"/>
<stop offset="0.695313" stop-color="rgb(36.073303%, 58.538818%, 83.847046%)" stop-opacity="1"/>
<stop offset="0.703125" stop-color="rgb(36.184692%, 58.776855%, 83.979797%)" stop-opacity="1"/>
<stop offset="0.710938" stop-color="rgb(36.294556%, 59.014893%, 84.112549%)" stop-opacity="1"/>
<stop offset="0.71875" stop-color="rgb(36.407471%, 59.25293%, 84.2453%)" stop-opacity="1"/>
<stop offset="0.726562" stop-color="rgb(36.517334%, 59.490967%, 84.378052%)" stop-opacity="1"/>
<stop offset="0.734375" stop-color="rgb(36.630249%, 59.73053%, 84.509277%)" stop-opacity="1"/>
<stop offset="0.742188" stop-color="rgb(36.741638%, 59.970093%, 84.642029%)" stop-opacity="1"/>
<stop offset="0.75" stop-color="rgb(36.854553%, 60.209656%, 84.77478%)" stop-opacity="1"/>
<stop offset="0.757812" stop-color="rgb(36.965942%, 60.450745%, 84.909058%)" stop-opacity="1"/>
<stop offset="0.765625" stop-color="rgb(37.078857%, 60.691833%, 85.041809%)" stop-opacity="1"/>
<stop offset="0.773438" stop-color="rgb(37.191772%, 60.932922%, 85.174561%)" stop-opacity="1"/>
<stop offset="0.78125" stop-color="rgb(37.306213%, 61.175537%, 85.307312%)" stop-opacity="1"/>
<stop offset="0.789062" stop-color="rgb(37.419128%, 61.418152%, 85.440063%)" stop-opacity="1"/>
<stop offset="0.796875" stop-color="rgb(37.533569%, 61.662292%, 85.574341%)" stop-opacity="1"/>
<stop offset="0.804687" stop-color="rgb(37.646484%, 61.904907%, 85.708618%)" stop-opacity="1"/>
<stop offset="0.8125" stop-color="rgb(37.760925%, 62.150574%, 85.84137%)" stop-opacity="1"/>
<stop offset="0.820313" stop-color="rgb(37.876892%, 62.394714%, 85.975647%)" stop-opacity="1"/>
<stop offset="0.828125" stop-color="rgb(37.989807%, 62.638855%, 86.108398%)" stop-opacity="1"/>
<stop offset="0.835938" stop-color="rgb(38.105774%, 62.886047%, 86.242676%)" stop-opacity="1"/>
<stop offset="0.84375" stop-color="rgb(38.220215%, 63.131714%, 86.376953%)" stop-opacity="1"/>
<stop offset="0.851562" stop-color="rgb(38.336182%, 63.378906%, 86.509705%)" stop-opacity="1"/>
<stop offset="0.859375" stop-color="rgb(38.452148%, 63.624573%, 86.643982%)" stop-opacity="1"/>
<stop offset="0.867188" stop-color="rgb(38.568115%, 63.873291%, 86.778259%)" stop-opacity="1"/>
<stop offset="0.875" stop-color="rgb(38.684082%, 64.120483%, 86.912537%)" stop-opacity="1"/>
<stop offset="0.882812" stop-color="rgb(38.801575%, 64.370728%, 87.046814%)" stop-opacity="1"/>
<stop offset="0.890625" stop-color="rgb(38.917542%, 64.619446%, 87.181091%)" stop-opacity="1"/>
<stop offset="0.898438" stop-color="rgb(39.035034%, 64.86969%, 87.316895%)" stop-opacity="1"/>
<stop offset="0.90625" stop-color="rgb(39.151001%, 65.119934%, 87.451172%)" stop-opacity="1"/>
<stop offset="0.914062" stop-color="rgb(39.27002%, 65.370178%, 87.585449%)" stop-opacity="1"/>
<stop offset="0.921875" stop-color="rgb(39.387512%, 65.621948%, 87.719727%)" stop-opacity="1"/>
<stop offset="0.929687" stop-color="rgb(39.505005%, 65.873718%, 87.854004%)" stop-opacity="1"/>
<stop offset="0.9375" stop-color="rgb(39.622498%, 66.125488%, 87.989807%)" stop-opacity="1"/>
<stop offset="0.945313" stop-color="rgb(39.743042%, 66.378784%, 88.124084%)" stop-opacity="1"/>
<stop offset="0.953125" stop-color="rgb(39.860535%, 66.63208%, 88.259888%)" stop-opacity="1"/>
<stop offset="0.960938" stop-color="rgb(39.979553%, 66.885376%, 88.394165%)" stop-opacity="1"/>
<stop offset="0.96875" stop-color="rgb(40.098572%, 67.140198%, 88.529968%)" stop-opacity="1"/>
<stop offset="0.976562" stop-color="rgb(40.219116%, 67.39502%, 88.665771%)" stop-opacity="1"/>
<stop offset="0.984375" stop-color="rgb(40.338135%, 67.651367%, 88.801575%)" stop-opacity="1"/>
<stop offset="0.992188" stop-color="rgb(40.458679%, 67.906189%, 88.935852%)" stop-opacity="1"/>
<stop offset="1" stop-color="rgb(40.577698%, 68.162537%, 89.071655%)" stop-opacity="1"/>
</linearGradient>
<clipPath id="clip-2">
<path clip-rule="nonzero" d="M 11 21 L 209 21 L 209 263 L 11 263 Z M 11 21 "/>
</clipPath>
<clipPath id="clip-3">
<path clip-rule="nonzero" d="M 106.773438 21.632812 C 91.457031 23.0625 69.191406 25.140625 52.207031 42.636719 C 38.199219 57.0625 34.765625 74.789062 33.769531 83.761719 C 5.101562 122.414062 3.785156 174.894531 30.269531 214.023438 C 60.875 259.25 117.820312 270.691406 159.777344 256.777344 C 184.09375 248.714844 199.972656 233.269531 208.28125 223.648438 C 205.277344 226.398438 163.910156 262.894531 109.273438 248.777344 C 69.800781 238.574219 40.652344 206.410156 32.332031 168.832031 C 32.332031 168.832031 20.277344 114.398438 64.019531 67.261719 C 70.484375 60.296875 77.710938 55.386719 77.710938 55.386719 C 87.648438 48.628906 97.214844 45.535156 103.523438 44.011719 C 98.925781 46.625 93.082031 50.148438 86.523438 54.636719 C 74.050781 63.167969 66.53125 68.40625 59.894531 77.511719 C 55.546875 83.480469 52.804688 89.429688 51.019531 94.515625 C 56.835938 96.476562 68.015625 99.285156 80.898438 96.078125 C 95.058594 92.550781 103.9375 83.578125 110.335938 76.949219 C 122.023438 64.84375 121.53125 58.449219 134.027344 44.167969 C 141.339844 35.8125 148.476562 30.035156 153.277344 26.507812 C 145.046875 23.984375 132.71875 21.125 117.714844 21.125 C 114.207031 21.125 110.554688 21.28125 106.773438 21.632812 "/>
</clipPath>
<linearGradient id="linear-pattern-1" gradientUnits="userSpaceOnUse" x1="-0.0171411" y1="0" x2="1.018804" y2="0" gradientTransform="matrix(-0.366736, 241.206192, -241.206192, -0.366736, 110.037743, 25.110172)">
<stop offset="0" stop-color="rgb(26.838684%, 63.494873%, 22.412109%)" stop-opacity="1"/>
<stop offset="0.03125" stop-color="rgb(26.948547%, 63.594055%, 22.384644%)" stop-opacity="1"/>
<stop offset="0.046875" stop-color="rgb(27.175903%, 63.800049%, 22.328186%)" stop-opacity="1"/>
<stop offset="0.0625" stop-color="rgb(27.410889%, 64.01062%, 22.268677%)" stop-opacity="1"/>
<stop offset="0.078125" stop-color="rgb(27.644348%, 64.221191%, 22.207642%)" stop-opacity="1"/>
<stop offset="0.09375" stop-color="rgb(27.879333%, 64.434814%, 22.148132%)" stop-opacity="1"/>
<stop offset="0.109375" stop-color="rgb(28.114319%, 64.646912%, 22.088623%)" stop-opacity="1"/>
<stop offset="0.125" stop-color="rgb(28.349304%, 64.860535%, 22.027588%)" stop-opacity="1"/>
<stop offset="0.140625" stop-color="rgb(28.585815%, 65.075684%, 21.966553%)" stop-opacity="1"/>
<stop offset="0.15625" stop-color="rgb(28.822327%, 65.290833%, 21.905518%)" stop-opacity="1"/>
<stop offset="0.171875" stop-color="rgb(29.060364%, 65.505981%, 21.844482%)" stop-opacity="1"/>
<stop offset="0.1875" stop-color="rgb(29.296875%, 65.722656%, 21.781921%)" stop-opacity="1"/>
<stop offset="0.203125" stop-color="rgb(29.534912%, 65.937805%, 21.71936%)" stop-opacity="1"/>
<stop offset="0.21875" stop-color="rgb(29.772949%, 66.15448%, 21.656799%)" stop-opacity="1"/>
<stop offset="0.234375" stop-color="rgb(30.014038%, 66.374207%, 21.594238%)" stop-opacity="1"/>
<stop offset="0.25" stop-color="rgb(30.253601%, 66.592407%, 21.531677%)" stop-opacity="1"/>
<stop offset="0.265625" stop-color="rgb(30.493164%, 66.810608%, 21.46759%)" stop-opacity="1"/>
<stop offset="0.28125" stop-color="rgb(30.734253%, 67.03186%, 21.403503%)" stop-opacity="1"/>
<stop offset="0.296875" stop-color="rgb(30.975342%, 67.251587%, 21.339417%)" stop-opacity="1"/>
<stop offset="0.3125" stop-color="rgb(31.216431%, 67.471313%, 21.27533%)" stop-opacity="1"/>
<stop offset="0.328125" stop-color="rgb(31.459045%, 67.694092%, 21.209717%)" stop-opacity="1"/>
<stop offset="0.34375" stop-color="rgb(31.70166%, 67.91687%, 21.144104%)" stop-opacity="1"/>
<stop offset="0.359375" stop-color="rgb(31.945801%, 68.139648%, 21.078491%)" stop-opacity="1"/>
<stop offset="0.375" stop-color="rgb(32.188416%, 68.363953%, 21.012878%)" stop-opacity="1"/>
<stop offset="0.390625" stop-color="rgb(32.432556%, 68.588257%, 20.94574%)" stop-opacity="1"/>
<stop offset="0.40625" stop-color="rgb(32.678223%, 68.814087%, 20.878601%)" stop-opacity="1"/>
<stop offset="0.421875" stop-color="rgb(32.923889%, 69.038391%, 20.811462%)" stop-opacity="1"/>
<stop offset="0.4375" stop-color="rgb(33.169556%, 69.264221%, 20.744324%)" stop-opacity="1"/>
<stop offset="0.453125" stop-color="rgb(33.415222%, 69.491577%, 20.677185%)" stop-opacity="1"/>
<stop offset="0.46875" stop-color="rgb(33.662415%, 69.718933%, 20.608521%)" stop-opacity="1"/>
<stop offset="0.484375" stop-color="rgb(33.909607%, 69.947815%, 20.539856%)" stop-opacity="1"/>
<stop offset="0.5" stop-color="rgb(34.158325%, 70.176697%, 20.471191%)" stop-opacity="1"/>
<stop offset="0.515625" stop-color="rgb(34.407043%, 70.405579%, 20.402527%)" stop-opacity="1"/>
<stop offset="0.53125" stop-color="rgb(34.654236%, 70.635986%, 20.332336%)" stop-opacity="1"/>
<stop offset="0.546875" stop-color="rgb(34.902954%, 70.866394%, 20.262146%)" stop-opacity="1"/>
<stop offset="0.5625" stop-color="rgb(35.153198%, 71.096802%, 20.191956%)" stop-opacity="1"/>
<stop offset="0.578125" stop-color="rgb(35.404968%, 71.330261%, 20.121765%)" stop-opacity="1"/>
<stop offset="0.59375" stop-color="rgb(35.655212%, 71.562195%, 20.051575%)" stop-opacity="1"/>
<stop offset="0.609375" stop-color="rgb(35.906982%, 71.795654%, 19.979858%)" stop-opacity="1"/>
<stop offset="0.625" stop-color="rgb(36.158752%, 72.03064%, 19.908142%)" stop-opacity="1"/>
<stop offset="0.640625" stop-color="rgb(36.410522%, 72.264099%, 19.836426%)" stop-opacity="1"/>
<stop offset="0.65625" stop-color="rgb(36.663818%, 72.499084%, 19.763184%)" stop-opacity="1"/>
<stop offset="0.671875" stop-color="rgb(36.91864%, 72.735596%, 19.691467%)" stop-opacity="1"/>
<stop offset="0.6875" stop-color="rgb(37.171936%, 72.972107%, 19.618225%)" stop-opacity="1"/>
<stop offset="0.703125" stop-color="rgb(37.426758%, 73.208618%, 19.544983%)" stop-opacity="1"/>
<stop offset="0.71875" stop-color="rgb(37.68158%, 73.446655%, 19.470215%)" stop-opacity="1"/>
<stop offset="0.734375" stop-color="rgb(37.936401%, 73.684692%, 19.396973%)" stop-opacity="1"/>
<stop offset="0.75" stop-color="rgb(38.194275%, 73.924255%, 19.322205%)" stop-opacity="1"/>
<stop offset="0.765625" stop-color="rgb(38.450623%, 74.163818%, 19.247437%)" stop-opacity="1"/>
<stop offset="0.78125" stop-color="rgb(38.70697%, 74.404907%, 19.172668%)" stop-opacity="1"/>
<stop offset="0.796875" stop-color="rgb(38.964844%, 74.64447%, 19.096375%)" stop-opacity="1"/>
<stop offset="0.8125" stop-color="rgb(39.222717%, 74.887085%, 19.020081%)" stop-opacity="1"/>
<stop offset="0.828125" stop-color="rgb(39.482117%, 75.1297%, 18.945312%)" stop-opacity="1"/>
<stop offset="0.84375" stop-color="rgb(39.741516%, 75.372314%, 18.867493%)" stop-opacity="1"/>
<stop offset="0.859375" stop-color="rgb(40.002441%, 75.616455%, 18.791199%)" stop-opacity="1"/>
<stop offset="0.875" stop-color="rgb(40.261841%, 75.860596%, 18.713379%)" stop-opacity="1"/>
<stop offset="0.890625" stop-color="rgb(40.52124%, 76.104736%, 18.635559%)" stop-opacity="1"/>
<stop offset="0.90625" stop-color="rgb(40.783691%, 76.350403%, 18.557739%)" stop-opacity="1"/>
<stop offset="0.921875" stop-color="rgb(41.046143%, 76.597595%, 18.478394%)" stop-opacity="1"/>
<stop offset="0.9375" stop-color="rgb(41.308594%, 76.844788%, 18.400574%)" stop-opacity="1"/>
<stop offset="0.953125" stop-color="rgb(41.571045%, 77.09198%, 18.321228%)" stop-opacity="1"/>
<stop offset="0.96875" stop-color="rgb(41.835022%, 77.340698%, 18.241882%)" stop-opacity="1"/>
<stop offset="1" stop-color="rgb(42.077637%, 77.568054%, 18.16864%)" stop-opacity="1"/>
</linearGradient>
<clipPath id="clip-4">
<path clip-rule="nonzero" d="M 46 82 L 212 82 L 212 250 L 46 250 Z M 46 82 "/>
</clipPath>
<clipPath id="clip-5">
<path clip-rule="nonzero" d="M 33.558594 147.625 C 33.558594 203.664062 78.988281 249.09375 135.027344 249.09375 C 191.066406 249.09375 236.496094 203.664062 236.496094 147.625 C 236.496094 91.585938 191.066406 46.15625 135.027344 46.15625 C 78.988281 46.15625 33.558594 91.585938 33.558594 147.625 "/>
</clipPath>
<clipPath id="clip-6">
<path clip-rule="nonzero" d="M 85 168 L 163 168 L 163 250 L 85 250 Z M 85 168 "/>
</clipPath>
<clipPath id="clip-7">
<path clip-rule="nonzero" d="M 33.558594 147.625 C 33.558594 203.664062 78.988281 249.09375 135.027344 249.09375 C 191.066406 249.09375 236.496094 203.664062 236.496094 147.625 C 236.496094 91.585938 191.066406 46.15625 135.027344 46.15625 C 78.988281 46.15625 33.558594 91.585938 33.558594 147.625 "/>
</clipPath>
</defs>
<g clip-path="url(#clip-0)">
<g clip-path="url(#clip-1)">
<path fill-rule="nonzero" fill="url(#linear-pattern-0)" d="M 236.804688 46.019531 L 33.347656 45.710938 L 33.039062 249.84375 L 236.496094 250.152344 Z M 236.804688 46.019531 "/>
</g>
</g>
<g clip-path="url(#clip-2)">
<g clip-path="url(#clip-3)">
<path fill-rule="nonzero" fill="url(#linear-pattern-1)" d="M 208.664062 21.125 L 3.789062 20.8125 L 3.40625 270.691406 L 208.28125 271 Z M 208.664062 21.125 "/>
</g>
</g>
<g clip-path="url(#clip-4)">
<g clip-path="url(#clip-5)">
<path fill-rule="nonzero" fill="rgb(100%, 100%, 100%)" fill-opacity="1" d="M 161.683594 123.628906 L 161.683594 159.445312 L 151.371094 159.445312 L 151.371094 82.375 L 96.617188 120.628906 L 96.617188 183.632812 L 90.429688 183.632812 L 90.429688 150.882812 L 46.738281 127.941406 L 46.738281 306.152344 L 211.003906 306.152344 L 211.003906 123.628906 Z M 161.683594 123.628906 "/>
</g>
</g>
<g clip-path="url(#clip-6)">
<g clip-path="url(#clip-7)">
<path fill-rule="nonzero" fill="rgb(97.151184%, 61.083984%, 10.171509%)" fill-opacity="1" d="M 131.902344 196.636719 L 125.121094 196.636719 L 125.121094 189.855469 L 131.902344 189.855469 Z M 131.902344 205.261719 L 125.121094 205.261719 L 125.121094 198.480469 L 131.902344 198.480469 Z M 123.246094 196.636719 L 116.464844 196.636719 L 116.464844 189.855469 L 123.246094 189.855469 Z M 123.246094 205.261719 L 116.464844 205.261719 L 116.464844 198.480469 L 123.246094 198.480469 Z M 124.167969 168.078125 L 85.882812 206.332031 L 96.601562 206.332031 L 96.601562 258.335938 L 116.464844 258.335938 L 116.464844 217.667969 L 131.902344 217.667969 L 131.902344 258.335938 L 151.730469 258.335938 L 151.730469 206.332031 L 162.449219 206.332031 Z M 124.167969 168.078125 "/>
</g>
</g>
<path fill-rule="nonzero" fill="rgb(25.682068%, 63.426208%, 22.76001%)" fill-opacity="1" d="M 297.492188 86.230469 C 300.949219 91.203125 305.230469 96.984375 310.34375 103.578125 L 320.496094 116.742188 C 322.292969 119 323.492188 120.285156 324.089844 120.601562 C 324.691406 120.921875 325.308594 121.078125 325.941406 121.078125 L 327.316406 121.078125 L 327.316406 124.410156 C 324.390625 124.164062 321.835938 124.039062 319.648438 124.039062 C 317.640625 124.039062 315.527344 124.164062 313.304688 124.410156 L 294.585938 99.136719 C 291.09375 94.480469 287.359375 89.933594 283.375 85.492188 L 283.902344 83.691406 C 285.945312 83.871094 287.460938 83.957031 288.449219 83.957031 C 294.335938 83.957031 298.949219 82.441406 302.277344 79.410156 C 305.609375 76.378906 307.277344 72.324219 307.277344 67.25 C 307.277344 62.699219 305.867188 59.148438 303.042969 56.59375 C 300.226562 54.035156 296.152344 52.757812 290.828125 52.757812 C 287.128906 52.757812 283.410156 53.445312 279.671875 54.820312 C 279.25 60.425781 279.039062 66.417969 279.039062 72.800781 L 279.039062 98.339844 C 279.039062 110.785156 279.335938 117.6875 279.9375 119.042969 C 280.535156 120.398438 282.476562 121.078125 285.753906 121.078125 L 289.878906 121.078125 L 289.878906 124.410156 C 284.027344 124.164062 279.175781 124.039062 275.335938 124.039062 C 272.304688 124.039062 266.824219 124.164062 258.890625 124.410156 L 258.890625 121.078125 L 262.855469 121.078125 C 265.886719 121.078125 267.6875 120.417969 268.25 119.097656 C 268.8125 117.773438 269.09375 110.820312 269.09375 98.234375 L 269.09375 72.800781 C 269.09375 61.871094 268.769531 55.753906 268.117188 54.449219 C 267.464844 53.144531 265.339844 52.492188 261.746094 52.492188 L 258.890625 52.492188 L 258.890625 49.164062 C 265.449219 49.410156 270.453125 49.53125 273.90625 49.53125 C 276.234375 49.53125 279.582031 49.445312 283.957031 49.269531 C 289.03125 49.09375 292.679688 49.003906 294.902344 49.003906 C 301 49.003906 305.628906 49.648438 308.78125 50.933594 C 311.9375 52.222656 314.335938 54.082031 315.976562 56.511719 C 317.613281 58.945312 318.433594 61.851562 318.433594 65.238281 C 318.433594 70.210938 316.644531 74.597656 313.066406 78.40625 C 309.488281 82.210938 304.296875 84.824219 297.492188 86.230469 "/>
<path fill-rule="nonzero" fill="rgb(25.682068%, 63.426208%, 22.76001%)" fill-opacity="1" d="M 363.539062 96.066406 C 353.738281 98.175781 347.519531 100.15625 344.875 102.003906 C 342.230469 103.847656 340.90625 106.707031 340.90625 110.578125 C 340.90625 113.179688 341.664062 115.261719 343.179688 116.828125 C 344.695312 118.394531 346.652344 119.175781 349.050781 119.175781 C 351.695312 119.175781 354.222656 118.4375 356.640625 116.960938 C 359.054688 115.480469 361.355469 113.285156 363.539062 110.363281 L 363.433594 98.652344 Z M 335.671875 87.660156 L 335.726562 84.117188 L 335.671875 80.46875 L 341.4375 77.1875 C 344.046875 75.707031 346.328125 74.6875 348.285156 74.121094 C 350.242188 73.558594 352.328125 73.277344 354.550781 73.277344 C 359.417969 73.277344 363.335938 74.367188 366.316406 76.550781 C 369.296875 78.734375 371.085938 81.515625 371.683594 84.898438 C 372.109375 87.433594 372.371094 93.71875 372.476562 103.753906 C 372.546875 113.226562 372.757812 118.457031 373.113281 119.441406 C 373.464844 120.429688 374.34375 120.921875 375.753906 120.921875 L 379.878906 120.921875 L 379.878906 124.410156 C 375.863281 124.164062 373.058594 124.039062 371.472656 124.039062 C 369.496094 124.039062 366.855469 124.164062 363.539062 124.410156 L 363.59375 119.710938 C 363.59375 118.195312 363.574219 116.664062 363.539062 115.113281 L 352.59375 123.460938 C 351.605469 124.199219 350.636719 124.71875 349.6875 125.019531 C 348.734375 125.316406 347.410156 125.46875 345.71875 125.46875 C 341.171875 125.46875 337.699219 124.351562 335.300781 122.117188 C 332.90625 119.882812 331.707031 116.878906 331.707031 113.113281 C 331.707031 109.558594 332.5625 106.453125 334.273438 103.796875 C 335.980469 101.140625 338.414062 99.175781 341.570312 97.910156 C 344.722656 96.644531 352.046875 94.988281 363.539062 92.945312 C 363.46875 88.472656 362.484375 85.121094 360.578125 82.898438 C 358.179688 80.113281 354.761719 78.722656 350.320312 78.722656 C 348.628906 78.722656 347.042969 78.929688 345.5625 79.34375 C 344.082031 79.757812 342.707031 80.378906 341.4375 81.207031 C 340.414062 83.730469 339.480469 86.144531 338.632812 88.453125 Z M 335.671875 87.660156 "/>
<path fill-rule="nonzero" fill="rgb(25.682068%, 63.426208%, 22.76001%)" fill-opacity="1" d="M 402.621094 82.746094 L 409.707031 76.398438 C 410.832031 75.375 412.03125 74.652344 413.300781 74.226562 C 415.132812 73.59375 416.949219 73.273438 418.746094 73.273438 C 422.730469 73.273438 425.929688 73.992188 428.34375 75.417969 C 430.761719 76.847656 432.972656 79.414062 434.980469 83.117188 L 441.8125 76.875 C 442.980469 75.816406 444.410156 75.003906 446.105469 74.441406 C 448.328125 73.664062 450.480469 73.273438 452.566406 73.273438 C 455.742188 73.273438 458.621094 74.015625 461.199219 75.5 C 463.777344 76.980469 465.691406 78.90625 466.945312 81.269531 C 468.199219 83.632812 468.824219 86.84375 468.824219 90.902344 L 468.613281 111.601562 C 468.613281 116.226562 468.878906 118.953125 469.414062 119.78125 C 469.945312 120.613281 471.308594 121.078125 473.507812 121.183594 L 477.390625 121.34375 L 477.390625 124.410156 L 474.839844 124.289062 C 470.726562 124.125 467.941406 124.039062 466.488281 124.039062 C 464.257812 124.039062 461.652344 124.164062 458.671875 124.410156 C 459.167969 117.890625 459.414062 110.265625 459.414062 101.535156 C 459.414062 94.160156 459.09375 89.3125 458.460938 87 C 457.828125 84.679688 456.617188 82.867188 454.824219 81.546875 C 453.027344 80.226562 450.777344 79.570312 448.070312 79.570312 C 445.007812 79.570312 442.386719 80.398438 440.207031 82.058594 C 438.027344 83.714844 436.671875 85.703125 436.144531 88.019531 C 435.792969 89.480469 435.617188 95.757812 435.617188 106.847656 C 435.617188 113.375 435.667969 117.089844 435.777344 118 C 435.878906 118.910156 436.171875 119.550781 436.648438 119.925781 C 437.125 120.300781 438.648438 120.632812 441.222656 120.917969 L 444.765625 121.34375 L 444.765625 124.410156 C 438.527344 124.164062 433.941406 124.039062 431.015625 124.039062 C 428.6875 124.039062 424.175781 124.164062 417.476562 124.410156 L 417.476562 121.34375 L 421.019531 121.34375 C 423.136719 121.34375 424.511719 121.046875 425.144531 120.445312 C 425.78125 119.84375 426.152344 118.429688 426.257812 116.207031 C 426.539062 110.417969 426.679688 104.382812 426.679688 98.101562 C 426.679688 92.488281 426.300781 88.613281 425.542969 86.476562 C 424.785156 84.34375 423.496094 82.660156 421.683594 81.421875 C 419.867188 80.1875 417.691406 79.570312 415.152344 79.570312 C 412.4375 79.570312 409.96875 80.328125 407.75 81.84375 C 405.527344 83.363281 404.011719 85.199219 403.203125 87.351562 C 402.671875 88.835938 402.40625 93.035156 402.40625 99.953125 C 402.40625 107.542969 402.476562 113.121094 402.621094 116.683594 C 402.6875 118.34375 402.953125 119.402344 403.414062 119.863281 C 403.871094 120.324219 405.386719 120.671875 407.960938 120.921875 L 411.609375 121.34375 L 411.609375 124.410156 C 407.203125 124.164062 403.042969 124.039062 399.128906 124.039062 C 394.6875 124.039062 389.855469 124.164062 384.640625 124.410156 L 384.640625 121.34375 L 388.660156 121.34375 C 390.949219 121.34375 392.324219 120.734375 392.785156 119.515625 C 393.242188 118.296875 393.472656 111.660156 393.472656 99.605469 C 393.472656 90.769531 393.417969 85.558594 393.3125 83.96875 C 393.207031 82.378906 392.90625 81.371094 392.414062 80.945312 C 391.917969 80.519531 390.421875 80.308594 387.917969 80.308594 L 384.640625 80.308594 L 384.640625 77.398438 C 389.824219 76.695312 394.28125 75.726562 398.019531 74.492188 L 401.878906 73.011719 C 402.511719 73.011719 402.832031 73.4375 402.832031 74.289062 L 402.726562 76.203125 C 402.621094 78.152344 402.582031 80.335938 402.621094 82.746094 "/>
<path fill-rule="nonzero" fill="rgb(25.682068%, 63.426208%, 22.76001%)" fill-opacity="1" d="M 491.617188 95.296875 C 491.617188 102.566406 493.105469 108.789062 496.085938 113.957031 C 499.0625 119.128906 503.355469 121.714844 508.960938 121.714844 C 513.226562 121.714844 516.671875 120.089844 519.300781 116.84375 C 521.925781 113.597656 523.238281 108.671875 523.238281 102.074219 C 523.238281 96.742188 522.464844 92.128906 520.914062 88.226562 C 519.359375 84.328125 517.316406 81.488281 514.777344 79.703125 C 512.242188 77.921875 509.402344 77.03125 506.265625 77.03125 C 503.480469 77.03125 500.96875 77.734375 498.730469 79.148438 C 496.488281 80.558594 494.84375 82.449219 493.785156 84.8125 C 492.339844 88.023438 491.617188 91.519531 491.617188 95.296875 M 481.675781 99.027344 C 481.675781 94.164062 482.804688 89.765625 485.058594 85.835938 C 487.316406 81.902344 490.480469 78.828125 494.550781 76.609375 C 498.625 74.386719 503.25 73.277344 508.433594 73.277344 C 515.941406 73.277344 521.953125 75.496094 526.464844 79.9375 C 530.976562 84.378906 533.234375 90.304688 533.234375 97.707031 C 533.234375 106.449219 530.289062 113.394531 524.402344 118.542969 C 519.148438 123.160156 512.855469 125.46875 505.523438 125.46875 C 498.472656 125.46875 492.734375 123.097656 488.3125 118.355469 C 483.886719 113.613281 481.675781 107.171875 481.675781 99.027344 "/>
<path fill-rule="nonzero" fill="rgb(25.682068%, 63.426208%, 22.76001%)" fill-opacity="1" d="M 557.03125 85.277344 C 558.445312 83.9375 559.980469 82.175781 561.640625 79.988281 C 563.621094 77.417969 565.460938 75.65625 567.15625 74.703125 C 568.851562 73.75 570.636719 73.277344 572.511719 73.277344 C 574.453125 73.277344 575.9375 73.503906 576.964844 73.960938 C 577.457031 74.175781 577.707031 74.507812 577.707031 74.96875 L 577.652344 75.496094 C 577.09375 78.351562 576.777344 82.355469 576.703125 87.5 L 574.320312 87.5 C 573.511719 85.703125 572.554688 84.433594 571.449219 83.695312 C 570.34375 82.953125 569.015625 82.582031 567.46875 82.582031 C 565.394531 82.582031 563.46875 83.289062 561.695312 84.695312 C 559.921875 86.105469 558.734375 88.074219 558.136719 90.609375 C 557.539062 93.144531 557.242188 98.125 557.242188 105.554688 C 557.242188 110.449219 557.433594 114.566406 557.824219 117.910156 C 557.964844 119.144531 558.316406 119.917969 558.882812 120.234375 C 560.21875 120.976562 562.195312 121.34375 564.804688 121.34375 L 567.976562 121.34375 L 567.976562 124.410156 C 562.582031 124.164062 557.46875 124.039062 552.640625 124.039062 C 547.953125 124.039062 543.316406 124.164062 538.734375 124.410156 L 538.734375 121.34375 L 543.808594 120.921875 C 545.609375 120.78125 546.746094 120.445312 547.222656 119.917969 C 547.695312 119.386719 548.003906 117.675781 548.144531 114.785156 C 548.390625 109.710938 548.515625 103.683594 548.515625 96.703125 C 548.515625 88.207031 548.179688 83.21875 547.511719 81.738281 C 547.054688 80.785156 545.609375 80.308594 543.175781 80.308594 L 538.734375 80.308594 L 538.734375 77.242188 C 542.152344 76.855469 545.203125 76.351562 547.882812 75.734375 C 550.558594 75.117188 552.941406 74.332031 555.019531 73.382812 C 555.511719 73.136719 555.917969 73.011719 556.234375 73.011719 C 556.625 73.011719 556.890625 73.117188 557.03125 73.332031 C 557.171875 73.542969 557.242188 74.019531 557.242188 74.765625 Z M 557.03125 85.277344 "/>
<path fill-rule="nonzero" fill="rgb(25.682068%, 63.426208%, 22.76001%)" fill-opacity="1" d="M 297.492188 190.582031 C 300.949219 195.554688 305.230469 201.335938 310.34375 207.929688 L 320.496094 221.09375 C 322.292969 223.351562 323.492188 224.636719 324.089844 224.957031 C 324.691406 225.273438 325.308594 225.429688 325.941406 225.429688 L 327.316406 225.429688 L 327.316406 228.761719 C 324.390625 228.515625 321.835938 228.390625 319.648438 228.390625 C 317.640625 228.390625 315.527344 228.515625 313.304688 228.761719 L 294.585938 203.488281 C 291.09375 198.832031 287.359375 194.285156 283.375 189.84375 L 283.902344 188.046875 C 285.945312 188.222656 287.460938 188.308594 288.449219 188.308594 C 294.335938 188.308594 298.949219 186.792969 302.277344 183.761719 C 305.609375 180.730469 307.277344 176.675781 307.277344 171.601562 C 307.277344 167.050781 305.867188 163.5 303.042969 160.945312 C 300.226562 158.386719 296.152344 157.109375 290.828125 157.109375 C 287.128906 157.109375 283.410156 157.796875 279.671875 159.171875 C 279.25 164.777344 279.039062 170.773438 279.039062 177.152344 L 279.039062 202.695312 C 279.039062 215.136719 279.335938 222.039062 279.9375 223.394531 C 280.535156 224.753906 282.476562 225.429688 285.753906 225.429688 L 289.878906 225.429688 L 289.878906 228.761719 C 284.027344 228.515625 279.175781 228.390625 275.335938 228.390625 C 272.304688 228.390625 266.824219 228.515625 258.890625 228.761719 L 258.890625 225.429688 L 262.855469 225.429688 C 265.886719 225.429688 267.6875 224.769531 268.25 223.449219 C 268.8125 222.125 269.09375 215.171875 269.09375 202.585938 L 269.09375 177.152344 C 269.09375 166.222656 268.769531 160.109375 268.117188 158.800781 C 267.464844 157.5 265.339844 156.84375 261.746094 156.84375 L 258.890625 156.84375 L 258.890625 153.515625 C 265.449219 153.761719 270.453125 153.882812 273.90625 153.882812 C 276.234375 153.882812 279.582031 153.796875 283.957031 153.621094 C 289.03125 153.445312 292.679688 153.355469 294.902344 153.355469 C 301 153.355469 305.628906 154 308.78125 155.285156 C 311.9375 156.574219 314.335938 158.433594 315.976562 160.867188 C 317.613281 163.296875 318.433594 166.207031 318.433594 169.589844 C 318.433594 174.5625 316.644531 178.949219 313.066406 182.757812 C 309.488281 186.566406 304.296875 189.175781 297.492188 190.582031 "/>
<path fill-rule="nonzero" fill="rgb(25.682068%, 63.426208%, 22.76001%)" fill-opacity="1" d="M 341.332031 199.203125 C 346.792969 199.449219 352.824219 199.574219 359.417969 199.574219 C 362.058594 199.574219 364.617188 199.449219 367.082031 199.203125 L 367.082031 196.242188 C 367.082031 193.140625 366.46875 190.195312 365.234375 187.410156 C 364.457031 185.683594 363.101562 184.246094 361.160156 183.101562 C 359.222656 181.957031 356.984375 181.382812 354.445312 181.382812 C 350.496094 181.382812 347.34375 182.828125 344.980469 185.71875 C 342.617188 188.609375 341.402344 193.105469 341.332031 199.203125 M 341.226562 203.171875 C 341.402344 210.117188 343.179688 215.386719 346.558594 218.980469 C 349.9375 222.578125 354.371094 224.375 359.863281 224.375 C 362.328125 224.375 364.773438 223.96875 367.203125 223.160156 C 369.628906 222.347656 372.039062 221.132812 374.4375 219.507812 L 375.332031 220.300781 L 373.640625 224.746094 C 370.714844 226.4375 367.699219 227.707031 364.597656 228.550781 C 361.496094 229.398438 358.304688 229.820312 355.027344 229.820312 C 347.871094 229.820312 342.097656 227.554688 337.707031 223.027344 C 333.320312 218.496094 331.125 212.351562 331.125 204.597656 C 331.125 198.675781 332.359375 193.542969 334.828125 189.207031 C 336.449219 186.351562 339.445312 183.710938 343.816406 181.277344 C 348.1875 178.84375 352.4375 177.628906 356.5625 177.628906 C 362.800781 177.628906 367.746094 179.460938 371.394531 183.128906 C 375.042969 186.792969 376.867188 191.921875 376.867188 198.515625 L 376.761719 201.636719 C 374.4375 202.199219 372.21875 202.570312 370.109375 202.746094 C 366.339844 203.027344 361.113281 203.171875 354.425781 203.171875 Z M 341.226562 203.171875 "/>
<path fill-rule="nonzero" fill="rgb(25.682068%, 63.426208%, 22.76001%)" fill-opacity="1" d="M 399.078125 187.726562 L 407.074219 180.644531 C 408.027344 179.796875 409.03125 179.179688 410.09375 178.792969 C 412.421875 178.015625 414.753906 177.628906 417.082031 177.628906 C 420.859375 177.628906 424.125 178.394531 426.878906 179.925781 C 429.632812 181.460938 431.609375 183.453125 432.8125 185.902344 C 434.011719 188.355469 434.613281 192.1875 434.613281 197.40625 L 434.402344 214.0625 C 434.402344 219.808594 434.644531 223.125 435.136719 224.003906 C 435.800781 225.132812 437.097656 225.695312 439.023438 225.695312 L 442.808594 225.695312 L 442.808594 228.765625 C 439.046875 228.515625 435.796875 228.394531 433.054688 228.394531 C 430.382812 228.394531 427.515625 228.515625 424.460938 228.765625 C 425.128906 221.890625 425.464844 212.601562 425.464844 200.894531 C 425.464844 196.171875 425.046875 192.824219 424.21875 190.847656 C 423.386719 188.875 421.992188 187.289062 420.03125 186.089844 C 418.070312 184.890625 415.714844 184.289062 412.957031 184.289062 C 409.53125 184.289062 406.628906 185.15625 404.242188 186.882812 C 401.855469 188.609375 400.382812 190.511719 399.816406 192.59375 C 399.464844 193.96875 399.289062 197.5625 399.289062 203.382812 C 399.289062 209.832031 399.339844 215.824219 399.445312 221.359375 C 399.484375 223.015625 399.730469 224.058594 400.191406 224.480469 C 401.078125 225.292969 402.53125 225.695312 404.554688 225.695312 L 408.332031 225.695312 L 408.332031 228.765625 C 402.359375 228.515625 397.609375 228.394531 394.078125 228.394531 C 390.332031 228.394531 386.078125 228.515625 381.308594 228.765625 L 381.308594 225.695312 L 385.117188 225.695312 C 387.722656 225.695312 389.25 225.089844 389.691406 223.875 C 390.128906 222.660156 390.351562 215.347656 390.351562 201.929688 C 390.351562 195.910156 390.28125 191.191406 390.140625 187.777344 C 390.066406 186.648438 389.789062 185.875 389.292969 185.453125 C 388.800781 185.03125 387.40625 184.820312 385.117188 184.820312 L 381.308594 184.820312 L 381.308594 181.753906 C 384.332031 181.398438 387.039062 180.925781 389.429688 180.324219 C 391.816406 179.726562 394.507812 178.808594 397.496094 177.574219 C 397.808594 177.433594 398.109375 177.363281 398.390625 177.363281 C 398.953125 177.363281 399.234375 177.769531 399.234375 178.578125 L 399.183594 180.589844 Z M 399.078125 187.726562 "/>
<path fill-rule="nonzero" fill="rgb(25.682068%, 63.426208%, 22.76001%)" fill-opacity="1" d="M 456.238281 199.203125 C 461.703125 199.449219 467.730469 199.574219 474.324219 199.574219 C 476.96875 199.574219 479.523438 199.449219 481.992188 199.203125 L 481.992188 196.242188 C 481.992188 193.140625 481.375 190.195312 480.140625 187.410156 C 479.367188 185.683594 478.007812 184.246094 476.070312 183.101562 C 474.132812 181.957031 471.894531 181.382812 469.355469 181.382812 C 465.40625 181.382812 462.25 182.828125 459.890625 185.71875 C 457.527344 188.609375 456.308594 193.105469 456.238281 199.203125 M 456.132812 203.171875 C 456.308594 210.117188 458.089844 215.386719 461.46875 218.980469 C 464.847656 222.578125 469.28125 224.375 474.773438 224.375 C 477.234375 224.375 479.683594 223.96875 482.109375 223.160156 C 484.539062 222.347656 486.949219 221.132812 489.34375 219.507812 L 490.242188 220.300781 L 488.550781 224.746094 C 485.625 226.4375 482.609375 227.707031 479.507812 228.550781 C 476.40625 229.398438 473.214844 229.820312 469.9375 229.820312 C 462.777344 229.820312 457.007812 227.554688 452.617188 223.027344 C 448.230469 218.496094 446.035156 212.351562 446.035156 204.597656 C 446.035156 198.675781 447.269531 193.542969 449.734375 189.207031 C 451.355469 186.351562 454.355469 183.710938 458.726562 181.277344 C 463.097656 178.84375 467.34375 177.628906 471.46875 177.628906 C 477.710938 177.628906 482.652344 179.460938 486.304688 183.128906 C 489.949219 186.792969 491.777344 191.921875 491.777344 198.515625 L 491.667969 201.636719 C 489.347656 202.199219 487.128906 202.570312 485.015625 202.746094 C 481.25 203.027344 476.023438 203.171875 469.335938 203.171875 Z M 456.132812 203.171875 "/>
<path fill-rule="nonzero" fill="rgb(25.682068%, 63.426208%, 22.76001%)" fill-opacity="1" d="M 522.445312 229.238281 L 517.050781 229.238281 C 514.089844 219.0625 510.742188 207.96875 507.003906 195.960938 L 503.621094 185.34375 C 503.164062 184.183594 502.484375 183.292969 501.585938 182.675781 C 500.6875 182.0625 499.65625 181.753906 498.492188 181.753906 L 495.847656 181.753906 L 495.847656 178.6875 C 501.457031 178.933594 505.761719 179.054688 508.761719 179.054688 C 511.691406 179.054688 516.011719 178.933594 521.722656 178.6875 L 521.722656 181.753906 L 518.867188 181.753906 C 516.679688 181.753906 515.179688 182 514.371094 182.492188 C 513.734375 182.84375 513.417969 183.40625 513.417969 184.183594 C 513.417969 185.90625 516.429688 196.824219 522.449219 216.925781 L 533.871094 191.960938 C 535.597656 188.082031 537.570312 183.359375 539.792969 177.785156 L 542.433594 177.785156 C 543.953125 182.089844 545.519531 186.210938 547.144531 190.160156 L 558.039062 217.816406 L 566.128906 196.171875 C 567.679688 191.910156 568.683594 188.707031 569.140625 186.558594 C 569.320312 185.679688 569.40625 184.976562 569.40625 184.445312 C 569.40625 183.636719 569.042969 182.984375 568.324219 182.492188 C 567.601562 182 566.480469 181.753906 564.964844 181.753906 L 561.476562 181.753906 L 561.476562 178.6875 C 566.09375 178.933594 570.179688 179.054688 573.742188 179.054688 C 576.84375 179.054688 579.839844 178.933594 582.730469 178.6875 L 582.730469 181.753906 L 580.351562 181.753906 C 579.117188 181.753906 577.953125 182.378906 576.859375 183.628906 C 575.765625 184.878906 572.734375 191.347656 567.765625 203.039062 C 563.605469 212.792969 560.363281 221.527344 558.035156 229.238281 L 552.90625 229.238281 C 551.316406 224.84375 548.738281 218.144531 545.171875 209.140625 L 538.445312 192.15625 C 533.515625 202.601562 529.523438 211.410156 526.460938 218.582031 C 525.085938 221.820312 523.75 225.371094 522.445312 229.238281 "/>
<path fill-rule="nonzero" fill="rgb(25.682068%, 63.426208%, 22.76001%)" fill-opacity="1" d="M 620.644531 200.417969 C 610.84375 202.53125 604.621094 204.507812 601.976562 206.355469 C 599.335938 208.203125 598.011719 211.058594 598.011719 214.929688 C 598.011719 217.53125 598.769531 219.617188 600.285156 221.179688 C 601.800781 222.746094 603.757812 223.527344 606.15625 223.527344 C 608.800781 223.527344 611.328125 222.789062 613.746094 221.3125 C 616.160156 219.835938 618.460938 217.636719 620.644531 214.71875 L 620.539062 203.003906 Z M 592.777344 192.011719 L 592.832031 188.46875 L 592.777344 184.820312 L 598.542969 181.539062 C 601.148438 180.058594 603.433594 179.039062 605.390625 178.472656 C 607.347656 177.910156 609.433594 177.628906 611.65625 177.628906 C 616.519531 177.628906 620.441406 178.71875 623.421875 180.902344 C 626.398438 183.085938 628.1875 185.867188 628.789062 189.25 C 629.210938 191.785156 629.476562 198.070312 629.582031 208.105469 C 629.652344 217.578125 629.863281 222.808594 630.21875 223.792969 C 630.566406 224.78125 631.449219 225.273438 632.859375 225.273438 L 636.984375 225.273438 L 636.984375 228.761719 C 632.964844 228.515625 630.164062 228.390625 628.578125 228.390625 C 626.601562 228.390625 623.957031 228.515625 620.644531 228.761719 L 620.699219 224.0625 C 620.699219 222.546875 620.679688 221.015625 620.644531 219.464844 L 609.699219 227.8125 C 608.710938 228.550781 607.742188 229.074219 606.792969 229.371094 C 605.839844 229.671875 604.515625 229.820312 602.824219 229.820312 C 598.277344 229.820312 594.804688 228.703125 592.40625 226.46875 C 590.007812 224.234375 588.8125 221.230469 588.8125 217.464844 C 588.8125 213.914062 589.664062 210.804688 591.375 208.148438 C 593.085938 205.492188 595.519531 203.53125 598.671875 202.261719 C 601.828125 200.996094 609.152344 199.339844 620.644531 197.300781 C 620.574219 192.824219 619.589844 189.472656 617.683594 187.253906 C 615.285156 184.46875 611.867188 183.074219 607.425781 183.074219 C 605.734375 183.074219 604.144531 183.28125 602.667969 183.695312 C 601.183594 184.113281 599.808594 184.730469 598.542969 185.558594 C 597.519531 188.082031 596.585938 190.496094 595.738281 192.804688 Z M 592.777344 192.011719 "/>
<path fill-rule="nonzero" fill="rgb(25.682068%, 63.426208%, 22.76001%)" fill-opacity="1" d="M 658.136719 211.523438 C 658.136719 215.332031 658.277344 217.515625 658.558594 218.082031 C 659.121094 219.246094 660.644531 220.585938 663.125 222.101562 C 665.605469 223.617188 668.324219 224.375 671.28125 224.375 C 676.417969 224.375 680.394531 222.3125 683.210938 218.1875 C 686.023438 214.0625 687.433594 209.058594 687.433594 203.171875 C 687.433594 197.035156 686.070312 192.355469 683.34375 189.128906 C 680.617188 185.902344 676.945312 184.289062 672.335938 184.289062 C 669.273438 184.289062 666.46875 185.171875 663.917969 186.933594 C 661.367188 188.699219 659.617188 190.761719 658.664062 193.121094 C 658.3125 194.039062 658.136719 196.152344 658.136719 199.46875 Z M 640.160156 156.527344 L 640.160156 153.566406 C 643.226562 153.25 646.398438 152.738281 649.675781 152.035156 C 651.933594 151.578125 654.332031 150.851562 656.867188 149.867188 C 657.253906 149.691406 657.589844 149.601562 657.875 149.601562 C 658.613281 149.601562 658.984375 150.273438 658.984375 151.613281 L 658.71875 154.261719 C 658.472656 156.273438 658.332031 157.773438 658.296875 158.761719 C 658.191406 163.316406 658.136719 169.53125 658.136719 177.402344 L 658.136719 188.628906 L 664.582031 182.125 C 665.953125 180.785156 667.757812 179.699219 669.992188 178.871094 C 672.226562 178.042969 674.613281 177.628906 677.148438 177.628906 C 682.816406 177.628906 687.480469 179.585938 691.140625 183.5 C 694.804688 187.410156 696.632812 192.613281 696.632812 199.097656 C 696.632812 202.660156 695.992188 206.121094 694.703125 209.488281 C 693.417969 212.855469 691.855469 215.578125 690.023438 217.660156 C 689.179688 218.644531 686.824219 220.539062 682.964844 223.34375 C 679.105469 226.144531 676.609375 227.8125 675.480469 228.339844 C 673.367188 229.328125 670.847656 229.820312 667.921875 229.820312 C 665.277344 229.820312 662.90625 229.46875 660.808594 228.765625 C 658.710938 228.058594 656.515625 226.84375 654.222656 225.113281 L 649.996094 229.082031 L 648.195312 228.390625 C 648.867188 222.957031 649.199219 217.238281 649.199219 211.234375 L 649.199219 177.605469 C 649.199219 172.414062 649.042969 167.101562 648.726562 161.664062 C 648.585938 159.160156 648.289062 157.675781 647.835938 157.21875 C 647.378906 156.757812 646.34375 156.527344 644.730469 156.527344 Z M 640.160156 156.527344 "/>
<path fill-rule="nonzero" fill="rgb(25.682068%, 63.426208%, 22.76001%)" fill-opacity="1" d="M 720.378906 150.234375 C 719.777344 160.566406 719.480469 169.90625 719.480469 178.261719 L 719.480469 205.441406 C 719.480469 216.230469 719.707031 222.347656 720.167969 223.792969 C 720.414062 224.53125 721.574219 225.007812 723.65625 225.21875 L 728.152344 225.695312 L 728.152344 228.765625 C 724.300781 228.515625 720.625 228.390625 717.128906 228.390625 C 713.246094 228.390625 708.15625 228.515625 701.871094 228.765625 L 701.871094 225.695312 L 706.417969 225.328125 C 708.425781 225.148438 709.570312 224.636719 709.855469 223.792969 C 710.3125 222.417969 710.542969 216.160156 710.542969 205.019531 L 710.542969 178 L 710.488281 167.84375 L 710.332031 160.917969 C 710.332031 159.191406 710.136719 158.132812 709.75 157.746094 C 709.183594 157.179688 708.003906 156.898438 706.207031 156.898438 L 701.871094 156.898438 L 701.871094 153.726562 C 709.222656 153.058594 715.09375 151.683594 719.476562 149.601562 Z M 720.378906 150.234375 "/>
<path fill-rule="nonzero" fill="rgb(25.682068%, 63.426208%, 22.76001%)" fill-opacity="1" d="M 744.015625 199.203125 C 749.480469 199.449219 755.507812 199.574219 762.101562 199.574219 C 764.746094 199.574219 767.300781 199.449219 769.769531 199.203125 L 769.769531 196.242188 C 769.769531 193.140625 769.152344 190.195312 767.917969 187.410156 C 767.140625 185.683594 765.785156 184.246094 763.84375 183.101562 C 761.90625 181.957031 759.667969 181.382812 757.128906 181.382812 C 753.179688 181.382812 750.027344 182.828125 747.664062 185.71875 C 745.300781 188.609375 744.085938 193.105469 744.015625 199.203125 M 743.910156 203.171875 C 744.085938 210.117188 745.863281 215.386719 749.242188 218.980469 C 752.621094 222.578125 757.054688 224.375 762.546875 224.375 C 765.011719 224.375 767.457031 223.96875 769.886719 223.160156 C 772.3125 222.347656 774.726562 221.132812 777.121094 219.507812 L 778.015625 220.300781 L 776.324219 224.746094 C 773.398438 226.4375 770.382812 227.707031 767.28125 228.550781 C 764.179688 229.398438 760.988281 229.820312 757.710938 229.820312 C 750.554688 229.820312 744.78125 227.554688 740.394531 223.027344 C 736.003906 218.496094 733.808594 212.351562 733.808594 204.597656 C 733.808594 198.675781 735.042969 193.542969 737.511719 189.207031 C 739.132812 186.351562 742.128906 183.710938 746.5 181.277344 C 750.871094 178.84375 755.121094 177.628906 759.246094 177.628906 C 765.484375 177.628906 770.429688 179.460938 774.078125 183.128906 C 777.726562 186.792969 779.550781 191.921875 779.550781 198.515625 L 779.445312 201.636719 C 777.121094 202.199219 774.90625 202.570312 772.792969 202.746094 C 769.027344 203.027344 763.796875 203.171875 757.109375 203.171875 Z M 743.910156 203.171875 "/>
<path fill-rule="nonzero" fill="rgb(25.682068%, 63.426208%, 22.76001%)" fill-opacity="1" d="M 790.707031 212.582031 L 790.707031 216.03125 C 790.707031 218.792969 790.957031 220.511719 791.449219 221.183594 C 792.367188 222.316406 794.15625 223.414062 796.816406 224.472656 C 799.480469 225.535156 802.21875 226.066406 805.039062 226.066406 C 808.667969 226.066406 811.632812 225.085938 813.921875 223.128906 C 816.214844 221.167969 817.359375 218.832031 817.359375 216.113281 C 817.359375 213.960938 816.691406 212.230469 815.351562 210.925781 C 814.011719 209.617188 811.457031 208.578125 807.683594 207.800781 C 800.667969 206.390625 796.03125 205.152344 793.777344 204.09375 C 791.519531 203.035156 789.828125 201.625 788.699219 199.859375 C 787.570312 198.097656 787.007812 195.960938 787.007812 193.457031 C 787.007812 188.761719 788.710938 184.953125 792.117188 182.023438 C 795.527344 179.09375 800.355469 177.628906 806.601562 177.628906 C 811.546875 177.628906 816.472656 178.613281 821.378906 180.589844 C 821.074219 182.988281 820.828125 187.003906 820.640625 192.648438 L 817.464844 192.648438 C 817.394531 189.542969 817.0625 187.5 816.464844 186.511719 C 815.65625 185.207031 814.175781 184.027344 812.03125 182.96875 C 809.886719 181.910156 807.601562 181.382812 805.171875 181.382812 C 801.972656 181.382812 799.414062 182.203125 797.496094 183.84375 C 795.582031 185.484375 794.621094 187.542969 794.621094 190.011719 C 794.621094 192.378906 795.378906 194.160156 796.894531 195.359375 C 798.410156 196.597656 802.609375 197.902344 809.480469 199.277344 C 814.558594 200.300781 817.90625 201.253906 819.527344 202.132812 C 821.148438 203.015625 822.453125 204.355469 823.441406 206.148438 C 824.429688 207.945312 824.921875 210.003906 824.921875 212.332031 C 824.921875 217.085938 822.886719 221.191406 818.816406 224.644531 C 814.742188 228.09375 809.304688 229.820312 802.5 229.820312 C 798.164062 229.820312 793.300781 229.144531 787.90625 227.785156 C 786.953125 227.542969 786.480469 227.175781 786.480469 226.679688 L 786.636719 225.9375 C 786.777344 225.410156 786.902344 224.472656 787.007812 223.128906 C 787.324219 219.703125 787.484375 217.035156 787.484375 215.125 L 787.429688 212.582031 Z M 790.707031 212.582031 "/>
</svg>
