<?xml version="1.0" encoding="UTF-8"?>
<svg xmlns="http://www.w3.org/2000/svg" xmlns:xlink="http://www.w3.org/1999/xlink" width="414.015625" height="208.515625" viewBox="2.707031 41.785156 414.015625 208.515625">
<path fill-rule="evenodd" fill="rgb(69.020081%, 87.059021%, 88.235474%)" fill-opacity="1" d="M 82.554688 77.863281 L 80.660156 100.746094 L 82.460938 100.476562 L 90.382812 97.886719 L 90.738281 97.457031 L 92.652344 75.710938 Z M 82.554688 77.863281 "/>
<path fill-rule="evenodd" fill="rgb(69.020081%, 87.059021%, 88.235474%)" fill-opacity="1" d="M 173.429688 123.429688 C 172.597656 123.46875 171.835938 123.558594 171.242188 123.726562 L 163.613281 122.554688 L 159.3125 120.792969 L 154.617188 116.292969 C 154.617188 116.292969 149.277344 111.03125 147.988281 108.121094 C 146.6875 105.203125 143.132812 104.558594 141.511719 104.558594 C 139.894531 104.558594 136.273438 103.445312 133.6875 102.796875 C 131.945312 102.359375 132.527344 102.785156 129.238281 101.695312 L 127.816406 79.074219 C 148.824219 86.347656 165.589844 102.695312 173.429688 123.429688 "/>
<path fill-rule="evenodd" fill="rgb(69.020081%, 87.059021%, 88.235474%)" fill-opacity="1" d="M 74.207031 80.804688 L 71.835938 104.09375 C 70.804688 104.699219 70.671875 105.289062 69.546875 106.039062 C 68.507812 106.734375 66.671875 107.597656 65.78125 108.011719 L 59.320312 112.316406 C 58.160156 113.195312 57.515625 114.566406 56.273438 116.800781 C 53.039062 122.628906 54.378906 123.019531 51.144531 124.3125 C 48.832031 125.238281 42.101562 126.902344 38.800781 128.589844 L 34.964844 145.175781 C 34.964844 145.175781 35.105469 147.546875 29.96875 149.472656 C 29.949219 149.480469 29.148438 149.820312 28.28125 150.1875 L 28.28125 149.949219 C 28.28125 118.839844 47.226562 92.15625 74.207031 80.804688 "/>
<path fill-rule="evenodd" fill="rgb(69.020081%, 87.059021%, 88.235474%)" fill-opacity="1" d="M 117.992188 76.277344 L 117.785156 98.375 L 113.910156 99.941406 C 113.910156 99.941406 108.84375 99.078125 108.152344 98.941406 C 107.128906 98.734375 106.542969 98.339844 104.027344 97.832031 L 103.488281 78.988281 C 104.6875 78.121094 105.179688 76.433594 106.140625 74.980469 C 107.570312 75.015625 109.25 75.09375 110.859375 75.257812 C 114.832031 75.65625 117.992188 76.277344 117.992188 76.277344 "/>
<path fill-rule="evenodd" fill="rgb(69.020081%, 87.059021%, 88.235474%)" fill-opacity="1" d="M 176.101562 167.859375 C 174.089844 176.066406 170.726562 183.742188 166.261719 190.644531 C 158.527344 190.003906 150.777344 189.550781 143.019531 189.277344 C 131.464844 188.878906 119.890625 188.882812 108.335938 189.289062 C 96.777344 189.699219 85.230469 190.507812 73.730469 191.726562 C 63.753906 192.78125 53.8125 194.132812 43.914062 195.777344 C 41.332031 192.441406 39.023438 188.882812 37.03125 185.128906 C 40.816406 185.933594 44.703125 186.378906 48.542969 186.648438 C 60.726562 187.5 73.167969 187.554688 85.289062 185.96875 C 97.511719 184.371094 109.121094 180.488281 120.789062 176.671875 C 126.585938 174.773438 132.410156 172.925781 138.34375 171.496094 C 143.691406 170.207031 149.117188 169.289062 154.585938 168.699219 C 156.796875 170.441406 163.78125 175.90625 167.152344 177.933594 C 171.1875 180.351562 168.96875 174.90625 168.96875 174.90625 L 163.246094 168.027344 C 167.53125 167.820312 171.816406 167.78125 176.101562 167.859375 "/>
<path fill-rule="evenodd" fill="rgb(0%, 25.881958%, 24.705505%)" fill-opacity="1" d="M 139.265625 160.371094 C 131.773438 153.597656 111.363281 153.105469 102.613281 145.324219 C 100.9375 152.328125 90.347656 161.71875 85.648438 163.007812 C 87.226562 168.050781 88.269531 171.019531 88.269531 171.019531 C 91.152344 170.476562 94.636719 170.613281 98.753906 168.132812 C 101.8125 166.292969 103.574219 163.566406 104.410156 162.328125 C 106.371094 159.425781 110.308594 158.984375 113.027344 160.007812 C 115.546875 160.957031 128.101562 158.035156 132.496094 168 C 135.847656 167.078125 139.226562 166.261719 142.644531 165.605469 C 144.238281 165.300781 145.839844 165.027344 147.445312 164.78125 C 144.675781 163.8125 141.46875 162.363281 139.265625 160.371094 "/>
<path fill-rule="nonzero" fill="rgb(100%, 100%, 100%)" fill-opacity="1" d="M 134.28125 56.171875 C 135.484375 56.546875 136.570312 57.144531 137.433594 57.695312 L 138.34375 55.933594 C 137.800781 55.542969 136.402344 54.761719 134.609375 54.207031 C 129.617188 52.660156 127.1875 53.972656 125.773438 58.515625 C 124.367188 63.0625 125.648438 65.527344 130.140625 66.914062 C 131.804688 67.433594 133.429688 67.734375 134.984375 67.875 L 137.015625 61.332031 L 131.859375 59.734375 L 131.328125 61.449219 L 134.207031 62.347656 L 133.203125 65.578125 C 132.507812 65.484375 131.738281 65.347656 131.019531 65.125 C 128.007812 64.1875 127.183594 62.476562 128.179688 59.261719 C 129.253906 55.789062 131.105469 55.1875 134.28125 56.171875 "/>
<path fill-rule="nonzero" fill="rgb(100%, 100%, 100%)" fill-opacity="1" d="M 151.003906 61.394531 L 147.597656 68.320312 C 146.503906 70.539062 145.191406 71.011719 143.039062 69.953125 C 140.902344 68.90625 140.464844 67.5625 141.554688 65.34375 L 144.878906 58.59375 C 144.945312 58.453125 144.929688 58.402344 144.808594 58.34375 L 141.960938 56.945312 L 141.277344 57.855469 L 141.78125 58.40625 C 141.964844 58.601562 141.972656 58.675781 141.855469 58.914062 L 139.160156 64.382812 C 137.503906 67.75 138.375 69.921875 142.140625 71.777344 C 145.90625 73.632812 148.164062 72.992188 149.816406 69.628906 L 153.308594 62.527344 Z M 151.003906 61.394531 "/>
<path fill-rule="nonzero" fill="rgb(100%, 100%, 100%)" fill-opacity="1" d="M 158.761719 66.085938 L 156.085938 64.371094 L 155.304688 65.199219 L 155.742188 65.804688 C 155.902344 66.023438 155.90625 66.089844 155.757812 66.316406 L 149.714844 75.726562 L 151.882812 77.117188 L 158.800781 66.339844 C 158.886719 66.210938 158.871094 66.15625 158.761719 66.085938 "/>
<path fill-rule="nonzero" fill="rgb(100%, 100%, 100%)" fill-opacity="1" d="M 163.992188 69.785156 L 161.484375 67.84375 L 160.628906 68.601562 L 161.015625 69.238281 C 161.152344 69.472656 161.152344 69.539062 160.984375 69.753906 L 154.140625 78.59375 L 160.867188 83.808594 L 162.074219 82.242188 L 157.378906 78.605469 L 164.015625 70.042969 C 164.109375 69.921875 164.101562 69.867188 163.992188 69.785156 "/>
<path fill-rule="nonzero" fill="rgb(100%, 100%, 100%)" fill-opacity="1" d="M 172.855469 77.324219 L 170.589844 75.105469 L 169.648438 75.761719 L 169.960938 76.4375 C 170.070312 76.683594 170.058594 76.753906 169.867188 76.945312 L 162.054688 84.9375 L 168.132812 90.890625 L 169.511719 89.480469 L 165.269531 85.324219 L 172.84375 77.585938 C 172.953125 77.476562 172.953125 77.421875 172.855469 77.324219 "/>
<path fill-rule="nonzero" fill="rgb(100%, 100%, 100%)" fill-opacity="1" d="M 177.757812 95 L 174.996094 91.460938 C 177.003906 90.757812 178.949219 90.175781 180.9375 89.675781 C 179.957031 91.46875 178.914062 93.214844 177.757812 95 M 181.863281 87.144531 C 178.730469 87.625 172.035156 89.769531 168.585938 91.253906 L 170.179688 93.300781 C 171.183594 92.886719 172.152344 92.496094 173.121094 92.132812 L 176.640625 96.648438 C 176.039062 97.488281 175.433594 98.347656 174.789062 99.21875 L 176.382812 101.265625 C 178.671875 98.28125 182.386719 92.324219 183.617188 89.402344 Z M 181.863281 87.144531 "/>
<path fill-rule="nonzero" fill="rgb(100%, 100%, 100%)" fill-opacity="1" d="M 193.644531 105.488281 L 185.417969 105.136719 L 189.28125 98.464844 C 189.511719 98.078125 189.542969 98.015625 189.34375 97.65625 L 187.984375 95.183594 L 186.898438 95.535156 L 186.996094 96.277344 C 187.035156 96.546875 187.003906 96.609375 186.765625 96.734375 L 176.964844 102.121094 L 178.113281 104.203125 L 186.113281 99.808594 L 183.128906 105.023438 C 182.835938 105.535156 182.828125 105.519531 183.152344 106.109375 L 183.695312 107.09375 L 190.285156 107.402344 L 182.28125 111.796875 L 183.429688 113.882812 L 194.820312 107.628906 Z M 193.644531 105.488281 "/>
<path fill-rule="nonzero" fill="rgb(100%, 100%, 100%)" fill-opacity="1" d="M 196.238281 111.105469 L 195.105469 111.289062 L 195.089844 112.035156 C 195.082031 112.304688 195.039062 112.363281 194.785156 112.453125 L 184.265625 116.234375 L 187.492188 125.207031 L 189.347656 124.539062 L 186.992188 117.984375 L 190.46875 116.738281 L 192.304688 121.835938 L 194.085938 121.191406 L 192.253906 116.097656 L 195.511719 114.925781 L 197.8125 121.332031 L 199.671875 120.664062 Z M 196.238281 111.105469 "/>
<path fill-rule="nonzero" fill="rgb(100%, 100%, 100%)" fill-opacity="1" d="M 202.59375 133.546875 L 193.304688 135.414062 L 200.839844 127.09375 C 201.179688 126.710938 201.214844 126.703125 201.136719 126.320312 L 200.5625 123.476562 L 199.425781 123.488281 L 199.292969 124.226562 C 199.25 124.492188 199.199219 124.542969 198.933594 124.59375 L 187.976562 126.800781 L 188.449219 129.136719 L 197.738281 127.265625 L 189.828125 135.996094 L 190.320312 138.441406 L 203.058594 135.878906 Z M 202.59375 133.546875 "/>
<path fill-rule="nonzero" fill="rgb(100%, 100%, 100%)" fill-opacity="1" d="M 203.445312 139.523438 L 202.3125 139.371094 L 202.074219 140.078125 C 201.992188 140.335938 201.9375 140.378906 201.664062 140.390625 L 190.503906 140.96875 L 190.992188 150.492188 L 192.964844 150.390625 L 192.605469 143.433594 L 196.292969 143.242188 L 196.574219 148.652344 L 198.464844 148.554688 L 198.1875 143.148438 L 201.644531 142.96875 L 201.996094 149.769531 L 203.96875 149.667969 Z M 203.445312 139.523438 "/>
<path fill-rule="nonzero" fill="rgb(100%, 100%, 100%)" fill-opacity="1" d="M 16.488281 138.332031 L 3.519531 137.503906 L 3.363281 139.878906 L 12.824219 140.484375 L 3.382812 146.566406 C 2.957031 146.847656 2.917969 146.847656 2.890625 147.234375 L 2.707031 150.128906 L 3.8125 150.410156 L 4.128906 149.734375 C 4.242188 149.488281 4.300781 149.453125 4.570312 149.472656 L 15.730469 150.183594 L 15.878906 147.8125 L 6.421875 147.207031 L 16.328125 140.824219 Z M 16.488281 138.332031 "/>
<path fill-rule="nonzero" fill="rgb(100%, 100%, 100%)" fill-opacity="1" d="M 17.867188 123.320312 L 16.195312 130.078125 L 12.609375 129.191406 L 13.910156 123.933594 L 12.070312 123.476562 L 10.769531 128.734375 L 7.40625 127.902344 L 9.046875 121.292969 L 7.128906 120.820312 L 4.6875 130.675781 L 5.726562 131.148438 L 6.15625 130.542969 C 6.308594 130.320312 6.375 130.296875 6.636719 130.359375 L 17.488281 133.050781 L 19.785156 123.792969 Z M 17.867188 123.320312 "/>
<path fill-rule="nonzero" fill="rgb(100%, 100%, 100%)" fill-opacity="1" d="M 21.492188 110.117188 C 22.582031 110.242188 24.058594 110.375 25.335938 110.4375 L 26.578125 107.773438 C 24.074219 105.089844 19.429688 100.953125 16.460938 98.71875 L 15.398438 100.996094 C 16.28125 101.660156 17.625 102.761719 19.484375 104.3125 C 20.945312 105.527344 22.65625 107.074219 23.757812 108.144531 L 23.75 108.160156 C 22.222656 108 19.945312 107.664062 18.078125 107.324219 C 15.867188 106.933594 14.265625 106.617188 13.179688 106.382812 L 12.140625 108.613281 C 13.015625 109.296875 14.289062 110.320312 16.007812 111.761719 C 17.46875 112.976562 19.1875 114.507812 20.289062 115.574219 L 20.28125 115.589844 C 18.753906 115.433594 16.46875 115.113281 14.597656 114.777344 C 12.214844 114.347656 10.511719 114.019531 9.433594 113.769531 L 8.367188 116.050781 C 11.988281 116.886719 18.140625 117.796875 21.808594 117.992188 L 23.050781 115.328125 C 22.1875 114.390625 21.136719 113.34375 20.335938 112.585938 C 18.855469 111.191406 17.023438 109.761719 15.863281 109.003906 L 15.871094 108.984375 C 17.199219 109.394531 19.46875 109.878906 21.492188 110.117188 "/>
<path fill-rule="nonzero" fill="rgb(100%, 100%, 100%)" fill-opacity="1" d="M 24.0625 91.546875 L 26.515625 88.117188 L 24.910156 86.96875 L 18.507812 95.917969 L 20.109375 97.066406 L 22.566406 93.636719 L 31.53125 100.050781 L 33.027344 97.960938 Z M 24.0625 91.546875 "/>
<path fill-rule="nonzero" fill="rgb(100%, 100%, 100%)" fill-opacity="1" d="M 39.628906 87.449219 C 37.707031 89.410156 35.925781 89.265625 33.550781 86.9375 C 31.175781 84.605469 30.996094 82.832031 32.914062 80.871094 C 34.851562 78.898438 36.617188 79.054688 38.992188 81.382812 C 41.367188 83.714844 41.566406 85.476562 39.628906 87.449219 M 40.835938 79.507812 C 37.4375 76.175781 34.6875 76.160156 31.464844 79.449219 C 28.242188 82.738281 28.324219 85.472656 31.722656 88.800781 C 35.121094 92.132812 37.855469 92.160156 41.078125 88.871094 C 44.300781 85.585938 44.234375 82.835938 40.835938 79.507812 "/>
<path fill-rule="nonzero" fill="rgb(100%, 100%, 100%)" fill-opacity="1" d="M 55.367188 61.179688 L 53.277344 62.578125 C 53.6875 63.605469 54.269531 65.242188 55.054688 67.53125 C 55.675781 69.324219 56.339844 71.535156 56.726562 73.023438 L 56.710938 73.03125 C 55.484375 72.105469 53.714844 70.636719 52.289062 69.378906 C 50.601562 67.902344 49.402344 66.800781 48.589844 66.039062 L 46.546875 67.402344 C 46.941406 68.445312 47.503906 69.980469 48.222656 72.101562 C 48.84375 73.898438 49.523438 76.09375 49.914062 77.582031 L 49.894531 77.589844 C 48.671875 76.664062 46.882812 75.210938 45.457031 73.953125 C 43.644531 72.351562 42.355469 71.1875 41.558594 70.417969 L 39.46875 71.816406 C 42.132812 74.40625 46.925781 78.367188 49.960938 80.433594 L 52.402344 78.800781 C 52.148438 77.550781 51.792969 76.113281 51.503906 75.050781 C 50.957031 73.089844 50.132812 70.917969 49.527344 69.671875 L 49.546875 69.660156 C 50.46875 70.691406 52.160156 72.285156 53.769531 73.535156 C 54.636719 74.210938 55.832031 75.085938 56.890625 75.800781 L 59.332031 74.164062 C 58.578125 70.574219 56.746094 64.632812 55.367188 61.179688 "/>
<path fill-rule="nonzero" fill="rgb(100%, 100%, 100%)" fill-opacity="1" d="M 77.574219 66.042969 L 72.753906 53.976562 L 70.542969 54.855469 L 74.058594 63.65625 L 64.511719 57.742188 C 64.074219 57.480469 64.058594 57.445312 63.699219 57.589844 L 61.003906 58.664062 L 61.222656 59.785156 L 61.972656 59.777344 C 62.242188 59.777344 62.296875 59.816406 62.398438 60.066406 L 66.542969 70.449219 L 68.753906 69.566406 L 65.238281 60.765625 L 75.257812 66.972656 Z M 77.574219 66.042969 "/>
<path fill-rule="nonzero" fill="rgb(100%, 100%, 100%)" fill-opacity="1" d="M 22.609375 210.140625 C 11.417969 195.210938 4.640625 177.515625 3.015625 158.96875 L 10.375 158.320312 C 11.882812 175.496094 18.15625 191.882812 28.519531 205.707031 Z M 22.609375 210.140625 "/>
<path fill-rule="nonzero" fill="rgb(100%, 100%, 100%)" fill-opacity="1" d="M 203.332031 160.257812 C 201.464844 178.488281 194.621094 195.828125 183.507812 210.46875 L 177.621094 206 C 187.894531 192.472656 194.226562 176.460938 195.972656 159.621094 Z M 203.332031 160.257812 "/>
<path fill-rule="nonzero" fill="rgb(100%, 100%, 100%)" fill-opacity="1" d="M 41.476562 211.964844 C 38.898438 209.429688 36.828125 208.910156 34.914062 210.855469 C 31.402344 214.429688 38.179688 218.160156 36.15625 220.21875 C 35.21875 221.167969 34.207031 220.933594 32.800781 219.546875 C 31.753906 218.515625 30.855469 217.308594 30.144531 215.957031 L 28.71875 217.40625 C 29.46875 218.742188 30.421875 219.980469 31.554688 221.089844 C 34.035156 223.53125 36.09375 223.867188 37.976562 221.953125 C 41.53125 218.339844 34.851562 214.511719 36.734375 212.589844 C 37.644531 211.667969 38.617188 211.917969 39.96875 213.246094 C 40.890625 214.15625 41.753906 215.328125 42.25 216.304688 L 43.871094 215.1875 C 43.410156 214.21875 42.484375 212.953125 41.476562 211.964844 "/>
<path fill-rule="nonzero" fill="rgb(100%, 100%, 100%)" fill-opacity="1" d="M 57.683594 224.980469 C 56.871094 225.730469 55.550781 226.863281 53.699219 228.417969 C 52.246094 229.640625 50.421875 231.054688 49.175781 231.949219 L 49.15625 231.9375 C 49.582031 230.464844 50.316406 228.28125 50.980469 226.5 C 51.753906 224.398438 52.351562 222.875 52.769531 221.847656 L 50.761719 220.433594 C 49.933594 221.171875 48.703125 222.246094 46.980469 223.683594 C 45.527344 224.902344 43.714844 226.328125 42.46875 227.222656 L 42.457031 227.210938 C 42.878906 225.734375 43.597656 223.546875 44.261719 221.765625 C 45.105469 219.492188 45.726562 217.875 46.160156 216.855469 L 44.105469 215.40625 C 42.640625 218.824219 40.664062 224.71875 39.824219 228.292969 L 42.226562 229.988281 C 43.304688 229.300781 44.515625 228.453125 45.402344 227.800781 C 47.039062 226.585938 48.769531 225.039062 49.71875 224.027344 L 49.734375 224.039062 C 49.101562 225.269531 48.222656 227.421875 47.632812 229.371094 C 47.3125 230.425781 46.921875 231.855469 46.636719 233.097656 L 49.039062 234.789062 C 52.125 232.796875 57.011719 228.957031 59.738281 226.429688 Z M 57.683594 224.980469 "/>
<path fill-rule="nonzero" fill="rgb(100%, 100%, 100%)" fill-opacity="1" d="M 63.261719 227.710938 L 60.445312 226.25 L 59.738281 227.152344 L 60.230469 227.710938 C 60.410156 227.910156 60.417969 227.984375 60.292969 228.222656 L 55.148438 238.144531 L 57.433594 239.332031 L 63.324219 227.964844 C 63.398438 227.828125 63.378906 227.773438 63.261719 227.710938 "/>
<path fill-rule="nonzero" fill="rgb(100%, 100%, 100%)" fill-opacity="1" d="M 75.789062 232.933594 L 69.304688 238.011719 L 67.90625 230.433594 C 67.824219 229.988281 67.8125 229.921875 67.429688 229.78125 L 64.785156 228.78125 L 64.191406 229.757812 L 64.746094 230.257812 C 64.949219 230.433594 64.964844 230.503906 64.871094 230.757812 L 60.921875 241.214844 L 63.148438 242.054688 L 66.371094 233.511719 L 67.492188 239.417969 C 67.605469 239.996094 67.585938 239.988281 68.21875 240.230469 L 69.269531 240.625 L 74.480469 236.574219 L 71.257812 245.117188 L 73.484375 245.953125 L 78.070312 233.792969 Z M 75.789062 232.933594 "/>
<path fill-rule="nonzero" fill="rgb(100%, 100%, 100%)" fill-opacity="1" d="M 90.972656 236.40625 L 85.457031 242.527344 L 82.773438 235.300781 C 82.617188 234.878906 82.589844 234.8125 82.195312 234.738281 L 79.417969 234.210938 L 79 235.273438 L 79.632812 235.664062 C 79.859375 235.808594 79.890625 235.875 79.839844 236.140625 L 77.746094 247.125 L 80.085938 247.566406 L 81.792969 238.601562 L 83.910156 244.222656 C 84.121094 244.773438 84.105469 244.769531 84.769531 244.894531 L 85.871094 245.105469 L 90.304688 240.21875 L 88.597656 249.1875 L 90.9375 249.632812 L 93.363281 236.863281 Z M 90.972656 236.40625 "/>
<path fill-rule="nonzero" fill="rgb(100%, 100%, 100%)" fill-opacity="1" d="M 98.214844 237.023438 L 95.050781 236.796875 L 94.757812 237.898438 L 95.433594 238.21875 C 95.679688 238.332031 95.710938 238.394531 95.691406 238.664062 L 94.894531 249.8125 L 97.457031 249.996094 L 98.375 237.226562 C 98.386719 237.070312 98.347656 237.03125 98.214844 237.023438 "/>
<path fill-rule="nonzero" fill="rgb(100%, 100%, 100%)" fill-opacity="1" d="M 113.207031 249.851562 L 112.714844 236.863281 L 110.335938 236.949219 L 110.695312 246.425781 L 103.683594 237.648438 C 103.359375 237.253906 103.359375 237.214844 102.972656 237.230469 L 100.074219 237.339844 L 99.902344 238.46875 L 100.609375 238.714844 C 100.863281 238.800781 100.902344 238.859375 100.914062 239.128906 L 101.335938 250.300781 L 103.714844 250.210938 L 103.359375 240.738281 L 110.714844 249.945312 Z M 113.207031 249.851562 "/>
<path fill-rule="nonzero" fill="rgb(100%, 100%, 100%)" fill-opacity="1" d="M 126.542969 240.269531 L 121.246094 241.285156 L 121.585938 243.050781 L 124.546875 242.484375 L 125.183594 245.808594 C 124.519531 246.054688 123.777344 246.292969 123.039062 246.4375 C 119.941406 247.027344 118.40625 245.90625 117.773438 242.601562 C 117.089844 239.027344 118.4375 237.628906 121.707031 237.003906 C 122.9375 236.765625 124.179688 236.785156 125.199219 236.863281 L 125.175781 234.882812 C 124.507812 234.792969 122.90625 234.761719 121.066406 235.117188 C 115.9375 236.101562 114.410156 238.398438 115.304688 243.070312 C 116.199219 247.746094 118.488281 249.3125 123.105469 248.429688 C 124.8125 248.101562 126.394531 247.605469 127.828125 246.992188 Z M 126.542969 240.269531 "/>
<path fill-rule="nonzero" fill="rgb(100%, 100%, 100%)" fill-opacity="1" d="M 144.011719 239.238281 C 143.027344 239.972656 142.007812 240.554688 140.929688 240.972656 C 138.097656 242.070312 136.425781 241.246094 135.226562 238.144531 C 134.023438 235.042969 134.699219 233.308594 137.527344 232.210938 C 138.699219 231.753906 139.78125 231.542969 140.800781 231.441406 L 140.417969 229.492188 C 139.746094 229.527344 138.164062 229.785156 136.417969 230.464844 C 132.144531 232.121094 131.070312 234.652344 132.789062 239.089844 C 134.511719 243.523438 137.007812 244.671875 141.285156 243.015625 C 142.582031 242.511719 143.726562 241.882812 144.75 241.152344 Z M 144.011719 239.238281 "/>
<path fill-rule="nonzero" fill="rgb(100%, 100%, 100%)" fill-opacity="1" d="M 154.398438 234.1875 L 149.15625 236.976562 L 144.074219 227.410156 C 144.003906 227.277344 143.949219 227.261719 143.832031 227.324219 L 141.03125 228.8125 L 141.367188 229.902344 L 142.109375 229.8125 C 142.378906 229.78125 142.4375 229.816406 142.566406 230.054688 L 147.808594 239.921875 L 155.324219 235.929688 Z M 154.398438 234.1875 "/>
<path fill-rule="nonzero" fill="rgb(100%, 100%, 100%)" fill-opacity="1" d="M 164.230469 223.652344 L 159.65625 217.195312 L 157.558594 218.683594 L 162.019531 224.980469 C 163.453125 227 163.242188 228.378906 161.289062 229.765625 C 159.347656 231.140625 157.960938 230.890625 156.527344 228.871094 L 152.179688 222.734375 C 152.089844 222.605469 152.035156 222.597656 151.925781 222.675781 L 149.339844 224.507812 L 149.8125 225.546875 L 150.539062 225.367188 C 150.800781 225.300781 150.863281 225.324219 151.019531 225.546875 L 154.542969 230.515625 C 156.714844 233.578125 159.039062 233.851562 162.464844 231.421875 C 165.886719 228.996094 166.402344 226.710938 164.230469 223.652344 "/>
<path fill-rule="nonzero" fill="rgb(100%, 100%, 100%)" fill-opacity="1" d="M 173.347656 219.582031 L 170.847656 221.980469 L 168.199219 219.214844 L 170.695312 216.820312 C 171.796875 215.765625 172.617188 215.753906 173.554688 216.730469 C 174.492188 217.703125 174.449219 218.523438 173.347656 219.582031 M 164.449219 215.308594 L 166.722656 213.125 C 167.769531 212.125 168.5625 212.113281 169.433594 213.019531 C 170.304688 213.925781 170.261719 214.71875 169.214844 215.722656 L 166.941406 217.902344 Z M 175.492188 215.085938 C 174.339844 213.886719 173.167969 213.617188 171.898438 214.222656 C 172.316406 213.175781 172.0625 212.1875 171.140625 211.222656 C 169.410156 209.421875 167.824219 209.472656 165.789062 211.425781 L 160.804688 216.203125 L 161.429688 217.160156 L 162.117188 216.875 C 162.367188 216.769531 162.433594 216.785156 162.625 216.980469 L 170.359375 225.046875 L 175.007812 220.589844 C 177.128906 218.554688 177.242188 216.914062 175.492188 215.085938 "/>
<path fill-rule="nonzero" fill="rgb(0%, 25.881958%, 24.705505%)" fill-opacity="1" d="M 47.636719 106.195312 C 47.636719 106.195312 51.75 102.554688 56.117188 102.699219 C 57.386719 99.683594 62.714844 98.273438 64.128906 98.527344 C 60.511719 99.558594 58.324219 101.203125 57.839844 102.769531 C 57.351562 104.332031 57.105469 105.210938 56.007812 104.933594 C 54.910156 104.65625 51.757812 103.476562 47.636719 106.195312 "/>
<path fill-rule="nonzero" fill="rgb(0%, 25.881958%, 24.705505%)" fill-opacity="1" d="M 133.261719 93.386719 C 133.261719 93.386719 139.550781 93.554688 143.199219 96.941406 C 146.566406 95.484375 152.21875 98.347656 153.242188 99.609375 C 149.351562 97.726562 146.230469 97.402344 144.632812 98.289062 C 143.035156 99.171875 142.164062 99.695312 141.425781 98.648438 C 140.691406 97.605469 138.859375 94.296875 133.261719 93.386719 "/>
<path fill-rule="evenodd" fill="rgb(44.313049%, 77.255249%, 76.470947%)" fill-opacity="1" d="M 162.902344 195.414062 C 160.746094 198.238281 158.390625 200.910156 155.859375 203.402344 C 154.171875 203.203125 152.480469 203.039062 150.789062 202.90625 C 143.460938 202.328125 136.089844 202.34375 128.761719 202.960938 C 121.339844 203.578125 113.964844 204.789062 106.738281 206.613281 C 104.9375 207.066406 103.15625 207.578125 101.382812 208.117188 C 100.28125 208.453125 99.1875 208.800781 98.097656 209.15625 C 93.789062 210.554688 89.519531 212.050781 85.160156 213.285156 C 79 215.039062 72.402344 216.183594 66.03125 215.054688 C 66.03125 215.054688 66.027344 215.054688 66.027344 215.050781 C 59.257812 211.175781 53.164062 206.273438 47.9375 200.558594 C 81.082031 195.261719 114.75 193.285156 148.292969 194.617188 C 153.164062 194.8125 158.035156 195.078125 162.902344 195.414062 "/>
<path fill-rule="evenodd" fill="rgb(27.842712%, 72.157288%, 71.765137%)" fill-opacity="1" d="M 150.324219 208.332031 C 137.457031 218.71875 121.089844 224.9375 103.265625 224.9375 C 93.710938 224.9375 84.574219 223.148438 76.171875 219.890625 C 85.121094 217.390625 94.070312 214.875 103.097656 212.691406 C 114.832031 209.847656 126.742188 208.160156 138.832031 208.027344 C 142.664062 207.980469 146.496094 208.085938 150.324219 208.332031 "/>
<path fill-rule="evenodd" fill="rgb(0%, 25.881958%, 24.705505%)" fill-opacity="1" d="M 178.242188 149.867188 C 178.242188 154.355469 177.851562 158.746094 177.097656 163.015625 C 171.71875 162.867188 166.335938 162.886719 160.953125 163.207031 C 160.632812 163.226562 160.3125 163.246094 159.992188 163.269531 L 158.730469 161.75 C 153.441406 155.375 148.742188 153.886719 143.644531 154.199219 C 126.460938 140.199219 110.359375 135.652344 108.105469 134.300781 C 106.429688 133.296875 103.523438 132.152344 100.742188 132.523438 C 100.691406 132.53125 100.640625 132.535156 100.589844 132.546875 C 100.308594 132.589844 100.023438 132.648438 99.742188 132.726562 C 99.132812 132.898438 98.535156 133.152344 97.96875 133.511719 C 95 134.226562 76.324219 140.816406 65.414062 152.039062 L 65.398438 152.054688 L 65.398438 152.058594 L 65.378906 152.078125 C 65.085938 152.375 64.804688 152.675781 64.527344 152.980469 L 64.523438 152.984375 C 64.238281 153.296875 63.960938 153.609375 63.691406 153.929688 C 62.066406 155.839844 60.679688 157.867188 59.636719 160.019531 L 59.636719 160.023438 C 59.3125 160.679688 59.023438 161.347656 58.769531 162.03125 C 50.863281 163.695312 43.140625 168.898438 36.839844 175.574219 C 36.539062 175.894531 36.238281 176.21875 35.941406 176.542969 C 35.285156 177.269531 34.644531 178.011719 34.023438 178.765625 C 30.75 170.914062 28.773438 162.390625 28.363281 153.453125 C 33.101562 151.679688 32.28125 152.015625 34.082031 151.355469 L 33.1875 168.792969 L 42.351562 131.546875 C 45.652344 129.859375 50.9375 129.269531 53.25 128.34375 C 56.484375 127.050781 55.859375 126.652344 59.097656 120.828125 C 60.339844 118.59375 61.25 117.03125 62.410156 116.148438 L 62.605469 136.910156 L 67.820312 111.617188 C 68.710938 111.207031 69.660156 110.746094 70.695312 110.050781 C 71.820312 109.300781 72.949219 108.601562 73.980469 107.996094 L 77.097656 79.660156 L 77.132812 79.328125 L 77.257812 78.183594 L 77.339844 77.441406 L 77.386719 77.441406 C 77.503906 77.207031 78.429688 76.71875 79.285156 76.449219 C 79.289062 76.445312 79.296875 76.445312 79.304688 76.445312 C 79.558594 76.378906 79.816406 76.324219 80.082031 76.269531 L 80.003906 77.242188 L 79.914062 78.363281 L 79.886719 78.683594 L 77.703125 105.890625 C 78.738281 105.324219 80.246094 105.527344 80.246094 105.527344 C 80.246094 105.527344 84.933594 104.875 88.171875 102.933594 C 89.730469 102 91.738281 101.511719 93.40625 101.261719 L 95.050781 75.410156 L 95.070312 75.144531 L 95.179688 73.429688 L 95.191406 73.214844 L 95.191406 73.203125 L 95.144531 66.671875 C 95.144531 66.671875 93.117188 67.019531 93.109375 65.65625 C 93.105469 64.441406 92.347656 52.414062 98.394531 52.402344 C 100.035156 52.402344 94.105469 48.46875 98.667969 44.9375 C 103.582031 42.429688 105.191406 50.292969 101.523438 52.402344 C 105.976562 52.800781 111.847656 50.046875 114.824219 49.0625 C 115.757812 48.777344 115.816406 48.742188 116.164062 48.703125 C 117.15625 48.605469 117.550781 49.949219 116.671875 50.433594 C 115.640625 50.996094 113.28125 52.019531 113.28125 52.019531 C 113.28125 52.019531 104.824219 54.925781 104.121094 59.394531 C 103.828125 61.300781 103.785156 70.144531 102.03125 73.460938 C 102.003906 73.515625 101.976562 73.570312 101.941406 73.621094 C 101.550781 74.308594 101.105469 74.824219 100.636719 75.214844 C 100.425781 75.390625 100.210938 75.539062 99.992188 75.667969 L 100.730469 102.101562 C 103.246094 102.605469 105.265625 102.730469 106.289062 102.933594 C 106.980469 103.074219 108.03125 103.644531 109.003906 104.257812 C 110.300781 105.070312 110.847656 107.769531 110.847656 107.769531 L 114.261719 124.046875 L 116.210938 107.574219 L 117.9375 102.613281 C 118.671875 102.429688 119.496094 102.4375 120.371094 102.585938 L 120.773438 77.019531 L 120.777344 76.8125 L 120.785156 76.261719 L 120.789062 75.726562 L 120.808594 74.695312 C 120.808594 74.695312 123.476562 74.800781 123.996094 75.390625 C 124.003906 75.464844 124.011719 75.613281 124.027344 75.832031 C 124.039062 76.03125 124.054688 76.289062 124.078125 76.601562 C 124.097656 76.921875 124.121094 77.289062 124.152344 77.714844 C 124.15625 77.777344 124.15625 77.84375 124.164062 77.914062 C 124.617188 85.082031 125.847656 104.742188 125.847656 104.742188 C 129.136719 105.832031 129.144531 106.378906 130.886719 106.816406 C 133.472656 107.464844 137.03125 108.109375 138.652344 108.109375 C 140.273438 108.109375 143.828125 108.753906 145.125 111.671875 C 146.414062 114.582031 151.683594 119.855469 151.683594 119.855469 L 159.703125 140.738281 L 161.140625 127.457031 L 169.746094 128.992188 C 171.332031 128.539062 173.148438 128.371094 175.121094 128.433594 L 175.140625 128.433594 C 177.160156 135.222656 178.242188 142.417969 178.242188 149.867188 "/>
<path fill-rule="evenodd" fill="rgb(69.020081%, 87.059021%, 88.235474%)" fill-opacity="1" d="M 295.308594 77.214844 L 293.414062 100.101562 L 295.214844 99.828125 L 303.140625 97.238281 L 303.492188 96.808594 L 305.402344 75.0625 Z M 295.308594 77.214844 "/>
<path fill-rule="evenodd" fill="rgb(69.020081%, 87.059021%, 88.235474%)" fill-opacity="1" d="M 386.183594 122.785156 C 385.351562 122.820312 384.589844 122.910156 383.996094 123.078125 L 376.367188 121.90625 L 372.066406 120.144531 L 367.371094 115.648438 C 367.371094 115.648438 362.03125 110.382812 360.742188 107.472656 C 359.441406 104.554688 355.886719 103.910156 354.265625 103.910156 C 352.648438 103.910156 349.03125 102.796875 346.441406 102.148438 C 344.699219 101.714844 345.28125 102.136719 341.992188 101.050781 L 340.566406 78.429688 C 361.578125 85.703125 378.34375 102.050781 386.183594 122.785156 "/>
<path fill-rule="evenodd" fill="rgb(69.020081%, 87.059021%, 88.235474%)" fill-opacity="1" d="M 286.960938 80.15625 L 284.589844 103.445312 C 283.558594 104.050781 283.425781 104.640625 282.300781 105.390625 C 281.261719 106.085938 279.425781 106.949219 278.535156 107.363281 L 272.074219 111.667969 C 270.914062 112.550781 270.269531 113.921875 269.027344 116.152344 C 265.789062 121.980469 267.132812 122.375 263.898438 123.664062 C 261.585938 124.589844 254.855469 126.257812 251.558594 127.941406 L 247.71875 144.53125 C 247.71875 144.53125 247.859375 146.902344 242.722656 148.828125 C 242.703125 148.832031 241.902344 149.171875 241.035156 149.539062 L 241.035156 149.300781 C 241.035156 118.191406 259.980469 91.507812 286.960938 80.15625 "/>
<path fill-rule="evenodd" fill="rgb(69.020081%, 87.059021%, 88.235474%)" fill-opacity="1" d="M 330.746094 75.628906 L 330.539062 97.726562 L 326.664062 99.292969 C 326.664062 99.292969 321.597656 98.429688 320.90625 98.292969 C 319.882812 98.089844 319.296875 97.691406 316.78125 97.1875 L 316.242188 78.339844 C 317.441406 77.476562 317.933594 75.785156 318.894531 74.335938 C 320.324219 74.367188 322.003906 74.449219 323.613281 74.609375 C 327.585938 75.011719 330.746094 75.628906 330.746094 75.628906 "/>
<path fill-rule="evenodd" fill="rgb(69.020081%, 87.059021%, 88.235474%)" fill-opacity="1" d="M 388.851562 167.210938 C 386.84375 175.421875 383.480469 183.097656 379.015625 189.996094 C 371.28125 189.355469 363.53125 188.902344 355.773438 188.628906 C 344.21875 188.230469 332.644531 188.234375 321.085938 188.640625 C 309.53125 189.054688 297.984375 189.859375 286.484375 191.078125 C 276.511719 192.132812 266.566406 193.484375 256.667969 195.128906 C 254.085938 191.796875 251.78125 188.234375 249.78125 184.484375 C 253.570312 185.285156 257.457031 185.730469 261.300781 186 C 273.480469 186.855469 285.921875 186.90625 298.042969 185.320312 C 310.265625 183.722656 321.875 179.839844 333.542969 176.023438 C 339.335938 174.125 345.164062 172.277344 351.097656 170.847656 C 356.445312 169.558594 361.871094 168.640625 367.34375 168.050781 C 369.550781 169.792969 376.535156 175.261719 379.90625 177.285156 C 383.941406 179.707031 381.722656 174.257812 381.722656 174.257812 L 376.003906 167.382812 C 380.285156 167.175781 384.570312 167.132812 388.851562 167.210938 "/>
<path fill-rule="evenodd" fill="rgb(0%, 25.881958%, 24.705505%)" fill-opacity="1" d="M 352.019531 159.726562 C 344.527344 152.953125 324.117188 152.460938 315.367188 144.675781 C 313.691406 151.679688 303.101562 161.070312 298.402344 162.359375 C 299.980469 167.402344 301.023438 170.371094 301.023438 170.371094 C 303.910156 169.828125 307.390625 169.964844 311.507812 167.488281 C 314.566406 165.644531 316.328125 162.921875 317.164062 161.683594 C 319.125 158.777344 323.0625 158.339844 325.78125 159.359375 C 328.300781 160.308594 340.855469 157.386719 345.25 167.355469 C 348.601562 166.429688 351.980469 165.613281 355.398438 164.960938 C 356.992188 164.65625 358.59375 164.382812 360.199219 164.136719 C 357.429688 163.164062 354.222656 161.71875 352.019531 159.726562 "/>
<path fill-rule="nonzero" fill="rgb(0%, 25.881958%, 24.705505%)" fill-opacity="1" d="M 347.035156 55.523438 C 348.238281 55.898438 349.328125 56.496094 350.1875 57.046875 L 351.097656 55.285156 C 350.554688 54.894531 349.15625 54.113281 347.363281 53.558594 C 342.371094 52.011719 339.941406 53.324219 338.527344 57.867188 C 337.121094 62.414062 338.402344 64.878906 342.894531 66.269531 C 344.558594 66.785156 346.183594 67.085938 347.738281 67.226562 L 349.769531 60.6875 L 344.613281 59.089844 L 344.082031 60.804688 L 346.960938 61.699219 L 345.957031 64.933594 C 345.261719 64.835938 344.492188 64.699219 343.773438 64.480469 C 340.761719 63.539062 339.9375 61.828125 340.933594 58.613281 C 342.007812 55.140625 343.859375 54.539062 347.035156 55.523438 "/>
<path fill-rule="nonzero" fill="rgb(0%, 25.881958%, 24.705505%)" fill-opacity="1" d="M 363.757812 60.746094 L 360.351562 67.671875 C 359.257812 69.894531 357.941406 70.367188 355.792969 69.308594 C 353.65625 68.257812 353.21875 66.914062 354.308594 64.695312 L 357.632812 57.945312 C 357.699219 57.808594 357.683594 57.753906 357.5625 57.699219 L 354.714844 56.296875 L 354.03125 57.210938 L 354.535156 57.757812 C 354.71875 57.957031 354.726562 58.027344 354.609375 58.265625 L 351.914062 63.734375 C 350.257812 67.105469 351.128906 69.273438 354.898438 71.128906 C 358.660156 72.984375 360.914062 72.347656 362.570312 68.980469 L 366.066406 61.882812 Z M 363.757812 60.746094 "/>
<path fill-rule="nonzero" fill="rgb(0%, 25.881958%, 24.705505%)" fill-opacity="1" d="M 371.515625 65.4375 L 368.839844 63.722656 L 368.058594 64.554688 L 368.496094 65.15625 C 368.65625 65.375 368.660156 65.445312 368.511719 65.671875 L 362.46875 75.082031 L 364.636719 76.472656 L 371.554688 65.691406 C 371.640625 65.5625 371.625 65.511719 371.515625 65.4375 "/>
<path fill-rule="nonzero" fill="rgb(0%, 25.881958%, 24.705505%)" fill-opacity="1" d="M 376.746094 69.140625 L 374.238281 67.195312 L 373.382812 67.953125 L 373.769531 68.589844 C 373.910156 68.824219 373.90625 68.894531 373.734375 69.109375 L 366.894531 77.945312 L 373.621094 83.160156 L 374.828125 81.597656 L 370.132812 77.960938 L 376.769531 69.394531 C 376.859375 69.273438 376.855469 69.222656 376.746094 69.140625 "/>
<path fill-rule="nonzero" fill="rgb(0%, 25.881958%, 24.705505%)" fill-opacity="1" d="M 385.609375 76.675781 L 383.34375 74.457031 L 382.402344 75.113281 L 382.714844 75.789062 C 382.824219 76.035156 382.8125 76.105469 382.621094 76.300781 L 374.808594 84.289062 L 380.886719 90.242188 L 382.269531 88.832031 L 378.023438 84.679688 L 385.597656 76.9375 C 385.710938 76.828125 385.707031 76.773438 385.609375 76.675781 "/>
<path fill-rule="nonzero" fill="rgb(0%, 25.881958%, 24.705505%)" fill-opacity="1" d="M 390.511719 94.351562 L 387.75 90.8125 C 389.757812 90.109375 391.703125 89.527344 393.695312 89.027344 C 392.710938 90.820312 391.667969 92.566406 390.511719 94.351562 M 394.617188 86.496094 C 391.484375 86.976562 384.789062 89.121094 381.339844 90.605469 L 382.933594 92.652344 C 383.9375 92.238281 384.90625 91.847656 385.878906 91.484375 L 389.394531 96.003906 C 388.792969 96.839844 388.1875 97.703125 387.542969 98.570312 L 389.136719 100.617188 C 391.425781 97.632812 395.140625 91.675781 396.371094 88.757812 Z M 394.617188 86.496094 "/>
<path fill-rule="nonzero" fill="rgb(0%, 25.881958%, 24.705505%)" fill-opacity="1" d="M 406.398438 104.84375 L 398.171875 104.488281 L 402.035156 97.820312 C 402.265625 97.429688 402.296875 97.367188 402.097656 97.007812 L 400.738281 94.535156 L 399.652344 94.890625 L 399.75 95.632812 C 399.789062 95.898438 399.757812 95.960938 399.519531 96.089844 L 389.71875 101.472656 L 390.867188 103.554688 L 398.867188 99.160156 L 395.882812 104.375 C 395.589844 104.886719 395.582031 104.871094 395.90625 105.464844 L 396.449219 106.445312 L 403.039062 106.753906 L 395.035156 111.152344 L 396.183594 113.238281 L 407.574219 106.980469 Z M 406.398438 104.84375 "/>
<path fill-rule="nonzero" fill="rgb(0%, 25.881958%, 24.705505%)" fill-opacity="1" d="M 408.992188 110.460938 L 407.859375 110.644531 L 407.84375 111.386719 C 407.835938 111.65625 407.792969 111.714844 407.539062 111.804688 L 397.019531 115.589844 L 400.246094 124.558594 L 402.101562 123.894531 L 399.746094 117.339844 L 403.222656 116.089844 L 405.054688 121.1875 L 406.839844 120.546875 L 405.007812 115.449219 L 408.265625 114.277344 L 410.566406 120.6875 L 412.425781 120.019531 Z M 408.992188 110.460938 "/>
<path fill-rule="nonzero" fill="rgb(0%, 25.881958%, 24.705505%)" fill-opacity="1" d="M 415.347656 132.898438 L 406.058594 134.769531 L 413.59375 126.445312 C 413.929688 126.0625 413.96875 126.054688 413.890625 125.675781 L 413.316406 122.832031 L 412.175781 122.839844 L 412.046875 123.582031 C 412.003906 123.84375 411.953125 123.894531 411.6875 123.949219 L 400.730469 126.15625 L 401.203125 128.488281 L 410.488281 126.617188 L 402.582031 135.351562 L 403.074219 137.792969 L 415.8125 135.230469 Z M 415.347656 132.898438 "/>
<path fill-rule="nonzero" fill="rgb(0%, 25.881958%, 24.705505%)" fill-opacity="1" d="M 416.199219 138.875 L 415.066406 138.726562 L 414.828125 139.433594 C 414.746094 139.691406 414.6875 139.730469 414.421875 139.746094 L 403.257812 140.320312 L 403.746094 149.847656 L 405.71875 149.742188 L 405.359375 142.785156 L 409.046875 142.597656 L 409.328125 148.007812 L 411.21875 147.90625 L 410.941406 142.5 L 414.398438 142.320312 L 414.75 149.121094 L 416.722656 149.019531 Z M 416.199219 138.875 "/>
<path fill-rule="nonzero" fill="rgb(0%, 25.881958%, 24.705505%)" fill-opacity="1" d="M 229.242188 137.6875 L 216.273438 136.855469 L 216.117188 139.230469 L 225.578125 139.835938 L 216.136719 145.917969 C 215.710938 146.203125 215.671875 146.199219 215.644531 146.585938 L 215.460938 149.480469 L 216.566406 149.765625 L 216.882812 149.085938 C 216.996094 148.84375 217.054688 148.808594 217.324219 148.824219 L 228.484375 149.539062 L 228.632812 147.164062 L 219.175781 146.558594 L 229.082031 140.175781 Z M 229.242188 137.6875 "/>
<path fill-rule="nonzero" fill="rgb(0%, 25.881958%, 24.705505%)" fill-opacity="1" d="M 230.621094 122.675781 L 228.949219 129.433594 L 225.363281 128.542969 L 226.664062 123.289062 L 224.824219 122.832031 L 223.523438 128.085938 L 220.160156 127.253906 L 221.800781 120.644531 L 219.882812 120.171875 L 217.441406 130.027344 L 218.480469 130.503906 L 218.910156 129.894531 C 219.0625 129.671875 219.132812 129.652344 219.390625 129.714844 L 230.242188 132.402344 L 232.539062 123.148438 Z M 230.621094 122.675781 "/>
<path fill-rule="nonzero" fill="rgb(0%, 25.881958%, 24.705505%)" fill-opacity="1" d="M 234.246094 109.46875 C 235.339844 109.597656 236.8125 109.730469 238.089844 109.789062 L 239.332031 107.128906 C 236.828125 104.441406 232.183594 100.308594 229.214844 98.070312 L 228.152344 100.347656 C 229.035156 101.015625 230.378906 102.113281 232.238281 103.664062 C 233.699219 104.882812 235.410156 106.425781 236.511719 107.496094 L 236.503906 107.511719 C 234.976562 107.355469 232.703125 107.019531 230.832031 106.679688 C 228.621094 106.285156 227.019531 105.96875 225.933594 105.738281 L 224.894531 107.964844 C 225.769531 108.648438 227.042969 109.671875 228.761719 111.113281 C 230.222656 112.328125 231.941406 113.859375 233.042969 114.925781 L 233.035156 114.945312 C 231.507812 114.789062 229.222656 114.46875 227.351562 114.128906 C 224.96875 113.699219 223.265625 113.371094 222.1875 113.125 L 221.121094 115.402344 C 224.742188 116.242188 230.898438 117.148438 234.5625 117.347656 L 235.804688 114.679688 C 234.941406 113.742188 233.890625 112.695312 233.089844 111.941406 C 231.609375 110.542969 229.78125 109.113281 228.617188 108.355469 L 228.625 108.339844 C 229.953125 108.746094 232.222656 109.230469 234.246094 109.46875 "/>
<path fill-rule="nonzero" fill="rgb(0%, 25.881958%, 24.705505%)" fill-opacity="1" d="M 236.816406 90.898438 L 239.269531 87.46875 L 237.664062 86.320312 L 231.261719 95.269531 L 232.863281 96.417969 L 235.320312 92.988281 L 244.285156 99.402344 L 245.78125 97.3125 Z M 236.816406 90.898438 "/>
<path fill-rule="nonzero" fill="rgb(0%, 25.881958%, 24.705505%)" fill-opacity="1" d="M 252.382812 86.804688 C 250.460938 88.765625 248.679688 88.617188 246.304688 86.289062 C 243.929688 83.960938 243.746094 82.1875 245.671875 80.222656 C 247.605469 78.25 249.371094 78.40625 251.746094 80.738281 C 254.121094 83.066406 254.320312 84.828125 252.382812 86.804688 M 253.589844 78.859375 C 250.191406 75.527344 247.441406 75.515625 244.21875 78.800781 C 240.996094 82.089844 241.078125 84.824219 244.480469 88.152344 C 247.875 91.484375 250.609375 91.515625 253.832031 88.226562 C 257.054688 84.9375 256.988281 82.191406 253.589844 78.859375 "/>
<path fill-rule="nonzero" fill="rgb(0%, 25.881958%, 24.705505%)" fill-opacity="1" d="M 268.121094 60.53125 L 266.03125 61.929688 C 266.441406 62.960938 267.023438 64.59375 267.808594 66.882812 C 268.429688 68.679688 269.09375 70.890625 269.480469 72.375 L 269.464844 72.382812 C 268.238281 71.460938 266.46875 69.988281 265.046875 68.734375 C 263.355469 67.257812 262.15625 66.152344 261.34375 65.394531 L 259.300781 66.757812 C 259.695312 67.796875 260.257812 69.332031 260.976562 71.453125 C 261.597656 73.25 262.277344 75.449219 262.667969 76.933594 L 262.648438 76.945312 C 261.425781 76.019531 259.636719 74.5625 258.214844 73.304688 C 256.398438 71.703125 255.109375 70.542969 254.3125 69.769531 L 252.222656 71.167969 C 254.886719 73.761719 259.679688 77.722656 262.714844 79.785156 L 265.15625 78.152344 C 264.902344 76.902344 264.546875 75.46875 264.257812 74.402344 C 263.710938 72.441406 262.886719 70.273438 262.28125 69.023438 L 262.300781 69.011719 C 263.222656 70.046875 264.914062 71.636719 266.523438 72.886719 C 267.390625 73.5625 268.585938 74.441406 269.644531 75.152344 L 272.085938 73.515625 C 271.332031 69.925781 269.5 63.984375 268.121094 60.53125 "/>
<path fill-rule="nonzero" fill="rgb(0%, 25.881958%, 24.705505%)" fill-opacity="1" d="M 290.328125 65.394531 L 285.507812 53.328125 L 283.300781 54.210938 L 286.8125 63.011719 L 277.265625 57.097656 C 276.828125 56.835938 276.8125 56.800781 276.453125 56.941406 L 273.761719 58.015625 L 273.976562 59.136719 L 274.726562 59.132812 C 274.996094 59.128906 275.050781 59.167969 275.152344 59.421875 L 279.296875 69.800781 L 281.511719 68.917969 L 277.992188 60.117188 L 288.011719 66.324219 Z M 290.328125 65.394531 "/>
<path fill-rule="nonzero" fill="rgb(0%, 25.881958%, 24.705505%)" fill-opacity="1" d="M 235.363281 209.492188 C 224.171875 194.5625 217.398438 176.867188 215.769531 158.320312 L 223.132812 157.675781 C 224.636719 174.847656 230.910156 191.234375 241.273438 205.058594 Z M 235.363281 209.492188 "/>
<path fill-rule="nonzero" fill="rgb(0%, 25.881958%, 24.705505%)" fill-opacity="1" d="M 416.085938 159.613281 C 414.21875 177.84375 407.375 195.183594 396.261719 209.820312 L 390.375 205.351562 C 400.648438 191.828125 406.980469 175.8125 408.726562 158.972656 Z M 416.085938 159.613281 "/>
<path fill-rule="nonzero" fill="rgb(0%, 25.881958%, 24.705505%)" fill-opacity="1" d="M 254.230469 211.316406 C 251.652344 208.78125 249.582031 208.265625 247.667969 210.210938 C 244.15625 213.78125 250.933594 217.511719 248.910156 219.570312 C 247.972656 220.519531 246.960938 220.285156 245.554688 218.902344 C 244.507812 217.867188 243.609375 216.660156 242.898438 215.3125 L 241.472656 216.761719 C 242.222656 218.09375 243.175781 219.332031 244.308594 220.445312 C 246.789062 222.886719 248.847656 223.222656 250.734375 221.304688 C 254.285156 217.691406 247.605469 213.863281 249.488281 211.945312 C 250.398438 211.023438 251.371094 211.273438 252.722656 212.601562 C 253.644531 213.511719 254.507812 214.679688 255.007812 215.660156 L 256.625 214.539062 C 256.164062 213.570312 255.238281 212.304688 254.230469 211.316406 "/>
<path fill-rule="nonzero" fill="rgb(0%, 25.881958%, 24.705505%)" fill-opacity="1" d="M 270.4375 224.332031 C 269.625 225.082031 268.304688 226.214844 266.453125 227.773438 C 265 228.992188 263.175781 230.40625 261.929688 231.300781 L 261.910156 231.292969 C 262.339844 229.816406 263.070312 227.636719 263.734375 225.855469 C 264.507812 223.75 265.105469 222.230469 265.523438 221.199219 L 263.515625 219.785156 C 262.6875 220.523438 261.457031 221.597656 259.734375 223.035156 C 258.28125 224.257812 256.46875 225.679688 255.222656 226.578125 L 255.210938 226.566406 C 255.632812 225.089844 256.351562 222.898438 257.015625 221.117188 C 257.859375 218.847656 258.480469 217.226562 258.910156 216.210938 L 256.859375 214.757812 C 255.394531 218.179688 253.417969 224.070312 252.578125 227.648438 L 254.980469 229.339844 C 256.058594 228.65625 257.269531 227.808594 258.15625 227.152344 C 259.789062 225.941406 261.523438 224.390625 262.472656 223.378906 L 262.488281 223.390625 C 261.855469 224.625 260.976562 226.773438 260.386719 228.722656 C 260.066406 229.777344 259.675781 231.207031 259.390625 232.449219 L 261.796875 234.144531 C 264.878906 232.152344 269.765625 228.308594 272.492188 225.785156 Z M 270.4375 224.332031 "/>
<path fill-rule="nonzero" fill="rgb(0%, 25.881958%, 24.705505%)" fill-opacity="1" d="M 276.015625 227.0625 L 273.199219 225.601562 L 272.492188 226.503906 L 272.984375 227.0625 C 273.164062 227.265625 273.175781 227.335938 273.050781 227.574219 L 267.902344 237.496094 L 270.1875 238.683594 L 276.078125 227.316406 C 276.148438 227.179688 276.132812 227.128906 276.015625 227.0625 "/>
<path fill-rule="nonzero" fill="rgb(0%, 25.881958%, 24.705505%)" fill-opacity="1" d="M 288.542969 232.285156 L 282.058594 237.367188 L 280.660156 229.789062 C 280.578125 229.34375 280.566406 229.273438 280.183594 229.132812 L 277.539062 228.136719 L 276.949219 229.109375 L 277.503906 229.609375 C 277.703125 229.789062 277.71875 229.855469 277.625 230.109375 L 273.675781 240.566406 L 275.902344 241.40625 L 279.125 232.867188 L 280.246094 238.769531 C 280.359375 239.347656 280.339844 239.34375 280.972656 239.582031 L 282.023438 239.976562 L 287.234375 235.925781 L 284.011719 244.46875 L 286.238281 245.308594 L 290.824219 233.148438 Z M 288.542969 232.285156 "/>
<path fill-rule="nonzero" fill="rgb(0%, 25.881958%, 24.705505%)" fill-opacity="1" d="M 303.726562 235.761719 L 298.210938 241.878906 L 295.527344 234.652344 C 295.371094 234.230469 295.347656 234.164062 294.949219 234.089844 L 292.171875 233.5625 L 291.753906 234.625 L 292.386719 235.019531 C 292.613281 235.160156 292.644531 235.226562 292.59375 235.492188 L 290.5 246.476562 L 292.839844 246.921875 L 294.546875 237.953125 L 296.664062 243.574219 C 296.875 244.125 296.859375 244.121094 297.523438 244.25 L 298.625 244.457031 L 303.058594 239.574219 L 301.351562 248.539062 L 303.691406 248.984375 L 306.117188 236.214844 Z M 303.726562 235.761719 "/>
<path fill-rule="nonzero" fill="rgb(0%, 25.881958%, 24.705505%)" fill-opacity="1" d="M 310.96875 236.375 L 307.804688 236.148438 L 307.511719 237.253906 L 308.1875 237.570312 C 308.433594 237.683594 308.46875 237.746094 308.445312 238.015625 L 307.648438 249.167969 L 310.214844 249.347656 L 311.128906 236.582031 C 311.140625 236.425781 311.101562 236.382812 310.96875 236.375 "/>
<path fill-rule="nonzero" fill="rgb(0%, 25.881958%, 24.705505%)" fill-opacity="1" d="M 325.960938 249.203125 L 325.46875 236.214844 L 323.089844 236.304688 L 323.449219 245.777344 L 316.4375 237 C 316.113281 236.609375 316.113281 236.566406 315.726562 236.582031 L 312.828125 236.691406 L 312.65625 237.820312 L 313.363281 238.066406 C 313.617188 238.152344 313.65625 238.210938 313.671875 238.480469 L 314.089844 249.652344 L 316.46875 249.5625 L 316.113281 240.089844 L 323.46875 249.296875 Z M 325.960938 249.203125 "/>
<path fill-rule="nonzero" fill="rgb(0%, 25.881958%, 24.705505%)" fill-opacity="1" d="M 339.296875 239.621094 L 334 240.636719 L 334.339844 242.40625 L 337.300781 241.835938 L 337.9375 245.160156 C 337.273438 245.40625 336.53125 245.648438 335.792969 245.789062 C 332.695312 246.382812 331.160156 245.257812 330.527344 241.953125 C 329.84375 238.382812 331.191406 236.980469 334.460938 236.355469 C 335.691406 236.117188 336.933594 236.136719 337.953125 236.214844 L 337.929688 234.234375 C 337.261719 234.144531 335.660156 234.117188 333.820312 234.46875 C 328.691406 235.453125 327.164062 237.75 328.058594 242.425781 C 328.953125 247.097656 331.242188 248.667969 335.859375 247.78125 C 337.566406 247.457031 339.148438 246.957031 340.585938 246.34375 Z M 339.296875 239.621094 "/>
<path fill-rule="nonzero" fill="rgb(0%, 25.881958%, 24.705505%)" fill-opacity="1" d="M 356.761719 238.59375 C 355.78125 239.328125 354.761719 239.90625 353.683594 240.328125 C 350.851562 241.425781 349.179688 240.601562 347.980469 237.496094 C 346.777344 234.394531 347.453125 232.660156 350.28125 231.566406 C 351.453125 231.109375 352.535156 230.898438 353.554688 230.792969 L 353.171875 228.847656 C 352.5 228.878906 350.917969 229.140625 349.171875 229.816406 C 344.898438 231.472656 343.824219 234.007812 345.546875 238.441406 C 347.265625 242.878906 349.765625 244.023438 354.039062 242.367188 C 355.335938 241.867188 356.480469 241.234375 357.503906 240.507812 Z M 356.761719 238.59375 "/>
<path fill-rule="nonzero" fill="rgb(0%, 25.881958%, 24.705505%)" fill-opacity="1" d="M 367.152344 233.542969 L 361.910156 236.328125 L 356.828125 226.765625 C 356.757812 226.628906 356.703125 226.613281 356.585938 226.675781 L 353.785156 228.164062 L 354.121094 229.253906 L 354.863281 229.167969 C 355.132812 229.136719 355.191406 229.167969 355.320312 229.40625 L 360.5625 239.277344 L 368.078125 235.285156 Z M 367.152344 233.542969 "/>
<path fill-rule="nonzero" fill="rgb(0%, 25.881958%, 24.705505%)" fill-opacity="1" d="M 376.984375 223.003906 L 372.410156 216.550781 L 370.3125 218.035156 L 374.773438 224.332031 C 376.207031 226.351562 375.996094 227.730469 374.042969 229.117188 C 372.101562 230.492188 370.714844 230.242188 369.28125 228.222656 L 364.933594 222.085938 C 364.84375 221.960938 364.789062 221.949219 364.679688 222.027344 L 362.09375 223.863281 L 362.566406 224.902344 L 363.292969 224.71875 C 363.554688 224.65625 363.617188 224.679688 363.773438 224.898438 L 367.296875 229.867188 C 369.46875 232.929688 371.792969 233.203125 375.21875 230.773438 C 378.640625 228.347656 379.15625 226.0625 376.984375 223.003906 "/>
<path fill-rule="nonzero" fill="rgb(0%, 25.881958%, 24.705505%)" fill-opacity="1" d="M 386.101562 218.9375 L 383.601562 221.332031 L 380.953125 218.566406 L 383.449219 216.171875 C 384.550781 215.117188 385.371094 215.105469 386.308594 216.082031 C 387.246094 217.058594 387.203125 217.878906 386.101562 218.9375 M 377.203125 214.660156 L 379.476562 212.480469 C 380.523438 211.476562 381.316406 211.464844 382.1875 212.371094 C 383.058594 213.28125 383.015625 214.070312 381.96875 215.078125 L 379.695312 217.257812 Z M 388.246094 214.441406 C 387.09375 213.238281 385.921875 212.96875 384.652344 213.574219 C 385.070312 212.527344 384.816406 211.539062 383.894531 210.574219 C 382.164062 208.773438 380.578125 208.824219 378.542969 210.777344 L 373.558594 215.558594 L 374.183594 216.511719 L 374.871094 216.226562 C 375.121094 216.121094 375.1875 216.136719 375.378906 216.332031 L 383.113281 224.398438 L 387.761719 219.941406 C 389.882812 217.90625 389.996094 216.265625 388.246094 214.441406 "/>
<path fill-rule="nonzero" fill="rgb(0%, 25.881958%, 24.705505%)" fill-opacity="1" d="M 260.390625 105.550781 C 260.390625 105.550781 264.503906 101.90625 268.871094 102.054688 C 270.140625 99.039062 275.46875 97.625 276.882812 97.882812 C 273.265625 98.914062 271.078125 100.558594 270.59375 102.121094 C 270.105469 103.683594 269.859375 104.566406 268.761719 104.285156 C 267.664062 104.011719 264.511719 102.828125 260.390625 105.550781 "/>
<path fill-rule="nonzero" fill="rgb(0%, 25.881958%, 24.705505%)" fill-opacity="1" d="M 346.015625 92.738281 C 346.015625 92.738281 352.304688 92.90625 355.953125 96.296875 C 359.320312 94.839844 364.972656 97.699219 365.996094 98.964844 C 362.105469 97.078125 358.984375 96.753906 357.386719 97.640625 C 355.789062 98.527344 354.917969 99.046875 354.179688 98.003906 C 353.445312 96.957031 351.613281 93.648438 346.015625 92.738281 "/>
<path fill-rule="evenodd" fill="rgb(44.313049%, 77.255249%, 76.470947%)" fill-opacity="1" d="M 375.65625 194.765625 C 373.5 197.59375 371.144531 200.261719 368.613281 202.753906 C 366.925781 202.558594 365.234375 202.394531 363.542969 202.257812 C 356.214844 201.679688 348.84375 201.699219 341.515625 202.3125 C 334.09375 202.933594 326.71875 204.144531 319.492188 205.964844 C 317.691406 206.417969 315.90625 206.929688 314.136719 207.46875 C 313.035156 207.808594 311.941406 208.15625 310.851562 208.511719 C 306.542969 209.90625 302.273438 211.402344 297.914062 212.640625 C 291.753906 214.390625 285.15625 215.535156 278.785156 214.40625 C 278.785156 214.40625 278.78125 214.40625 278.78125 214.402344 C 272.015625 210.527344 265.917969 205.625 260.691406 199.910156 C 293.835938 194.613281 327.507812 192.640625 361.046875 193.96875 C 365.921875 194.164062 370.789062 194.433594 375.65625 194.765625 "/>
<path fill-rule="evenodd" fill="rgb(27.842712%, 72.157288%, 71.765137%)" fill-opacity="1" d="M 363.078125 207.683594 C 350.210938 218.070312 333.84375 224.289062 316.019531 224.289062 C 306.464844 224.289062 297.328125 222.503906 288.925781 219.242188 C 297.875 216.742188 306.824219 214.226562 315.851562 212.042969 C 327.585938 209.203125 339.5 207.515625 351.585938 207.378906 C 355.417969 207.335938 359.253906 207.441406 363.078125 207.683594 "/>
<path fill-rule="evenodd" fill="rgb(0%, 25.881958%, 24.705505%)" fill-opacity="1" d="M 390.996094 149.21875 C 390.996094 153.707031 390.605469 158.101562 389.851562 162.371094 C 384.472656 162.21875 379.089844 162.242188 373.707031 162.5625 C 373.386719 162.578125 373.066406 162.597656 372.746094 162.621094 L 371.484375 161.105469 C 366.195312 154.726562 361.496094 153.238281 356.398438 153.550781 C 339.214844 139.554688 323.113281 135.003906 320.859375 133.652344 C 319.183594 132.648438 316.277344 131.503906 313.496094 131.878906 C 313.445312 131.882812 313.394531 131.890625 313.34375 131.898438 C 313.0625 131.941406 312.777344 132 312.496094 132.078125 C 311.886719 132.25 311.289062 132.503906 310.722656 132.863281 C 307.753906 133.582031 289.078125 140.167969 278.171875 151.390625 L 278.152344 151.410156 L 278.132812 151.433594 C 277.839844 151.726562 277.558594 152.03125 277.28125 152.335938 L 277.277344 152.339844 C 276.996094 152.648438 276.714844 152.960938 276.445312 153.28125 C 274.820312 155.191406 273.433594 157.222656 272.390625 159.371094 L 272.390625 159.375 C 272.066406 160.035156 271.777344 160.703125 271.523438 161.386719 C 263.617188 163.046875 255.894531 168.253906 249.59375 174.925781 C 249.292969 175.246094 248.992188 175.570312 248.699219 175.894531 C 248.039062 176.621094 247.398438 177.363281 246.777344 178.121094 C 243.503906 170.269531 241.527344 161.742188 241.117188 152.808594 C 245.855469 151.03125 245.035156 151.371094 246.835938 150.707031 L 245.941406 168.148438 L 255.105469 130.898438 C 258.40625 129.214844 263.691406 128.621094 266.003906 127.695312 C 269.238281 126.402344 268.613281 126.007812 271.851562 120.179688 C 273.09375 117.949219 274.003906 116.382812 275.164062 115.503906 L 275.359375 136.261719 L 280.574219 110.972656 C 281.464844 110.558594 282.414062 110.097656 283.449219 109.40625 C 284.578125 108.652344 285.703125 107.957031 286.734375 107.351562 L 289.851562 79.011719 L 289.886719 78.679688 L 290.011719 77.535156 L 290.09375 76.792969 L 290.140625 76.792969 C 290.257812 76.558594 291.1875 76.070312 292.039062 75.800781 C 292.042969 75.800781 292.054688 75.800781 292.058594 75.800781 C 292.3125 75.730469 292.570312 75.675781 292.835938 75.625 L 292.757812 76.597656 L 292.667969 77.714844 L 292.640625 78.035156 L 290.460938 105.246094 C 291.492188 104.679688 293 104.878906 293 104.878906 C 293 104.878906 297.6875 104.230469 300.925781 102.289062 C 302.484375 101.355469 304.492188 100.863281 306.160156 100.613281 L 307.808594 74.761719 L 307.824219 74.5 L 307.933594 72.78125 L 307.945312 72.566406 L 307.945312 72.554688 L 307.898438 66.023438 C 307.898438 66.023438 305.871094 66.371094 305.863281 65.011719 C 305.859375 63.792969 305.101562 51.765625 311.148438 51.757812 C 312.789062 51.757812 306.859375 47.820312 311.421875 44.289062 C 316.335938 41.785156 317.945312 49.644531 314.277344 51.757812 C 318.730469 52.152344 324.601562 49.402344 327.578125 48.414062 C 328.511719 48.128906 328.570312 48.09375 328.917969 48.058594 C 329.910156 47.960938 330.304688 49.300781 329.425781 49.785156 C 328.394531 50.347656 326.035156 51.371094 326.035156 51.371094 C 326.035156 51.371094 317.578125 54.277344 316.878906 58.746094 C 316.585938 60.652344 316.539062 69.496094 314.785156 72.8125 C 314.757812 72.867188 314.730469 72.925781 314.695312 72.976562 C 314.304688 73.660156 313.859375 74.179688 313.390625 74.566406 C 313.179688 74.742188 312.964844 74.894531 312.746094 75.019531 L 313.484375 101.453125 C 316 101.960938 318.019531 102.082031 319.046875 102.289062 C 319.734375 102.425781 320.785156 102.996094 321.757812 103.609375 C 323.054688 104.425781 323.601562 107.121094 323.601562 107.121094 L 327.015625 123.398438 L 328.964844 106.929688 L 330.691406 101.964844 C 331.425781 101.78125 332.253906 101.792969 333.125 101.9375 L 333.527344 76.375 L 333.53125 76.164062 L 333.539062 75.613281 L 333.542969 75.082031 L 333.5625 74.050781 C 333.5625 74.050781 336.230469 74.152344 336.75 74.742188 C 336.757812 74.816406 336.765625 74.96875 336.78125 75.1875 C 336.796875 75.386719 336.808594 75.644531 336.832031 75.953125 C 336.855469 76.273438 336.875 76.644531 336.90625 77.066406 C 336.910156 77.128906 336.910156 77.195312 336.917969 77.269531 C 337.371094 84.4375 338.605469 104.097656 338.605469 104.097656 C 341.890625 105.1875 341.898438 105.730469 343.640625 106.167969 C 346.226562 106.816406 349.789062 107.464844 351.40625 107.464844 C 353.027344 107.464844 356.582031 108.109375 357.878906 111.023438 C 359.167969 113.933594 364.4375 119.207031 364.4375 119.207031 L 372.457031 140.09375 L 373.894531 126.808594 L 382.496094 128.347656 C 384.085938 127.890625 385.902344 127.722656 387.878906 127.785156 L 387.898438 127.785156 C 389.914062 134.578125 390.996094 141.773438 390.996094 149.21875 "/>
</svg>
