<?xml version="1.0" encoding="UTF-8"?>
<svg xmlns="http://www.w3.org/2000/svg" xmlns:xlink="http://www.w3.org/1999/xlink" width="769.5" height="1119.5" viewBox="26.25 46.15625 769.5 1119.5">
<path fill-rule="nonzero" fill="rgb(9.799194%, 9.799194%, 8.198547%)" fill-opacity="1" d="M 140.75 160.65625 L 26.25 160.65625 L 26.25 46.15625 L 140.75 46.15625 Z M 140.75 160.65625 "/>
<path fill-rule="nonzero" fill="rgb(77.2995%, 0%, 8.198547%)" fill-opacity="1" d="M 271.75 160.65625 L 157.25 160.65625 L 157.25 46.15625 L 271.75 46.15625 Z M 271.75 160.65625 "/>
<path fill-rule="nonzero" fill="rgb(100%, 92.89856%, 0%)" fill-opacity="1" d="M 402.75 160.65625 L 288.25 160.65625 L 288.25 46.15625 L 402.75 46.15625 Z M 402.75 160.65625 "/>
<path fill-rule="nonzero" fill="rgb(8.599854%, 57.598877%, 27.099609%)" fill-opacity="1" d="M 533.75 160.65625 L 419.25 160.65625 L 419.25 46.15625 L 533.75 46.15625 Z M 533.75 160.65625 "/>
<path fill-rule="nonzero" fill="rgb(0%, 62.399292%, 88.598633%)" fill-opacity="1" d="M 664.75 160.65625 L 550.25 160.65625 L 550.25 46.15625 L 664.75 46.15625 Z M 664.75 160.65625 "/>
<path fill-rule="nonzero" fill="rgb(17.999268%, 16.099548%, 49.798584%)" fill-opacity="1" d="M 795.75 160.65625 L 681.25 160.65625 L 681.25 46.15625 L 795.75 46.15625 Z M 795.75 160.65625 "/>
<path fill-rule="nonzero" fill="rgb(76.899719%, 0%, 47.499084%)" fill-opacity="1" d="M 140.75 307.65625 L 26.25 307.65625 L 26.25 193.15625 L 140.75 193.15625 Z M 140.75 307.65625 "/>
<path fill-rule="nonzero" fill="rgb(63.09967%, 9.399414%, 13.699341%)" fill-opacity="1" d="M 271.75 307.65625 L 157.25 307.65625 L 157.25 193.15625 L 271.75 193.15625 Z M 271.75 307.65625 "/>
<path fill-rule="nonzero" fill="rgb(79.998779%, 29.798889%, 10.998535%)" fill-opacity="1" d="M 402.75 307.65625 L 288.25 307.65625 L 288.25 193.15625 L 402.75 193.15625 Z M 402.75 307.65625 "/>
<path fill-rule="nonzero" fill="rgb(86.299133%, 55.299377%, 0%)" fill-opacity="1" d="M 533.75 307.65625 L 419.25 307.65625 L 419.25 193.15625 L 533.75 193.15625 Z M 533.75 307.65625 "/>
<path fill-rule="nonzero" fill="rgb(90.19928%, 67.799377%, 22.698975%)" fill-opacity="1" d="M 664.75 307.65625 L 550.25 307.65625 L 550.25 193.15625 L 664.75 193.15625 Z M 664.75 307.65625 "/>
<path fill-rule="nonzero" fill="rgb(96.099854%, 91.799927%, 19.599915%)" fill-opacity="1" d="M 795.75 307.65625 L 681.25 307.65625 L 681.25 193.15625 L 795.75 193.15625 Z M 795.75 307.65625 "/>
<path fill-rule="nonzero" fill="rgb(84.298706%, 85.499573%, 7.798767%)" fill-opacity="1" d="M 140.75 454.65625 L 26.25 454.65625 L 26.25 340.15625 L 140.75 340.15625 Z M 140.75 454.65625 "/>
<path fill-rule="nonzero" fill="rgb(60.398865%, 73.699951%, 18.798828%)" fill-opacity="1" d="M 271.75 454.65625 L 157.25 454.65625 L 157.25 340.15625 L 271.75 340.15625 Z M 271.75 454.65625 "/>
<path fill-rule="nonzero" fill="rgb(25.898743%, 52.89917%, 23.098755%)" fill-opacity="1" d="M 402.75 454.65625 L 288.25 454.65625 L 288.25 340.15625 L 402.75 340.15625 Z M 402.75 454.65625 "/>
<path fill-rule="nonzero" fill="rgb(17.999268%, 37.998962%, 20.399475%)" fill-opacity="1" d="M 533.75 454.65625 L 419.25 454.65625 L 419.25 340.15625 L 533.75 340.15625 Z M 533.75 454.65625 "/>
<path fill-rule="nonzero" fill="rgb(37.599182%, 65.899658%, 39.99939%)" fill-opacity="1" d="M 664.75 454.65625 L 550.25 454.65625 L 550.25 340.15625 L 664.75 340.15625 Z M 664.75 454.65625 "/>
<path fill-rule="nonzero" fill="rgb(31.399536%, 61.199951%, 58.399963%)" fill-opacity="1" d="M 795.75 454.65625 L 681.25 454.65625 L 681.25 340.15625 L 795.75 340.15625 Z M 795.75 454.65625 "/>
<path fill-rule="nonzero" fill="rgb(39.99939%, 64.698792%, 85.099792%)" fill-opacity="1" d="M 140.75 601.65625 L 26.25 601.65625 L 26.25 487.15625 L 140.75 487.15625 Z M 140.75 601.65625 "/>
<path fill-rule="nonzero" fill="rgb(25.099182%, 42.698669%, 68.998718%)" fill-opacity="1" d="M 271.75 601.65625 L 157.25 601.65625 L 157.25 487.15625 L 271.75 487.15625 Z M 271.75 601.65625 "/>
<path fill-rule="nonzero" fill="rgb(17.599487%, 18.798828%, 49.798584%)" fill-opacity="1" d="M 402.75 601.65625 L 288.25 601.65625 L 288.25 487.15625 L 402.75 487.15625 Z M 402.75 601.65625 "/>
<path fill-rule="nonzero" fill="rgb(15.299988%, 14.898682%, 35.299683%)" fill-opacity="1" d="M 533.75 601.65625 L 419.25 601.65625 L 419.25 487.15625 L 533.75 487.15625 Z M 533.75 601.65625 "/>
<path fill-rule="nonzero" fill="rgb(33.299255%, 14.099121%, 49.398804%)" fill-opacity="1" d="M 664.75 601.65625 L 550.25 601.65625 L 550.25 487.15625 L 664.75 487.15625 Z M 664.75 601.65625 "/>
<path fill-rule="nonzero" fill="rgb(48.599243%, 9.799194%, 48.599243%)" fill-opacity="1" d="M 795.75 601.65625 L 681.25 601.65625 L 681.25 487.15625 L 795.75 487.15625 Z M 795.75 601.65625 "/>
<path fill-rule="nonzero" fill="rgb(52.49939%, 9.799194%, 34.098816%)" fill-opacity="1" d="M 140.75 748.65625 L 26.25 748.65625 L 26.25 634.15625 L 140.75 634.15625 Z M 140.75 748.65625 "/>
<path fill-rule="nonzero" fill="rgb(71.398926%, 0%, 30.999756%)" fill-opacity="1" d="M 271.75 748.65625 L 157.25 748.65625 L 157.25 634.15625 L 271.75 634.15625 Z M 271.75 748.65625 "/>
<path fill-rule="nonzero" fill="rgb(77.598572%, 8.599854%, 42.698669%)" fill-opacity="1" d="M 402.75 748.65625 L 288.25 748.65625 L 288.25 634.15625 L 402.75 634.15625 Z M 402.75 748.65625 "/>
<path fill-rule="nonzero" fill="rgb(75.299072%, 70.999146%, 59.999084%)" fill-opacity="1" d="M 533.75 748.65625 L 419.25 748.65625 L 419.25 634.15625 L 533.75 634.15625 Z M 533.75 748.65625 "/>
<path fill-rule="nonzero" fill="rgb(58.799744%, 52.198792%, 45.498657%)" fill-opacity="1" d="M 664.75 748.65625 L 550.25 748.65625 L 550.25 634.15625 L 664.75 634.15625 Z M 664.75 748.65625 "/>
<path fill-rule="nonzero" fill="rgb(43.899536%, 39.99939%, 32.899475%)" fill-opacity="1" d="M 795.75 748.65625 L 681.25 748.65625 L 681.25 634.15625 L 795.75 634.15625 Z M 795.75 748.65625 "/>
<path fill-rule="nonzero" fill="rgb(34.899902%, 29.798889%, 24.699402%)" fill-opacity="1" d="M 140.75 887.65625 L 26.25 887.65625 L 26.25 773.15625 L 140.75 773.15625 Z M 140.75 887.65625 "/>
<path fill-rule="nonzero" fill="rgb(72.198486%, 59.599304%, 39.599609%)" fill-opacity="1" d="M 271.75 887.65625 L 157.25 887.65625 L 157.25 773.15625 L 271.75 773.15625 Z M 271.75 887.65625 "/>
<path fill-rule="nonzero" fill="rgb(50.59967%, 36.099243%, 21.199036%)" fill-opacity="1" d="M 402.75 887.65625 L 288.25 887.65625 L 288.25 773.15625 L 402.75 773.15625 Z M 402.75 887.65625 "/>
<path fill-rule="nonzero" fill="rgb(43.099976%, 30.198669%, 14.099121%)" fill-opacity="1" d="M 533.75 887.65625 L 419.25 887.65625 L 419.25 773.15625 L 533.75 773.15625 Z M 533.75 887.65625 "/>
<path fill-rule="nonzero" fill="rgb(35.699463%, 23.098755%, 5.899048%)" fill-opacity="1" d="M 664.75 887.65625 L 550.25 887.65625 L 550.25 773.15625 L 664.75 773.15625 Z M 664.75 887.65625 "/>
<path fill-rule="nonzero" fill="rgb(23.098755%, 16.499329%, 8.198547%)" fill-opacity="1" d="M 795.75 887.65625 L 681.25 887.65625 L 681.25 773.15625 L 795.75 773.15625 Z M 795.75 887.65625 "/>
<path fill-rule="nonzero" fill="rgb(23.498535%, 23.899841%, 23.498535%)" fill-opacity="1" d="M 140.75 1026.65625 L 26.25 1026.65625 L 26.25 912.15625 L 140.75 912.15625 Z M 140.75 1026.65625 "/>
<path fill-rule="nonzero" fill="rgb(34.098816%, 34.899902%, 34.498596%)" fill-opacity="1" d="M 271.75 1026.65625 L 157.25 1026.65625 L 157.25 912.15625 L 271.75 912.15625 Z M 271.75 1026.65625 "/>
<path fill-rule="nonzero" fill="rgb(43.899536%, 44.299316%, 44.299316%)" fill-opacity="1" d="M 402.75 1026.65625 L 288.25 1026.65625 L 288.25 912.15625 L 402.75 912.15625 Z M 402.75 1026.65625 "/>
<path fill-rule="nonzero" fill="rgb(52.89917%, 53.29895%, 53.29895%)" fill-opacity="1" d="M 533.75 1026.65625 L 419.25 1026.65625 L 419.25 912.15625 L 533.75 912.15625 Z M 533.75 1026.65625 "/>
<path fill-rule="nonzero" fill="rgb(61.199951%, 61.999512%, 61.599731%)" fill-opacity="1" d="M 664.75 1026.65625 L 550.25 1026.65625 L 550.25 912.15625 L 664.75 912.15625 Z M 664.75 1026.65625 "/>
<path fill-rule="nonzero" fill="rgb(69.398499%, 69.799805%, 69.799805%)" fill-opacity="1" d="M 795.75 1026.65625 L 681.25 1026.65625 L 681.25 912.15625 L 795.75 912.15625 Z M 795.75 1026.65625 "/>
<path fill-rule="nonzero" fill="rgb(76.899719%, 77.598572%, 77.598572%)" fill-opacity="1" d="M 140.75 1165.65625 L 26.25 1165.65625 L 26.25 1051.15625 L 140.75 1051.15625 Z M 140.75 1165.65625 "/>
<path fill-rule="nonzero" fill="rgb(84.698486%, 85.099792%, 85.099792%)" fill-opacity="1" d="M 271.75 1165.65625 L 157.25 1165.65625 L 157.25 1051.15625 L 271.75 1051.15625 Z M 271.75 1165.65625 "/>
<path fill-rule="nonzero" fill="rgb(84.698486%, 85.099792%, 85.099792%)" fill-opacity="1" d="M 402.75 1165.65625 L 288.25 1165.65625 L 288.25 1051.15625 L 402.75 1051.15625 Z M 402.75 1165.65625 "/>
<path fill-rule="nonzero" fill="rgb(91.799927%, 92.199707%, 92.199707%)" fill-opacity="1" d="M 533.75 1165.65625 L 419.25 1165.65625 L 419.25 1051.15625 L 533.75 1051.15625 Z M 533.75 1165.65625 "/>
<path fill-rule="nonzero" fill="rgb(100%, 100%, 100%)" fill-opacity="1" d="M 664.75 1165.65625 L 550.25 1165.65625 L 550.25 1051.15625 L 664.75 1051.15625 Z M 664.75 1165.65625 "/>
<path fill-rule="nonzero" fill="rgb(4.490662%, 0%, 0%)" fill-opacity="1" d="M 795.75 1165.65625 L 681.25 1165.65625 L 681.25 1051.15625 L 795.75 1051.15625 Z M 795.75 1165.65625 "/>
</svg>
