<?xml version="1.0" encoding="UTF-8"?>
<svg data-original-cmyk-pdf="/home/runner/workspace/uploads/original_dadbe609025e53db5accaa190e05c3c6.pdf" data-cmyk-preserved="true" xmlns="http://www.w3.org/2000/svg" xmlns:xlink="http://www.w3.org/1999/xlink" width="269.291" height="269.291" viewBox="0 0 269.291 269.291">
<path fill-rule="nonzero" fill="rgb(31.37207%, 22.511292%, 50.071716%)" fill-opacity="1" d="M 88.453125 87.875 C 89.621094 87.339844 90.15625 85.96875 89.652344 84.789062 C 89.257812 83.84375 88.296875 83.277344 87.273438 83.355469 C 84.628906 83.574219 86.03125 88.976562 88.453125 87.875 "/>
<path fill-rule="nonzero" fill="rgb(31.37207%, 22.511292%, 50.071716%)" fill-opacity="1" d="M 93.335938 93.875 C 94.800781 94.046875 95.699219 92.410156 95.335938 90.882812 C 95.050781 89.671875 94.046875 88.726562 92.863281 88.976562 C 91.636719 89.246094 91.226562 90.726562 91.574219 92.015625 C 91.808594 92.929688 92.421875 93.765625 93.335938 93.875 "/>
<path fill-rule="nonzero" fill="rgb(31.37207%, 22.511292%, 50.071716%)" fill-opacity="1" d="M 96.140625 101.417969 C 100.140625 99.953125 102.40625 95.71875 101.382812 91.574219 C 100.113281 98.824219 91.441406 102.0625 85.839844 97.339844 C 87.746094 101.121094 92.171875 102.867188 96.140625 101.417969 "/>
<path fill-rule="nonzero" fill="rgb(31.37207%, 22.511292%, 50.071716%)" fill-opacity="1" d="M 164.941406 93.84375 C 165.855469 94.269531 166.957031 94.128906 167.667969 93.417969 C 168.566406 92.519531 168.597656 91.074219 167.714844 90.140625 C 167.050781 89.246094 165.855469 88.914062 164.832031 89.355469 C 162.894531 90.175781 162.988281 92.945312 164.941406 93.84375 "/>
<path fill-rule="nonzero" fill="rgb(31.37207%, 22.511292%, 50.071716%)" fill-opacity="1" d="M 171.003906 98.238281 C 171.761719 98.660156 172.691406 98.519531 173.289062 97.8125 C 174.042969 96.914062 174.078125 95.464844 173.335938 94.535156 C 172.769531 93.640625 171.761719 93.308594 170.910156 93.75 C 169.273438 94.566406 169.351562 97.339844 171.003906 98.238281 "/>
<path fill-rule="nonzero" fill="rgb(31.37207%, 22.511292%, 50.071716%)" fill-opacity="1" d="M 164.328125 96.914062 C 163.273438 97.449219 163.320312 99.261719 164.390625 99.84375 C 164.878906 100.113281 165.496094 100.015625 165.871094 99.558594 C 166.359375 98.976562 166.390625 98.03125 165.902344 97.433594 C 165.542969 96.851562 164.878906 96.628906 164.328125 96.914062 "/>
<path fill-rule="nonzero" fill="rgb(31.37207%, 22.511292%, 50.071716%)" fill-opacity="1" d="M 162.910156 103.308594 C 160.566406 101.96875 159.476562 99.152344 160.3125 96.582031 L 158.34375 96 C 156.816406 99.558594 158.21875 103.6875 161.589844 105.574219 C 165.101562 107.542969 169.523438 106.425781 171.683594 103.039062 L 170.675781 101.214844 C 169.101562 103.921875 165.636719 104.867188 162.910156 103.308594 "/>
<path fill-rule="nonzero" fill="rgb(31.37207%, 22.511292%, 50.071716%)" fill-opacity="1" d="M 192.382812 186.28125 C 193.140625 186.367188 193.90625 186.414062 194.675781 186.394531 C 193.910156 186.351562 193.148438 186.320312 192.382812 186.28125 "/>
<path fill-rule="nonzero" fill="rgb(31.37207%, 22.511292%, 50.071716%)" fill-opacity="1" d="M 126.328125 170.664062 L 128.644531 169.8125 C 129.589844 169.636719 130.707031 170.285156 131.429688 169.6875 C 132.683594 168.640625 132.46875 166.738281 131.195312 165.941406 C 131.195312 165.59375 131.195312 165.246094 131.207031 164.898438 L 132.769531 162.976562 C 133.367188 162.238281 134.707031 161.875 134.488281 161.039062 C 134.15625 159.734375 132.4375 159.433594 131.683594 160.550781 C 131.648438 160.566406 131.613281 160.578125 131.582031 160.589844 C 131.914062 158.152344 132.449219 155.746094 133.195312 153.394531 C 133.5 152.441406 133.835938 151.496094 134.207031 150.5625 C 134.59375 149.582031 134.996094 148.65625 135.410156 147.792969 L 135.425781 147.765625 C 136.847656 144.792969 138.605469 142.011719 140.65625 139.460938 L 147.269531 144.222656 C 145.003906 148.910156 143.382812 153.878906 142.472656 159.003906 L 142.46875 159.03125 C 142.363281 159.613281 142.265625 160.238281 142.171875 160.894531 C 142.082031 161.503906 142.003906 162.132812 141.933594 162.773438 C 141.664062 165.238281 141.558594 167.722656 141.613281 170.207031 C 141.300781 170.277344 140.988281 170.351562 140.675781 170.425781 C 135.886719 171.578125 131.101562 172.757812 126.328125 173.953125 Z M 120.109375 164.988281 L 120.6875 164.628906 C 118.597656 161.285156 116.746094 157.8125 115.148438 154.230469 C 114.835938 153.53125 114.535156 152.832031 114.246094 152.128906 C 113.984375 151.496094 113.703125 150.785156 113.398438 149.992188 L 113.398438 149.988281 C 112.109375 146.613281 111.046875 143.167969 110.203125 139.683594 C 112.578125 137.046875 114.445312 133.972656 115.648438 130.691406 C 116.023438 129.664062 116.339844 128.597656 116.589844 127.507812 C 116.832031 126.441406 117.007812 125.351562 117.105469 124.25 L 117.105469 124.242188 L 117.109375 124.222656 C 117.523438 119.613281 116.53125 115.335938 114.429688 111.878906 L 131.394531 82.582031 L 138.457031 83.8125 L 136.210938 95.09375 C 136.167969 95.316406 136.175781 95.542969 136.230469 95.75 L 141.621094 120.445312 L 131.757812 130.980469 C 131.195312 131.582031 131.226562 132.527344 131.828125 133.089844 C 131.875 133.136719 131.925781 133.175781 131.976562 133.210938 L 131.976562 133.214844 L 138.222656 137.710938 C 136.078125 140.402344 134.230469 143.339844 132.730469 146.472656 L 132.714844 146.503906 C 132.226562 147.519531 131.792969 148.507812 131.417969 149.460938 C 131.023438 150.457031 130.664062 151.46875 130.335938 152.492188 C 129.375 155.519531 128.742188 158.636719 128.425781 161.800781 C 125.652344 162.855469 122.878906 163.917969 120.109375 164.988281 M 116.722656 166.285156 C 112.042969 168.097656 107.375 169.941406 102.710938 171.800781 C 101.460938 168.835938 100.375 165.796875 99.5 162.6875 C 99.242188 161.773438 99.007812 160.890625 98.804688 160.046875 C 98.585938 159.15625 98.386719 158.269531 98.203125 157.378906 L 98.203125 157.371094 C 97.535156 154.144531 97.105469 150.882812 96.863281 147.609375 C 97.675781 147.4375 98.488281 147.234375 99.296875 146.964844 C 100.3125 146.625 101.308594 146.21875 102.277344 145.738281 C 103.214844 145.277344 104.140625 144.746094 105.054688 144.144531 C 105.089844 144.125 105.125 144.101562 105.160156 144.078125 L 105.175781 144.066406 L 105.171875 144.0625 L 105.175781 144.0625 C 106.074219 143.457031 106.917969 142.785156 107.738281 142.078125 C 108.535156 145.125 109.480469 148.128906 110.597656 151.054688 L 110.597656 151.058594 C 110.851562 151.71875 111.148438 152.457031 111.480469 153.265625 C 111.785156 154 112.097656 154.726562 112.417969 155.449219 C 114.019531 159.039062 115.859375 162.503906 117.914062 165.828125 C 117.519531 165.980469 117.117188 166.128906 116.722656 166.285156 M 85.675781 143.351562 L 85.679688 143.351562 L 85.664062 143.34375 C 84.949219 142.945312 84.28125 142.496094 83.667969 141.996094 C 83.050781 141.492188 82.484375 140.933594 81.960938 140.332031 C 79.253906 137.183594 77.914062 132.761719 78.351562 127.894531 L 78.355469 127.878906 C 78.441406 126.925781 78.59375 125.964844 78.8125 125.007812 C 79.027344 124.070312 79.304688 123.132812 79.648438 122.199219 C 81.394531 117.441406 84.683594 113.164062 88.96875 110.285156 L 88.972656 110.289062 L 88.988281 110.277344 C 89.019531 110.257812 89.054688 110.234375 89.085938 110.207031 C 89.878906 109.683594 90.695312 109.214844 91.53125 108.804688 C 92.398438 108.375 93.269531 108.015625 94.125 107.730469 C 98.550781 106.253906 103.089844 106.480469 106.804688 108.507812 L 106.804688 108.511719 L 106.820312 108.519531 C 107.535156 108.914062 108.203125 109.363281 108.816406 109.867188 C 109.429688 110.367188 110 110.925781 110.519531 111.527344 C 110.652344 111.683594 110.769531 111.855469 110.894531 112.015625 L 109.410156 114.574219 L 112 116.074219 L 112.667969 114.921875 C 113.886719 117.558594 114.429688 120.652344 114.132812 123.964844 L 114.128906 123.980469 C 114.042969 124.9375 113.886719 125.894531 113.671875 126.851562 C 113.457031 127.789062 113.175781 128.726562 112.835938 129.660156 C 112.011719 131.898438 110.839844 134.027344 109.390625 135.957031 C 109.265625 135.320312 109.144531 134.660156 109.023438 133.945312 C 108.871094 133.027344 108.734375 132.128906 108.617188 131.261719 L 108.613281 131.25 L 105.648438 131.648438 L 105.652344 131.660156 C 105.78125 132.617188 105.921875 133.546875 106.070312 134.4375 C 106.214844 135.296875 106.386719 136.21875 106.585938 137.203125 C 106.691406 137.722656 106.820312 138.238281 106.9375 138.761719 C 105.882812 139.796875 104.746094 140.75 103.515625 141.578125 L 103.511719 141.570312 L 103.496094 141.582031 C 103.464844 141.605469 103.433594 141.625 103.402344 141.648438 C 102.605469 142.175781 101.789062 142.644531 100.953125 143.058594 C 100.085938 143.484375 99.214844 143.84375 98.359375 144.128906 C 97.800781 144.316406 97.242188 144.472656 96.683594 144.605469 C 96.644531 143.476562 96.613281 142.347656 96.621094 141.214844 C 96.628906 140.1875 96.660156 139.132812 96.714844 138.050781 C 96.765625 136.972656 96.839844 135.925781 96.929688 134.914062 L 96.929688 134.890625 L 96.933594 134.859375 L 93.957031 134.589844 L 93.957031 134.621094 L 93.953125 134.652344 C 93.855469 135.765625 93.777344 136.851562 93.726562 137.90625 C 93.671875 138.976562 93.644531 140.070312 93.632812 141.191406 C 93.621094 142.476562 93.652344 143.757812 93.703125 145.039062 C 90.851562 145.210938 88.089844 144.667969 85.675781 143.351562 M 85.582031 106.949219 C 85.171875 106.417969 84.792969 105.863281 84.441406 105.285156 C 82.667969 102.386719 81.703125 99.03125 81.679688 95.589844 L 81.6875 95.589844 L 81.6875 95.269531 C 81.6875 95.230469 81.6875 95.191406 81.683594 95.152344 C 81.691406 94.03125 81.769531 92.875 81.914062 91.707031 C 82.0625 90.511719 82.277344 89.351562 82.558594 88.257812 C 83.953125 82.890625 87.050781 78.566406 92.089844 78.519531 L 92.238281 78.519531 C 92.988281 78.519531 93.722656 78.605469 94.429688 78.765625 C 95.121094 78.917969 95.804688 79.152344 96.46875 79.453125 C 97.867188 80.089844 99.121094 81.03125 100.210938 82.175781 C 99.722656 81.722656 99.066406 81.445312 98.359375 81.464844 C 97.210938 82.09375 96.644531 83.433594 96.972656 84.695312 C 97.226562 85.671875 97.886719 86.566406 98.863281 86.679688 C 100.421875 86.867188 101.367188 85.121094 100.988281 83.496094 C 100.902344 83.125 100.730469 82.792969 100.507812 82.503906 C 101.929688 84.097656 103.042969 86.050781 103.71875 88.195312 L 103.71875 88.207031 L 103.738281 88.265625 C 103.984375 89.058594 104.160156 89.871094 104.257812 90.683594 C 104.363281 91.523438 104.390625 92.359375 104.347656 93.171875 C 104.113281 97.378906 101.96875 101.355469 98.363281 103.863281 C 96.644531 103.992188 94.910156 104.320312 93.1875 104.894531 C 92.171875 105.234375 91.175781 105.644531 90.207031 106.121094 C 89.269531 106.582031 88.34375 107.113281 87.429688 107.71875 C 87.394531 107.738281 87.359375 107.757812 87.324219 107.78125 L 87.308594 107.792969 L 87.3125 107.796875 L 87.308594 107.796875 C 87.097656 107.9375 86.902344 108.097656 86.695312 108.246094 C 86.308594 107.824219 85.925781 107.398438 85.582031 106.949219 M 144.800781 105.78125 L 144.957031 110.789062 C 146.804688 106.214844 149.277344 101.902344 152.296875 98 C 152.058594 98.980469 151.90625 99.992188 151.875 101.03125 C 151.804688 103.203125 151.96875 105.480469 152.613281 107.511719 C 152.707031 107.804688 152.8125 108.089844 152.925781 108.371094 L 144.109375 117.789062 L 142.078125 108.5 Z M 165.3125 110.25 C 163.988281 110.582031 162.625 110.859375 161.359375 110.886719 C 161.183594 110.890625 161.015625 110.878906 160.84375 110.871094 C 161.84375 108.710938 160.898438 105.972656 158.484375 105.039062 C 157.382812 104.617188 156.164062 104.671875 155.113281 105.152344 C 154.882812 103.859375 154.820312 102.472656 154.863281 101.113281 C 154.953125 98.148438 156.191406 95.398438 158.117188 93.121094 C 158.5 92.667969 158.910156 92.234375 159.339844 91.828125 C 159.777344 91.410156 160.234375 91.019531 160.707031 90.652344 L 160.75 90.625 C 163.8125 88.273438 167.597656 87.210938 171.339844 87.539062 C 172.074219 87.601562 172.800781 87.71875 173.511719 87.886719 C 174.128906 88.03125 174.742188 88.21875 175.355469 88.445312 C 176.640625 89.847656 177.527344 91.519531 177.964844 93.3125 C 178.054688 93.683594 178.128906 94.058594 178.179688 94.441406 C 178.234375 94.832031 178.269531 95.214844 178.28125 95.597656 L 178.28125 95.648438 C 178.34375 97.621094 177.660156 99.457031 176.574219 101.152344 C 175.429688 102.949219 173.835938 104.605469 172.179688 106.121094 L 172.160156 106.136719 C 171.132812 107.066406 170.046875 107.945312 168.878906 108.675781 C 167.765625 109.371094 166.582031 109.925781 165.3125 110.25 M 156.660156 119.523438 C 156.554688 119.996094 156.457031 120.472656 156.363281 120.949219 C 156.265625 121.441406 156.179688 121.917969 156.097656 122.378906 L 156.097656 122.390625 C 155.285156 127 155.484375 131.636719 155.679688 136.277344 C 155.800781 139.164062 155.921875 142.050781 155.792969 144.902344 L 155.15625 146.21875 L 151.097656 143.296875 C 151.292969 142.933594 151.492188 142.570312 151.707031 142.195312 C 152.210938 141.3125 152.71875 140.472656 153.230469 139.6875 C 153.246094 139.664062 153.261719 139.640625 153.277344 139.617188 L 153.285156 139.609375 L 150.777344 137.96875 L 150.769531 137.976562 C 150.75 138.007812 150.730469 138.039062 150.710938 138.070312 C 150.132812 138.96875 149.59375 139.851562 149.105469 140.707031 C 148.953125 140.972656 148.800781 141.257812 148.648438 141.535156 L 142.621094 137.195312 C 143.238281 136.527344 143.871094 135.871094 144.53125 135.242188 C 145.25 134.558594 146.007812 133.886719 146.800781 133.230469 C 147.578125 132.589844 148.359375 131.984375 149.144531 131.421875 C 149.171875 131.40625 149.195312 131.390625 149.21875 131.375 L 149.222656 131.371094 L 148.078125 129.792969 L 147.472656 128.941406 L 147.464844 128.945312 L 147.460938 128.945312 C 147.441406 128.960938 147.421875 128.976562 147.402344 128.992188 C 146.523438 129.621094 145.6875 130.265625 144.890625 130.921875 C 144.074219 131.601562 143.265625 132.316406 142.46875 133.074219 C 141.675781 133.832031 140.914062 134.625 140.175781 135.433594 L 135.097656 131.78125 L 154.519531 111.035156 C 155.097656 111.707031 155.785156 112.292969 156.609375 112.765625 C 157.144531 113.074219 157.707031 113.289062 158.277344 113.460938 C 157.65625 115.464844 157.101562 117.484375 156.660156 119.523438 M 204.519531 176.519531 C 200.203125 176.082031 195.855469 175.875 191.507812 175.90625 L 191.382812 175.90625 C 189.195312 175.921875 187.003906 176.222656 184.816406 176.15625 C 180.09375 176.015625 175.398438 175.324219 170.832031 174.078125 L 174.613281 172.503906 L 172.894531 170.914062 L 167.554688 171.527344 L 167.554688 176.285156 L 163.289062 176.644531 L 161.839844 173.589844 L 160.125 175.542969 L 159.527344 178.347656 C 155.460938 178.363281 151.398438 178.613281 147.351562 179.085938 C 147.257812 179.101562 147.210938 178.945312 147.117188 178.960938 C 142.972656 179.449219 138.878906 180.222656 134.847656 181.277344 L 137.636719 177.625 C 140.1875 177.371094 142.738281 177.136719 145.289062 176.882812 C 149.871094 176.441406 154.453125 175.984375 159.039062 175.542969 L 158.910156 171.890625 L 147.117188 171.765625 L 164.628906 167.496094 L 162.691406 165.308594 C 156.648438 166.667969 150.621094 168.066406 144.597656 169.5 C 144.578125 167.359375 144.675781 165.214844 144.910156 163.089844 C 144.972656 162.511719 145.046875 161.921875 145.136719 161.316406 C 145.214844 160.761719 145.3125 160.171875 145.421875 159.546875 L 145.425781 159.519531 C 146.257812 154.824219 147.714844 150.28125 149.734375 145.996094 L 154.859375 149.6875 C 155.527344 150.167969 156.460938 150.015625 156.945312 149.347656 C 156.996094 149.273438 157.039062 149.199219 157.074219 149.121094 L 157.078125 149.125 L 158.621094 145.925781 C 158.710938 145.738281 158.757812 145.539062 158.769531 145.34375 L 158.769531 145.320312 C 158.925781 142.261719 158.796875 139.210938 158.667969 136.160156 C 158.542969 133.234375 158.425781 130.3125 158.566406 127.429688 L 187.070312 125.390625 L 189.425781 126.925781 C 189.5 127.050781 189.566406 127.164062 189.625 127.261719 C 189.75 127.472656 189.914062 127.730469 190.117188 128.042969 C 190.972656 129.359375 191.9375 130.601562 192.988281 131.753906 L 192.992188 131.753906 C 193.011719 131.777344 193.03125 131.800781 193.054688 131.820312 C 193.3125 132.101562 193.585938 132.386719 193.882812 132.679688 C 194.195312 132.992188 194.5 133.285156 194.792969 133.550781 C 196.378906 135 198.136719 136.265625 200.015625 137.332031 L 201.492188 134.730469 C 199.8125 133.78125 198.238281 132.640625 196.808594 131.335938 C 196.511719 131.066406 196.238281 130.808594 195.992188 130.558594 C 195.753906 130.320312 195.503906 130.066406 195.253906 129.789062 L 195.230469 129.761719 L 195.226562 129.761719 L 195.210938 129.746094 L 195.210938 129.742188 C 195.175781 129.707031 195.148438 129.667969 195.113281 129.628906 C 196.640625 130.074219 198.210938 130.371094 199.804688 130.472656 L 199.828125 130.472656 L 199.871094 130.476562 C 200.28125 130.5 200.730469 130.515625 201.203125 130.515625 C 201.683594 130.519531 202.136719 130.507812 202.5625 130.480469 C 204.882812 130.339844 207.175781 129.828125 209.351562 128.964844 L 208.25 126.1875 C 206.378906 126.929688 204.402344 127.371094 202.386719 127.492188 C 201.964844 127.515625 201.570312 127.527344 201.203125 127.527344 C 200.847656 127.527344 200.457031 127.511719 200.035156 127.484375 L 199.996094 127.484375 C 197.839844 127.347656 195.71875 126.835938 193.738281 125.984375 C 193.542969 125.898438 193.324219 125.789062 193.117188 125.691406 L 203.242188 118.511719 L 201.507812 116.074219 L 190.371094 123.96875 L 188.359375 122.65625 C 188.078125 122.449219 187.730469 122.339844 187.359375 122.363281 L 158.824219 124.410156 C 158.886719 123.90625 158.960938 123.402344 159.050781 122.902344 L 159.050781 122.894531 C 159.132812 122.421875 159.21875 121.964844 159.304688 121.523438 C 159.394531 121.070312 159.488281 120.613281 159.585938 120.15625 C 160.050781 118.03125 160.625 115.9375 161.277344 113.871094 C 161.324219 113.871094 161.371094 113.875 161.417969 113.875 C 162.992188 113.84375 164.554688 113.527344 166.046875 113.152344 L 166.050781 113.152344 C 167.339844 112.828125 168.546875 112.308594 169.691406 111.667969 L 168.359375 116.472656 C 169.636719 115.703125 170.816406 114.789062 171.902344 113.765625 C 172.800781 112.914062 173.621094 112 174.34375 111.007812 L 174.203125 115.148438 C 175.621094 113.449219 176.863281 111.589844 177.886719 109.625 C 178.785156 107.890625 179.179688 105.921875 179.996094 104.144531 C 181.714844 100.425781 184.453125 97.277344 186.769531 93.875 C 188.691406 91.054688 190.675781 88.269531 192.691406 85.511719 C 191.117188 85.511719 189.558594 85.890625 188.15625 86.632812 C 186.582031 87.464844 185.257812 88.710938 184.34375 90.253906 C 183.933594 89.464844 183.398438 88.757812 182.753906 88.140625 C 182.738281 88.128906 182.832031 88.09375 182.816406 88.078125 C 181.714844 86.992188 179.824219 87.007812 178.675781 85.96875 C 175.289062 82.929688 173.445312 78.128906 169.414062 76.0625 C 166.738281 74.695312 163.714844 74.175781 160.738281 74.566406 C 160.972656 76.09375 161.777344 77.464844 162.957031 78.457031 C 163.984375 79.308594 165.257812 79.8125 166.582031 79.90625 L 164.613281 80.820312 L 168.484375 83.007812 L 167.8125 84.628906 C 166.585938 84.777344 165.382812 85.054688 164.207031 85.453125 L 163.652344 81.480469 C 158.863281 85.054688 154.40625 89.054688 150.328125 93.433594 C 147.351562 96.628906 144.171875 99.75 142.46875 103.75 C 142.082031 104.664062 141.820312 105.625 141.664062 106.605469 L 139.214844 95.375 L 141.414062 84.332031 L 142.484375 84.515625 L 142.988281 81.5625 L 134.265625 80.042969 L 144.917969 71.449219 L 143.042969 69.117188 L 132.171875 77.886719 L 132.296875 66.546875 L 129.304688 66.523438 L 129.15625 80.480469 L 112.488281 109.257812 C 111.933594 108.648438 111.34375 108.070312 110.703125 107.546875 C 109.941406 106.925781 109.125 106.371094 108.261719 105.894531 L 108.246094 105.886719 L 108.242188 105.886719 C 106.515625 104.945312 104.652344 104.332031 102.714844 104.023438 C 105.480469 101.097656 107.113281 97.304688 107.335938 93.335938 C 107.390625 92.324219 107.359375 91.316406 107.234375 90.320312 C 107.113281 89.339844 106.902344 88.355469 106.597656 87.375 L 106.578125 87.304688 L 106.578125 87.296875 L 106.574219 87.296875 C 105.210938 82.964844 102.339844 79.234375 98.582031 77.191406 C 99.964844 75.65625 101.609375 74.378906 103.460938 73.464844 C 105.839844 72.300781 108.453125 71.71875 111.097656 71.78125 C 103.003906 66.527344 96.011719 69.683594 89.605469 75.054688 C 86.265625 74.332031 82.769531 74.867188 79.792969 76.550781 C 76.46875 78.425781 74.078125 81.589844 73.148438 85.292969 C 75.527344 84.378906 77.933594 83.589844 80.375 82.898438 C 80.753906 82.789062 81.144531 82.703125 81.527344 82.601562 C 80.742188 84.097656 80.121094 85.757812 79.664062 87.507812 C 79.335938 88.773438 79.09375 90.058594 78.9375 91.34375 C 78.785156 92.566406 78.707031 93.839844 78.695312 95.125 C 78.691406 95.171875 78.6875 95.222656 78.6875 95.269531 L 78.6875 95.589844 L 78.691406 95.589844 L 78.691406 95.597656 C 78.714844 99.597656 79.835938 103.484375 81.882812 106.84375 C 82.289062 107.503906 82.734375 108.152344 83.214844 108.777344 C 83.570312 109.242188 83.96875 109.679688 84.363281 110.113281 C 80.984375 113.144531 78.371094 116.988281 76.835938 121.167969 C 76.539062 121.976562 76.292969 122.8125 76.074219 123.664062 C 70.503906 122.917969 65.308594 120.625 61.066406 117.082031 C 60.21875 116.375 59.417969 115.625 58.660156 114.832031 C 57.90625 114.042969 57.203125 113.222656 56.554688 112.375 C 56.535156 112.347656 56.515625 112.320312 56.496094 112.292969 L 56.488281 112.28125 L 56.488281 112.285156 C 56.152344 111.84375 55.84375 111.390625 55.539062 110.933594 L 55.859375 110.976562 L 59.714844 80.660156 L 56.75 80.285156 L 53.339844 107.082031 C 51.796875 103.816406 50.859375 100.296875 50.585938 96.695312 C 50.503906 95.582031 50.480469 94.480469 50.523438 93.398438 C 50.5625 92.320312 50.664062 91.214844 50.832031 90.09375 L 50.832031 90.085938 L 50.835938 90.078125 L 47.871094 89.640625 L 47.867188 89.648438 C 47.691406 90.839844 47.578125 92.054688 47.53125 93.292969 C 47.488281 94.523438 47.511719 95.734375 47.597656 96.917969 C 47.921875 101.195312 49.113281 105.371094 51.066406 109.207031 L 50.824219 112.035156 L 40.027344 97.65625 L 37.636719 99.449219 L 50.785156 116.960938 C 51.28125 117.621094 52.21875 117.753906 52.878906 117.257812 C 53.234375 116.992188 53.4375 116.597656 53.472656 116.1875 L 53.476562 116.1875 L 53.707031 113.519531 C 53.84375 113.710938 53.972656 113.910156 54.117188 114.101562 L 54.125 114.109375 L 54.121094 114.113281 L 54.128906 114.125 C 54.148438 114.144531 54.164062 114.167969 54.179688 114.1875 C 54.917969 115.148438 55.691406 116.054688 56.492188 116.894531 C 57.339844 117.78125 58.222656 118.609375 59.144531 119.378906 C 63.777344 123.246094 69.4375 125.761719 75.503906 126.605469 C 75.457031 126.941406 75.410156 127.273438 75.378906 127.609375 L 75.378906 127.617188 L 75.375 127.636719 C 74.863281 133.320312 76.464844 138.527344 79.691406 142.277344 C 80.324219 143.011719 81.023438 143.695312 81.78125 144.3125 C 82.542969 144.933594 83.359375 145.488281 84.222656 145.96875 L 84.238281 145.976562 L 84.238281 145.972656 L 84.242188 145.976562 C 87.167969 147.570312 90.488281 148.226562 93.894531 148.015625 C 94.152344 151.355469 94.59375 154.679688 95.273438 157.96875 L 95.273438 157.976562 C 95.464844 158.910156 95.675781 159.835938 95.898438 160.75 C 96.132812 161.710938 96.371094 162.625 96.617188 163.496094 C 97.519531 166.695312 98.640625 169.835938 99.9375 172.910156 C 98.554688 173.464844 97.171875 174.011719 95.792969 174.566406 C 94.203125 173.261719 92.042969 172.851562 90.078125 173.464844 C 88.957031 173.8125 87.792969 174.285156 87.273438 175.308594 C 86.738281 176.347656 86.785156 177.589844 87.398438 178.597656 C 86.421875 180.679688 84.925781 182.472656 83.070312 183.828125 C 81.871094 184.691406 80.535156 185.355469 79.117188 185.796875 L 80.03125 188.425781 C 81.652344 188.394531 83.257812 188.15625 84.832031 187.75 C 86.265625 187.371094 87.652344 186.835938 88.972656 186.15625 C 84.847656 189.121094 80.488281 191.75 75.949219 194.03125 C 73.226562 195.402344 69.699219 195.117188 67.320312 197.023438 C 65.054688 198.835938 63.445312 201.339844 62.753906 204.15625 C 64.265625 202.519531 66.03125 201.136719 67.984375 200.0625 C 70.597656 198.632812 73.589844 198.109375 76.4375 197.199219 C 79.242188 196.285156 82.0625 195.417969 84.894531 194.585938 C 82.691406 195.890625 80.421875 197.132812 78.140625 198.300781 C 75.605469 199.589844 73.039062 200.789062 70.421875 201.890625 L 71.808594 204.695312 C 74.265625 203.230469 76.847656 202.015625 79.542969 201.039062 C 81.574219 200.300781 83.636719 199.71875 85.746094 199.277344 C 87.101562 199.652344 88.46875 199.921875 89.871094 200.0625 C 92.1875 200.316406 94.5 200.207031 96.816406 199.9375 C 100.46875 199.511719 103.839844 197.511719 107.507812 197.246094 C 110.109375 197.054688 112.707031 197.625 115.304688 197.625 C 117.527344 197.625 119.714844 197.167969 121.933594 197.199219 C 130.0625 197.339844 138.125 198.503906 145.949219 200.664062 L 145.886719 197.308594 C 144.816406 196.550781 143.636719 195.9375 142.40625 195.480469 C 140.40625 194.742188 138.296875 194.441406 136.171875 194.566406 C 138.519531 194.363281 140.863281 194.253906 143.210938 194.269531 C 144.46875 194.269531 145.714844 194.316406 146.972656 194.378906 L 146.25 192.488281 C 141.050781 191.875 135.792969 191.671875 130.566406 191.890625 C 126.078125 192.078125 121.621094 192.566406 117.195312 193.355469 C 119.824219 191.921875 122.597656 190.789062 125.460938 189.9375 C 133.589844 187.542969 142.15625 187.402344 150.628906 186.773438 C 164.527344 185.742188 178.46875 185.585938 192.382812 186.28125 C 189.539062 185.960938 186.804688 184.921875 184.453125 183.230469 C 183.003906 182.175781 181.730469 180.898438 180.675781 179.449219 L 206.46875 179.6875 Z M 204.519531 176.519531 "/>
<path fill-rule="nonzero" fill="rgb(31.37207%, 22.511292%, 50.071716%)" fill-opacity="1" d="M 49.761719 167.859375 C 50.09375 164.882812 52.546875 162.582031 55.542969 162.472656 C 55.574219 162.472656 55.574219 162.410156 55.605469 162.410156 C 57.003906 162.378906 58.375 162.851562 59.476562 163.734375 C 59.808594 166.882812 57.445312 169.652344 54.28125 169.828125 C 52.546875 169.921875 50.878906 169.183594 49.761719 167.859375 M 50.234375 182.03125 C 48.910156 183.921875 47.273438 186.0625 45.335938 185.277344 C 43.621094 184.566406 43.382812 182.378906 43.492188 180.425781 C 43.589844 178.726562 44.597656 177.261719 45.699219 175.9375 C 46.707031 174.726562 47.964844 173.765625 49.398438 173.136719 C 50.644531 174.128906 51.445312 175.558594 51.667969 177.136719 C 51.902344 178.867188 51.242188 180.582031 50.234375 182.03125 M 38.957031 166.363281 C 37.714844 164.773438 36.878906 162.898438 36.566406 160.914062 C 36.171875 158.519531 36.535156 156.046875 37.589844 153.859375 C 39.289062 154.425781 40.785156 155.496094 41.871094 156.914062 C 43.398438 158.898438 44.027344 161.433594 43.605469 163.90625 Z M 39.558594 178.632812 C 38.566406 178.742188 37.605469 178.316406 36.878906 177.605469 C 35.320312 176.078125 35.980469 173.558594 37.589844 171.9375 C 38.296875 171.214844 39.132812 170.457031 40.09375 170.613281 C 41.429688 170.820312 41.730469 172.503906 41.871094 173.96875 C 42.0625 176.0625 41.476562 178.410156 39.558594 178.632812 M 48.738281 155.183594 C 48.785156 155.117188 48.863281 155.054688 48.910156 154.992188 C 50.484375 153.070312 52.878906 151.984375 55.367188 152.0625 C 55.605469 154.457031 54.910156 156.867188 53.445312 158.773438 C 51.964844 160.695312 49.824219 161.96875 47.429688 162.347656 C 46.691406 159.890625 47.179688 157.214844 48.738281 155.183594 M 63.839844 196.15625 L 65.164062 198.253906 L 67.429688 196.929688 L 66.535156 195.070312 C 68.878906 193.890625 70.738281 191.921875 71.777344 189.511719 C 73.132812 186.363281 72.957031 182.773438 71.304688 179.765625 C 71.335938 182.789062 70.5 185.765625 68.910156 188.332031 C 67.984375 189.828125 66.816406 191.148438 65.445312 192.269531 L 61.792969 186.867188 C 60.613281 185.117188 59.351562 183.417969 58.234375 181.625 C 57.527344 180.488281 56.847656 179.324219 56.203125 178.144531 L 56.203125 178.207031 C 55.871094 177.433594 55.589844 176.648438 55.351562 175.84375 C 55.117188 175.023438 54.941406 174.191406 54.832031 173.355469 C 55.933594 172.613281 56.972656 171.765625 57.933594 170.851562 L 58.59375 170.191406 C 59.714844 169.089844 60.832031 167.9375 61.398438 166.472656 C 62.0625 164.789062 62.390625 162.929688 61.699219 161.277344 C 61.003906 159.640625 59.589844 158.394531 57.871094 157.921875 C 59.117188 156.585938 59.605469 154.726562 59.210938 152.945312 C 58.832031 151.261719 57.730469 149.796875 56.140625 149.136719 C 55.589844 148.914062 54.988281 148.804688 54.390625 148.757812 C 52.691406 148.648438 51.117188 149.464844 49.699219 150.441406 C 47.210938 152.144531 45.636719 154.867188 45.398438 157.875 C 45.148438 156.457031 44.53125 155.136719 43.636719 154.015625 C 41.871094 151.84375 40.660156 148.550781 38.140625 148.914062 C 36.421875 149.167969 35.226562 150.644531 34.25 152.144531 C 32.925781 154.140625 32.925781 156.695312 33.117188 159.117188 C 33.382812 162.613281 34.46875 166 36.28125 168.992188 C 34.925781 170.332031 34.0625 172.082031 33.808594 173.96875 C 33.574219 175.75 33.574219 177.652344 34.660156 179.039062 C 35.636719 180.269531 37.070312 181.085938 38.628906 181.085938 C 39.273438 181.085938 39.917969 180.960938 40.519531 180.710938 C 40.171875 182.550781 40.566406 184.457031 41.589844 186.03125 C 42.519531 187.449219 43.761719 188.742188 45.414062 188.976562 C 45.605469 189.007812 45.777344 189.023438 45.964844 189.023438 C 47.917969 189.070312 49.195312 187.136719 50.582031 185.605469 C 50.925781 185.230469 51.257812 184.835938 51.558594 184.425781 C 52.597656 183.007812 53.367188 181.402344 53.824219 179.703125 L 62.234375 194.363281 C 60.941406 194.789062 59.605469 195.007812 58.25 195.007812 C 57.683594 195.007812 57.117188 194.976562 56.566406 194.898438 C 54.519531 194.613281 52.566406 193.84375 50.894531 192.632812 C 51.367188 195.542969 53.527344 197.890625 56.390625 198.597656 C 56.972656 198.742188 57.558594 198.820312 58.15625 198.820312 C 60.359375 198.820312 62.4375 197.84375 63.839844 196.15625 "/>
<path fill-rule="nonzero" fill="rgb(31.37207%, 22.511292%, 50.071716%)" fill-opacity="1" d="M 233.035156 144.0625 C 232.328125 144.679688 231.445312 145.039062 230.546875 145.339844 C 228.957031 145.859375 227.164062 147.117188 226.832031 145.859375 C 226.613281 145.007812 227.476562 144.332031 228.042969 143.59375 C 229.101562 142.238281 230.484375 141.070312 232.171875 140.914062 C 233.148438 140.820312 234.28125 140.550781 234.785156 141.324219 C 235.414062 142.285156 234.027344 143.199219 233.035156 144.0625 M 231.996094 153.84375 C 230.691406 154.425781 229.558594 152.742188 230.597656 151.75 C 231.070312 151.308594 231.777344 151.277344 232.28125 151.6875 C 233.019531 152.285156 232.863281 153.449219 231.996094 153.84375 M 225.558594 138.410156 C 225.070312 140.03125 224.863281 142.160156 223.746094 141.542969 C 223.164062 141.214844 223.023438 140.457031 222.816406 139.796875 C 222.421875 138.441406 222.613281 136.992188 223.335938 135.78125 C 223.777344 135.039062 224.09375 134 224.800781 134.207031 C 225.304688 134.347656 225.492188 134.914062 225.667969 135.433594 C 225.996094 136.394531 225.855469 137.433594 225.558594 138.410156 M 221.304688 158.851562 C 221.289062 159.859375 220.894531 160.820312 220.203125 161.542969 C 219.164062 162.632812 217.574219 162.882812 216.078125 162.582031 C 214.328125 162.222656 212.753906 161.101562 212.421875 159.386719 C 212.078125 157.605469 213.429688 156.046875 214.925781 154.898438 C 215.984375 154.078125 217.195312 153.324219 218.46875 153.558594 C 219.558594 153.765625 220.453125 154.472656 221.023438 155.417969 C 221.636719 156.457031 221.746094 157.71875 221.304688 158.851562 M 210.628906 144.695312 C 209.558594 144.726562 208.519531 144.222656 207.886719 143.355469 C 207.164062 142.378906 207.304688 141.054688 207.667969 139.859375 C 207.996094 138.757812 208.894531 137.953125 209.699219 137.117188 C 211.164062 135.574219 212.941406 134.394531 214.925781 133.621094 C 216.0625 133.183594 217.195312 132.472656 218.34375 132.757812 C 219.179688 132.960938 220.109375 133.246094 220.328125 134.03125 C 220.519531 134.679688 219.824219 135.277344 219.683594 135.953125 C 219.683594 136.65625 219.777344 137.734375 219.511719 138.457031 C 218.738281 140.488281 215.460938 139.90625 213.636719 141.199219 C 212.359375 142.097656 211.335938 143.308594 210.628906 144.695312 M 235.195312 145.164062 C 236.925781 143.023438 236.785156 139.90625 234.847656 137.9375 C 233.539062 136.601562 231.621094 136.03125 229.792969 136.425781 C 229.917969 134.03125 229.054688 131.703125 227.414062 129.953125 C 227.398438 129.9375 227.429688 130.03125 227.414062 130.015625 C 224.753906 127.164062 220.0625 128.757812 215.902344 128.789062 C 212.078125 128.820312 208.644531 130.992188 206.5 134.207031 C 203.777344 138.300781 202.675781 143.6875 206.03125 146.976562 C 206.042969 146.992188 206.078125 147.007812 206.09375 147.023438 C 207.539062 148.425781 209.429688 149.261719 211.429688 149.417969 L 212.535156 151.984375 C 209.558594 153.59375 207.996094 156.945312 208.707031 160.253906 C 209.304688 163.105469 211.652344 165.183594 214.453125 166.078125 C 216.832031 166.851562 219.429688 166.566406 221.605469 165.324219 C 221.003906 168.078125 220.847656 170.914062 221.132812 173.71875 C 221.414062 176.550781 222.140625 179.324219 223.289062 181.921875 L 225.382812 181.640625 C 224.878906 178.679688 224.628906 175.667969 224.628906 172.664062 L 224.628906 172.601562 C 224.628906 170.347656 224.785156 168.078125 225.085938 165.84375 C 225.871094 165.511719 226.4375 164.773438 226.53125 163.921875 C 226.597656 163.355469 226.3125 162.820312 226.125 162.285156 C 225.652344 160.945312 225.085938 159.511719 225.667969 158.269531 C 226.125 157.292969 226.785156 156.316406 227.808594 156.285156 C 228.578125 156.253906 229.320312 156.613281 229.730469 157.277344 C 230.15625 157.96875 230.171875 158.835938 229.730469 159.496094 C 229.636719 159.640625 229.445312 159.734375 229.382812 159.890625 C 228.785156 161.308594 227.636719 162.867188 228.691406 163.6875 C 229.179688 164.0625 229.808594 164.144531 230.421875 164.097656 C 231.996094 163.984375 232.453125 161.96875 233.101562 160.363281 C 233.667969 158.960938 233.886719 157.449219 233.746094 155.9375 C 235.605469 154.726562 236.800781 152.726562 236.988281 150.519531 C 237.148438 148.566406 236.5 146.632812 235.195312 145.164062 "/>
<path fill-rule="nonzero" fill="rgb(31.37207%, 22.511292%, 50.071716%)" fill-opacity="1" d="M 124.75 58.078125 C 127.347656 58.078125 129.902344 57.019531 132.40625 54.90625 C 132.878906 54.507812 133.117188 54.039062 133.117188 53.496094 C 133.117188 53.015625 132.9375 52.585938 132.582031 52.214844 C 132.203125 51.8125 131.734375 51.613281 131.1875 51.613281 C 130.824219 51.613281 130.285156 51.851562 129.574219 52.320312 C 128.515625 53.046875 127.824219 53.488281 127.496094 53.664062 C 126.5625 54.136719 125.648438 54.375 124.75 54.375 C 123.816406 54.375 123.023438 54.019531 122.355469 53.3125 C 121.6875 52.597656 121.355469 51.746094 121.355469 50.753906 C 121.355469 48.574219 122.410156 46.234375 124.515625 43.738281 C 126.015625 41.953125 127.34375 41.0625 128.492188 41.0625 C 129.074219 41.0625 129.4375 41.09375 129.574219 41.152344 C 129.753906 41.238281 129.9375 41.484375 130.121094 41.894531 C 130.511719 42.757812 131.117188 43.191406 131.941406 43.191406 C 132.59375 43.191406 133.097656 42.945312 133.441406 42.457031 C 133.707031 42.082031 133.839844 41.667969 133.839844 41.210938 C 133.839844 40.1875 133.757812 39.296875 133.605469 38.53125 C 133.386719 37.464844 132.8125 36.929688 131.882812 36.929688 C 131.320312 36.929688 130.832031 37.128906 130.4375 37.519531 C 130.191406 37.464844 129.90625 37.425781 129.578125 37.398438 C 129.257812 37.367188 128.890625 37.355469 128.496094 37.355469 C 126.125 37.355469 123.804688 38.703125 121.535156 41.402344 C 118.863281 44.585938 117.53125 47.703125 117.53125 50.753906 C 117.53125 52.703125 118.207031 54.398438 119.554688 55.839844 C 120.964844 57.332031 122.695312 58.078125 124.75 58.078125 "/>
<path fill-rule="nonzero" fill="rgb(31.37207%, 22.511292%, 50.071716%)" fill-opacity="1" d="M 160.285156 58.667969 C 160.832031 58.667969 161.285156 58.496094 161.636719 58.15625 C 161.992188 57.8125 162.171875 57.382812 162.171875 56.863281 L 162.15625 49.988281 C 163.039062 48.210938 164.507812 47.15625 166.558594 46.828125 L 166.628906 48.210938 C 166.628906 49.394531 167.203125 49.988281 168.347656 49.988281 C 169.535156 49.988281 170.164062 49.292969 170.25 47.898438 C 170.257812 47.75 170.261719 47.445312 170.261719 46.976562 C 170.261719 44.554688 169.351562 43.34375 167.527344 43.34375 C 165.558594 43.34375 163.769531 43.945312 162.15625 45.148438 C 161.964844 44.109375 161.363281 43.589844 160.351562 43.589844 C 159.785156 43.589844 159.351562 43.761719 159.046875 44.101562 C 158.742188 44.445312 158.589844 44.871094 158.589844 45.382812 C 158.589844 45.664062 158.582031 46.085938 158.5625 46.648438 C 158.542969 47.207031 158.535156 47.625 158.535156 47.910156 L 158.535156 56.863281 C 158.535156 57.375 158.679688 57.796875 158.972656 58.121094 C 159.28125 58.484375 159.71875 58.667969 160.285156 58.667969 "/>
<path fill-rule="nonzero" fill="rgb(31.37207%, 22.511292%, 50.071716%)" fill-opacity="1" d="M 137.894531 58.339844 C 139.148438 58.339844 139.78125 57.472656 139.78125 55.742188 L 139.78125 37.574219 C 139.78125 37.046875 139.609375 36.617188 139.261719 36.296875 C 138.910156 35.972656 138.472656 35.808594 137.929688 35.808594 C 137.394531 35.808594 136.941406 35.964844 136.578125 36.277344 C 136.195312 36.613281 136.003906 37.046875 136.003906 37.574219 L 136.003906 56.484375 C 136.003906 57.03125 136.183594 57.472656 136.535156 57.824219 C 136.894531 58.167969 137.34375 58.339844 137.894531 58.339844 "/>
<path fill-rule="nonzero" fill="rgb(31.37207%, 22.511292%, 50.071716%)" fill-opacity="1" d="M 147.792969 48.199219 C 148.722656 47.230469 149.804688 46.746094 151.039062 46.746094 C 151.144531 46.746094 151.265625 46.765625 151.40625 46.804688 C 151.542969 46.847656 151.707031 46.914062 151.890625 47.003906 C 151.808594 47.46875 151.75 47.894531 151.707031 48.269531 C 151.667969 48.648438 151.648438 48.984375 151.648438 49.273438 C 151.648438 50.351562 151.78125 51.976562 152.054688 54.144531 C 151.605469 54.507812 151.128906 54.785156 150.625 54.972656 C 150.121094 55.160156 149.585938 55.253906 149.019531 55.253906 C 148.148438 55.253906 147.488281 54.945312 147.054688 54.328125 C 146.617188 53.710938 146.398438 52.792969 146.398438 51.574219 C 146.398438 50.296875 146.863281 49.171875 147.792969 48.199219 M 149.199219 58.503906 C 149.644531 58.503906 150.1875 58.402344 150.824219 58.195312 C 151.464844 57.992188 152.203125 57.6875 153.042969 57.285156 C 153.953125 58.097656 154.621094 58.503906 155.035156 58.503906 C 155.519531 58.503906 155.945312 58.347656 156.3125 58.027344 C 156.683594 57.714844 156.871094 57.320312 156.871094 56.839844 C 156.871094 56.730469 156.691406 56.289062 156.335938 55.515625 C 155.945312 54.65625 155.734375 54.1875 155.707031 54.105469 C 155.460938 53.347656 155.339844 52.105469 155.339844 50.378906 C 155.339844 49.652344 155.363281 49.011719 155.414062 48.464844 C 155.464844 47.921875 155.535156 47.46875 155.625 47.105469 C 155.832031 46.863281 155.933594 46.578125 155.933594 46.253906 C 155.933594 45.476562 155.25 44.792969 153.875 44.210938 C 152.734375 43.71875 151.730469 43.476562 150.863281 43.476562 C 148.605469 43.476562 146.664062 44.257812 145.039062 45.820312 C 143.417969 47.382812 142.609375 49.265625 142.609375 51.460938 C 142.609375 53.804688 143.160156 55.566406 144.253906 56.742188 C 145.351562 57.917969 147.003906 58.503906 149.199219 58.503906 "/>
<path fill-rule="nonzero" fill="rgb(31.37207%, 22.511292%, 50.071716%)" fill-opacity="1" d="M 195.59375 58.015625 C 196.597656 58.386719 197.707031 58.574219 198.914062 58.574219 C 200.632812 58.574219 202.074219 58.253906 203.25 57.605469 C 204.710938 56.792969 205.441406 55.601562 205.441406 54.035156 C 205.441406 52.828125 204.777344 51.75 203.457031 50.796875 C 202.816406 50.328125 201.601562 49.683594 199.792969 48.855469 C 198.472656 48.25 197.8125 47.773438 197.8125 47.417969 C 197.8125 46.816406 198.90625 46.515625 201.105469 46.515625 C 201.488281 46.515625 201.859375 46.546875 202.226562 46.609375 C 202.40625 47.367188 202.949219 47.742188 203.855469 47.742188 C 204.734375 47.742188 205.179688 46.921875 205.179688 45.285156 C 205.179688 44.425781 204.878906 43.835938 204.277344 43.519531 C 203.839844 43.28125 203.164062 43.164062 202.253906 43.164062 C 199.929688 43.164062 198.199219 43.351562 197.058594 43.726562 C 195.117188 44.363281 194.148438 45.597656 194.148438 47.429688 C 194.148438 48.722656 194.789062 49.824219 196.074219 50.726562 C 196.605469 51.089844 197.804688 51.6875 199.6875 52.519531 C 200.96875 53.082031 201.613281 53.597656 201.613281 54.0625 C 201.605469 54.808594 200.675781 55.183594 198.824219 55.183594 C 198.394531 55.183594 197.78125 55.050781 196.988281 54.785156 C 196.199219 54.519531 195.59375 54.390625 195.171875 54.390625 C 194.085938 54.390625 193.542969 54.847656 193.542969 55.753906 C 193.542969 56.75 194.226562 57.5 195.59375 58.015625 "/>
<path fill-rule="nonzero" fill="rgb(31.37207%, 22.511292%, 50.071716%)" fill-opacity="1" d="M 176.601562 47.621094 C 177.203125 47.058594 177.925781 46.773438 178.773438 46.773438 C 179.757812 46.773438 180.558594 46.945312 181.167969 47.292969 C 180.441406 47.765625 179.460938 48.28125 178.230469 48.839844 C 177.207031 49.273438 176.179688 49.71875 175.148438 50.164062 C 175.511719 49.035156 176 48.1875 176.601562 47.621094 M 173.796875 56.824219 C 175.179688 57.863281 176.964844 58.382812 179.144531 58.382812 C 180.570312 58.382812 181.925781 58.109375 183.203125 57.5625 C 184.726562 56.902344 185.484375 56.058594 185.484375 55.019531 C 185.484375 54.097656 185.007812 53.636719 184.0625 53.636719 C 183.609375 53.636719 183.003906 53.859375 182.246094 54.308594 C 181.398438 54.808594 180.359375 55.0625 179.144531 55.0625 C 178.339844 55.0625 177.632812 54.945312 177.011719 54.707031 C 176.390625 54.46875 175.863281 54.113281 175.425781 53.636719 L 180.03125 51.597656 C 181.570312 50.917969 182.597656 50.398438 183.109375 50.039062 C 184.230469 49.265625 184.789062 48.378906 184.789062 47.375 C 184.789062 45.953125 184.105469 44.90625 182.726562 44.230469 C 181.675781 43.722656 180.359375 43.464844 178.773438 43.464844 C 176.484375 43.464844 174.667969 44.347656 173.320312 46.113281 C 172.105469 47.710938 171.5 49.660156 171.5 51.972656 C 171.5 54.058594 172.265625 55.675781 173.796875 56.824219 "/>
<path fill-rule="nonzero" fill="rgb(31.37207%, 22.511292%, 50.071716%)" fill-opacity="1" d="M 189.238281 42.796875 C 189.769531 42.796875 190.199219 42.59375 190.539062 42.179688 C 190.78125 41.890625 190.933594 41.558594 190.988281 41.195312 C 191.308594 39.210938 191.46875 38.058594 191.46875 37.738281 C 191.46875 37.246094 191.316406 36.84375 191.011719 36.53125 C 190.703125 36.21875 190.300781 36.058594 189.800781 36.058594 C 188.789062 36.058594 188.203125 36.5625 188.039062 37.574219 C 187.714844 39.515625 187.558594 40.695312 187.558594 41.117188 C 187.558594 41.605469 187.710938 42.011719 188.023438 42.324219 C 188.332031 42.636719 188.738281 42.796875 189.238281 42.796875 "/>
<path fill-rule="nonzero" fill="rgb(31.37207%, 22.511292%, 50.071716%)" fill-opacity="1" d="M 70.972656 56.765625 C 72.304688 57.796875 74.128906 58.308594 76.445312 58.308594 C 79.066406 58.308594 81.398438 57.847656 83.441406 56.925781 C 86.121094 55.714844 87.460938 53.929688 87.460938 51.578125 C 87.460938 49.648438 86.8125 48.136719 85.519531 47.039062 C 84.34375 46.054688 82.742188 45.484375 80.722656 45.332031 C 79.566406 45.265625 78.402344 45.207031 77.238281 45.140625 C 76.570312 45.046875 76.070312 44.890625 75.738281 44.667969 C 75.40625 44.445312 75.238281 44.160156 75.238281 43.8125 C 75.238281 43.148438 75.785156 42.535156 76.882812 41.96875 C 77.9375 41.410156 79.050781 41.132812 80.226562 41.121094 C 80.667969 41.121094 81.3125 41.210938 82.164062 41.390625 C 83.019531 41.574219 83.65625 41.667969 84.085938 41.667969 C 84.660156 41.667969 85.128906 41.460938 85.496094 41.050781 C 85.824219 40.6875 85.988281 40.265625 85.988281 39.796875 C 85.988281 39.128906 85.171875 38.542969 83.542969 38.03125 C 82.226562 37.621094 81.125 37.417969 80.234375 37.417969 C 77.980469 37.417969 75.921875 38.15625 74.050781 39.636719 C 72.183594 41.117188 71.234375 42.75 71.207031 44.523438 C 71.179688 45.9375 72.011719 47.019531 73.695312 47.78125 C 74.945312 48.335938 76.355469 48.628906 77.933594 48.667969 C 79.96875 48.714844 81.320312 48.867188 81.992188 49.132812 C 82.9375 49.5 83.414062 50.253906 83.414062 51.402344 C 83.414062 52.242188 82.65625 53.011719 81.132812 53.710938 C 79.667969 54.398438 78.148438 54.738281 76.582031 54.738281 C 74.75 54.738281 73.574219 54.179688 73.054688 53.058594 C 72.671875 52.21875 72.070312 51.796875 71.25 51.796875 C 70.636719 51.796875 70.160156 51.988281 69.8125 52.367188 C 69.46875 52.746094 69.292969 53.222656 69.292969 53.796875 C 69.292969 54.917969 69.855469 55.90625 70.972656 56.765625 "/>
<path fill-rule="nonzero" fill="rgb(31.37207%, 22.511292%, 50.071716%)" fill-opacity="1" d="M 105.691406 58.328125 C 106.132812 58.707031 106.664062 58.898438 107.273438 58.898438 C 107.882812 58.898438 108.410156 58.710938 108.84375 58.335938 C 109.28125 57.964844 109.503906 57.535156 109.503906 57.046875 C 109.503906 56.523438 109.292969 56.074219 108.871094 55.710938 C 108.453125 55.34375 107.921875 55.164062 107.273438 55.164062 C 106.664062 55.164062 106.132812 55.359375 105.691406 55.746094 C 105.242188 56.132812 105.019531 56.570312 105.019531 57.046875 C 105.019531 57.523438 105.242188 57.949219 105.691406 58.328125 "/>
<path fill-rule="nonzero" fill="rgb(31.37207%, 22.511292%, 50.071716%)" fill-opacity="1" d="M 90.105469 46.394531 C 91.25 46.515625 92.105469 46.589844 92.667969 46.617188 C 92.832031 50.234375 92.917969 52.597656 92.917969 53.703125 C 92.917969 54.03125 92.902344 54.523438 92.875 55.179688 C 92.847656 55.835938 92.832031 56.324219 92.832031 56.65625 C 92.832031 57.148438 93.035156 57.558594 93.433594 57.882812 C 93.796875 58.195312 94.230469 58.351562 94.730469 58.351562 C 96.050781 58.351562 96.714844 57.300781 96.714844 55.207031 C 96.714844 55.003906 96.710938 54.742188 96.703125 54.421875 C 96.691406 54.09375 96.6875 53.875 96.6875 53.757812 C 96.6875 52.628906 96.609375 50.222656 96.445312 46.539062 C 96.9375 46.464844 97.371094 46.433594 97.742188 46.433594 C 97.933594 46.433594 98.164062 46.4375 98.417969 46.449219 C 98.679688 46.464844 98.910156 46.46875 99.101562 46.46875 C 99.644531 46.46875 100.097656 46.296875 100.453125 45.953125 C 100.808594 45.605469 100.984375 45.171875 100.984375 44.652344 C 100.984375 43.796875 100.621094 43.238281 99.894531 42.984375 C 99.511719 42.847656 98.792969 42.777344 97.746094 42.777344 C 97.390625 42.777344 96.929688 42.820312 96.367188 42.898438 L 96.394531 41.78125 C 96.394531 39.507812 95.714844 38.371094 94.367188 38.371094 C 93.839844 38.371094 93.386719 38.539062 93.015625 38.875 C 92.640625 39.21875 92.453125 39.640625 92.453125 40.152344 C 92.453125 40.46875 92.472656 40.921875 92.511719 41.503906 C 92.542969 42.179688 92.566406 42.660156 92.578125 42.957031 C 91.363281 42.847656 90.589844 42.792969 90.253906 42.792969 C 89.703125 42.792969 89.257812 42.96875 88.910156 43.324219 C 88.5625 43.679688 88.390625 44.113281 88.390625 44.621094 C 88.390625 45.679688 88.964844 46.269531 90.105469 46.394531 "/>
<path fill-rule="nonzero" fill="rgb(31.37207%, 22.511292%, 50.071716%)" fill-opacity="1" d="M 99.828125 205.492188 C 98.5 205.492188 97.832031 206.121094 97.832031 207.375 C 97.832031 207.738281 97.878906 208.242188 97.964844 208.882812 C 98.0625 209.601562 98.125 210.09375 98.144531 210.359375 C 98.230469 211.925781 98.277344 214.953125 98.277344 219.449219 C 98.277344 220.546875 98.273438 221.234375 98.265625 221.53125 C 94.238281 217.800781 90.152344 212.984375 86.019531 207.078125 C 85.199219 205.910156 84.449219 205.328125 83.777344 205.328125 C 83.175781 205.328125 82.640625 205.542969 82.175781 205.972656 C 81.703125 206.394531 81.46875 206.886719 81.46875 207.433594 C 81.46875 207.976562 81.527344 208.796875 81.632812 209.882812 C 81.738281 210.964844 81.796875 211.78125 81.796875 212.328125 C 81.796875 212.902344 81.804688 213.765625 81.832031 214.921875 C 81.859375 216.085938 81.875 216.949219 81.875 217.523438 C 81.875 218.058594 81.855469 218.867188 81.820312 219.945312 C 81.785156 221.015625 81.769531 221.824219 81.769531 222.359375 C 81.769531 222.726562 81.734375 223.277344 81.679688 224.019531 C 81.617188 224.753906 81.589844 225.304688 81.589844 225.671875 C 81.589844 226.1875 81.769531 226.632812 82.125 226.996094 C 82.523438 227.40625 83.054688 227.609375 83.722656 227.609375 C 85.035156 227.609375 85.6875 226.265625 85.6875 223.578125 C 85.6875 222.859375 85.675781 221.773438 85.640625 220.324219 C 85.609375 218.875 85.589844 217.792969 85.589844 217.070312 C 85.589844 216.53125 85.617188 215.082031 85.675781 212.710938 C 90.085938 218.417969 94.046875 222.851562 97.554688 226.015625 C 98.359375 226.734375 99.078125 227.09375 99.714844 227.09375 C 100.863281 227.09375 101.53125 226.503906 101.714844 225.328125 C 101.867188 224.34375 101.941406 223.625 101.941406 223.167969 C 101.941406 222.039062 101.96875 219.160156 102.027344 214.53125 C 102.046875 213.1875 102.054688 212.46875 102.054688 212.371094 C 102.054688 207.78125 101.3125 205.492188 99.828125 205.492188 "/>
<path fill-rule="nonzero" fill="rgb(31.37207%, 22.511292%, 50.071716%)" fill-opacity="1" d="M 187.089844 212.3125 C 186.40625 212.3125 185.867188 212.640625 185.476562 213.296875 C 184.855469 214.328125 184.226562 215.523438 183.578125 216.882812 C 183.367188 217.324219 182.773438 218.632812 181.796875 220.789062 C 180.078125 217.324219 178.570312 214.734375 177.277344 213.015625 C 176.941406 212.566406 176.46875 212.339844 175.867188 212.339844 C 175.359375 212.339844 174.90625 212.527344 174.511719 212.902344 C 174.121094 213.273438 173.925781 213.710938 173.925781 214.199219 C 173.925781 214.546875 174.046875 214.933594 174.292969 215.347656 C 174.523438 215.707031 174.746094 216.058594 174.964844 216.402344 C 177.140625 220.246094 178.734375 223.160156 179.734375 225.136719 C 177.804688 229.308594 176.835938 231.824219 176.835938 232.667969 C 176.835938 233.183594 177.035156 233.601562 177.425781 233.945312 C 177.816406 234.28125 178.277344 234.449219 178.792969 234.449219 C 179.632812 234.449219 180.214844 234.019531 180.542969 233.164062 C 180.953125 232.046875 181.253906 231.214844 181.445312 230.648438 C 182.054688 229.082031 182.945312 227.105469 184.113281 224.726562 C 186.257812 220.296875 187.832031 217.050781 188.828125 214.980469 C 188.980469 214.660156 189.058594 214.367188 189.058594 214.105469 C 189.058594 213.601562 188.859375 213.183594 188.457031 212.832031 C 188.054688 212.488281 187.597656 212.3125 187.089844 212.3125 "/>
<path fill-rule="nonzero" fill="rgb(31.37207%, 22.511292%, 50.071716%)" fill-opacity="1" d="M 170.519531 212.121094 C 168.550781 212.121094 166.761719 212.722656 165.148438 213.929688 C 164.957031 212.886719 164.355469 212.371094 163.34375 212.371094 C 162.777344 212.371094 162.34375 212.542969 162.039062 212.882812 C 161.730469 213.222656 161.582031 213.648438 161.582031 214.164062 C 161.582031 214.441406 161.574219 214.867188 161.554688 215.425781 C 161.535156 215.984375 161.527344 216.40625 161.527344 216.691406 L 161.527344 225.640625 C 161.527344 226.15625 161.671875 226.574219 161.964844 226.902344 C 162.273438 227.265625 162.710938 227.449219 163.277344 227.449219 C 163.820312 227.449219 164.273438 227.273438 164.628906 226.933594 C 164.984375 226.59375 165.164062 226.164062 165.164062 225.640625 L 165.148438 218.769531 C 166.027344 216.988281 167.5 215.933594 169.546875 215.609375 L 169.617188 216.988281 C 169.617188 218.175781 170.191406 218.769531 171.339844 218.769531 C 172.527344 218.769531 173.15625 218.074219 173.238281 216.675781 C 173.25 216.527344 173.253906 216.222656 173.253906 215.757812 C 173.253906 213.335938 172.34375 212.121094 170.519531 212.121094 "/>
<path fill-rule="nonzero" fill="rgb(31.37207%, 22.511292%, 50.071716%)" fill-opacity="1" d="M 141.730469 219.574219 C 141.089844 219.109375 139.875 218.464844 138.066406 217.632812 C 136.746094 217.03125 136.082031 216.550781 136.082031 216.195312 C 136.082031 215.59375 137.179688 215.296875 139.378906 215.296875 C 139.761719 215.296875 140.132812 215.328125 140.5 215.390625 C 140.679688 216.144531 141.222656 216.523438 142.125 216.523438 C 143.007812 216.523438 143.453125 215.703125 143.453125 214.0625 C 143.453125 213.207031 143.152344 212.617188 142.550781 212.300781 C 142.113281 212.0625 141.4375 211.945312 140.527344 211.945312 C 138.203125 211.945312 136.472656 212.132812 135.332031 212.503906 C 133.390625 213.144531 132.421875 214.375 132.421875 216.210938 C 132.421875 217.503906 133.066406 218.605469 134.347656 219.503906 C 134.878906 219.871094 136.078125 220.464844 137.960938 221.296875 C 139.242188 221.863281 139.886719 222.375 139.886719 222.84375 C 139.878906 223.589844 138.949219 223.960938 137.097656 223.960938 C 136.667969 223.960938 136.054688 223.832031 135.261719 223.566406 C 134.472656 223.300781 133.867188 223.167969 133.449219 223.167969 C 132.359375 223.167969 131.820312 223.625 131.820312 224.535156 C 131.820312 225.527344 132.5 226.28125 133.867188 226.792969 C 134.871094 227.167969 135.980469 227.355469 137.191406 227.355469 C 138.90625 227.355469 140.351562 227.03125 141.523438 226.382812 C 142.984375 225.570312 143.714844 224.382812 143.714844 222.8125 C 143.714844 221.609375 143.050781 220.53125 141.730469 219.574219 "/>
<path fill-rule="nonzero" fill="rgb(31.37207%, 22.511292%, 50.071716%)" fill-opacity="1" d="M 150.484375 216.402344 C 151.085938 215.835938 151.808594 215.554688 152.660156 215.554688 C 153.644531 215.554688 154.441406 215.726562 155.054688 216.070312 C 154.328125 216.546875 153.347656 217.058594 152.113281 217.621094 C 151.09375 218.054688 150.066406 218.496094 149.035156 218.945312 C 149.398438 217.816406 149.882812 216.96875 150.484375 216.402344 M 157.945312 222.417969 C 157.496094 222.417969 156.886719 222.640625 156.132812 223.089844 C 155.28125 223.589844 154.246094 223.839844 153.027344 223.839844 C 152.226562 223.839844 151.515625 223.722656 150.894531 223.484375 C 150.273438 223.246094 149.75 222.894531 149.308594 222.417969 L 153.914062 220.378906 C 155.457031 219.695312 156.480469 219.179688 156.996094 218.820312 C 158.113281 218.042969 158.675781 217.15625 158.675781 216.15625 C 158.675781 214.730469 157.988281 213.6875 156.613281 213.007812 C 155.5625 212.5 154.246094 212.242188 152.660156 212.242188 C 150.367188 212.242188 148.554688 213.125 147.203125 214.894531 C 145.992188 216.492188 145.382812 218.441406 145.382812 220.75 C 145.382812 222.835938 146.148438 224.457031 147.679688 225.605469 C 149.066406 226.644531 150.847656 227.164062 153.027344 227.164062 C 154.457031 227.164062 155.808594 226.886719 157.089844 226.34375 C 158.609375 225.683594 159.371094 224.839844 159.371094 223.796875 C 159.371094 222.878906 158.894531 222.417969 157.945312 222.417969 "/>
<path fill-rule="nonzero" fill="rgb(31.37207%, 22.511292%, 50.071716%)" fill-opacity="1" d="M 127.78125 212.121094 C 125.8125 212.121094 124.023438 212.722656 122.410156 213.929688 C 122.21875 212.886719 121.617188 212.371094 120.605469 212.371094 C 120.039062 212.371094 119.605469 212.542969 119.304688 212.882812 C 118.996094 213.222656 118.84375 213.648438 118.84375 214.164062 C 118.84375 214.441406 118.835938 214.867188 118.816406 215.425781 C 118.796875 215.984375 118.789062 216.40625 118.789062 216.691406 L 118.789062 225.640625 C 118.789062 226.15625 118.933594 226.574219 119.226562 226.902344 C 119.535156 227.265625 119.976562 227.449219 120.539062 227.449219 C 121.085938 227.449219 121.539062 227.273438 121.890625 226.933594 C 122.246094 226.59375 122.425781 226.164062 122.425781 225.640625 L 122.410156 218.769531 C 123.292969 216.988281 124.761719 215.933594 126.8125 215.609375 L 126.882812 216.988281 C 126.882812 218.175781 127.453125 218.769531 128.601562 218.769531 C 129.789062 218.769531 130.417969 218.074219 130.503906 216.675781 C 130.511719 216.527344 130.515625 216.222656 130.515625 215.757812 C 130.515625 213.335938 129.605469 212.121094 127.78125 212.121094 "/>
<path fill-rule="nonzero" fill="rgb(31.37207%, 22.511292%, 50.071716%)" fill-opacity="1" d="M 116.722656 213.820312 C 116.75 213.308594 116.574219 212.886719 116.191406 212.546875 C 115.804688 212.210938 115.34375 212.042969 114.808594 212.042969 C 113.703125 212.042969 113.082031 212.585938 112.945312 213.671875 C 112.773438 215.03125 112.691406 216.640625 112.691406 218.511719 C 112.691406 218.972656 112.699219 219.738281 112.71875 220.808594 C 112.726562 221.699219 112.730469 222.496094 112.730469 223.195312 C 111.519531 223.488281 110.40625 223.636719 109.394531 223.636719 C 109.195312 223.636719 108.988281 223.605469 108.773438 223.554688 C 108.558594 223.5 108.339844 223.421875 108.113281 223.320312 C 107.9375 222.695312 107.808594 221.90625 107.722656 220.957031 C 107.636719 220 107.59375 218.882812 107.59375 217.609375 C 107.59375 217.167969 107.660156 216.519531 107.789062 215.667969 C 107.921875 214.816406 107.984375 214.195312 107.984375 213.792969 C 107.984375 213.289062 107.796875 212.867188 107.425781 212.539062 C 107.050781 212.207031 106.597656 212.042969 106.074219 212.042969 C 105.023438 212.042969 104.40625 212.554688 104.222656 213.578125 C 103.953125 215.09375 103.820312 216.4375 103.820312 217.613281 C 103.820312 219.402344 103.996094 221.429688 104.351562 223.695312 C 104.542969 224.890625 105.132812 225.800781 106.128906 226.425781 C 107.011719 226.972656 108.101562 227.242188 109.394531 227.242188 C 110.640625 227.242188 111.847656 227.027344 113.015625 226.597656 C 113.363281 227.285156 113.914062 227.625 114.671875 227.625 C 115.210938 227.625 115.664062 227.457031 116.03125 227.125 C 116.398438 226.792969 116.585938 226.375 116.585938 225.859375 C 116.585938 225.671875 116.574219 225.386719 116.539062 225.007812 C 116.507812 224.628906 116.492188 224.34375 116.492188 224.152344 C 116.492188 223.542969 116.488281 222.621094 116.480469 221.390625 C 116.46875 220.164062 116.464844 219.242188 116.464844 218.632812 C 116.464844 218.894531 116.546875 217.292969 116.722656 213.820312 "/>
</svg>
