<?xml version="1.0" encoding="UTF-8"?>
<svg xmlns="http://www.w3.org/2000/svg" xmlns:xlink="http://www.w3.org/1999/xlink" width="841.698" height="1190.28" viewBox="0 0 841.698 1190.28">
<path fill-rule="evenodd" fill="rgb(12.940979%, 10.980225%, 10.980225%)" fill-opacity="1" d="M 146.476562 173.09375 L 101.683594 173.09375 L 106.890625 168.925781 L 106.890625 159.441406 L 101.683594 155.273438 L 136.523438 155.273438 L 131.316406 159.46875 L 131.316406 169.566406 L 140.097656 169.566406 L 146.476562 163.558594 Z M 146.476562 173.09375 L 151.683594 168.980469 L 151.683594 159.46875 L 146.476562 155.273438 L 164.253906 155.273438 L 159.050781 159.46875 L 159.050781 169.566406 L 167.832031 169.566406 L 174.214844 163.558594 L 174.214844 173.09375 Z M 118.992188 155.476562 L 114.015625 159.441406 L 114.015625 168.925781 L 118.996094 172.894531 L 123.945312 168.980469 L 123.945312 159.46875 Z M 164.242188 188.238281 L 201.609375 188.238281 L 201.609375 187.148438 L 164.242188 187.148438 Z M 5.71875 188.238281 L 42.957031 188.238281 L 42.957031 187.148438 L 5.71875 187.148438 Z M 101.015625 173.09375 L 63.171875 173.09375 C 62.355469 170.636719 61.574219 168.738281 60.824219 167.40625 C 60.398438 166.636719 59.402344 166.253906 57.832031 166.253906 L 54.363281 166.253906 L 54.363281 168.953125 L 59.597656 173.09375 L 41.816406 173.09375 L 47.023438 168.953125 L 47.023438 159.441406 L 41.816406 155.273438 L 61.652344 155.273438 L 64.988281 155.539062 C 66.644531 155.664062 68 156.199219 69.058594 157.140625 C 70.117188 158.089844 70.648438 159.164062 70.648438 160.375 C 70.648438 162.636719 68.582031 164.070312 64.453125 164.679688 C 65.859375 165.105469 66.929688 165.71875 67.65625 166.523438 C 68.386719 167.324219 69.101562 168.652344 69.792969 170.503906 L 72.945312 172.875 L 77.871094 168.980469 L 77.871094 159.414062 L 72.667969 155.273438 L 100.617188 155.273438 L 100.617188 162.996094 L 95.277344 158.210938 L 85.238281 158.210938 L 85.238281 162.113281 L 90.738281 162.113281 L 94.664062 160.027344 L 94.664062 168.070312 L 90.738281 165.640625 L 85.238281 165.640625 L 85.238281 169.566406 L 95.277344 169.566406 L 101.015625 164.464844 Z M 62.851562 160.777344 C 62.851562 159.957031 62.648438 159.378906 62.238281 159.039062 C 61.867188 158.753906 61.214844 158.613281 60.289062 158.613281 L 54.363281 158.613281 L 54.363281 162.726562 L 60.503906 162.703125 C 62.050781 162.703125 62.835938 162.058594 62.851562 160.777344 M 32.347656 165.128906 C 32.347656 167.589844 31.042969 169.71875 28.433594 171.507812 C 25.824219 173.296875 22.703125 174.195312 19.074219 174.195312 C 15.53125 174.195312 12.417969 173.289062 9.738281 171.484375 C 7.058594 169.675781 5.71875 167.570312 5.71875 165.179688 C 5.71875 162.46875 7.050781 160.144531 9.714844 158.195312 C 12.375 156.246094 15.554688 155.273438 19.257812 155.273438 C 22.78125 155.273438 25.84375 156.25 28.445312 158.207031 C 31.046875 160.164062 32.347656 162.46875 32.347656 165.128906 M 23.96875 164.628906 C 23.96875 162.792969 23.511719 161.28125 22.59375 160.09375 C 21.675781 158.90625 20.496094 158.304688 19.046875 158.285156 C 17.617188 158.269531 16.4375 158.855469 15.511719 160.042969 C 14.585938 161.230469 14.125 162.757812 14.125 164.628906 C 14.125 166.480469 14.574219 167.96875 15.472656 169.097656 C 16.371094 170.222656 17.5625 170.789062 19.046875 170.789062 C 20.53125 170.789062 21.71875 170.234375 22.621094 169.121094 C 23.519531 168.011719 23.96875 166.515625 23.96875 164.628906 M 201.609375 155.273438 L 196.882812 158.855469 L 190.398438 166.65625 L 190.398438 168.925781 L 195.601562 173.09375 L 177.957031 173.09375 L 183.164062 168.925781 L 183.164062 166.65625 L 176.433594 158.558594 L 171.683594 155.273438 L 188.34375 155.273438 L 184.871094 158.558594 L 188.660156 162.863281 L 192.292969 158.238281 L 188.847656 155.273438 Z M 40.660156 158.738281 C 40.675781 160.140625 40.101562 161.394531 38.9375 162.496094 C 37.773438 163.605469 36.394531 164.230469 34.804688 164.382812 L 34.804688 163.800781 C 36.675781 162.789062 37.8125 161.539062 38.226562 160.054688 C 37.734375 160.324219 37.304688 160.460938 36.945312 160.460938 C 36.304688 160.460938 35.765625 160.21875 35.320312 159.726562 C 34.878906 159.238281 34.65625 158.65625 34.65625 157.980469 C 34.65625 157.207031 34.945312 156.558594 35.519531 156.046875 C 36.09375 155.53125 36.816406 155.273438 37.683594 155.273438 C 38.535156 155.273438 39.242188 155.601562 39.800781 156.257812 C 40.355469 156.917969 40.644531 157.742188 40.660156 158.738281 M 57.207031 193.320312 C 56.1875 193.320312 55.246094 193.082031 54.386719 192.601562 C 53.527344 192.121094 52.847656 191.449219 52.347656 190.589844 C 51.847656 189.730469 51.59375 188.761719 51.59375 187.683594 C 51.59375 186.609375 51.847656 185.644531 52.347656 184.789062 C 52.847656 183.933594 53.527344 183.265625 54.386719 182.785156 C 55.246094 182.304688 56.1875 182.0625 57.207031 182.0625 C 58.242188 182.0625 59.1875 182.304688 60.046875 182.785156 C 60.90625 183.265625 61.585938 183.933594 62.082031 184.789062 C 62.578125 185.644531 62.824219 186.609375 62.824219 187.683594 C 62.824219 188.761719 62.578125 189.730469 62.082031 190.589844 C 61.585938 191.449219 60.90625 192.121094 60.046875 192.601562 C 59.1875 193.082031 58.242188 193.320312 57.207031 193.320312 M 57.207031 191.753906 C 57.9375 191.753906 58.585938 191.585938 59.15625 191.253906 C 59.722656 190.921875 60.167969 190.445312 60.492188 189.832031 C 60.8125 189.210938 60.972656 188.496094 60.972656 187.683594 C 60.972656 186.871094 60.8125 186.160156 60.492188 185.546875 C 60.167969 184.933594 59.722656 184.464844 59.15625 184.136719 C 58.585938 183.808594 57.9375 183.648438 57.207031 183.648438 C 56.480469 183.648438 55.835938 183.808594 55.261719 184.136719 C 54.695312 184.464844 54.25 184.933594 53.929688 185.546875 C 53.605469 186.160156 53.445312 186.871094 53.445312 187.683594 C 53.445312 188.496094 53.605469 189.210938 53.929688 189.832031 C 54.25 190.445312 54.695312 190.921875 55.261719 191.253906 C 55.835938 191.585938 56.480469 191.753906 57.207031 191.753906 M 73.28125 190.953125 L 68.675781 190.953125 L 67.882812 193.203125 L 66.003906 193.203125 L 69.941406 182.183594 L 72.03125 182.183594 L 75.96875 193.203125 L 74.070312 193.203125 Z M 72.773438 189.480469 L 70.984375 184.367188 L 69.179688 189.480469 Z M 85.789062 193.195312 L 81.535156 188.269531 L 81.535156 193.195312 L 79.734375 193.195312 L 79.734375 182.191406 L 81.535156 182.191406 L 81.535156 187.210938 L 85.804688 182.191406 L 88.070312 182.191406 L 83.289062 187.703125 L 88.148438 193.195312 Z M 95.421875 193.320312 C 94.683594 193.320312 94.023438 193.191406 93.429688 192.933594 C 92.839844 192.675781 92.375 192.308594 92.039062 191.832031 C 91.699219 191.359375 91.53125 190.804688 91.53125 190.167969 L 93.460938 190.167969 C 93.503906 190.644531 93.691406 191.035156 94.023438 191.34375 C 94.355469 191.648438 94.824219 191.800781 95.421875 191.800781 C 96.042969 191.800781 96.53125 191.648438 96.878906 191.347656 C 97.226562 191.046875 97.402344 190.664062 97.402344 190.1875 C 97.402344 189.816406 97.292969 189.515625 97.078125 189.285156 C 96.863281 189.050781 96.589844 188.871094 96.269531 188.746094 C 95.949219 188.621094 95.503906 188.480469 94.933594 188.332031 C 94.214844 188.144531 93.632812 187.953125 93.183594 187.753906 C 92.738281 187.5625 92.355469 187.257812 92.039062 186.847656 C 91.722656 186.433594 91.5625 185.886719 91.5625 185.199219 C 91.5625 184.566406 91.722656 184.011719 92.039062 183.535156 C 92.355469 183.0625 92.796875 182.699219 93.367188 182.445312 C 93.9375 182.191406 94.597656 182.0625 95.34375 182.0625 C 96.410156 182.0625 97.28125 182.332031 97.964844 182.863281 C 98.644531 183.394531 99.019531 184.128906 99.09375 185.058594 L 97.097656 185.058594 C 97.070312 184.65625 96.878906 184.3125 96.53125 184.027344 C 96.183594 183.742188 95.722656 183.601562 95.15625 183.601562 C 94.636719 183.601562 94.214844 183.734375 93.886719 183.996094 C 93.5625 184.257812 93.398438 184.640625 93.398438 185.136719 C 93.398438 185.476562 93.5 185.75 93.707031 185.964844 C 93.914062 186.183594 94.171875 186.355469 94.488281 186.480469 C 94.804688 186.609375 95.238281 186.746094 95.789062 186.894531 C 96.515625 187.09375 97.109375 187.292969 97.566406 187.496094 C 98.027344 187.695312 98.417969 188.003906 98.738281 188.421875 C 99.058594 188.839844 99.21875 189.394531 99.21875 190.09375 C 99.21875 190.652344 99.066406 191.179688 98.769531 191.675781 C 98.46875 192.171875 98.03125 192.570312 97.457031 192.871094 C 96.882812 193.171875 96.203125 193.320312 95.421875 193.320312 M 110.511719 182.191406 L 110.511719 183.664062 L 107.585938 183.664062 L 107.585938 193.195312 L 105.785156 193.195312 L 105.785156 183.664062 L 102.84375 183.664062 L 102.84375 182.191406 Z M 119.402344 193.320312 C 118.378906 193.320312 117.4375 193.082031 116.578125 192.601562 C 115.71875 192.121094 115.039062 191.449219 114.539062 190.589844 C 114.039062 189.730469 113.789062 188.761719 113.789062 187.683594 C 113.789062 186.609375 114.039062 185.644531 114.539062 184.789062 C 115.039062 183.933594 115.71875 183.265625 116.578125 182.785156 C 117.4375 182.304688 118.378906 182.0625 119.402344 182.0625 C 120.4375 182.0625 121.382812 182.304688 122.242188 182.785156 C 123.101562 183.265625 123.777344 183.933594 124.273438 184.789062 C 124.769531 185.644531 125.015625 186.609375 125.015625 187.683594 C 125.015625 188.761719 124.769531 189.730469 124.273438 190.589844 C 123.777344 191.449219 123.101562 192.121094 122.242188 192.601562 C 121.382812 193.082031 120.4375 193.320312 119.402344 193.320312 M 119.402344 191.753906 C 120.128906 191.753906 120.777344 191.585938 121.347656 191.253906 C 121.914062 190.921875 122.363281 190.445312 122.683594 189.832031 C 123.007812 189.210938 123.167969 188.496094 123.167969 187.683594 C 123.167969 186.871094 123.007812 186.160156 122.683594 185.546875 C 122.363281 184.933594 121.914062 184.464844 121.347656 184.136719 C 120.777344 183.808594 120.128906 183.648438 119.402344 183.648438 C 118.675781 183.648438 118.023438 183.808594 117.457031 184.136719 C 116.886719 184.464844 116.441406 184.933594 116.121094 185.546875 C 115.800781 186.160156 115.640625 186.871094 115.640625 187.683594 C 115.640625 188.496094 115.800781 189.210938 116.121094 189.832031 C 116.441406 190.445312 116.886719 190.921875 117.457031 191.253906 C 118.023438 191.585938 118.675781 191.753906 119.402344 191.753906 M 143.160156 182.183594 L 139.902344 193.1875 L 137.859375 193.1875 L 135.550781 184.859375 L 133.097656 193.1875 L 131.074219 193.203125 L 127.957031 182.183594 L 129.875 182.183594 L 132.152344 191.144531 L 134.617188 182.183594 L 136.640625 182.183594 L 138.9375 191.097656 L 141.230469 182.183594 Z M 155.734375 193.203125 L 153.929688 193.203125 L 148.507812 184.984375 L 148.507812 193.203125 L 146.703125 193.203125 L 146.703125 182.183594 L 148.507812 182.183594 L 153.929688 190.382812 L 153.929688 182.183594 L 155.734375 182.183594 Z M 155.734375 193.203125 "/>
<path fill-rule="evenodd" fill="rgb(81.567383%, 9.803772%, 21.960449%)" fill-opacity="1" d="M 44.507812 75.019531 L 44.507812 114.214844 L 5.71875 139.40625 L 5.71875 75.019531 Z M 141.6875 9.023438 L 50.953125 70.167969 L 7.316406 70.167969 L 98.054688 9.023438 Z M 154.808594 38.480469 L 91.550781 80.019531 L 47.914062 80.019531 L 154.808594 9.023438 Z M 152.738281 75.019531 L 50.953125 144.121094 L 7.316406 144.121094 L 114.210938 75.019531 Z M 200.121094 80.992188 L 107.132812 144.121094 L 61.285156 144.121094 L 157.46875 80.992188 Z M 159.300781 76.144531 L 201.609375 76.144531 L 201.609375 9.023438 L 159.300781 9.023438 Z M 159.300781 76.144531 "/>
<path fill-rule="evenodd" fill="rgb(12.940979%, 10.980225%, 10.980225%)" fill-opacity="1" d="M 146.476562 385.914062 L 151.683594 381.796875 L 151.683594 372.289062 L 146.476562 368.089844 L 164.253906 368.089844 L 159.050781 372.289062 L 159.050781 382.386719 L 167.835938 382.386719 L 174.214844 376.375 L 174.214844 385.914062 Z M 146.476562 385.914062 L 101.683594 385.914062 L 106.890625 381.746094 L 106.890625 372.257812 L 101.683594 368.089844 L 136.523438 368.089844 L 131.316406 372.289062 L 131.316406 382.386719 L 140.097656 382.386719 L 146.476562 376.375 Z M 118.992188 368.292969 L 114.019531 372.257812 L 114.019531 381.746094 L 118.996094 385.710938 L 123.945312 381.796875 L 123.945312 372.289062 Z M 175.042969 401.054688 L 201.609375 401.054688 L 201.609375 399.964844 L 175.042969 399.964844 Z M 5.71875 401.054688 L 32.285156 401.054688 L 32.285156 399.964844 L 5.71875 399.964844 Z M 101.015625 385.914062 L 63.171875 385.914062 C 62.355469 383.457031 61.570312 381.558594 60.824219 380.222656 C 60.398438 379.457031 59.402344 379.074219 57.832031 379.074219 L 54.363281 379.074219 L 54.363281 381.769531 L 59.597656 385.914062 L 41.820312 385.914062 L 47.023438 381.769531 L 47.023438 372.257812 L 41.820312 368.089844 L 61.652344 368.089844 L 64.988281 368.359375 C 66.644531 368.484375 68 369.015625 69.058594 369.960938 C 70.117188 370.90625 70.648438 371.984375 70.648438 373.195312 C 70.648438 375.457031 68.582031 376.890625 64.453125 377.496094 C 65.859375 377.925781 66.929688 378.539062 67.65625 379.339844 C 68.386719 380.144531 69.101562 381.46875 69.792969 383.324219 L 72.945312 385.691406 L 77.871094 381.796875 L 77.871094 372.234375 L 72.667969 368.089844 L 100.617188 368.089844 L 100.617188 375.8125 L 95.277344 371.03125 L 85.238281 371.03125 L 85.238281 374.933594 L 90.738281 374.933594 L 94.664062 372.847656 L 94.664062 380.890625 L 90.738281 378.460938 L 85.238281 378.460938 L 85.238281 382.386719 L 95.277344 382.386719 L 101.015625 377.28125 Z M 62.851562 373.59375 C 62.851562 372.777344 62.648438 372.199219 62.238281 371.859375 C 61.867188 371.574219 61.214844 371.433594 60.289062 371.433594 L 54.363281 371.433594 L 54.363281 375.546875 L 60.503906 375.519531 C 62.050781 375.519531 62.835938 374.878906 62.851562 373.59375 M 32.347656 377.945312 C 32.347656 380.40625 31.042969 382.535156 28.433594 384.328125 C 25.824219 386.117188 22.703125 387.011719 19.074219 387.011719 C 15.53125 387.011719 12.417969 386.109375 9.738281 384.300781 C 7.058594 382.492188 5.71875 380.390625 5.71875 377.996094 C 5.71875 375.289062 7.050781 372.960938 9.714844 371.011719 C 12.375 369.066406 15.554688 368.089844 19.257812 368.089844 C 22.78125 368.089844 25.84375 369.070312 28.445312 371.027344 C 31.046875 372.984375 32.347656 375.289062 32.347656 377.945312 M 23.96875 377.445312 C 23.96875 375.613281 23.511719 374.101562 22.59375 372.914062 C 21.675781 371.726562 20.496094 371.121094 19.046875 371.105469 C 17.617188 371.089844 16.4375 371.671875 15.511719 372.859375 C 14.585938 374.050781 14.125 375.578125 14.125 377.445312 C 14.125 379.300781 14.574219 380.789062 15.472656 381.914062 C 16.371094 383.042969 17.5625 383.605469 19.046875 383.605469 C 20.53125 383.605469 21.71875 383.050781 22.621094 381.941406 C 23.519531 380.832031 23.96875 379.335938 23.96875 377.445312 M 201.609375 368.089844 L 196.882812 371.671875 L 190.398438 379.476562 L 190.398438 381.746094 L 195.601562 385.914062 L 177.957031 385.914062 L 183.164062 381.746094 L 183.164062 379.476562 L 176.433594 371.378906 L 171.683594 368.089844 L 188.34375 368.089844 L 184.871094 371.378906 L 188.660156 375.679688 L 192.292969 371.058594 L 188.847656 368.089844 Z M 40.660156 371.558594 C 40.675781 372.957031 40.101562 374.210938 38.9375 375.316406 C 37.773438 376.421875 36.394531 377.050781 34.804688 377.203125 L 34.804688 376.621094 C 36.675781 375.609375 37.8125 374.359375 38.226562 372.875 C 37.734375 373.144531 37.304688 373.28125 36.945312 373.28125 C 36.304688 373.28125 35.765625 373.035156 35.320312 372.546875 C 34.878906 372.054688 34.65625 371.472656 34.65625 370.800781 C 34.65625 370.023438 34.945312 369.378906 35.519531 368.863281 C 36.09375 368.347656 36.816406 368.089844 37.683594 368.089844 C 38.535156 368.089844 39.242188 368.421875 39.800781 369.078125 C 40.355469 369.738281 40.644531 370.5625 40.660156 371.558594 M 47.15625 400.359375 C 47.746094 400.46875 48.25 400.777344 48.660156 401.296875 C 49.070312 401.8125 49.277344 402.398438 49.277344 403.050781 C 49.277344 403.613281 49.132812 404.117188 48.84375 404.5625 C 48.550781 405.015625 48.132812 405.367188 47.585938 405.625 C 47.035156 405.882812 46.398438 406.011719 45.667969 406.011719 L 41.273438 406.011719 L 41.273438 395.007812 L 45.464844 395.007812 C 46.214844 395.007812 46.855469 395.136719 47.394531 395.390625 C 47.933594 395.644531 48.339844 395.980469 48.613281 396.410156 C 48.886719 396.835938 49.023438 397.316406 49.023438 397.84375 C 49.023438 398.476562 48.855469 399.003906 48.519531 399.425781 C 48.179688 399.851562 47.726562 400.160156 47.15625 400.359375 M 45.511719 404.542969 C 46.121094 404.542969 46.601562 404.390625 46.949219 404.097656 C 47.300781 403.804688 47.472656 403.390625 47.472656 402.863281 C 47.472656 402.324219 47.289062 401.894531 46.921875 401.582031 C 46.550781 401.261719 46.058594 401.105469 45.449219 401.105469 L 43.078125 401.105469 L 43.078125 404.542969 Z M 43.078125 399.632812 L 45.304688 399.632812 C 45.894531 399.632812 46.359375 399.5 46.691406 399.230469 C 47.023438 398.960938 47.1875 398.574219 47.1875 398.0625 C 47.1875 397.570312 47.023438 397.179688 46.691406 396.902344 C 46.359375 396.621094 45.894531 396.484375 45.304688 396.484375 L 43.078125 396.484375 Z M 59.921875 403.773438 L 55.320312 403.773438 L 54.527344 406.019531 L 52.644531 406.019531 L 56.585938 395.003906 L 58.671875 395.003906 L 62.613281 406.019531 L 60.710938 406.019531 Z M 59.414062 402.300781 L 57.628906 397.1875 L 55.824219 402.300781 Z M 72.085938 406.011719 L 69.554688 401.613281 L 68.175781 401.613281 L 68.175781 406.011719 L 66.375 406.011719 L 66.375 395.007812 L 70.171875 395.007812 C 71.015625 395.007812 71.726562 395.15625 72.316406 395.453125 C 72.898438 395.75 73.335938 396.144531 73.625 396.640625 C 73.917969 397.136719 74.0625 397.691406 74.0625 398.300781 C 74.0625 399.019531 73.855469 399.671875 73.4375 400.257812 C 73.019531 400.84375 72.382812 401.242188 71.515625 401.453125 L 74.234375 406.011719 Z M 68.175781 400.171875 L 70.171875 400.171875 C 70.847656 400.171875 71.355469 400.003906 71.699219 399.664062 C 72.042969 399.328125 72.210938 398.871094 72.210938 398.300781 C 72.210938 397.734375 72.042969 397.285156 71.707031 396.964844 C 71.367188 396.644531 70.855469 396.484375 70.171875 396.484375 L 68.175781 396.484375 Z M 80.230469 404.554688 L 83.949219 404.554688 L 83.949219 406.011719 L 78.429688 406.011719 L 78.429688 395.007812 L 80.230469 395.007812 Z M 89.3125 396.476562 L 89.3125 399.703125 L 93.105469 399.703125 L 93.105469 401.175781 L 89.3125 401.175781 L 89.3125 404.550781 L 93.582031 404.550781 L 93.582031 406.019531 L 87.507812 406.019531 L 87.507812 395.003906 L 93.582031 395.003906 L 93.582031 396.476562 Z M 105.996094 395.007812 L 102.359375 402.023438 L 102.359375 406.011719 L 100.554688 406.011719 L 100.554688 402.023438 L 96.902344 395.007812 L 98.910156 395.007812 L 101.457031 400.410156 L 104.003906 395.007812 Z M 113.097656 406.140625 C 112.359375 406.140625 111.699219 406.011719 111.105469 405.753906 C 110.515625 405.492188 110.050781 405.125 109.714844 404.648438 C 109.375 404.175781 109.207031 403.625 109.207031 402.988281 L 111.136719 402.988281 C 111.179688 403.464844 111.367188 403.855469 111.699219 404.160156 C 112.03125 404.464844 112.5 404.621094 113.097656 404.621094 C 113.71875 404.621094 114.207031 404.46875 114.554688 404.167969 C 114.902344 403.867188 115.078125 403.480469 115.078125 403.003906 C 115.078125 402.636719 114.96875 402.335938 114.753906 402.101562 C 114.535156 401.871094 114.269531 401.691406 113.945312 401.5625 C 113.625 401.4375 113.175781 401.300781 112.609375 401.152344 C 111.890625 400.960938 111.308594 400.769531 110.859375 400.574219 C 110.414062 400.378906 110.03125 400.078125 109.714844 399.664062 C 109.398438 399.253906 109.238281 398.703125 109.238281 398.019531 C 109.238281 397.386719 109.398438 396.832031 109.714844 396.355469 C 110.03125 395.882812 110.472656 395.515625 111.042969 395.261719 C 111.613281 395.007812 112.269531 394.882812 113.019531 394.882812 C 114.082031 394.882812 114.957031 395.148438 115.640625 395.683594 C 116.320312 396.214844 116.695312 396.945312 116.769531 397.875 L 114.773438 397.875 C 114.746094 397.472656 114.554688 397.132812 114.207031 396.847656 C 113.859375 396.5625 113.398438 396.417969 112.832031 396.417969 C 112.3125 396.417969 111.890625 396.550781 111.5625 396.816406 C 111.238281 397.078125 111.074219 397.460938 111.074219 397.957031 C 111.074219 398.292969 111.175781 398.570312 111.382812 398.785156 C 111.589844 399.003906 111.847656 399.175781 112.164062 399.300781 C 112.484375 399.425781 112.914062 399.566406 113.464844 399.710938 C 114.191406 399.914062 114.785156 400.113281 115.242188 400.3125 C 115.703125 400.515625 116.09375 400.824219 116.414062 401.238281 C 116.734375 401.65625 116.894531 402.214844 116.894531 402.910156 C 116.894531 403.46875 116.742188 403.996094 116.445312 404.496094 C 116.144531 404.992188 115.707031 405.386719 115.132812 405.6875 C 114.558594 405.988281 113.878906 406.140625 113.097656 406.140625 M 128.1875 395.007812 L 128.1875 396.484375 L 125.261719 396.484375 L 125.261719 406.011719 L 123.460938 406.011719 L 123.460938 396.484375 L 120.519531 396.484375 L 120.519531 395.007812 Z M 137.078125 406.140625 C 136.054688 406.140625 135.113281 405.898438 134.253906 405.417969 C 133.394531 404.9375 132.714844 404.269531 132.214844 403.410156 C 131.714844 402.550781 131.464844 401.582031 131.464844 400.503906 C 131.464844 399.425781 131.714844 398.460938 132.214844 397.605469 C 132.714844 396.75 133.394531 396.085938 134.253906 395.605469 C 135.113281 395.125 136.054688 394.882812 137.078125 394.882812 C 138.109375 394.882812 139.058594 395.125 139.917969 395.605469 C 140.777344 396.085938 141.453125 396.75 141.949219 397.605469 C 142.445312 398.460938 142.691406 399.425781 142.691406 400.503906 C 142.691406 401.582031 142.445312 402.550781 141.949219 403.410156 C 141.453125 404.269531 140.777344 404.9375 139.917969 405.417969 C 139.058594 405.898438 138.109375 406.140625 137.078125 406.140625 M 137.078125 404.574219 C 137.804688 404.574219 138.453125 404.40625 139.023438 404.074219 C 139.589844 403.742188 140.039062 403.265625 140.359375 402.648438 C 140.683594 402.03125 140.84375 401.316406 140.84375 400.503906 C 140.84375 399.691406 140.683594 398.976562 140.359375 398.367188 C 140.039062 397.753906 139.589844 397.285156 139.023438 396.957031 C 138.453125 396.628906 137.804688 396.46875 137.078125 396.46875 C 136.351562 396.46875 135.699219 396.628906 135.132812 396.957031 C 134.5625 397.285156 134.117188 397.753906 133.796875 398.367188 C 133.476562 398.976562 133.316406 399.691406 133.316406 400.503906 C 133.316406 401.316406 133.476562 402.03125 133.796875 402.648438 C 134.117188 403.265625 134.5625 403.742188 135.132812 404.074219 C 135.699219 404.40625 136.351562 404.574219 137.078125 404.574219 M 155.550781 406.019531 L 153.746094 406.019531 L 148.324219 397.804688 L 148.324219 406.019531 L 146.519531 406.019531 L 146.519531 395.003906 L 148.324219 395.003906 L 153.746094 403.203125 L 153.746094 395.003906 L 155.550781 395.003906 Z M 161.785156 396.476562 L 161.785156 399.703125 L 165.578125 399.703125 L 165.578125 401.175781 L 161.785156 401.175781 L 161.785156 404.550781 L 166.054688 404.550781 L 166.054688 406.019531 L 159.980469 406.019531 L 159.980469 395.003906 L 166.054688 395.003906 L 166.054688 396.476562 Z M 161.785156 396.476562 "/>
<path fill-rule="evenodd" fill="rgb(81.567383%, 9.803772%, 21.960449%)" fill-opacity="1" d="M 44.507812 285.457031 L 44.507812 324.652344 L 5.71875 349.84375 L 5.71875 285.457031 Z M 141.6875 219.457031 L 50.953125 280.605469 L 7.316406 280.605469 L 98.054688 219.457031 Z M 154.808594 248.921875 L 91.550781 290.457031 L 47.914062 290.457031 L 154.808594 219.457031 Z M 152.738281 285.457031 L 50.953125 354.558594 L 7.316406 354.558594 L 114.210938 285.457031 Z M 200.121094 291.429688 L 107.132812 354.558594 L 61.285156 354.558594 L 157.46875 291.429688 Z M 159.300781 286.582031 L 201.609375 286.582031 L 201.609375 219.457031 L 159.300781 219.457031 Z M 159.300781 286.582031 "/>
<path fill-rule="evenodd" fill="rgb(12.940979%, 10.980225%, 10.980225%)" fill-opacity="1" d="M 219.882812 72.421875 L 219.882812 52.246094 L 221.757812 54.589844 L 226.023438 54.589844 L 227.894531 52.246094 L 227.894531 67.9375 L 226.007812 65.59375 L 221.46875 65.59375 L 221.46875 69.546875 L 224.171875 72.421875 Z M 219.882812 72.421875 L 221.734375 74.765625 L 226.007812 74.765625 L 227.894531 72.421875 L 227.894531 80.429688 L 226.007812 78.085938 L 221.46875 78.085938 L 221.46875 82.039062 L 224.171875 84.914062 L 219.882812 84.914062 Z M 227.804688 60.042969 L 226.023438 57.804688 L 221.757812 57.804688 L 219.972656 60.042969 L 221.734375 62.273438 L 226.007812 62.273438 Z M 214.054688 97.253906 L 214.546875 97.253906 L 214.546875 80.421875 L 214.054688 80.421875 Z M 214.054688 25.792969 L 214.546875 25.792969 L 214.546875 9.023438 L 214.054688 9.023438 Z M 219.882812 51.945312 L 219.882812 34.902344 C 220.988281 34.53125 221.84375 34.179688 222.441406 33.84375 C 222.785156 33.652344 222.960938 33.203125 222.960938 32.496094 L 222.960938 30.933594 L 221.746094 30.933594 L 219.882812 33.289062 L 219.882812 25.28125 L 221.746094 27.628906 L 226.023438 27.628906 L 227.894531 25.28125 L 227.894531 34.214844 L 227.777344 35.71875 C 227.71875 36.460938 227.480469 37.074219 227.054688 37.550781 C 226.628906 38.027344 226.144531 38.265625 225.601562 38.265625 C 224.585938 38.265625 223.941406 37.335938 223.667969 35.476562 C 223.476562 36.113281 223.199219 36.589844 222.839844 36.921875 C 222.480469 37.25 221.882812 37.570312 221.050781 37.882812 L 219.984375 39.300781 L 221.734375 41.519531 L 226.035156 41.519531 L 227.894531 39.175781 L 227.894531 51.765625 L 224.425781 51.765625 L 226.574219 49.363281 L 226.574219 44.839844 L 224.820312 44.839844 L 224.820312 47.316406 L 225.757812 49.085938 L 222.140625 49.085938 L 223.238281 47.316406 L 223.238281 44.839844 L 221.46875 44.839844 L 221.46875 49.363281 L 223.761719 51.945312 Z M 225.421875 34.757812 C 225.789062 34.757812 226.050781 34.664062 226.203125 34.480469 C 226.328125 34.308594 226.394531 34.019531 226.394531 33.601562 L 226.394531 30.933594 L 224.542969 30.933594 L 224.554688 33.699219 C 224.554688 34.398438 224.84375 34.75 225.421875 34.757812 M 223.464844 21.015625 C 222.359375 21.015625 221.402344 20.429688 220.597656 19.253906 C 219.792969 18.078125 219.386719 16.671875 219.386719 15.035156 C 219.386719 13.441406 219.796875 12.039062 220.609375 10.832031 C 221.421875 9.625 222.367188 9.023438 223.441406 9.023438 C 224.660156 9.023438 225.707031 9.621094 226.582031 10.820312 C 227.457031 12.019531 227.894531 13.449219 227.894531 15.117188 C 227.894531 16.707031 227.457031 18.085938 226.578125 19.257812 C 225.695312 20.429688 224.660156 21.015625 223.464844 21.015625 M 223.691406 17.242188 C 224.515625 17.242188 225.195312 17.035156 225.730469 16.625 C 226.261719 16.210938 226.53125 15.675781 226.542969 15.027344 C 226.550781 14.378906 226.285156 13.847656 225.753906 13.433594 C 225.21875 13.015625 224.53125 12.808594 223.691406 12.808594 C 222.855469 12.808594 222.1875 13.011719 221.679688 13.414062 C 221.175781 13.820312 220.921875 14.355469 220.921875 15.027344 C 220.921875 15.695312 221.171875 16.230469 221.667969 16.636719 C 222.167969 17.039062 222.84375 17.242188 223.691406 17.242188 M 227.894531 97.253906 L 226.285156 95.125 L 222.777344 92.203125 L 221.757812 92.203125 L 219.882812 94.550781 L 219.882812 86.601562 L 221.757812 88.945312 L 222.777344 88.945312 L 226.417969 85.914062 L 227.894531 83.777344 L 227.894531 91.277344 L 226.417969 89.714844 L 224.484375 91.425781 L 226.5625 93.058594 L 227.894531 91.507812 Z M 226.335938 24.761719 C 225.707031 24.765625 225.144531 24.507812 224.648438 23.984375 C 224.152344 23.460938 223.867188 22.839844 223.800781 22.121094 L 224.0625 22.121094 C 224.515625 22.964844 225.078125 23.480469 225.746094 23.664062 C 225.625 23.441406 225.5625 23.25 225.5625 23.085938 C 225.5625 22.800781 225.671875 22.554688 225.894531 22.355469 C 226.113281 22.15625 226.375 22.054688 226.679688 22.054688 C 227.027344 22.054688 227.316406 22.183594 227.550781 22.441406 C 227.78125 22.703125 227.894531 23.027344 227.894531 23.417969 C 227.894531 23.804688 227.746094 24.121094 227.453125 24.375 C 227.15625 24.625 226.785156 24.753906 226.335938 24.761719 M 211.769531 32.214844 C 211.769531 31.753906 211.878906 31.328125 212.09375 30.941406 C 212.3125 30.554688 212.609375 30.25 213 30.023438 C 213.382812 29.796875 213.820312 29.683594 214.304688 29.683594 C 214.785156 29.683594 215.21875 29.796875 215.605469 30.023438 C 215.992188 30.25 216.289062 30.554688 216.507812 30.941406 C 216.722656 31.328125 216.828125 31.753906 216.828125 32.214844 C 216.828125 32.679688 216.722656 33.105469 216.507812 33.492188 C 216.289062 33.878906 215.992188 34.1875 215.605469 34.40625 C 215.21875 34.632812 214.785156 34.742188 214.304688 34.742188 C 213.820312 34.742188 213.382812 34.632812 213 34.40625 C 212.609375 34.1875 212.3125 33.878906 212.09375 33.492188 C 211.878906 33.105469 211.769531 32.679688 211.769531 32.214844 M 212.476562 32.214844 C 212.476562 32.542969 212.546875 32.835938 212.699219 33.089844 C 212.847656 33.347656 213.0625 33.546875 213.339844 33.691406 C 213.617188 33.835938 213.9375 33.910156 214.304688 33.910156 C 214.667969 33.910156 214.988281 33.835938 215.265625 33.691406 C 215.539062 33.546875 215.75 33.347656 215.898438 33.089844 C 216.046875 32.835938 216.117188 32.542969 216.117188 32.214844 C 216.117188 31.886719 216.046875 31.59375 215.898438 31.339844 C 215.75 31.082031 215.539062 30.878906 215.265625 30.734375 C 214.988281 30.589844 214.667969 30.519531 214.304688 30.519531 C 213.9375 30.519531 213.617188 30.589844 213.339844 30.734375 C 213.0625 30.878906 212.847656 31.082031 212.699219 31.339844 C 212.546875 31.59375 212.476562 31.886719 212.476562 32.214844 M 212.832031 39.453125 L 212.832031 37.378906 L 211.824219 37.023438 L 211.824219 36.175781 L 216.777344 37.949219 L 216.777344 38.890625 L 211.824219 40.664062 L 211.824219 39.808594 Z M 213.496094 39.222656 L 215.796875 38.417969 L 213.496094 37.605469 Z M 211.828125 45.085938 L 214.039062 43.171875 L 211.828125 43.171875 L 211.828125 42.359375 L 216.773438 42.359375 L 216.773438 43.171875 L 214.515625 43.171875 L 216.773438 45.09375 L 216.773438 46.113281 L 214.296875 43.960938 L 211.828125 46.148438 Z M 211.769531 49.425781 C 211.769531 49.09375 211.828125 48.792969 211.945312 48.53125 C 212.0625 48.261719 212.226562 48.054688 212.441406 47.902344 C 212.652344 47.75 212.902344 47.675781 213.183594 47.675781 L 213.183594 48.542969 C 212.972656 48.5625 212.796875 48.648438 212.660156 48.796875 C 212.519531 48.945312 212.453125 49.15625 212.453125 49.425781 C 212.453125 49.707031 212.519531 49.925781 212.65625 50.082031 C 212.792969 50.238281 212.964844 50.316406 213.179688 50.316406 C 213.34375 50.316406 213.480469 50.269531 213.585938 50.171875 C 213.6875 50.074219 213.769531 49.953125 213.824219 49.808594 C 213.882812 49.664062 213.945312 49.460938 214.011719 49.203125 C 214.097656 48.882812 214.183594 48.621094 214.269531 48.417969 C 214.359375 48.214844 214.496094 48.046875 214.679688 47.902344 C 214.867188 47.761719 215.113281 47.6875 215.421875 47.6875 C 215.703125 47.6875 215.953125 47.761719 216.167969 47.902344 C 216.382812 48.046875 216.546875 48.242188 216.660156 48.5 C 216.773438 48.757812 216.828125 49.054688 216.828125 49.390625 C 216.828125 49.871094 216.710938 50.261719 216.472656 50.570312 C 216.230469 50.875 215.902344 51.046875 215.484375 51.082031 L 215.484375 50.183594 C 215.664062 50.167969 215.820312 50.082031 215.949219 49.925781 C 216.074219 49.769531 216.140625 49.5625 216.140625 49.304688 C 216.140625 49.074219 216.082031 48.882812 215.960938 48.734375 C 215.84375 48.585938 215.671875 48.515625 215.449219 48.515625 C 215.296875 48.515625 215.175781 48.5625 215.074219 48.652344 C 214.976562 48.746094 214.902344 48.863281 214.84375 49.007812 C 214.785156 49.148438 214.726562 49.34375 214.660156 49.589844 C 214.570312 49.917969 214.480469 50.183594 214.386719 50.390625 C 214.300781 50.597656 214.160156 50.773438 213.972656 50.917969 C 213.785156 51.0625 213.535156 51.136719 213.222656 51.136719 C 212.96875 51.136719 212.730469 51.070312 212.507812 50.933594 C 212.289062 50.800781 212.109375 50.601562 211.972656 50.339844 C 211.835938 50.082031 211.769531 49.777344 211.769531 49.425781 M 216.773438 56.222656 L 216.113281 56.222656 L 216.113281 54.90625 L 211.828125 54.90625 L 211.828125 54.09375 L 216.113281 54.09375 L 216.113281 52.769531 L 216.773438 52.769531 Z M 211.769531 60.226562 C 211.769531 59.765625 211.878906 59.34375 212.09375 58.957031 C 212.3125 58.566406 212.609375 58.261719 213 58.035156 C 213.382812 57.8125 213.820312 57.699219 214.304688 57.699219 C 214.785156 57.699219 215.21875 57.8125 215.605469 58.035156 C 215.992188 58.261719 216.289062 58.566406 216.507812 58.957031 C 216.722656 59.34375 216.828125 59.765625 216.828125 60.226562 C 216.828125 60.691406 216.722656 61.117188 216.507812 61.507812 C 216.289062 61.890625 215.992188 62.199219 215.605469 62.421875 C 215.21875 62.644531 214.785156 62.757812 214.304688 62.757812 C 213.820312 62.757812 213.382812 62.644531 213 62.421875 C 212.609375 62.199219 212.3125 61.890625 212.09375 61.507812 C 211.878906 61.117188 211.769531 60.691406 211.769531 60.226562 M 212.476562 60.226562 C 212.476562 60.554688 212.546875 60.847656 212.699219 61.101562 C 212.847656 61.359375 213.0625 61.558594 213.339844 61.707031 C 213.617188 61.851562 213.9375 61.921875 214.304688 61.921875 C 214.667969 61.921875 214.988281 61.851562 215.265625 61.707031 C 215.539062 61.558594 215.75 61.359375 215.898438 61.101562 C 216.046875 60.847656 216.117188 60.554688 216.117188 60.226562 C 216.117188 59.898438 216.046875 59.609375 215.898438 59.351562 C 215.75 59.09375 215.539062 58.894531 215.265625 58.75 C 214.988281 58.605469 214.667969 58.53125 214.304688 58.53125 C 213.9375 58.53125 213.617188 58.605469 213.339844 58.75 C 213.0625 58.894531 212.847656 59.09375 212.699219 59.351562 C 212.546875 59.609375 212.476562 59.898438 212.476562 60.226562 M 216.777344 70.925781 L 211.832031 69.460938 L 211.832031 68.539062 L 215.574219 67.5 L 211.832031 66.398438 L 211.824219 65.484375 L 216.777344 64.082031 L 216.777344 64.941406 L 212.746094 65.96875 L 216.777344 67.078125 L 216.777344 67.992188 L 212.769531 69.023438 L 216.777344 70.058594 Z M 211.824219 76.589844 L 211.824219 75.78125 L 215.519531 73.335938 L 211.824219 73.335938 L 211.824219 72.523438 L 216.777344 72.523438 L 216.777344 73.335938 L 213.089844 75.78125 L 216.777344 75.78125 L 216.777344 76.589844 Z M 211.824219 76.589844 "/>
<path fill-rule="evenodd" fill="rgb(81.567383%, 9.803772%, 21.960449%)" fill-opacity="1" d="M 262.996094 26.492188 L 245.375 26.492188 L 234.050781 9.023438 L 262.996094 9.023438 Z M 292.667969 70.265625 L 265.179688 29.394531 L 265.179688 9.742188 L 292.667969 50.613281 Z M 279.421875 76.175781 L 260.75 47.679688 L 260.75 28.027344 L 292.667969 76.175781 Z M 262.996094 75.242188 L 231.929688 29.394531 L 231.929688 9.742188 L 262.996094 57.890625 Z M 260.308594 96.585938 L 231.929688 54.699219 L 231.929688 34.050781 L 260.308594 77.375 Z M 262.492188 97.253906 L 292.667969 97.253906 L 292.667969 78.195312 L 262.492188 78.195312 Z M 262.492188 97.253906 "/>
<path fill-rule="evenodd" fill="rgb(12.940979%, 10.980225%, 10.980225%)" fill-opacity="1" d="M 218.8125 381.308594 L 220.664062 383.652344 L 224.9375 383.652344 L 226.824219 381.308594 L 226.824219 389.316406 L 224.9375 386.96875 L 220.398438 386.96875 L 220.398438 390.925781 L 223.101562 393.796875 L 218.8125 393.796875 Z M 218.8125 381.308594 L 218.8125 361.132812 L 220.6875 363.476562 L 224.953125 363.476562 L 226.824219 361.132812 L 226.824219 376.820312 L 224.9375 374.476562 L 220.398438 374.476562 L 220.398438 378.433594 L 223.101562 381.308594 Z M 226.734375 368.929688 L 224.953125 366.6875 L 220.6875 366.6875 L 218.902344 368.929688 L 220.664062 371.160156 L 224.9375 371.160156 Z M 212.984375 406.140625 L 213.476562 406.140625 L 213.476562 394.171875 L 212.984375 394.171875 Z M 212.984375 329.871094 L 213.476562 329.871094 L 213.476562 317.90625 L 212.984375 317.90625 Z M 218.8125 360.832031 L 218.8125 343.785156 C 219.917969 343.417969 220.769531 343.0625 221.371094 342.726562 C 221.714844 342.535156 221.886719 342.085938 221.886719 341.382812 L 221.886719 339.816406 L 220.675781 339.816406 L 218.8125 342.175781 L 218.8125 334.167969 L 220.675781 336.511719 L 224.953125 336.511719 L 226.824219 334.167969 L 226.824219 343.097656 L 226.703125 344.601562 C 226.648438 345.347656 226.410156 345.960938 225.984375 346.4375 C 225.558594 346.914062 225.074219 347.152344 224.53125 347.152344 C 223.511719 347.152344 222.871094 346.222656 222.59375 344.363281 C 222.40625 344.996094 222.128906 345.476562 221.769531 345.808594 C 221.40625 346.132812 220.808594 346.457031 219.976562 346.765625 L 218.910156 348.1875 L 220.664062 350.40625 L 224.964844 350.40625 L 226.824219 348.058594 L 226.824219 360.652344 L 223.351562 360.652344 L 225.503906 358.246094 L 225.503906 353.722656 L 223.75 353.722656 L 223.75 356.203125 L 224.6875 357.96875 L 221.070312 357.96875 L 222.164062 356.203125 L 222.164062 353.722656 L 220.398438 353.722656 L 220.398438 358.246094 L 222.691406 360.832031 Z M 224.351562 343.640625 C 224.71875 343.640625 224.980469 343.550781 225.132812 343.367188 C 225.257812 343.195312 225.324219 342.902344 225.324219 342.488281 L 225.324219 339.816406 L 223.472656 339.816406 L 223.488281 342.582031 C 223.488281 343.28125 223.773438 343.632812 224.351562 343.640625 M 222.394531 329.902344 C 221.289062 329.902344 220.332031 329.3125 219.527344 328.136719 C 218.722656 326.964844 218.316406 325.554688 218.316406 323.921875 C 218.316406 322.324219 218.726562 320.921875 219.539062 319.71875 C 220.351562 318.511719 221.296875 317.90625 222.371094 317.90625 C 223.589844 317.90625 224.632812 318.507812 225.511719 319.707031 C 226.386719 320.90625 226.824219 322.339844 226.824219 324.003906 C 226.824219 325.59375 226.386719 326.972656 225.503906 328.144531 C 224.625 329.316406 223.589844 329.902344 222.394531 329.902344 M 222.617188 326.128906 C 223.441406 326.128906 224.125 325.921875 224.65625 325.507812 C 225.191406 325.09375 225.460938 324.5625 225.472656 323.910156 C 225.480469 323.265625 225.214844 322.734375 224.679688 322.316406 C 224.148438 321.902344 223.460938 321.691406 222.617188 321.691406 C 221.785156 321.691406 221.117188 321.894531 220.609375 322.300781 C 220.101562 322.707031 219.851562 323.242188 219.851562 323.910156 C 219.851562 324.578125 220.097656 325.117188 220.597656 325.519531 C 221.097656 325.925781 221.769531 326.128906 222.617188 326.128906 M 226.824219 406.140625 L 225.214844 404.011719 L 221.707031 401.089844 L 220.6875 401.089844 L 218.8125 403.4375 L 218.8125 395.488281 L 220.6875 397.832031 L 221.707031 397.832031 L 225.347656 394.800781 L 226.824219 392.660156 L 226.824219 400.164062 L 225.347656 398.601562 L 223.414062 400.308594 L 225.492188 401.945312 L 226.824219 400.390625 Z M 225.269531 333.644531 C 224.636719 333.652344 224.074219 333.394531 223.578125 332.871094 C 223.078125 332.347656 222.796875 331.722656 222.730469 331.007812 L 222.992188 331.007812 C 223.445312 331.847656 224.007812 332.363281 224.675781 332.546875 C 224.554688 332.324219 224.492188 332.136719 224.492188 331.972656 C 224.492188 331.683594 224.601562 331.441406 224.824219 331.238281 C 225.042969 331.042969 225.304688 330.941406 225.609375 330.941406 C 225.957031 330.941406 226.246094 331.070312 226.476562 331.328125 C 226.710938 331.585938 226.824219 331.914062 226.824219 332.304688 C 226.824219 332.6875 226.675781 333.003906 226.382812 333.257812 C 226.085938 333.507812 225.714844 333.640625 225.269531 333.644531 M 213.296875 336.570312 C 213.25 336.839844 213.109375 337.0625 212.875 337.25 C 212.644531 337.433594 212.378906 337.527344 212.085938 337.527344 C 211.835938 337.527344 211.609375 337.460938 211.40625 337.328125 C 211.207031 337.199219 211.046875 337.011719 210.929688 336.765625 C 210.8125 336.519531 210.757812 336.230469 210.757812 335.902344 L 210.757812 333.921875 L 215.703125 333.921875 L 215.703125 335.808594 C 215.703125 336.148438 215.648438 336.4375 215.53125 336.679688 C 215.417969 336.921875 215.265625 337.101562 215.074219 337.226562 C 214.878906 337.351562 214.667969 337.414062 214.429688 337.414062 C 214.144531 337.414062 213.90625 337.335938 213.71875 337.183594 C 213.527344 337.03125 213.386719 336.828125 213.296875 336.570312 M 211.417969 335.832031 C 211.417969 336.105469 211.484375 336.324219 211.617188 336.480469 C 211.75 336.636719 211.933594 336.714844 212.171875 336.714844 C 212.414062 336.714844 212.605469 336.632812 212.746094 336.464844 C 212.890625 336.296875 212.960938 336.078125 212.960938 335.800781 L 212.960938 334.734375 L 211.417969 334.734375 Z M 213.625 334.734375 L 213.625 335.738281 C 213.625 336.003906 213.6875 336.210938 213.804688 336.363281 C 213.925781 336.511719 214.101562 336.585938 214.328125 336.585938 C 214.550781 336.585938 214.726562 336.511719 214.851562 336.363281 C 214.976562 336.210938 215.039062 336.003906 215.039062 335.738281 L 215.039062 334.734375 Z M 211.765625 342.320312 L 211.765625 340.25 L 210.753906 339.890625 L 210.753906 339.042969 L 215.703125 340.816406 L 215.703125 341.757812 L 210.753906 343.53125 L 210.753906 342.679688 Z M 212.425781 342.09375 L 214.722656 341.289062 L 212.425781 340.476562 Z M 210.757812 347.800781 L 212.734375 346.660156 L 212.734375 346.039062 L 210.757812 346.039062 L 210.757812 345.230469 L 215.703125 345.230469 L 215.703125 346.9375 C 215.703125 347.320312 215.636719 347.640625 215.503906 347.902344 C 215.371094 348.167969 215.195312 348.363281 214.96875 348.496094 C 214.746094 348.625 214.496094 348.691406 214.222656 348.691406 C 213.898438 348.691406 213.605469 348.597656 213.34375 348.40625 C 213.078125 348.222656 212.902344 347.933594 212.804688 347.542969 L 210.757812 348.769531 Z M 213.382812 346.039062 L 213.382812 346.9375 C 213.382812 347.242188 213.457031 347.472656 213.609375 347.625 C 213.761719 347.78125 213.964844 347.855469 214.222656 347.855469 C 214.480469 347.855469 214.679688 347.78125 214.824219 347.628906 C 214.96875 347.476562 215.039062 347.246094 215.039062 346.9375 L 215.039062 346.039062 Z M 211.410156 351.46875 L 211.410156 353.144531 L 210.757812 353.144531 L 210.757812 350.65625 L 215.703125 350.65625 L 215.703125 351.46875 Z M 215.042969 355.558594 L 213.59375 355.558594 L 213.59375 357.269531 L 212.929688 357.269531 L 212.929688 355.558594 L 211.414062 355.558594 L 211.414062 357.480469 L 210.753906 357.480469 L 210.753906 354.746094 L 215.703125 354.746094 L 215.703125 357.480469 L 215.042969 357.480469 Z M 215.703125 363.074219 L 212.550781 361.4375 L 210.757812 361.4375 L 210.757812 360.625 L 212.550781 360.625 L 215.703125 358.976562 L 215.703125 359.882812 L 213.277344 361.03125 L 215.703125 362.175781 Z M 210.699219 366.273438 C 210.699219 365.941406 210.757812 365.640625 210.875 365.375 C 210.988281 365.109375 211.15625 364.902344 211.367188 364.746094 C 211.582031 364.597656 211.832031 364.519531 212.117188 364.519531 L 212.117188 365.390625 C 211.902344 365.410156 211.726562 365.492188 211.589844 365.644531 C 211.449219 365.792969 211.382812 366 211.382812 366.273438 C 211.382812 366.550781 211.449219 366.773438 211.585938 366.929688 C 211.71875 367.085938 211.894531 367.164062 212.109375 367.164062 C 212.273438 367.164062 212.410156 367.113281 212.515625 367.015625 C 212.617188 366.917969 212.699219 366.800781 212.757812 366.65625 C 212.8125 366.507812 212.875 366.308594 212.941406 366.050781 C 213.027344 365.730469 213.113281 365.46875 213.199219 365.265625 C 213.289062 365.0625 213.425781 364.890625 213.609375 364.746094 C 213.792969 364.605469 214.042969 364.535156 214.351562 364.535156 C 214.636719 364.535156 214.882812 364.605469 215.097656 364.746094 C 215.3125 364.890625 215.472656 365.089844 215.589844 365.347656 C 215.703125 365.601562 215.757812 365.898438 215.757812 366.238281 C 215.757812 366.714844 215.640625 367.109375 215.402344 367.417969 C 215.160156 367.722656 214.832031 367.894531 214.414062 367.925781 L 214.414062 367.027344 C 214.59375 367.015625 214.75 366.929688 214.875 366.773438 C 215.003906 366.617188 215.070312 366.410156 215.070312 366.152344 C 215.070312 365.921875 215.011719 365.730469 214.890625 365.582031 C 214.773438 365.4375 214.601562 365.363281 214.378906 365.363281 C 214.226562 365.363281 214.101562 365.40625 214.007812 365.5 C 213.910156 365.59375 213.832031 365.710938 213.773438 365.855469 C 213.71875 365.996094 213.65625 366.191406 213.589844 366.4375 C 213.5 366.765625 213.410156 367.03125 213.320312 367.238281 C 213.230469 367.445312 213.089844 367.621094 212.902344 367.765625 C 212.714844 367.910156 212.464844 367.984375 212.152344 367.984375 C 211.898438 367.984375 211.664062 367.914062 211.441406 367.78125 C 211.214844 367.644531 211.035156 367.449219 210.902344 367.1875 C 210.765625 366.929688 210.699219 366.625 210.699219 366.273438 M 215.703125 373.070312 L 215.039062 373.070312 L 215.039062 371.75 L 210.757812 371.75 L 210.757812 370.941406 L 215.039062 370.941406 L 215.039062 369.613281 L 215.703125 369.613281 Z M 210.699219 377.074219 C 210.699219 376.613281 210.808594 376.1875 211.023438 375.800781 C 211.238281 375.414062 211.539062 375.109375 211.925781 374.882812 C 212.316406 374.660156 212.746094 374.546875 213.230469 374.546875 C 213.71875 374.546875 214.148438 374.660156 214.535156 374.882812 C 214.921875 375.109375 215.21875 375.414062 215.433594 375.800781 C 215.652344 376.1875 215.757812 376.613281 215.757812 377.074219 C 215.757812 377.539062 215.652344 377.964844 215.433594 378.351562 C 215.21875 378.738281 214.921875 379.042969 214.535156 379.269531 C 214.148438 379.492188 213.71875 379.601562 213.230469 379.601562 C 212.746094 379.601562 212.316406 379.492188 211.925781 379.269531 C 211.539062 379.042969 211.238281 378.738281 211.023438 378.351562 C 210.808594 377.964844 210.699219 377.539062 210.699219 377.074219 M 211.402344 377.074219 C 211.402344 377.402344 211.480469 377.695312 211.628906 377.949219 C 211.777344 378.207031 211.992188 378.40625 212.265625 378.554688 C 212.546875 378.695312 212.867188 378.769531 213.230469 378.769531 C 213.597656 378.769531 213.917969 378.695312 214.191406 378.554688 C 214.46875 378.40625 214.679688 378.207031 214.828125 377.949219 C 214.972656 377.695312 215.046875 377.402344 215.046875 377.074219 C 215.046875 376.746094 214.972656 376.453125 214.828125 376.199219 C 214.679688 375.941406 214.46875 375.738281 214.191406 375.59375 C 213.917969 375.449219 213.597656 375.378906 213.230469 375.378906 C 212.867188 375.378906 212.546875 375.449219 212.265625 375.59375 C 211.992188 375.738281 211.777344 375.941406 211.628906 376.199219 C 211.480469 376.453125 211.402344 376.746094 211.402344 377.074219 M 210.753906 385.394531 L 210.753906 384.582031 L 214.445312 382.140625 L 210.753906 382.140625 L 210.753906 381.328125 L 215.703125 381.328125 L 215.703125 382.140625 L 212.019531 384.582031 L 215.703125 384.582031 L 215.703125 385.394531 Z M 215.042969 388.203125 L 213.59375 388.203125 L 213.59375 389.910156 L 212.929688 389.910156 L 212.929688 388.203125 L 211.414062 388.203125 L 211.414062 390.125 L 210.753906 390.125 L 210.753906 387.390625 L 215.703125 387.390625 L 215.703125 390.125 L 215.042969 390.125 Z M 215.042969 388.203125 "/>
<path fill-rule="evenodd" fill="rgb(81.567383%, 9.803772%, 21.960449%)" fill-opacity="1" d="M 262.996094 335.378906 L 245.375 335.378906 L 234.050781 317.90625 L 262.996094 317.90625 Z M 292.667969 379.152344 L 265.179688 338.277344 L 265.179688 318.628906 L 292.667969 359.496094 Z M 279.421875 385.0625 L 260.75 356.566406 L 260.75 336.914062 L 292.667969 385.0625 Z M 262.996094 384.125 L 231.929688 338.277344 L 231.929688 318.628906 L 262.996094 366.773438 Z M 260.308594 405.46875 L 231.929688 363.585938 L 231.929688 342.9375 L 260.308594 386.257812 Z M 262.492188 406.140625 L 292.667969 406.140625 L 292.667969 387.082031 L 262.492188 387.082031 Z M 262.492188 406.140625 "/>
</svg>
