<?xml version="1.0" encoding="UTF-8"?>
<!-- CMYK_PDF_CONVERTED -->
<svg data-vectorized-cmyk="true" data-original-cmyk-pdf="true" xmlns="http://www.w3.org/2000/svg" xmlns:xlink="http://www.w3.org/1999/xlink" width="269.289062" height="150.53125" viewBox="2.6875 3.617188 269.289062 150.53125">
<path fill-rule="nonzero" device-cmyk(0.600, 0.600, 0.000, 0.570) fill-opacity="1" d="M 74.558594 129.359375 C 73.9375 129.332031 59.308594 128.582031 48.714844 121.8125 C 35.996094 113.679688 27.582031 103.800781 22.992188 91.609375 C 17.820312 77.871094 20.355469 66.332031 21.3125 61.988281 L 21.402344 61.574219 C 21.5625 60.84375 21.722656 60.160156 21.875 59.515625 C 22.5 56.886719 22.914062 55.152344 22.257812 53.730469 C 21.277344 51.605469 16.058594 43.269531 16.007812 43.1875 L 15.484375 42.347656 L 29.292969 28.230469 L 30.144531 28.75 C 35.078125 31.753906 40.710938 35.097656 41.425781 35.386719 C 41.734375 35.503906 41.984375 35.5625 42.207031 35.5625 C 42.554688 35.5625 42.925781 35.421875 43.457031 35.097656 C 44.730469 34.320312 46.878906 33.652344 46.96875 33.625 L 51.496094 32.222656 L 48.257812 35.683594 C 48.171875 35.773438 39.785156 44.898438 36.773438 60.035156 C 34.332031 72.289062 35.46875 90.667969 45.96875 105.492188 C 54.941406 118.152344 63.242188 121.617188 65.96875 122.757812 L 66.386719 122.933594 C 66.980469 123.1875 67.722656 123.476562 68.503906 123.78125 C 71.011719 124.757812 73.855469 125.863281 75.410156 127.132812 L 78.34375 129.535156 Z M 74.558594 129.359375 "/>
<path fill-rule="nonzero" device-cmyk(0.000, 0.330, 0.820, 0.100) fill-opacity="1" d="M 47.339844 34.824219 C 47.339844 34.824219 38.667969 44.082031 35.539062 59.789062 C 32.761719 73.746094 34.882812 92.015625 44.945312 106.21875 C 54.605469 119.855469 63.5 123.0625 65.894531 124.085938 C 68.289062 125.113281 72.734375 126.566406 74.613281 128.105469 C 74.613281 128.105469 59.824219 127.421875 49.390625 120.753906 C 38.960938 114.085938 29.382812 105.019531 24.167969 91.167969 C 18.953125 77.316406 21.773438 65.773438 22.628906 61.84375 C 23.484375 57.910156 24.425781 55.429688 23.398438 53.207031 C 22.371094 50.984375 17.070312 42.519531 17.070312 42.519531 L 29.492188 29.820312 C 29.492188 29.820312 39.816406 36.105469 40.96875 36.554688 C 42.125 37.003906 42.957031 36.875 44.113281 36.171875 C 45.265625 35.464844 47.339844 34.824219 47.339844 34.824219 "/>
<path fill-rule="nonzero" device-cmyk(0.600, 0.600, 0.000, 0.570) fill-opacity="1" d="M 101.761719 125.304688 C 101.761719 125.304688 93.875 128.320312 88.230469 129.988281 C 82.589844 131.65625 74.890625 132.101562 65.464844 130.5 C 56.039062 128.898438 46.871094 124.601562 38.148438 117.804688 C 29.425781 111.007812 23.65625 101.386719 20.320312 93.179688 C 16.988281 84.96875 16.921875 71.695312 16.921875 71.695312 L 2.6875 75.285156 L 2.6875 92.921875 L 16.921875 96.707031 C 16.921875 96.707031 18.78125 104.722656 20.640625 108.121094 C 22.5 111.519531 23.464844 112.03125 22.5 114.46875 C 21.539062 116.90625 16.152344 126.074219 16.152344 126.074219 L 28.65625 138.578125 C 28.65625 138.578125 35.199219 134.476562 38.339844 132.742188 C 41.484375 131.011719 44.816406 131.976562 50.78125 133.578125 C 56.746094 135.179688 65.53125 136.078125 78.097656 134.15625 C 90.667969 132.230469 99.644531 128.0625 101.761719 125.304688 "/>
<path fill-rule="nonzero" device-cmyk(0.600, 0.600, 0.000, 0.570) fill-opacity="1" d="M 59.867188 153.867188 L 55.613281 137.007812 L 57.351562 137.136719 C 57.382812 137.136719 60.746094 137.382812 65.371094 137.382812 C 69.273438 137.382812 72.90625 137.214844 76.175781 136.882812 C 85.507812 135.9375 91.417969 133.535156 98.746094 130.253906 C 103.757812 128.007812 108.628906 124.445312 112.835938 119.957031 C 114.882812 117.777344 116.367188 117.105469 116.527344 117.035156 L 118.09375 116.363281 L 118.273438 118.054688 C 118.320312 118.515625 119.4375 129.34375 117.957031 133.78125 C 116.398438 138.460938 112.421875 140.457031 112.253906 140.539062 L 111.648438 140.839844 L 111.066406 140.496094 C 110.976562 140.445312 102.132812 135.269531 99.613281 134.226562 C 99.148438 134.03125 98.785156 133.941406 98.476562 133.941406 C 97.914062 133.941406 97.34375 134.257812 96.203125 134.910156 C 95.433594 135.355469 94.476562 135.90625 93.191406 136.511719 C 89.734375 138.132812 85.375 139.359375 83.671875 139.808594 L 79.757812 154.148438 Z M 59.867188 153.867188 "/>
<path fill-rule="nonzero" device-cmyk(0.000, 0.330, 0.820, 0.100) fill-opacity="1" d="M 78.804688 152.878906 L 82.652344 138.773438 C 82.652344 138.773438 88.421875 137.359375 92.65625 135.375 C 96.886719 133.386719 97.464844 131.976562 100.09375 133.066406 C 102.722656 134.15625 111.699219 139.414062 111.699219 139.414062 C 111.699219 139.414062 115.355469 137.617188 116.765625 133.386719 C 118.179688 129.152344 117.023438 118.1875 117.023438 118.1875 C 117.023438 118.1875 115.675781 118.765625 113.753906 120.816406 C 111.828125 122.867188 106.699219 128.0625 99.261719 131.398438 C 91.820312 134.730469 85.792969 137.167969 76.304688 138.132812 C 66.8125 139.09375 57.257812 138.386719 57.257812 138.386719 L 60.847656 152.621094 Z M 78.804688 152.878906 "/>
<path fill-rule="nonzero" device-cmyk(0.600, 0.600, 0.000, 0.570) fill-opacity="1" d="M 38.277344 79.136719 C 38.277344 79.136719 39.175781 71.246094 44.945312 61.050781 C 50.71875 50.855469 62.773438 43.609375 73.03125 41.171875 C 83.292969 38.734375 96.4375 41.492188 104.96875 47.070312 C 113.496094 52.652344 117.023438 57.460938 117.023438 57.460938 L 117.023438 39.570312 C 117.023438 35.914062 116.960938 35.335938 116.382812 34.503906 C 115.804688 33.667969 112.855469 30.847656 112.855469 30.847656 C 112.855469 30.847656 104.902344 35.914062 103.234375 36.8125 C 101.570312 37.710938 100.03125 38.480469 98.042969 37.195312 C 96.054688 35.914062 94.128906 34.632812 90.347656 33.539062 C 86.5625 32.449219 84.445312 32.128906 83.292969 28.925781 C 82.140625 25.71875 80.152344 16.933594 80.152344 16.933594 L 62.582031 16.933594 C 62.582031 16.933594 61.042969 21.613281 60.144531 25.71875 C 59.246094 29.820312 58.539062 30.976562 55.78125 32.964844 C 53.023438 34.953125 46.804688 39.378906 42.828125 48.484375 C 38.855469 57.589844 36.671875 69.195312 38.277344 79.136719 "/>
<path fill-rule="nonzero" device-cmyk(0.000, 0.330, 0.820, 0.100) fill-opacity="1" d="M 269.070312 140.761719 L 125.035156 140.761719 C 123.804688 140.761719 122.796875 139.75 122.796875 138.519531 L 122.796875 122.800781 C 122.796875 121.570312 123.804688 120.5625 125.035156 120.5625 L 269.070312 120.5625 C 270.300781 120.5625 271.3125 121.570312 271.3125 122.800781 L 271.3125 138.519531 C 271.3125 139.75 270.300781 140.761719 269.070312 140.761719 "/>
<path fill-rule="nonzero" device-cmyk(0.600, 0.600, 0.000, 0.570) fill-opacity="1" d="M 144.4375 138.472656 L 142.679688 138.472656 C 142.132812 138.492188 141.605469 138.511719 141.0625 138.527344 L 140.980469 138.394531 C 140.980469 136.851562 140.964844 135.289062 140.941406 133.726562 L 140.925781 130.71875 C 140.902344 129.570312 140.925781 128.398438 140.925781 127.246094 C 140.574219 128.613281 140.203125 129.976562 139.828125 131.34375 L 139.050781 134.214844 C 138.640625 135.582031 138.269531 136.96875 137.917969 138.355469 L 137.78125 138.472656 L 136.257812 138.472656 C 135.789062 138.492188 135.339844 138.511719 134.890625 138.527344 L 134.773438 138.410156 C 134.34375 136.734375 133.914062 135.035156 133.46875 133.375 L 132.726562 130.601562 C 132.410156 129.453125 132.140625 128.300781 131.867188 127.167969 C 131.847656 128.398438 131.828125 129.605469 131.789062 130.835938 L 131.671875 134.644531 C 131.652344 135.875 131.613281 137.105469 131.613281 138.355469 L 131.496094 138.472656 C 131.066406 138.472656 130.636719 138.449219 130.207031 138.472656 C 129.71875 138.472656 129.230469 138.511719 128.742188 138.527344 L 128.644531 138.410156 C 128.839844 135.855469 128.996094 133.296875 129.113281 130.738281 C 129.230469 128.75 129.308594 126.777344 129.347656 124.804688 L 129.464844 124.6875 L 131.515625 124.6875 L 134.089844 124.628906 L 134.1875 124.746094 C 134.480469 125.996094 134.832031 127.246094 135.164062 128.496094 L 135.710938 130.699219 C 135.828125 131.109375 135.945312 131.519531 136.042969 131.929688 C 136.21875 132.691406 136.394531 133.433594 136.570312 134.195312 C 136.882812 133.0625 137.175781 131.929688 137.488281 130.800781 L 138.269531 127.96875 C 138.5625 126.914062 138.875 125.859375 139.167969 124.804688 L 139.285156 124.6875 L 141.296875 124.6875 L 143.8125 124.628906 L 143.929688 124.746094 C 143.96875 127.5 144.125 130.253906 144.261719 132.984375 C 144.339844 134.78125 144.417969 136.578125 144.535156 138.355469 Z M 144.4375 138.472656 "/>
<path fill-rule="nonzero" device-cmyk(0.600, 0.600, 0.000, 0.570) fill-opacity="1" d="M 150.746094 116.371094 L 145.144531 116.371094 L 140.085938 116.550781 L 139.785156 116.191406 C 140.148438 107.15625 140.207031 98.183594 140.207031 89.210938 C 140.207031 86.679688 140.207031 84.210938 140.148438 81.683594 C 136.894531 81.742188 133.644531 81.804688 130.390625 81.921875 L 130.089844 81.621094 C 130.210938 79.152344 130.390625 76.683594 130.511719 74.214844 L 130.871094 73.792969 C 136.472656 73.792969 141.953125 73.734375 147.554688 73.792969 C 151.949219 73.792969 156.347656 73.792969 160.683594 73.734375 L 160.984375 74.035156 C 160.804688 76.503906 160.683594 78.972656 160.5625 81.5 L 160.199219 81.863281 C 157.070312 81.742188 153.9375 81.621094 150.867188 81.621094 C 150.746094 84.574219 150.6875 87.523438 150.6875 90.476562 C 150.6875 94.390625 150.746094 98.363281 150.804688 102.277344 C 150.867188 106.855469 150.925781 111.433594 151.105469 116.007812 Z M 150.746094 116.371094 "/>
<path fill-rule="nonzero" device-cmyk(0.600, 0.600, 0.000, 0.570) fill-opacity="1" d="M 84.125 119.097656 C 75.5 119.097656 68.132812 117.148438 62.222656 113.304688 C 53.382812 107.554688 48.511719 97.515625 48.511719 85.039062 C 48.511719 78.984375 49.84375 63.957031 62.183594 55.246094 C 70.816406 49.152344 80.28125 49.152344 83.390625 49.152344 C 92.890625 49.152344 99.253906 51.460938 103.738281 53.472656 L 104.128906 53.648438 L 104.925781 55.039062 L 104.867188 55.480469 C 104.335938 59.441406 103.875 63.609375 103.496094 67.863281 L 103.425781 68.683594 L 101.265625 69.488281 L 100.523438 68.957031 C 98.21875 67.296875 93.414062 63.839844 86.050781 63.839844 C 82.078125 63.839844 76.511719 64.867188 72.574219 69.757812 C 69.703125 73.296875 68.1875 78.453125 68.1875 84.671875 C 68.1875 91.113281 69.863281 95.0625 70.863281 96.84375 C 71.882812 98.621094 73.242188 99.957031 73.679688 100.320312 L 73.734375 100.371094 C 76.308594 102.78125 79.496094 103.953125 83.484375 103.953125 C 85.640625 103.878906 87.207031 103.613281 89.175781 103.136719 C 89.238281 100.660156 89.230469 98.160156 89.148438 95.695312 C 89.085938 93.148438 88.878906 90.636719 88.664062 87.976562 C 88.582031 86.949219 88.496094 85.910156 88.417969 84.859375 L 88.378906 84.332031 L 89.570312 82.910156 L 90.179688 82.910156 C 95.308594 82.910156 100.539062 82.816406 105.726562 82.636719 L 106.515625 82.609375 L 107.457031 84.253906 L 107.445312 84.625 C 107.28125 89.636719 107.25 95.183594 107.355469 101.578125 C 107.355469 105.339844 107.441406 108.933594 107.53125 112.738281 L 107.546875 113.367188 L 106.761719 114.738281 L 106.132812 114.96875 C 102.152344 116.410156 94.75 119.097656 84.125 119.097656 "/>
<path fill-rule="nonzero" device-cmyk(0.000, 0.330, 0.820, 0.100) fill-opacity="1" d="M 105.863281 113.675781 C 101.828125 115.136719 94.675781 117.792969 84.125 117.792969 C 81.007812 117.792969 71.375 117.699219 62.9375 112.210938 C 50.277344 103.976562 49.820312 89.523438 49.820312 85.039062 C 49.820312 80.832031 50.371094 65.1875 62.9375 56.3125 C 71.101562 50.550781 79.996094 50.457031 83.390625 50.457031 C 93.207031 50.457031 99.535156 53.019531 103.203125 54.664062 L 103.570312 55.304688 C 103.023438 59.421875 102.5625 63.632812 102.195312 67.746094 L 101.460938 68.023438 C 99.167969 66.375 94.03125 62.53125 86.050781 62.53125 C 83.484375 62.53125 76.421875 62.898438 71.558594 68.9375 C 66.882812 74.699219 66.882812 82.84375 66.882812 84.671875 C 66.882812 90.984375 68.441406 95.195312 69.722656 97.480469 C 70.824219 99.402344 72.292969 100.867188 72.84375 101.324219 C 75.871094 104.160156 79.449219 105.257812 83.484375 105.257812 C 86.144531 105.167969 87.976562 104.800781 90.457031 104.160156 C 90.546875 101.324219 90.546875 98.488281 90.457031 95.652344 C 90.363281 92.085938 89.996094 88.515625 89.722656 84.765625 L 90.179688 84.214844 C 95.316406 84.214844 100.546875 84.125 105.773438 83.941406 L 106.140625 84.582031 C 105.957031 90.160156 105.957031 95.925781 106.050781 101.597656 C 106.050781 105.441406 106.140625 109.191406 106.230469 113.035156 Z M 105.863281 113.675781 "/>
<path fill-rule="nonzero" device-cmyk(0.600, 0.600, 0.000, 0.570) fill-opacity="1" d="M 130.363281 103.25 C 124.523438 103.1875 118.679688 103.128906 112.960938 103.308594 L 112.660156 102.949219 C 112.839844 100.601562 112.960938 98.3125 113.019531 96.023438 L 113.441406 95.660156 C 116.875 95.722656 120.246094 95.660156 123.679688 95.660156 C 126.089844 95.722656 128.4375 95.660156 130.847656 95.601562 L 131.148438 95.964844 C 130.964844 98.25 130.847656 100.539062 130.726562 102.886719 Z M 130.363281 103.25 "/>
<path fill-rule="nonzero" device-cmyk(0.600, 0.600, 0.000, 0.570) fill-opacity="1" d="M 152.636719 131.070312 C 152.539062 130.757812 152.1875 129.976562 151.214844 129.976562 C 151.039062 129.976562 150.667969 130.015625 150.316406 130.269531 C 149.574219 130.816406 149.535156 131.871094 149.515625 132.066406 C 150.609375 132.066406 151.683594 132.046875 152.773438 132.007812 C 152.753906 131.636719 152.753906 131.402344 152.636719 131.070312 M 155.292969 138.003906 C 154.570312 138.296875 153.632812 138.703125 151.859375 138.703125 C 151.097656 138.703125 150.375 138.628906 149.632812 138.394531 C 147.269531 137.652344 146.253906 135.660156 146.253906 133.316406 C 146.253906 132.769531 146.292969 130.953125 147.464844 129.550781 C 148.792969 127.949219 150.765625 127.890625 151.410156 127.890625 C 151.898438 127.890625 153.164062 127.910156 154.257812 128.828125 C 155.761719 130.058594 155.917969 132.105469 155.917969 133.902344 L 155.800781 134.039062 C 153.691406 134.058594 151.605469 134.097656 149.496094 134.15625 C 149.554688 134.46875 149.59375 134.722656 149.730469 134.996094 C 150.140625 135.914062 150.980469 136.207031 151.289062 136.304688 C 151.742188 136.421875 152.210938 136.421875 152.347656 136.421875 C 153.886719 136.421875 154.902344 135.855469 155.410156 135.582031 L 155.546875 135.640625 C 155.488281 136.382812 155.449219 137.125 155.410156 137.847656 Z M 155.292969 138.003906 "/>
<path fill-rule="nonzero" device-cmyk(0.600, 0.600, 0.000, 0.570) fill-opacity="1" d="M 165.289062 138.21875 C 164.800781 138.371094 163.960938 138.644531 162.671875 138.644531 C 161.621094 138.644531 161.015625 138.472656 160.566406 138.335938 C 158.339844 137.59375 157.226562 135.640625 157.226562 133.375 C 157.226562 132.847656 157.304688 131.070312 158.4375 129.664062 C 159.0625 128.886719 160.3125 127.890625 162.613281 127.890625 C 163.667969 127.890625 164.449219 128.046875 165.445312 128.398438 L 165.542969 128.535156 C 165.484375 128.925781 165.425781 129.335938 165.367188 129.742188 C 165.328125 130.113281 165.308594 130.484375 165.269531 130.855469 L 165.074219 130.914062 C 164.800781 130.722656 164.136719 130.214844 163.140625 130.214844 C 162.398438 130.214844 161.949219 130.484375 161.71875 130.679688 C 160.683594 131.480469 160.664062 132.964844 160.664062 133.257812 C 160.664062 133.921875 160.820312 136.285156 163.316406 136.285156 C 164.371094 136.285156 164.996094 135.875 165.347656 135.640625 L 165.503906 135.757812 C 165.464844 136.539062 165.425781 137.320312 165.40625 138.101562 Z M 165.289062 138.21875 "/>
<path fill-rule="nonzero" device-cmyk(0.600, 0.600, 0.000, 0.570) fill-opacity="1" d="M 174.757812 138.472656 L 173.292969 138.527344 L 173.175781 138.394531 C 173.234375 136.617188 173.195312 134.820312 173.15625 133.023438 C 173.15625 132.417969 173.15625 131.503906 172.785156 130.953125 C 172.6875 130.777344 172.414062 130.484375 171.867188 130.484375 C 171.675781 130.484375 171.207031 130.5625 170.71875 130.878906 C 170.601562 130.953125 170.601562 130.953125 170.425781 131.089844 C 170.40625 132.457031 170.445312 133.804688 170.484375 135.152344 C 170.503906 136.226562 170.523438 137.28125 170.582031 138.335938 L 170.484375 138.472656 C 169.976562 138.472656 169.488281 138.449219 168.980469 138.472656 C 168.375 138.472656 167.769531 138.511719 167.164062 138.527344 L 167.066406 138.394531 C 167.105469 136.949219 167.125 135.523438 167.125 134.078125 C 167.125 131.851562 167.125 129.605469 167.046875 127.382812 C 167.027344 126.09375 166.949219 124.824219 166.832031 123.535156 L 166.929688 123.417969 C 168.023438 123.242188 169.136719 123.066406 170.25 122.890625 L 170.386719 123.027344 C 170.347656 125.019531 170.328125 127.050781 170.328125 129.0625 C 170.640625 128.867188 172.101562 127.890625 173.605469 127.890625 C 173.78125 127.890625 174.25 127.910156 174.738281 128.085938 C 175.207031 128.242188 175.871094 128.613281 176.242188 129.742188 C 176.496094 130.507812 176.457031 131.167969 176.476562 132.710938 L 176.476562 134.175781 C 176.515625 135.5625 176.554688 136.949219 176.632812 138.335938 L 176.496094 138.472656 Z M 174.757812 138.472656 "/>
<path fill-rule="nonzero" device-cmyk(0.600, 0.600, 0.000, 0.570) fill-opacity="1" d="M 184.324219 133.394531 C 183.035156 133.53125 182.234375 133.785156 181.828125 134.195312 C 181.691406 134.3125 181.476562 134.585938 181.476562 135.09375 C 181.476562 135.835938 182.023438 136.265625 182.726562 136.265625 C 183.09375 136.265625 183.601562 136.167969 184.324219 135.757812 Z M 187.566406 138.472656 C 187.078125 138.472656 186.609375 138.449219 186.121094 138.472656 C 185.574219 138.472656 185.007812 138.511719 184.460938 138.527344 L 184.34375 138.394531 L 184.34375 137.671875 C 183.933594 138.023438 183.074219 138.703125 181.652344 138.703125 C 181.414062 138.703125 180.851562 138.6875 180.246094 138.449219 C 178.9375 137.925781 178.214844 136.695312 178.214844 135.308594 C 178.214844 134.839844 178.3125 134.351562 178.507812 133.941406 C 178.839844 133.199219 179.464844 132.632812 180.167969 132.300781 C 180.988281 131.890625 182.257812 131.578125 184.285156 131.324219 C 184.265625 131.265625 184.285156 130.894531 184.128906 130.621094 C 183.816406 130.113281 182.859375 130.15625 182.839844 130.15625 C 181.300781 130.15625 179.933594 130.738281 179.484375 130.933594 L 179.347656 130.835938 C 179.386719 130.136719 179.40625 129.410156 179.445312 128.691406 L 179.5625 128.574219 C 181.027344 128.085938 182.023438 127.890625 183.5625 127.890625 C 183.894531 127.890625 185.027344 127.871094 186.042969 128.398438 C 186.21875 128.496094 186.628906 128.710938 186.941406 129.117188 C 187.644531 130.035156 187.585938 131.578125 187.546875 132.652344 L 187.527344 134.097656 C 187.527344 135.015625 187.527344 135.933594 187.566406 136.851562 C 187.585938 137.339844 187.625 137.847656 187.664062 138.335938 Z M 187.566406 138.472656 "/>
<path fill-rule="nonzero" device-cmyk(0.600, 0.600, 0.000, 0.570) fill-opacity="1" d="M 197.523438 138.472656 L 196.058594 138.527344 L 195.941406 138.394531 C 196 136.597656 195.960938 134.78125 195.921875 132.984375 C 195.921875 132.378906 195.941406 131.382812 195.511719 130.855469 C 195.21875 130.507812 194.769531 130.484375 194.632812 130.484375 C 193.929688 130.484375 193.324219 130.992188 193.1875 131.089844 C 193.167969 132.398438 193.207031 133.6875 193.226562 134.976562 C 193.246094 136.089844 193.285156 137.222656 193.34375 138.335938 L 193.226562 138.472656 C 192.738281 138.472656 192.234375 138.449219 191.742188 138.472656 C 191.160156 138.472656 190.554688 138.511719 189.96875 138.527344 L 189.851562 138.394531 C 189.910156 135.71875 189.929688 133.042969 189.773438 130.367188 C 189.734375 129.765625 189.675781 129.15625 189.617188 128.535156 L 189.753906 128.417969 C 190.359375 128.320312 190.964844 128.242188 191.570312 128.125 C 192.058594 128.046875 192.546875 127.949219 193.015625 127.832031 L 193.226562 127.988281 L 193.1875 129.0625 C 194.203125 128.4375 195.121094 127.890625 196.351562 127.890625 C 196.703125 127.890625 197.054688 127.949219 197.386719 128.046875 C 197.972656 128.222656 198.792969 128.652344 199.105469 130.113281 C 199.242188 130.738281 199.242188 131.363281 199.242188 132.652344 L 199.242188 134.175781 C 199.28125 135.5625 199.320312 136.949219 199.398438 138.335938 L 199.242188 138.472656 Z M 197.523438 138.472656 "/>
<path fill-rule="nonzero" device-cmyk(0.600, 0.600, 0.000, 0.570) fill-opacity="1" d="M 201.527344 126.40625 C 201.546875 125.839844 201.566406 125.273438 201.546875 124.707031 L 201.488281 123.710938 L 201.605469 123.574219 C 202.679688 123.457031 203.730469 123.320312 204.785156 123.183594 L 204.902344 123.300781 C 204.863281 124.179688 204.84375 125.058594 204.84375 125.957031 L 204.746094 126.09375 C 204.238281 126.152344 203.769531 126.210938 203.28125 126.289062 C 202.734375 126.367188 202.191406 126.445312 201.660156 126.542969 Z M 203.222656 138.472656 L 201.644531 138.527344 L 201.507812 138.394531 C 201.585938 136.8125 201.644531 135.230469 201.644531 133.628906 C 201.644531 132.496094 201.625 131.382812 201.566406 130.253906 C 201.546875 129.6875 201.488281 129.121094 201.410156 128.535156 L 201.546875 128.417969 C 202.65625 128.242188 203.789062 128.046875 204.902344 127.832031 L 205.039062 127.988281 C 205 129.550781 204.980469 131.109375 204.980469 132.652344 C 204.980469 134.546875 205.019531 136.441406 205.136719 138.335938 L 205 138.472656 Z M 203.222656 138.472656 "/>
<path fill-rule="nonzero" device-cmyk(0.600, 0.600, 0.000, 0.570) fill-opacity="1" d="M 214.898438 138.21875 C 214.410156 138.371094 213.570312 138.644531 212.28125 138.644531 C 211.230469 138.644531 210.621094 138.472656 210.175781 138.335938 C 207.949219 137.59375 206.835938 135.640625 206.835938 133.375 C 206.835938 132.847656 206.914062 131.070312 208.046875 129.664062 C 208.671875 128.886719 209.921875 127.890625 212.222656 127.890625 C 213.277344 127.890625 214.058594 128.046875 215.054688 128.398438 L 215.152344 128.535156 C 215.09375 128.925781 215.035156 129.335938 214.976562 129.742188 C 214.9375 130.113281 214.917969 130.484375 214.878906 130.855469 L 214.683594 130.914062 C 214.410156 130.722656 213.746094 130.214844 212.75 130.214844 C 212.011719 130.214844 211.5625 130.484375 211.324219 130.679688 C 210.292969 131.480469 210.273438 132.964844 210.273438 133.257812 C 210.273438 133.921875 210.429688 136.285156 212.925781 136.285156 C 213.980469 136.285156 214.605469 135.875 214.957031 135.640625 L 215.113281 135.757812 C 215.074219 136.539062 215.035156 137.320312 215.015625 138.101562 Z M 214.898438 138.21875 "/>
<path fill-rule="nonzero" device-cmyk(0.600, 0.600, 0.000, 0.570) fill-opacity="1" d="M 222.140625 133.394531 C 220.855469 133.53125 220.054688 133.785156 219.644531 134.195312 C 219.507812 134.3125 219.292969 134.585938 219.292969 135.09375 C 219.292969 135.835938 219.839844 136.265625 220.542969 136.265625 C 220.910156 136.265625 221.421875 136.167969 222.140625 135.757812 Z M 225.382812 138.472656 C 224.894531 138.472656 224.425781 138.449219 223.9375 138.472656 C 223.390625 138.472656 222.824219 138.511719 222.277344 138.527344 L 222.160156 138.394531 L 222.160156 137.671875 C 221.753906 138.023438 220.894531 138.703125 219.46875 138.703125 C 219.234375 138.703125 218.667969 138.6875 218.0625 138.449219 C 216.753906 137.925781 216.03125 136.695312 216.03125 135.308594 C 216.03125 134.839844 216.128906 134.351562 216.324219 133.941406 C 216.65625 133.199219 217.28125 132.632812 217.984375 132.300781 C 218.804688 131.890625 220.074219 131.578125 222.101562 131.324219 C 222.085938 131.265625 222.101562 130.894531 221.945312 130.621094 C 221.636719 130.113281 220.679688 130.15625 220.65625 130.15625 C 219.117188 130.15625 217.75 130.738281 217.300781 130.933594 L 217.164062 130.835938 C 217.203125 130.136719 217.222656 129.410156 217.261719 128.691406 L 217.378906 128.574219 C 218.84375 128.085938 219.839844 127.890625 221.382812 127.890625 C 221.714844 127.890625 222.84375 127.871094 223.859375 128.398438 C 224.035156 128.496094 224.445312 128.710938 224.757812 129.117188 C 225.460938 130.035156 225.402344 131.578125 225.363281 132.652344 L 225.34375 134.097656 C 225.34375 135.015625 225.34375 135.933594 225.382812 136.851562 C 225.402344 137.339844 225.441406 137.847656 225.480469 138.335938 Z M 225.382812 138.472656 "/>
<path fill-rule="nonzero" device-cmyk(0.600, 0.600, 0.000, 0.570) fill-opacity="1" d="M 227.589844 138.394531 C 227.667969 136.792969 227.707031 135.171875 227.707031 133.550781 C 227.707031 131.96875 227.6875 130.386719 227.667969 128.789062 C 227.648438 127.539062 227.628906 126.308594 227.550781 125.058594 L 227.433594 123.535156 L 227.53125 123.417969 C 228.625 123.261719 229.738281 123.085938 230.851562 122.890625 L 230.984375 123.027344 C 230.929688 124.6875 230.867188 126.367188 230.867188 128.046875 C 230.867188 129.921875 230.910156 131.792969 230.945312 133.648438 C 230.96875 135.230469 231.007812 136.792969 231.085938 138.335938 L 230.945312 138.472656 C 229.875 138.472656 228.78125 138.492188 227.6875 138.527344 Z M 227.589844 138.394531 "/>
<path fill-rule="nonzero" device-cmyk(0.600, 0.600, 0.000, 0.570) fill-opacity="1" d="M 247.289062 138.472656 C 245.648438 138.472656 244.007812 138.449219 242.367188 138.472656 C 241.335938 138.492188 240.28125 138.511719 239.246094 138.527344 L 239.148438 138.410156 C 239.207031 135.894531 239.167969 133.394531 239.1875 130.878906 C 239.1875 129.605469 239.1875 128.339844 239.167969 127.070312 C 239.148438 126.308594 239.109375 125.566406 239.070312 124.804688 L 239.1875 124.6875 L 240.769531 124.6875 C 241.410156 124.667969 242.035156 124.648438 242.660156 124.628906 L 242.777344 124.746094 C 242.640625 127.65625 242.621094 130.585938 242.621094 133.511719 C 242.621094 134.3125 242.640625 135.132812 242.640625 135.933594 C 243.539062 135.933594 244.4375 135.933594 245.335938 135.894531 C 246.039062 135.855469 246.742188 135.816406 247.445312 135.796875 L 247.542969 135.894531 C 247.484375 136.714844 247.445312 137.535156 247.386719 138.355469 Z M 247.289062 138.472656 "/>
<path fill-rule="nonzero" device-cmyk(0.600, 0.600, 0.000, 0.570) fill-opacity="1" d="M 254.511719 138.472656 C 253.4375 138.6875 252.871094 138.703125 252.34375 138.703125 C 251.445312 138.703125 250.667969 138.550781 250.039062 137.847656 C 249.691406 137.4375 249.574219 137.085938 249.515625 136.890625 C 249.359375 136.34375 249.398438 135.425781 249.398438 135.367188 L 249.398438 133.472656 L 249.453125 130.367188 C 249.066406 130.367188 248.65625 130.386719 248.226562 130.40625 L 248.128906 130.289062 C 248.1875 129.589844 248.246094 128.90625 248.304688 128.203125 L 248.421875 128.105469 C 248.773438 128.105469 249.125 128.125 249.453125 128.144531 C 249.476562 127.324219 249.453125 126.523438 249.4375 125.703125 L 249.535156 125.566406 C 250.101562 125.429688 250.648438 125.292969 251.214844 125.136719 C 251.660156 125 252.132812 124.863281 252.597656 124.726562 L 252.734375 124.84375 L 252.675781 128.125 C 253.339844 128.125 253.984375 128.144531 254.628906 128.125 L 254.746094 128.242188 C 254.667969 128.945312 254.609375 129.628906 254.550781 130.328125 L 254.433594 130.445312 C 253.847656 130.40625 253.261719 130.386719 252.675781 130.367188 L 252.636719 133.121094 C 252.636719 133.6875 252.617188 134.273438 252.636719 134.839844 C 252.65625 135.425781 252.714844 135.796875 252.851562 136.03125 C 253.085938 136.402344 253.671875 136.421875 253.789062 136.421875 C 254.042969 136.421875 254.238281 136.382812 254.6875 136.226562 L 254.84375 136.34375 C 254.765625 137.007812 254.707031 137.671875 254.648438 138.335938 Z M 254.511719 138.472656 "/>
<path fill-rule="nonzero" device-cmyk(0.600, 0.600, 0.000, 0.570) fill-opacity="1" d="M 262.769531 132.378906 C 262.769531 131.714844 262.769531 131.050781 262.75 130.386719 C 262.417969 130.347656 262.320312 130.347656 262.125 130.347656 C 261.832031 130.347656 261.089844 130.347656 260.445312 130.878906 C 259.898438 131.324219 259.472656 132.105469 259.472656 133.609375 C 259.472656 135.542969 260.367188 136.324219 261.363281 136.324219 C 261.734375 136.324219 262.085938 136.246094 262.710938 135.855469 C 262.730469 134.703125 262.769531 133.53125 262.769531 132.378906 M 264.3125 138.472656 C 263.824219 138.488281 263.316406 138.511719 262.808594 138.527344 L 262.710938 138.394531 L 262.75 137.652344 C 262.320312 138.0625 261.578125 138.703125 260.152344 138.703125 C 259.609375 138.703125 258.320312 138.628906 257.246094 137.496094 C 256.660156 136.851562 256.035156 135.738281 256.035156 133.785156 C 256.035156 133.21875 256.035156 131.460938 257.148438 129.996094 C 257.851562 129.042969 259.15625 128.046875 261.753906 128.046875 C 262.105469 128.046875 262.4375 128.066406 262.769531 128.046875 C 262.769531 127.148438 262.789062 126.25 262.75 125.332031 C 262.730469 124.726562 262.691406 124.121094 262.632812 123.496094 L 262.75 123.398438 C 263.804688 123.242188 264.878906 123.066406 265.972656 122.871094 L 266.089844 123.007812 C 265.972656 126.425781 265.953125 129.820312 265.953125 133.238281 C 265.953125 134.957031 265.972656 136.65625 266.089844 138.351562 L 265.972656 138.472656 Z M 264.3125 138.472656 "/>
<path fill-rule="nonzero" device-cmyk(0.600, 0.600, 0.000, 0.570) fill-opacity="1" d="M 191.878906 116.371094 C 183.085938 116.371094 174.234375 116.429688 165.382812 116.492188 L 165.078125 116.070312 C 165.320312 110.527344 165.382812 104.988281 165.382812 99.386719 L 165.382812 86.921875 C 165.382812 82.644531 165.261719 78.429688 164.960938 74.214844 L 165.320312 73.851562 C 174.175781 73.851562 182.964844 73.792969 191.757812 73.734375 L 192.058594 74.09375 C 191.878906 76.441406 191.699219 78.730469 191.640625 81.078125 L 191.277344 81.441406 C 186.097656 81.320312 180.980469 81.261719 175.859375 81.261719 C 175.800781 84.453125 175.800781 87.644531 175.859375 90.835938 C 180.738281 90.835938 185.554688 90.777344 190.375 90.59375 L 190.734375 91.015625 C 190.554688 93.304688 190.433594 95.53125 190.3125 97.820312 L 189.953125 98.183594 C 185.253906 98.121094 180.558594 98.0625 175.859375 98.121094 C 175.859375 101.675781 175.921875 105.167969 175.980469 108.660156 C 179.171875 108.660156 182.425781 108.601562 185.617188 108.539062 C 187.902344 108.480469 190.191406 108.359375 192.480469 108.242188 L 192.78125 108.660156 C 192.601562 111.132812 192.480469 113.539062 192.359375 116.007812 Z M 191.878906 116.371094 "/>
<path fill-rule="nonzero" device-cmyk(0.600, 0.600, 0.000, 0.570) fill-opacity="1" d="M 228.375 115.164062 C 226.386719 116.007812 223.136719 117.273438 217.898438 117.273438 C 216.632812 117.273438 213.441406 117.214844 210.007812 116.070312 C 200.734375 112.9375 196.335938 104.628906 196.335938 95.351562 C 196.335938 93.0625 196.578125 85.355469 201.695312 79.453125 C 204.046875 76.742188 208.742188 72.949219 217.296875 72.949219 C 222.714844 72.949219 226.570312 74.335938 228.496094 75.117188 L 228.796875 75.480469 C 228.554688 78.25 228.375 80.960938 228.195312 83.730469 L 227.652344 83.851562 C 226.328125 82.824219 223.617188 80.960938 219.160156 80.960938 C 216.753906 80.960938 215.128906 81.5625 214.164062 81.984375 C 209.164062 84.332031 207.597656 90.234375 207.597656 95.230469 C 207.597656 96.859375 207.660156 103.242188 212.476562 106.855469 C 215.1875 108.84375 218.078125 108.964844 219.28125 108.964844 C 220.546875 108.964844 223.679688 108.722656 226.808594 106.914062 C 227.472656 106.492188 228.074219 106.070312 228.675781 105.589844 L 229.097656 105.832031 C 228.917969 108.84375 228.796875 111.855469 228.675781 114.804688 Z M 228.375 115.164062 "/>
<path fill-rule="nonzero" device-cmyk(0.600, 0.600, 0.000, 0.570) fill-opacity="1" d="M 271.675781 116.371094 L 265.957031 116.371094 C 264.210938 116.429688 262.523438 116.492188 260.777344 116.550781 L 260.535156 116.191406 C 260.714844 111.613281 260.777344 106.976562 260.777344 102.398438 C 260.777344 100.832031 260.777344 99.207031 260.714844 97.582031 C 255.898438 97.402344 251.082031 97.402344 246.261719 97.640625 C 246.324219 101.917969 246.324219 106.132812 246.503906 110.347656 C 246.5625 112.214844 246.625 114.140625 246.742188 116.007812 L 246.445312 116.371094 L 241.6875 116.371094 C 239.699219 116.371094 237.652344 116.492188 235.664062 116.550781 L 235.363281 116.191406 C 235.542969 111.734375 235.601562 107.335938 235.601562 102.882812 C 235.601562 99.148438 235.542969 95.472656 235.484375 91.738281 C 235.421875 85.898438 235.300781 80.054688 235 74.214844 L 235.363281 73.851562 L 241.085938 73.851562 C 242.769531 73.792969 244.457031 73.734375 246.082031 73.671875 L 246.382812 74.035156 C 246.324219 77.285156 246.324219 80.539062 246.261719 83.789062 L 246.261719 89.933594 C 249.574219 89.992188 252.828125 89.992188 256.140625 89.933594 C 257.644531 89.933594 259.148438 89.933594 260.65625 89.8125 C 260.65625 84.632812 260.476562 79.453125 260.175781 74.214844 L 260.476562 73.851562 L 265.292969 73.851562 C 267.21875 73.792969 269.207031 73.734375 271.136719 73.671875 L 271.4375 74.035156 C 271.316406 81.621094 271.316406 89.269531 271.375 96.917969 C 271.4375 103.300781 271.617188 109.625 271.976562 116.007812 Z M 271.675781 116.371094 "/>
<path fill-rule="nonzero" device-cmyk(0.600, 0.600, 0.000, 0.570) fill-opacity="1" d="M 162.265625 7.167969 C 162.265625 7.167969 190.3125 3.617188 218.894531 6.28125 C 247.476562 8.941406 266.117188 16.222656 266.117188 16.222656 L 266.117188 23.324219 C 266.117188 23.324219 240.023438 14.445312 220.847656 11.074219 C 201.675781 7.699219 162.265625 7.167969 162.265625 7.167969 "/>
<path fill-rule="nonzero" device-cmyk(0.000, 0.330, 0.820, 0.100) fill-opacity="1" d="M 193.390625 12.671875 C 193.390625 12.671875 213.746094 14.09375 224.398438 16.578125 C 235.050781 19.0625 241.324219 22.730469 241.324219 22.730469 L 241.324219 26.875 C 241.324219 26.875 230.433594 20.363281 218.71875 17.40625 C 207 14.445312 193.390625 12.671875 193.390625 12.671875 "/>
</svg>
