<?xml version="1.0" encoding="UTF-8"?>
<svg xmlns="http://www.w3.org/2000/svg" xmlns:xlink="http://www.w3.org/1999/xlink" width="841.8898" height="595.2756" viewBox="0 0 841.8898 595.2756">
<path fill-rule="nonzero" fill="rgb(0%, 0%, 0%)" fill-opacity="1" d="M 148.371094 10.40625 C 204.65625 10.359375 243.808594 55.050781 247.242188 100.597656 C 249.621094 132.113281 239.554688 159.171875 216.804688 181.25 C 200.90625 196.671875 181.757812 205.722656 159.804688 208.085938 C 130.507812 211.238281 104.34375 203.148438 82.375 183.453125 C 60.492188 163.835938 49.183594 138.832031 49.195312 109.460938 C 49.214844 55.101562 93.054688 10.304688 148.371094 10.40625 "/>
<path fill-rule="nonzero" fill="rgb(100%, 100%, 100%)" fill-opacity="1" d="M 148.375 15.234375 C 201.917969 15.191406 239.164062 57.707031 242.429688 101.035156 C 244.691406 131.015625 235.117188 156.757812 213.472656 177.757812 C 198.347656 192.433594 180.136719 201.039062 159.25 203.289062 C 131.378906 206.289062 106.488281 198.59375 85.589844 179.855469 C 64.773438 161.195312 54.011719 137.410156 54.023438 109.464844 C 54.042969 57.753906 95.75 15.136719 148.375 15.234375 "/>
<path fill-rule="nonzero" fill="rgb(0%, 0%, 0%)" fill-opacity="1" d="M 148.183594 16.828125 C 97.992188 16.757812 54.828125 58.117188 55.648438 111.269531 C 56.402344 159.980469 96.582031 203.570312 150.679688 202.269531 C 200.640625 201.070312 241.722656 160.660156 241.03125 108.269531 C 240.355469 57.027344 199.148438 17.074219 148.183594 16.828125 "/>
<path fill-rule="nonzero" fill="rgb(100%, 100%, 100%)" fill-opacity="1" d="M 102.316406 129.738281 C 101.292969 126.199219 100.355469 122.816406 99.320312 119.460938 C 99.070312 118.648438 98.542969 117.316406 98.078125 117.285156 C 96.648438 117.203125 95.175781 117.589844 93.746094 117.914062 C 93.585938 117.953125 93.453125 118.800781 93.5625 119.199219 C 94.382812 122.121094 95.152344 125.066406 96.160156 127.925781 C 97.84375 132.695312 97.957031 132.679688 102.316406 129.738281 Z M 194.21875 89.070312 C 195.308594 92.871094 196.578125 96.191406 197.121094 99.628906 C 197.445312 101.695312 198.179688 102.234375 199.941406 101.964844 C 201.035156 101.792969 202.101562 101.441406 203.449219 101.101562 C 201.972656 96.1875 200.617188 91.675781 199.199219 86.964844 C 197.117188 87.84375 195.621094 88.476562 194.21875 89.070312 Z M 148.265625 164.699219 L 148.265625 164.6875 C 149.527344 164.6875 150.789062 164.703125 152.050781 164.683594 C 155.894531 164.625 155.894531 164.621094 155.566406 160.847656 C 155.550781 160.691406 155.617188 160.449219 155.535156 160.390625 C 154.980469 159.960938 154.398438 159.230469 153.816406 159.222656 C 150.363281 159.171875 146.882812 159.574219 143.46875 159.242188 C 141.441406 159.046875 140.832031 159.398438 141.027344 161.3125 C 141.066406 161.699219 141.078125 162.128906 140.949219 162.484375 C 140.273438 164.351562 141.304688 164.710938 142.824219 164.699219 C 144.636719 164.691406 146.453125 164.699219 148.265625 164.699219 Z M 96.957031 102.339844 C 97.746094 101.898438 99.039062 101.617188 99.242188 100.984375 C 100.335938 97.597656 101.078125 94.09375 102.097656 90.679688 C 102.867188 88.105469 100.621094 88.398438 99.457031 87.769531 C 98.195312 87.085938 97.265625 87.480469 96.855469 89.042969 C 96.011719 92.273438 95.03125 95.464844 94.132812 98.679688 C 93.363281 101.421875 93.808594 101.964844 96.957031 102.339844 Z M 194.414062 130.015625 C 194.90625 130.265625 195.523438 130.597656 196.152344 130.90625 C 198.882812 132.238281 199.160156 132.167969 200.089844 129.21875 C 201.070312 126.101562 201.828125 122.90625 202.851562 119.804688 C 203.25 118.601562 203.261719 117.476562 202.011719 117.421875 C 200.46875 117.355469 198.15625 116.007812 197.40625 118.210938 C 196.132812 121.949219 195.429688 125.882812 194.414062 130.015625 Z M 141.261719 59.699219 C 144.882812 59.699219 148.335938 59.6875 151.792969 59.703125 C 152.933594 59.710938 154.496094 60.242188 155.101562 59.695312 C 155.777344 59.082031 155.441406 57.460938 155.808594 56.371094 C 156.277344 54.980469 155.617188 54.574219 154.5 54.5625 C 150.324219 54.523438 146.144531 54.507812 141.972656 54.597656 C 141.511719 54.609375 140.671875 55.382812 140.683594 55.78125 C 140.726562 57.15625 141.066406 58.519531 141.261719 59.699219 Z M 112.800781 73.953125 C 116.308594 71.425781 119.578125 69.109375 122.789062 66.710938 C 123.230469 66.375 123.75 65.460938 123.589844 65.121094 C 122.945312 63.757812 122.042969 62.519531 121.03125 60.90625 C 117.863281 63.382812 115.117188 65.605469 112.285156 67.714844 C 108.761719 70.339844 108.726562 70.300781 111.960938 73.300781 C 112.242188 73.558594 112.566406 73.773438 112.800781 73.953125 Z M 172.726562 65.722656 C 175.464844 67.789062 178.125 69.742188 180.726562 71.769531 C 183.992188 74.316406 184.429688 74.28125 186.925781 70.890625 C 187.058594 70.710938 187.09375 70.460938 187.328125 69.820312 C 183.472656 66.941406 179.535156 64 175.371094 60.882812 C 174.332031 62.785156 173.515625 64.277344 172.726562 65.722656 Z M 183.605469 145.183594 C 179.921875 148.015625 176.394531 150.730469 172.816406 153.488281 C 173.273438 154.421875 173.59375 155.546875 174.292969 156.332031 C 174.765625 156.863281 176.089844 157.382812 176.492188 157.109375 C 180.222656 154.578125 183.835938 151.871094 187.15625 149.457031 C 185.648438 147.644531 184.550781 146.324219 183.605469 145.183594 Z M 109.246094 148.957031 C 110.683594 150.234375 111.957031 151.515625 113.386719 152.59375 C 115.511719 154.195312 117.699219 155.726562 119.949219 157.148438 C 121.578125 158.179688 122.214844 156.839844 122.679688 155.628906 C 123.066406 154.625 124.671875 153.699219 122.902344 152.453125 C 119.585938 150.121094 116.324219 147.710938 112.960938 145.269531 C 111.875 146.347656 110.609375 147.605469 109.246094 148.957031 Z M 137.566406 108.183594 C 131.582031 107.21875 125.8125 106.234375 120.023438 105.367188 C 113.910156 104.453125 107.769531 103.683594 101.652344 102.777344 C 99.980469 102.53125 98.914062 103.125 98.855469 104.738281 C 98.730469 107.980469 98.742188 111.234375 98.917969 114.46875 C 98.957031 115.164062 100.003906 116.410156 100.492188 116.367188 C 103.851562 116.078125 107.1875 115.53125 110.523438 115.023438 C 115.789062 114.21875 121.046875 113.339844 126.320312 112.5625 C 130.03125 112.019531 133.761719 111.589844 137.566406 111.101562 Z M 197.109375 116.460938 C 198.339844 112.300781 197.96875 108.160156 197.515625 104.042969 C 197.464844 103.566406 196.417969 102.78125 195.90625 102.835938 C 192.332031 103.210938 188.777344 103.746094 185.222656 104.277344 C 181.433594 104.847656 177.65625 105.511719 173.863281 106.050781 C 168.929688 106.753906 163.980469 107.382812 158.914062 108.054688 C 158.980469 109.296875 159.03125 110.1875 159.082031 111.109375 C 171.792969 112.898438 184.226562 114.648438 197.109375 116.460938 Z M 183.351562 74.78125 C 181.777344 76.503906 180.355469 78.183594 178.8125 79.738281 C 171.671875 86.90625 164.519531 94.058594 157.320312 101.167969 C 156.222656 102.25 156.402344 103.476562 157.390625 103.871094 C 158.375 104.269531 159.863281 103.96875 160.929688 103.511719 C 168.75 100.164062 176.527344 96.71875 184.296875 93.257812 C 187.292969 91.921875 190.230469 90.464844 193.308594 89.007812 C 190.890625 83.613281 187.855469 79.019531 183.351562 74.78125 Z M 102.722656 88.816406 C 115.15625 94.371094 126.832031 99.582031 138.609375 104.847656 C 139.273438 103.855469 139.777344 103.109375 140.09375 102.640625 C 130.859375 93.375 121.855469 84.339844 112.398438 74.851562 C 109.21875 79.4375 106.109375 83.925781 102.722656 88.816406 Z M 146.382812 98.96875 C 144.480469 86.160156 143.136719 73.324219 140.710938 60.078125 C 135.785156 61.78125 131.433594 63.265625 127.097656 64.792969 C 125.265625 65.4375 124.726562 66.378906 125.855469 68.335938 C 129.675781 74.953125 133.304688 81.679688 137.015625 88.359375 C 139.148438 92.199219 141.292969 96.035156 143.445312 99.898438 C 144.472656 99.570312 145.273438 99.320312 146.382812 98.96875 Z M 155.695312 60.097656 C 153.828125 73.339844 152.023438 86.101562 150.21875 98.90625 C 151.382812 99.292969 152.246094 99.582031 153.207031 99.90625 C 158.996094 89.480469 164.730469 79.164062 170.449219 68.839844 C 171.960938 66.113281 171.800781 65.519531 168.742188 64.421875 C 164.5625 62.921875 160.316406 61.617188 155.695312 60.097656 Z M 150.222656 120.238281 C 152.015625 133.023438 153.78125 145.636719 155.660156 159.058594 C 160.6875 157.363281 165.101562 155.867188 169.515625 154.382812 C 171.511719 153.707031 171.75 152.609375 170.714844 150.785156 C 167.40625 144.960938 164.234375 139.054688 160.984375 133.191406 C 158.394531 128.519531 155.761719 123.863281 153.128906 119.167969 C 152.136719 119.535156 151.335938 119.828125 150.222656 120.238281 Z M 102.789062 130.367188 C 105.769531 134.6875 108.46875 138.621094 111.203125 142.53125 C 112.238281 144.011719 113.179688 144.085938 114.574219 142.660156 C 121.890625 135.207031 129.304688 127.851562 136.71875 120.5 C 137.933594 119.292969 139.332031 118.269531 140.398438 117.371094 C 139.296875 114.707031 138.222656 114.347656 136.21875 115.3125 C 131.265625 117.695312 126.167969 119.773438 121.152344 122.023438 C 115.269531 124.664062 109.410156 127.355469 102.789062 130.367188 Z M 138.632812 158.671875 C 138.683594 158.457031 138.734375 158.242188 138.785156 158.027344 C 140.691406 158.652344 141.328125 157.339844 141.609375 156.03125 C 142.015625 154.125 142.101562 152.148438 142.335938 150.207031 C 142.820312 146.160156 143.25 142.105469 143.816406 138.070312 C 144.554688 132.78125 145.414062 127.511719 146.191406 122.230469 C 146.371094 121.015625 146.386719 119.617188 144.703125 119.65625 C 143.9375 119.671875 142.902344 120.355469 142.484375 121.039062 C 140.878906 123.660156 139.484375 126.402344 138 129.089844 C 133.890625 136.535156 129.742188 143.960938 125.710938 151.445312 C 125.40625 152.007812 125.652344 153.53125 126.035156 153.691406 C 130.1875 155.457031 134.421875 157.039062 138.632812 158.671875 Z M 193.25 130.398438 C 192.679688 130.015625 192.265625 129.640625 191.78125 129.425781 C 180.945312 124.5625 170.109375 119.699219 159.222656 114.945312 C 158.679688 114.707031 157.464844 115.304688 156.996094 115.871094 C 156.710938 116.210938 157.03125 117.46875 157.476562 117.933594 C 161.25 121.867188 165.132812 125.699219 168.953125 129.585938 C 173.757812 134.480469 178.535156 139.402344 183.5 144.492188 C 187.769531 140.128906 190.808594 135.535156 193.25 130.398438 Z M 232.164062 97.929688 C 228.773438 98.316406 225.746094 98.613281 222.738281 99.019531 C 217.089844 99.785156 211.460938 100.679688 205.804688 101.359375 C 204.449219 101.523438 203.800781 101.777344 203.824219 103.257812 C 203.886719 107.371094 203.761719 111.484375 203.921875 115.589844 C 203.949219 116.328125 204.839844 117.460938 205.546875 117.660156 C 207.335938 118.164062 209.246094 118.226562 211.105469 118.488281 C 215.347656 119.089844 219.589844 119.722656 223.839844 120.300781 C 226.515625 120.667969 229.203125 120.960938 232.054688 121.304688 C 233.203125 113.433594 233.058594 105.941406 232.164062 97.929688 Z M 64.394531 121.324219 C 69.039062 120.75 73.21875 120.269531 77.390625 119.703125 C 81.707031 119.121094 86.007812 118.347656 90.339844 117.882812 C 92.144531 117.6875 92.847656 117.097656 92.804688 115.269531 C 92.710938 111.476562 92.691406 107.675781 92.8125 103.882812 C 92.871094 102.058594 92.324219 101.480469 90.441406 101.347656 C 86.703125 101.082031 82.988281 100.460938 79.273438 99.929688 C 74.425781 99.238281 69.589844 98.488281 64.601562 97.742188 C 63.40625 105.699219 63.582031 113.28125 64.394531 121.324219 Z M 107.832031 70.3125 C 108.003906 70.421875 108.179688 70.53125 108.351562 70.640625 C 108.289062 70.496094 108.261719 70.320312 108.160156 70.214844 C 101.945312 63.90625 95.714844 57.613281 89.511719 51.296875 C 88.539062 50.304688 87.730469 50.515625 86.921875 51.433594 C 85.203125 53.390625 83.429688 55.300781 81.800781 57.332031 C 77.5625 62.609375 74.105469 68.363281 71.3125 74.789062 C 73.863281 75.964844 76.261719 77.109375 78.695312 78.1875 C 84.453125 80.734375 90.207031 83.292969 96.011719 85.722656 C 96.570312 85.953125 97.84375 85.554688 98.1875 85.046875 C 101.476562 80.183594 104.632812 75.234375 107.832031 70.3125 Z M 208.210938 50.007812 C 201.609375 56.710938 195.265625 63.097656 189.03125 69.589844 C 188.683594 69.953125 188.949219 71.320312 189.359375 71.929688 C 192.195312 76.15625 195.25 80.238281 197.996094 84.515625 C 199 86.078125 199.777344 86.324219 201.394531 85.566406 C 205.597656 83.597656 209.882812 81.804688 214.121094 79.90625 C 217.910156 78.210938 221.679688 76.476562 225.453125 74.761719 C 221.128906 65.546875 215.824219 57.359375 208.210938 50.007812 Z M 140.035156 165.125 C 134.023438 163.011719 128.277344 160.960938 122.496094 159.019531 C 122.089844 158.882812 121.160156 159.40625 120.902344 159.863281 C 116.519531 167.691406 112.203125 175.554688 107.71875 183.6875 C 116.613281 188.8125 126.042969 191.75 136.199219 193.328125 C 137.511719 183.675781 138.765625 174.46875 140.035156 165.125 Z M 87.96875 169.394531 C 94.851562 162.460938 101.136719 156.117188 107.449219 149.796875 C 108.429688 148.8125 108.035156 148.160156 107.324219 147.1875 C 104.355469 143.140625 101.375 139.089844 98.703125 134.851562 C 97.667969 133.210938 96.964844 132.835938 95.203125 133.648438 C 87.863281 137.050781 80.484375 140.378906 73.058594 143.59375 C 71.527344 144.257812 71.328125 144.894531 72.082031 146.222656 C 74.023438 149.628906 75.660156 153.238281 77.890625 156.4375 C 80.929688 160.800781 84.410156 164.859375 87.96875 169.394531 Z M 175.175781 158.925781 C 174.761719 158.90625 174.675781 158.878906 174.609375 158.902344 C 169.128906 160.730469 163.636719 162.515625 158.199219 164.457031 C 157.578125 164.679688 156.851562 165.773438 156.878906 166.433594 C 156.984375 169.09375 157.277344 171.761719 157.667969 174.402344 C 158.472656 179.816406 159.425781 185.214844 160.234375 190.628906 C 160.625 193.234375 161.1875 193.679688 163.863281 192.910156 C 168.953125 191.445312 174.097656 190.125 179.09375 188.386719 C 182.453125 187.21875 185.597656 185.433594 189.027344 183.835938 C 184.1875 175.132812 179.636719 166.953125 175.175781 158.925781 Z M 188.433594 148.746094 C 195.023438 155.324219 201.714844 162 208.574219 168.839844 C 215.699219 161.789062 221.253906 153.703125 225.390625 144.324219 C 216.9375 140.558594 208.628906 136.832031 200.28125 133.199219 C 199.871094 133.023438 198.847656 133.511719 198.542969 133.972656 C 197.511719 135.542969 196.8125 137.339844 195.734375 138.875 C 193.394531 142.203125 190.902344 145.425781 188.433594 148.746094 Z M 136.207031 25.945312 C 125.867188 27.175781 116.578125 30.53125 107.632812 35.34375 C 112.40625 43.964844 116.976562 52.214844 121.320312 60.050781 C 127.804688 57.902344 133.9375 55.871094 140.039062 53.851562 C 138.800781 44.851562 137.539062 35.648438 136.207031 25.945312 Z M 156.574219 53.878906 C 162.644531 55.890625 168.765625 57.925781 175.292969 60.089844 C 179.671875 52.199219 184.265625 43.921875 189.007812 35.378906 C 179.917969 30.46875 170.632812 27.164062 160.429688 25.957031 C 159.097656 35.578125 157.828125 44.785156 156.574219 53.878906 Z M 87.800781 170.34375 C 86.878906 171.199219 85.625 172.367188 83.964844 173.914062 C 80.921875 170.296875 77.714844 167.027344 75.152344 163.316406 C 71.898438 158.597656 69.195312 153.5 66.199219 148.601562 C 65.285156 147.109375 65.695312 146.285156 67.210938 145.722656 C 67.875 145.476562 68.507812 145.140625 69.15625 144.851562 C 70.316406 144.335938 70.433594 143.667969 70.007812 142.40625 C 67.777344 135.753906 65.707031 129.046875 63.449219 121.9375 C 62.910156 122.03125 61.796875 122.242188 60.679688 122.421875 C 59.519531 122.609375 58.414062 122.730469 58.339844 121.023438 C 58.136719 116.390625 57.773438 111.757812 57.710938 107.125 C 57.664062 103.703125 57.992188 100.273438 58.167969 96.519531 C 60.574219 96.851562 62.316406 97.09375 63.566406 97.269531 C 65.699219 90.226562 67.625 83.460938 69.847656 76.792969 C 70.425781 75.0625 70.113281 74.519531 68.5625 74.113281 C 67.964844 73.957031 67.453125 73.503906 66.867188 73.277344 C 65.628906 72.796875 65.402344 72.074219 66 70.882812 C 69.980469 62.953125 74.65625 55.480469 80.738281 48.980469 C 83.871094 45.628906 83.957031 45.710938 87.445312 48.703125 C 87.621094 48.855469 87.835938 48.964844 87.902344 49.007812 C 94.210938 44.25 100.464844 39.539062 106.804688 34.757812 C 106.839844 34.933594 106.839844 34.847656 106.804688 34.78125 C 104.269531 30.019531 104.261719 30 109.125 27.648438 C 116.984375 23.855469 125.160156 21.097656 133.855469 19.945312 C 135.113281 19.777344 135.574219 19.949219 135.761719 21.1875 C 135.960938 22.503906 136.347656 23.789062 136.644531 25.058594 L 159.941406 25.058594 C 160.152344 24.410156 160.738281 23.503906 160.664062 22.65625 C 160.371094 19.160156 162.78125 19.671875 164.609375 20.148438 C 170.191406 21.59375 175.757812 23.140625 181.214844 24.980469 C 184.394531 26.050781 187.328125 27.820312 190.417969 29.164062 C 192 29.847656 192.203125 30.71875 191.304688 32.078125 C 190.871094 32.734375 190.382812 33.421875 190.203125 34.164062 C 190.078125 34.683594 190.242188 35.660156 190.59375 35.859375 C 197.046875 39.457031 202.703125 44.101562 208.140625 49.035156 C 208.191406 49.082031 208.289062 49.074219 208.363281 49.09375 C 208.632812 49.363281 208.902344 49.636719 209.175781 49.910156 C 209.855469 48.835938 210.496094 47.734375 211.234375 46.699219 C 212.101562 45.472656 212.828125 45.714844 213.855469 46.765625 C 220.589844 53.660156 225.921875 61.507812 230.261719 70.085938 C 231.191406 71.921875 231.042969 72.945312 229.078125 73.667969 C 228.136719 74.015625 227.273438 74.5625 226.59375 74.90625 C 228.710938 82.386719 230.757812 89.636719 232.921875 97.285156 C 233.371094 97.199219 234.230469 97.003906 235.105469 96.882812 C 235.949219 96.765625 236.804688 96.722656 238.066406 96.613281 C 238.363281 98.472656 238.847656 100.203125 238.882812 101.941406 C 238.988281 107.164062 238.925781 112.390625 238.914062 117.613281 C 238.914062 118.320312 238.902344 119.042969 238.777344 119.734375 C 238.398438 121.878906 237.625 123.34375 235.015625 122.050781 C 234.386719 121.742188 233.46875 122.007812 232.9375 122.007812 C 230.824219 129.363281 228.746094 136.613281 226.550781 144.261719 C 227.28125 144.644531 228.40625 145.320312 229.609375 145.832031 C 230.898438 146.378906 231.257812 147.058594 230.585938 148.390625 C 227.304688 154.875 223.675781 161.128906 218.878906 166.636719 C 216.824219 168.996094 214.769531 171.355469 212.589844 173.855469 C 211.019531 172.386719 209.769531 171.214844 208.882812 170.382812 C 202.597656 174.792969 196.488281 179.054688 190.445312 183.414062 C 190.121094 183.648438 190.148438 184.808594 190.410156 185.347656 C 192.28125 189.234375 192.285156 189.160156 188.449219 191.113281 C 180.773438 195.019531 172.582031 197.335938 164.226562 199.160156 C 163.257812 199.371094 162.203125 199.1875 161.191406 199.1875 C 160.746094 197.367188 160.34375 195.71875 159.984375 194.246094 L 136.660156 194.246094 C 136.292969 195.707031 135.894531 197.296875 135.382812 199.335938 C 133.34375 199.0625 131.160156 198.976562 129.082031 198.457031 C 121.242188 196.496094 113.550781 194.128906 106.414062 190.171875 C 104.714844 189.226562 104.386719 188.449219 105.414062 186.929688 C 105.808594 186.339844 106.300781 185.734375 106.429688 185.074219 C 106.539062 184.53125 106.386719 183.617188 106.003906 183.339844 C 100.035156 179.007812 94.007812 174.753906 87.800781 170.34375 "/>
<path fill-rule="evenodd" fill="rgb(0%, 0%, 0%)" fill-opacity="1" d="M 148.324219 113.722656 C 146.03125 113.722656 144.171875 111.867188 144.171875 109.574219 C 144.171875 107.28125 146.03125 105.421875 148.324219 105.421875 C 150.617188 105.421875 152.472656 107.28125 152.472656 109.574219 C 152.472656 111.867188 150.617188 113.722656 148.324219 113.722656 "/>
<path fill-rule="evenodd" fill="rgb(100%, 100%, 100%)" fill-opacity="1" d="M 174.84375 123.046875 C 175.214844 124.015625 175.246094 125.027344 174.90625 126.078125 C 174.558594 127.136719 173.902344 128.054688 173.253906 128.949219 C 172.398438 130.128906 171.429688 131.210938 170.492188 132.320312 C 168.734375 134.402344 167.027344 136.53125 165.183594 138.535156 C 162.441406 141.519531 159.59375 144.402344 156.808594 147.34375 C 154.8125 149.449219 152.851562 151.589844 150.847656 153.691406 C 149.101562 155.523438 147.332031 157.339844 145.542969 159.132812 C 139.113281 165.574219 132.667969 172.007812 126.226562 178.4375 C 125.703125 178.960938 125.148438 179.449219 124.59375 179.9375 C 121.566406 182.609375 118.53125 185.269531 115.507812 187.941406 C 112.929688 190.214844 110.429688 192.570312 107.773438 194.753906 C 105.160156 196.902344 102.394531 198.859375 99.710938 200.917969 C 97.289062 202.773438 94.558594 203.734375 91.492188 203.292969 C 91.289062 203.261719 91.214844 203.332031 91.0625 203.46875 C 87.320312 206.835938 83.53125 210.152344 79.808594 213.542969 C 75.875 217.132812 72.007812 220.785156 68.105469 224.40625 C 66.425781 225.964844 64.753906 227.527344 63.046875 229.054688 C 60.285156 231.527344 57.496094 233.976562 54.714844 236.433594 C 53.898438 237.15625 53.1875 237.609375 52.011719 237.425781 L 50.53125 237.191406 L 51.078125 235.792969 C 51.246094 235.367188 51.265625 235.070312 51.589844 234.679688 C 53.085938 232.882812 54.578125 231.09375 56.109375 229.332031 C 58.636719 226.417969 61.15625 223.5 63.746094 220.644531 C 67.003906 217.046875 70.328125 213.511719 73.621094 209.945312 C 77.394531 205.859375 81.164062 201.765625 84.949219 197.6875 C 85.136719 197.484375 85.292969 197.316406 85.25 197.03125 C 84.851562 194.328125 85.601562 191.785156 87.105469 189.542969 C 88.613281 187.304688 90.226562 185.140625 91.941406 183.058594 C 94.363281 180.113281 96.902344 177.273438 99.40625 174.398438 C 102.066406 171.34375 104.667969 168.234375 107.441406 165.277344 C 110.152344 162.382812 112.855469 159.480469 115.734375 156.746094 C 123.132812 149.722656 130.027344 142.179688 137.59375 135.328125 C 141.289062 131.980469 144.796875 128.433594 148.390625 124.980469 C 149.332031 124.074219 150.25 123.144531 151.242188 122.289062 C 153.554688 120.296875 155.875 118.308594 158.253906 116.398438 C 159.371094 115.503906 160.609375 114.8125 161.816406 114.050781 C 162.882812 113.378906 164.15625 113.230469 165.308594 113.785156 C 165.351562 113.804688 165.488281 113.867188 165.539062 113.863281 C 165.644531 113.835938 165.90625 113.558594 165.972656 113.480469 C 168.570312 110.628906 171.167969 107.78125 173.8125 104.976562 C 176.71875 101.886719 179.660156 98.832031 182.617188 95.792969 C 185.40625 92.925781 188.25 90.113281 191.042969 87.25 C 193.332031 84.902344 195.566406 82.5 197.847656 80.144531 C 198.007812 79.980469 198.109375 79.875 198.074219 79.648438 C 197.488281 75.929688 197.292969 72.171875 197.164062 68.410156 C 197.019531 64.167969 197.152344 59.96875 198.355469 55.863281 C 199.925781 50.515625 202.21875 45.792969 206.324219 41.914062 C 213.015625 35.59375 219.375 28.929688 226.300781 22.855469 C 228.019531 21.347656 229.628906 19.714844 231.375 18.234375 C 233.722656 16.242188 236.28125 14.550781 239.117188 13.335938 C 240.753906 12.632812 242.417969 12.546875 244.070312 13.246094 C 245.464844 13.835938 246.867188 14.398438 248.203125 15.113281 C 253.074219 17.71875 257.539062 20.957031 262.039062 24.140625 C 262.757812 24.652344 263.453125 25.226562 263.96875 25.949219 C 266.03125 28.851562 268.011719 31.816406 270.0625 34.730469 C 272.230469 37.808594 273.984375 41.128906 275.390625 44.617188 C 276.066406 46.296875 276.039062 47.886719 275.292969 49.542969 C 273.777344 52.902344 271.753906 55.925781 269.21875 58.597656 C 268.144531 59.726562 267.121094 60.898438 266.082031 62.058594 C 264.144531 64.230469 262.265625 66.453125 260.261719 68.570312 C 258.160156 70.792969 255.941406 72.898438 253.789062 75.074219 C 251.304688 77.582031 248.867188 80.136719 246.351562 82.609375 C 245.035156 83.90625 243.746094 85.238281 242.171875 86.222656 C 235.921875 90.136719 228.953125 91.789062 221.613281 91.53125 C 217.457031 91.382812 213.320312 90.945312 209.179688 90.597656 C 208.773438 90.5625 208.46875 90.601562 208.167969 90.890625 C 206.972656 92.050781 205.765625 93.195312 204.570312 94.355469 C 201.558594 97.269531 198.558594 100.191406 195.546875 103.101562 C 192.125 106.410156 188.695312 109.710938 185.257812 113.007812 C 182.71875 115.445312 180.148438 117.851562 177.609375 120.292969 C 176.671875 121.191406 175.757812 122.121094 174.84375 123.046875 "/>
<path fill-rule="nonzero" fill="rgb(0%, 0%, 0%)" fill-opacity="1" d="M 77.265625 211.902344 C 77.203125 211.828125 77.144531 211.753906 77.082031 211.679688 C 77.269531 211.472656 77.441406 211.25 77.640625 211.054688 C 81.011719 207.714844 84.386719 204.371094 87.765625 201.035156 C 88.132812 200.675781 88.601562 200.144531 89.066406 200.691406 C 89.535156 201.242188 88.902344 201.609375 88.527344 201.941406 C 86.21875 203.980469 83.898438 206.007812 81.59375 208.046875 C 80.144531 209.328125 78.707031 210.617188 77.265625 211.902344 Z M 210.550781 86.335938 C 210.546875 86.214844 210.542969 86.09375 210.539062 85.972656 C 210.988281 85.953125 211.441406 85.925781 211.890625 85.914062 C 214.6875 85.84375 217.5 85.9375 220.28125 85.679688 C 228.324219 84.9375 236.199219 83.515625 243.144531 78.96875 C 243.253906 78.898438 243.40625 78.886719 243.535156 78.847656 C 243.394531 79.335938 243.171875 79.609375 242.902344 79.816406 C 242.15625 80.398438 241.351562 80.910156 240.632812 81.527344 C 237.289062 84.398438 233.261719 85.636719 229.027344 86.160156 C 224.019531 86.777344 218.972656 86.628906 213.9375 86.496094 C 212.808594 86.46875 211.679688 86.390625 210.550781 86.335938 Z M 140.617188 147.332031 C 142.324219 149.042969 143.894531 150.613281 145.464844 152.183594 C 145.5 152.21875 145.53125 152.253906 145.5625 152.289062 C 145.964844 152.71875 145.914062 153.128906 145.507812 153.53125 C 144.734375 154.304688 143.953125 155.070312 143.1875 155.859375 C 142.714844 156.347656 142.261719 156.246094 141.816406 155.851562 C 141.605469 155.660156 141.433594 155.429688 141.242188 155.222656 C 139.261719 153.101562 137.289062 150.976562 135.296875 148.867188 C 134.484375 148.011719 133.632812 147.195312 132.796875 146.359375 C 132.871094 146.265625 132.941406 146.175781 133.015625 146.082031 C 134.738281 147.050781 135.894531 148.8125 137.820312 149.835938 C 138.683594 149.0625 139.582031 148.257812 140.617188 147.332031 Z M 112.15625 166.851562 C 112.222656 166.769531 112.289062 166.6875 112.355469 166.609375 C 112.648438 166.792969 112.96875 166.949219 113.234375 167.167969 C 114.253906 168.015625 115.261719 168.882812 116.265625 169.75 C 116.984375 170.367188 117.148438 170.382812 117.824219 169.765625 C 118.246094 169.382812 118.625 168.949219 119.046875 168.566406 C 119.710938 167.96875 120.046875 167.917969 120.640625 168.492188 C 122.296875 170.097656 123.910156 171.746094 125.515625 173.355469 L 121.921875 176.949219 C 120.222656 175.164062 118.640625 173.480469 117.035156 171.820312 C 115.421875 170.152344 113.785156 168.503906 112.15625 166.851562 Z M 128.523438 170.375 C 127.597656 169.308594 126.835938 168.339844 125.980469 167.464844 C 123.714844 165.160156 121.402344 162.898438 119.121094 160.609375 C 118.925781 160.414062 118.808594 160.144531 118.652344 159.910156 C 118.734375 159.839844 118.816406 159.765625 118.898438 159.695312 C 120.527344 160.992188 122.160156 162.289062 123.917969 163.6875 C 124.582031 163.027344 125.105469 162.488281 125.644531 161.964844 C 126.6875 160.949219 126.84375 160.9375 127.835938 161.917969 C 129.347656 163.410156 130.839844 164.917969 132.410156 166.492188 Z M 135.722656 163.316406 L 125.613281 153.199219 C 126.046875 153.152344 126.398438 153.261719 126.65625 153.476562 C 127.742188 154.386719 128.824219 155.308594 129.867188 156.269531 C 130.382812 156.746094 130.808594 156.832031 131.316406 156.292969 C 131.839844 155.742188 132.386719 155.214844 132.929688 154.683594 C 133.761719 153.871094 133.925781 153.910156 134.757812 154.730469 C 136.074219 156.023438 137.429688 157.277344 138.785156 158.527344 C 139.375 159.074219 139.480469 159.511719 138.9375 160.082031 C 137.929688 161.148438 136.875 162.164062 135.722656 163.316406 Z M 257.726562 30.714844 C 257.789062 30.785156 257.851562 30.859375 257.914062 30.929688 C 257.832031 31.078125 257.769531 31.242188 257.664062 31.371094 C 255 34.523438 252.472656 37.8125 249.628906 40.789062 C 246.246094 44.328125 242.855469 47.875 239.148438 51.097656 C 236.816406 53.121094 234.605469 55.289062 232.347656 57.402344 C 231.65625 58.050781 230.992188 58.738281 230.3125 59.398438 C 227.582031 62.050781 224.847656 64.695312 222.117188 67.351562 C 220.082031 69.332031 218.066406 71.339844 216.011719 73.308594 C 213.746094 75.480469 211.449219 77.617188 209.171875 79.777344 C 208.808594 80.117188 208.464844 80.480469 208.113281 80.832031 C 209.503906 78.945312 211.011719 77.183594 212.589844 75.484375 C 215.050781 72.839844 217.515625 70.1875 220.058594 67.621094 C 225.816406 61.804688 231.515625 55.933594 237.042969 49.890625 C 240.960938 45.609375 245.222656 41.644531 249.335938 37.535156 C 249.46875 37.402344 249.609375 37.269531 249.753906 37.148438 C 252.125 35.171875 254.492188 33.195312 256.871094 31.226562 C 257.125 31.019531 257.4375 30.882812 257.726562 30.714844 Z M 205.535156 87.480469 C 204.898438 88.117188 204.414062 88.632812 203.898438 89.109375 C 202.328125 90.5625 200.726562 91.976562 199.175781 93.449219 C 195.867188 96.589844 192.546875 99.726562 189.292969 102.925781 C 183.726562 108.402344 178.207031 113.925781 172.65625 119.421875 C 172.476562 119.601562 172.21875 119.707031 171.957031 119.867188 C 171.636719 119.480469 171.347656 119.171875 171.105469 118.828125 C 170.574219 118.078125 170.585938 117.78125 171.234375 117.082031 C 172.621094 115.585938 173.984375 114.058594 175.433594 112.621094 C 178.746094 109.34375 182.128906 106.132812 185.445312 102.859375 C 191.003906 97.378906 196.539062 91.871094 202.082031 86.375 C 202.320312 86.140625 202.523438 85.824219 202.8125 85.707031 C 203.113281 85.582031 203.621094 85.5 203.820312 85.664062 C 204.417969 86.164062 204.90625 86.792969 205.535156 87.480469 Z M 118.738281 179.851562 C 118.472656 180.121094 118.195312 180.433594 117.882812 180.699219 C 117.234375 181.253906 116.550781 181.765625 115.910156 182.328125 C 112.417969 185.398438 108.972656 188.519531 105.445312 191.542969 C 103.140625 193.515625 100.746094 195.390625 98.335938 197.238281 C 97.441406 197.925781 96.429688 198.488281 95.40625 198.980469 C 94.035156 199.640625 92.640625 199.632812 91.359375 198.695312 C 90.453125 198.03125 90.386719 197.242188 91.132812 196.457031 C 92.183594 195.355469 93.222656 194.242188 94.296875 193.164062 C 100.179688 187.269531 106.074219 181.386719 111.964844 175.5 L 113.179688 174.285156 Z M 139.207031 139.558594 C 139.3125 139.441406 139.417969 139.324219 139.523438 139.207031 C 140.632812 140.054688 141.796875 140.84375 142.847656 141.761719 C 144.472656 143.179688 144.65625 143.222656 146.210938 141.671875 C 152.847656 135.039062 159.480469 128.402344 166.113281 121.765625 C 166.550781 121.328125 166.957031 120.859375 167.421875 120.460938 C 168.296875 119.710938 168.671875 119.726562 169.222656 120.65625 C 169.855469 121.71875 170.386719 122.835938 170.941406 123.9375 C 171.3125 124.675781 171.273438 125.414062 170.78125 126.089844 C 170.003906 127.167969 169.269531 128.285156 168.402344 129.289062 C 166.128906 131.90625 163.84375 134.515625 161.476562 137.042969 C 157.769531 141 154.003906 144.898438 150.238281 148.800781 C 149.226562 149.851562 148.964844 149.792969 147.964844 148.707031 C 146.195312 146.785156 144.417969 144.871094 142.613281 142.976562 C 141.507812 141.8125 140.34375 140.695312 139.207031 139.558594 Z M 228.585938 76.941406 C 228.785156 76.511719 228.878906 76.089844 229.132812 75.8125 C 230.605469 74.199219 232.066406 72.570312 233.628906 71.042969 C 235.933594 68.78125 238.355469 66.636719 240.660156 64.371094 C 244.296875 60.804688 247.875 57.179688 251.480469 53.574219 C 255.554688 49.503906 259.628906 45.429688 263.707031 41.359375 C 264.921875 40.148438 265.488281 40.246094 266.476562 41.707031 C 267.640625 43.4375 268.367188 45.300781 268.585938 47.390625 C 268.742188 48.902344 268.269531 50.136719 267.46875 51.398438 C 266.257812 53.308594 264.421875 54.542969 262.757812 55.914062 C 259.613281 58.503906 256.316406 60.917969 253.015625 63.316406 C 248.871094 66.328125 244.84375 69.53125 240.324219 71.988281 C 237.238281 73.664062 234.0625 75.183594 230.914062 76.738281 C 230.292969 77.042969 229.628906 77.402344 228.585938 76.941406 Z M 216.410156 55.988281 C 215.269531 57.128906 214.132812 58.269531 212.988281 59.40625 C 212.855469 59.539062 212.699219 59.683594 212.527344 59.734375 C 212.273438 59.804688 211.875 59.914062 211.753906 59.792969 C 211.566406 59.605469 211.421875 59.191406 211.496094 58.949219 C 211.796875 58 212.15625 57.0625 212.558594 56.152344 C 215.78125 48.902344 220.242188 42.410156 224.945312 36.070312 C 227.289062 32.910156 229.6875 29.789062 232.105469 26.683594 C 233.214844 25.265625 234.335938 23.835938 235.617188 22.582031 C 236.925781 21.300781 238.3125 20.011719 240.378906 20.027344 C 243.058594 20.046875 245.394531 21.007812 247.507812 22.558594 C 248.296875 23.140625 248.320312 23.890625 247.648438 24.652344 C 247.175781 25.1875 246.632812 25.660156 246.132812 26.167969 C 236.261719 36.144531 226.144531 45.878906 216.410156 55.988281 Z M 52.199219 236.234375 C 53.015625 236.363281 53.460938 235.933594 53.917969 235.53125 C 56.695312 233.074219 59.480469 230.628906 62.242188 228.152344 C 63.941406 226.632812 65.613281 225.074219 67.285156 223.523438 C 71.1875 219.898438 75.0625 216.242188 78.996094 212.652344 C 82.71875 209.261719 86.507812 205.941406 90.257812 202.574219 C 90.679688 202.191406 91.082031 202.015625 91.664062 202.097656 C 94.417969 202.496094 96.808594 201.621094 98.976562 199.960938 C 101.652344 197.910156 104.40625 195.960938 107.007812 193.820312 C 109.652344 191.652344 112.144531 189.300781 114.707031 187.035156 C 117.734375 184.367188 120.769531 181.703125 123.796875 179.035156 C 124.332031 178.5625 124.871094 178.089844 125.375 177.585938 C 131.816406 171.152344 138.257812 164.722656 144.6875 158.28125 C 146.472656 156.492188 148.234375 154.683594 149.976562 152.859375 C 151.976562 150.757812 153.9375 148.617188 155.933594 146.511719 C 158.714844 143.578125 161.558594 140.699219 164.292969 137.71875 C 166.125 135.730469 167.820312 133.613281 169.570312 131.542969 C 170.488281 130.457031 171.445312 129.394531 172.277344 128.242188 C 173.460938 126.605469 174.675781 124.921875 173.378906 122.804688 C 174.574219 121.613281 175.652344 120.496094 176.773438 119.421875 C 179.316406 116.980469 181.882812 114.574219 184.425781 112.136719 C 187.859375 108.84375 191.285156 105.539062 194.710938 102.234375 C 197.722656 99.324219 200.722656 96.402344 203.730469 93.488281 C 204.925781 92.328125 206.132812 91.183594 207.332031 90.023438 C 207.882812 89.492188 208.503906 89.328125 209.28125 89.394531 C 213.402344 89.742188 217.523438 90.179688 221.65625 90.324219 C 228.757812 90.574219 235.46875 88.996094 241.53125 85.199219 C 243.003906 84.28125 244.253906 82.980469 245.503906 81.75 C 248.015625 79.277344 250.449219 76.726562 252.929688 74.222656 C 255.078125 72.058594 257.292969 69.957031 259.386719 67.742188 C 261.378906 65.636719 263.253906 63.417969 265.183594 61.257812 C 266.230469 60.085938 267.261719 58.90625 268.34375 57.765625 C 270.789062 55.191406 272.730469 52.292969 274.191406 49.046875 C 274.808594 47.679688 274.820312 46.433594 274.273438 45.066406 C 272.898438 41.65625 271.195312 38.433594 269.078125 35.425781 C 267.027344 32.511719 265.046875 29.550781 262.984375 26.648438 C 262.558594 26.050781 261.945312 25.554688 261.339844 25.125 C 256.882812 21.96875 252.460938 18.761719 247.632812 16.175781 C 246.335938 15.484375 244.960938 14.929688 243.601562 14.359375 C 242.265625 13.792969 240.949219 13.863281 239.59375 14.445312 C 236.855469 15.617188 234.40625 17.242188 232.15625 19.152344 C 230.414062 20.628906 228.8125 22.257812 227.09375 23.765625 C 220.179688 29.828125 213.828125 36.480469 207.152344 42.789062 C 203.164062 46.558594 201 51.132812 199.515625 56.203125 C 198.347656 60.183594 198.230469 64.257812 198.371094 68.371094 C 198.496094 72.085938 198.683594 75.785156 199.265625 79.460938 C 199.363281 80.085938 199.148438 80.535156 198.714844 80.980469 C 196.433594 83.339844 194.195312 85.742188 191.90625 88.09375 C 189.117188 90.957031 186.269531 93.765625 183.480469 96.632812 C 180.527344 99.667969 177.59375 102.71875 174.6875 105.800781 C 172.050781 108.601562 169.457031 111.445312 166.867188 114.292969 C 166.269531 114.949219 165.710938 115.316406 164.785156 114.871094 C 164.019531 114.503906 163.1875 114.613281 162.457031 115.070312 C 161.292969 115.804688 160.078125 116.484375 159.007812 117.339844 C 156.640625 119.242188 154.332031 121.222656 152.03125 123.203125 C 151.054688 124.042969 150.152344 124.960938 149.226562 125.851562 C 145.621094 129.3125 142.105469 132.871094 138.402344 136.222656 C 130.839844 143.070312 123.957031 150.605469 116.566406 157.621094 C 113.699219 160.34375 111.015625 163.226562 108.320312 166.101562 C 105.558594 169.042969 102.96875 172.148438 100.316406 175.191406 C 97.820312 178.054688 95.285156 180.890625 92.875 183.824219 C 91.1875 185.875 89.589844 188.011719 88.109375 190.21875 C 86.78125 192.191406 86.085938 194.417969 86.445312 196.855469 C 86.546875 197.542969 86.28125 198.027344 85.832031 198.507812 C 82.046875 202.585938 78.28125 206.679688 74.503906 210.765625 C 71.214844 214.328125 67.894531 217.859375 64.640625 221.453125 C 62.058594 224.304688 59.542969 227.214844 57.019531 230.121094 C 55.496094 231.875 54.003906 233.664062 52.515625 235.449219 C 52.359375 235.640625 52.320312 235.925781 52.199219 236.234375 "/>
<path fill-rule="nonzero" fill="rgb(100%, 100%, 100%)" fill-opacity="1" d="M 139.207031 139.558594 C 140.34375 140.695312 141.507812 141.8125 142.613281 142.976562 C 144.417969 144.871094 146.195312 146.785156 147.964844 148.707031 C 148.964844 149.792969 149.226562 149.851562 150.238281 148.800781 C 154.003906 144.898438 157.769531 141 161.476562 137.042969 C 163.84375 134.515625 166.128906 131.90625 168.402344 129.289062 C 169.269531 128.285156 170.003906 127.167969 170.78125 126.089844 C 171.273438 125.414062 171.3125 124.675781 170.941406 123.9375 C 170.386719 122.832031 169.855469 121.714844 169.222656 120.65625 C 168.671875 119.726562 168.296875 119.710938 167.421875 120.460938 C 166.957031 120.859375 166.550781 121.328125 166.113281 121.765625 C 159.480469 128.402344 152.847656 135.039062 146.210938 141.671875 C 144.65625 143.222656 144.472656 143.179688 142.847656 141.761719 C 141.796875 140.84375 140.632812 140.054688 139.523438 139.207031 C 139.417969 139.324219 139.3125 139.441406 139.207031 139.558594 Z M 77.265625 211.902344 C 78.707031 210.617188 80.144531 209.328125 81.59375 208.046875 C 83.898438 206.007812 86.21875 203.980469 88.527344 201.941406 C 88.902344 201.609375 89.535156 201.242188 89.066406 200.691406 C 88.601562 200.144531 88.132812 200.675781 87.765625 201.035156 C 84.386719 204.371094 81.011719 207.714844 77.640625 211.054688 C 77.441406 211.25 77.269531 211.472656 77.082031 211.679688 C 77.144531 211.753906 77.203125 211.828125 77.265625 211.902344 Z M 140.617188 147.332031 C 139.582031 148.257812 138.683594 149.0625 137.820312 149.835938 C 135.894531 148.8125 134.738281 147.050781 133.015625 146.082031 C 132.941406 146.171875 132.871094 146.265625 132.796875 146.359375 C 133.632812 147.195312 134.488281 148.011719 135.296875 148.867188 C 137.289062 150.976562 139.261719 153.101562 141.242188 155.222656 C 141.433594 155.429688 141.605469 155.664062 141.816406 155.851562 C 142.261719 156.246094 142.714844 156.347656 143.1875 155.859375 C 143.953125 155.070312 144.734375 154.304688 145.507812 153.53125 C 145.914062 153.128906 145.964844 152.71875 145.5625 152.289062 C 145.53125 152.253906 145.5 152.21875 145.464844 152.183594 C 143.894531 150.613281 142.324219 149.042969 140.617188 147.332031 Z M 112.15625 166.851562 C 113.785156 168.507812 115.421875 170.152344 117.035156 171.820312 C 118.640625 173.480469 120.222656 175.164062 121.921875 176.949219 L 125.519531 173.355469 C 123.910156 171.746094 122.296875 170.097656 120.640625 168.492188 C 120.046875 167.917969 119.710938 167.96875 119.046875 168.566406 C 118.625 168.949219 118.246094 169.382812 117.824219 169.765625 C 117.148438 170.382812 116.984375 170.367188 116.265625 169.75 C 115.261719 168.882812 114.253906 168.015625 113.234375 167.167969 C 112.96875 166.949219 112.648438 166.792969 112.355469 166.609375 C 112.289062 166.691406 112.222656 166.769531 112.15625 166.851562 Z M 128.523438 170.375 L 132.414062 166.488281 C 130.839844 164.917969 129.347656 163.410156 127.835938 161.917969 C 126.847656 160.9375 126.6875 160.949219 125.644531 161.964844 C 125.105469 162.488281 124.582031 163.027344 123.917969 163.6875 C 122.160156 162.289062 120.527344 160.992188 118.898438 159.695312 C 118.816406 159.765625 118.734375 159.839844 118.652344 159.910156 C 118.808594 160.144531 118.925781 160.414062 119.121094 160.609375 C 121.402344 162.898438 123.714844 165.160156 125.976562 167.464844 C 126.835938 168.339844 127.597656 169.308594 128.523438 170.375 Z M 135.722656 163.316406 C 136.875 162.164062 137.929688 161.148438 138.9375 160.085938 C 139.480469 159.511719 139.375 159.074219 138.785156 158.527344 C 137.429688 157.277344 136.074219 156.023438 134.757812 154.730469 C 133.925781 153.910156 133.761719 153.871094 132.929688 154.683594 C 132.386719 155.214844 131.839844 155.742188 131.316406 156.292969 C 130.808594 156.832031 130.382812 156.746094 129.867188 156.269531 C 128.824219 155.308594 127.742188 154.386719 126.65625 153.476562 C 126.398438 153.261719 126.050781 153.152344 125.613281 153.199219 Z M 118.738281 179.851562 L 113.179688 174.285156 L 111.964844 175.5 C 106.074219 181.386719 100.179688 187.269531 94.296875 193.164062 C 93.222656 194.242188 92.183594 195.355469 91.132812 196.457031 C 90.386719 197.242188 90.453125 198.03125 91.359375 198.695312 C 92.640625 199.632812 94.035156 199.640625 95.40625 198.980469 C 96.429688 198.488281 97.441406 197.925781 98.339844 197.234375 C 100.746094 195.390625 103.140625 193.515625 105.445312 191.542969 C 108.972656 188.519531 112.417969 185.398438 115.910156 182.328125 C 116.550781 181.765625 117.234375 181.253906 117.882812 180.699219 C 118.195312 180.429688 118.472656 180.121094 118.738281 179.851562 "/>
<path fill-rule="nonzero" fill="rgb(100%, 100%, 100%)" fill-opacity="1" d="M 216.410156 55.988281 C 226.144531 45.878906 236.261719 36.144531 246.132812 26.167969 C 246.632812 25.660156 247.175781 25.1875 247.648438 24.652344 C 248.316406 23.890625 248.296875 23.140625 247.507812 22.558594 C 245.394531 21.007812 243.058594 20.046875 240.378906 20.027344 C 238.3125 20.011719 236.925781 21.300781 235.617188 22.582031 C 234.335938 23.835938 233.214844 25.265625 232.109375 26.683594 C 229.6875 29.789062 227.289062 32.910156 224.945312 36.070312 C 220.242188 42.410156 215.78125 48.902344 212.558594 56.152344 C 212.15625 57.0625 211.796875 58 211.5 58.949219 C 211.421875 59.191406 211.566406 59.605469 211.753906 59.792969 C 211.875 59.914062 212.273438 59.804688 212.527344 59.734375 C 212.699219 59.6875 212.855469 59.539062 212.988281 59.40625 C 214.132812 58.269531 215.273438 57.128906 216.410156 55.988281 "/>
<path fill-rule="nonzero" fill="rgb(100%, 100%, 100%)" fill-opacity="1" d="M 228.585938 76.941406 C 229.628906 77.398438 230.292969 77.042969 230.914062 76.738281 C 234.066406 75.183594 237.238281 73.664062 240.324219 71.988281 C 244.84375 69.53125 248.871094 66.328125 253.015625 63.316406 C 256.316406 60.917969 259.613281 58.507812 262.757812 55.914062 C 264.421875 54.539062 266.257812 53.308594 267.46875 51.398438 C 268.269531 50.136719 268.746094 48.902344 268.585938 47.390625 C 268.367188 45.300781 267.640625 43.4375 266.476562 41.707031 C 265.488281 40.246094 264.921875 40.148438 263.707031 41.359375 C 259.628906 45.429688 255.554688 49.503906 251.480469 53.574219 C 247.875 57.175781 244.296875 60.804688 240.660156 64.371094 C 238.355469 66.636719 235.933594 68.78125 233.628906 71.042969 C 232.066406 72.570312 230.605469 74.199219 229.132812 75.8125 C 228.878906 76.089844 228.789062 76.511719 228.585938 76.941406 "/>
<path fill-rule="nonzero" fill="rgb(100%, 100%, 100%)" fill-opacity="1" d="M 205.535156 87.476562 C 204.90625 86.792969 204.417969 86.164062 203.820312 85.664062 C 203.621094 85.5 203.113281 85.582031 202.8125 85.707031 C 202.527344 85.824219 202.320312 86.140625 202.082031 86.375 C 196.539062 91.871094 191.003906 97.378906 185.445312 102.859375 C 182.125 106.132812 178.746094 109.34375 175.433594 112.621094 C 173.984375 114.058594 172.621094 115.585938 171.234375 117.082031 C 170.585938 117.785156 170.574219 118.078125 171.105469 118.828125 C 171.347656 119.171875 171.636719 119.480469 171.957031 119.867188 C 172.21875 119.707031 172.476562 119.605469 172.65625 119.421875 C 178.207031 113.925781 183.726562 108.402344 189.292969 102.925781 C 192.546875 99.726562 195.867188 96.59375 199.175781 93.449219 C 200.726562 91.976562 202.328125 90.5625 203.898438 89.109375 C 204.414062 88.628906 204.898438 88.113281 205.535156 87.476562 "/>
<path fill-rule="nonzero" fill="rgb(100%, 100%, 100%)" fill-opacity="1" d="M 257.726562 30.714844 C 257.441406 30.882812 257.125 31.019531 256.871094 31.226562 C 254.492188 33.195312 252.125 35.171875 249.753906 37.148438 C 249.609375 37.269531 249.46875 37.402344 249.335938 37.535156 C 245.222656 41.644531 240.960938 45.609375 237.042969 49.894531 C 231.515625 55.933594 225.816406 61.804688 220.058594 67.621094 C 217.515625 70.1875 215.050781 72.835938 212.589844 75.484375 C 211.011719 77.183594 209.503906 78.941406 208.113281 80.832031 C 208.464844 80.480469 208.808594 80.117188 209.171875 79.777344 C 211.453125 77.617188 213.746094 75.480469 216.011719 73.308594 C 218.066406 71.339844 220.078125 69.332031 222.117188 67.351562 C 224.847656 64.699219 227.582031 62.050781 230.3125 59.398438 C 230.992188 58.738281 231.65625 58.050781 232.347656 57.402344 C 234.605469 55.289062 236.816406 53.121094 239.148438 51.097656 C 242.855469 47.875 246.246094 44.328125 249.625 40.789062 C 252.472656 37.808594 255 34.523438 257.664062 31.371094 C 257.769531 31.242188 257.832031 31.078125 257.914062 30.929688 C 257.851562 30.859375 257.789062 30.785156 257.726562 30.714844 "/>
<path fill-rule="nonzero" fill="rgb(100%, 100%, 100%)" fill-opacity="1" d="M 210.550781 86.335938 C 211.679688 86.390625 212.808594 86.46875 213.9375 86.496094 C 218.972656 86.628906 224.019531 86.777344 229.027344 86.160156 C 233.261719 85.636719 237.289062 84.398438 240.632812 81.527344 C 241.351562 80.910156 242.15625 80.398438 242.902344 79.816406 C 243.175781 79.605469 243.394531 79.335938 243.535156 78.847656 C 243.402344 78.886719 243.253906 78.898438 243.144531 78.96875 C 236.199219 83.515625 228.324219 84.9375 220.28125 85.679688 C 217.5 85.9375 214.6875 85.84375 211.890625 85.914062 C 211.441406 85.925781 210.988281 85.953125 210.539062 85.972656 C 210.542969 86.09375 210.546875 86.214844 210.550781 86.335938 "/>
<path fill-rule="evenodd" fill="rgb(100%, 100%, 100%)" fill-opacity="1" d="M 121.792969 123.039062 C 120.875 122.113281 119.964844 121.183594 119.023438 120.285156 C 116.484375 117.84375 113.917969 115.433594 111.375 113 C 107.9375 109.703125 104.511719 106.402344 101.085938 103.09375 C 98.074219 100.183594 95.074219 97.257812 92.066406 94.347656 C 90.867188 93.1875 89.660156 92.042969 88.464844 90.882812 C 88.167969 90.59375 87.859375 90.554688 87.453125 90.589844 C 83.3125 90.9375 79.179688 91.375 75.023438 91.523438 C 67.679688 91.78125 60.714844 90.128906 54.460938 86.214844 C 52.886719 85.230469 51.597656 83.898438 50.285156 82.601562 C 47.765625 80.125 45.328125 77.574219 42.847656 75.066406 C 40.691406 72.890625 38.472656 70.785156 36.371094 68.5625 C 34.371094 66.445312 32.488281 64.222656 30.550781 62.050781 C 29.515625 60.890625 28.488281 59.71875 27.417969 58.589844 C 24.878906 55.917969 22.855469 52.894531 21.34375 49.535156 C 20.597656 47.878906 20.566406 46.289062 21.242188 44.609375 C 22.648438 41.117188 24.402344 37.800781 26.570312 34.722656 C 28.621094 31.808594 30.601562 28.84375 32.667969 25.941406 C 33.179688 25.21875 33.878906 24.644531 34.597656 24.132812 C 39.09375 20.949219 43.5625 17.710938 48.433594 15.105469 C 49.765625 14.390625 51.167969 13.828125 52.5625 13.238281 C 54.214844 12.539062 55.882812 12.625 57.519531 13.328125 C 60.355469 14.542969 62.914062 16.234375 65.261719 18.226562 C 67.007812 19.707031 68.613281 21.339844 70.335938 22.847656 C 77.257812 28.921875 83.621094 35.585938 90.308594 41.90625 C 94.417969 45.785156 96.710938 50.507812 98.277344 55.855469 C 99.480469 59.960938 99.613281 64.160156 99.46875 68.402344 C 99.34375 72.160156 99.148438 75.921875 98.5625 79.640625 C 98.527344 79.867188 98.628906 79.972656 98.785156 80.136719 C 101.070312 82.492188 103.304688 84.894531 105.59375 87.242188 C 108.382812 90.105469 111.226562 92.917969 114.015625 95.785156 C 116.972656 98.824219 119.914062 101.878906 122.824219 104.96875 C 125.464844 107.773438 128.066406 110.621094 130.660156 113.472656 C 130.730469 113.550781 130.992188 113.828125 131.09375 113.851562 C 131.148438 113.855469 131.28125 113.796875 131.324219 113.777344 C 132.476562 113.21875 133.75 113.371094 134.820312 114.042969 C 136.023438 114.804688 137.261719 115.496094 138.378906 116.390625 C 140.761719 118.300781 143.078125 120.289062 145.390625 122.28125 C 146.382812 123.136719 147.300781 124.066406 148.246094 124.972656 C 151.839844 128.425781 155.34375 131.972656 159.039062 135.320312 C 166.609375 142.171875 173.5 149.714844 180.898438 156.738281 C 183.777344 159.472656 186.480469 162.375 189.195312 165.265625 C 191.964844 168.222656 194.566406 171.335938 197.226562 174.390625 C 199.730469 177.265625 202.273438 180.105469 204.691406 183.050781 C 206.40625 185.132812 208.023438 187.296875 209.527344 189.535156 C 211.035156 191.777344 211.78125 194.320312 211.382812 197.019531 C 211.34375 197.308594 211.496094 197.476562 211.6875 197.679688 C 215.46875 201.757812 219.238281 205.851562 223.015625 209.9375 C 226.308594 213.503906 229.632812 217.039062 232.890625 220.632812 C 235.476562 223.492188 237.996094 226.410156 240.523438 229.324219 C 242.054688 231.085938 243.550781 232.875 245.042969 234.667969 C 245.371094 235.0625 245.390625 235.359375 245.558594 235.785156 L 246.101562 237.183594 L 244.621094 237.417969 C 243.449219 237.601562 242.734375 237.148438 241.917969 236.425781 C 239.136719 233.96875 236.351562 231.519531 233.585938 229.042969 C 231.878906 227.515625 230.207031 225.953125 228.527344 224.398438 C 224.625 220.777344 220.757812 217.121094 216.824219 213.535156 C 213.105469 210.144531 209.316406 206.828125 205.570312 203.460938 C 205.417969 203.324219 205.34375 203.253906 205.144531 203.285156 C 202.078125 203.726562 199.34375 202.765625 196.921875 200.910156 C 194.238281 198.847656 191.472656 196.894531 188.859375 194.746094 C 186.203125 192.5625 183.703125 190.207031 181.128906 187.933594 C 178.101562 185.261719 175.066406 182.601562 172.039062 179.929688 C 171.484375 179.441406 170.929688 178.953125 170.40625 178.429688 C 163.964844 172 157.523438 165.566406 151.089844 159.125 C 149.300781 157.332031 147.535156 155.515625 145.785156 153.683594 C 143.78125 151.582031 141.824219 149.441406 139.828125 147.332031 C 137.039062 144.394531 134.195312 141.511719 131.453125 138.527344 C 129.609375 136.523438 127.902344 134.394531 126.144531 132.3125 C 125.207031 131.203125 124.234375 130.121094 123.378906 128.941406 C 122.734375 128.046875 122.074219 127.128906 121.730469 126.066406 C 121.386719 125.019531 121.417969 124.007812 121.792969 123.039062 "/>
<path fill-rule="nonzero" fill="rgb(0%, 0%, 0%)" fill-opacity="1" d="M 219.371094 211.894531 C 219.429688 211.820312 219.492188 211.746094 219.550781 211.671875 C 219.367188 211.464844 219.191406 211.242188 218.996094 211.046875 C 215.621094 207.707031 212.246094 204.363281 208.867188 201.027344 C 208.5 200.667969 208.035156 200.132812 207.566406 200.683594 C 207.097656 201.234375 207.730469 201.601562 208.105469 201.933594 C 210.414062 203.972656 212.734375 206 215.042969 208.039062 C 216.488281 209.320312 217.925781 210.609375 219.371094 211.894531 Z M 86.082031 86.328125 C 86.089844 86.207031 86.09375 86.085938 86.09375 85.964844 C 85.644531 85.945312 85.195312 85.917969 84.746094 85.90625 C 81.945312 85.835938 79.132812 85.929688 76.351562 85.671875 C 68.308594 84.925781 60.433594 83.507812 53.492188 78.960938 C 53.378906 78.890625 53.230469 78.878906 53.097656 78.839844 C 53.238281 79.328125 53.460938 79.597656 53.730469 79.808594 C 54.480469 80.390625 55.285156 80.902344 56 81.519531 C 59.34375 84.390625 63.371094 85.628906 67.605469 86.152344 C 72.613281 86.769531 77.664062 86.621094 82.699219 86.488281 C 83.828125 86.457031 84.957031 86.382812 86.082031 86.328125 Z M 156.019531 147.324219 C 154.308594 149.035156 152.738281 150.605469 151.171875 152.175781 C 151.136719 152.210938 151.105469 152.242188 151.074219 152.28125 C 150.667969 152.710938 150.71875 153.121094 151.125 153.523438 C 151.902344 154.296875 152.683594 155.0625 153.445312 155.851562 C 153.921875 156.339844 154.371094 156.238281 154.816406 155.84375 C 155.027344 155.65625 155.199219 155.421875 155.394531 155.214844 C 157.371094 153.09375 159.34375 150.96875 161.335938 148.859375 C 162.148438 148.003906 163.003906 147.1875 163.835938 146.351562 C 163.765625 146.257812 163.691406 146.164062 163.617188 146.074219 C 161.894531 147.042969 160.738281 148.804688 158.816406 149.828125 C 157.953125 149.054688 157.054688 148.25 156.019531 147.324219 Z M 184.476562 166.84375 C 184.410156 166.761719 184.34375 166.679688 184.277344 166.601562 C 183.984375 166.785156 183.664062 166.9375 183.398438 167.160156 C 182.378906 168.007812 181.375 168.875 180.367188 169.742188 C 179.652344 170.355469 179.484375 170.375 178.808594 169.757812 C 178.386719 169.375 178.011719 168.941406 177.585938 168.558594 C 176.925781 167.960938 176.585938 167.910156 175.996094 168.484375 C 174.339844 170.089844 172.722656 171.738281 171.117188 173.347656 L 174.714844 176.941406 C 176.414062 175.15625 177.992188 173.472656 179.597656 171.8125 C 181.210938 170.144531 182.851562 168.496094 184.476562 166.84375 Z M 168.109375 170.367188 C 169.039062 169.300781 169.796875 168.332031 170.65625 167.457031 C 172.921875 165.152344 175.230469 162.890625 177.515625 160.601562 C 177.707031 160.40625 177.828125 160.136719 177.980469 159.902344 C 177.898438 159.828125 177.820312 159.757812 177.738281 159.6875 C 176.105469 160.984375 174.472656 162.28125 172.714844 163.679688 C 172.054688 163.019531 171.527344 162.480469 170.992188 161.957031 C 169.949219 160.941406 169.789062 160.929688 168.796875 161.910156 C 167.289062 163.402344 165.792969 164.910156 164.222656 166.480469 Z M 160.914062 163.308594 L 171.019531 153.191406 C 170.585938 153.144531 170.238281 153.253906 169.980469 153.46875 C 168.890625 154.378906 167.808594 155.300781 166.765625 156.261719 C 166.25 156.738281 165.824219 156.824219 165.316406 156.285156 C 164.792969 155.734375 164.25 155.207031 163.707031 154.675781 C 162.871094 153.863281 162.710938 153.902344 161.875 154.722656 C 160.558594 156.015625 159.207031 157.269531 157.847656 158.519531 C 157.257812 159.066406 157.152344 159.503906 157.695312 160.074219 C 158.703125 161.140625 159.761719 162.15625 160.914062 163.308594 Z M 38.910156 30.707031 C 38.84375 30.777344 38.785156 30.847656 38.722656 30.921875 C 38.804688 31.070312 38.863281 31.234375 38.96875 31.363281 C 41.632812 34.515625 44.160156 37.800781 47.007812 40.78125 C 50.390625 44.320312 53.777344 47.867188 57.484375 51.085938 C 59.816406 53.113281 62.027344 55.28125 64.285156 57.390625 C 64.980469 58.042969 65.640625 58.726562 66.324219 59.390625 C 69.054688 62.042969 71.789062 64.6875 74.515625 67.34375 C 76.554688 69.324219 78.570312 71.332031 80.621094 73.300781 C 82.886719 75.472656 85.183594 77.609375 87.464844 79.765625 C 87.824219 80.109375 88.167969 80.472656 88.519531 80.824219 C 87.132812 78.933594 85.621094 77.175781 84.042969 75.476562 C 81.582031 72.828125 79.117188 70.179688 76.574219 67.613281 C 70.816406 61.796875 65.117188 55.925781 59.589844 49.882812 C 55.675781 45.601562 51.410156 41.636719 47.300781 37.527344 C 47.164062 37.394531 47.027344 37.261719 46.878906 37.140625 C 44.511719 35.164062 42.140625 33.183594 39.761719 31.21875 C 39.511719 31.011719 39.195312 30.875 38.910156 30.707031 Z M 91.097656 87.46875 C 91.734375 88.105469 92.21875 88.621094 92.738281 89.101562 C 94.304688 90.554688 95.910156 91.96875 97.457031 93.441406 C 100.765625 96.585938 104.085938 99.71875 107.339844 102.917969 C 112.910156 108.394531 118.429688 113.917969 123.976562 119.414062 C 124.15625 119.59375 124.417969 119.699219 124.675781 119.859375 C 125 119.46875 125.289062 119.160156 125.53125 118.820312 C 126.0625 118.070312 126.046875 117.773438 125.402344 117.074219 C 124.015625 115.578125 122.652344 114.050781 121.199219 112.613281 C 117.886719 109.335938 114.507812 106.125 111.1875 102.851562 C 105.628906 97.371094 100.097656 91.863281 94.550781 86.367188 C 94.316406 86.132812 94.109375 85.816406 93.824219 85.699219 C 93.519531 85.574219 93.011719 85.492188 92.816406 85.65625 C 92.21875 86.15625 91.726562 86.785156 91.097656 87.46875 Z M 177.894531 179.84375 C 178.164062 180.113281 178.4375 180.421875 178.75 180.691406 C 179.398438 181.246094 180.085938 181.753906 180.726562 182.320312 C 184.214844 185.390625 187.660156 188.511719 191.191406 191.535156 C 193.496094 193.507812 195.890625 195.378906 198.296875 197.230469 C 199.191406 197.917969 200.207031 198.480469 201.226562 198.972656 C 202.597656 199.632812 203.996094 199.625 205.277344 198.6875 C 206.179688 198.023438 206.25 197.234375 205.5 196.449219 C 204.453125 195.347656 203.414062 194.234375 202.339844 193.15625 C 196.453125 187.261719 190.5625 181.378906 184.671875 175.492188 L 183.457031 174.277344 Z M 157.425781 139.550781 C 157.320312 139.433594 157.21875 139.316406 157.113281 139.195312 C 156 140.046875 154.839844 140.835938 153.789062 141.753906 C 152.160156 143.171875 151.976562 143.214844 150.425781 141.664062 C 143.785156 135.03125 137.15625 128.394531 130.519531 121.757812 C 130.085938 121.320312 129.679688 120.851562 129.210938 120.453125 C 128.339844 119.703125 127.960938 119.71875 127.410156 120.648438 C 126.78125 121.707031 126.246094 122.824219 125.695312 123.929688 C 125.324219 124.667969 125.363281 125.40625 125.851562 126.082031 C 126.632812 127.160156 127.363281 128.277344 128.230469 129.28125 C 130.503906 131.898438 132.789062 134.507812 135.160156 137.035156 C 138.863281 140.992188 142.632812 144.890625 146.394531 148.792969 C 147.410156 149.84375 147.671875 149.785156 148.671875 148.699219 C 150.441406 146.777344 152.21875 144.863281 154.019531 142.96875 C 155.128906 141.804688 156.289062 140.6875 157.425781 139.550781 Z M 68.046875 76.929688 C 67.847656 76.503906 67.753906 76.082031 67.503906 75.804688 C 66.027344 74.191406 64.566406 72.5625 63.007812 71.035156 C 60.699219 68.773438 58.277344 66.628906 55.972656 64.363281 C 52.335938 60.796875 48.757812 57.167969 45.152344 53.566406 C 41.078125 49.496094 37.007812 45.417969 32.925781 41.351562 C 31.710938 40.140625 31.144531 40.238281 30.160156 41.699219 C 28.992188 43.429688 28.269531 45.292969 28.050781 47.382812 C 27.890625 48.894531 28.367188 50.128906 29.164062 51.390625 C 30.378906 53.296875 32.210938 54.53125 33.875 55.90625 C 37.019531 58.496094 40.320312 60.910156 43.617188 63.308594 C 47.761719 66.320312 51.789062 69.523438 56.308594 71.980469 C 59.394531 73.65625 62.570312 75.175781 65.71875 76.730469 C 66.339844 77.035156 67.007812 77.394531 68.046875 76.929688 Z M 80.222656 55.980469 C 81.363281 57.121094 82.5 58.261719 83.644531 59.398438 C 83.78125 59.53125 83.933594 59.675781 84.105469 59.726562 C 84.363281 59.796875 84.757812 59.90625 84.878906 59.785156 C 85.066406 59.597656 85.214844 59.183594 85.136719 58.941406 C 84.835938 57.992188 84.480469 57.054688 84.074219 56.144531 C 80.855469 48.894531 76.390625 42.402344 71.691406 36.0625 C 69.34375 32.902344 66.945312 29.78125 64.527344 26.675781 C 63.421875 25.257812 62.300781 23.828125 61.015625 22.574219 C 59.707031 21.292969 58.324219 20.003906 56.253906 20.019531 C 53.574219 20.039062 51.242188 21 49.125 22.550781 C 48.335938 23.128906 48.316406 23.882812 48.988281 24.644531 C 49.457031 25.179688 50 25.652344 50.5 26.160156 C 60.371094 36.136719 70.492188 45.867188 80.222656 55.980469 Z M 244.433594 236.226562 C 243.621094 236.355469 243.171875 235.925781 242.71875 235.523438 C 239.9375 233.066406 237.152344 230.621094 234.390625 228.144531 C 232.691406 226.625 231.023438 225.066406 229.347656 223.511719 C 225.445312 219.890625 221.574219 216.234375 217.636719 212.644531 C 213.914062 209.25 210.125 205.933594 206.378906 202.566406 C 205.957031 202.183594 205.550781 202.007812 204.972656 202.089844 C 202.214844 202.488281 199.824219 201.613281 197.65625 199.953125 C 194.984375 197.902344 192.226562 195.953125 189.625 193.8125 C 186.984375 191.644531 184.492188 189.292969 181.925781 187.027344 C 178.898438 184.355469 175.863281 181.695312 172.835938 179.027344 C 172.300781 178.554688 171.765625 178.082031 171.257812 177.578125 C 164.816406 171.144531 158.375 164.714844 151.945312 158.273438 C 150.160156 156.484375 148.398438 154.675781 146.65625 152.847656 C 144.65625 150.75 142.699219 148.609375 140.703125 146.503906 C 137.917969 143.570312 135.078125 140.691406 132.339844 137.710938 C 130.507812 135.71875 128.8125 133.605469 127.066406 131.535156 C 126.148438 130.449219 125.191406 129.386719 124.359375 128.234375 C 123.171875 126.59375 121.960938 124.914062 123.253906 122.796875 C 122.0625 121.605469 120.980469 120.488281 119.859375 119.414062 C 117.320312 116.972656 114.75 114.566406 112.210938 112.128906 C 108.773438 108.835938 105.347656 105.53125 101.925781 102.226562 C 98.914062 99.316406 95.914062 96.390625 92.90625 93.480469 C 91.707031 92.320312 90.5 91.175781 89.304688 90.015625 C 88.753906 89.484375 88.128906 89.320312 87.355469 89.386719 C 83.230469 89.734375 79.109375 90.171875 74.980469 90.316406 C 67.875 90.566406 61.167969 88.988281 55.101562 85.191406 C 53.632812 84.273438 52.378906 82.972656 51.128906 81.742188 C 48.617188 79.269531 46.183594 76.71875 43.703125 74.214844 C 41.558594 72.050781 39.34375 69.945312 37.246094 67.734375 C 35.257812 65.628906 33.382812 63.410156 31.449219 61.246094 C 30.40625 60.078125 29.371094 58.898438 28.292969 57.757812 C 25.84375 55.183594 23.902344 52.285156 22.441406 49.039062 C 21.828125 47.671875 21.8125 46.425781 22.363281 45.058594 C 23.738281 41.648438 25.4375 38.425781 27.554688 35.417969 C 29.605469 32.503906 31.585938 29.542969 33.648438 26.640625 C 34.074219 26.042969 34.6875 25.546875 35.292969 25.117188 C 39.75 21.960938 44.175781 18.753906 49 16.167969 C 50.296875 15.476562 51.675781 14.921875 53.03125 14.347656 C 54.371094 13.785156 55.6875 13.851562 57.042969 14.433594 C 59.78125 15.609375 62.226562 17.234375 64.480469 19.144531 C 66.21875 20.621094 67.824219 22.25 69.539062 23.753906 C 76.453125 29.820312 82.804688 36.472656 89.480469 42.78125 C 93.46875 46.550781 95.632812 51.125 97.121094 56.195312 C 98.285156 60.175781 98.402344 64.25 98.265625 68.363281 C 98.140625 72.078125 97.949219 75.777344 97.371094 79.453125 C 97.273438 80.078125 97.484375 80.527344 97.917969 80.972656 C 100.203125 83.332031 102.4375 85.734375 104.726562 88.085938 C 107.519531 90.949219 110.363281 93.757812 113.152344 96.625 C 116.105469 99.660156 119.042969 102.710938 121.945312 105.792969 C 124.582031 108.59375 127.179688 111.4375 129.769531 114.285156 C 130.367188 114.941406 130.921875 115.308594 131.847656 114.863281 C 132.613281 114.496094 133.445312 114.605469 134.175781 115.0625 C 135.339844 115.796875 136.554688 116.476562 137.625 117.332031 C 139.996094 119.234375 142.300781 121.214844 144.605469 123.195312 C 145.578125 124.03125 146.480469 124.953125 147.410156 125.84375 C 151.011719 129.304688 154.527344 132.863281 158.230469 136.214844 C 165.796875 143.0625 172.679688 150.597656 180.070312 157.613281 C 182.9375 160.335938 185.617188 163.21875 188.3125 166.09375 C 191.074219 169.035156 193.667969 172.140625 196.320312 175.183594 C 198.816406 178.046875 201.347656 180.882812 203.761719 183.816406 C 205.449219 185.867188 207.042969 188.003906 208.527344 190.210938 C 209.855469 192.183594 210.546875 194.410156 210.191406 196.84375 C 210.089844 197.535156 210.351562 198.019531 210.800781 198.5 C 214.585938 202.578125 218.351562 206.671875 222.128906 210.757812 C 225.417969 214.320312 228.742188 217.851562 231.996094 221.445312 C 234.578125 224.296875 237.089844 227.207031 239.613281 230.113281 C 241.140625 231.867188 242.628906 233.65625 244.117188 235.441406 C 244.273438 235.632812 244.3125 235.917969 244.433594 236.226562 "/>
<path fill-rule="nonzero" fill="rgb(100%, 100%, 100%)" fill-opacity="1" d="M 157.425781 139.550781 C 156.289062 140.6875 155.128906 141.804688 154.019531 142.96875 C 152.21875 144.863281 150.441406 146.777344 148.671875 148.699219 C 147.671875 149.785156 147.410156 149.84375 146.394531 148.792969 C 142.632812 144.890625 138.863281 140.992188 135.160156 137.035156 C 132.789062 134.507812 130.503906 131.898438 128.230469 129.28125 C 127.363281 128.277344 126.632812 127.160156 125.851562 126.082031 C 125.363281 125.40625 125.324219 124.667969 125.695312 123.929688 C 126.246094 122.824219 126.78125 121.707031 127.410156 120.648438 C 127.960938 119.71875 128.335938 119.703125 129.210938 120.453125 C 129.679688 120.851562 130.085938 121.320312 130.519531 121.757812 C 137.15625 128.394531 143.785156 135.03125 150.425781 141.664062 C 151.976562 143.214844 152.160156 143.171875 153.789062 141.753906 C 154.839844 140.835938 156 140.046875 157.113281 139.195312 C 157.21875 139.316406 157.320312 139.433594 157.425781 139.550781 Z M 219.371094 211.894531 C 217.925781 210.609375 216.488281 209.320312 215.042969 208.039062 C 212.734375 206 210.414062 203.972656 208.105469 201.933594 C 207.730469 201.601562 207.097656 201.234375 207.566406 200.683594 C 208.035156 200.132812 208.5 200.667969 208.867188 201.027344 C 212.246094 204.363281 215.621094 207.707031 218.996094 211.046875 C 219.191406 211.242188 219.367188 211.464844 219.550781 211.671875 C 219.492188 211.746094 219.429688 211.820312 219.371094 211.894531 Z M 156.019531 147.324219 C 157.054688 148.25 157.953125 149.054688 158.816406 149.828125 C 160.738281 148.804688 161.894531 147.042969 163.617188 146.074219 C 163.691406 146.164062 163.765625 146.257812 163.835938 146.351562 C 163.003906 147.1875 162.148438 148.003906 161.335938 148.859375 C 159.34375 150.96875 157.371094 153.09375 155.394531 155.214844 C 155.199219 155.421875 155.027344 155.65625 154.816406 155.84375 C 154.371094 156.238281 153.921875 156.339844 153.445312 155.851562 C 152.683594 155.0625 151.902344 154.296875 151.125 153.523438 C 150.71875 153.121094 150.667969 152.710938 151.070312 152.277344 C 151.105469 152.246094 151.136719 152.207031 151.171875 152.175781 C 152.738281 150.605469 154.308594 149.035156 156.019531 147.324219 Z M 184.476562 166.84375 C 182.847656 168.5 181.210938 170.144531 179.597656 171.8125 C 177.992188 173.472656 176.414062 175.15625 174.714844 176.941406 L 171.117188 173.347656 C 172.722656 171.738281 174.339844 170.089844 175.996094 168.484375 C 176.585938 167.910156 176.925781 167.960938 177.585938 168.558594 C 178.011719 168.941406 178.386719 169.375 178.808594 169.757812 C 179.484375 170.371094 179.648438 170.359375 180.367188 169.742188 C 181.375 168.875 182.378906 168.007812 183.398438 167.160156 C 183.664062 166.9375 183.984375 166.785156 184.28125 166.601562 C 184.34375 166.679688 184.410156 166.761719 184.476562 166.84375 Z M 168.109375 170.367188 L 164.222656 166.480469 C 165.792969 164.910156 167.285156 163.402344 168.796875 161.910156 C 169.789062 160.929688 169.949219 160.941406 170.992188 161.957031 C 171.527344 162.480469 172.054688 163.019531 172.714844 163.679688 C 174.472656 162.28125 176.105469 160.984375 177.738281 159.6875 C 177.820312 159.757812 177.898438 159.828125 177.980469 159.902344 C 177.828125 160.136719 177.707031 160.40625 177.515625 160.597656 C 175.230469 162.890625 172.921875 165.152344 170.65625 167.457031 C 169.796875 168.332031 169.039062 169.300781 168.109375 170.367188 Z M 160.914062 163.308594 C 159.761719 162.15625 158.703125 161.140625 157.695312 160.074219 C 157.152344 159.503906 157.257812 159.066406 157.847656 158.519531 C 159.207031 157.269531 160.558594 156.015625 161.875 154.722656 C 162.710938 153.902344 162.871094 153.863281 163.707031 154.675781 C 164.25 155.207031 164.796875 155.734375 165.316406 156.285156 C 165.824219 156.824219 166.25 156.738281 166.769531 156.261719 C 167.808594 155.300781 168.890625 154.378906 169.980469 153.46875 C 170.238281 153.253906 170.585938 153.144531 171.019531 153.191406 Z M 177.894531 179.84375 L 183.457031 174.277344 L 184.671875 175.492188 C 190.5625 181.378906 196.453125 187.261719 202.339844 193.15625 C 203.414062 194.234375 204.453125 195.347656 205.5 196.449219 C 206.25 197.234375 206.179688 198.023438 205.277344 198.6875 C 203.996094 199.625 202.597656 199.632812 201.226562 198.972656 C 200.207031 198.480469 199.191406 197.917969 198.296875 197.226562 C 195.890625 195.378906 193.496094 193.507812 191.191406 191.535156 C 187.660156 188.511719 184.214844 185.390625 180.726562 182.320312 C 180.085938 181.757812 179.398438 181.246094 178.75 180.691406 C 178.4375 180.421875 178.164062 180.113281 177.894531 179.84375 "/>
<path fill-rule="nonzero" fill="rgb(100%, 100%, 100%)" fill-opacity="1" d="M 80.222656 55.980469 C 70.492188 45.867188 60.371094 36.136719 50.5 26.15625 C 50 25.652344 49.457031 25.179688 48.988281 24.644531 C 48.316406 23.882812 48.335938 23.132812 49.125 22.550781 C 51.242188 21 53.574219 20.039062 56.253906 20.019531 C 58.324219 20.003906 59.707031 21.292969 61.015625 22.574219 C 62.300781 23.828125 63.421875 25.257812 64.527344 26.675781 C 66.945312 29.78125 69.34375 32.902344 71.6875 36.0625 C 76.390625 42.402344 80.855469 48.894531 84.074219 56.144531 C 84.480469 57.054688 84.835938 57.992188 85.136719 58.941406 C 85.214844 59.183594 85.066406 59.597656 84.878906 59.785156 C 84.757812 59.90625 84.363281 59.796875 84.105469 59.726562 C 83.933594 59.679688 83.78125 59.53125 83.644531 59.398438 C 82.5 58.261719 81.363281 57.121094 80.222656 55.980469 "/>
<path fill-rule="nonzero" fill="rgb(100%, 100%, 100%)" fill-opacity="1" d="M 68.046875 76.929688 C 67.007812 77.390625 66.339844 77.035156 65.722656 76.730469 C 62.570312 75.175781 59.394531 73.65625 56.308594 71.980469 C 51.789062 69.523438 47.761719 66.320312 43.617188 63.308594 C 40.320312 60.910156 37.019531 58.496094 33.875 55.90625 C 32.210938 54.53125 30.378906 53.296875 29.164062 51.390625 C 28.367188 50.128906 27.890625 48.894531 28.046875 47.382812 C 28.269531 45.292969 28.992188 43.429688 30.160156 41.699219 C 31.144531 40.238281 31.710938 40.140625 32.925781 41.351562 C 37.007812 45.417969 41.078125 49.496094 45.15625 53.566406 C 48.757812 57.167969 52.339844 60.796875 55.972656 64.363281 C 58.277344 66.628906 60.699219 68.773438 63.007812 71.035156 C 64.566406 72.5625 66.027344 74.191406 67.503906 75.804688 C 67.753906 76.082031 67.847656 76.503906 68.046875 76.929688 "/>
<path fill-rule="nonzero" fill="rgb(100%, 100%, 100%)" fill-opacity="1" d="M 91.097656 87.46875 C 91.726562 86.785156 92.21875 86.15625 92.816406 85.65625 C 93.011719 85.492188 93.519531 85.574219 93.824219 85.699219 C 94.109375 85.816406 94.316406 86.132812 94.550781 86.367188 C 100.097656 91.863281 105.628906 97.371094 111.1875 102.851562 C 114.507812 106.125 117.886719 109.335938 121.199219 112.613281 C 122.652344 114.050781 124.011719 115.578125 125.402344 117.074219 C 126.046875 117.777344 126.0625 118.070312 125.53125 118.820312 C 125.289062 119.164062 125 119.46875 124.675781 119.859375 C 124.417969 119.699219 124.160156 119.59375 123.976562 119.414062 C 118.429688 113.917969 112.910156 108.394531 107.339844 102.917969 C 104.085938 99.71875 100.769531 96.585938 97.457031 93.441406 C 95.90625 91.96875 94.304688 90.554688 92.738281 89.101562 C 92.21875 88.621094 91.734375 88.105469 91.097656 87.46875 "/>
<path fill-rule="nonzero" fill="rgb(100%, 100%, 100%)" fill-opacity="1" d="M 38.910156 30.707031 C 39.195312 30.875 39.511719 31.011719 39.761719 31.21875 C 42.140625 33.183594 44.511719 35.164062 46.878906 37.140625 C 47.027344 37.261719 47.164062 37.394531 47.300781 37.527344 C 51.410156 41.636719 55.675781 45.601562 59.589844 49.882812 C 65.121094 55.925781 70.816406 61.796875 76.574219 67.613281 C 79.117188 70.179688 81.582031 72.828125 84.042969 75.476562 C 85.621094 77.171875 87.132812 78.933594 88.523438 80.824219 C 88.167969 80.472656 87.824219 80.109375 87.464844 79.769531 C 85.183594 77.609375 82.886719 75.472656 80.621094 73.300781 C 78.570312 71.332031 76.554688 69.324219 74.515625 67.34375 C 71.789062 64.6875 69.054688 62.042969 66.324219 59.390625 C 65.640625 58.730469 64.980469 58.042969 64.285156 57.394531 C 62.027344 55.28125 59.816406 53.113281 57.484375 51.085938 C 53.777344 47.867188 50.390625 44.320312 47.007812 40.78125 C 44.160156 37.800781 41.632812 34.515625 38.972656 31.363281 C 38.863281 31.234375 38.804688 31.070312 38.722656 30.921875 C 38.785156 30.851562 38.847656 30.777344 38.910156 30.707031 "/>
<path fill-rule="nonzero" fill="rgb(100%, 100%, 100%)" fill-opacity="1" d="M 86.085938 86.328125 C 84.953125 86.382812 83.828125 86.457031 82.699219 86.488281 C 77.660156 86.621094 72.613281 86.769531 67.605469 86.152344 C 63.371094 85.628906 59.34375 84.390625 56 81.519531 C 55.285156 80.902344 54.476562 80.390625 53.730469 79.808594 C 53.460938 79.597656 53.238281 79.328125 53.097656 78.839844 C 53.230469 78.878906 53.378906 78.890625 53.492188 78.960938 C 60.433594 83.507812 68.308594 84.925781 76.351562 85.671875 C 79.132812 85.929688 81.945312 85.835938 84.742188 85.90625 C 85.195312 85.917969 85.644531 85.945312 86.09375 85.964844 C 86.089844 86.085938 86.089844 86.207031 86.085938 86.328125 "/>
<path fill-rule="nonzero" fill="rgb(100%, 100%, 100%)" fill-opacity="1" d="M 63.996094 167.558594 C 64.003906 167.574219 64.015625 167.585938 64.019531 167.597656 C 64.03125 167.617188 64.042969 167.632812 64.054688 167.652344 C 64.09375 167.714844 64.140625 167.765625 64.199219 167.796875 C 64.203125 167.800781 64.207031 167.8125 64.214844 167.816406 L 72.238281 171.984375 C 54.300781 179.074219 40.003906 188.988281 36.46875 191.535156 C 36.792969 189.230469 36.996094 185.75 37.191406 182.367188 C 37.441406 178.109375 37.699219 173.707031 38.179688 171.808594 C 38.238281 171.578125 38.15625 171.332031 37.980469 171.210938 C 36.742188 170.367188 34.992188 168.722656 33.140625 166.976562 C 30.273438 164.285156 27.066406 161.265625 24.316406 159.769531 C 27.519531 157.804688 39.722656 150.484375 54.691406 143.476562 Z M 63.996094 167.558594 "/>
<path fill-rule="nonzero" fill="rgb(100%, 100%, 100%)" fill-opacity="1" d="M 70.484375 165.179688 L 72.621094 171.0625 L 65.496094 167.363281 C 66.460938 166.910156 68.152344 166.140625 70.484375 165.179688 "/>
<path fill-rule="nonzero" fill="rgb(100%, 100%, 100%)" fill-opacity="1" d="M 225.738281 164.089844 C 225.722656 164.078125 225.714844 164.0625 225.699219 164.054688 C 225.664062 164.035156 225.628906 164.035156 225.59375 164.027344 C 213.308594 159.007812 184.472656 149.113281 148.121094 149.113281 C 111.769531 149.113281 82.933594 159.007812 70.648438 164.027344 C 70.613281 164.035156 70.578125 164.035156 70.542969 164.054688 C 70.527344 164.0625 70.515625 164.078125 70.5 164.089844 C 67.410156 165.355469 65.394531 166.300781 64.601562 166.683594 L 52.878906 136.34375 C 57.183594 134.214844 95.207031 116.199219 148.089844 116.199219 C 201.03125 116.199219 239.058594 134.214844 243.363281 136.34375 L 231.640625 166.683594 C 230.847656 166.300781 228.832031 165.355469 225.738281 164.089844 "/>
<path fill-rule="nonzero" fill="rgb(100%, 100%, 100%)" fill-opacity="1" d="M 230.746094 167.363281 L 223.621094 171.0625 L 225.757812 165.179688 C 228.089844 166.140625 229.78125 166.910156 230.746094 167.363281 "/>
<path fill-rule="nonzero" fill="rgb(100%, 100%, 100%)" fill-opacity="1" d="M 258.261719 171.210938 C 258.085938 171.332031 258.003906 171.578125 258.0625 171.808594 C 258.542969 173.707031 258.800781 178.109375 259.050781 182.367188 C 259.246094 185.75 259.449219 189.230469 259.773438 191.535156 C 256.238281 188.988281 241.941406 179.074219 224.003906 171.984375 L 232.027344 167.816406 C 232.035156 167.8125 232.039062 167.800781 232.046875 167.792969 C 232.101562 167.761719 232.148438 167.714844 232.1875 167.652344 C 232.199219 167.632812 232.210938 167.617188 232.222656 167.597656 C 232.226562 167.585938 232.238281 167.574219 232.246094 167.558594 L 241.550781 143.476562 C 256.523438 150.484375 268.722656 157.804688 271.925781 159.769531 C 269.175781 161.265625 265.96875 164.285156 263.101562 166.976562 C 261.25 168.722656 259.5 170.367188 258.261719 171.210938 "/>
<path fill-rule="evenodd" fill="rgb(0%, 0%, 0%)" fill-opacity="1" d="M 36.511719 172.28125 C 35.027344 171.140625 33.570312 169.707031 32.199219 168.417969 C 30.617188 166.929688 29.027344 165.433594 27.375 164.058594 C 26.035156 162.941406 24.460938 161.726562 22.921875 161.058594 C 22.515625 160.882812 22.230469 160.433594 22.199219 159.910156 C 22.171875 159.394531 22.402344 158.898438 22.785156 158.65625 C 25.785156 156.769531 28.882812 154.988281 31.945312 153.257812 C 38.996094 149.269531 46.167969 145.527344 53.425781 142.109375 L 51.308594 136.628906 C 51.183594 136.308594 51.171875 135.941406 51.277344 135.609375 C 51.382812 135.277344 51.59375 135.011719 51.867188 134.871094 C 52.507812 134.535156 53.171875 134.226562 53.824219 133.921875 C 55.597656 133.09375 57.386719 132.316406 59.183594 131.570312 C 65.703125 128.859375 72.371094 126.542969 79.0625 124.535156 C 101.542969 117.785156 124.984375 114.367188 148.152344 114.367188 C 171.300781 114.367188 194.726562 117.789062 217.1875 124.535156 C 223.878906 126.542969 230.539062 128.859375 237.058594 131.570312 C 238.855469 132.316406 240.644531 133.09375 242.417969 133.921875 C 243.070312 134.226562 243.734375 134.535156 244.375 134.871094 C 244.644531 135.011719 244.855469 135.277344 244.960938 135.609375 C 245.066406 135.9375 245.058594 136.308594 244.933594 136.628906 L 242.816406 142.109375 C 250.074219 145.527344 257.246094 149.269531 264.296875 153.257812 C 267.355469 154.988281 270.460938 156.765625 273.457031 158.65625 C 273.839844 158.898438 274.070312 159.394531 274.039062 159.914062 C 274.011719 160.433594 273.726562 160.882812 273.320312 161.058594 C 271.78125 161.726562 270.207031 162.941406 268.867188 164.058594 C 267.214844 165.433594 265.628906 166.929688 264.046875 168.417969 C 262.675781 169.707031 261.214844 171.140625 259.730469 172.28125 C 259.957031 173.5625 260.074219 174.953125 260.179688 176.234375 C 260.339844 178.230469 260.453125 180.238281 260.570312 182.238281 C 260.683594 184.164062 260.792969 186.09375 260.949219 188.019531 C 261.054688 189.390625 261.175781 190.933594 261.453125 192.273438 C 261.558594 192.792969 261.390625 193.339844 261.027344 193.65625 C 260.664062 193.96875 260.175781 193.984375 259.796875 193.699219 C 258.839844 192.96875 257.832031 192.277344 256.847656 191.597656 C 254.25 189.8125 251.601562 188.113281 248.929688 186.488281 C 240.429688 181.316406 231.535156 176.804688 222.457031 173.304688 C 222.441406 173.296875 222.421875 173.289062 222.40625 173.28125 C 222.390625 173.273438 222.375 173.265625 222.359375 173.257812 C 222.316406 173.234375 222.277344 173.210938 222.238281 173.179688 C 222.171875 173.132812 222.109375 173.074219 222.054688 173.015625 C 222.03125 172.988281 222.003906 172.957031 221.972656 172.917969 C 221.90625 172.824219 221.851562 172.730469 221.8125 172.625 C 221.796875 172.59375 221.78125 172.558594 221.769531 172.523438 C 221.730469 172.394531 221.703125 172.257812 221.699219 172.109375 C 221.695312 172.066406 221.699219 172.027344 221.703125 171.988281 C 221.703125 171.96875 221.703125 171.945312 221.707031 171.929688 C 221.710938 171.847656 221.726562 171.757812 221.75 171.667969 C 221.761719 171.613281 221.773438 171.5625 221.792969 171.515625 L 224.039062 165.328125 C 214.652344 161.570312 204.914062 158.640625 195.210938 156.394531 C 179.71875 152.808594 163.898438 150.941406 148.121094 150.941406 C 132.34375 150.941406 116.523438 152.808594 101.03125 156.394531 C 91.328125 158.640625 81.589844 161.570312 72.203125 165.328125 L 74.453125 171.527344 C 74.472656 171.574219 74.484375 171.621094 74.492188 171.671875 C 74.515625 171.757812 74.527344 171.84375 74.535156 171.921875 C 74.535156 171.941406 74.539062 171.964844 74.539062 171.988281 C 74.542969 172.039062 74.546875 172.082031 74.542969 172.125 C 74.539062 172.253906 74.515625 172.390625 74.46875 172.523438 C 74.457031 172.566406 74.441406 172.601562 74.425781 172.636719 C 74.386719 172.734375 74.335938 172.824219 74.273438 172.910156 C 74.246094 172.949219 74.21875 172.984375 74.183594 173.019531 C 74.128906 173.078125 74.070312 173.128906 74.007812 173.175781 C 73.96875 173.207031 73.925781 173.238281 73.886719 173.257812 C 73.867188 173.265625 73.847656 173.277344 73.828125 173.285156 C 73.816406 173.289062 73.800781 173.296875 73.785156 173.304688 C 64.703125 176.804688 55.804688 181.320312 47.300781 186.496094 C 44.628906 188.121094 41.984375 189.820312 39.382812 191.605469 C 38.402344 192.28125 37.398438 192.972656 36.441406 193.699219 C 36.0625 193.984375 35.578125 193.96875 35.214844 193.65625 C 34.851562 193.339844 34.683594 192.792969 34.789062 192.273438 C 35.066406 190.933594 35.1875 189.390625 35.296875 188.019531 C 35.449219 186.097656 35.558594 184.167969 35.671875 182.238281 C 35.789062 180.238281 35.902344 178.230469 36.0625 176.234375 C 36.167969 174.953125 36.285156 173.5625 36.511719 172.28125 Z M 224.910156 169.519531 L 228.972656 167.410156 C 228.027344 166.984375 227.074219 166.578125 226.125 166.179688 Z M 70.117188 166.183594 C 69.164062 166.578125 68.214844 166.984375 67.269531 167.410156 L 71.332031 169.519531 Z M 25.800781 159.765625 C 26.9375 160.507812 28.035156 161.390625 29.070312 162.269531 C 30.601562 163.570312 32.078125 164.960938 33.550781 166.347656 C 34.425781 167.167969 35.296875 167.992188 36.1875 168.789062 C 36.863281 169.390625 37.582031 170.015625 38.3125 170.515625 C 38.757812 170.820312 38.96875 171.453125 38.820312 172.039062 C 38.503906 173.296875 38.375 174.972656 38.265625 176.285156 C 38.09375 178.324219 37.980469 180.378906 37.859375 182.425781 C 37.714844 184.890625 37.597656 187.492188 37.332031 189.988281 C 41.015625 187.398438 44.839844 184.992188 48.660156 182.742188 C 55.6875 178.605469 62.957031 174.925781 70.371094 171.886719 L 63.949219 168.550781 C 63.902344 168.527344 63.859375 168.496094 63.820312 168.460938 C 63.703125 168.378906 63.605469 168.269531 63.519531 168.140625 C 63.507812 168.113281 63.492188 168.089844 63.476562 168.066406 C 63.441406 168.015625 63.414062 167.960938 63.390625 167.898438 L 54.347656 144.5 C 47.945312 147.511719 41.613281 150.777344 35.371094 154.242188 C 32.164062 156.023438 28.960938 157.855469 25.800781 159.765625 Z M 242.460938 136.769531 C 239.65625 135.414062 236.757812 134.199219 233.894531 133.058594 C 227.296875 130.433594 220.570312 128.1875 213.808594 126.253906 C 192.371094 120.113281 170.128906 117 148.089844 117 C 126.070312 117 103.847656 120.117188 82.421875 126.253906 C 75.664062 128.1875 68.941406 130.433594 62.347656 133.058594 C 59.484375 134.199219 56.585938 135.414062 53.78125 136.769531 L 64.941406 165.65625 C 66.675781 164.839844 68.441406 164.085938 70.199219 163.363281 C 70.226562 163.347656 70.25 163.332031 70.277344 163.316406 C 70.351562 163.28125 70.417969 163.261719 70.492188 163.246094 C 80.15625 159.300781 90.21875 156.238281 100.234375 153.902344 C 115.980469 150.226562 132.074219 148.3125 148.121094 148.3125 C 164.167969 148.3125 180.261719 150.226562 196.011719 153.902344 C 206.027344 156.238281 216.085938 159.300781 225.753906 163.246094 C 225.824219 163.261719 225.890625 163.28125 225.964844 163.320312 C 225.992188 163.332031 226.015625 163.347656 226.039062 163.363281 C 227.800781 164.085938 229.566406 164.839844 231.300781 165.65625 Z M 270.441406 159.765625 C 267.28125 157.855469 264.082031 156.023438 260.871094 154.242188 C 254.628906 150.78125 248.296875 147.511719 241.894531 144.5 L 232.851562 167.898438 C 232.828125 167.960938 232.796875 168.015625 232.765625 168.066406 C 232.75 168.09375 232.734375 168.121094 232.714844 168.144531 C 232.636719 168.265625 232.542969 168.371094 232.433594 168.453125 C 232.390625 168.492188 232.34375 168.523438 232.292969 168.550781 L 225.871094 171.886719 C 233.285156 174.925781 240.554688 178.605469 247.582031 182.742188 C 251.402344 184.992188 255.226562 187.398438 258.910156 189.988281 C 258.644531 187.492188 258.527344 184.890625 258.382812 182.421875 C 258.261719 180.375 258.148438 178.324219 257.976562 176.28125 C 257.867188 174.972656 257.738281 173.296875 257.421875 172.039062 C 257.273438 171.453125 257.484375 170.820312 257.929688 170.515625 C 258.660156 170.015625 259.378906 169.390625 260.054688 168.789062 C 260.945312 167.992188 261.816406 167.167969 262.691406 166.347656 C 264.164062 164.960938 265.640625 163.570312 267.171875 162.269531 C 268.207031 161.386719 269.304688 160.507812 270.441406 159.765625 "/>
<path fill-rule="nonzero" fill="rgb(0%, 0%, 0%)" fill-opacity="1" d="M 89.808594 146.753906 L 94.035156 144.945312 C 94.289062 146.347656 94.800781 147.273438 95.574219 147.71875 C 96.347656 148.167969 97.394531 148.175781 98.707031 147.75 C 100.097656 147.300781 101.144531 146.652344 101.851562 145.804688 C 102.554688 144.957031 102.910156 144.121094 102.910156 143.289062 C 102.910156 142.753906 102.757812 142.351562 102.464844 142.066406 C 102.167969 141.789062 101.648438 141.632812 100.910156 141.597656 C 100.40625 141.574219 99.257812 141.621094 97.457031 141.726562 C 95.144531 141.867188 93.519531 141.644531 92.585938 141.0625 C 91.273438 140.242188 90.617188 138.933594 90.617188 137.144531 C 90.617188 135.996094 90.929688 134.8125 91.542969 133.613281 C 92.164062 132.410156 93.050781 131.359375 94.214844 130.457031 C 95.378906 129.554688 96.777344 128.839844 98.425781 128.308594 C 101.109375 127.441406 103.132812 127.410156 104.488281 128.230469 C 105.847656 129.042969 106.554688 130.484375 106.625 132.558594 L 102.28125 134.121094 C 102.09375 133.015625 101.699219 132.308594 101.09375 131.992188 C 100.492188 131.679688 99.582031 131.714844 98.371094 132.105469 C 97.125 132.511719 96.144531 133.101562 95.441406 133.875 C 94.984375 134.375 94.753906 134.914062 94.753906 135.503906 C 94.753906 136.039062 94.96875 136.425781 95.398438 136.664062 C 95.945312 136.976562 97.269531 137.054688 99.371094 136.898438 C 101.476562 136.738281 103.027344 136.78125 104.03125 137.015625 C 105.042969 137.25 105.832031 137.753906 106.402344 138.542969 C 106.972656 139.332031 107.257812 140.433594 107.257812 141.859375 C 107.257812 143.148438 106.917969 144.472656 106.230469 145.824219 C 105.546875 147.171875 104.582031 148.324219 103.332031 149.273438 C 102.085938 150.230469 100.527344 151.007812 98.664062 151.609375 C 95.949219 152.488281 93.867188 152.503906 92.410156 151.65625 C 90.957031 150.8125 90.09375 149.175781 89.808594 146.753906 Z M 111.011719 147.921875 L 111.011719 143.605469 L 115.21875 142.652344 L 115.21875 146.964844 Z M 122.632812 145.328125 L 117.359375 123.328125 L 122.027344 122.835938 L 125.367188 137.980469 L 129.460938 122.050781 L 134.859375 121.484375 L 138.777344 136.828125 L 142.191406 120.710938 L 146.75 120.230469 L 141.34375 143.359375 L 136.492188 143.867188 L 132.070312 127.46875 L 127.617188 144.804688 Z M 147.5 143.382812 L 147.5 139.066406 L 151.816406 139.089844 L 151.816406 143.40625 Z M 176.511719 145.433594 L 171.621094 144.917969 L 169.683594 139.578125 L 160.6875 138.628906 L 158.820312 143.566406 L 154.015625 143.058594 L 162.726562 121.421875 L 167.527344 121.925781 Z M 168.210938 135.609375 L 165.09375 126.929688 L 162.0625 134.960938 Z M 178.644531 146.035156 L 178.644531 141.71875 L 182.871094 142.597656 L 182.871094 146.914062 Z M 192.296875 149.492188 L 192.296875 130.746094 L 185.875 128.914062 L 185.875 125.101562 L 203.082031 130.011719 L 203.082031 133.824219 L 196.691406 132 L 196.691406 150.746094 Z M 202.425781 152.664062 L 202.425781 148.347656 L 206.46875 149.855469 L 206.46875 154.171875 Z M 202.425781 152.664062 "/>
</svg>
