<?xml version="1.0" encoding="UTF-8"?>
<svg xmlns="http://www.w3.org/2000/svg" xmlns:xlink="http://www.w3.org/1999/xlink" width="537.230469" height="602.535156" viewBox="0 3.464844 537.230469 602.535156">
<path fill="none" stroke-width="2" stroke-linecap="butt" stroke-linejoin="miter" stroke="rgb(43.899536%, 53.29895%, 14.498901%)" stroke-opacity="1" stroke-miterlimit="4" d="M 0.00171875 0.001875 C 7.247813 1.552656 13.298594 5.275312 18.161875 11.169844 C 27.99 23.068281 34.478281 41.33 34.880625 56.619062 C 35.228281 69.771406 33.857188 82.915937 30.77125 96.04875 C 30.736094 96.212812 30.579844 96.318281 30.415781 96.287031 C 30.318125 96.2675 30.24 96.201094 30.200938 96.11125 C 25.040781 84.900312 16.279063 71.751875 4.99 66.001875 C 4.634531 65.814375 4.200938 65.947187 4.009531 66.29875 C -2.951406 78.978437 -12.177969 89.599531 -23.670156 98.158125 C -34.22875 106.025312 -45.388906 112.740156 -57.138906 118.29875 C -57.150625 118.29875 -57.158437 118.302656 -57.154531 118.310469 C -57.154531 118.318281 -57.142812 118.326094 -57.131094 118.33 L -40.400625 118.33 C -40.189687 118.33 -40.021719 118.505781 -40.021719 118.720625 L -40.021719 125.931562 C -40.021719 126.162031 -40.205312 126.349531 -40.431875 126.349531 L -52.420156 126.349531 C -52.752187 126.349531 -53.021719 126.619062 -53.021719 126.951094 L -53.021719 136.040937 C -53.021719 136.337812 -52.779531 136.58 -52.47875 136.58 L -40.490469 136.58 C -40.240469 136.58 -40.04125 136.779219 -40.04125 137.029219 L -40.04125 143.79875 C -40.04125 144.087812 -40.271719 144.318281 -40.560781 144.318281 L -52.51 144.318281 C -52.787344 144.318281 -53.01 144.544844 -53.01 144.818281 L -53.01 150.880781 C -53.01 151.122969 -52.814687 151.318281 -52.568594 151.318281 L -40.431875 151.318281 C -40.213125 151.318281 -40.04125 151.497969 -40.04125 151.720625 L -40.04125 158.888594 C -40.04125 159.138594 -40.240469 159.341719 -40.490469 159.341719 L -59.599844 159.341719 C -59.951406 159.341719 -60.240469 159.052656 -60.240469 158.701094 L -60.240469 118.728437 C -60.240469 118.693281 -60.220937 118.654219 -60.189687 118.630781 C -59.818594 118.369062 -59.052969 116.978437 -57.900625 114.451094 C -54.205312 106.369062 -51.638906 98.58 -50.189687 91.08 C -48.658437 83.150312 -48.740469 76.400312 -50.330312 68.849531 C -52.408437 58.919844 -56.408437 46.509687 -55.279531 34.509687 C -54.611562 27.458906 -53.513906 21.841719 -51.97875 17.669844 C -49.740469 11.556562 -45.986562 6.240156 -40.720937 1.720625 " transform="matrix(1, 0, 0, -1, 234.76, 474.08)"/>
<path fill="none" stroke-width="2" stroke-linecap="butt" stroke-linejoin="miter" stroke="rgb(43.899536%, 53.29895%, 14.498901%)" stroke-opacity="1" stroke-miterlimit="4" d="M 0.00171875 -0.000625 C -7.931875 9.819687 -11.29125 21.069687 -12.181875 33.42125 C -13.060781 45.600937 -14.279531 56.581406 -18.599844 67.511094 C -26.267812 86.897812 -38.013906 103.386094 -53.838125 116.979844 C -53.838125 116.987656 -53.845937 116.991562 -53.849844 116.991562 C -53.857656 116.991562 -53.861562 116.987656 -53.861562 116.979844 L -54.181875 116.768906 C -54.267812 116.718125 -54.29125 116.60875 -54.236562 116.518906 C -54.22875 116.503281 -54.220937 116.491562 -54.209219 116.479844 C -51.771719 114.151719 -49.427969 111.475937 -47.181875 108.448594 C -37.908437 95.948594 -31.240469 82.29625 -27.181875 67.491562 C -25.068594 59.788437 -24.111562 52.503281 -24.310781 45.628281 C -24.588125 36.042344 -24.623281 28.98375 -24.408437 24.448594 C -24.01 16.128281 -21.91625 7.897812 -18.131094 -0.250625 " transform="matrix(1, 0, 0, -1, 231.76, 474.14)"/>
<path fill="none" stroke-width="2" stroke-linecap="butt" stroke-linejoin="miter" stroke="rgb(50.59967%, 59.599304%, 14.498901%)" stroke-opacity="1" stroke-miterlimit="4" d="M -0.001875 -0.00140625 L -5.978437 -0.00140625 C -6.458906 -0.0053125 -6.896406 0.287656 -7.068281 0.740781 C -14.244062 19.111875 -15.751875 38.03375 -11.591719 57.498594 C -8.201094 73.381406 -6.013594 83.850156 -5.021406 88.90875 C -2.212812 103.197812 -1.615156 117.717344 -3.228437 132.47125 C -6.978437 166.928281 -17.61125 199.518125 -36.419844 227.959531 C -36.466719 228.029844 -36.556562 228.049375 -36.630781 228.010312 C -36.705 227.967344 -36.732344 227.881406 -36.701094 227.811094 C -22.439375 196.650937 -15.962812 163.916562 -17.271406 129.611875 C -17.537031 122.568906 -18.216719 116.147031 -19.310469 110.338437 C -23.279219 89.260312 -33.208906 69.779844 -37.189375 48.900937 C -39.810469 35.139219 -39.98625 21.393125 -37.720625 7.65875 " transform="matrix(1, 0, 0, -1, 437.33, 236.19)"/>
<path fill="none" stroke-width="2" stroke-linecap="butt" stroke-linejoin="miter" stroke="rgb(43.899536%, 53.29895%, 14.498901%)" stroke-opacity="1" stroke-miterlimit="4" d="M -0.00125 0.00078125 C -0.00125 0.250781 -0.200469 0.45 -0.450469 0.45 L -10.75125 0.45 C -10.997344 0.45 -11.200469 0.649219 -11.200469 0.899219 L -11.200469 7.270312 C -11.200469 7.520312 -10.997344 7.719531 -10.75125 7.719531 L -0.458281 7.719531 C -0.212187 7.719531 -0.0090625 7.922656 -0.0090625 8.16875 L -0.0090625 14.989062 C -0.0090625 15.239062 -0.212187 15.438281 -0.458281 15.438281 L -18.009062 15.438281 C -18.259062 15.438281 -18.458281 15.239062 -18.458281 14.989062 L -18.458281 -25.089063 C -18.458281 -25.339063 -18.259062 -25.538281 -18.009062 -25.538281 L -11.669219 -25.538281 C -11.419219 -25.538281 -11.22 -25.339063 -11.22 -25.089063 L -11.22 -7.741406 C -11.22 -7.491406 -11.020781 -7.288281 -10.770781 -7.288281 L -0.450469 -7.288281 C -0.200469 -7.288281 -0.00125 -7.089063 -0.00125 -6.839063 L -0.00125 0.00078125 " transform="matrix(1, 0, 0, -1, 100.72, 330.2)"/>
<path fill="none" stroke-width="2" stroke-linecap="butt" stroke-linejoin="miter" stroke="rgb(43.899536%, 53.29895%, 14.498901%)" stroke-opacity="1" stroke-miterlimit="4" d="M 0.00171875 -0.00125 C -0.01 0.147188 0.099375 0.276094 0.247812 0.287813 C 0.368906 0.299531 0.474375 0.229219 0.52125 0.119844 L 8.618906 -16.739531 C 8.689219 -16.87625 8.829844 -16.962187 8.978281 -16.958281 L 16.45875 -16.958281 C 16.544687 -16.954375 16.607187 -16.891875 16.607187 -16.81375 C 16.607187 -16.790312 16.599375 -16.770781 16.591562 -16.75125 L 8.259531 0.588594 C 8.115 0.893281 8.243906 1.256563 8.544687 1.405 C 8.5525 1.405 8.556406 1.408906 8.560312 1.408906 C 12.9275 3.43625 15.001719 7.119844 14.779062 12.459688 C 14.501719 19.268281 11.361094 23.006563 5.361094 23.678438 C 2.228281 24.041719 -1.689688 24.151094 -6.388906 24.018281 C -6.736563 24.010469 -7.01 23.729219 -7.01 23.389375 L -7.01 -16.571562 C -7.01 -16.790312 -6.830313 -16.97 -6.611563 -16.97 L -0.381094 -16.97 C -0.170156 -16.97 0.00171875 -16.798125 0.00171875 -16.591094 L 0.00171875 -0.00125 " transform="matrix(1, 0, 0, -1, 122.26, 338.78)"/>
<path fill="none" stroke-width="2" stroke-linecap="butt" stroke-linejoin="miter" stroke="rgb(43.899536%, 53.29895%, 14.498901%)" stroke-opacity="1" stroke-miterlimit="4" d="M -0.00171875 -0.000625 C -0.00171875 0.222031 -0.1775 0.401719 -0.400156 0.401719 L -6.599375 0.401719 C -6.822031 0.401719 -7.001719 0.222031 -7.001719 -0.000625 L -7.001719 -40.219375 C -7.001719 -40.442031 -6.822031 -40.621719 -6.599375 -40.621719 L -0.400156 -40.621719 C -0.1775 -40.621719 -0.00171875 -40.442031 -0.00171875 -40.219375 L -0.00171875 -0.000625 " transform="matrix(1, 0, 0, -1, 158.74, 315.14)"/>
<path fill="none" stroke-width="2" stroke-linecap="butt" stroke-linejoin="miter" stroke="rgb(43.899536%, 53.29895%, 14.498901%)" stroke-opacity="1" stroke-miterlimit="4" d="M -0.0003125 0.00015625 C 7.112969 -12.148281 10.702812 -18.269375 10.769219 -18.370937 C 10.866875 -18.56625 11.07 -18.687344 11.28875 -18.69125 L 17.191094 -18.718594 C 17.527031 -18.726406 17.804375 -18.456875 17.808281 -18.120937 C 17.808281 -18.117031 17.808281 -18.113125 17.808281 -18.109219 L 17.808281 21.961094 C 17.808281 22.160313 17.652031 22.320469 17.460625 22.320469 L 10.921562 22.320469 C 10.722344 22.320469 10.558281 22.160313 10.558281 21.961094 L 10.558281 -3.19125 C 10.554375 -3.296719 10.464531 -3.374844 10.359062 -3.367031 C 10.296562 -3.363125 10.241875 -3.331875 10.210625 -3.281094 C 9.648125 -2.359219 8.28875 -0.0584375 6.128594 3.62125 C -0.988594 15.765781 -4.578438 21.890781 -4.640938 21.988438 C -4.738594 22.18375 -4.937813 22.30875 -5.160469 22.30875 L -11.058906 22.34 C -11.39875 22.347813 -11.672188 22.078281 -11.68 21.738438 C -11.68 21.738438 -11.68 21.734531 -11.68 21.730625 L -11.68 -18.339687 C -11.68 -18.538906 -11.52375 -18.699062 -11.328438 -18.699062 L -4.789375 -18.699062 C -4.590156 -18.699062 -4.43 -18.538906 -4.43 -18.339687 L -4.43 6.80875 C -4.414375 6.914219 -4.320625 6.988438 -4.215156 6.972813 C -4.168281 6.968906 -4.121406 6.941563 -4.090156 6.898594 C -3.52375 5.980625 -2.160469 3.679844 -0.0003125 0.00015625 " transform="matrix(1, 0, 0, -1, 220.68, 337.09)"/>
<path fill="none" stroke-width="2" stroke-linecap="butt" stroke-linejoin="miter" stroke="rgb(43.899536%, 53.29895%, 14.498901%)" stroke-opacity="1" stroke-miterlimit="4" d="M -0.0009375 0 L -0.0790625 -40.21875 C -0.086875 -40.433594 0.085 -40.613281 0.299844 -40.621094 C 0.30375 -40.621094 0.307656 -40.621094 0.311563 -40.621094 L 12.268594 -40.640625 C 21.565469 -40.660156 29.11625 -32.589844 29.139688 -22.609375 C 29.139688 -22.605469 29.139688 -22.601562 29.139688 -22.601562 L 29.139688 -17.738281 C 29.159219 -7.765625 21.643594 0.339844 12.350625 0.359375 L 0.389688 0.378906 C 0.17875 0.378906 0.006875 0.210938 -0.0009375 0 " transform="matrix(1, 0, 0, -1, 254.54, 315.25)"/>
<path fill="none" stroke-width="2" stroke-linecap="butt" stroke-linejoin="miter" stroke="rgb(43.899536%, 53.29895%, 14.498901%)" stroke-opacity="1" stroke-miterlimit="4" d="M 0.0003125 0 C 0.238594 0 0.43 0.191406 0.43 0.429688 L 0.43 7.320312 C 0.43 7.558594 0.238594 7.75 0.0003125 7.75 L -9.128594 7.75 C -9.366875 7.75 -9.558281 7.941406 -9.558281 8.179688 L -9.558281 40.589844 C -9.558281 40.828125 -9.753594 41.019531 -9.991875 41.019531 L -16.390312 41.019531 C -16.628594 41.019531 -16.82 40.828125 -16.82 40.589844 L -16.82 0.429688 C -16.82 0.191406 -16.628594 0 -16.390312 0 L 0.0003125 0 " transform="matrix(1, 0, 0, -1, 315.07, 355.75)"/>
<path fill="none" stroke-width="2" stroke-linecap="butt" stroke-linejoin="miter" stroke="rgb(43.899536%, 53.29895%, 14.498901%)" stroke-opacity="1" stroke-miterlimit="4" d="M 0.00109375 0 C 1.78625 0 2.805781 0.0195312 3.059687 0.0585938 C 3.391719 0.117188 3.633906 0.402344 3.641719 0.738281 L 3.649531 16.710938 C 3.649531 17.289062 3.774531 17.863281 4.020625 18.390625 L 14.489375 40.800781 C 14.524531 40.871094 14.493281 40.953125 14.422969 40.988281 C 14.403437 40.996094 14.383906 41 14.360469 41 L 7.079219 41 C 6.926875 41 6.78625 40.910156 6.719844 40.769531 C 4.731562 36.671875 2.751094 32.4375 0.770625 28.070312 C 0.469844 27.402344 0.227656 27.070312 0.0401562 27.070312 C -0.139531 27.070312 -0.381719 27.402344 -0.678594 28.070312 C -2.647344 32.441406 -4.616094 36.683594 -6.58875 40.789062 C -6.655156 40.929688 -6.795781 41.019531 -6.948125 41.019531 L -14.229375 41.039062 C -14.3075 41.042969 -14.373906 40.980469 -14.373906 40.902344 C -14.373906 40.882812 -14.37 40.859375 -14.358281 40.839844 L -3.959844 18.398438 C -3.717656 17.871094 -3.58875 17.300781 -3.58875 16.71875 L -3.631719 0.75 C -3.623906 0.414062 -3.381719 0.128906 -3.049688 0.0703125 C -2.795781 0.03125 -1.780156 0.0078125 0.00109375 0 " transform="matrix(1, 0, 0, -1, 340.37, 355.75)"/>
<path fill="none" stroke-width="2" stroke-linecap="butt" stroke-linejoin="miter" stroke="rgb(43.899536%, 53.29895%, 14.498901%)" stroke-opacity="1" stroke-miterlimit="4" d="M -0.00140625 0.0003125 L -0.0990625 -7.441094 C -0.0990625 -7.628594 0.049375 -7.784844 0.240781 -7.78875 L 3.268125 -7.831719 C 5.69 -7.866875 7.678281 -6.218437 7.709531 -4.148125 C 7.709531 -4.144219 7.709531 -4.144219 7.709531 -4.140312 L 7.709531 -3.499687 C 7.736875 -1.433281 5.807187 0.27375 3.389219 0.308906 L 0.361875 0.351875 C 0.166562 0.355781 0.00640625 0.203438 -0.00140625 0.008125 C -0.00140625 0.008125 -0.00140625 0.00421875 -0.00140625 0.0003125 " transform="matrix(1, 0, 0, -1, 122.31, 322.93)"/>
<path fill="none" stroke-width="2" stroke-linecap="butt" stroke-linejoin="miter" stroke="rgb(43.899536%, 53.29895%, 14.498901%)" stroke-opacity="1" stroke-miterlimit="4" d="M 0 0.001875 L 0 -24.619219 C 0 -24.8575 0.191406 -25.048906 0.429688 -25.048906 L 4.199219 -25.048906 C 10.011719 -25.048906 14.71875 -20.181719 14.71875 -14.181719 L 14.71875 -10.439531 C 14.71875 -4.435625 10.011719 0.431563 4.199219 0.431563 L 0.429688 0.431563 C 0.191406 0.431563 0 0.23625 0 0.001875 " transform="matrix(1, 0, 0, -1, 261.75, 323.08)"/>
<path fill-rule="nonzero" fill="rgb(59.599304%, 67.498779%, 13.699341%)" fill-opacity="1" d="M 437.328125 236.191406 L 431.351562 236.191406 C 430.871094 236.195312 430.433594 235.902344 430.261719 235.449219 C 423.085938 217.078125 421.578125 198.15625 425.738281 178.691406 C 429.128906 162.808594 431.316406 152.339844 432.308594 147.28125 C 435.117188 132.992188 435.714844 118.472656 434.101562 103.71875 C 430.351562 69.261719 419.71875 36.671875 400.910156 8.230469 C 400.863281 8.160156 400.773438 8.140625 400.699219 8.179688 C 400.625 8.222656 400.597656 8.308594 400.628906 8.378906 C 414.890625 39.539062 421.367188 72.273438 420.058594 106.578125 C 419.792969 113.621094 419.113281 120.042969 418.019531 125.851562 C 414.050781 146.929688 404.121094 166.410156 400.140625 187.289062 C 397.519531 201.050781 397.34375 214.796875 399.609375 228.53125 L 400.839844 234.871094 C 400.875 235.039062 400.765625 235.203125 400.59375 235.234375 C 400.53125 235.246094 400.46875 235.242188 400.410156 235.21875 C 373.089844 224.199219 356.289062 202.441406 357.519531 172.019531 C 358.113281 157.300781 360.992188 143.714844 366.160156 131.261719 C 368.246094 126.234375 371.730469 119.71875 376.609375 111.71875 C 381.21875 104.152344 384.957031 97.773438 387.828125 92.578125 C 394.511719 80.519531 398.46875 67.746094 399.699219 54.261719 C 401.265625 37.160156 400.601562 20.648438 397.699219 4.730469 C 397.679688 4.621094 397.601562 4.417969 397.46875 4.109375 C 397.371094 3.886719 397.476562 3.628906 397.703125 3.53125 C 397.863281 3.464844 398.050781 3.496094 398.179688 3.609375 C 415.261719 19.097656 430.703125 36.148438 444.511719 54.769531 C 461.210938 77.289062 471.898438 101.488281 476.578125 127.371094 C 476.640625 127.71875 476.972656 127.960938 477.328125 127.910156 C 482.28125 127.25 487.308594 125.820312 492.410156 123.621094 C 509.171875 116.378906 523.851562 104.21875 536.648438 90.628906 C 536.773438 90.496094 536.984375 90.488281 537.117188 90.613281 C 537.191406 90.683594 537.230469 90.785156 537.21875 90.890625 C 535.648438 109.921875 532.261719 128.601562 527.070312 146.921875 C 523.882812 158.167969 519.777344 168.355469 514.75 177.488281 C 504.519531 196.070312 489.558594 213.910156 471.339844 225.820312 C 461.019531 232.570312 449.691406 235.21875 437.328125 236.191406 "/>
<path fill-rule="nonzero" fill="rgb(41.598511%, 51.799011%, 14.898682%)" fill-opacity="1" d="M 437.328125 236.191406 C 443.078125 254.703125 446.371094 272.488281 447.210938 289.550781 C 449.929688 344.789062 434.949219 394.28125 402.269531 438.03125 C 390.683594 453.542969 376.765625 467.605469 360.519531 480.21875 C 303.539062 524.449219 228.519531 538.171875 159.628906 517.628906 C 104.679688 501.261719 58.140625 464.03125 29.320312 414.171875 C 11.773438 383.824219 2 350.457031 0 314.070312 L 0 292.128906 C 3.148438 239.851562 21.640625 194.304688 55.480469 155.488281 C 93.671875 111.679688 148.789062 84.199219 206.960938 79.890625 C 230.707031 78.128906 254.511719 80.140625 278.378906 85.921875 C 284.945312 87.507812 289.261719 89.265625 291.320312 91.199219 C 301.839844 101.109375 295.980469 118.019531 281.851562 119.75 C 280.003906 119.976562 277.128906 119.574219 273.21875 118.539062 C 216.089844 103.480469 157.070312 114.929688 110.140625 149.570312 C 86.6875 166.878906 67.9375 188.871094 53.890625 215.558594 C 35.710938 250.101562 28.679688 291.78125 34.628906 330.859375 C 40.542969 369.667969 56.675781 403.460938 83.03125 432.238281 C 145.578125 500.53125 248.269531 514.199219 326.429688 464.148438 C 404.609375 414.078125 436.359375 314.890625 399.609375 228.53125 C 397.34375 214.796875 397.519531 201.050781 400.140625 187.289062 C 404.121094 166.410156 414.050781 146.929688 418.019531 125.851562 C 419.113281 120.042969 419.792969 113.621094 420.058594 106.578125 C 421.367188 72.273438 414.890625 39.539062 400.628906 8.378906 C 400.597656 8.308594 400.625 8.222656 400.699219 8.179688 C 400.773438 8.140625 400.863281 8.160156 400.910156 8.230469 C 419.71875 36.671875 430.351562 69.261719 434.101562 103.71875 C 435.714844 118.472656 435.117188 132.992188 432.308594 147.28125 C 431.316406 152.339844 429.128906 162.808594 425.738281 178.691406 C 421.578125 198.15625 423.085938 217.078125 430.261719 235.449219 C 430.433594 235.902344 430.871094 236.195312 431.351562 236.191406 Z M 437.328125 236.191406 "/>
<path fill-rule="nonzero" fill="rgb(74.499512%, 83.099365%, 55.299377%)" fill-opacity="1" d="M 242.371094 214.929688 L 231.429688 225.871094 C 231.222656 226.082031 230.875 226.082031 230.660156 225.871094 C 230.65625 225.867188 230.652344 225.863281 230.648438 225.859375 C 227.46875 222.527344 224.128906 219.863281 220.621094 217.871094 C 207.269531 210.289062 190.949219 211.960938 180.859375 223.921875 C 170.050781 236.730469 172.039062 257.429688 185.539062 267.480469 C 196.828125 275.890625 212.890625 275.339844 224.101562 266.589844 C 226.71875 264.542969 228.832031 262.71875 230.441406 261.109375 C 230.628906 260.921875 230.933594 260.921875 231.128906 261.109375 L 242.398438 272.390625 C 242.554688 272.539062 242.558594 272.785156 242.410156 272.941406 C 242.40625 272.945312 242.402344 272.945312 242.398438 272.949219 C 234.21875 280.789062 225.398438 287.109375 214.25 289.011719 C 200.570312 291.339844 185.558594 289.28125 174.261719 280.480469 C 163.507812 272.105469 157.75 260.730469 156.988281 246.351562 C 156.128906 230.308594 161.789062 215.96875 174.640625 206.46875 C 196.03125 190.679688 224.828125 194.691406 242.390625 214.089844 C 242.609375 214.332031 242.597656 214.699219 242.371094 214.929688 "/>
<path fill-rule="nonzero" fill="rgb(74.499512%, 83.099365%, 55.299377%)" fill-opacity="1" d="M 317.128906 213.421875 C 301.097656 214.007812 288.59375 227.90625 289.199219 244.464844 C 289.808594 261.023438 303.296875 273.96875 319.328125 273.378906 C 335.363281 272.792969 347.867188 258.894531 347.261719 242.335938 C 346.652344 225.777344 333.164062 212.832031 317.128906 213.421875 Z M 315.257812 196.785156 C 340.71875 195.140625 362.710938 214.667969 364.375 240.398438 C 366.039062 266.132812 346.746094 288.324219 321.28125 289.972656 C 295.820312 291.617188 273.832031 272.09375 272.167969 246.359375 C 270.503906 220.628906 289.792969 198.433594 315.257812 196.785156 Z M 315.257812 196.785156 "/>
<path fill-rule="nonzero" fill="rgb(74.499512%, 83.099365%, 55.299377%)" fill-opacity="1" d="M 126.5 199.351562 L 126.5 215.398438 C 126.5 215.59375 126.34375 215.75 126.148438 215.75 L 95.351562 215.75 C 95.15625 215.75 95 215.90625 95 216.101562 L 95 231.148438 C 95 231.34375 95.15625 231.5 95.351562 231.5 L 126.148438 231.5 C 126.34375 231.5 126.5 231.65625 126.5 231.851562 L 126.5 247.410156 C 126.5 247.601562 126.34375 247.761719 126.148438 247.761719 L 95.351562 247.761719 C 95.15625 247.761719 95 247.917969 95 248.109375 L 95 270.410156 C 95 270.601562 95.15625 270.761719 95.351562 270.761719 L 126.148438 270.761719 C 126.34375 270.761719 126.5 270.917969 126.5 271.109375 L 126.5 287.398438 C 126.5 287.59375 126.34375 287.75 126.148438 287.75 L 78.351562 287.75 C 78.15625 287.75 78 287.59375 78 287.398438 L 78 199.351562 C 78 199.15625 78.15625 199 78.351562 199 L 126.148438 199 C 126.34375 199 126.5 199.15625 126.5 199.351562 "/>
<path fill-rule="nonzero" fill="rgb(61.999512%, 72.898865%, 18.798828%)" fill-opacity="1" d="M 340.371094 355.75 C 342.15625 355.75 343.175781 355.730469 343.429688 355.691406 C 343.761719 355.632812 344.003906 355.347656 344.011719 355.011719 L 344.019531 339.039062 C 344.019531 338.460938 344.144531 337.886719 344.390625 337.359375 L 354.859375 314.949219 C 354.894531 314.878906 354.863281 314.796875 354.792969 314.761719 C 354.773438 314.753906 354.753906 314.75 354.730469 314.75 L 347.449219 314.75 C 347.296875 314.75 347.15625 314.839844 347.089844 314.980469 C 345.101562 319.078125 343.121094 323.3125 341.140625 327.679688 C 340.839844 328.347656 340.597656 328.679688 340.410156 328.679688 C 340.230469 328.679688 339.988281 328.347656 339.691406 327.679688 C 337.722656 323.308594 335.753906 319.066406 333.78125 314.960938 C 333.714844 314.820312 333.574219 314.730469 333.421875 314.730469 L 326.140625 314.710938 C 326.0625 314.707031 325.996094 314.769531 325.996094 314.847656 C 325.996094 314.867188 326 314.890625 326.011719 314.910156 L 336.410156 337.351562 C 336.652344 337.878906 336.78125 338.449219 336.78125 339.03125 L 336.738281 355 C 336.746094 355.335938 336.988281 355.621094 337.320312 355.679688 C 337.574219 355.71875 338.589844 355.742188 340.371094 355.75 M 315.070312 355.75 C 315.308594 355.75 315.5 355.558594 315.5 355.320312 L 315.5 348.429688 C 315.5 348.191406 315.308594 348 315.070312 348 L 305.941406 348 C 305.703125 348 305.511719 347.808594 305.511719 347.570312 L 305.511719 315.160156 C 305.511719 314.921875 305.316406 314.730469 305.078125 314.730469 L 298.679688 314.730469 C 298.441406 314.730469 298.25 314.921875 298.25 315.160156 L 298.25 355.320312 C 298.25 355.558594 298.441406 355.75 298.679688 355.75 Z M 254.539062 315.25 L 254.460938 355.46875 C 254.453125 355.683594 254.625 355.863281 254.839844 355.871094 C 254.84375 355.871094 254.847656 355.871094 254.851562 355.871094 L 266.808594 355.890625 C 276.105469 355.910156 283.65625 347.839844 283.679688 337.859375 C 283.679688 337.855469 283.679688 337.851562 283.679688 337.851562 L 283.679688 332.988281 C 283.699219 323.015625 276.183594 314.910156 266.890625 314.890625 L 254.929688 314.871094 C 254.71875 314.871094 254.546875 315.039062 254.539062 315.25 M 220.679688 337.089844 C 227.792969 349.238281 231.382812 355.359375 231.449219 355.460938 C 231.546875 355.65625 231.75 355.777344 231.96875 355.78125 L 237.871094 355.808594 C 238.207031 355.816406 238.484375 355.546875 238.488281 355.210938 C 238.488281 355.207031 238.488281 355.203125 238.488281 355.199219 L 238.488281 315.128906 C 238.488281 314.929688 238.332031 314.769531 238.140625 314.769531 L 231.601562 314.769531 C 231.402344 314.769531 231.238281 314.929688 231.238281 315.128906 L 231.238281 340.28125 C 231.234375 340.386719 231.144531 340.464844 231.039062 340.457031 C 230.976562 340.453125 230.921875 340.421875 230.890625 340.371094 C 230.328125 339.449219 228.96875 337.148438 226.808594 333.46875 C 219.691406 321.324219 216.101562 315.199219 216.039062 315.101562 C 215.941406 314.90625 215.742188 314.78125 215.519531 314.78125 L 209.621094 314.75 C 209.28125 314.742188 209.007812 315.011719 209 315.351562 C 209 315.351562 209 315.355469 209 315.359375 L 209 355.429688 C 209 355.628906 209.15625 355.789062 209.351562 355.789062 L 215.890625 355.789062 C 216.089844 355.789062 216.25 355.628906 216.25 355.429688 L 216.25 330.28125 C 216.265625 330.175781 216.359375 330.101562 216.464844 330.117188 C 216.511719 330.121094 216.558594 330.148438 216.589844 330.191406 C 217.15625 331.109375 218.519531 333.410156 220.679688 337.089844 M 158.738281 315.140625 C 158.738281 314.917969 158.5625 314.738281 158.339844 314.738281 L 152.140625 314.738281 C 151.917969 314.738281 151.738281 314.917969 151.738281 315.140625 L 151.738281 355.359375 C 151.738281 355.582031 151.917969 355.761719 152.140625 355.761719 L 158.339844 355.761719 C 158.5625 355.761719 158.738281 355.582031 158.738281 355.359375 Z M 122.261719 338.78125 C 122.25 338.632812 122.359375 338.503906 122.507812 338.492188 C 122.628906 338.480469 122.734375 338.550781 122.78125 338.660156 L 130.878906 355.519531 C 130.949219 355.65625 131.089844 355.742188 131.238281 355.738281 L 138.71875 355.738281 C 138.804688 355.734375 138.867188 355.671875 138.867188 355.59375 C 138.867188 355.570312 138.859375 355.550781 138.851562 355.53125 L 130.519531 338.191406 C 130.375 337.886719 130.503906 337.523438 130.804688 337.375 C 130.8125 337.375 130.816406 337.371094 130.820312 337.371094 C 135.1875 335.34375 137.261719 331.660156 137.039062 326.320312 C 136.761719 319.511719 133.621094 315.773438 127.621094 315.101562 C 124.488281 314.738281 120.570312 314.628906 115.871094 314.761719 C 115.523438 314.769531 115.25 315.050781 115.25 315.390625 L 115.25 355.351562 C 115.25 355.570312 115.429688 355.75 115.648438 355.75 L 121.878906 355.75 C 122.089844 355.75 122.261719 355.578125 122.261719 355.371094 Z M 100.71875 330.199219 C 100.71875 329.949219 100.519531 329.75 100.269531 329.75 L 89.96875 329.75 C 89.722656 329.75 89.519531 329.550781 89.519531 329.300781 L 89.519531 322.929688 C 89.519531 322.679688 89.722656 322.480469 89.96875 322.480469 L 100.261719 322.480469 C 100.507812 322.480469 100.710938 322.277344 100.710938 322.03125 L 100.710938 315.210938 C 100.710938 314.960938 100.507812 314.761719 100.261719 314.761719 L 82.710938 314.761719 C 82.460938 314.761719 82.261719 314.960938 82.261719 315.210938 L 82.261719 355.289062 C 82.261719 355.539062 82.460938 355.738281 82.710938 355.738281 L 89.050781 355.738281 C 89.300781 355.738281 89.5 355.539062 89.5 355.289062 L 89.5 337.941406 C 89.5 337.691406 89.699219 337.488281 89.949219 337.488281 L 100.269531 337.488281 C 100.519531 337.488281 100.71875 337.289062 100.71875 337.039062 Z M 234.761719 474.078125 C 242.007812 472.527344 248.058594 468.804688 252.921875 462.910156 C 262.75 451.011719 269.238281 432.75 269.640625 417.460938 C 269.988281 404.308594 268.617188 391.164062 265.53125 378.03125 C 265.496094 377.867188 265.339844 377.761719 265.175781 377.792969 C 265.078125 377.8125 265 377.878906 264.960938 377.96875 C 259.800781 389.179688 251.039062 402.328125 239.75 408.078125 C 239.394531 408.265625 238.960938 408.132812 238.769531 407.78125 C 231.808594 395.101562 222.582031 384.480469 211.089844 375.921875 C 200.53125 368.054688 189.371094 361.339844 177.621094 355.78125 C 177.609375 355.78125 177.601562 355.777344 177.605469 355.769531 C 177.605469 355.761719 177.617188 355.753906 177.628906 355.75 L 194.359375 355.75 C 194.570312 355.75 194.738281 355.574219 194.738281 355.359375 L 194.738281 348.148438 C 194.738281 347.917969 194.554688 347.730469 194.328125 347.730469 L 182.339844 347.730469 C 182.007812 347.730469 181.738281 347.460938 181.738281 347.128906 L 181.738281 338.039062 C 181.738281 337.742188 181.980469 337.5 182.28125 337.5 L 194.269531 337.5 C 194.519531 337.5 194.71875 337.300781 194.71875 337.050781 L 194.71875 330.28125 C 194.71875 329.992188 194.488281 329.761719 194.199219 329.761719 L 182.25 329.761719 C 181.972656 329.761719 181.75 329.535156 181.75 329.261719 L 181.75 323.199219 C 181.75 322.957031 181.945312 322.761719 182.191406 322.761719 L 194.328125 322.761719 C 194.546875 322.761719 194.71875 322.582031 194.71875 322.359375 L 194.71875 315.191406 C 194.71875 314.941406 194.519531 314.738281 194.269531 314.738281 L 175.160156 314.738281 C 174.808594 314.738281 174.519531 315.027344 174.519531 315.378906 L 174.519531 355.351562 C 174.519531 355.386719 174.539062 355.425781 174.570312 355.449219 C 174.941406 355.710938 175.707031 357.101562 176.859375 359.628906 C 180.554688 367.710938 183.121094 375.5 184.570312 383 C 186.101562 390.929688 186.019531 397.679688 184.429688 405.230469 C 182.351562 415.160156 178.351562 427.570312 179.480469 439.570312 C 180.148438 446.621094 181.246094 452.238281 182.78125 456.410156 C 185.019531 462.523438 188.773438 467.839844 194.039062 472.359375 C 152.808594 465.691406 115.410156 444.121094 89.03125 411.96875 C 69.34375 387.976562 57.03125 360.566406 52.101562 329.738281 C 50.699219 321.019531 50.027344 312.285156 50.078125 303.539062 C 50.078125 303.242188 50.320312 303 50.621094 303 L 392.371094 303 C 392.679688 303 392.929688 303.25 392.929688 303.558594 C 392.929688 303.5625 392.929688 303.566406 392.929688 303.570312 C 392.644531 333.023438 385.632812 360.300781 371.898438 385.398438 C 345.808594 433.058594 298.800781 465.449219 244.761719 472.988281 C 241.246094 473.484375 237.914062 473.847656 234.761719 474.078125 "/>
<path fill-rule="nonzero" fill="rgb(25.898743%, 33.699036%, 10.198975%)" fill-opacity="1" d="M 100.71875 330.199219 L 100.71875 337.039062 C 100.71875 337.289062 100.519531 337.488281 100.269531 337.488281 L 89.949219 337.488281 C 89.699219 337.488281 89.5 337.691406 89.5 337.941406 L 89.5 355.289062 C 89.5 355.539062 89.300781 355.738281 89.050781 355.738281 L 82.710938 355.738281 C 82.460938 355.738281 82.261719 355.539062 82.261719 355.289062 L 82.261719 315.210938 C 82.261719 314.960938 82.460938 314.761719 82.710938 314.761719 L 100.261719 314.761719 C 100.507812 314.761719 100.710938 314.960938 100.710938 315.210938 L 100.710938 322.03125 C 100.710938 322.277344 100.507812 322.480469 100.261719 322.480469 L 89.96875 322.480469 C 89.722656 322.480469 89.519531 322.679688 89.519531 322.929688 L 89.519531 329.300781 C 89.519531 329.550781 89.722656 329.75 89.96875 329.75 L 100.269531 329.75 C 100.519531 329.75 100.71875 329.949219 100.71875 330.199219 Z M 100.71875 330.199219 "/>
<path fill-rule="nonzero" fill="rgb(25.898743%, 33.699036%, 10.198975%)" fill-opacity="1" d="M 122.308594 322.929688 L 122.210938 330.371094 C 122.210938 330.558594 122.359375 330.714844 122.550781 330.71875 L 125.578125 330.761719 C 128 330.796875 129.988281 329.148438 130.019531 327.078125 C 130.019531 327.074219 130.019531 327.074219 130.019531 327.070312 L 130.019531 326.429688 C 130.046875 324.363281 128.117188 322.65625 125.699219 322.621094 L 122.671875 322.578125 C 122.476562 322.574219 122.316406 322.726562 122.308594 322.921875 C 122.308594 322.921875 122.308594 322.925781 122.308594 322.929688 M 122.261719 338.78125 L 122.261719 355.371094 C 122.261719 355.578125 122.089844 355.75 121.878906 355.75 L 115.648438 355.75 C 115.429688 355.75 115.25 355.570312 115.25 355.351562 L 115.25 315.390625 C 115.25 315.050781 115.523438 314.769531 115.871094 314.761719 C 120.570312 314.628906 124.488281 314.738281 127.621094 315.101562 C 133.621094 315.773438 136.761719 319.511719 137.039062 326.320312 C 137.261719 331.660156 135.1875 335.34375 130.820312 337.371094 C 130.511719 337.507812 130.375 337.867188 130.515625 338.175781 C 130.515625 338.179688 130.519531 338.1875 130.519531 338.191406 L 138.851562 355.53125 C 138.890625 355.597656 138.859375 355.683594 138.789062 355.722656 C 138.765625 355.734375 138.742188 355.738281 138.71875 355.738281 L 131.238281 355.738281 C 131.089844 355.742188 130.949219 355.65625 130.878906 355.519531 L 122.78125 338.660156 C 122.726562 338.523438 122.566406 338.453125 122.429688 338.507812 C 122.320312 338.554688 122.25 338.664062 122.261719 338.78125 "/>
<path fill-rule="nonzero" fill="rgb(25.898743%, 33.699036%, 10.198975%)" fill-opacity="1" d="M 152.140625 314.738281 L 158.339844 314.738281 C 158.5625 314.738281 158.738281 314.917969 158.738281 315.140625 L 158.738281 355.359375 C 158.738281 355.582031 158.5625 355.761719 158.339844 355.761719 L 152.140625 355.761719 C 151.917969 355.761719 151.738281 355.582031 151.738281 355.359375 L 151.738281 315.140625 C 151.738281 314.917969 151.917969 314.738281 152.140625 314.738281 "/>
<path fill-rule="nonzero" fill="rgb(25.898743%, 33.699036%, 10.198975%)" fill-opacity="1" d="M 234.761719 474.078125 C 233.527344 473.90625 232.527344 473.925781 231.761719 474.140625 C 223.828125 464.320312 220.46875 453.070312 219.578125 440.71875 C 218.699219 428.539062 217.480469 417.558594 213.160156 406.628906 C 205.492188 387.242188 193.746094 370.753906 177.921875 357.160156 C 177.921875 357.152344 177.914062 357.148438 177.910156 357.148438 C 177.902344 357.148438 177.898438 357.152344 177.898438 357.160156 L 177.578125 357.371094 C 177.492188 357.421875 177.46875 357.53125 177.523438 357.621094 C 177.53125 357.636719 177.539062 357.648438 177.550781 357.660156 C 179.988281 359.988281 182.332031 362.664062 184.578125 365.691406 C 193.851562 378.191406 200.519531 391.84375 204.578125 406.648438 C 206.691406 414.351562 207.648438 421.636719 207.449219 428.511719 C 207.171875 438.097656 207.136719 445.15625 207.351562 449.691406 C 207.75 458.011719 209.84375 466.242188 213.628906 474.390625 L 203.308594 473.871094 C 203.277344 473.871094 203.242188 473.867188 203.210938 473.859375 L 194.039062 472.359375 C 188.773438 467.839844 185.019531 462.523438 182.78125 456.410156 C 181.246094 452.238281 180.148438 446.621094 179.480469 439.570312 C 178.351562 427.570312 182.351562 415.160156 184.429688 405.230469 C 186.019531 397.679688 186.101562 390.929688 184.570312 383 C 183.121094 375.5 180.554688 367.710938 176.859375 359.628906 C 175.707031 357.101562 174.941406 355.710938 174.570312 355.449219 C 174.539062 355.425781 174.519531 355.386719 174.519531 355.351562 L 174.519531 315.378906 C 174.519531 315.027344 174.808594 314.738281 175.160156 314.738281 L 194.269531 314.738281 C 194.519531 314.738281 194.71875 314.941406 194.71875 315.191406 L 194.71875 322.359375 C 194.71875 322.582031 194.546875 322.761719 194.328125 322.761719 L 182.191406 322.761719 C 181.945312 322.761719 181.75 322.957031 181.75 323.199219 L 181.75 329.261719 C 181.75 329.535156 181.972656 329.761719 182.25 329.761719 L 194.199219 329.761719 C 194.488281 329.761719 194.71875 329.992188 194.71875 330.28125 L 194.71875 337.050781 C 194.71875 337.300781 194.519531 337.5 194.269531 337.5 L 182.28125 337.5 C 181.980469 337.5 181.738281 337.742188 181.738281 338.039062 L 181.738281 347.128906 C 181.738281 347.460938 182.007812 347.730469 182.339844 347.730469 L 194.328125 347.730469 C 194.554688 347.730469 194.738281 347.917969 194.738281 348.148438 L 194.738281 355.359375 C 194.738281 355.574219 194.570312 355.75 194.359375 355.75 L 177.628906 355.75 C 177.617188 355.753906 177.605469 355.761719 177.605469 355.769531 C 177.601562 355.777344 177.609375 355.78125 177.621094 355.78125 C 189.371094 361.339844 200.53125 368.054688 211.089844 375.921875 C 222.582031 384.480469 231.808594 395.101562 238.769531 407.78125 C 238.960938 408.132812 239.394531 408.265625 239.75 408.078125 C 251.039062 402.328125 259.800781 389.179688 264.960938 377.96875 C 265.023438 377.816406 265.203125 377.746094 265.355469 377.8125 C 265.445312 377.851562 265.511719 377.933594 265.53125 378.03125 C 268.617188 391.164062 269.988281 404.308594 269.640625 417.460938 C 269.238281 432.75 262.75 451.011719 252.921875 462.910156 C 248.058594 468.804688 242.007812 472.527344 234.761719 474.078125 "/>
<path fill-rule="nonzero" fill="rgb(25.898743%, 33.699036%, 10.198975%)" fill-opacity="1" d="M 220.679688 337.089844 C 218.519531 333.410156 217.15625 331.109375 216.589844 330.191406 C 216.527344 330.105469 216.40625 330.089844 216.324219 330.152344 C 216.28125 330.183594 216.257812 330.230469 216.25 330.28125 L 216.25 355.429688 C 216.25 355.628906 216.089844 355.789062 215.890625 355.789062 L 209.351562 355.789062 C 209.15625 355.789062 209 355.628906 209 355.429688 L 209 315.359375 C 209 315.023438 209.273438 314.75 209.609375 314.75 C 209.613281 314.75 209.617188 314.75 209.621094 314.75 L 215.519531 314.78125 C 215.742188 314.78125 215.941406 314.90625 216.039062 315.101562 C 216.101562 315.199219 219.691406 321.324219 226.808594 333.46875 C 228.96875 337.148438 230.328125 339.449219 230.890625 340.371094 C 230.945312 340.460938 231.0625 340.484375 231.152344 340.429688 C 231.203125 340.394531 231.234375 340.339844 231.238281 340.28125 L 231.238281 315.128906 C 231.238281 314.929688 231.402344 314.769531 231.601562 314.769531 L 238.140625 314.769531 C 238.332031 314.769531 238.488281 314.929688 238.488281 315.128906 L 238.488281 355.199219 C 238.488281 355.535156 238.21875 355.808594 237.878906 355.808594 C 237.878906 355.808594 237.871094 355.808594 237.871094 355.808594 L 231.96875 355.78125 C 231.75 355.777344 231.546875 355.65625 231.449219 355.460938 C 231.382812 355.359375 227.792969 349.238281 220.679688 337.089844 "/>
<path fill-rule="nonzero" fill="rgb(25.898743%, 33.699036%, 10.198975%)" fill-opacity="1" d="M 261.75 323.078125 L 261.75 347.699219 C 261.75 347.9375 261.941406 348.128906 262.179688 348.128906 L 265.949219 348.128906 C 271.761719 348.128906 276.46875 343.261719 276.46875 337.261719 L 276.46875 333.519531 C 276.46875 327.515625 271.761719 322.648438 265.949219 322.648438 L 262.179688 322.648438 C 261.941406 322.648438 261.75 322.84375 261.75 323.078125 M 254.539062 315.25 C 254.546875 315.039062 254.71875 314.871094 254.929688 314.871094 L 266.890625 314.890625 C 276.183594 314.910156 283.699219 323.015625 283.679688 332.988281 L 283.679688 337.851562 C 283.660156 347.828125 276.113281 355.90625 266.816406 355.890625 L 266.808594 355.890625 L 254.851562 355.871094 C 254.636719 355.871094 254.460938 355.695312 254.460938 355.480469 C 254.460938 355.476562 254.460938 355.472656 254.460938 355.46875 Z M 254.539062 315.25 "/>
<path fill-rule="nonzero" fill="rgb(25.898743%, 33.699036%, 10.198975%)" fill-opacity="1" d="M 315.070312 355.75 L 298.679688 355.75 C 298.441406 355.75 298.25 355.558594 298.25 355.320312 L 298.25 315.160156 C 298.25 314.921875 298.441406 314.730469 298.679688 314.730469 L 305.078125 314.730469 C 305.316406 314.730469 305.511719 314.921875 305.511719 315.160156 L 305.511719 347.570312 C 305.511719 347.808594 305.703125 348 305.941406 348 L 315.070312 348 C 315.308594 348 315.5 348.191406 315.5 348.429688 L 315.5 355.320312 C 315.5 355.558594 315.308594 355.75 315.070312 355.75 "/>
<path fill-rule="nonzero" fill="rgb(25.898743%, 33.699036%, 10.198975%)" fill-opacity="1" d="M 340.410156 328.679688 C 340.597656 328.679688 340.839844 328.347656 341.140625 327.679688 C 343.121094 323.3125 345.101562 319.078125 347.089844 314.980469 C 347.15625 314.839844 347.296875 314.75 347.449219 314.75 L 354.730469 314.75 C 354.808594 314.746094 354.871094 314.808594 354.871094 314.886719 C 354.875 314.90625 354.867188 314.929688 354.859375 314.949219 L 344.390625 337.359375 C 344.144531 337.886719 344.019531 338.460938 344.019531 339.039062 L 344.011719 355.011719 C 344.003906 355.347656 343.761719 355.632812 343.429688 355.691406 C 343.175781 355.730469 342.15625 355.75 340.371094 355.75 C 338.589844 355.742188 337.574219 355.71875 337.320312 355.679688 C 336.988281 355.621094 336.746094 355.335938 336.738281 355 L 336.78125 339.03125 C 336.78125 338.449219 336.652344 337.878906 336.410156 337.351562 L 326.011719 314.910156 C 325.976562 314.839844 326.007812 314.757812 326.074219 314.722656 C 326.097656 314.714844 326.117188 314.710938 326.140625 314.710938 L 333.421875 314.730469 C 333.574219 314.730469 333.714844 314.820312 333.78125 314.960938 C 335.753906 319.066406 337.722656 323.308594 339.691406 327.679688 C 339.988281 328.347656 340.230469 328.679688 340.410156 328.679688 "/>
<path fill-rule="nonzero" fill="rgb(61.999512%, 72.898865%, 18.798828%)" fill-opacity="1" d="M 122.308594 322.929688 C 122.308594 322.738281 122.46875 322.578125 122.660156 322.578125 C 122.664062 322.578125 122.667969 322.578125 122.671875 322.578125 L 125.699219 322.621094 C 128.117188 322.65625 130.046875 324.363281 130.019531 326.429688 L 130.019531 327.070312 C 129.992188 329.140625 128.007812 330.792969 125.589844 330.761719 C 125.585938 330.761719 125.582031 330.761719 125.578125 330.761719 L 122.550781 330.71875 C 122.359375 330.714844 122.210938 330.558594 122.210938 330.371094 Z M 122.308594 322.929688 "/>
<path fill-rule="nonzero" fill="rgb(61.999512%, 72.898865%, 18.798828%)" fill-opacity="1" d="M 261.75 323.078125 C 261.75 322.84375 261.941406 322.648438 262.179688 322.648438 L 265.949219 322.648438 C 271.761719 322.648438 276.46875 327.515625 276.46875 333.519531 L 276.46875 337.261719 C 276.46875 343.261719 271.761719 348.128906 265.949219 348.128906 L 262.179688 348.128906 C 261.941406 348.128906 261.75 347.9375 261.75 347.699219 Z M 261.75 323.078125 "/>
<path fill-rule="nonzero" fill="rgb(61.999512%, 72.898865%, 18.798828%)" fill-opacity="1" d="M 231.761719 474.140625 L 213.628906 474.390625 C 209.84375 466.242188 207.75 458.011719 207.351562 449.691406 C 207.136719 445.15625 207.171875 438.097656 207.449219 428.511719 C 207.648438 421.636719 206.691406 414.351562 204.578125 406.648438 C 200.519531 391.84375 193.851562 378.191406 184.578125 365.691406 C 182.332031 362.664062 179.988281 359.988281 177.550781 357.660156 C 177.476562 357.585938 177.476562 357.46875 177.546875 357.398438 C 177.554688 357.386719 177.566406 357.378906 177.578125 357.371094 L 177.898438 357.160156 C 177.898438 357.152344 177.902344 357.148438 177.910156 357.148438 C 177.914062 357.148438 177.921875 357.152344 177.921875 357.160156 C 193.746094 370.753906 205.492188 387.242188 213.160156 406.628906 C 217.480469 417.558594 218.699219 428.539062 219.578125 440.71875 C 220.46875 453.070312 223.828125 464.320312 231.761719 474.140625 "/>
<path fill-rule="nonzero" fill="rgb(100%, 100%, 100%)" fill-opacity="1" d="M 77.53125 567.148438 C 71.480469 567.148438 66.578125 573.988281 66.578125 582.421875 C 66.578125 590.851562 71.480469 597.691406 77.53125 597.691406 C 83.578125 597.691406 88.480469 590.851562 88.480469 582.421875 C 88.480469 573.988281 83.578125 567.148438 77.53125 567.148438 M 78.320312 606 L 75.96875 606 C 62.476562 604.214844 55.753906 596.28125 55.800781 582.210938 C 55.839844 571.410156 61.910156 561.320312 72.988281 559.339844 C 92.109375 555.921875 103.199219 572.308594 98.351562 589.679688 C 95.496094 599.921875 88.820312 605.359375 78.320312 606 "/>
<path fill-rule="nonzero" fill="rgb(100%, 100%, 100%)" fill-opacity="1" d="M 116.230469 567.769531 L 116.269531 579.128906 C 116.269531 579.445312 116.523438 579.699219 116.839844 579.699219 L 121.148438 579.679688 C 125.070312 579.667969 128.238281 576.90625 128.230469 573.511719 L 128.230469 573.308594 C 128.222656 569.914062 125.035156 567.167969 121.113281 567.179688 L 121.109375 567.179688 L 116.800781 567.199219 C 116.484375 567.199219 116.230469 567.453125 116.230469 567.769531 M 115.621094 605.25 L 106.359375 605.25 C 106.160156 605.25 106 605.089844 106 604.890625 L 106 560.628906 C 105.996094 560.390625 106.179688 560.183594 106.421875 560.148438 C 110.308594 559.621094 114.746094 559.328125 119.738281 559.269531 C 127.71875 559.179688 137.109375 560.851562 138.398438 570.269531 C 139.074219 575.210938 137.515625 579.117188 133.730469 581.988281 C 132.996094 582.542969 132.285156 583.019531 131.601562 583.421875 C 131.402344 583.53125 131.332031 583.78125 131.441406 583.976562 C 131.472656 584.03125 131.511719 584.074219 131.558594 584.109375 C 134.054688 585.882812 135.71875 588.5 136.550781 591.960938 C 136.890625 593.386719 138.066406 597.597656 140.078125 604.589844 C 140.15625 604.867188 139.996094 605.152344 139.71875 605.230469 C 139.675781 605.242188 139.628906 605.25 139.578125 605.25 L 130.121094 605.25 C 129.722656 605.25 129.367188 605.003906 129.230469 604.628906 C 128.78125 603.441406 127.648438 599.382812 125.820312 592.449219 C 124.558594 587.699219 121.171875 587.179688 116.820312 587.269531 C 116.496094 587.28125 116.238281 587.542969 116.238281 587.859375 L 116.238281 604.621094 C 116.238281 604.96875 115.960938 605.25 115.621094 605.25 "/>
<path fill-rule="nonzero" fill="rgb(100%, 100%, 100%)" fill-opacity="1" d="M 299.410156 568.140625 L 299.570312 580.160156 C 299.574219 580.625 299.957031 580.996094 300.421875 580.988281 C 300.421875 580.988281 300.425781 580.988281 300.429688 580.988281 L 304.121094 580.941406 C 308.253906 580.878906 311.558594 577.855469 311.511719 574.179688 L 311.511719 573.800781 C 311.460938 570.121094 308.070312 567.183594 303.933594 567.238281 C 303.929688 567.238281 303.925781 567.238281 303.921875 567.238281 L 300.230469 567.289062 C 299.769531 567.300781 299.402344 567.679688 299.410156 568.140625 M 298.859375 605.25 L 289.589844 605.25 C 289.265625 605.25 289 604.984375 289 604.660156 L 289 560.871094 C 289 560.542969 289.238281 560.265625 289.558594 560.21875 C 296.699219 559.128906 303.328125 558.992188 309.449219 559.820312 C 316.75 560.808594 321.75 565.910156 321.808594 573.519531 C 321.910156 586.621094 310.851562 589.558594 300.03125 589.140625 C 299.742188 589.128906 299.5 589.347656 299.488281 589.628906 C 299.488281 589.636719 299.488281 589.644531 299.488281 589.648438 L 299.488281 604.621094 C 299.488281 604.96875 299.207031 605.25 298.859375 605.25 "/>
<path fill-rule="nonzero" fill="rgb(100%, 100%, 100%)" fill-opacity="1" d="M 50.238281 560.128906 L 50.238281 567.871094 C 50.238281 568.078125 50.070312 568.25 49.859375 568.25 L 33.378906 568.25 C 33.171875 568.25 33 568.421875 33 568.628906 L 33 578.121094 C 33 578.328125 33.171875 578.5 33.378906 578.5 L 48.871094 578.5 C 49.078125 578.5 49.25 578.671875 49.25 578.878906 L 49.25 586.621094 C 49.25 586.828125 49.078125 587 48.871094 587 L 33.378906 587 C 33.171875 587 33 587.171875 33 587.378906 L 33 604.871094 C 33 605.078125 32.828125 605.25 32.621094 605.25 L 22.628906 605.25 C 22.421875 605.25 22.25 605.078125 22.25 604.871094 L 22.25 560.128906 C 22.25 559.921875 22.421875 559.75 22.628906 559.75 L 49.859375 559.75 C 50.070312 559.75 50.238281 559.921875 50.238281 560.128906 "/>
<path fill-rule="nonzero" fill="rgb(100%, 100%, 100%)" fill-opacity="1" d="M 170.691406 559.738281 C 176.53125 559.746094 182.21875 559.761719 187.761719 559.78125 C 187.996094 559.78125 188.191406 559.972656 188.191406 560.210938 L 188.191406 568.101562 C 188.191406 568.332031 188.003906 568.519531 187.769531 568.519531 L 176.601562 568.519531 C 176.261719 568.519531 175.988281 568.792969 175.988281 569.128906 L 175.929688 604.601562 C 175.929688 604.902344 175.722656 605.167969 175.429688 605.238281 C 175.351562 605.261719 173.738281 605.265625 170.601562 605.261719 C 167.46875 605.253906 165.859375 605.238281 165.78125 605.21875 C 165.484375 605.148438 165.28125 604.882812 165.28125 604.578125 L 165.359375 569.109375 C 165.359375 568.773438 165.085938 568.5 164.75 568.5 L 153.578125 568.449219 C 153.347656 568.449219 153.160156 568.261719 153.160156 568.03125 L 153.199219 560.140625 C 153.199219 559.902344 153.394531 559.710938 153.628906 559.710938 C 159.171875 559.71875 164.855469 559.726562 170.691406 559.738281 "/>
<path fill-rule="nonzero" fill="rgb(100%, 100%, 100%)" fill-opacity="1" d="M 212.25 577 C 217.058594 577 219.589844 576.996094 219.851562 576.988281 C 220.210938 576.984375 220.5 576.691406 220.5 576.328125 L 220.5 560.351562 C 220.5 560.019531 220.773438 559.75 221.109375 559.75 L 230.410156 559.75 C 230.734375 559.75 231 560.015625 231 560.339844 L 231 604.640625 C 231 604.976562 230.726562 605.25 230.390625 605.25 L 221.148438 605.25 C 220.789062 605.25 220.5 604.960938 220.5 604.601562 L 220.5 586.628906 C 220.5 586.433594 220.34375 586.273438 220.148438 586.269531 C 219.878906 586.257812 217.242188 586.25 212.25 586.25 C 207.257812 586.25 204.621094 586.257812 204.351562 586.269531 C 204.15625 586.273438 204 586.433594 204 586.628906 L 204 604.601562 C 204 604.960938 203.710938 605.25 203.351562 605.25 L 194.109375 605.25 C 193.773438 605.25 193.5 604.976562 193.5 604.640625 L 193.5 560.339844 C 193.5 560.015625 193.765625 559.75 194.089844 559.75 L 203.390625 559.75 C 203.726562 559.75 204 560.019531 204 560.351562 L 204 576.328125 C 204 576.691406 204.289062 576.984375 204.648438 576.988281 C 204.910156 576.996094 207.441406 577 212.25 577 "/>
<path fill-rule="nonzero" fill="rgb(100%, 100%, 100%)" fill-opacity="1" d="M 239.738281 560.441406 C 239.738281 560.058594 240.050781 559.75 240.429688 559.75 L 267.648438 559.761719 C 267.835938 559.761719 267.984375 559.90625 267.988281 560.089844 L 267.980469 567.929688 C 267.980469 568.105469 267.835938 568.25 267.660156 568.25 L 250.679688 568.25 C 250.441406 568.25 250.25 568.441406 250.25 568.679688 L 250.238281 577.058594 C 250.238281 577.304688 250.433594 577.5 250.671875 577.5 L 266.441406 577.511719 C 266.664062 577.511719 266.851562 577.695312 266.851562 577.921875 L 266.878906 585.558594 C 266.878906 585.804688 266.6875 586 266.449219 586 L 250.820312 586 C 250.492188 586 250.230469 586.265625 250.230469 586.589844 L 250.238281 595.910156 C 250.246094 596.230469 250.511719 596.488281 250.839844 596.488281 L 268.378906 596.5 C 268.578125 596.5 268.738281 596.660156 268.738281 596.859375 L 268.738281 604.859375 C 268.738281 605.070312 268.574219 605.238281 268.371094 605.238281 L 240.359375 605.238281 C 240.023438 605.238281 239.75 604.96875 239.75 604.628906 Z M 239.738281 560.441406 "/>
<path fill-rule="nonzero" fill="rgb(100%, 100%, 100%)" fill-opacity="1" d="M 338.75 560.148438 L 338.75 595.859375 C 338.75 596.074219 338.925781 596.25 339.140625 596.25 L 356.359375 596.25 C 356.574219 596.25 356.75 596.425781 356.75 596.640625 L 356.75 604.859375 C 356.75 605.074219 356.574219 605.25 356.359375 605.25 L 328.640625 605.25 C 328.425781 605.25 328.25 605.074219 328.25 604.859375 L 328.25 560.148438 C 328.25 559.933594 328.425781 559.761719 328.640625 559.761719 L 338.359375 559.761719 C 338.574219 559.761719 338.75 559.933594 338.75 560.148438 "/>
<path fill-rule="nonzero" fill="rgb(100%, 100%, 100%)" fill-opacity="1" d="M 379.621094 568.890625 L 375.398438 585.210938 C 375.339844 585.441406 375.476562 585.675781 375.707031 585.734375 C 375.742188 585.746094 375.78125 585.75 375.820312 585.75 L 384.289062 585.75 C 384.582031 585.746094 384.816406 585.507812 384.816406 585.214844 C 384.8125 585.160156 384.804688 585.109375 384.789062 585.058594 L 379.78125 568.890625 C 379.78125 568.847656 379.742188 568.808594 379.699219 568.808594 C 379.65625 568.808594 379.621094 568.847656 379.621094 568.890625 M 373.648438 559.75 L 386.800781 559.75 C 386.972656 559.75 387.128906 559.863281 387.179688 560.03125 L 401.03125 604.730469 C 401.097656 604.941406 400.980469 605.164062 400.769531 605.230469 C 400.730469 605.242188 400.691406 605.25 400.648438 605.25 L 390.191406 605.25 C 390.015625 605.25 389.863281 605.136719 389.808594 604.96875 L 386.351562 593.78125 C 386.296875 593.613281 386.144531 593.5 385.96875 593.5 L 374.101562 593.5 C 373.921875 593.496094 373.761719 593.609375 373.710938 593.78125 L 370.300781 604.96875 C 370.246094 605.140625 370.089844 605.253906 369.910156 605.25 L 359.980469 605.25 C 359.757812 605.25 359.582031 605.070312 359.582031 604.847656 C 359.582031 604.808594 359.589844 604.769531 359.601562 604.730469 L 373.261719 560.03125 C 373.3125 559.859375 373.472656 559.746094 373.648438 559.75 "/>
<path fill-rule="nonzero" fill="rgb(100%, 100%, 100%)" fill-opacity="1" d="M 444.5 560.089844 L 444.5 604.640625 C 444.5 604.976562 444.226562 605.25 443.890625 605.25 L 434.011719 605.25 C 433.683594 605.25 433.378906 605.070312 433.21875 604.78125 L 416.371094 573.339844 C 416.359375 573.335938 416.347656 573.335938 416.34375 573.34375 C 416.339844 573.347656 416.339844 573.347656 416.339844 573.351562 L 416.558594 604.980469 C 416.558594 605.125 416.445312 605.238281 416.300781 605.238281 L 407.300781 605.238281 C 407.132812 605.238281 407 605.105469 407 604.941406 L 407 560.320312 C 407 560.003906 407.261719 559.75 407.578125 559.75 L 418.558594 559.75 C 418.90625 559.75 419.222656 559.933594 419.390625 560.230469 C 424.871094 569.699219 431.269531 580.058594 435.351562 590.558594 C 435.363281 590.621094 435.425781 590.660156 435.484375 590.644531 C 435.546875 590.632812 435.585938 590.570312 435.570312 590.511719 C 434.941406 580.371094 434.785156 570.210938 435.101562 560.03125 C 435.105469 559.875 435.234375 559.75 435.390625 559.75 L 444.160156 559.75 C 444.347656 559.75 444.5 559.902344 444.5 560.089844 "/>
<path fill-rule="nonzero" fill="rgb(100%, 100%, 100%)" fill-opacity="1" d="M 481.5 560.121094 L 481.5 567.878906 C 481.5 568.085938 481.335938 568.25 481.128906 568.25 L 464.121094 568.25 C 463.914062 568.25 463.75 568.414062 463.75 568.621094 L 463.75 577.128906 C 463.75 577.335938 463.914062 577.5 464.121094 577.5 L 480.011719 577.5 C 480.214844 577.5 480.378906 577.664062 480.378906 577.871094 L 480.378906 585.628906 C 480.378906 585.835938 480.214844 586 480.011719 586 L 464.121094 586 C 463.914062 586 463.75 586.164062 463.75 586.371094 L 463.75 596.140625 C 463.75 596.34375 463.914062 596.511719 464.121094 596.511719 L 481.878906 596.511719 C 482.085938 596.511719 482.25 596.675781 482.25 596.878906 L 482.25 604.878906 C 482.25 605.085938 482.085938 605.25 481.878906 605.25 L 453.621094 605.25 C 453.414062 605.25 453.25 605.085938 453.25 604.878906 L 453.25 560.121094 C 453.25 559.914062 453.414062 559.75 453.621094 559.75 L 481.128906 559.75 C 481.335938 559.75 481.5 559.914062 481.5 560.121094 "/>
<path fill-rule="nonzero" fill="rgb(100%, 100%, 100%)" fill-opacity="1" d="M 503.511719 605.238281 C 500.378906 605.238281 498.769531 605.230469 498.691406 605.210938 C 498.394531 605.136719 498.191406 604.871094 498.191406 604.570312 L 498.179688 569.128906 C 498.179688 568.796875 497.914062 568.523438 497.578125 568.519531 L 486.421875 568.5 C 486.1875 568.5 486 568.3125 486 568.078125 L 486.011719 560.199219 C 486.011719 559.964844 486.203125 559.769531 486.441406 559.769531 C 491.980469 559.757812 497.664062 559.753906 503.488281 559.761719 C 509.316406 559.753906 515 559.753906 520.539062 559.761719 C 520.773438 559.761719 520.964844 559.945312 520.96875 560.179688 L 520.988281 568.070312 C 520.988281 568.300781 520.800781 568.488281 520.570312 568.488281 L 509.410156 568.511719 C 509.074219 568.511719 508.800781 568.78125 508.800781 569.121094 L 508.828125 604.558594 C 508.828125 604.863281 508.625 605.128906 508.328125 605.199219 C 508.25 605.21875 506.644531 605.234375 503.511719 605.238281 "/>
</svg>
