<?xml version="1.0" encoding="UTF-8"?>
<!-- CMYK_PDF_CONVERTED -->
<svg data-vectorized-cmyk="true" data-original-cmyk-pdf="true" xmlns="http://www.w3.org/2000/svg" xmlns:xlink="http://www.w3.org/1999/xlink" width="856.56" height="609.84" viewBox="0 0 856.56 609.84">
<path fill-rule="nonzero" fill="rgb(16.862488%, 18.823242%, 49.411011%)" fill-opacity="1" d="M 708.621094 186.566406 L 729.238281 214.914062 C 729.703125 215.546875 729.578125 216.433594 728.945312 216.875 L 711.253906 229.742188 C 710.09375 230.585938 708.621094 230.902344 707.230469 230.628906 C 668.078125 222.6875 628.605469 219.359375 588.78125 220.6875 C 588.0625 220.707031 587.367188 220.453125 586.84375 219.96875 C 568.644531 203.183594 559.355469 178.625 557.859375 154.027344 C 554.742188 103.625 575.617188 59.1875 627.910156 46.632812 C 659.019531 39.175781 695.371094 44.675781 721.425781 64.261719 C 721.953125 64.660156 722.078125 65.378906 721.761719 65.925781 L 705.269531 94.527344 C 704.914062 95.136719 704.09375 95.308594 703.523438 94.886719 C 684.082031 80.773438 662.746094 76.414062 639.558594 81.828125 C 629.007812 84.289062 619.636719 90.589844 611.484375 100.761719 C 598.890625 116.453125 596.65625 141.496094 600.742188 162.304688 C 606.851562 193.476562 632.273438 210.683594 664.433594 207.289062 C 679.703125 205.691406 693.730469 198.71875 706.472656 186.378906 C 707.105469 185.765625 708.113281 185.871094 708.621094 186.566406 Z M 708.621094 186.566406 "/>
<path fill-rule="nonzero" fill="rgb(16.862488%, 18.823242%, 49.411011%)" fill-opacity="1" d="M 274.285156 137.789062 C 274.285156 138.1875 274.8125 138.355469 275.046875 138.019531 L 340.1875 47.582031 C 340.675781 46.90625 341.453125 46.507812 342.296875 46.507812 L 389.515625 46.507812 C 390.0625 46.507812 390.359375 47.140625 390.019531 47.582031 L 323.257812 130.183594 C 322.769531 130.796875 322.75 131.636719 323.171875 132.269531 C 338.105469 154.617188 349.792969 172.246094 358.28125 185.199219 C 367.570312 199.371094 378.796875 204.195312 394.78125 208.050781 C 395.433594 208.21875 395.898438 208.808594 395.898438 209.480469 L 395.898438 241.054688 C 395.898438 241.769531 395.308594 242.359375 394.589844 242.378906 C 366.558594 242.820312 344.527344 231.386719 328.480469 208.027344 C 327.742188 206.976562 317.714844 191.914062 298.359375 162.871094 C 298.046875 162.386719 297.351562 162.367188 296.992188 162.808594 L 275.234375 189.726562 C 274.625 190.484375 274.285156 191.433594 274.285156 192.402344 L 274.285156 239.832031 C 274.285156 240.335938 273.886719 240.757812 273.382812 240.757812 L 235.617188 240.757812 C 235.238281 240.757812 234.921875 240.441406 234.921875 240.0625 L 234.921875 47.558594 C 234.921875 46.96875 235.386719 46.507812 235.976562 46.507812 L 273.425781 46.507812 C 273.90625 46.507812 274.285156 46.90625 274.285156 47.390625 Z M 274.285156 137.789062 "/>
<path fill-rule="nonzero" fill="rgb(16.862488%, 18.823242%, 49.411011%)" fill-opacity="1" d="M 555.1875 47.242188 L 555.1875 81.933594 C 555.1875 82.332031 554.847656 82.671875 554.449219 82.671875 L 499.667969 82.671875 C 499.269531 82.671875 498.929688 83.007812 498.929688 83.40625 L 498.929688 230.207031 C 498.929688 230.542969 498.699219 230.839844 498.382812 230.921875 L 459.628906 240.714844 C 459.144531 240.84375 458.703125 240.484375 458.703125 240 L 458.703125 83.386719 C 458.703125 82.984375 458.367188 82.648438 457.964844 82.648438 L 403.332031 82.648438 C 402.933594 82.648438 402.59375 82.3125 402.59375 81.910156 L 402.59375 47.242188 C 402.59375 46.84375 402.933594 46.507812 403.332031 46.507812 L 554.449219 46.507812 C 554.847656 46.507812 555.1875 46.84375 555.1875 47.242188 Z M 555.1875 47.242188 "/>
<path fill-rule="nonzero" fill="rgb(90.98053%, 18.431091%, 49.411011%)" fill-opacity="1" d="M 107.5625 271.128906 L 107.585938 271.085938 C 107.710938 270.730469 108.109375 270.519531 108.488281 270.625 C 131.847656 277.132812 159.585938 282.207031 191.664062 285.871094 C 261.378906 293.835938 329.804688 289.640625 396.949219 273.320312 C 422.183594 267.191406 450.742188 255.671875 473.613281 249.625 C 544.488281 230.878906 616.644531 227.59375 690.085938 239.789062 C 723.003906 245.265625 757.800781 254.828125 787.621094 269.632812 C 787.8125 269.71875 787.894531 269.949219 787.8125 270.140625 C 787.75 270.328125 787.539062 270.453125 787.328125 270.390625 C 707.335938 249.984375 626.734375 246.234375 545.539062 259.144531 C 521.089844 263.042969 496.867188 268.960938 472.878906 276.941406 C 448.382812 285.09375 434.082031 289.726562 430.015625 290.820312 C 351.605469 311.863281 272.6875 314.621094 193.242188 299.140625 C 164.703125 293.582031 136.269531 284.503906 107.921875 271.929688 C 107.605469 271.804688 107.457031 271.445312 107.5625 271.128906 Z M 107.5625 271.128906 "/>
<path fill-rule="nonzero" fill="rgb(90.98053%, 18.431091%, 49.411011%)" fill-opacity="1" d="M 245.222656 416.558594 C 252.992188 424.5625 280.984375 429.027344 287.304688 417.085938 C 288.691406 414.453125 288.039062 411.085938 285.703125 408.828125 C 282.773438 406.027344 278.984375 404.050781 274.328125 402.847656 C 264.179688 400.238281 256.28125 397.476562 250.65625 394.570312 C 237.660156 387.875 233.46875 373.847656 239.347656 360.597656 C 249.035156 338.738281 287.28125 343.265625 302.972656 353.078125 C 303.5625 353.4375 303.753906 354.21875 303.394531 354.808594 L 296.105469 367.464844 C 295.832031 367.929688 295.265625 368.074219 294.800781 367.824219 C 287.933594 364.011719 279.804688 362.136719 270.433594 362.222656 C 254.195312 362.347656 250.296875 376.394531 267.546875 381.15625 C 278.480469 384.1875 294.71875 388 302.722656 398.214844 C 309.207031 406.492188 308.535156 420.8125 302.445312 428.839844 C 287.914062 448.003906 253.816406 442.949219 236.671875 432.0625 C 235.511719 431.324219 235.15625 429.828125 235.828125 428.648438 L 242.632812 416.875 C 243.15625 415.929688 244.464844 415.78125 245.222656 416.558594 Z M 245.222656 416.558594 "/>
<path fill-rule="nonzero" fill="rgb(90.98053%, 18.431091%, 49.411011%)" fill-opacity="1" d="M 358.238281 344.992188 C 375.488281 344.992188 388.820312 352.132812 395.414062 366.769531 C 398.214844 372.960938 399.394531 384.039062 398.949219 399.984375 C 398.847656 404.429688 398.824219 417.484375 398.886719 439.117188 C 398.886719 439.644531 398.46875 440.085938 397.941406 440.085938 L 380.648438 440.085938 C 380.183594 440.085938 379.804688 439.707031 379.804688 439.242188 L 379.804688 416.390625 C 379.804688 415.632812 379.238281 415.023438 378.480469 414.960938 C 377.300781 414.875 370.539062 414.832031 358.21875 414.832031 C 345.898438 414.8125 339.136719 414.875 337.957031 414.960938 C 337.21875 415.023438 336.628906 415.632812 336.628906 416.390625 L 336.628906 439.242188 C 336.628906 439.707031 336.25 440.085938 335.785156 440.085938 L 318.496094 440.066406 C 317.96875 440.066406 317.546875 439.644531 317.546875 439.097656 C 317.632812 417.464844 317.609375 404.429688 317.507812 399.964844 C 317.0625 384.019531 318.242188 372.941406 321.042969 366.75 C 327.65625 352.109375 340.96875 344.992188 358.238281 344.992188 M 337.347656 397.5 L 379.046875 397.5 C 379.449219 397.5 379.765625 397.183594 379.765625 396.78125 L 379.765625 384.3125 C 379.765625 372.226562 370.6875 362.410156 359.503906 362.410156 L 356.890625 362.410156 C 345.707031 362.410156 336.628906 372.226562 336.628906 384.3125 L 336.628906 396.78125 C 336.628906 397.183594 336.945312 397.5 337.347656 397.5 Z M 337.347656 397.5 "/>
<path fill-rule="nonzero" fill="rgb(90.98053%, 18.431091%, 49.411011%)" fill-opacity="1" d="M 434.945312 383.914062 L 476.667969 383.914062 C 477.089844 383.914062 477.449219 384.273438 477.449219 384.695312 L 477.449219 400.300781 C 477.449219 400.722656 477.089844 401.078125 476.667969 401.078125 L 434.945312 401.078125 C 434.523438 401.078125 434.164062 401.4375 434.164062 401.859375 L 434.164062 439.285156 C 434.164062 439.707031 433.808594 440.066406 433.386719 440.066406 L 415.886719 440.066406 C 415.464844 440.066406 415.105469 439.707031 415.105469 439.285156 L 415.105469 347.289062 C 415.105469 346.867188 415.464844 346.507812 415.886719 346.507812 L 480.816406 346.507812 C 481.238281 346.507812 481.597656 346.867188 481.597656 347.289062 L 481.597656 363.085938 C 481.597656 363.507812 481.238281 363.863281 480.816406 363.863281 L 434.945312 363.863281 C 434.523438 363.863281 434.164062 364.222656 434.164062 364.644531 L 434.164062 383.136719 C 434.164062 383.554688 434.523438 383.914062 434.945312 383.914062 Z M 434.945312 383.914062 "/>
<path fill-rule="nonzero" fill="rgb(90.98053%, 18.431091%, 49.411011%)" fill-opacity="1" d="M 510.871094 383.914062 L 552.910156 383.914062 C 553.332031 383.914062 553.691406 384.273438 553.691406 384.695312 L 553.691406 400.109375 C 553.691406 400.53125 553.332031 400.890625 552.910156 400.890625 L 510.894531 400.890625 C 510.472656 400.890625 510.113281 401.246094 510.113281 401.667969 L 510.113281 421.742188 C 510.113281 422.160156 510.472656 422.519531 510.894531 422.519531 L 557.925781 422.519531 C 558.347656 422.519531 558.703125 422.878906 558.703125 423.300781 L 558.703125 439.285156 C 558.703125 439.707031 558.347656 440.066406 557.925781 440.066406 L 491.789062 440.066406 C 491.371094 440.066406 491.011719 439.707031 491.011719 439.285156 L 491.011719 347.265625 C 491.011719 346.847656 491.371094 346.488281 491.789062 346.488281 L 556.386719 346.488281 C 556.808594 346.488281 557.164062 346.847656 557.164062 347.265625 L 557.164062 363.0625 C 557.164062 363.484375 556.808594 363.84375 556.386719 363.84375 L 510.871094 363.84375 C 510.449219 363.84375 510.09375 364.199219 510.09375 364.621094 L 510.09375 383.136719 C 510.09375 383.554688 510.449219 383.914062 510.871094 383.914062 Z M 510.871094 383.914062 "/>
<path fill-rule="nonzero" fill="rgb(90.98053%, 18.431091%, 49.411011%)" fill-opacity="1" d="M 600.59375 346.488281 C 612.789062 346.488281 624.730469 346.488281 636.398438 346.445312 C 636.90625 346.445312 637.328125 346.867188 637.328125 347.394531 L 637.328125 362.914062 C 637.328125 363.421875 636.90625 363.84375 636.398438 363.84375 L 611.148438 363.84375 C 610.683594 363.84375 610.324219 364.199219 610.324219 364.664062 L 610.324219 439.03125 C 610.324219 439.621094 609.863281 440.085938 609.292969 440.066406 L 600.636719 440.066406 C 597.816406 440.066406 594.929688 440.085938 592.003906 440.085938 C 591.433594 440.085938 590.96875 439.621094 590.96875 439.03125 L 590.886719 364.664062 C 590.886719 364.222656 590.507812 363.863281 590.0625 363.863281 L 564.8125 363.886719 C 564.304688 363.886719 563.886719 363.464844 563.886719 362.957031 L 563.863281 347.433594 C 563.863281 346.910156 564.285156 346.488281 564.789062 346.488281 C 576.460938 346.507812 588.398438 346.507812 600.59375 346.488281 Z M 600.59375 346.488281 "/>
<path fill-rule="nonzero" fill="rgb(90.98053%, 18.431091%, 49.411011%)" fill-opacity="1" d="M 685.347656 391.328125 C 685.535156 391.328125 685.746094 391.074219 685.980469 390.613281 C 693.035156 375.785156 700.238281 361.253906 707.628906 346.992188 C 707.800781 346.675781 708.113281 346.488281 708.472656 346.488281 L 729.132812 346.488281 C 729.324219 346.488281 729.429688 346.675781 729.34375 346.847656 L 695.5 407.25 C 695.078125 407.96875 694.867188 408.789062 694.867188 409.609375 L 694.867188 439.265625 C 694.867188 439.707031 694.507812 440.066406 694.089844 440.066406 L 676.585938 440.066406 C 676.164062 440.066406 675.804688 439.707031 675.804688 439.265625 L 675.804688 409.609375 C 675.804688 408.789062 675.597656 407.96875 675.175781 407.25 L 641.347656 346.847656 C 641.242188 346.675781 641.371094 346.488281 641.558594 346.488281 L 662.222656 346.488281 C 662.558594 346.488281 662.894531 346.675781 663.0625 346.992188 C 670.4375 361.253906 677.660156 375.785156 684.695312 390.613281 C 684.925781 391.074219 685.136719 391.328125 685.347656 391.328125 Z M 685.347656 391.328125 "/>
<path fill-rule="nonzero" fill="rgb(16.862488%, 18.823242%, 49.411011%)" fill-opacity="1" d="M 361.839844 508.746094 C 361.882812 508.746094 361.925781 508.726562 361.945312 508.726562 C 362.050781 508.726562 362.136719 508.703125 362.15625 508.683594 L 369.316406 499.375 C 369.824219 498.722656 369.824219 497.816406 369.339844 497.164062 L 368.789062 496.382812 C 368.199219 495.582031 369.148438 494.53125 370.011719 495.054688 C 370.980469 495.644531 373.234375 495.644531 376.792969 495.035156 C 377.320312 494.949219 377.679688 495.539062 377.34375 495.960938 L 364.832031 511.421875 C 364.324219 512.054688 364.050781 512.851562 364.050781 513.675781 L 364.050781 538.546875 C 364.050781 539.011719 364.15625 539.453125 364.347656 539.875 L 365.484375 542.171875 C 365.757812 542.71875 365.296875 543.351562 364.683594 543.289062 C 363.695312 543.160156 362.703125 543.078125 361.734375 543.078125 C 360.765625 543.078125 359.777344 543.140625 358.785156 543.265625 C 358.175781 543.328125 357.734375 542.699219 358.007812 542.148438 L 359.144531 539.855469 C 359.355469 539.453125 359.460938 538.992188 359.460938 538.527344 L 359.609375 513.652344 C 359.609375 512.832031 359.355469 512.054688 358.851562 511.398438 L 346.421875 495.855469 C 346.105469 495.457031 346.464844 494.847656 346.992188 494.949219 C 350.53125 495.5625 352.785156 495.582031 353.773438 495.015625 C 354.636719 494.488281 355.585938 495.539062 354.972656 496.339844 L 354.425781 497.121094 C 353.941406 497.773438 353.941406 498.679688 354.425781 499.332031 L 361.546875 508.683594 C 361.566406 508.703125 361.628906 508.726562 361.734375 508.726562 C 361.777344 508.726562 361.820312 508.746094 361.839844 508.746094 Z M 361.839844 508.746094 "/>
<path fill-rule="nonzero" fill="rgb(16.862488%, 18.823242%, 49.411011%)" fill-opacity="1" d="M 330.417969 499.058594 C 330.859375 499.058594 331.300781 499.140625 331.742188 499.289062 C 332.164062 499.4375 332.460938 499.730469 332.628906 500.175781 C 340.316406 520.308594 344.273438 530.671875 344.527344 531.261719 C 344.800781 531.933594 345.179688 532.589844 345.644531 533.15625 L 348.445312 536.675781 C 348.675781 536.949219 348.464844 537.371094 348.109375 537.371094 L 341.621094 537.371094 C 340.96875 537.371094 340.464844 536.820312 340.527344 536.191406 C 340.863281 532.628906 339.789062 528.585938 337.28125 524.101562 C 336.945312 523.511719 336.335938 523.109375 335.660156 523.046875 C 335.40625 523.027344 333.722656 523.027344 330.585938 523.046875 C 327.425781 523.070312 325.742188 523.089844 325.507812 523.109375 C 324.835938 523.195312 324.222656 523.59375 323.886719 524.183594 C 321.445312 528.714844 320.410156 532.757812 320.789062 536.316406 C 320.855469 536.949219 320.371094 537.496094 319.71875 537.515625 L 313.230469 537.601562 C 312.871094 537.601562 312.660156 537.179688 312.894531 536.90625 L 315.632812 533.347656 C 316.09375 532.777344 316.453125 532.125 316.726562 531.429688 C 316.980469 530.839844 320.8125 520.4375 328.226562 500.195312 C 328.394531 499.773438 328.691406 499.457031 329.109375 499.3125 C 329.53125 499.140625 329.972656 499.058594 330.417969 499.058594 M 325.214844 518.730469 C 325.066406 519.171875 325.402344 519.636719 325.867188 519.613281 L 334.335938 519.46875 C 334.796875 519.46875 335.113281 519.003906 334.945312 518.5625 L 330.523438 507.0625 C 330.289062 506.472656 329.449219 506.492188 329.257812 507.082031 Z M 325.214844 518.730469 "/>
<path fill-rule="nonzero" fill="rgb(16.862488%, 18.823242%, 49.411011%)" fill-opacity="1" d="M 389.726562 537.410156 L 383.28125 537.453125 C 382.882812 537.453125 382.714844 536.949219 383.027344 536.695312 C 383.511719 536.335938 383.914062 535.515625 384.25 534.253906 C 384.566406 532.96875 384.734375 532.210938 384.734375 531.976562 C 384.820312 518.601562 384.796875 509.0625 384.671875 503.335938 C 384.671875 502.953125 384.566406 502.574219 384.355469 502.238281 L 383.09375 500.109375 C 382.796875 499.605469 383.132812 498.953125 383.722656 498.933594 C 391.707031 498.742188 396.277344 498.824219 397.457031 499.140625 C 407.417969 501.921875 406.46875 513.441406 398.003906 517.65625 C 397.308594 518.011719 397.117188 518.917969 397.601562 519.550781 L 411.589844 537.242188 C 411.800781 537.496094 411.589844 537.855469 411.273438 537.8125 L 406.195312 537.011719 C 405.773438 536.949219 405.375 536.695312 405.121094 536.335938 L 391.222656 517.234375 C 390.738281 516.582031 391.242188 515.65625 392.0625 515.695312 C 396.171875 515.90625 398.71875 514.117188 399.710938 510.347656 C 400.511719 507.335938 398.867188 504.21875 395.9375 503.164062 L 393.265625 502.175781 C 391.285156 501.460938 389.199219 502.933594 389.199219 505.039062 L 389.285156 532.039062 C 389.285156 533.285156 389.535156 534.527344 390.042969 535.683594 C 390.085938 535.769531 390.1875 535.894531 390.359375 536.085938 C 390.757812 536.632812 390.398438 537.410156 389.726562 537.410156 Z M 389.726562 537.410156 "/>
<path fill-rule="nonzero" fill="rgb(16.862488%, 18.823242%, 49.411011%)" fill-opacity="1" d="M 427.40625 499.121094 L 440.820312 499.121094 C 441.558594 499.121094 442.191406 499.667969 442.253906 500.40625 L 442.613281 503.964844 C 442.675781 504.511719 442.042969 504.871094 441.601562 504.535156 C 438.96875 502.574219 435.429688 501.921875 430.964844 502.617188 C 430.207031 502.722656 429.660156 503.375 429.660156 504.132812 C 429.660156 511.296875 429.679688 520.921875 429.722656 533.007812 C 429.722656 534.167969 429.910156 534.925781 430.3125 535.304688 C 430.734375 535.707031 430.984375 536 431.089844 536.230469 C 431.324219 536.800781 430.882812 537.433594 430.269531 537.390625 C 429.300781 537.328125 428.332031 537.304688 427.382812 537.304688 C 426.4375 537.304688 425.46875 537.328125 424.5 537.390625 C 423.867188 537.433594 423.425781 536.800781 423.65625 536.230469 C 423.761719 536 424.035156 535.683594 424.457031 535.304688 C 424.835938 534.925781 425.046875 534.167969 425.046875 533.007812 C 425.089844 520.921875 425.132812 511.296875 425.132812 504.132812 C 425.152344 503.375 424.582031 502.722656 423.847656 502.617188 C 419.382812 501.921875 415.820312 502.554688 413.1875 504.511719 C 412.746094 504.851562 412.136719 504.492188 412.179688 503.945312 L 412.558594 500.386719 C 412.621094 499.648438 413.230469 499.101562 413.96875 499.101562 C 414.851562 499.101562 419.316406 499.101562 427.40625 499.121094 Z M 427.40625 499.121094 "/>
<path fill-rule="nonzero" fill="rgb(16.862488%, 18.823242%, 49.411011%)" fill-opacity="1" d="M 462.214844 498.746094 C 472.539062 498.238281 481.324219 506.554688 481.847656 517.3125 C 482.375 528.058594 474.4375 537.199219 464.121094 537.703125 C 453.796875 538.210938 445.011719 529.890625 444.488281 519.136719 C 443.960938 508.386719 451.898438 499.246094 462.214844 498.746094 M 458.59375 502.742188 C 451.351562 504.890625 447.5625 513.546875 450.089844 522.066406 C 452.636719 530.585938 460.554688 535.746094 467.785156 533.582031 C 475.027344 531.429688 478.816406 522.773438 476.289062 514.257812 C 473.742188 505.734375 465.820312 500.574219 458.59375 502.742188 Z M 458.59375 502.742188 "/>
<path fill-rule="nonzero" fill="rgb(16.862488%, 18.823242%, 49.411011%)" fill-opacity="1" d="M 512.832031 498.933594 L 520.476562 498.933594 C 521.089844 498.933594 521.359375 499.710938 520.878906 500.089844 L 519.972656 500.804688 C 519.191406 501.394531 518.75 502.324219 518.75 503.292969 L 518.75 536.570312 C 518.75 537.136719 518.035156 537.371094 517.695312 536.925781 L 493.8125 506.726562 C 493.496094 506.324219 492.84375 506.554688 492.84375 507.0625 C 492.949219 514.917969 492.96875 523.46875 492.90625 532.695312 C 492.886719 533.261719 493.476562 534.527344 494.632812 536.527344 C 494.886719 536.96875 494.570312 537.515625 494.066406 537.515625 L 487.410156 537.515625 C 486.777344 537.515625 486.484375 536.714844 486.988281 536.316406 L 487.914062 535.578125 C 488.714844 534.945312 489.179688 534 489.179688 532.988281 L 489.179688 503.417969 C 489.179688 502.703125 488.945312 502.027344 488.503906 501.460938 L 487.347656 499.984375 C 487.011719 499.5625 487.324219 498.953125 487.851562 498.953125 L 492.066406 498.953125 C 492.863281 498.953125 493.621094 499.3125 494.109375 499.941406 L 514.179688 525.34375 C 514.453125 525.679688 515 525.492188 515 525.046875 L 515 503.753906 C 515 502.933594 514.726562 502.113281 514.199219 501.480469 L 512.601562 499.4375 C 512.429688 499.226562 512.578125 498.933594 512.832031 498.933594 Z M 512.832031 498.933594 "/>
<path fill-rule="nonzero" fill="rgb(16.862488%, 18.823242%, 49.411011%)" fill-opacity="1" d="M 246.253906 505.417969 C 260.472656 505.398438 257.523438 521.40625 257.796875 530.292969 C 257.839844 531.429688 256.910156 532.378906 255.773438 532.378906 L 254.722656 532.378906 C 253.625 532.378906 252.78125 531.429688 252.910156 530.335938 C 253.140625 528.398438 253.183594 527.089844 253.058594 526.394531 C 252.910156 525.679688 252.277344 525.152344 251.539062 525.132812 C 249.8125 525.113281 248.066406 525.089844 246.296875 525.113281 C 244.546875 525.113281 242.800781 525.132812 241.074219 525.152344 C 240.335938 525.175781 239.703125 525.699219 239.558594 526.417969 C 239.429688 527.113281 239.492188 528.417969 239.726562 530.355469 C 239.851562 531.449219 239.007812 532.398438 237.914062 532.417969 L 236.859375 532.417969 C 235.722656 532.417969 234.796875 531.492188 234.839844 530.335938 C 235.070312 521.445312 232.058594 505.460938 246.253906 505.417969 M 240.734375 520.5625 L 251.941406 520.4375 C 252.59375 520.414062 253.121094 519.886719 253.097656 519.234375 L 253.078125 516.980469 C 253.035156 513.023438 250.128906 509.839844 246.613281 509.882812 L 245.8125 509.882812 C 242.296875 509.925781 239.472656 513.191406 239.515625 517.148438 L 239.535156 519.402344 C 239.558594 520.054688 240.082031 520.582031 240.734375 520.5625 Z M 240.734375 520.5625 "/>
<path fill-rule="nonzero" fill="rgb(16.862488%, 18.823242%, 49.411011%)" fill-opacity="1" d="M 553.859375 519.488281 C 554.28125 527.175781 561.882812 530.777344 568.246094 526.015625 C 569.109375 525.386719 570.308594 525.53125 570.984375 526.375 L 571.910156 527.574219 C 572.476562 528.269531 572.265625 529.324219 571.488281 529.746094 C 561.167969 535.410156 549.816406 532.378906 549.121094 519.742188 C 548.402344 507.125 559.355469 502.828125 570.222656 507.3125 C 571.066406 507.652344 571.382812 508.660156 570.898438 509.421875 L 570.117188 510.726562 C 569.527344 511.632812 568.351562 511.925781 567.421875 511.378906 C 560.578125 507.355469 553.4375 511.78125 553.859375 519.488281 Z M 553.859375 519.488281 "/>
<path fill-rule="nonzero" fill="rgb(16.862488%, 18.823242%, 49.411011%)" fill-opacity="1" d="M 268.894531 513.757812 C 275.402344 509.105469 281.847656 512.769531 281.933594 520.792969 C 281.996094 526.480469 281.996094 529.851562 281.976562 530.882812 C 281.953125 531.765625 281.21875 532.484375 280.3125 532.484375 L 278.984375 532.484375 C 278.226562 532.484375 277.636719 531.894531 277.613281 531.15625 L 277.402344 520.140625 C 277.339844 517.527344 274.917969 515.632812 272.390625 516.203125 L 272.351562 516.203125 C 269.757812 516.558594 267.84375 518.773438 267.820312 521.363281 L 267.800781 530.882812 C 267.800781 531.789062 267.0625 532.523438 266.15625 532.523438 L 264.957031 532.523438 C 264.070312 532.523438 263.355469 531.808594 263.355469 530.902344 L 263.355469 513.273438 C 263.355469 512.558594 263.882812 511.949219 264.597656 511.882812 C 265.757812 511.78125 266.601562 512.285156 267.167969 513.359375 C 267.484375 513.992188 268.304688 514.179688 268.894531 513.757812 Z M 268.894531 513.757812 "/>
<path fill-rule="nonzero" fill="rgb(16.862488%, 18.823242%, 49.411011%)" fill-opacity="1" d="M 595.949219 523.167969 C 596.003906 528.269531 591.898438 532.441406 586.785156 532.492188 L 584.300781 532.515625 C 579.195312 532.566406 575.027344 528.460938 574.972656 523.347656 L 574.953125 521.203125 C 574.898438 516.097656 579.007812 511.925781 584.117188 511.875 L 586.605469 511.851562 C 591.707031 511.800781 595.878906 515.90625 595.929688 521.019531 L 595.949219 523.167969 M 591.601562 522.183594 C 591.601562 518.792969 588.84375 516.035156 585.453125 516.035156 C 582.0625 516.035156 579.300781 518.792969 579.300781 522.183594 C 579.300781 525.574219 582.0625 528.332031 585.453125 528.332031 C 588.84375 528.332031 591.601562 525.574219 591.601562 522.183594 Z M 591.601562 522.183594 "/>
<path fill-rule="nonzero" fill="rgb(16.862488%, 18.823242%, 49.411011%)" fill-opacity="1" d="M 605.945312 513.90625 C 609.335938 510.914062 612.746094 510.957031 616.160156 514.03125 C 616.726562 514.558594 617.570312 514.664062 618.246094 514.308594 C 618.496094 514.179688 618.898438 513.84375 619.425781 513.316406 C 623.320312 509.398438 629.828125 512.644531 631.808594 516.625 C 631.996094 516.980469 632.082031 517.382812 632.101562 517.761719 L 632.480469 530.734375 C 632.523438 531.597656 631.808594 532.335938 630.945312 532.335938 L 629.175781 532.335938 C 628.375 532.335938 627.703125 531.683594 627.722656 530.882812 L 627.808594 520.097656 C 627.828125 517.78125 625.828125 515.96875 623.53125 516.179688 L 623.089844 516.222656 C 620.605469 516.371094 618.644531 518.433594 618.625 520.921875 L 618.539062 530.988281 C 618.519531 531.808594 617.867188 532.460938 617.042969 532.460938 L 615.949219 532.460938 C 614.9375 532.460938 614.117188 531.640625 614.117188 530.652344 L 614.136719 520.078125 C 614.136719 517.675781 611.988281 515.84375 609.609375 516.222656 L 609.230469 516.265625 C 606.746094 516.558594 604.890625 518.667969 604.890625 521.171875 L 604.890625 530.820312 C 604.890625 531.703125 604.175781 532.417969 603.289062 532.417969 L 602.046875 532.417969 C 601.144531 532.417969 600.40625 531.683594 600.40625 530.777344 L 600.40625 513.359375 C 600.40625 512.601562 601.015625 511.96875 601.773438 511.925781 C 602.976562 511.882812 603.859375 512.433594 604.40625 513.589844 C 604.679688 514.179688 605.460938 514.347656 605.945312 513.90625 Z M 605.945312 513.90625 "/>
<path fill-rule="nonzero" fill="rgb(16.862488%, 18.823242%, 49.411011%)" fill-opacity="1" d="M 642.042969 533.386719 L 642.042969 538.0625 C 642.042969 538.90625 641.347656 539.582031 640.507812 539.582031 L 639.347656 539.582031 C 638.441406 539.582031 637.707031 538.84375 637.707031 537.9375 L 637.707031 513.570312 C 637.707031 512.980469 638.023438 512.433594 638.546875 512.160156 C 639.75 511.546875 640.78125 511.988281 641.601562 513.507812 C 641.917969 514.097656 642.695312 514.265625 643.222656 513.863281 C 652.722656 506.703125 661.042969 518.878906 655.964844 527.554688 C 653.417969 531.914062 649.332031 533.429688 643.6875 532.082031 C 642.84375 531.894531 642.042969 532.523438 642.042969 533.386719 M 644.023438 528.542969 C 654.890625 529.996094 655.734375 516.644531 647.414062 515.738281 C 646.574219 515.65625 645.75 515.90625 645.097656 516.457031 C 642.214844 518.960938 641.265625 522.480469 642.277344 526.964844 C 642.464844 527.808594 643.160156 528.4375 644.023438 528.542969 Z M 644.023438 528.542969 "/>
<path fill-rule="nonzero" fill="rgb(16.862488%, 18.823242%, 49.411011%)" fill-opacity="1" d="M 675.554688 530.460938 C 670.984375 533.492188 666.917969 533.347656 663.378906 529.996094 C 660.242188 527.027344 660.050781 519.296875 662.347656 516.140625 C 665.296875 512.054688 669.488281 510.894531 674.902344 512.683594 C 675.617188 512.917969 676.417969 512.894531 677.132812 512.601562 C 677.871094 512.285156 678.460938 512.117188 678.902344 512.09375 C 679.765625 512.074219 680.460938 512.75 680.460938 513.613281 L 680.398438 526.566406 C 680.398438 527.34375 680.988281 527.996094 681.746094 528.058594 C 681.996094 528.082031 682.25 528.058594 682.484375 527.996094 C 683.410156 527.742188 684.378906 528.207031 684.734375 529.09375 C 685.117188 529.976562 684.800781 530.988281 683.976562 531.492188 C 681.09375 533.261719 678.839844 533.03125 677.261719 530.777344 C 676.878906 530.230469 676.121094 530.082031 675.554688 530.460938 M 673.699219 516.222656 C 666.835938 513.570312 663.296875 522.035156 666.8125 526.671875 C 667.234375 527.238281 667.824219 527.660156 668.476562 527.871094 C 672.835938 529.324219 675.425781 527.28125 676.226562 521.742188 C 676.585938 519.214844 675.53125 516.917969 673.699219 516.222656 Z M 673.699219 516.222656 "/>
<path fill-rule="nonzero" fill="rgb(16.862488%, 18.823242%, 49.411011%)" fill-opacity="1" d="M 691.601562 513.339844 C 691.917969 513.96875 692.738281 514.160156 693.308594 513.738281 C 699.773438 509.125 706.175781 512.769531 706.238281 520.730469 C 706.304688 526.375 706.304688 529.722656 706.28125 530.757812 C 706.261719 531.640625 705.523438 532.335938 704.617188 532.335938 L 703.3125 532.335938 C 702.574219 532.335938 701.964844 531.746094 701.945312 531.007812 L 701.753906 520.078125 C 701.710938 517.488281 699.289062 515.589844 696.785156 516.160156 L 696.742188 516.160156 C 694.171875 516.519531 692.253906 518.707031 692.234375 521.277344 L 692.214844 530.734375 C 692.214844 531.621094 691.476562 532.355469 690.570312 532.355469 L 689.390625 532.355469 C 688.507812 532.355469 687.789062 531.640625 687.789062 530.734375 L 687.8125 513.253906 C 687.8125 512.539062 688.359375 511.949219 689.054688 511.863281 C 690.191406 511.78125 691.054688 512.265625 691.601562 513.339844 Z M 691.601562 513.339844 "/>
<path fill-rule="nonzero" fill="rgb(16.862488%, 18.823242%, 49.411011%)" fill-opacity="1" d="M 724.144531 529.492188 C 724.121094 529.492188 723.574219 529.765625 722.5 530.335938 C 718.898438 532.1875 714.453125 531.03125 712.644531 528.25 C 710.621094 525.152344 711.378906 517.214844 711.441406 513.71875 C 711.464844 512.707031 712.304688 511.882812 713.316406 511.882812 L 714.242188 511.882812 C 715.042969 511.882812 715.695312 512.539062 715.71875 513.359375 L 715.78125 522.859375 C 715.800781 525.214844 717.84375 527.050781 720.183594 526.796875 L 720.644531 526.753906 C 723.046875 526.628906 724.921875 524.667969 724.921875 522.269531 L 724.941406 513.507812 C 724.941406 512.726562 725.574219 512.09375 726.355469 512.09375 L 727.785156 512.09375 C 728.628906 512.09375 729.304688 512.769531 729.324219 513.613281 C 729.511719 522.710938 729.40625 529.070312 729.050781 532.714844 C 728.398438 539.347656 720.605469 540.488281 715.59375 539.308594 C 714.789062 539.117188 714.222656 538.402344 714.222656 537.578125 L 714.222656 535.914062 C 714.222656 535.261719 714.832031 534.777344 715.464844 534.945312 C 719.71875 536.019531 724.144531 535.558594 725.175781 530.652344 C 725.320312 530.019531 724.796875 529.429688 724.144531 529.492188 Z M 724.144531 529.492188 "/>
<path fill-rule="nonzero" fill="rgb(90.98053%, 18.431091%, 49.411011%)" fill-opacity="1" d="M 334.019531 549.984375 C 324.117188 546.132812 321.214844 556.851562 328.5 562.222656 C 330.394531 563.613281 333.050781 562.75 333.261719 560.664062 C 333.324219 560.136719 333.195312 559.441406 332.882812 558.558594 C 332.648438 557.90625 333.15625 557.210938 333.871094 557.210938 L 334.753906 557.210938 C 335.40625 557.210938 335.933594 557.757812 335.914062 558.410156 C 335.851562 560.242188 335.785156 561.296875 335.722656 561.570312 C 335.238281 563.695312 332.734375 565.023438 329.972656 564.621094 C 317.085938 562.789062 320.347656 543.855469 334.585938 547.457031 C 334.988281 547.5625 335.261719 547.921875 335.261719 548.34375 L 335.261719 549.144531 C 335.261719 549.796875 334.609375 550.21875 334.019531 549.984375 Z M 334.019531 549.984375 "/>
<path fill-rule="nonzero" fill="rgb(90.98053%, 18.431091%, 49.411011%)" fill-opacity="1" d="M 341.074219 547.078125 C 344.359375 546.761719 346.71875 547.101562 348.128906 548.109375 C 350.65625 549.902344 350.46875 552.195312 347.5625 555.039062 C 346.972656 555.609375 346.90625 556.535156 347.390625 557.210938 L 352.34375 564.035156 C 352.46875 564.203125 352.382812 564.453125 352.171875 564.496094 L 350.425781 564.855469 C 350.339844 564.875 350.257812 564.855469 350.214844 564.792969 L 343.894531 556.113281 C 343.578125 555.671875 343.789062 555.039062 344.339844 554.894531 C 345.8125 554.511719 346.65625 553.777344 346.84375 552.679688 C 347.246094 550.511719 346.488281 549.289062 344.589844 548.972656 C 343.75 548.847656 342.96875 549.5 342.96875 550.363281 L 342.96875 563.359375 C 342.96875 563.96875 342.464844 564.476562 341.832031 564.476562 L 341.199219 564.476562 C 340.714844 564.476562 340.335938 564.097656 340.335938 563.632812 L 340.335938 547.898438 C 340.335938 547.480469 340.652344 547.121094 341.074219 547.078125 Z M 341.074219 547.078125 "/>
<path fill-rule="nonzero" fill="rgb(90.98053%, 18.431091%, 49.411011%)" fill-opacity="1" d="M 361.035156 547.113281 C 365.675781 546.59375 369.886719 550.046875 370.421875 554.855469 C 370.960938 559.652344 367.632812 563.96875 362.984375 564.484375 C 358.34375 565.003906 354.132812 561.546875 353.59375 556.742188 C 353.058594 551.945312 356.386719 547.625 361.035156 547.113281 M 360.183594 549.175781 C 357.058594 550.070312 355.355469 553.753906 356.402344 557.414062 C 357.4375 561.0625 360.828125 563.316406 363.960938 562.421875 C 367.085938 561.527344 368.789062 557.839844 367.742188 554.183594 C 366.707031 550.53125 363.316406 548.277344 360.183594 549.175781 Z M 360.183594 549.175781 "/>
<path fill-rule="nonzero" fill="rgb(90.98053%, 18.431091%, 49.411011%)" fill-opacity="1" d="M 393.265625 547.183594 C 396.972656 546.550781 399.644531 547.164062 401.308594 549.015625 C 401.835938 549.605469 402.109375 550.386719 402.046875 551.1875 C 401.835938 554.472656 399.921875 556.09375 396.296875 556.070312 C 395.582031 556.050781 395.011719 556.621094 395.011719 557.335938 L 395.011719 563.402344 C 395.011719 563.484375 394.96875 563.550781 394.90625 563.589844 L 393.390625 564.707031 C 393.011719 564.980469 392.484375 564.707031 392.484375 564.242188 L 392.484375 548.109375 C 392.484375 547.667969 392.820312 547.269531 393.265625 547.183594 M 394.84375 551.628906 C 394.78125 552.597656 394.800781 553.207031 394.90625 553.503906 C 395.140625 554.175781 395.835938 554.617188 396.570312 554.511719 C 398.382812 554.28125 399.328125 553.398438 399.414062 551.878906 C 399.5 550.34375 398.65625 549.375 396.867188 548.933594 C 396.148438 548.761719 395.414062 549.101562 395.097656 549.773438 C 394.96875 550.027344 394.886719 550.660156 394.84375 551.628906 Z M 394.84375 551.628906 "/>
<path fill-rule="nonzero" fill="rgb(90.98053%, 18.431091%, 49.411011%)" fill-opacity="1" d="M 386.417969 564.582031 C 385.554688 563.675781 383.429688 563.589844 380.015625 564.328125 C 376.394531 565.105469 374.035156 561.335938 374.246094 557.734375 C 374.394531 554.765625 374.289062 551.605469 373.886719 548.238281 C 373.824219 547.648438 374.289062 547.121094 374.898438 547.121094 L 375.867188 547.121094 C 376.351562 547.121094 376.730469 547.519531 376.730469 548.003906 L 376.585938 558.664062 C 376.542969 560.832031 378.375 562.558594 380.523438 562.433594 L 380.941406 562.410156 C 383.050781 562.265625 384.671875 560.472656 384.628906 558.367188 L 384.398438 548.003906 C 384.375 547.5 384.777344 547.101562 385.28125 547.101562 L 386.039062 547.101562 C 386.546875 547.101562 386.96875 547.519531 386.96875 548.027344 L 386.96875 564.371094 C 386.96875 564.664062 386.609375 564.792969 386.417969 564.582031 Z M 386.417969 564.582031 "/>
<path fill-rule="nonzero" fill="rgb(90.98053%, 18.431091%, 49.411011%)" fill-opacity="1" d="M 414.285156 563.234375 C 431.324219 557.441406 449.5625 554.851562 469.023438 555.503906 C 485.558594 556.050781 501.542969 559.335938 516.960938 565.316406 C 517.273438 565.445312 517.421875 565.78125 517.316406 566.054688 L 517.316406 566.097656 C 517.234375 566.414062 516.894531 566.601562 516.558594 566.519531 C 482.585938 558.324219 449.4375 559.800781 416.769531 570.921875 C 399.710938 576.710938 381.46875 579.28125 362.007812 578.628906 C 345.476562 578.082031 329.488281 574.816406 314.074219 568.8125 C 313.777344 568.6875 313.609375 568.371094 313.714844 568.078125 L 313.714844 568.035156 C 313.820312 567.71875 314.136719 567.550781 314.472656 567.613281 C 348.445312 575.828125 381.597656 574.351562 414.285156 563.234375 Z M 414.285156 563.234375 "/>
</svg>
