<?xml version="1.0" encoding="UTF-8"?>
<svg data-original-cmyk-pdf="/home/runner/workspace/uploads/original_f01f33533302df2df1e8b033cb1b939d.pdf" data-cmyk-preserved="true" xmlns="http://www.w3.org/2000/svg" xmlns:xlink="http://www.w3.org/1999/xlink" width="841.89" height="595.276" viewBox="0 0 841.89 595.276">
<defs>
<clipPath id="clip-0">
<path clip-rule="nonzero" d="M 520 436 L 638 436 L 638 541.648438 L 520 541.648438 Z M 520 436 "/ fill="#000000">
</clipPath>
<clipPath id="clip-1">
<path clip-rule="nonzero" d="M 140 436 L 245 436 L 245 541.648438 L 140 541.648438 Z M 140 436 "/ fill="#000000">
</clipPath>
<clipPath id="clip-2">
<path clip-rule="nonzero" d="M 198 436 L 302 436 L 302 541.648438 L 198 541.648438 Z M 198 436 "/ fill="#000000">
</clipPath>
<clipPath id="clip-3">
<path clip-rule="nonzero" d="M 256 436 L 359 436 L 359 541.648438 L 256 541.648438 Z M 256 436 "/ fill="#000000">
</clipPath>
<clipPath id="clip-4">
<path clip-rule="nonzero" d="M 338 462 L 403 462 L 403 541.648438 L 338 541.648438 Z M 338 462 "/ fill="#000000">
</clipPath>
<clipPath id="clip-5">
<path clip-rule="nonzero" d="M 408 462 L 466 462 L 466 541.648438 L 408 541.648438 Z M 408 462 "/ fill="#000000">
</clipPath>
<clipPath id="clip-6">
<path clip-rule="nonzero" d="M 446 436 L 567 436 L 567 541.648438 L 446 541.648438 Z M 446 436 "/ fill="#000000">
</clipPath>
<clipPath id="clip-7">
<path clip-rule="nonzero" d="M 591 436 L 701 436 L 701 541.648438 L 591 541.648438 Z M 591 436 "/ fill="#000000">
</clipPath>
<clipPath id="clip-8">
<path clip-rule="nonzero" d="M 17.539062 52.925781 L 823.863281 52.925781 L 823.863281 541.648438 L 17.539062 541.648438 Z M 17.539062 52.925781 "/>
</clipPath>
</defs>
<g clip-path="url(#clip-0)">
<path fill="#000000" d="M -0.00158125 -0.0002375 L -0.00158125 11.663825 L 6.146856 11.663825 L 6.146856 59.812263 L -0.00158125 59.812263 L -0.00158125 71.515388 L 18.193731 71.515388 L 37.865606 30.202888 L 37.865606 59.812263 L 31.760138 59.812263 L 31.760138 71.515388 L 57.346075 71.515388 L 57.346075 59.812263 L 51.244513 59.812263 L 51.244513 -0.0002375 L 38.978888 -0.0002375 L 19.478888 39.995856 L 19.478888 11.663825 L 25.58045 11.663825 L 25.58045 -0.0002375 Z M -0.00158125 -0.0002375 " transform="matrix(1, 0, 0, -1, 550.4508, 537.6482)"/>
</g>
<path fill-rule="evenodd" fill="rgb(6.269836%, 13.639832%, 30.566406%)" fill-opacity="1" d="M 550.449219 537.648438 L 550.449219 525.984375 L 556.597656 525.984375 L 556.597656 477.835938 L 550.449219 477.835938 L 550.449219 466.132812 L 568.644531 466.132812 L 588.316406 507.445312 L 588.316406 477.835938 L 582.210938 477.835938 L 582.210938 466.132812 L 607.796875 466.132812 L 607.796875 477.835938 L 601.695312 477.835938 L 601.695312 537.648438 L 589.429688 537.648438 L 569.929688 497.652344 L 569.929688 525.984375 L 576.03125 525.984375 L 576.03125 537.648438 Z M 550.449219 537.648438 "/>
<g clip-path="url(#clip-1)">
<path fill="#000000" d="M -0.00183125 -0.00108125 L 7.263794 6.229388 L 37.0802 6.229388 L 44.627075 -0.204206 L 44.627075 -13.829206 L 31.248169 -13.829206 L 31.248169 -5.473737 L 13.380981 -5.473737 L 13.380981 -22.501081 L 37.002075 -22.501081 L 44.627075 -29.212019 L 44.627075 -56.477644 L 34.838013 -65.286237 L 8.86145 -65.286237 L -0.00183125 -57.641706 L -0.00183125 -44.977644 L 13.380981 -44.977644 L 13.380981 -53.622175 L 31.248169 -53.622175 L 31.248169 -34.083112 L 7.623169 -34.083112 L -0.00183125 -27.415144 Z M -0.00183125 -0.00108125 " transform="matrix(1, 0, 0, -1, 169.9198, 472.3622)"/>
</g>
<path fill-rule="evenodd" fill="rgb(6.269836%, 13.639832%, 30.566406%)" fill-opacity="1" d="M 169.917969 472.363281 L 177.183594 466.132812 L 207 466.132812 L 214.546875 472.566406 L 214.546875 486.191406 L 201.167969 486.191406 L 201.167969 477.835938 L 183.300781 477.835938 L 183.300781 494.863281 L 206.921875 494.863281 L 214.546875 501.574219 L 214.546875 528.839844 L 204.757812 537.648438 L 178.78125 537.648438 L 169.917969 530.003906 L 169.917969 517.339844 L 183.300781 517.339844 L 183.300781 525.984375 L 201.167969 525.984375 L 201.167969 506.445312 L 177.542969 506.445312 L 169.917969 499.777344 Z M 169.917969 472.363281 "/>
<g clip-path="url(#clip-2)">
<path fill="#000000" d="M -0.00158125 0.00085625 L 8.408575 7.395388 L 35.607794 7.395388 L 43.510137 0.399294 L 43.510137 -14.393675 L 30.131231 -14.393675 L 30.131231 -4.307737 L 13.377325 -4.307737 L 13.377325 -52.456175 L 30.131231 -52.456175 L 30.131231 -42.167112 L 43.510137 -42.167112 L 43.510137 -57.807737 L 36.529669 -64.120237 L 8.314825 -64.120237 L -0.00158125 -57.038206 Z M -0.00158125 0.00085625 " transform="matrix(1, 0, 0, -1, 228.3258, 473.5282)"/>
</g>
<path fill-rule="evenodd" fill="rgb(6.269836%, 13.639832%, 30.566406%)" fill-opacity="1" d="M 228.324219 473.527344 L 236.734375 466.132812 L 263.933594 466.132812 L 271.835938 473.128906 L 271.835938 487.921875 L 258.457031 487.921875 L 258.457031 477.835938 L 241.703125 477.835938 L 241.703125 525.984375 L 258.457031 525.984375 L 258.457031 515.695312 L 271.835938 515.695312 L 271.835938 531.335938 L 264.855469 537.648438 L 236.640625 537.648438 L 228.324219 530.566406 Z M 228.324219 473.527344 "/>
<g clip-path="url(#clip-3)">
<path fill="#000000" d="M 315.71875 117.440063 L 298.964844 117.440063 L 298.964844 69.291625 L 315.71875 69.291625 Z M 285.585938 65.354125 L 285.585938 121.416625 L 294.273438 129.143188 L 320.5 129.143188 L 329.097656 121.416625 L 329.097656 65.354125 L 320.328125 57.627563 L 293.804688 57.627563 Z M 285.585938 65.354125 " transform="matrix(1, 0, 0, -1, 0, 595.276)"/>
</g>
<path fill-rule="evenodd" fill="rgb(6.269836%, 13.639832%, 30.566406%)" fill-opacity="1" d="M 315.71875 477.835938 L 298.964844 477.835938 L 298.964844 525.984375 L 315.71875 525.984375 Z M 285.585938 529.921875 L 285.585938 473.859375 L 294.273438 466.132812 L 320.5 466.132812 L 329.097656 473.859375 L 329.097656 529.921875 L 320.328125 537.648438 L 293.804688 537.648438 Z M 285.585938 529.921875 "/>
<g clip-path="url(#clip-4)">
<path fill="#000000" d="M 0.000225 0.00085625 L 0.000225 25.520388 L 55.76585 25.520388 L 55.76585 0.00085625 L 42.855694 0.00085625 L 42.855694 13.817263 L 34.574444 13.817263 L 34.574444 -34.331175 L 40.6721 -34.331175 L 40.6721 -45.995237 L 15.074444 -45.995237 L 15.074444 -34.331175 L 21.191631 -34.331175 L 21.191631 13.817263 L 12.910381 13.817263 L 12.910381 0.00085625 Z M 0.000225 0.00085625 " transform="matrix(1, 0, 0, -1, 342.8279, 491.6532)"/>
</g>
<path fill-rule="evenodd" fill="rgb(6.269836%, 13.639832%, 30.566406%)" fill-opacity="1" d="M 342.828125 491.652344 L 342.828125 466.132812 L 398.59375 466.132812 L 398.59375 491.652344 L 385.683594 491.652344 L 385.683594 477.835938 L 377.402344 477.835938 L 377.402344 525.984375 L 383.5 525.984375 L 383.5 537.648438 L 357.902344 537.648438 L 357.902344 525.984375 L 364.019531 525.984375 L 364.019531 477.835938 L 355.738281 477.835938 L 355.738281 491.652344 Z M 342.828125 491.652344 "/>
<g clip-path="url(#clip-5)">
<path fill="#000000" d="M 0.00069375 -0.0006125 L 25.582725 -0.0006125 L 25.582725 -11.703737 L 19.481162 -11.703737 L 19.481162 -59.852175 L 36.250694 -59.852175 L 36.250694 -43.125612 L 49.6296 -43.125612 L 49.6296 -71.516237 L 0.00069375 -71.516237 L 0.00069375 -59.852175 L 6.149131 -59.852175 L 6.149131 -11.703737 L 0.00069375 -11.703737 Z M 0.00069375 -0.0006125 " transform="matrix(1, 0, 0, -1, 412.3079, 466.1322)"/>
</g>
<path fill-rule="evenodd" fill="rgb(6.269836%, 13.639832%, 30.566406%)" fill-opacity="1" d="M 412.308594 466.132812 L 437.890625 466.132812 L 437.890625 477.835938 L 431.789062 477.835938 L 431.789062 525.984375 L 448.558594 525.984375 L 448.558594 509.257812 L 461.9375 509.257812 L 461.9375 537.648438 L 412.308594 537.648438 L 412.308594 525.984375 L 418.457031 525.984375 L 418.457031 477.835938 L 412.308594 477.835938 Z M 412.308594 466.132812 "/>
<g clip-path="url(#clip-6)">
<path fill="#000000" d="M -0.00049375 -0.00005 L -6.715337 -21.640675 L 6.288569 -21.640675 Z M -30.148931 -37.953175 L -24.578619 -37.953175 L -6.195806 21.898388 L 5.929194 21.898388 L 24.171381 -37.953175 L 30.886225 -37.953175 L 30.886225 -49.617237 L 4.597163 -49.617237 L 4.597163 -37.953175 L 11.21435 -37.953175 L 9.694819 -33.179737 L -10.164556 -33.179737 L -11.574712 -37.953175 L -4.547369 -37.953175 L -4.547369 -49.617237 L -30.148931 -49.617237 Z M -30.148931 -37.953175 " transform="matrix(1, 0, 0, -1, 505.8169, 488.0312)"/>
</g>
<path fill-rule="evenodd" fill="rgb(6.269836%, 13.639832%, 30.566406%)" fill-opacity="1" d="M 505.816406 488.03125 L 499.101562 509.671875 L 512.105469 509.671875 Z M 475.667969 525.984375 L 481.238281 525.984375 L 499.621094 466.132812 L 511.746094 466.132812 L 529.988281 525.984375 L 536.703125 525.984375 L 536.703125 537.648438 L 510.414062 537.648438 L 510.414062 525.984375 L 517.03125 525.984375 L 515.511719 521.210938 L 495.652344 521.210938 L 494.242188 525.984375 L 501.269531 525.984375 L 501.269531 537.648438 L 475.667969 537.648438 Z M 475.667969 525.984375 "/>
<g clip-path="url(#clip-7)">
<path fill="#000000" d="M 657.777344 117.440063 L 641.011719 117.440063 L 641.011719 69.291625 L 657.777344 69.291625 Z M 621.527344 129.143188 L 664.175781 129.143188 L 671.15625 123.393188 L 671.15625 64.256469 L 663.253906 57.627563 L 621.527344 57.627563 L 621.527344 69.291625 L 627.675781 69.291625 L 627.675781 117.440063 L 621.527344 117.440063 Z M 621.527344 129.143188 " transform="matrix(1, 0, 0, -1, 0, 595.276)"/>
</g>
<path fill-rule="evenodd" fill="rgb(6.269836%, 13.639832%, 30.566406%)" fill-opacity="1" d="M 657.777344 477.835938 L 641.011719 477.835938 L 641.011719 525.984375 L 657.777344 525.984375 Z M 621.527344 466.132812 L 664.175781 466.132812 L 671.15625 471.882812 L 671.15625 531.019531 L 663.253906 537.648438 L 621.527344 537.648438 L 621.527344 525.984375 L 627.675781 525.984375 L 627.675781 477.835938 L 621.527344 477.835938 Z M 621.527344 466.132812 "/>
<path fill="none" d="M -0.000825 0.0016375 L -0.000825 80.8532 C 24.631988 105.263356 49.260894 127.310231 73.971831 146.989919 C 73.971831 133.482106 73.971831 119.9782 73.971831 106.564138 C 73.971831 93.1032 73.971831 79.599294 73.971831 66.138356 C 68.268706 61.681325 62.569488 57.2282 56.866363 52.771169 L 56.866363 96.5407 C 53.143706 93.614919 49.499175 90.411794 45.854644 87.1657 C 45.854644 61.7282 45.854644 36.294606 45.854644 10.907888 C 45.854644 -14.482737 45.85855 -39.916331 45.85855 -65.30305 C 48.549956 -62.935862 51.241363 -60.61555 53.936675 -58.295237 L 53.936675 -95.193675 C 42.60855 -105.033519 31.284331 -115.010081 20.038238 -125.685862 C 20.038238 -113.435862 20.038238 -101.135081 20.038238 -88.787425 C 22.729644 -86.189769 25.42105 -83.545237 28.116363 -80.8968 C 28.116363 -55.510081 28.116363 -30.076487 28.116363 -4.689769 C 28.112456 20.700856 28.116363 46.13445 28.116363 71.568044 C 24.393706 67.950856 20.749175 64.376638 17.10855 60.849294 C 17.10855 46.2282 17.10855 31.653981 17.10855 17.079763 Z M -0.000825 0.0016375 " transform="matrix(1, 0, 0, -1, 95.4227, 293.4782)"/>
<path fill-rule="evenodd" fill="rgb(6.269836%, 13.639832%, 30.566406%)" fill-opacity="1" d="M 95.421875 293.476562 L 95.421875 212.625 C 120.054688 188.214844 144.683594 166.167969 169.394531 146.488281 C 169.394531 159.996094 169.394531 173.5 169.394531 186.914062 C 169.394531 200.375 169.394531 213.878906 169.394531 227.339844 C 163.691406 231.796875 157.992188 236.25 152.289062 240.707031 L 152.289062 196.9375 C 148.566406 199.863281 144.921875 203.066406 141.277344 206.3125 C 141.277344 231.75 141.277344 257.183594 141.277344 282.570312 C 141.277344 307.960938 141.28125 333.394531 141.28125 358.78125 C 143.972656 356.414062 146.664062 354.09375 149.359375 351.773438 L 149.359375 388.671875 C 138.03125 398.511719 126.707031 408.488281 115.460938 419.164062 C 115.460938 406.914062 115.460938 394.613281 115.460938 382.265625 C 118.152344 379.667969 120.84375 377.023438 123.539062 374.375 C 123.539062 348.988281 123.539062 323.554688 123.539062 298.167969 C 123.535156 272.777344 123.539062 247.34375 123.539062 221.910156 C 119.816406 225.527344 116.171875 229.101562 112.53125 232.628906 C 112.53125 247.25 112.53125 261.824219 112.53125 276.398438 Z M 95.421875 293.476562 "/>
<g clip-path="url(#clip-8)">
<path fill="none" d="M 0.0002 0.00116875 C 3.168169 3.157419 6.336137 6.266794 9.582231 9.419138 C 22.730669 -6.174612 35.879106 -21.908987 49.105669 -39.033987 C 52.429887 -50.127737 55.758012 -61.217581 59.164262 -72.405081 C 59.164262 -86.7918 59.488481 -101.940237 59.488481 -116.283987 C 53.547075 -108.623831 47.285356 -100.205862 41.422075 -92.643362 C 41.422075 -83.82305 41.422075 -75.002737 41.422075 -66.186331 C 33.5002 -56.022269 25.582231 -46.690237 17.664262 -37.268362 L 17.664262 -91.155081 C 28.117387 -103.549612 38.570512 -116.358206 49.027544 -129.862112 C 52.351762 -141.280081 55.758012 -152.744925 59.164262 -164.209769 L 59.164262 -250.537894 C 54.804887 -254.205862 50.453325 -257.873831 46.172075 -261.631644 C 34.691606 -246.733206 23.207231 -233.13555 11.722856 -219.580862 C 7.761919 -207.002737 3.883012 -194.705862 0.0002 -182.498831 C 0.0002 -169.131644 0.0002 -155.764456 0.0002 -142.397269 C 5.863481 -148.756644 11.722856 -155.299612 17.664262 -162.307425 L 17.664262 -189.690237 C 25.582231 -199.065237 33.5002 -208.444144 41.422075 -218.608206 C 41.422075 -208.303519 41.422075 -197.951956 41.422075 -187.651175 C 41.422075 -177.346487 41.422075 -167.0418 41.422075 -156.737112 C 30.96895 -143.6043 20.515825 -131.209769 10.058794 -118.819144 C 6.652544 -108.049612 3.328325 -97.420706 0.0002 -86.7918 C 0.0002 -72.311331 0.0002 -57.830862 0.0002 -43.397269 C 0.0002 -28.963675 0.0002 -14.483206 0.0002 0.00116875 Z M -125.136519 125.360544 C -113.808394 118.493356 -102.484175 110.602731 -91.15605 102.758981 C -91.159956 90.368356 -91.15605 78.0207 -91.15605 65.673044 C -93.929488 67.575388 -96.6248 69.434763 -99.316206 71.337106 C -97.335738 51.055856 -95.195113 30.680856 -93.21855 10.442575 C -91.238081 -9.795706 -89.097456 -30.170706 -87.038863 -50.63555 C -84.585738 -27.522269 -82.128706 -4.408987 -79.671675 18.704294 C -77.214644 41.86445 -74.761519 64.977731 -72.308394 88.137888 C -69.933394 86.282419 -67.476363 84.380075 -65.023238 82.430856 C -62.2498 54.719919 -59.476363 26.966013 -56.706831 -0.744925 C -53.933394 -28.451956 -51.081831 -56.252737 -48.230269 -84.053519 C -46.491988 -66.51055 -44.667769 -48.920706 -42.925581 -31.377737 C -41.183394 -13.830862 -39.359175 3.618356 -37.538863 20.930856 C -40.390425 23.716013 -43.241988 26.223825 -46.09355 28.727731 L -46.09355 65.813669 C -34.6873 55.231638 -23.284956 44.091013 -11.800581 32.536325 L -11.800581 -4.315237 L -19.163863 3.016794 C -22.413863 -25.389456 -25.585738 -53.88555 -28.7498 -82.2918 C -31.921675 -110.787894 -35.085738 -139.241019 -38.253706 -167.643362 C -44.429488 -162.07305 -50.605269 -156.643362 -56.706831 -151.26055 C -58.605269 -132.6043 -60.503706 -113.944144 -62.409956 -95.241019 C -64.308394 -76.580862 -66.210738 -58.065237 -68.109175 -39.498831 C -69.773238 -55.233206 -71.515425 -70.873831 -73.101363 -86.655081 C -74.683394 -102.389456 -76.347456 -118.07305 -77.929488 -133.8543 C -83.952925 -129.1668 -89.96855 -124.432425 -95.909956 -120.303519 C -99.554488 -86.280081 -103.195113 -52.170706 -106.839644 -18.100394 C -110.484175 15.966013 -114.128706 50.079294 -117.769331 83.821481 C -120.226363 85.305856 -122.679488 86.790231 -125.132613 88.278513 C -125.136519 100.622263 -125.132613 112.969919 -125.136519 125.360544 Z M -202.671675 -26.826956 C -199.980269 -27.803519 -197.288863 -28.776175 -194.515425 -29.799612 C -194.515425 -4.408987 -194.515425 20.977731 -194.515425 46.411325 C -194.515425 71.80195 -194.515425 97.188669 -194.515425 122.622263 C -197.288863 123.6457 -199.980269 124.618356 -202.671675 125.594919 C -202.671675 137.938669 -202.671675 150.286325 -202.671675 162.67695 C -180.734175 154.137888 -158.792769 144.067575 -136.855269 132.462106 L -136.855269 64.512888 C -142.796675 67.762888 -148.734175 70.872263 -154.597456 73.934763 L -154.597456 104.80195 C -162.042769 108.700388 -169.488081 112.087106 -176.851363 115.337106 L -176.851363 69.016794 C -169.488081 65.813669 -162.042769 62.42695 -154.597456 58.524606 L -154.597456 21.255075 C -162.042769 25.157419 -169.488081 28.544138 -176.851363 31.747263 L -176.851363 -37.084769 C -169.488081 -40.334769 -162.042769 -43.721487 -154.597456 -47.619925 L -154.597456 -0.651175 C -148.738081 -3.713675 -142.796675 -6.82305 -136.855269 -10.07305 L -136.855269 -93.893362 C -158.796675 -82.2918 -180.734175 -72.264456 -202.671675 -63.725394 C -202.671675 -51.471487 -202.671675 -39.174612 -202.671675 -26.826956 Z M -237.519331 136.407419 C -244.964644 138.079294 -252.409956 139.704294 -259.773238 141.329294 C -259.773238 131.024606 -259.773238 120.673044 -259.773238 110.368356 C -259.773238 100.067575 -259.773238 89.716013 -259.773238 79.411325 C -252.409956 77.786325 -244.964644 76.161325 -237.519331 74.493356 C -237.519331 84.798044 -237.519331 95.1457 -237.519331 105.450388 C -237.519331 115.755075 -237.519331 126.102731 -237.519331 136.407419 Z M -285.59355 182.544138 C -266.745894 179.665231 -247.894331 175.813669 -229.042769 171.032419 C -225.956831 163.977731 -222.866988 156.923044 -219.777144 149.915231 C -219.78105 133.622263 -219.777144 117.380075 -219.777144 101.180856 C -219.78105 84.934763 -219.777144 68.692575 -219.777144 52.446481 C -222.870894 46.598825 -225.956831 40.798044 -229.042769 34.946481 C -231.027144 35.55195 -233.003706 36.110544 -234.90605 36.665231 C -230.628706 17.637888 -226.273238 -1.440237 -221.917769 -20.514456 C -219.460738 -21.213675 -216.925581 -21.955862 -214.394331 -22.694144 L -214.394331 -59.549612 C -220.413863 -57.783987 -226.429488 -56.069144 -232.370894 -54.350394 C -235.9373 -38.2918 -239.577925 -22.32305 -243.0623 -6.498831 C -246.546675 9.329294 -250.113081 25.157419 -253.597456 40.981638 C -255.65605 41.446481 -257.714644 41.817575 -259.773238 42.329294 C -259.773238 24.55195 -259.773238 6.727731 -259.773238 -11.092581 C -257.081831 -11.694144 -254.390425 -12.252737 -251.695113 -12.858206 C -251.699019 -25.155081 -251.695113 -37.455862 -251.695113 -49.709769 C -263.023238 -47.248831 -274.347456 -45.530081 -285.59355 -43.815237 C -285.59355 -31.561331 -285.59355 -19.26055 -285.59355 -6.963675 C -282.902144 -7.381644 -280.210738 -7.799612 -277.4373 -8.217581 L -277.4373 144.204294 C -280.210738 144.622263 -282.902144 145.040231 -285.59355 145.4582 C -285.59355 157.805856 -285.59355 170.149606 -285.59355 182.544138 Z M -315.054488 147.966013 C -322.503706 148.196481 -329.945113 148.430856 -337.3123 148.661325 C -337.3123 123.227731 -337.3123 97.790231 -337.3123 72.403513 C -337.3123 46.969919 -337.3123 21.536325 -337.3123 -3.8543 C -329.945113 -4.037894 -322.4998 -4.225394 -315.054488 -4.455862 Z M -363.132613 184.911325 C -344.28105 185.559763 -325.429488 185.325388 -306.581831 184.493356 C -303.495894 178.133981 -300.40605 171.774606 -297.316206 165.415231 L -297.316206 -21.768362 C -300.800581 -28.451956 -304.284956 -35.088675 -307.769331 -41.772269 C -326.226363 -41.030081 -344.675581 -40.936331 -363.132613 -41.5418 L -363.132613 -4.639456 C -360.4373 -4.502737 -357.745894 -4.408987 -354.972456 -4.315237 L -354.972456 148.149606 C -357.745894 148.059763 -360.4373 147.966013 -363.132613 147.825388 Z M -450.882613 -57.13555 L -450.882613 -20.237112 C -448.191206 -19.44805 -445.4998 -18.705862 -442.726363 -17.869925 C -442.726363 7.516794 -442.726363 32.954294 -442.726363 58.341013 C -442.726363 83.727731 -442.726363 109.161325 -442.726363 134.598825 C -445.4998 133.762888 -448.191206 133.0207 -450.882613 132.231638 L -450.882613 169.313669 C -442.886519 171.637888 -434.808394 173.86445 -426.726363 175.673044 C -422.452925 154.786325 -418.007613 133.903513 -413.738081 113.063669 C -409.452925 92.133981 -405.027144 70.919138 -400.671675 49.848825 C -400.671675 65.48945 -400.671675 81.0832 -400.671675 96.723825 C -400.671675 112.36445 -400.671675 127.962106 -400.671675 143.602731 C -403.366988 143.184763 -406.058394 142.766794 -408.7498 142.348825 C -408.7498 154.696481 -408.7498 167.040231 -408.7498 179.434763 C -397.503706 181.149606 -386.179488 182.868356 -374.851363 183.841013 L -374.851363 146.758981 C -377.546675 146.524606 -380.238081 146.247263 -382.929488 146.063669 L -382.929488 -43.303519 C -388.398238 -43.905081 -393.859175 -44.744925 -399.245894 -45.580862 C -403.601363 -25.155081 -407.933394 -4.682425 -412.234175 15.688669 C -416.488081 35.837106 -420.788863 56.0207 -425.066206 76.161325 L -425.066206 -13.553519 C -422.370894 -12.94805 -419.679488 -12.346487 -416.988081 -11.744925 L -416.988081 -48.643362 C -428.3123 -51.147269 -439.636519 -53.88555 -450.882613 -57.13555 Z M -503.632613 80.110544 C -505.136519 68.040231 -506.71855 55.92695 -508.144331 43.860544 C -509.570113 31.837106 -511.077925 19.680856 -512.503706 7.516794 C -506.800581 10.2082 -501.019331 12.762888 -495.234175 15.317575 C -496.663863 26.0832 -498.163863 36.805856 -499.511519 47.665231 C -500.855269 58.481638 -502.284956 69.294138 -503.632613 80.110544 Z M -543.550581 -61.080862 C -541.09355 -59.596487 -538.636519 -58.108206 -536.183394 -56.623831 C -532.144331 -22.834769 -528.109175 10.860544 -524.066206 44.602731 C -520.03105 78.251169 -515.90605 111.993356 -511.788863 145.782419 C -506.484175 148.243356 -501.097456 150.610544 -495.710738 152.977731 C -491.753706 123.133981 -487.620894 93.337106 -483.671675 63.352731 C -479.702925 33.188669 -475.59355 3.110544 -471.554488 -27.014456 C -468.6248 -25.944144 -465.695113 -24.877737 -462.683394 -23.811331 L -462.683394 -60.709769 C -474.327925 -64.932425 -485.96855 -69.201956 -497.53105 -74.307425 C -497.53105 -62.053519 -497.53105 -49.756644 -497.53105 -37.408987 C -494.605269 -36.112112 -491.671675 -34.811331 -488.741988 -33.557425 C -489.456831 -28.82305 -490.089644 -24.0418 -490.722456 -19.26055 C -499.511519 -23.112112 -508.304488 -26.967581 -517.09355 -31.424612 C -517.730269 -36.807425 -518.363081 -42.190237 -518.917769 -47.4793 C -515.831831 -45.901175 -512.738081 -44.280081 -509.652144 -42.701956 L -509.652144 -79.600394 C -520.976363 -85.494925 -532.300581 -91.389456 -543.546675 -97.9793 C -543.550581 -85.725394 -543.546675 -73.424612 -543.550581 -61.080862 Z M -732.835738 -71.756644 C -729.667769 -61.080862 -726.4998 -50.405081 -723.253706 -39.545706 C -710.105269 -22.557425 -696.960738 -6.682425 -683.730269 8.9582 C -680.40605 5.80195 -677.081831 2.598825 -673.753706 -0.6043 C -673.753706 -14.991019 -673.753706 -29.381644 -673.753706 -43.768362 C -679.691206 -50.221487 -685.554488 -56.764456 -691.413863 -63.725394 C -691.417769 -54.951956 -691.413863 -46.088675 -691.413863 -37.268362 C -699.335738 -46.600394 -707.253706 -55.975394 -715.175581 -66.139456 C -715.175581 -84.147269 -715.175581 -102.108206 -715.175581 -120.069144 C -704.71855 -106.936331 -694.265425 -94.545706 -683.8123 -82.19805 C -680.484175 -85.584769 -677.159956 -89.069144 -673.753706 -92.455862 C -673.753706 -106.842581 -673.753706 -121.280081 -673.753706 -135.6668 C -673.753706 -150.053519 -673.753706 -164.444144 -673.753706 -178.830862 C -678.109175 -192.799612 -682.386519 -206.725394 -686.663863 -220.975394 C -698.148238 -234.619925 -709.632613 -248.358206 -721.113081 -263.256644 C -725.074019 -260.377737 -728.956831 -257.315237 -732.835738 -254.252737 L -732.835738 -214.151175 C -726.976363 -206.537894 -721.113081 -198.975394 -715.175581 -191.221487 C -715.175581 -200.366019 -715.175581 -209.51055 -715.175581 -218.608206 C -707.253706 -208.444144 -699.335738 -199.112112 -691.413863 -189.690237 C -691.417769 -179.389456 -691.413863 -169.084769 -691.413863 -158.780081 C -691.417769 -148.475394 -691.413863 -138.174612 -691.413863 -127.82305 C -701.870894 -140.213675 -712.324019 -153.069144 -722.777144 -166.623831 C -726.183394 -164.026175 -729.511519 -161.287894 -732.835738 -158.549612 Z M -732.835738 -71.756644 " transform="matrix(1, 0, 0, -1, 757.3748, 245.2082)"/>
</g>
<path fill-rule="evenodd" fill="rgb(6.269836%, 13.639832%, 30.566406%)" fill-opacity="1" d="M 757.375 245.207031 C 760.542969 242.050781 763.710938 238.941406 766.957031 235.789062 C 780.105469 251.382812 793.253906 267.117188 806.480469 284.242188 C 809.804688 295.335938 813.132812 306.425781 816.539062 317.613281 C 816.539062 332 816.863281 347.148438 816.863281 361.492188 C 810.921875 353.832031 804.660156 345.414062 798.796875 337.851562 C 798.796875 329.03125 798.796875 320.210938 798.796875 311.394531 C 790.875 301.230469 782.957031 291.898438 775.039062 282.476562 L 775.039062 336.363281 C 785.492188 348.757812 795.945312 361.566406 806.402344 375.070312 C 809.726562 386.488281 813.132812 397.953125 816.539062 409.417969 L 816.539062 495.746094 C 812.179688 499.414062 807.828125 503.082031 803.546875 506.839844 C 792.066406 491.941406 780.582031 478.34375 769.097656 464.789062 C 765.136719 452.210938 761.257812 439.914062 757.375 427.707031 C 757.375 414.339844 757.375 400.972656 757.375 387.605469 C 763.238281 393.964844 769.097656 400.507812 775.039062 407.515625 L 775.039062 434.898438 C 782.957031 444.273438 790.875 453.652344 798.796875 463.816406 C 798.796875 453.511719 798.796875 443.160156 798.796875 432.859375 C 798.796875 422.554688 798.796875 412.25 798.796875 401.945312 C 788.34375 388.8125 777.890625 376.417969 767.433594 364.027344 C 764.027344 353.257812 760.703125 342.628906 757.375 332 C 757.375 317.519531 757.375 303.039062 757.375 288.605469 C 757.375 274.171875 757.375 259.691406 757.375 245.207031 M 632.238281 119.847656 C 643.566406 126.714844 654.890625 134.605469 666.21875 142.449219 C 666.214844 154.839844 666.21875 167.1875 666.21875 179.535156 C 663.445312 177.632812 660.75 175.773438 658.058594 173.871094 C 660.039062 194.152344 662.179688 214.527344 664.15625 234.765625 C 666.136719 255.003906 668.277344 275.378906 670.335938 295.84375 C 672.789062 272.730469 675.246094 249.617188 677.703125 226.503906 C 680.160156 203.34375 682.613281 180.230469 685.066406 157.070312 C 687.441406 158.925781 689.898438 160.828125 692.351562 162.777344 C 695.125 190.488281 697.898438 218.242188 700.667969 245.953125 C 703.441406 273.660156 706.292969 301.460938 709.144531 329.261719 C 710.882812 311.71875 712.707031 294.128906 714.449219 276.585938 C 716.191406 259.039062 718.015625 241.589844 719.835938 224.277344 C 716.984375 221.492188 714.132812 218.984375 711.28125 216.480469 L 711.28125 179.394531 C 722.6875 189.976562 734.089844 201.117188 745.574219 212.671875 L 745.574219 249.523438 L 738.210938 242.191406 C 734.960938 270.597656 731.789062 299.09375 728.625 327.5 C 725.453125 355.996094 722.289062 384.449219 719.121094 412.851562 C 712.945312 407.28125 706.769531 401.851562 700.667969 396.46875 C 698.769531 377.8125 696.871094 359.152344 694.964844 340.449219 C 693.066406 321.789062 691.164062 303.273438 689.265625 284.707031 C 687.601562 300.441406 685.859375 316.082031 684.273438 331.863281 C 682.691406 347.597656 681.027344 363.28125 679.445312 379.0625 C 673.421875 374.375 667.40625 369.640625 661.464844 365.511719 C 657.820312 331.488281 654.179688 297.378906 650.535156 263.308594 C 646.890625 229.242188 643.246094 195.128906 639.605469 161.386719 C 637.148438 159.902344 634.695312 158.417969 632.242188 156.929688 C 632.238281 144.585938 632.242188 132.238281 632.238281 119.847656 M 554.703125 272.035156 C 557.394531 273.011719 560.085938 273.984375 562.859375 275.007812 C 562.859375 249.617188 562.859375 224.230469 562.859375 198.796875 C 562.859375 173.40625 562.859375 148.019531 562.859375 122.585938 C 560.085938 121.5625 557.394531 120.589844 554.703125 119.613281 C 554.703125 107.269531 554.703125 94.921875 554.703125 82.53125 C 576.640625 91.070312 598.582031 101.140625 620.519531 112.746094 L 620.519531 180.695312 C 614.578125 177.445312 608.640625 174.335938 602.777344 171.273438 L 602.777344 140.40625 C 595.332031 136.507812 587.886719 133.121094 580.523438 129.871094 L 580.523438 176.191406 C 587.886719 179.394531 595.332031 182.78125 602.777344 186.683594 L 602.777344 223.953125 C 595.332031 220.050781 587.886719 216.664062 580.523438 213.460938 L 580.523438 282.292969 C 587.886719 285.542969 595.332031 288.929688 602.777344 292.828125 L 602.777344 245.859375 C 608.636719 248.921875 614.578125 252.03125 620.519531 255.28125 L 620.519531 339.101562 C 598.578125 327.5 576.640625 317.472656 554.703125 308.933594 C 554.703125 296.679688 554.703125 284.382812 554.703125 272.035156 M 519.855469 108.800781 C 512.410156 107.128906 504.964844 105.503906 497.601562 103.878906 C 497.601562 114.183594 497.601562 124.535156 497.601562 134.839844 C 497.601562 145.140625 497.601562 155.492188 497.601562 165.796875 C 504.964844 167.421875 512.410156 169.046875 519.855469 170.714844 C 519.855469 160.410156 519.855469 150.0625 519.855469 139.757812 C 519.855469 129.453125 519.855469 119.105469 519.855469 108.800781 M 471.78125 62.664062 C 490.628906 65.542969 509.480469 69.394531 528.332031 74.175781 C 531.417969 81.230469 534.507812 88.285156 537.597656 95.292969 C 537.59375 111.585938 537.597656 127.828125 537.597656 144.027344 C 537.59375 160.273438 537.597656 176.515625 537.597656 192.761719 C 534.503906 198.609375 531.417969 204.410156 528.332031 210.261719 C 526.347656 209.65625 524.371094 209.097656 522.46875 208.542969 C 526.746094 227.570312 531.101562 246.648438 535.457031 265.722656 C 537.914062 266.421875 540.449219 267.164062 542.980469 267.902344 L 542.980469 304.757812 C 536.960938 302.992188 530.945312 301.277344 525.003906 299.558594 C 521.4375 283.5 517.796875 267.53125 514.3125 251.707031 C 510.828125 235.878906 507.261719 220.050781 503.777344 204.226562 C 501.71875 203.761719 499.660156 203.390625 497.601562 202.878906 C 497.601562 220.65625 497.601562 238.480469 497.601562 256.300781 C 500.292969 256.902344 502.984375 257.460938 505.679688 258.066406 C 505.675781 270.363281 505.679688 282.664062 505.679688 294.917969 C 494.351562 292.457031 483.027344 290.738281 471.78125 289.023438 C 471.78125 276.769531 471.78125 264.46875 471.78125 252.171875 C 474.472656 252.589844 477.164062 253.007812 479.9375 253.425781 L 479.9375 101.003906 C 477.164062 100.585938 474.472656 100.167969 471.78125 99.75 C 471.78125 87.402344 471.78125 75.058594 471.78125 62.664062 M 442.320312 97.242188 C 434.871094 97.011719 427.429688 96.777344 420.0625 96.546875 C 420.0625 121.980469 420.0625 147.417969 420.0625 172.804688 C 420.0625 198.238281 420.0625 223.671875 420.0625 249.0625 C 427.429688 249.246094 434.875 249.433594 442.320312 249.664062 Z M 394.242188 60.296875 C 413.09375 59.648438 431.945312 59.882812 450.792969 60.714844 C 453.878906 67.074219 456.96875 73.433594 460.058594 79.792969 L 460.058594 266.976562 C 456.574219 273.660156 453.089844 280.296875 449.605469 286.980469 C 431.148438 286.238281 412.699219 286.144531 394.242188 286.75 L 394.242188 249.847656 C 396.9375 249.710938 399.628906 249.617188 402.402344 249.523438 L 402.402344 97.058594 C 399.628906 97.148438 396.9375 97.242188 394.242188 97.382812 Z M 306.492188 302.34375 L 306.492188 265.445312 C 309.183594 264.65625 311.875 263.914062 314.648438 263.078125 C 314.648438 237.691406 314.648438 212.253906 314.648438 186.867188 C 314.648438 161.480469 314.648438 136.046875 314.648438 110.609375 C 311.875 111.445312 309.183594 112.1875 306.492188 112.976562 L 306.492188 75.894531 C 314.488281 73.570312 322.566406 71.34375 330.648438 69.535156 C 334.921875 90.421875 339.367188 111.304688 343.636719 132.144531 C 347.921875 153.074219 352.347656 174.289062 356.703125 195.359375 C 356.703125 179.71875 356.703125 164.125 356.703125 148.484375 C 356.703125 132.84375 356.703125 117.246094 356.703125 101.605469 C 354.007812 102.023438 351.316406 102.441406 348.625 102.859375 C 348.625 90.511719 348.625 78.167969 348.625 65.773438 C 359.871094 64.058594 371.195312 62.339844 382.523438 61.367188 L 382.523438 98.449219 C 379.828125 98.683594 377.136719 98.960938 374.445312 99.144531 L 374.445312 288.511719 C 368.976562 289.113281 363.515625 289.953125 358.128906 290.789062 C 353.773438 270.363281 349.441406 249.890625 345.140625 229.519531 C 340.886719 209.371094 336.585938 189.1875 332.308594 169.046875 L 332.308594 258.761719 C 335.003906 258.15625 337.695312 257.554688 340.386719 256.953125 L 340.386719 293.851562 C 329.0625 296.355469 317.738281 299.09375 306.492188 302.34375 M 253.742188 165.097656 C 252.238281 177.167969 250.65625 189.28125 249.230469 201.347656 C 247.804688 213.371094 246.296875 225.527344 244.871094 237.691406 C 250.574219 235 256.355469 232.445312 262.140625 229.890625 C 260.710938 219.125 259.210938 208.402344 257.863281 197.542969 C 256.519531 186.726562 255.089844 175.914062 253.742188 165.097656 M 213.824219 306.289062 C 216.28125 304.804688 218.738281 303.316406 221.191406 301.832031 C 225.230469 268.042969 229.265625 234.347656 233.308594 200.605469 C 237.34375 166.957031 241.46875 133.214844 245.585938 99.425781 C 250.890625 96.964844 256.277344 94.597656 261.664062 92.230469 C 265.621094 122.074219 269.753906 151.871094 273.703125 181.855469 C 277.671875 212.019531 281.78125 242.097656 285.820312 272.222656 C 288.75 271.152344 291.679688 270.085938 294.691406 269.019531 L 294.691406 305.917969 C 283.046875 310.140625 271.40625 314.410156 259.84375 319.515625 C 259.84375 307.261719 259.84375 294.964844 259.84375 282.617188 C 262.769531 281.320312 265.703125 280.019531 268.632812 278.765625 C 267.917969 274.03125 267.285156 269.25 266.652344 264.46875 C 257.863281 268.320312 249.070312 272.175781 240.28125 276.632812 C 239.644531 282.015625 239.011719 287.398438 238.457031 292.6875 C 241.542969 291.109375 244.636719 289.488281 247.722656 287.910156 L 247.722656 324.808594 C 236.398438 330.703125 225.074219 336.597656 213.828125 343.1875 C 213.824219 330.933594 213.828125 318.632812 213.824219 306.289062 M 24.539062 316.964844 C 27.707031 306.289062 30.875 295.613281 34.121094 284.753906 C 47.269531 267.765625 60.414062 251.890625 73.644531 236.25 C 76.96875 239.40625 80.292969 242.609375 83.621094 245.8125 C 83.621094 260.199219 83.621094 274.589844 83.621094 288.976562 C 77.683594 295.429688 71.820312 301.972656 65.960938 308.933594 C 65.957031 300.160156 65.960938 291.296875 65.960938 282.476562 C 58.039062 291.808594 50.121094 301.183594 42.199219 311.347656 C 42.199219 329.355469 42.199219 347.316406 42.199219 365.277344 C 52.65625 352.144531 63.109375 339.753906 73.5625 327.40625 C 76.890625 330.792969 80.214844 334.277344 83.621094 337.664062 C 83.621094 352.050781 83.621094 366.488281 83.621094 380.875 C 83.621094 395.261719 83.621094 409.652344 83.621094 424.039062 C 79.265625 438.007812 74.988281 451.933594 70.710938 466.183594 C 59.226562 479.828125 47.742188 493.566406 36.261719 508.464844 C 32.300781 505.585938 28.417969 502.523438 24.539062 499.460938 L 24.539062 459.359375 C 30.398438 451.746094 36.261719 444.183594 42.199219 436.429688 C 42.199219 445.574219 42.199219 454.71875 42.199219 463.816406 C 50.121094 453.652344 58.039062 444.320312 65.960938 434.898438 C 65.957031 424.597656 65.960938 414.292969 65.960938 403.988281 C 65.957031 393.683594 65.960938 383.382812 65.960938 373.03125 C 55.503906 385.421875 45.050781 398.277344 34.597656 411.832031 C 31.191406 409.234375 27.863281 406.496094 24.539062 403.757812 Z M 24.539062 316.964844 "/>
</svg>
