<?xml version="1.0" encoding="UTF-8"?>
<svg data-vectorized-cmyk="true" data-original-cmyk-pdf="true" xmlns="http://www.w3.org/2000/svg" xmlns:xlink="http://www.w3.org/1999/xlink" width="841.89" height="595.276" viewBox="0 0 841.89 595.276">
<path fill-rule="nonzero" fill="rgb(42.155457%, 76.985168%, 18.463135%)" fill-opacity="1" d="M 227.890625 211.203125 C 222.46875 212.328125 218.671875 223.464844 211.019531 224.132812 C 202.085938 224.910156 191.308594 223.097656 182.609375 224.160156 C 180.5625 224.410156 179.179688 225.785156 178.9375 227.84375 C 177.914062 236.453125 179.796875 247.105469 179.007812 255.90625 C 178.820312 257.984375 178.007812 259.734375 176.726562 261.332031 C 174.914062 263.597656 167.558594 271.160156 165.367188 272.753906 C 163.984375 273.753906 163.222656 273.761719 161.832031 272.757812 C 159.722656 271.242188 151.390625 262.835938 149.722656 260.683594 C 148.679688 259.328125 147.9375 257.667969 147.78125 255.960938 C 146.984375 247.230469 148.746094 236.839844 147.75 228.257812 C 147.492188 226.015625 146.128906 224.25 143.730469 224.214844 L 88.5 224.492188 C 86.886719 225.046875 85.910156 226.285156 85.707031 228.003906 C 86.441406 238.886719 84.8125 250.929688 85.757812 261.671875 C 85.925781 263.578125 86.53125 265.570312 87.699219 267.097656 C 90.46875 270.722656 100.710938 280.765625 104.378906 283.710938 C 105.628906 284.71875 106.964844 285.546875 108.574219 285.824219 C 128.71875 285.933594 148.988281 286.246094 169.070312 285.542969 C 170.132812 285.125 171.128906 284.65625 172.039062 283.953125 C 175.472656 281.300781 186.367188 270.367188 189.007812 266.925781 C 193.382812 261.21875 190.371094 246.5 191.222656 239.039062 C 191.40625 237.417969 192.234375 236.597656 193.847656 236.40625 C 201.003906 235.566406 209.78125 237.167969 216.988281 236.378906 C 218.800781 236.179688 220.175781 235.386719 221.546875 234.273438 C 227.820312 229.171875 233.503906 221.378906 239.71875 215.992188 C 240.84375 214.726562 240.21875 211.644531 238.601562 211.175781 C 237.628906 210.894531 229.058594 210.960938 227.890625 211.203125 M 104.335938 183.066406 C 98.40625 188.359375 92.957031 195.515625 86.917969 200.871094 C 85.347656 202.507812 86.152344 205.53125 88.378906 206.027344 C 90.171875 206.425781 97.996094 206.238281 99.59375 205.453125 C 102.023438 204.265625 107.195312 197.554688 109.835938 195.371094 C 110.90625 194.484375 112.214844 193.410156 113.601562 193.175781 C 123.003906 192.402344 133.328125 193.859375 142.621094 193.054688 C 146.1875 192.742188 147.34375 191.480469 147.675781 187.945312 C 148.488281 179.269531 146.855469 169.285156 147.621094 160.597656 C 147.773438 158.890625 148.503906 157.226562 149.546875 155.867188 C 152.675781 151.789062 158.117188 148.035156 161.433594 143.921875 C 162.253906 143.382812 163.472656 143.386719 164.277344 143.917969 C 167.796875 148.257812 173.585938 152.21875 176.902344 156.523438 C 178.050781 158.011719 178.679688 159.726562 178.84375 161.597656 C 179.613281 170.320312 177.847656 180.792969 178.871094 189.308594 C 179.183594 191.925781 181.625 192.789062 183.953125 192.984375 C 200.675781 194.386719 219.511719 191.902344 236.449219 192.789062 C 238.441406 192.40625 240.203125 191.773438 240.542969 189.523438 L 240.421875 153.527344 L 238.929688 150.109375 C 233.070312 145.164062 227.777344 137.855469 221.898438 133.144531 C 220.128906 131.726562 218.390625 131.058594 216.121094 130.867188 L 158.710938 131.058594 C 157.859375 131.378906 156.929688 131.566406 156.113281 131.96875 C 153.730469 133.148438 140.03125 147.023438 137.796875 149.753906 C 136.722656 151.066406 135.554688 152.949219 135.347656 154.664062 C 134.523438 161.539062 136.050781 170.085938 135.410156 177.117188 C 135.238281 179.011719 134.890625 180.199219 132.78125 180.449219 C 125.730469 181.273438 117.144531 179.746094 109.996094 180.480469 C 108.003906 180.6875 105.820312 181.742188 104.335938 183.066406 M 82.351562 105.167969 L 82.628906 105.410156 L 83.050781 105.167969 L 243.226562 104.898438 L 243.648438 105.132812 L 243.929688 104.894531 L 244.980469 104.894531 C 244.773438 105.910156 245.480469 105.53125 246.089844 105.691406 C 257.40625 108.671875 264.558594 116.125 266.355469 127.855469 C 267.0625 181.960938 267.261719 236.25 266.578125 290.347656 C 264.84375 302.558594 256.351562 310.488281 244.113281 311.699219 L 83.933594 311.953125 C 75.421875 310.988281 67.964844 306.742188 63.691406 299.257812 L 59.882812 290.265625 L 59.878906 289.214844 L 60.117188 288.9375 L 59.878906 288.515625 L 59.609375 128.691406 L 59.847656 128.265625 L 59.605469 127.988281 L 59.605469 127.289062 C 60.6875 127.492188 60.207031 126.757812 60.347656 126.121094 C 62.746094 115.46875 69.898438 108.382812 80.484375 105.914062 C 81.117188 105.769531 81.859375 106.253906 81.648438 105.171875 Z M 82.351562 105.167969 "/>
<path fill-rule="nonzero" fill="rgb(78.475952%, 77.380371%, 76.837158%)" fill-opacity="1" d="M 92.25 363.816406 C 92.460938 362.773438 91.726562 363.207031 91.132812 363.023438 C 89.160156 362.421875 87.132812 361.800781 85.351562 360.730469 C 85.027344 360.539062 82.53125 359.109375 83.132812 358.578125 L 253.308594 358.304688 C 265.285156 358.851562 279.738281 348.710938 279.71875 335.984375 L 279.398438 146.195312 C 291.617188 147.960938 299.816406 159.238281 300.464844 171.222656 C 300.273438 227.371094 301.25 283.617188 300.304688 339.710938 C 299.050781 348.058594 294.511719 355.269531 287.226562 359.5625 L 278.011719 363.503906 Z M 92.25 363.816406 "/>
<path fill-rule="nonzero" fill="rgb(42.155457%, 76.985168%, 18.463135%)" fill-opacity="1" d="M 800.816406 284.808594 L 742.984375 284.90625 L 742.851562 207.449219 L 762.128906 207.414062 L 762.230469 268.050781 L 800.785156 267.984375 Z M 800.816406 284.808594 "/>
<path fill-rule="nonzero" fill="rgb(6.547546%, 6.062317%, 5.2948%)" fill-opacity="1" d="M 83.050781 105.167969 L 82.628906 105.410156 L 82.351562 105.167969 Z M 83.050781 105.167969 "/>
<path fill-rule="nonzero" fill="rgb(6.547546%, 6.062317%, 5.2948%)" fill-opacity="1" d="M 243.929688 104.894531 L 243.648438 105.132812 L 243.226562 104.898438 Z M 243.929688 104.894531 "/>
<path fill-rule="nonzero" fill="rgb(6.547546%, 6.062317%, 5.2948%)" fill-opacity="1" d="M 59.609375 128.691406 L 59.609375 127.988281 L 59.847656 128.265625 Z M 59.609375 128.691406 "/>
<path fill-rule="nonzero" fill="rgb(6.547546%, 6.062317%, 5.2948%)" fill-opacity="1" d="M 59.878906 289.214844 L 59.878906 288.515625 L 60.117188 288.9375 Z M 59.878906 289.214844 "/>
<path fill-rule="nonzero" fill="rgb(42.155457%, 76.985168%, 18.463135%)" fill-opacity="1" d="M 686.03125 224.472656 C 659.050781 226.851562 661.664062 269.503906 689.152344 268.167969 C 717.320312 266.796875 715.214844 221.898438 686.03125 224.472656 M 686 206.246094 C 715.632812 204.695312 735.480469 232.546875 725.863281 260.320312 C 713.191406 296.910156 657.171875 293.988281 649.164062 255.285156 C 644.003906 230.355469 660.34375 207.585938 686 206.246094 "/>
<path fill-rule="nonzero" fill="rgb(42.155457%, 76.985168%, 18.463135%)" fill-opacity="1" d="M 581.371094 262.394531 C 581.753906 262.34375 582.078125 262.425781 582.441406 262.550781 C 584.972656 263.414062 588.324219 265.816406 591.359375 266.941406 C 597.828125 269.34375 608.046875 271.351562 614.503906 268.304688 C 619.484375 265.953125 620.289062 260.238281 615.242188 257.375 C 603.164062 250.523438 579.101562 253.421875 577.449219 233.152344 C 574.917969 202.046875 616.757812 202.632812 636.15625 212.535156 L 630.882812 229.007812 C 626.265625 226.820312 621.457031 224.890625 616.417969 223.894531 C 611.445312 222.914062 597.175781 221.15625 596.859375 228.953125 C 596.695312 232.933594 600.425781 234.070312 603.488281 235.113281 C 614.761719 238.953125 633.257812 240.683594 637.332031 254.167969 C 641.351562 267.460938 633.5625 279.214844 621.191406 283.71875 C 607.605469 288.660156 589.773438 286.09375 577.246094 279.371094 Z M 581.371094 262.394531 "/>
<path fill-rule="nonzero" fill="rgb(42.155457%, 76.985168%, 18.463135%)" fill-opacity="1" d="M 346.796875 208.117188 L 367.394531 266.617188 L 388.15625 208.046875 L 409.183594 208.011719 L 379.703125 285.175781 L 355.5 285.585938 L 325.765625 208.152344 Z M 346.796875 208.117188 "/>
<path fill-rule="nonzero" fill="rgb(42.155457%, 76.985168%, 18.463135%)" fill-opacity="1" d="M 470.171875 207.910156 L 490.421875 266.761719 L 511.703125 207.839844 L 532.207031 207.804688 L 502.847656 285.265625 L 478.875 285.378906 L 449.140625 207.945312 Z M 470.171875 207.910156 "/>
<path fill-rule="nonzero" fill="rgb(42.155457%, 76.985168%, 18.463135%)" fill-opacity="1" d="M 438.625 207.960938 L 438.757812 285.421875 L 419.480469 285.453125 L 419.347656 207.996094 Z M 438.625 207.960938 "/>
<path fill-rule="nonzero" fill="rgb(42.155457%, 76.985168%, 18.463135%)" fill-opacity="1" d="M 561.648438 207.753906 L 561.78125 285.214844 L 542.851562 285.246094 L 542.722656 207.785156 Z M 561.648438 207.753906 "/>
<path fill-rule="nonzero" fill="rgb(78.475952%, 77.380371%, 76.837158%)" fill-opacity="1" d="M 111.023438 329.867188 C 105.859375 330.929688 105.832031 339.472656 110.984375 340.277344 C 119.816406 341.660156 119.101562 328.210938 111.023438 329.867188 M 111.035156 325.328125 C 124.40625 323.894531 125.761719 343.363281 113.734375 344.8125 C 100.054688 346.460938 98.574219 326.664062 111.035156 325.328125 "/>
<path fill-rule="nonzero" fill="rgb(78.475952%, 77.380371%, 76.837158%)" fill-opacity="1" d="M 99.867188 326.683594 L 98.851562 330.859375 C 96.683594 330.164062 93.867188 328.769531 91.585938 329.734375 C 87.117188 331.628906 96.378906 333.488281 97.351562 333.949219 C 103.488281 336.871094 100.335938 344.148438 94.109375 344.847656 C 92.78125 344.996094 86.582031 344.441406 85.960938 343.445312 C 85.457031 342.636719 86.824219 340.019531 86.605469 338.941406 C 87.976562 339.429688 89.238281 340.371094 90.71875 340.601562 C 92.304688 340.847656 96.035156 341.210938 95.726562 338.753906 C 95.550781 337.34375 91.011719 336.789062 89.761719 336.296875 C 87.78125 335.523438 86.140625 334.429688 85.882812 332.113281 C 85.015625 324.425781 94.960938 324.398438 99.867188 326.683594 "/>
<path fill-rule="nonzero" fill="rgb(78.475952%, 77.380371%, 76.837158%)" fill-opacity="1" d="M 159.160156 342.148438 C 158.515625 344.394531 150.898438 344.988281 148.914062 344.703125 C 137.984375 343.128906 138.203125 326.4375 149.878906 325.203125 C 151.960938 324.984375 156.03125 325.785156 157.574219 327.238281 C 158.144531 327.777344 158.121094 329.070312 157.730469 329.355469 C 157.511719 329.519531 154.152344 327.453125 152.96875 327.292969 C 139.882812 325.507812 139.816406 343.746094 151.964844 343.035156 C 152.542969 343 157.054688 341.890625 157.054688 341.625 L 157.046875 336.367188 L 150.386719 336.378906 L 150.382812 334.277344 L 158.621094 334.261719 C 158.65625 334.261719 159.144531 334.75 159.148438 334.789062 C 159.148438 336.378906 159.476562 341.03125 159.160156 342.148438 "/>
<path fill-rule="nonzero" fill="rgb(78.475952%, 77.380371%, 76.837158%)" fill-opacity="1" d="M 128.988281 325.550781 L 129.011719 340.09375 C 129.011719 340.132812 129.503906 340.621094 129.539062 340.621094 L 137.777344 340.605469 L 137.78125 344.460938 L 124.816406 344.484375 L 124.78125 325.558594 Z M 128.988281 325.550781 "/>
<path fill-rule="nonzero" fill="rgb(78.475952%, 77.380371%, 76.837158%)" fill-opacity="1" d="M 189.886719 327.28125 C 181.121094 328.789062 182.167969 343.941406 192.589844 342.933594 C 202.871094 341.933594 201.535156 325.28125 189.886719 327.28125 M 190.238281 325.1875 C 205.03125 323.21875 205.605469 347.121094 189.566406 344.640625 C 179.21875 343.039062 179.320312 326.644531 190.238281 325.1875 "/>
<path fill-rule="nonzero" fill="rgb(78.475952%, 77.380371%, 76.837158%)" fill-opacity="1" d="M 174.027344 325.472656 C 181.277344 326.496094 180.347656 337.289062 173.171875 337.566406 C 175.316406 339.464844 177.59375 341.367188 179.609375 343.394531 C 181.238281 345.03125 179.296875 345.105469 177.894531 344.414062 L 169.316406 336.167969 C 169.167969 335.375 169.660156 335.683594 170.183594 335.644531 C 173.253906 335.417969 176.886719 336.089844 177.03125 331.589844 C 177.089844 329.734375 175.132812 327.226562 173.328125 327.226562 L 166.144531 327.238281 L 166.171875 344.238281 C 166.171875 344.773438 164.570312 344.859375 164.070312 344.769531 L 164.039062 325.492188 C 167.140625 325.800781 171.027344 325.050781 174.027344 325.472656 "/>
<path fill-rule="nonzero" fill="rgb(78.475952%, 77.380371%, 76.837158%)" fill-opacity="1" d="M 236.0625 325.371094 C 237.523438 325.609375 239.621094 327.128906 240.28125 328.511719 C 243.054688 334.316406 238.523438 339.644531 232.40625 338.695312 L 232.402344 336.941406 C 237.207031 337.910156 241.109375 332.789062 237.949219 328.742188 C 237.574219 328.257812 235.441406 327.125 235.015625 327.125 L 228.179688 327.136719 L 228.210938 344.660156 C 227.710938 344.753906 226.109375 344.671875 226.105469 344.136719 L 226.074219 325.386719 C 229.105469 325.734375 233.175781 324.894531 236.0625 325.371094 "/>
<path fill-rule="nonzero" fill="rgb(78.475952%, 77.380371%, 76.837158%)" fill-opacity="1" d="M 207.5 325.417969 L 207.519531 338.210938 C 207.519531 338.332031 208.289062 340.234375 208.425781 340.460938 C 210.519531 343.902344 216.722656 343.816406 218.898438 340.453125 C 219.078125 340.179688 219.789062 338.6875 219.789062 338.539062 L 219.765625 325.398438 L 221.867188 325.394531 L 221.890625 338.535156 C 221.890625 338.671875 221.035156 340.679688 220.855469 341.003906 C 218.261719 345.664062 210.382812 346.152344 207.175781 342.066406 C 206.941406 341.765625 205.769531 339.757812 205.769531 339.617188 L 205.746094 325.421875 Z M 207.5 325.417969 "/>
<path fill-rule="nonzero" fill="rgb(42.155457%, 76.985168%, 18.463135%)" fill-opacity="1" d="M 184.289062 143.605469 L 212.992188 143.484375 C 213.753906 143.425781 214.261719 143.648438 214.886719 144.039062 C 216.292969 144.921875 225.125 153.824219 226.320312 155.390625 C 227.492188 156.925781 228.09375 158.898438 228.261719 160.8125 C 228.628906 165 228.671875 173.148438 228.292969 177.316406 C 228.148438 178.925781 227.496094 180.351562 225.675781 180.304688 C 215.484375 179.597656 204.140625 181.230469 194.09375 180.351562 C 192.683594 180.230469 191.667969 180 191.460938 178.429688 C 190.519531 171.359375 193.464844 156.285156 189.472656 150.933594 C 188.355469 149.433594 184.417969 146.4375 183.886719 145.300781 C 183.585938 144.65625 183.523438 143.855469 184.289062 143.605469 "/>
<path fill-rule="nonzero" fill="rgb(42.155457%, 76.985168%, 18.463135%)" fill-opacity="1" d="M 100.347656 236.648438 C 110.574219 237.195312 122.105469 235.605469 132.183594 236.503906 C 133.945312 236.660156 134.933594 237.226562 135.160156 239.136719 C 135.996094 246.230469 134.109375 255.679688 135.273438 262.542969 C 135.9375 266.464844 140.140625 268.570312 142.210938 271.378906 C 143.660156 273.347656 142.179688 273.503906 140.304688 273.671875 C 133.445312 274.292969 121.289062 274.191406 114.339844 273.71875 C 113.230469 273.640625 112.53125 273.644531 111.546875 273.007812 C 110.171875 272.117188 101.242188 263.128906 100.140625 261.632812 C 97.414062 257.9375 98.375 254.789062 98.382812 250.785156 C 98.394531 246.695312 98.316406 242.605469 98.359375 238.511719 C 98.53125 237.582031 99.507812 236.945312 100.347656 236.648438 "/>
<path fill-rule="nonzero" fill="rgb(100%, 100%, 100%)" fill-opacity="1" d="M 54.496094 387.617188 L 68.917969 387.617188 L 68.917969 394.171875 L 63.011719 394.171875 L 63.011719 400.382812 L 68.273438 400.382812 L 68.273438 406.613281 L 63.011719 406.613281 L 63.011719 420.371094 L 54.496094 420.371094 Z M 54.496094 387.617188 "/>
<path fill-rule="nonzero" fill="rgb(100%, 100%, 100%)" fill-opacity="1" d="M 78.914062 393.523438 L 78.589844 397.054688 C 79.777344 394.527344 81.496094 393.1875 83.75 393.039062 L 83.75 402.488281 C 82.253906 402.488281 81.152344 402.6875 80.453125 403.09375 C 79.75 403.496094 79.316406 404.0625 79.15625 404.78125 C 78.996094 405.503906 78.914062 407.167969 78.914062 409.769531 L 78.914062 420.371094 L 70.742188 420.371094 L 70.742188 393.523438 Z M 78.914062 393.523438 "/>
<path fill-rule="nonzero" fill="rgb(100%, 100%, 100%)" fill-opacity="1" d="M 95.886719 403.054688 L 95.886719 401.089844 C 95.886719 399.703125 95.8125 398.804688 95.664062 398.398438 C 95.515625 397.996094 95.210938 397.792969 94.753906 397.792969 C 94.1875 397.792969 93.835938 397.964844 93.703125 398.308594 C 93.566406 398.652344 93.5 399.578125 93.5 401.089844 L 93.5 403.054688 Z M 104.082031 407.421875 L 93.5 407.421875 L 93.5 413.230469 C 93.5 414.441406 93.585938 415.226562 93.761719 415.574219 C 93.9375 415.925781 94.277344 416.101562 94.773438 416.101562 C 95.394531 416.101562 95.808594 415.867188 96.019531 415.402344 C 96.226562 414.9375 96.332031 414.039062 96.332031 412.703125 L 96.332031 409.160156 L 104.082031 409.160156 L 104.082031 411.144531 C 104.082031 412.804688 103.976562 414.078125 103.765625 414.96875 C 103.558594 415.859375 103.070312 416.808594 102.300781 417.820312 C 101.53125 418.832031 100.558594 419.589844 99.378906 420.097656 C 98.195312 420.601562 96.714844 420.855469 94.9375 420.855469 C 93.210938 420.855469 91.6875 420.605469 90.363281 420.109375 C 89.042969 419.609375 88.011719 418.925781 87.28125 418.054688 C 86.542969 417.183594 86.035156 416.226562 85.75 415.179688 C 85.46875 414.136719 85.328125 412.617188 85.328125 410.617188 L 85.328125 402.789062 C 85.328125 400.441406 85.644531 398.59375 86.277344 397.234375 C 86.910156 395.882812 87.949219 394.84375 89.394531 394.121094 C 90.835938 393.398438 92.496094 393.039062 94.371094 393.039062 C 96.664062 393.039062 98.554688 393.472656 100.046875 394.34375 C 101.535156 395.214844 102.582031 396.367188 103.179688 397.800781 C 103.78125 399.238281 104.082031 401.257812 104.082031 403.863281 Z M 104.082031 407.421875 "/>
<path fill-rule="nonzero" fill="rgb(100%, 100%, 100%)" fill-opacity="1" d="M 117.070312 403.054688 L 117.070312 401.089844 C 117.070312 399.703125 116.996094 398.804688 116.847656 398.398438 C 116.699219 397.996094 116.394531 397.792969 115.9375 397.792969 C 115.371094 397.792969 115.019531 397.964844 114.882812 398.308594 C 114.75 398.652344 114.683594 399.578125 114.683594 401.089844 L 114.683594 403.054688 Z M 125.261719 407.421875 L 114.683594 407.421875 L 114.683594 413.230469 C 114.683594 414.441406 114.769531 415.226562 114.945312 415.574219 C 115.121094 415.925781 115.457031 416.101562 115.957031 416.101562 C 116.578125 416.101562 116.992188 415.867188 117.199219 415.402344 C 117.410156 414.9375 117.515625 414.039062 117.515625 412.703125 L 117.515625 409.160156 L 125.261719 409.160156 L 125.261719 411.144531 C 125.261719 412.804688 125.160156 414.078125 124.949219 414.96875 C 124.738281 415.859375 124.25 416.808594 123.484375 417.820312 C 122.714844 418.832031 121.738281 419.589844 120.558594 420.097656 C 119.378906 420.601562 117.898438 420.855469 116.117188 420.855469 C 114.390625 420.855469 112.867188 420.605469 111.546875 420.109375 C 110.222656 419.609375 109.195312 418.925781 108.460938 418.054688 C 107.726562 417.183594 107.21875 416.226562 106.933594 415.179688 C 106.652344 414.136719 106.507812 412.617188 106.507812 410.617188 L 106.507812 402.789062 C 106.507812 400.441406 106.824219 398.59375 107.460938 397.234375 C 108.09375 395.882812 109.132812 394.84375 110.574219 394.121094 C 112.019531 393.398438 113.675781 393.039062 115.550781 393.039062 C 117.84375 393.039062 119.738281 393.472656 121.226562 394.34375 C 122.71875 395.214844 123.761719 396.367188 124.363281 397.800781 C 124.964844 399.238281 125.261719 401.257812 125.261719 403.863281 Z M 125.261719 407.421875 "/>
<path fill-rule="nonzero" fill="rgb(100%, 100%, 100%)" fill-opacity="1" d="M 138.574219 401.332031 C 138.574219 399.675781 138.515625 398.667969 138.394531 398.320312 C 138.273438 397.96875 137.933594 397.792969 137.382812 397.792969 C 136.839844 397.792969 136.496094 397.996094 136.339844 398.398438 C 136.183594 398.804688 136.105469 399.78125 136.105469 401.332031 L 136.105469 412.460938 C 136.105469 414.078125 136.1875 415.089844 136.347656 415.492188 C 136.511719 415.898438 136.863281 416.101562 137.402344 416.101562 C 137.925781 416.101562 138.253906 415.917969 138.382812 415.546875 C 138.511719 415.175781 138.574219 414.273438 138.574219 412.84375 Z M 136.25 393.523438 L 136.105469 395.894531 C 136.835938 394.9375 137.636719 394.222656 138.515625 393.746094 C 139.390625 393.273438 140.347656 393.039062 141.386719 393.039062 C 142.65625 393.039062 143.75 393.378906 144.675781 394.058594 C 145.597656 394.742188 146.175781 395.527344 146.40625 396.417969 C 146.632812 397.308594 146.75 398.816406 146.75 400.949219 L 146.75 412.257812 C 146.75 414.699219 146.605469 416.433594 146.3125 417.46875 C 146.023438 418.5 145.429688 419.320312 144.535156 419.933594 C 143.636719 420.550781 142.554688 420.855469 141.285156 420.855469 C 140.273438 420.855469 139.335938 420.621094 138.472656 420.144531 C 137.609375 419.675781 136.824219 418.972656 136.105469 418.039062 L 136.105469 424.195312 L 127.933594 424.195312 L 127.933594 393.523438 Z M 136.25 393.523438 "/>
<path fill-rule="nonzero" fill="rgb(100%, 100%, 100%)" fill-opacity="1" d="M 157.613281 387.617188 L 157.613281 394.984375 C 158.3125 394.335938 159.070312 393.847656 159.890625 393.523438 C 160.703125 393.199219 161.578125 393.039062 162.507812 393.039062 C 163.9375 393.039062 165.15625 393.402344 166.160156 394.132812 C 167.164062 394.859375 167.777344 395.699219 168.003906 396.648438 C 168.222656 397.601562 168.335938 399.335938 168.335938 401.859375 L 168.335938 420.371094 L 160.160156 420.371094 L 160.160156 401.476562 C 160.160156 399.910156 160.085938 398.90625 159.929688 398.460938 C 159.773438 398.015625 159.425781 397.792969 158.886719 397.792969 C 158.386719 397.792969 158.050781 398.023438 157.875 398.480469 C 157.699219 398.9375 157.613281 399.851562 157.613281 401.210938 L 157.613281 420.371094 L 149.4375 420.371094 L 149.4375 387.617188 Z M 157.613281 387.617188 "/>
<path fill-rule="nonzero" fill="rgb(100%, 100%, 100%)" fill-opacity="1" d="M 181.464844 400.929688 C 181.464844 399.550781 181.390625 398.683594 181.242188 398.328125 C 181.09375 397.972656 180.777344 397.792969 180.292969 397.792969 C 179.804688 397.792969 179.480469 397.972656 179.320312 398.328125 C 179.160156 398.683594 179.078125 399.550781 179.078125 400.929688 L 179.078125 413.046875 C 179.078125 414.3125 179.160156 415.140625 179.320312 415.523438 C 179.480469 415.910156 179.800781 416.101562 180.273438 416.101562 C 180.757812 416.101562 181.078125 415.925781 181.230469 415.574219 C 181.386719 415.226562 181.464844 414.46875 181.464844 413.308594 Z M 189.636719 402.953125 L 189.636719 409.527344 C 189.636719 411.941406 189.515625 413.710938 189.273438 414.835938 C 189.03125 415.964844 188.511719 417.015625 187.714844 417.992188 C 186.921875 418.972656 185.898438 419.691406 184.652344 420.15625 C 183.402344 420.621094 181.972656 420.855469 180.351562 420.855469 C 178.546875 420.855469 177.015625 420.65625 175.761719 420.257812 C 174.507812 419.859375 173.53125 419.261719 172.835938 418.457031 C 172.140625 417.65625 171.644531 416.683594 171.351562 415.546875 C 171.050781 414.40625 170.902344 412.695312 170.902344 410.417969 L 170.902344 403.539062 C 170.902344 401.042969 171.175781 399.09375 171.714844 397.691406 C 172.253906 396.289062 173.222656 395.164062 174.628906 394.3125 C 176.03125 393.464844 177.824219 393.039062 180.007812 393.039062 C 181.84375 393.039062 183.417969 393.3125 184.730469 393.855469 C 186.046875 394.40625 187.0625 395.117188 187.777344 395.992188 C 188.492188 396.871094 188.980469 397.773438 189.242188 398.703125 C 189.507812 399.632812 189.636719 401.050781 189.636719 402.953125 "/>
<path fill-rule="nonzero" fill="rgb(100%, 100%, 100%)" fill-opacity="1" d="M 200.644531 393.523438 L 200.503906 395.996094 C 201.097656 395.011719 201.820312 394.269531 202.675781 393.777344 C 203.535156 393.285156 204.519531 393.039062 205.640625 393.039062 C 207.042969 393.039062 208.191406 393.367188 209.082031 394.03125 C 209.96875 394.691406 210.542969 395.523438 210.800781 396.527344 C 211.054688 397.53125 211.183594 399.207031 211.183594 401.554688 L 211.183594 420.371094 L 203.011719 420.371094 L 203.011719 401.777344 C 203.011719 399.929688 202.949219 398.804688 202.828125 398.398438 C 202.707031 397.996094 202.371094 397.792969 201.816406 397.792969 C 201.238281 397.792969 200.871094 398.027344 200.722656 398.492188 C 200.578125 398.957031 200.503906 400.199219 200.503906 402.222656 L 200.503906 420.371094 L 192.328125 420.371094 L 192.328125 393.523438 Z M 200.644531 393.523438 "/>
<path fill-rule="nonzero" fill="rgb(100%, 100%, 100%)" fill-opacity="1" d="M 224.3125 403.054688 L 224.3125 401.089844 C 224.3125 399.703125 224.238281 398.804688 224.09375 398.398438 C 223.945312 397.996094 223.640625 397.792969 223.179688 397.792969 C 222.613281 397.792969 222.265625 397.964844 222.128906 398.308594 C 221.992188 398.652344 221.929688 399.578125 221.929688 401.089844 L 221.929688 403.054688 Z M 232.507812 407.421875 L 221.929688 407.421875 L 221.929688 413.230469 C 221.929688 414.441406 222.015625 415.226562 222.191406 415.574219 C 222.367188 415.925781 222.703125 416.101562 223.203125 416.101562 C 223.820312 416.101562 224.238281 415.867188 224.445312 415.402344 C 224.65625 414.9375 224.757812 414.039062 224.757812 412.703125 L 224.757812 409.160156 L 232.507812 409.160156 L 232.507812 411.144531 C 232.507812 412.804688 232.402344 414.078125 232.195312 414.96875 C 231.984375 415.859375 231.496094 416.808594 230.726562 417.820312 C 229.957031 418.832031 228.984375 419.589844 227.804688 420.097656 C 226.625 420.601562 225.144531 420.855469 223.363281 420.855469 C 221.636719 420.855469 220.113281 420.605469 218.789062 420.109375 C 217.46875 419.609375 216.441406 418.925781 215.707031 418.054688 C 214.972656 417.183594 214.460938 416.226562 214.179688 415.179688 C 213.894531 414.136719 213.753906 412.617188 213.753906 410.617188 L 213.753906 402.789062 C 213.753906 400.441406 214.070312 398.59375 214.703125 397.234375 C 215.339844 395.882812 216.375 394.84375 217.820312 394.121094 C 219.265625 393.398438 220.921875 393.039062 222.796875 393.039062 C 225.089844 393.039062 226.980469 393.472656 228.472656 394.34375 C 229.960938 395.214844 231.007812 396.367188 231.609375 397.800781 C 232.207031 399.238281 232.507812 401.257812 232.507812 403.863281 Z M 232.507812 407.421875 "/>
<path fill-rule="nonzero" fill="rgb(100%, 100%, 100%)" fill-opacity="1" d="M 255.085938 387.617188 L 255.085938 420.371094 L 246.914062 420.371094 L 246.914062 402.808594 C 246.914062 400.273438 246.851562 398.75 246.730469 398.238281 C 246.609375 397.726562 246.273438 397.335938 245.726562 397.074219 C 245.183594 396.8125 243.964844 396.679688 242.078125 396.679688 L 241.269531 396.679688 L 241.269531 392.859375 C 245.21875 392.011719 248.21875 390.261719 250.269531 387.617188 Z M 255.085938 387.617188 "/>
<path fill-rule="nonzero" fill="rgb(100%, 100%, 100%)" fill-opacity="1" d="M 269.265625 394.757812 C 269.265625 393.652344 269.167969 392.917969 268.972656 392.5625 C 268.78125 392.207031 268.40625 392.027344 267.851562 392.027344 C 267.3125 392.027344 266.949219 392.21875 266.757812 392.601562 C 266.570312 392.988281 266.476562 393.707031 266.476562 394.757812 L 266.476562 397.246094 C 266.476562 398.230469 266.582031 398.910156 266.800781 399.289062 C 267.015625 399.667969 267.378906 399.855469 267.890625 399.855469 C 268.433594 399.855469 268.796875 399.671875 268.984375 399.300781 C 269.171875 398.929688 269.265625 398.164062 269.265625 397.003906 Z M 269.429688 408.375 C 269.429688 407.117188 269.300781 406.285156 269.046875 405.875 C 268.789062 405.464844 268.382812 405.257812 267.832031 405.257812 C 267.292969 405.257812 266.90625 405.457031 266.667969 405.855469 C 266.433594 406.253906 266.3125 407.09375 266.3125 408.375 L 266.3125 412.621094 C 266.3125 414.039062 266.445312 414.949219 266.707031 415.355469 C 266.972656 415.757812 267.386719 415.960938 267.953125 415.960938 C 268.535156 415.960938 268.925781 415.753906 269.125 415.34375 C 269.328125 414.933594 269.429688 414.003906 269.429688 412.5625 Z M 273.859375 401.789062 C 275.058594 402.273438 275.984375 403 276.632812 403.964844 C 277.28125 404.929688 277.601562 407.226562 277.601562 410.855469 C 277.601562 413.5 277.347656 415.453125 276.835938 416.707031 C 276.320312 417.960938 275.324219 418.992188 273.839844 419.792969 C 272.355469 420.597656 270.367188 420.996094 267.871094 420.996094 C 265.445312 420.996094 263.523438 420.613281 262.105469 419.84375 C 260.6875 419.074219 259.675781 418.054688 259.0625 416.789062 C 258.449219 415.519531 258.140625 413.40625 258.140625 410.449219 C 258.140625 408.46875 258.292969 406.746094 258.597656 405.289062 C 258.898438 403.832031 259.851562 402.664062 261.457031 401.789062 C 260.449219 401.304688 259.6875 400.53125 259.183594 399.472656 C 258.675781 398.414062 258.425781 397.070312 258.425781 395.441406 C 258.425781 392.625 259.207031 390.511719 260.769531 389.101562 C 262.335938 387.695312 264.675781 386.988281 267.792969 386.988281 C 271.390625 386.988281 273.878906 387.738281 275.257812 389.234375 C 276.632812 390.730469 277.320312 392.867188 277.320312 395.640625 C 277.320312 397.40625 277.09375 398.683594 276.640625 399.460938 C 276.191406 400.246094 275.261719 401.019531 273.859375 401.789062 "/>
<path fill-rule="nonzero" fill="rgb(100%, 100%, 100%)" fill-opacity="1" d="M 291.519531 395.953125 C 291.519531 394.210938 291.4375 393.121094 291.269531 392.683594 C 291.101562 392.246094 290.707031 392.027344 290.085938 392.027344 C 289.476562 392.027344 289.078125 392.261719 288.882812 392.726562 C 288.6875 393.191406 288.589844 394.265625 288.589844 395.953125 L 288.589844 411.933594 C 288.589844 413.835938 288.679688 414.980469 288.863281 415.371094 C 289.042969 415.765625 289.4375 415.960938 290.042969 415.960938 C 290.652344 415.960938 291.050781 415.730469 291.238281 415.273438 C 291.425781 414.8125 291.519531 413.78125 291.519531 412.175781 Z M 299.695312 398.703125 L 299.695312 409.628906 C 299.695312 412.109375 299.558594 413.917969 299.292969 415.050781 C 299.019531 416.183594 298.460938 417.242188 297.613281 418.226562 C 296.761719 419.210938 295.738281 419.917969 294.535156 420.351562 C 293.335938 420.78125 291.996094 420.996094 290.511719 420.996094 C 288.554688 420.996094 286.929688 420.773438 285.632812 420.320312 C 284.339844 419.867188 283.308594 419.164062 282.539062 418.207031 C 281.769531 417.25 281.222656 416.238281 280.902344 415.179688 C 280.578125 414.121094 280.414062 412.441406 280.414062 410.132812 L 280.414062 398.703125 C 280.414062 395.695312 280.675781 393.441406 281.195312 391.945312 C 281.710938 390.449219 282.746094 389.246094 284.289062 388.34375 C 285.832031 387.441406 287.707031 386.988281 289.902344 386.988281 C 291.695312 386.988281 293.300781 387.304688 294.71875 387.929688 C 296.132812 388.558594 297.195312 389.320312 297.894531 390.226562 C 298.597656 391.128906 299.070312 392.148438 299.320312 393.28125 C 299.570312 394.414062 299.695312 396.222656 299.695312 398.703125 "/>
<path fill-rule="nonzero" fill="rgb(100%, 100%, 100%)" fill-opacity="1" d="M 313.734375 395.953125 C 313.734375 394.210938 313.652344 393.121094 313.484375 392.683594 C 313.316406 392.246094 312.917969 392.027344 312.300781 392.027344 C 311.691406 392.027344 311.289062 392.261719 311.097656 392.726562 C 310.898438 393.191406 310.800781 394.265625 310.800781 395.953125 L 310.800781 411.933594 C 310.800781 413.835938 310.894531 414.980469 311.074219 415.371094 C 311.257812 415.765625 311.652344 415.960938 312.257812 415.960938 C 312.867188 415.960938 313.261719 415.730469 313.453125 415.273438 C 313.640625 414.8125 313.734375 413.78125 313.734375 412.175781 Z M 321.910156 398.703125 L 321.910156 409.628906 C 321.910156 412.109375 321.773438 413.917969 321.503906 415.050781 C 321.234375 416.183594 320.675781 417.242188 319.824219 418.226562 C 318.976562 419.210938 317.949219 419.917969 316.75 420.351562 C 315.550781 420.78125 314.207031 420.996094 312.722656 420.996094 C 310.769531 420.996094 309.144531 420.773438 307.847656 420.320312 C 306.554688 419.867188 305.523438 419.164062 304.753906 418.207031 C 303.984375 417.25 303.4375 416.238281 303.113281 415.179688 C 302.789062 414.121094 302.628906 412.441406 302.628906 410.132812 L 302.628906 398.703125 C 302.628906 395.695312 302.886719 393.441406 303.40625 391.945312 C 303.925781 390.449219 304.957031 389.246094 306.503906 388.34375 C 308.046875 387.441406 309.917969 386.988281 312.117188 386.988281 C 313.910156 386.988281 315.515625 387.304688 316.933594 387.929688 C 318.347656 388.558594 319.40625 389.320312 320.109375 390.226562 C 320.808594 391.128906 321.285156 392.148438 321.535156 393.28125 C 321.785156 394.414062 321.910156 396.222656 321.910156 398.703125 "/>
<path fill-rule="nonzero" fill="rgb(100%, 100%, 100%)" fill-opacity="1" d="M 347.5 401.808594 C 348.742188 402.226562 349.664062 402.910156 350.273438 403.863281 C 350.878906 404.816406 351.183594 407.042969 351.183594 410.554688 C 351.183594 413.15625 350.886719 415.179688 350.292969 416.617188 C 349.699219 418.050781 348.671875 419.144531 347.21875 419.894531 C 345.761719 420.644531 343.894531 421.019531 341.613281 421.019531 C 339.023438 421.019531 336.992188 420.582031 335.515625 419.714844 C 334.039062 418.84375 333.066406 417.777344 332.601562 416.515625 C 332.136719 415.253906 331.902344 413.066406 331.902344 409.953125 L 331.902344 407.363281 L 340.078125 407.363281 L 340.078125 412.683594 C 340.078125 414.097656 340.160156 415 340.328125 415.382812 C 340.496094 415.769531 340.871094 415.960938 341.453125 415.960938 C 342.085938 415.960938 342.503906 415.71875 342.707031 415.230469 C 342.910156 414.746094 343.011719 413.476562 343.011719 411.429688 L 343.011719 409.160156 C 343.011719 407.910156 342.867188 406.992188 342.585938 406.410156 C 342.300781 405.832031 341.882812 405.449219 341.328125 405.269531 C 340.777344 405.085938 339.703125 404.980469 338.113281 404.953125 L 338.113281 400.199219 C 340.054688 400.199219 341.253906 400.125 341.714844 399.976562 C 342.171875 399.828125 342.503906 399.503906 342.707031 399.003906 C 342.910156 398.507812 343.011719 397.726562 343.011719 396.660156 L 343.011719 394.839844 C 343.011719 393.691406 342.890625 392.9375 342.65625 392.574219 C 342.417969 392.207031 342.050781 392.027344 341.554688 392.027344 C 340.988281 392.027344 340.597656 392.21875 340.390625 392.601562 C 340.179688 392.988281 340.078125 393.804688 340.078125 395.0625 L 340.078125 397.753906 L 331.902344 397.753906 L 331.902344 394.960938 C 331.902344 391.832031 332.617188 389.714844 334.046875 388.617188 C 335.476562 387.519531 337.75 386.96875 340.863281 386.96875 C 344.761719 386.96875 347.40625 387.730469 348.796875 389.253906 C 350.183594 390.777344 350.878906 392.894531 350.878906 395.601562 C 350.878906 397.4375 350.628906 398.757812 350.132812 399.574219 C 349.632812 400.390625 348.753906 401.132812 347.5 401.808594 "/>
<path fill-rule="nonzero" fill="rgb(100%, 100%, 100%)" fill-opacity="1" d="M 371.960938 387.617188 L 371.960938 392.855469 L 361.824219 392.855469 L 361.824219 398.421875 C 363.09375 396.921875 364.722656 396.175781 366.722656 396.175781 C 368.972656 396.175781 370.675781 396.804688 371.828125 398.066406 C 372.980469 399.328125 373.558594 401.75 373.558594 405.339844 L 373.558594 410.011719 C 373.558594 412.332031 373.445312 414.035156 373.226562 415.121094 C 373 416.207031 372.527344 417.210938 371.796875 418.136719 C 371.070312 419.058594 370.054688 419.765625 368.753906 420.257812 C 367.453125 420.75 365.863281 420.996094 363.988281 420.996094 C 361.886719 420.996094 360.03125 420.628906 358.425781 419.894531 C 356.820312 419.160156 355.679688 418.0625 355.007812 416.605469 C 354.332031 415.152344 353.996094 412.898438 353.996094 409.851562 L 353.996094 408.070312 L 362.167969 408.070312 L 362.167969 410.113281 C 362.167969 412.230469 362.242188 413.734375 362.390625 414.625 C 362.539062 415.515625 363.050781 415.960938 363.929688 415.960938 C 364.332031 415.960938 364.660156 415.832031 364.910156 415.574219 C 365.160156 415.320312 365.292969 415.042969 365.316406 414.746094 C 365.335938 414.449219 365.359375 413.160156 365.386719 410.882812 L 365.386719 404.386719 C 365.386719 403.160156 365.257812 402.324219 365 401.878906 C 364.742188 401.433594 364.320312 401.210938 363.726562 401.210938 C 363.347656 401.210938 363.03125 401.328125 362.773438 401.554688 C 362.519531 401.785156 362.355469 402.03125 362.28125 402.292969 C 362.207031 402.554688 362.167969 403.167969 362.167969 404.125 L 354.074219 404.125 L 354.417969 387.617188 Z M 371.960938 387.617188 "/>
<path fill-rule="nonzero" fill="rgb(100%, 100%, 100%)" fill-opacity="1" d="M 387.457031 395.953125 C 387.457031 394.210938 387.375 393.121094 387.207031 392.683594 C 387.035156 392.246094 386.640625 392.027344 386.019531 392.027344 C 385.414062 392.027344 385.011719 392.261719 384.816406 392.726562 C 384.621094 393.191406 384.523438 394.265625 384.523438 395.953125 L 384.523438 411.933594 C 384.523438 413.835938 384.613281 414.980469 384.796875 415.371094 C 384.980469 415.765625 385.375 415.960938 385.980469 415.960938 C 386.585938 415.960938 386.984375 415.730469 387.175781 415.273438 C 387.363281 414.8125 387.457031 413.78125 387.457031 412.175781 Z M 395.632812 398.703125 L 395.632812 409.628906 C 395.632812 412.109375 395.496094 413.917969 395.226562 415.050781 C 394.957031 416.183594 394.394531 417.242188 393.546875 418.226562 C 392.695312 419.210938 391.671875 419.917969 390.472656 420.351562 C 389.269531 420.78125 387.929688 420.996094 386.445312 420.996094 C 384.492188 420.996094 382.863281 420.773438 381.570312 420.320312 C 380.277344 419.867188 379.242188 419.164062 378.472656 418.207031 C 377.707031 417.25 377.160156 416.238281 376.835938 415.179688 C 376.511719 414.121094 376.351562 412.441406 376.351562 410.132812 L 376.351562 398.703125 C 376.351562 395.695312 376.609375 393.441406 377.128906 391.945312 C 377.648438 390.449219 378.679688 389.246094 380.226562 388.34375 C 381.769531 387.441406 383.640625 386.988281 385.839844 386.988281 C 387.632812 386.988281 389.238281 387.304688 390.652344 387.929688 C 392.070312 388.558594 393.128906 389.320312 393.832031 390.226562 C 394.53125 391.128906 395.007812 392.148438 395.257812 393.28125 C 395.507812 394.414062 395.632812 396.222656 395.632812 398.703125 "/>
<path fill-rule="nonzero" fill="rgb(100%, 100%, 100%)" fill-opacity="1" d="M 421.222656 401.808594 C 422.464844 402.226562 423.386719 402.910156 423.996094 403.863281 C 424.601562 404.816406 424.90625 407.042969 424.90625 410.554688 C 424.90625 413.15625 424.609375 415.179688 424.015625 416.617188 C 423.421875 418.050781 422.394531 419.144531 420.9375 419.894531 C 419.484375 420.644531 417.613281 421.019531 415.335938 421.019531 C 412.746094 421.019531 410.710938 420.582031 409.234375 419.714844 C 407.757812 418.84375 406.789062 417.777344 406.324219 416.515625 C 405.855469 415.253906 405.625 413.066406 405.625 409.953125 L 405.625 407.363281 L 413.796875 407.363281 L 413.796875 412.683594 C 413.796875 414.097656 413.882812 415 414.050781 415.382812 C 414.21875 415.769531 414.59375 415.960938 415.171875 415.960938 C 415.808594 415.960938 416.226562 415.71875 416.425781 415.230469 C 416.628906 414.746094 416.730469 413.476562 416.730469 411.429688 L 416.730469 409.160156 C 416.730469 407.910156 416.589844 406.992188 416.304688 406.410156 C 416.023438 405.832031 415.605469 405.449219 415.050781 405.269531 C 414.5 405.085938 413.425781 404.980469 411.835938 404.953125 L 411.835938 400.199219 C 413.777344 400.199219 414.976562 400.125 415.4375 399.976562 C 415.894531 399.828125 416.226562 399.503906 416.425781 399.003906 C 416.628906 398.507812 416.730469 397.726562 416.730469 396.660156 L 416.730469 394.839844 C 416.730469 393.691406 416.613281 392.9375 416.378906 392.574219 C 416.140625 392.207031 415.773438 392.027344 415.277344 392.027344 C 414.707031 392.027344 414.320312 392.21875 414.113281 392.601562 C 413.902344 392.988281 413.796875 393.804688 413.796875 395.0625 L 413.796875 397.753906 L 405.625 397.753906 L 405.625 394.960938 C 405.625 391.832031 406.339844 389.714844 407.769531 388.617188 C 409.199219 387.519531 411.472656 386.96875 414.585938 386.96875 C 418.484375 386.96875 421.128906 387.730469 422.519531 389.253906 C 423.90625 390.777344 424.601562 392.894531 424.601562 395.601562 C 424.601562 397.4375 424.351562 398.757812 423.855469 399.574219 C 423.351562 400.390625 422.476562 401.132812 421.222656 401.808594 "/>
<path fill-rule="nonzero" fill="rgb(100%, 100%, 100%)" fill-opacity="1" d="M 438.945312 395.953125 C 438.945312 394.210938 438.863281 393.121094 438.695312 392.683594 C 438.523438 392.246094 438.128906 392.027344 437.507812 392.027344 C 436.902344 392.027344 436.5 392.261719 436.304688 392.726562 C 436.109375 393.191406 436.011719 394.265625 436.011719 395.953125 L 436.011719 411.933594 C 436.011719 413.835938 436.101562 414.980469 436.285156 415.371094 C 436.46875 415.765625 436.863281 415.960938 437.46875 415.960938 C 438.074219 415.960938 438.472656 415.730469 438.664062 415.273438 C 438.851562 414.8125 438.945312 413.78125 438.945312 412.175781 Z M 447.117188 398.703125 L 447.117188 409.628906 C 447.117188 412.109375 446.984375 413.917969 446.714844 415.050781 C 446.445312 416.183594 445.882812 417.242188 445.035156 418.226562 C 444.183594 419.210938 443.160156 419.917969 441.960938 420.351562 C 440.757812 420.78125 439.417969 420.996094 437.933594 420.996094 C 435.976562 420.996094 434.351562 420.773438 433.058594 420.320312 C 431.761719 419.867188 430.730469 419.164062 429.960938 418.207031 C 429.195312 417.25 428.648438 416.238281 428.324219 415.179688 C 428 414.121094 427.839844 412.441406 427.839844 410.132812 L 427.839844 398.703125 C 427.839844 395.695312 428.097656 393.441406 428.617188 391.945312 C 429.136719 390.449219 430.167969 389.246094 431.714844 388.34375 C 433.257812 387.441406 435.128906 386.988281 437.328125 386.988281 C 439.121094 386.988281 440.726562 387.304688 442.140625 387.929688 C 443.558594 388.558594 444.617188 389.320312 445.320312 390.226562 C 446.019531 391.128906 446.496094 392.148438 446.746094 393.28125 C 446.996094 394.414062 447.117188 396.222656 447.117188 398.703125 "/>
<path fill-rule="nonzero" fill="rgb(100%, 100%, 100%)" fill-opacity="1" d="M 461.160156 395.953125 C 461.160156 394.210938 461.074219 393.121094 460.90625 392.683594 C 460.738281 392.246094 460.34375 392.027344 459.722656 392.027344 C 459.117188 392.027344 458.714844 392.261719 458.519531 392.726562 C 458.324219 393.191406 458.226562 394.265625 458.226562 395.953125 L 458.226562 411.933594 C 458.226562 413.835938 458.316406 414.980469 458.5 415.371094 C 458.683594 415.765625 459.074219 415.960938 459.683594 415.960938 C 460.289062 415.960938 460.6875 415.730469 460.875 415.273438 C 461.066406 414.8125 461.160156 413.78125 461.160156 412.175781 Z M 469.332031 398.703125 L 469.332031 409.628906 C 469.332031 412.109375 469.199219 413.917969 468.929688 415.050781 C 468.660156 416.183594 468.097656 417.242188 467.25 418.226562 C 466.398438 419.210938 465.375 419.917969 464.175781 420.351562 C 462.972656 420.78125 461.632812 420.996094 460.148438 420.996094 C 458.191406 420.996094 456.566406 420.773438 455.273438 420.320312 C 453.976562 419.867188 452.945312 419.164062 452.175781 418.207031 C 451.410156 417.25 450.863281 416.238281 450.539062 415.179688 C 450.214844 414.121094 450.054688 412.441406 450.054688 410.132812 L 450.054688 398.703125 C 450.054688 395.695312 450.3125 393.441406 450.832031 391.945312 C 451.351562 390.449219 452.382812 389.246094 453.929688 388.34375 C 455.472656 387.441406 457.34375 386.988281 459.539062 386.988281 C 461.335938 386.988281 462.941406 387.304688 464.355469 387.929688 C 465.773438 388.558594 466.832031 389.320312 467.53125 390.226562 C 468.234375 391.128906 468.707031 392.148438 468.960938 393.28125 C 469.207031 394.414062 469.332031 396.222656 469.332031 398.703125 "/>
<path fill-rule="nonzero" fill="rgb(100%, 100%, 100%)" fill-opacity="1" d="M 64.894531 451.054688 C 64.894531 449.394531 64.832031 448.390625 64.710938 448.039062 C 64.589844 447.6875 64.253906 447.511719 63.699219 447.511719 C 63.160156 447.511719 62.8125 447.714844 62.660156 448.121094 C 62.503906 448.523438 62.425781 449.503906 62.425781 451.054688 L 62.425781 462.179688 C 62.425781 463.800781 62.507812 464.8125 62.667969 465.214844 C 62.828125 465.621094 63.179688 465.820312 63.722656 465.820312 C 64.246094 465.820312 64.574219 465.636719 64.703125 465.265625 C 64.828125 464.894531 64.894531 463.996094 64.894531 462.566406 Z M 62.566406 443.246094 L 62.425781 445.617188 C 63.152344 444.65625 63.957031 443.941406 64.832031 443.46875 C 65.710938 442.996094 66.667969 442.757812 67.707031 442.757812 C 68.972656 442.757812 70.070312 443.097656 70.992188 443.78125 C 71.917969 444.460938 72.492188 445.246094 72.722656 446.136719 C 72.953125 447.027344 73.066406 448.539062 73.066406 450.667969 L 73.066406 461.976562 C 73.066406 464.417969 72.921875 466.15625 72.632812 467.1875 C 72.34375 468.21875 71.75 469.042969 70.851562 469.65625 C 69.953125 470.269531 68.871094 470.578125 67.605469 470.578125 C 66.59375 470.578125 65.65625 470.339844 64.792969 469.867188 C 63.929688 469.394531 63.140625 468.691406 62.425781 467.757812 L 62.425781 473.914062 L 54.25 473.914062 L 54.25 443.246094 Z M 62.566406 443.246094 "/>
<path fill-rule="nonzero" fill="rgb(100%, 100%, 100%)" fill-opacity="1" d="M 85.652344 457.324219 C 84.34375 458.28125 83.585938 459.085938 83.375 459.730469 C 83.164062 460.378906 83.0625 461.308594 83.0625 462.523438 C 83.0625 463.914062 83.152344 464.8125 83.335938 465.214844 C 83.515625 465.617188 83.878906 465.820312 84.417969 465.820312 C 84.929688 465.820312 85.261719 465.664062 85.417969 465.347656 C 85.574219 465.03125 85.652344 464.195312 85.652344 462.847656 Z M 83.0625 453.644531 L 75.394531 453.644531 L 75.394531 451.84375 C 75.394531 449.765625 75.632812 448.164062 76.109375 447.039062 C 76.589844 445.910156 77.550781 444.914062 78.996094 444.054688 C 80.4375 443.191406 82.3125 442.757812 84.617188 442.757812 C 87.382812 442.757812 89.46875 443.246094 90.871094 444.226562 C 92.273438 445.203125 93.117188 446.402344 93.398438 447.824219 C 93.683594 449.25 93.824219 452.179688 93.824219 456.617188 L 93.824219 470.089844 L 85.875 470.089844 L 85.875 467.699219 C 85.375 468.65625 84.730469 469.378906 83.941406 469.855469 C 83.152344 470.335938 82.210938 470.578125 81.121094 470.578125 C 79.6875 470.578125 78.378906 470.175781 77.183594 469.371094 C 75.988281 468.570312 75.394531 466.8125 75.394531 464.101562 L 75.394531 461.898438 C 75.394531 459.886719 75.710938 458.519531 76.34375 457.789062 C 76.976562 457.0625 78.550781 456.210938 81.058594 455.242188 C 83.742188 454.1875 85.179688 453.480469 85.367188 453.117188 C 85.554688 452.753906 85.652344 452.011719 85.652344 450.890625 C 85.652344 449.488281 85.546875 448.574219 85.335938 448.152344 C 85.128906 447.726562 84.78125 447.511719 84.296875 447.511719 C 83.742188 447.511719 83.398438 447.691406 83.265625 448.050781 C 83.128906 448.40625 83.0625 449.332031 83.0625 450.832031 Z M 83.0625 453.644531 "/>
<path fill-rule="nonzero" fill="rgb(100%, 100%, 100%)" fill-opacity="1" d="M 105.253906 439.664062 L 105.253906 443.890625 L 107.460938 443.890625 L 107.460938 448.140625 L 105.253906 448.140625 L 105.253906 462.503906 C 105.253906 464.269531 105.347656 465.253906 105.527344 465.457031 C 105.710938 465.660156 106.46875 465.761719 107.804688 465.761719 L 107.804688 470.089844 L 104.507812 470.089844 C 102.644531 470.089844 101.316406 470.011719 100.519531 469.859375 C 99.726562 469.703125 99.023438 469.347656 98.417969 468.785156 C 97.808594 468.226562 97.433594 467.585938 97.28125 466.863281 C 97.136719 466.140625 97.0625 464.445312 97.0625 461.773438 L 97.0625 448.140625 L 95.300781 448.140625 L 95.300781 443.890625 L 97.0625 443.890625 L 97.0625 439.664062 Z M 105.253906 439.664062 "/>
<path fill-rule="nonzero" fill="rgb(100%, 100%, 100%)" fill-opacity="1" d="M 117.675781 470.089844 L 109.261719 470.089844 L 109.261719 443.242188 L 117.675781 443.242188 Z M 117.675781 441.605469 L 109.261719 441.605469 L 109.261719 437.335938 L 117.675781 437.335938 Z M 117.675781 441.605469 "/>
<path fill-rule="nonzero" fill="rgb(100%, 100%, 100%)" fill-opacity="1" d="M 130.925781 452.773438 L 130.925781 450.808594 C 130.925781 449.421875 130.851562 448.523438 130.707031 448.121094 C 130.558594 447.714844 130.253906 447.511719 129.792969 447.511719 C 129.226562 447.511719 128.878906 447.683594 128.742188 448.027344 C 128.605469 448.371094 128.542969 449.300781 128.542969 450.808594 L 128.542969 452.773438 Z M 139.121094 457.140625 L 128.542969 457.140625 L 128.542969 462.949219 C 128.542969 464.164062 128.628906 464.945312 128.804688 465.296875 C 128.980469 465.644531 129.316406 465.820312 129.816406 465.820312 C 130.433594 465.820312 130.851562 465.589844 131.058594 465.125 C 131.269531 464.65625 131.371094 463.757812 131.371094 462.421875 L 131.371094 458.882812 L 139.121094 458.882812 L 139.121094 460.863281 C 139.121094 462.523438 139.015625 463.800781 138.808594 464.6875 C 138.597656 465.578125 138.109375 466.53125 137.339844 467.542969 C 136.570312 468.554688 135.597656 469.3125 134.417969 469.816406 C 133.238281 470.324219 131.757812 470.578125 129.976562 470.578125 C 128.25 470.578125 126.726562 470.328125 125.402344 469.828125 C 124.082031 469.328125 123.054688 468.644531 122.320312 467.773438 C 121.585938 466.902344 121.074219 465.945312 120.792969 464.902344 C 120.507812 463.855469 120.367188 462.335938 120.367188 460.339844 L 120.367188 452.511719 C 120.367188 450.164062 120.683594 448.3125 121.316406 446.957031 C 121.953125 445.601562 122.988281 444.5625 124.433594 443.839844 C 125.878906 443.121094 127.535156 442.757812 129.410156 442.757812 C 131.703125 442.757812 133.59375 443.191406 135.085938 444.0625 C 136.574219 444.933594 137.621094 446.085938 138.222656 447.523438 C 138.820312 448.960938 139.121094 450.980469 139.121094 453.582031 Z M 139.121094 457.140625 "/>
<path fill-rule="nonzero" fill="rgb(100%, 100%, 100%)" fill-opacity="1" d="M 150.105469 443.242188 L 149.964844 445.71875 C 150.558594 444.730469 151.285156 443.992188 152.140625 443.5 C 152.996094 443.003906 153.984375 442.757812 155.105469 442.757812 C 156.507812 442.757812 157.652344 443.089844 158.542969 443.75 C 159.433594 444.410156 160.007812 445.242188 160.261719 446.246094 C 160.519531 447.253906 160.648438 448.929688 160.648438 451.273438 L 160.648438 470.089844 L 152.472656 470.089844 L 152.472656 451.5 C 152.472656 449.648438 152.414062 448.523438 152.292969 448.117188 C 152.171875 447.714844 151.832031 447.511719 151.28125 447.511719 C 150.699219 447.511719 150.335938 447.746094 150.1875 448.210938 C 150.039062 448.675781 149.964844 449.921875 149.964844 451.941406 L 149.964844 470.089844 L 141.792969 470.089844 L 141.792969 443.242188 Z M 150.105469 443.242188 "/>
<path fill-rule="nonzero" fill="rgb(100%, 100%, 100%)" fill-opacity="1" d="M 172.078125 439.664062 L 172.078125 443.890625 L 174.28125 443.890625 L 174.28125 448.140625 L 172.078125 448.140625 L 172.078125 462.503906 C 172.078125 464.269531 172.167969 465.253906 172.351562 465.457031 C 172.535156 465.660156 173.292969 465.761719 174.625 465.761719 L 174.625 470.089844 L 171.328125 470.089844 C 169.46875 470.089844 168.140625 470.011719 167.34375 469.859375 C 166.546875 469.703125 165.847656 469.347656 165.238281 468.785156 C 164.632812 468.226562 164.253906 467.585938 164.105469 466.863281 C 163.957031 466.140625 163.882812 464.445312 163.882812 461.773438 L 163.882812 448.140625 L 162.125 448.140625 L 162.125 443.890625 L 163.882812 443.890625 L 163.882812 439.664062 Z M 172.078125 439.664062 "/>
<path fill-rule="nonzero" fill="rgb(100%, 100%, 100%)" fill-opacity="1" d="M 192.773438 451.820312 L 185.53125 451.820312 L 185.53125 450.363281 C 185.53125 449.125 185.460938 448.339844 185.320312 448.007812 C 185.175781 447.679688 184.824219 447.511719 184.257812 447.511719 C 183.796875 447.511719 183.453125 447.664062 183.222656 447.96875 C 182.996094 448.273438 182.878906 448.726562 182.878906 449.332031 C 182.878906 450.15625 182.9375 450.761719 183.050781 451.144531 C 183.167969 451.527344 183.511719 451.949219 184.085938 452.410156 C 184.65625 452.867188 185.835938 453.535156 187.613281 454.410156 C 189.988281 455.570312 191.546875 456.664062 192.289062 457.6875 C 193.03125 458.714844 193.402344 460.203125 193.402344 462.160156 C 193.402344 464.34375 193.117188 465.992188 192.550781 467.105469 C 191.984375 468.21875 191.035156 469.074219 189.710938 469.675781 C 188.378906 470.277344 186.777344 470.578125 184.902344 470.578125 C 182.828125 470.578125 181.050781 470.25 179.574219 469.605469 C 178.09375 468.957031 177.082031 468.082031 176.527344 466.976562 C 175.976562 465.871094 175.699219 464.195312 175.699219 461.957031 L 175.699219 460.664062 L 182.941406 460.664062 L 182.941406 462.363281 C 182.941406 463.804688 183.03125 464.742188 183.214844 465.175781 C 183.398438 465.605469 183.757812 465.820312 184.296875 465.820312 C 184.875 465.820312 185.28125 465.679688 185.511719 465.386719 C 185.742188 465.097656 185.855469 464.484375 185.855469 463.554688 C 185.855469 462.273438 185.707031 461.472656 185.410156 461.148438 C 185.097656 460.824219 183.515625 459.867188 180.65625 458.273438 C 178.253906 456.929688 176.792969 455.703125 176.265625 454.605469 C 175.738281 453.503906 175.476562 452.199219 175.476562 450.6875 C 175.476562 448.542969 175.757812 446.964844 176.324219 445.945312 C 176.894531 444.925781 177.851562 444.140625 179.207031 443.589844 C 180.566406 443.035156 182.136719 442.757812 183.933594 442.757812 C 185.714844 442.757812 187.226562 442.984375 188.476562 443.4375 C 189.722656 443.890625 190.679688 444.484375 191.347656 445.226562 C 192.015625 445.96875 192.417969 446.65625 192.5625 447.289062 C 192.703125 447.925781 192.773438 448.914062 192.773438 450.265625 Z M 192.773438 451.820312 "/>
<path fill-rule="nonzero" fill="rgb(100%, 100%, 100%)" fill-opacity="1" d="M 214.300781 443.242188 L 214.300781 470.089844 L 205.984375 470.089844 L 206.125 467.859375 C 205.558594 468.765625 204.863281 469.445312 204.03125 469.898438 C 203.203125 470.351562 202.25 470.578125 201.167969 470.578125 C 199.941406 470.578125 198.925781 470.359375 198.113281 469.929688 C 197.304688 469.496094 196.707031 468.925781 196.324219 468.210938 C 195.941406 467.492188 195.703125 466.75 195.605469 465.972656 C 195.511719 465.199219 195.464844 463.65625 195.464844 461.351562 L 195.464844 443.242188 L 203.636719 443.242188 L 203.636719 461.511719 C 203.636719 463.601562 203.703125 464.84375 203.832031 465.234375 C 203.957031 465.625 204.304688 465.820312 204.871094 465.820312 C 205.480469 465.820312 205.839844 465.617188 205.953125 465.214844 C 206.070312 464.8125 206.125 463.507812 206.125 461.308594 L 206.125 443.242188 Z M 214.300781 443.242188 "/>
<path fill-rule="nonzero" fill="rgb(100%, 100%, 100%)" fill-opacity="1" d="M 227.875 451.054688 C 227.875 449.394531 227.816406 448.390625 227.695312 448.039062 C 227.570312 447.6875 227.234375 447.511719 226.679688 447.511719 C 226.144531 447.511719 225.792969 447.714844 225.640625 448.121094 C 225.484375 448.523438 225.40625 449.503906 225.40625 451.054688 L 225.40625 462.179688 C 225.40625 463.800781 225.488281 464.8125 225.648438 465.214844 C 225.8125 465.621094 226.160156 465.820312 226.703125 465.820312 C 227.226562 465.820312 227.554688 465.636719 227.683594 465.265625 C 227.8125 464.894531 227.875 463.996094 227.875 462.566406 Z M 225.546875 443.246094 L 225.40625 445.617188 C 226.132812 444.65625 226.9375 443.941406 227.816406 443.46875 C 228.691406 442.996094 229.648438 442.757812 230.6875 442.757812 C 231.953125 442.757812 233.050781 443.097656 233.972656 443.78125 C 234.898438 444.460938 235.476562 445.246094 235.703125 446.136719 C 235.933594 447.027344 236.046875 448.539062 236.046875 450.667969 L 236.046875 461.976562 C 236.046875 464.417969 235.902344 466.15625 235.613281 467.1875 C 235.324219 468.21875 234.730469 469.042969 233.832031 469.65625 C 232.9375 470.269531 231.855469 470.578125 230.585938 470.578125 C 229.574219 470.578125 228.636719 470.339844 227.773438 469.867188 C 226.910156 469.394531 226.121094 468.691406 225.40625 467.757812 L 225.40625 473.914062 L 217.234375 473.914062 L 217.234375 443.246094 Z M 225.546875 443.246094 "/>
<path fill-rule="nonzero" fill="rgb(100%, 100%, 100%)" fill-opacity="1" d="M 249.382812 451.054688 C 249.382812 449.394531 249.320312 448.390625 249.199219 448.039062 C 249.078125 447.6875 248.738281 447.511719 248.1875 447.511719 C 247.648438 447.511719 247.300781 447.714844 247.144531 448.121094 C 246.988281 448.523438 246.910156 449.503906 246.910156 451.054688 L 246.910156 462.179688 C 246.910156 463.800781 246.992188 464.8125 247.15625 465.214844 C 247.316406 465.621094 247.667969 465.820312 248.207031 465.820312 C 248.734375 465.820312 249.0625 465.636719 249.1875 465.265625 C 249.316406 464.894531 249.382812 463.996094 249.382812 462.566406 Z M 247.054688 443.246094 L 246.910156 445.617188 C 247.640625 444.65625 248.441406 443.941406 249.320312 443.46875 C 250.195312 442.996094 251.152344 442.757812 252.191406 442.757812 C 253.460938 442.757812 254.558594 443.097656 255.480469 443.78125 C 256.402344 444.460938 256.980469 445.246094 257.210938 446.136719 C 257.4375 447.027344 257.554688 448.539062 257.554688 450.667969 L 257.554688 461.976562 C 257.554688 464.417969 257.410156 466.15625 257.117188 467.1875 C 256.828125 468.21875 256.234375 469.042969 255.339844 469.65625 C 254.441406 470.269531 253.359375 470.578125 252.09375 470.578125 C 251.078125 470.578125 250.140625 470.339844 249.28125 469.867188 C 248.414062 469.394531 247.628906 468.691406 246.910156 467.757812 L 246.910156 473.914062 L 238.738281 473.914062 L 238.738281 443.246094 Z M 247.054688 443.246094 "/>
<path fill-rule="nonzero" fill="rgb(100%, 100%, 100%)" fill-opacity="1" d="M 270.5625 450.648438 C 270.5625 449.273438 270.488281 448.40625 270.339844 448.050781 C 270.191406 447.691406 269.875 447.511719 269.390625 447.511719 C 268.902344 447.511719 268.578125 447.691406 268.417969 448.050781 C 268.257812 448.40625 268.175781 449.273438 268.175781 450.648438 L 268.175781 462.765625 C 268.175781 464.035156 268.257812 464.859375 268.417969 465.246094 C 268.578125 465.628906 268.898438 465.820312 269.371094 465.820312 C 269.855469 465.820312 270.175781 465.648438 270.328125 465.296875 C 270.484375 464.945312 270.5625 464.191406 270.5625 463.03125 Z M 278.734375 452.671875 L 278.734375 459.246094 C 278.734375 461.660156 278.613281 463.429688 278.371094 464.558594 C 278.128906 465.683594 277.609375 466.738281 276.8125 467.714844 C 276.019531 468.691406 274.996094 469.414062 273.75 469.878906 C 272.5 470.34375 271.070312 470.578125 269.449219 470.578125 C 267.644531 470.578125 266.113281 470.378906 264.859375 469.976562 C 263.605469 469.582031 262.628906 468.980469 261.933594 468.179688 C 261.238281 467.375 260.742188 466.40625 260.449219 465.265625 C 260.148438 464.125 260 462.414062 260 460.136719 L 260 453.257812 C 260 450.761719 260.273438 448.816406 260.8125 447.410156 C 261.351562 446.007812 262.320312 444.882812 263.726562 444.03125 C 265.128906 443.183594 266.921875 442.757812 269.105469 442.757812 C 270.941406 442.757812 272.515625 443.03125 273.828125 443.578125 C 275.144531 444.125 276.160156 444.835938 276.875 445.710938 C 277.589844 446.589844 278.078125 447.492188 278.339844 448.421875 C 278.605469 449.355469 278.734375 450.769531 278.734375 452.671875 "/>
<path fill-rule="nonzero" fill="rgb(100%, 100%, 100%)" fill-opacity="1" d="M 289.601562 443.242188 L 289.277344 446.773438 C 290.464844 444.246094 292.183594 442.90625 294.4375 442.757812 L 294.4375 452.207031 C 292.9375 452.207031 291.839844 452.410156 291.136719 452.8125 C 290.4375 453.21875 290.003906 453.78125 289.84375 454.503906 C 289.679688 455.222656 289.601562 456.886719 289.601562 459.488281 L 289.601562 470.089844 L 281.425781 470.089844 L 281.425781 443.242188 Z M 289.601562 443.242188 "/>
<path fill-rule="nonzero" fill="rgb(100%, 100%, 100%)" fill-opacity="1" d="M 305.625 439.664062 L 305.625 443.890625 L 307.828125 443.890625 L 307.828125 448.140625 L 305.625 448.140625 L 305.625 462.503906 C 305.625 464.269531 305.714844 465.253906 305.894531 465.457031 C 306.078125 465.660156 306.835938 465.761719 308.171875 465.761719 L 308.171875 470.089844 L 304.875 470.089844 C 303.011719 470.089844 301.683594 470.011719 300.890625 469.859375 C 300.09375 469.703125 299.390625 469.347656 298.785156 468.785156 C 298.179688 468.226562 297.800781 467.585938 297.652344 466.863281 C 297.503906 466.140625 297.429688 464.445312 297.429688 461.773438 L 297.429688 448.140625 L 295.667969 448.140625 L 295.667969 443.890625 L 297.429688 443.890625 L 297.429688 439.664062 Z M 305.625 439.664062 "/>
<path fill-rule="nonzero" fill="rgb(100%, 100%, 100%)" fill-opacity="1" d="M 318.792969 457.101562 C 318.792969 458.371094 319.0625 459.441406 319.601562 460.320312 C 320.140625 461.195312 320.863281 461.632812 321.765625 461.632812 C 322.644531 461.632812 323.417969 461.289062 324.082031 460.601562 C 324.75 459.914062 325.367188 458.5 325.933594 456.363281 C 326.5 454.226562 326.785156 452.1875 326.785156 450.242188 C 326.785156 449.03125 326.527344 448.050781 326.015625 447.300781 C 325.503906 446.550781 324.808594 446.175781 323.933594 446.175781 C 322.285156 446.175781 321.019531 447.332031 320.128906 449.648438 C 319.238281 451.960938 318.792969 454.445312 318.792969 457.101562 M 332.308594 443.628906 L 329.738281 459.652344 C 329.683594 460.003906 329.65625 460.238281 329.65625 460.359375 C 329.65625 460.886719 329.90625 461.148438 330.40625 461.148438 C 331.214844 461.148438 332.09375 460.761719 333.046875 459.984375 C 333.996094 459.210938 334.828125 458.0625 335.535156 456.535156 C 336.242188 455.011719 336.597656 453.230469 336.597656 451.195312 C 336.597656 447.753906 335.5625 444.972656 333.492188 442.851562 C 331.421875 440.726562 328.707031 439.664062 325.347656 439.664062 C 321.449219 439.664062 318.234375 441.007812 315.699219 443.699219 C 313.164062 446.390625 311.894531 449.980469 311.894531 454.472656 C 311.894531 458.800781 313.132812 462.238281 315.609375 464.78125 C 318.082031 467.324219 321.234375 468.59375 325.066406 468.59375 C 326.953125 468.59375 328.746094 468.277344 330.445312 467.644531 C 332.148438 467.007812 333.757812 466.066406 335.28125 464.8125 L 339.53125 464.8125 C 337.777344 467.046875 335.601562 468.742188 333.003906 469.890625 C 330.410156 471.035156 327.769531 471.609375 325.085938 471.609375 C 320.488281 471.609375 316.636719 470.054688 313.542969 466.945312 C 310.449219 463.835938 308.902344 459.738281 308.902344 454.65625 C 308.902344 449.609375 310.34375 445.347656 313.230469 441.867188 C 316.117188 438.390625 320.128906 436.648438 325.265625 436.648438 C 328.328125 436.648438 330.832031 437.238281 332.773438 438.417969 C 334.714844 439.601562 336.335938 441.246094 337.636719 443.355469 C 338.941406 445.464844 339.589844 448.078125 339.589844 451.195312 C 339.589844 455.335938 338.4375 458.597656 336.132812 460.976562 C 333.824219 463.355469 331.511719 464.546875 329.191406 464.546875 C 327.453125 464.546875 326.394531 463.765625 326.015625 462.199219 C 325.097656 463.089844 324.304688 463.707031 323.636719 464.050781 C 322.96875 464.394531 322.171875 464.566406 321.242188 464.566406 C 319.230469 464.566406 317.621094 463.785156 316.40625 462.21875 C 315.191406 460.65625 314.585938 458.566406 314.585938 455.949219 C 314.585938 452.578125 315.429688 449.578125 317.125 446.957031 C 318.816406 444.332031 320.878906 443.023438 323.304688 443.023438 C 324.277344 443.023438 325.152344 443.265625 325.933594 443.75 C 326.71875 444.234375 327.398438 444.964844 327.976562 445.933594 L 328.300781 443.628906 Z M 332.308594 443.628906 "/>
<path fill-rule="nonzero" fill="rgb(100%, 100%, 100%)" fill-opacity="1" d="M 358.648438 443.242188 L 354.824219 470.089844 L 344.144531 470.089844 L 340.035156 443.242188 L 347.335938 443.242188 L 349.636719 462.847656 C 349.816406 461.40625 350.121094 457.894531 350.558594 452.3125 C 350.789062 449.195312 351.054688 446.171875 351.351562 443.242188 Z M 358.648438 443.242188 "/>
<path fill-rule="nonzero" fill="rgb(100%, 100%, 100%)" fill-opacity="1" d="M 368.257812 470.089844 L 359.84375 470.089844 L 359.84375 443.242188 L 368.257812 443.242188 Z M 368.257812 441.605469 L 359.84375 441.605469 L 359.84375 437.335938 L 368.257812 437.335938 Z M 368.257812 441.605469 "/>
<path fill-rule="nonzero" fill="rgb(100%, 100%, 100%)" fill-opacity="1" d="M 388.105469 443.242188 L 384.28125 470.089844 L 373.597656 470.089844 L 369.492188 443.242188 L 376.789062 443.242188 L 379.09375 462.847656 C 379.273438 461.40625 379.578125 457.894531 380.011719 452.3125 C 380.246094 449.195312 380.511719 446.171875 380.804688 443.242188 Z M 388.105469 443.242188 "/>
<path fill-rule="nonzero" fill="rgb(100%, 100%, 100%)" fill-opacity="1" d="M 397.714844 470.089844 L 389.296875 470.089844 L 389.296875 443.242188 L 397.714844 443.242188 Z M 397.714844 441.605469 L 389.296875 441.605469 L 389.296875 437.335938 L 397.714844 437.335938 Z M 397.714844 441.605469 "/>
<path fill-rule="nonzero" fill="rgb(100%, 100%, 100%)" fill-opacity="1" d="M 417.339844 451.820312 L 410.097656 451.820312 L 410.097656 450.363281 C 410.097656 449.125 410.023438 448.339844 409.882812 448.007812 C 409.742188 447.679688 409.386719 447.511719 408.820312 447.511719 C 408.363281 447.511719 408.019531 447.664062 407.789062 447.96875 C 407.5625 448.273438 407.445312 448.726562 407.445312 449.332031 C 407.445312 450.15625 407.503906 450.761719 407.617188 451.144531 C 407.734375 451.527344 408.074219 451.949219 408.648438 452.410156 C 409.222656 452.867188 410.398438 453.535156 412.179688 454.410156 C 414.554688 455.570312 416.113281 456.664062 416.851562 457.6875 C 417.597656 458.714844 417.96875 460.203125 417.96875 462.160156 C 417.96875 464.34375 417.683594 465.992188 417.117188 467.105469 C 416.550781 468.21875 415.601562 469.074219 414.273438 469.675781 C 412.945312 470.277344 411.34375 470.578125 409.46875 470.578125 C 407.390625 470.578125 405.613281 470.25 404.136719 469.605469 C 402.660156 468.957031 401.648438 468.082031 401.09375 466.976562 C 400.539062 465.871094 400.265625 464.195312 400.265625 461.957031 L 400.265625 460.664062 L 407.507812 460.664062 L 407.507812 462.363281 C 407.507812 463.804688 407.597656 464.742188 407.78125 465.175781 C 407.960938 465.605469 408.320312 465.820312 408.863281 465.820312 C 409.441406 465.820312 409.847656 465.679688 410.074219 465.386719 C 410.304688 465.097656 410.421875 464.484375 410.421875 463.554688 C 410.421875 462.273438 410.269531 461.472656 409.976562 461.148438 C 409.664062 460.824219 408.078125 459.867188 405.21875 458.273438 C 402.820312 456.929688 401.355469 455.703125 400.828125 454.605469 C 400.304688 453.503906 400.039062 452.199219 400.039062 450.6875 C 400.039062 448.542969 400.324219 446.964844 400.890625 445.945312 C 401.457031 444.925781 402.417969 444.140625 403.773438 443.589844 C 405.128906 443.035156 406.703125 442.757812 408.496094 442.757812 C 410.277344 442.757812 411.792969 442.984375 413.039062 443.4375 C 414.285156 443.890625 415.246094 444.484375 415.910156 445.226562 C 416.578125 445.96875 416.984375 446.65625 417.125 447.289062 C 417.269531 447.925781 417.339844 448.914062 417.339844 450.265625 Z M 417.339844 451.820312 "/>
<path fill-rule="nonzero" fill="rgb(100%, 100%, 100%)" fill-opacity="1" d="M 430.46875 450.648438 C 430.46875 449.273438 430.394531 448.40625 430.246094 448.050781 C 430.097656 447.691406 429.78125 447.511719 429.296875 447.511719 C 428.8125 447.511719 428.488281 447.691406 428.324219 448.050781 C 428.164062 448.40625 428.082031 449.273438 428.082031 450.648438 L 428.082031 462.765625 C 428.082031 464.035156 428.164062 464.859375 428.324219 465.246094 C 428.488281 465.628906 428.804688 465.820312 429.277344 465.820312 C 429.761719 465.820312 430.082031 465.648438 430.238281 465.296875 C 430.390625 464.945312 430.46875 464.191406 430.46875 463.03125 Z M 438.644531 452.671875 L 438.644531 459.246094 C 438.644531 461.660156 438.519531 463.429688 438.277344 464.558594 C 438.035156 465.683594 437.515625 466.738281 436.71875 467.714844 C 435.925781 468.691406 434.902344 469.414062 433.65625 469.878906 C 432.40625 470.34375 430.976562 470.578125 429.355469 470.578125 C 427.546875 470.578125 426.019531 470.378906 424.765625 469.976562 C 423.507812 469.582031 422.535156 468.980469 421.839844 468.179688 C 421.144531 467.375 420.652344 466.40625 420.355469 465.265625 C 420.058594 464.125 419.910156 462.414062 419.910156 460.136719 L 419.910156 453.257812 C 419.910156 450.761719 420.175781 448.816406 420.71875 447.410156 C 421.257812 446.007812 422.230469 444.882812 423.632812 444.03125 C 425.035156 443.183594 426.828125 442.757812 429.011719 442.757812 C 430.847656 442.757812 432.421875 443.03125 433.738281 443.578125 C 435.050781 444.125 436.066406 444.835938 436.78125 445.710938 C 437.496094 446.589844 437.984375 447.492188 438.25 448.421875 C 438.511719 449.355469 438.644531 450.769531 438.644531 452.671875 "/>
<path fill-rule="nonzero" fill="rgb(100%, 100%, 100%)" fill-opacity="1" d="M 449.75 470.089844 L 441.335938 470.089844 L 441.335938 437.335938 L 449.75 437.335938 Z M 449.75 470.089844 "/>
<path fill-rule="nonzero" fill="rgb(100%, 100%, 100%)" fill-opacity="1" d="M 458.125 470.089844 L 451.953125 470.089844 L 451.953125 463.414062 L 458.125 463.414062 Z M 458.125 470.089844 "/>
<path fill-rule="nonzero" fill="rgb(100%, 100%, 100%)" fill-opacity="1" d="M 468.746094 470.089844 L 460.332031 470.089844 L 460.332031 443.242188 L 468.746094 443.242188 Z M 468.746094 441.605469 L 460.332031 441.605469 L 460.332031 437.335938 L 468.746094 437.335938 Z M 468.746094 441.605469 "/>
<path fill-rule="nonzero" fill="rgb(100%, 100%, 100%)" fill-opacity="1" d="M 481.996094 452.773438 L 481.996094 450.808594 C 481.996094 449.421875 481.921875 448.523438 481.773438 448.121094 C 481.625 447.714844 481.324219 447.511719 480.863281 447.511719 C 480.296875 447.511719 479.945312 447.683594 479.8125 448.027344 C 479.675781 448.371094 479.609375 449.300781 479.609375 450.808594 L 479.609375 452.773438 Z M 490.191406 457.140625 L 479.609375 457.140625 L 479.609375 462.949219 C 479.609375 464.164062 479.699219 464.945312 479.871094 465.296875 C 480.046875 465.644531 480.382812 465.820312 480.882812 465.820312 C 481.503906 465.820312 481.917969 465.589844 482.128906 465.125 C 482.335938 464.65625 482.441406 463.757812 482.441406 462.421875 L 482.441406 458.882812 L 490.191406 458.882812 L 490.191406 460.863281 C 490.191406 462.523438 490.085938 463.800781 489.878906 464.6875 C 489.667969 465.578125 489.179688 466.53125 488.410156 467.542969 C 487.640625 468.554688 486.667969 469.3125 485.488281 469.816406 C 484.304688 470.324219 482.828125 470.578125 481.046875 470.578125 C 479.320312 470.578125 477.796875 470.328125 476.472656 469.828125 C 475.152344 469.328125 474.125 468.644531 473.390625 467.773438 C 472.65625 466.902344 472.144531 465.945312 471.863281 464.902344 C 471.578125 463.855469 471.4375 462.335938 471.4375 460.339844 L 471.4375 452.511719 C 471.4375 450.164062 471.753906 448.3125 472.386719 446.957031 C 473.023438 445.601562 474.058594 444.5625 475.503906 443.839844 C 476.945312 443.121094 478.605469 442.757812 480.480469 442.757812 C 482.773438 442.757812 484.664062 443.191406 486.15625 444.0625 C 487.644531 444.933594 488.691406 446.085938 489.289062 447.523438 C 489.890625 448.960938 490.191406 450.980469 490.191406 453.582031 Z M 490.191406 457.140625 "/>
<path fill-rule="nonzero" fill="rgb(100%, 100%, 100%)" fill-opacity="1" d="M 328.261719 326.257812 L 328.261719 301.878906 L 333.183594 301.878906 L 333.183594 311.472656 L 342.828125 311.472656 L 342.828125 301.878906 L 347.75 301.878906 L 347.75 326.257812 L 342.828125 326.257812 L 342.828125 315.597656 L 333.183594 315.597656 L 333.183594 326.257812 Z M 328.261719 326.257812 "/>
<path fill-rule="nonzero" fill="rgb(100%, 100%, 100%)" fill-opacity="1" d="M 356.515625 317.425781 C 356.515625 319.179688 356.929688 320.523438 357.761719 321.453125 C 358.59375 322.382812 359.617188 322.847656 360.839844 322.847656 C 362.058594 322.847656 363.082031 322.382812 363.90625 321.453125 C 364.734375 320.523438 365.144531 319.167969 365.144531 317.394531 C 365.144531 315.664062 364.734375 314.335938 363.90625 313.402344 C 363.082031 312.472656 362.058594 312.007812 360.839844 312.007812 C 359.617188 312.007812 358.59375 312.472656 357.761719 313.402344 C 356.929688 314.335938 356.515625 315.675781 356.515625 317.425781 M 351.726562 317.179688 C 351.726562 315.625 352.109375 314.125 352.875 312.671875 C 353.636719 311.21875 354.722656 310.109375 356.125 309.347656 C 357.527344 308.582031 359.09375 308.199219 360.824219 308.199219 C 363.492188 308.199219 365.683594 309.066406 367.390625 310.800781 C 369.097656 312.535156 369.953125 314.726562 369.953125 317.378906 C 369.953125 320.050781 369.089844 322.265625 367.367188 324.023438 C 365.640625 325.777344 363.472656 326.65625 360.855469 326.65625 C 359.238281 326.65625 357.695312 326.292969 356.222656 325.558594 C 354.753906 324.828125 353.636719 323.753906 352.875 322.339844 C 352.109375 320.925781 351.726562 319.207031 351.726562 317.179688 "/>
<path fill-rule="nonzero" fill="rgb(100%, 100%, 100%)" fill-opacity="1" d="M 373.261719 308.597656 L 377.566406 308.597656 L 377.566406 311.007812 C 379.109375 309.136719 380.945312 308.195312 383.074219 308.195312 C 384.203125 308.195312 385.183594 308.429688 386.015625 308.894531 C 386.847656 309.363281 387.53125 310.066406 388.0625 311.007812 C 388.835938 310.066406 389.671875 309.363281 390.570312 308.894531 C 391.46875 308.429688 392.429688 308.195312 393.449219 308.195312 C 394.746094 308.195312 395.84375 308.460938 396.742188 308.988281 C 397.640625 309.515625 398.308594 310.289062 398.753906 311.308594 C 399.074219 312.0625 399.238281 313.28125 399.238281 314.964844 L 399.238281 326.257812 L 394.5625 326.257812 L 394.5625 316.164062 C 394.5625 314.414062 394.402344 313.28125 394.082031 312.769531 C 393.648438 312.105469 392.984375 311.773438 392.085938 311.773438 C 391.429688 311.773438 390.816406 311.972656 390.238281 312.371094 C 389.664062 312.769531 389.246094 313.355469 388.992188 314.125 C 388.738281 314.898438 388.609375 316.113281 388.609375 317.777344 L 388.609375 326.257812 L 383.9375 326.257812 L 383.9375 316.578125 C 383.9375 314.859375 383.855469 313.753906 383.6875 313.253906 C 383.519531 312.753906 383.261719 312.382812 382.914062 312.140625 C 382.566406 311.894531 382.089844 311.773438 381.492188 311.773438 C 380.773438 311.773438 380.121094 311.96875 379.546875 312.355469 C 378.96875 312.742188 378.558594 313.304688 378.308594 314.035156 C 378.058594 314.765625 377.933594 315.980469 377.933594 317.675781 L 377.933594 326.257812 L 373.261719 326.257812 Z M 373.261719 308.597656 "/>
<path fill-rule="nonzero" fill="rgb(100%, 100%, 100%)" fill-opacity="1" d="M 414.386719 315.914062 C 414.351562 314.5625 414.003906 313.535156 413.339844 312.828125 C 412.671875 312.125 411.863281 311.773438 410.910156 311.773438 C 409.890625 311.773438 409.046875 312.144531 408.382812 312.886719 C 407.71875 313.632812 407.390625 314.640625 407.402344 315.914062 Z M 414.121094 320.636719 L 418.773438 321.417969 C 418.175781 323.125 417.230469 324.425781 415.941406 325.316406 C 414.648438 326.210938 413.03125 326.65625 411.09375 326.65625 C 408.019531 326.65625 405.75 325.652344 404.273438 323.648438 C 403.109375 322.039062 402.527344 320.011719 402.527344 317.5625 C 402.527344 314.632812 403.292969 312.34375 404.824219 310.683594 C 406.355469 309.027344 408.289062 308.199219 410.628906 308.199219 C 413.253906 308.199219 415.328125 309.066406 416.847656 310.800781 C 418.363281 312.535156 419.089844 315.191406 419.023438 318.773438 L 407.316406 318.773438 C 407.351562 320.160156 407.726562 321.238281 408.449219 322.007812 C 409.167969 322.777344 410.066406 323.164062 411.140625 323.164062 C 411.875 323.164062 412.488281 322.964844 412.988281 322.566406 C 413.488281 322.167969 413.863281 321.523438 414.121094 320.636719 "/>
<path fill-rule="nonzero" fill="rgb(100%, 100%, 100%)" fill-opacity="1" d="M 436.402344 314.050781 C 436.402344 316.8125 437.039062 318.90625 438.316406 320.328125 C 439.589844 321.753906 441.207031 322.464844 443.171875 322.464844 C 445.132812 322.464844 446.746094 321.757812 448 320.347656 C 449.257812 318.933594 449.890625 316.8125 449.890625 313.984375 C 449.890625 311.191406 449.277344 309.105469 448.050781 307.730469 C 446.828125 306.359375 445.199219 305.671875 443.171875 305.671875 C 441.144531 305.671875 439.507812 306.367188 438.265625 307.757812 C 437.023438 309.148438 436.402344 311.246094 436.402344 314.050781 M 431.332031 314.21875 C 431.332031 311.734375 431.703125 309.648438 432.445312 307.964844 C 433 306.722656 433.757812 305.609375 434.714844 304.625 C 435.675781 303.636719 436.722656 302.902344 437.867188 302.425781 C 439.386719 301.785156 441.136719 301.464844 443.121094 301.464844 C 446.714844 301.464844 449.585938 302.578125 451.742188 304.804688 C 453.902344 307.03125 454.976562 310.132812 454.976562 314.101562 C 454.976562 318.039062 453.910156 321.117188 451.769531 323.339844 C 449.628906 325.5625 446.769531 326.675781 443.1875 326.675781 C 439.5625 326.675781 436.679688 325.566406 434.539062 323.355469 C 432.402344 321.144531 431.332031 318.097656 431.332031 314.21875 "/>
<path fill-rule="nonzero" fill="rgb(100%, 100%, 100%)" fill-opacity="1" d="M 456.542969 326.257812 L 462.910156 317.160156 L 456.808594 308.597656 L 462.511719 308.597656 L 465.636719 313.453125 L 468.929688 308.597656 L 474.417969 308.597656 L 468.433594 316.960938 L 474.96875 326.257812 L 469.230469 326.257812 L 465.636719 320.785156 L 462.011719 326.257812 Z M 456.542969 326.257812 "/>
<path fill-rule="nonzero" fill="rgb(100%, 100%, 100%)" fill-opacity="1" d="M 475.515625 308.597656 L 480.488281 308.597656 L 484.710938 321.136719 L 488.835938 308.597656 L 493.675781 308.597656 L 487.4375 325.59375 L 486.324219 328.667969 C 485.914062 329.699219 485.523438 330.488281 485.152344 331.03125 C 484.78125 331.574219 484.355469 332.015625 483.871094 332.351562 C 483.390625 332.691406 482.796875 332.953125 482.09375 333.144531 C 481.386719 333.332031 480.59375 333.425781 479.707031 333.425781 C 478.808594 333.425781 477.925781 333.332031 477.0625 333.144531 L 476.644531 329.484375 C 477.378906 329.628906 478.035156 329.699219 478.625 329.699219 C 479.710938 329.699219 480.515625 329.382812 481.035156 328.746094 C 481.558594 328.105469 481.957031 327.292969 482.234375 326.308594 Z M 475.515625 308.597656 "/>
<path fill-rule="nonzero" fill="rgb(100%, 100%, 100%)" fill-opacity="1" d="M 500.410156 317.0625 C 500.410156 318.933594 500.773438 320.308594 501.5 321.175781 C 502.226562 322.046875 503.121094 322.484375 504.183594 322.484375 C 505.328125 322.484375 506.292969 322.035156 507.078125 321.144531 C 507.867188 320.253906 508.257812 318.929688 508.257812 317.179688 C 508.257812 315.347656 507.882812 313.992188 507.128906 313.105469 C 506.375 312.21875 505.421875 311.773438 504.269531 311.773438 C 503.148438 311.773438 502.226562 312.210938 501.5 313.078125 C 500.773438 313.949219 500.410156 315.277344 500.410156 317.0625 M 496.234375 327.421875 L 501.574219 328.070312 C 501.664062 328.691406 501.867188 329.117188 502.1875 329.351562 C 502.632812 329.683594 503.332031 329.851562 504.285156 329.851562 C 505.503906 329.851562 506.417969 329.667969 507.027344 329.300781 C 507.4375 329.058594 507.75 328.664062 507.960938 328.121094 C 508.101562 327.730469 508.175781 327.015625 508.175781 325.976562 L 508.175781 323.398438 C 506.777344 325.304688 505.015625 326.257812 502.886719 326.257812 C 500.515625 326.257812 498.636719 325.253906 497.25 323.246094 C 496.164062 321.664062 495.621094 319.6875 495.621094 317.328125 C 495.621094 314.367188 496.332031 312.105469 497.757812 310.542969 C 499.183594 308.980469 500.953125 308.199219 503.070312 308.199219 C 505.253906 308.199219 507.054688 309.15625 508.476562 311.074219 L 508.476562 308.597656 L 512.847656 308.597656 L 512.847656 324.445312 C 512.847656 326.53125 512.675781 328.085938 512.332031 329.117188 C 511.988281 330.148438 511.507812 330.957031 510.886719 331.546875 C 510.265625 332.132812 509.4375 332.59375 508.402344 332.925781 C 507.363281 333.257812 506.054688 333.425781 504.46875 333.425781 C 501.472656 333.425781 499.351562 332.914062 498.097656 331.886719 C 496.847656 330.863281 496.21875 329.5625 496.21875 327.988281 C 496.21875 327.832031 496.222656 327.644531 496.234375 327.421875 "/>
<path fill-rule="nonzero" fill="rgb(100%, 100%, 100%)" fill-opacity="1" d="M 527.964844 315.914062 C 527.933594 314.5625 527.582031 313.535156 526.917969 312.828125 C 526.25 312.125 525.441406 311.773438 524.488281 311.773438 C 523.46875 311.773438 522.625 312.144531 521.960938 312.886719 C 521.296875 313.632812 520.96875 314.640625 520.980469 315.914062 Z M 527.699219 320.636719 L 532.355469 321.417969 C 531.757812 323.125 530.8125 324.425781 529.519531 325.316406 C 528.226562 326.210938 526.613281 326.65625 524.671875 326.65625 C 521.601562 326.65625 519.328125 325.652344 517.855469 323.648438 C 516.691406 322.039062 516.109375 320.011719 516.109375 317.5625 C 516.109375 314.632812 516.871094 312.34375 518.402344 310.683594 C 519.933594 309.027344 521.867188 308.199219 524.207031 308.199219 C 526.832031 308.199219 528.90625 309.066406 530.425781 310.800781 C 531.945312 312.535156 532.671875 315.191406 532.605469 318.773438 L 520.898438 318.773438 C 520.929688 320.160156 521.308594 321.238281 522.027344 322.007812 C 522.75 322.777344 523.648438 323.164062 524.722656 323.164062 C 525.453125 323.164062 526.070312 322.964844 526.566406 322.566406 C 527.066406 322.167969 527.441406 321.523438 527.699219 320.636719 "/>
<path fill-rule="nonzero" fill="rgb(100%, 100%, 100%)" fill-opacity="1" d="M 552.476562 326.257812 L 547.804688 326.257812 L 547.804688 317.246094 C 547.804688 315.339844 547.703125 314.105469 547.503906 313.542969 C 547.304688 312.984375 546.980469 312.546875 546.53125 312.238281 C 546.082031 311.929688 545.542969 311.773438 544.910156 311.773438 C 544.101562 311.773438 543.375 311.996094 542.730469 312.4375 C 542.089844 312.882812 541.648438 313.46875 541.410156 314.203125 C 541.171875 314.933594 541.050781 316.285156 541.050781 318.257812 L 541.050781 326.257812 L 536.378906 326.257812 L 536.378906 308.597656 L 540.71875 308.597656 L 540.71875 311.191406 C 542.261719 309.195312 544.199219 308.199219 546.539062 308.199219 C 547.570312 308.199219 548.511719 308.386719 549.367188 308.753906 C 550.21875 309.125 550.867188 309.601562 551.304688 310.179688 C 551.742188 310.753906 552.046875 311.40625 552.21875 312.140625 C 552.390625 312.871094 552.476562 313.917969 552.476562 315.28125 Z M 552.476562 326.257812 "/>
<path fill-rule="nonzero" fill="rgb(100%, 100%, 100%)" fill-opacity="1" d="M 566.144531 315.082031 L 575.324219 315.082031 L 575.324219 319.757812 L 566.144531 319.757812 Z M 566.144531 315.082031 "/>
<path fill-rule="nonzero" fill="rgb(100%, 100%, 100%)" fill-opacity="1" d="M 592.453125 315.632812 L 592.453125 322.152344 L 597.007812 322.152344 C 598.785156 322.152344 599.910156 322.101562 600.386719 322 C 601.117188 321.867188 601.710938 321.542969 602.171875 321.027344 C 602.632812 320.511719 602.863281 319.824219 602.863281 318.957031 C 602.863281 318.226562 602.683594 317.605469 602.332031 317.09375 C 601.976562 316.585938 601.464844 316.214844 600.792969 315.980469 C 600.121094 315.75 598.667969 315.632812 596.425781 315.632812 Z M 592.453125 305.9375 L 592.453125 311.574219 L 595.679688 311.574219 C 597.597656 311.574219 598.789062 311.546875 599.253906 311.492188 C 600.097656 311.390625 600.757812 311.101562 601.242188 310.617188 C 601.722656 310.136719 601.964844 309.5 601.964844 308.714844 C 601.964844 307.960938 601.757812 307.347656 601.34375 306.875 C 600.925781 306.40625 600.308594 306.121094 599.488281 306.019531 C 599 305.964844 597.597656 305.9375 595.28125 305.9375 Z M 587.53125 301.878906 L 597.277344 301.878906 C 599.207031 301.878906 600.644531 301.960938 601.589844 302.121094 C 602.539062 302.28125 603.386719 302.617188 604.136719 303.125 C 604.882812 303.636719 605.507812 304.316406 606.007812 305.164062 C 606.503906 306.011719 606.753906 306.960938 606.753906 308.015625 C 606.753906 309.15625 606.445312 310.203125 605.832031 311.15625 C 605.214844 312.113281 604.382812 312.828125 603.328125 313.304688 C 604.8125 313.738281 605.957031 314.472656 606.753906 315.515625 C 607.550781 316.558594 607.953125 317.78125 607.953125 319.191406 C 607.953125 320.300781 607.695312 321.378906 607.179688 322.425781 C 606.664062 323.472656 605.957031 324.308594 605.066406 324.933594 C 604.175781 325.5625 603.074219 325.949219 601.765625 326.09375 C 600.945312 326.179688 598.964844 326.234375 595.828125 326.257812 L 587.53125 326.257812 Z M 587.53125 301.878906 "/>
<path fill-rule="nonzero" fill="rgb(100%, 100%, 100%)" fill-opacity="1" d="M 612.078125 308.597656 L 616.75 308.597656 L 616.75 326.257812 L 612.078125 326.257812 Z M 612.078125 301.878906 L 616.75 301.878906 L 616.75 306.203125 L 612.078125 306.203125 Z M 612.078125 301.878906 "/>
<path fill-rule="nonzero" fill="rgb(100%, 100%, 100%)" fill-opacity="1" d="M 626.492188 306.003906 L 626.492188 312.921875 L 629.1875 312.921875 C 631.128906 312.921875 632.425781 312.792969 633.078125 312.539062 C 633.734375 312.28125 634.246094 311.886719 634.617188 311.339844 C 634.988281 310.796875 635.171875 310.167969 635.171875 309.445312 C 635.171875 308.558594 634.914062 307.828125 634.394531 307.25 C 633.871094 306.675781 633.210938 306.3125 632.414062 306.167969 C 631.824219 306.058594 630.644531 306.003906 628.871094 306.003906 Z M 621.570312 326.257812 L 621.570312 301.878906 L 629.46875 301.878906 C 632.460938 301.878906 634.414062 302 635.324219 302.246094 C 636.71875 302.609375 637.890625 303.40625 638.832031 304.632812 C 639.773438 305.855469 640.246094 307.4375 640.246094 309.378906 C 640.246094 310.875 639.972656 312.132812 639.433594 313.152344 C 638.886719 314.175781 638.199219 314.972656 637.359375 315.554688 C 636.523438 316.136719 635.671875 316.523438 634.808594 316.710938 C 633.632812 316.945312 631.929688 317.0625 629.703125 317.0625 L 626.492188 317.0625 L 626.492188 326.257812 Z M 621.570312 326.257812 "/>
<path fill-rule="nonzero" fill="rgb(100%, 100%, 100%)" fill-opacity="1" d="M 654.679688 316.613281 L 651.320312 307.566406 L 648.03125 316.613281 Z M 663.746094 326.257812 L 658.390625 326.257812 L 656.261719 320.71875 L 646.515625 320.71875 L 644.503906 326.257812 L 639.28125 326.257812 L 648.777344 301.878906 L 653.984375 301.878906 Z M 663.746094 326.257812 "/>
<path fill-rule="nonzero" fill="rgb(100%, 100%, 100%)" fill-opacity="1" d="M 671.277344 306.003906 L 671.277344 312.921875 L 673.972656 312.921875 C 675.910156 312.921875 677.207031 312.792969 677.863281 312.539062 C 678.515625 312.28125 679.027344 311.886719 679.398438 311.339844 C 679.769531 310.796875 679.957031 310.167969 679.957031 309.445312 C 679.957031 308.558594 679.695312 307.828125 679.175781 307.25 C 678.652344 306.675781 677.996094 306.3125 677.195312 306.167969 C 676.609375 306.058594 675.429688 306.003906 673.65625 306.003906 Z M 666.355469 326.257812 L 666.355469 301.878906 L 674.253906 301.878906 C 677.246094 301.878906 679.199219 302 680.105469 302.246094 C 681.503906 302.609375 682.671875 303.40625 683.617188 304.632812 C 684.558594 305.855469 685.027344 307.4375 685.027344 309.378906 C 685.027344 310.875 684.757812 312.132812 684.214844 313.152344 C 683.671875 314.175781 682.980469 314.972656 682.144531 315.554688 C 681.308594 316.136719 680.457031 316.523438 679.59375 316.710938 C 678.417969 316.945312 676.714844 317.0625 674.484375 317.0625 L 671.277344 317.0625 L 671.277344 326.257812 Z M 666.355469 326.257812 "/>
<path fill-rule="nonzero" fill="rgb(100%, 100%, 100%)" fill-opacity="1" d="M 697.351562 315.082031 L 706.53125 315.082031 L 706.53125 319.757812 L 697.351562 319.757812 Z M 697.351562 315.082031 "/>
<path fill-rule="nonzero" fill="rgb(100%, 100%, 100%)" fill-opacity="1" d="M 734.320312 317.296875 L 739.09375 318.808594 C 738.359375 321.46875 737.144531 323.445312 735.441406 324.734375 C 733.738281 326.027344 731.582031 326.675781 728.964844 326.675781 C 725.726562 326.675781 723.066406 325.566406 720.984375 323.355469 C 718.898438 321.144531 717.855469 318.121094 717.855469 314.285156 C 717.855469 310.226562 718.902344 307.074219 721 304.832031 C 723.09375 302.585938 725.851562 301.464844 729.265625 301.464844 C 732.246094 301.464844 734.667969 302.34375 736.53125 304.105469 C 737.640625 305.148438 738.472656 306.648438 739.023438 308.597656 L 734.152344 309.761719 C 733.863281 308.496094 733.261719 307.5 732.347656 306.769531 C 731.433594 306.035156 730.324219 305.671875 729.015625 305.671875 C 727.207031 305.671875 725.742188 306.320312 724.617188 307.617188 C 723.492188 308.914062 722.929688 311.015625 722.929688 313.917969 C 722.929688 317 723.484375 319.195312 724.59375 320.503906 C 725.699219 321.8125 727.140625 322.464844 728.914062 322.464844 C 730.222656 322.464844 731.347656 322.050781 732.289062 321.21875 C 733.234375 320.386719 733.910156 319.078125 734.320312 317.296875 "/>
<path fill-rule="nonzero" fill="rgb(100%, 100%, 100%)" fill-opacity="1" d="M 748.238281 306.003906 L 748.238281 312.921875 L 750.933594 312.921875 C 752.871094 312.921875 754.167969 312.792969 754.824219 312.539062 C 755.476562 312.28125 755.992188 311.886719 756.359375 311.339844 C 756.730469 310.796875 756.917969 310.167969 756.917969 309.445312 C 756.917969 308.558594 756.65625 307.828125 756.136719 307.25 C 755.617188 306.675781 754.957031 306.3125 754.160156 306.167969 C 753.570312 306.058594 752.390625 306.003906 750.617188 306.003906 Z M 743.316406 326.257812 L 743.316406 301.878906 L 751.214844 301.878906 C 754.207031 301.878906 756.160156 302 757.066406 302.246094 C 758.464844 302.609375 759.632812 303.40625 760.578125 304.632812 C 761.519531 305.855469 761.992188 307.4375 761.992188 309.378906 C 761.992188 310.875 761.71875 312.132812 761.175781 313.152344 C 760.632812 314.175781 759.941406 314.972656 759.105469 315.554688 C 758.269531 316.136719 757.417969 316.523438 756.554688 316.710938 C 755.378906 316.945312 753.675781 317.0625 751.449219 317.0625 L 748.238281 317.0625 L 748.238281 326.257812 Z M 743.316406 326.257812 "/>
<path fill-rule="nonzero" fill="rgb(100%, 100%, 100%)" fill-opacity="1" d="M 776.425781 316.613281 L 773.066406 307.566406 L 769.773438 316.613281 Z M 785.488281 326.257812 L 780.132812 326.257812 L 778.003906 320.71875 L 768.257812 320.71875 L 766.246094 326.257812 L 761.027344 326.257812 L 770.519531 301.878906 L 775.726562 301.878906 Z M 785.488281 326.257812 "/>
<path fill-rule="nonzero" fill="rgb(100%, 100%, 100%)" fill-opacity="1" d="M 793.023438 306.003906 L 793.023438 312.921875 L 795.714844 312.921875 C 797.65625 312.921875 798.953125 312.792969 799.605469 312.539062 C 800.261719 312.28125 800.773438 311.886719 801.144531 311.339844 C 801.515625 310.796875 801.703125 310.167969 801.703125 309.445312 C 801.703125 308.558594 801.441406 307.828125 800.921875 307.25 C 800.398438 306.675781 799.738281 306.3125 798.941406 306.167969 C 798.355469 306.058594 797.171875 306.003906 795.398438 306.003906 Z M 788.101562 326.257812 L 788.101562 301.878906 L 796 301.878906 C 798.992188 301.878906 800.941406 302 801.851562 302.246094 C 803.25 302.609375 804.417969 303.40625 805.359375 304.632812 C 806.304688 305.855469 806.773438 307.4375 806.773438 309.378906 C 806.773438 310.875 806.5 312.132812 805.960938 313.152344 C 805.414062 314.175781 804.726562 314.972656 803.890625 315.554688 C 803.050781 316.136719 802.203125 316.523438 801.335938 316.710938 C 800.160156 316.945312 798.457031 317.0625 796.230469 317.0625 L 793.023438 317.0625 L 793.023438 326.257812 Z M 788.101562 326.257812 "/>
</svg>
