<svg xmlns="http://www.w3.org/2000/svg" 
                    viewBox="0 0 708.6875 228.367188" 
                    width="708.6875" 
                    height="228.367188"
                    data-content-extracted="true"
                    data-original-bounds="58.90625,22.570312,767.59375,250.9375">
                      
<path fill-rule="nonzero" fill="rgb(14.123535%, 19.847107%, 25.794983%)" fill-opacity="1" d="M 609.246094 96.398438 C 673.511719 118.96875 678.867188 118.9375 684.222656 118.984375 C 686.058594 119 686.9375 118.269531 686.878906 116.371094 C 686.792969 113.726562 686.960938 111.066406 686.746094 108.4375 C 686.128906 100.863281 682.785156 96.722656 675.984375 95.25 C 670.914062 94.152344 665.769531 94.183594 660.6875 95.261719 C 654.816406 96.503906 651.390625 100.199219 650.257812 106.105469 C 649.628906 109.394531 649.925781 112.703125 649.777344 116 C 649.683594 118.179688 650.566406 119.035156 652.746094 119 C 657.882812 118.914062 663.019531 118.972656 668.152344 118.96875 M 609.339844 119.683594 C 652.234375 142.253906 636.21875 142.257812 620.203125 142.25 C 616.625 142.25 616.453125 142.109375 616.484375 138.511719 C 616.578125 128.0625 616.269531 117.613281 616.699219 107.164062 C 617.476562 88.285156 626.789062 75.964844 644.960938 71.023438 C 661.015625 66.660156 677.269531 66.65625 693.253906 71.503906 C 709.609375 76.46875 718.597656 88.375 719.566406 105.488281 C 720.210938 116.816406 719.679688 128.15625 719.878906 139.484375 C 719.921875 141.84375 718.75 142.4375 716.730469 142.253906 C 716.585938 142.238281 716.4375 142.253906 716.289062 142.253906 C 700.273438 142.253906 684.261719 142.253906 668.246094 142.253906 "/>
<path fill-rule="nonzero" fill="rgb(14.167786%, 19.911194%, 25.907898%)" fill-opacity="1" d="M 446.847656 72.730469 C 505.753906 112.378906 505.738281 129.457031 505.769531 146.535156 C 505.777344 149.179688 505.917969 151.835938 506.15625 154.46875 C 506.679688 160.34375 510.449219 164.003906 516.355469 164.363281 C 521.136719 164.652344 525.902344 164.332031 530.648438 163.730469 C 533.558594 163.359375 533.953125 163.648438 533.964844 166.480469 C 533.988281 173.839844 533.957031 181.203125 533.980469 188.5625 C 533.984375 190.09375 533.75 191.378906 531.925781 191.648438 C 520.613281 193.320312 509.246094 194.371094 498 191.585938 C 483.527344 188.007812 474.367188 176.773438 473.023438 161.726562 C 472.664062 157.683594 472.605469 153.644531 472.605469 149.597656 C 472.613281 132.886719 472.609375 116.175781 472.609375 99.464844 C 472.609375 95.140625 472.605469 95.136719 468.183594 95.132812 C 464.65625 95.128906 461.128906 95.082031 457.601562 95.136719 C 455.726562 95.164062 454.96875 94.363281 454.984375 92.488281 C 455.03125 86.230469 455.035156 79.972656 454.980469 73.71875 C 454.964844 71.800781 455.785156 71.101562 457.636719 71.132812 C 461.675781 71.191406 465.71875 71.078125 469.757812 71.164062 C 471.816406 71.207031 472.667969 70.460938 472.636719 68.335938 C 472.550781 62.667969 472.671875 56.996094 472.578125 51.332031 C 472.542969 49.324219 473.089844 47.867188 474.714844 46.59375 C 478.128906 43.917969 481.433594 41.101562 484.703125 38.253906 C 486.015625 37.113281 487.410156 36.667969 489.121094 36.695312 C 493.527344 36.761719 497.9375 36.707031 502.34375 36.71875 C 505.539062 36.730469 505.746094 36.921875 505.746094 40.089844 C 505.757812 58.496094 505.753906 76.898438 505.753906 95.300781 "/>
<path fill-rule="nonzero" fill="rgb(14.123535%, 19.847107%, 25.794983%)" fill-opacity="1" d="M 97.679688 85.277344 C 156.585938 80.832031 156.585938 53.8125 156.585938 26.796875 C 156.585938 22.582031 156.59375 22.578125 160.683594 22.578125 C 169.207031 22.574219 177.730469 22.570312 186.25 22.578125 C 189.84375 22.582031 189.917969 22.652344 189.917969 26.34375 C 189.921875 77.433594 189.917969 128.523438 189.917969 179.613281 C 189.917969 182.925781 189.925781 186.238281 189.917969 189.550781 C 189.90625 192.957031 189.777344 193.09375 186.484375 193.097656 C 177.667969 193.109375 168.851562 193.109375 160.035156 193.097656 C 156.746094 193.097656 156.589844 192.949219 156.589844 189.5625 C 156.585938 162.324219 156.585938 135.085938 156.585938 107.847656 "/>
<path fill-rule="nonzero" fill="rgb(14.167786%, 19.911194%, 25.907898%)" fill-opacity="1" d="M 36.343750 85.488282 C 95.25 135.082031 95.253906 162.101562 95.25 189.125 C 95.25 193.089844 95.238281 193.097656 91.355469 193.101562 C 82.683594 193.105469 74.011719 193.109375 65.339844 193.09375 C 62.339844 193.089844 62.128906 192.902344 62.128906 190.015625 C 62.121094 135.238281 62.121094 80.457031 62.128906 25.675781 C 62.128906 22.785156 62.34375 22.585938 65.332031 22.582031 C 74.148438 22.570312 82.96875 22.570312 91.785156 22.582031 C 95.089844 22.585938 95.246094 22.738281 95.246094 26.109375 C 95.253906 53.425781 95.25 80.742188 95.25 108.058594 "/>
<path fill-rule="nonzero" fill="rgb(14.167786%, 19.911194%, 25.907898%)" fill-opacity="1" d="M 500.539062 85.269532 C 559.445312 80.746094 559.445312 53.648438 559.449219 26.554688 C 559.449219 22.589844 559.457031 22.582031 563.328125 22.578125 C 572 22.574219 580.671875 22.570312 589.339844 22.582031 C 592.3125 22.589844 592.550781 22.804688 592.550781 25.679688 C 592.558594 80.457031 592.558594 135.234375 592.550781 190.011719 C 592.550781 192.882812 592.320312 193.089844 589.335938 193.09375 C 580.441406 193.109375 571.550781 193.109375 562.660156 193.09375 C 559.625 193.089844 559.453125 192.914062 559.453125 189.785156 C 559.445312 162.46875 559.449219 135.15625 559.445312 107.839844 "/>
<path fill-rule="nonzero" fill="rgb(14.167786%, 19.911194%, 25.907898%)" fill-opacity="1" d="M 160.566406 93.562500 C 219.46875 102.21875 219.464844 88.304688 219.472656 74.390625 C 219.476562 70.917969 219.605469 70.785156 223.089844 70.78125 C 231.832031 70.773438 240.574219 70.773438 249.316406 70.785156 C 252.375 70.792969 252.589844 71.007812 252.589844 74.050781 C 252.597656 96.875 252.589844 119.695312 252.605469 142.515625 C 252.605469 144.132812 252.601562 145.769531 252.84375 147.359375 C 254.101562 155.53125 259.164062 159.414062 267.394531 158.464844 C 271.332031 158.011719 275.242188 157.324219 279.167969 156.730469 C 282.253906 156.265625 282.558594 156.492188 282.570312 159.507812 C 282.589844 165.03125 282.535156 170.554688 282.597656 176.074219 C 282.621094 177.753906 282.144531 179.011719 280.816406 180.097656 C 276.316406 183.765625 271.867188 187.503906 267.421875 191.242188 C 266.242188 192.234375 264.878906 192.769531 263.40625 192.890625 C 253.535156 193.691406 243.992188 192.585938 235.355469 187.316406 C 226.167969 181.714844 221.613281 173.101562 219.984375 162.703125 C 219.5625 160.003906 219.464844 157.289062 219.46875 154.558594 C 219.476562 141.75 219.472656 128.941406 219.472656 116.132812 "/>
<path fill-rule="nonzero" fill="rgb(14.167786%, 19.911194%, 25.907898%)" fill-opacity="1" d="M 305.480469 85.675782 C 368.945312 108.246094 373.5 108.289062 378.054688 108.226562 C 379.703125 108.203125 380.757812 108.621094 381.414062 110.332031 C 382.699219 113.695312 385.695312 114.875 388.921875 115.324219 C 395.980469 116.308594 403.050781 117.21875 410.132812 117.976562 C 418.5 118.871094 426.011719 121.539062 432.007812 127.71875 C 436.632812 132.476562 439.582031 138.175781 440.140625 144.730469 C 440.792969 152.414062 441.136719 160.179688 439.667969 167.835938 C 437.8125 177.503906 432.253906 184.308594 423.355469 188.425781 C 416.910156 191.40625 410.042969 192.570312 403.042969 193 C 399.164062 193.238281 395.257812 193.042969 391.363281 193.109375 C 389.683594 193.136719 388.941406 192.414062 388.945312 190.746094 C 388.960938 183.089844 388.964844 175.433594 388.9375 167.777344 C 388.933594 166.03125 389.640625 165.21875 391.441406 165.253906 C 394.160156 165.308594 396.875 165.226562 399.570312 164.773438 C 403.574219 164.101562 406.019531 161.867188 406.929688 157.878906 C 407.308594 156.207031 407.414062 154.535156 407.355469 152.839844 C 407.238281 149.371094 405.539062 147.039062 402.351562 145.730469 C 399.582031 144.597656 396.613281 144.515625 393.710938 144.140625 C 387.445312 143.328125 381.160156 142.6875 374.898438 141.835938 C 359.105469 139.695312 347.695312 126.855469 347.78125 111.417969 C 347.796875 108.542969 348.046875 108.265625 350.941406 108.25 C 355.421875 108.230469 359.90625 108.246094 364.386719 108.246094 "/>
<path fill-rule="nonzero" fill="rgb(14.167786%, 19.911194%, 25.907898%)" fill-opacity="1" d="M 231.125000 108.054688 C 290.03125 111.9375 290.03125 93.246094 290.035156 74.554688 C 290.035156 70.875 290.121094 70.785156 293.695312 70.78125 C 302.359375 70.773438 311.027344 70.773438 319.691406 70.785156 C 322.949219 70.789062 323.140625 70.96875 323.140625 74.097656 C 323.148438 111.773438 323.148438 149.449219 323.140625 187.121094 C 323.140625 190.242188 322.949219 190.4375 319.929688 190.441406 C 311.042969 190.457031 302.15625 190.457031 293.269531 190.445312 C 290.246094 190.4375 290.039062 190.230469 290.039062 187.140625 C 290.027344 168.300781 290.035156 149.464844 290.03125 130.625 "/>
<path fill-rule="nonzero" fill="rgb(14.167786%, 19.911194%, 25.907898%)" fill-opacity="1" d="M 621.308594 170.515626 C 670.046875 193.386719 659.933594 193.097656 650.027344 190.453125 C 643.742188 188.777344 637.753906 186.402344 632.339844 182.722656 C 621.632812 175.445312 617.359375 164.84375 616.734375 152.355469 C 616.648438 150.585938 617.398438 149.808594 619.191406 149.816406 C 628.664062 149.847656 638.140625 149.839844 647.613281 149.824219 C 648.953125 149.820312 649.785156 150.242188 650.15625 151.675781 C 653.007812 162.65625 657.1875 166.058594 668.933594 166.542969 C 683.640625 167.144531 698.292969 166.347656 712.871094 164.257812 C 715.515625 163.875 715.828125 164.125 715.839844 166.820312 C 715.867188 173.664062 715.785156 180.511719 715.878906 187.351562 C 715.910156 189.679688 714.953125 190.613281 712.714844 190.871094 C 701.914062 192.125 691.085938 192.964844 680.214844 193.085938 "/>
<path fill-rule="nonzero" fill="rgb(14.167786%, 19.911194%, 25.907898%)" fill-opacity="1" d="M 305.671875 78.671876 C 359.878906 101.242188 355.175781 101.195312 350.476562 101.265625 C 348.472656 101.292969 347.710938 100.46875 347.792969 98.488281 C 348.324219 85.253906 354.429688 76.4375 366.394531 71.992188 C 373.789062 69.246094 381.527344 68.324219 389.324219 68.136719 C 402.40625 67.820312 415.460938 68.5 428.476562 69.824219 C 428.550781 69.832031 428.625 69.835938 428.699219 69.84375 C 433.433594 70.378906 433.433594 70.378906 433.433594 75.226562 C 433.4375 81.703125 433.441406 88.179688 433.433594 94.65625 C 433.429688 98.441406 433.417969 98.488281 429.578125 98.105469 C 419.273438 97.085938 408.988281 95.847656 398.617188 95.832031 C 395.53125 95.828125 392.445312 95.792969 389.398438 96.4375 C 386.558594 97.039062 383.824219 97.855469 381.921875 100.277344 C 381.117188 101.296875 380 101.238281 378.902344 101.238281 C 374.128906 101.25 369.355469 101.242188 364.578125 101.242188 "/>
<path fill-rule="nonzero" fill="rgb(14.167786%, 19.911194%, 25.907898%)" fill-opacity="1" d="M 67.136719 70.609376 C 132.792969 93.179688 139.546875 93.164062 146.300781 93.1875 C 149.175781 93.195312 149.449219 93.472656 149.457031 96.363281 C 149.472656 104.160156 149.472656 111.953125 149.457031 119.75 C 149.449219 122.644531 149.191406 122.90625 146.289062 122.910156 C 132.785156 122.925781 119.28125 122.925781 105.777344 122.910156 C 102.898438 122.90625 102.613281 122.617188 102.601562 119.742188 C 102.582031 111.945312 102.582031 104.148438 102.605469 96.355469 C 102.613281 93.488281 102.910156 93.195312 105.785156 93.1875 C 112.539062 93.164062 119.289062 93.179688 126.042969 93.179688 "/>
<path fill-rule="nonzero" fill="rgb(14.123535%, 19.847107%, 25.794983%)" fill-opacity="1" d="M 289.324219 153.640626 C 348.234375 172.238281 348.277344 168.269531 348.214844 164.296875 C 348.183594 162.421875 348.933594 161.832031 350.761719 162.109375 C 360.273438 163.558594 369.835938 164.539062 379.425781 165.195312 C 380.992188 165.304688 381.679688 166.003906 381.675781 167.535156 C 381.667969 175.253906 381.664062 182.980469 381.683594 190.699219 C 381.6875 192.332031 380.949219 192.898438 379.351562 192.773438 C 369.917969 192.035156 360.480469 191.3125 351.035156 190.667969 C 348.878906 190.523438 348.125 189.585938 348.195312 187.464844 C 348.316406 183.71875 348.226562 179.960938 348.230469 176.210938 "/>
<path fill-rule="nonzero" fill="rgb(14.167786%, 19.911194%, 25.907898%)" fill-opacity="1" d="M 475.886719 60.519532 C 534.792969 86.171875 534.734375 89.261719 534.8125 92.34375 C 534.863281 94.289062 534.117188 95.164062 532.117188 95.140625 C 526.691406 95.082031 521.265625 95.089844 515.839844 95.136719 C 513.988281 95.152344 513.183594 94.398438 513.195312 92.515625 C 513.242188 86.269531 513.242188 80.027344 513.195312 73.78125 C 513.179688 71.9375 513.871094 71.109375 515.78125 71.128906 C 521.207031 71.191406 526.632812 71.195312 532.054688 71.125 C 534.007812 71.101562 534.871094 71.820312 534.816406 73.832031 C 534.726562 76.914062 534.792969 80.003906 534.792969 83.089844 "/>
<path fill-rule="nonzero" fill="rgb(14.123535%, 19.847107%, 25.794983%)" fill-opacity="1" d="M 681.367188 156.570313 C 740.300781 171.550781 744.199219 166.550781 750.832031 165.605469 C 751.863281 165.457031 752.988281 165.199219 753.203125 166.71875 C 753.386719 168.007812 752.609375 168.496094 751.46875 168.8125 C 744.042969 170.859375 741.078125 181.003906 746.136719 186.941406 C 747.492188 188.527344 749.25 189.339844 751.257812 189.699219 C 752.453125 189.914062 753.453125 190.367188 753.171875 191.824219 C 752.863281 193.414062 751.601562 193.085938 750.53125 192.925781 C 744.027344 191.933594 740.246094 186.835938 740.273438 179.140625 "/>
<path fill-rule="nonzero" fill="rgb(14.123535%, 19.847107%, 25.794983%)" fill-opacity="1" d="M 708.660156 156.738282 C 767.550781 186.496094 764.007812 191.445312 757.914062 192.789062 C 757.484375 192.886719 757.050781 192.964844 756.613281 193.007812 C 755.667969 193.105469 754.789062 192.988281 754.59375 191.839844 C 754.394531 190.691406 755 190.136719 756.078125 189.789062 C 762.761719 187.636719 765.246094 183.09375 763.707031 176.019531 C 762.875 172.191406 760.671875 169.742188 756.792969 168.90625 C 756.4375 168.828125 756.070312 168.773438 755.722656 168.664062 C 754.683594 168.34375 754.382812 167.5625 754.574219 166.589844 C 754.777344 165.554688 755.550781 165.488281 756.441406 165.546875 C 761.398438 165.867188 765.484375 169.261719 766.894531 174.296875 C 767.351562 175.933594 767.59375 177.601562 767.566406 179.308594 "/>
<path fill-rule="nonzero" fill="rgb(14.123535%, 19.847107%, 25.794983%)" fill-opacity="1" d="M 690.199219 156.292969 C 749.105469 177.171875 749.097656 175.480469 749.109375 173.789062 C 749.117188 172.839844 749.34375 171.972656 750.464844 171.839844 C 751.613281 171.703125 752.855469 171.429688 753.808594 172.34375 C 754.355469 172.871094 754.304688 173.6875 753.726562 174.121094 C 752.304688 175.1875 752.484375 176.675781 752.46875 178.132812 C 752.449219 180.042969 752.472656 181.957031 752.441406 183.867188 C 752.421875 185.027344 752.289062 186.148438 750.691406 186.09375 C 749.25 186.046875 749.105469 185.035156 749.097656 183.941406 C 749.089844 182.246094 749.097656 180.554688 749.097656 178.863281 Z M 690.199219 156.292969 "/>
<path fill-rule="nonzero" fill="rgb(14.123535%, 19.847107%, 25.794983%)" fill-opacity="1" d="M 700.320312 153.570313 C 759.203125 176.949219 759.382812 177.925781 758.8125 178.480469 C 756.949219 180.285156 758.039062 181.902344 758.867188 183.628906 C 759.195312 184.316406 760.199219 185.261719 759.011719 185.875 C 757.953125 186.417969 756.851562 186.027344 756.207031 184.871094 C 755.277344 183.207031 754.300781 181.566406 753.429688 179.871094 C 752.910156 178.855469 753.15625 177.980469 754.347656 177.617188 C 755.890625 177.144531 756.28125 176.214844 755.640625 174.75 C 755.21875 173.785156 754.796875 172.613281 756.125 172.128906 C 757.3125 171.699219 758.207031 172.53125 758.800781 173.558594 C 759.261719 174.355469 759.207031 175.257812 759.226562 176.140625 "/>
<path fill-rule="nonzero" fill="rgb(89.364624%, 12.875366%, 14.894104%)" fill-opacity="1" d="M 24.035156 222.296876 C 82.941406 245.246094 82.914062 245.5625 82.863281 245.820312 C 82.808594 246.078125 82.730469 246.285156 82.628906 246.441406 C 82.523438 246.597656 82.390625 246.714844 82.234375 246.785156 C 82.078125 246.859375 81.90625 246.894531 81.71875 246.894531 L 2.445312 224.324219 C 60.660156 246.894531 60.082031 246.765625 59.609375 246.507812 C 59.140625 246.253906 58.90625 245.835938 58.90625 245.257812 L 0.000000 200.476563 C 58.90625 222.46875 59.140625 222.050781 59.609375 221.796875 C 60.082031 221.539062 60.660156 221.410156 61.351562 221.410156 L 22.687500 198.839844 C 81.78125 221.410156 81.949219 221.445312 82.09375 221.511719 C 82.238281 221.578125 82.363281 221.691406 82.46875 221.855469 C 82.574219 222.019531 82.652344 222.230469 82.707031 222.484375 C 82.757812 222.742188 82.78125 223.066406 82.78125 223.460938 C 82.78125 223.828125 82.757812 224.140625 82.707031 224.394531 C 82.652344 224.652344 82.574219 224.859375 82.46875 225.015625 C 82.363281 225.171875 82.238281 225.289062 82.09375 225.359375 C 81.949219 225.433594 81.78125 225.46875 81.59375 225.46875 L 8.210938 202.898438 L 8.210938 209.121094 L 20.460938 209.121094 C 79.554688 231.691406 79.726562 231.726562 79.886719 231.800781 C 80.042969 231.871094 80.171875 231.984375 80.277344 232.132812 C 80.382812 232.285156 80.460938 232.488281 80.511719 232.746094 C 80.5625 233 80.589844 233.3125 80.589844 233.679688 C 80.589844 234.0625 80.5625 234.375 80.511719 234.625 C 80.460938 234.875 80.382812 235.074219 80.277344 235.226562 C 80.171875 235.378906 80.042969 235.484375 79.886719 235.550781 C 79.726562 235.617188 79.554688 235.648438 79.367188 235.648438 L 8.210938 213.078126 L 8.210938 220.265626 L 22.812500 220.265626 C 81.90625 242.835938 82.078125 242.875 82.234375 242.945312 C 82.390625 243.015625 82.523438 243.132812 82.628906 243.289062 C 82.730469 243.449219 82.808594 243.65625 82.863281 243.910156 C 82.914062 244.167969 82.941406 244.484375 82.941406 244.867188 "/>
<path fill-rule="nonzero" fill="rgb(89.364624%, 12.875366%, 14.894104%)" fill-opacity="1" d="M 64.738281 222.511719 C 123.644531 245.382812 123.5625 245.652344 123.394531 245.890625 C 123.226562 246.125 123.003906 246.324219 122.722656 246.480469 C 122.4375 246.636719 122.105469 246.753906 121.71875 246.824219 C 121.332031 246.898438 120.9375 246.933594 120.542969 246.933594 L 58.125000 224.363282 C 116.300781 246.933594 115.671875 246.886719 115.136719 246.792969 C 114.605469 246.703125 114.113281 246.535156 113.664062 246.292969 C 113.214844 246.050781 112.78125 245.722656 112.363281 245.308594 C 111.945312 244.894531 111.476562 244.359375 110.953125 243.703125 L 41.957031 209.218750 C 100.277344 231.082031 99.683594 230.316406 99.078125 229.496094 C 98.472656 228.675781 97.929688 227.878906 97.449219 227.101562 L 38.480469 204.531250 C 97.46875 228.046875 97.53125 228.988281 97.574219 229.929688 C 97.613281 230.867188 97.636719 231.835938 97.636719 232.832031 L 38.730469 223.593750 C 97.636719 246.296875 97.578125 246.414062 97.464844 246.519531 C 97.347656 246.625 97.152344 246.714844 96.871094 246.785156 C 96.585938 246.859375 96.207031 246.914062 95.726562 246.953125 C 95.246094 246.992188 94.628906 247.011719 93.875 247.011719 C 93.144531 247.011719 92.539062 246.992188 92.058594 246.953125 C 91.578125 246.914062 91.203125 246.859375 90.929688 246.785156 C 90.660156 246.714844 90.472656 246.625 90.367188 246.519531 C 90.261719 246.414062 90.210938 246.296875 90.210938 246.164062 L 31.304688 200.691407 C 90.210938 222.644531 90.496094 222.183594 91.070312 221.875 C 91.644531 221.566406 92.351562 221.410156 93.1875 221.410156 L 38.699219 198.839844 C 98.398438 221.410156 99.066406 221.453125 99.609375 221.539062 C 100.152344 221.625 100.640625 221.765625 101.066406 221.964844 C 101.496094 222.160156 101.898438 222.433594 102.273438 222.78125 C 102.648438 223.128906 103.035156 223.558594 103.433594 224.070312 L 52.425781 210.816407 C 111.789062 233.949219 112.246094 234.503906 112.691406 235.050781 C 113.140625 235.59375 113.578125 236.140625 113.996094 236.683594 C 114.410156 237.226562 114.820312 237.761719 115.214844 238.289062 C 115.613281 238.8125 116 239.339844 116.375 239.863281 L 57.500000 217.292969 C 116.34375 238.945312 116.296875 237.984375 116.265625 236.988281 C 116.234375 235.992188 116.21875 235.039062 116.21875 234.132812 L 57.312500 199.609376 C 116.21875 222.050781 116.28125 221.929688 116.40625 221.824219 C 116.53125 221.722656 116.738281 221.628906 117.03125 221.550781 C 117.324219 221.472656 117.710938 221.414062 118.191406 221.382812 C 118.671875 221.351562 119.289062 221.332031 120.042969 221.332031 C 120.75 221.332031 121.347656 221.351562 121.828125 221.382812 C 122.308594 221.414062 122.679688 221.472656 122.941406 221.550781 C 123.203125 221.628906 123.382812 221.722656 123.488281 221.824219 C 123.59375 221.929688 123.644531 222.050781 123.644531 222.179688 Z M 64.738281 222.511719 "/>
<path fill-rule="nonzero" fill="rgb(89.364624%, 12.875366%, 14.894104%)" fill-opacity="1" d="M 107.011719 222.511719 C 165.917969 245.382812 165.832031 245.652344 165.664062 245.890625 C 165.5 246.125 165.273438 246.324219 164.992188 246.480469 C 164.710938 246.636719 164.375 246.753906 163.988281 246.824219 C 163.601562 246.898438 163.210938 246.933594 162.816406 246.933594 L 100.398438 224.363282 C 158.574219 246.933594 157.941406 246.886719 157.410156 246.792969 C 156.875 246.703125 156.386719 246.535156 155.9375 246.292969 C 155.488281 246.050781 155.054688 245.722656 154.636719 245.308594 C 154.21875 244.894531 153.746094 244.359375 153.226562 243.703125 L 84.230469 209.218750 C 142.550781 231.082031 141.957031 230.316406 141.351562 229.496094 C 140.742188 228.675781 140.199219 227.878906 139.722656 227.101562 L 80.750000 204.531250 C 139.742188 228.046875 139.804688 228.988281 139.847656 229.929688 C 139.886719 230.867188 139.910156 231.835938 139.910156 232.832031 L 81.003906 223.593750 C 139.910156 246.296875 139.851562 246.414062 139.734375 246.519531 C 139.621094 246.625 139.421875 246.714844 139.140625 246.785156 C 138.859375 246.859375 138.476562 246.914062 137.996094 246.953125 C 137.515625 246.992188 136.898438 247.011719 136.148438 247.011719 C 135.417969 247.011719 134.8125 246.992188 134.332031 246.953125 C 133.851562 246.914062 133.472656 246.859375 133.203125 246.785156 C 132.929688 246.714844 132.742188 246.625 132.640625 246.519531 C 132.535156 246.414062 132.480469 246.296875 132.480469 246.164062 L 73.574219 200.691407 C 132.480469 222.644531 132.769531 222.183594 133.34375 221.875 C 133.917969 221.566406 134.621094 221.410156 135.457031 221.410156 L 80.968750 198.839844 C 140.671875 221.410156 141.339844 221.453125 141.882812 221.539062 C 142.425781 221.625 142.910156 221.765625 143.339844 221.964844 C 143.769531 222.160156 144.167969 222.433594 144.546875 222.78125 C 144.921875 223.128906 145.308594 223.558594 145.707031 224.070312 L 94.695312 210.816407 C 154.0625 233.949219 154.515625 234.503906 154.964844 235.050781 C 155.414062 235.59375 155.847656 236.140625 156.265625 236.683594 C 156.683594 237.226562 157.089844 237.761719 157.488281 238.289062 C 157.882812 238.8125 158.269531 239.339844 158.648438 239.863281 L 99.773438 217.292969 C 158.617188 238.945312 158.570312 237.984375 158.535156 236.988281 C 158.503906 235.992188 158.492188 235.039062 158.492188 234.132812 L 99.585938 199.609376 C 158.492188 222.050781 158.554688 221.929688 158.679688 221.824219 C 158.804688 221.722656 159.011719 221.628906 159.304688 221.550781 C 159.597656 221.472656 159.984375 221.414062 160.464844 221.382812 C 160.945312 221.351562 161.5625 221.332031 162.3125 221.332031 C 163.023438 221.332031 163.617188 221.351562 164.101562 221.382812 C 164.578125 221.414062 164.949219 221.472656 165.210938 221.550781 C 165.472656 221.628906 165.65625 221.722656 165.761719 221.824219 C 165.863281 221.929688 165.917969 222.050781 165.917969 222.179688 Z M 107.011719 222.511719 "/>
<path fill-rule="nonzero" fill="rgb(89.364624%, 12.875366%, 14.894104%)" fill-opacity="1" d="M 124.121094 223.613282 C 183.027344 246.316406 182.957031 246.433594 182.820312 246.539062 C 182.6875 246.644531 182.460938 246.730469 182.148438 246.796875 C 181.835938 246.859375 181.417969 246.914062 180.894531 246.953125 C 180.371094 246.992188 179.703125 247.011719 178.890625 247.011719 C 178.097656 247.011719 177.433594 246.992188 176.898438 246.953125 C 176.367188 246.914062 175.945312 246.859375 175.628906 246.796875 C 175.316406 246.730469 175.09375 246.644531 174.957031 246.539062 C 174.820312 246.433594 174.753906 246.316406 174.753906 246.183594 L 115.847656 199.550782 C 174.753906 221.988281 174.820312 221.871094 174.957031 221.765625 C 175.09375 221.660156 175.320312 221.574219 175.644531 221.511719 C 175.96875 221.445312 176.394531 221.390625 176.914062 221.351562 C 177.4375 221.3125 178.097656 221.292969 178.890625 221.292969 C 179.703125 221.292969 180.371094 221.3125 180.894531 221.351562 C 181.417969 221.390625 181.835938 221.445312 182.148438 221.511719 C 182.460938 221.574219 182.6875 221.660156 182.820312 221.765625 C 182.957031 221.871094 183.027344 221.988281 183.027344 222.121094 Z M 124.121094 223.613282 "/>
<path fill-rule="nonzero" fill="rgb(89.364624%, 12.875366%, 14.894104%)" fill-opacity="1" d="M 156.992188 216.683594 C 215.898438 240.59375 215.5 241.765625 214.707031 242.777344 C 213.910156 243.789062 212.835938 244.632812 211.480469 245.308594 C 210.121094 245.984375 208.53125 246.492188 206.714844 246.835938 C 204.898438 247.175781 202.953125 247.347656 200.886719 247.347656 C 199.488281 247.347656 198.1875 247.273438 196.984375 247.128906 C 195.785156 246.984375 194.722656 246.8125 193.804688 246.609375 C 192.886719 246.40625 192.117188 246.191406 191.503906 245.96875 C 190.886719 245.746094 190.441406 245.546875 190.171875 245.378906 C 189.898438 245.207031 189.703125 244.960938 189.589844 244.640625 C 189.476562 244.316406 189.417969 243.855469 189.417969 243.25 C 189.417969 242.84375 189.4375 242.503906 189.480469 242.226562 C 189.523438 241.949219 189.589844 241.726562 189.683594 241.558594 C 189.777344 241.386719 189.902344 241.265625 190.0625 241.191406 C 190.21875 241.121094 190.398438 241.085938 190.609375 241.085938 C 190.902344 241.085938 191.3125 241.191406 191.847656 241.410156 C 192.378906 241.625 193.0625 241.867188 193.898438 242.128906 C 194.734375 242.390625 195.734375 242.628906 196.890625 242.847656 C 198.050781 243.0625 199.394531 243.171875 200.917969 243.171875 C 201.921875 243.171875 202.820312 243.097656 203.613281 242.945312 C 204.40625 242.796875 205.082031 242.582031 205.636719 242.304688 C 206.1875 242.03125 206.609375 241.6875 206.902344 241.28125 C 207.195312 240.875 207.34375 240.421875 207.34375 239.921875 C 207.34375 239.34375 207.09375 238.847656 206.589844 238.4375 C 206.089844 238.023438 205.4375 237.65625 204.632812 237.332031 C 203.828125 237.011719 202.914062 236.710938 201.890625 236.425781 C 200.867188 236.144531 199.8125 235.847656 198.726562 235.53125 C 197.640625 235.214844 196.585938 234.859375 195.558594 234.457031 C 194.535156 234.058594 193.621094 233.578125 192.816406 233.019531 C 192.015625 232.464844 191.359375 231.804688 190.859375 231.039062 C 190.359375 230.28125 190.109375 229.367188 190.109375 228.304688 C 190.109375 227.082031 190.46875 226.011719 191.1875 225.085938 C 191.910156 224.160156 192.882812 223.390625 194.101562 222.78125 C 195.324219 222.171875 196.765625 221.714844 198.425781 221.410156 C 200.089844 221.109375 201.847656 220.960938 203.707031 220.960938 C 204.667969 220.960938 205.628906 221.003906 206.589844 221.097656 C 207.550781 221.1875 208.449219 221.3125 209.285156 221.472656 C 210.121094 221.628906 210.863281 221.804688 211.511719 222.003906 C 212.15625 222.199219 212.585938 222.363281 212.796875 222.496094 C 213.003906 222.625 213.144531 222.738281 213.21875 222.828125 C 213.289062 222.921875 213.351562 223.042969 213.40625 223.195312 C 213.457031 223.34375 213.492188 223.535156 213.515625 223.765625 C 213.535156 223.996094 213.546875 224.28125 213.546875 224.621094 C 213.546875 225.003906 213.53125 225.324219 213.5 225.585938 C 213.46875 225.847656 213.414062 226.066406 213.34375 226.234375 C 213.269531 226.40625 213.164062 226.53125 213.03125 226.609375 C 212.894531 226.6875 212.710938 226.730469 212.480469 226.730469 C 212.25 226.730469 211.886719 226.636719 211.386719 226.453125 C 210.882812 226.269531 210.265625 226.070312 209.535156 225.851562 C 208.804688 225.636719 207.957031 225.4375 206.996094 225.261719 C 206.035156 225.085938 204.980469 224.996094 203.832031 224.996094 C 202.933594 224.996094 202.152344 225.066406 201.484375 225.203125 C 200.8125 225.339844 200.253906 225.53125 199.804688 225.773438 C 199.355469 226.015625 199.023438 226.308594 198.804688 226.648438 C 198.585938 226.992188 198.472656 227.351562 198.472656 227.734375 C 198.472656 228.296875 198.71875 228.785156 199.210938 229.199219 C 199.699219 229.613281 200.359375 229.980469 201.183594 230.304688 C 202.011719 230.625 202.945312 230.925781 203.988281 231.207031 C 205.035156 231.492188 206.097656 231.789062 207.1875 232.105469 C 208.273438 232.421875 209.335938 232.777344 210.382812 233.179688 C 211.425781 233.578125 212.355469 234.058594 213.171875 234.617188 C 213.984375 235.175781 214.644531 235.828125 215.144531 236.585938 C 215.644531 237.339844 215.898438 238.230469 215.898438 239.253906 "/>
<path fill-rule="nonzero" fill="rgb(89.364624%, 12.875366%, 14.894104%)" fill-opacity="1" d="M 216.937500 202.859376 C 275.84375 225.808594 275.820312 226.136719 275.773438 226.414062 C 275.726562 226.6875 275.664062 226.910156 275.578125 227.074219 C 275.496094 227.238281 275.394531 227.351562 275.273438 227.417969 C 275.152344 227.484375 275.007812 227.515625 274.839844 227.515625 C 274.597656 227.515625 274.207031 227.398438 273.667969 227.160156 C 273.128906 226.925781 272.414062 226.667969 271.519531 226.394531 C 270.628906 226.117188 269.5625 225.863281 268.328125 225.625 C 267.089844 225.390625 265.652344 225.269531 264.015625 225.269531 C 262.265625 225.269531 260.6875 225.484375 259.273438 225.910156 C 257.859375 226.339844 256.652344 226.941406 255.648438 227.722656 C 254.640625 228.503906 253.871094 229.441406 253.332031 230.539062 C 252.792969 231.636719 252.523438 232.847656 252.523438 234.171875 C 252.523438 235.628906 252.796875 236.914062 253.34375 238.023438 C 253.894531 239.132812 254.660156 240.058594 255.648438 240.808594 C 256.632812 241.558594 257.816406 242.121094 259.203125 242.503906 C 260.589844 242.882812 262.117188 243.074219 263.792969 243.074219 C 264.609375 243.074219 265.417969 243.007812 266.21875 242.875 C 267.019531 242.746094 267.761719 242.546875 268.453125 242.285156 L 209.546875 213.808594 L 202.710938 213.808594 C 261.28125 236.378906 261.023438 236.230469 260.835938 235.933594 C 260.648438 235.640625 260.554688 235.136719 260.554688 234.429688 C 260.554688 234.0625 260.578125 233.753906 260.625 233.503906 C 260.671875 233.253906 260.742188 233.054688 260.835938 232.902344 C 260.929688 232.75 261.039062 232.640625 261.171875 232.566406 C 261.300781 232.496094 261.449219 232.460938 261.617188 232.460938 L 214.902344 209.890626 C 274.105469 232.460938 274.371094 232.496094 274.601562 232.566406 C 274.835938 232.640625 275.039062 232.75 275.214844 232.890625 C 275.394531 233.035156 275.527344 233.210938 275.621094 233.414062 C 275.714844 233.617188 275.761719 233.851562 275.761719 234.113281 L 216.855469 221.683594 C 275.761719 244.648438 275.664062 244.992188 275.46875 245.289062 C 275.273438 245.585938 274.871094 245.816406 274.269531 245.988281 C 273.664062 246.160156 272.914062 246.335938 272.023438 246.519531 C 271.128906 246.703125 270.203125 246.859375 269.246094 246.992188 C 268.289062 247.125 267.320312 247.222656 266.34375 247.285156 C 265.367188 247.351562 264.386719 247.386719 263.402344 247.386719 C 260.519531 247.386719 257.9375 247.09375 255.660156 246.511719 C 253.382812 245.925781 251.453125 245.078125 249.871094 243.96875 C 248.289062 242.859375 247.082031 241.507812 246.246094 239.910156 C 245.40625 238.316406 244.988281 236.507812 244.988281 234.488281 C 244.988281 232.398438 245.433594 230.527344 246.328125 228.863281 C 247.222656 227.207031 248.484375 225.792969 250.121094 224.632812 C 251.757812 223.46875 253.734375 222.582031 256.050781 221.964844 C 258.367188 221.347656 260.945312 221.035156 263.792969 221.035156 C 265.355469 221.035156 266.777344 221.113281 268.058594 221.265625 C 269.34375 221.414062 270.464844 221.597656 271.421875 221.816406 C 272.378906 222.03125 273.175781 222.265625 273.808594 222.515625 C 274.441406 222.765625 274.882812 222.980469 275.132812 223.164062 C 275.382812 223.347656 275.566406 223.605469 275.675781 223.941406 C 275.789062 224.277344 275.84375 224.773438 275.84375 225.429688 "/>
<path fill-rule="nonzero" fill="rgb(89.364624%, 12.875366%, 14.894104%)" fill-opacity="1" d="M 237.386719 203.765626 L 237.359375 203.765626 L 232.253906 214.593750 L 242.492188 214.593750 Z M 253.957031 222.453126 C 313.089844 245.496094 313.226562 245.871094 313.285156 246.144531 C 313.339844 246.421875 313.265625 246.628906 313.0625 246.765625 C 312.855469 246.902344 312.492188 246.988281 311.972656 247.023438 C 311.453125 247.054688 310.734375 247.070312 309.824219 247.070312 C 308.875 247.070312 308.136719 247.0625 307.605469 247.042969 C 307.074219 247.023438 306.671875 246.984375 306.394531 246.921875 C 306.113281 246.863281 305.917969 246.78125 305.804688 246.675781 C 305.695312 246.574219 305.601562 246.433594 305.527344 246.265625 L 244.195312 218.574219 L 230.636719 218.574219 L 228.347656 223.554688 C 287.179688 246.308594 287.082031 246.464844 286.960938 246.589844 C 286.839844 246.714844 286.644531 246.8125 286.375 246.882812 C 286.105469 246.957031 285.722656 247.003906 285.230469 247.03125 C 284.738281 247.058594 284.09375 247.070312 283.292969 247.070312 C 282.4375 247.070312 281.769531 247.050781 281.285156 247.011719 C 280.800781 246.972656 280.464844 246.878906 280.28125 246.726562 C 280.09375 246.574219 280.03125 246.363281 280.085938 246.085938 C 280.140625 245.8125 280.28125 245.445312 280.503906 244.984375 L 232.726562 199.804688 C 291.746094 222.152344 291.875 221.972656 292.027344 221.835938 C 292.171875 221.699219 292.410156 221.59375 292.738281 221.519531 C 293.0625 221.449219 293.511719 221.402344 294.089844 221.382812 C 294.664062 221.363281 295.429688 221.351562 296.378906 221.351562 C 297.472656 221.351562 298.347656 221.363281 299 221.382812 C 299.652344 221.402344 300.15625 221.449219 300.519531 221.519531 C 300.882812 221.59375 301.144531 221.699219 301.300781 221.84375 C 301.457031 221.988281 301.59375 222.1875 301.707031 222.4375 Z M 253.957031 222.453126 "/>
<path fill-rule="nonzero" fill="rgb(89.364624%, 12.875366%, 14.894104%)" fill-opacity="1" d="M 278.843750 222.214844 C 337.75 245.179688 337.726562 245.511719 337.679688 245.78125 C 337.632812 246.050781 337.5625 246.273438 337.472656 246.449219 C 337.378906 246.628906 337.261719 246.753906 337.121094 246.835938 C 336.984375 246.914062 336.820312 246.953125 336.632812 246.953125 L 261.183594 224.382813 C 319.476562 246.953125 318.960938 246.824219 318.542969 246.570312 C 318.125 246.3125 317.914062 245.894531 317.914062 245.316406 L 259.007812 199.609376 C 317.914062 222.046875 317.976562 221.929688 318.097656 221.824219 C 318.21875 221.722656 318.417969 221.636719 318.695312 221.570312 C 318.976562 221.503906 319.351562 221.449219 319.824219 221.410156 C 320.300781 221.371094 320.890625 221.351562 321.597656 221.351562 C 322.320312 221.351562 322.917969 221.371094 323.382812 221.410156 C 323.847656 221.449219 324.21875 221.503906 324.496094 221.570312 C 324.777344 221.636719 324.976562 221.722656 325.097656 221.824219 C 325.21875 221.929688 325.28125 222.046875 325.28125 222.179688 L 266.375000 220.109376 L 277.726562 220.109376 C 336.820312 242.679688 336.984375 242.714844 337.121094 242.789062 C 337.261719 242.859375 337.378906 242.980469 337.472656 243.144531 C 337.5625 243.308594 337.632812 243.523438 337.679688 243.792969 C 337.726562 244.0625 337.75 244.394531 337.75 244.785156 "/>
<path fill-rule="nonzero" fill="rgb(89.364624%, 12.875366%, 14.894104%)" fill-opacity="1" d="M 317.984375 223.062500 C 376.777344 245.949219 376.625 246.203125 376.429688 246.390625 C 376.234375 246.582031 375.941406 246.726562 375.550781 246.824219 C 375.160156 246.921875 374.660156 246.988281 374.042969 247.023438 C 373.433594 247.054688 372.652344 247.070312 371.703125 247.070312 C 370.640625 247.070312 369.789062 247.054688 369.148438 247.023438 C 368.507812 246.988281 368 246.921875 367.628906 246.824219 C 367.257812 246.726562 366.988281 246.582031 366.820312 246.390625 C 366.652344 246.203125 366.523438 245.949219 366.429688 245.632812 L 301.750000 206.914063 L 301.691406 206.914063 L 296.222656 223.062500 C 355.035156 245.9375 354.90625 246.179688 354.738281 246.371094 C 354.574219 246.5625 354.308594 246.710938 353.945312 246.816406 C 353.582031 246.917969 353.089844 246.988281 352.464844 247.023438 C 351.84375 247.054688 351.019531 247.070312 349.996094 247.070312 C 348.917969 247.070312 348.058594 247.054688 347.417969 247.023438 C 346.773438 246.988281 346.269531 246.921875 345.894531 246.824219 C 345.523438 246.726562 345.253906 246.582031 345.085938 246.390625 C 344.917969 246.203125 344.78125 245.949219 344.667969 245.632812 L 277.558594 200.832032 C 336.300781 222.925781 336.207031 222.558594 336.1875 222.289062 C 336.167969 222.019531 336.277344 221.8125 336.507812 221.667969 C 336.742188 221.523438 337.121094 221.433594 337.652344 221.402344 C 338.183594 221.371094 338.921875 221.351562 339.871094 221.351562 C 340.742188 221.351562 341.4375 221.363281 341.949219 221.382812 C 342.460938 221.402344 342.84375 221.449219 343.105469 221.519531 C 343.367188 221.59375 343.542969 221.699219 343.636719 221.835938 C 343.730469 221.972656 343.804688 222.167969 343.859375 222.414062 L 291.285156 219.359376 L 291.312500 219.359376 L 297.898438 199.984376 C 356.878906 222.304688 356.976562 222.101562 357.097656 221.945312 C 357.21875 221.785156 357.421875 221.664062 357.710938 221.578125 C 358 221.492188 358.394531 221.433594 358.898438 221.402344 C 359.398438 221.371094 360.070312 221.351562 360.90625 221.351562 C 361.796875 221.351562 362.507812 221.367188 363.039062 221.390625 C 363.570312 221.417969 363.980469 221.472656 364.265625 221.558594 C 364.554688 221.644531 364.765625 221.765625 364.894531 221.921875 C 365.023438 222.082031 365.125 222.292969 365.203125 222.554688 L 313.101562 219.359376 L 313.160156 219.359376 L 319.492188 199.902344 C 378.453125 222.265625 378.527344 222.085938 378.621094 221.933594 C 378.714844 221.78125 378.890625 221.664062 379.152344 221.578125 C 379.410156 221.492188 379.78125 221.433594 380.265625 221.402344 C 380.75 221.371094 381.429688 221.351562 382.300781 221.351562 C 383.121094 221.351562 383.757812 221.371094 384.214844 221.402344 C 384.667969 221.433594 385 221.523438 385.203125 221.667969 C 385.410156 221.8125 385.496094 222.027344 385.46875 222.308594 C 385.441406 222.589844 385.34375 222.972656 385.175781 223.460938 Z M 317.984375 223.062500 "/>
<path fill-rule="nonzero" fill="rgb(89.364624%, 12.875366%, 14.894104%)" fill-opacity="1" d="M 342.089844 203.765626 L 342.058594 203.765626 L 336.957031 214.593750 L 347.191406 214.593750 Z M 358.660156 222.453126 C 417.789062 245.496094 417.929688 245.871094 417.984375 246.144531 C 418.039062 246.421875 417.964844 246.628906 417.761719 246.765625 C 417.554688 246.902344 417.195312 246.988281 416.671875 247.023438 C 416.152344 247.054688 415.433594 247.070312 414.523438 247.070312 C 413.578125 247.070312 412.835938 247.0625 412.308594 247.042969 C 411.777344 247.023438 411.371094 246.984375 411.09375 246.921875 C 410.816406 246.863281 410.621094 246.78125 410.507812 246.675781 C 410.398438 246.574219 410.300781 246.433594 410.226562 246.265625 L 348.894531 218.574219 L 335.335938 218.574219 L 333.050781 223.554688 C 391.878906 246.308594 391.785156 246.464844 391.664062 246.589844 C 391.542969 246.714844 391.347656 246.8125 391.078125 246.882812 C 390.804688 246.957031 390.425781 247.003906 389.933594 247.03125 C 389.441406 247.058594 388.792969 247.070312 387.996094 247.070312 C 387.136719 247.070312 386.46875 247.050781 385.984375 247.011719 C 385.5 246.972656 385.167969 246.878906 384.980469 246.726562 C 384.792969 246.574219 384.730469 246.363281 384.785156 246.085938 C 384.839844 245.8125 384.980469 245.445312 385.203125 244.984375 L 337.429688 199.804688 C 396.449219 222.152344 396.578125 221.972656 396.726562 221.835938 C 396.875 221.699219 397.113281 221.59375 397.4375 221.519531 C 397.761719 221.449219 398.214844 221.402344 398.789062 221.382812 C 399.367188 221.363281 400.128906 221.351562 401.078125 221.351562 C 402.175781 221.351562 403.050781 221.363281 403.699219 221.382812 C 404.351562 221.402344 404.859375 221.449219 405.222656 221.519531 C 405.582031 221.59375 405.84375 221.699219 406.003906 221.84375 C 406.160156 221.988281 406.296875 222.1875 406.40625 222.4375 Z M 358.660156 222.453126 "/>
<path fill-rule="nonzero" fill="rgb(89.364624%, 12.875366%, 14.894104%)" fill-opacity="1" d="M 373.640625 214.714844 L 373.640625 223.671876 C 432.546875 246.375 432.484375 246.492188 432.367188 246.597656 C 432.246094 246.703125 432.046875 246.789062 431.765625 246.855469 C 431.488281 246.917969 431.109375 246.972656 430.636719 247.011719 C 430.160156 247.050781 429.570312 247.070312 428.863281 247.070312 C 428.140625 247.070312 427.542969 247.050781 427.078125 247.011719 C 426.613281 246.972656 426.238281 246.917969 425.949219 246.855469 C 425.660156 246.789062 425.460938 246.703125 425.347656 246.597656 C 425.238281 246.492188 425.183594 246.375 425.183594 246.242188 L 366.277344 214.714844 L 356.398438 200.832032 C 414.953125 222.914062 414.726562 222.539062 414.625 222.269531 C 414.519531 222 414.574219 221.796875 414.789062 221.65625 C 415.003906 221.519531 415.398438 221.433594 415.976562 221.402344 C 416.550781 221.371094 417.351562 221.351562 418.375 221.351562 C 419.230469 221.351562 419.914062 221.367188 420.425781 221.390625 C 420.9375 221.417969 421.339844 221.46875 421.640625 221.539062 C 421.9375 221.613281 422.15625 221.707031 422.292969 221.824219 C 422.433594 221.945312 422.570312 222.09375 422.699219 222.277344 L 367.808594 205.968750 C 427.105469 229.144531 427.492188 229.78125 427.875 230.449219 C 428.253906 231.121094 428.640625 231.824219 429.03125 232.558594 L 370.183594 209.988282 C 429.441406 231.847656 429.804688 231.160156 430.175781 230.488281 C 430.546875 229.820312 430.910156 229.183594 431.265625 228.578125 L 376.320312 199.785157 C 435.316406 222.148438 435.433594 221.980469 435.574219 221.855469 C 435.714844 221.730469 435.921875 221.628906 436.203125 221.550781 C 436.480469 221.46875 436.859375 221.417969 437.347656 221.390625 C 437.828125 221.367188 438.472656 221.351562 439.269531 221.351562 C 440.332031 221.351562 441.152344 221.371094 441.738281 221.402344 C 442.324219 221.433594 442.726562 221.519531 442.9375 221.65625 C 443.152344 221.796875 443.203125 222.003906 443.09375 222.277344 C 442.980469 222.554688 442.757812 222.925781 442.421875 223.402344 Z M 373.640625 214.714844 "/>
<path fill-rule="nonzero" fill="rgb(89.364624%, 12.875366%, 14.894104%)" fill-opacity="1" d="M 438.527344 216.519532 C 497.433594 240.429688 497.089844 241.605469 496.402344 242.617188 C 495.710938 243.628906 494.78125 244.46875 493.601562 245.148438 C 492.421875 245.824219 491.046875 246.332031 489.46875 246.671875 C 487.894531 247.015625 486.207031 247.183594 484.414062 247.183594 C 483.199219 247.183594 482.074219 247.113281 481.03125 246.96875 C 479.988281 246.824219 479.070312 246.652344 478.273438 246.445312 C 477.472656 246.242188 476.808594 246.03125 476.273438 245.804688 C 475.738281 245.582031 475.355469 245.386719 475.117188 245.214844 C 474.882812 245.046875 474.714844 244.800781 474.617188 244.476562 C 474.515625 244.15625 474.464844 243.695312 474.464844 243.089844 C 474.464844 242.683594 474.484375 242.339844 474.519531 242.066406 C 474.558594 241.789062 474.617188 241.566406 474.695312 241.394531 C 474.777344 241.226562 474.886719 241.101562 475.023438 241.03125 C 475.160156 240.960938 475.316406 240.921875 475.5 240.921875 C 475.753906 240.921875 476.109375 241.03125 476.574219 241.246094 C 477.035156 241.464844 477.628906 241.703125 478.351562 241.964844 C 479.078125 242.230469 479.941406 242.46875 480.949219 242.683594 C 481.953125 242.902344 483.117188 243.011719 484.441406 243.011719 C 485.3125 243.011719 486.089844 242.933594 486.78125 242.785156 C 487.46875 242.632812 488.050781 242.417969 488.53125 242.144531 C 489.011719 241.867188 489.378906 241.527344 489.632812 241.121094 C 489.886719 240.714844 490.015625 240.261719 490.015625 239.761719 C 490.015625 239.183594 489.796875 238.6875 489.363281 238.273438 C 488.925781 237.859375 488.359375 237.492188 487.664062 237.171875 C 486.964844 236.847656 486.171875 236.546875 485.285156 236.265625 C 484.398438 235.984375 483.480469 235.683594 482.539062 235.371094 C 481.597656 235.054688 480.683594 234.695312 479.792969 234.296875 C 478.90625 233.898438 478.113281 233.417969 477.414062 232.859375 C 476.71875 232.300781 476.152344 231.640625 475.714844 230.878906 C 475.28125 230.117188 475.066406 229.207031 475.066406 228.140625 C 475.066406 226.921875 475.375 225.847656 476 224.921875 C 476.625 223.996094 477.46875 223.230469 478.53125 222.617188 C 479.589844 222.007812 480.839844 221.550781 482.28125 221.25 C 483.722656 220.949219 485.246094 220.796875 486.859375 220.796875 C 487.695312 220.796875 488.527344 220.84375 489.363281 220.933594 C 490.195312 221.027344 490.976562 221.152344 491.699219 221.308594 C 492.421875 221.464844 493.066406 221.644531 493.628906 221.839844 C 494.191406 222.039062 494.5625 222.203125 494.742188 222.332031 C 494.925781 222.464844 495.046875 222.578125 495.109375 222.667969 C 495.171875 222.761719 495.230469 222.882812 495.273438 223.03125 C 495.320312 223.183594 495.351562 223.375 495.367188 223.601562 C 495.386719 223.832031 495.394531 224.117188 495.394531 224.460938 C 495.394531 224.839844 495.382812 225.164062 495.355469 225.425781 C 495.328125 225.6875 495.28125 225.90625 495.21875 226.074219 C 495.15625 226.246094 495.066406 226.371094 494.949219 226.449219 C 494.828125 226.527344 494.671875 226.566406 494.472656 226.566406 C 494.273438 226.566406 493.957031 226.476562 493.519531 226.292969 C 493.085938 226.109375 492.550781 225.90625 491.917969 225.691406 C 491.28125 225.472656 490.546875 225.277344 489.714844 225.097656 C 488.882812 224.921875 487.964844 224.835938 486.96875 224.835938 C 486.191406 224.835938 485.511719 224.902344 484.929688 225.042969 C 484.351562 225.179688 483.867188 225.371094 483.476562 225.613281 C 483.085938 225.855469 482.796875 226.148438 482.605469 226.488281 C 482.417969 226.832031 482.320312 227.191406 482.320312 227.570312 C 482.320312 228.136719 482.535156 228.625 482.960938 229.039062 C 483.386719 229.453125 483.957031 229.820312 484.671875 230.140625 C 485.390625 230.464844 486.199219 230.765625 487.105469 231.046875 C 488.011719 231.328125 488.9375 231.628906 489.878906 231.945312 C 490.820312 232.257812 491.746094 232.617188 492.652344 233.015625 C 493.558594 233.417969 494.363281 233.898438 495.070312 234.453125 C 495.777344 235.011719 496.347656 235.667969 496.78125 236.421875 C 497.21875 237.179688 497.433594 238.066406 497.433594 239.089844 "/>
<path fill-rule="nonzero" fill="rgb(89.364624%, 12.875366%, 14.894104%)" fill-opacity="1" d="M 471.445312 223.453126 C 530.351562 246.15625 530.292969 246.273438 530.175781 246.378906 C 530.058594 246.484375 529.863281 246.570312 529.589844 246.632812 C 529.320312 246.699219 528.957031 246.753906 528.503906 246.792969 C 528.050781 246.832031 527.480469 246.851562 526.792969 246.851562 C 526.085938 246.851562 525.5 246.832031 525.039062 246.792969 C 524.574219 246.753906 524.214844 246.699219 523.949219 246.632812 C 523.6875 246.570312 523.496094 246.484375 523.378906 246.378906 C 523.261719 246.273438 523.203125 246.15625 523.203125 246.023438 L 464.296875 213.152344 L 451.140625 213.152344 L 451.140625 223.453126 C 510.046875 246.15625 509.992188 246.273438 509.882812 246.378906 C 509.777344 246.484375 509.585938 246.570312 509.3125 246.632812 C 509.042969 246.699219 508.679688 246.753906 508.226562 246.792969 C 507.773438 246.832031 507.191406 246.851562 506.488281 246.851562 C 505.796875 246.851562 505.222656 246.832031 504.761719 246.792969 C 504.296875 246.753906 503.929688 246.699219 503.660156 246.632812 C 503.386719 246.570312 503.191406 246.484375 503.074219 246.378906 C 502.957031 246.273438 502.898438 246.15625 502.898438 246.023438 L 443.992188 199.390626 C 502.898438 221.828125 502.957031 221.710938 503.074219 221.605469 C 503.191406 221.5 503.386719 221.414062 503.660156 221.347656 C 503.929688 221.285156 504.296875 221.230469 504.761719 221.191406 C 505.222656 221.152344 505.796875 221.132812 506.488281 221.132812 C 507.191406 221.132812 507.773438 221.152344 508.226562 221.191406 C 508.679688 221.230469 509.042969 221.285156 509.3125 221.347656 C 509.585938 221.414062 509.777344 221.5 509.882812 221.605469 C 509.992188 221.710938 510.046875 221.828125 510.046875 221.960938 L 451.140625 208.742188 L 464.296875 208.742188 L 464.296875 199.390626 C 523.203125 221.828125 523.261719 221.710938 523.378906 221.605469 C 523.496094 221.5 523.6875 221.414062 523.949219 221.347656 C 524.214844 221.285156 524.574219 221.230469 525.039062 221.191406 C 525.5 221.152344 526.085938 221.132812 526.792969 221.132812 C 527.480469 221.132812 528.050781 221.152344 528.503906 221.191406 C 528.957031 221.230469 529.320312 221.285156 529.589844 221.347656 C 529.863281 221.414062 530.058594 221.5 530.175781 221.605469 C 530.292969 221.710938 530.351562 221.828125 530.351562 221.960938 Z M 471.445312 223.453126 "/>
<path fill-rule="nonzero" fill="rgb(89.364624%, 12.875366%, 14.894104%)" fill-opacity="1" d="M 491.777344 203.542969 L 491.750000 203.542969 L 486.777344 214.375000 L 496.750000 214.375000 Z M 507.921875 222.230469 C 567.046875 245.273438 567.183594 245.648438 567.238281 245.925781 C 567.292969 246.199219 567.21875 246.40625 567.019531 246.546875 C 566.820312 246.683594 566.46875 246.769531 565.960938 246.800781 C 565.453125 246.835938 564.753906 246.851562 563.867188 246.851562 C 562.941406 246.851562 562.222656 246.839844 561.707031 246.820312 C 561.191406 246.800781 560.796875 246.761719 560.523438 246.703125 C 560.25 246.644531 560.0625 246.5625 559.953125 246.457031 C 559.84375 246.351562 559.753906 246.214844 559.679688 246.042969 L 498.410156 218.351563 L 485.199219 218.351563 L 482.968750 223.335938 C 541.804688 246.089844 541.707031 246.242188 541.59375 246.367188 C 541.472656 246.492188 541.285156 246.589844 541.019531 246.664062 C 540.757812 246.734375 540.386719 246.785156 539.90625 246.8125 C 539.425781 246.835938 538.796875 246.851562 538.015625 246.851562 C 537.183594 246.851562 536.53125 246.832031 536.058594 246.792969 C 535.589844 246.753906 535.261719 246.65625 535.082031 246.507812 C 534.898438 246.355469 534.835938 246.140625 534.890625 245.867188 C 534.945312 245.589844 535.082031 245.222656 535.296875 244.761719 L 487.238281 199.585938 C 546.253906 221.933594 546.378906 221.753906 546.523438 221.613281 C 546.667969 221.476562 546.902344 221.371094 547.21875 221.300781 C 547.535156 221.226562 547.976562 221.179688 548.535156 221.160156 C 549.097656 221.140625 549.839844 221.132812 550.765625 221.132812 C 551.835938 221.132812 552.6875 221.140625 553.320312 221.160156 C 553.953125 221.179688 554.449219 221.226562 554.800781 221.300781 C 555.15625 221.371094 555.410156 221.480469 555.5625 221.625 C 555.71875 221.769531 555.847656 221.964844 555.957031 222.214844 Z M 507.921875 222.230469 "/>
<path fill-rule="nonzero" fill="rgb(89.364624%, 12.875366%, 14.894104%)" fill-opacity="1" d="M 541.847656 222.351563 C 600.753906 245.222656 600.679688 245.492188 600.535156 245.726562 C 600.390625 245.964844 600.195312 246.160156 599.949219 246.320312 C 599.707031 246.476562 599.414062 246.589844 599.082031 246.664062 C 598.746094 246.734375 598.40625 246.769531 598.0625 246.769531 L 536.113281 224.199219 C 594.382812 246.769531 593.835938 246.726562 593.371094 246.632812 C 592.910156 246.542969 592.484375 246.375 592.097656 246.132812 C 591.707031 245.886719 591.328125 245.558594 590.96875 245.144531 C 590.605469 244.734375 590.195312 244.199219 589.742188 243.542969 L 522.085938 209.058594 C 580.484375 230.917969 579.96875 230.15625 579.441406 229.335938 C 578.917969 228.511719 578.445312 227.714844 578.027344 226.941406 L 519.070312 204.371094 C 578.046875 227.886719 578.101562 228.828125 578.136719 229.765625 C 578.175781 230.707031 578.191406 231.675781 578.191406 232.671875 L 519.285156 223.433594 C 578.191406 246.136719 578.140625 246.253906 578.042969 246.359375 C 577.941406 246.464844 577.769531 246.550781 577.527344 246.625 C 577.28125 246.695312 576.949219 246.753906 576.535156 246.792969 C 576.117188 246.832031 575.582031 246.851562 574.929688 246.851562 C 574.296875 246.851562 573.769531 246.832031 573.355469 246.792969 C 572.9375 246.753906 572.609375 246.695312 572.375 246.625 C 572.140625 246.550781 571.976562 246.464844 571.886719 246.359375 C 571.792969 246.253906 571.75 246.136719 571.75 246.003906 L 512.843750 200.531250 C 571.75 222.484375 572 222.019531 572.496094 221.714844 C 572.996094 221.40625 573.605469 221.25 574.332031 221.25 L 519.257812 198.679688 C 578.851562 221.25 579.433594 221.292969 579.902344 221.378906 C 580.375 221.464844 580.796875 221.605469 581.167969 221.800781 C 581.539062 222 581.890625 222.269531 582.214844 222.621094 C 582.539062 222.964844 582.875 223.394531 583.222656 223.910156 L 531.164062 210.652344 C 590.46875 233.789062 590.863281 234.34375 591.253906 234.886719 C 591.640625 235.433594 592.019531 235.976562 592.382812 236.519531 C 592.742188 237.066406 593.097656 237.601562 593.441406 238.125 C 593.785156 238.652344 594.121094 239.175781 594.445312 239.703125 L 535.566406 217.132813 C 594.417969 238.785156 594.378906 237.824219 594.351562 236.828125 C 594.324219 235.828125 594.3125 234.878906 594.3125 233.972656 L 535.406250 199.449219 C 594.3125 221.886719 594.363281 221.769531 594.472656 221.664062 C 594.582031 221.558594 594.765625 221.464844 595.019531 221.386719 C 595.269531 221.308594 595.605469 221.253906 596.023438 221.21875 C 596.441406 221.1875 596.976562 221.171875 597.625 221.171875 C 598.242188 221.171875 598.757812 221.1875 599.175781 221.21875 C 599.59375 221.253906 599.914062 221.308594 600.140625 221.386719 C 600.367188 221.464844 600.527344 221.558594 600.617188 221.664062 C 600.707031 221.769531 600.753906 221.886719 600.753906 222.019531 Z M 541.847656 222.351563 "/>
<path fill-rule="nonzero" fill="rgb(89.364624%, 12.875366%, 14.894104%)" fill-opacity="1" d="M 578.515625 222.351563 C 637.421875 245.222656 637.347656 245.492188 637.203125 245.726562 C 637.058594 245.964844 636.863281 246.160156 636.621094 246.320312 C 636.375 246.476562 636.085938 246.589844 635.75 246.664062 C 635.414062 246.734375 635.074219 246.769531 634.730469 246.769531 L 572.781250 224.199219 C 631.050781 246.769531 630.503906 246.726562 630.042969 246.632812 C 629.578125 246.542969 629.152344 246.375 628.765625 246.132812 C 628.375 245.886719 628 245.558594 627.636719 245.144531 C 627.273438 244.734375 626.867188 244.199219 626.414062 243.542969 L 558.753906 209.058594 C 617.152344 230.917969 616.636719 230.15625 616.109375 229.335938 C 615.585938 228.511719 615.113281 227.714844 614.699219 226.941406 L 555.738281 204.371094 C 614.714844 227.886719 614.769531 228.828125 614.804688 229.765625 C 614.84375 230.707031 614.859375 231.675781 614.859375 232.671875 L 555.953125 223.433594 C 614.859375 246.136719 614.808594 246.253906 614.710938 246.359375 C 614.613281 246.464844 614.4375 246.550781 614.195312 246.625 C 613.949219 246.695312 613.621094 246.753906 613.203125 246.792969 C 612.785156 246.832031 612.25 246.851562 611.597656 246.851562 C 610.964844 246.851562 610.4375 246.832031 610.023438 246.792969 C 609.605469 246.753906 609.277344 246.695312 609.042969 246.625 C 608.808594 246.550781 608.644531 246.464844 608.554688 246.359375 C 608.464844 246.253906 608.417969 246.136719 608.417969 246.003906 L 549.511719 200.531250 C 608.417969 222.484375 608.667969 222.019531 609.167969 221.714844 C 609.664062 221.40625 610.277344 221.25 611 221.25 L 555.925781 198.679688 C 615.519531 221.25 616.101562 221.292969 616.574219 221.378906 C 617.042969 221.464844 617.464844 221.605469 617.835938 221.800781 C 618.207031 222 618.558594 222.269531 618.882812 222.621094 C 619.210938 222.964844 619.542969 223.394531 619.890625 223.910156 L 567.832031 210.652344 C 627.136719 233.789062 627.53125 234.34375 627.921875 234.886719 C 628.308594 235.433594 628.6875 235.976562 629.050781 236.519531 C 629.410156 237.066406 629.765625 237.601562 630.109375 238.125 C 630.453125 238.652344 630.789062 239.175781 631.117188 239.703125 L 572.234375 217.132813 C 631.089844 238.785156 631.046875 237.824219 631.019531 236.828125 C 630.992188 235.828125 630.980469 234.878906 630.980469 233.972656 L 572.074219 199.449219 C 630.980469 221.886719 631.035156 221.769531 631.140625 221.664062 C 631.25 221.558594 631.433594 221.464844 631.6875 221.386719 C 631.9375 221.308594 632.273438 221.253906 632.691406 221.21875 C 633.109375 221.1875 633.644531 221.171875 634.296875 221.171875 C 634.910156 221.171875 635.425781 221.1875 635.84375 221.21875 C 636.261719 221.253906 636.582031 221.308594 636.808594 221.386719 C 637.035156 221.464844 637.195312 221.558594 637.285156 221.664062 C 637.375 221.769531 637.421875 221.886719 637.421875 222.019531 Z M 578.515625 222.351563 "/>
<path fill-rule="nonzero" fill="rgb(89.364624%, 12.875366%, 14.894104%)" fill-opacity="1" d="M 610.316406 211.402344 C 669.222656 232.632812 669.078125 231.414062 668.789062 230.320312 C 668.5 229.222656 668.003906 228.285156 667.308594 227.503906 C 666.609375 226.722656 665.679688 226.117188 664.519531 225.691406 C 663.363281 225.265625 661.910156 225.050781 660.171875 225.050781 C 658.414062 225.050781 656.945312 225.289062 655.769531 225.769531 C 654.589844 226.25 653.640625 226.886719 652.914062 227.6875 C 652.191406 228.492188 651.679688 229.425781 651.378906 230.496094 C 651.078125 231.566406 650.929688 232.699219 650.929688 233.890625 C 650.929688 235.285156 651.074219 236.535156 651.363281 237.644531 C 651.65625 238.753906 652.144531 239.703125 652.832031 240.488281 C 653.523438 241.277344 654.445312 241.878906 655.605469 242.292969 C 656.765625 242.707031 658.222656 242.914062 659.980469 242.914062 C 661.738281 242.914062 663.207031 242.675781 664.386719 242.203125 C 665.5625 241.730469 666.515625 241.085938 667.238281 240.273438 C 667.964844 239.460938 668.476562 238.511719 668.773438 237.425781 C 669.074219 236.34375 669.222656 235.191406 669.222656 233.972656 M 617.820312 211.125000 C 676.726562 235.808594 676.363281 237.699219 675.640625 239.367188 C 674.914062 241.035156 673.835938 242.449219 672.402344 243.613281 C 670.972656 244.773438 669.199219 245.660156 667.089844 246.269531 C 664.980469 246.878906 662.535156 247.183594 659.765625 247.183594 C 657.027344 247.183594 654.640625 246.925781 652.601562 246.40625 C 650.5625 245.886719 648.863281 245.097656 647.507812 244.035156 C 646.148438 242.972656 645.128906 241.621094 644.449219 239.976562 C 643.769531 238.335938 643.429688 236.394531 643.429688 234.148438 C 643.429688 232.089844 643.789062 230.234375 644.515625 228.585938 C 645.238281 226.9375 646.320312 225.535156 647.75 224.382812 C 649.183594 223.226562 650.953125 222.339844 653.0625 221.722656 C 655.175781 221.105469 657.625 220.796875 660.417969 220.796875 C 663.082031 220.796875 665.433594 221.054688 667.472656 221.566406 C 669.507812 222.078125 671.210938 222.863281 672.582031 223.929688 C 673.949219 224.992188 674.980469 226.335938 675.679688 227.957031 C 676.378906 229.578125 676.726562 231.492188 676.726562 233.695312 "/>
<path fill-rule="nonzero" fill="rgb(89.364624%, 12.875366%, 14.894104%)" fill-opacity="1" d="M 652.832031 222.351563 C 711.738281 245.222656 711.664062 245.492188 711.519531 245.726562 C 711.375 245.964844 711.179688 246.160156 710.933594 246.320312 C 710.691406 246.476562 710.398438 246.589844 710.0625 246.664062 C 709.730469 246.734375 709.390625 246.769531 709.046875 246.769531 L 647.093750 224.199219 C 705.367188 246.769531 704.820312 246.726562 704.355469 246.632812 C 703.894531 246.542969 703.46875 246.375 703.078125 246.132812 C 702.6875 245.886719 702.3125 245.558594 701.953125 245.144531 C 701.589844 244.734375 701.179688 244.199219 700.726562 243.542969 L 633.070312 209.058594 C 691.46875 230.917969 690.953125 230.15625 690.425781 229.335938 C 689.902344 228.511719 689.429688 227.714844 689.011719 226.941406 L 630.050781 204.371094 C 689.03125 227.886719 689.085938 228.828125 689.121094 229.765625 C 689.15625 230.707031 689.175781 231.675781 689.175781 232.671875 L 630.269531 223.433594 C 689.175781 246.136719 689.125 246.253906 689.027344 246.359375 C 688.925781 246.464844 688.753906 246.550781 688.507812 246.625 C 688.265625 246.695312 687.933594 246.753906 687.515625 246.792969 C 687.101562 246.832031 686.566406 246.851562 685.914062 246.851562 C 685.28125 246.851562 684.753906 246.832031 684.335938 246.792969 C 683.921875 246.753906 683.59375 246.695312 683.359375 246.625 C 683.121094 246.550781 682.960938 246.464844 682.871094 246.359375 C 682.777344 246.253906 682.734375 246.136719 682.734375 246.003906 L 623.828125 200.531250 C 682.734375 222.484375 682.980469 222.019531 683.480469 221.714844 C 683.980469 221.40625 684.589844 221.25 685.316406 221.25 L 630.242188 198.679688 C 689.835938 221.25 690.417969 221.292969 690.886719 221.378906 C 691.359375 221.464844 691.78125 221.605469 692.152344 221.800781 C 692.523438 222 692.871094 222.269531 693.199219 222.621094 C 693.523438 222.964844 693.859375 223.394531 694.203125 223.910156 L 642.148438 210.652344 C 701.453125 233.789062 701.847656 234.34375 702.238281 234.886719 C 702.625 235.433594 703.003906 235.976562 703.363281 236.519531 C 703.726562 237.066406 704.082031 237.601562 704.425781 238.125 C 704.769531 238.652344 705.105469 239.175781 705.429688 239.703125 L 646.550781 217.132813 C 705.402344 238.785156 705.363281 237.824219 705.335938 236.828125 C 705.308594 235.828125 705.292969 234.878906 705.292969 233.972656 L 646.386719 199.449219 C 705.292969 221.886719 705.347656 221.769531 705.457031 221.664062 C 705.566406 221.558594 705.746094 221.464844 706 221.386719 C 706.253906 221.308594 706.589844 221.253906 707.007812 221.21875 C 707.421875 221.1875 707.957031 221.171875 708.609375 221.171875 C 709.226562 221.171875 709.742188 221.1875 710.160156 221.21875 C 710.578125 221.253906 710.898438 221.308594 711.125 221.386719 C 711.351562 221.464844 711.507812 221.558594 711.601562 221.664062 C 711.691406 221.769531 711.738281 221.886719 711.738281 222.019531 Z M 652.832031 222.351563 "/>
<path fill-rule="nonzero" fill="rgb(89.364624%, 12.875366%, 14.894104%)" fill-opacity="1" d="M 175.261719 228.050782 L 171.046875 228.050782 L 171.046875 195.726563 L 175.261719 195.726563 Z M 175.261719 228.050782 "/>
<path fill-rule="nonzero" fill="rgb(89.364624%, 12.875366%, 14.894104%)" fill-opacity="1" d="M 399.445312 228.367188 L 395.226562 228.367188 L 395.226562 196.039063 L 399.445312 196.039063 Z M 399.445312 228.367188 "/>

                  </svg>