<?xml version="1.0" encoding="UTF-8"?>
<!-- CMYK_PDF_CONVERTED -->
<svg data-vectorized-cmyk="true" data-original-cmyk-pdf="true" xmlns="http://www.w3.org/2000/svg" xmlns:xlink="http://www.w3.org/1999/xlink" width="283.68" height="283.68" viewBox="0 0 283.68 283.68">
<path fill-rule="nonzero" fill="rgb(16.862488%, 18.823242%, 49.411011%)" fill-opacity="1" d="M 245 66.734375 L 253.160156 77.953125 C 253.347656 78.203125 253.296875 78.554688 253.046875 78.730469 L 246.042969 83.824219 C 245.585938 84.15625 245 84.28125 244.449219 84.175781 C 228.953125 81.03125 213.328125 79.714844 197.5625 80.238281 C 197.28125 80.246094 197.003906 80.148438 196.796875 79.953125 C 189.59375 73.3125 185.917969 63.589844 185.324219 53.851562 C 184.089844 33.902344 192.351562 16.3125 213.054688 11.34375 C 225.367188 8.390625 239.757812 10.566406 250.070312 18.320312 C 250.277344 18.480469 250.328125 18.761719 250.203125 18.980469 L 243.675781 30.300781 C 243.53125 30.542969 243.207031 30.609375 242.984375 30.441406 C 235.289062 24.855469 226.84375 23.132812 217.664062 25.273438 C 213.488281 26.25 209.777344 28.742188 206.550781 32.769531 C 201.566406 38.980469 200.683594 48.890625 202.300781 57.128906 C 204.71875 69.46875 214.777344 76.277344 227.511719 74.9375 C 233.554688 74.304688 239.105469 71.542969 244.148438 66.65625 C 244.398438 66.414062 244.800781 66.457031 245 66.734375 Z M 245 66.734375 "/>
<path fill-rule="nonzero" fill="rgb(16.862488%, 18.823242%, 49.411011%)" fill-opacity="1" d="M 73.078125 47.425781 C 73.078125 47.582031 73.285156 47.648438 73.378906 47.515625 L 99.164062 11.71875 C 99.355469 11.449219 99.664062 11.292969 99.996094 11.292969 L 118.6875 11.292969 C 118.90625 11.292969 119.023438 11.542969 118.886719 11.71875 L 92.460938 44.414062 C 92.269531 44.65625 92.261719 44.988281 92.425781 45.238281 C 98.339844 54.085938 102.964844 61.0625 106.324219 66.191406 C 110 71.800781 114.445312 73.710938 120.773438 75.238281 C 121.03125 75.304688 121.214844 75.535156 121.214844 75.804688 L 121.214844 88.300781 C 121.214844 88.585938 120.980469 88.816406 120.695312 88.824219 C 109.601562 89 100.882812 84.472656 94.527344 75.226562 C 94.234375 74.8125 90.269531 68.851562 82.605469 57.355469 C 82.480469 57.160156 82.207031 57.152344 82.0625 57.328125 L 73.453125 67.984375 C 73.210938 68.285156 73.078125 68.660156 73.078125 69.042969 L 73.078125 87.816406 C 73.078125 88.015625 72.917969 88.183594 72.71875 88.183594 L 57.769531 88.183594 C 57.621094 88.183594 57.496094 88.058594 57.496094 87.910156 L 57.496094 11.710938 C 57.496094 11.476562 57.679688 11.292969 57.914062 11.292969 L 72.734375 11.292969 C 72.925781 11.292969 73.078125 11.449219 73.078125 11.644531 Z M 73.078125 47.425781 "/>
<path fill-rule="nonzero" fill="rgb(16.862488%, 18.823242%, 49.411011%)" fill-opacity="1" d="M 184.265625 11.585938 L 184.265625 25.316406 C 184.265625 25.472656 184.132812 25.605469 183.976562 25.605469 L 162.289062 25.605469 C 162.132812 25.605469 161.996094 25.738281 161.996094 25.898438 L 161.996094 84.007812 C 161.996094 84.140625 161.90625 84.257812 161.78125 84.289062 L 146.441406 88.167969 C 146.25 88.21875 146.074219 88.074219 146.074219 87.882812 L 146.074219 25.890625 C 146.074219 25.730469 145.941406 25.597656 145.78125 25.597656 L 124.15625 25.597656 C 124 25.597656 123.863281 25.464844 123.863281 25.308594 L 123.863281 11.585938 C 123.863281 11.425781 124 11.292969 124.15625 11.292969 L 183.976562 11.292969 C 184.132812 11.292969 184.265625 11.425781 184.265625 11.585938 Z M 184.265625 11.585938 "/>
<path fill-rule="nonzero" fill="rgb(90.98053%, 18.431091%, 49.411011%)" fill-opacity="1" d="M 7.082031 100.207031 L 7.089844 100.1875 C 7.140625 100.046875 7.300781 99.964844 7.449219 100.007812 C 16.695312 102.582031 27.675781 104.589844 40.371094 106.039062 C 67.964844 109.191406 95.054688 107.535156 121.632812 101.074219 C 131.617188 98.648438 142.925781 94.085938 151.976562 91.695312 C 180.03125 84.273438 208.59375 82.972656 237.664062 87.800781 C 250.695312 89.96875 264.46875 93.753906 276.273438 99.613281 C 276.347656 99.648438 276.382812 99.738281 276.347656 99.8125 C 276.320312 99.890625 276.238281 99.9375 276.15625 99.914062 C 244.492188 91.835938 212.585938 90.351562 180.449219 95.460938 C 170.769531 97.003906 161.179688 99.347656 151.6875 102.507812 C 141.988281 105.734375 136.328125 107.566406 134.71875 108 C 103.683594 116.328125 72.445312 117.421875 40.996094 111.292969 C 29.699219 109.09375 18.445312 105.5 7.222656 100.523438 C 7.097656 100.472656 7.039062 100.332031 7.082031 100.207031 Z M 7.082031 100.207031 "/>
<path fill-rule="nonzero" fill="rgb(90.98053%, 18.431091%, 49.411011%)" fill-opacity="1" d="M 61.570312 157.773438 C 64.648438 160.941406 75.726562 162.707031 78.230469 157.980469 C 78.78125 156.9375 78.519531 155.605469 77.59375 154.710938 C 76.4375 153.601562 74.9375 152.820312 73.09375 152.34375 C 69.074219 151.3125 65.949219 150.21875 63.722656 149.066406 C 58.578125 146.417969 56.921875 140.863281 59.246094 135.621094 C 63.082031 126.96875 78.222656 128.761719 84.433594 132.644531 C 84.664062 132.785156 84.742188 133.09375 84.597656 133.328125 L 81.714844 138.339844 C 81.605469 138.523438 81.378906 138.578125 81.199219 138.480469 C 78.480469 136.972656 75.261719 136.230469 71.550781 136.261719 C 65.125 136.3125 63.582031 141.871094 70.410156 143.757812 C 74.734375 144.957031 81.164062 146.46875 84.332031 150.511719 C 86.898438 153.785156 86.632812 159.457031 84.222656 162.632812 C 78.472656 170.21875 64.972656 168.21875 58.1875 163.90625 C 57.730469 163.617188 57.585938 163.023438 57.855469 162.558594 L 60.546875 157.898438 C 60.753906 157.523438 61.273438 157.464844 61.570312 157.773438 Z M 61.570312 157.773438 "/>
<path fill-rule="nonzero" fill="rgb(90.98053%, 18.431091%, 49.411011%)" fill-opacity="1" d="M 106.308594 129.441406 C 113.136719 129.441406 118.414062 132.269531 121.023438 138.0625 C 122.132812 140.515625 122.597656 144.898438 122.421875 151.210938 C 122.382812 152.96875 122.371094 158.140625 122.398438 166.699219 C 122.398438 166.910156 122.230469 167.085938 122.023438 167.085938 L 115.179688 167.085938 C 114.996094 167.085938 114.84375 166.933594 114.84375 166.75 L 114.84375 157.703125 C 114.84375 157.40625 114.621094 157.164062 114.320312 157.136719 C 113.851562 157.105469 111.175781 157.089844 106.300781 157.089844 C 101.421875 157.078125 98.746094 157.105469 98.28125 157.136719 C 97.988281 157.164062 97.753906 157.40625 97.753906 157.703125 L 97.753906 166.75 C 97.753906 166.933594 97.605469 167.085938 97.421875 167.085938 L 90.578125 167.074219 C 90.367188 167.074219 90.199219 166.910156 90.199219 166.691406 C 90.234375 158.128906 90.226562 152.96875 90.183594 151.203125 C 90.007812 144.890625 90.476562 140.507812 91.585938 138.054688 C 94.203125 132.261719 99.472656 129.441406 106.308594 129.441406 M 98.039062 150.226562 L 114.546875 150.226562 C 114.703125 150.226562 114.828125 150.101562 114.828125 149.945312 L 114.828125 145.007812 C 114.828125 140.222656 111.234375 136.339844 106.808594 136.339844 L 105.773438 136.339844 C 101.347656 136.339844 97.753906 140.222656 97.753906 145.007812 L 97.753906 149.945312 C 97.753906 150.101562 97.878906 150.226562 98.039062 150.226562 Z M 98.039062 150.226562 "/>
<path fill-rule="nonzero" fill="rgb(90.98053%, 18.431091%, 49.411011%)" fill-opacity="1" d="M 136.671875 144.851562 L 153.1875 144.851562 C 153.351562 144.851562 153.496094 144.992188 153.496094 145.15625 L 153.496094 151.335938 C 153.496094 151.503906 153.351562 151.644531 153.1875 151.644531 L 136.671875 151.644531 C 136.503906 151.644531 136.363281 151.785156 136.363281 151.953125 L 136.363281 166.765625 C 136.363281 166.933594 136.222656 167.074219 136.054688 167.074219 L 129.125 167.074219 C 128.960938 167.074219 128.816406 166.933594 128.816406 166.765625 L 128.816406 130.351562 C 128.816406 130.183594 128.960938 130.042969 129.125 130.042969 L 154.828125 130.042969 C 154.996094 130.042969 155.136719 130.183594 155.136719 130.351562 L 155.136719 136.605469 C 155.136719 136.769531 154.996094 136.914062 154.828125 136.914062 L 136.671875 136.914062 C 136.503906 136.914062 136.363281 137.054688 136.363281 137.222656 L 136.363281 144.539062 C 136.363281 144.707031 136.503906 144.851562 136.671875 144.851562 Z M 136.671875 144.851562 "/>
<path fill-rule="nonzero" fill="rgb(90.98053%, 18.431091%, 49.411011%)" fill-opacity="1" d="M 166.726562 144.851562 L 183.367188 144.851562 C 183.53125 144.851562 183.675781 144.992188 183.675781 145.15625 L 183.675781 151.261719 C 183.675781 151.429688 183.53125 151.570312 183.367188 151.570312 L 166.734375 151.570312 C 166.566406 151.570312 166.425781 151.710938 166.425781 151.878906 L 166.425781 159.824219 C 166.425781 159.988281 166.566406 160.132812 166.734375 160.132812 L 185.351562 160.132812 C 185.515625 160.132812 185.660156 160.273438 185.660156 160.441406 L 185.660156 166.765625 C 185.660156 166.933594 185.515625 167.074219 185.351562 167.074219 L 159.171875 167.074219 C 159.007812 167.074219 158.863281 166.933594 158.863281 166.765625 L 158.863281 130.34375 C 158.863281 130.175781 159.007812 130.035156 159.171875 130.035156 L 184.742188 130.035156 C 184.90625 130.035156 185.050781 130.175781 185.050781 130.34375 L 185.050781 136.597656 C 185.050781 136.761719 184.90625 136.90625 184.742188 136.90625 L 166.726562 136.90625 C 166.558594 136.90625 166.417969 137.046875 166.417969 137.214844 L 166.417969 144.539062 C 166.417969 144.707031 166.558594 144.851562 166.726562 144.851562 Z M 166.726562 144.851562 "/>
<path fill-rule="nonzero" fill="rgb(90.98053%, 18.431091%, 49.411011%)" fill-opacity="1" d="M 202.242188 130.035156 C 207.066406 130.035156 211.796875 130.035156 216.414062 130.019531 C 216.613281 130.019531 216.78125 130.183594 216.78125 130.394531 L 216.78125 136.539062 C 216.78125 136.738281 216.613281 136.90625 216.414062 136.90625 L 206.417969 136.90625 C 206.234375 136.90625 206.09375 137.046875 206.09375 137.230469 L 206.09375 166.667969 C 206.09375 166.902344 205.910156 167.085938 205.683594 167.074219 L 202.257812 167.074219 C 201.140625 167.074219 199.996094 167.085938 198.839844 167.085938 C 198.613281 167.085938 198.429688 166.902344 198.429688 166.667969 L 198.398438 137.230469 C 198.398438 137.054688 198.246094 136.914062 198.070312 136.914062 L 188.074219 136.921875 C 187.875 136.921875 187.710938 136.753906 187.710938 136.554688 L 187.699219 130.410156 C 187.699219 130.203125 187.867188 130.035156 188.066406 130.035156 C 192.6875 130.042969 197.414062 130.042969 202.242188 130.035156 Z M 202.242188 130.035156 "/>
<path fill-rule="nonzero" fill="rgb(90.98053%, 18.431091%, 49.411011%)" fill-opacity="1" d="M 235.789062 147.785156 C 235.863281 147.785156 235.945312 147.683594 236.039062 147.5 C 238.832031 141.632812 241.683594 135.878906 244.609375 130.234375 C 244.675781 130.109375 244.800781 130.035156 244.941406 130.035156 L 253.121094 130.035156 C 253.195312 130.035156 253.238281 130.109375 253.203125 130.175781 L 239.808594 154.085938 C 239.640625 154.371094 239.558594 154.695312 239.558594 155.019531 L 239.558594 166.757812 C 239.558594 166.933594 239.414062 167.074219 239.246094 167.074219 L 232.320312 167.074219 C 232.152344 167.074219 232.011719 166.933594 232.011719 166.757812 L 232.011719 155.019531 C 232.011719 154.695312 231.929688 154.371094 231.761719 154.085938 L 218.371094 130.175781 C 218.332031 130.109375 218.382812 130.035156 218.457031 130.035156 L 226.632812 130.035156 C 226.769531 130.035156 226.902344 130.109375 226.96875 130.234375 C 229.886719 135.878906 232.746094 141.632812 235.53125 147.5 C 235.621094 147.683594 235.703125 147.785156 235.789062 147.785156 Z M 235.789062 147.785156 "/>
<path fill-rule="nonzero" fill="rgb(16.862488%, 18.823242%, 49.411011%)" fill-opacity="1" d="M 107.734375 194.261719 C 107.75 194.261719 107.765625 194.253906 107.773438 194.253906 C 107.816406 194.253906 107.851562 194.246094 107.859375 194.238281 L 110.691406 190.550781 C 110.894531 190.292969 110.894531 189.9375 110.703125 189.675781 L 110.484375 189.367188 C 110.25 189.050781 110.628906 188.636719 110.96875 188.84375 C 111.351562 189.078125 112.242188 189.078125 113.652344 188.835938 C 113.859375 188.800781 114.003906 189.035156 113.871094 189.203125 L 108.917969 195.320312 C 108.71875 195.570312 108.609375 195.886719 108.609375 196.214844 L 108.609375 206.058594 C 108.609375 206.242188 108.652344 206.417969 108.726562 206.585938 L 109.175781 207.492188 C 109.285156 207.710938 109.101562 207.960938 108.859375 207.933594 C 108.46875 207.886719 108.074219 207.851562 107.691406 207.851562 C 107.308594 207.851562 106.917969 207.875 106.523438 207.925781 C 106.28125 207.953125 106.109375 207.703125 106.214844 207.484375 L 106.664062 206.574219 C 106.75 206.417969 106.792969 206.234375 106.792969 206.050781 L 106.851562 196.203125 C 106.851562 195.878906 106.75 195.570312 106.550781 195.3125 L 101.632812 189.160156 C 101.507812 189 101.648438 188.761719 101.855469 188.800781 C 103.257812 189.042969 104.148438 189.050781 104.539062 188.828125 C 104.882812 188.617188 105.257812 189.035156 105.015625 189.351562 L 104.800781 189.660156 C 104.605469 189.917969 104.605469 190.277344 104.800781 190.535156 L 107.617188 194.238281 C 107.625 194.246094 107.648438 194.253906 107.691406 194.253906 C 107.710938 194.253906 107.726562 194.261719 107.734375 194.261719 Z M 107.734375 194.261719 "/>
<path fill-rule="nonzero" fill="rgb(16.862488%, 18.823242%, 49.411011%)" fill-opacity="1" d="M 95.296875 190.425781 C 95.46875 190.425781 95.644531 190.460938 95.820312 190.519531 C 95.988281 190.578125 96.105469 190.695312 96.171875 190.871094 C 99.214844 198.839844 100.78125 202.941406 100.882812 203.175781 C 100.988281 203.441406 101.140625 203.699219 101.324219 203.925781 L 102.429688 205.316406 C 102.523438 205.425781 102.441406 205.59375 102.296875 205.59375 L 99.730469 205.59375 C 99.472656 205.59375 99.273438 205.375 99.296875 205.125 C 99.429688 203.714844 99.003906 202.117188 98.011719 200.339844 C 97.878906 200.105469 97.636719 199.949219 97.371094 199.921875 C 97.269531 199.914062 96.605469 199.914062 95.363281 199.921875 C 94.109375 199.929688 93.445312 199.941406 93.351562 199.949219 C 93.085938 199.980469 92.84375 200.140625 92.710938 200.375 C 91.742188 202.164062 91.335938 203.765625 91.484375 205.175781 C 91.511719 205.425781 91.316406 205.640625 91.058594 205.652344 L 88.492188 205.683594 C 88.351562 205.683594 88.265625 205.515625 88.359375 205.410156 L 89.441406 204 C 89.625 203.773438 89.769531 203.515625 89.875 203.242188 C 89.976562 203.007812 91.492188 198.890625 94.429688 190.878906 C 94.496094 190.710938 94.609375 190.585938 94.777344 190.527344 C 94.945312 190.460938 95.121094 190.425781 95.296875 190.425781 M 93.234375 198.214844 C 93.175781 198.390625 93.3125 198.574219 93.496094 198.5625 L 96.84375 198.507812 C 97.027344 198.507812 97.152344 198.324219 97.085938 198.148438 L 95.335938 193.59375 C 95.246094 193.363281 94.910156 193.371094 94.835938 193.605469 Z M 93.234375 198.214844 "/>
<path fill-rule="nonzero" fill="rgb(16.862488%, 18.823242%, 49.411011%)" fill-opacity="1" d="M 118.773438 205.609375 L 116.222656 205.625 C 116.0625 205.625 115.996094 205.425781 116.121094 205.324219 C 116.3125 205.183594 116.472656 204.859375 116.605469 204.359375 C 116.730469 203.851562 116.796875 203.550781 116.796875 203.457031 C 116.828125 198.164062 116.820312 194.386719 116.769531 192.121094 C 116.769531 191.96875 116.730469 191.820312 116.644531 191.6875 L 116.144531 190.84375 C 116.027344 190.644531 116.160156 190.386719 116.394531 190.378906 C 119.554688 190.300781 121.363281 190.335938 121.832031 190.460938 C 125.773438 191.5625 125.398438 196.121094 122.046875 197.789062 C 121.773438 197.929688 121.699219 198.289062 121.890625 198.539062 L 127.425781 205.542969 C 127.507812 205.640625 127.425781 205.785156 127.300781 205.765625 L 125.289062 205.449219 C 125.125 205.425781 124.964844 205.324219 124.867188 205.183594 L 119.363281 197.621094 C 119.171875 197.363281 119.371094 196.996094 119.695312 197.015625 C 121.324219 197.097656 122.332031 196.386719 122.722656 194.894531 C 123.039062 193.703125 122.390625 192.46875 121.230469 192.054688 L 120.171875 191.660156 C 119.390625 191.378906 118.5625 191.960938 118.5625 192.796875 L 118.597656 203.484375 C 118.597656 203.976562 118.695312 204.46875 118.898438 204.925781 C 118.914062 204.957031 118.953125 205.007812 119.023438 205.082031 C 119.179688 205.300781 119.039062 205.609375 118.773438 205.609375 Z M 118.773438 205.609375 "/>
<path fill-rule="nonzero" fill="rgb(16.862488%, 18.823242%, 49.411011%)" fill-opacity="1" d="M 133.6875 190.453125 L 138.996094 190.453125 C 139.289062 190.453125 139.539062 190.667969 139.5625 190.960938 L 139.707031 192.371094 C 139.730469 192.585938 139.480469 192.726562 139.304688 192.59375 C 138.261719 191.820312 136.863281 191.5625 135.09375 191.835938 C 134.796875 191.878906 134.578125 192.136719 134.578125 192.4375 C 134.578125 195.269531 134.585938 199.082031 134.601562 203.867188 C 134.601562 204.324219 134.679688 204.625 134.835938 204.773438 C 135.003906 204.933594 135.105469 205.050781 135.144531 205.140625 C 135.238281 205.367188 135.0625 205.617188 134.820312 205.601562 C 134.4375 205.574219 134.054688 205.566406 133.679688 205.566406 C 133.304688 205.566406 132.917969 205.574219 132.535156 205.601562 C 132.285156 205.617188 132.109375 205.367188 132.203125 205.140625 C 132.242188 205.050781 132.351562 204.925781 132.519531 204.773438 C 132.667969 204.625 132.753906 204.324219 132.753906 203.867188 C 132.769531 199.082031 132.785156 195.269531 132.785156 192.4375 C 132.792969 192.136719 132.570312 191.878906 132.277344 191.835938 C 130.511719 191.5625 129.101562 191.8125 128.058594 192.585938 C 127.882812 192.71875 127.640625 192.578125 127.660156 192.363281 L 127.808594 190.953125 C 127.835938 190.660156 128.074219 190.445312 128.367188 190.445312 C 128.71875 190.445312 130.484375 190.445312 133.6875 190.453125 Z M 133.6875 190.453125 "/>
<path fill-rule="nonzero" fill="rgb(16.862488%, 18.823242%, 49.411011%)" fill-opacity="1" d="M 147.464844 190.304688 C 151.550781 190.101562 155.027344 193.394531 155.238281 197.652344 C 155.445312 201.90625 152.304688 205.527344 148.21875 205.726562 C 144.132812 205.925781 140.65625 202.632812 140.449219 198.375 C 140.238281 194.121094 143.382812 190.503906 147.464844 190.304688 M 146.03125 191.886719 C 143.164062 192.738281 141.664062 196.164062 142.664062 199.535156 C 143.675781 202.90625 146.808594 204.949219 149.671875 204.09375 C 152.535156 203.242188 154.035156 199.816406 153.035156 196.445312 C 152.027344 193.070312 148.894531 191.027344 146.03125 191.886719 Z M 146.03125 191.886719 "/>
<path fill-rule="nonzero" fill="rgb(16.862488%, 18.823242%, 49.411011%)" fill-opacity="1" d="M 167.5 190.378906 L 170.527344 190.378906 C 170.769531 190.378906 170.878906 190.6875 170.6875 190.835938 L 170.328125 191.121094 C 170.019531 191.351562 169.84375 191.71875 169.84375 192.101562 L 169.84375 205.277344 C 169.84375 205.5 169.558594 205.59375 169.425781 205.417969 L 159.972656 193.460938 C 159.847656 193.304688 159.589844 193.394531 159.589844 193.59375 C 159.632812 196.707031 159.640625 200.089844 159.613281 203.742188 C 159.605469 203.964844 159.839844 204.46875 160.296875 205.257812 C 160.398438 205.433594 160.273438 205.652344 160.074219 205.652344 L 157.4375 205.652344 C 157.1875 205.652344 157.070312 205.332031 157.269531 205.175781 L 157.636719 204.882812 C 157.953125 204.632812 158.136719 204.257812 158.136719 203.859375 L 158.136719 192.152344 C 158.136719 191.871094 158.046875 191.601562 157.871094 191.378906 L 157.414062 190.792969 C 157.28125 190.628906 157.40625 190.386719 157.613281 190.386719 L 159.28125 190.386719 C 159.597656 190.386719 159.898438 190.527344 160.089844 190.777344 L 168.035156 200.832031 C 168.144531 200.964844 168.359375 200.890625 168.359375 200.714844 L 168.359375 192.285156 C 168.359375 191.960938 168.25 191.636719 168.042969 191.386719 L 167.410156 190.578125 C 167.34375 190.496094 167.402344 190.378906 167.5 190.378906 Z M 167.5 190.378906 "/>
<path fill-rule="nonzero" fill="rgb(16.862488%, 18.823242%, 49.411011%)" fill-opacity="1" d="M 61.980469 192.945312 C 67.609375 192.9375 66.441406 199.273438 66.550781 202.792969 C 66.566406 203.242188 66.199219 203.617188 65.75 203.617188 L 65.332031 203.617188 C 64.898438 203.617188 64.566406 203.242188 64.613281 202.808594 C 64.707031 202.039062 64.722656 201.523438 64.671875 201.25 C 64.613281 200.964844 64.363281 200.757812 64.074219 200.75 C 63.390625 200.742188 62.699219 200.730469 61.996094 200.742188 C 61.304688 200.742188 60.613281 200.75 59.929688 200.757812 C 59.636719 200.765625 59.386719 200.972656 59.328125 201.257812 C 59.28125 201.53125 59.304688 202.050781 59.394531 202.816406 C 59.445312 203.25 59.113281 203.625 58.679688 203.632812 L 58.261719 203.632812 C 57.8125 203.632812 57.445312 203.265625 57.460938 202.808594 C 57.554688 199.289062 56.363281 192.960938 61.980469 192.945312 M 59.796875 198.941406 L 64.230469 198.890625 C 64.488281 198.882812 64.699219 198.671875 64.691406 198.414062 L 64.683594 197.523438 C 64.664062 195.953125 63.515625 194.695312 62.121094 194.710938 L 61.804688 194.710938 C 60.414062 194.730469 59.296875 196.023438 59.3125 197.589844 L 59.320312 198.480469 C 59.328125 198.738281 59.539062 198.949219 59.796875 198.941406 Z M 59.796875 198.941406 "/>
<path fill-rule="nonzero" fill="rgb(16.862488%, 18.823242%, 49.411011%)" fill-opacity="1" d="M 183.742188 198.515625 C 183.90625 201.558594 186.917969 202.984375 189.433594 201.097656 C 189.777344 200.847656 190.253906 200.90625 190.519531 201.242188 L 190.886719 201.714844 C 191.109375 201.992188 191.027344 202.40625 190.71875 202.574219 C 186.632812 204.816406 182.140625 203.617188 181.863281 198.613281 C 181.582031 193.621094 185.917969 191.917969 190.21875 193.695312 C 190.550781 193.828125 190.675781 194.230469 190.484375 194.53125 L 190.175781 195.046875 C 189.945312 195.40625 189.476562 195.519531 189.109375 195.304688 C 186.402344 193.710938 183.574219 195.464844 183.742188 198.515625 Z M 183.742188 198.515625 "/>
<path fill-rule="nonzero" fill="rgb(16.862488%, 18.823242%, 49.411011%)" fill-opacity="1" d="M 70.941406 196.246094 C 73.519531 194.402344 76.070312 195.855469 76.101562 199.03125 C 76.128906 201.28125 76.128906 202.617188 76.121094 203.023438 C 76.113281 203.375 75.820312 203.65625 75.460938 203.65625 L 74.9375 203.65625 C 74.636719 203.65625 74.402344 203.425781 74.394531 203.132812 L 74.3125 198.773438 C 74.285156 197.738281 73.328125 196.988281 72.328125 197.214844 L 72.308594 197.214844 C 71.285156 197.355469 70.527344 198.230469 70.519531 199.257812 L 70.507812 203.023438 C 70.507812 203.382812 70.21875 203.675781 69.859375 203.675781 L 69.382812 203.675781 C 69.035156 203.675781 68.75 203.390625 68.75 203.03125 L 68.75 196.054688 C 68.75 195.773438 68.957031 195.53125 69.242188 195.503906 C 69.699219 195.464844 70.035156 195.664062 70.257812 196.089844 C 70.382812 196.339844 70.710938 196.414062 70.941406 196.246094 Z M 70.941406 196.246094 "/>
<path fill-rule="nonzero" fill="rgb(16.862488%, 18.823242%, 49.411011%)" fill-opacity="1" d="M 200.402344 199.96875 C 200.421875 201.992188 198.796875 203.640625 196.773438 203.660156 L 195.789062 203.671875 C 193.769531 203.691406 192.121094 202.066406 192.097656 200.042969 L 192.089844 199.191406 C 192.070312 197.171875 193.695312 195.519531 195.71875 195.5 L 196.703125 195.492188 C 198.722656 195.472656 200.371094 197.097656 200.394531 199.121094 L 200.402344 199.96875 M 198.679688 199.582031 C 198.679688 198.238281 197.589844 197.148438 196.246094 197.148438 C 194.902344 197.148438 193.8125 198.238281 193.8125 199.582031 C 193.8125 200.921875 194.902344 202.015625 196.246094 202.015625 C 197.589844 202.015625 198.679688 200.921875 198.679688 199.582031 Z M 198.679688 199.582031 "/>
<path fill-rule="nonzero" fill="rgb(16.862488%, 18.823242%, 49.411011%)" fill-opacity="1" d="M 204.359375 196.304688 C 205.699219 195.121094 207.050781 195.136719 208.402344 196.355469 C 208.628906 196.5625 208.960938 196.605469 209.226562 196.464844 C 209.328125 196.414062 209.484375 196.28125 209.695312 196.070312 C 211.234375 194.519531 213.8125 195.804688 214.597656 197.378906 C 214.671875 197.523438 214.703125 197.679688 214.714844 197.832031 L 214.863281 202.964844 C 214.878906 203.308594 214.597656 203.601562 214.253906 203.601562 L 213.554688 203.601562 C 213.238281 203.601562 212.96875 203.339844 212.980469 203.023438 L 213.011719 198.757812 C 213.019531 197.839844 212.226562 197.121094 211.320312 197.207031 L 211.144531 197.222656 C 210.160156 197.28125 209.386719 198.097656 209.378906 199.082031 L 209.34375 203.066406 C 209.335938 203.390625 209.078125 203.648438 208.753906 203.648438 L 208.316406 203.648438 C 207.917969 203.648438 207.59375 203.324219 207.59375 202.933594 L 207.601562 198.746094 C 207.601562 197.796875 206.75 197.070312 205.808594 197.222656 L 205.660156 197.238281 C 204.675781 197.355469 203.941406 198.1875 203.941406 199.179688 L 203.941406 203 C 203.941406 203.351562 203.65625 203.632812 203.308594 203.632812 L 202.816406 203.632812 C 202.457031 203.632812 202.164062 203.339844 202.164062 202.984375 L 202.164062 196.089844 C 202.164062 195.789062 202.40625 195.539062 202.707031 195.519531 C 203.183594 195.503906 203.53125 195.722656 203.75 196.179688 C 203.859375 196.414062 204.164062 196.480469 204.359375 196.304688 Z M 204.359375 196.304688 "/>
<path fill-rule="nonzero" fill="rgb(16.862488%, 18.823242%, 49.411011%)" fill-opacity="1" d="M 218.648438 204.015625 L 218.648438 205.867188 C 218.648438 206.199219 218.371094 206.46875 218.039062 206.46875 L 217.582031 206.46875 C 217.222656 206.46875 216.929688 206.175781 216.929688 205.816406 L 216.929688 196.171875 C 216.929688 195.9375 217.054688 195.722656 217.265625 195.613281 C 217.738281 195.371094 218.148438 195.546875 218.472656 196.148438 C 218.597656 196.378906 218.90625 196.445312 219.113281 196.289062 C 222.875 193.453125 226.167969 198.273438 224.15625 201.707031 C 223.148438 203.433594 221.53125 204.035156 219.296875 203.5 C 218.964844 203.425781 218.648438 203.675781 218.648438 204.015625 M 219.429688 202.097656 C 223.734375 202.675781 224.066406 197.390625 220.773438 197.03125 C 220.441406 196.996094 220.113281 197.097656 219.855469 197.3125 C 218.714844 198.304688 218.339844 199.699219 218.738281 201.472656 C 218.8125 201.808594 219.089844 202.058594 219.429688 202.097656 Z M 219.429688 202.097656 "/>
<path fill-rule="nonzero" fill="rgb(16.862488%, 18.823242%, 49.411011%)" fill-opacity="1" d="M 231.910156 202.859375 C 230.101562 204.058594 228.492188 204 227.09375 202.675781 C 225.851562 201.5 225.777344 198.4375 226.683594 197.1875 C 227.851562 195.570312 229.511719 195.113281 231.652344 195.820312 C 231.9375 195.914062 232.253906 195.90625 232.535156 195.789062 C 232.828125 195.664062 233.0625 195.597656 233.238281 195.589844 C 233.578125 195.578125 233.855469 195.847656 233.855469 196.1875 L 233.828125 201.316406 C 233.828125 201.625 234.0625 201.882812 234.363281 201.90625 C 234.464844 201.914062 234.5625 201.90625 234.65625 201.882812 C 235.019531 201.78125 235.40625 201.964844 235.546875 202.316406 C 235.695312 202.667969 235.570312 203.066406 235.246094 203.265625 C 234.105469 203.964844 233.210938 203.875 232.585938 202.984375 C 232.4375 202.765625 232.136719 202.707031 231.910156 202.859375 M 231.179688 197.222656 C 228.460938 196.171875 227.058594 199.523438 228.453125 201.355469 C 228.617188 201.582031 228.851562 201.75 229.109375 201.832031 C 230.835938 202.40625 231.863281 201.597656 232.179688 199.40625 C 232.320312 198.40625 231.902344 197.496094 231.179688 197.222656 Z M 231.179688 197.222656 "/>
<path fill-rule="nonzero" fill="rgb(16.862488%, 18.823242%, 49.411011%)" fill-opacity="1" d="M 238.265625 196.078125 C 238.390625 196.332031 238.714844 196.40625 238.941406 196.238281 C 241.5 194.414062 244.035156 195.855469 244.058594 199.007812 C 244.085938 201.242188 244.085938 202.566406 244.074219 202.972656 C 244.066406 203.324219 243.773438 203.601562 243.417969 203.601562 L 242.898438 203.601562 C 242.609375 203.601562 242.367188 203.367188 242.359375 203.074219 L 242.28125 198.746094 C 242.265625 197.722656 241.308594 196.972656 240.316406 197.195312 L 240.300781 197.195312 C 239.28125 197.339844 238.523438 198.207031 238.515625 199.222656 L 238.507812 202.964844 C 238.507812 203.316406 238.214844 203.609375 237.855469 203.609375 L 237.390625 203.609375 C 237.039062 203.609375 236.753906 203.324219 236.753906 202.964844 L 236.765625 196.046875 C 236.765625 195.761719 236.980469 195.53125 237.257812 195.496094 C 237.707031 195.464844 238.046875 195.65625 238.265625 196.078125 Z M 238.265625 196.078125 "/>
<path fill-rule="nonzero" fill="rgb(16.862488%, 18.823242%, 49.411011%)" fill-opacity="1" d="M 251.144531 202.472656 C 251.136719 202.472656 250.921875 202.582031 250.496094 202.808594 C 249.070312 203.542969 247.308594 203.082031 246.59375 201.984375 C 245.792969 200.757812 246.09375 197.613281 246.117188 196.230469 C 246.125 195.828125 246.460938 195.503906 246.859375 195.503906 L 247.226562 195.503906 C 247.542969 195.503906 247.800781 195.761719 247.808594 196.089844 L 247.835938 199.847656 C 247.84375 200.78125 248.652344 201.507812 249.578125 201.40625 L 249.761719 201.390625 C 250.710938 201.339844 251.453125 200.566406 251.453125 199.613281 L 251.460938 196.148438 C 251.460938 195.839844 251.710938 195.589844 252.019531 195.589844 L 252.585938 195.589844 C 252.921875 195.589844 253.1875 195.855469 253.195312 196.1875 C 253.269531 199.789062 253.230469 202.308594 253.085938 203.75 C 252.828125 206.375 249.742188 206.828125 247.761719 206.359375 C 247.441406 206.285156 247.21875 206 247.21875 205.675781 L 247.21875 205.015625 C 247.21875 204.757812 247.460938 204.566406 247.710938 204.632812 C 249.394531 205.058594 251.144531 204.875 251.554688 202.933594 C 251.613281 202.683594 251.402344 202.449219 251.144531 202.472656 Z M 251.144531 202.472656 "/>
<path fill-rule="nonzero" fill="rgb(90.98053%, 18.431091%, 49.411011%)" fill-opacity="1" d="M 96.71875 210.585938 C 92.800781 209.058594 91.652344 213.304688 94.535156 215.429688 C 95.285156 215.980469 96.335938 215.636719 96.421875 214.8125 C 96.445312 214.605469 96.394531 214.328125 96.269531 213.980469 C 96.179688 213.722656 96.378906 213.445312 96.664062 213.445312 L 97.011719 213.445312 C 97.269531 213.445312 97.480469 213.664062 97.472656 213.921875 C 97.445312 214.644531 97.421875 215.0625 97.394531 215.171875 C 97.203125 216.011719 96.210938 216.539062 95.121094 216.378906 C 90.019531 215.65625 91.308594 208.160156 96.945312 209.585938 C 97.105469 209.628906 97.210938 209.769531 97.210938 209.9375 L 97.210938 210.253906 C 97.210938 210.511719 96.953125 210.679688 96.71875 210.585938 Z M 96.71875 210.585938 "/>
<path fill-rule="nonzero" fill="rgb(90.98053%, 18.431091%, 49.411011%)" fill-opacity="1" d="M 99.511719 209.4375 C 100.8125 209.3125 101.746094 209.445312 102.304688 209.84375 C 103.308594 210.554688 103.230469 211.460938 102.082031 212.585938 C 101.847656 212.8125 101.824219 213.179688 102.015625 213.445312 L 103.972656 216.148438 C 104.023438 216.214844 103.988281 216.3125 103.90625 216.332031 L 103.214844 216.472656 C 103.183594 216.480469 103.148438 216.472656 103.132812 216.445312 L 100.632812 213.011719 C 100.507812 212.835938 100.589844 212.585938 100.804688 212.527344 C 101.390625 212.378906 101.722656 212.085938 101.796875 211.652344 C 101.957031 210.792969 101.65625 210.3125 100.90625 210.1875 C 100.570312 210.136719 100.265625 210.394531 100.265625 210.734375 L 100.265625 215.878906 C 100.265625 216.121094 100.0625 216.320312 99.8125 216.320312 L 99.5625 216.320312 C 99.371094 216.320312 99.222656 216.171875 99.222656 215.988281 L 99.222656 209.761719 C 99.222656 209.59375 99.347656 209.453125 99.511719 209.4375 Z M 99.511719 209.4375 "/>
<path fill-rule="nonzero" fill="rgb(90.98053%, 18.431091%, 49.411011%)" fill-opacity="1" d="M 107.414062 209.449219 C 109.25 209.242188 110.917969 210.609375 111.132812 212.511719 C 111.34375 214.414062 110.027344 216.121094 108.1875 216.324219 C 106.351562 216.53125 104.683594 215.164062 104.46875 213.261719 C 104.257812 211.363281 105.574219 209.652344 107.414062 209.449219 M 107.078125 210.265625 C 105.839844 210.621094 105.164062 212.078125 105.578125 213.527344 C 105.992188 214.972656 107.332031 215.863281 108.570312 215.507812 C 109.808594 215.15625 110.484375 213.695312 110.070312 212.246094 C 109.660156 210.804688 108.316406 209.910156 107.078125 210.265625 Z M 107.078125 210.265625 "/>
<path fill-rule="nonzero" fill="rgb(90.98053%, 18.431091%, 49.411011%)" fill-opacity="1" d="M 120.171875 209.476562 C 121.640625 209.226562 122.699219 209.46875 123.355469 210.203125 C 123.566406 210.4375 123.675781 210.746094 123.648438 211.0625 C 123.566406 212.363281 122.808594 213.003906 121.371094 212.996094 C 121.089844 212.988281 120.863281 213.210938 120.863281 213.496094 L 120.863281 215.898438 C 120.863281 215.929688 120.847656 215.957031 120.824219 215.972656 L 120.222656 216.414062 C 120.070312 216.523438 119.863281 216.414062 119.863281 216.230469 L 119.863281 209.84375 C 119.863281 209.667969 119.996094 209.511719 120.171875 209.476562 M 120.796875 211.238281 C 120.773438 211.621094 120.78125 211.863281 120.824219 211.976562 C 120.914062 212.246094 121.1875 212.421875 121.480469 212.378906 C 122.199219 212.285156 122.574219 211.9375 122.605469 211.335938 C 122.640625 210.726562 122.304688 210.34375 121.597656 210.167969 C 121.3125 210.101562 121.023438 210.234375 120.898438 210.503906 C 120.847656 210.601562 120.8125 210.851562 120.796875 211.238281 Z M 120.796875 211.238281 "/>
<path fill-rule="nonzero" fill="rgb(90.98053%, 18.431091%, 49.411011%)" fill-opacity="1" d="M 117.464844 216.363281 C 117.121094 216.003906 116.277344 215.972656 114.929688 216.261719 C 113.492188 216.570312 112.5625 215.078125 112.644531 213.652344 C 112.703125 212.480469 112.660156 211.226562 112.503906 209.894531 C 112.476562 209.660156 112.660156 209.453125 112.902344 209.453125 L 113.285156 209.453125 C 113.476562 209.453125 113.628906 209.609375 113.628906 209.800781 L 113.570312 214.019531 C 113.554688 214.878906 114.277344 215.5625 115.128906 215.511719 L 115.296875 215.503906 C 116.128906 215.445312 116.769531 214.738281 116.753906 213.902344 L 116.660156 209.800781 C 116.652344 209.601562 116.8125 209.445312 117.011719 209.445312 L 117.3125 209.445312 C 117.511719 209.445312 117.679688 209.609375 117.679688 209.8125 L 117.679688 216.28125 C 117.679688 216.398438 117.539062 216.445312 117.464844 216.363281 Z M 117.464844 216.363281 "/>
<path fill-rule="nonzero" fill="rgb(90.98053%, 18.431091%, 49.411011%)" fill-opacity="1" d="M 128.492188 215.832031 C 135.238281 213.539062 142.457031 212.511719 150.160156 212.769531 C 156.703125 212.988281 163.03125 214.289062 169.136719 216.65625 C 169.261719 216.707031 169.316406 216.839844 169.277344 216.945312 L 169.277344 216.964844 C 169.242188 217.089844 169.109375 217.164062 168.976562 217.128906 C 155.527344 213.886719 142.40625 214.472656 129.476562 218.871094 C 122.722656 221.164062 115.503906 222.183594 107.800781 221.925781 C 101.257812 221.707031 94.929688 220.414062 88.824219 218.039062 C 88.707031 217.988281 88.640625 217.863281 88.683594 217.746094 L 88.683594 217.730469 C 88.726562 217.605469 88.851562 217.539062 88.984375 217.5625 C 102.429688 220.816406 115.554688 220.230469 128.492188 215.832031 Z M 128.492188 215.832031 "/>
</svg>
