<svg xmlns="http://www.w3.org/2000/svg" 
                    viewBox="0 0 279.6875 191.558594" 
                    width="279.6875" 
                    height="191.558594"
                    data-content-extracted="true"
                    data-original-bounds="1.398438,1.496094,281.085938,193.054688">
                    <g transform="translate(-1.398438, -1.496094)">
                      
<path fill-rule="nonzero" fill="rgb(100%, 100%, 100%)" fill-opacity="1" d="M 34.4375 167.027344 C 34.109375 164.386719 33.0625 163.226562 31.144531 163.226562 C 29.550781 163.226562 28.796875 164.457031 29.050781 166.523438 L 29.394531 169.3125 L 34.714844 169.3125 Z M 24.699219 167.644531 C 24.460938 165.726562 23.183594 164.746094 21.878906 164.746094 C 20.464844 164.746094 19.425781 165.726562 19.679688 167.789062 L 19.867188 169.3125 L 24.902344 169.3125 Z M 16.023438 174.851562 L 15.039062 166.847656 C 14.402344 161.667969 17.160156 159.351562 20.167969 159.351562 C 21.976562 159.351562 24.007812 160.253906 25.242188 162.066406 L 25.316406 162.066406 C 25.757812 159.167969 27.894531 157.683594 30.5 157.683594 C 34.011719 157.683594 38.125 160.507812 38.828125 166.230469 L 39.886719 174.851562 Z M 16.023438 174.851562 "/>
<path fill-rule="nonzero" fill="rgb(100%, 100%, 100%)" fill-opacity="1" d="M 33.15625 152.179688 C 31.910156 152.941406 30.183594 153.339844 28.121094 153.339844 L 13.378906 153.339844 L 12.699219 147.796875 L 27.113281 147.796875 C 28.34375 147.796875 29.398438 147.542969 30.140625 147.070312 C 31.414062 146.238281 31.949219 144.71875 31.707031 142.726562 C 31.460938 140.734375 30.550781 139.210938 29.070312 138.378906 C 28.214844 137.910156 27.097656 137.65625 25.867188 137.65625 L 11.453125 137.65625 L 10.773438 132.113281 L 25.511719 132.113281 C 27.578125 132.113281 29.402344 132.511719 30.835938 133.273438 C 34.007812 134.9375 35.757812 138.269531 36.304688 142.726562 C 36.851562 147.183594 35.921875 150.515625 33.15625 152.179688 "/>
<path fill-rule="nonzero" fill="rgb(100%, 100%, 100%)" fill-opacity="1" d="M 14.1875 121.863281 L 15.042969 128.855469 L 10.375 128.855469 L 7.910156 108.789062 L 12.753906 110.199219 L 13.507812 116.320312 L 32.699219 116.320312 L 33.382812 121.863281 Z M 14.1875 121.863281 "/>
<path fill-rule="nonzero" fill="rgb(100%, 100%, 100%)" fill-opacity="1" d="M 11.632812 101.074219 L 12.492188 108.066406 L 7.820312 108.066406 L 5.355469 88 L 10.203125 89.410156 L 10.953125 95.53125 L 30.148438 95.53125 L 30.828125 101.074219 Z M 11.632812 101.074219 "/>
<path fill-rule="nonzero" fill="rgb(100%, 100%, 100%)" fill-opacity="1" d="M 4.980469 84.921875 L 3.21875 70.578125 L 8.0625 71.988281 L 8.972656 79.378906 L 13.785156 79.378906 L 12.867188 71.878906 L 17.539062 71.878906 L 18.460938 79.378906 L 23.492188 79.378906 L 22.421875 70.648438 L 27.09375 70.648438 L 28.84375 84.921875 Z M 4.980469 84.921875 "/>
<path fill-rule="nonzero" fill="rgb(100%, 100%, 100%)" fill-opacity="1" d="M 12.386719 58.226562 C 12.261719 57.210938 12.003906 56.597656 11.648438 56.050781 C 11.035156 55.183594 10.058594 54.605469 8.828125 54.605469 C 7.628906 54.605469 6.65625 55.21875 6.277344 56.269531 C 6.117188 56.742188 6.039062 57.285156 6.152344 58.1875 L 6.367188 59.964844 L 12.597656 59.964844 Z M 2.59375 65.507812 L 1.652344 57.828125 C 1.398438 55.761719 1.492188 54.167969 1.84375 52.902344 C 2.679688 49.96875 4.933594 48.84375 7.574219 48.84375 C 10.652344 48.84375 13.074219 50.871094 14.183594 53.410156 L 14.257812 53.410156 C 14.601562 52.683594 15.734375 51.597656 17.832031 50.367188 L 24.140625 46.597656 L 24.914062 52.902344 L 19.835938 55.796875 C 17.671875 57.03125 16.898438 57.828125 16.859375 58.371094 L 17.054688 59.964844 L 25.78125 59.964844 L 26.460938 65.507812 Z M 2.59375 65.507812 "/>
<path fill-rule="nonzero" fill="rgb(100%, 100%, 100%)" fill-opacity="1" d="M 56.433594 174.859375 C 57.035156 173.785156 57.371094 172.5625 57.195312 171.144531 C 57.0625 170.046875 56.550781 168.851562 55.5 168.851562 C 52.835938 168.851562 54.019531 175.6875 49.0625 175.6875 C 46.597656 175.6875 44.109375 173.710938 43.671875 170.144531 C 43.449219 168.363281 43.65625 166.871094 44.027344 165.894531 L 47.371094 165.894531 C 46.824219 167.386719 46.59375 168.703125 46.753906 170.023438 C 46.867188 170.925781 47.277344 171.707031 48.257812 171.707031 C 50.746094 171.707031 49.515625 164.871094 54.695312 164.871094 C 57.671875 164.871094 59.859375 167.558594 60.28125 171 C 60.515625 172.90625 60.246094 174.882812 59.414062 176.273438 Z M 56.433594 174.859375 "/>
<path fill-rule="nonzero" fill="rgb(100%, 100%, 100%)" fill-opacity="1" d="M 45.554688 158.449219 L 46.132812 163.160156 L 42.984375 163.160156 L 41.320312 149.632812 L 44.589844 150.585938 L 45.09375 154.710938 L 58.035156 154.710938 L 58.496094 158.449219 Z M 45.554688 158.449219 "/>
<path fill-rule="nonzero" fill="rgb(100%, 100%, 100%)" fill-opacity="1" d="M 47.667969 142.648438 C 47.582031 141.960938 47.410156 141.546875 47.171875 141.183594 C 46.757812 140.59375 46.097656 140.203125 45.269531 140.203125 C 44.460938 140.203125 43.804688 140.621094 43.550781 141.328125 C 43.441406 141.644531 43.390625 142.011719 43.464844 142.621094 L 43.609375 143.820312 L 47.8125 143.820312 Z M 41.066406 147.554688 L 40.429688 142.378906 C 40.261719 140.988281 40.324219 139.910156 40.5625 139.058594 C 41.125 137.078125 42.640625 136.320312 44.425781 136.320312 C 46.5 136.320312 48.132812 137.6875 48.878906 139.398438 L 48.929688 139.398438 C 49.160156 138.910156 49.925781 138.179688 51.339844 137.347656 L 55.59375 134.808594 L 56.113281 139.058594 L 52.691406 141.011719 C 51.230469 141.839844 50.710938 142.378906 50.683594 142.746094 L 50.816406 143.820312 L 56.699219 143.820312 L 57.160156 147.554688 Z M 41.066406 147.554688 "/>
<path fill-rule="nonzero" fill="rgb(100%, 100%, 100%)" fill-opacity="1" d="M 52.519531 131.460938 C 51.679688 131.972656 50.515625 132.242188 49.125 132.242188 L 39.1875 132.242188 L 38.726562 128.507812 L 48.445312 128.507812 C 49.277344 128.507812 49.988281 128.335938 50.488281 128.019531 C 51.34375 127.457031 51.707031 126.429688 51.542969 125.085938 C 51.378906 123.746094 50.765625 122.71875 49.765625 122.15625 C 49.191406 121.839844 48.4375 121.667969 47.605469 121.667969 L 37.886719 121.667969 L 37.429688 117.933594 L 47.367188 117.933594 C 48.757812 117.933594 49.988281 118.203125 50.957031 118.714844 C 53.09375 119.835938 54.273438 122.085938 54.644531 125.085938 C 55.011719 128.09375 54.382812 130.339844 52.519531 131.460938 "/>
<path fill-rule="nonzero" fill="rgb(100%, 100%, 100%)" fill-opacity="1" d="M 39.730469 111.023438 L 40.308594 115.734375 L 37.160156 115.734375 L 35.5 102.207031 L 38.765625 103.160156 L 39.273438 107.285156 L 52.214844 107.285156 L 52.671875 111.023438 Z M 39.730469 111.023438 "/>
<path fill-rule="nonzero" fill="rgb(100%, 100%, 100%)" fill-opacity="1" d="M 38.007812 97.003906 L 38.589844 101.71875 L 35.4375 101.71875 L 33.777344 88.1875 L 37.042969 89.140625 L 37.550781 93.265625 L 50.492188 93.265625 L 50.949219 97.003906 Z M 38.007812 97.003906 "/>
<path fill-rule="nonzero" fill="rgb(100%, 100%, 100%)" fill-opacity="1" d="M 33.523438 86.113281 L 32.335938 76.441406 L 35.601562 77.394531 L 36.214844 82.375 L 39.460938 82.375 L 38.839844 77.320312 L 41.992188 77.320312 L 42.609375 82.375 L 46.003906 82.375 L 45.28125 76.488281 L 48.433594 76.488281 L 49.613281 86.113281 Z M 33.523438 86.113281 "/>
<path fill-rule="nonzero" fill="rgb(100%, 100%, 100%)" fill-opacity="1" d="M 38.515625 68.113281 C 38.429688 67.429688 38.257812 67.015625 38.019531 66.648438 C 37.605469 66.0625 36.945312 65.671875 36.117188 65.671875 C 35.308594 65.671875 34.652344 66.085938 34.398438 66.796875 C 34.289062 67.113281 34.238281 67.480469 34.3125 68.089844 L 34.460938 69.285156 L 38.660156 69.285156 Z M 31.914062 73.023438 L 31.277344 67.847656 C 31.109375 66.453125 31.171875 65.378906 31.410156 64.523438 C 31.972656 62.546875 33.492188 61.789062 35.273438 61.789062 C 37.347656 61.789062 38.980469 63.15625 39.730469 64.867188 L 39.777344 64.867188 C 40.011719 64.378906 40.777344 63.644531 42.1875 62.8125 L 46.441406 60.273438 L 46.964844 64.523438 L 43.539062 66.480469 C 42.078125 67.308594 41.558594 67.847656 41.53125 68.210938 L 41.664062 69.285156 L 47.546875 69.285156 L 48.007812 73.023438 Z M 31.914062 73.023438 "/>
<path fill-rule="nonzero" fill="rgb(100%, 100%, 100%)" fill-opacity="1" d="M 41.949219 56.902344 C 42.550781 55.828125 42.890625 54.609375 42.714844 53.191406 C 42.582031 52.09375 42.066406 50.894531 41.015625 50.894531 C 38.355469 50.894531 39.535156 57.734375 34.578125 57.734375 C 32.113281 57.734375 29.625 55.757812 29.1875 52.191406 C 28.96875 50.40625 29.175781 48.917969 29.542969 47.941406 L 32.890625 47.941406 C 32.339844 49.429688 32.109375 50.75 32.273438 52.070312 C 32.382812 52.972656 32.796875 53.753906 33.773438 53.753906 C 36.265625 53.753906 35.035156 46.917969 40.210938 46.917969 C 43.191406 46.917969 45.375 49.601562 45.796875 53.046875 C 46.03125 54.949219 45.761719 56.929688 44.933594 58.320312 Z M 41.949219 56.902344 "/>
<path fill-rule="nonzero" fill="rgb(100%, 100%, 100%)" fill-opacity="1" d="M 64.945312 107.425781 C 65.042969 107.027344 65.0625 106.628906 65.078125 106.21875 C 64.183594 106.625 64.917969 107.210938 64.945312 107.425781 "/>
<path fill-rule="nonzero" fill="rgb(20.783997%, 25.881958%, 17.254639%)" fill-opacity="1" d="M 213.640625 151.234375 L 213.167969 145.617188 C 212.671875 144.25 210.785156 132.730469 210 132.757812 C 209.753906 132.941406 209.195312 133.117188 209.046875 133.332031 C 208.351562 134.359375 212.722656 149.046875 213.640625 151.234375 "/>
<path fill-rule="nonzero" fill="rgb(97.647095%, 92.941284%, 78.039551%)" fill-opacity="1" d="M 123.878906 14.195312 L 124.535156 13.800781 C 126.574219 16.445312 125.851562 19.519531 127.800781 22.414062 C 132.035156 28.695312 140.917969 24.378906 138.625 18.390625 C 137.867188 16.40625 134.800781 15.097656 134.726562 12.472656 C 141.242188 14.097656 142.457031 22.355469 138.367188 27.152344 C 137.988281 27.59375 137.089844 27.863281 136.890625 28.207031 C 136.613281 28.6875 137.105469 29.527344 136.242188 29.699219 C 139.960938 31.011719 137.433594 34.023438 138.496094 36.765625 C 140.632812 36.382812 143.113281 34.761719 143.644531 32.5625 C 144.484375 29.0625 141.742188 25.921875 141.515625 22.464844 C 141.980469 21.726562 144.464844 23.886719 144.742188 24.449219 C 147.265625 20.542969 144.589844 9.292969 140.464844 7.46875 C 137.960938 6.363281 136.683594 8.996094 134.902344 9.253906 C 134.226562 9.351562 132.300781 8.203125 131.183594 8.167969 C 128.703125 8.089844 123.957031 9.476562 121.691406 10.578125 C 120.78125 11.019531 115.117188 14.671875 114.609375 15.234375 C 112.183594 17.910156 112.554688 29.082031 114.03125 32.238281 C 115.25 34.847656 118.894531 36.160156 121.511719 34.929688 L 124.128906 31.414062 C 122.007812 28.910156 120.28125 26.058594 119.636719 22.789062 C 122.042969 25.835938 122.96875 29.757812 127.421875 30.140625 C 128.664062 30.25 134.375 29.730469 132.625 27.832031 C 132.535156 27.730469 130.570312 27.363281 129.992188 27.097656 C 128.488281 26.402344 126.042969 24.234375 125.683594 22.582031 Z M 123.878906 14.195312 "/>
<path fill-rule="nonzero" fill="rgb(97.647095%, 92.941284%, 78.039551%)" fill-opacity="1" d="M 134.726562 31.726562 C 130.59375 33.199219 126.777344 31.105469 124.375 35.777344 C 121.808594 40.769531 127.132812 43.066406 131.429688 40.53125 C 135.105469 38.363281 134.398438 35.382812 134.726562 31.726562 "/>
<path fill-rule="nonzero" fill="rgb(6.666565%, 46.273804%, 23.921204%)" fill-opacity="1" d="M 111.019531 159.441406 C 116.195312 158.105469 121.203125 156.160156 126.335938 154.683594 C 126.234375 153.5 125.402344 152.625 124.753906 151.6875 C 120.011719 144.835938 114.148438 138.292969 109.359375 131.414062 C 104.433594 110.109375 102.1875 88.042969 102.519531 66.203125 C 102.582031 62.113281 102.578125 50.28125 103.621094 46.957031 C 100.367188 48.097656 91.984375 50.675781 89.996094 53.3125 C 88.785156 54.914062 88.824219 60.089844 88.703125 62.304688 C 87.324219 87.335938 90.21875 113.773438 95.96875 138.164062 Z M 111.019531 159.441406 "/>
<path fill-rule="nonzero" fill="rgb(100%, 87.451172%, 32.156372%)" fill-opacity="1" d="M 69.257812 108.230469 C 69.121094 109.753906 69.074219 108.894531 68.753906 109.804688 C 68.339844 110.996094 69.078125 118.503906 71.78125 117.679688 L 71.925781 116.675781 L 85.171875 122.109375 C 82.695312 107.835938 81.1875 92.617188 81.070312 78.140625 L 69.90625 73.835938 C 69.300781 73.335938 69.265625 72.242188 69.546875 71.59375 C 70.101562 71.433594 78.957031 74.972656 80.265625 75.503906 C 80.652344 75.660156 81.042969 75.601562 81.132812 76.175781 C 81.140625 72.203125 81.292969 68.128906 81.472656 64.160156 C 77.886719 63.183594 75.402344 66.691406 72.777344 67.675781 C 71.257812 68.242188 70.089844 68.410156 68.457031 69.105469 C 68.136719 69.242188 67.496094 69.042969 67.425781 69.132812 C 67.398438 69.167969 67.566406 69.667969 67.375 70.011719 C 67.179688 70.367188 66.238281 71.285156 66.144531 71.621094 C 65.640625 73.441406 67.359375 74.476562 67.488281 76.292969 C 67.554688 77.238281 66.835938 78.125 66.746094 79.027344 C 66.304688 83.378906 69.324219 87.710938 69.878906 91.878906 C 70.441406 96.132812 68.957031 101.164062 68.984375 105.351562 C 68.992188 106.480469 69.382812 106.824219 69.257812 108.230469 "/>
<path fill-rule="nonzero" fill="rgb(0%, 52.157593%, 27.842712%)" fill-opacity="1" d="M 111.019531 159.441406 L 95.96875 138.164062 C 90.21875 113.773438 87.324219 87.335938 88.703125 62.304688 C 88.824219 60.089844 88.785156 54.914062 89.996094 53.3125 C 91.984375 50.675781 100.367188 48.097656 103.621094 46.957031 C 103.679688 46.761719 104.410156 46.246094 104.351562 45.828125 C 97.9375 47.128906 92.085938 50.148438 86.140625 52.730469 C 84.457031 65.386719 84.421875 78.546875 85.167969 91.316406 C 85.992188 105.34375 87.84375 121.171875 91.089844 134.847656 C 92.144531 139.28125 94.886719 142.308594 97.636719 145.835938 C 101.386719 150.652344 105.628906 155.195312 109.332031 160.007812 C 109.871094 159.703125 110.429688 159.59375 111.019531 159.441406 "/>
<path fill-rule="nonzero" fill="rgb(98.823547%, 76.863098%, 16.078186%)" fill-opacity="1" d="M 88.84375 165.195312 C 92.929688 164.796875 99.089844 159.644531 102.476562 157.265625 C 98.210938 152.300781 94.5625 146.847656 90.601562 141.65625 C 88.828125 142.9375 86.769531 144.542969 84.644531 145.15625 C 83.953125 145.355469 83.269531 145.128906 82.542969 145.363281 C 81.714844 145.632812 77.078125 147.28125 76.96875 147.828125 C 77.402344 149.695312 78.46875 151.945312 79.683594 153.4375 C 80.589844 154.558594 81.914062 155.226562 82.828125 156.332031 C 84.3125 158.125 85.109375 160.558594 86.5 162.453125 C 87.21875 163.425781 88.34375 164.039062 88.84375 165.195312 "/>
<path fill-rule="nonzero" fill="rgb(100%, 87.451172%, 32.156372%)" fill-opacity="1" d="M 73.503906 142.660156 C 74.324219 142.570312 75.203125 142.925781 76.101562 142.832031 C 81.449219 142.277344 83.292969 138.183594 88.035156 136.488281 C 88.449219 136.011719 87.75 135.222656 87.617188 134.632812 C 87.089844 132.273438 86.546875 129.886719 86.09375 127.515625 C 85.085938 127.792969 83.953125 127.105469 82.996094 126.722656 C 82.191406 126.394531 80.878906 126.066406 80.496094 125.308594 C 77.527344 125.671875 75.875 124.175781 73.453125 122.691406 L 70.933594 126.058594 C 69.722656 130.363281 68.785156 136.484375 71.730469 140.277344 C 72.332031 141.054688 73.804688 141.605469 73.503906 142.660156 "/>
<path fill-rule="nonzero" fill="rgb(6.666565%, 46.273804%, 23.921204%)" fill-opacity="1" d="M 119.679688 179.273438 C 121.550781 178.308594 125.304688 177.027344 126.375 175.269531 C 126.996094 174.246094 127.292969 171.054688 128.351562 174.234375 C 132.851562 170.09375 131.261719 162.128906 130.199219 156.777344 L 121.125 159.945312 C 121.324219 162.226562 121.523438 164.007812 122.894531 165.902344 C 122.171875 166.949219 118.386719 164.421875 117.714844 163.828125 C 115.886719 162.210938 117.105469 161.613281 114.515625 162.101562 C 113.882812 168.550781 117.765625 173.480469 119.679688 179.273438 "/>
<path fill-rule="nonzero" fill="rgb(0%, 52.157593%, 27.842712%)" fill-opacity="1" d="M 114.519531 162.101562 C 114.113281 162.179688 112.832031 162.320312 112.65625 162.644531 C 111.46875 169.6875 116.816406 173.929688 118.613281 179.988281 C 119.203125 180.109375 119.503906 179.363281 119.679688 179.273438 C 117.765625 173.480469 113.882812 168.550781 114.519531 162.101562 "/>
<path fill-rule="nonzero" fill="rgb(0%, 52.157593%, 27.842712%)" fill-opacity="1" d="M 93.273438 167.652344 C 92.914062 167.789062 92.414062 167.738281 92.046875 167.957031 C 89.238281 174.527344 90.28125 181.71875 93.0625 188.175781 L 94.132812 187.65625 C 94.222656 187.496094 94.054688 187.195312 94.027344 186.992188 C 93.476562 183.410156 91.960938 180.171875 91.773438 176.210938 C 91.625 173.085938 92.621094 170.609375 93.273438 167.652344 "/>
<path fill-rule="nonzero" fill="rgb(100%, 100%, 100%)" fill-opacity="1" d="M 63.652344 115.042969 L 63.785156 114.527344 C 63.785156 114.554688 63.65625 114.6875 63.652344 115.042969 "/>
<path fill-rule="nonzero" fill="rgb(6.666565%, 46.273804%, 23.921204%)" fill-opacity="1" d="M 94.027344 186.992188 C 101.085938 182.167969 106.453125 175.574219 108.53125 167.167969 L 102.410156 170.445312 L 103.050781 171.148438 C 98.453125 172.503906 97.75 167.011719 99.1875 163.949219 C 97.125 165.800781 95.882812 166.660156 93.273438 167.652344 C 92.621094 170.609375 91.625 173.085938 91.773438 176.210938 C 91.960938 180.171875 93.476562 183.410156 94.027344 186.992188 "/>
<path fill-rule="nonzero" fill="rgb(100%, 87.451172%, 32.156372%)" fill-opacity="1" d="M 127.347656 95.960938 L 130.40625 94.328125 C 130.898438 101.527344 139.324219 98.804688 135.433594 92.757812 C 139.683594 91.679688 151.550781 91.800781 152.957031 97.183594 C 154.503906 103.109375 144.515625 107.078125 140.109375 107.734375 L 139.136719 103.171875 C 138.09375 104.027344 137.164062 106.71875 136.296875 107.453125 C 134.5 108.972656 126.679688 106.808594 124.726562 105.300781 C 124.386719 107.515625 123.445312 111.433594 121.179688 112.34375 C 117.589844 113.785156 114.109375 111.6875 113.863281 107.820312 C 113.75 106.03125 116.976562 94.625 118.121094 93.320312 C 120.957031 90.085938 127.023438 91.351562 127.347656 95.960938 Z M 144.71875 44.683594 C 138.625 45.707031 131.089844 45.179688 125.441406 46.894531 C 122.867188 47.675781 119.972656 49.433594 117.332031 50.105469 C 114.753906 50.757812 111.625 50.914062 108.890625 51.664062 C 108.082031 51.886719 107.070312 52.316406 106.324219 52.710938 C 106.3125 57.636719 106.320312 62.390625 106.367188 67.046875 C 106.460938 66.761719 105.113281 69.710938 105.476562 69.390625 C 105.667969 86.375 107.492188 101.417969 110.664062 119.300781 L 124.042969 125.925781 C 128.929688 124.285156 134.585938 121.746094 139.382812 120.664062 C 144.867188 119.421875 152.34375 117.992188 157.894531 117.160156 C 158.546875 117.0625 159.96875 116.824219 160.484375 117.34375 C 163.6875 114.304688 167.03125 112.957031 171.464844 112.585938 C 172.433594 112.503906 173.914062 113.152344 174.894531 113.210938 C 176.378906 113.300781 178.046875 112.730469 179.597656 113.226562 C 181.8125 112.34375 183.238281 112.628906 185.523438 112.4375 C 185.058594 110.957031 185.773438 108.628906 185.375 107.257812 C 185.132812 106.429688 183.707031 105.230469 183.128906 104.191406 C 182.804688 103.613281 182.863281 102.890625 182.5 102.367188 C 182.191406 101.921875 174.082031 97.964844 172.878906 97.378906 C 171.898438 96.902344 165.878906 94.511719 165.734375 94.148438 C 165.625 93.875 165.785156 93.667969 166.019531 93.535156 C 167.8125 93.304688 170.519531 90.542969 172.085938 90.511719 C 173.160156 90.488281 180.539062 94.730469 180.859375 94.183594 C 178.65625 87.027344 179.554688 79.550781 178.058594 72.289062 C 177.722656 71.566406 171.910156 69.050781 170.765625 68.816406 C 170.847656 68.90625 160.347656 66.410156 155.949219 65.046875 C 153.859375 64.398438 149.949219 63.101562 149.167969 60.378906 C 148.238281 59.304688 148.832031 55.738281 153.070312 58 L 177.324219 67.855469 C 177.640625 67.886719 177.773438 67.789062 177.921875 67.519531 C 178.574219 66.34375 179.039062 55.117188 178.269531 53.003906 C 177.742188 51.554688 176.421875 50.0625 175.695312 48.601562 C 173.3125 43.8125 174.433594 41.96875 168.1875 41.273438 C 160.195312 40.386719 152.511719 43.371094 144.71875 44.683594 "/>
<path fill-rule="nonzero" fill="rgb(100%, 97.254944%, 87.451172%)" fill-opacity="1" d="M 155.0625 89.691406 C 155.070312 90.332031 155.484375 90.859375 156.066406 91.101562 C 156.554688 91.304688 159.875 91.703125 160.261719 91.433594 C 163.398438 89.25 161.992188 75.808594 161.066406 72.492188 C 159.871094 68.246094 156.523438 59.183594 151.105469 64.671875 C 156.238281 70.425781 157.816406 77.996094 156.351562 85.492188 C 156.152344 86.519531 155.058594 89.058594 155.0625 89.691406 "/>
<path fill-rule="nonzero" fill="rgb(98.823547%, 76.863098%, 16.078186%)" fill-opacity="1" d="M 179.699219 40.386719 C 180.140625 41.292969 182.484375 45 182.582031 45.550781 C 183.148438 48.773438 183.851562 78.492188 184.109375 80.9375 C 184.566406 85.242188 184.808594 94.582031 187.242188 98.90625 C 188.21875 98.558594 189 98.691406 189.175781 99.828125 C 189.339844 103.65625 190.15625 107.410156 190.613281 111.207031 C 190.679688 111.765625 190.25 112.167969 190.535156 112.882812 C 190.699219 113.292969 189.429688 114.132812 188.9375 113.109375 C 188.417969 113.125 168.628906 118.210938 165.78125 118.152344 C 163.816406 118.113281 160.476562 119.070312 158.554688 119.710938 C 153.992188 121.226562 140.898438 122.003906 139.867188 122.289062 C 133.996094 123.902344 119.648438 130.472656 118.96875 130.671875 C 117.546875 131.09375 113.558594 130.066406 112.363281 131.007812 C 116.71875 136.792969 123.457031 144.273438 127.921875 149.96875 L 141.765625 146.1875 L 144.378906 132.527344 C 148.242188 129.96875 152.796875 127.425781 157.570312 127.605469 C 159.21875 127.664062 161.789062 128.175781 161.742188 130.285156 L 159.886719 141.730469 C 159.949219 141.921875 163.363281 141.972656 163.789062 141.875 C 165.785156 141.425781 167.007812 140.78125 169.117188 140.859375 C 170.78125 136.246094 172.691406 134.195312 178.058594 134.386719 C 178.476562 134.402344 178.316406 133.835938 178.714844 133.625 C 180.207031 132.84375 182.285156 129.753906 184.277344 128.785156 C 187.148438 127.386719 191.097656 127.484375 193.503906 129.75 C 195.339844 131.472656 194.710938 133.539062 196.621094 135.644531 C 197.273438 136.675781 201.515625 138.457031 204.304688 134.929688 C 205.324219 133.636719 204.558594 131.710938 206.859375 132.21875 C 206.800781 131.6875 207.609375 130.21875 207.621094 130.105469 C 207.867188 128.03125 208.386719 123.777344 208.035156 121.84375 C 207.351562 118.066406 204.753906 113.101562 205.640625 109.269531 C 205.863281 108.3125 206.972656 107.070312 206.820312 106.3125 C 206.359375 104.054688 203.0625 100.898438 203.828125 97.785156 C 200 97.570312 197.285156 60.703125 197.261719 59.832031 C 197.25 59.371094 196.425781 56.503906 196.191406 56.011719 C 195.347656 54.261719 193.0625 52.808594 192.363281 51.0625 C 191.570312 49.085938 191.589844 44.667969 189.828125 43.496094 C 189.339844 43.171875 186.691406 41.851562 186.121094 41.558594 C 186.289062 42.230469 181.726562 39.835938 179.699219 40.386719 "/>
<path fill-rule="nonzero" fill="rgb(20.783997%, 25.881958%, 17.254639%)" fill-opacity="1" d="M 176.792969 41.125 C 176.753906 41.589844 178.933594 45.957031 179.269531 47.109375 C 180.097656 49.972656 180.710938 58.882812 180.777344 59.570312 C 181.023438 62.050781 180.765625 66.171875 180.9375 68.660156 C 181.351562 74.671875 180.917969 91.898438 184.09375 96.171875 C 185.085938 97.511719 186.664062 97.355469 187.148438 95.734375 C 187.886719 93.273438 183.800781 84.3125 184.109375 80.9375 C 184.855469 72.789062 183.148438 48.773438 182.582031 45.550781 C 182 44.410156 180.699219 40.984375 179.699219 40.386719 C 179.074219 40.011719 176.882812 40.015625 176.792969 41.125 "/>
<path fill-rule="nonzero" fill="rgb(20.783997%, 25.881958%, 17.254639%)" fill-opacity="1" d="M 165.78125 118.152344 C 168.628906 118.210938 170.0625 118.980469 173.40625 118.460938 C 177.902344 117.761719 182.589844 115.960938 187.117188 115.148438 C 188.894531 115.550781 189.0625 116.855469 189.675781 118.125 C 190.171875 119.148438 191.203125 122.414062 191.542969 122.847656 C 191.855469 123.242188 193.144531 123.203125 193.742188 123.480469 C 195.039062 124.085938 195.5625 125.902344 196.441406 127.070312 C 197.796875 128.882812 199.542969 130.53125 200.367188 132.644531 C 202.71875 130.738281 199.734375 125.46875 198.339844 123.507812 C 197.421875 122.222656 196.265625 121.578125 195.441406 120.519531 C 194.628906 119.472656 194.148438 117.308594 193.367188 115.984375 C 192.714844 114.875 190.699219 113.292969 190.535156 112.882812 C 190.25 112.171875 190.679688 111.765625 190.613281 111.207031 C 190.15625 107.410156 189.339844 103.65625 189.175781 99.828125 C 189 98.691406 188.21875 98.5625 187.242188 98.90625 C 187.003906 99.367188 186.207031 99.976562 186.003906 100.410156 C 184.578125 103.433594 187.707031 109.261719 185.523438 112.4375 C 183.238281 112.632812 181.8125 112.34375 179.597656 113.226562 C 177.5625 114.039062 176.144531 115.546875 173.6875 115.695312 C 171.777344 115.8125 170.761719 113.703125 167.847656 114.5625 C 166.363281 115 164.355469 116.558594 165.78125 118.152344 "/>
<path fill-rule="nonzero" fill="rgb(20.783997%, 25.881958%, 17.254639%)" fill-opacity="1" d="M 110.699219 67.371094 C 110.984375 67.878906 114.183594 73.835938 116.132812 74.488281 C 118.085938 75.136719 119.46875 75.476562 121.695312 74.265625 C 122.878906 73.621094 123.535156 72.53125 123.992188 71.332031 C 124.148438 70.917969 124.203125 69.648438 124.460938 69.523438 C 126.039062 70.066406 129.886719 70.988281 131.371094 70.179688 C 132.394531 69.625 133.417969 66.089844 134.375 65.195312 L 135.046875 69.441406 C 139.0625 68.460938 144.882812 65.316406 146.195312 61.1875 C 146.339844 60.730469 146.679688 59.027344 146.625 58.65625 C 146.488281 57.707031 145.050781 55.734375 144.191406 55.28125 C 140.476562 53.320312 133.027344 54.535156 129.1875 55.835938 C 133.59375 61.335938 125.46875 64.742188 124.542969 58.050781 C 122.554688 58.730469 121.246094 60.433594 119.742188 61.765625 C 115.753906 55.449219 106.488281 59.90625 110.699219 67.371094 "/>
<path fill-rule="nonzero" fill="rgb(20.783997%, 25.881958%, 17.254639%)" fill-opacity="1" d="M 124.726562 105.300781 C 126.679688 106.808594 134.5 108.972656 136.296875 107.453125 C 137.164062 106.71875 138.09375 104.027344 139.136719 103.171875 L 140.109375 107.734375 C 144.515625 107.078125 154.503906 103.109375 152.957031 97.183594 C 151.546875 91.800781 139.683594 91.679688 135.4375 92.757812 C 139.324219 98.804688 130.898438 101.527344 130.40625 94.328125 L 127.34375 95.960938 C 127.023438 91.351562 120.957031 90.085938 118.121094 93.320312 C 116.976562 94.625 113.75 106.03125 113.863281 107.820312 C 114.109375 111.6875 117.589844 113.785156 121.179688 112.34375 C 123.441406 111.433594 124.386719 107.515625 124.726562 105.300781 "/>
<path fill-rule="nonzero" fill="rgb(20.783997%, 25.881958%, 17.254639%)" fill-opacity="1" d="M 155.0625 89.691406 C 155.058594 89.058594 156.152344 86.519531 156.351562 85.492188 C 157.816406 77.996094 156.238281 70.425781 151.105469 64.671875 C 156.523438 59.183594 159.871094 68.246094 161.066406 72.492188 C 161.992188 75.808594 163.398438 89.25 160.261719 91.433594 C 159.875 91.703125 156.554688 91.304688 156.066406 91.101562 C 155.484375 90.859375 155.070312 90.332031 155.0625 89.691406 Z M 152.683594 89.042969 C 151.902344 93.46875 158.09375 94.730469 161.21875 93.246094 C 161.84375 92.949219 162.261719 92.441406 162.550781 91.898438 C 165.109375 87.144531 165.304688 82.019531 163.921875 74.816406 C 161.929688 64.4375 159.003906 63.644531 158.335938 63.445312 C 157.589844 63.21875 156.417969 61.726562 154.953125 61.449219 C 153.277344 61.136719 149.972656 62.246094 149.460938 63.898438 C 148.75 66.207031 151.757812 69.101562 152.769531 71.042969 C 155.070312 75.445312 154.828125 77.964844 154.226562 82.613281 C 153.867188 85.378906 153.078125 86.804688 152.683594 89.042969 "/>
<path fill-rule="nonzero" fill="rgb(20.783997%, 25.881958%, 17.254639%)" fill-opacity="1" d="M 190.164062 159.460938 C 189.480469 159.808594 186.945312 160.152344 185.96875 160.363281 C 183.839844 160.820312 180.652344 157.230469 179.511719 157.003906 C 178.5 156.796875 178.574219 157.429688 179.007812 158.097656 C 179.238281 158.453125 181.285156 160.488281 181.671875 160.800781 C 182.84375 161.75 184.582031 162.691406 186.121094 162.773438 C 186.277344 163.140625 186.144531 163.285156 185.855469 163.5 C 181.488281 166.742188 175.851562 158.003906 174.851562 154.585938 C 174.113281 152.054688 174.84375 149.824219 174.347656 147.632812 C 173.855469 145.476562 172.511719 144.4375 172.398438 141.578125 C 172.21875 137.09375 176.980469 137.324219 179.90625 135.589844 C 182.761719 133.898438 184.976562 129.855469 188.824219 130.78125 C 190.832031 131.265625 192.046875 133.261719 192.160156 135.277344 C 192.226562 136.421875 191.0625 136.675781 191.996094 137.828125 C 194.070312 136.703125 195.910156 138 197.523438 139.371094 C 200.011719 141.484375 201.589844 144.617188 201.226562 147.941406 C 198.011719 149.4375 196.757812 152.855469 193.589844 154.652344 C 186.332031 158.769531 183.800781 155.933594 178.46875 151.011719 C 178.785156 153.714844 181.378906 156.457031 183.5 157.972656 C 186.015625 159.765625 187.359375 159.800781 190.414062 158.921875 C 190.453125 159.066406 190.242188 159.421875 190.164062 159.460938 Z M 146.277344 27.339844 C 146.363281 27.035156 148.242188 23.9375 148.296875 23.917969 C 162.035156 23.242188 156.898438 29.734375 151.324219 37.117188 L 141.378906 38.820312 C 144.441406 36.121094 147.492188 34.007812 146.894531 29.429688 C 146.808594 28.765625 146.105469 27.933594 146.277344 27.339844 Z M 165.457031 155.152344 C 165.488281 152.394531 163.398438 147.761719 163.226562 144.785156 L 166.824219 144.5 L 168.164062 152.984375 C 168.328125 153.105469 169.59375 151.964844 169.609375 151.769531 C 169.695312 150.648438 167.84375 145.105469 168.269531 144.429688 L 169.378906 144.421875 C 169.445312 145.761719 171.144531 147.757812 171.292969 148.78125 C 171.328125 149.023438 170.714844 152.648438 170.574219 153.035156 C 169.609375 155.707031 165.246094 159.539062 162.304688 158.480469 C 161.367188 158.144531 160.597656 157.152344 160.558594 156.171875 C 160.488281 154.375 158.457031 147.074219 159.328125 145.683594 C 159.503906 145.398438 161.484375 144.59375 161.832031 145.246094 L 164.003906 156.320312 C 164.722656 156.289062 165.449219 155.953125 165.457031 155.152344 Z M 134.726562 31.726562 C 134.398438 35.382812 135.105469 38.363281 131.429688 40.53125 C 127.132812 43.066406 121.808594 40.769531 124.375 35.777344 C 126.777344 31.105469 130.59375 33.199219 134.726562 31.726562 Z M 123.878906 14.195312 L 125.683594 22.582031 C 126.042969 24.234375 128.488281 26.402344 129.992188 27.097656 C 130.570312 27.363281 132.53125 27.730469 132.625 27.832031 C 134.375 29.730469 128.664062 30.25 127.421875 30.140625 C 122.96875 29.757812 122.042969 25.835938 119.636719 22.789062 C 120.277344 26.058594 122.007812 28.910156 124.128906 31.414062 L 121.511719 34.929688 C 118.894531 36.15625 115.25 34.847656 114.03125 32.238281 C 112.554688 29.082031 112.183594 17.910156 114.609375 15.234375 C 115.117188 14.671875 120.78125 11.019531 121.691406 10.578125 C 123.957031 9.476562 128.703125 8.085938 131.183594 8.167969 C 132.300781 8.203125 134.226562 9.351562 134.902344 9.253906 C 136.683594 8.996094 137.960938 6.363281 140.464844 7.46875 C 144.589844 9.292969 147.265625 20.542969 144.742188 24.449219 C 144.464844 23.886719 141.980469 21.726562 141.515625 22.464844 C 141.742188 25.921875 144.484375 29.0625 143.644531 32.5625 C 143.113281 34.761719 140.632812 36.382812 138.496094 36.765625 C 137.433594 34.023438 139.960938 31.011719 136.242188 29.699219 C 137.105469 29.527344 136.613281 28.6875 136.890625 28.207031 C 137.089844 27.863281 137.992188 27.589844 138.367188 27.152344 C 142.457031 22.355469 141.242188 14.097656 134.726562 12.472656 C 134.800781 15.097656 137.867188 16.40625 138.625 18.390625 C 140.917969 24.378906 132.035156 28.695312 127.800781 22.414062 C 125.851562 19.519531 126.574219 16.445312 124.535156 13.800781 Z M 119.679688 179.273438 C 119.503906 179.363281 119.203125 180.109375 118.613281 179.988281 C 116.816406 173.933594 111.46875 169.6875 112.652344 162.644531 C 112.832031 162.320312 114.113281 162.179688 114.515625 162.101562 C 117.105469 161.613281 115.886719 162.210938 117.714844 163.828125 C 118.386719 164.421875 122.171875 166.949219 122.894531 165.902344 C 121.523438 164.007812 121.324219 162.226562 121.125 159.945312 L 130.199219 156.777344 C 131.261719 162.128906 132.851562 170.09375 128.351562 174.234375 C 127.292969 171.058594 126.996094 174.246094 126.375 175.269531 C 125.304688 177.027344 121.550781 178.308594 119.679688 179.273438 Z M 111.019531 159.445312 C 110.429688 159.597656 109.871094 159.703125 109.332031 160.007812 C 105.628906 155.195312 101.386719 150.652344 97.636719 145.835938 C 94.886719 142.308594 92.144531 139.28125 91.09375 134.851562 C 87.84375 121.171875 85.992188 105.34375 85.167969 91.316406 C 84.421875 78.546875 84.457031 65.386719 86.140625 52.726562 C 92.085938 50.148438 97.9375 47.128906 104.351562 45.828125 C 104.410156 46.246094 103.679688 46.761719 103.621094 46.957031 C 102.578125 50.28125 102.582031 62.113281 102.519531 66.203125 C 102.1875 88.042969 104.433594 110.109375 109.359375 131.414062 C 114.148438 138.292969 120.011719 144.835938 124.753906 151.6875 C 125.402344 152.625 126.234375 153.5 126.335938 154.683594 C 121.203125 156.160156 116.195312 158.105469 111.019531 159.445312 Z M 93.273438 167.652344 C 95.878906 166.660156 97.125 165.800781 99.1875 163.949219 C 97.75 167.011719 98.453125 172.503906 103.050781 171.148438 L 102.410156 170.445312 L 108.53125 167.167969 C 106.453125 175.574219 101.085938 182.167969 94.027344 186.992188 C 94.054688 187.191406 94.21875 187.496094 94.132812 187.65625 L 93.0625 188.175781 C 90.28125 181.71875 89.238281 174.527344 92.046875 167.957031 C 92.414062 167.738281 92.914062 167.789062 93.273438 167.652344 Z M 88.84375 165.195312 C 87.097656 165.363281 85.085938 164.234375 83.9375 163.007812 C 81.851562 160.785156 81.660156 157.804688 79.707031 155.574219 C 78.933594 154.6875 77.929688 154.382812 77.105469 153.390625 C 76.441406 152.59375 76.109375 151.539062 75.550781 150.824219 C 74.386719 149.328125 72.402344 148.222656 72.332031 145.988281 C 72.335938 145.695312 72.484375 145.578125 72.753906 145.507812 C 73.4375 145.328125 75.800781 145.945312 76.988281 145.804688 C 81.871094 145.226562 85.144531 141.992188 89.367188 139.972656 C 89.472656 139.960938 90.382812 141.367188 90.601562 141.65625 C 94.5625 146.847656 98.210938 152.300781 102.472656 157.265625 C 99.089844 159.644531 92.929688 164.796875 88.84375 165.195312 Z M 68.175781 111.140625 C 65.914062 105.410156 65.269531 99.300781 68.222656 93.710938 C 65.507812 89.417969 63.714844 85.140625 64.445312 79.953125 C 64.550781 79.214844 65.167969 78.167969 65.144531 77.777344 C 65.101562 77.15625 65.617188 75.175781 65.613281 74.488281 C 63.894531 68.460938 64.890625 65.433594 71.453125 64.914062 C 71.839844 64.882812 72.535156 65.152344 72.746094 65.078125 C 72.921875 65.011719 72.875 64.464844 73.101562 64.28125 C 74.371094 63.234375 76.207031 64.015625 77.609375 63.171875 C 78.203125 62.609375 75.878906 60.375 75.992188 60.222656 C 78.21875 59.464844 79.765625 61.957031 81.730469 59.714844 C 81.957031 59.90625 81.5 63.566406 81.472656 64.160156 C 81.292969 68.128906 81.140625 72.203125 81.132812 76.175781 C 81.132812 76.855469 81.0625 77.5625 81.070312 78.140625 C 81.1875 92.617188 82.695312 107.835938 85.171875 122.109375 C 85.484375 123.894531 85.757812 125.75 86.09375 127.515625 C 86.546875 129.886719 87.089844 132.273438 87.617188 134.632812 C 87.746094 135.222656 88.449219 136.011719 88.035156 136.492188 C 83.292969 138.183594 81.449219 142.277344 76.101562 142.832031 C 75.203125 142.925781 74.324219 142.570312 73.503906 142.660156 C 72.964844 142.71875 71.226562 143.535156 70.691406 143.523438 C 70.304688 143.273438 69.996094 142.855469 69.6875 142.507812 C 67.1875 139.71875 66.582031 134.328125 67.136719 130.628906 C 67.390625 128.933594 68.976562 125.335938 68.988281 124.203125 C 69 122.785156 67.746094 120.644531 67.460938 119.21875 C 66.871094 116.300781 67.566406 113.914062 68.175781 111.140625 Z M 77.554688 157.195312 C 77.96875 158.183594 77.960938 159.402344 78.296875 160.394531 C 80.042969 165.484375 83.070312 168.207031 88.5625 168.425781 C 84.925781 176.6875 88.875 185.800781 93.015625 193.054688 C 99.847656 186.417969 107.617188 181.066406 110.566406 171.488281 C 112.203125 175.621094 115.148438 177.6875 116.683594 183.121094 C 117.050781 184.433594 117.320312 185.761719 117.457031 187.0625 C 120.664062 183.675781 121.972656 182.363281 125.886719 180.050781 C 128.21875 178.675781 131.394531 176.644531 132.671875 174.117188 C 135.625 168.265625 132.574219 158.945312 131.542969 152.828125 L 133.410156 152.425781 L 138.574219 173.007812 C 139.699219 172.34375 135.46875 154.222656 135.039062 152.074219 L 138.488281 151.089844 C 138.839844 153.449219 142.359375 172.800781 144.132812 172.785156 L 140.074219 150.507812 L 141.882812 149.871094 C 142.132812 155.109375 143.128906 160.179688 145.257812 164.988281 C 151.023438 178.003906 162.847656 177.875 174.28125 171.476562 C 176.023438 170.503906 179.191406 167.695312 180.378906 167.1875 C 181.726562 166.609375 183.378906 166.925781 184.816406 166.4375 C 185.996094 166.039062 187.894531 164.613281 189.21875 164.066406 C 192.96875 162.511719 193.164062 159.09375 196.609375 156.351562 C 197.144531 155.925781 200.15625 153.128906 201.019531 152.355469 C 201.617188 151.820312 202.636719 150 203.265625 148.445312 L 204.140625 158.144531 C 204.179688 158.320312 204.796875 158.5 205.011719 158.304688 C 205.628906 157.949219 204.84375 148.578125 204.742188 147.507812 C 204.644531 146.449219 204.699219 145.15625 204.523438 143.960938 C 204.285156 142.320312 203.863281 140.441406 203.179688 138.921875 C 204.351562 138 208.050781 135.484375 207.6875 133.894531 C 207.5625 133.363281 206.90625 132.667969 206.859375 132.21875 C 204.558594 131.710938 205.03125 133.152344 204.15625 134.390625 C 202.460938 136.796875 197.90625 137.058594 196.621094 135.644531 C 194.710938 133.539062 195.339844 131.472656 193.503906 129.75 C 191.097656 127.484375 187.144531 127.386719 184.277344 128.785156 C 182.285156 129.753906 179.132812 133.640625 178.714844 133.625 C 173.347656 133.433594 170.714844 135.503906 169.050781 140.117188 C 169.023438 140.191406 169.179688 140.414062 169.132812 140.566406 C 168.402344 140.632812 159.894531 141.753906 159.886719 141.730469 L 161.742188 130.285156 C 161.789062 128.175781 159.21875 127.664062 157.570312 127.605469 C 152.796875 127.425781 148.242188 129.96875 144.378906 132.527344 L 141.765625 146.1875 L 127.921875 149.96875 C 123.457031 144.273438 119.324219 138.292969 114.972656 132.507812 C 114.878906 132.382812 113.195312 130.851562 113.355469 130.667969 L 118.96875 130.671875 C 119.648438 130.472656 120.382812 130.414062 121.066406 130.222656 C 122.371094 129.472656 123.882812 128.851562 125.292969 128.335938 C 130.851562 126.308594 137.125 124.078125 142.890625 122.839844 C 144.382812 122.519531 145.679688 122.398438 147.132812 122.167969 C 151.902344 121.414062 153.992188 121.226562 158.554688 119.710938 C 159.066406 118.976562 159.851562 117.941406 160.484375 117.34375 C 159.96875 116.824219 158.546875 117.0625 157.894531 117.160156 C 152.34375 117.992188 144.867188 119.421875 139.382812 120.664062 C 134.585938 121.746094 128.929688 124.285156 124.042969 125.925781 C 122.378906 126.480469 120.691406 127.609375 119.003906 128.003906 C 116.867188 128.5 114.542969 127.503906 112.386719 128.433594 C 111.574219 125.433594 111.203125 122.34375 110.664062 119.296875 C 106.507812 95.871094 106.277344 76.207031 106.324219 52.710938 C 106.324219 52.359375 106.144531 51.09375 106.335938 50.988281 C 110.035156 49.496094 114.304688 49.652344 117.984375 48.503906 C 120.039062 47.863281 121.894531 46.539062 124.023438 45.980469 C 131.847656 43.925781 141.460938 41.871094 149.46875 40.742188 C 153.867188 40.121094 158.460938 40.109375 162.820312 39.335938 C 167.675781 38.46875 173.582031 34.507812 178.296875 36.1875 C 179.046875 36.457031 179.863281 37.242188 180.628906 37.644531 C 181.816406 38.269531 182.886719 37.503906 182.445312 36.183594 C 182.1875 35.40625 181.492188 34.527344 180.722656 33.84375 C 178.070312 31.484375 174.875 32.585938 171.761719 33.253906 L 171.351562 33.355469 C 174.757812 26.683594 174.753906 15.96875 168.925781 10.609375 C 163.066406 5.222656 151.007812 6.25 144.058594 7.492188 C 142.277344 5.523438 139.203125 3.667969 136.683594 5.515625 C 136.304688 5.792969 135.957031 6.09375 135.679688 6.148438 C 135.234375 6.246094 133.0625 5.285156 131.824219 5.3125 C 129.863281 5.359375 123.945312 6.585938 122.460938 7.664062 C 121.582031 8.304688 120.496094 10.195312 119.742188 10.53125 C 117.453125 11.554688 115.429688 10.121094 112.394531 12.601562 C 108.304688 15.945312 108.933594 28.257812 112.128906 34.242188 C 114.675781 39.015625 118.566406 37.527344 120.011719 39.152344 C 120.117188 39.269531 120.164062 39.449219 120.195312 39.667969 C 120.402344 41.082031 120.925781 42.445312 122.3125 43.171875 C 118.722656 45.003906 112.660156 47.117188 108.53125 47.335938 C 107.347656 42.902344 106.429688 41.640625 100.957031 43.132812 C 97.449219 44.089844 87.449219 47.902344 84.597656 49.832031 C 82.628906 51.164062 82.789062 54.550781 82.03125 56.597656 C 79.996094 57.457031 77.964844 58.328125 75.988281 59.316406 C 73.644531 60.484375 73.277344 61.429688 70.496094 61.890625 C 69.503906 62.054688 68.621094 61.984375 67.523438 62.28125 C 60.34375 64.210938 59.558594 69.453125 63.144531 75.398438 C 59.808594 77.296875 59.480469 82.429688 60.277344 85.785156 C 61.015625 88.890625 62.378906 91.855469 64.929688 93.890625 C 63.402344 96.644531 62.015625 101.792969 62.683594 104.890625 L 63.488281 108.617188 C 64.117188 111.542969 63.933594 111.589844 63.785156 114.527344 C 63.945312 118.417969 65.027344 120.621094 65.671875 123.898438 C 65.742188 124.929688 64.121094 128.335938 63.890625 129.9375 C 63.148438 135.058594 62.8125 143.679688 68.976562 145.199219 C 69.664062 145.371094 69.675781 146.042969 69.667969 146.765625 C 69.628906 151.335938 73.09375 156.03125 77.554688 157.195312 "/>
<path fill-rule="nonzero" fill="rgb(97.647095%, 92.941284%, 78.039551%)" fill-opacity="1" d="M 190.164062 159.460938 C 190.242188 159.421875 190.453125 159.066406 190.414062 158.921875 C 187.359375 159.800781 186.015625 159.765625 183.5 157.972656 C 181.378906 156.457031 178.785156 153.714844 178.46875 151.011719 C 183.800781 155.933594 186.332031 158.769531 193.589844 154.652344 C 196.757812 152.855469 198.011719 149.4375 201.226562 147.941406 C 201.589844 144.617188 200.011719 141.484375 197.523438 139.371094 C 195.910156 138 194.070312 136.703125 191.996094 137.828125 C 191.0625 136.675781 192.226562 136.421875 192.160156 135.277344 C 192.046875 133.261719 190.832031 131.265625 188.824219 130.78125 C 184.976562 129.855469 182.761719 133.898438 179.90625 135.589844 C 176.980469 137.324219 172.21875 137.09375 172.398438 141.578125 C 172.511719 144.4375 173.855469 145.476562 174.347656 147.632812 C 174.84375 149.824219 174.113281 152.054688 174.851562 154.585938 C 175.851562 158.003906 181.488281 166.742188 185.855469 163.5 C 186.144531 163.285156 186.277344 163.140625 186.121094 162.773438 C 184.582031 162.691406 182.84375 161.75 181.671875 160.800781 C 181.285156 160.488281 179.238281 158.453125 179.007812 158.097656 C 178.574219 157.429688 178.5 156.796875 179.511719 157.003906 C 180.652344 157.230469 183.839844 160.820312 185.96875 160.363281 C 186.945312 160.152344 189.480469 159.808594 190.164062 159.460938 "/>
<path fill-rule="nonzero" fill="rgb(20.783997%, 25.881958%, 17.254639%)" fill-opacity="1" d="M 195.179688 49.1875 C 194.503906 47.621094 194.4375 45.820312 193.65625 44.09375 C 192.609375 41.785156 186.15625 35.011719 184.007812 38.894531 C 183.054688 40.617188 186.339844 42.121094 187.589844 42.765625 C 188.160156 43.058594 189.339844 43.171875 189.828125 43.496094 C 191.589844 44.667969 191.570312 49.085938 192.363281 51.0625 C 193.0625 52.808594 195.347656 54.261719 196.191406 56.011719 C 196.425781 56.503906 197.25 59.371094 197.261719 59.832031 C 197.285156 60.699219 194.625 69.480469 195.085938 70.652344 C 200.199219 83.695312 200 97.570312 203.828125 97.785156 C 203.0625 100.894531 206.359375 104.054688 206.820312 106.3125 C 206.972656 107.070312 205.863281 108.3125 205.640625 109.269531 C 204.753906 113.101562 207.351562 118.066406 208.035156 121.84375 C 208.386719 123.777344 207.867188 128.03125 207.621094 130.105469 C 211.597656 131.425781 211.777344 129.921875 211.917969 126.359375 C 212.109375 121.519531 209.699219 118.582031 209.355469 114.273438 C 209.195312 112.25 210.222656 109.328125 210.03125 107.289062 C 209.625 103.015625 205.445312 98.675781 208.472656 94.648438 C 208.472656 94.648438 196.179688 51.496094 195.179688 49.1875 "/>
<path fill-rule="nonzero" fill="rgb(20.783997%, 25.881958%, 17.254639%)" fill-opacity="1" d="M 260.121094 108.210938 L 262.1875 100.089844 C 262.03125 99.84375 261.644531 99.566406 261.363281 99.675781 C 260.792969 99.890625 258.726562 109.144531 258.417969 110.425781 C 257.84375 111.039062 257.078125 110.167969 257.035156 109.542969 L 259.566406 98.828125 C 260.109375 98.445312 260.097656 99.21875 260.253906 99.183594 C 260.621094 99.097656 260.804688 98.636719 261.28125 98.527344 C 261.878906 98.386719 262.816406 98.867188 263.054688 98.777344 C 263.238281 98.707031 263.558594 98.027344 263.96875 97.753906 C 265.667969 96.632812 269.265625 97.628906 271.128906 98.167969 C 268.730469 98.648438 266.195312 97.15625 264.285156 99.164062 C 263.332031 100.164062 262.550781 106.3125 261.695312 107.523438 C 261.277344 108.113281 260.753906 108.089844 260.121094 108.210938 Z M 256.75 114.058594 C 256.519531 112.738281 257.921875 112.953125 257.648438 111.535156 C 259.296875 110.027344 258.21875 113.597656 258.101562 113.730469 C 257.90625 113.949219 257.089844 113.921875 256.75 114.058594 Z M 254.683594 110.117188 C 254.359375 110 254.09375 108.503906 254.105469 108.042969 C 254.167969 105.605469 256.777344 101.484375 256.644531 98.75 L 258.765625 98.515625 C 258.949219 99.15625 258.265625 99.261719 257.984375 99.914062 C 257.53125 100.957031 257.054688 102.757812 256.714844 103.910156 C 256.40625 104.964844 255.6875 109.28125 255.4375 109.703125 C 255.273438 109.980469 254.929688 110.207031 254.683594 110.117188 Z M 254.367188 114.328125 C 254.15625 113.847656 254.445312 110.363281 255.347656 110.953125 C 255.550781 111.085938 254.960938 114.277344 254.367188 114.328125 Z M 255.867188 98.652344 L 252.011719 108.492188 C 251.117188 107.9375 251.34375 106.632812 251.5 105.761719 C 251.597656 105.222656 253.429688 100.273438 253.707031 99.761719 C 254.3125 98.652344 254.617188 98.613281 255.867188 98.652344 Z M 251.550781 113.421875 C 251.441406 112.703125 251.398438 110.65625 252.710938 111.148438 C 253.234375 111.34375 251.953125 116.035156 251.550781 113.421875 Z M 248.207031 113.871094 C 248.414062 113.351562 248.6875 111.015625 249.382812 111.015625 C 251.453125 111.023438 248.582031 115.921875 248.207031 113.871094 Z M 248.898438 108.195312 C 248.621094 108.613281 244.769531 106.21875 244.492188 105.65625 C 244.375 104.941406 246.875 98.550781 247.476562 98.136719 C 248.175781 97.65625 251.730469 98.09375 251.773438 98.910156 C 251.851562 100.296875 249.476562 98.984375 248.523438 99.625 C 247.644531 100.21875 246.34375 105.160156 246.820312 106.269531 C 247.210938 107.175781 248.570312 107.273438 248.898438 108.195312 Z M 242.300781 102.542969 C 240.492188 102.394531 235.769531 103.660156 234.699219 101.761719 C 234.34375 101.128906 234.023438 100.003906 234.78125 99.578125 C 236.1875 98.789062 241.28125 99.914062 243.113281 99.449219 Z M 247.089844 112.238281 C 244.332031 112.84375 242.507812 114.292969 241.371094 116.824219 C 238.195312 115.476562 234.550781 118.085938 233.011719 113.6875 C 232.75 112.941406 231.675781 108.007812 232.316406 107.625 L 236.421875 111.539062 C 236.574219 112.210938 235.230469 112.722656 234.703125 112.472656 L 236.300781 114.207031 C 237.5 114.40625 237.386719 112.992188 237.082031 112.203125 C 237.902344 112.539062 237.984375 113.375 239.078125 113.003906 C 240.28125 112.589844 237.253906 110.753906 236.804688 110.300781 C 236.53125 110.019531 236.511719 109.410156 236.0625 108.96875 C 235.378906 108.296875 232.335938 106.375 232.144531 106.023438 C 231.503906 104.859375 231.964844 103.160156 231.695312 101.90625 C 232.648438 102.054688 233.125 103.042969 234.125 103.574219 C 236.195312 104.667969 239.25 104.980469 241.535156 104.53125 C 242.109375 104.707031 241.257812 106.476562 241.355469 107.011719 C 241.503906 107.800781 243.058594 109.359375 243.757812 109.789062 C 245.195312 110.667969 246.753906 110.121094 247.089844 112.238281 Z M 264.207031 119.277344 C 258.652344 120.636719 252.273438 118.980469 246.585938 119.695312 C 241.386719 120.347656 234.144531 124.035156 232.609375 116.335938 C 234.628906 118.777344 238.796875 118.667969 241.753906 118.484375 C 242.808594 118.417969 243.898438 117.941406 244.972656 117.847656 C 246.203125 117.742188 249.675781 117.996094 250.519531 117.601562 C 250.75 117.492188 250.480469 117.03125 250.6875 117.074219 C 250.917969 117.121094 251.015625 117.597656 251.671875 117.722656 C 259.011719 119.121094 268.3125 115.609375 273.746094 110.683594 C 275.007812 109.539062 275.929688 108.125 277.171875 106.980469 C 277.84375 107.464844 275.789062 110.945312 275.351562 111.523438 C 272.574219 115.167969 267.015625 116.015625 264.207031 119.277344 Z M 192.574219 49.273438 C 191.988281 50.609375 191.90625 53.507812 191.957031 54.996094 C 191.996094 56.019531 192.125 57.574219 192.246094 58.589844 C 192.695312 62.40625 193.824219 67.027344 195.085938 70.65625 C 195.4375 71.660156 227.410156 86.011719 227.410156 86.011719 C 230.769531 87.546875 233.8125 92.296875 233.820312 95.957031 C 233.824219 97.28125 230.695312 98.109375 230.210938 100.449219 C 229.582031 103.457031 230.128906 109.816406 230.410156 113.03125 C 230.449219 113.476562 230.910156 113.894531 230.914062 114.335938 C 230.914062 114.703125 230.167969 116.15625 230.191406 117.085938 C 230.28125 120.871094 233.101562 123.246094 236.503906 124.195312 C 237.738281 129.316406 238.890625 134.53125 240.753906 139.441406 L 238.292969 124.617188 L 241.523438 125.050781 L 245.785156 141.285156 C 246.71875 140.871094 245.277344 134.535156 245.097656 133.519531 C 244.582031 130.648438 243.902344 127.59375 242.972656 124.828125 L 246.414062 124.9375 L 252.0625 145.539062 L 248.117188 124.941406 L 250.859375 125.191406 L 256.84375 146.214844 L 252.84375 125.382812 L 255.964844 125.210938 L 262.359375 149.171875 L 257.890625 125.027344 L 260.8125 124.632812 C 261.445312 124.671875 262.125 130.105469 262.34375 131.027344 C 263.367188 135.34375 264.746094 139.597656 265.628906 143.953125 L 266.679688 146.046875 C 267.339844 142.855469 264.296875 129.332031 263.453125 125.890625 C 263.289062 125.210938 262.9375 124.648438 262.785156 123.976562 L 265.898438 122.574219 C 267.308594 129.871094 268.753906 137.390625 271.429688 144.292969 C 272.707031 143.582031 267.15625 122.617188 267.730469 121.75 C 267.808594 121.625 270.1875 120.324219 270.308594 120.40625 L 275.191406 140.800781 C 275.851562 140.769531 275.71875 139.121094 275.429688 137.449219 C 274.390625 131.5 272.71875 125.582031 271.621094 119.644531 L 274.433594 118.054688 L 277.765625 131.230469 C 279.085938 130.683594 276.539062 120.488281 276.332031 118.972656 C 275.929688 116.027344 276.636719 115.789062 278.34375 113.554688 L 280.511719 122.476562 L 281.050781 122.722656 C 281.085938 119.777344 280.148438 116.710938 279.90625 113.859375 C 279.746094 111.933594 280.328125 110.007812 280.164062 108.410156 C 279.359375 100.570312 277.773438 96.605469 269.222656 95.523438 C 265.582031 95.0625 265.75 95.574219 262.585938 96.464844 C 261.128906 96.875 254.863281 97.082031 253.292969 96.890625 C 252.359375 96.777344 251.222656 95.964844 250.203125 95.929688 C 249.230469 90.765625 248.640625 85.789062 246.292969 81.011719 C 243.765625 75.855469 239.445312 72.167969 234.371094 69.648438 L 229.164062 67.480469 C 229.164062 67.480469 193.078125 48.117188 192.574219 49.273438 "/>
<path fill-rule="nonzero" fill="rgb(97.254944%, 92.549133%, 76.078796%)" fill-opacity="1" d="M 239.429688 110.410156 C 239.554688 108.875 241.695312 108.941406 242.242188 110.296875 C 243.175781 112.617188 239.199219 113.324219 239.429688 110.410156 Z M 247.089844 112.238281 C 246.753906 110.121094 245.195312 110.667969 243.757812 109.789062 C 243.058594 109.359375 241.503906 107.800781 241.355469 107.011719 C 241.257812 106.476562 242.109375 104.707031 241.535156 104.53125 C 239.25 104.980469 236.195312 104.667969 234.125 103.574219 C 233.125 103.042969 232.648438 102.054688 231.695312 101.90625 C 231.964844 103.160156 231.503906 104.859375 232.144531 106.023438 C 232.335938 106.375 235.378906 108.296875 236.0625 108.96875 C 236.511719 109.410156 236.53125 110.019531 236.804688 110.300781 C 237.253906 110.753906 240.28125 112.589844 239.078125 113.003906 C 237.984375 113.375 237.902344 112.539062 237.082031 112.203125 C 237.386719 112.992188 237.5 114.40625 236.300781 114.207031 L 234.703125 112.472656 C 235.230469 112.722656 236.574219 112.210938 236.421875 111.539062 L 232.316406 107.625 C 231.675781 108.007812 232.75 112.941406 233.011719 113.6875 C 234.550781 118.085938 238.195312 115.476562 241.371094 116.824219 C 242.507812 114.292969 244.332031 112.84375 247.089844 112.238281 "/>
<path fill-rule="nonzero" fill="rgb(97.254944%, 92.549133%, 76.078796%)" fill-opacity="1" d="M 264.207031 119.277344 C 267.015625 116.015625 272.574219 115.167969 275.351562 111.523438 C 275.789062 110.945312 277.84375 107.464844 277.171875 106.980469 C 275.929688 108.125 275.007812 109.539062 273.746094 110.683594 C 268.3125 115.613281 259.011719 119.121094 251.671875 117.722656 C 251.015625 117.597656 250.917969 117.121094 250.6875 117.074219 C 250.480469 117.03125 250.75 117.492188 250.519531 117.601562 C 249.675781 117.996094 246.203125 117.742188 244.972656 117.847656 C 243.898438 117.941406 242.808594 118.417969 241.753906 118.484375 C 238.796875 118.667969 234.628906 118.777344 232.609375 116.335938 C 234.144531 124.035156 241.386719 120.347656 246.585938 119.695312 C 252.273438 118.980469 258.652344 120.636719 264.207031 119.277344 "/>
<path fill-rule="nonzero" fill="rgb(97.254944%, 92.549133%, 76.078796%)" fill-opacity="1" d="M 260.121094 108.210938 C 260.753906 108.089844 261.277344 108.113281 261.695312 107.523438 C 262.550781 106.3125 263.332031 100.164062 264.285156 99.164062 C 266.195312 97.15625 268.730469 98.648438 271.128906 98.167969 C 269.265625 97.628906 265.667969 96.632812 263.96875 97.753906 C 263.558594 98.027344 263.238281 98.707031 263.054688 98.777344 C 262.816406 98.867188 261.878906 98.386719 261.28125 98.527344 C 260.804688 98.636719 260.621094 99.097656 260.253906 99.183594 C 260.097656 99.21875 260.109375 98.445312 259.566406 98.828125 L 257.035156 109.542969 C 257.078125 110.167969 257.84375 111.039062 258.417969 110.425781 C 258.726562 109.144531 260.792969 99.890625 261.363281 99.675781 C 261.644531 99.566406 262.03125 99.84375 262.1875 100.089844 Z M 260.121094 108.210938 "/>
<path fill-rule="nonzero" fill="rgb(97.254944%, 92.549133%, 76.078796%)" fill-opacity="1" d="M 242.300781 102.542969 L 243.113281 99.449219 C 241.28125 99.914062 236.1875 98.789062 234.78125 99.578125 C 234.023438 100.003906 234.34375 101.128906 234.699219 101.761719 C 235.769531 103.660156 240.492188 102.394531 242.300781 102.542969 "/>
<path fill-rule="nonzero" fill="rgb(97.647095%, 92.941284%, 78.039551%)" fill-opacity="1" d="M 248.898438 108.195312 C 248.570312 107.273438 247.210938 107.175781 246.820312 106.269531 C 246.34375 105.160156 247.644531 100.21875 248.523438 99.625 C 249.476562 98.984375 251.851562 100.296875 251.773438 98.910156 C 251.730469 98.09375 248.175781 97.65625 247.476562 98.136719 C 246.875 98.550781 244.375 104.941406 244.492188 105.65625 C 244.765625 106.21875 248.621094 108.613281 248.898438 108.195312 "/>
<path fill-rule="nonzero" fill="rgb(97.647095%, 92.941284%, 78.039551%)" fill-opacity="1" d="M 254.683594 110.117188 C 254.929688 110.207031 255.273438 109.980469 255.4375 109.703125 C 255.6875 109.28125 256.40625 104.964844 256.714844 103.910156 C 257.054688 102.757812 257.53125 100.957031 257.984375 99.914062 C 258.265625 99.261719 258.949219 99.15625 258.765625 98.515625 L 256.644531 98.75 C 256.777344 101.484375 254.167969 105.601562 254.105469 108.042969 C 254.09375 108.503906 254.363281 110 254.683594 110.117188 "/>
<path fill-rule="nonzero" fill="rgb(97.254944%, 92.549133%, 76.078796%)" fill-opacity="1" d="M 255.867188 98.652344 C 254.617188 98.613281 254.3125 98.652344 253.707031 99.761719 C 253.429688 100.273438 251.597656 105.222656 251.5 105.761719 C 251.34375 106.632812 251.117188 107.9375 252.011719 108.492188 Z M 255.867188 98.652344 "/>
<path fill-rule="nonzero" fill="rgb(97.254944%, 92.549133%, 76.078796%)" fill-opacity="1" d="M 248.207031 113.871094 C 248.582031 115.921875 251.453125 111.023438 249.378906 111.015625 C 248.683594 111.015625 248.414062 113.351562 248.207031 113.871094 "/>
<path fill-rule="nonzero" fill="rgb(97.254944%, 92.549133%, 76.078796%)" fill-opacity="1" d="M 251.550781 113.421875 C 251.953125 116.035156 253.234375 111.34375 252.710938 111.148438 C 251.394531 110.65625 251.441406 112.703125 251.550781 113.421875 "/>
<path fill-rule="nonzero" fill="rgb(97.254944%, 92.549133%, 76.078796%)" fill-opacity="1" d="M 256.75 114.058594 C 257.089844 113.917969 257.90625 113.949219 258.101562 113.730469 C 258.21875 113.597656 259.296875 110.027344 257.648438 111.535156 C 257.921875 112.953125 256.519531 112.738281 256.75 114.058594 "/>
<path fill-rule="nonzero" fill="rgb(97.254944%, 92.549133%, 76.078796%)" fill-opacity="1" d="M 254.367188 114.328125 C 254.960938 114.277344 255.550781 111.085938 255.34375 110.953125 C 254.445312 110.363281 254.15625 113.847656 254.367188 114.328125 "/>
<path fill-rule="nonzero" fill="rgb(20.783997%, 25.881958%, 17.254639%)" fill-opacity="1" d="M 239.429688 110.410156 C 239.199219 113.324219 243.175781 112.617188 242.242188 110.296875 C 241.695312 108.941406 239.554688 108.875 239.429688 110.410156 "/>
<path fill-rule="nonzero" fill="rgb(97.254944%, 92.549133%, 76.078796%)" fill-opacity="1" d="M 214.03125 60.054688 C 214.066406 59.472656 213.976562 59.460938 211.984375 58.421875 C 201.953125 68.988281 198.097656 74.207031 197.800781 79.089844 L 197.964844 82.035156 C 199.082031 80.074219 214.03125 60.054688 214.03125 60.054688 "/>
<path fill-rule="nonzero" fill="rgb(97.254944%, 92.549133%, 76.078796%)" fill-opacity="1" d="M 213.933594 80.054688 L 218.628906 82.035156 L 219.421875 80.363281 C 219.605469 79.980469 220.472656 78.835938 221.128906 77.859375 C 223.222656 74.730469 231.316406 68.378906 231.316406 68.378906 L 227.359375 66.5625 Z M 213.933594 80.054688 "/>
<path fill-rule="nonzero" fill="rgb(97.254944%, 92.549133%, 76.078796%)" fill-opacity="1" d="M 235.308594 15.394531 C 234.480469 13.929688 233.851562 13.585938 233.855469 11.546875 C 233.863281 8.777344 236.871094 9.054688 235.917969 6.234375 C 232.355469 6.714844 229.3125 7.125 229.835938 11.363281 C 231.316406 23.332031 249.96875 31.546875 256.996094 40.375 C 259.585938 43.632812 261.964844 49.144531 264.964844 51.644531 C 266.113281 52.597656 267.480469 53.765625 268.609375 52.214844 C 266.851562 50.484375 264.070312 47.992188 263.484375 45.496094 C 263.460938 45.394531 263.382812 44.050781 263.359375 43.722656 C 262.515625 43.207031 262.207031 42.109375 261.644531 41.410156 C 261.359375 41.0625 260.730469 40.398438 260.359375 39.980469 C 259.875 39.433594 259.292969 38.917969 258.792969 38.367188 C 258.304688 37.832031 257.734375 37.289062 257.226562 36.753906 C 256.808594 36.316406 256.488281 35.773438 256.226562 35.507812 C 255.835938 35.113281 255.394531 34.707031 254.992188 34.3125 C 254.597656 33.925781 254.160156 33.492188 253.757812 33.113281 C 253.359375 32.738281 252.867188 32.222656 252.523438 31.917969 C 252.042969 31.488281 251.363281 31.078125 250.777344 30.585938 C 250.261719 30.15625 249.875 29.667969 249.542969 29.390625 C 249.292969 29.1875 248.824219 29.003906 248.410156 28.660156 C 247.773438 28.128906 246.90625 27.632812 246.09375 26.964844 C 245.796875 26.722656 245.621094 26.488281 245.476562 26.367188 C 245.019531 25.992188 244.542969 25.671875 244.011719 25.21875 C 243.6875 24.945312 243.425781 24.722656 243.109375 24.4375 C 242.242188 23.660156 241.5625 23.160156 240.695312 22.277344 C 240.4375 22.019531 240.085938 21.8125 239.792969 21.496094 C 239.191406 20.84375 238.679688 20.105469 238.125 19.417969 C 237.894531 19.128906 237.6875 18.890625 237.460938 18.585938 C 236.769531 17.671875 236.503906 17.070312 235.976562 16.226562 C 235.851562 16.027344 235.5625 15.839844 235.308594 15.394531 "/>
<path fill-rule="nonzero" fill="rgb(97.254944%, 92.549133%, 76.078796%)" fill-opacity="1" d="M 225.597656 13.039062 C 226.460938 22.613281 242.535156 31.605469 248.835938 38.09375 C 252.238281 41.601562 260.847656 54.914062 264.4375 55.566406 C 265.242188 55.710938 266.476562 55.855469 266.589844 54.726562 C 260.921875 51.25 258.304688 44.726562 253.867188 39.9375 C 247.246094 32.785156 229.609375 22.8125 228.359375 12.410156 C 228.234375 11.398438 229.121094 8.265625 227.613281 8.527344 C 226.175781 9.289062 225.457031 11.503906 225.597656 13.039062 "/>
<path fill-rule="nonzero" fill="rgb(97.254944%, 92.549133%, 76.078796%)" fill-opacity="1" d="M 243.523438 55.792969 C 242.335938 56.515625 239.941406 55.4375 240.554688 53.980469 C 240.824219 53.34375 244.300781 52.816406 243.96875 54.480469 L 242.757812 54.5 Z M 250.460938 55.160156 C 250.460938 55.019531 250.617188 54.910156 250.613281 54.757812 L 254.476562 53.433594 L 253.96875 52.359375 C 253.230469 52.015625 248.617188 54.355469 247.710938 52.582031 C 247.722656 51.613281 253.066406 51.980469 251.992188 49.828125 C 249.914062 50.242188 248.277344 51.859375 246.050781 51.722656 L 245.804688 51.152344 L 246.714844 50.234375 C 245.417969 50.566406 243.429688 51.109375 242.6875 49.636719 L 245.597656 49.007812 C 244.875 48.84375 243.875 47.824219 243.234375 47.699219 C 242.6875 47.59375 242.136719 47.84375 241.589844 47.757812 C 241.109375 47.683594 238.664062 46.894531 238.875 47.605469 C 239.363281 48.207031 239.472656 48.972656 238.550781 49.074219 L 235.589844 47.265625 C 235.46875 49.222656 237.582031 48.4375 237.503906 50.507812 L 235.855469 49.644531 L 236.585938 53.023438 C 236.761719 53.851562 240.773438 56.914062 241.765625 57.113281 C 243.457031 57.449219 246.425781 55.902344 247.816406 57.070312 C 248.265625 57.445312 248.441406 58.277344 249.097656 58.515625 C 249.359375 58.613281 251.566406 58.261719 252.550781 58.4375 C 253.972656 58.6875 254.96875 59.832031 255.574219 59.972656 C 256.578125 60.203125 259.773438 60.195312 260.359375 59.234375 L 258.335938 57.554688 C 256.945312 56.058594 256.839844 55.550781 257.191406 53.582031 C 256.136719 53.789062 256.453125 54.816406 255.480469 55.183594 C 253.984375 55.75 252.203125 55.539062 250.714844 55.21875 C 250.714844 55.429688 250.820312 55.519531 250.835938 55.746094 C 250.535156 56.148438 248.777344 55.859375 248.449219 54.910156 C 250.273438 54.785156 248.722656 54.789062 250.460938 55.160156 "/>
<path fill-rule="nonzero" fill="rgb(97.254944%, 92.549133%, 76.078796%)" fill-opacity="1" d="M 233.777344 51.3125 C 231.570312 52.128906 229.269531 50.46875 228.199219 48.613281 C 225.683594 52.480469 228.484375 57.300781 231.046875 60.351562 C 231.921875 61.386719 235.835938 65.300781 237.066406 64.988281 C 237.761719 64.847656 238.761719 63.128906 238.640625 62.570312 C 238.566406 62.226562 234.621094 59.300781 234.011719 57.304688 C 233.933594 57.039062 233.648438 57.039062 234.066406 56.621094 C 236.9375 57.34375 238.324219 63 241.683594 59.71875 C 238.640625 57.367188 234.667969 55.457031 233.777344 51.3125 "/>
<path fill-rule="nonzero" fill="rgb(97.254944%, 92.549133%, 76.078796%)" fill-opacity="1" d="M 230.503906 38.367188 C 231.089844 38.558594 235.050781 40.886719 233.746094 41.566406 C 233.015625 41.949219 230.441406 39.328125 230.503906 38.367188 Z M 233.1875 42.90625 C 233.105469 42.804688 232.765625 41.878906 233.328125 41.910156 C 234.898438 42 236.894531 43.085938 238.4375 42.386719 C 237.707031 41.742188 236.683594 41.574219 235.933594 40.984375 C 235.570312 40.695312 234.578125 39.605469 233.964844 39.0625 C 232.726562 37.96875 230.300781 35.042969 229.160156 34.386719 C 228.78125 34.167969 228.601562 34.058594 228.152344 34.242188 C 228.070312 34.359375 229.398438 36.070312 229.519531 36.605469 C 229.601562 36.984375 229.257812 37.320312 229.4375 37.953125 C 229.667969 38.746094 230.617188 39.382812 231.03125 40.1875 C 231.226562 40.5625 231.003906 41.0625 231.203125 41.449219 C 231.359375 41.761719 232.746094 42.5 233.1875 42.90625 "/>
<path fill-rule="nonzero" fill="rgb(97.254944%, 92.549133%, 76.078796%)" fill-opacity="1" d="M 227.179688 32.011719 C 223.871094 27.359375 221 21.886719 223.648438 16.191406 C 224.089844 15.238281 225.554688 14.699219 224.269531 13.390625 C 219.859375 17.960938 221.03125 23.699219 223.972656 28.75 C 224.222656 29.175781 226.535156 32.9375 227.179688 32.011719 "/>
<path fill-rule="nonzero" fill="rgb(6.666565%, 46.273804%, 23.921204%)" fill-opacity="1" d="M 245.476562 26.367188 C 245.621094 26.484375 245.796875 26.722656 246.09375 26.964844 C 245.503906 25.433594 246.765625 25.914062 246.824219 25.832031 C 246.859375 25.777344 246.523438 25.347656 246.582031 24.980469 C 246.847656 23.273438 247.644531 20.859375 248.210938 19.183594 C 248.296875 18.929688 248.757812 19.089844 248.765625 19.0625 C 248.949219 18.527344 248.96875 16.203125 249.125 15.582031 C 249.308594 14.851562 249.519531 15.6875 249.5625 15.6875 C 250.164062 15.691406 250.488281 15.300781 251.492188 15.804688 C 251.222656 14.351562 249.59375 13.894531 249.109375 12.664062 C 248.945312 12.546875 248.390625 12.609375 248.359375 12.582031 Z M 245.476562 26.367188 "/>
<path fill-rule="nonzero" fill="rgb(6.666565%, 46.273804%, 23.921204%)" fill-opacity="1" d="M 250.777344 30.585938 C 251.363281 31.078125 252.042969 31.488281 252.523438 31.917969 C 252.816406 30.886719 252.679688 29.914062 252.871094 28.832031 C 253.195312 27.007812 255.871094 21.488281 254.210938 20.457031 L 253.734375 20.589844 C 252.621094 23.046875 253.003906 27.242188 251.957031 29.441406 C 251.675781 30.027344 251.417969 30.378906 250.777344 30.585938 "/>
<path fill-rule="nonzero" fill="rgb(97.254944%, 92.549133%, 76.078796%)" fill-opacity="1" d="M 232.441406 49.648438 L 233.023438 47.820312 C 231.078125 49.03125 229.734375 44.859375 229.371094 43.375 C 229.085938 42.199219 229.25 40.839844 228.863281 39.8125 C 228.542969 38.96875 227.660156 40.105469 227.625 40.625 C 227.480469 42.65625 230.035156 49.136719 232.441406 49.648438 "/>
<path fill-rule="nonzero" fill="rgb(97.647095%, 92.941284%, 78.039551%)" fill-opacity="1" d="M 233.1875 42.90625 C 233.726562 43.40625 234.308594 44.558594 234.914062 44.753906 C 235.308594 44.878906 235.621094 44.519531 235.972656 44.625 C 238.066406 45.25 239.847656 46.636719 242.261719 46.558594 C 242.191406 45.339844 241.273438 45.300781 240.691406 44.800781 C 240.417969 44.5625 240.285156 43.910156 240.195312 43.863281 C 240.015625 43.78125 238.5 44.265625 237.851562 44.226562 C 236.890625 44.175781 235.535156 43.050781 234.699219 42.582031 C 234.828125 43.414062 233.464844 43.265625 233.1875 42.90625 "/>
<path fill-rule="nonzero" fill="rgb(6.666565%, 46.273804%, 23.921204%)" fill-opacity="1" d="M 238.125 19.417969 L 242.4375 7.183594 C 241.765625 7.328125 240.796875 5.40625 240.015625 7.796875 C 239.910156 7.890625 239.363281 7.867188 239.3125 7.949219 C 239.269531 8.03125 239.671875 8.476562 239.640625 8.855469 C 239.414062 11.878906 238.503906 15.738281 237.460938 18.585938 C 237.6875 18.890625 237.894531 19.128906 238.125 19.417969 "/>
<path fill-rule="nonzero" fill="rgb(6.666565%, 46.273804%, 23.921204%)" fill-opacity="1" d="M 256.226562 35.507812 C 256.488281 35.773438 256.808594 36.316406 257.226562 36.753906 C 257.425781 35.792969 257.328125 34.601562 257.578125 33.671875 C 257.800781 32.828125 259.257812 30.71875 259.277344 30.542969 C 259.351562 29.816406 257.878906 28.273438 257.878906 27.351562 Z M 256.226562 35.507812 "/>
<path fill-rule="nonzero" fill="rgb(6.666565%, 46.273804%, 23.921204%)" fill-opacity="1" d="M 240.957031 17.832031 L 241.472656 17.964844 C 241.699219 17.0625 243.679688 10.605469 243.9375 10.28125 C 244.234375 9.914062 245.085938 9.851562 245.507812 9.535156 C 245.59375 9.34375 245.0625 9.25 244.945312 9.175781 C 241.128906 5.960938 242.511719 9.210938 242.511719 9.210938 C 241.960938 12.0625 241.539062 14.988281 240.957031 17.832031 "/>
<path fill-rule="nonzero" fill="rgb(6.666565%, 46.273804%, 23.921204%)" fill-opacity="1" d="M 260.359375 39.980469 C 259.953125 37.882812 262.480469 33.222656 259.972656 32.507812 L 258.792969 38.367188 C 259.292969 38.917969 259.875 39.429688 260.359375 39.980469 "/>
<path fill-rule="nonzero" fill="rgb(6.666565%, 46.273804%, 23.921204%)" fill-opacity="1" d="M 263.359375 43.722656 C 263.160156 40.898438 263.652344 37.996094 263.46875 35.167969 C 262.8125 35.167969 263.105469 35.4375 262.988281 35.75 C 262.296875 37.554688 262.277344 39.59375 261.644531 41.410156 C 262.207031 42.109375 262.515625 43.207031 263.359375 43.722656 "/>
<path fill-rule="nonzero" fill="rgb(6.666565%, 46.273804%, 23.921204%)" fill-opacity="1" d="M 235.976562 16.222656 C 237.050781 13.695312 237.460938 10.949219 238.433594 8.382812 L 236.984375 8.449219 C 236.625 10.414062 236.265625 12.488281 235.847656 14.4375 C 235.757812 14.847656 235.6875 15.148438 235.308594 15.394531 C 235.5625 15.839844 235.851562 16.027344 235.976562 16.222656 "/>
<path fill-rule="nonzero" fill="rgb(6.666565%, 46.273804%, 23.921204%)" fill-opacity="1" d="M 254.992188 34.3125 C 254.308594 30.964844 257.382812 27.972656 256.582031 24.707031 C 256.003906 24.820312 255.71875 26.078125 255.566406 26.558594 C 254.980469 28.410156 254.820312 30.476562 254.285156 32.359375 C 254.179688 32.722656 254.347656 33.113281 253.757812 33.113281 C 254.160156 33.492188 254.597656 33.925781 254.992188 34.3125 "/>
<path fill-rule="nonzero" fill="rgb(6.666565%, 46.273804%, 23.921204%)" fill-opacity="1" d="M 251.289062 17.21875 C 250.71875 18.160156 250.445312 21.886719 250.152344 23.164062 C 249.726562 25.03125 249.28125 26.933594 248.410156 28.660156 C 248.824219 29.003906 249.292969 29.183594 249.542969 29.390625 C 249.941406 27.40625 250.402344 25.425781 250.953125 23.480469 C 251.191406 22.636719 252.71875 18.5625 252.710938 18.289062 C 252.699219 17.667969 251.789062 16.390625 251.289062 17.21875 "/>
<path fill-rule="nonzero" fill="rgb(6.666565%, 46.273804%, 23.921204%)" fill-opacity="1" d="M 249.109375 12.664062 C 249.097656 12.636719 249.324219 12.414062 249.199219 12.101562 C 249.015625 11.648438 246.4375 9.800781 246.128906 10.136719 L 245.152344 16.929688 C 245.8125 16.917969 245.519531 16.679688 245.621094 16.339844 C 245.882812 15.460938 246.140625 11.585938 246.976562 11.457031 C 248 11.292969 248.140625 12.378906 248.359375 12.582031 C 248.390625 12.609375 248.945312 12.546875 249.109375 12.664062 "/>
<path fill-rule="nonzero" fill="rgb(6.666565%, 46.273804%, 23.921204%)" fill-opacity="1" d="M 244.007812 25.21875 L 244.867188 20.160156 L 243.109375 24.4375 C 243.425781 24.722656 243.6875 24.945312 244.007812 25.21875 "/>
<path fill-rule="nonzero" fill="rgb(6.666565%, 46.273804%, 23.921204%)" fill-opacity="1" d="M 236.984375 8.449219 L 238.433594 8.382812 C 238.46875 8.285156 239.53125 7.464844 239.011719 6.558594 C 236.042969 5.964844 237.375 6.308594 236.984375 8.449219 "/>
<path fill-rule="nonzero" fill="rgb(97.254944%, 92.549133%, 76.078796%)" fill-opacity="1" d="M 246.195312 50.097656 L 248.808594 49.785156 L 248.976562 48.285156 L 246.128906 49.113281 Z M 246.195312 50.097656 "/>
<path fill-rule="nonzero" fill="rgb(6.666565%, 46.273804%, 23.921204%)" fill-opacity="1" d="M 240.695312 22.277344 C 241.019531 20.898438 241.128906 19.324219 241.472656 17.964844 L 240.957031 17.832031 C 240.730469 18.929688 240.390625 20.621094 239.792969 21.496094 C 240.085938 21.8125 240.4375 22.019531 240.695312 22.277344 "/>
<path fill-rule="nonzero" fill="rgb(97.254944%, 92.549133%, 76.078796%)" fill-opacity="1" d="M 241.246094 44.097656 C 242.433594 46.054688 245.300781 43.226562 243.402344 43.378906 C 242.773438 43.429688 241.996094 44.132812 241.246094 44.097656 "/>
<path fill-rule="nonzero" fill="rgb(97.254944%, 92.549133%, 76.078796%)" fill-opacity="1" d="M 243.398438 47.289062 C 244.167969 47.054688 245.105469 47.019531 245.847656 46.761719 C 246.941406 46.382812 246.050781 45.757812 245.652344 45.816406 C 245.417969 45.847656 242.492188 46.996094 243.398438 47.289062 "/>
<path fill-rule="nonzero" fill="rgb(97.254944%, 92.549133%, 76.078796%)" fill-opacity="1" d="M 238.25 47.179688 C 238.597656 46.566406 236.550781 45.882812 236.222656 45.667969 C 235.949219 46.222656 238.066406 47.503906 238.25 47.179688 "/>
<path fill-rule="nonzero" fill="rgb(20.783997%, 25.881958%, 17.254639%)" fill-opacity="1" d="M 243.523438 55.792969 L 242.757812 54.5 L 243.96875 54.480469 C 244.300781 52.816406 240.824219 53.34375 240.554688 53.980469 C 239.941406 55.4375 242.335938 56.515625 243.523438 55.792969 "/>
<path fill-rule="nonzero" fill="rgb(20.391846%, 23.136902%, 17.254639%)" fill-opacity="1" d="M 230.503906 38.367188 C 230.441406 39.328125 233.015625 41.949219 233.746094 41.566406 C 235.050781 40.886719 231.089844 38.558594 230.503906 38.367188 "/>
<path fill-rule="nonzero" fill="rgb(20.783997%, 25.881958%, 17.254639%)" fill-opacity="1" d="M 246.195312 50.097656 L 246.128906 49.113281 L 248.976562 48.285156 L 248.808594 49.785156 Z M 243.398438 47.289062 C 242.492188 46.996094 245.417969 45.847656 245.652344 45.816406 C 246.050781 45.757812 246.941406 46.382812 245.847656 46.761719 C 245.105469 47.019531 244.167969 47.054688 243.398438 47.289062 Z M 241.246094 44.097656 C 241.996094 44.132812 242.773438 43.429688 243.402344 43.378906 C 245.300781 43.226562 242.433594 46.054688 241.246094 44.097656 Z M 235.308594 15.394531 C 235.6875 15.148438 235.757812 14.847656 235.847656 14.4375 C 236.265625 12.488281 236.625 10.414062 236.984375 8.449219 C 237.375 6.308594 236.042969 5.964844 239.011719 6.558594 C 239.53125 7.464844 238.46875 8.285156 238.433594 8.382812 C 237.460938 10.949219 237.050781 13.695312 235.976562 16.222656 C 236.503906 17.070312 236.769531 17.671875 237.460938 18.585938 C 238.503906 15.738281 239.414062 11.878906 239.640625 8.855469 C 239.671875 8.472656 239.269531 8.03125 239.3125 7.949219 C 239.363281 7.867188 239.90625 7.890625 240.015625 7.796875 C 240.324219 7.519531 239.941406 7.03125 241.050781 7.273438 C 241.734375 7.417969 241.988281 7.6875 241.847656 8.378906 L 238.125 19.417969 C 238.679688 20.105469 239.191406 20.84375 239.792969 21.496094 C 240.390625 20.621094 240.730469 18.929688 240.957031 17.832031 C 241.539062 14.988281 241.960938 12.0625 242.511719 9.210938 C 242.566406 8.945312 242.207031 8.269531 242.867188 8.183594 C 243.039062 8.171875 244.65625 8.992188 244.945312 9.175781 C 245.0625 9.25 245.59375 9.34375 245.507812 9.535156 C 245.085938 9.851562 244.234375 9.914062 243.9375 10.28125 C 243.679688 10.605469 241.699219 17.0625 241.472656 17.964844 C 241.128906 19.324219 241.019531 20.898438 240.695312 22.277344 C 241.5625 23.160156 242.242188 23.660156 243.109375 24.4375 L 244.867188 20.160156 L 244.007812 25.21875 C 244.542969 25.671875 245.019531 25.992188 245.476562 26.367188 L 248.359375 12.582031 C 248.140625 12.378906 248 11.292969 246.976562 11.453125 C 246.140625 11.585938 245.882812 15.460938 245.621094 16.339844 C 245.519531 16.679688 245.8125 16.917969 245.152344 16.929688 L 246.128906 10.136719 C 246.4375 9.800781 249.015625 11.648438 249.199219 12.101562 C 249.324219 12.414062 249.101562 12.636719 249.109375 12.664062 C 249.59375 13.894531 251.222656 14.351562 251.492188 15.804688 C 250.492188 15.300781 250.164062 15.691406 249.5625 15.6875 C 249.519531 15.6875 249.308594 14.851562 249.125 15.582031 C 248.96875 16.203125 248.949219 18.527344 248.765625 19.0625 C 248.757812 19.089844 248.296875 18.929688 248.210938 19.183594 C 247.644531 20.859375 246.847656 23.273438 246.582031 24.980469 C 246.523438 25.347656 246.859375 25.777344 246.824219 25.832031 C 246.765625 25.914062 245.503906 25.433594 246.09375 26.964844 C 246.90625 27.632812 247.773438 28.128906 248.410156 28.660156 C 249.28125 26.933594 249.726562 25.03125 250.152344 23.164062 C 250.445312 21.886719 250.71875 18.160156 251.289062 17.21875 C 251.789062 16.390625 252.699219 17.667969 252.710938 18.289062 C 252.71875 18.5625 251.191406 22.636719 250.953125 23.480469 C 250.402344 25.425781 249.941406 27.40625 249.542969 29.390625 C 249.875 29.667969 250.261719 30.160156 250.773438 30.585938 C 251.417969 30.378906 251.675781 30.027344 251.957031 29.441406 C 253.003906 27.242188 252.621094 23.046875 253.734375 20.589844 L 254.210938 20.457031 C 255.871094 21.488281 253.195312 27.007812 252.871094 28.832031 C 252.679688 29.914062 252.816406 30.886719 252.527344 31.917969 C 252.867188 32.222656 253.359375 32.738281 253.757812 33.113281 C 254.347656 33.113281 254.179688 32.722656 254.285156 32.359375 C 254.820312 30.476562 254.980469 28.410156 255.566406 26.558594 C 255.714844 26.078125 256.003906 24.820312 256.582031 24.707031 C 257.382812 27.972656 254.3125 30.964844 254.992188 34.3125 C 255.394531 34.707031 255.835938 35.113281 256.226562 35.507812 L 257.878906 27.351562 C 257.878906 28.273438 259.351562 29.816406 259.277344 30.542969 C 259.257812 30.71875 257.804688 32.824219 257.578125 33.671875 C 257.328125 34.601562 257.425781 35.792969 257.226562 36.753906 C 257.734375 37.289062 258.304688 37.832031 258.792969 38.367188 L 259.972656 32.507812 C 262.480469 33.222656 259.953125 37.882812 260.359375 39.980469 C 260.730469 40.398438 261.359375 41.0625 261.644531 41.410156 C 262.28125 39.59375 262.296875 37.554688 262.988281 35.75 C 263.105469 35.4375 262.808594 35.167969 263.46875 35.167969 C 263.648438 37.996094 263.160156 40.898438 263.359375 43.722656 C 263.382812 44.050781 263.460938 45.394531 263.484375 45.496094 C 264.070312 47.992188 266.851562 50.484375 268.609375 52.214844 C 267.480469 53.765625 266.109375 52.597656 264.964844 51.644531 C 261.964844 49.144531 259.585938 43.632812 256.992188 40.375 C 249.96875 31.546875 231.316406 23.332031 229.835938 11.363281 C 229.3125 7.125 232.355469 6.710938 235.917969 6.234375 C 236.871094 9.054688 233.863281 8.777344 233.855469 11.546875 C 233.851562 13.585938 234.480469 13.929688 235.308594 15.394531 Z M 238.25 47.179688 C 238.066406 47.503906 235.949219 46.222656 236.222656 45.667969 C 236.550781 45.882812 238.601562 46.566406 238.25 47.179688 Z M 250.910156 55.285156 C 252.398438 55.601562 253.984375 55.75 255.480469 55.183594 C 256.453125 54.816406 256.136719 53.789062 257.191406 53.582031 C 256.839844 55.550781 256.945312 56.058594 258.335938 57.554688 L 260.359375 59.234375 C 259.773438 60.195312 256.578125 60.203125 255.574219 59.96875 C 254.96875 59.832031 253.96875 58.6875 252.550781 58.4375 C 251.566406 58.261719 249.359375 58.613281 249.097656 58.515625 C 248.441406 58.277344 248.265625 57.445312 247.816406 57.070312 C 246.425781 55.902344 243.457031 57.449219 241.765625 57.113281 C 240.773438 56.914062 236.761719 53.851562 236.585938 53.023438 L 235.855469 49.644531 L 237.503906 50.507812 C 237.582031 48.4375 235.464844 49.21875 235.589844 47.265625 L 238.550781 49.074219 C 239.472656 48.972656 239.359375 48.207031 238.875 47.605469 C 238.664062 46.894531 241.109375 47.683594 241.589844 47.757812 C 242.136719 47.84375 242.6875 47.59375 243.234375 47.699219 C 243.875 47.824219 244.875 48.84375 245.597656 49.007812 L 242.683594 49.636719 C 243.429688 51.109375 245.417969 50.566406 246.714844 50.234375 L 245.804688 51.152344 L 246.050781 51.722656 C 248.277344 51.859375 249.917969 50.242188 251.992188 49.828125 C 253.066406 51.980469 247.722656 51.613281 247.710938 52.582031 C 248.617188 54.355469 253.230469 52.015625 253.96875 52.359375 L 254.476562 53.433594 L 250.613281 54.757812 C 250.617188 54.910156 250.40625 54.839844 250.40625 54.976562 C 248.667969 54.605469 249.738281 54.691406 247.914062 54.816406 C 248.242188 55.765625 250.566406 56.320312 250.863281 55.917969 C 250.851562 55.691406 250.910156 55.492188 250.910156 55.285156 Z M 225.597656 13.039062 C 225.457031 11.503906 226.175781 9.289062 227.613281 8.527344 C 229.121094 8.265625 228.234375 11.398438 228.359375 12.410156 C 229.609375 22.8125 247.246094 32.785156 253.867188 39.9375 C 258.304688 44.726562 260.921875 51.25 266.589844 54.726562 C 266.476562 55.855469 265.242188 55.710938 264.4375 55.566406 C 260.847656 54.914062 252.238281 41.601562 248.835938 38.097656 C 242.535156 31.605469 226.460938 22.613281 225.597656 13.039062 Z M 233.1875 42.90625 C 232.746094 42.5 231.359375 41.761719 231.203125 41.449219 C 231.003906 41.0625 231.226562 40.5625 231.03125 40.1875 C 230.617188 39.382812 229.667969 38.746094 229.4375 37.953125 C 229.257812 37.320312 229.601562 36.984375 229.519531 36.605469 C 229.398438 36.070312 228.070312 34.359375 228.152344 34.242188 C 228.601562 34.058594 228.78125 34.167969 229.160156 34.386719 C 230.300781 35.042969 232.726562 37.96875 233.964844 39.0625 C 234.578125 39.605469 235.570312 40.695312 235.933594 40.980469 C 236.683594 41.574219 237.707031 41.742188 238.4375 42.386719 C 236.894531 43.085938 234.898438 42 233.328125 41.910156 C 232.765625 41.878906 233.105469 42.804688 233.1875 42.90625 C 233.464844 43.265625 234.828125 43.414062 234.699219 42.582031 C 235.535156 43.050781 236.890625 44.175781 237.851562 44.226562 C 238.5 44.265625 240.015625 43.777344 240.195312 43.863281 C 240.285156 43.910156 240.417969 44.5625 240.691406 44.800781 C 241.273438 45.300781 242.191406 45.339844 242.261719 46.558594 C 239.847656 46.636719 238.066406 45.25 235.972656 44.625 C 235.621094 44.519531 235.308594 44.878906 234.914062 44.753906 C 234.308594 44.558594 233.726562 43.40625 233.1875 42.90625 Z M 232.4375 49.648438 C 230.035156 49.136719 227.480469 42.65625 227.625 40.625 C 227.664062 40.109375 228.546875 38.96875 228.863281 39.8125 C 229.246094 40.839844 229.085938 42.199219 229.371094 43.375 C 229.734375 44.863281 231.078125 49.03125 233.023438 47.820312 Z M 227.179688 32.011719 C 226.535156 32.9375 224.222656 29.175781 223.972656 28.75 C 221.03125 23.699219 219.859375 17.960938 224.265625 13.390625 C 225.554688 14.699219 224.089844 15.238281 223.648438 16.191406 C 221 21.886719 223.871094 27.359375 227.179688 32.011719 Z M 233.777344 51.308594 C 234.667969 55.457031 238.640625 57.367188 241.683594 59.71875 C 238.324219 63 236.9375 57.34375 234.066406 56.617188 C 233.648438 57.039062 233.933594 57.039062 234.011719 57.304688 C 234.621094 59.300781 238.566406 62.226562 238.640625 62.570312 C 238.761719 63.128906 237.761719 64.847656 237.066406 64.988281 C 235.835938 65.300781 231.921875 61.386719 231.046875 60.351562 C 228.484375 57.300781 225.683594 52.480469 228.199219 48.613281 C 229.269531 50.46875 231.570312 52.128906 233.777344 51.308594 Z M 200.113281 74.421875 C 199.53125 75.757812 193.488281 99.761719 193.730469 103.597656 C 193.886719 106.058594 194.335938 107.492188 194.773438 108.464844 C 196.152344 111.550781 198.113281 115.496094 201.9375 115.710938 C 201.9375 115.710938 214.671875 119.234375 215.777344 102.304688 L 218.335938 80.363281 C 221.035156 75.707031 225.304688 71.761719 229.890625 68.964844 C 230.605469 68.53125 233.535156 66.761719 234.082031 66.652344 C 234.625 66.539062 237.25 68.304688 238.789062 67.496094 C 240.359375 65.792969 239.65625 62.609375 242.726562 62.308594 C 243.371094 65.058594 245.882812 65.390625 248.3125 65.019531 C 250.140625 64.742188 250.273438 64.65625 252.195312 64.578125 C 258.246094 64.335938 259.761719 60.523438 264.507812 58.601562 C 265.660156 58.136719 266.804688 58.28125 268.027344 57.464844 C 269.699219 56.34375 272.878906 52.710938 273.507812 50.539062 C 275.007812 45.355469 271.730469 39.621094 268.304688 35.914062 C 267.101562 34.609375 265.519531 33.652344 264.335938 32.425781 C 260.113281 28.054688 258.410156 21.460938 254.832031 16.386719 C 250.476562 10.210938 239.726562 1.496094 231.644531 4.503906 C 230.800781 4.816406 230.277344 5.566406 229.65625 5.828125 C 227.929688 6.5625 226.609375 6.070312 225.300781 8.03125 C 224.664062 8.988281 224.5 10.867188 223.992188 11.601562 C 223.214844 12.726562 221.648438 13.480469 220.640625 15.253906 C 216.613281 22.339844 223.433594 32.105469 227.867188 37.566406 C 226.8125 38.789062 225.1875 40.386719 225.316406 42.160156 C 225.386719 43.109375 227.65625 46.746094 227.496094 47.054688 C 225.660156 47.277344 225.335938 50.296875 224.597656 51.105469 C 224.042969 51.714844 221.941406 52.519531 221.097656 53.058594 C 215.867188 56.398438 211.402344 59.921875 207.082031 64.375 C 207.082031 64.375 200.621094 73.265625 200.113281 74.421875 "/>

                    </g>
                  </svg>