<?xml version="1.0" encoding="UTF-8"?>
<svg style="background:transparent !important" xmlns="http://www.w3.org/2000/svg" xmlns:xlink="http://www.w3.org/1999/xlink" width="860.703125" height="1192.027344" viewBox="-19.511719 -2.03125 860.703125 1192.027344">
<defs>
<clipPath id="clip-0">
<path clip-rule="nonzero" d="M 644 1040 L 841.890625 1040 L 841.890625 1190 L 644 1190 Z M 644 1040 "/>
</clipPath>
<clipPath id="clip-1">
<path clip-rule="nonzero" d="M 775 3 L 841.890625 3 L 841.890625 997 L 775 997 Z M 775 3 "/>
</clipPath>
</defs>
<path fill-rule="nonzero" fill="rgb(0%, 0%, 100%)" fill-opacity="1" d="M 5.566406 332.9375 L 11.449219 332.9375 C 14.96875 332.9375 16.726562 331.425781 16.726562 328.410156 L 16.726562 327.730469 C 16.726562 326.398438 16.292969 325.324219 15.425781 324.507812 C 14.558594 323.691406 13.234375 323.28125 11.449219 323.28125 L 5.566406 323.28125 Z M 5.566406 335.875 L 5.566406 346.738281 L 2.398438 346.738281 L 2.398438 320.339844 L 11.824219 320.339844 C 13.183594 320.339844 14.363281 320.535156 15.371094 320.925781 C 16.375 321.316406 17.210938 321.835938 17.878906 322.488281 C 18.542969 323.144531 19.046875 323.902344 19.386719 324.769531 C 19.726562 325.636719 19.894531 326.550781 19.894531 327.503906 L 19.894531 328.636719 C 19.894531 329.59375 19.726562 330.511719 19.386719 331.390625 C 19.046875 332.269531 18.539062 333.042969 17.859375 333.710938 C 17.179688 334.375 16.339844 334.902344 15.332031 335.292969 C 14.328125 335.683594 13.15625 335.875 11.824219 335.875 Z M 5.566406 335.875 "/>
<path fill-rule="nonzero" fill="rgb(0%, 0%, 100%)" fill-opacity="1" d="M 33.960938 330.296875 C 33.132812 330.296875 32.359375 330.429688 31.644531 330.691406 C 30.925781 330.957031 30.296875 331.328125 29.757812 331.804688 C 29.214844 332.28125 28.777344 332.839844 28.4375 333.484375 C 28.097656 334.125 27.878906 334.820312 27.777344 335.574219 L 39.84375 335.574219 C 39.792969 334.769531 39.601562 334.042969 39.261719 333.386719 C 38.921875 332.734375 38.480469 332.183594 37.941406 331.730469 C 37.398438 331.277344 36.785156 330.925781 36.09375 330.671875 C 35.402344 330.421875 34.691406 330.296875 33.960938 330.296875 Z M 27.703125 338.289062 C 27.777344 340.152344 28.355469 341.648438 29.4375 342.777344 C 30.519531 343.910156 32.027344 344.476562 33.960938 344.476562 C 34.84375 344.476562 35.609375 344.375 36.261719 344.171875 C 36.917969 343.972656 37.476562 343.695312 37.941406 343.34375 C 38.40625 342.992188 38.78125 342.585938 39.074219 342.117188 C 39.359375 341.652344 39.59375 341.15625 39.769531 340.628906 L 42.558594 341.382812 C 42.03125 343.117188 41.058594 344.53125 39.636719 345.625 C 38.21875 346.71875 36.300781 347.265625 33.886719 347.265625 C 32.554688 347.265625 31.328125 347.03125 30.210938 346.566406 C 29.089844 346.101562 28.128906 345.445312 27.324219 344.589844 C 26.519531 343.734375 25.890625 342.714844 25.441406 341.535156 C 24.988281 340.351562 24.761719 339.042969 24.761719 337.613281 L 24.761719 336.707031 C 24.761719 335.398438 24.992188 334.179688 25.457031 333.046875 C 25.921875 331.917969 26.570312 330.945312 27.402344 330.125 C 28.230469 329.308594 29.203125 328.667969 30.324219 328.203125 C 31.441406 327.738281 32.65625 327.503906 33.960938 327.503906 C 35.496094 327.503906 36.820312 327.789062 37.941406 328.355469 C 39.058594 328.917969 39.976562 329.617188 40.695312 330.445312 C 41.410156 331.277344 41.9375 332.183594 42.277344 333.164062 C 42.617188 334.140625 42.785156 335.046875 42.785156 335.878906 L 42.785156 338.289062 Z M 27.703125 338.289062 "/>
<path fill-rule="nonzero" fill="rgb(0%, 0%, 100%)" fill-opacity="1" d="M 56.890625 344.476562 C 57.796875 344.476562 58.632812 344.320312 59.398438 344.003906 C 60.164062 343.691406 60.835938 343.230469 61.417969 342.628906 C 61.996094 342.023438 62.445312 341.300781 62.773438 340.460938 C 63.101562 339.617188 63.265625 338.667969 63.265625 337.613281 L 63.265625 337.160156 C 63.265625 336.152344 63.101562 335.230469 62.773438 334.386719 C 62.445312 333.546875 61.996094 332.824219 61.417969 332.21875 C 60.835938 331.617188 60.160156 331.144531 59.378906 330.804688 C 58.601562 330.464844 57.769531 330.296875 56.890625 330.296875 C 56.011719 330.296875 55.179688 330.464844 54.402344 330.804688 C 53.621094 331.144531 52.945312 331.617188 52.367188 332.21875 C 51.785156 332.824219 51.335938 333.546875 51.007812 334.386719 C 50.679688 335.230469 50.515625 336.152344 50.515625 337.160156 L 50.515625 337.613281 C 50.515625 338.667969 50.679688 339.617188 51.007812 340.460938 C 51.335938 341.300781 51.785156 342.023438 52.367188 342.628906 C 52.945312 343.230469 53.617188 343.691406 54.382812 344.003906 C 55.148438 344.320312 55.984375 344.476562 56.890625 344.476562 Z M 66.28125 337.613281 C 66.28125 339.171875 66.023438 340.546875 65.507812 341.742188 C 64.992188 342.9375 64.308594 343.941406 63.453125 344.757812 C 62.597656 345.574219 61.597656 346.199219 60.453125 346.625 C 59.3125 347.050781 58.121094 347.265625 56.890625 347.265625 C 55.632812 347.265625 54.441406 347.050781 53.308594 346.625 C 52.175781 346.199219 51.183594 345.574219 50.328125 344.757812 C 49.472656 343.941406 48.789062 342.9375 48.273438 341.742188 C 47.757812 340.546875 47.5 339.171875 47.5 337.613281 L 47.5 337.160156 C 47.5 335.625 47.757812 334.261719 48.273438 333.066406 C 48.789062 331.875 49.480469 330.859375 50.347656 330.03125 C 51.214844 329.203125 52.214844 328.574219 53.347656 328.144531 C 54.476562 327.71875 55.660156 327.503906 56.890625 327.503906 C 58.121094 327.503906 59.304688 327.71875 60.4375 328.144531 C 61.566406 328.574219 62.566406 329.203125 63.433594 330.03125 C 64.300781 330.859375 64.992188 331.875 65.507812 333.066406 C 66.023438 334.261719 66.28125 335.625 66.28125 337.160156 Z M 66.28125 337.613281 "/>
<path fill-rule="nonzero" fill="rgb(0%, 0%, 100%)" fill-opacity="1" d="M 80.234375 344.476562 C 81.140625 344.476562 81.96875 344.320312 82.722656 344.003906 C 83.476562 343.691406 84.136719 343.242188 84.703125 342.664062 C 85.269531 342.085938 85.707031 341.382812 86.023438 340.554688 C 86.335938 339.722656 86.496094 338.792969 86.496094 337.761719 L 86.496094 337.007812 C 86.496094 336.003906 86.335938 335.09375 86.023438 334.273438 C 85.707031 333.457031 85.269531 332.753906 84.703125 332.164062 C 84.136719 331.570312 83.472656 331.113281 82.703125 330.785156 C 81.9375 330.460938 81.113281 330.296875 80.234375 330.296875 C 79.355469 330.296875 78.539062 330.464844 77.78125 330.804688 C 77.027344 331.144531 76.367188 331.617188 75.804688 332.21875 C 75.238281 332.824219 74.792969 333.546875 74.464844 334.386719 C 74.136719 335.230469 73.972656 336.152344 73.972656 337.160156 L 73.972656 337.613281 C 73.972656 338.644531 74.136719 339.578125 74.464844 340.421875 C 74.792969 341.261719 75.238281 341.988281 75.804688 342.589844 C 76.367188 343.191406 77.027344 343.660156 77.78125 343.984375 C 78.539062 344.3125 79.355469 344.476562 80.234375 344.476562 Z M 73.972656 354.28125 L 71.03125 354.28125 L 71.03125 328.03125 L 73.972656 328.03125 L 73.972656 330.976562 L 74.425781 330.976562 C 75.082031 329.84375 75.984375 328.980469 77.140625 328.390625 C 78.296875 327.800781 79.554688 327.503906 80.914062 327.503906 C 82.070312 327.503906 83.164062 327.71875 84.195312 328.144531 C 85.226562 328.574219 86.136719 329.191406 86.929688 329.996094 C 87.71875 330.800781 88.347656 331.792969 88.8125 332.972656 C 89.277344 334.15625 89.511719 335.5 89.511719 337.007812 L 89.511719 337.761719 C 89.511719 339.296875 89.285156 340.652344 88.832031 341.835938 C 88.378906 343.015625 87.757812 344.011719 86.964844 344.816406 C 86.175781 345.621094 85.25 346.230469 84.195312 346.644531 C 83.136719 347.058594 82.019531 347.265625 80.839844 347.265625 C 80.234375 347.265625 79.617188 347.195312 78.988281 347.058594 C 78.363281 346.921875 77.765625 346.707031 77.199219 346.417969 C 76.632812 346.128906 76.109375 345.777344 75.632812 345.363281 C 75.15625 344.945312 74.753906 344.449219 74.425781 343.871094 L 73.972656 343.871094 Z M 73.972656 354.28125 "/>
<path fill-rule="nonzero" fill="rgb(0%, 0%, 100%)" fill-opacity="1" d="M 94.792969 344.023438 L 101.578125 344.023438 L 101.578125 323.054688 L 95.015625 323.054688 L 95.015625 320.339844 L 104.519531 320.339844 L 104.519531 344.023438 L 111.308594 344.023438 L 111.308594 346.738281 L 94.792969 346.738281 Z M 94.792969 344.023438 "/>
<path fill-rule="nonzero" fill="rgb(0%, 0%, 100%)" fill-opacity="1" d="M 126.28125 330.296875 C 125.449219 330.296875 124.675781 330.429688 123.960938 330.691406 C 123.246094 330.957031 122.617188 331.328125 122.074219 331.804688 C 121.535156 332.28125 121.09375 332.839844 120.753906 333.484375 C 120.414062 334.125 120.195312 334.820312 120.09375 335.574219 L 132.164062 335.574219 C 132.113281 334.769531 131.917969 334.042969 131.578125 333.386719 C 131.238281 332.734375 130.800781 332.183594 130.257812 331.730469 C 129.71875 331.277344 129.101562 330.925781 128.410156 330.671875 C 127.71875 330.421875 127.007812 330.296875 126.28125 330.296875 Z M 120.019531 338.289062 C 120.09375 340.152344 120.675781 341.648438 121.753906 342.777344 C 122.835938 343.910156 124.34375 344.476562 126.28125 344.476562 C 127.160156 344.476562 127.925781 344.375 128.582031 344.171875 C 129.234375 343.972656 129.792969 343.695312 130.257812 343.34375 C 130.722656 342.992188 131.101562 342.585938 131.390625 342.117188 C 131.679688 341.652344 131.910156 341.15625 132.089844 340.628906 L 134.878906 341.382812 C 134.351562 343.117188 133.375 344.53125 131.957031 345.625 C 130.535156 346.71875 128.617188 347.265625 126.203125 347.265625 C 124.871094 347.265625 123.644531 347.03125 122.527344 346.566406 C 121.410156 346.101562 120.449219 345.445312 119.644531 344.589844 C 118.839844 343.734375 118.210938 342.714844 117.757812 341.535156 C 117.304688 340.351562 117.078125 339.042969 117.078125 337.613281 L 117.078125 336.707031 C 117.078125 335.398438 117.3125 334.179688 117.777344 333.046875 C 118.242188 331.917969 118.890625 330.945312 119.71875 330.125 C 120.546875 329.308594 121.523438 328.667969 122.640625 328.203125 C 123.761719 327.738281 124.972656 327.503906 126.28125 327.503906 C 127.8125 327.503906 129.140625 327.789062 130.257812 328.355469 C 131.378906 328.917969 132.296875 329.617188 133.011719 330.445312 C 133.726562 331.277344 134.257812 332.183594 134.597656 333.164062 C 134.933594 334.140625 135.105469 335.046875 135.105469 335.878906 L 135.105469 338.289062 Z M 120.019531 338.289062 "/>
<path fill-rule="nonzero" fill="rgb(0%, 0%, 100%)" fill-opacity="1" d="M 167.121094 332.9375 L 173.003906 332.9375 C 176.523438 332.9375 178.285156 331.425781 178.285156 328.410156 L 178.285156 327.730469 C 178.285156 326.398438 177.851562 325.324219 176.984375 324.507812 C 176.117188 323.691406 174.789062 323.28125 173.003906 323.28125 L 167.121094 323.28125 Z M 167.121094 335.875 L 167.121094 346.738281 L 163.953125 346.738281 L 163.953125 320.339844 L 173.382812 320.339844 C 174.742188 320.339844 175.921875 320.535156 176.925781 320.925781 C 177.933594 321.316406 178.769531 321.835938 179.433594 322.488281 C 180.101562 323.144531 180.605469 323.902344 180.945312 324.769531 C 181.28125 325.636719 181.453125 326.550781 181.453125 327.503906 L 181.453125 328.636719 C 181.453125 329.59375 181.28125 330.511719 180.945312 331.390625 C 180.605469 332.269531 180.09375 333.042969 179.417969 333.710938 C 178.738281 334.375 177.894531 334.902344 176.890625 335.292969 C 175.882812 335.683594 174.714844 335.875 173.382812 335.875 Z M 167.121094 335.875 "/>
<path fill-rule="nonzero" fill="rgb(0%, 0%, 100%)" fill-opacity="1" d="M 195.367188 344.476562 C 196.273438 344.476562 197.109375 344.320312 197.875 344.003906 C 198.644531 343.691406 199.316406 343.230469 199.894531 342.628906 C 200.472656 342.023438 200.925781 341.300781 201.25 340.460938 C 201.578125 339.617188 201.742188 338.667969 201.742188 337.613281 L 201.742188 337.160156 C 201.742188 336.152344 201.578125 335.230469 201.25 334.386719 C 200.925781 333.546875 200.472656 332.824219 199.894531 332.21875 C 199.316406 331.617188 198.636719 331.144531 197.855469 330.804688 C 197.078125 330.464844 196.246094 330.296875 195.367188 330.296875 C 194.488281 330.296875 193.65625 330.464844 192.878906 330.804688 C 192.101562 331.144531 191.421875 331.617188 190.84375 332.21875 C 190.265625 332.824219 189.8125 333.546875 189.484375 334.386719 C 189.160156 335.230469 188.996094 336.152344 188.996094 337.160156 L 188.996094 337.613281 C 188.996094 338.667969 189.160156 339.617188 189.484375 340.460938 C 189.8125 341.300781 190.265625 342.023438 190.84375 342.628906 C 191.421875 343.230469 192.09375 343.691406 192.859375 344.003906 C 193.628906 344.320312 194.464844 344.476562 195.367188 344.476562 Z M 204.757812 337.613281 C 204.757812 339.171875 204.5 340.546875 203.984375 341.742188 C 203.46875 342.9375 202.785156 343.941406 201.929688 344.757812 C 201.074219 345.574219 200.074219 346.199219 198.933594 346.625 C 197.789062 347.050781 196.601562 347.265625 195.367188 347.265625 C 194.109375 347.265625 192.917969 347.050781 191.785156 346.625 C 190.65625 346.199219 189.660156 345.574219 188.804688 344.757812 C 187.953125 343.941406 187.265625 342.9375 186.75 341.742188 C 186.234375 340.546875 185.976562 339.171875 185.976562 337.613281 L 185.976562 337.160156 C 185.976562 335.625 186.234375 334.261719 186.75 333.066406 C 187.265625 331.875 187.957031 330.859375 188.824219 330.03125 C 189.691406 329.203125 190.691406 328.574219 191.824219 328.144531 C 192.953125 327.71875 194.136719 327.503906 195.367188 327.503906 C 196.601562 327.503906 197.78125 327.71875 198.914062 328.144531 C 200.042969 328.574219 201.042969 329.203125 201.910156 330.03125 C 202.777344 330.859375 203.46875 331.875 203.984375 333.066406 C 204.5 334.261719 204.757812 335.625 204.757812 337.160156 Z M 204.757812 337.613281 "/>
<path fill-rule="nonzero" fill="rgb(0%, 0%, 100%)" fill-opacity="1" d="M 226.367188 346.738281 L 220.9375 346.738281 L 218.675781 329.390625 L 218.222656 329.390625 L 215.957031 346.738281 L 210.527344 346.738281 L 207.585938 328.03125 L 210.601562 328.03125 L 213.09375 345.378906 L 213.546875 345.378906 L 215.734375 328.03125 L 221.164062 328.03125 L 223.351562 345.378906 L 223.804688 345.378906 L 226.292969 328.03125 L 229.308594 328.03125 Z M 226.367188 346.738281 "/>
<path fill-rule="nonzero" fill="rgb(0%, 0%, 100%)" fill-opacity="1" d="M 241.679688 330.296875 C 240.847656 330.296875 240.074219 330.429688 239.359375 330.691406 C 238.640625 330.957031 238.011719 331.328125 237.472656 331.804688 C 236.933594 332.28125 236.492188 332.839844 236.152344 333.484375 C 235.8125 334.125 235.59375 334.820312 235.492188 335.574219 L 247.5625 335.574219 C 247.511719 334.769531 247.316406 334.042969 246.976562 333.386719 C 246.636719 332.734375 246.195312 332.183594 245.65625 331.730469 C 245.117188 331.277344 244.5 330.925781 243.808594 330.671875 C 243.117188 330.421875 242.40625 330.296875 241.679688 330.296875 Z M 235.417969 338.289062 C 235.492188 340.152344 236.070312 341.648438 237.152344 342.777344 C 238.234375 343.910156 239.742188 344.476562 241.679688 344.476562 C 242.558594 344.476562 243.324219 344.375 243.976562 344.171875 C 244.632812 343.972656 245.191406 343.695312 245.65625 343.34375 C 246.121094 342.992188 246.5 342.585938 246.789062 342.117188 C 247.078125 341.652344 247.308594 341.15625 247.484375 340.628906 L 250.277344 341.382812 C 249.75 343.117188 248.773438 344.53125 247.355469 345.625 C 245.933594 346.71875 244.015625 347.265625 241.601562 347.265625 C 240.269531 347.265625 239.042969 347.03125 237.925781 346.566406 C 236.808594 346.101562 235.84375 345.445312 235.042969 344.589844 C 234.234375 343.734375 233.609375 342.714844 233.15625 341.535156 C 232.703125 340.351562 232.476562 339.042969 232.476562 337.613281 L 232.476562 336.707031 C 232.476562 335.398438 232.707031 334.179688 233.175781 333.046875 C 233.640625 331.917969 234.285156 330.945312 235.117188 330.125 C 235.945312 329.308594 236.921875 328.667969 238.039062 328.203125 C 239.15625 327.738281 240.371094 327.503906 241.679688 327.503906 C 243.210938 327.503906 244.539062 327.789062 245.65625 328.355469 C 246.773438 328.917969 247.691406 329.617188 248.410156 330.445312 C 249.125 331.277344 249.652344 332.183594 249.992188 333.164062 C 250.332031 334.140625 250.503906 335.046875 250.503906 335.878906 L 250.503906 338.289062 Z M 235.417969 338.289062 "/>
<path fill-rule="nonzero" fill="rgb(0%, 0%, 100%)" fill-opacity="1" d="M 255.292969 328.03125 L 262.082031 328.03125 L 262.082031 330.523438 L 262.53125 330.523438 C 263.011719 329.492188 263.6875 328.730469 264.570312 328.242188 C 265.449219 327.75 266.453125 327.503906 267.585938 327.503906 C 269.472656 327.503906 270.992188 328.121094 272.148438 329.351562 C 273.304688 330.585938 273.921875 332.382812 273.996094 334.746094 L 270.90625 335.199219 C 270.90625 333.464844 270.488281 332.210938 269.660156 331.445312 C 268.832031 330.679688 267.8125 330.296875 266.605469 330.296875 C 265.824219 330.296875 265.152344 330.445312 264.585938 330.75 C 264.023438 331.050781 263.550781 331.464844 263.175781 331.992188 C 262.796875 332.519531 262.519531 333.136719 262.34375 333.839844 C 262.167969 334.542969 262.082031 335.300781 262.082031 336.101562 L 262.082031 344.023438 L 266.832031 344.023438 L 266.832031 346.738281 L 254.839844 346.738281 L 254.839844 344.023438 L 259.136719 344.023438 L 259.136719 330.75 L 255.292969 330.75 Z M 255.292969 328.03125 "/>
<path fill-rule="nonzero" fill="rgb(0%, 0%, 100%)" fill-opacity="1" d="M 287.835938 330.296875 C 287.007812 330.296875 286.234375 330.429688 285.519531 330.691406 C 284.800781 330.957031 284.171875 331.328125 283.632812 331.804688 C 283.09375 332.28125 282.652344 332.839844 282.3125 333.484375 C 281.972656 334.125 281.753906 334.820312 281.652344 335.574219 L 293.71875 335.574219 C 293.667969 334.769531 293.476562 334.042969 293.136719 333.386719 C 292.796875 332.734375 292.355469 332.183594 291.816406 331.730469 C 291.273438 331.277344 290.660156 330.925781 289.96875 330.671875 C 289.277344 330.421875 288.566406 330.296875 287.835938 330.296875 Z M 281.578125 338.289062 C 281.652344 340.152344 282.230469 341.648438 283.3125 342.777344 C 284.394531 343.910156 285.902344 344.476562 287.835938 344.476562 C 288.71875 344.476562 289.484375 344.375 290.136719 344.171875 C 290.789062 343.972656 291.351562 343.695312 291.816406 343.34375 C 292.28125 342.992188 292.65625 342.585938 292.949219 342.117188 C 293.234375 341.652344 293.46875 341.15625 293.644531 340.628906 L 296.433594 341.382812 C 295.90625 343.117188 294.933594 344.53125 293.511719 345.625 C 292.09375 346.71875 290.175781 347.265625 287.761719 347.265625 C 286.429688 347.265625 285.203125 347.03125 284.085938 346.566406 C 282.964844 346.101562 282.003906 345.445312 281.199219 344.589844 C 280.394531 343.734375 279.765625 342.714844 279.316406 341.535156 C 278.863281 340.351562 278.636719 339.042969 278.636719 337.613281 L 278.636719 336.707031 C 278.636719 335.398438 278.867188 334.179688 279.332031 333.046875 C 279.796875 331.917969 280.445312 330.945312 281.277344 330.125 C 282.105469 329.308594 283.078125 328.667969 284.199219 328.203125 C 285.316406 327.738281 286.53125 327.503906 287.835938 327.503906 C 289.371094 327.503906 290.695312 327.789062 291.816406 328.355469 C 292.933594 328.917969 293.851562 329.617188 294.570312 330.445312 C 295.285156 331.277344 295.8125 332.183594 296.152344 333.164062 C 296.492188 334.140625 296.660156 335.046875 296.660156 335.878906 L 296.660156 338.289062 Z M 281.578125 338.289062 "/>
<path fill-rule="nonzero" fill="rgb(0%, 0%, 100%)" fill-opacity="1" d="M 310.726562 344.476562 C 311.609375 344.476562 312.425781 344.3125 313.179688 343.984375 C 313.933594 343.660156 314.59375 343.191406 315.160156 342.589844 C 315.726562 341.988281 316.171875 341.261719 316.5 340.421875 C 316.824219 339.578125 316.988281 338.644531 316.988281 337.613281 L 316.988281 337.160156 C 316.988281 336.152344 316.824219 335.230469 316.5 334.386719 C 316.171875 333.546875 315.726562 332.824219 315.160156 332.21875 C 314.59375 331.617188 313.925781 331.144531 313.160156 330.804688 C 312.394531 330.464844 311.582031 330.296875 310.726562 330.296875 C 309.847656 330.296875 309.023438 330.460938 308.257812 330.785156 C 307.492188 331.113281 306.824219 331.578125 306.257812 332.179688 C 305.695312 332.785156 305.253906 333.5 304.941406 334.332031 C 304.625 335.160156 304.46875 336.078125 304.46875 337.085938 L 304.46875 337.6875 C 304.46875 338.742188 304.625 339.6875 304.941406 340.515625 C 305.253906 341.34375 305.695312 342.054688 306.257812 342.644531 C 306.824219 343.238281 307.484375 343.691406 308.238281 344.003906 C 308.992188 344.320312 309.824219 344.476562 310.726562 344.476562 Z M 316.988281 343.871094 L 316.535156 343.871094 C 316.234375 344.449219 315.851562 344.953125 315.386719 345.378906 C 314.921875 345.808594 314.417969 346.160156 313.878906 346.4375 C 313.335938 346.714844 312.765625 346.921875 312.160156 347.058594 C 311.558594 347.195312 310.980469 347.265625 310.425781 347.265625 C 309.167969 347.265625 308 347.050781 306.917969 346.625 C 305.839844 346.199219 304.890625 345.582031 304.074219 344.777344 C 303.253906 343.972656 302.613281 342.972656 302.148438 341.777344 C 301.683594 340.585938 301.449219 339.222656 301.449219 337.6875 L 301.449219 337.085938 C 301.449219 335.574219 301.691406 334.222656 302.167969 333.03125 C 302.644531 331.835938 303.285156 330.832031 304.089844 330.011719 C 304.894531 329.195312 305.839844 328.574219 306.917969 328.144531 C 308 327.71875 309.144531 327.503906 310.351562 327.503906 C 311.632812 327.503906 312.832031 327.789062 313.953125 328.355469 C 315.070312 328.917969 315.933594 329.792969 316.535156 330.976562 L 316.988281 330.976562 L 316.988281 320.339844 L 319.929688 320.339844 L 319.929688 346.738281 L 316.988281 346.738281 Z M 316.988281 343.871094 "/>
<path fill-rule="nonzero" fill="rgb(0%, 0%, 100%)" fill-opacity="1" d="M 348.929688 320.339844 L 364.921875 320.339844 L 364.921875 323.28125 L 352.097656 323.28125 L 352.097656 332.03125 L 364.695312 332.03125 L 364.695312 334.972656 L 352.097656 334.972656 L 352.097656 343.796875 L 365.144531 343.796875 L 365.144531 346.738281 L 348.929688 346.738281 Z M 348.929688 320.339844 "/>
<path fill-rule="nonzero" fill="rgb(0%, 0%, 100%)" fill-opacity="1" d="M 374.6875 346.738281 L 371.746094 346.738281 L 371.746094 328.03125 L 374.6875 328.03125 L 374.6875 331.199219 L 375.140625 331.199219 C 376.296875 328.738281 378.308594 327.503906 381.171875 327.503906 C 383.335938 327.503906 385.058594 328.179688 386.339844 329.523438 C 387.621094 330.867188 388.265625 332.886719 388.265625 335.574219 L 388.265625 346.738281 L 385.320312 346.738281 L 385.320312 336.179688 C 385.320312 334.21875 384.882812 332.746094 384.003906 331.765625 C 383.121094 330.785156 381.929688 330.296875 380.417969 330.296875 C 378.632812 330.296875 377.234375 330.90625 376.214844 332.125 C 375.195312 333.34375 374.6875 334.972656 374.6875 337.007812 Z M 374.6875 346.738281 "/>
<path fill-rule="nonzero" fill="rgb(0%, 0%, 100%)" fill-opacity="1" d="M 402.78125 344.476562 C 403.664062 344.476562 404.480469 344.3125 405.234375 343.984375 C 405.988281 343.660156 406.648438 343.191406 407.214844 342.589844 C 407.777344 341.988281 408.226562 341.261719 408.550781 340.421875 C 408.878906 339.578125 409.042969 338.644531 409.042969 337.613281 L 409.042969 337.160156 C 409.042969 336.152344 408.878906 335.230469 408.550781 334.386719 C 408.226562 333.546875 407.777344 332.824219 407.214844 332.21875 C 406.648438 331.617188 405.980469 331.144531 405.214844 330.804688 C 404.449219 330.464844 403.636719 330.296875 402.78125 330.296875 C 401.902344 330.296875 401.078125 330.460938 400.3125 330.785156 C 399.546875 331.113281 398.878906 331.578125 398.3125 332.179688 C 397.746094 332.785156 397.308594 333.5 396.992188 334.332031 C 396.679688 335.160156 396.523438 336.078125 396.523438 337.085938 L 396.523438 337.6875 C 396.523438 338.742188 396.679688 339.6875 396.992188 340.515625 C 397.308594 341.34375 397.746094 342.054688 398.3125 342.644531 C 398.878906 343.238281 399.539062 343.691406 400.292969 344.003906 C 401.046875 344.320312 401.878906 344.476562 402.78125 344.476562 Z M 409.042969 343.871094 L 408.589844 343.871094 C 407.988281 345.003906 407.164062 345.851562 406.121094 346.417969 C 405.078125 346.984375 403.9375 347.265625 402.707031 347.265625 C 401.449219 347.265625 400.269531 347.050781 399.164062 346.625 C 398.054688 346.199219 397.082031 345.582031 396.238281 344.777344 C 395.398438 343.972656 394.730469 342.972656 394.242188 341.777344 C 393.75 340.585938 393.503906 339.222656 393.503906 337.6875 L 393.503906 337.085938 C 393.503906 335.574219 393.757812 334.222656 394.261719 333.03125 C 394.761719 331.835938 395.429688 330.832031 396.257812 330.011719 C 397.089844 329.195312 398.054688 328.574219 399.164062 328.144531 C 400.269531 327.71875 401.425781 327.503906 402.632812 327.503906 C 403.988281 327.503906 405.175781 327.800781 406.195312 328.390625 C 407.214844 328.980469 408.011719 329.84375 408.589844 330.976562 L 409.042969 330.976562 L 409.042969 328.03125 L 411.984375 328.03125 L 411.984375 351.339844 C 411.984375 352.191406 411.714844 352.898438 411.171875 353.449219 C 410.632812 354.003906 409.933594 354.28125 409.082031 354.28125 L 396.898438 354.28125 L 396.898438 351.566406 L 408.023438 351.566406 C 408.703125 351.566406 409.042969 351.1875 409.042969 350.433594 Z M 409.042969 343.871094 "/>
<path fill-rule="nonzero" fill="rgb(0%, 0%, 100%)" fill-opacity="1" d="M 423.710938 322.453125 C 423.710938 321.722656 423.96875 321.101562 424.484375 320.585938 C 425 320.070312 425.621094 319.8125 426.351562 319.8125 C 427.082031 319.8125 427.703125 320.070312 428.21875 320.585938 C 428.734375 321.101562 428.992188 321.722656 428.992188 322.453125 C 428.992188 323.179688 428.734375 323.804688 428.21875 324.320312 C 427.703125 324.835938 427.082031 325.089844 426.351562 325.089844 C 425.621094 325.089844 425 324.835938 424.484375 324.320312 C 423.96875 323.804688 423.710938 323.179688 423.710938 322.453125 Z M 418.355469 344.023438 L 424.917969 344.023438 L 424.917969 330.75 L 419.035156 330.75 L 419.035156 328.03125 L 427.859375 328.03125 L 427.859375 344.023438 L 433.96875 344.023438 L 433.96875 346.738281 L 418.355469 346.738281 Z M 418.355469 344.023438 "/>
<path fill-rule="nonzero" fill="rgb(0%, 0%, 100%)" fill-opacity="1" d="M 443.925781 346.738281 L 440.984375 346.738281 L 440.984375 328.03125 L 443.925781 328.03125 L 443.925781 331.199219 L 444.378906 331.199219 C 445.535156 328.738281 447.546875 327.503906 450.414062 327.503906 C 452.574219 327.503906 454.296875 328.179688 455.578125 329.523438 C 456.859375 330.867188 457.5 332.886719 457.5 335.574219 L 457.5 346.738281 L 454.5625 346.738281 L 454.5625 336.179688 C 454.5625 334.21875 454.121094 332.746094 453.242188 331.765625 C 452.359375 330.785156 451.167969 330.296875 449.65625 330.296875 C 447.871094 330.296875 446.472656 330.90625 445.453125 332.125 C 444.433594 333.34375 443.925781 334.972656 443.925781 337.007812 Z M 443.925781 346.738281 "/>
<path fill-rule="nonzero" fill="rgb(0%, 0%, 100%)" fill-opacity="1" d="M 472.472656 330.296875 C 471.644531 330.296875 470.871094 330.429688 470.152344 330.691406 C 469.4375 330.957031 468.808594 331.328125 468.269531 331.804688 C 467.726562 332.28125 467.289062 332.839844 466.949219 333.484375 C 466.609375 334.125 466.390625 334.820312 466.289062 335.574219 L 478.355469 335.574219 C 478.304688 334.769531 478.113281 334.042969 477.773438 333.386719 C 477.433594 332.734375 476.992188 332.183594 476.453125 331.730469 C 475.910156 331.277344 475.296875 330.925781 474.605469 330.671875 C 473.914062 330.421875 473.203125 330.296875 472.472656 330.296875 Z M 466.214844 338.289062 C 466.289062 340.152344 466.867188 341.648438 467.949219 342.777344 C 469.027344 343.910156 470.539062 344.476562 472.472656 344.476562 C 473.351562 344.476562 474.121094 344.375 474.773438 344.171875 C 475.425781 343.972656 475.988281 343.695312 476.453125 343.34375 C 476.917969 342.992188 477.292969 342.585938 477.582031 342.117188 C 477.871094 341.652344 478.105469 341.15625 478.28125 340.628906 L 481.070312 341.382812 C 480.542969 343.117188 479.570312 344.53125 478.148438 345.625 C 476.726562 346.71875 474.8125 347.265625 472.398438 347.265625 C 471.066406 347.265625 469.839844 347.03125 468.722656 346.566406 C 467.601562 346.101562 466.640625 345.445312 465.835938 344.589844 C 465.03125 343.734375 464.402344 342.714844 463.949219 341.535156 C 463.496094 340.351562 463.273438 339.042969 463.273438 337.613281 L 463.273438 336.707031 C 463.273438 335.398438 463.503906 334.179688 463.96875 333.046875 C 464.433594 331.917969 465.082031 330.945312 465.910156 330.125 C 466.742188 329.308594 467.714844 328.667969 468.835938 328.203125 C 469.953125 327.738281 471.164062 327.503906 472.472656 327.503906 C 474.007812 327.503906 475.332031 327.789062 476.453125 328.355469 C 477.570312 328.917969 478.488281 329.617188 479.207031 330.445312 C 479.921875 331.277344 480.449219 332.183594 480.789062 333.164062 C 481.128906 334.140625 481.296875 335.046875 481.296875 335.878906 L 481.296875 338.289062 Z M 466.214844 338.289062 "/>
<path fill-rule="nonzero" fill="rgb(0%, 0%, 100%)" fill-opacity="1" d="M 495.554688 330.296875 C 494.722656 330.296875 493.949219 330.429688 493.234375 330.691406 C 492.515625 330.957031 491.890625 331.328125 491.347656 331.804688 C 490.808594 332.28125 490.367188 332.839844 490.027344 333.484375 C 489.6875 334.125 489.46875 334.820312 489.367188 335.574219 L 501.4375 335.574219 C 501.386719 334.769531 501.191406 334.042969 500.851562 333.386719 C 500.511719 332.734375 500.074219 332.183594 499.53125 331.730469 C 498.992188 331.277344 498.375 330.925781 497.683594 330.671875 C 496.992188 330.421875 496.28125 330.296875 495.554688 330.296875 Z M 489.292969 338.289062 C 489.367188 340.152344 489.945312 341.648438 491.027344 342.777344 C 492.109375 343.910156 493.617188 344.476562 495.554688 344.476562 C 496.433594 344.476562 497.199219 344.375 497.855469 344.171875 C 498.507812 343.972656 499.066406 343.695312 499.53125 343.34375 C 499.996094 342.992188 500.375 342.585938 500.664062 342.117188 C 500.953125 341.652344 501.183594 341.15625 501.359375 340.628906 L 504.152344 341.382812 C 503.625 343.117188 502.648438 344.53125 501.230469 345.625 C 499.808594 346.71875 497.890625 347.265625 495.476562 347.265625 C 494.144531 347.265625 492.917969 347.03125 491.800781 346.566406 C 490.683594 346.101562 489.71875 345.445312 488.914062 344.589844 C 488.109375 343.734375 487.484375 342.714844 487.03125 341.535156 C 486.578125 340.351562 486.351562 339.042969 486.351562 337.613281 L 486.351562 336.707031 C 486.351562 335.398438 486.582031 334.179688 487.050781 333.046875 C 487.515625 331.917969 488.160156 330.945312 488.992188 330.125 C 489.820312 329.308594 490.796875 328.667969 491.914062 328.203125 C 493.03125 327.738281 494.246094 327.503906 495.554688 327.503906 C 497.085938 327.503906 498.414062 327.789062 499.53125 328.355469 C 500.648438 328.917969 501.570312 329.617188 502.285156 330.445312 C 503 331.277344 503.527344 332.183594 503.867188 333.164062 C 504.207031 334.140625 504.378906 335.046875 504.378906 335.878906 L 504.378906 338.289062 Z M 489.292969 338.289062 "/>
<path fill-rule="nonzero" fill="rgb(0%, 0%, 100%)" fill-opacity="1" d="M 509.167969 328.03125 L 515.957031 328.03125 L 515.957031 330.523438 L 516.40625 330.523438 C 516.886719 329.492188 517.5625 328.730469 518.445312 328.242188 C 519.324219 327.75 520.328125 327.503906 521.460938 327.503906 C 523.347656 327.503906 524.867188 328.121094 526.023438 329.351562 C 527.179688 330.585938 527.796875 332.382812 527.871094 334.746094 L 524.78125 335.199219 C 524.78125 333.464844 524.363281 332.210938 523.535156 331.445312 C 522.707031 330.679688 521.6875 330.296875 520.480469 330.296875 C 519.699219 330.296875 519.027344 330.445312 518.464844 330.75 C 517.898438 331.050781 517.425781 331.464844 517.046875 331.992188 C 516.671875 332.519531 516.394531 333.136719 516.21875 333.839844 C 516.042969 334.542969 515.957031 335.300781 515.957031 336.101562 L 515.957031 344.023438 L 520.707031 344.023438 L 520.707031 346.738281 L 508.714844 346.738281 L 508.714844 344.023438 L 513.015625 344.023438 L 513.015625 330.75 L 509.167969 330.75 Z M 509.167969 328.03125 "/>
<path fill-rule="nonzero" fill="rgb(0%, 0%, 100%)" fill-opacity="1" d="M 539.109375 322.453125 C 539.109375 321.722656 539.367188 321.101562 539.882812 320.585938 C 540.398438 320.070312 541.019531 319.8125 541.75 319.8125 C 542.480469 319.8125 543.101562 320.070312 543.617188 320.585938 C 544.132812 321.101562 544.390625 321.722656 544.390625 322.453125 C 544.390625 323.179688 544.132812 323.804688 543.617188 324.320312 C 543.101562 324.835938 542.480469 325.089844 541.75 325.089844 C 541.019531 325.089844 540.398438 324.835938 539.882812 324.320312 C 539.367188 323.804688 539.109375 323.179688 539.109375 322.453125 Z M 533.753906 344.023438 L 540.316406 344.023438 L 540.316406 330.75 L 534.433594 330.75 L 534.433594 328.03125 L 543.257812 328.03125 L 543.257812 344.023438 L 549.367188 344.023438 L 549.367188 346.738281 L 533.753906 346.738281 Z M 533.753906 344.023438 "/>
<path fill-rule="nonzero" fill="rgb(0%, 0%, 100%)" fill-opacity="1" d="M 559.324219 346.738281 L 556.382812 346.738281 L 556.382812 328.03125 L 559.324219 328.03125 L 559.324219 331.199219 L 559.777344 331.199219 C 560.933594 328.738281 562.945312 327.503906 565.808594 327.503906 C 567.972656 327.503906 569.695312 328.179688 570.976562 329.523438 C 572.257812 330.867188 572.898438 332.886719 572.898438 335.574219 L 572.898438 346.738281 L 569.957031 346.738281 L 569.957031 336.179688 C 569.957031 334.21875 569.519531 332.746094 568.636719 331.765625 C 567.757812 330.785156 566.5625 330.296875 565.054688 330.296875 C 563.269531 330.296875 561.867188 330.90625 560.851562 332.125 C 559.832031 333.34375 559.324219 334.972656 559.324219 337.007812 Z M 559.324219 346.738281 "/>
<path fill-rule="nonzero" fill="rgb(0%, 0%, 100%)" fill-opacity="1" d="M 587.417969 344.476562 C 588.300781 344.476562 589.117188 344.3125 589.871094 343.984375 C 590.625 343.660156 591.285156 343.191406 591.851562 342.589844 C 592.414062 341.988281 592.863281 341.261719 593.1875 340.421875 C 593.515625 339.578125 593.679688 338.644531 593.679688 337.613281 L 593.679688 337.160156 C 593.679688 336.152344 593.515625 335.230469 593.1875 334.386719 C 592.863281 333.546875 592.414062 332.824219 591.851562 332.21875 C 591.285156 331.617188 590.617188 331.144531 589.851562 330.804688 C 589.085938 330.464844 588.273438 330.296875 587.417969 330.296875 C 586.539062 330.296875 585.714844 330.460938 584.949219 330.785156 C 584.179688 331.113281 583.515625 331.578125 582.949219 332.179688 C 582.382812 332.785156 581.945312 333.5 581.628906 334.332031 C 581.316406 335.160156 581.160156 336.078125 581.160156 337.085938 L 581.160156 337.6875 C 581.160156 338.742188 581.316406 339.6875 581.628906 340.515625 C 581.945312 341.34375 582.382812 342.054688 582.949219 342.644531 C 583.515625 343.238281 584.175781 343.691406 584.929688 344.003906 C 585.683594 344.320312 586.515625 344.476562 587.417969 344.476562 Z M 593.679688 343.871094 L 593.226562 343.871094 C 592.625 345.003906 591.800781 345.851562 590.757812 346.417969 C 589.714844 346.984375 588.574219 347.265625 587.34375 347.265625 C 586.085938 347.265625 584.90625 347.050781 583.796875 346.625 C 582.691406 346.199219 581.71875 345.582031 580.875 344.777344 C 580.03125 343.972656 579.367188 342.972656 578.878906 341.777344 C 578.386719 340.585938 578.140625 339.222656 578.140625 337.6875 L 578.140625 337.085938 C 578.140625 335.574219 578.394531 334.222656 578.894531 333.03125 C 579.398438 331.835938 580.066406 330.832031 580.894531 330.011719 C 581.726562 329.195312 582.691406 328.574219 583.796875 328.144531 C 584.90625 327.71875 586.0625 327.503906 587.269531 327.503906 C 588.625 327.503906 589.8125 327.800781 590.832031 328.390625 C 591.851562 328.980469 592.648438 329.84375 593.226562 330.976562 L 593.679688 330.976562 L 593.679688 328.03125 L 596.621094 328.03125 L 596.621094 351.339844 C 596.621094 352.191406 596.351562 352.898438 595.808594 353.449219 C 595.269531 354.003906 594.570312 354.28125 593.714844 354.28125 L 581.535156 354.28125 L 581.535156 351.566406 L 592.660156 351.566406 C 593.339844 351.566406 593.679688 351.1875 593.679688 350.433594 Z M 593.679688 343.871094 "/>
<path fill-rule="evenodd" fill="rgb(0%, 0%, 100%)" fill-opacity="1" d="M 338.964844 230.855469 L 394.035156 230.808594 L 394.066406 142.105469 L 405.738281 141.691406 C 414.402344 151.734375 422.628906 162.40625 431.207031 173.09375 L 476.355469 228.722656 C 479.503906 232.015625 484.390625 230.859375 489.269531 230.824219 C 507.625 230.699219 529.082031 231.921875 546.984375 230.671875 C 543.894531 224.230469 452.703125 119.996094 451.222656 115.039062 L 495.207031 60.703125 C 499.15625 55.878906 537.496094 9.699219 539.570312 5.421875 C 532.417969 5.398438 473.898438 4.671875 472.046875 5.835938 C 460.886719 20.664062 450 34.695312 439.128906 49.410156 C 433.554688 56.957031 428.367188 63.617188 422.46875 71.484375 C 403.601562 96.664062 409.914062 93.007812 394.199219 93.070312 L 394.050781 5.429688 L 338.953125 5.375 Z M 338.964844 230.855469 "/>
<path fill-rule="evenodd" fill="rgb(0%, 0%, 100%)" fill-opacity="1" d="M 206.980469 194.269531 C 205.214844 191.332031 173.757812 159.503906 170.644531 158.195312 C 162.890625 165.726562 155.519531 173.441406 141.972656 178.546875 C 128.515625 183.613281 113.042969 183.570312 99.445312 178.527344 C 47.996094 159.441406 46.964844 74.6875 98.699219 55.121094 C 111.71875 50.195312 128.425781 49.972656 141.332031 54.820312 C 159.542969 61.660156 161.164062 68.21875 170.644531 75.460938 C 174.117188 73.765625 205.246094 42.136719 206.9375 39.257812 C 197.457031 25.492188 170.730469 10.15625 152.460938 4.925781 C 128.152344 -2.03125 99.0625 -0.617188 76.390625 8.699219 C -18.9375 47.859375 -13.65625 189.664062 76.398438 224.785156 C 111.851562 238.605469 150.535156 235.101562 182.792969 215.0625 C 188.902344 211.269531 204.671875 199.550781 206.980469 194.269531 "/>
<path fill-rule="evenodd" fill="rgb(0%, 0%, 100%)" fill-opacity="1" d="M 216.023438 257.132812 C 217.914062 260.785156 237.761719 275.234375 243.488281 279.859375 C 246.238281 282.078125 250.257812 285.671875 253.3125 287.304688 C 257.289062 284.910156 268.847656 271.0625 272.464844 265.953125 C 294.339844 235.074219 300.027344 210.132812 299.988281 169.292969 C 299.976562 158.203125 300.96875 10.957031 299.554688 4.246094 L 245.164062 4.300781 C 244.246094 11.507812 244.9375 133.632812 244.9375 144.320312 C 244.9375 164.984375 246.707031 193.148438 241.417969 211.609375 C 237.582031 224.992188 231.453125 235.976562 223.917969 246.699219 C 221.105469 250.703125 218.273438 253.6875 216.023438 257.132812 "/>
<path fill-rule="nonzero" fill="rgb(0%, 0%, 100%)" fill-opacity="1" d="M 4.988281 745.710938 L 10.871094 745.710938 C 14.390625 745.710938 16.152344 744.203125 16.152344 741.183594 L 16.152344 740.503906 C 16.152344 739.171875 15.71875 738.097656 14.851562 737.28125 C 13.984375 736.464844 12.65625 736.054688 10.871094 736.054688 L 4.988281 736.054688 Z M 4.988281 748.652344 L 4.988281 759.511719 L 1.820312 759.511719 L 1.820312 733.113281 L 11.25 733.113281 C 12.609375 733.113281 13.789062 733.308594 14.796875 733.699219 C 15.800781 734.089844 16.636719 734.609375 17.300781 735.265625 C 17.96875 735.917969 18.472656 736.679688 18.8125 737.546875 C 19.152344 738.414062 19.320312 739.324219 19.320312 740.28125 L 19.320312 741.410156 C 19.320312 742.367188 19.152344 743.285156 18.8125 744.164062 C 18.472656 745.042969 17.960938 745.816406 17.285156 746.484375 C 16.605469 747.148438 15.761719 747.675781 14.757812 748.066406 C 13.75 748.457031 12.582031 748.652344 11.25 748.652344 Z M 4.988281 748.652344 "/>
<path fill-rule="nonzero" fill="rgb(0%, 0%, 100%)" fill-opacity="1" d="M 33.386719 743.070312 C 32.558594 743.070312 31.785156 743.203125 31.066406 743.464844 C 30.351562 743.730469 29.722656 744.101562 29.183594 744.578125 C 28.640625 745.054688 28.203125 745.617188 27.863281 746.257812 C 27.523438 746.898438 27.300781 747.59375 27.203125 748.347656 L 39.269531 748.347656 C 39.21875 747.546875 39.023438 746.816406 38.683594 746.164062 C 38.34375 745.507812 37.90625 744.957031 37.363281 744.503906 C 36.824219 744.050781 36.207031 743.699219 35.515625 743.445312 C 34.824219 743.195312 34.117188 743.070312 33.386719 743.070312 Z M 27.125 751.066406 C 27.203125 752.925781 27.78125 754.421875 28.859375 755.550781 C 29.941406 756.683594 31.449219 757.25 33.386719 757.25 C 34.265625 757.25 35.035156 757.148438 35.6875 756.949219 C 36.339844 756.746094 36.898438 756.472656 37.363281 756.117188 C 37.828125 755.765625 38.207031 755.359375 38.496094 754.894531 C 38.785156 754.429688 39.019531 753.929688 39.195312 753.402344 L 41.984375 754.15625 C 41.457031 755.890625 40.484375 757.304688 39.0625 758.398438 C 37.640625 759.492188 35.726562 760.039062 33.3125 760.039062 C 31.976562 760.039062 30.753906 759.808594 29.632812 759.34375 C 28.515625 758.878906 27.554688 758.21875 26.75 757.363281 C 25.945312 756.507812 25.316406 755.492188 24.863281 754.308594 C 24.410156 753.125 24.183594 751.820312 24.183594 750.386719 L 24.183594 749.480469 C 24.183594 748.171875 24.417969 746.953125 24.882812 745.824219 C 25.347656 744.691406 25.996094 743.71875 26.824219 742.898438 C 27.652344 742.082031 28.628906 741.441406 29.746094 740.976562 C 30.867188 740.511719 32.078125 740.28125 33.386719 740.28125 C 34.917969 740.28125 36.246094 740.5625 37.363281 741.128906 C 38.484375 741.695312 39.402344 742.390625 40.117188 743.222656 C 40.835938 744.050781 41.363281 744.957031 41.703125 745.9375 C 42.042969 746.917969 42.210938 747.820312 42.210938 748.652344 L 42.210938 751.066406 Z M 27.125 751.066406 "/>
<path fill-rule="nonzero" fill="rgb(0%, 0%, 100%)" fill-opacity="1" d="M 56.316406 757.25 C 57.21875 757.25 58.054688 757.09375 58.824219 756.777344 C 59.589844 756.464844 60.261719 756.003906 60.839844 755.402344 C 61.417969 754.796875 61.871094 754.074219 62.199219 753.234375 C 62.523438 752.390625 62.6875 751.441406 62.6875 750.386719 L 62.6875 749.933594 C 62.6875 748.929688 62.523438 748.003906 62.199219 747.160156 C 61.871094 746.320312 61.417969 745.597656 60.839844 744.992188 C 60.261719 744.390625 59.582031 743.917969 58.804688 743.578125 C 58.023438 743.238281 57.195312 743.070312 56.316406 743.070312 C 55.433594 743.070312 54.605469 743.238281 53.828125 743.578125 C 53.046875 743.917969 52.367188 744.390625 51.789062 744.992188 C 51.210938 745.597656 50.757812 746.320312 50.433594 747.160156 C 50.105469 748.003906 49.941406 748.929688 49.941406 749.933594 L 49.941406 750.386719 C 49.941406 751.441406 50.105469 752.390625 50.433594 753.234375 C 50.757812 754.074219 51.210938 754.796875 51.789062 755.402344 C 52.367188 756.003906 53.039062 756.464844 53.808594 756.777344 C 54.574219 757.09375 55.410156 757.25 56.316406 757.25 Z M 65.707031 750.386719 C 65.707031 751.945312 65.449219 753.320312 64.933594 754.515625 C 64.417969 755.710938 63.730469 756.714844 62.878906 757.53125 C 62.023438 758.351562 61.023438 758.972656 59.878906 759.398438 C 58.734375 759.828125 57.546875 760.039062 56.316406 760.039062 C 55.058594 760.039062 53.863281 759.828125 52.734375 759.398438 C 51.601562 758.972656 50.609375 758.351562 49.753906 757.53125 C 48.898438 756.714844 48.214844 755.710938 47.699219 754.515625 C 47.183594 753.320312 46.925781 751.945312 46.925781 750.386719 L 46.925781 749.933594 C 46.925781 748.398438 47.183594 747.035156 47.699219 745.84375 C 48.214844 744.648438 48.90625 743.636719 49.773438 742.804688 C 50.640625 741.976562 51.640625 741.347656 52.769531 740.921875 C 53.902344 740.492188 55.082031 740.28125 56.316406 740.28125 C 57.546875 740.28125 58.730469 740.492188 59.859375 740.921875 C 60.992188 741.347656 61.992188 741.976562 62.859375 742.804688 C 63.726562 743.636719 64.417969 744.648438 64.933594 745.84375 C 65.449219 747.035156 65.707031 748.398438 65.707031 749.933594 Z M 65.707031 750.386719 "/>
<path fill-rule="nonzero" fill="rgb(0%, 0%, 100%)" fill-opacity="1" d="M 79.660156 757.25 C 80.5625 757.25 81.394531 757.09375 82.148438 756.777344 C 82.902344 756.464844 83.5625 756.019531 84.128906 755.441406 C 84.695312 754.859375 85.132812 754.15625 85.449219 753.328125 C 85.761719 752.5 85.917969 751.566406 85.917969 750.535156 L 85.917969 749.78125 C 85.917969 748.777344 85.761719 747.867188 85.449219 747.046875 C 85.132812 746.230469 84.695312 745.527344 84.128906 744.9375 C 83.5625 744.347656 82.894531 743.886719 82.128906 743.558594 C 81.363281 743.234375 80.539062 743.070312 79.660156 743.070312 C 78.777344 743.070312 77.960938 743.238281 77.207031 743.578125 C 76.453125 743.917969 75.792969 744.390625 75.226562 744.992188 C 74.660156 745.597656 74.214844 746.320312 73.890625 747.160156 C 73.5625 748.003906 73.398438 748.929688 73.398438 749.933594 L 73.398438 750.386719 C 73.398438 751.417969 73.5625 752.355469 73.890625 753.195312 C 74.214844 754.039062 74.660156 754.761719 75.226562 755.363281 C 75.792969 755.96875 76.453125 756.433594 77.207031 756.757812 C 77.960938 757.085938 78.777344 757.25 79.660156 757.25 Z M 73.398438 767.054688 L 70.457031 767.054688 L 70.457031 740.808594 L 73.398438 740.808594 L 73.398438 743.75 L 73.851562 743.75 C 74.503906 742.617188 75.410156 741.757812 76.566406 741.164062 C 77.722656 740.574219 78.980469 740.28125 80.335938 740.28125 C 81.492188 740.28125 82.585938 740.492188 83.617188 740.921875 C 84.648438 741.347656 85.5625 741.964844 86.351562 742.769531 C 87.144531 743.574219 87.773438 744.566406 88.238281 745.746094 C 88.703125 746.929688 88.9375 748.273438 88.9375 749.78125 L 88.9375 750.535156 C 88.9375 752.070312 88.710938 753.429688 88.257812 754.609375 C 87.804688 755.792969 87.183594 756.785156 86.390625 757.589844 C 85.597656 758.394531 84.675781 759.003906 83.617188 759.417969 C 82.5625 759.832031 81.445312 760.039062 80.261719 760.039062 C 79.660156 760.039062 79.042969 759.972656 78.414062 759.832031 C 77.785156 759.695312 77.1875 759.480469 76.625 759.191406 C 76.058594 758.902344 75.535156 758.550781 75.058594 758.136719 C 74.582031 757.722656 74.179688 757.226562 73.851562 756.648438 L 73.398438 756.648438 Z M 73.398438 767.054688 "/>
<path fill-rule="nonzero" fill="rgb(0%, 0%, 100%)" fill-opacity="1" d="M 94.214844 756.796875 L 101.003906 756.796875 L 101.003906 735.828125 L 94.441406 735.828125 L 94.441406 733.113281 L 103.945312 733.113281 L 103.945312 756.796875 L 110.734375 756.796875 L 110.734375 759.511719 L 94.214844 759.511719 Z M 94.214844 756.796875 "/>
<path fill-rule="nonzero" fill="rgb(0%, 0%, 100%)" fill-opacity="1" d="M 125.703125 743.070312 C 124.875 743.070312 124.101562 743.203125 123.386719 743.464844 C 122.667969 743.730469 122.039062 744.101562 121.5 744.578125 C 120.960938 745.054688 120.519531 745.617188 120.179688 746.257812 C 119.839844 746.898438 119.621094 747.59375 119.519531 748.347656 L 131.585938 748.347656 C 131.539062 747.546875 131.34375 746.816406 131.003906 746.164062 C 130.664062 745.507812 130.222656 744.957031 129.683594 744.503906 C 129.140625 744.050781 128.527344 743.699219 127.835938 743.445312 C 127.144531 743.195312 126.433594 743.070312 125.703125 743.070312 Z M 119.445312 751.066406 C 119.519531 752.925781 120.097656 754.421875 121.179688 755.550781 C 122.261719 756.683594 123.769531 757.25 125.703125 757.25 C 126.585938 757.25 127.351562 757.148438 128.003906 756.949219 C 128.660156 756.746094 129.21875 756.472656 129.683594 756.117188 C 130.148438 755.765625 130.523438 755.359375 130.816406 754.894531 C 131.101562 754.429688 131.335938 753.929688 131.511719 753.402344 L 134.304688 754.15625 C 133.777344 755.890625 132.800781 757.304688 131.378906 758.398438 C 129.960938 759.492188 128.042969 760.039062 125.628906 760.039062 C 124.296875 760.039062 123.070312 759.808594 121.953125 759.34375 C 120.832031 758.878906 119.871094 758.21875 119.066406 757.363281 C 118.261719 756.507812 117.632812 755.492188 117.183594 754.308594 C 116.730469 753.125 116.503906 751.820312 116.503906 750.386719 L 116.503906 749.480469 C 116.503906 748.171875 116.734375 746.953125 117.199219 745.824219 C 117.664062 744.691406 118.3125 743.71875 119.144531 742.898438 C 119.972656 742.082031 120.945312 741.441406 122.066406 740.976562 C 123.183594 740.511719 124.398438 740.28125 125.703125 740.28125 C 127.238281 740.28125 128.5625 740.5625 129.683594 741.128906 C 130.800781 741.695312 131.71875 742.390625 132.4375 743.222656 C 133.152344 744.050781 133.679688 744.957031 134.019531 745.9375 C 134.359375 746.917969 134.53125 747.820312 134.53125 748.652344 L 134.53125 751.066406 Z M 119.445312 751.066406 "/>
<path fill-rule="nonzero" fill="rgb(0%, 0%, 100%)" fill-opacity="1" d="M 166.546875 745.710938 L 172.429688 745.710938 C 175.949219 745.710938 177.710938 744.203125 177.710938 741.183594 L 177.710938 740.503906 C 177.710938 739.171875 177.277344 738.097656 176.40625 737.28125 C 175.539062 736.464844 174.214844 736.054688 172.429688 736.054688 L 166.546875 736.054688 Z M 166.546875 748.652344 L 166.546875 759.511719 L 163.378906 759.511719 L 163.378906 733.113281 L 172.804688 733.113281 C 174.164062 733.113281 175.34375 733.308594 176.351562 733.699219 C 177.355469 734.089844 178.191406 734.609375 178.859375 735.265625 C 179.523438 735.917969 180.027344 736.679688 180.367188 737.546875 C 180.707031 738.414062 180.878906 739.324219 180.878906 740.28125 L 180.878906 741.410156 C 180.878906 742.367188 180.707031 743.285156 180.367188 744.164062 C 180.027344 745.042969 179.519531 745.816406 178.839844 746.484375 C 178.160156 747.148438 177.320312 747.675781 176.3125 748.066406 C 175.308594 748.457031 174.140625 748.652344 172.804688 748.652344 Z M 166.546875 748.652344 "/>
<path fill-rule="nonzero" fill="rgb(0%, 0%, 100%)" fill-opacity="1" d="M 194.792969 757.25 C 195.699219 757.25 196.53125 757.09375 197.300781 756.777344 C 198.066406 756.464844 198.738281 756.003906 199.316406 755.402344 C 199.894531 754.796875 200.347656 754.074219 200.675781 753.234375 C 201.003906 752.390625 201.164062 751.441406 201.164062 750.386719 L 201.164062 749.933594 C 201.164062 748.929688 201.003906 748.003906 200.675781 747.160156 C 200.347656 746.320312 199.894531 745.597656 199.316406 744.992188 C 198.738281 744.390625 198.0625 743.917969 197.28125 743.578125 C 196.5 743.238281 195.671875 743.070312 194.792969 743.070312 C 193.914062 743.070312 193.082031 743.238281 192.304688 743.578125 C 191.523438 743.917969 190.84375 744.390625 190.265625 744.992188 C 189.6875 745.597656 189.234375 746.320312 188.910156 747.160156 C 188.582031 748.003906 188.417969 748.929688 188.417969 749.933594 L 188.417969 750.386719 C 188.417969 751.441406 188.582031 752.390625 188.910156 753.234375 C 189.234375 754.074219 189.6875 754.796875 190.265625 755.402344 C 190.84375 756.003906 191.519531 756.464844 192.285156 756.777344 C 193.050781 757.09375 193.886719 757.25 194.792969 757.25 Z M 204.183594 750.386719 C 204.183594 751.945312 203.925781 753.320312 203.410156 754.515625 C 202.894531 755.710938 202.210938 756.714844 201.355469 757.53125 C 200.5 758.351562 199.5 758.972656 198.355469 759.398438 C 197.210938 759.828125 196.023438 760.039062 194.792969 760.039062 C 193.535156 760.039062 192.339844 759.828125 191.210938 759.398438 C 190.078125 758.972656 189.085938 758.351562 188.230469 757.53125 C 187.375 756.714844 186.691406 755.710938 186.175781 754.515625 C 185.660156 753.320312 185.402344 751.945312 185.402344 750.386719 L 185.402344 749.933594 C 185.402344 748.398438 185.660156 747.035156 186.175781 745.84375 C 186.691406 744.648438 187.382812 743.636719 188.25 742.804688 C 189.117188 741.976562 190.117188 741.347656 191.246094 740.921875 C 192.378906 740.492188 193.5625 740.28125 194.792969 740.28125 C 196.023438 740.28125 197.207031 740.492188 198.339844 740.921875 C 199.46875 741.347656 200.46875 741.976562 201.335938 742.804688 C 202.203125 743.636719 202.894531 744.648438 203.410156 745.84375 C 203.925781 747.035156 204.183594 748.398438 204.183594 749.933594 Z M 204.183594 750.386719 "/>
<path fill-rule="nonzero" fill="rgb(0%, 0%, 100%)" fill-opacity="1" d="M 225.792969 759.511719 L 220.359375 759.511719 L 218.097656 742.164062 L 217.644531 742.164062 L 215.382812 759.511719 L 209.953125 759.511719 L 207.011719 740.808594 L 210.027344 740.808594 L 212.515625 758.15625 L 212.96875 758.15625 L 215.15625 740.808594 L 220.585938 740.808594 L 222.773438 758.15625 L 223.226562 758.15625 L 225.714844 740.808594 L 228.734375 740.808594 Z M 225.792969 759.511719 "/>
<path fill-rule="nonzero" fill="rgb(0%, 0%, 100%)" fill-opacity="1" d="M 241.101562 743.070312 C 240.273438 743.070312 239.5 743.203125 238.785156 743.464844 C 238.066406 743.730469 237.4375 744.101562 236.898438 744.578125 C 236.355469 745.054688 235.917969 745.617188 235.578125 746.257812 C 235.238281 746.898438 235.019531 747.59375 234.917969 748.347656 L 246.984375 748.347656 C 246.933594 747.546875 246.742188 746.816406 246.402344 746.164062 C 246.0625 745.507812 245.621094 744.957031 245.082031 744.503906 C 244.539062 744.050781 243.925781 743.699219 243.234375 743.445312 C 242.542969 743.195312 241.832031 743.070312 241.101562 743.070312 Z M 234.84375 751.066406 C 234.917969 752.925781 235.496094 754.421875 236.578125 755.550781 C 237.65625 756.683594 239.167969 757.25 241.101562 757.25 C 241.980469 757.25 242.75 757.148438 243.402344 756.949219 C 244.054688 756.746094 244.617188 756.472656 245.082031 756.117188 C 245.546875 755.765625 245.921875 755.359375 246.210938 754.894531 C 246.5 754.429688 246.734375 753.929688 246.910156 753.402344 L 249.699219 754.15625 C 249.171875 755.890625 248.199219 757.304688 246.777344 758.398438 C 245.359375 759.492188 243.441406 760.039062 241.027344 760.039062 C 239.695312 760.039062 238.46875 759.808594 237.351562 759.34375 C 236.230469 758.878906 235.269531 758.21875 234.464844 757.363281 C 233.660156 756.507812 233.03125 755.492188 232.578125 754.308594 C 232.128906 753.125 231.902344 751.820312 231.902344 750.386719 L 231.902344 749.480469 C 231.902344 748.171875 232.132812 746.953125 232.597656 745.824219 C 233.0625 744.691406 233.710938 743.71875 234.539062 742.898438 C 235.371094 742.082031 236.34375 741.441406 237.464844 740.976562 C 238.582031 740.511719 239.792969 740.28125 241.101562 740.28125 C 242.636719 740.28125 243.960938 740.5625 245.082031 741.128906 C 246.199219 741.695312 247.117188 742.390625 247.832031 743.222656 C 248.550781 744.050781 249.078125 744.957031 249.417969 745.9375 C 249.757812 746.917969 249.925781 747.820312 249.925781 748.652344 L 249.925781 751.066406 Z M 234.84375 751.066406 "/>
<path fill-rule="nonzero" fill="rgb(0%, 0%, 100%)" fill-opacity="1" d="M 254.714844 740.808594 L 261.503906 740.808594 L 261.503906 743.296875 L 261.957031 743.296875 C 262.433594 742.265625 263.113281 741.503906 263.992188 741.015625 C 264.875 740.523438 265.878906 740.28125 267.011719 740.28125 C 268.894531 740.28125 270.417969 740.894531 271.574219 742.128906 C 272.730469 743.359375 273.347656 745.15625 273.421875 747.519531 L 270.328125 747.972656 C 270.328125 746.238281 269.914062 744.988281 269.085938 744.21875 C 268.253906 743.453125 267.238281 743.070312 266.03125 743.070312 C 265.25 743.070312 264.578125 743.222656 264.011719 743.523438 C 263.445312 743.824219 262.976562 744.238281 262.597656 744.765625 C 262.222656 745.296875 261.945312 745.910156 261.769531 746.613281 C 261.59375 747.320312 261.503906 748.074219 261.503906 748.878906 L 261.503906 756.796875 L 266.257812 756.796875 L 266.257812 759.511719 L 254.265625 759.511719 L 254.265625 756.796875 L 258.5625 756.796875 L 258.5625 743.523438 L 254.714844 743.523438 Z M 254.714844 740.808594 "/>
<path fill-rule="nonzero" fill="rgb(0%, 0%, 100%)" fill-opacity="1" d="M 287.261719 743.070312 C 286.433594 743.070312 285.660156 743.203125 284.941406 743.464844 C 284.226562 743.730469 283.597656 744.101562 283.058594 744.578125 C 282.515625 745.054688 282.078125 745.617188 281.738281 746.257812 C 281.398438 746.898438 281.175781 747.59375 281.078125 748.347656 L 293.144531 748.347656 C 293.09375 747.546875 292.898438 746.816406 292.558594 746.164062 C 292.222656 745.507812 291.78125 744.957031 291.242188 744.503906 C 290.699219 744.050781 290.082031 743.699219 289.390625 743.445312 C 288.699219 743.195312 287.992188 743.070312 287.261719 743.070312 Z M 281 751.066406 C 281.078125 752.925781 281.65625 754.421875 282.734375 755.550781 C 283.816406 756.683594 285.324219 757.25 287.261719 757.25 C 288.140625 757.25 288.90625 757.148438 289.5625 756.949219 C 290.214844 756.746094 290.773438 756.472656 291.242188 756.117188 C 291.707031 755.765625 292.082031 755.359375 292.371094 754.894531 C 292.660156 754.429688 292.894531 753.929688 293.070312 753.402344 L 295.859375 754.15625 C 295.332031 755.890625 294.355469 757.304688 292.9375 758.398438 C 291.515625 759.492188 289.597656 760.039062 287.1875 760.039062 C 285.851562 760.039062 284.628906 759.808594 283.507812 759.34375 C 282.390625 758.878906 281.429688 758.21875 280.625 757.363281 C 279.820312 756.507812 279.191406 755.492188 278.738281 754.308594 C 278.285156 753.125 278.058594 751.820312 278.058594 750.386719 L 278.058594 749.480469 C 278.058594 748.171875 278.292969 746.953125 278.757812 745.824219 C 279.222656 744.691406 279.871094 743.71875 280.699219 742.898438 C 281.53125 742.082031 282.503906 741.441406 283.621094 740.976562 C 284.742188 740.511719 285.953125 740.28125 287.261719 740.28125 C 288.796875 740.28125 290.121094 740.5625 291.242188 741.128906 C 292.359375 741.695312 293.277344 742.390625 293.992188 743.222656 C 294.710938 744.050781 295.238281 744.957031 295.578125 745.9375 C 295.917969 746.917969 296.085938 747.820312 296.085938 748.652344 L 296.085938 751.066406 Z M 281 751.066406 "/>
<path fill-rule="nonzero" fill="rgb(0%, 0%, 100%)" fill-opacity="1" d="M 310.152344 757.25 C 311.03125 757.25 311.847656 757.085938 312.605469 756.757812 C 313.359375 756.433594 314.019531 755.96875 314.585938 755.363281 C 315.148438 754.761719 315.59375 754.039062 315.921875 753.195312 C 316.25 752.355469 316.414062 751.417969 316.414062 750.386719 L 316.414062 749.933594 C 316.414062 748.929688 316.25 748.003906 315.921875 747.160156 C 315.59375 746.320312 315.148438 745.597656 314.585938 744.992188 C 314.019531 744.390625 313.351562 743.917969 312.585938 743.578125 C 311.816406 743.238281 311.007812 743.070312 310.152344 743.070312 C 309.273438 743.070312 308.449219 743.234375 307.683594 743.558594 C 306.914062 743.886719 306.25 744.351562 305.683594 744.957031 C 305.117188 745.558594 304.679688 746.277344 304.363281 747.105469 C 304.050781 747.933594 303.890625 748.851562 303.890625 749.859375 L 303.890625 750.460938 C 303.890625 751.519531 304.050781 752.460938 304.363281 753.289062 C 304.679688 754.121094 305.117188 754.832031 305.683594 755.421875 C 306.25 756.011719 306.910156 756.464844 307.664062 756.777344 C 308.417969 757.09375 309.246094 757.25 310.152344 757.25 Z M 316.414062 756.648438 L 315.960938 756.648438 C 315.65625 757.226562 315.273438 757.726562 314.808594 758.15625 C 314.34375 758.582031 313.84375 758.933594 313.300781 759.210938 C 312.761719 759.488281 312.1875 759.695312 311.585938 759.832031 C 310.984375 759.972656 310.402344 760.039062 309.851562 760.039062 C 308.59375 760.039062 307.425781 759.828125 306.34375 759.398438 C 305.261719 758.972656 304.3125 758.355469 303.496094 757.550781 C 302.679688 756.746094 302.039062 755.746094 301.574219 754.554688 C 301.109375 753.359375 300.875 751.996094 300.875 750.460938 L 300.875 749.859375 C 300.875 748.347656 301.113281 747 301.59375 745.804688 C 302.070312 744.609375 302.710938 743.605469 303.515625 742.789062 C 304.320312 741.972656 305.261719 741.347656 306.34375 740.921875 C 307.425781 740.492188 308.570312 740.28125 309.777344 740.28125 C 311.058594 740.28125 312.257812 740.5625 313.378906 741.128906 C 314.496094 741.695312 315.355469 742.566406 315.960938 743.75 L 316.414062 743.75 L 316.414062 733.113281 L 319.355469 733.113281 L 319.355469 759.511719 L 316.414062 759.511719 Z M 316.414062 756.648438 "/>
<path fill-rule="nonzero" fill="rgb(0%, 0%, 100%)" fill-opacity="1" d="M 348.355469 733.113281 L 364.34375 733.113281 L 364.34375 736.054688 L 351.523438 736.054688 L 351.523438 744.804688 L 364.117188 744.804688 L 364.117188 747.746094 L 351.523438 747.746094 L 351.523438 756.570312 L 364.570312 756.570312 L 364.570312 759.511719 L 348.355469 759.511719 Z M 348.355469 733.113281 "/>
<path fill-rule="nonzero" fill="rgb(0%, 0%, 100%)" fill-opacity="1" d="M 374.113281 759.511719 L 371.167969 759.511719 L 371.167969 740.808594 L 374.113281 740.808594 L 374.113281 743.976562 L 374.5625 743.976562 C 375.71875 741.511719 377.730469 740.28125 380.597656 740.28125 C 382.761719 740.28125 384.480469 740.953125 385.765625 742.296875 C 387.046875 743.640625 387.6875 745.660156 387.6875 748.347656 L 387.6875 759.511719 L 384.746094 759.511719 L 384.746094 748.953125 C 384.746094 746.992188 384.304688 745.519531 383.425781 744.539062 C 382.546875 743.558594 381.351562 743.070312 379.84375 743.070312 C 378.058594 743.070312 376.65625 743.679688 375.640625 744.898438 C 374.621094 746.117188 374.113281 747.746094 374.113281 749.78125 Z M 374.113281 759.511719 "/>
<path fill-rule="nonzero" fill="rgb(0%, 0%, 100%)" fill-opacity="1" d="M 402.207031 757.25 C 403.085938 757.25 403.902344 757.085938 404.65625 756.757812 C 405.414062 756.433594 406.074219 755.96875 406.636719 755.363281 C 407.203125 754.761719 407.648438 754.039062 407.976562 753.195312 C 408.304688 752.355469 408.46875 751.417969 408.46875 750.386719 L 408.46875 749.933594 C 408.46875 748.929688 408.304688 748.003906 407.976562 747.160156 C 407.648438 746.320312 407.203125 745.597656 406.636719 744.992188 C 406.074219 744.390625 405.40625 743.917969 404.640625 743.578125 C 403.871094 743.238281 403.0625 743.070312 402.207031 743.070312 C 401.328125 743.070312 400.503906 743.234375 399.738281 743.558594 C 398.96875 743.886719 398.304688 744.351562 397.738281 744.957031 C 397.171875 745.558594 396.734375 746.277344 396.417969 747.105469 C 396.101562 747.933594 395.945312 748.851562 395.945312 749.859375 L 395.945312 750.460938 C 395.945312 751.519531 396.101562 752.460938 396.417969 753.289062 C 396.734375 754.121094 397.171875 754.832031 397.738281 755.421875 C 398.304688 756.011719 398.964844 756.464844 399.71875 756.777344 C 400.472656 757.09375 401.300781 757.25 402.207031 757.25 Z M 408.46875 756.648438 L 408.015625 756.648438 C 407.410156 757.777344 406.585938 758.625 405.542969 759.191406 C 404.5 759.757812 403.363281 760.039062 402.132812 760.039062 C 400.875 760.039062 399.691406 759.828125 398.585938 759.398438 C 397.480469 758.972656 396.507812 758.355469 395.664062 757.550781 C 394.820312 756.746094 394.15625 755.746094 393.664062 754.554688 C 393.175781 753.359375 392.929688 751.996094 392.929688 750.460938 L 392.929688 749.859375 C 392.929688 748.347656 393.179688 747 393.683594 745.804688 C 394.1875 744.609375 394.851562 743.605469 395.683594 742.789062 C 396.511719 741.972656 397.480469 741.347656 398.585938 740.921875 C 399.691406 740.492188 400.847656 740.28125 402.054688 740.28125 C 403.414062 740.28125 404.601562 740.574219 405.621094 741.164062 C 406.636719 741.757812 407.4375 742.617188 408.015625 743.75 L 408.46875 743.75 L 408.46875 740.808594 L 411.410156 740.808594 L 411.410156 764.113281 C 411.410156 764.96875 411.136719 765.671875 410.597656 766.226562 C 410.058594 766.777344 409.359375 767.054688 408.503906 767.054688 L 396.324219 767.054688 L 396.324219 764.339844 L 407.449219 764.339844 C 408.128906 764.339844 408.46875 763.960938 408.46875 763.207031 Z M 408.46875 756.648438 "/>
<path fill-rule="nonzero" fill="rgb(0%, 0%, 100%)" fill-opacity="1" d="M 423.136719 735.226562 C 423.136719 734.496094 423.394531 733.875 423.910156 733.359375 C 424.425781 732.84375 425.046875 732.585938 425.777344 732.585938 C 426.503906 732.585938 427.128906 732.84375 427.644531 733.359375 C 428.160156 733.875 428.417969 734.496094 428.417969 735.226562 C 428.417969 735.957031 428.160156 736.578125 427.644531 737.09375 C 427.128906 737.609375 426.503906 737.867188 425.777344 737.867188 C 425.046875 737.867188 424.425781 737.609375 423.910156 737.09375 C 423.394531 736.578125 423.136719 735.957031 423.136719 735.226562 Z M 417.78125 756.796875 L 424.34375 756.796875 L 424.34375 743.523438 L 418.460938 743.523438 L 418.460938 740.808594 L 427.285156 740.808594 L 427.285156 756.796875 L 433.394531 756.796875 L 433.394531 759.511719 L 417.78125 759.511719 Z M 417.78125 756.796875 "/>
<path fill-rule="nonzero" fill="rgb(0%, 0%, 100%)" fill-opacity="1" d="M 443.351562 759.511719 L 440.410156 759.511719 L 440.410156 740.808594 L 443.351562 740.808594 L 443.351562 743.976562 L 443.800781 743.976562 C 444.957031 741.511719 446.96875 740.28125 449.835938 740.28125 C 452 740.28125 453.722656 740.953125 455.003906 742.296875 C 456.285156 743.640625 456.925781 745.660156 456.925781 748.347656 L 456.925781 759.511719 L 453.984375 759.511719 L 453.984375 748.953125 C 453.984375 746.992188 453.542969 745.519531 452.664062 744.539062 C 451.785156 743.558594 450.589844 743.070312 449.082031 743.070312 C 447.296875 743.070312 445.894531 743.679688 444.878906 744.898438 C 443.859375 746.117188 443.351562 747.746094 443.351562 749.78125 Z M 443.351562 759.511719 "/>
<path fill-rule="nonzero" fill="rgb(0%, 0%, 100%)" fill-opacity="1" d="M 471.898438 743.070312 C 471.066406 743.070312 470.296875 743.203125 469.578125 743.464844 C 468.863281 743.730469 468.234375 744.101562 467.691406 744.578125 C 467.152344 745.054688 466.710938 745.617188 466.375 746.257812 C 466.035156 746.898438 465.8125 747.59375 465.714844 748.347656 L 477.78125 748.347656 C 477.730469 747.546875 477.535156 746.816406 477.195312 746.164062 C 476.855469 745.507812 476.417969 744.957031 475.875 744.503906 C 475.335938 744.050781 474.71875 743.699219 474.027344 743.445312 C 473.335938 743.195312 472.625 743.070312 471.898438 743.070312 Z M 465.636719 751.066406 C 465.714844 752.925781 466.289062 754.421875 467.371094 755.550781 C 468.453125 756.683594 469.960938 757.25 471.898438 757.25 C 472.777344 757.25 473.542969 757.148438 474.199219 756.949219 C 474.851562 756.746094 475.410156 756.472656 475.875 756.117188 C 476.34375 755.765625 476.71875 755.359375 477.007812 754.894531 C 477.296875 754.429688 477.527344 753.929688 477.707031 753.402344 L 480.496094 754.15625 C 479.96875 755.890625 478.992188 757.304688 477.574219 758.398438 C 476.152344 759.492188 474.234375 760.039062 471.824219 760.039062 C 470.488281 760.039062 469.265625 759.808594 468.144531 759.34375 C 467.027344 758.878906 466.066406 758.21875 465.261719 757.363281 C 464.457031 756.507812 463.828125 755.492188 463.375 754.308594 C 462.921875 753.125 462.695312 751.820312 462.695312 750.386719 L 462.695312 749.480469 C 462.695312 748.171875 462.929688 746.953125 463.394531 745.824219 C 463.859375 744.691406 464.507812 743.71875 465.335938 742.898438 C 466.164062 742.082031 467.140625 741.441406 468.257812 740.976562 C 469.378906 740.511719 470.589844 740.28125 471.898438 740.28125 C 473.429688 740.28125 474.757812 740.5625 475.875 741.128906 C 476.996094 741.695312 477.914062 742.390625 478.628906 743.222656 C 479.347656 744.050781 479.875 744.957031 480.214844 745.9375 C 480.554688 746.917969 480.722656 747.820312 480.722656 748.652344 L 480.722656 751.066406 Z M 465.636719 751.066406 "/>
<path fill-rule="nonzero" fill="rgb(0%, 0%, 100%)" fill-opacity="1" d="M 494.976562 743.070312 C 494.148438 743.070312 493.375 743.203125 492.660156 743.464844 C 491.941406 743.730469 491.3125 744.101562 490.773438 744.578125 C 490.230469 745.054688 489.792969 745.617188 489.453125 746.257812 C 489.113281 746.898438 488.894531 747.59375 488.792969 748.347656 L 500.859375 748.347656 C 500.808594 747.546875 500.617188 746.816406 500.277344 746.164062 C 499.9375 745.507812 499.496094 744.957031 498.957031 744.503906 C 498.414062 744.050781 497.800781 743.699219 497.109375 743.445312 C 496.417969 743.195312 495.707031 743.070312 494.976562 743.070312 Z M 488.71875 751.066406 C 488.792969 752.925781 489.371094 754.421875 490.453125 755.550781 C 491.53125 756.683594 493.039062 757.25 494.976562 757.25 C 495.859375 757.25 496.625 757.148438 497.277344 756.949219 C 497.929688 756.746094 498.492188 756.472656 498.957031 756.117188 C 499.421875 755.765625 499.796875 755.359375 500.085938 754.894531 C 500.375 754.429688 500.609375 753.929688 500.785156 753.402344 L 503.574219 754.15625 C 503.046875 755.890625 502.074219 757.304688 500.652344 758.398438 C 499.230469 759.492188 497.316406 760.039062 494.902344 760.039062 C 493.570312 760.039062 492.34375 759.808594 491.226562 759.34375 C 490.105469 758.878906 489.144531 758.21875 488.339844 757.363281 C 487.535156 756.507812 486.90625 755.492188 486.453125 754.308594 C 486.003906 753.125 485.777344 751.820312 485.777344 750.386719 L 485.777344 749.480469 C 485.777344 748.171875 486.007812 746.953125 486.472656 745.824219 C 486.9375 744.691406 487.585938 743.71875 488.414062 742.898438 C 489.246094 742.082031 490.21875 741.441406 491.339844 740.976562 C 492.457031 740.511719 493.671875 740.28125 494.976562 740.28125 C 496.511719 740.28125 497.835938 740.5625 498.957031 741.128906 C 500.074219 741.695312 500.992188 742.390625 501.710938 743.222656 C 502.425781 744.050781 502.953125 744.957031 503.292969 745.9375 C 503.632812 746.917969 503.800781 747.820312 503.800781 748.652344 L 503.800781 751.066406 Z M 488.71875 751.066406 "/>
<path fill-rule="nonzero" fill="rgb(0%, 0%, 100%)" fill-opacity="1" d="M 508.589844 740.808594 L 515.378906 740.808594 L 515.378906 743.296875 L 515.832031 743.296875 C 516.308594 742.265625 516.988281 741.503906 517.867188 741.015625 C 518.75 740.523438 519.753906 740.28125 520.886719 740.28125 C 522.769531 740.28125 524.292969 740.894531 525.449219 742.128906 C 526.605469 743.359375 527.222656 745.15625 527.296875 747.519531 L 524.203125 747.972656 C 524.203125 746.238281 523.789062 744.988281 522.960938 744.21875 C 522.128906 743.453125 521.113281 743.070312 519.90625 743.070312 C 519.125 743.070312 518.453125 743.222656 517.886719 743.523438 C 517.320312 743.824219 516.851562 744.238281 516.472656 744.765625 C 516.097656 745.296875 515.820312 745.910156 515.644531 746.613281 C 515.46875 747.320312 515.378906 748.074219 515.378906 748.878906 L 515.378906 756.796875 L 520.132812 756.796875 L 520.132812 759.511719 L 508.140625 759.511719 L 508.140625 756.796875 L 512.4375 756.796875 L 512.4375 743.523438 L 508.589844 743.523438 Z M 508.589844 740.808594 "/>
<path fill-rule="nonzero" fill="rgb(0%, 0%, 100%)" fill-opacity="1" d="M 538.535156 735.226562 C 538.535156 734.496094 538.792969 733.875 539.308594 733.359375 C 539.824219 732.84375 540.445312 732.585938 541.175781 732.585938 C 541.902344 732.585938 542.527344 732.84375 543.042969 733.359375 C 543.554688 733.875 543.8125 734.496094 543.8125 735.226562 C 543.8125 735.957031 543.554688 736.578125 543.042969 737.09375 C 542.527344 737.609375 541.902344 737.867188 541.175781 737.867188 C 540.445312 737.867188 539.824219 737.609375 539.308594 737.09375 C 538.792969 736.578125 538.535156 735.957031 538.535156 735.226562 Z M 533.179688 756.796875 L 539.742188 756.796875 L 539.742188 743.523438 L 533.859375 743.523438 L 533.859375 740.808594 L 542.683594 740.808594 L 542.683594 756.796875 L 548.792969 756.796875 L 548.792969 759.511719 L 533.179688 759.511719 Z M 533.179688 756.796875 "/>
<path fill-rule="nonzero" fill="rgb(0%, 0%, 100%)" fill-opacity="1" d="M 558.75 759.511719 L 555.804688 759.511719 L 555.804688 740.808594 L 558.75 740.808594 L 558.75 743.976562 L 559.199219 743.976562 C 560.355469 741.511719 562.367188 740.28125 565.234375 740.28125 C 567.394531 740.28125 569.117188 740.953125 570.402344 742.296875 C 571.683594 743.640625 572.324219 745.660156 572.324219 748.347656 L 572.324219 759.511719 L 569.382812 759.511719 L 569.382812 748.953125 C 569.382812 746.992188 568.941406 745.519531 568.0625 744.539062 C 567.183594 743.558594 565.988281 743.070312 564.480469 743.070312 C 562.695312 743.070312 561.292969 743.679688 560.277344 744.898438 C 559.257812 746.117188 558.75 747.746094 558.75 749.78125 Z M 558.75 759.511719 "/>
<path fill-rule="nonzero" fill="rgb(0%, 0%, 100%)" fill-opacity="1" d="M 586.84375 757.25 C 587.722656 757.25 588.539062 757.085938 589.292969 756.757812 C 590.046875 756.433594 590.710938 755.96875 591.273438 755.363281 C 591.839844 754.761719 592.285156 754.039062 592.613281 753.195312 C 592.941406 752.355469 593.101562 751.417969 593.101562 750.386719 L 593.101562 749.933594 C 593.101562 748.929688 592.941406 748.003906 592.613281 747.160156 C 592.285156 746.320312 591.839844 745.597656 591.273438 744.992188 C 590.710938 744.390625 590.042969 743.917969 589.277344 743.578125 C 588.507812 743.238281 587.699219 743.070312 586.84375 743.070312 C 585.964844 743.070312 585.140625 743.234375 584.375 743.558594 C 583.605469 743.886719 582.941406 744.351562 582.375 744.957031 C 581.808594 745.558594 581.367188 746.277344 581.054688 747.105469 C 580.738281 747.933594 580.582031 748.851562 580.582031 749.859375 L 580.582031 750.460938 C 580.582031 751.519531 580.738281 752.460938 581.054688 753.289062 C 581.367188 754.121094 581.808594 754.832031 582.375 755.421875 C 582.941406 756.011719 583.601562 756.464844 584.355469 756.777344 C 585.109375 757.09375 585.9375 757.25 586.84375 757.25 Z M 593.101562 756.648438 L 592.652344 756.648438 C 592.046875 757.777344 591.222656 758.625 590.179688 759.191406 C 589.136719 759.757812 588 760.039062 586.769531 760.039062 C 585.511719 760.039062 584.328125 759.828125 583.222656 759.398438 C 582.117188 758.972656 581.140625 758.355469 580.300781 757.550781 C 579.457031 756.746094 578.792969 755.746094 578.300781 754.554688 C 577.8125 753.359375 577.566406 751.996094 577.566406 750.460938 L 577.566406 749.859375 C 577.566406 748.347656 577.816406 747 578.320312 745.804688 C 578.824219 744.609375 579.488281 743.605469 580.320312 742.789062 C 581.148438 741.972656 582.117188 741.347656 583.222656 740.921875 C 584.328125 740.492188 585.484375 740.28125 586.691406 740.28125 C 588.050781 740.28125 589.238281 740.574219 590.257812 741.164062 C 591.273438 741.757812 592.070312 742.617188 592.652344 743.75 L 593.101562 743.75 L 593.101562 740.808594 L 596.042969 740.808594 L 596.042969 764.113281 C 596.042969 764.96875 595.773438 765.671875 595.234375 766.226562 C 594.691406 766.777344 593.996094 767.054688 593.140625 767.054688 L 580.960938 767.054688 L 580.960938 764.339844 L 592.085938 764.339844 C 592.765625 764.339844 593.101562 763.960938 593.101562 763.207031 Z M 593.101562 756.648438 "/>
<path fill-rule="evenodd" fill="rgb(0%, 0%, 100%)" fill-opacity="1" d="M 338.386719 643.628906 L 393.460938 643.582031 L 393.488281 554.878906 L 405.160156 554.464844 C 413.828125 564.507812 422.050781 575.183594 430.628906 585.867188 L 475.78125 641.496094 C 478.925781 644.792969 483.816406 643.632812 488.695312 643.597656 C 507.050781 643.472656 528.507812 644.695312 546.410156 643.445312 C 543.320312 637.003906 452.125 532.773438 450.644531 527.816406 L 494.632812 473.476562 C 498.582031 468.652344 536.921875 422.476562 538.996094 418.199219 C 531.84375 418.175781 473.324219 417.449219 471.472656 418.609375 C 460.3125 433.441406 449.421875 447.472656 438.554688 462.183594 C 432.976562 469.730469 427.792969 476.394531 421.894531 484.261719 C 403.023438 509.4375 409.335938 505.78125 393.621094 505.847656 L 393.476562 418.203125 L 338.378906 418.152344 Z M 338.386719 643.628906 "/>
<path fill-rule="evenodd" fill="rgb(0%, 0%, 100%)" fill-opacity="1" d="M 206.402344 607.042969 C 204.640625 604.105469 173.183594 572.277344 170.066406 570.96875 C 162.316406 578.503906 154.945312 586.214844 141.394531 591.320312 C 127.941406 596.386719 112.46875 596.34375 98.867188 591.300781 C 47.421875 572.214844 46.390625 487.460938 98.125 467.894531 C 111.140625 462.972656 127.851562 462.746094 140.757812 467.59375 C 158.96875 474.433594 160.589844 480.992188 170.066406 488.234375 C 173.539062 486.539062 204.671875 454.910156 206.359375 452.035156 C 196.882812 438.269531 170.15625 422.929688 151.886719 417.699219 C 127.578125 410.742188 98.484375 412.160156 75.8125 421.472656 C -19.511719 460.632812 -14.234375 602.4375 75.824219 637.558594 C 111.273438 651.382812 149.960938 647.875 182.21875 627.835938 C 188.328125 624.042969 204.097656 612.328125 206.402344 607.042969 "/>
<path fill-rule="evenodd" fill="rgb(0%, 0%, 100%)" fill-opacity="1" d="M 215.445312 669.90625 C 217.335938 673.5625 237.1875 688.007812 242.914062 692.632812 C 245.664062 694.851562 249.679688 698.445312 252.738281 700.078125 C 256.714844 697.683594 268.273438 683.835938 271.890625 678.726562 C 293.761719 647.851562 299.449219 622.90625 299.414062 582.070312 C 299.402344 570.980469 300.394531 423.730469 298.980469 417.019531 L 244.589844 417.074219 C 243.671875 424.28125 244.363281 546.40625 244.363281 557.09375 C 244.363281 577.761719 246.128906 605.921875 240.84375 624.382812 C 237.007812 637.769531 230.878906 648.753906 223.34375 659.472656 C 220.527344 663.476562 217.699219 666.460938 215.445312 669.90625 "/>
<path fill-rule="evenodd" fill="rgb(0%, 0%, 100%)" fill-opacity="1" d="M 161.171875 1162.71875 L 187.78125 1162.695312 L 187.796875 1119.832031 L 193.433594 1119.632812 C 197.621094 1124.488281 201.597656 1129.644531 205.742188 1134.808594 L 227.558594 1161.6875 C 229.078125 1163.28125 231.441406 1162.71875 233.800781 1162.703125 C 242.667969 1162.644531 253.035156 1163.234375 261.6875 1162.628906 C 260.195312 1159.519531 216.128906 1109.152344 215.414062 1106.757812 L 236.667969 1080.5 C 238.574219 1078.167969 257.101562 1055.855469 258.105469 1053.789062 C 254.648438 1053.777344 226.371094 1053.425781 225.476562 1053.988281 C 220.085938 1061.152344 214.824219 1067.933594 209.570312 1075.042969 C 206.875 1078.691406 204.371094 1081.910156 201.519531 1085.710938 C 192.402344 1097.875 195.453125 1096.109375 187.859375 1096.140625 L 187.789062 1053.792969 L 161.164062 1053.765625 Z M 161.171875 1162.71875 "/>
<path fill-rule="evenodd" fill="rgb(0%, 0%, 100%)" fill-opacity="1" d="M 97.394531 1145.039062 C 96.542969 1143.621094 81.34375 1128.242188 79.835938 1127.609375 C 76.089844 1131.25 72.527344 1134.976562 65.980469 1137.441406 C 59.480469 1139.890625 52.003906 1139.871094 45.433594 1137.433594 C 20.574219 1128.210938 20.074219 1087.257812 45.074219 1077.804688 C 51.363281 1075.421875 59.4375 1075.316406 65.671875 1077.65625 C 74.472656 1080.964844 75.257812 1084.132812 79.835938 1087.632812 C 81.515625 1086.8125 96.558594 1071.527344 97.375 1070.136719 C 92.792969 1063.488281 79.878906 1056.074219 71.050781 1053.546875 C 59.304688 1050.1875 45.246094 1050.871094 34.292969 1055.371094 C -11.769531 1074.292969 -9.21875 1142.816406 34.296875 1159.785156 C 51.425781 1166.464844 70.121094 1164.769531 85.707031 1155.085938 C 88.660156 1153.253906 96.28125 1147.59375 97.394531 1145.039062 "/>
<path fill-rule="evenodd" fill="rgb(0%, 0%, 100%)" fill-opacity="1" d="M 101.765625 1175.414062 C 102.675781 1177.179688 112.269531 1184.164062 115.035156 1186.398438 C 116.367188 1187.46875 118.304688 1189.207031 119.785156 1189.996094 C 121.707031 1188.839844 127.289062 1182.148438 129.039062 1179.679688 C 139.605469 1164.757812 142.355469 1152.707031 142.335938 1132.972656 C 142.332031 1127.613281 142.8125 1056.460938 142.128906 1053.21875 L 115.84375 1053.246094 C 115.402344 1056.730469 115.734375 1115.742188 115.734375 1120.90625 C 115.734375 1130.890625 116.589844 1144.5 114.035156 1153.417969 C 112.183594 1159.886719 109.222656 1165.195312 105.582031 1170.375 C 104.21875 1172.308594 102.851562 1173.75 101.765625 1175.414062 "/>
<path fill-rule="evenodd" fill="rgb(0%, 0%, 100%)" fill-opacity="1" d="M 482.492188 1162.71875 L 509.101562 1162.695312 L 509.117188 1119.832031 L 514.757812 1119.632812 C 518.945312 1124.488281 522.917969 1129.644531 527.0625 1134.808594 L 548.882812 1161.6875 C 550.402344 1163.28125 552.765625 1162.71875 555.121094 1162.703125 C 563.992188 1162.644531 574.359375 1163.234375 583.011719 1162.628906 C 581.515625 1159.519531 537.453125 1109.152344 536.734375 1106.757812 L 557.992188 1080.5 C 559.898438 1078.167969 578.425781 1055.855469 579.425781 1053.789062 C 575.972656 1053.777344 547.695312 1053.425781 546.800781 1053.988281 C 541.40625 1061.152344 536.144531 1067.933594 530.894531 1075.042969 C 528.199219 1078.691406 525.691406 1081.910156 522.84375 1085.710938 C 513.726562 1097.875 516.777344 1096.109375 509.183594 1096.140625 L 509.113281 1053.792969 L 482.488281 1053.765625 Z M 482.492188 1162.71875 "/>
<path fill-rule="evenodd" fill="rgb(0%, 0%, 100%)" fill-opacity="1" d="M 418.71875 1145.039062 C 417.863281 1143.621094 402.664062 1128.242188 401.160156 1127.609375 C 397.414062 1131.25 393.851562 1134.976562 387.304688 1137.441406 C 380.804688 1139.890625 373.328125 1139.871094 366.753906 1137.433594 C 341.894531 1128.210938 341.398438 1087.257812 366.394531 1077.804688 C 372.6875 1075.421875 380.761719 1075.316406 386.996094 1077.65625 C 395.796875 1080.964844 396.578125 1084.132812 401.160156 1087.632812 C 402.835938 1086.8125 417.878906 1071.527344 418.695312 1070.136719 C 414.117188 1063.488281 401.203125 1056.074219 392.375 1053.546875 C 380.628906 1050.1875 366.570312 1050.871094 355.617188 1055.371094 C 309.554688 1074.292969 312.105469 1142.816406 355.621094 1159.785156 C 372.75 1166.464844 391.445312 1164.769531 407.03125 1155.085938 C 409.984375 1153.253906 417.601562 1147.59375 418.71875 1145.039062 "/>
<path fill-rule="evenodd" fill="rgb(0%, 0%, 100%)" fill-opacity="1" d="M 423.085938 1175.414062 C 424 1177.179688 433.589844 1184.164062 436.359375 1186.398438 C 437.6875 1187.46875 439.628906 1189.207031 441.105469 1189.996094 C 443.027344 1188.839844 448.613281 1182.148438 450.359375 1179.679688 C 460.929688 1164.757812 463.679688 1152.707031 463.660156 1132.972656 C 463.652344 1127.613281 464.132812 1056.460938 463.449219 1053.21875 L 437.167969 1053.246094 C 436.726562 1056.730469 437.058594 1115.742188 437.058594 1120.90625 C 437.058594 1130.890625 437.914062 1144.5 435.359375 1153.417969 C 433.503906 1159.886719 430.542969 1165.195312 426.902344 1170.375 C 425.542969 1172.308594 424.175781 1173.75 423.085938 1175.414062 "/>
<g clip-path="url(#clip-0)">
<path fill-rule="nonzero" fill="rgb(0%, 0%, 0%)" fill-opacity="1" d="M 767.230469 1150.445312 L 767.230469 1189.429688 L 841.191406 1189.429688 L 841.191406 1113.328125 L 804.34375 1113.328125 L 804.34375 1150.445312 Z M 644.136719 1114.128906 C 644.136719 1158.988281 675.644531 1189.429688 719.433594 1189.429688 L 742.664062 1189.429688 L 742.664062 1150.445312 L 719.433594 1150.445312 C 696.472656 1150.445312 681.519531 1136.292969 681.519531 1114.128906 C 681.519531 1093.300781 694.605469 1081.285156 713.027344 1079.152344 L 713.027344 1040.433594 C 672.707031 1042.570312 644.136719 1071.675781 644.136719 1114.128906 Z M 644.136719 1114.128906 "/>
</g>
<path fill-rule="nonzero" fill="rgb(16.862488%, 16.078186%, 16.078186%)" fill-opacity="1" d="M 589.714844 967.664062 C 616.132812 967.515625 634.464844 953.804688 634.355469 933.996094 C 634.261719 916.984375 624.199219 907.035156 603.164062 902.75 L 589.941406 900.019531 C 583.328125 898.65625 579.710938 895.675781 579.6875 891.871094 C 579.660156 886.667969 584.644531 883.4375 592.851562 883.394531 C 602.054688 883.34375 610.875 885.894531 621.3125 891.839844 L 630.207031 871.179688 C 620.761719 864.425781 607.933594 860.695312 593.726562 860.773438 C 567.910156 860.917969 551.171875 874.21875 551.285156 894.832031 C 551.378906 911.242188 561.238281 920.792969 582.074219 924.878906 L 594.292969 927.414062 C 602.511719 929.167969 605.324219 931.554688 605.351562 936.355469 C 605.378906 941.558594 599.59375 944.59375 589.1875 944.652344 C 580.582031 944.699219 567.949219 940.167969 557.304688 933.222656 L 548.613281 954.082031 C 557.667969 962.4375 573.304688 967.554688 589.714844 967.664062 Z M 488.515625 943.210938 C 473.910156 943.289062 464.445312 932.734375 464.34375 914.925781 C 464.246094 897.117188 473.59375 886.457031 488.199219 886.375 C 502.808594 886.292969 512.273438 896.847656 512.375 914.660156 C 512.472656 932.46875 503.125 943.128906 488.515625 943.210938 Z M 495.257812 968.1875 C 519.472656 968.054688 540.976562 948.320312 540.789062 914.5 C 540.609375 881.683594 520.882812 861.179688 495.667969 861.320312 C 482.058594 861.394531 471.683594 867.253906 465.335938 876.898438 L 465.023438 820.664062 L 437.40625 820.816406 L 438.054688 937.484375 C 438.105469 947.089844 437.753906 955.5 437.011719 965.707031 L 463.023438 965.5625 C 463.402344 961.558594 463.78125 957.355469 463.953125 952.75 C 471.417969 963.117188 482.851562 968.257812 495.257812 968.1875 Z M 372.25 943.855469 C 357.640625 943.9375 348.175781 933.382812 348.078125 915.570312 C 347.976562 897.761719 357.324219 887.101562 371.933594 887.019531 C 386.542969 886.941406 396.007812 897.496094 396.105469 915.304688 C 396.203125 933.113281 386.855469 943.773438 372.25 943.855469 Z M 371.386719 968.875 C 402.605469 968.703125 424.703125 947.964844 424.523438 915.148438 C 424.339844 882.328125 403.011719 861.832031 371.792969 862.007812 C 341.175781 862.175781 319.488281 884.710938 319.660156 915.730469 C 319.835938 947.546875 340.769531 969.042969 371.386719 968.875 Z M 280.535156 969.378906 C 294.339844 969.304688 308.523438 964.421875 317.085938 956.570312 L 306.960938 935.613281 C 299.382812 940.457031 289.597656 943.714844 281.992188 943.753906 C 266.382812 943.84375 256.316406 933.292969 256.222656 916.082031 C 256.128906 899.472656 265.875 888.210938 283.082031 888.113281 C 290.289062 888.074219 298.710938 891.230469 305.742188 895.792969 L 316.625 873.917969 C 307.777344 866.363281 295.75 862.429688 282.339844 862.503906 C 247.722656 862.695312 227.644531 887.421875 227.804688 916.238281 C 227.988281 949.058594 248.113281 969.558594 280.535156 969.378906 Z M 187.660156 930.472656 C 187.734375 943.878906 176.351562 948.34375 167.144531 948.394531 C 157.742188 948.445312 152.515625 944.875 152.476562 937.269531 C 152.4375 930.667969 156.613281 925.839844 168.019531 925.175781 L 187.625 924.066406 Z M 192.464844 967.066406 L 218.480469 966.921875 C 216.433594 958.527344 214.957031 944.726562 214.902344 935.121094 L 214.722656 902.902344 C 214.585938 878.089844 199.09375 862.964844 171.875 863.117188 C 142.460938 863.28125 129.753906 881.960938 127.835938 896.78125 L 153.851562 896.636719 C 155.414062 890.023438 161.195312 885.789062 171.203125 885.734375 C 181.007812 885.679688 187.4375 890.648438 187.492188 900.652344 L 187.515625 904.855469 L 162.308594 906.195312 C 135.699219 907.746094 124.96875 921.210938 125.070312 939.222656 C 125.175781 958.636719 139.050781 970.164062 160.0625 970.046875 C 175.671875 969.960938 185.636719 962.300781 190.605469 956.070312 C 191.027344 960.269531 191.851562 964.269531 192.464844 967.066406 Z M 83.304688 878.21875 L 112.523438 878.054688 L 112.214844 822.621094 L 55.179688 822.9375 L 55.335938 850.554688 L 83.152344 850.402344 Z M 56.601562 970.621094 C 90.21875 970.4375 112.902344 946.695312 112.722656 913.875 L 112.625 896.464844 L 83.40625 896.628906 L 83.503906 914.039062 C 83.601562 931.25 73.054688 942.515625 56.445312 942.605469 C 40.835938 942.691406 31.777344 932.9375 30.097656 919.136719 L 1.082031 919.300781 C 2.851562 949.507812 24.78125 970.800781 56.601562 970.621094 Z M 56.601562 970.621094 "/>
<path fill-rule="nonzero" fill="rgb(16.862488%, 16.078186%, 16.078186%)" fill-opacity="1" d="M 645.457031 957.652344 C 644.894531 957.652344 644.382812 957.671875 643.921875 957.699219 L 643.941406 961.234375 C 644.402344 961.28125 644.875 961.304688 645.359375 961.304688 C 647.179688 961.292969 648.085938 960.660156 648.078125 959.40625 C 648.078125 958.738281 647.867188 958.277344 647.457031 958.027344 C 647.042969 957.769531 646.378906 957.644531 645.457031 957.652344 Z M 642.585938 966.121094 L 642.53125 956.554688 C 643.117188 956.5 643.667969 956.457031 644.183594 956.429688 C 644.695312 956.398438 645.117188 956.382812 645.449219 956.382812 C 648.140625 956.367188 649.492188 957.371094 649.503906 959.398438 C 649.511719 960.726562 648.886719 961.652344 647.632812 962.171875 L 649.769531 966.082031 L 648.191406 966.089844 L 646.332031 962.527344 C 646.046875 962.554688 645.753906 962.566406 645.445312 962.570312 C 644.882812 962.574219 644.382812 962.550781 643.945312 962.5 L 643.96875 966.113281 Z M 645.714844 969.292969 C 648.226562 969.28125 650.148438 968.582031 651.488281 967.207031 C 652.824219 965.828125 653.488281 963.859375 653.472656 961.292969 C 653.460938 958.734375 652.773438 956.769531 651.421875 955.410156 C 650.066406 954.046875 648.136719 953.371094 645.625 953.382812 C 643.117188 953.398438 641.1875 954.101562 639.835938 955.492188 C 638.484375 956.882812 637.816406 958.847656 637.828125 961.382812 C 637.84375 963.917969 638.53125 965.875 639.898438 967.25 C 641.265625 968.625 643.203125 969.308594 645.714844 969.292969 Z M 635.910156 961.390625 C 635.898438 959.421875 636.292969 957.703125 637.09375 956.238281 C 637.890625 954.773438 639.019531 953.640625 640.472656 952.835938 C 641.929688 952.035156 643.640625 951.628906 645.617188 951.617188 C 647.585938 951.605469 649.308594 951.996094 650.769531 952.777344 C 652.238281 953.566406 653.375 954.6875 654.191406 956.140625 C 655.003906 957.597656 655.417969 959.3125 655.429688 961.28125 C 655.4375 963.257812 655.046875 964.976562 654.25 966.441406 C 653.449219 967.902344 652.324219 969.039062 650.867188 969.839844 C 649.410156 970.644531 647.695312 971.050781 645.722656 971.058594 C 643.75 971.070312 642.03125 970.6875 640.566406 969.898438 C 639.105469 969.109375 637.960938 967.992188 637.148438 966.535156 C 636.335938 965.078125 635.917969 963.367188 635.910156 961.390625 "/>
<g clip-path="url(#clip-1)">
<path fill-rule="nonzero" fill="rgb(54.118347%, 14.901733%, 16.078186%)" fill-opacity="1" d="M 830.695312 981.984375 L 830.695312 975.59375 L 785.046875 963.363281 L 785.046875 963.226562 L 830.695312 951.070312 L 830.695312 944.746094 L 776.832031 930.292969 L 776.832031 936.410156 L 821.566406 947.800781 L 821.566406 947.941406 L 776.832031 959.960938 L 776.832031 966.492188 L 821.566406 978.582031 L 821.566406 978.71875 L 776.832031 989.90625 L 776.832031 996.367188 Z M 832.0625 900.90625 C 832.0625 885.964844 820.042969 875.199219 803.761719 875.199219 C 787.480469 875.199219 775.460938 885.964844 775.460938 900.90625 C 775.460938 915.839844 787.480469 926.609375 803.761719 926.609375 C 820.042969 926.609375 832.0625 915.839844 832.0625 900.90625 Z M 826.128906 900.90625 C 826.128906 912.4375 816.164062 920.359375 803.761719 920.359375 C 791.363281 920.359375 781.394531 912.4375 781.394531 900.90625 C 781.394531 889.371094 791.363281 881.449219 803.761719 881.449219 C 816.164062 881.449219 826.128906 889.371094 826.128906 900.90625 Z M 830.695312 865.820312 L 830.695312 859.984375 L 806.5 859.984375 L 806.5 852.480469 L 830.695312 839.136719 L 830.695312 831.984375 L 805.894531 845.949219 C 804.601562 838.308594 799.503906 833.648438 791.667969 833.648438 C 778.351562 833.648438 776.832031 843.722656 776.832031 853.242188 L 776.832031 865.820312 Z M 782.765625 859.984375 L 782.765625 851.785156 C 782.765625 846.085938 783.90625 839.902344 791.667969 839.902344 C 800.566406 839.902344 800.566406 848.308594 800.566406 854.773438 L 800.566406 859.984375 Z M 830.695312 823.367188 L 830.695312 817.53125 L 803.304688 817.53125 L 803.304688 816.699219 L 830.695312 793.285156 L 830.695312 784.738281 L 801.402344 810.238281 L 776.832031 785.921875 L 776.832031 794.328125 L 800.109375 816.699219 L 800.109375 817.53125 L 776.832031 817.53125 L 776.832031 823.367188 Z M 822.933594 577.835938 L 822.933594 584.160156 L 841.191406 588.882812 L 841.191406 583.535156 Z M 830.695312 547.753906 L 830.695312 541.917969 L 805.589844 541.917969 L 805.589844 515.65625 L 830.695312 515.65625 L 830.695312 509.820312 L 776.832031 509.820312 L 776.832031 515.65625 L 799.65625 515.65625 L 799.65625 541.917969 L 776.832031 541.917969 L 776.832031 547.753906 Z M 832.0625 474.734375 C 832.0625 459.796875 820.042969 449.027344 803.761719 449.027344 C 787.480469 449.027344 775.460938 459.796875 775.460938 474.734375 C 775.460938 489.671875 787.480469 500.441406 803.761719 500.441406 C 820.042969 500.441406 832.0625 489.671875 832.0625 474.734375 Z M 826.128906 474.734375 C 826.128906 486.265625 816.164062 494.1875 803.761719 494.1875 C 791.363281 494.1875 781.394531 486.265625 781.394531 474.734375 C 781.394531 463.199219 791.363281 455.28125 803.761719 455.28125 C 816.164062 455.28125 826.128906 463.199219 826.128906 474.734375 Z M 830.695312 439.648438 L 830.695312 433.8125 L 785.503906 433.8125 L 785.503906 433.671875 L 830.695312 416.023438 L 830.695312 412.480469 L 785.503906 394.835938 L 785.503906 394.695312 L 830.695312 394.695312 L 830.695312 388.859375 L 776.832031 388.859375 L 776.832031 397.335938 L 819.054688 414.148438 L 819.054688 414.289062 L 776.832031 430.960938 L 776.832031 439.648438 Z M 830.695312 376.628906 L 830.695312 344.460938 L 824.761719 344.460938 L 824.761719 370.792969 L 805.589844 370.792969 L 805.589844 347.382812 L 799.65625 347.382812 L 799.65625 370.792969 L 782.765625 370.792969 L 782.765625 345.710938 L 776.832031 345.710938 L 776.832031 376.628906 Z M 782.078125 727.769531 C 777.742188 732.074219 775.460938 738.328125 775.460938 743.886719 C 775.460938 753.058594 780.40625 762.921875 792.351562 762.921875 C 802.089844 762.921875 805.589844 756.601562 807.792969 750.347656 C 810.078125 743.886719 811.371094 740.136719 815.476562 740.136719 C 819.816406 740.136719 821.335938 743.328125 821.335938 746.945312 C 821.335938 750.835938 818.902344 755.210938 815.632812 757.574219 L 824.304688 765.355469 C 829.25 761.046875 832.0625 753.960938 832.0625 746.945312 C 832.0625 737.214844 826.507812 728.113281 814.109375 728.113281 C 803.382812 728.113281 800.261719 736.730469 797.90625 743.402344 C 796.308594 748.054688 795.167969 750.972656 791.589844 750.972656 C 787.328125 750.972656 786.1875 747.152344 786.1875 744.097656 C 786.1875 741.039062 788.015625 737.355469 790.828125 735.339844 Z M 830.695312 673.714844 L 776.832031 694.140625 L 776.832031 705.671875 L 830.695312 726.308594 L 830.695312 713.386719 L 820.117188 709.773438 L 820.117188 690.734375 L 830.695312 686.914062 Z M 809.695312 694 L 809.695312 706.371094 L 791.210938 700.117188 Z M 787.9375 637.238281 L 776.832031 637.238281 L 776.832031 669.613281 L 830.695312 669.613281 L 830.695312 657.875 L 809.773438 657.875 L 809.773438 638.835938 L 799.046875 638.835938 L 799.046875 657.875 L 787.9375 657.875 Z M 830.695312 595.277344 L 819.585938 595.277344 L 819.585938 618.132812 L 808.402344 618.132812 L 808.402344 597.707031 L 797.980469 597.707031 L 797.980469 618.132812 L 787.863281 618.132812 L 787.863281 596.527344 L 776.832031 596.527344 L 776.832031 629.597656 L 830.695312 629.597656 Z M 830.695312 274.222656 L 776.832031 274.222656 L 776.832031 286.101562 L 797.21875 286.101562 L 797.21875 305.277344 L 776.832031 305.277344 L 776.832031 317.160156 L 830.695312 317.160156 L 830.695312 305.277344 L 808.175781 305.277344 L 808.175781 286.101562 L 830.695312 286.101562 Z M 830.695312 229.757812 L 819.585938 229.757812 L 819.585938 252.617188 L 808.402344 252.617188 L 808.402344 232.1875 L 797.980469 232.1875 L 797.980469 252.617188 L 787.863281 252.617188 L 787.863281 231.007812 L 776.832031 231.007812 L 776.832031 264.078125 L 830.695312 264.078125 Z M 830.695312 175.359375 L 776.832031 195.785156 L 776.832031 207.316406 L 830.695312 227.953125 L 830.695312 215.027344 L 820.117188 211.414062 L 820.117188 192.378906 L 830.695312 188.558594 Z M 809.695312 195.644531 L 809.695312 208.011719 L 791.210938 201.757812 Z M 830.695312 140.269531 L 819.359375 140.269531 L 819.359375 159.308594 L 776.832031 159.308594 L 776.832031 171.257812 L 830.695312 171.257812 Z M 787.9375 105.253906 L 776.832031 105.253906 L 776.832031 144.925781 L 787.9375 144.925781 L 787.9375 131.03125 L 830.695312 131.03125 L 830.695312 119.148438 L 787.9375 119.148438 Z M 830.695312 56.898438 L 776.832031 56.898438 L 776.832031 68.777344 L 797.21875 68.777344 L 797.21875 87.953125 L 776.832031 87.953125 L 776.832031 99.835938 L 830.695312 99.835938 L 830.695312 87.953125 L 808.175781 87.953125 L 808.175781 68.777344 L 830.695312 68.777344 Z M 776.832031 3.957031 L 776.832031 17.855469 L 796.761719 28.34375 L 776.832031 38.835938 L 776.832031 53.21875 L 807.871094 34.734375 L 830.695312 34.734375 L 830.695312 22.855469 L 807.871094 22.855469 Z M 776.832031 3.957031 "/>
</g>
</svg>
