<svg xmlns="http://www.w3.org/2000/svg" version="1.1" viewBox="0.00 0.00 1050.00 1023.00" width="1050px" height="1023px">
<g stroke-width="2.00" fill="none" stroke-linecap="butt">
<path stroke="none" vector-effect="non-scaling-stroke" d="   M 779.40 437.74   C 812.29 514.89 818.69 600.02 796.62 681.03   Q 773.17 767.17 712.47 834.19   Q 694.22 854.34 673.57 871.05   Q 651.38 889.00 632.79 900.26   Q 542.96 954.65 440.01 954.97   C 388.28 955.13 336.79 944.68 290.17 923.85   Q 260.88 910.77 239.43 896.80   Q 214.35 880.46 193.99 862.52   C 115.43 793.23 69.19 693.63 67.91 588.76   Q 67.28 536.60 81.43 485.46   C 115.96 360.63 214.47 261.47 339.33 227.09   Q 414.45 206.40 491.93 217.37   Q 514.63 220.59 535.31 226.20   Q 544.93 228.80 549.35 228.62   C 572.98 227.66 587.36 203.06 576.05 182.06   Q 569.68 170.23 554.99 166.24   Q 480.01 145.88 403.02 152.13   Q 319.34 158.91 243.82 197.04   C 218.20 209.99 195.23 224.54 172.59 242.09   C 111.63 289.34 63.48 353.20 35.24 425.47   Q 1.47 511.90 5.36 602.88   Q 7.66 656.73 23.37 708.66   Q 55.06 813.37 132.64 891.18   Q 162.58 921.21 201.14 946.96   C 222.80 961.42 246.79 973.74 269.31 983.42   C 382.32 1031.98 513.74 1029.14 624.59 976.04   C 644.38 966.56 662.21 956.76 680.24 944.49   Q 754.15 894.19 802.20 820.64   C 842.82 758.47 866.96 685.54 871.75 612.01   Q 876.96 532.19 852.31 453.91"/>
<path stroke="none" vector-effect="non-scaling-stroke" d="   M 852.31 453.91   C 857.36 453.44 862.43 453.33 867.37 452.57   Q 879.92 450.64 887.59 448.35   Q 908.73 442.04 927.67 427.91   Q 945.93 414.29 960.66 398.42   C 979.73 377.90 997.64 352.10 1010.39 325.61   Q 1017.56 310.72 1024.86 286.64   Q 1041.22 232.66 1046.04 176.02   Q 1046.20 174.22 1045.79 173.26   A 0.35 0.35 0.0 0 0 1045.21 173.17   Q 1037.11 182.59 1015.97 200.98   Q 1002.57 212.65 982.85 224.83   Q 958.13 240.10 929.69 245.13   A 0.35 0.35 0.0 0 1 929.29 244.86   C 921.47 206.85 908.59 170.07 889.39 137.39   Q 875.28 113.39 850.67 82.50   Q 816.92 40.17 777.13 4.30   A 0.46 0.46 0.0 0 0 776.37 4.72   C 782.48 41.32 784.01 79.62 778.27 116.25   C 773.53 146.47 759.76 173.84 743.69 199.85   Q 735.97 212.36 733.79 216.09   Q 723.65 233.48 722.57 235.59   Q 706.91 266.17 701.66 299.42   Q 698.36 320.40 698.20 335.76   C 697.99 355.39 702.75 377.84 712.98 395.28   C 719.56 406.52 726.96 416.30 737.03 425.08   Q 756.63 442.17 780.90 452.01   A 0.65 0.65 0.0 0 0 781.78 451.30   L 779.40 437.74"/>
<path stroke="none" vector-effect="non-scaling-stroke" d="   M 852.31 453.91   L 840.60 454.07   A 0.72 0.72 0.0 0 1 839.91 453.60   C 829.76 428.18 825.01 402.45 826.60 375.26   Q 827.70 356.39 830.94 341.44   C 841.79 291.39 850.49 258.39 848.23 216.31   Q 844.34 143.41 815.96 75.06   Q 800.59 38.03 778.75 7.09   A 0.06 0.05 57.7 0 0 778.68 7.07   L 778.45 7.18   A 0.32 0.32 0.0 0 0 778.30 7.61   Q 793.03 36.17 802.52 68.99   Q 822.55 138.24 818.96 207.18   Q 817.97 226.29 815.15 240.63   C 810.38 264.89 802.86 285.79 793.97 311.96   Q 785.12 337.99 782.28 350.98   Q 775.32 382.85 776.52 414.24   Q 776.96 425.80 779.40 437.74"/>
<path stroke="none" vector-effect="non-scaling-stroke" d="   M 474.57 525.06   L 453.08 502.65   A 0.49 0.49 0.0 0 0 452.39 502.64   C 441.76 513.05 430.70 521.71 416.01 525.26   C 411.60 526.32 405.95 526.69 401.76 526.77   C 361.50 527.52 336.00 493.96 343.42 455.39   C 347.89 432.13 367.52 413.80 390.91 410.54   C 415.21 407.15 435.94 416.76 452.43 434.08   A 0.50 0.50 0.0 0 0 453.13 434.10   L 475.30 412.83   A 0.38 0.38 0.0 0 0 475.32 412.31   C 453.29 387.48 422.21 375.25 389.28 379.01   C 364.44 381.84 339.78 395.44 325.53 415.67   C 310.61 436.84 306.56 462.45 311.35 487.95   Q 316.41 514.94 335.96 533.79   C 357.43 554.50 385.59 560.70 414.77 557.35   Q 435.01 555.04 451.58 544.30   Q 463.48 536.59 474.56 525.57   A 0.36 0.36 0.0 0 0 474.57 525.06"/>
<path stroke="none" vector-effect="non-scaling-stroke" d="   M 616.29 378.66   C 599.75 379.75 584.01 384.86 570.68 394.55   C 545.08 413.16 531.16 442.43 533.25 474.22   C 535.33 506.01 552.95 533.22 580.77 548.32   C 595.25 556.18 611.53 559.19 628.07 558.11   C 644.61 557.02 660.35 551.91 673.68 542.22   C 699.28 523.61 713.20 494.34 711.11 462.55   C 709.02 430.76 691.40 403.55 663.59 388.45   C 649.10 380.59 632.83 377.58 616.29 378.66"/>
<path stroke="none" vector-effect="non-scaling-stroke" d="   M 189.02 477.28   A 0.49 0.49 0.0 0 1 189.51 476.79   L 249.68 476.79   A 0.49 0.49 0.0 0 0 250.17 476.30   L 250.17 445.94   A 0.49 0.49 0.0 0 0 249.68 445.45   L 189.51 445.45   A 0.49 0.49 0.0 0 1 189.02 444.96   L 189.02 414.93   A 0.49 0.49 0.0 0 1 189.51 414.44   L 249.67 414.44   A 0.49 0.49 0.0 0 0 250.16 413.95   L 250.16 383.09   A 0.49 0.49 0.0 0 0 249.67 382.60   L 157.13 382.60   A 0.49 0.49 0.0 0 0 156.64 383.09   L 156.64 553.41   A 0.49 0.49 0.0 0 0 157.13 553.90   L 249.66 553.90   A 0.49 0.49 0.0 0 0 250.15 553.41   L 250.15 522.39   A 0.49 0.49 0.0 0 0 249.66 521.90   L 189.51 521.90   A 0.49 0.49 0.0 0 1 189.02 521.41   L 189.02 477.28"/>
<path stroke="none" vector-effect="non-scaling-stroke" d="   M 381.38 911.61   Q 383.34 912.33 386.26 912.70   Q 402.24 914.76 418.54 915.76"/>
<path stroke="none" vector-effect="non-scaling-stroke" d="   M 418.54 915.76   Q 435.85 916.36 454.53 915.53"/>
<path stroke="none" vector-effect="non-scaling-stroke" d="   M 454.53 915.53   L 466.36 914.41"/>
<path stroke="none" vector-effect="non-scaling-stroke" d="   M 466.36 914.41   Q 480.65 913.28 490.28 911.57   Q 558.71 899.40 614.81 862.96   Q 665.67 829.92 701.69 781.13   C 742.86 725.38 766.76 655.12 766.16 584.48   A 0.41 0.41 0.0 0 0 765.75 584.08   L 103.06 584.08   A 0.58 0.58 0.0 0 0 102.48 584.66   C 102.54 603.41 103.98 622.25 107.29 640.74   Q 119.85 710.92 158.17 768.23   C 201.02 832.30 263.78 878.92 337.68 901.82   Q 354.09 906.91 375.99 911.00   Q 379.16 911.59 381.38 911.61"/>
<path stroke="none" vector-effect="non-scaling-stroke" d="   M 466.36 914.41   Q 486.48 905.85 497.84 890.60   C 517.25 864.55 527.78 830.59 527.76 798.75   Q 527.74 763.83 519.67 729.71   A 0.35 0.35 0.0 0 0 519.02 729.64   Q 507.74 753.87 490.52 772.50   Q 482.43 781.25 469.27 788.60   A 0.66 0.65 60.9 0 1 468.37 788.34   Q 450.06 754.98 422.21 731.93   Q 408.46 720.55 386.75 707.02   Q 367.85 695.26 348.66 686.31   A 0.20 0.20 0.0 0 1 348.74 685.93   L 381.69 685.93   A 0.62 0.62 0.0 0 0 382.31 685.31   L 382.31 671.80   A 0.60 0.60 0.0 0 0 381.71 671.20   L 357.60 671.20   A 0.61 0.60 -90.0 0 1 357.00 670.59   L 357.00 651.08   A 0.63 0.63 0.0 0 1 357.63 650.45   L 381.71 650.45   A 0.60 0.60 0.0 0 0 382.31 649.85   L 382.31 636.67   A 0.60 0.59 0.0 0 0 381.71 636.08   L 357.61 636.08   A 0.62 0.61 -90.0 0 1 357.00 635.46   L 357.00 622.41   A 0.60 0.59 90.0 0 1 357.59 621.81   L 381.75 621.81   A 0.56 0.56 0.0 0 0 382.31 621.25   L 382.31 607.71   A 0.57 0.57 0.0 0 0 381.74 607.14   L 344.19 607.14   A 0.60 0.60 0.0 0 0 343.59 607.74   L 343.59 684.97   A 0.90 0.89 -74.3 0 0 344.01 685.73   Q 344.71 686.17 344.85 686.45   C 355.46 707.58 364.38 732.80 365.28 755.51   Q 365.88 770.86 361.61 788.93   Q 355.79 813.55 354.98 817.98   Q 351.23 838.51 354.44 858.97   C 356.50 872.07 359.63 883.73 366.26 894.73   Q 371.90 904.07 381.38 911.61"/>
<path stroke="none" vector-effect="non-scaling-stroke" d="   M 454.53 915.53   Q 443.23 901.07 438.32 886.93   Q 433.24 872.28 431.84 857.78   C 429.25 830.84 428.42 812.26 421.59 792.74   Q 407.85 753.49 381.51 720.74   Q 365.03 700.26 346.54 686.22   A 0.25 0.25 0.0 0 0 346.21 686.25   L 346.21 686.26   A 0.27 0.27 0.0 0 0 346.22 686.63   C 372.30 713.23 391.12 748.15 401.15 783.79   C 405.33 798.67 407.12 812.34 406.94 827.27   Q 406.72 845.64 406.56 859.74   Q 406.30 882.75 414.67 905.61   Q 416.53 910.67 418.54 915.76"/>
<path stroke="none" vector-effect="non-scaling-stroke" d="   M 565.80 468.32   C 565.78 482.80 570.00 496.17 579.58 507.21   C 589.22 518.31 602.61 525.43 617.32 526.34   Q 625.39 526.84 631.24 525.96   Q 648.80 523.31 661.52 510.53   C 672.86 499.13 678.47 484.85 678.48 468.46   C 678.50 452.06 672.93 437.77 661.62 426.35   Q 648.93 413.53 631.38 410.84   Q 625.53 409.95 617.46 410.43   C 602.75 411.30 589.34 418.39 579.68 429.47   C 570.07 440.49 565.81 453.85 565.80 468.32"/>
<path stroke="none" vector-effect="non-scaling-stroke" d="   M 199.75 650.46   A 0.38 0.38 0.0 0 0 200.13 650.08   L 200.13 636.45   A 0.38 0.38 0.0 0 0 199.75 636.07   L 178.72 636.07   A 0.38 0.38 0.0 0 1 178.34 635.69   L 178.34 622.15   A 0.38 0.38 0.0 0 1 178.72 621.77   L 199.75 621.77   A 0.38 0.38 0.0 0 0 200.13 621.39   L 200.13 607.52   A 0.38 0.38 0.0 0 0 199.75 607.14   L 165.31 607.14   A 0.38 0.38 0.0 0 0 164.93 607.52   L 164.93 685.55   A 0.38 0.38 0.0 0 0 165.31 685.93   L 177.96 685.93   A 0.38 0.38 0.0 0 0 178.34 685.55   L 178.34 650.84   A 0.38 0.38 0.0 0 1 178.72 650.46   L 199.75 650.46"/>
<path stroke="none" vector-effect="non-scaling-stroke" d="   M 273.73 685.39   L 257.31 651.16   A 0.30 0.30 0.0 0 1 257.45 650.76   C 262.65 648.30 266.41 645.83 268.56 640.54   C 273.63 628.03 269.64 610.07 254.17 608.02   Q 244.90 606.78 229.13 607.23   A 0.59 0.58 89.5 0 0 228.56 607.82   L 228.56 685.32   A 0.62 0.61 90.0 0 0 229.17 685.94   L 241.39 685.94   A 0.67 0.67 0.0 0 0 242.06 685.26   L 242.06 653.19   A 0.71 0.71 0.0 0 1 243.23 652.65   Q 243.41 652.81 243.67 653.35   Q 258.66 684.75 259.02 685.49   A 0.80 0.78 76.7 0 0 259.73 685.94   L 273.39 685.94   A 0.38 0.38 0.0 0 0 273.73 685.39"/>
<path stroke="none" vector-effect="non-scaling-stroke" d="   M 312.86 607.54   A 0.41 0.41 0.0 0 0 312.45 607.13   L 299.85 607.13   A 0.41 0.41 0.0 0 0 299.44 607.54   L 299.44 685.52   A 0.41 0.41 0.0 0 0 299.85 685.93   L 312.45 685.93   A 0.41 0.41 0.0 0 0 312.86 685.52   L 312.86 607.54"/>
<path stroke="none" vector-effect="non-scaling-stroke" d="   M 433.22 650.02   Q 435.25 653.49 454.02 685.57   A 0.77 0.76 74.3 0 0 454.67 685.94   L 466.59 685.94   A 0.63 0.63 0.0 0 0 467.22 685.31   L 467.22 607.61   A 0.46 0.45 90.0 0 0 466.77 607.15   L 454.35 607.15   A 0.63 0.63 0.0 0 0 453.72 607.78   L 453.72 658.24   A 0.16 0.15 -60.9 0 1 453.43 658.33   Q 449.55 651.84 444.43 643.08   Q 442.40 639.60 423.64 607.53   A 0.77 0.76 74.3 0 0 422.98 607.15   L 411.06 607.15   A 0.63 0.63 0.0 0 0 410.43 607.78   L 410.43 685.48   A 0.46 0.45 90.0 0 0 410.88 685.94   L 423.30 685.94   A 0.63 0.63 0.0 0 0 423.93 685.31   L 423.93 634.85   A 0.16 0.15 -60.9 0 1 424.22 634.77   Q 428.10 641.26 433.22 650.02"/>
<path stroke="none" vector-effect="non-scaling-stroke" d="   M 499.42 685.89   Q 508.31 686.09 521.37 685.73   Q 531.20 685.46 535.89 683.44   Q 542.86 680.42 547.30 674.29   C 558.25 659.16 557.70 635.41 547.34 620.19   Q 542.82 613.55 535.76 610.30   Q 530.67 607.96 520.69 607.45   Q 511.22 606.97 499.37 607.18   A 0.38 0.37 -90.0 0 0 499.00 607.56   L 499.00 685.46   A 0.43 0.43 0.0 0 0 499.42 685.89"/>
<path stroke="none" vector-effect="non-scaling-stroke" d="   M 597.51 671.64   A 0.42 0.42 0.0 0 1 597.09 671.22   L 597.09 607.56   A 0.42 0.42 0.0 0 0 596.67 607.14   L 584.00 607.14   A 0.42 0.42 0.0 0 0 583.58 607.56   L 583.58 685.51   A 0.42 0.42 0.0 0 0 584.00 685.93   L 616.32 685.93   A 0.42 0.42 0.0 0 0 616.74 685.51   L 616.74 672.06   A 0.42 0.42 0.0 0 0 616.32 671.64   L 597.51 671.64"/>
<path stroke="none" vector-effect="non-scaling-stroke" d="   M 665.14 685.93   Q 670.91 685.93 671.53 685.88   A 0.45 0.45 0.0 0 0 671.94 685.43   L 671.94 652.51   A 3.18 3.14 -33.0 0 1 672.23 651.19   L 692.54 607.57   A 0.31 0.30 12.3 0 0 692.26 607.14   L 678.97 607.14   A 1.04 1.04 0.0 0 0 678.03 607.74   Q 672.40 619.99 665.36 634.99   Q 665.32 635.07 665.14 635.07   Q 664.96 635.07 664.93 634.99   Q 657.88 619.99 652.25 607.74   A 1.04 1.04 0.0 0 0 651.31 607.14   L 638.02 607.14   A 0.31 0.30 -12.3 0 0 637.74 607.57   L 658.05 651.19   A 3.18 3.14 33.0 0 1 658.34 652.51   L 658.35 685.43   A 0.45 0.45 0.0 0 0 658.76 685.88   Q 659.38 685.93 665.14 685.93"/>
<path stroke="none" vector-effect="non-scaling-stroke" d="   M 242.09 622.06   L 242.03 637.62   A 0.21 0.21 0.0 0 0 242.24 637.83   L 249.40 637.86   A 8.15 7.14 0.2 0 0 257.58 630.75   L 257.58 629.05   A 8.15 7.14 0.2 0 0 249.46 621.88   L 242.30 621.85   A 0.21 0.21 0.0 0 0 242.09 622.06"/>
<path stroke="none" vector-effect="non-scaling-stroke" d="   M 513.11 671.31   C 524.24 671.46 534.92 671.87 539.38 659.85   Q 542.89 650.34 540.88 639.79   Q 537.80 623.59 522.04 621.96   C 519.25 621.67 515.92 621.47 513.03 621.61   A 0.67 0.66 88.7 0 0 512.40 622.28   L 512.40 670.58   A 0.73 0.72 -89.6 0 0 513.11 671.31"/>
</g>

<path fill="#e739f7" d="   M 852.31 453.91   L 840.60 454.07   A 0.72 0.72 0.0 0 1 839.91 453.60   C 829.76 428.18 825.01 402.45 826.60 375.26   Q 827.70 356.39 830.94 341.44   C 841.79 291.39 850.49 258.39 848.23 216.31   Q 844.34 143.41 815.96 75.06   Q 800.59 38.03 778.75 7.09   A 0.06 0.05 57.7 0 0 778.68 7.07   L 778.45 7.18   A 0.32 0.32 0.0 0 0 778.30 7.61   Q 793.03 36.17 802.52 68.99   Q 822.55 138.24 818.96 207.18   Q 817.97 226.29 815.15 240.63   C 810.38 264.89 802.86 285.79 793.97 311.96   Q 785.12 337.99 782.28 350.98   Q 775.32 382.85 776.52 414.24   Q 776.96 425.80 779.40 437.74   L 781.78 451.30   A 0.65 0.65 0.0 0 1 780.90 452.01   Q 756.63 442.17 737.03 425.08   C 726.96 416.30 719.56 406.52 712.98 395.28   C 702.75 377.84 697.99 355.39 698.20 335.76   Q 698.36 320.40 701.66 299.42   Q 706.91 266.17 722.57 235.59   Q 723.65 233.48 733.79 216.09   Q 735.97 212.36 743.69 199.85   C 759.76 173.84 773.53 146.47 778.27 116.25   C 784.01 79.62 782.48 41.32 776.37 4.72   A 0.46 0.46 0.0 0 1 777.13 4.30   Q 816.92 40.17 850.67 82.50   Q 875.28 113.39 889.39 137.39   C 908.59 170.07 921.47 206.85 929.29 244.86   A 0.35 0.35 0.0 0 0 929.69 245.13   Q 958.13 240.10 982.85 224.83   Q 1002.57 212.65 1015.97 200.98   Q 1037.11 182.59 1045.21 173.17   A 0.35 0.35 0.0 0 1 1045.79 173.26   Q 1046.20 174.22 1046.04 176.02   Q 1041.22 232.66 1024.86 286.64   Q 1017.56 310.72 1010.39 325.61   C 997.64 352.10 979.73 377.90 960.66 398.42   Q 945.93 414.29 927.67 427.91   Q 908.73 442.04 887.59 448.35   Q 879.92 450.64 867.37 452.57   C 862.43 453.33 857.36 453.44 852.31 453.91   Z"/>
<path fill="#6c833f" d="   M 852.31 453.91   Q 876.96 532.19 871.75 612.01   C 866.96 685.54 842.82 758.47 802.20 820.64   Q 754.15 894.19 680.24 944.49   C 662.21 956.76 644.38 966.56 624.59 976.04   C 513.74 1029.14 382.32 1031.98 269.31 983.42   C 246.79 973.74 222.80 961.42 201.14 946.96   Q 162.58 921.21 132.64 891.18   Q 55.06 813.37 23.37 708.66   Q 7.66 656.73 5.36 602.88   Q 1.47 511.90 35.24 425.47   C 63.48 353.20 111.63 289.34 172.59 242.09   C 195.23 224.54 218.20 209.99 243.82 197.04   Q 319.34 158.91 403.02 152.13   Q 480.01 145.88 554.99 166.24   Q 569.68 170.23 576.05 182.06   C 587.36 203.06 572.98 227.66 549.35 228.62   Q 544.93 228.80 535.31 226.20   Q 514.63 220.59 491.93 217.37   Q 414.45 206.40 339.33 227.09   C 214.47 261.47 115.96 360.63 81.43 485.46   Q 67.28 536.60 67.91 588.76   C 69.19 693.63 115.43 793.23 193.99 862.52   Q 214.35 880.46 239.43 896.80   Q 260.88 910.77 290.17 923.85   C 336.79 944.68 388.28 955.13 440.01 954.97   Q 542.96 954.65 632.79 900.26   Q 651.38 889.00 673.57 871.05   Q 694.22 854.34 712.47 834.19   Q 773.17 767.17 796.62 681.03   C 818.69 600.02 812.29 514.89 779.40 437.74   Q 776.96 425.80 776.52 414.24   Q 775.32 382.85 782.28 350.98   Q 785.12 337.99 793.97 311.96   C 802.86 285.79 810.38 264.89 815.15 240.63   Q 817.97 226.29 818.96 207.18   Q 822.55 138.24 802.52 68.99   Q 793.03 36.17 778.30 7.61   A 0.32 0.32 0.0 0 1 778.45 7.18   L 778.68 7.07   A 0.06 0.05 57.7 0 1 778.75 7.09   Q 800.59 38.03 815.96 75.06   Q 844.34 143.41 848.23 216.31   C 850.49 258.39 841.79 291.39 830.94 341.44   Q 827.70 356.39 826.60 375.26   C 825.01 402.45 829.76 428.18 839.91 453.60   A 0.72 0.72 0.0 0 0 840.60 454.07   L 852.31 453.91   Z"/>
<path fill="#bacc96" d="   M 474.57 525.06   A 0.36 0.36 0.0 0 1 474.56 525.57   Q 463.48 536.59 451.58 544.30   Q 435.01 555.04 414.77 557.35   C 385.59 560.70 357.43 554.50 335.96 533.79   Q 316.41 514.94 311.35 487.95   C 306.56 462.45 310.61 436.84 325.53 415.67   C 339.78 395.44 364.44 381.84 389.28 379.01   C 422.21 375.25 453.29 387.48 475.32 412.31   A 0.38 0.38 0.0 0 1 475.30 412.83   L 453.13 434.10   A 0.50 0.50 0.0 0 1 452.43 434.08   C 435.94 416.76 415.21 407.15 390.91 410.54   C 367.52 413.80 347.89 432.13 343.42 455.39   C 336.00 493.96 361.50 527.52 401.76 526.77   C 405.95 526.69 411.60 526.32 416.01 525.26   C 430.70 521.71 441.76 513.05 452.39 502.64   A 0.49 0.49 0.0 0 1 453.08 502.65   L 474.57 525.06   Z"/>
<path fill="#bacc96" d="   M 711.11 462.55   C 713.20 494.34 699.28 523.61 673.68 542.22   C 660.35 551.91 644.61 557.02 628.07 558.11   C 611.53 559.19 595.25 556.18 580.77 548.32   C 552.95 533.22 535.33 506.01 533.25 474.22   C 531.16 442.43 545.08 413.16 570.68 394.55   C 584.01 384.86 599.75 379.75 616.29 378.66   C 632.83 377.58 649.10 380.59 663.59 388.45   C 691.40 403.55 709.02 430.76 711.11 462.55   Z   M 565.80 468.32   C 565.78 482.80 570.00 496.17 579.58 507.21   C 589.22 518.31 602.61 525.43 617.32 526.34   Q 625.39 526.84 631.24 525.96   Q 648.80 523.31 661.52 510.53   C 672.86 499.13 678.47 484.85 678.48 468.46   C 678.50 452.06 672.93 437.77 661.62 426.35   Q 648.93 413.53 631.38 410.84   Q 625.53 409.95 617.46 410.43   C 602.75 411.30 589.34 418.39 579.68 429.47   C 570.07 440.49 565.81 453.85 565.80 468.32   Z"/>
<path fill="#bacc96" d="   M 189.02 477.28   L 189.02 521.41   A 0.49 0.49 0.0 0 0 189.51 521.90   L 249.66 521.90   A 0.49 0.49 0.0 0 1 250.15 522.39   L 250.15 553.41   A 0.49 0.49 0.0 0 1 249.66 553.90   L 157.13 553.90   A 0.49 0.49 0.0 0 1 156.64 553.41   L 156.64 383.09   A 0.49 0.49 0.0 0 1 157.13 382.60   L 249.67 382.60   A 0.49 0.49 0.0 0 1 250.16 383.09   L 250.16 413.95   A 0.49 0.49 0.0 0 1 249.67 414.44   L 189.51 414.44   A 0.49 0.49 0.0 0 0 189.02 414.93   L 189.02 444.96   A 0.49 0.49 0.0 0 0 189.51 445.45   L 249.68 445.45   A 0.49 0.49 0.0 0 1 250.17 445.94   L 250.17 476.30   A 0.49 0.49 0.0 0 1 249.68 476.79   L 189.51 476.79   A 0.49 0.49 0.0 0 0 189.02 477.28   Z"/>

<path fill="#a2b855" d="   M 466.36 914.41   Q 486.48 905.85 497.84 890.60   C 517.25 864.55 527.78 830.59 527.76 798.75   Q 527.74 763.83 519.67 729.71   A 0.35 0.35 0.0 0 0 519.02 729.64   Q 507.74 753.87 490.52 772.50   Q 482.43 781.25 469.27 788.60   A 0.66 0.65 60.9 0 1 468.37 788.34   Q 450.06 754.98 422.21 731.93   Q 408.46 720.55 386.75 707.02   Q 367.85 695.26 348.66 686.31   A 0.20 0.20 0.0 0 1 348.74 685.93   L 381.69 685.93   A 0.62 0.62 0.0 0 0 382.31 685.31   L 382.31 671.80   A 0.60 0.60 0.0 0 0 381.71 671.20   L 357.60 671.20   A 0.61 0.60 -90.0 0 1 357.00 670.59   L 357.00 651.08   A 0.63 0.63 0.0 0 1 357.63 650.45   L 381.71 650.45   A 0.60 0.60 0.0 0 0 382.31 649.85   L 382.31 636.67   A 0.60 0.59 0.0 0 0 381.71 636.08   L 357.61 636.08   A 0.62 0.61 -90.0 0 1 357.00 635.46   L 357.00 622.41   A 0.60 0.59 90.0 0 1 357.59 621.81   L 381.75 621.81   A 0.56 0.56 0.0 0 0 382.31 621.25   L 382.31 607.71   A 0.57 0.57 0.0 0 0 381.74 607.14   L 344.19 607.14   A 0.60 0.60 0.0 0 0 343.59 607.74   L 343.59 684.97   A 0.90 0.89 -74.3 0 0 344.01 685.73   Q 344.71 686.17 344.85 686.45   C 355.46 707.58 364.38 732.80 365.28 755.51   Q 365.88 770.86 361.61 788.93   Q 355.79 813.55 354.98 817.98   Q 351.23 838.51 354.44 858.97   C 356.50 872.07 359.63 883.73 366.26 894.73   Q 371.90 904.07 381.38 911.61   Q 379.16 911.59 375.99 911.00   Q 354.09 906.91 337.68 901.82   C 263.78 878.92 201.02 832.30 158.17 768.23   Q 119.85 710.92 107.29 640.74   C 103.98 622.25 102.54 603.41 102.48 584.66   A 0.58 0.58 0.0 0 1 103.06 584.08   L 765.75 584.08   A 0.41 0.41 0.0 0 1 766.16 584.48   C 766.76 655.12 742.86 725.38 701.69 781.13   Q 665.67 829.92 614.81 862.96   Q 558.71 899.40 490.28 911.57   Q 480.65 913.28 466.36 914.41   Z   M 199.75 650.46   A 0.38 0.38 0.0 0 0 200.13 650.08   L 200.13 636.45   A 0.38 0.38 0.0 0 0 199.75 636.07   L 178.72 636.07   A 0.38 0.38 0.0 0 1 178.34 635.69   L 178.34 622.15   A 0.38 0.38 0.0 0 1 178.72 621.77   L 199.75 621.77   A 0.38 0.38 0.0 0 0 200.13 621.39   L 200.13 607.52   A 0.38 0.38 0.0 0 0 199.75 607.14   L 165.31 607.14   A 0.38 0.38 0.0 0 0 164.93 607.52   L 164.93 685.55   A 0.38 0.38 0.0 0 0 165.31 685.93   L 177.96 685.93   A 0.38 0.38 0.0 0 0 178.34 685.55   L 178.34 650.84   A 0.38 0.38 0.0 0 1 178.72 650.46   L 199.75 650.46   Z   M 273.73 685.39   L 257.31 651.16   A 0.30 0.30 0.0 0 1 257.45 650.76   C 262.65 648.30 266.41 645.83 268.56 640.54   C 273.63 628.03 269.64 610.07 254.17 608.02   Q 244.90 606.78 229.13 607.23   A 0.59 0.58 89.5 0 0 228.56 607.82   L 228.56 685.32   A 0.62 0.61 90.0 0 0 229.17 685.94   L 241.39 685.94   A 0.67 0.67 0.0 0 0 242.06 685.26   L 242.06 653.19   A 0.71 0.71 0.0 0 1 243.23 652.65   Q 243.41 652.81 243.67 653.35   Q 258.66 684.75 259.02 685.49   A 0.80 0.78 76.7 0 0 259.73 685.94   L 273.39 685.94   A 0.38 0.38 0.0 0 0 273.73 685.39   Z   M 312.86 607.54   A 0.41 0.41 0.0 0 0 312.45 607.13   L 299.85 607.13   A 0.41 0.41 0.0 0 0 299.44 607.54   L 299.44 685.52   A 0.41 0.41 0.0 0 0 299.85 685.93   L 312.45 685.93   A 0.41 0.41 0.0 0 0 312.86 685.52   L 312.86 607.54   Z   M 433.22 650.02   Q 435.25 653.49 454.02 685.57   A 0.77 0.76 74.3 0 0 454.67 685.94   L 466.59 685.94   A 0.63 0.63 0.0 0 0 467.22 685.31   L 467.22 607.61   A 0.46 0.45 90.0 0 0 466.77 607.15   L 454.35 607.15   A 0.63 0.63 0.0 0 0 453.72 607.78   L 453.72 658.24   A 0.16 0.15 -60.9 0 1 453.43 658.33   Q 449.55 651.84 444.43 643.08   Q 442.40 639.60 423.64 607.53   A 0.77 0.76 74.3 0 0 422.98 607.15   L 411.06 607.15   A 0.63 0.63 0.0 0 0 410.43 607.78   L 410.43 685.48   A 0.46 0.45 90.0 0 0 410.88 685.94   L 423.30 685.94   A 0.63 0.63 0.0 0 0 423.93 685.31   L 423.93 634.85   A 0.16 0.15 -60.9 0 1 424.22 634.77   Q 428.10 641.26 433.22 650.02   Z   M 499.42 685.89   Q 508.31 686.09 521.37 685.73   Q 531.20 685.46 535.89 683.44   Q 542.86 680.42 547.30 674.29   C 558.25 659.16 557.70 635.41 547.34 620.19   Q 542.82 613.55 535.76 610.30   Q 530.67 607.96 520.69 607.45   Q 511.22 606.97 499.37 607.18   A 0.38 0.37 -90.0 0 0 499.00 607.56   L 499.00 685.46   A 0.43 0.43 0.0 0 0 499.42 685.89   Z   M 597.51 671.64   A 0.42 0.42 0.0 0 1 597.09 671.22   L 597.09 607.56   A 0.42 0.42 0.0 0 0 596.67 607.14   L 584.00 607.14   A 0.42 0.42 0.0 0 0 583.58 607.56   L 583.58 685.51   A 0.42 0.42 0.0 0 0 584.00 685.93   L 616.32 685.93   A 0.42 0.42 0.0 0 0 616.74 685.51   L 616.74 672.06   A 0.42 0.42 0.0 0 0 616.32 671.64   L 597.51 671.64   Z   M 665.14 685.93   Q 670.91 685.93 671.53 685.88   A 0.45 0.45 0.0 0 0 671.94 685.43   L 671.94 652.51   A 3.18 3.14 -33.0 0 1 672.23 651.19   L 692.54 607.57   A 0.31 0.30 12.3 0 0 692.26 607.14   L 678.97 607.14   A 1.04 1.04 0.0 0 0 678.03 607.74   Q 672.40 619.99 665.36 634.99   Q 665.32 635.07 665.14 635.07   Q 664.96 635.07 664.93 634.99   Q 657.88 619.99 652.25 607.74   A 1.04 1.04 0.0 0 0 651.31 607.14   L 638.02 607.14   A 0.31 0.30 -12.3 0 0 637.74 607.57   L 658.05 651.19   A 3.18 3.14 33.0 0 1 658.34 652.51   L 658.35 685.43   A 0.45 0.45 0.0 0 0 658.76 685.88   Q 659.38 685.93 665.14 685.93   Z"/>
<path fill="#41532a" d="   M 199.75 650.46   L 178.72 650.46   A 0.38 0.38 0.0 0 0 178.34 650.84   L 178.34 685.55   A 0.38 0.38 0.0 0 1 177.96 685.93   L 165.31 685.93   A 0.38 0.38 0.0 0 1 164.93 685.55   L 164.93 607.52   A 0.38 0.38 0.0 0 1 165.31 607.14   L 199.75 607.14   A 0.38 0.38 0.0 0 1 200.13 607.52   L 200.13 621.39   A 0.38 0.38 0.0 0 1 199.75 621.77   L 178.72 621.77   A 0.38 0.38 0.0 0 0 178.34 622.15   L 178.34 635.69   A 0.38 0.38 0.0 0 0 178.72 636.07   L 199.75 636.07   A 0.38 0.38 0.0 0 1 200.13 636.45   L 200.13 650.08   A 0.38 0.38 0.0 0 1 199.75 650.46   Z"/>
<path fill="#41532a" d="   M 273.73 685.39   A 0.38 0.38 0.0 0 1 273.39 685.94   L 259.73 685.94   A 0.80 0.78 76.7 0 1 259.02 685.49   Q 258.66 684.75 243.67 653.35   Q 243.41 652.81 243.23 652.65   A 0.71 0.71 0.0 0 0 242.06 653.19   L 242.06 685.26   A 0.67 0.67 0.0 0 1 241.39 685.94   L 229.17 685.94   A 0.62 0.61 90.0 0 1 228.56 685.32   L 228.56 607.82   A 0.59 0.58 89.5 0 1 229.13 607.23   Q 244.90 606.78 254.17 608.02   C 269.64 610.07 273.63 628.03 268.56 640.54   C 266.41 645.83 262.65 648.30 257.45 650.76   A 0.30 0.30 0.0 0 0 257.31 651.16   L 273.73 685.39   Z   M 242.09 622.06   L 242.03 637.62   A 0.21 0.21 0.0 0 0 242.24 637.83   L 249.40 637.86   A 8.15 7.14 0.2 0 0 257.58 630.75   L 257.58 629.05   A 8.15 7.14 0.2 0 0 249.46 621.88   L 242.30 621.85   A 0.21 0.21 0.0 0 0 242.09 622.06   Z"/>
<rect fill="#41532a" x="299.44" y="607.13" width="13.42" height="78.80" rx="0.41"/>
<path fill="#41532a" d="   M 466.36 914.41   L 454.53 915.53   Q 443.23 901.07 438.32 886.93   Q 433.24 872.28 431.84 857.78   C 429.25 830.84 428.42 812.26 421.59 792.74   Q 407.85 753.49 381.51 720.74   Q 365.03 700.26 346.54 686.22   A 0.25 0.25 0.0 0 0 346.21 686.25   L 346.21 686.26   A 0.27 0.27 0.0 0 0 346.22 686.63   C 372.30 713.23 391.12 748.15 401.15 783.79   C 405.33 798.67 407.12 812.34 406.94 827.27   Q 406.72 845.64 406.56 859.74   Q 406.30 882.75 414.67 905.61   Q 416.53 910.67 418.54 915.76   Q 402.24 914.76 386.26 912.70   Q 383.34 912.33 381.38 911.61   Q 371.90 904.07 366.26 894.73   C 359.63 883.73 356.50 872.07 354.44 858.97   Q 351.23 838.51 354.98 817.98   Q 355.79 813.55 361.61 788.93   Q 365.88 770.86 365.28 755.51   C 364.38 732.80 355.46 707.58 344.85 686.45   Q 344.71 686.17 344.01 685.73   A 0.90 0.89 -74.3 0 1 343.59 684.97   L 343.59 607.74   A 0.60 0.60 0.0 0 1 344.19 607.14   L 381.74 607.14   A 0.57 0.57 0.0 0 1 382.31 607.71   L 382.31 621.25   A 0.56 0.56 0.0 0 1 381.75 621.81   L 357.59 621.81   A 0.60 0.59 -90.0 0 0 357.00 622.41   L 357.00 635.46   A 0.62 0.61 -90.0 0 0 357.61 636.08   L 381.71 636.08   A 0.60 0.59 -0.0 0 1 382.31 636.67   L 382.31 649.85   A 0.60 0.60 0.0 0 1 381.71 650.45   L 357.63 650.45   A 0.63 0.63 0.0 0 0 357.00 651.08   L 357.00 670.59   A 0.61 0.60 -90.0 0 0 357.60 671.20   L 381.71 671.20   A 0.60 0.60 0.0 0 1 382.31 671.80   L 382.31 685.31   A 0.62 0.62 0.0 0 1 381.69 685.93   L 348.74 685.93   A 0.20 0.20 0.0 0 0 348.66 686.31   Q 367.85 695.26 386.75 707.02   Q 408.46 720.55 422.21 731.93   Q 450.06 754.98 468.37 788.34   A 0.66 0.65 60.9 0 0 469.27 788.60   Q 482.43 781.25 490.52 772.50   Q 507.74 753.87 519.02 729.64   A 0.35 0.35 0.0 0 1 519.67 729.71   Q 527.74 763.83 527.76 798.75   C 527.78 830.59 517.25 864.55 497.84 890.60   Q 486.48 905.85 466.36 914.41   Z"/>
<path fill="#41532a" d="   M 433.22 650.02   Q 428.10 641.26 424.22 634.77   A 0.16 0.15 -60.9 0 0 423.93 634.85   L 423.93 685.31   A 0.63 0.63 0.0 0 1 423.30 685.94   L 410.88 685.94   A 0.46 0.45 -90.0 0 1 410.43 685.48   L 410.43 607.78   A 0.63 0.63 0.0 0 1 411.06 607.15   L 422.98 607.15   A 0.77 0.76 74.3 0 1 423.64 607.53   Q 442.40 639.60 444.43 643.08   Q 449.55 651.84 453.43 658.33   A 0.16 0.15 -60.9 0 0 453.72 658.24   L 453.72 607.78   A 0.63 0.63 0.0 0 1 454.35 607.15   L 466.77 607.15   A 0.46 0.45 -90.0 0 1 467.22 607.61   L 467.22 685.31   A 0.63 0.63 0.0 0 1 466.59 685.94   L 454.67 685.94   A 0.77 0.76 74.3 0 1 454.02 685.57   Q 435.25 653.49 433.22 650.02   Z"/>
<path fill="#41532a" d="   M 499.42 685.89   A 0.43 0.43 0.0 0 1 499.00 685.46   L 499.00 607.56   A 0.38 0.37 90.0 0 1 499.37 607.18   Q 511.22 606.97 520.69 607.45   Q 530.67 607.96 535.76 610.30   Q 542.82 613.55 547.34 620.19   C 557.70 635.41 558.25 659.16 547.30 674.29   Q 542.86 680.42 535.89 683.44   Q 531.20 685.46 521.37 685.73   Q 508.31 686.09 499.42 685.89   Z   M 513.11 671.31   C 524.24 671.46 534.92 671.87 539.38 659.85   Q 542.89 650.34 540.88 639.79   Q 537.80 623.59 522.04 621.96   C 519.25 621.67 515.92 621.47 513.03 621.61   A 0.67 0.66 88.7 0 0 512.40 622.28   L 512.40 670.58   A 0.73 0.72 -89.6 0 0 513.11 671.31   Z"/>
<path fill="#41532a" d="   M 597.51 671.64   L 616.32 671.64   A 0.42 0.42 0.0 0 1 616.74 672.06   L 616.74 685.51   A 0.42 0.42 0.0 0 1 616.32 685.93   L 584.00 685.93   A 0.42 0.42 0.0 0 1 583.58 685.51   L 583.58 607.56   A 0.42 0.42 0.0 0 1 584.00 607.14   L 596.67 607.14   A 0.42 0.42 0.0 0 1 597.09 607.56   L 597.09 671.22   A 0.42 0.42 0.0 0 0 597.51 671.64   Z"/>
<path fill="#41532a" d="   M 665.14 635.07   Q 665.32 635.07 665.36 634.99   Q 672.40 619.99 678.03 607.74   A 1.04 1.04 0.0 0 1 678.97 607.14   L 692.26 607.14   A 0.31 0.30 12.3 0 1 692.54 607.57   L 672.23 651.19   A 3.18 3.14 -33.0 0 0 671.94 652.51   L 671.94 685.43   A 0.45 0.45 0.0 0 1 671.53 685.88   Q 670.91 685.93 665.14 685.93   Q 659.38 685.93 658.76 685.88   A 0.45 0.45 0.0 0 1 658.35 685.43   L 658.34 652.51   A 3.18 3.14 33.0 0 0 658.05 651.19   L 637.74 607.57   A 0.31 0.30 -12.3 0 1 638.02 607.14   L 651.31 607.14   A 1.04 1.04 0.0 0 1 652.25 607.74   Q 657.88 619.99 664.93 634.99   Q 664.96 635.07 665.14 635.07   Z"/>
<path fill="#a2b855" d="   M 512.40 670.58   L 512.40 622.28   A 0.67 0.66 88.7 0 1 513.03 621.61   C 515.92 621.47 519.25 621.67 522.04 621.96   Q 537.80 623.59 540.88 639.79   Q 542.89 650.34 539.38 659.85   C 534.92 671.87 524.24 671.46 513.11 671.31   A 0.73 0.72 -89.6 0 1 512.40 670.58   Z"/>
<path fill="#a2b855" d="   M 242.09 622.06   A 0.21 0.21 0.0 0 1 242.30 621.85   L 249.46 621.88   A 8.15 7.14 0.2 0 1 257.58 629.05   L 257.58 630.75   A 8.15 7.14 0.2 0 1 249.40 637.86   L 242.24 637.83   A 0.21 0.21 0.0 0 1 242.03 637.62   L 242.09 622.06   Z"/>
<path fill="#a2b855" d="   M 454.53 915.53   Q 435.85 916.36 418.54 915.76   Q 416.53 910.67 414.67 905.61   Q 406.30 882.75 406.56 859.74   Q 406.72 845.64 406.94 827.27   C 407.12 812.34 405.33 798.67 401.15 783.79   C 391.12 748.15 372.30 713.23 346.22 686.63   A 0.27 0.27 0.0 0 1 346.21 686.26   L 346.21 686.25   A 0.25 0.25 0.0 0 1 346.54 686.22   Q 365.03 700.26 381.51 720.74   Q 407.85 753.49 421.59 792.74   C 428.42 812.26 429.25 830.84 431.84 857.78   Q 433.24 872.28 438.32 886.93   Q 443.23 901.07 454.53 915.53   Z"/>
</svg>