<svg xmlns="http://www.w3.org/2000/svg" version="1.1" viewBox="0.00 0.00 247.00 132.00">
<g stroke-width="2.00" fill="none" stroke-linecap="butt">
<path stroke="none" vector-effect="non-scaling-stroke" d="   M 21.83 0.00   C 12.38 0.92 2.14 5.51 0.00 15.61"/>
<path stroke="none" vector-effect="non-scaling-stroke" d="   M 30.95 0.00   C 42.25 1.32 53.03 6.63 53.01 19.72   Q 52.98 37.97 52.97 38.72   A 0.39 0.39 0.0 0 1 52.38 39.05   L 31.30 26.88   A 1.07 1.06 15.3 0 1 30.77 25.96   L 30.77 14.78   A 0.33 0.33 0.0 0 0 30.44 14.45   L 23.02 14.45   A 0.31 0.31 0.0 0 0 22.71 14.76   L 22.71 38.11   A 0.96 0.93 -15.9 0 1 22.24 38.92   L 0.00 51.87"/>
<path stroke="none" vector-effect="non-scaling-stroke" d="   M 247.00 18.04   L 237.06 18.08   A 0.56 0.55 -90.0 0 0 236.51 18.64   L 236.51 40.49   A 0.46 0.45 -90.0 0 0 236.96 40.95   L 247.00 40.94"/>
<path stroke="none" vector-effect="non-scaling-stroke" d="   M 247.00 85.11   L 243.49 84.76"/>
<path stroke="none" vector-effect="non-scaling-stroke" d="   M 243.49 84.76   L 232.28 22.27"/>
<path stroke="none" vector-effect="non-scaling-stroke" d="   M 232.28 22.27   Q 233.16 17.76 231.50 17.91"/>
<path stroke="none" vector-effect="non-scaling-stroke" d="   M 231.50 17.91   L 228.45 1.08   A 0.66 0.65 -4.6 0 0 227.80 0.54   L 204.71 0.54   A 0.62 0.62 0.0 0 0 204.10 1.05   L 200.86 18.70"/>
<path stroke="none" vector-effect="non-scaling-stroke" d="   M 200.86 18.70   Q 193.31 17.52 185.09 18.07   A 0.58 0.57 88.4 0 0 184.55 18.65   L 184.55 40.60   A 0.39 0.38 -90.0 0 0 184.93 40.99   L 189.02 40.99   A 0.33 0.32 -90.0 0 0 189.34 40.66   L 189.34 33.19   A 1.19 1.18 0.0 0 1 190.53 32.01   L 195.54 32.01   A 2.14 2.13 0.1 0 1 197.68 34.15   L 197.65 38.44"/>
<path stroke="none" vector-effect="non-scaling-stroke" d="   M 197.65 38.44   Q 197.52 38.54 197.41 38.63   A 0.91 0.91 0.0 0 0 197.10 39.16   L 188.05 89.27"/>
<path stroke="none" vector-effect="non-scaling-stroke" d="   M 188.05 89.27   L 186.63 85.61   A 0.96 0.95 79.2 0 0 185.74 85.00   L 181.73 85.00   A 0.86 0.85 10.4 0 0 180.93 85.55   L 178.01 93.28"/>
<path stroke="none" vector-effect="non-scaling-stroke" d="   M 178.01 93.28   L 161.59 41.12   A 1.28 1.27 -41.4 0 1 161.65 40.22   L 162.36 38.68"/>
<path stroke="none" vector-effect="non-scaling-stroke" d="   M 162.36 38.68   Q 166.99 41.95 172.95 40.58   A 4.20 3.78 -62.1 0 0 173.88 40.24   Q 182.55 35.76 180.28 26.25   Q 178.76 19.92 172.00 18.18"/>
<path stroke="none" vector-effect="non-scaling-stroke" d="   M 172.00 18.18   L 180.14 0.87   A 0.23 0.23 0.0 0 0 179.93 0.54   L 157.83 0.54   A 0.54 0.54 0.0 0 0 157.33 0.87   L 150.32 17.78"/>
<path stroke="none" vector-effect="non-scaling-stroke" d="   M 150.32 17.78   L 144.19 17.91"/>
<path stroke="none" vector-effect="non-scaling-stroke" d="   M 144.19 17.91   L 144.18 1.09   A 0.56 0.55 0.0 0 0 143.62 0.54   L 122.13 0.54   A 0.54 0.53 -0.0 0 0 121.59 1.07   L 121.53 18.72"/>
<path stroke="none" vector-effect="non-scaling-stroke" d="   M 121.53 18.72   Q 114.24 22.90 115.67 31.89   Q 116.60 37.68 121.56 40.24"/>
<path stroke="none" vector-effect="non-scaling-stroke" d="   M 121.56 40.24   L 121.51 84.94"/>
<path stroke="none" vector-effect="non-scaling-stroke" d="   M 121.51 84.94   L 121.54 107.42   A 0.59 0.59 0.0 0 0 122.13 108.01   L 138.16 108.01   A 0.75 0.73 -82.2 0 0 138.87 107.46   L 139.26 106.00"/>
<path stroke="none" vector-effect="non-scaling-stroke" d="   M 139.26 106.00   Q 140.74 106.38 142.51 106.08"/>
<path stroke="none" vector-effect="non-scaling-stroke" d="   M 142.51 106.08   Q 141.63 108.84 146.85 107.91   A 0.63 0.62 -5.7 0 0 147.36 107.30   L 147.36 100.07   A 1.05 1.05 0.0 0 1 148.41 99.02   L 153.77 99.02   A 2.03 2.03 0.0 0 1 155.80 101.05   L 155.80 106.61   A 1.38 1.38 0.0 0 0 157.18 107.99   L 161.39 107.99   A 0.38 0.38 0.0 0 0 161.67 107.36   Q 161.12 106.76 161.01 106.06"/>
<path stroke="none" vector-effect="non-scaling-stroke" d="   M 161.01 106.06   L 164.84 106.13"/>
<path stroke="none" vector-effect="non-scaling-stroke" d="   M 164.84 106.13   Q 164.42 108.73 169.23 107.99   A 0.70 0.68 -89.3 0 0 169.81 107.41   L 170.00 106.24"/>
<path stroke="none" vector-effect="non-scaling-stroke" d="   M 170.00 106.24   Q 172.32 106.00 173.16 106.47"/>
<path stroke="none" vector-effect="non-scaling-stroke" d="   M 173.16 106.47   Q 173.83 110.21 178.87 106.43"/>
<path stroke="none" vector-effect="non-scaling-stroke" d="   M 178.87 106.43   L 181.28 106.16   A 0.53 0.52 84.4 0 0 181.74 105.59   Q 181.68 104.89 181.20 104.22"/>
<path stroke="none" vector-effect="non-scaling-stroke" d="   M 181.20 104.22   Q 183.55 103.75 185.57 104.23"/>
<path stroke="none" vector-effect="non-scaling-stroke" d="   M 185.57 104.23   Q 185.27 104.91 185.23 105.51   A 0.61 0.61 0.0 0 0 185.70 106.15   Q 187.15 106.48 188.58 105.90"/>
<path stroke="none" vector-effect="non-scaling-stroke" d="   M 188.58 105.90   L 189.39 107.44   A 0.99 0.97 -9.3 0 0 190.13 107.96   Q 195.53 108.69 194.01 106.41"/>
<path stroke="none" vector-effect="non-scaling-stroke" d="   M 194.01 106.41   Q 195.01 105.87 196.95 106.38"/>
<path stroke="none" vector-effect="non-scaling-stroke" d="   M 196.95 106.38   Q 196.35 108.64 201.07 108.02   A 0.80 0.79 3.9 0 0 201.73 107.45   Q 201.88 106.87 201.83 106.19"/>
<path stroke="none" vector-effect="non-scaling-stroke" d="   M 201.83 106.19   L 206.66 106.18   A 0.65 0.63 -85.8 0 0 207.29 105.62   L 210.23 86.13   A 0.69 0.68 -0.6 0 1 210.80 85.55   L 213.51 85.16"/>
<path stroke="none" vector-effect="non-scaling-stroke" d="   M 213.51 85.16   L 213.54 88.44   A 0.60 0.60 0.0 0 0 214.14 89.03   L 219.87 89.03   A 0.62 0.61 -0.0 0 1 220.49 89.64   L 220.49 107.47   A 0.51 0.50 -86.1 0 0 220.92 107.97   Q 226.14 108.67 225.38 106.40"/>
<path stroke="none" vector-effect="non-scaling-stroke" d="   M 225.38 106.40   L 235.31 106.67"/>
<path stroke="none" vector-effect="non-scaling-stroke" d="   M 235.31 106.67   Q 238.79 109.20 247.00 107.61"/>
<path stroke="none" vector-effect="non-scaling-stroke" d="   M 0.00 91.86   Q 0.33 92.51 0.71 92.73"/>
<path stroke="none" vector-effect="non-scaling-stroke" d="   M 0.71 92.73   Q -0.09 97.68 1.05 101.02   C 3.40 107.90 11.84 110.05 17.70 105.95"/>
<path stroke="none" vector-effect="non-scaling-stroke" d="   M 17.70 105.95   L 29.35 106.75"/>
<path stroke="none" vector-effect="non-scaling-stroke" d="   M 29.35 106.75   Q 29.49 108.68 33.70 107.96   A 0.85 0.84 -86.5 0 0 34.36 107.37   Q 34.57 106.62 34.38 105.91"/>
<path stroke="none" vector-effect="non-scaling-stroke" d="   M 34.38 105.91   Q 40.02 105.31 44.58 102.25"/>
<path stroke="none" vector-effect="non-scaling-stroke" d="   M 44.58 102.25   Q 50.73 111.38 61.13 106.11"/>
<path stroke="none" vector-effect="non-scaling-stroke" d="   M 61.13 106.11   L 69.33 106.13"/>
<path stroke="none" vector-effect="non-scaling-stroke" d="   M 69.33 106.13   Q 70.79 110.55 74.75 106.49"/>
<path stroke="none" vector-effect="non-scaling-stroke" d="   M 74.75 106.49   L 82.59 106.19"/>
<path stroke="none" vector-effect="non-scaling-stroke" d="   M 82.59 106.19   Q 83.20 108.80 88.18 107.95   A 0.44 0.43 -17.6 0 0 88.50 107.34   Q 87.21 104.67 87.48 101.28   Q 87.69 98.77 85.06 97.34   A 0.34 0.34 0.0 0 1 85.05 96.75   Q 88.30 94.87 88.31 91.49   Q 88.32 86.21 83.18 84.95"/>
<path stroke="none" vector-effect="non-scaling-stroke" d="   M 83.18 84.95   L 83.16 62.67   A 0.39 0.39 0.0 0 1 83.86 62.44   Q 84.07 62.72 84.20 63.26   Q 87.65 77.95 91.45 92.99"/>
<path stroke="none" vector-effect="non-scaling-stroke" d="   M 91.45 92.99   Q 92.41 99.64 91.92 107.13   A 0.82 0.81 -83.9 0 0 92.61 107.99   Q 97.36 108.74 96.87 106.36"/>
<path stroke="none" vector-effect="non-scaling-stroke" d="   M 96.87 106.36   Q 98.37 106.00 99.85 106.20"/>
<path stroke="none" vector-effect="non-scaling-stroke" d="   M 99.85 106.20   Q 99.71 107.19 100.13 107.77   A 0.72 0.70 -17.8 0 0 100.70 108.05   L 116.76 108.05   A 0.69 0.69 0.0 0 0 117.44 107.48   Q 118.08 103.96 116.04 103.92"/>
<path stroke="none" vector-effect="non-scaling-stroke" d="   M 116.04 103.92   L 113.62 93.95"/>
<path stroke="none" vector-effect="non-scaling-stroke" d="   M 113.62 93.95   Q 115.27 91.76 116.86 89.42   Q 117.81 88.00 117.46 85.71   A 0.85 0.84 86.3 0 0 116.65 84.99   L 111.43 84.83"/>
<path stroke="none" vector-effect="non-scaling-stroke" d="   M 111.43 84.83   L 105.18 58.51   A 0.81 0.79 67.6 0 1 105.53 57.65   Q 114.83 51.80 113.33 40.87"/>
<path stroke="none" vector-effect="non-scaling-stroke" d="   M 113.33 40.87   L 113.42 38.97"/>
<path stroke="none" vector-effect="non-scaling-stroke" d="   M 113.42 38.97   Q 113.44 31.10 113.49 23.20   Q 113.53 15.84 112.60 13.39   C 109.72 5.77 101.33 2.30 93.40 0.98   Q 90.44 0.49 79.52 0.54   Q 68.28 0.58 61.13 0.52   A 0.58 0.57 -89.5 0 0 60.55 1.10   L 60.55 86.58"/>
<path stroke="none" vector-effect="non-scaling-stroke" d="   M 60.55 86.58   Q 57.00 84.64 52.75 85.11"/>
<path stroke="none" vector-effect="non-scaling-stroke" d="   M 52.75 85.11   Q 53.21 83.84 52.92 82.61   A 1.15 1.13 -81.7 0 0 52.37 81.86   L 31.21 69.65   A 0.29 0.29 0.0 0 0 30.78 69.90   L 30.76 84.97"/>
<path stroke="none" vector-effect="non-scaling-stroke" d="   M 30.76 84.97   L 22.60 85.22"/>
<path stroke="none" vector-effect="non-scaling-stroke" d="   M 22.60 85.22   L 22.64 70.22   A 0.23 0.23 0.0 0 0 22.29 70.02   L 0.00 83.02"/>
<path stroke="none" vector-effect="non-scaling-stroke" d="   M 0.00 74.70   L 22.37 61.70   A 0.68 0.66 75.4 0 0 22.70 61.12   L 22.70 47.37   A 0.23 0.23 0.0 0 0 22.35 47.17   L 0.00 60.19"/>
<path stroke="none" vector-effect="non-scaling-stroke" d="   M 30.78 56.19   A 0.33 0.33 0.0 0 0 31.28 56.47   L 49.28 46.08   A 0.33 0.33 0.0 0 0 49.28 45.51   L 31.27 35.11   A 0.33 0.33 0.0 0 0 30.78 35.39   L 30.78 56.19"/>
<path stroke="none" vector-effect="non-scaling-stroke" d="   M 34.67 62.73   A 0.39 0.39 0.0 0 0 34.67 63.41   L 52.39 73.64   A 0.39 0.39 0.0 0 0 52.98 73.31   L 52.98 52.83   A 0.39 0.39 0.0 0 0 52.39 52.50   L 34.67 62.73"/>
<path stroke="none" vector-effect="non-scaling-stroke" d="   M 59.29 126.19   C 59.29 129.52 61.10 132.74 64.96 131.19   A 1.10 1.10 0.0 0 0 65.60 129.83   L 65.57 129.73   A 0.87 0.87 0.0 0 0 64.32 129.24   Q 63.57 129.65 63.06 129.68   Q 62.50 129.72 62.01 128.96   Q 61.28 127.81 61.28 126.19   Q 61.28 124.57 62.02 123.42   Q 62.51 122.66 63.07 122.70   Q 63.58 122.74 64.33 123.15   A 0.87 0.87 0.0 0 0 65.58 122.66   L 65.61 122.56   A 1.10 1.10 0.0 0 0 64.98 121.20   C 61.12 119.64 59.30 122.86 59.29 126.19"/>
<path stroke="none" vector-effect="non-scaling-stroke" d="   M 72.6596 120.6500   A 5.52 3.84 -89.9 0 0 68.8100 126.1633   A 5.52 3.84 -89.9 0 0 72.6404 131.6900   A 5.52 3.84 -89.9 0 0 76.4900 126.1767   A 5.52 3.84 -89.9 0 0 72.6596 120.6500"/>
<path stroke="none" vector-effect="non-scaling-stroke" d="   M 89.74 126.18   C 89.74 129.52 91.56 132.75 95.44 131.19   A 1.11 1.11 0.0 0 0 96.08 129.82   L 96.05 129.72   A 0.87 0.87 0.0 0 0 94.79 129.23   Q 94.04 129.65 93.53 129.68   Q 92.97 129.72 92.47 128.96   Q 91.73 127.81 91.73 126.18   Q 91.73 124.55 92.47 123.39   Q 92.96 122.63 93.52 122.68   Q 94.03 122.71 94.79 123.12   A 0.87 0.87 0.0 0 0 96.04 122.63   L 96.07 122.53   A 1.11 1.11 0.0 0 0 95.43 121.16   C 91.55 119.60 89.73 122.83 89.74 126.18"/>
<path stroke="none" vector-effect="non-scaling-stroke" d="   M 134.07 125.26   Q 132.20 125.33 131.88 125.53   A 0.63 0.63 0.0 0 0 132.07 126.68   Q 133.53 127.02 132.96 129.10   A 0.99 0.99 0.0 0 1 131.22 129.44   Q 129.17 126.75 130.77 123.40   Q 131.11 122.69 131.81 122.72   Q 132.43 122.75 133.04 123.17   A 0.84 0.84 0.0 0 0 134.30 122.79   L 134.39 122.56   A 1.10 1.10 0.0 0 0 133.78 121.14   C 126.52 118.22 125.71 133.68 134.04 131.27   A 0.91 0.90 -8.1 0 0 134.70 130.40   L 134.70 125.86   A 0.60 0.60 0.0 0 0 134.07 125.26"/>
<path stroke="none" vector-effect="non-scaling-stroke" d="   M 144.07 126.19   C 144.06 129.52 145.87 132.74 149.74 131.20   A 1.11 1.10 -20.0 0 0 150.38 129.83   L 150.35 129.73   A 0.87 0.87 0.0 0 0 149.10 129.24   Q 148.35 129.65 147.84 129.68   Q 147.28 129.72 146.79 128.96   Q 146.05 127.81 146.06 126.19   Q 146.06 124.56 146.80 123.41   Q 147.29 122.66 147.85 122.70   Q 148.36 122.73 149.11 123.14   A 0.87 0.87 0.0 0 0 150.36 122.66   L 150.39 122.56   A 1.11 1.10 20.2 0 0 149.76 121.19   C 145.89 119.63 144.07 122.85 144.07 126.19"/>
<path stroke="none" vector-effect="non-scaling-stroke" d="   M 157.4193 120.6500   A 5.53 3.84 -89.8 0 0 153.5600 126.1666   A 5.53 3.84 -89.8 0 0 157.3807 131.7100   A 5.53 3.84 -89.8 0 0 161.2400 126.1934   A 5.53 3.84 -89.8 0 0 157.4193 120.6500"/>
<path stroke="none" vector-effect="non-scaling-stroke" d="   M 83.07 129.20   Q 84.64 129.21 84.63 130.47   Q 84.62 131.28 85.11 131.42   Q 85.99 131.66 86.17 131.63   A 0.67 0.67 0.0 0 0 86.68 130.82   L 84.51 121.70   A 0.87 0.85 87.1 0 0 83.81 121.05   Q 83.57 121.02 83.12 121.01   Q 82.66 121.01 82.42 121.04   A 0.87 0.85 -86.4 0 0 81.72 121.68   L 79.43 130.77   A 0.67 0.67 0.0 0 0 79.93 131.59   Q 80.11 131.62 80.99 131.39   Q 81.48 131.26 81.49 130.45   Q 81.49 129.19 83.07 129.20"/>
<path stroke="none" vector-effect="non-scaling-stroke" d="   M 103.32 126.75   Q 104.02 126.76 104.19 126.76   A 0.66 0.65 -89.5 0 1 104.83 127.42   L 104.83 130.82   A 0.82 0.81 -0.0 0 0 105.65 131.63   L 105.97 131.63   A 0.69 0.69 0.0 0 0 106.66 130.94   L 106.66 121.68   A 0.65 0.65 0.0 0 0 106.01 121.03   L 105.54 121.03   A 0.69 0.68 0.0 0 0 104.85 121.71   L 104.85 124.32   A 0.67 0.67 0.0 0 1 104.20 124.99   Q 103.98 124.99 103.32 124.99   Q 102.66 124.99 102.45 124.98   A 0.67 0.67 0.0 0 1 101.80 124.31   L 101.81 121.70   A 0.69 0.68 0.3 0 0 101.12 121.02   L 100.65 121.02   A 0.65 0.65 0.0 0 0 100.00 121.66   L 99.95 130.92   A 0.69 0.69 0.0 0 0 100.64 131.62   L 100.96 131.62   A 0.82 0.81 0.3 0 0 101.78 130.81   L 101.80 127.41   A 0.66 0.65 89.8 0 1 102.44 126.75   Q 102.61 126.75 103.32 126.75"/>
<path stroke="none" vector-effect="non-scaling-stroke" d="   M 112.9778 121.8317   A 0.86 0.86 0.0 0 0 112.1193 120.9702   L 111.8993 120.9698   A 0.86 0.86 0.0 0 0 111.0378 121.8283   L 111.0222 130.7283   A 0.86 0.86 0.0 0 0 111.8807 131.5898   L 112.1007 131.5902   A 0.86 0.86 0.0 0 0 112.9622 130.7317   L 112.9778 121.8317"/>
<path stroke="none" vector-effect="non-scaling-stroke" d="   M 119.73 125.79   Q 119.95 126.31 121.86 130.99   A 1.10 1.10 0.0 0 0 123.97 130.57   L 123.97 121.59   A 0.61 0.61 0.0 0 0 123.36 120.98   L 123.08 120.98   A 0.76 0.75 90.0 0 0 122.33 121.74   L 122.33 126.36   A 0.31 0.31 0.0 0 1 121.72 126.46   L 120.06 121.65   A 1.30 1.30 0.0 0 0 117.53 122.07   L 117.53 130.95   A 0.60 0.59 0.0 0 0 118.13 131.54   L 118.56 131.54   A 0.66 0.66 0.0 0 0 119.22 130.88   L 119.22 125.89   A 0.27 0.26 33.8 0 1 119.73 125.79"/>
<path stroke="none" vector-effect="non-scaling-stroke" d="   M 171.31 130.96   L 170.00 127.15   A 0.84 0.81 -32.0 0 1 170.21 126.29   Q 172.35 124.24 170.27 121.50   A 1.13 1.13 0.0 0 0 169.36 121.04   L 165.79 121.04   A 0.48 0.48 0.0 0 0 165.31 121.52   L 165.31 131.17   A 0.47 0.47 0.0 0 0 165.78 131.64   L 166.15 131.64   A 0.76 0.76 0.0 0 0 166.91 130.88   L 166.91 127.44   A 0.52 0.52 0.0 0 1 167.92 127.27   L 169.12 130.77   A 1.12 1.11 80.4 0 0 170.17 131.52   L 170.91 131.52   A 0.42 0.42 0.0 0 0 171.31 130.96"/>
<path stroke="none" vector-effect="non-scaling-stroke" d="   M 177.57 127.65   L 179.39 130.79   A 1.74 1.74 0.0 0 0 180.90 131.67   L 181.28 131.67   A 0.55 0.55 0.0 0 0 181.76 130.84   L 179.18 126.37   A 0.94 0.94 0.0 0 1 179.18 125.43   L 181.47 121.45   A 0.29 0.29 0.0 0 0 181.22 121.02   L 180.33 121.02   A 1.47 1.45 -74.2 0 0 179.08 121.73   L 177.63 124.14   A 0.32 0.32 0.0 0 1 177.03 124.00   Q 177.01 123.66 177.34 121.69   A 0.59 0.59 0.0 0 0 176.76 121.01   L 175.87 121.01   A 0.57 0.56 -0.0 0 0 175.30 121.57   L 175.30 130.89   A 0.67 0.67 0.0 0 0 175.97 131.56   L 176.57 131.56   A 0.67 0.67 0.0 0 0 177.24 130.89   L 177.24 127.74   A 0.18 0.18 0.0 0 1 177.57 127.65"/>
<path stroke="none" vector-effect="non-scaling-stroke" d="   M 113.42 38.97   L 113.32 37.56   A 0.56 0.56 0.0 0 0 112.76 37.03   L 100.83 37.03   A 0.59 0.59 0.0 0 1 100.24 36.44   L 100.24 31.51   A 0.53 0.53 0.0 0 1 100.77 30.98   L 110.84 30.98   A 0.67 0.66 -0.0 0 0 111.51 30.32   L 111.51 27.87   A 0.84 0.84 0.0 0 0 110.67 27.03   L 100.85 27.03   A 0.64 0.64 0.0 0 1 100.21 26.39   L 100.21 22.55   A 0.57 0.57 0.0 0 1 100.78 21.98   L 111.69 21.98   A 0.70 0.69 -90.0 0 0 112.38 21.28   L 112.38 18.86   A 0.84 0.84 0.0 0 0 111.54 18.02   L 96.16 18.02   A 0.70 0.69 0.0 0 0 95.46 18.71   L 95.46 40.35   A 0.60 0.59 0.0 0 0 96.06 40.94   L 113.33 40.87"/>
<path stroke="none" vector-effect="non-scaling-stroke" d="   M 111.43 84.83   L 100.85 84.99   A 0.95 0.95 0.0 0 0 99.92 85.94   L 99.92 88.00   A 1.01 1.01 0.0 0 0 100.93 89.01   L 111.13 89.01   A 0.40 0.40 0.0 0 1 111.44 89.66   Q 106.10 96.15 100.74 103.00   Q 99.66 104.38 99.85 106.20"/>
<path stroke="none" vector-effect="non-scaling-stroke" d="   M 96.87 106.36   L 96.83 85.75   A 0.78 0.78 0.0 0 0 96.05 84.97   L 92.63 84.97   A 0.69 0.69 0.0 0 0 91.95 85.76   Q 92.46 89.19 91.45 92.99"/>
<path stroke="none" vector-effect="non-scaling-stroke" d="   M 83.18 84.95   L 70.29 84.91   A 0.83 0.83 0.0 0 0 69.46 85.73   L 69.33 106.13"/>
<path stroke="none" vector-effect="non-scaling-stroke" d="   M 61.13 106.11   C 67.31 100.67 67.31 91.44 60.55 86.58"/>
<path stroke="none" vector-effect="non-scaling-stroke" d="   M 82.92 34.62   L 77.71 18.56   A 0.83 0.82 -8.6 0 0 76.92 17.99   L 73.65 17.99   A 0.64 0.63 -9.4 0 0 73.04 18.83   L 80.40 40.22   A 1.08 1.06 89.8 0 0 81.06 40.89   Q 81.97 41.21 83.05 41.12"/>
<path stroke="none" vector-effect="non-scaling-stroke" d="   M 83.05 41.12   L 83.15 46.73   A 2.03 2.03 0.0 0 0 85.47 48.70   L 88.81 48.21   A 2.54 2.53 -4.4 0 0 90.98 45.68   L 90.84 23.39"/>
<path stroke="none" vector-effect="non-scaling-stroke" d="   M 90.84 23.39   Q 91.60 21.13 92.22 18.68   Q 92.43 17.83 91.18 17.97"/>
<path stroke="none" vector-effect="non-scaling-stroke" d="   M 91.18 17.97   C 90.93 13.90 86.69 14.27 83.81 14.51   A 0.55 0.55 0.0 0 0 83.30 15.05   L 82.92 34.62"/>
<path stroke="none" vector-effect="non-scaling-stroke" d="   M 91.18 17.97   L 88.42 18.11   A 0.75 0.74 -83.3 0 0 87.75 18.64   L 82.92 34.62"/>
<path stroke="none" vector-effect="non-scaling-stroke" d="   M 90.84 23.39   L 85.00 40.20   A 1.18 1.15 88.4 0 1 84.38 40.87   Q 83.80 41.13 83.05 41.12"/>
<path stroke="none" vector-effect="non-scaling-stroke" d="   M 144.19 17.91   L 138.09 18.06   A 0.71 0.71 0.0 0 0 137.40 18.77   L 137.40 21.44   A 0.59 0.58 0.0 0 0 137.99 22.02   L 143.54 22.02   A 0.79 0.79 0.0 0 1 144.33 22.81   L 144.33 40.49   A 0.52 0.52 0.0 0 0 144.85 41.01   L 148.84 41.01   A 0.49 0.49 0.0 0 0 149.33 40.52   L 149.33 22.62   A 0.68 0.67 0.0 0 1 150.01 21.95   L 155.40 21.95   A 0.71 0.71 0.0 0 0 156.11 21.24   L 156.11 18.84   A 0.93 0.92 0.6 0 0 155.20 17.92   L 150.32 17.78"/>
<path stroke="none" vector-effect="non-scaling-stroke" d="   M 172.00 18.18   Q 159.02 17.09 158.28 30.00   Q 158.02 34.62 162.36 38.68"/>
<path stroke="none" vector-effect="non-scaling-stroke" d="   M 178.01 93.28   L 173.16 106.47"/>
<path stroke="none" vector-effect="non-scaling-stroke" d="   M 170.00 106.24   L 169.78 104.01   A 0.78 0.78 0.0 0 0 169.00 103.31   L 166.01 103.31   A 0.98 0.97 -87.1 0 0 165.04 104.19   L 164.84 106.13"/>
<path stroke="none" vector-effect="non-scaling-stroke" d="   M 161.01 106.06   Q 160.54 105.38 160.57 104.99   Q 160.84 102.11 160.05 98.97   A 1.36 1.36 0.0 0 0 159.30 98.07   L 158.22 97.56   A 0.55 0.55 0.0 0 1 158.16 96.60   Q 163.27 93.31 160.08 87.39   C 158.75 84.93 154.75 84.95 152.22 84.88"/>
<path stroke="none" vector-effect="non-scaling-stroke" d="   M 152.22 84.88   L 147.62 69.65   A 0.25 0.24 -40.7 0 0 147.16 69.62   L 144.56 75.15   A 3.53 3.47 58.6 0 0 144.24 76.52   L 144.08 84.62"/>
<path stroke="none" vector-effect="non-scaling-stroke" d="   M 144.08 84.62   Q 142.58 84.69 142.56 86.50   Q 142.45 96.18 142.51 106.08"/>
<path stroke="none" vector-effect="non-scaling-stroke" d="   M 139.26 106.00   Q 139.21 105.18 138.84 104.54   A 0.99 0.98 -14.4 0 0 137.98 104.04   L 126.91 104.04   A 0.68 0.68 0.0 0 1 126.23 103.36   L 126.23 98.61   A 0.63 0.62 -0.0 0 1 126.86 97.99   L 136.85 97.99   A 0.62 0.61 -90.0 0 0 137.46 97.37   L 137.46 94.76   A 0.72 0.72 0.0 0 0 136.74 94.04   L 126.87 94.04   A 0.62 0.61 -90.0 0 1 126.26 93.42   L 126.26 89.57   A 0.58 0.58 0.0 0 1 126.84 88.99   L 137.69 88.99   A 0.65 0.65 0.0 0 0 138.34 88.34   L 138.34 85.73   A 0.70 0.70 0.0 0 0 137.65 85.03   L 121.51 84.94"/>
<path stroke="none" vector-effect="non-scaling-stroke" d="   M 121.56 40.24   C 127.54 42.07 134.55 40.40 135.82 33.52   A 0.72 0.71 -84.6 0 0 135.12 32.67   L 132.16 32.67   A 1.16 1.14 7.1 0 0 131.04 33.53   C 129.98 37.62 124.57 37.71 121.86 34.99"/>
<path stroke="none" vector-effect="non-scaling-stroke" d="   M 121.86 34.99   L 121.87 23.94"/>
<path stroke="none" vector-effect="non-scaling-stroke" d="   M 121.87 23.94   Q 125.57 20.58 129.75 23.35   A 1.47 1.46 -86.3 0 1 130.29 23.97   L 130.93 25.36   A 1.04 1.02 -11.9 0 0 131.87 25.96   L 135.02 25.96   A 0.74 0.74 0.0 0 0 135.72 24.98   Q 133.39 18.23 126.98 18.07   Q 124.28 18.00 121.53 18.72"/>
<path stroke="none" vector-effect="non-scaling-stroke" d="   M 231.50 17.91   L 215.73 17.96   A 0.77 0.76 -0.4 0 0 214.97 18.72   L 214.97 21.23   A 0.75 0.74 0.0 0 0 215.72 21.97   L 226.18 21.97   A 0.37 0.36 -70.8 0 1 226.46 22.56   L 215.18 36.69   A 1.05 1.02 -25.8 0 0 214.94 37.35   L 214.94 40.42   A 0.58 0.57 -0.0 0 0 215.52 40.99   L 231.75 40.99   A 0.72 0.71 -0.0 0 0 232.47 40.28   L 232.47 37.78   A 0.77 0.76 -0.0 0 0 231.70 37.02   L 221.21 37.02   A 0.34 0.34 0.0 0 1 220.95 36.47   L 232.28 22.27"/>
<path stroke="none" vector-effect="non-scaling-stroke" d="   M 243.49 84.76   L 236.37 84.92   A 0.84 0.84 0.0 0 0 235.55 85.75   L 235.31 106.67"/>
<path stroke="none" vector-effect="non-scaling-stroke" d="   M 225.38 106.40   L 225.25 89.62   A 0.65 0.64 -0.4 0 1 225.90 88.97   L 231.61 88.97   A 0.58 0.58 0.0 0 0 232.19 88.39   L 232.19 85.74   A 0.74 0.74 0.0 0 0 231.44 85.00   L 213.51 85.16"/>
<path stroke="none" vector-effect="non-scaling-stroke" d="   M 201.83 106.19   L 201.85 85.91   A 0.91 0.91 0.0 0 0 200.94 85.00   L 197.89 85.00   A 0.90 0.90 0.0 0 0 196.99 85.90   L 196.95 106.38"/>
<path stroke="none" vector-effect="non-scaling-stroke" d="   M 194.01 106.41   L 188.05 89.27"/>
<path stroke="none" vector-effect="non-scaling-stroke" d="   M 197.65 38.44   L 198.17 40.33   A 0.91 0.90 -7.4 0 0 199.05 41.00   L 203.23 41.00   A 0.36 0.36 0.0 0 0 203.54 40.46   Q 202.44 38.50 202.56 36.27   C 202.65 34.49 202.49 31.78 201.06 31.01   Q 200.31 30.60 200.20 30.47   A 0.57 0.57 0.0 0 1 200.29 29.65   Q 206.09 25.28 200.86 18.70"/>
<path stroke="none" vector-effect="non-scaling-stroke" d="   M 211.79 18.52   A 0.52 0.52 0.0 0 0 211.27 18.00   L 207.55 18.00   A 0.52 0.52 0.0 0 0 207.03 18.52   L 207.03 40.52   A 0.52 0.52 0.0 0 0 207.55 41.04   L 211.27 41.04   A 0.52 0.52 0.0 0 0 211.79 40.52   L 211.79 18.52"/>
<path stroke="none" vector-effect="non-scaling-stroke" d="   M 216.47 47.19   A 0.22 0.22 0.0 0 0 216.04 47.19   L 212.48 70.78   A 0.46 0.45 -86.1 0 0 212.93 71.30   L 219.52 71.30   A 0.40 0.40 0.0 0 0 219.92 70.84   L 216.47 47.19"/>
<path stroke="none" vector-effect="non-scaling-stroke" d="   M 121.87 23.94   Q 118.36 29.50 121.86 34.99"/>
<path stroke="none" vector-effect="non-scaling-stroke" d="   M 164.51 34.14   A 7.43 6.41 89.3 0 0 172.12 36.32   A 7.43 6.42 89.4 0 0 175.80 28.01   A 7.44 6.42 89.3 0 0 170.06 22.10"/>
<path stroke="none" vector-effect="non-scaling-stroke" d="   M 170.06 22.10   A 7.43 6.40 89.5 0 0 163.99 25.71   A 7.44 6.42 89.1 0 0 164.51 34.14"/>
<path stroke="none" vector-effect="non-scaling-stroke" d="   M 170.06 22.10   L 164.51 34.14"/>
<path stroke="none" vector-effect="non-scaling-stroke" d="   M 189.35 22.31   L 189.35 27.69   A 0.30 0.30 0.0 0 0 189.65 27.99   L 195.78 27.99   A 2.69 2.49 0.0 0 0 198.47 25.50   L 198.47 24.50   A 2.69 2.49 0.0 0 0 195.78 22.01   L 189.65 22.01   A 0.30 0.30 0.0 0 0 189.35 22.31"/>
<path stroke="none" vector-effect="non-scaling-stroke" d="   M 247.00 21.97   L 241.62 22.00   A 0.31 0.31 0.0 0 0 241.32 22.31   L 241.32 26.67   A 0.31 0.31 0.0 0 0 241.62 26.98   L 247.00 27.01"/>
<path stroke="none" vector-effect="non-scaling-stroke" d="   M 247.00 30.99   L 241.61 31.02   A 0.29 0.29 0.0 0 0 241.32 31.31   L 241.32 36.69   A 0.31 0.30 90.0 0 0 241.62 37.00   L 247.00 37.00"/>
<path stroke="none" vector-effect="non-scaling-stroke" d="   M 52.75 85.11   C 44.47 86.33 41.37 95.05 44.58 102.25"/>
<path stroke="none" vector-effect="non-scaling-stroke" d="   M 34.38 105.91   L 34.25 89.66   A 0.69 0.68 90.0 0 1 34.93 88.97   L 40.50 88.97   A 0.71 0.70 -0.0 0 0 41.21 88.27   L 41.21 85.91   A 0.92 0.92 0.0 0 0 40.30 85.00   L 30.76 84.97"/>
<path stroke="none" vector-effect="non-scaling-stroke" d="   M 152.22 84.88   L 144.08 84.62"/>
<path stroke="none" vector-effect="non-scaling-stroke" d="   M 22.60 85.22   Q 22.25 87.59 22.72 89.03"/>
<path stroke="none" vector-effect="non-scaling-stroke" d="   M 22.72 89.03   Q 22.53 90.46 22.84 91.72   A 0.69 0.68 83.6 0 0 23.47 92.23   L 29.38 92.41"/>
<path stroke="none" vector-effect="non-scaling-stroke" d="   M 29.38 92.41   L 29.35 106.75"/>
<path stroke="none" vector-effect="non-scaling-stroke" d="   M 17.70 105.95   Q 20.37 103.61 20.83 100.56   A 0.76 0.75 -85.7 0 0 20.09 99.69   L 17.24 99.69   A 1.21 1.20 8.0 0 0 16.08 100.56   Q 15.09 104.00 10.81 103.75"/>
<path stroke="none" vector-effect="non-scaling-stroke" d="   M 10.81 103.75   L 6.28 101.00"/>
<path stroke="none" vector-effect="non-scaling-stroke" d="   M 6.28 101.00   C 4.44 96.70 4.80 89.23 11.05 89.20   Q 14.90 89.17 15.84 92.15   A 1.19 1.18 81.3 0 0 16.97 92.99   L 19.86 92.99   A 0.81 0.80 83.4 0 0 20.64 92.00   Q 19.44 86.94 15.05 85.65   Q 4.48 82.56 0.71 92.73"/>
<path stroke="none" vector-effect="non-scaling-stroke" d="   M 155.18 94.18   Q 156.39 93.95 156.43 92.74   Q 156.56 88.90 153.70 89.19"/>
<path stroke="none" vector-effect="non-scaling-stroke" d="   M 153.70 89.19   L 147.68 89.04   A 0.32 0.32 0.0 0 0 147.36 89.36   L 147.36 94.60   A 0.37 0.36 -90.0 0 0 147.72 94.97   L 154.82 94.97   A 0.41 0.41 0.0 0 0 155.22 94.65   Q 155.29 94.32 155.18 94.18"/>
<path stroke="none" vector-effect="non-scaling-stroke" d="   M 153.70 89.19   L 155.18 94.18"/>
<path stroke="none" vector-effect="non-scaling-stroke" d="   M 113.62 93.95   L 106.05 103.31   A 0.41 0.41 0.0 0 0 106.37 103.97   L 116.04 103.92"/>
<path stroke="none" vector-effect="non-scaling-stroke" d="   M 82.59 106.19   L 82.63 100.75   A 1.69 1.68 0.3 0 0 80.94 99.05   L 74.77 99.05   A 0.52 0.51 -2.0 0 0 74.25 99.60   L 74.75 106.49"/>
<path stroke="none" vector-effect="non-scaling-stroke" d="   M 83.26 93.06   Q 83.99 91.69 83.27 90.52"/>
<path stroke="none" vector-effect="non-scaling-stroke" d="   M 83.27 90.52   Q 82.58 89.14 80.48 89.08   Q 75.88 88.93 75.04 88.98   A 0.79 0.79 0.0 0 0 74.30 89.77   L 74.30 94.42   A 0.59 0.59 0.0 0 0 74.89 95.01   L 81.30 95.01   A 1.62 1.58 -61.6 0 0 82.20 94.73   Q 83.22 94.04 83.26 93.06"/>
<path stroke="none" vector-effect="non-scaling-stroke" d="   M 83.27 90.52   Q 83.00 91.89 83.26 93.06"/>
<path stroke="none" vector-effect="non-scaling-stroke" d="   M 247.00 88.79   L 244.21 89.24"/>
<path stroke="none" vector-effect="non-scaling-stroke" d="   M 244.21 89.24   Q 242.49 88.76 240.73 89.12   A 0.75 0.74 -5.7 0 0 240.13 89.85   L 240.13 92.90   A 0.90 0.88 7.1 0 0 240.81 93.76   Q 242.93 94.28 244.98 93.72"/>
<path stroke="none" vector-effect="non-scaling-stroke" d="   M 244.98 93.72   L 247.00 94.24"/>
<path stroke="none" vector-effect="non-scaling-stroke" d="   M 247.00 97.11   Q 246.63 98.08 246.18 98.42"/>
<path stroke="none" vector-effect="non-scaling-stroke" d="   M 246.18 98.42   Q 243.60 97.57 240.76 98.16   A 0.75 0.74 -5.7 0 0 240.16 98.89   L 240.16 103.12   A 0.83 0.82 5.5 0 0 240.83 103.93   Q 244.08 104.56 246.78 103.46"/>
<path stroke="none" vector-effect="non-scaling-stroke" d="   M 246.78 103.46   Q 246.68 103.86 247.00 104.46"/>
<path stroke="none" vector-effect="non-scaling-stroke" d="   M 6.28 101.00   Q 7.75 103.87 10.81 103.75"/>
<path stroke="none" vector-effect="non-scaling-stroke" d="   M 29.38 92.41   L 29.53 89.59   A 0.56 0.56 0.0 0 0 28.97 89.00   L 22.72 89.03"/>
<path stroke="none" vector-effect="non-scaling-stroke" d="   M 52.74 89.31   A 7.48 6.33 89.9 0 0 48.50 99.04"/>
<path stroke="none" vector-effect="non-scaling-stroke" d="   M 48.50 99.04   A 7.49 6.34 89.8 0 0 53.24 103.85   A 7.49 6.33 -90.0 0 0 60.33 99.31   A 7.52 6.35 90.0 0 0 60.33 93.71   A 7.48 6.34 89.8 0 0 52.74 89.31"/>
<path stroke="none" vector-effect="non-scaling-stroke" d="   M 48.50 99.04   Q 52.64 95.07 52.74 89.31"/>
<path stroke="none" vector-effect="non-scaling-stroke" d="   M 188.58 105.90   Q 188.60 104.07 187.01 104.16   Q 186.22 104.20 185.57 104.23"/>
<path stroke="none" vector-effect="non-scaling-stroke" d="   M 181.20 104.22   Q 178.46 103.42 178.87 106.43"/>
<path stroke="none" vector-effect="non-scaling-stroke" d="   M 183.43 91.61   L 180.80 99.48   A 0.40 0.39 -80.8 0 0 181.17 100.00   L 185.83 100.00   A 0.63 0.63 0.0 0 0 186.43 99.17   L 183.83 91.60   A 0.21 0.21 0.0 0 0 183.43 91.61"/>
<path stroke="none" vector-effect="non-scaling-stroke" d="   M 244.98 93.72   L 244.21 89.24"/>
<path stroke="none" vector-effect="non-scaling-stroke" d="   M 246.78 103.46   L 246.18 98.42"/>
<path stroke="none" vector-effect="non-scaling-stroke" d="   M 72.6625 122.6100   A 3.57 1.74 -89.8 0 0 70.9100 126.1739   A 3.57 1.74 -89.8 0 0 72.6375 129.7500   A 3.57 1.74 -89.8 0 0 74.3900 126.1861   A 3.57 1.74 -89.8 0 0 72.6625 122.6100"/>
<path stroke="none" vector-effect="non-scaling-stroke" d="   M 157.3652 122.5901   A 3.55 1.75 -90.4 0 0 155.6400 126.1522   A 3.55 1.75 -90.4 0 0 157.4148 129.6899   A 3.55 1.75 -90.4 0 0 159.1400 126.1278   A 3.55 1.75 -90.4 0 0 157.3652 122.5901"/>
<path stroke="none" vector-effect="non-scaling-stroke" d="   M 83.01 127.88   Q 83.32 127.88 83.55 127.76   A 0.54 0.53 -18.3 0 0 83.84 127.20   Q 83.32 123.78 83.04 123.78   Q 82.76 123.77 82.19 127.19   A 0.54 0.53 19.2 0 0 82.46 127.75   Q 82.69 127.87 83.01 127.88"/>
<path stroke="none" vector-effect="non-scaling-stroke" d="   M 167.03 123.02   L 167.01 125.12   A 0.43 0.43 0.0 0 0 167.43 125.55   L 167.76 125.56   A 1.48 1.34 0.6 0 0 169.26 124.23   L 169.26 123.95   A 1.48 1.34 0.6 0 0 167.80 122.60   L 167.47 122.59   A 0.43 0.43 0.0 0 0 167.03 123.02"/>
</g>

<path fill="#f49200" d="   M 30.95 0.00   C 42.25 1.32 53.03 6.63 53.01 19.72   Q 52.98 37.97 52.97 38.72   A 0.39 0.39 0.0 0 1 52.38 39.05   L 31.30 26.88   A 1.07 1.06 15.3 0 1 30.77 25.96   L 30.77 14.78   A 0.33 0.33 0.0 0 0 30.44 14.45   L 23.02 14.45   A 0.31 0.31 0.0 0 0 22.71 14.76   L 22.71 38.11   A 0.96 0.93 -15.9 0 1 22.24 38.92   L 0.00 51.87   L 0.00 15.61   C 2.14 5.51 12.38 0.92 21.83 0.00   L 30.95 0.00   Z"/>

<path fill="#f49200" d="   M 113.42 38.97   L 113.32 37.56   A 0.56 0.56 0.0 0 0 112.76 37.03   L 100.83 37.03   A 0.59 0.59 0.0 0 1 100.24 36.44   L 100.24 31.51   A 0.53 0.53 0.0 0 1 100.77 30.98   L 110.84 30.98   A 0.67 0.66 -0.0 0 0 111.51 30.32   L 111.51 27.87   A 0.84 0.84 0.0 0 0 110.67 27.03   L 100.85 27.03   A 0.64 0.64 0.0 0 1 100.21 26.39   L 100.21 22.55   A 0.57 0.57 0.0 0 1 100.78 21.98   L 111.69 21.98   A 0.70 0.69 -90.0 0 0 112.38 21.28   L 112.38 18.86   A 0.84 0.84 0.0 0 0 111.54 18.02   L 96.16 18.02   A 0.70 0.69 0.0 0 0 95.46 18.71   L 95.46 40.35   A 0.60 0.59 0.0 0 0 96.06 40.94   L 113.33 40.87   Q 114.83 51.80 105.53 57.65   A 0.81 0.79 67.6 0 0 105.18 58.51   L 111.43 84.83   L 100.85 84.99   A 0.95 0.95 0.0 0 0 99.92 85.94   L 99.92 88.00   A 1.01 1.01 0.0 0 0 100.93 89.01   L 111.13 89.01   A 0.40 0.40 0.0 0 1 111.44 89.66   Q 106.10 96.15 100.74 103.00   Q 99.66 104.38 99.85 106.20   Q 98.37 106.00 96.87 106.36   L 96.83 85.75   A 0.78 0.78 0.0 0 0 96.05 84.97   L 92.63 84.97   A 0.69 0.69 0.0 0 0 91.95 85.76   Q 92.46 89.19 91.45 92.99   Q 87.65 77.95 84.20 63.26   Q 84.07 62.72 83.86 62.44   A 0.39 0.39 0.0 0 0 83.16 62.67   L 83.18 84.95   L 70.29 84.91   A 0.83 0.83 0.0 0 0 69.46 85.73   L 69.33 106.13   L 61.13 106.11   C 67.31 100.67 67.31 91.44 60.55 86.58   L 60.55 1.10   A 0.58 0.57 -89.5 0 1 61.13 0.52   Q 68.28 0.58 79.52 0.54   Q 90.44 0.49 93.40 0.98   C 101.33 2.30 109.72 5.77 112.60 13.39   Q 113.53 15.84 113.49 23.20   Q 113.44 31.10 113.42 38.97   Z   M 82.92 34.62   L 77.71 18.56   A 0.83 0.82 -8.6 0 0 76.92 17.99   L 73.65 17.99   A 0.64 0.63 -9.4 0 0 73.04 18.83   L 80.40 40.22   A 1.08 1.06 89.8 0 0 81.06 40.89   Q 81.97 41.21 83.05 41.12   L 83.15 46.73   A 2.03 2.03 0.0 0 0 85.47 48.70   L 88.81 48.21   A 2.54 2.53 -4.4 0 0 90.98 45.68   L 90.84 23.39   Q 91.60 21.13 92.22 18.68   Q 92.43 17.83 91.18 17.97   C 90.93 13.90 86.69 14.27 83.81 14.51   A 0.55 0.55 0.0 0 0 83.30 15.05   L 82.92 34.62   Z"/>
<path fill="#f49200" d="   M 144.19 17.91   L 138.09 18.06   A 0.71 0.71 0.0 0 0 137.40 18.77   L 137.40 21.44   A 0.59 0.58 0.0 0 0 137.99 22.02   L 143.54 22.02   A 0.79 0.79 0.0 0 1 144.33 22.81   L 144.33 40.49   A 0.52 0.52 0.0 0 0 144.85 41.01   L 148.84 41.01   A 0.49 0.49 0.0 0 0 149.33 40.52   L 149.33 22.62   A 0.68 0.67 0.0 0 1 150.01 21.95   L 155.40 21.95   A 0.71 0.71 0.0 0 0 156.11 21.24   L 156.11 18.84   A 0.93 0.92 0.6 0 0 155.20 17.92   L 150.32 17.78   L 157.33 0.87   A 0.54 0.54 0.0 0 1 157.83 0.54   L 179.93 0.54   A 0.23 0.23 0.0 0 1 180.14 0.87   L 172.00 18.18   Q 159.02 17.09 158.28 30.00   Q 158.02 34.62 162.36 38.68   L 161.65 40.22   A 1.28 1.27 -41.4 0 0 161.59 41.12   L 178.01 93.28   L 173.16 106.47   Q 172.32 106.00 170.00 106.24   L 169.78 104.01   A 0.78 0.78 0.0 0 0 169.00 103.31   L 166.01 103.31   A 0.98 0.97 -87.1 0 0 165.04 104.19   L 164.84 106.13   L 161.01 106.06   Q 160.54 105.38 160.57 104.99   Q 160.84 102.11 160.05 98.97   A 1.36 1.36 0.0 0 0 159.30 98.07   L 158.22 97.56   A 0.55 0.55 0.0 0 1 158.16 96.60   Q 163.27 93.31 160.08 87.39   C 158.75 84.93 154.75 84.95 152.22 84.88   L 147.62 69.65   A 0.25 0.24 -40.7 0 0 147.16 69.62   L 144.56 75.15   A 3.53 3.47 58.6 0 0 144.24 76.52   L 144.08 84.62   Q 142.58 84.69 142.56 86.50   Q 142.45 96.18 142.51 106.08   Q 140.74 106.38 139.26 106.00   Q 139.21 105.18 138.84 104.54   A 0.99 0.98 -14.4 0 0 137.98 104.04   L 126.91 104.04   A 0.68 0.68 0.0 0 1 126.23 103.36   L 126.23 98.61   A 0.63 0.62 -0.0 0 1 126.86 97.99   L 136.85 97.99   A 0.62 0.61 -90.0 0 0 137.46 97.37   L 137.46 94.76   A 0.72 0.72 0.0 0 0 136.74 94.04   L 126.87 94.04   A 0.62 0.61 -90.0 0 1 126.26 93.42   L 126.26 89.57   A 0.58 0.58 0.0 0 1 126.84 88.99   L 137.69 88.99   A 0.65 0.65 0.0 0 0 138.34 88.34   L 138.34 85.73   A 0.70 0.70 0.0 0 0 137.65 85.03   L 121.51 84.94   L 121.56 40.24   C 127.54 42.07 134.55 40.40 135.82 33.52   A 0.72 0.71 -84.6 0 0 135.12 32.67   L 132.16 32.67   A 1.16 1.14 7.1 0 0 131.04 33.53   C 129.98 37.62 124.57 37.71 121.86 34.99   L 121.87 23.94   Q 125.57 20.58 129.75 23.35   A 1.47 1.46 -86.3 0 1 130.29 23.97   L 130.93 25.36   A 1.04 1.02 -11.9 0 0 131.87 25.96   L 135.02 25.96   A 0.74 0.74 0.0 0 0 135.72 24.98   Q 133.39 18.23 126.98 18.07   Q 124.28 18.00 121.53 18.72   L 121.59 1.07   A 0.54 0.53 -0.0 0 1 122.13 0.54   L 143.62 0.54   A 0.56 0.55 -0.0 0 1 144.18 1.09   L 144.19 17.91   Z"/>
<path fill="#f49200" d="   M 231.50 17.91   L 215.73 17.96   A 0.77 0.76 -0.4 0 0 214.97 18.72   L 214.97 21.23   A 0.75 0.74 0.0 0 0 215.72 21.97   L 226.18 21.97   A 0.37 0.36 -70.8 0 1 226.46 22.56   L 215.18 36.69   A 1.05 1.02 -25.8 0 0 214.94 37.35   L 214.94 40.42   A 0.58 0.57 -0.0 0 0 215.52 40.99   L 231.75 40.99   A 0.72 0.71 -0.0 0 0 232.47 40.28   L 232.47 37.78   A 0.77 0.76 -0.0 0 0 231.70 37.02   L 221.21 37.02   A 0.34 0.34 0.0 0 1 220.95 36.47   L 232.28 22.27   L 243.49 84.76   L 236.37 84.92   A 0.84 0.84 0.0 0 0 235.55 85.75   L 235.31 106.67   L 225.38 106.40   L 225.25 89.62   A 0.65 0.64 -0.4 0 1 225.90 88.97   L 231.61 88.97   A 0.58 0.58 0.0 0 0 232.19 88.39   L 232.19 85.74   A 0.74 0.74 0.0 0 0 231.44 85.00   L 213.51 85.16   L 210.80 85.55   A 0.69 0.68 -0.6 0 0 210.23 86.13   L 207.29 105.62   A 0.65 0.63 -85.8 0 1 206.66 106.18   L 201.83 106.19   L 201.85 85.91   A 0.91 0.91 0.0 0 0 200.94 85.00   L 197.89 85.00   A 0.90 0.90 0.0 0 0 196.99 85.90   L 196.95 106.38   Q 195.01 105.87 194.01 106.41   L 188.05 89.27   L 197.10 39.16   A 0.91 0.91 0.0 0 1 197.41 38.63   Q 197.52 38.54 197.65 38.44   L 198.17 40.33   A 0.91 0.90 -7.4 0 0 199.05 41.00   L 203.23 41.00   A 0.36 0.36 0.0 0 0 203.54 40.46   Q 202.44 38.50 202.56 36.27   C 202.65 34.49 202.49 31.78 201.06 31.01   Q 200.31 30.60 200.20 30.47   A 0.57 0.57 0.0 0 1 200.29 29.65   Q 206.09 25.28 200.86 18.70   L 204.10 1.05   A 0.62 0.62 0.0 0 1 204.71 0.54   L 227.80 0.54   A 0.66 0.65 -4.6 0 1 228.45 1.08   L 231.50 17.91   Z   M 211.79 18.52   A 0.52 0.52 0.0 0 0 211.27 18.00   L 207.55 18.00   A 0.52 0.52 0.0 0 0 207.03 18.52   L 207.03 40.52   A 0.52 0.52 0.0 0 0 207.55 41.04   L 211.27 41.04   A 0.52 0.52 0.0 0 0 211.79 40.52   L 211.79 18.52   Z   M 216.47 47.19   A 0.22 0.22 0.0 0 0 216.04 47.19   L 212.48 70.78   A 0.46 0.45 -86.1 0 0 212.93 71.30   L 219.52 71.30   A 0.40 0.40 0.0 0 0 219.92 70.84   L 216.47 47.19   Z"/>

<path fill="#7f7f7f" d="   M 150.32 17.78   L 155.20 17.92   A 0.93 0.92 0.6 0 1 156.11 18.84   L 156.11 21.24   A 0.71 0.71 0.0 0 1 155.40 21.95   L 150.01 21.95   A 0.68 0.67 0.0 0 0 149.33 22.62   L 149.33 40.52   A 0.49 0.49 0.0 0 1 148.84 41.01   L 144.85 41.01   A 0.52 0.52 0.0 0 1 144.33 40.49   L 144.33 22.81   A 0.79 0.79 0.0 0 0 143.54 22.02   L 137.99 22.02   A 0.59 0.58 -0.0 0 1 137.40 21.44   L 137.40 18.77   A 0.71 0.71 0.0 0 1 138.09 18.06   L 144.19 17.91   L 150.32 17.78   Z"/>
<path fill="#7f7f7f" d="   M 231.50 17.91   Q 233.16 17.76 232.28 22.27   L 220.95 36.47   A 0.34 0.34 0.0 0 0 221.21 37.02   L 231.70 37.02   A 0.77 0.76 0.0 0 1 232.47 37.78   L 232.47 40.28   A 0.72 0.71 -0.0 0 1 231.75 40.99   L 215.52 40.99   A 0.58 0.57 0.0 0 1 214.94 40.42   L 214.94 37.35   A 1.05 1.02 -25.8 0 1 215.18 36.69   L 226.46 22.56   A 0.37 0.36 -70.8 0 0 226.18 21.97   L 215.72 21.97   A 0.75 0.74 0.0 0 1 214.97 21.23   L 214.97 18.72   A 0.77 0.76 -0.4 0 1 215.73 17.96   L 231.50 17.91   Z"/>
<path fill="#7f7f7f" d="   M 82.92 34.62   L 87.75 18.64   A 0.75 0.74 -83.3 0 1 88.42 18.11   L 91.18 17.97   Q 92.43 17.83 92.22 18.68   Q 91.60 21.13 90.84 23.39   L 85.00 40.20   A 1.18 1.15 88.4 0 1 84.38 40.87   Q 83.80 41.13 83.05 41.12   Q 81.97 41.21 81.06 40.89   A 1.08 1.06 89.8 0 1 80.40 40.22   L 73.04 18.83   A 0.64 0.63 -9.4 0 1 73.65 17.99   L 76.92 17.99   A 0.83 0.82 -8.6 0 1 77.71 18.56   L 82.92 34.62   Z"/>
<path fill="#7f7f7f" d="   M 113.42 38.97   L 113.33 40.87   L 96.06 40.94   A 0.60 0.59 -0.0 0 1 95.46 40.35   L 95.46 18.71   A 0.70 0.69 0.0 0 1 96.16 18.02   L 111.54 18.02   A 0.84 0.84 0.0 0 1 112.38 18.86   L 112.38 21.28   A 0.70 0.69 90.0 0 1 111.69 21.98   L 100.78 21.98   A 0.57 0.57 0.0 0 0 100.21 22.55   L 100.21 26.39   A 0.64 0.64 0.0 0 0 100.85 27.03   L 110.67 27.03   A 0.84 0.84 0.0 0 1 111.51 27.87   L 111.51 30.32   A 0.67 0.66 -0.0 0 1 110.84 30.98   L 100.77 30.98   A 0.53 0.53 0.0 0 0 100.24 31.51   L 100.24 36.44   A 0.59 0.59 0.0 0 0 100.83 37.03   L 112.76 37.03   A 0.56 0.56 0.0 0 1 113.32 37.56   L 113.42 38.97   Z"/>
<path fill="#7f7f7f" d="   M 121.87 23.94   Q 118.36 29.50 121.86 34.99   C 124.57 37.71 129.98 37.62 131.04 33.53   A 1.16 1.14 7.1 0 1 132.16 32.67   L 135.12 32.67   A 0.72 0.71 -84.6 0 1 135.82 33.52   C 134.55 40.40 127.54 42.07 121.56 40.24   Q 116.60 37.68 115.67 31.89   Q 114.24 22.90 121.53 18.72   Q 124.28 18.00 126.98 18.07   Q 133.39 18.23 135.72 24.98   A 0.74 0.74 0.0 0 1 135.02 25.96   L 131.87 25.96   A 1.04 1.02 -11.9 0 1 130.93 25.36   L 130.29 23.97   A 1.47 1.46 -86.3 0 0 129.75 23.35   Q 125.57 20.58 121.87 23.94   Z"/>
<path fill="#7f7f7f" d="   M 172.00 18.18   Q 178.76 19.92 180.28 26.25   Q 182.55 35.76 173.88 40.24   A 4.20 3.78 -62.1 0 1 172.95 40.58   Q 166.99 41.95 162.36 38.68   Q 158.02 34.62 158.28 30.00   Q 159.02 17.09 172.00 18.18   Z   M 164.51 34.14   A 7.43 6.41 89.3 0 0 172.12 36.32   A 7.43 6.42 89.4 0 0 175.80 28.01   A 7.44 6.42 89.3 0 0 170.06 22.10   A 7.43 6.40 89.5 0 0 163.99 25.71   A 7.44 6.42 89.1 0 0 164.51 34.14   Z"/>
<path fill="#7f7f7f" d="   M 200.86 18.70   Q 206.09 25.28 200.29 29.65   A 0.57 0.57 0.0 0 0 200.20 30.47   Q 200.31 30.60 201.06 31.01   C 202.49 31.78 202.65 34.49 202.56 36.27   Q 202.44 38.50 203.54 40.46   A 0.36 0.36 0.0 0 1 203.23 41.00   L 199.05 41.00   A 0.91 0.90 -7.4 0 1 198.17 40.33   L 197.65 38.44   L 197.68 34.15   A 2.14 2.13 0.1 0 0 195.54 32.01   L 190.53 32.01   A 1.19 1.18 -0.0 0 0 189.34 33.19   L 189.34 40.66   A 0.33 0.32 90.0 0 1 189.02 40.99   L 184.93 40.99   A 0.39 0.38 90.0 0 1 184.55 40.60   L 184.55 18.65   A 0.58 0.57 88.4 0 1 185.09 18.07   Q 193.31 17.52 200.86 18.70   Z   M 189.35 22.31   L 189.35 27.69   A 0.30 0.30 0.0 0 0 189.65 27.99   L 195.78 27.99   A 2.69 2.49 0.0 0 0 198.47 25.50   L 198.47 24.50   A 2.69 2.49 0.0 0 0 195.78 22.01   L 189.65 22.01   A 0.30 0.30 0.0 0 0 189.35 22.31   Z"/>
<rect fill="#7f7f7f" x="207.03" y="18.00" width="4.76" height="23.04" rx="0.52"/>
<path fill="#7f7f7f" d="   M 247.00 18.04   L 247.00 21.97   L 241.62 22.00   A 0.31 0.31 0.0 0 0 241.32 22.31   L 241.32 26.67   A 0.31 0.31 0.0 0 0 241.62 26.98   L 247.00 27.01   L 247.00 30.99   L 241.61 31.02   A 0.29 0.29 0.0 0 0 241.32 31.31   L 241.32 36.69   A 0.31 0.30 90.0 0 0 241.62 37.00   L 247.00 37.00   L 247.00 40.94   L 236.96 40.95   A 0.46 0.45 90.0 0 1 236.51 40.49   L 236.51 18.64   A 0.56 0.55 -90.0 0 1 237.06 18.08   L 247.00 18.04   Z"/>


<path fill="#f49200" d="   M 170.06 22.10   L 164.51 34.14   A 7.44 6.42 89.1 0 1 163.99 25.71   A 7.43 6.40 89.5 0 1 170.06 22.10   Z"/>




<path fill="#f49200" d="   M 30.78 56.19   L 30.78 35.39   A 0.33 0.33 0.0 0 1 31.27 35.11   L 49.28 45.51   A 0.33 0.33 0.0 0 1 49.28 46.08   L 31.28 56.47   A 0.33 0.33 0.0 0 1 30.78 56.19   Z"/>

<path fill="#f49200" d="   M 0.00 74.70   L 0.00 60.19   L 22.35 47.17   A 0.23 0.23 0.0 0 1 22.70 47.37   L 22.70 61.12   A 0.68 0.66 75.4 0 1 22.37 61.70   L 0.00 74.70   Z"/>
<path fill="#f49200" d="   M 34.67 62.73   L 52.39 52.50   A 0.39 0.39 0.0 0 1 52.98 52.83   L 52.98 73.31   A 0.39 0.39 0.0 0 1 52.39 73.64   L 34.67 63.41   A 0.39 0.39 0.0 0 1 34.67 62.73   Z"/>
<path fill="#f49200" d="   M 52.75 85.11   C 44.47 86.33 41.37 95.05 44.58 102.25   Q 40.02 105.31 34.38 105.91   L 34.25 89.66   A 0.69 0.68 90.0 0 1 34.93 88.97   L 40.50 88.97   A 0.71 0.70 -0.0 0 0 41.21 88.27   L 41.21 85.91   A 0.92 0.92 0.0 0 0 40.30 85.00   L 30.76 84.97   L 30.78 69.90   A 0.29 0.29 0.0 0 1 31.21 69.65   L 52.37 81.86   A 1.15 1.13 -81.7 0 1 52.92 82.61   Q 53.21 83.84 52.75 85.11   Z"/>

<path fill="#f49200" d="   M 22.60 85.22   Q 22.25 87.59 22.72 89.03   Q 22.53 90.46 22.84 91.72   A 0.69 0.68 83.6 0 0 23.47 92.23   L 29.38 92.41   L 29.35 106.75   L 17.70 105.95   Q 20.37 103.61 20.83 100.56   A 0.76 0.75 -85.7 0 0 20.09 99.69   L 17.24 99.69   A 1.21 1.20 8.0 0 0 16.08 100.56   Q 15.09 104.00 10.81 103.75   L 6.28 101.00   C 4.44 96.70 4.80 89.23 11.05 89.20   Q 14.90 89.17 15.84 92.15   A 1.19 1.18 81.3 0 0 16.97 92.99   L 19.86 92.99   A 0.81 0.80 83.4 0 0 20.64 92.00   Q 19.44 86.94 15.05 85.65   Q 4.48 82.56 0.71 92.73   Q 0.33 92.51 0.00 91.86   L 0.00 83.02   L 22.29 70.02   A 0.23 0.23 0.0 0 1 22.64 70.22   L 22.60 85.22   Z"/>
<path fill="#7f7f7f" d="   M 144.08 84.62   L 152.22 84.88   C 154.75 84.95 158.75 84.93 160.08 87.39   Q 163.27 93.31 158.16 96.60   A 0.55 0.55 0.0 0 0 158.22 97.56   L 159.30 98.07   A 1.36 1.36 0.0 0 1 160.05 98.97   Q 160.84 102.11 160.57 104.99   Q 160.54 105.38 161.01 106.06   Q 161.12 106.76 161.67 107.36   A 0.38 0.38 0.0 0 1 161.39 107.99   L 157.18 107.99   A 1.38 1.38 0.0 0 1 155.80 106.61   L 155.80 101.05   A 2.03 2.03 0.0 0 0 153.77 99.02   L 148.41 99.02   A 1.05 1.05 0.0 0 0 147.36 100.07   L 147.36 107.30   A 0.63 0.62 -5.7 0 1 146.85 107.91   Q 141.63 108.84 142.51 106.08   Q 142.45 96.18 142.56 86.50   Q 142.58 84.69 144.08 84.62   Z   M 155.18 94.18   Q 156.39 93.95 156.43 92.74   Q 156.56 88.90 153.70 89.19   L 147.68 89.04   A 0.32 0.32 0.0 0 0 147.36 89.36   L 147.36 94.60   A 0.37 0.36 -90.0 0 0 147.72 94.97   L 154.82 94.97   A 0.41 0.41 0.0 0 0 155.22 94.65   Q 155.29 94.32 155.18 94.18   Z"/>
<path fill="#7f7f7f" d="   M 111.43 84.83   L 116.65 84.99   A 0.85 0.84 86.3 0 1 117.46 85.71   Q 117.81 88.00 116.86 89.42   Q 115.27 91.76 113.62 93.95   L 106.05 103.31   A 0.41 0.41 0.0 0 0 106.37 103.97   L 116.04 103.92   Q 118.08 103.96 117.44 107.48   A 0.69 0.69 0.0 0 1 116.76 108.05   L 100.70 108.05   A 0.72 0.70 -17.8 0 1 100.13 107.77   Q 99.71 107.19 99.85 106.20   Q 99.66 104.38 100.74 103.00   Q 106.10 96.15 111.44 89.66   A 0.40 0.40 0.0 0 0 111.13 89.01   L 100.93 89.01   A 1.01 1.01 0.0 0 1 99.92 88.00   L 99.92 85.94   A 0.95 0.95 0.0 0 1 100.85 84.99   L 111.43 84.83   Z"/>
<path fill="#7f7f7f" d="   M 83.18 84.95   Q 88.32 86.21 88.31 91.49   Q 88.30 94.87 85.05 96.75   A 0.34 0.34 0.0 0 0 85.06 97.34   Q 87.69 98.77 87.48 101.28   Q 87.21 104.67 88.50 107.34   A 0.44 0.43 -17.6 0 1 88.18 107.95   Q 83.20 108.80 82.59 106.19   L 82.63 100.75   A 1.69 1.68 0.3 0 0 80.94 99.05   L 74.77 99.05   A 0.52 0.51 -2.0 0 0 74.25 99.60   L 74.75 106.49   Q 70.79 110.55 69.33 106.13   L 69.46 85.73   A 0.83 0.83 0.0 0 1 70.29 84.91   L 83.18 84.95   Z   M 83.26 93.06   Q 83.99 91.69 83.27 90.52   Q 82.58 89.14 80.48 89.08   Q 75.88 88.93 75.04 88.98   A 0.79 0.79 0.0 0 0 74.30 89.77   L 74.30 94.42   A 0.59 0.59 0.0 0 0 74.89 95.01   L 81.30 95.01   A 1.62 1.58 -61.6 0 0 82.20 94.73   Q 83.22 94.04 83.26 93.06   Z"/>
<path fill="#7f7f7f" d="   M 225.38 106.40   Q 226.14 108.67 220.92 107.97   A 0.51 0.50 -86.1 0 1 220.49 107.47   L 220.49 89.64   A 0.62 0.61 -0.0 0 0 219.87 89.03   L 214.14 89.03   A 0.60 0.60 0.0 0 1 213.54 88.44   L 213.51 85.16   L 231.44 85.00   A 0.74 0.74 0.0 0 1 232.19 85.74   L 232.19 88.39   A 0.58 0.58 0.0 0 1 231.61 88.97   L 225.90 88.97   A 0.65 0.64 -0.4 0 0 225.25 89.62   L 225.38 106.40   Z"/>
<path fill="#7f7f7f" d="   M 243.49 84.76   L 247.00 85.11   L 247.00 88.79   L 244.21 89.24   Q 242.49 88.76 240.73 89.12   A 0.75 0.74 -5.7 0 0 240.13 89.85   L 240.13 92.90   A 0.90 0.88 7.1 0 0 240.81 93.76   Q 242.93 94.28 244.98 93.72   L 247.00 94.24   L 247.00 97.11   Q 246.63 98.08 246.18 98.42   Q 243.60 97.57 240.76 98.16   A 0.75 0.74 -5.7 0 0 240.16 98.89   L 240.16 103.12   A 0.83 0.82 5.5 0 0 240.83 103.93   Q 244.08 104.56 246.78 103.46   Q 246.68 103.86 247.00 104.46   L 247.00 107.61   Q 238.79 109.20 235.31 106.67   L 235.55 85.75   A 0.84 0.84 0.0 0 1 236.37 84.92   L 243.49 84.76   Z"/>
<path fill="#7f7f7f" d="   M 6.28 101.00   Q 7.75 103.87 10.81 103.75   Q 15.09 104.00 16.08 100.56   A 1.21 1.20 8.0 0 1 17.24 99.69   L 20.09 99.69   A 0.76 0.75 -85.7 0 1 20.83 100.56   Q 20.37 103.61 17.70 105.95   C 11.84 110.05 3.40 107.90 1.05 101.02   Q -0.09 97.68 0.71 92.73   Q 4.48 82.56 15.05 85.65   Q 19.44 86.94 20.64 92.00   A 0.81 0.80 83.4 0 1 19.86 92.99   L 16.97 92.99   A 1.19 1.18 81.3 0 1 15.84 92.15   Q 14.90 89.17 11.05 89.20   C 4.80 89.23 4.44 96.70 6.28 101.00   Z"/>
<path fill="#7f7f7f" d="   M 30.76 84.97   L 40.30 85.00   A 0.92 0.92 0.0 0 1 41.21 85.91   L 41.21 88.27   A 0.71 0.70 0.0 0 1 40.50 88.97   L 34.93 88.97   A 0.69 0.68 90.0 0 0 34.25 89.66   L 34.38 105.91   Q 34.57 106.62 34.36 107.37   A 0.85 0.84 -86.5 0 1 33.70 107.96   Q 29.49 108.68 29.35 106.75   L 29.38 92.41   L 29.53 89.59   A 0.56 0.56 0.0 0 0 28.97 89.00   L 22.72 89.03   Q 22.25 87.59 22.60 85.22   L 30.76 84.97   Z"/>
<path fill="#7f7f7f" d="   M 52.75 85.11   Q 57.00 84.64 60.55 86.58   C 67.31 91.44 67.31 100.67 61.13 106.11   Q 50.73 111.38 44.58 102.25   C 41.37 95.05 44.47 86.33 52.75 85.11   Z   M 52.74 89.31   A 7.48 6.33 89.9 0 0 48.50 99.04   A 7.49 6.34 89.8 0 0 53.24 103.85   A 7.49 6.33 -90.0 0 0 60.33 99.31   A 7.52 6.35 90.0 0 0 60.33 93.71   A 7.48 6.34 89.8 0 0 52.74 89.31   Z"/>
<path fill="#7f7f7f" d="   M 96.87 106.36   Q 97.36 108.74 92.61 107.99   A 0.82 0.81 -83.9 0 1 91.92 107.13   Q 92.41 99.64 91.45 92.99   Q 92.46 89.19 91.95 85.76   A 0.69 0.69 0.0 0 1 92.63 84.97   L 96.05 84.97   A 0.78 0.78 0.0 0 1 96.83 85.75   L 96.87 106.36   Z"/>
<path fill="#7f7f7f" d="   M 139.26 106.00   L 138.87 107.46   A 0.75 0.73 -82.2 0 1 138.16 108.01   L 122.13 108.01   A 0.59 0.59 0.0 0 1 121.54 107.42   L 121.51 84.94   L 137.65 85.03   A 0.70 0.70 0.0 0 1 138.34 85.73   L 138.34 88.34   A 0.65 0.65 0.0 0 1 137.69 88.99   L 126.84 88.99   A 0.58 0.58 0.0 0 0 126.26 89.57   L 126.26 93.42   A 0.62 0.61 90.0 0 0 126.87 94.04   L 136.74 94.04   A 0.72 0.72 0.0 0 1 137.46 94.76   L 137.46 97.37   A 0.62 0.61 90.0 0 1 136.85 97.99   L 126.86 97.99   A 0.63 0.62 0.0 0 0 126.23 98.61   L 126.23 103.36   A 0.68 0.68 0.0 0 0 126.91 104.04   L 137.98 104.04   A 0.99 0.98 -14.4 0 1 138.84 104.54   Q 139.21 105.18 139.26 106.00   Z"/>
<path fill="#7f7f7f" d="   M 188.05 89.27   L 194.01 106.41   Q 195.53 108.69 190.13 107.96   A 0.99 0.97 -9.3 0 1 189.39 107.44   L 188.58 105.90   Q 188.60 104.07 187.01 104.16   Q 186.22 104.20 185.57 104.23   Q 183.55 103.75 181.20 104.22   Q 178.46 103.42 178.87 106.43   Q 173.83 110.21 173.16 106.47   L 178.01 93.28   L 180.93 85.55   A 0.86 0.85 10.4 0 1 181.73 85.00   L 185.74 85.00   A 0.96 0.95 79.2 0 1 186.63 85.61   L 188.05 89.27   Z   M 183.43 91.61   L 180.80 99.48   A 0.40 0.39 -80.8 0 0 181.17 100.00   L 185.83 100.00   A 0.63 0.63 0.0 0 0 186.43 99.17   L 183.83 91.60   A 0.21 0.21 0.0 0 0 183.43 91.61   Z"/>
<path fill="#7f7f7f" d="   M 201.83 106.19   Q 201.88 106.87 201.73 107.45   A 0.80 0.79 3.9 0 1 201.07 108.02   Q 196.35 108.64 196.95 106.38   L 196.99 85.90   A 0.90 0.90 0.0 0 1 197.89 85.00   L 200.94 85.00   A 0.91 0.91 0.0 0 1 201.85 85.91   L 201.83 106.19   Z"/>


<path fill="#f49200" d="   M 83.27 90.52   Q 83.00 91.89 83.26 93.06   Q 83.22 94.04 82.20 94.73   A 1.62 1.58 -61.6 0 1 81.30 95.01   L 74.89 95.01   A 0.59 0.59 0.0 0 1 74.30 94.42   L 74.30 89.77   A 0.79 0.79 0.0 0 1 75.04 88.98   Q 75.88 88.93 80.48 89.08   Q 82.58 89.14 83.27 90.52   Z"/>

<path fill="#f49200" d="   M 155.18 94.18   L 153.70 89.19   Q 156.56 88.90 156.43 92.74   Q 156.39 93.95 155.18 94.18   Z"/>
<path fill="#f49200" d="   M 244.21 89.24   L 244.98 93.72   Q 242.93 94.28 240.81 93.76   A 0.90 0.88 7.1 0 1 240.13 92.90   L 240.13 89.85   A 0.75 0.74 -5.7 0 1 240.73 89.12   Q 242.49 88.76 244.21 89.24   Z"/>

<path fill="#f49200" d="   M 52.74 89.31   Q 52.64 95.07 48.50 99.04   A 7.48 6.33 89.9 0 1 52.74 89.31   Z"/>


<path fill="#f49200" d="   M 113.62 93.95   L 116.04 103.92   L 106.37 103.97   A 0.41 0.41 0.0 0 1 106.05 103.31   L 113.62 93.95   Z"/>

<path fill="#f49200" d="   M 246.18 98.42   L 246.78 103.46   Q 244.08 104.56 240.83 103.93   A 0.83 0.82 5.5 0 1 240.16 103.12   L 240.16 98.89   A 0.75 0.74 -5.7 0 1 240.76 98.16   Q 243.60 97.57 246.18 98.42   Z"/>
<path fill="#f49200" d="   M 82.59 106.19   L 74.75 106.49   L 74.25 99.60   A 0.52 0.51 -2.0 0 1 74.77 99.05   L 80.94 99.05   A 1.69 1.68 0.3 0 1 82.63 100.75   L 82.59 106.19   Z"/>

<path fill="#7f7f7f" d="   M 170.00 106.24   L 169.81 107.41   A 0.70 0.68 -89.3 0 1 169.23 107.99   Q 164.42 108.73 164.84 106.13   L 165.04 104.19   A 0.98 0.97 -87.1 0 1 166.01 103.31   L 169.00 103.31   A 0.78 0.78 0.0 0 1 169.78 104.01   L 170.00 106.24   Z"/>
<path fill="#f49200" d="   M 181.20 104.22   Q 181.68 104.89 181.74 105.59   A 0.53 0.52 84.4 0 1 181.28 106.16   L 178.87 106.43   Q 178.46 103.42 181.20 104.22   Z"/>
<path fill="#f49200" d="   M 188.58 105.90   Q 187.15 106.48 185.70 106.15   A 0.61 0.61 0.0 0 1 185.23 105.51   Q 185.27 104.91 185.57 104.23   Q 186.22 104.20 187.01 104.16   Q 188.60 104.07 188.58 105.90   Z"/>
<path fill="#f49200" d="   M 59.29 126.19   C 59.30 122.86 61.12 119.64 64.98 121.20   A 1.10 1.10 0.0 0 1 65.61 122.56   L 65.58 122.66   A 0.87 0.87 0.0 0 1 64.33 123.15   Q 63.58 122.74 63.07 122.70   Q 62.51 122.66 62.02 123.42   Q 61.28 124.57 61.28 126.19   Q 61.28 127.81 62.01 128.96   Q 62.50 129.72 63.06 129.68   Q 63.57 129.65 64.32 129.24   A 0.87 0.87 0.0 0 1 65.57 129.73   L 65.60 129.83   A 1.10 1.10 0.0 0 1 64.96 131.19   C 61.10 132.74 59.29 129.52 59.29 126.19   Z"/>
<path fill="#f49200" d="   M 72.6596 120.6500   A 5.52 3.84 -89.9 0 1 76.4900 126.1767   A 5.52 3.84 -89.9 0 1 72.6404 131.6900   A 5.52 3.84 -89.9 0 1 68.8100 126.1633   A 5.52 3.84 -89.9 0 1 72.6596 120.6500   Z   M 72.6625 122.6100   A 3.57 1.74 -89.8 0 0 70.9100 126.1739   A 3.57 1.74 -89.8 0 0 72.6375 129.7500   A 3.57 1.74 -89.8 0 0 74.3900 126.1861   A 3.57 1.74 -89.8 0 0 72.6625 122.6100   Z"/>
<path fill="#f49200" d="   M 89.74 126.18   C 89.73 122.83 91.55 119.60 95.43 121.16   A 1.11 1.11 0.0 0 1 96.07 122.53   L 96.04 122.63   A 0.87 0.87 0.0 0 1 94.79 123.12   Q 94.03 122.71 93.52 122.68   Q 92.96 122.63 92.47 123.39   Q 91.73 124.55 91.73 126.18   Q 91.73 127.81 92.47 128.96   Q 92.97 129.72 93.53 129.68   Q 94.04 129.65 94.79 129.23   A 0.87 0.87 0.0 0 1 96.05 129.72   L 96.08 129.82   A 1.11 1.11 0.0 0 1 95.44 131.19   C 91.56 132.75 89.74 129.52 89.74 126.18   Z"/>
<path fill="#f49200" d="   M 134.70 125.86   L 134.70 130.40   A 0.91 0.90 -8.1 0 1 134.04 131.27   C 125.71 133.68 126.52 118.22 133.78 121.14   A 1.10 1.10 0.0 0 1 134.39 122.56   L 134.30 122.79   A 0.84 0.84 0.0 0 1 133.04 123.17   Q 132.43 122.75 131.81 122.72   Q 131.11 122.69 130.77 123.40   Q 129.17 126.75 131.22 129.44   A 0.99 0.99 0.0 0 0 132.96 129.10   Q 133.53 127.02 132.07 126.68   A 0.63 0.63 0.0 0 1 131.88 125.53   Q 132.20 125.33 134.07 125.26   A 0.60 0.60 0.0 0 1 134.70 125.86   Z"/>
<path fill="#f49200" d="   M 146.06 126.19   Q 146.05 127.81 146.79 128.96   Q 147.28 129.72 147.84 129.68   Q 148.35 129.65 149.10 129.24   A 0.87 0.87 0.0 0 1 150.35 129.73   L 150.38 129.83   A 1.11 1.10 -20.0 0 1 149.74 131.20   C 145.87 132.74 144.06 129.52 144.07 126.19   C 144.07 122.85 145.89 119.63 149.76 121.19   A 1.11 1.10 20.2 0 1 150.39 122.56   L 150.36 122.66   A 0.87 0.87 0.0 0 1 149.11 123.14   Q 148.36 122.73 147.85 122.70   Q 147.29 122.66 146.80 123.41   Q 146.06 124.56 146.06 126.19   Z"/>
<path fill="#f49200" d="   M 157.4193 120.6500   A 5.53 3.84 -89.8 0 1 161.2400 126.1934   A 5.53 3.84 -89.8 0 1 157.3807 131.7100   A 5.53 3.84 -89.8 0 1 153.5600 126.1666   A 5.53 3.84 -89.8 0 1 157.4193 120.6500   Z   M 157.3652 122.5901   A 3.55 1.75 -90.4 0 0 155.6400 126.1522   A 3.55 1.75 -90.4 0 0 157.4148 129.6899   A 3.55 1.75 -90.4 0 0 159.1400 126.1278   A 3.55 1.75 -90.4 0 0 157.3652 122.5901   Z"/>
<path fill="#f49200" d="   M 83.12 121.01   Q 83.57 121.02 83.81 121.05   A 0.87 0.85 87.1 0 1 84.51 121.70   L 86.68 130.82   A 0.67 0.67 0.0 0 1 86.17 131.63   Q 85.99 131.66 85.11 131.42   Q 84.62 131.28 84.63 130.47   Q 84.64 129.21 83.07 129.20   Q 81.49 129.19 81.49 130.45   Q 81.48 131.26 80.99 131.39   Q 80.11 131.62 79.93 131.59   A 0.67 0.67 0.0 0 1 79.43 130.77   L 81.72 121.68   A 0.87 0.85 -86.4 0 1 82.42 121.04   Q 82.66 121.01 83.12 121.01   Z   M 83.01 127.88   Q 83.32 127.88 83.55 127.76   A 0.54 0.53 -18.3 0 0 83.84 127.20   Q 83.32 123.78 83.04 123.78   Q 82.76 123.77 82.19 127.19   A 0.54 0.53 19.2 0 0 82.46 127.75   Q 82.69 127.87 83.01 127.88   Z"/>
<path fill="#f49200" d="   M 103.32 124.99   Q 103.98 124.99 104.20 124.99   A 0.67 0.67 0.0 0 0 104.85 124.32   L 104.85 121.71   A 0.69 0.68 -0.0 0 1 105.54 121.03   L 106.01 121.03   A 0.65 0.65 0.0 0 1 106.66 121.68   L 106.66 130.94   A 0.69 0.69 0.0 0 1 105.97 131.63   L 105.65 131.63   A 0.82 0.81 0.0 0 1 104.83 130.82   L 104.83 127.42   A 0.66 0.65 -89.5 0 0 104.19 126.76   Q 104.02 126.76 103.32 126.75   Q 102.61 126.75 102.44 126.75   A 0.66 0.65 89.8 0 0 101.80 127.41   L 101.78 130.81   A 0.82 0.81 0.3 0 1 100.96 131.62   L 100.64 131.62   A 0.69 0.69 0.0 0 1 99.95 130.92   L 100.00 121.66   A 0.65 0.65 0.0 0 1 100.65 121.02   L 101.12 121.02   A 0.69 0.68 0.3 0 1 101.81 121.70   L 101.80 124.31   A 0.67 0.67 0.0 0 0 102.45 124.98   Q 102.66 124.99 103.32 124.99   Z"/>
<rect fill="#f49200" x="-0.97" y="-5.31" transform="translate(112.00,126.28) rotate(0.1)" width="1.94" height="10.62" rx="0.86"/>
<path fill="#f49200" d="   M 119.22 125.89   L 119.22 130.88   A 0.66 0.66 0.0 0 1 118.56 131.54   L 118.13 131.54   A 0.60 0.59 0.0 0 1 117.53 130.95   L 117.53 122.07   A 1.30 1.30 0.0 0 1 120.06 121.65   L 121.72 126.46   A 0.31 0.31 0.0 0 0 122.33 126.36   L 122.33 121.74   A 0.76 0.75 -90.0 0 1 123.08 120.98   L 123.36 120.98   A 0.61 0.61 0.0 0 1 123.97 121.59   L 123.97 130.57   A 1.10 1.10 0.0 0 1 121.86 130.99   Q 119.95 126.31 119.73 125.79   A 0.27 0.26 33.8 0 0 119.22 125.89   Z"/>
<path fill="#f49200" d="   M 171.31 130.96   A 0.42 0.42 0.0 0 1 170.91 131.52   L 170.17 131.52   A 1.12 1.11 80.4 0 1 169.12 130.77   L 167.92 127.27   A 0.52 0.52 0.0 0 0 166.91 127.44   L 166.91 130.88   A 0.76 0.76 0.0 0 1 166.15 131.64   L 165.78 131.64   A 0.47 0.47 0.0 0 1 165.31 131.17   L 165.31 121.52   A 0.48 0.48 0.0 0 1 165.79 121.04   L 169.36 121.04   A 1.13 1.13 0.0 0 1 170.27 121.50   Q 172.35 124.24 170.21 126.29   A 0.84 0.81 -32.0 0 0 170.00 127.15   L 171.31 130.96   Z   M 167.03 123.02   L 167.01 125.12   A 0.43 0.43 0.0 0 0 167.43 125.55   L 167.76 125.56   A 1.48 1.34 0.6 0 0 169.26 124.23   L 169.26 123.95   A 1.48 1.34 0.6 0 0 167.80 122.60   L 167.47 122.59   A 0.43 0.43 0.0 0 0 167.03 123.02   Z"/>
<path fill="#f49200" d="   M 177.24 127.74   L 177.24 130.89   A 0.67 0.67 0.0 0 1 176.57 131.56   L 175.97 131.56   A 0.67 0.67 0.0 0 1 175.30 130.89   L 175.30 121.57   A 0.57 0.56 0.0 0 1 175.87 121.01   L 176.76 121.01   A 0.59 0.59 0.0 0 1 177.34 121.69   Q 177.01 123.66 177.03 124.00   A 0.32 0.32 0.0 0 0 177.63 124.14   L 179.08 121.73   A 1.47 1.45 -74.2 0 1 180.33 121.02   L 181.22 121.02   A 0.29 0.29 0.0 0 1 181.47 121.45   L 179.18 125.43   A 0.94 0.94 0.0 0 0 179.18 126.37   L 181.76 130.84   A 0.55 0.55 0.0 0 1 181.28 131.67   L 180.90 131.67   A 1.74 1.74 0.0 0 1 179.39 130.79   L 177.57 127.65   A 0.18 0.18 0.0 0 0 177.24 127.74   Z"/>




</svg>