<svg xmlns="http://www.w3.org/2000/svg" version="1.1" viewBox="0.00 0.00 283.00 283.00">
<g stroke-width="2.00" fill="none" stroke-linecap="butt">
<path stroke="#bfbfbf" vector-effect="non-scaling-stroke" d="   M 283.00 36.44   L 280.66 36.37   A 0.61 0.61 0.0 0 0 280.03 36.98   L 280.03 40.34   A 0.60 0.60 0.0 0 0 280.65 40.94   L 283.00 40.88"/>
<path stroke="#bfbfbf" vector-effect="non-scaling-stroke" d="   M 283.00 85.03   L 275.91 85.02   A 0.48 0.48 0.0 0 0 275.43 85.50   L 275.43 88.49   A 0.50 0.50 0.0 0 0 275.93 88.99   L 282.31 89.08"/>
<path stroke="#ebd8ba" vector-effect="non-scaling-stroke" d="   M 282.31 89.08   L 282.36 107.43   A 0.27 0.26 -22.6 0 0 282.81 107.61   Q 282.90 107.52 283.00 107.39"/>
<path stroke="#bfbfbf" vector-effect="non-scaling-stroke" d="   M 283.00 152.69   Q 275.80 151.50 267.93 152.10   A 0.34 0.34 0.0 0 0 267.62 152.44   L 267.62 174.50   A 0.49 0.48 90.0 0 0 268.10 174.99   L 271.80 174.99   A 0.56 0.56 0.0 0 0 272.36 174.43   L 272.36 167.34   A 1.32 1.32 0.0 0 1 273.68 166.02   L 278.78 166.02   A 1.92 1.92 0.0 0 1 280.70 167.88   Q 280.79 170.52 281.06 173.31   Q 281.28 175.68 283.00 174.74"/>
<path stroke="#bfbfbf" vector-effect="non-scaling-stroke" d="   M 283.00 219.31   L 269.09 219.19   A 0.54 0.53 -0.0 0 0 268.55 219.72   L 268.55 241.42   A 0.57 0.56 -0.0 0 0 269.12 241.98   L 272.78 241.98   A 0.56 0.56 0.0 0 0 273.34 241.42   L 273.34 234.15   A 1.14 1.13 -90.0 0 1 274.47 233.01   L 279.71 233.01   A 1.99 1.99 0.0 0 1 281.70 234.93   L 281.94 241.20   A 0.59 0.58 -11.8 0 0 282.74 241.72   Q 282.78 241.71 283.00 241.37"/>
<path stroke="#bfbfbf" vector-effect="non-scaling-stroke" d="   M 82.70 40.99   Q 84.17 41.00 84.33 40.95   A 0.98 0.97 0.7 0 0 84.97 40.33   L 92.51 18.52   A 0.37 0.37 0.0 0 0 92.16 18.02   L 88.33 18.02   A 0.65 0.63 -81.3 0 0 87.72 18.48   Q 85.42 26.12 83.07 34.16   Q 82.91 34.70 82.71 34.70   Q 82.50 34.70 82.34 34.16   Q 80.02 26.11 77.74 18.46   A 0.65 0.63 81.5 0 0 77.13 18.00   L 73.30 17.99   A 0.37 0.37 0.0 0 0 72.95 18.49   L 80.42 40.32   A 0.98 0.97 -0.6 0 0 81.06 40.94   Q 81.22 40.99 82.70 40.99"/>
<path stroke="#bfbfbf" vector-effect="non-scaling-stroke" d="   M 112.41 37.04   L 100.92 37.04   A 0.61 0.60 89.9 0 1 100.32 36.43   L 100.33 31.62   A 0.60 0.60 0.0 0 1 100.93 31.01   L 110.89 30.97   A 0.66 0.65 89.9 0 0 111.54 30.31   L 111.52 27.68   A 0.65 0.64 -0.1 0 0 110.87 27.04   L 101.02 27.03   A 0.71 0.71 0.0 0 1 100.32 26.32   L 100.33 22.71   A 0.73 0.72 -89.7 0 1 101.05 21.99   L 111.75 21.93   A 0.69 0.68 -89.2 0 0 112.43 21.25   L 112.49 18.78   A 0.74 0.73 0.7 0 0 111.75 18.03   L 96.16 18.00   A 0.63 0.63 0.0 0 0 95.53 18.63   L 95.51 40.38   A 0.63 0.62 -0.1 0 0 96.14 41.00   L 112.45 41.01   A 0.53 0.53 0.0 0 0 112.98 40.48   L 112.96 37.58   A 0.55 0.55 0.0 0 0 112.41 37.04"/>
<path stroke="#bfbfbf" vector-effect="non-scaling-stroke" d="   M 115.43 29.74   C 115.56 35.60 118.80 40.44 124.99 40.91   C 130.35 41.31 135.07 38.76 135.85 33.29   A 0.48 0.48 0.0 0 0 135.37 32.74   L 132.11 32.74   A 0.99 0.98 9.6 0 0 131.18 33.40   Q 129.60 37.91 124.38 36.56   C 121.35 35.78 120.34 32.47 120.28 29.64   C 120.22 26.81 121.09 23.46 124.09 22.55   Q 129.25 20.98 131.01 25.42   A 0.99 0.98 -12.0 0 0 131.97 26.04   L 135.23 25.90   A 0.48 0.48 0.0 0 0 135.68 25.33   C 134.67 19.90 129.85 17.55 124.51 18.18   C 118.35 18.90 115.31 23.87 115.43 29.74"/>
<path stroke="#bfbfbf" vector-effect="non-scaling-stroke" d="   M 146.93 41.00   Q 147.66 41.00 148.80 40.99   A 0.51 0.50 89.7 0 0 149.30 40.48   L 149.30 22.58   A 0.60 0.60 0.0 0 1 149.90 21.98   L 155.76 21.98   A 0.48 0.47 -90.0 0 0 156.23 21.50   L 156.23 18.48   A 0.49 0.49 0.0 0 0 155.74 17.99   Q 151.50 17.98 146.86 18.00   Q 142.22 18.01 137.97 18.04   A 0.49 0.49 0.0 0 0 137.49 18.54   L 137.51 21.56   A 0.48 0.47 89.6 0 0 137.98 22.04   L 143.84 22.00   A 0.60 0.60 0.0 0 1 144.44 22.60   L 144.56 40.49   A 0.51 0.50 89.9 0 0 145.05 41.00   Q 146.20 41.00 146.93 41.00"/>
<path stroke="#bfbfbf" vector-effect="non-scaling-stroke" d="   M 169.5202 17.9400   A 11.57 11.24 -89.9 0 0 158.2600 29.4904   A 11.57 11.24 -89.9 0 0 169.4798 41.0800   A 11.57 11.24 -89.9 0 0 180.7400 29.5296   A 11.57 11.24 -89.9 0 0 169.5202 17.9400"/>
<path stroke="#bfbfbf" vector-effect="non-scaling-stroke" d="   M 203.64 40.39   L 202.80 38.95   A 1.08 1.08 0.0 0 1 202.67 38.48   C 202.58 34.88 203.19 32.27 200.03 30.29   A 0.37 0.37 0.0 0 1 200.04 29.66   Q 204.74 27.03 202.66 21.48   Q 201.47 18.34 197.94 18.16   Q 191.85 17.85 185.12 18.14   A 0.63 0.63 0.0 0 0 184.51 18.77   L 184.55 40.65   A 0.38 0.38 0.0 0 0 184.94 41.03   L 188.93 41.03   A 0.40 0.40 0.0 0 0 189.33 40.62   L 189.32 32.81   A 0.78 0.78 0.0 0 1 190.10 32.02   L 196.04 32.01   A 1.76 1.76 0.0 0 1 197.80 33.77   L 197.81 39.73   A 1.29 1.29 0.0 0 0 199.10 41.02   L 203.28 41.01   A 0.42 0.42 0.0 0 0 203.64 40.39"/>
<path stroke="#bfbfbf" vector-effect="non-scaling-stroke" d="   M 211.81 18.60   A 0.57 0.57 0.0 0 0 211.24 18.03   L 207.60 18.03   A 0.57 0.57 0.0 0 0 207.03 18.60   L 207.03 40.44   A 0.57 0.57 0.0 0 0 207.60 41.01   L 211.24 41.01   A 0.57 0.57 0.0 0 0 211.81 40.44   L 211.81 18.60"/>
<path stroke="#bfbfbf" vector-effect="non-scaling-stroke" d="   M 222.05 28.10   Q 220.79 29.68 215.77 36.02   Q 214.60 37.50 214.95 40.43   A 0.64 0.63 86.4 0 0 215.58 40.99   L 231.83 40.99   A 0.69 0.69 0.0 0 0 232.52 40.30   L 232.52 37.72   A 0.69 0.69 0.0 0 0 231.83 37.03   L 221.15 37.03   A 0.27 0.27 0.0 0 1 220.93 36.60   Q 221.78 35.46 225.41 30.91   Q 226.68 29.34 231.69 23.00   Q 232.87 21.51 232.52 18.58   A 0.64 0.63 86.4 0 0 231.89 18.02   L 215.64 18.02   A 0.69 0.69 0.0 0 0 214.95 18.71   L 214.95 21.29   A 0.69 0.69 0.0 0 0 215.64 21.98   L 226.32 21.98   A 0.27 0.27 0.0 0 1 226.53 22.41   Q 225.69 23.56 222.05 28.10"/>
<path stroke="#bfbfbf" vector-effect="non-scaling-stroke" d="   M 253.38 37.02   L 241.91 37.02   A 0.61 0.60 89.9 0 1 241.31 36.41   L 241.32 31.61   A 0.60 0.60 0.0 0 1 241.92 31.01   L 251.86 30.96   A 0.66 0.65 89.9 0 0 252.50 30.30   L 252.48 27.68   A 0.65 0.64 -0.1 0 0 251.83 27.04   L 242.01 27.04   A 0.71 0.71 0.0 0 1 241.31 26.33   L 241.31 22.73   A 0.73 0.72 -89.7 0 1 242.03 22.01   L 252.71 21.94   A 0.69 0.68 -89.2 0 0 253.38 21.27   L 253.45 18.81   A 0.74 0.73 0.6 0 0 252.71 18.06   L 237.15 18.03   A 0.63 0.63 0.0 0 0 236.53 18.66   L 236.52 40.36   A 0.63 0.62 -0.1 0 0 237.15 40.98   L 253.41 40.98   A 0.53 0.53 0.0 0 0 253.94 40.45   L 253.93 37.55   A 0.55 0.55 0.0 0 0 253.38 37.02"/>
<path stroke="#bfbfbf" vector-effect="non-scaling-stroke" d="   M 276.58 40.34   L 275.75 38.91   A 1.07 1.07 0.0 0 1 275.62 38.44   C 275.54 34.87 276.15 32.27 273.01 30.30   A 0.37 0.36 -43.3 0 1 273.03 29.67   Q 277.70 27.07 275.64 21.55   Q 274.47 18.42 270.96 18.24   Q 264.91 17.92 258.22 18.19   A 0.63 0.63 0.0 0 0 257.61 18.82   L 257.61 40.57   A 0.38 0.38 0.0 0 0 257.99 40.95   L 261.96 40.95   A 0.40 0.40 0.0 0 0 262.36 40.55   L 262.36 32.78   A 0.78 0.78 0.0 0 1 263.14 32.00   L 269.04 32.00   A 1.75 1.75 0.0 0 1 270.79 33.75   L 270.79 39.68   A 1.28 1.28 0.0 0 0 272.07 40.96   L 276.22 40.96   A 0.41 0.41 0.0 0 0 276.58 40.34"/>
<path stroke="#bfbfbf" vector-effect="non-scaling-stroke" d="   M 58.89 85.87   C 54.41 84.32 49.58 85.16 46.32 88.65   C 42.33 92.92 41.84 99.89 46.35 104.54   Q 47.35 105.57 48.15 106.61"/>
<path stroke="none" vector-effect="non-scaling-stroke" d="   M 48.15 106.61   Q 40.91 125.92 41.87 146.51   C 43.32 177.66 59.37 205.61 84.92 223.55"/>
<path stroke="#bfbfbf" vector-effect="non-scaling-stroke" d="   M 84.92 223.55   L 91.37 241.33   A 1.04 1.03 -10.2 0 0 92.34 242.00   L 95.02 242.00   A 0.95 0.93 9.6 0 0 95.91 241.38   L 99.35 231.76"/>
<path stroke="none" vector-effect="non-scaling-stroke" d="   M 99.35 231.76   L 105.92 234.58"/>
<path stroke="#bfbfbf" vector-effect="non-scaling-stroke" d="   M 105.92 234.58   Q 106.81 237.42 106.62 241.44   A 0.54 0.53 -89.0 0 0 107.15 242.00   L 123.02 242.00   A 0.75 0.74 -81.5 0 0 123.73 241.47   Q 124.13 240.13 124.93 239.76"/>
<path stroke="none" vector-effect="non-scaling-stroke" d="   M 124.93 239.76   L 130.03 240.47"/>
<path stroke="#bfbfbf" vector-effect="non-scaling-stroke" d="   M 130.03 240.47   Q 136.56 243.06 142.90 240.85"/>
<path stroke="none" vector-effect="non-scaling-stroke" d="   M 142.90 240.85   Q 149.17 241.14 155.31 240.02"/>
<path stroke="#bfbfbf" vector-effect="non-scaling-stroke" d="   M 155.31 240.02   Q 155.02 242.85 159.83 241.93   A 0.57 0.57 0.0 0 0 160.28 241.34   Q 160.17 239.79 160.75 239.11"/>
<path stroke="none" vector-effect="non-scaling-stroke" d="   M 160.75 239.11   L 170.56 236.62"/>
<path stroke="#bfbfbf" vector-effect="non-scaling-stroke" d="   M 170.56 236.62   Q 176.98 244.86 186.36 240.51   A 3.65 3.48 -76.7 0 0 187.19 239.97   Q 192.77 235.00 191.47 227.36"/>
<path stroke="none" vector-effect="non-scaling-stroke" d="   M 191.47 227.36   L 195.49 224.93"/>
<path stroke="#bfbfbf" vector-effect="non-scaling-stroke" d="   M 195.49 224.93   L 195.52 241.59   A 0.41 0.40 -0.0 0 0 195.93 241.99   L 199.94 241.99   A 0.41 0.40 -0.0 0 0 200.35 241.59   L 200.35 234.15   A 1.13 1.12 -90.0 0 1 201.47 233.02   L 206.71 233.02   A 2.11 2.11 0.0 0 1 208.82 235.13   L 208.82 240.84   A 1.15 1.14 0.0 0 0 209.97 241.98   L 214.32 241.98   A 0.34 0.34 0.0 0 0 214.62 241.47   L 213.86 240.16   A 1.00 0.98 29.3 0 1 213.73 239.71   L 213.34 234.06   A 2.36 2.31 -66.9 0 0 212.83 232.75   Q 212.28 231.96 211.05 231.38   A 0.40 0.40 0.0 0 1 211.02 230.67   Q 215.57 228.06 213.84 222.97   C 212.17 218.09 207.87 219.39 204.00 218.77"/>
<path stroke="none" vector-effect="non-scaling-stroke" d="   M 204.00 218.77   Q 225.33 201.25 234.90 175.19"/>
<path stroke="#bfbfbf" vector-effect="non-scaling-stroke" d="   M 234.90 175.19   L 241.87 175.04   A 0.65 0.65 0.0 0 0 242.50 174.39   L 242.50 171.62   A 0.63 0.62 -88.6 0 0 241.91 170.99   L 236.36 170.68"/>
<path stroke="none" vector-effect="non-scaling-stroke" d="   M 236.36 170.68   L 238.55 162.11"/>
<path stroke="#bfbfbf" vector-effect="non-scaling-stroke" d="   M 238.55 162.11   Q 239.07 161.18 239.62 159.95   C 240.90 157.09 242.96 156.52 242.50 152.70   A 0.66 0.65 -88.9 0 0 241.96 152.13   L 240.17 151.83"/>
<path stroke="none" vector-effect="non-scaling-stroke" d="   M 240.17 151.83   Q 243.35 118.40 226.06 89.73"/>
<path stroke="#bfbfbf" vector-effect="non-scaling-stroke" d="   M 226.06 89.73   Q 225.84 89.55 225.89 89.24   A 0.31 0.31 0.0 0 1 226.20 88.98   L 231.60 88.98   A 0.56 0.56 0.0 0 0 232.16 88.42   L 232.16 85.55   A 0.62 0.61 1.0 0 0 231.56 84.94   L 222.81 84.69"/>
<path stroke="none" vector-effect="non-scaling-stroke" d="   M 222.81 84.69   Q 203.79 58.41 174.96 48.12   C 131.83 32.71 84.70 48.25 58.89 85.87"/>
<path stroke="#57544a" vector-effect="non-scaling-stroke" d="   M 222.81 84.69   Q 220.57 85.29 220.07 84.79"/>
<path stroke="none" vector-effect="non-scaling-stroke" d="   M 220.07 84.79   C 179.78 29.97 100.19 31.45 61.14 86.54"/>
<path stroke="#57544a" vector-effect="non-scaling-stroke" d="   M 61.14 86.54   L 58.89 85.87"/>
<path stroke="#bfbfbf" vector-effect="non-scaling-stroke" d="   M 220.07 84.79   Q 218.21 85.18 216.57 84.88"/>
<path stroke="none" vector-effect="non-scaling-stroke" d="   M 216.57 84.88   C 199.78 61.75 174.15 49.03 146.19 46.50   A 1.01 1.01 0.0 0 0 145.13 47.80   Q 145.31 48.43 146.24 48.76   C 166.54 55.90 186.28 67.51 199.13 84.56"/>
<path stroke="#bfbfbf" vector-effect="non-scaling-stroke" d="   M 199.13 84.56   Q 198.55 84.93 197.67 85.09   A 0.71 0.71 0.0 0 0 197.11 85.65   L 196.73 87.64"/>
<path stroke="none" vector-effect="non-scaling-stroke" d="   M 196.73 87.64   Q 192.71 85.27 187.74 86.22"/>
<path stroke="#bfbfbf" vector-effect="non-scaling-stroke" d="   M 187.74 86.22   Q 185.05 84.35 181.51 85.13   A 0.89 0.89 0.0 0 0 180.85 85.70   L 173.39 106.31"/>
<path stroke="none" vector-effect="non-scaling-stroke" d="   M 173.39 106.31   L 170.27 104.38"/>
<path stroke="#bfbfbf" vector-effect="non-scaling-stroke" d="   M 170.27 104.38   Q 169.55 103.22 166.86 102.68"/>
<path stroke="none" vector-effect="non-scaling-stroke" d="   M 166.86 102.68   L 160.46 98.61"/>
<path stroke="#bfbfbf" vector-effect="non-scaling-stroke" d="   M 160.46 98.61   L 158.47 96.96   A 0.38 0.38 0.0 0 1 158.51 96.35   Q 162.28 93.99 160.94 89.26   Q 159.66 84.77 154.24 85.00   Q 150.07 85.19 142.41 84.88"/>
<path stroke="none" vector-effect="non-scaling-stroke" d="   M 142.41 84.88   Q 141.96 83.93 141.14 83.62   Q 140.27 83.28 139.60 84.12   C 137.63 86.56 140.02 88.79 141.99 90.67"/>
<path stroke="#bfbfbf" vector-effect="non-scaling-stroke" d="   M 141.99 90.67   Q 142.57 91.73 142.57 93.26   Q 142.57 100.30 142.53 107.53   A 0.47 0.46 0.0 0 0 143.00 107.99   L 146.92 107.99   A 0.44 0.44 0.0 0 0 147.36 107.55   L 147.36 99.68   A 0.64 0.63 85.8 0 1 147.90 99.05   Q 149.54 98.81 151.02 99.24"/>
<path stroke="none" vector-effect="non-scaling-stroke" d="   M 151.02 99.24   L 155.64 102.82"/>
<path stroke="#bfbfbf" vector-effect="non-scaling-stroke" d="   M 155.64 102.82   L 156.16 107.19   A 0.78 0.77 4.6 0 0 156.72 107.84   Q 159.17 108.52 161.55 107.36"/>
<path stroke="none" vector-effect="non-scaling-stroke" d="   M 161.55 107.36   Q 167.86 111.39 178.83 117.17   Q 188.71 122.38 196.98 131.51   Q 204.84 140.20 207.38 151.86"/>
<path stroke="#bfbfbf" vector-effect="non-scaling-stroke" d="   M 207.38 151.86   L 195.08 152.06   A 0.55 0.54 89.5 0 0 194.55 152.61   L 194.55 174.32   A 0.70 0.69 90.0 0 0 195.24 175.02   L 198.34 175.02   A 1.04 1.03 -90.0 0 0 199.37 173.98   L 199.37 166.71   A 0.62 0.61 85.0 0 1 199.87 166.10   Q 202.23 165.67 204.57 166.39"/>
<path stroke="none" vector-effect="non-scaling-stroke" d="   M 204.57 166.39   C 198.88 177.70 189.36 187.08 178.77 194.03   Q 160.64 205.92 139.56 200.96   A 0.79 0.79 0.0 0 0 138.59 201.69   Q 138.57 202.16 138.83 202.68   A 1.33 1.32 87.9 0 0 139.50 203.31   Q 146.49 206.30 154.29 206.90   Q 173.27 208.34 190.21 198.90   Q 201.41 192.66 210.57 183.63   A 0.16 0.15 82.6 0 1 210.81 183.82   C 200.05 203.63 181.23 217.85 160.68 226.46"/>
<path stroke="#bfbfbf" vector-effect="non-scaling-stroke" d="   M 160.68 226.46   Q 160.05 225.23 160.36 223.56   A 0.66 0.65 -84.7 0 1 161.00 223.02   L 166.39 223.02   A 0.78 0.78 0.0 0 0 167.17 222.24   L 167.17 219.58   A 0.58 0.58 0.0 0 0 166.59 219.00   L 148.79 219.00   A 0.38 0.37 90.0 0 0 148.42 219.38   L 148.42 222.54   A 0.45 0.44 90.0 0 0 148.86 222.99   L 154.86 222.99   A 0.60 0.60 0.0 0 1 155.46 223.61   L 155.31 228.72"/>
<path stroke="none" vector-effect="non-scaling-stroke" d="   M 155.31 228.72   L 139.51 233.73   A 1.05 1.02 -39.8 0 0 139.31 235.63   Q 139.94 235.96 141.02 235.78"/>
<path stroke="#bfbfbf" vector-effect="non-scaling-stroke" d="   M 141.02 235.78   Q 141.44 236.26 140.56 236.82   C 137.50 238.75 133.53 238.12 132.06 234.67   Q 130.76 231.62 131.60 227.91   C 132.53 223.83 136.36 221.99 140.10 223.91   Q 141.65 224.71 141.98 226.28   A 0.83 0.81 -5.5 0 0 142.79 226.93   L 146.16 226.93   A 0.59 0.59 0.0 0 0 146.74 226.21   C 144.67 217.09 131.74 216.64 127.74 224.73   Q 124.60 231.05 128.58 238.19"/>
<path stroke="none" vector-effect="non-scaling-stroke" d="   M 128.58 238.19   L 111.74 234.30"/>
<path stroke="#bfbfbf" vector-effect="non-scaling-stroke" d="   M 111.74 234.30   Q 110.85 233.22 111.36 232.36   A 0.70 0.70 0.0 0 1 111.97 232.00   L 121.55 232.00   A 0.93 0.90 14.4 0 0 122.35 231.54   Q 122.94 230.48 123.75 230.62"/>
<path stroke="none" vector-effect="non-scaling-stroke" d="   M 123.75 230.62   Q 124.53 230.84 124.83 230.72   A 1.19 1.19 0.0 0 0 124.92 228.58   Q 120.51 226.18 115.44 223.39"/>
<path stroke="#bfbfbf" vector-effect="non-scaling-stroke" d="   M 115.44 223.39   L 122.73 223.06   A 0.70 0.70 0.0 0 0 123.40 222.36   L 123.40 219.57   A 0.62 0.62 0.0 0 0 122.70 218.95   Q 120.25 219.27 117.35 218.68"/>
<path stroke="none" vector-effect="non-scaling-stroke" d="   M 117.35 218.68   L 120.21 213.48   A 0.66 0.65 20.0 0 1 120.92 213.16   C 132.60 215.67 144.08 217.79 155.44 216.76   A 1.09 1.09 0.0 0 0 155.52 214.60   Q 137.81 211.77 122.46 201.97   A 2.80 2.78 -80.1 0 1 121.24 200.22   C 119.27 191.10 112.82 185.03 103.42 184.99   A 1.81 1.80 -24.5 0 1 102.29 184.57   Q 97.34 180.43 93.51 175.20"/>
<path stroke="#bfbfbf" vector-effect="non-scaling-stroke" d="   M 93.51 175.20   C 94.19 175.18 94.89 174.70 95.12 174.03   Q 99.04 162.31 102.55 152.56   A 0.37 0.37 0.0 0 0 102.20 152.06   L 98.31 152.06   A 0.62 0.61 8.2 0 0 97.72 152.50   L 92.90 168.49   A 0.27 0.26 -44.8 0 1 92.39 168.49   L 87.80 152.58   A 0.87 0.86 -8.0 0 0 86.97 151.96   L 83.45 151.96   A 0.49 0.49 0.0 0 0 82.98 152.61   L 87.77 166.72"/>
<path stroke="none" vector-effect="non-scaling-stroke" d="   M 87.77 166.72   C 81.78 156.47 77.08 144.00 77.57 132.22   Q 77.90 124.45 79.37 116.14   Q 79.87 113.30 81.20 110.37   A 1.07 1.07 0.0 0 1 83.01 110.15   Q 91.51 120.82 103.08 127.94   Q 117.27 136.69 128.43 141.87   C 134.00 144.45 140.36 146.89 146.60 145.52   A 1.01 0.82 -35.3 0 0 147.07 143.83   Q 146.79 143.72 146.74 143.51   A 0.50 0.50 0.0 0 1 147.13 142.90   Q 151.09 142.15 152.19 138.87   C 154.81 131.01 143.23 127.64 140.74 134.94   Q 139.51 138.55 142.03 140.81   Q 142.53 141.26 142.69 141.50   A 0.23 0.23 0.0 0 1 142.42 141.84   C 124.43 135.08 109.06 119.36 97.26 104.68"/>
<path stroke="#bfbfbf" vector-effect="non-scaling-stroke" d="   M 97.26 104.68   Q 96.86 104.05 96.84 103.69   Q 96.53 94.54 97.18 85.42"/>
<path stroke="none" vector-effect="non-scaling-stroke" d="   M 97.18 85.42   Q 99.01 85.37 100.07 84.72"/>
<path stroke="#bfbfbf" vector-effect="non-scaling-stroke" d="   M 100.07 84.72   L 99.99 88.44   A 0.56 0.56 0.0 0 0 100.55 89.01   L 111.41 89.01   A 0.23 0.23 0.0 0 1 111.59 89.38   L 100.37 103.50   A 2.01 1.99 -25.9 0 0 99.93 104.75   L 99.93 107.25   A 0.76 0.75 0.0 0 0 100.69 108.00   L 116.99 108.00   A 0.51 0.50 -0.0 0 0 117.50 107.50   L 117.50 104.56   A 0.54 0.54 0.0 0 0 116.96 104.02   L 106.11 104.02   A 0.27 0.27 0.0 0 1 105.90 103.58   L 117.18 89.39   A 1.52 1.47 -26.7 0 0 117.50 88.47   L 117.50 85.66   A 0.63 0.62 -89.5 0 0 116.89 85.03   Q 116.18 85.02 102.08 84.96   Q 101.03 84.96 100.99 84.36"/>
<path stroke="none" vector-effect="non-scaling-stroke" d="   M 100.99 84.36   Q 105.78 82.80 107.00 78.47   C 109.66 69.04 97.42 62.60 90.56 68.32   Q 89.10 69.53 85.37 76.46   Q 83.16 80.58 80.52 84.90"/>
<path stroke="#bfbfbf" vector-effect="non-scaling-stroke" d="   M 80.52 84.90   L 70.13 85.12   A 0.53 0.52 1.2 0 0 69.61 85.61   L 69.40 89.36"/>
<path stroke="none" vector-effect="non-scaling-stroke" d="   M 69.40 89.36   L 64.49 90.25"/>
<path stroke="#bfbfbf" vector-effect="non-scaling-stroke" d="   M 64.49 90.25   L 61.14 86.54"/>
<path stroke="#57544a" vector-effect="non-scaling-stroke" d="   M 226.06 89.73   Q 225.23 90.33 225.48 93.14"/>
<path stroke="#bfbfbf" vector-effect="non-scaling-stroke" d="   M 225.48 93.14   Q 224.81 97.47 226.07 101.00"/>
<path stroke="#57544a" vector-effect="non-scaling-stroke" d="   M 226.07 101.00   Q 224.89 103.55 226.37 107.28"/>
<path stroke="#57544a" vector-effect="non-scaling-stroke" d="   M 220.12 93.71   L 220.29 90.81"/>
<path stroke="#ab987a" vector-effect="non-scaling-stroke" d="   M 220.29 90.81   Q 221.04 90.32 220.59 89.45   A 0.58 0.56 -5.0 0 0 220.25 89.17   Q 219.79 89.03 219.77 89.44"/>
<path stroke="#57544a" vector-effect="non-scaling-stroke" d="   M 219.77 89.44   Q 218.45 88.76 216.92 89.18"/>
<path stroke="#57544a" vector-effect="non-scaling-stroke" d="   M 64.49 90.25   Q 64.61 91.29 65.43 91.86"/>
<path stroke="#bab340" vector-effect="non-scaling-stroke" d="   M 65.43 91.86   Q 65.14 92.03 65.26 92.48   C 66.98 99.03 64.32 105.60 57.55 107.36   Q 56.06 107.75 54.57 108.28"/>
<path stroke="#57544a" vector-effect="non-scaling-stroke" d="   M 54.57 108.28   Q 53.99 107.96 52.76 108.19"/>
<path stroke="#bfbfbf" vector-effect="non-scaling-stroke" d="   M 52.76 108.19   Q 51.80 107.49 50.31 107.21"/>
<path stroke="#57544a" vector-effect="non-scaling-stroke" d="   M 50.31 107.21   L 48.15 106.61"/>
<path stroke="#57544a" vector-effect="non-scaling-stroke" d="   M 167.85 108.56   L 165.48 107.79   A 0.95 0.94 87.1 0 1 164.89 107.25   L 164.55 106.46"/>
<path stroke="#57544a" vector-effect="non-scaling-stroke" d="   M 216.57 84.88   Q 214.44 85.35 213.55 84.47"/>
<path stroke="#1b6623" vector-effect="non-scaling-stroke" d="   M 213.55 84.47   Q 195.86 61.62 167.98 53.07   Q 162.44 51.36 156.81 50.04   A 0.26 0.25 14.9 0 0 156.51 50.21   L 156.51 50.22   A 0.23 0.22 -69.0 0 0 156.63 50.50   C 172.00 57.09 186.34 66.11 197.14 78.61   C 205.94 88.79 211.49 102.25 210.13 115.56   A 1.41 1.41 0.0 0 1 208.80 116.82   C 195.07 117.54 182.39 113.55 170.37 107.21"/>
<path stroke="#57544a" vector-effect="non-scaling-stroke" d="   M 170.37 107.21   Q 169.55 106.05 170.27 104.38"/>
<path stroke="#57544a" vector-effect="non-scaling-stroke" d="   M 173.39 106.31   Q 172.92 107.00 173.09 107.48   Q 173.26 107.92 174.12 107.96   Q 175.95 108.05 177.70 108.19"/>
<path stroke="none" vector-effect="non-scaling-stroke" d="   M 177.70 108.19   Q 190.92 114.49 206.79 114.95   A 1.42 1.42 0.0 0 0 208.25 113.59   Q 208.73 101.03 202.01 89.29"/>
<path stroke="#57544a" vector-effect="non-scaling-stroke" d="   M 202.01 89.29   L 201.97 85.90   A 0.68 0.68 0.0 0 0 201.48 85.25   L 199.13 84.56"/>
<path stroke="#91880a" vector-effect="non-scaling-stroke" d="   M 118.69 227.74   Q 115.37 225.89 112.50 224.28   Q 112.15 224.08 111.66 224.47"/>
<path stroke="#57544a" vector-effect="non-scaling-stroke" d="   M 115.44 223.39   Q 113.78 222.71 111.92 223.25   Q 111.43 223.40 111.36 223.91   Q 111.31 224.34 111.66 224.47"/>
<path stroke="#bab340" vector-effect="non-scaling-stroke" d="   M 111.66 224.47   L 111.19 226.09   A 0.91 0.91 0.0 0 0 111.99 227.25   L 118.69 227.74"/>
<path stroke="#57544a" vector-effect="non-scaling-stroke" d="   M 118.69 227.74   L 122.08 228.10   A 0.70 0.68 -2.2 0 1 122.68 228.64   Q 122.97 229.98 123.75 230.62"/>
<path stroke="#57544a" vector-effect="non-scaling-stroke" d="   M 111.74 234.30   Q 111.41 235.14 111.47 236.50"/>
<path stroke="#bfbfbf" vector-effect="non-scaling-stroke" d="   M 111.47 236.50   Q 110.66 238.98 114.81 237.48"/>
<path stroke="#57544a" vector-effect="non-scaling-stroke" d="   M 114.81 237.48   Q 118.31 238.14 122.37 237.87   Q 123.08 237.82 124.63 238.90   A 0.03 0.02 -58.3 0 1 124.63 238.93   L 124.50 239.18   A 0.18 0.18 0.0 0 0 124.59 239.42   Q 124.81 239.51 124.93 239.76"/>
<path stroke="#57544a" vector-effect="non-scaling-stroke" d="   M 105.92 234.58   Q 106.61 233.65 106.07 232.38"/>
<path stroke="#bfbfbf" vector-effect="non-scaling-stroke" d="   M 106.07 232.38   Q 107.00 230.69 106.22 228.77"/>
<path stroke="#57544a" vector-effect="non-scaling-stroke" d="   M 106.22 228.77   L 106.39 225.23"/>
<path stroke="#57544a" vector-effect="non-scaling-stroke" d="   M 87.77 166.72   L 89.75 173.11"/>
<path stroke="#1b6623" vector-effect="non-scaling-stroke" d="   M 196.78 90.25   Q 192.77 87.24 188.00 88.40"/>
<path stroke="#57544a" vector-effect="non-scaling-stroke" d="   M 209.47 151.88   Q 208.13 152.20 207.38 151.86"/>
<path stroke="#57544a" vector-effect="non-scaling-stroke" d="   M 97.26 104.68   Q 96.54 104.98 96.66 105.50   Q 96.88 106.49 96.83 107.47"/>
<path stroke="#bab340" vector-effect="non-scaling-stroke" d="   M 96.83 107.47   Q 94.68 108.38 92.65 107.82   A 0.69 0.68 6.0 0 1 92.14 107.20   L 91.64 100.42"/>
<path stroke="#57544a" vector-effect="non-scaling-stroke" d="   M 91.64 100.42   Q 92.29 99.95 91.68 97.93"/>
<path stroke="#bfbfbf" vector-effect="non-scaling-stroke" d="   M 91.68 97.93   L 91.83 85.67"/>
<path stroke="#57544a" vector-effect="non-scaling-stroke" d="   M 166.86 102.68   Q 164.60 103.07 164.75 104.41"/>
<path stroke="#1b6623" vector-effect="non-scaling-stroke" d="   M 164.75 104.41   Q 163.41 102.82 161.32 102.07"/>
<path stroke="#57544a" vector-effect="non-scaling-stroke" d="   M 142.41 84.88   L 141.99 90.67"/>
<path stroke="#bfbfbf" vector-effect="non-scaling-stroke" d="   M 87.14 86.88   Q 88.90 90.96 87.71 94.70"/>
<path stroke="#57544a" vector-effect="non-scaling-stroke" d="   M 87.71 94.70   Q 86.81 94.92 86.49 95.77"/>
<path stroke="#bab340" vector-effect="non-scaling-stroke" d="   M 86.49 95.77   Q 85.47 95.96 85.14 96.67   A 0.64 0.63 -61.2 0 0 85.37 97.48   C 88.97 99.72 86.54 104.39 88.54 107.35   A 0.40 0.40 0.0 0 1 88.26 107.97   Q 85.83 108.27 83.90 107.83   A 1.40 1.39 -83.5 0 1 82.82 106.47   L 82.82 101.22   A 2.21 2.21 0.0 0 0 80.61 99.01   L 75.46 99.01   A 1.12 1.11 -90.0 0 0 74.35 100.13   L 74.35 107.53   A 0.47 0.46 -0.0 0 1 73.88 107.99   L 70.06 107.99   A 0.53 0.53 0.0 0 1 69.53 107.46   Q 69.56 100.08 69.51 92.26   Q 69.50 91.19 69.02 91.17"/>
<path stroke="#57544a" vector-effect="non-scaling-stroke" d="   M 69.02 91.17   Q 69.46 90.64 69.40 89.36"/>
<path stroke="none" vector-effect="non-scaling-stroke" d="   M 114.81 237.48   L 111.47 236.50"/>
<path stroke="#1b6623" vector-effect="non-scaling-stroke" d="   M 154.93 231.21   L 148.45 233.47   A 0.20 0.20 0.0 0 0 148.54 233.86   L 155.08 232.97"/>
<path stroke="none" vector-effect="non-scaling-stroke" d="   M 155.20 235.18   L 146.90 235.78"/>
<path stroke="#91880a" vector-effect="non-scaling-stroke" d="   M 69.02 91.17   L 65.43 91.86"/>
<path stroke="none" vector-effect="non-scaling-stroke" d="   M 160.78 228.73   Q 160.24 230.26 160.73 232.26"/>
<path stroke="#57544a" vector-effect="non-scaling-stroke" d="   M 160.73 232.26   L 160.50 234.53"/>
<path stroke="#bfbfbf" vector-effect="non-scaling-stroke" d="   M 160.50 234.53   Q 159.96 235.88 160.46 237.06"/>
<path stroke="#57544a" vector-effect="non-scaling-stroke" d="   M 160.46 237.06   Q 160.22 237.83 160.75 239.11"/>
<path stroke="#57544a" vector-effect="non-scaling-stroke" d="   M 155.31 240.02   L 155.19 238.01"/>
<path stroke="#bfbfbf" vector-effect="non-scaling-stroke" d="   M 155.19 238.01   Q 155.90 236.76 155.20 235.18"/>
<path stroke="#57544a" vector-effect="non-scaling-stroke" d="   M 155.20 235.18   Q 155.42 233.84 155.08 232.97"/>
<path stroke="none" vector-effect="non-scaling-stroke" d="   M 155.08 232.97   Q 154.55 231.57 154.93 231.21"/>
<path stroke="#57544a" vector-effect="non-scaling-stroke" d="   M 154.93 231.21   Q 155.42 230.19 155.31 228.72"/>
<path stroke="#57544a" vector-effect="non-scaling-stroke" d="   M 91.16 175.19   L 93.51 175.20"/>
<path stroke="#57544a" vector-effect="non-scaling-stroke" d="   M 117.35 218.68   Q 116.02 219.21 114.57 218.87"/>
<path stroke="#826d45" vector-effect="non-scaling-stroke" d="   M 114.57 218.87   Q 123.80 206.83 116.78 194.51   Q 114.76 190.97 110.07 188.56   C 103.07 184.96 92.70 188.11 86.02 191.55   A 0.89 0.89 0.0 0 0 85.54 192.34   L 85.54 215.35   A 1.62 1.60 -74.3 0 0 86.30 216.72   L 97.39 223.61"/>
<path stroke="#57544a" vector-effect="non-scaling-stroke" d="   M 97.39 223.61   L 96.48 225.57"/>
<path stroke="none" vector-effect="non-scaling-stroke" d="   M 96.48 225.57   L 89.63 221.56"/>
<path stroke="#57544a" vector-effect="non-scaling-stroke" d="   M 89.63 221.56   L 88.96 219.67   A 0.87 0.86 82.4 0 0 88.23 219.11   L 85.46 218.87"/>
<path stroke="#57544a" vector-effect="non-scaling-stroke" d="   M 100.99 84.36   L 100.07 84.72"/>
<path stroke="#57544a" vector-effect="non-scaling-stroke" d="   M 97.18 85.42   Q 94.47 83.66 91.83 85.67"/>
<path stroke="none" vector-effect="non-scaling-stroke" d="   M 91.83 85.67   L 87.14 86.88"/>
<path stroke="#57544a" vector-effect="non-scaling-stroke" d="   M 87.14 86.88   Q 86.14 86.06 86.47 85.61"/>
<path stroke="#91880a" vector-effect="non-scaling-stroke" d="   M 86.47 85.61   Q 91.21 84.31 92.81 84.35   C 98.83 84.48 105.39 82.81 105.96 75.76   A 3.31 3.31 0.0 0 0 105.81 74.49   C 103.93 68.81 96.89 65.40 91.74 69.37   Q 90.41 70.40 87.85 75.53   C 86.34 78.55 83.86 81.26 82.59 84.58"/>
<path stroke="#57544a" vector-effect="non-scaling-stroke" d="   M 82.59 84.58   Q 82.12 84.84 80.52 84.90"/>
<path stroke="#57544a" vector-effect="non-scaling-stroke" d="   M 141.02 235.78   L 142.18 234.12   A 1.40 1.38 12.1 0 1 143.09 233.54   Q 148.14 232.68 146.90 235.78"/>
<path stroke="#bfbfbf" vector-effect="non-scaling-stroke" d="   M 146.90 235.78   Q 145.74 236.96 145.08 238.94"/>
<path stroke="#57544a" vector-effect="non-scaling-stroke" d="   M 145.08 238.94   L 142.90 240.85"/>
<path stroke="#57544a" vector-effect="non-scaling-stroke" d="   M 130.03 240.47   Q 129.93 239.63 128.58 238.19"/>
<path stroke="#57544a" vector-effect="non-scaling-stroke" d="   M 160.46 98.61   Q 160.15 100.18 161.32 102.07"/>
<path stroke="none" vector-effect="non-scaling-stroke" d="   M 161.32 102.07   Q 160.76 103.04 161.09 104.05"/>
<path stroke="#57544a" vector-effect="non-scaling-stroke" d="   M 161.09 104.05   Q 160.69 105.57 161.55 107.36"/>
<path stroke="#57544a" vector-effect="non-scaling-stroke" d="   M 155.64 102.82   Q 155.27 98.34 151.02 99.24"/>
<path stroke="#57544a" vector-effect="non-scaling-stroke" d="   M 206.93 166.80   Q 205.38 165.84 204.57 166.39"/>
<path stroke="#57544a" vector-effect="non-scaling-stroke" d="   M 187.74 86.22   Q 187.09 86.66 188.00 88.40"/>
<path stroke="none" vector-effect="non-scaling-stroke" d="   M 188.00 88.40   L 193.47 104.20"/>
<path stroke="#57544a" vector-effect="non-scaling-stroke" d="   M 193.47 104.20   Q 193.74 105.42 194.52 106.24"/>
<path stroke="#bfbfbf" vector-effect="non-scaling-stroke" d="   M 194.52 106.24   Q 194.52 106.88 194.32 107.35   Q 194.05 107.95 193.49 107.98   Q 192.21 108.04 189.94 107.97   A 0.84 0.84 0.0 0 1 189.13 107.17   Q 189.02 105.04 186.59 104.11   A 1.79 1.75 55.0 0 0 185.95 103.99   L 179.89 103.99   A 0.87 0.86 10.2 0 0 179.08 104.55   L 177.70 108.19"/>
<path stroke="#bfbfbf" vector-effect="non-scaling-stroke" d="   M 202.01 89.29   Q 201.46 92.59 202.51 95.73"/>
<path stroke="#57544a" vector-effect="non-scaling-stroke" d="   M 202.51 95.73   Q 201.47 100.23 202.33 104.67   A 2.70 2.61 -44.0 0 1 202.29 105.83   L 201.79 107.77"/>
<path stroke="#bfbfbf" vector-effect="non-scaling-stroke" d="   M 201.79 107.77   Q 198.06 108.76 196.08 106.58"/>
<path stroke="#57544a" vector-effect="non-scaling-stroke" d="   M 196.08 106.58   Q 197.19 106.39 196.86 104.49"/>
<path stroke="none" vector-effect="non-scaling-stroke" d="   M 196.86 104.49   L 196.78 90.25"/>
<path stroke="#57544a" vector-effect="non-scaling-stroke" d="   M 196.78 90.25   Q 197.26 88.98 196.73 87.64"/>
<path stroke="#57544a" vector-effect="non-scaling-stroke" d="   M 180.38 218.63   Q 174.27 219.10 170.30 224.44"/>
<path stroke="#1b6623" vector-effect="non-scaling-stroke" d="   M 170.30 224.44   L 160.78 228.73"/>
<path stroke="#57544a" vector-effect="non-scaling-stroke" d="   M 160.78 228.73   Q 160.42 227.73 160.68 226.46"/>
<path stroke="none" vector-effect="non-scaling-stroke" d="   M 213.55 84.47   Q 212.79 85.93 213.22 88.28   A 0.82 0.81 87.2 0 0 213.95 88.95   L 216.92 89.18"/>
<path stroke="#1b6623" vector-effect="non-scaling-stroke" d="   M 216.92 89.18   L 220.12 93.71"/>
<path stroke="none" vector-effect="non-scaling-stroke" d="   M 220.12 93.71   L 220.25 107.24   A 0.65 0.63 6.2 0 0 220.76 107.86   Q 223.65 108.48 226.37 107.28"/>
<path stroke="#1b6623" vector-effect="non-scaling-stroke" d="   M 226.37 107.28   Q 235.49 128.51 232.94 151.76"/>
<path stroke="none" vector-effect="non-scaling-stroke" d="   M 232.94 151.76   L 225.93 152.04   A 1.23 1.23 0.0 0 0 224.74 153.27   L 224.74 154.63   A 1.32 1.32 0.0 0 0 225.99 155.95   L 232.12 156.30"/>
<path stroke="#1b6623" vector-effect="non-scaling-stroke" d="   M 232.12 156.30   L 231.32 162.55"/>
<path stroke="none" vector-effect="non-scaling-stroke" d="   M 231.32 162.55   Q 228.44 166.35 225.27 170.26   Q 224.23 171.53 225.02 174.32   A 0.92 0.92 0.0 0 0 225.65 174.95   L 227.34 175.43"/>
<path stroke="#1b6623" vector-effect="non-scaling-stroke" d="   M 227.34 175.43   Q 215.26 204.73 188.47 221.62"/>
<path stroke="none" vector-effect="non-scaling-stroke" d="   M 188.47 221.62   Q 185.28 219.16 180.38 218.63"/>
<path stroke="#1b6623" vector-effect="non-scaling-stroke" d="   M 180.38 218.63   Q 196.25 208.33 207.02 193.80   Q 211.39 187.90 214.33 181.32   Q 215.08 179.63 215.11 178.07   A 0.81 0.80 -22.1 0 0 213.73 177.49   C 197.92 193.63 178.32 207.13 154.60 204.71   A 0.02 0.02 0.0 0 1 154.58 204.69   L 154.58 204.40   A 0.18 0.18 0.0 0 1 154.75 204.22   C 170.29 203.33 180.87 196.58 192.28 186.03   Q 201.48 177.53 206.93 166.80"/>
<path stroke="none" vector-effect="non-scaling-stroke" d="   M 206.93 166.80   L 208.06 174.35   A 0.77 0.77 0.0 0 0 208.82 175.00   L 213.16 175.00   A 0.49 0.49 0.0 0 0 213.60 174.28   C 212.14 171.54 213.94 166.51 210.74 164.35   A 0.46 0.45 -45.3 0 1 210.74 163.60   C 215.06 160.59 213.81 154.26 209.47 151.88"/>
<path stroke="#1b6623" vector-effect="non-scaling-stroke" d="   M 209.47 151.88   C 206.92 137.50 196.94 126.29 185.13 118.46   C 180.60 115.45 173.53 112.12 167.85 108.56"/>
<path stroke="none" vector-effect="non-scaling-stroke" d="   M 167.85 108.56   Q 170.27 107.93 170.37 107.21"/>
<path stroke="#57544a" vector-effect="non-scaling-stroke" d="   M 234.95 151.73   Q 234.60 152.33 232.94 151.76"/>
<path stroke="#826d45" vector-effect="non-scaling-stroke" d="   M 219.77 89.44   L 220.29 90.81"/>
<path stroke="#57544a" vector-effect="non-scaling-stroke" d="   M 240.17 151.83   Q 238.44 152.43 237.88 151.89"/>
<path stroke="none" vector-effect="non-scaling-stroke" d="   M 237.88 151.89   Q 241.08 120.47 225.48 93.14"/>
<path stroke="#bfbfbf" vector-effect="non-scaling-stroke" d="   M 237.88 151.89   Q 235.86 152.37 234.95 151.73"/>
<path stroke="none" vector-effect="non-scaling-stroke" d="   M 234.95 151.73   C 237.18 134.09 233.60 116.96 226.07 101.00"/>
<path stroke="none" vector-effect="non-scaling-stroke" d="   M 50.31 107.21   C 34.85 148.45 48.42 193.17 83.25 219.64   A 0.71 0.69 -41.3 0 0 84.03 219.68   Q 84.35 219.48 83.90 219.60"/>
<path stroke="#57544a" vector-effect="non-scaling-stroke" d="   M 83.90 219.60   L 84.92 223.55"/>
<path stroke="none" vector-effect="non-scaling-stroke" d="   M 52.76 108.19   Q 50.96 112.11 49.75 116.25   Q 40.94 146.50 52.70 175.59   Q 63.25 201.66 85.46 218.87"/>
<path stroke="#bfbfbf" vector-effect="non-scaling-stroke" d="   M 85.46 218.87   Q 84.88 218.86 83.90 219.60"/>
<path stroke="#91880a" vector-effect="non-scaling-stroke" d="   M 86.49 95.77   L 91.64 100.42"/>
<path stroke="#91880a" vector-effect="non-scaling-stroke" d="   M 96.83 107.47   L 97.22 107.71   A 1.89 1.75 -2.2 0 1 97.64 108.07   C 109.66 122.62 123.66 135.94 141.04 143.35   A 0.29 0.29 0.0 0 1 140.95 143.91   Q 139.13 144.05 135.79 142.83   C 125.07 138.90 115.27 133.16 105.70 127.32   C 96.68 121.82 90.79 116.02 83.67 108.36   Q 82.79 107.41 80.68 108.18   A 1.23 1.23 0.0 0 0 79.98 108.81   C 76.56 115.81 75.94 125.52 75.78 132.51   Q 75.59 140.50 77.88 148.13   Q 82.05 162.01 89.75 173.11"/>
<path stroke="#bab340" vector-effect="non-scaling-stroke" d="   M 89.75 173.11   Q 90.22 174.50 91.16 175.19"/>
<path stroke="#91880a" vector-effect="non-scaling-stroke" d="   M 91.16 175.19   L 99.90 185.03   A 0.13 0.12 -26.9 0 1 99.83 185.23   L 90.35 187.47   A 0.81 0.79 57.9 0 1 89.68 187.31   Q 85.31 183.78 82.03 179.95   Q 72.18 168.44 63.98 153.30   Q 63.62 152.64 62.92 152.41   A 0.54 0.54 0.0 0 0 62.23 153.07   Q 67.65 172.68 79.84 188.57   A 0.22 0.21 78.3 0 1 79.62 188.91   C 55.14 182.79 52.90 154.78 54.00 134.10   Q 54.62 122.36 57.29 109.77   A 0.67 0.66 13.2 0 0 56.80 108.99   L 56.70 108.96   A 0.65 0.65 0.0 0 0 55.88 109.47   L 53.70 121.19   A 1.92 1.72 -30.5 0 1 53.57 121.60   Q 52.07 124.92 51.17 130.98   Q 49.81 140.22 49.90 146.61   A 0.15 0.14 82.1 0 1 49.80 146.75   L 49.53 146.83   A 0.14 0.12 -10.6 0 1 49.37 146.73   L 47.94 138.99   A 2.19 2.03 42.7 0 1 47.90 138.49   Q 48.48 122.80 54.57 108.28"/>
<path stroke="none" vector-effect="non-scaling-stroke" d="   M 164.75 104.41   Q 165.18 105.47 164.55 106.46"/>
<path stroke="#1b6623" vector-effect="non-scaling-stroke" d="   M 164.55 106.46   Q 162.46 105.66 161.09 104.05"/>
<path stroke="none" vector-effect="non-scaling-stroke" d="   M 194.52 106.24   L 196.08 106.58"/>
<path stroke="none" vector-effect="non-scaling-stroke" d="   M 201.79 107.77   Q 202.77 108.50 203.85 108.57   A 0.99 0.99 0.0 0 0 204.91 107.52   Q 204.53 101.69 202.51 95.73"/>
<path stroke="none" vector-effect="non-scaling-stroke" d="   M 106.07 232.38   L 100.23 229.90"/>
<path stroke="#ab987a" vector-effect="non-scaling-stroke" d="   M 114.57 218.87   L 107.23 219.02   A 0.51 0.51 0.0 0 0 106.73 219.50   L 106.39 225.23"/>
<path stroke="#826d45" vector-effect="non-scaling-stroke" d="   M 106.39 225.23   Q 103.90 225.76 101.60 225.41"/>
<path stroke="#ab987a" vector-effect="non-scaling-stroke" d="   M 101.60 225.41   L 103.37 219.89   A 0.68 0.67 -81.1 0 0 102.73 219.01   L 99.80 219.01   A 1.19 1.17 9.3 0 0 98.68 219.80   L 97.39 223.61"/>
<path stroke="none" vector-effect="non-scaling-stroke" d="   M 106.22 228.77   L 101.29 227.43"/>
<path stroke="#1b6623" vector-effect="non-scaling-stroke" d="   M 196.86 104.49   L 193.47 104.20"/>
<path stroke="none" vector-effect="non-scaling-stroke" d="   M 91.68 97.93   L 87.71 94.70"/>
<path stroke="#bab340" vector-effect="non-scaling-stroke" d="   M 86.47 85.61   Q 84.59 86.17 82.59 84.58"/>
<path stroke="none" vector-effect="non-scaling-stroke" d="   M 155.19 238.01   L 145.08 238.94"/>
<path stroke="none" vector-effect="non-scaling-stroke" d="   M 169.23 232.46   L 160.50 234.53"/>
<path stroke="none" vector-effect="non-scaling-stroke" d="   M 169.59 234.80   L 160.46 237.06"/>
<path stroke="#1b6623" vector-effect="non-scaling-stroke" d="   M 168.85 230.24   L 160.73 232.26"/>
<path stroke="none" vector-effect="non-scaling-stroke" d="   M 96.04 227.65   L 91.04 224.90"/>
<path stroke="#bfbfbf" vector-effect="non-scaling-stroke" d="   M 89.63 221.56   Q 89.45 223.42 91.04 224.90"/>
<path stroke="#57544a" vector-effect="non-scaling-stroke" d="   M 91.04 224.90   Q 90.78 226.41 91.47 227.81"/>
<path stroke="#bfbfbf" vector-effect="non-scaling-stroke" d="   M 91.47 227.81   L 93.53 235.56   A 0.23 0.23 0.0 0 0 93.97 235.57   L 95.62 230.22"/>
<path stroke="#57544a" vector-effect="non-scaling-stroke" d="   M 95.62 230.22   Q 96.24 228.90 96.04 227.65"/>
<path stroke="#bfbfbf" vector-effect="non-scaling-stroke" d="   M 96.04 227.65   Q 96.99 227.27 96.48 225.57"/>
<path stroke="#57544a" vector-effect="non-scaling-stroke" d="   M 101.60 225.41   Q 101.04 226.26 101.29 227.43"/>
<path stroke="#bfbfbf" vector-effect="non-scaling-stroke" d="   M 101.29 227.43   Q 99.87 228.27 100.23 229.90"/>
<path stroke="#57544a" vector-effect="non-scaling-stroke" d="   M 100.23 229.90   L 99.35 231.76"/>
<path stroke="#bfbfbf" vector-effect="non-scaling-stroke" d="   M 189.54 223.44   L 190.75 225.33"/>
<path stroke="#57544a" vector-effect="non-scaling-stroke" d="   M 190.75 225.33   Q 190.96 226.49 191.47 227.36"/>
<path stroke="#57544a" vector-effect="non-scaling-stroke" d="   M 170.56 236.62   Q 170.09 235.22 169.59 234.80"/>
<path stroke="#bfbfbf" vector-effect="non-scaling-stroke" d="   M 169.59 234.80   Q 169.87 233.12 169.23 232.46"/>
<path stroke="#57544a" vector-effect="non-scaling-stroke" d="   M 169.23 232.46   L 168.85 230.24"/>
<path stroke="none" vector-effect="non-scaling-stroke" d="   M 168.85 230.24   L 169.47 227.24   A 1.46 0.18 -55.9 0 1 169.92 226.36   Q 170.42 225.58 170.30 224.44"/>
<path stroke="none" vector-effect="non-scaling-stroke" d="   M 229.60 175.58   Q 219.15 201.86 196.49 218.84"/>
<path stroke="#57544a" vector-effect="non-scaling-stroke" d="   M 196.49 218.84   Q 195.90 219.02 195.47 219.52"/>
<path stroke="none" vector-effect="non-scaling-stroke" d="   M 195.47 219.52   L 189.54 223.44"/>
<path stroke="#57544a" vector-effect="non-scaling-stroke" d="   M 189.54 223.44   Q 188.94 222.84 188.47 221.62"/>
<path stroke="#57544a" vector-effect="non-scaling-stroke" d="   M 238.55 162.11   Q 236.77 162.98 235.53 165.56"/>
<path stroke="#bfbfbf" vector-effect="non-scaling-stroke" d="   M 235.53 165.56   Q 232.83 167.38 231.47 170.29   A 0.49 0.49 0.0 0 0 231.75 170.95   Q 232.86 171.35 233.99 170.78"/>
<path stroke="#57544a" vector-effect="non-scaling-stroke" d="   M 233.99 170.78   Q 234.84 171.67 236.36 170.68"/>
<path stroke="#57544a" vector-effect="non-scaling-stroke" d="   M 234.90 175.19   Q 233.72 174.52 232.50 175.28"/>
<path stroke="#bfbfbf" vector-effect="non-scaling-stroke" d="   M 232.50 175.28   Q 230.33 174.51 229.60 175.58"/>
<path stroke="#57544a" vector-effect="non-scaling-stroke" d="   M 229.60 175.58   Q 228.00 174.51 227.34 175.43"/>
<path stroke="#57544a" vector-effect="non-scaling-stroke" d="   M 231.32 162.55   L 233.79 159.62"/>
<path stroke="#bfbfbf" vector-effect="non-scaling-stroke" d="   M 233.79 159.62   Q 235.31 158.42 236.30 156.71   A 0.46 0.45 25.3 0 0 236.06 156.06   Q 235.03 155.68 234.36 156.43"/>
<path stroke="#57544a" vector-effect="non-scaling-stroke" d="   M 234.36 156.43   Q 233.82 155.87 232.12 156.30"/>
<path stroke="none" vector-effect="non-scaling-stroke" d="   M 234.36 156.43   L 233.79 159.62"/>
<path stroke="none" vector-effect="non-scaling-stroke" d="   M 95.62 230.22   L 91.47 227.81"/>
<path stroke="none" vector-effect="non-scaling-stroke" d="   M 195.02 222.65   L 190.75 225.33"/>
<path stroke="#57544a" vector-effect="non-scaling-stroke" d="   M 195.49 224.93   L 195.02 222.65"/>
<path stroke="#bfbfbf" vector-effect="non-scaling-stroke" d="   M 195.02 222.65   Q 195.87 221.36 195.47 219.52"/>
<path stroke="none" vector-effect="non-scaling-stroke" d="   M 232.50 175.28   Q 222.58 201.43 200.44 218.72"/>
<path stroke="#bfbfbf" vector-effect="non-scaling-stroke" d="   M 200.44 218.72   Q 198.61 219.26 196.49 218.84"/>
<path stroke="#57544a" vector-effect="non-scaling-stroke" d="   M 204.00 218.77   Q 201.94 219.38 200.44 218.72"/>
<path stroke="none" vector-effect="non-scaling-stroke" d="   M 233.99 170.78   L 235.53 165.56"/>
<path stroke="#bfbfbf" vector-effect="non-scaling-stroke" d="   M 0.43 96.75   C 0.56 102.61 3.80 107.45 9.99 107.91   C 15.35 108.31 20.07 105.76 20.85 100.29   A 0.48 0.48 0.0 0 0 20.37 99.74   L 17.11 99.74   A 0.99 0.98 9.6 0 0 16.18 100.40   Q 14.60 104.91 9.38 103.57   C 6.35 102.78 5.34 99.47 5.28 96.64   C 5.22 93.81 6.09 90.46 9.09 89.55   Q 14.24 87.98 16.01 92.42   A 0.99 0.98 -12.0 0 0 16.97 93.04   L 20.22 92.91   A 0.48 0.48 0.0 0 0 20.68 92.34   C 19.67 86.90 14.85 84.56 9.51 85.18   C 3.34 85.91 0.31 90.88 0.43 96.75"/>
<path stroke="#bfbfbf" vector-effect="non-scaling-stroke" d="   M 31.94 108.01   Q 32.67 108.00 33.81 107.99   A 0.51 0.50 89.6 0 0 34.31 107.49   L 34.29 89.58   A 0.60 0.60 0.0 0 1 34.89 88.98   L 40.76 88.97   A 0.48 0.47 90.0 0 0 41.23 88.49   L 41.22 85.47   A 0.49 0.49 0.0 0 0 40.74 84.98   Q 36.49 84.98 31.85 85.00   Q 27.20 85.01 22.96 85.05   A 0.49 0.49 0.0 0 0 22.48 85.55   L 22.50 88.57   A 0.48 0.47 89.6 0 0 22.97 89.04   L 28.83 89.00   A 0.60 0.60 0.0 0 1 29.44 89.60   L 29.56 107.50   A 0.51 0.50 89.9 0 0 30.06 108.01   Q 31.21 108.01 31.94 108.01"/>
<path stroke="#bfbfbf" vector-effect="non-scaling-stroke" d="   M 252.41 104.04   L 240.92 104.03   A 0.61 0.60 89.9 0 1 240.32 103.43   L 240.33 98.62   A 0.60 0.60 0.0 0 1 240.93 98.01   L 250.89 97.97   A 0.66 0.65 89.9 0 0 251.54 97.31   L 251.52 94.68   A 0.65 0.64 -0.1 0 0 250.86 94.04   L 241.02 94.03   A 0.71 0.71 0.0 0 1 240.32 93.33   L 240.33 89.72   A 0.73 0.72 -89.7 0 1 241.05 88.99   L 251.75 88.93   A 0.69 0.68 -89.2 0 0 252.42 88.26   L 252.49 85.79   A 0.74 0.73 0.7 0 0 251.75 85.04   L 236.16 85.00   A 0.63 0.63 0.0 0 0 235.53 85.63   L 235.52 107.38   A 0.63 0.62 -0.1 0 0 236.15 108.00   L 252.45 108.01   A 0.53 0.53 0.0 0 0 252.98 107.47   L 252.96 104.57   A 0.55 0.55 0.0 0 0 252.41 104.04"/>
<path stroke="#bfbfbf" vector-effect="non-scaling-stroke" d="   M 273.41 91.58   C 272.27 84.61 264.78 84.11 259.26 86.03   C 256.03 87.15 254.15 92.39 256.49 95.05   C 258.94 97.83 264.48 97.95 267.36 98.75   C 270.35 99.59 270.40 102.78 267.30 103.76   Q 262.06 105.42 259.64 101.24   A 1.28 1.26 74.8 0 0 258.54 100.60   L 255.56 100.60   A 0.47 0.47 0.0 0 0 255.10 101.14   C 255.99 107.56 262.65 108.60 267.89 107.63   C 272.16 106.84 275.09 103.52 273.95 99.05   C 272.91 94.95 265.86 94.44 262.11 93.72   A 2.53 2.19 4.7 0 1 260.07 91.64   C 259.93 89.38 262.27 88.92 264.15 88.87   Q 267.87 88.77 268.81 91.61   A 0.87 0.86 -9.4 0 0 269.63 92.19   L 272.89 92.19   A 0.53 0.53 0.0 0 0 273.41 91.58"/>
<path stroke="#bfbfbf" vector-effect="non-scaling-stroke" d="   M 263.37 171.01   L 251.90 171.03   A 0.61 0.60 89.8 0 1 251.30 170.42   L 251.31 165.62   A 0.60 0.60 0.0 0 1 251.90 165.02   L 261.84 164.96   A 0.66 0.65 89.8 0 0 262.49 164.29   L 262.46 161.67   A 0.65 0.64 -0.2 0 0 261.81 161.03   L 251.99 161.05   A 0.71 0.71 0.0 0 1 251.29 160.34   L 251.29 156.74   A 0.73 0.72 -89.8 0 1 252.00 156.02   L 262.68 155.93   A 0.69 0.68 -89.3 0 0 263.36 155.26   L 263.42 152.79   A 0.74 0.73 0.6 0 0 262.68 152.05   L 247.12 152.04   A 0.63 0.63 0.0 0 0 246.49 152.67   L 246.52 174.38   A 0.63 0.62 -0.2 0 0 247.15 174.99   L 263.41 174.97   A 0.53 0.53 0.0 0 0 263.94 174.44   L 263.92 171.54   A 0.55 0.55 0.0 0 0 263.37 171.01"/>
<path stroke="#bfbfbf" vector-effect="non-scaling-stroke" d="   M 222.74 219.45   A 0.42 0.42 0.0 0 0 222.32 219.03   L 218.50 219.03   A 0.42 0.42 0.0 0 0 218.08 219.45   L 218.08 241.53   A 0.42 0.42 0.0 0 0 218.50 241.95   L 222.32 241.95   A 0.42 0.42 0.0 0 0 222.74 241.53   L 222.74 219.45"/>
<path stroke="#bfbfbf" vector-effect="non-scaling-stroke" d="   M 236.41 231.91   Q 237.67 230.33 242.68 224.00   Q 243.85 222.52 243.50 219.59   A 0.64 0.63 86.4 0 0 242.87 219.04   L 226.64 219.04   A 0.69 0.69 0.0 0 0 225.95 219.73   L 225.96 222.31   A 0.69 0.69 0.0 0 0 226.64 223.00   L 237.31 222.99   A 0.27 0.27 0.0 0 1 237.52 223.42   Q 236.68 224.56 233.06 229.10   Q 231.79 230.67 226.79 237.01   Q 225.62 238.49 225.97 241.41   A 0.64 0.63 86.4 0 0 226.60 241.97   L 242.82 241.97   A 0.69 0.69 0.0 0 0 243.51 241.28   L 243.51 238.70   A 0.69 0.69 0.0 0 0 242.82 238.01   L 232.16 238.02   A 0.27 0.27 0.0 0 1 231.94 237.59   Q 232.78 236.44 236.41 231.91"/>
<path stroke="#bfbfbf" vector-effect="non-scaling-stroke" d="   M 264.37 238.02   L 252.90 237.99   A 0.61 0.60 -90.0 0 1 252.30 237.38   L 252.33 232.58   A 0.60 0.60 0.0 0 1 252.92 231.98   L 262.86 231.96   A 0.66 0.65 -90.0 0 0 263.51 231.30   L 263.49 228.68   A 0.65 0.64 0.0 0 0 262.85 228.04   L 253.03 228.01   A 0.71 0.71 0.0 0 1 252.33 227.30   L 252.34 223.70   A 0.73 0.72 -89.6 0 1 253.06 222.98   L 263.74 222.94   A 0.69 0.68 -89.1 0 0 264.42 222.27   L 264.49 219.81   A 0.74 0.73 0.8 0 0 263.75 219.06   L 248.19 218.99   A 0.63 0.63 0.0 0 0 247.56 219.62   L 247.50 241.32   A 0.63 0.62 0.0 0 0 248.13 241.94   L 264.39 241.98   A 0.53 0.53 0.0 0 0 264.92 241.45   L 264.92 238.56   A 0.55 0.55 0.0 0 0 264.37 238.02"/>
<path stroke="#bfbfbf" vector-effect="non-scaling-stroke" d="   M 169.5360 22.0500   A 7.46 6.43 -89.8 0 0 163.0800 29.4876   A 7.46 6.43 -89.8 0 0 169.4840 36.9700   A 7.46 6.43 -89.8 0 0 175.9400 29.5324   A 7.46 6.43 -89.8 0 0 169.5360 22.0500"/>
<path stroke="#bfbfbf" vector-effect="non-scaling-stroke" d="   M 189.36 22.41   L 189.36 27.59   A 0.40 0.40 0.0 0 0 189.76 27.99   L 195.85 27.99   A 2.63 2.55 -0.0 0 0 198.48 25.44   L 198.48 24.56   A 2.63 2.55 0.0 0 0 195.85 22.01   L 189.76 22.01   A 0.40 0.40 0.0 0 0 189.36 22.41"/>
<path stroke="#bfbfbf" vector-effect="non-scaling-stroke" d="   M 262.25 22.52   L 262.23 27.40   A 0.65 0.65 0.0 0 0 262.87 28.05   L 268.36 28.08   A 3.08 2.45 0.3 0 0 271.46 25.64   L 271.46 24.36   A 3.08 2.45 0.3 0 0 268.40 21.90   L 262.91 21.87   A 0.65 0.65 0.0 0 0 262.25 22.52"/>
<path stroke="none" vector-effect="non-scaling-stroke" d="   M 159.78 68.41   A 13.07 13.07 0.0 0 0 146.71 55.34   A 13.07 13.07 0.0 0 0 133.64 68.41   A 13.07 13.07 0.0 0 0 146.71 81.48   A 13.07 13.07 0.0 0 0 159.78 68.41"/>
<path stroke="#bfbfbf" vector-effect="non-scaling-stroke" d="   M 138.40 108.01   A 0.56 0.56 0.0 0 0 138.96 107.45   L 138.96 104.60   A 0.56 0.56 0.0 0 0 138.40 104.04   L 126.88 104.04   A 0.56 0.56 0.0 0 1 126.32 103.48   L 126.32 98.55   A 0.56 0.56 0.0 0 1 126.88 97.99   L 136.96 97.99   A 0.56 0.56 0.0 0 0 137.52 97.43   L 137.52 94.60   A 0.56 0.56 0.0 0 0 136.96 94.04   L 126.91 94.04   A 0.56 0.56 0.0 0 1 126.35 93.48   L 126.35 89.53   A 0.56 0.56 0.0 0 1 126.91 88.97   L 137.91 88.97   A 0.56 0.56 0.0 0 0 138.47 88.41   L 138.47 85.58   A 0.56 0.56 0.0 0 0 137.91 85.02   L 122.09 85.02   A 0.56 0.56 0.0 0 0 121.53 85.58   L 121.53 107.45   A 0.56 0.56 0.0 0 0 122.09 108.01   L 138.40 108.01"/>
<path stroke="#bfbfbf" vector-effect="non-scaling-stroke" d="   M 122.41 171.04   L 110.92 171.03   A 0.61 0.60 89.9 0 1 110.31 170.42   L 110.33 165.61   A 0.60 0.60 0.0 0 1 110.93 165.01   L 120.89 164.97   A 0.66 0.65 89.9 0 0 121.54 164.31   L 121.52 161.68   A 0.65 0.64 -0.1 0 0 120.87 161.04   L 111.02 161.03   A 0.71 0.71 0.0 0 1 110.32 160.32   L 110.33 156.71   A 0.73 0.72 -89.7 0 1 111.05 155.99   L 121.75 155.92   A 0.69 0.68 -89.2 0 0 122.43 155.25   L 122.50 152.78   A 0.74 0.73 0.7 0 0 121.76 152.03   L 106.16 151.99   A 0.63 0.63 0.0 0 0 105.53 152.62   L 105.51 174.38   A 0.63 0.62 -0.1 0 0 106.14 175.00   L 122.44 175.01   A 0.53 0.53 0.0 0 0 122.97 174.48   L 122.96 171.58   A 0.55 0.55 0.0 0 0 122.41 171.04"/>
<path stroke="#bfbfbf" vector-effect="non-scaling-stroke" d="   M 125.43 163.74   C 125.56 169.60 128.80 174.45 134.99 174.91   C 140.35 175.31 145.07 172.77 145.85 167.30   A 0.48 0.48 0.0 0 0 145.37 166.75   L 142.11 166.75   A 0.99 0.98 9.6 0 0 141.18 167.41   Q 139.60 171.91 134.38 170.57   C 131.35 169.78 130.34 166.47 130.28 163.64   C 130.22 160.81 131.09 157.46 134.09 156.55   Q 139.25 154.99 141.01 159.43   A 0.99 0.98 -12.0 0 0 141.97 160.05   L 145.23 159.91   A 0.48 0.48 0.0 0 0 145.68 159.34   C 144.68 153.91 139.86 151.56 134.52 152.18   C 128.35 152.90 125.31 157.88 125.43 163.74"/>
<path stroke="#bfbfbf" vector-effect="non-scaling-stroke" d="   M 156.94 175.00   Q 157.67 175.00 158.81 174.99   A 0.51 0.50 89.6 0 0 159.31 174.48   L 159.29 156.58   A 0.60 0.60 0.0 0 1 159.89 155.98   L 165.75 155.97   A 0.48 0.47 90.0 0 0 166.22 155.49   L 166.22 152.47   A 0.49 0.49 0.0 0 0 165.74 151.98   Q 161.49 151.97 156.85 152.00   Q 152.20 152.01 147.96 152.05   A 0.49 0.49 0.0 0 0 147.48 152.55   L 147.50 155.57   A 0.48 0.47 89.6 0 0 147.97 156.04   L 153.83 156.00   A 0.60 0.60 0.0 0 1 154.44 156.60   L 154.56 174.50   A 0.51 0.50 89.9 0 0 155.06 175.00   Q 156.21 175.01 156.94 175.00"/>
<path stroke="#bfbfbf" vector-effect="non-scaling-stroke" d="   M 179.5606 151.9402   A 11.57 11.25 -89.7 0 0 168.2502 163.4511   A 11.57 11.25 -89.7 0 0 179.4394 175.0798   A 11.57 11.25 -89.7 0 0 190.7498 163.5689   A 11.57 11.25 -89.7 0 0 179.5606 151.9402"/>
<path stroke="none" vector-effect="non-scaling-stroke" d="   M 221.96 152.83   A 0.87 0.87 0.0 0 0 221.09 151.96   L 217.85 151.96   A 0.87 0.87 0.0 0 0 216.98 152.83   L 216.98 174.15   A 0.87 0.87 0.0 0 0 217.85 175.02   L 221.09 175.02   A 0.87 0.87 0.0 0 0 221.96 174.15   L 221.96 152.83"/>
<path stroke="none" vector-effect="non-scaling-stroke" d="   M 147.81 56.78   Q 139.88 56.51 136.02 63.75   A 0.20 0.19 30.7 0 0 136.09 64.01   L 141.10 66.90   A 0.35 0.34 23.9 0 0 141.60 66.71   Q 143.32 61.39 147.94 57.13   A 0.20 0.20 0.0 0 0 147.81 56.78"/>
<path stroke="none" vector-effect="non-scaling-stroke" d="   M 146.45 69.24   L 153.70 60.12   A 0.76 0.75 34.4 0 0 153.49 59.00   L 151.19 57.68   A 1.50 1.50 0.0 0 0 149.47 57.83   Q 145.31 61.29 142.89 67.10   A 0.67 0.66 27.5 0 0 143.15 67.91   Q 145.21 69.19 146.11 69.36   A 0.36 0.34 24.4 0 0 146.45 69.24"/>
<path stroke="none" vector-effect="non-scaling-stroke" d="   M 158.31 69.72   Q 158.84 65.39 155.80 61.21   A 0.62 0.62 0.0 0 0 154.82 61.19   L 153.36 63.02   A 0.65 0.65 0.0 0 0 153.45 63.92   Q 155.89 65.96 157.76 69.82   A 0.29 0.29 0.0 0 0 158.31 69.72"/>
<path stroke="none" vector-effect="non-scaling-stroke" d="   M 156.84 74.27   A 2.15 2.12 54.5 0 0 157.17 72.21   Q 155.61 67.93 152.33 64.85   A 0.40 0.40 0.0 0 0 151.75 64.89   L 149.77 67.38   A 0.52 0.52 0.0 0 0 149.87 68.12   Q 153.82 71.05 155.01 75.36   A 0.48 0.47 56.5 0 0 155.84 75.53   L 156.84 74.27"/>
<path stroke="none" vector-effect="non-scaling-stroke" d="   M 134.85 68.93   A 2.59 2.59 0.0 0 0 136.03 71.53   Q 140.65 74.44 146.65 73.01   A 0.71 0.71 0.0 0 0 146.84 71.71   L 136.45 65.71   A 0.80 0.79 19.4 0 0 135.27 66.27   L 134.85 68.93"/>
<path stroke="none" vector-effect="non-scaling-stroke" d="   M 153.54 77.82   A 1.18 1.18 0.0 0 0 154.08 76.45   Q 152.89 72.64 149.28 69.52   A 0.75 0.75 0.0 0 0 148.09 70.36   Q 149.86 75.01 149.74 78.91   A 0.63 0.62 -14.1 0 0 150.68 79.47   L 153.54 77.82"/>
<path stroke="none" vector-effect="non-scaling-stroke" d="   M 136.49 74.09   Q 140.38 80.20 147.76 80.14   A 0.54 0.54 0.0 0 0 148.30 79.60   L 148.30 74.96   A 0.73 0.72 82.1 0 0 147.38 74.26   Q 141.61 75.83 136.88 73.65   A 0.31 0.31 0.0 0 0 136.49 74.09"/>
<path stroke="#57544a" vector-effect="non-scaling-stroke" d="   M 73.80 89.76   Q 74.78 91.18 74.60 91.79"/>
<path stroke="#bab340" vector-effect="non-scaling-stroke" d="   M 74.60 91.79   Q 74.16 92.84 74.38 94.33   A 0.68 0.67 0.1 0 0 74.96 94.90   Q 78.93 95.40 82.86 94.37"/>
<path stroke="#57544a" vector-effect="non-scaling-stroke" d="   M 82.86 94.37   Q 83.28 93.09 83.10 92.31"/>
<path stroke="#bfbfbf" vector-effect="non-scaling-stroke" d="   M 83.10 92.31   Q 84.35 90.15 81.94 89.21   Q 78.78 87.98 73.80 89.76"/>
<path stroke="none" vector-effect="non-scaling-stroke" d="   M 83.10 92.31   L 73.80 89.76"/>
<path stroke="#91880a" vector-effect="non-scaling-stroke" d="   M 82.86 94.37   Q 79.03 92.35 74.60 91.79"/>
<path stroke="#57544a" vector-effect="non-scaling-stroke" d="   M 148.14 89.59   Q 148.02 89.40 147.85 89.37   A 0.19 0.19 0.0 0 0 147.63 89.58   L 148.03 92.45"/>
<path stroke="none" vector-effect="non-scaling-stroke" d="   M 148.03 92.45   Q 147.68 93.30 147.68 93.98   A 0.74 0.73 -81.8 0 0 148.19 94.67   Q 149.54 95.11 150.94 94.65"/>
<path stroke="#57544a" vector-effect="non-scaling-stroke" d="   M 150.94 94.65   Q 153.80 95.39 154.34 94.41"/>
<path stroke="#bfbfbf" vector-effect="non-scaling-stroke" d="   M 154.34 94.41   Q 154.81 94.54 155.19 94.52   A 0.93 0.93 0.0 0 0 155.94 94.03   Q 157.23 91.54 155.68 89.65   A 1.70 1.69 70.2 0 0 154.37 89.03   L 148.41 89.03   A 0.19 0.15 -52.0 0 0 148.33 89.05   Q 148.04 89.17 148.14 89.59"/>
<path stroke="none" vector-effect="non-scaling-stroke" d="   M 154.34 94.41   L 148.14 89.59"/>
<path stroke="#1b6623" vector-effect="non-scaling-stroke" d="   M 150.94 94.65   Q 149.72 92.91 148.03 92.45"/>
<path stroke="#57544a" vector-effect="non-scaling-stroke" d="   M 50.45 101.03   Q 50.11 102.64 51.97 102.98"/>
<path stroke="#bfbfbf" vector-effect="non-scaling-stroke" d="   M 51.97 102.98   Q 52.28 104.04 54.16 103.74"/>
<path stroke="#57544a" vector-effect="non-scaling-stroke" d="   M 54.16 103.74   Q 54.57 104.02 55.94 103.68"/>
<path stroke="#bab340" vector-effect="non-scaling-stroke" d="   M 55.94 103.68   L 56.39 103.62   A 1.90 1.81 24.1 0 0 57.16 103.35   Q 61.77 100.50 60.54 95.05"/>
<path stroke="#57544a" vector-effect="non-scaling-stroke" d="   M 60.54 95.05   Q 60.41 93.84 59.68 93.17"/>
<path stroke="#bfbfbf" vector-effect="non-scaling-stroke" d="   M 59.68 93.17   Q 60.37 91.88 58.37 90.73"/>
<path stroke="#57544a" vector-effect="non-scaling-stroke" d="   M 58.37 90.73   Q 57.94 89.88 56.33 89.99"/>
<path stroke="#bfbfbf" vector-effect="non-scaling-stroke" d="   M 56.33 89.99   Q 56.64 89.83 56.27 89.47   A 0.41 0.38 -16.8 0 0 56.05 89.36   C 48.61 87.97 46.55 96.10 49.49 101.30   A 0.49 0.47 42.0 0 0 50.36 101.28   L 50.45 101.03"/>
<path stroke="none" vector-effect="non-scaling-stroke" d="   M 56.33 89.99   L 50.45 101.03"/>
<path stroke="none" vector-effect="non-scaling-stroke" d="   M 58.37 90.73   L 51.97 102.98"/>
<path stroke="none" vector-effect="non-scaling-stroke" d="   M 59.68 93.17   Q 55.97 98.01 54.16 103.74"/>
<path stroke="#91880a" vector-effect="non-scaling-stroke" d="   M 60.54 95.05   L 55.94 103.68"/>
<path stroke="#57544a" vector-effect="non-scaling-stroke" d="   M 182.31 96.38   L 181.58 98.02   A 0.98 0.97 -46.1 0 0 181.59 98.85   Q 182.43 100.64 184.75 99.68"/>
<path stroke="none" vector-effect="non-scaling-stroke" d="   M 184.75 99.68   Q 185.35 100.13 185.73 99.97   Q 186.38 99.68 186.16 98.96   Q 184.99 95.30 183.89 92.56   A 0.36 0.36 0.0 0 0 183.20 92.61   L 182.31 96.38"/>
<path stroke="#1b6623" vector-effect="non-scaling-stroke" d="   M 184.75 99.68   Q 183.04 98.51 182.31 96.38"/>
<path stroke="#ab987a" vector-effect="non-scaling-stroke" d="   M 283.00 89.88   Q 282.67 90.66 282.31 89.08"/>
<path stroke="#ebd8ba" vector-effect="non-scaling-stroke" d="   M 283.00 91.16   L 283.00 106.96"/>
<path stroke="none" vector-effect="non-scaling-stroke" d="   M 146.63 140.91   Q 146.64 137.13 148.39 133.50   A 0.61 0.61 0.0 0 0 148.03 132.66   Q 146.70 132.21 145.37 132.49   A 0.77 0.76 -10.1 0 0 144.77 133.34   Q 145.31 137.28 144.53 140.25   A 0.71 0.71 0.0 0 0 145.01 141.11   L 145.97 141.40   A 0.51 0.51 0.0 0 0 146.63 140.91"/>
<path stroke="none" vector-effect="non-scaling-stroke" d="   M 143.44 139.38   L 143.58 134.26   A 0.15 0.15 0.0 0 0 143.43 134.11   L 143.35 134.11   A 2.54 1.35 -88.5 0 0 141.93 136.61   L 141.93 136.95   A 2.54 1.35 -88.5 0 0 143.21 139.52   L 143.29 139.53   A 0.15 0.15 0.0 0 0 143.44 139.38"/>
<path stroke="none" vector-effect="non-scaling-stroke" d="   M 149.43 134.36   L 147.89 140.59   A 0.13 0.13 0.0 0 0 147.99 140.75   L 148.04 140.76   A 3.22 2.01 -76.1 0 0 150.77 138.12   L 150.83 137.89   A 3.22 2.01 -76.1 0 0 149.65 134.28   L 149.59 134.26   A 0.13 0.13 0.0 0 0 149.43 134.36"/>
<path stroke="#57544a" vector-effect="non-scaling-stroke" d="   M 144.42 142.16   Q 144.32 142.13 144.06 142.18   A 0.26 0.26 0.0 0 0 143.92 142.62   Q 144.04 142.74 144.26 142.78   A 0.32 0.32 0.0 0 0 144.42 142.16"/>
<path stroke="#826d45" vector-effect="non-scaling-stroke" d="   M 49.07 155.56   A 0.25 0.24 76.9 0 0 48.90 155.84   Q 52.66 176.83 64.83 194.49   A 0.45 0.45 0.0 0 0 65.63 194.38   L 68.49 186.12   A 0.71 0.71 0.0 0 0 68.25 185.32   Q 60.90 179.70 57.12 170.60   A 7.95 7.54 18.5 0 0 56.37 169.19   Q 51.92 162.42 49.45 155.55   A 0.11 0.10 -17.5 0 0 49.32 155.49   L 49.07 155.56"/>
<path stroke="none" vector-effect="non-scaling-stroke" d="   M 68.12 164.71   Q 73.61 178.22 82.38 188.52   A 1.82 1.78 77.3 0 0 83.24 189.08   Q 85.25 189.65 87.22 188.57   A 0.44 0.43 51.8 0 0 87.30 187.87   Q 78.67 180.07 71.92 169.84   Q 69.08 165.54 68.38 164.57   A 0.15 0.15 0.0 0 0 68.12 164.71"/>
<path stroke="#494d1d" vector-effect="non-scaling-stroke" d="   M 83.68 214.24   L 83.68 192.13   A 0.76 0.76 0.0 0 0 83.10 191.39   C 78.75 190.39 74.08 189.36 70.56 187.11   A 0.55 0.55 0.0 0 0 69.74 187.39   L 66.69 196.22   A 0.43 0.43 0.0 0 0 66.75 196.61   Q 73.95 206.57 83.30 214.42   A 0.23 0.23 0.0 0 0 83.68 214.24"/>
<path stroke="#91880a" vector-effect="non-scaling-stroke" d="   M 144.48 214.48   C 142.66 213.51 140.60 213.19 138.09 212.24   Q 130.07 209.19 122.43 204.60   A 0.23 0.23 0.0 0 0 122.08 204.77   L 121.15 210.58   A 0.62 0.62 0.0 0 0 121.66 211.29   L 144.33 214.90   A 0.23 0.22 -25.9 0 0 144.48 214.48"/>
<path stroke="#57544a" vector-effect="non-scaling-stroke" d="   M 206.32 161.69   Q 209.03 161.03 207.92 157.16   A 0.48 0.47 -1.9 0 0 207.56 156.83   Q 207.44 156.81 207.29 156.78"/>
<path stroke="#bfbfbf" vector-effect="non-scaling-stroke" d="   M 207.29 156.78   Q 207.26 156.58 207.10 156.33   A 0.68 0.68 0.0 0 0 206.53 156.02   L 199.68 156.02   A 0.33 0.33 0.0 0 0 199.35 156.35   L 199.35 161.62   A 0.31 0.30 -0.9 0 0 199.67 161.92   L 206.32 161.69"/>
<path stroke="none" vector-effect="non-scaling-stroke" d="   M 207.29 156.78   L 206.32 161.69"/>
<path stroke="#bfbfbf" vector-effect="non-scaling-stroke" d="   M 179.5230 156.0500   A 7.46 6.43 -89.9 0 0 173.0800 163.4988   A 7.46 6.43 -89.9 0 0 179.4970 170.9700   A 7.46 6.43 -89.9 0 0 185.9400 163.5212   A 7.46 6.43 -89.9 0 0 179.5230 156.0500"/>
<path stroke="#bfbfbf" vector-effect="non-scaling-stroke" d="   M 272.38 156.65   L 272.36 161.29   A 0.71 0.71 0.0 0 0 273.06 162.00   L 278.65 162.03   A 2.72 2.28 0.3 0 0 281.39 159.76   L 281.39 158.26   A 2.72 2.28 0.3 0 0 278.69 155.97   L 273.10 155.94   A 0.71 0.71 0.0 0 0 272.38 156.65"/>
<path stroke="#826d45" vector-effect="non-scaling-stroke" d="   M 107.31 192.69   L 96.58 195.25   A 0.22 0.22 0.0 0 0 96.41 195.51   L 96.44 195.61   A 2.73 1.88 -13.4 0 0 99.53 196.81   L 105.38 195.41   A 2.73 1.88 -13.4 0 0 107.60 192.95   L 107.58 192.85   A 0.22 0.22 0.0 0 0 107.31 192.69"/>
<path stroke="#826d45" vector-effect="non-scaling-stroke" d="   M 105.44 204.56   Q 101.52 205.47 97.55 205.40   A 0.98 0.98 0.0 0 0 97.12 207.28   C 98.99 208.14 104.40 206.96 105.92 206.60   C 107.44 206.25 112.81 204.91 114.11 203.31   A 0.98 0.98 0.0 0 0 112.89 201.82   Q 109.36 203.64 105.44 204.56"/>
<path stroke="#826d45" vector-effect="non-scaling-stroke" d="   M 110.2671 214.1075   A 0.89 0.89 0.0 0 0 109.3647 213.2300   L 96.4660 213.4102   A 0.89 0.89 0.0 0 0 95.5885 214.3125   L 95.5929 214.6325   A 0.89 0.89 0.0 0 0 96.4953 215.5100   L 109.3940 215.3298   A 0.89 0.89 0.0 0 0 110.2715 214.4275   L 110.2671 214.1075"/>
<path stroke="#57544a" vector-effect="non-scaling-stroke" d="   M 174.90 228.10   Q 174.23 229.54 174.58 230.65"/>
<path stroke="#bfbfbf" vector-effect="non-scaling-stroke" d="   M 174.58 230.65   Q 173.72 232.60 174.79 232.89"/>
<path stroke="#57544a" vector-effect="non-scaling-stroke" d="   M 174.79 232.89   Q 174.72 233.99 175.35 235.06"/>
<path stroke="#bfbfbf" vector-effect="non-scaling-stroke" d="   M 175.35 235.06   Q 178.59 239.58 183.28 237.27   Q 187.37 235.25 186.70 230.03"/>
<path stroke="#57544a" vector-effect="non-scaling-stroke" d="   M 186.70 230.03   Q 186.78 228.90 186.11 227.91"/>
<path stroke="#bfbfbf" vector-effect="non-scaling-stroke" d="   M 186.11 227.91   Q 186.60 226.92 185.37 225.83"/>
<path stroke="#57544a" vector-effect="non-scaling-stroke" d="   M 185.37 225.83   Q 184.71 224.92 183.37 224.30"/>
<path stroke="none" vector-effect="non-scaling-stroke" d="   M 183.37 224.30   Q 176.91 221.23 174.90 228.10"/>
<path stroke="#1b6623" vector-effect="non-scaling-stroke" d="   M 183.37 224.30   L 174.90 228.10"/>
<path stroke="none" vector-effect="non-scaling-stroke" d="   M 185.37 225.83   L 174.58 230.65"/>
<path stroke="none" vector-effect="non-scaling-stroke" d="   M 186.11 227.91   L 174.79 232.89"/>
<path stroke="none" vector-effect="non-scaling-stroke" d="   M 186.70 230.03   L 175.35 235.06"/>
<path stroke="#bfbfbf" vector-effect="non-scaling-stroke" d="   M 200.35 223.42   L 200.35 228.60   A 0.40 0.40 0.0 0 0 200.76 229.00   L 206.84 228.99   A 2.64 2.48 -0.1 0 0 209.47 226.50   L 209.47 225.48   A 2.64 2.48 -0.1 0 0 206.82 223.01   L 200.74 223.02   A 0.40 0.40 0.0 0 0 200.35 223.42"/>
<path stroke="#bfbfbf" vector-effect="non-scaling-stroke" d="   M 283.00 223.99   Q 282.62 225.85 283.00 227.71"/>
<path stroke="#bfbfbf" vector-effect="non-scaling-stroke" d="   M 273.37 223.66   L 273.37 228.34   A 0.71 0.71 0.0 0 0 274.08 229.05   L 279.68 229.05   A 2.57 2.50 -0.0 0 0 282.25 226.55   L 282.25 225.45   A 2.57 2.50 0.0 0 0 279.68 222.95   L 274.08 222.95   A 0.71 0.71 0.0 0 0 273.37 223.66"/>
</g>


















<path fill="#08a332" d="   M 213.55 84.47   Q 212.79 85.93 213.22 88.28   A 0.82 0.81 87.2 0 0 213.95 88.95   L 216.92 89.18   L 220.12 93.71   L 220.25 107.24   A 0.65 0.63 6.2 0 0 220.76 107.86   Q 223.65 108.48 226.37 107.28   Q 235.49 128.51 232.94 151.76   L 225.93 152.04   A 1.23 1.23 0.0 0 0 224.74 153.27   L 224.74 154.63   A 1.32 1.32 0.0 0 0 225.99 155.95   L 232.12 156.30   L 231.32 162.55   Q 228.44 166.35 225.27 170.26   Q 224.23 171.53 225.02 174.32   A 0.92 0.92 0.0 0 0 225.65 174.95   L 227.34 175.43   Q 215.26 204.73 188.47 221.62   Q 185.28 219.16 180.38 218.63   Q 196.25 208.33 207.02 193.80   Q 211.39 187.90 214.33 181.32   Q 215.08 179.63 215.11 178.07   A 0.81 0.80 -22.1 0 0 213.73 177.49   C 197.92 193.63 178.32 207.13 154.60 204.71   A 0.02 0.02 0.0 0 1 154.58 204.69   L 154.58 204.40   A 0.18 0.18 0.0 0 1 154.75 204.22   C 170.29 203.33 180.87 196.58 192.28 186.03   Q 201.48 177.53 206.93 166.80   L 208.06 174.35   A 0.77 0.77 0.0 0 0 208.82 175.00   L 213.16 175.00   A 0.49 0.49 0.0 0 0 213.60 174.28   C 212.14 171.54 213.94 166.51 210.74 164.35   A 0.46 0.45 -45.3 0 1 210.74 163.60   C 215.06 160.59 213.81 154.26 209.47 151.88   C 206.92 137.50 196.94 126.29 185.13 118.46   C 180.60 115.45 173.53 112.12 167.85 108.56   Q 170.27 107.93 170.37 107.21   C 182.39 113.55 195.07 117.54 208.80 116.82   A 1.41 1.41 0.0 0 0 210.13 115.56   C 211.49 102.25 205.94 88.79 197.14 78.61   C 186.34 66.11 172.00 57.09 156.63 50.50   A 0.23 0.22 -69.0 0 1 156.51 50.22   L 156.51 50.21   A 0.26 0.25 14.9 0 1 156.81 50.04   Q 162.44 51.36 167.98 53.07   Q 195.86 61.62 213.55 84.47   Z   M 221.96 152.83   A 0.87 0.87 0.0 0 0 221.09 151.96   L 217.85 151.96   A 0.87 0.87 0.0 0 0 216.98 152.83   L 216.98 174.15   A 0.87 0.87 0.0 0 0 217.85 175.02   L 221.09 175.02   A 0.87 0.87 0.0 0 0 221.96 174.15   L 221.96 152.83   Z"/>







<path fill="#f4e600" d="   M 86.47 85.61   Q 84.59 86.17 82.59 84.58   C 83.86 81.26 86.34 78.55 87.85 75.53   Q 90.41 70.40 91.74 69.37   C 96.89 65.40 103.93 68.81 105.81 74.49   A 3.31 3.31 0.0 0 1 105.96 75.76   C 105.39 82.81 98.83 84.48 92.81 84.35   Q 91.21 84.31 86.47 85.61   Z"/>



















<path fill="#08a332" d="   M 196.78 90.25   L 196.86 104.49   L 193.47 104.20   L 188.00 88.40   Q 192.77 87.24 196.78 90.25   Z"/>






<path fill="#d6b075" d="   M 220.29 90.81   L 219.77 89.44   Q 219.79 89.03 220.25 89.17   A 0.58 0.56 -5.0 0 1 220.59 89.45   Q 221.04 90.32 220.29 90.81   Z"/>
<path fill="#d6b075" d="   M 283.00 89.88   L 283.00 91.16   L 283.00 106.96   L 283.00 107.39   Q 282.90 107.52 282.81 107.61   A 0.27 0.26 -22.6 0 1 282.36 107.43   L 282.31 89.08   Q 282.67 90.66 283.00 89.88   Z"/>





<path fill="#f4e600" d="   M 69.02 91.17   Q 69.50 91.19 69.51 92.26   Q 69.56 100.08 69.53 107.46   A 0.53 0.53 0.0 0 0 70.06 107.99   L 73.88 107.99   A 0.47 0.46 0.0 0 0 74.35 107.53   L 74.35 100.13   A 1.12 1.11 90.0 0 1 75.46 99.01   L 80.61 99.01   A 2.21 2.21 0.0 0 1 82.82 101.22   L 82.82 106.47   A 1.40 1.39 -83.5 0 0 83.90 107.83   Q 85.83 108.27 88.26 107.97   A 0.40 0.40 0.0 0 0 88.54 107.35   C 86.54 104.39 88.97 99.72 85.37 97.48   A 0.64 0.63 -61.2 0 1 85.14 96.67   Q 85.47 95.96 86.49 95.77   L 91.64 100.42   L 92.14 107.20   A 0.69 0.68 6.0 0 0 92.65 107.82   Q 94.68 108.38 96.83 107.47   L 97.22 107.71   A 1.89 1.75 -2.2 0 1 97.64 108.07   C 109.66 122.62 123.66 135.94 141.04 143.35   A 0.29 0.29 0.0 0 1 140.95 143.91   Q 139.13 144.05 135.79 142.83   C 125.07 138.90 115.27 133.16 105.70 127.32   C 96.68 121.82 90.79 116.02 83.67 108.36   Q 82.79 107.41 80.68 108.18   A 1.23 1.23 0.0 0 0 79.98 108.81   C 76.56 115.81 75.94 125.52 75.78 132.51   Q 75.59 140.50 77.88 148.13   Q 82.05 162.01 89.75 173.11   Q 90.22 174.50 91.16 175.19   L 99.90 185.03   A 0.13 0.12 -26.9 0 1 99.83 185.23   L 90.35 187.47   A 0.81 0.79 57.9 0 1 89.68 187.31   Q 85.31 183.78 82.03 179.95   Q 72.18 168.44 63.98 153.30   Q 63.62 152.64 62.92 152.41   A 0.54 0.54 0.0 0 0 62.23 153.07   Q 67.65 172.68 79.84 188.57   A 0.22 0.21 78.3 0 1 79.62 188.91   C 55.14 182.79 52.90 154.78 54.00 134.10   Q 54.62 122.36 57.29 109.77   A 0.67 0.66 13.2 0 0 56.80 108.99   L 56.70 108.96   A 0.65 0.65 0.0 0 0 55.88 109.47   L 53.70 121.19   A 1.92 1.72 -30.5 0 1 53.57 121.60   Q 52.07 124.92 51.17 130.98   Q 49.81 140.22 49.90 146.61   A 0.15 0.14 82.1 0 1 49.80 146.75   L 49.53 146.83   A 0.14 0.12 -10.6 0 1 49.37 146.73   L 47.94 138.99   A 2.19 2.03 42.7 0 1 47.90 138.49   Q 48.48 122.80 54.57 108.28   Q 56.06 107.75 57.55 107.36   C 64.32 105.60 66.98 99.03 65.26 92.48   Q 65.14 92.03 65.43 91.86   L 69.02 91.17   Z"/>

<path fill="#f4e600" d="   M 74.60 91.79   Q 79.03 92.35 82.86 94.37   Q 78.93 95.40 74.96 94.90   A 0.68 0.67 0.1 0 1 74.38 94.33   Q 74.16 92.84 74.60 91.79   Z"/>
<path fill="#08a332" d="   M 184.75 99.68   Q 183.04 98.51 182.31 96.38   L 183.20 92.61   A 0.36 0.36 0.0 0 1 183.89 92.56   Q 184.99 95.30 186.16 98.96   Q 186.38 99.68 185.73 99.97   Q 185.35 100.13 184.75 99.68   Z"/>
<path fill="#08a332" d="   M 150.94 94.65   Q 149.54 95.11 148.19 94.67   A 0.74 0.73 -81.8 0 1 147.68 93.98   Q 147.68 93.30 148.03 92.45   Q 149.72 92.91 150.94 94.65   Z"/>



<path fill="#f4e600" d="   M 55.94 103.68   L 60.54 95.05   Q 61.77 100.50 57.16 103.35   A 1.90 1.81 24.1 0 1 56.39 103.62   L 55.94 103.68   Z"/>





<path fill="#08a332" d="   M 164.75 104.41   Q 165.18 105.47 164.55 106.46   Q 162.46 105.66 161.09 104.05   Q 160.76 103.04 161.32 102.07   Q 163.41 102.82 164.75 104.41   Z"/>





















<path fill="#d6b075" d="   M 49.07 155.56   L 49.32 155.49   A 0.11 0.10 -17.5 0 1 49.45 155.55   Q 51.92 162.42 56.37 169.19   A 7.95 7.54 18.5 0 1 57.12 170.60   Q 60.90 179.70 68.25 185.32   A 0.71 0.71 0.0 0 1 68.49 186.12   L 65.63 194.38   A 0.45 0.45 0.0 0 1 64.83 194.49   Q 52.66 176.83 48.90 155.84   A 0.25 0.24 76.9 0 1 49.07 155.56   Z"/>













<path fill="#d6b075" d="   M 114.57 218.87   L 107.23 219.02   A 0.51 0.51 0.0 0 0 106.73 219.50   L 106.39 225.23   Q 103.90 225.76 101.60 225.41   L 103.37 219.89   A 0.68 0.67 -81.1 0 0 102.73 219.01   L 99.80 219.01   A 1.19 1.17 9.3 0 0 98.68 219.80   L 97.39 223.61   L 86.30 216.72   A 1.62 1.60 -74.3 0 1 85.54 215.35   L 85.54 192.34   A 0.89 0.89 0.0 0 1 86.02 191.55   C 92.70 188.11 103.07 184.96 110.07 188.56   Q 114.76 190.97 116.78 194.51   Q 123.80 206.83 114.57 218.87   Z   M 107.31 192.69   L 96.58 195.25   A 0.22 0.22 0.0 0 0 96.41 195.51   L 96.44 195.61   A 2.73 1.88 -13.4 0 0 99.53 196.81   L 105.38 195.41   A 2.73 1.88 -13.4 0 0 107.60 192.95   L 107.58 192.85   A 0.22 0.22 0.0 0 0 107.31 192.69   Z   M 105.44 204.56   Q 101.52 205.47 97.55 205.40   A 0.98 0.98 0.0 0 0 97.12 207.28   C 98.99 208.14 104.40 206.96 105.92 206.60   C 107.44 206.25 112.81 204.91 114.11 203.31   A 0.98 0.98 0.0 0 0 112.89 201.82   Q 109.36 203.64 105.44 204.56   Z   M 110.2671 214.1075   A 0.89 0.89 0.0 0 0 109.3647 213.2300   L 96.4660 213.4102   A 0.89 0.89 0.0 0 0 95.5885 214.3125   L 95.5929 214.6325   A 0.89 0.89 0.0 0 0 96.4953 215.5100   L 109.3940 215.3298   A 0.89 0.89 0.0 0 0 110.2715 214.4275   L 110.2671 214.1075   Z"/>
<path fill="#647026" d="   M 83.68 214.24   A 0.23 0.23 0.0 0 1 83.30 214.42   Q 73.95 206.57 66.75 196.61   A 0.43 0.43 0.0 0 1 66.69 196.22   L 69.74 187.39   A 0.55 0.55 0.0 0 1 70.56 187.11   C 74.08 189.36 78.75 190.39 83.10 191.39   A 0.76 0.76 0.0 0 1 83.68 192.13   L 83.68 214.24   Z"/>


<path fill="#f4e600" d="   M 144.48 214.48   A 0.23 0.22 -25.9 0 1 144.33 214.90   L 121.66 211.29   A 0.62 0.62 0.0 0 1 121.15 210.58   L 122.08 204.77   A 0.23 0.23 0.0 0 1 122.43 204.60   Q 130.07 209.19 138.09 212.24   C 140.60 213.19 142.66 213.51 144.48 214.48   Z"/>

















<path fill="#08a332" d="   M 183.37 224.30   L 174.90 228.10   Q 176.91 221.23 183.37 224.30   Z"/>

<path fill="#f4e600" d="   M 118.69 227.74   L 111.99 227.25   A 0.91 0.91 0.0 0 1 111.19 226.09   L 111.66 224.47   Q 112.15 224.08 112.50 224.28   Q 115.37 225.89 118.69 227.74   Z"/>
<path fill="#08a332" d="   M 170.30 224.44   Q 170.42 225.58 169.92 226.36   A 1.46 0.18 -55.9 0 0 169.47 227.24   L 168.85 230.24   L 160.73 232.26   Q 160.24 230.26 160.78 228.73   L 170.30 224.44   Z"/>











<path fill="#08a332" d="   M 154.93 231.21   Q 154.55 231.57 155.08 232.97   L 148.54 233.86   A 0.20 0.20 0.0 0 1 148.45 233.47   L 154.93 231.21   Z"/>






</svg>