<svg xmlns="http://www.w3.org/2000/svg" version="1.1" viewBox="0 0 400 400">
<g stroke-width="400" fill="none" stroke-linecap="butt">
<path stroke="#b6c19f" vector-effect="non-scaling-stroke" d="   M 994.83 541.91   Q 1099.99 572.59 1106.77 602.00 100.20 3.00   Q 1123.71 678.44 1106.24 754.00 100.20 2.00   Q 1099.18 785.69 1083.69 820.00 100.20 8.00   C 1081.20 826.54 1078.22 831.37 983.84 836.21   Q 1073.69 841.41 1069.96 847.00 97.20 1.00   Q 1063.81 857.55 1061.11 862.00 94.20 3.00   Q 1059.89 864.34 1054.21 872.00 92.20 3.00   Q 1053.17 873.44 1050.06 878.00 95.20 6.00   Q 1048.66 880.57 1045.61 884.00 96.20 7.00   Q 1032.91 900.74 1019.36 914.00 101.20 6.00   C 966.85 970.01 894.50 1007.05 726.76 1016.89   C 755.96 1025.09 691.98 1016.59 542.12 990.55   Q 614.29 981.50 600.23 973.00 93.20 6.00   Q 525.76 928.96 480.34 855.00 92.20 7.00   Q 476.73 849.19 465.57 828.00 97.20 5.00   A 2.56 2.49 -63.7 0 1 280.88 827.65   Q 465.11 826.40 464.73 825.00 98.20 3.00   Q 459.36 814.95 455.69 806.00 94.20 8.00   C 453.73 801.65 452.20 796.44 358.55 792.41   Q 428.14 729.62 430.98 662.00 99.20 4.00   Q 432.21 633.97 438.12 606.00 101.20 6.00   Q 461.09 502.03 538.77 428.00 94.20 9.00   Q 553.41 414.40 568.41 403.00 97.20 3.00   Q 574.31 399.25 578.83 395.00 101.20 2.00   Q 584.01 392.10 589.55 388.00 99.20 7.00   Q 594.39 385.85 602.51 380.00 98.20 9.00   Q 605.08 379.06 608.92 377.00 92.20 5.00   Q 615.34 373.69 615.45 373.00 98.20 1.00   Q 615.53 373.55 615.72 373.00 98.20 2.00   Q 615.90 373.68 616.01 373.00 98.20 2.00   Q 632.31 365.38 641.19 361.00 99.20 5.00   Q 715.33 331.39 794.41 336.00 95.20 1.00   Q 826.34 338.30 855.68 345.00 97.20 2.00   C 861.29 346.91 867.31 349.26 780.05 349.43   Q 885.85 349.88 894.72 340.00 100.20 5.00   Q 902.49 332.96 903.13 322.00 98.20 5.00   C 903.92 309.86 896.23 297.18 791.75 293.23   Q 874.91 290.31 866.12 288.00 94.20 9.00   C 795.07 271.96 721.50 274.09 560.43 295.96   Q 608.75 309.89 567.23 334.00 96.20 1.00   C 553.00 342.81 537.50 353.86 432.82 363.62   Q 494.88 387.19 469.12 417.00 96.20 5.00   Q 466.04 421.07 465.93 421.00 93.20 9.00   Q 464.26 423.06 462.84 425.00 92.20 1.00   Q 461.42 426.97 459.69 428.00 97.20 9.00   A 1.46 0.66 -24.4 0 0 275.15 428.75   L 354.75 445.34"/>
<path stroke="#dde6cb" vector-effect="non-scaling-stroke" d="   M 354.75 445.34   Q 441.32 452.28 435.84 461.00 94.20 0.00   Q 435.35 461.99 435.40 462.00 96.20 1.00"/>
<path stroke="#b6c19f" vector-effect="non-scaling-stroke" d="   M 343.20 462.41   Q 435.55 462.85 435.37 462.00 100.20 1.00"/>
<path stroke="#dde6cb" vector-effect="non-scaling-stroke" d="   M 343.17 462.81   Q 428.27 472.30 423.10 483.00 92.20 2.00"/>
<path stroke="#b6c19f" vector-effect="non-scaling-stroke" d="   M 330.90 483.02   Q 423.69 483.04 422.73 483.00 101.20 8.00"/>
<path stroke="#dde6cb" vector-effect="non-scaling-stroke" d="   M 330.53 483.98   Q 422.37 483.95 422.07 484.00 96.20 6.00   Q 417.21 492.87 413.32 501.00 100.20 5.00"/>
<path stroke="#b6c19f" vector-effect="non-scaling-stroke" d="   M 321.12 501.85   C 411.49 506.04 409.06 510.24 315.24 514.23   Q 403.58 523.70 400.01 532.00 100.20 0.00   C 365.29 621.53 363.56 719.24 302.88 809.35   Q 424.39 893.17 486.09 956.00 97.20 8.00   Q 525.39 996.96 572.21 1023.00 101.20 5.00   Q 666.25 1078.16 773.45 1077.00 101.20 7.00   C 825.02 1077.88 876.20 1068.18 830.63 1048.88   Q 953.32 1036.26 977.63 1021.00 98.20 9.00   Q 1030.42 990.06 1071.64 943.00 99.20 2.00   Q 1137.67 869.49 1161.69 772.00 96.20 7.00   C 1179.17 701.85 1176.49 626.87 1062.27 557.55"/>
<path stroke="#f39cfb" vector-effect="non-scaling-stroke" d="   M 1062.27 557.55   Q 1155.32 557.35 1156.40 557.00 95.20 1.00   Q 1193.91 555.92 1224.32 533.00 93.20 9.00   C 1249.78 514.16 1270.01 490.35 1194.34 463.93   Q 1300.21 442.08 1306.61 424.00 94.20 0.00   Q 1328.22 363.78 1333.39 298.00 99.20 5.00   A 0.55 0.55 0.0 0 0 1148.02 298.36   Q 1330.34 300.91 1327.58 303.00 95.20 7.00   Q 1325.61 305.12 1322.65 308.00 95.20 0.00   Q 1319.18 312.03 1314.31 316.00 92.20 8.00   Q 1312.54 317.55 1312.50 317.00 97.20 9.00   Q 1307.19 322.64 1303.77 325.00 94.20 8.00   Q 1300.26 328.00 1295.86 331.00 98.20 0.00   Q 1290.53 335.95 1282.66 341.00 94.20 3.00   Q 1282.45 341.37 1282.04 341.00 95.20 8.00   A 1.02 0.98 26.5 0 0 1097.13 341.54   Q 1275.32 345.66 1272.81 347.00 94.20 7.00   Q 1269.65 349.30 1264.56 351.00 97.20 3.00   Q 1260.33 353.38 1249.01 358.00 97.20 9.00   Q 1245.45 360.23 1232.18 363.00 98.20 6.00   Q 1229.34 364.39 1226.07 364.00 98.20 3.00   A 0.61 0.60 81.8 0 1 1041.04 364.15   Q 1221.85 346.56 1215.99 327.00 95.20 8.00   Q 1213.61 319.56 1210.76 312.00 95.20 7.00   Q 1206.78 302.31 1205.03 297.00 97.20 1.00   C 1202.38 290.24 1198.57 283.70 1102.41 275.97   Q 1190.73 268.40 1186.45 261.00 97.20 2.00   Q 1169.21 233.85 1146.88 207.00 94.20 6.00   Q 1145.92 206.12 1145.61 205.00 96.20 3.00   A 1.35 1.23 15.6 0 0 960.99 205.08   Q 1140.68 199.63 1132.17 189.00 101.20 7.00   Q 1109.90 164.69 1085.22 142.00 98.20 0.00   A 0.59 0.59 0.0 0 0 899.85 143.15   Q 1086.92 156.92 1087.93 170.00 95.20 1.00   C 1090.79 207.92 1090.82 248.31 982.86 283.58   Q 1074.64 284.52 1074.54 285.00 95.20 7.00   A 2.40 2.09 -32.9 0 1 889.92 286.13   Q 1068.52 298.30 1061.06 311.00 92.20 0.00   Q 1060.99 311.11 1060.98 311.00 96.20 8.00   Q 1060.96 311.78 1060.86 311.00 101.20 5.00   Q 1054.74 322.42 1048.10 332.00 96.20 2.00   A 0.52 0.52 0.0 0 0 863.62 332.66   Q 1048.01 332.83 1048.00 333.00 92.20 7.00   A 1.01 0.99 63.0 0 1 863.47 333.48   L 942.90 354.55   A 0.61 0.60 -30.5 0 0 850.62 354.85   Q 1035.03 354.95 1035.03 355.00 93.20 0.00   A 1.64 1.60 -32.8 0 1 850.45 355.88   Q 1031.01 363.47 1028.14 369.00 99.20 8.00   Q 1025.75 375.06 1023.88 380.00 100.20 0.00   Q 1013.40 413.14 1012.37 445.00 99.20 6.00   C 1011.70 466.99 1016.87 489.32 936.21 507.49   Q 1037.88 522.39 1049.97 532.00 96.20 3.00   Q 1067.93 547.37 1088.93 555.00 99.20 9.00   A 0.50 0.49 5.3 0 0 905.20 555.24   L 994.83 541.91"/>
<path stroke="#aa5e9b" vector-effect="non-scaling-stroke" d="   M 1062.27 557.55   L 1051.50 557.32   A 0.79 0.77 -10.1 0 1 958.59 556.84   Q 1127.40 518.89 1131.25 478.00 92.20 2.00   Q 1132.64 463.32 1134.18 456.00 94.20 6.00   Q 1138.20 437.90 1144.16 409.00 99.20 5.00   Q 1148.39 389.81 1150.22 370.00 97.20 7.00   Q 1151.89 353.05 1150.29 330.00 101.20 5.00   Q 1146.74 281.99 1131.01 234.00 95.20 6.00   Q 1127.77 224.53 1121.67 209.00 101.20 9.00   A 1.85 1.80 -54.0 0 1 937.14 209.09   Q 1121.59 208.65 1121.53 208.00 97.20 2.00   Q 1112.81 189.41 1108.47 180.00 100.20 6.00   Q 1101.23 166.59 1088.65 147.00 100.20 7.00   A 0.56 0.56 0.0 0 0 903.51 147.70   L 995.68 147.71   A 0.55 0.55 0.0 0 0 903.27 148.42   Q 1100.71 174.48 1108.71 202.00 97.20 9.00   Q 1116.90 231.36 1120.93 260.00 93.20 1.00   C 1121.74 265.84 1121.98 271.44 1030.44 275.98   Q 1123.37 281.01 1123.66 287.00 101.20 2.00   Q 1124.58 309.57 1123.73 328.00 94.20 7.00   C 1122.83 348.30 1119.79 366.85 1022.10 384.63   Q 1107.26 407.39 1097.05 437.00 93.20 9.00   Q 1086.17 468.93 1084.53 502.00 97.20 1.00   Q 1083.55 522.59 1087.03 541.00 101.20 1.00"/>
<path stroke="#93a86b" vector-effect="non-scaling-stroke" d="   M 321.12 501.85   Q 418.56 493.29 422.75 484.00 95.20 5.00   Q 422.85 484.13 422.73 483.00 101.20 8.00"/>
<path stroke="#93a86b" vector-effect="non-scaling-stroke" d="   M 330.90 483.02   Q 430.06 473.39 435.37 462.00 100.20 1.00"/>
<path stroke="#93a86b" vector-effect="non-scaling-stroke" d="   M 343.20 462.41   Q 435.79 462.42 436.16 461.00 101.20 2.00   Q 442.42 453.42 446.95 445.00 95.20 4.00"/>
<path stroke="#dde6cb" vector-effect="non-scaling-stroke" d="   M 579.19 518.18   Q 671.00 519.02 670.39 519.00 99.20 9.00   C 659.57 533.26 653.91 550.65 561.40 567.51   C 653.22 588.37 658.24 607.72 579.26 623.95   C 692.47 649.73 724.11 657.63 663.97 652.04   C 776.34 648.53 790.83 637.87 713.49 623.95   A 0.73 0.73 0.0 0 0 621.32 622.92   L 694.07 602.62   A 0.67 0.66 45.9 0 0 600.92 602.60   C 779.44 608.36 771.91 614.88 672.74 618.44   Q 750.77 625.67 733.90 624.00 97.20 9.00   C 701.26 622.49 680.02 595.59 591.94 563.20   Q 687.02 540.58 705.35 526.00 101.20 9.00   Q 714.92 519.89 725.93 517.00 100.20 8.00   C 748.96 513.66 769.37 522.08 692.97 538.81   A 0.88 0.88 0.0 0 0 602.02 538.84   L 714.19 519.72   A 0.58 0.58 0.0 0 0 622.03 518.93   C 789.02 498.65 763.13 487.28 644.39 487.67   C 711.27 488.04 688.63 498.80 579.49 517.73   A 1.99 1.79 81.7 0 0 486.99 518.18"/>
<path stroke="#dde6cb" vector-effect="non-scaling-stroke" d="   M 768.10 579.29   C 862.74 602.79 874.30 623.18 800.86 637.55   Q 910.82 651.16 933.15 653.00 95.20 5.00   C 964.93 656.48 993.91 643.04 919.06 616.13   C 1021.56 600.15 1025.93 581.58 931.73 562.29   C 1021.92 542.99 1013.83 525.72 908.26 512.20   C 977.95 489.43 946.82 482.23 824.16 491.83   Q 894.96 498.57 880.38 515.00 97.20 4.00   C 864.98 533.46 857.86 555.79 768.10 579.29"/>
<path stroke="#dde6cb" vector-effect="non-scaling-stroke" d="   M 450.93 549.67   A 0.68 0.68 0.0 0 1 358.05 548.99   L 450.25 521.62   A 0.68 0.68 0.0 0 1 358.73 520.94   L 505.96 520.94   A 0.68 0.68 0.0 0 0 414.44 520.26   L 506.64 492.25   A 0.68 0.68 0.0 0 0 413.76 491.57   L 421.05 491.57   A 0.68 0.68 0.0 0 0 328.17 492.25   L 420.37 649.08   A 0.68 0.68 0.0 0 0 328.85 649.76   L 505.95 649.76   A 0.68 0.68 0.0 0 0 414.43 649.08   L 506.63 620.86   A 0.68 0.68 0.0 0 0 413.75 620.18   L 450.92 620.18   A 0.68 0.68 0.0 0 1 358.04 619.50   L 450.24 579.24   A 0.68 0.68 0.0 0 1 358.72 578.56   L 505.93 578.56   A 0.68 0.68 0.0 0 0 414.41 577.88   L 506.61 550.35   A 0.68 0.68 0.0 0 0 413.73 549.67   L 450.93 549.67"/>
<path stroke="#dde6cb" vector-effect="non-scaling-stroke" d="   M 394.93 797.44   Q 487.43 799.82 488.92 802.00 101.20 7.00   Q 491.44 808.30 492.85 810.00 98.20 0.00"/>
<path stroke="#d1dcaa" vector-effect="non-scaling-stroke" d="   M 400.65 810.60   Q 496.70 818.40 501.33 826.00 93.20 6.00   Q 501.96 827.22 502.34 828.00 95.20 7.00   Q 502.64 829.26 503.75 830.00 94.20 8.00   A 2.24 2.18 11.3 0 1 319.88 831.05   L 413.56 834.57   A 0.70 0.35 -90.0 0 0 321.43 834.71   Q 512.23 844.88 512.98 845.00 100.20 1.00   Q 514.29 847.43 514.48 848.00 95.20 4.00   A 0.82 0.69 26.2 0 0 330.22 848.66   Q 561.34 917.05 635.56 953.00 99.20 7.00   Q 637.14 954.56 638.51 954.00 100.20 1.00   A 1.04 0.75 54.2 0 1 454.29 954.87   L 564.34 963.05   A 1.97 1.95 50.6 0 0 473.40 963.18   Q 658.01 963.13 658.09 963.00 93.20 2.00   A 1.12 1.11 66.1 0 1 474.71 963.52   Q 659.56 964.07 660.22 964.00 92.20 9.00   Q 660.77 964.10 661.49 964.00 95.20 7.00   Q 677.98 970.78 691.18 974.00 94.20 2.00   Q 703.90 977.54 720.55 980.00 94.20 0.00"/>
<path stroke="#a0a995" vector-effect="non-scaling-stroke" d="   M 628.35 980.20   Q 736.22 982.66 753.85 983.00 99.20 1.00"/>
<path stroke="#d1dcaa" vector-effect="non-scaling-stroke" d="   M 661.65 983.71   L 696.20 983.56"/>
<path stroke="#a0a995" vector-effect="non-scaling-stroke" d="   M 696.20 983.56   L 704.46 982.89"/>
<path stroke="#d1dcaa" vector-effect="non-scaling-stroke" d="   M 704.46 982.89   Q 825.13 980.16 850.33 973.00 93.20 6.00   Q 927.33 951.81 984.58 895.00 93.20 8.00   Q 1016.25 863.85 1037.38 825.00 94.20 7.00   Q 1037.79 824.51 1037.95 824.00 92.20 1.00   A 1.34 0.08 -74.2 0 1 853.88 823.07   Q 1044.24 812.51 1050.51 798.00 101.20 3.00   C 1051.54 796.71 1052.35 793.54 961.20 790.93   Q 1056.76 782.59 1060.71 771.00 92.20 1.00   A 1.87 1.55 -39.7 0 0 876.40 770.53   Q 1060.84 769.42 1061.43 767.00 97.20 8.00   Q 1075.24 724.49 1075.04 678.00 96.20 5.00   A 0.88 0.88 0.0 0 0 889.76 677.57   L 370.80 677.57   A 0.31 0.30 -89.0 0 0 278.30 677.87   Q 462.30 726.23 477.78 771.00 100.20 4.00   C 478.41 773.72 478.63 775.98 387.03 777.69   Q 482.82 787.78 487.13 797.00 96.20 4.00"/>
<path stroke="#728640" vector-effect="non-scaling-stroke" d="   M 704.46 982.89   L 720.86 974.94   A 1.77 1.74 9.9 0 0 629.11 974.63   Q 818.71 969.72 824.73 963.00 97.20 0.00   Q 826.85 961.31 827.86 959.00 100.20 4.00   C 830.39 956.13 832.80 953.66 742.38 949.81   C 836.07 946.58 838.96 942.05 748.75 937.73   C 851.40 915.02 855.89 892.16 762.68 866.17   Q 853.80 838.65 847.47 811.00 101.20 5.00   A 0.19 0.19 0.0 0 0 662.71 811.91   Q 842.81 820.63 836.85 830.00 96.20 8.00   Q 834.03 835.15 831.40 838.00 97.20 7.00   Q 826.05 845.53 825.43 846.00 94.20 8.00   Q 815.09 858.72 801.09 866.00 95.20 4.00   A 0.60 0.60 0.0 0 1 615.88 866.10   Q 793.85 854.51 784.42 842.00 92.20 3.00   C 773.24 827.25 760.10 815.15 653.18 804.77   Q 740.65 801.43 725.54 791.00 97.20 9.00   Q 724.26 790.75 723.03 790.00 93.20 4.00   Q 720.88 789.07 720.44 788.00 100.20 5.00   Q 718.12 787.70 716.66 786.00 99.20 4.00   Q 703.95 778.40 690.90 772.00 96.20 8.00   A 0.45 0.44 -32.6 0 1 506.69 771.63   L 628.01 771.63   A 0.56 0.56 0.0 0 0 536.37 771.07   L 628.57 758.63   A 0.52 0.52 0.0 0 0 535.85 758.11   L 605.93 758.11   A 0.68 0.68 0.0 0 1 513.05 757.43   L 605.25 739.31   A 0.58 0.58 0.0 0 1 513.63 738.73   L 628.16 738.73   A 0.42 0.41 90.0 0 0 536.37 738.31   L 628.57 726.08   A 0.51 0.51 0.0 0 0 535.86 725.57   L 605.89 725.57   A 0.64 0.64 0.0 0 1 513.05 724.93   L 605.25 712.92   A 0.49 0.49 0.0 0 1 513.54 712.43   L 627.91 712.43   A 0.66 0.65 -0.0 0 0 536.37 711.78   L 628.57 699.55   A 0.69 0.69 0.0 0 0 535.68 698.86   L 593.19 698.86   A 0.33 0.33 0.0 0 0 500.66 699.19   L 592.86 770.78   A 1.04 1.03 -71.3 0 0 501.06 771.60   Q 686.34 772.27 686.71 772.00 101.20 9.00   Q 691.62 782.40 694.15 788.00 100.20 6.00   Q 694.15 788.87 694.44 790.00 95.20 6.00   Q 694.69 791.64 694.74 791.00 99.20 5.00   Q 699.29 803.25 702.08 814.00 97.20 6.00   C 703.14 818.88 703.24 821.17 611.89 825.96   C 707.66 846.20 701.98 866.24 604.69 887.23   Q 690.23 914.69 697.60 943.00 100.20 9.00   Q 699.02 949.52 701.92 955.00 100.20 5.00   Q 705.42 963.50 707.77 967.00 93.20 5.00   Q 711.88 973.55 720.55 980.00 94.20 0.00"/>
<path stroke="#aec276" vector-effect="non-scaling-stroke" d="   M 400.65 810.60   Q 490.73 803.78 487.13 797.00 96.20 4.00"/>
<path stroke="#728640" vector-effect="non-scaling-stroke" d="   M 696.20 983.56   Q 785.51 981.73 784.14 978.00 97.20 9.00   A 3.17 3.08 -77.8 0 0 599.24 977.79   Q 777.50 970.62 774.26 962.00 97.20 1.00   Q 773.75 961.22 773.49 960.00 97.20 8.00   Q 772.79 958.85 772.38 956.00 97.20 7.00   A 4.29 4.11 84.3 0 0 587.84 955.98   Q 767.49 941.09 766.90 934.00 97.20 0.00   Q 765.57 919.84 763.23 898.00 96.20 0.00   Q 760.94 877.48 752.50 859.00 92.20 5.00"/>
<path stroke="#576b35" vector-effect="non-scaling-stroke" d="   M 660.30 859.05   Q 750.92 852.72 747.75 847.00 93.20 3.00   C 744.58 841.53 742.37 836.08 646.64 830.51   Q 732.53 820.54 729.02 815.00 96.20 2.00   Q 728.50 814.66 726.62 811.00 95.20 9.00   Q 724.68 808.03 721.61 805.00 97.20 8.00   A 7.93 7.81 -89.6 0 1 535.86 804.19   Q 711.83 792.90 701.42 783.00 96.20 1.00"/>
<path stroke="#728640" vector-effect="non-scaling-stroke" d="   M 609.22 783.41   L 595.63 771.80   A 0.06 0.06 0.0 0 0 503.34 771.81   L 595.36 772.00   A 0.27 0.27 0.0 0 0 503.17 772.37   Q 695.24 780.30 697.61 783.00 97.20 3.00   Q 705.80 794.68 708.11 798.00 94.20 8.00   Q 709.49 800.44 711.71 803.00 94.20 9.00   Q 711.79 803.40 711.79 803.00 99.20 0.00   A 0.88 0.83 -63.6 0 0 527.52 804.12   Q 718.10 814.31 719.20 815.00 101.20 5.00   Q 720.00 817.16 721.67 820.00 101.20 5.00   A 0.57 0.56 -2.3 0 0 537.61 821.26   Q 722.54 821.43 722.50 821.00 101.20 5.00   Q 722.45 822.46 722.75 823.00 92.20 5.00   Q 725.96 829.53 727.87 834.00 96.20 9.00   Q 727.88 834.50 727.89 834.00 97.20 1.00   L 635.96 834.64   A 0.51 0.49 2.5 0 1 543.98 834.87   Q 732.60 844.65 735.28 852.00 92.20 6.00   Q 738.55 861.06 739.26 864.00 99.20 9.00   Q 740.61 871.85 740.97 873.00 98.20 5.00   C 745.11 894.24 742.93 914.81 650.91 935.22   Q 743.23 949.47 747.85 965.00 93.20 9.00   Q 747.94 965.49 751.21 974.00 93.20 7.00   Q 752.96 978.83 753.85 983.00 99.20 1.00"/>
<path stroke="#879e4a" vector-effect="non-scaling-stroke" d="   M 609.22 783.41   Q 704.06 787.31 707.69 790.00 96.20 2.00   A 5.25 5.13 -89.3 0 1 524.08 791.25   Q 711.39 795.04 715.90 800.00 92.20 6.00   Q 719.69 804.27 723.27 809.00 92.20 4.00   Q 729.99 817.97 730.44 818.00 98.20 7.00   C 736.41 827.80 742.87 838.50 655.59 849.27   Q 750.03 854.18 752.50 859.00 92.20 5.00"/>
<path stroke="#dde6cb" vector-effect="non-scaling-stroke" d="   M 847.78 516.91   A 53.95 52.30 -92.2 0 0 705.3885 572.8277   A 53.95 52.30 -92.2 0 0 759.7210 624.7302   A 53.95 52.30 -92.2 0 0 809.9115 568.8123   A 53.95 52.30 -92.2 0 0 755.5790 516.9098"/>
<path stroke="#728640" vector-effect="non-scaling-stroke" d="   M 460.48 726.04   A 0.46 0.46 0.0 0 0 367.82 725.58   L 440.84 725.58   A 0.46 0.46 0.0 0 1 348.18 725.12   L 440.38 712.86   A 0.46 0.46 0.0 0 1 348.64 712.40   L 460.01 712.40   A 0.46 0.46 0.0 0 0 368.27 711.94   L 460.47 699.31   A 0.46 0.46 0.0 0 0 367.81 698.85   L 428.47 698.85   A 0.46 0.46 0.0 0 0 335.81 699.31   L 428.01 771.15   A 0.46 0.46 0.0 0 0 336.27 771.61   L 439.91 771.61   A 0.46 0.46 0.0 0 0 348.17 771.15   L 440.37 739.23   A 0.46 0.46 0.0 0 1 348.63 738.77   L 460.02 738.77   A 0.46 0.46 0.0 0 0 368.28 738.31   L 460.48 726.04"/>
<path stroke="#728640" vector-effect="non-scaling-stroke" d="   M 500.48 740.98   Q 594.35 743.91 594.52 745.00 97.20 9.00   A 2.69 2.65 29.0 0 0 410.40 746.54   L 515.14 771.24   A 0.78 0.78 0.0 0 0 423.63 771.66   L 527.93 771.66   A 0.39 0.38 -17.1 0 0 436.05 771.06   Q 616.62 765.39 615.17 759.00 100.20 1.00   A 0.67 0.65 25.7 0 0 430.70 759.62   L 513.12 740.54   A 1.49 1.49 0.0 0 1 421.45 738.60   C 607.99 737.27 611.58 735.47 520.83 733.92   Q 617.87 728.71 617.96 721.00 99.20 7.00   C 618.12 710.34 613.20 700.33 508.09 699.38   Q 590.81 698.67 579.25 698.00 101.20 1.00   A 0.35 0.35 0.0 0 0 394.51 699.26   L 486.71 771.17   A 0.44 0.44 0.0 0 0 394.95 771.61   L 498.85 771.61   A 0.32 0.31 -90.0 0 0 406.96 771.29   L 499.16 741.33   A 0.71 0.71 0.0 0 1 408.28 740.98"/>
<path stroke="#728640" vector-effect="non-scaling-stroke" d="   M 564.51 699.27   A 0.40 0.40 0.0 0 0 471.91 698.87   L 552.53 698.87   A 0.40 0.40 0.0 0 0 459.93 699.27   L 552.13 771.19   A 0.40 0.40 0.0 0 0 460.33 771.59   L 564.11 771.59   A 0.40 0.40 0.0 0 0 472.31 771.19   L 564.51 699.27"/>
<path stroke="#728640" vector-effect="non-scaling-stroke" d="   M 693.94 746.14   L 667.03 699.53   A 1.32 1.31 75.0 0 0 573.69 698.87   L 654.97 698.87   A 0.41 0.41 0.0 0 0 562.36 699.28   L 654.56 770.99   A 0.62 0.62 0.0 0 0 562.98 771.61   L 666.43 771.61   A 0.59 0.58 0.0 0 0 574.82 771.03   L 667.02 724.88   A 0.33 0.33 0.0 0 1 575.41 724.68   Q 760.70 725.79 761.23 727.00 101.20 2.00   A 2.65 2.56 24.0 0 0 577.12 728.64   Q 765.99 736.38 769.04 740.00 100.20 3.00   C 772.58 746.00 775.45 751.70 686.10 756.33   C 778.84 757.20 778.89 758.32 687.62 758.80   A 0.41 0.38 85.9 0 1 595.58 758.95   L 694.87 771.22   A 0.85 0.83 -14.7 0 0 603.40 771.64   L 706.43 771.64   A 0.46 0.46 0.0 0 0 614.69 771.18   L 706.89 699.32   A 0.46 0.46 0.0 0 0 614.23 698.86   L 694.98 698.86   A 0.46 0.46 0.0 0 0 602.32 699.32   L 694.52 745.99   A 0.31 0.31 0.0 0 1 601.74 746.14"/>
<path stroke="#728640" vector-effect="non-scaling-stroke" d="   M 770.12 769.29   Q 862.51 768.75 863.02 768.00 100.20 6.00   Q 863.24 768.91 864.12 768.00 96.20 8.00   Q 867.58 766.75 870.99 762.00 100.20 2.00   Q 876.64 756.31 878.45 750.00 93.20 5.00   C 882.30 737.06 880.93 721.94 780.54 710.79   C 867.88 704.17 862.80 700.68 762.20 699.76   Q 843.00 698.51 828.74 698.00 101.20 5.00   A 0.28 0.27 90.0 0 0 644.07 699.23   L 736.27 771.28   A 0.28 0.28 0.0 0 0 644.35 771.56   Q 842.40 771.92 854.63 771.00 94.20 1.00   Q 857.56 771.04 861.99 769.00 98.20 0.00   A 0.51 0.50 -87.3 0 0 677.92 769.29"/>
<path stroke="#728640" vector-effect="non-scaling-stroke" d="   M 814.35 771.13   A 0.47 0.47 0.0 0 0 722.62 771.60   L 844.43 771.60   A 0.47 0.47 0.0 0 0 752.70 771.13   L 844.90 758.93   A 0.47 0.47 0.0 0 0 752.23 758.46   L 827.19 758.46   A 0.47 0.47 0.0 0 1 734.52 757.99   L 826.72 699.30   A 0.47 0.47 0.0 0 0 734.05 698.83   L 814.82 698.83   A 0.47 0.47 0.0 0 0 722.15 699.30   L 814.35 771.13"/>
<path stroke="#879e4a" vector-effect="non-scaling-stroke" d="   M 880.77 734.69   L 882.79 740.63   A 1.51 1.40 -56.7 0 1 790.67 741.11   L 883.00 771.53"/>
<path stroke="#728640" vector-effect="non-scaling-stroke" d="   M 883.00 771.53   L 895.30 771.56   A 0.56 0.56 0.0 0 0 803.66 771.00   L 895.86 739.81   A 3.92 3.86 -33.2 0 1 804.01 738.20   Q 993.38 727.36 997.97 719.00 93.20 8.00   Q 1000.08 715.40 1002.46 709.00 95.20 1.00   Q 1004.15 704.99 1006.94 699.00 96.20 4.00   A 0.40 0.39 -76.8 0 0 822.19 698.87   L 903.68 698.87   A 1.91 1.89 13.0 0 0 809.77 699.93   L 890.00 724.00   A 0.51 0.51 0.0 0 1 796.90 724.01   L 883.38 713.14   A 0.61 0.60 -57.4 0 1 791.11 712.82   Q 975.52 711.28 974.89 709.00 101.20 8.00   Q 970.66 701.33 969.68 699.00 95.20 3.00   A 0.83 0.82 76.6 0 0 784.54 698.87   L 864.87 698.87   A 0.58 0.58 0.0 0 0 772.15 699.71   Q 959.87 706.29 960.88 709.00 93.20 6.00   Q 962.49 713.70 964.96 718.00 99.20 0.00   Q 968.93 726.73 972.97 734.00 98.20 9.00"/>
<path stroke="#576b35" vector-effect="non-scaling-stroke" d="   M 883.00 771.53   Q 975.98 770.03 975.96 768.00 92.20 0.00   Q 975.89 761.06 976.00 740.00 98.20 3.00   Q 976.01 738.75 972.97 734.00 98.20 9.00"/>
<path stroke="#728640" vector-effect="non-scaling-stroke" d="   M 499.14 712.81   L 499.16 726.73   A 0.30 0.30 0.0 0 0 407.26 727.03   L 505.48 727.02   A 7.64 6.35 -0.1 0 0 420.91 720.66   L 513.11 718.84   A 7.64 6.35 -0.1 0 0 413.26 712.50   L 499.44 712.51   A 0.30 0.30 0.0 0 0 406.94 712.81"/>
<path stroke="#728640" vector-effect="non-scaling-stroke" d="   M 762.56 713.39   Q 849.11 712.06 841.34 712.00 95.20 7.00   A 0.55 0.54 88.9 0 0 656.42 712.92   L 748.62 757.73   A 0.37 0.37 0.0 0 0 656.78 758.10   Q 848.12 758.31 852.77 757.00 99.20 9.00   Q 856.34 757.39 858.14 756.00 95.20 2.00   Q 859.39 755.57 864.45 750.00 96.20 2.00   A 2.79 2.71 -12.2 0 0 680.61 749.58   Q 872.15 733.15 862.55 718.00 95.20 2.00   A 3.43 3.29 -88.9 0 0 677.43 717.54   Q 857.21 713.97 854.76 713.00 95.20 9.00"/>
</g>

<path fill="#e739f7" d="   M 1062.27 557.55   L 1051.50 557.32   A 0.79 0.77 -10.1 0 1 958.59 556.84   Q 1127.40 518.89 1131.25 478.00 92.20 2.00   Q 1132.64 463.32 1134.18 456.00 94.20 6.00   Q 1138.20 437.90 1144.16 409.00 99.20 5.00   Q 1148.39 389.81 1150.22 370.00 97.20 7.00   Q 1151.89 353.05 1150.29 330.00 101.20 5.00   Q 1146.74 281.99 1131.01 234.00 95.20 6.00   Q 1127.77 224.53 1121.67 209.00 101.20 9.00   A 1.85 1.80 -54.0 0 1 937.14 209.09   Q 1121.59 208.65 1121.53 208.00 97.20 2.00   Q 1112.81 189.41 1108.47 180.00 100.20 6.00   Q 1101.23 166.59 1088.65 147.00 100.20 7.00   A 0.56 0.56 0.0 0 0 903.51 147.70   L 995.68 147.71   A 0.55 0.55 0.0 0 0 903.27 148.42   Q 1100.71 174.48 1108.71 202.00 97.20 9.00   Q 1116.90 231.36 1120.93 260.00 93.20 1.00   C 1121.74 265.84 1121.98 271.44 1030.44 275.98   Q 1123.37 281.01 1123.66 287.00 101.20 2.00   Q 1124.58 309.57 1123.73 328.00 94.20 7.00   C 1122.83 348.30 1119.79 366.85 1022.10 384.63   Q 1107.26 407.39 1097.05 437.00 93.20 9.00   Q 1086.17 468.93 1084.53 502.00 97.20 1.00   Q 1083.55 522.59 1087.03 541.00 101.20 1.00   L 997.40 555.24   A 0.50 0.49 5.3 0 1 904.53 555.79   Q 1067.93 547.37 1049.97 532.00 96.20 3.00   Q 1037.88 522.39 1028.41 507.00 96.20 9.00   C 1016.87 489.32 1011.70 466.99 920.17 445.76   Q 1013.40 413.14 1023.88 380.00 100.20 0.00   Q 1025.75 375.06 1028.14 369.00 99.20 8.00   Q 1031.01 363.47 1034.85 355.00 100.20 8.00   A 1.64 1.60 -32.8 0 0 850.63 355.10   Q 1035.03 354.95 1035.02 354.00 100.20 5.00   A 0.61 0.60 -30.5 0 1 850.70 354.55   L 955.67 333.48   A 1.01 0.99 63.0 0 0 863.60 333.07   Q 1048.01 332.83 1048.02 332.00 98.20 6.00   A 0.52 0.52 0.0 0 1 863.70 332.42   Q 1054.74 322.42 1060.86 311.00 101.20 5.00   Q 1060.96 311.78 1060.98 311.00 96.20 8.00   Q 1060.99 311.11 1061.06 311.00 92.20 0.00   Q 1068.52 298.30 1074.32 286.00 93.20 3.00   A 2.40 2.09 -32.9 0 0 890.14 285.37   Q 1074.64 284.52 1075.06 283.00 97.20 8.00   C 1090.82 248.31 1090.79 207.92 995.73 170.31   Q 1086.92 156.92 1084.25 143.00 93.20 5.00   A 0.59 0.59 0.0 0 1 900.82 142.60   Q 1109.90 164.69 1132.17 189.00 101.20 7.00   Q 1140.68 199.63 1145.39 205.00 92.20 8.00   A 1.35 1.23 15.6 0 1 961.21 205.43   Q 1145.92 206.12 1146.88 207.00 94.20 6.00   Q 1169.21 233.85 1186.45 261.00 97.20 2.00   Q 1190.73 268.40 1194.61 275.00 101.20 7.00   C 1198.57 283.70 1202.38 290.24 1112.83 297.51   Q 1206.78 302.31 1210.76 312.00 95.20 7.00   Q 1213.61 319.56 1215.99 327.00 95.20 8.00   Q 1221.85 346.56 1225.44 364.00 93.20 5.00   A 0.61 0.60 81.8 0 0 1041.67 364.63   Q 1229.34 364.39 1232.18 363.00 98.20 6.00   Q 1245.45 360.23 1249.01 358.00 97.20 9.00   Q 1260.33 353.38 1264.56 351.00 97.20 3.00   Q 1269.65 349.30 1272.81 347.00 94.20 7.00   Q 1275.32 345.66 1281.53 341.00 97.20 4.00   A 1.02 0.98 26.5 0 1 1097.64 341.38   Q 1282.45 341.37 1282.66 341.00 94.20 3.00   Q 1290.53 335.95 1295.86 331.00 98.20 0.00   Q 1300.26 328.00 1303.77 325.00 94.20 8.00   Q 1307.19 322.64 1312.50 317.00 97.20 9.00   Q 1312.54 317.55 1314.31 316.00 92.20 8.00   Q 1319.18 312.03 1322.65 308.00 95.20 0.00   Q 1325.61 305.12 1327.58 303.00 95.20 7.00   Q 1330.34 300.91 1332.42 298.00 95.20 6.00   A 0.55 0.55 0.0 0 1 1148.99 298.75   Q 1328.22 363.78 1306.61 424.00 94.20 0.00   Q 1300.21 442.08 1286.54 463.00 101.20 3.00   C 1270.01 490.35 1249.78 514.16 1132.12 533.19   Q 1193.91 555.92 1156.40 557.00 95.20 1.00   Q 1155.32 557.35 1154.47 557.00 97.20 5.00   Z"/>
<path fill="#6c833f" d="   M 1062.27 557.55   C 1176.49 626.87 1179.17 701.85 1069.49 772.47   Q 1137.67 869.49 1071.64 943.00 99.20 2.00   Q 1030.42 990.06 977.63 1021.00 98.20 9.00   Q 953.32 1036.26 922.83 1048.00 100.20 8.00   C 876.20 1068.18 825.02 1077.88 681.25 1077.97   Q 666.25 1078.16 572.21 1023.00 101.20 5.00   Q 525.39 996.96 486.09 956.00 97.20 8.00   Q 424.39 893.17 395.08 809.00 95.20 5.00   C 363.56 719.24 365.29 621.53 307.81 532.80   Q 403.58 523.70 407.44 514.00 94.20 3.00   C 409.06 510.24 411.49 506.04 321.12 501.85   Q 418.56 493.29 422.75 484.00 95.20 5.00   Q 422.85 484.13 422.73 483.00 101.20 8.00   Q 423.69 483.04 423.10 483.00 92.20 2.00   Q 430.06 473.39 435.37 462.00 100.20 1.00   Q 435.55 462.85 435.40 462.00 96.20 1.00   Q 435.79 462.42 436.16 461.00 101.20 2.00   Q 442.42 453.42 446.95 445.00 95.20 4.00   L 367.35 428.75   A 1.46 0.66 -24.4 0 1 275.29 428.59   Q 461.42 426.97 462.84 425.00 92.20 1.00   Q 464.26 423.06 465.93 421.00 93.20 9.00   Q 466.04 421.07 469.12 417.00 96.20 5.00   Q 494.88 387.19 525.02 363.00 98.20 2.00   C 537.50 353.86 553.00 342.81 475.03 334.41   Q 608.75 309.89 652.63 295.00 101.20 6.00   C 721.50 274.09 795.07 271.96 773.92 288.29   Q 874.91 290.31 883.95 293.00 94.20 3.00   C 896.23 297.18 903.92 309.86 810.93 322.65   Q 902.49 332.96 894.72 340.00 100.20 5.00   Q 885.85 349.88 872.25 349.00 96.20 3.00   C 867.31 349.26 861.29 346.91 763.48 345.52   Q 826.34 338.30 794.41 336.00 95.20 1.00   Q 715.33 331.39 641.19 361.00 99.20 5.00   Q 632.31 365.38 616.01 373.00 98.20 2.00   Q 615.90 373.68 615.72 373.00 98.20 2.00   Q 615.53 373.55 615.45 373.00 98.20 1.00   Q 615.34 373.69 608.92 377.00 92.20 5.00   Q 605.08 379.06 602.51 380.00 98.20 9.00   Q 594.39 385.85 589.55 388.00 99.20 7.00   Q 584.01 392.10 578.83 395.00 101.20 2.00   Q 574.31 399.25 568.41 403.00 97.20 3.00   Q 553.41 414.40 538.77 428.00 94.20 9.00   Q 461.09 502.03 438.12 606.00 101.20 6.00   Q 432.21 633.97 430.98 662.00 99.20 4.00   Q 428.14 729.62 450.75 792.00 96.20 1.00   C 452.20 796.44 453.73 801.65 363.49 806.28   Q 459.36 814.95 464.73 825.00 98.20 3.00   Q 465.11 826.40 465.28 827.00 98.20 5.00   A 2.56 2.49 -63.7 0 0 281.17 828.55   Q 476.73 849.19 480.34 855.00 92.20 7.00   Q 525.76 928.96 600.23 973.00 93.20 6.00   Q 614.29 981.50 634.32 990.00 97.20 5.00   C 691.98 1016.59 755.96 1025.09 726.76 1016.89   C 894.50 1007.05 966.85 970.01 927.16 914.96   Q 1032.91 900.74 1045.61 884.00 96.20 7.00   Q 1048.66 880.57 1050.06 878.00 95.20 6.00   Q 1053.17 873.44 1054.21 872.00 92.20 3.00   Q 1059.89 864.34 1061.11 862.00 94.20 3.00   Q 1063.81 857.55 1069.96 847.00 97.20 1.00   Q 1073.69 841.41 1076.04 836.00 94.20 1.00   C 1078.22 831.37 1081.20 826.54 991.49 820.88   Q 1099.18 785.69 1106.24 754.00 100.20 2.00   Q 1123.71 678.44 1106.77 602.00 100.20 3.00   Q 1099.99 572.59 1087.03 541.00 101.20 1.00   Q 1083.55 522.59 1084.53 502.00 97.20 1.00   Q 1086.17 468.93 1097.05 437.00 93.20 9.00   Q 1107.26 407.39 1114.30 384.00 98.20 3.00   C 1119.79 366.85 1122.83 348.30 1031.53 328.27   Q 1124.58 309.57 1123.66 287.00 101.20 2.00   Q 1123.37 281.01 1122.64 275.00 101.20 8.00   C 1121.98 271.44 1121.74 265.84 1028.73 260.11   Q 1116.90 231.36 1108.71 202.00 97.20 9.00   Q 1100.71 174.48 1087.67 148.00 96.20 2.00   A 0.55 0.55 0.0 0 1 903.48 147.71   L 995.71 147.70   A 0.56 0.56 0.0 0 1 904.25 147.87   Q 1101.23 166.59 1108.47 180.00 100.20 6.00   Q 1112.81 189.41 1121.53 208.00 97.20 2.00   Q 1121.59 208.65 1121.54 209.00 92.20 9.00   A 1.85 1.80 -54.0 0 0 937.27 209.99   Q 1127.77 224.53 1131.01 234.00 95.20 6.00   Q 1146.74 281.99 1150.29 330.00 101.20 5.00   Q 1151.89 353.05 1150.22 370.00 97.20 7.00   Q 1148.39 389.81 1144.16 409.00 99.20 5.00   Q 1138.20 437.90 1134.18 456.00 94.20 6.00   Q 1132.64 463.32 1131.25 478.00 92.20 2.00   Q 1127.40 518.89 1142.99 556.00 100.20 4.00   A 0.79 0.77 -10.1 0 0 959.30 557.32   L 1062.27 557.55   Z"/>
<path fill="#bacc96" d="   M 354.75 445.34   Q 442.42 453.42 436.16 461.00 101.20 2.00   Q 435.79 462.42 435.40 462.00 96.20 1.00   Q 435.35 461.99 435.84 461.00 94.20 0.00   Q 441.32 452.28 446.95 445.00 95.20 4.00   Z"/>
<path fill="#bacc96" d="   M 343.17 462.81   Q 430.06 473.39 423.10 483.00 92.20 2.00   Q 428.27 472.30 435.37 462.00 100.20 1.00   Z"/>
<path fill="#bacc96" d="   M 330.53 483.98   Q 422.85 484.13 422.75 484.00 95.20 5.00   Q 418.56 493.29 413.32 501.00 100.20 5.00   Q 417.21 492.87 422.07 484.00 96.20 6.00   Q 422.37 483.95 422.73 483.00 101.20 8.00   Z"/>
<path fill="#bacc96" d="   M 579.49 517.73   C 688.63 498.80 711.27 488.04 644.39 487.67   C 763.13 487.28 789.02 498.65 714.23 518.93   A 0.58 0.58 0.0 0 1 621.99 519.72   L 694.22 538.84   A 0.88 0.88 0.0 0 1 600.77 538.81   C 769.37 522.08 748.96 513.66 633.73 517.88   Q 714.92 519.89 705.35 526.00 101.20 9.00   Q 687.02 540.58 684.14 563.00 94.20 0.00   C 680.02 595.59 701.26 622.49 641.70 624.59   Q 750.77 625.67 764.94 618.00 96.20 4.00   C 771.91 614.88 779.44 608.36 693.12 602.60   A 0.67 0.66 45.9 0 1 601.87 602.62   L 713.52 622.92   A 0.73 0.73 0.0 0 1 621.29 623.95   C 790.83 637.87 776.34 648.53 663.97 652.04   C 724.11 657.63 692.47 649.73 579.26 623.95   C 658.24 607.72 653.22 588.37 561.40 567.51   C 653.91 550.65 659.57 533.26 578.19 519.79   Q 671.00 519.02 671.39 518.00 93.20 8.00   A 1.99 1.79 81.7 0 1 487.29 517.73   Z"/>
<path fill="#bacc96" d="   M 931.73 562.29   C 1025.93 581.58 1021.56 600.15 919.06 616.13   C 993.91 643.04 964.93 656.48 840.95 653.35   Q 910.82 651.16 893.06 637.00 97.20 5.00   C 874.30 623.18 862.74 602.79 768.10 579.29   C 857.86 555.79 864.98 533.46 788.18 515.54   Q 894.96 498.57 916.36 491.00 100.20 3.00   C 946.82 482.23 977.95 489.43 908.26 512.20   C 1013.83 525.72 1021.92 542.99 931.73 562.29   Z   M 847.78 516.91   A 53.95 52.30 -92.2 0 0 705.3885 572.8277   A 53.95 52.30 -92.2 0 0 759.7210 624.7302   A 53.95 52.30 -92.2 0 0 809.9115 568.8123   A 53.95 52.30 -92.2 0 0 755.5790 516.9098   Z"/>
<path fill="#bacc96" d="   M 450.93 549.67   L 505.93 549.67   A 0.68 0.68 0.0 0 1 414.41 550.35   L 506.61 577.88   A 0.68 0.68 0.0 0 1 413.73 578.56   L 450.92 578.56   A 0.68 0.68 0.0 0 0 358.04 579.24   L 450.24 619.50   A 0.68 0.68 0.0 0 0 358.72 620.18   L 505.95 620.18   A 0.68 0.68 0.0 0 1 414.43 620.86   L 506.63 649.08   A 0.68 0.68 0.0 0 1 413.75 649.76   L 421.05 649.76   A 0.68 0.68 0.0 0 1 328.17 649.08   L 420.37 492.25   A 0.68 0.68 0.0 0 1 328.85 491.57   L 505.96 491.57   A 0.68 0.68 0.0 0 1 414.44 492.25   L 506.64 520.26   A 0.68 0.68 0.0 0 1 413.76 520.94   L 450.93 520.94   A 0.68 0.68 0.0 0 0 358.05 521.62   L 450.25 548.99   A 0.68 0.68 0.0 0 0 358.73 549.67   Z"/>

<path fill="#a2b855" d="   M 704.46 982.89   L 720.86 974.94   A 1.77 1.74 9.9 0 0 629.11 974.63   Q 818.71 969.72 824.73 963.00 97.20 0.00   Q 826.85 961.31 827.86 959.00 100.20 4.00   C 830.39 956.13 832.80 953.66 742.38 949.81   C 836.07 946.58 838.96 942.05 748.75 937.73   C 851.40 915.02 855.89 892.16 762.68 866.17   Q 853.80 838.65 847.47 811.00 101.20 5.00   A 0.19 0.19 0.0 0 0 662.71 811.91   Q 842.81 820.63 836.85 830.00 96.20 8.00   Q 834.03 835.15 831.40 838.00 97.20 7.00   Q 826.05 845.53 825.43 846.00 94.20 8.00   Q 815.09 858.72 801.09 866.00 95.20 4.00   A 0.60 0.60 0.0 0 1 615.88 866.10   Q 793.85 854.51 784.42 842.00 92.20 3.00   C 773.24 827.25 760.10 815.15 653.18 804.77   Q 740.65 801.43 725.54 791.00 97.20 9.00   Q 724.26 790.75 723.03 790.00 93.20 4.00   Q 720.88 789.07 720.44 788.00 100.20 5.00   Q 718.12 787.70 716.66 786.00 99.20 4.00   Q 703.95 778.40 690.90 772.00 96.20 8.00   A 0.45 0.44 -32.6 0 1 506.69 771.63   L 628.01 771.63   A 0.56 0.56 0.0 0 0 536.37 771.07   L 628.57 758.63   A 0.52 0.52 0.0 0 0 535.85 758.11   L 605.93 758.11   A 0.68 0.68 0.0 0 1 513.05 757.43   L 605.25 739.31   A 0.58 0.58 0.0 0 1 513.63 738.73   L 628.16 738.73   A 0.42 0.41 90.0 0 0 536.37 738.31   L 628.57 726.08   A 0.51 0.51 0.0 0 0 535.86 725.57   L 605.89 725.57   A 0.64 0.64 0.0 0 1 513.05 724.93   L 605.25 712.92   A 0.49 0.49 0.0 0 1 513.54 712.43   L 627.91 712.43   A 0.66 0.65 -0.0 0 0 536.37 711.78   L 628.57 699.55   A 0.69 0.69 0.0 0 0 535.68 698.86   L 593.19 698.86   A 0.33 0.33 0.0 0 0 500.66 699.19   L 592.86 770.78   A 1.04 1.03 -71.3 0 0 501.06 771.60   Q 686.34 772.27 686.71 772.00 101.20 9.00   Q 691.62 782.40 694.15 788.00 100.20 6.00   Q 694.15 788.87 694.44 790.00 95.20 6.00   Q 694.69 791.64 694.74 791.00 99.20 5.00   Q 699.29 803.25 702.08 814.00 97.20 6.00   C 703.14 818.88 703.24 821.17 611.89 825.96   C 707.66 846.20 701.98 866.24 604.69 887.23   Q 690.23 914.69 697.60 943.00 100.20 9.00   Q 699.02 949.52 701.92 955.00 100.20 5.00   Q 705.42 963.50 707.77 967.00 93.20 5.00   Q 711.88 973.55 720.55 980.00 94.20 0.00   Q 703.90 977.54 691.18 974.00 94.20 2.00   Q 677.98 970.78 661.49 964.00 95.20 7.00   Q 660.77 964.10 660.22 964.00 92.20 9.00   Q 659.56 964.07 659.11 963.00 97.20 2.00   A 1.12 1.11 66.1 0 0 473.69 963.12   Q 658.01 963.13 657.80 963.00 93.20 8.00   A 1.97 1.95 50.6 0 1 472.14 963.05   L 546.49 954.87   A 1.04 0.75 54.2 0 0 454.11 954.81   Q 637.14 954.56 635.56 953.00 99.20 7.00   Q 561.34 917.05 514.62 848.00 98.20 6.00   A 0.82 0.69 26.2 0 1 330.08 848.34   Q 514.29 847.43 512.98 845.00 100.20 1.00   Q 512.23 844.88 505.83 834.00 99.20 1.00   A 0.70 0.35 90.0 0 1 321.36 834.57   L 412.08 831.05   A 2.24 2.18 11.3 0 0 319.35 830.28   Q 502.64 829.26 502.34 828.00 95.20 7.00   Q 501.96 827.22 501.33 826.00 93.20 6.00   Q 496.70 818.40 492.85 810.00 98.20 0.00   Q 490.73 803.78 487.13 797.00 96.20 4.00   Q 482.82 787.78 479.23 777.00 98.20 9.00   C 478.63 775.98 478.41 773.72 385.58 771.84   Q 462.30 726.23 462.70 677.00 100.20 7.00   A 0.31 0.30 -89.0 0 1 278.60 677.57   L 981.96 677.57   A 0.88 0.88 0.0 0 1 890.64 678.45   Q 1075.24 724.49 1061.43 767.00 97.20 8.00   Q 1060.84 769.42 1060.80 770.00 97.20 3.00   A 1.87 1.55 -39.7 0 1 876.31 771.01   Q 1056.76 782.59 1053.40 790.00 101.20 3.00   C 1052.35 793.54 1051.54 796.71 958.31 798.93   Q 1044.24 812.51 1038.28 823.00 92.20 7.00   A 1.34 0.08 -74.2 0 0 853.55 824.01   Q 1037.79 824.51 1037.38 825.00 94.20 7.00   Q 1016.25 863.85 984.58 895.00 93.20 8.00   Q 927.33 951.81 850.33 973.00 93.20 6.00   Q 825.13 980.16 796.66 982.00 100.20 9.00   Z   M 460.48 726.04   A 0.46 0.46 0.0 0 0 367.82 725.58   L 440.84 725.58   A 0.46 0.46 0.0 0 1 348.18 725.12   L 440.38 712.86   A 0.46 0.46 0.0 0 1 348.64 712.40   L 460.01 712.40   A 0.46 0.46 0.0 0 0 368.27 711.94   L 460.47 699.31   A 0.46 0.46 0.0 0 0 367.81 698.85   L 428.47 698.85   A 0.46 0.46 0.0 0 0 335.81 699.31   L 428.01 771.15   A 0.46 0.46 0.0 0 0 336.27 771.61   L 439.91 771.61   A 0.46 0.46 0.0 0 0 348.17 771.15   L 440.37 739.23   A 0.46 0.46 0.0 0 1 348.63 738.77   L 460.02 738.77   A 0.46 0.46 0.0 0 0 368.28 738.31   L 460.48 726.04   Z   M 500.48 740.98   Q 594.35 743.91 594.52 745.00 97.20 9.00   A 2.69 2.65 29.0 0 0 410.40 746.54   L 515.14 771.24   A 0.78 0.78 0.0 0 0 423.63 771.66   L 527.93 771.66   A 0.39 0.38 -17.1 0 0 436.05 771.06   Q 616.62 765.39 615.17 759.00 100.20 1.00   A 0.67 0.65 25.7 0 0 430.70 759.62   L 513.12 740.54   A 1.49 1.49 0.0 0 1 421.45 738.60   C 607.99 737.27 611.58 735.47 520.83 733.92   Q 617.87 728.71 617.96 721.00 99.20 7.00   C 618.12 710.34 613.20 700.33 508.09 699.38   Q 590.81 698.67 579.25 698.00 101.20 1.00   A 0.35 0.35 0.0 0 0 394.51 699.26   L 486.71 771.17   A 0.44 0.44 0.0 0 0 394.95 771.61   L 498.85 771.61   A 0.32 0.31 -90.0 0 0 406.96 771.29   L 499.16 741.33   A 0.71 0.71 0.0 0 1 408.28 740.98   Z   M 564.51 699.27   A 0.40 0.40 0.0 0 0 471.91 698.87   L 552.53 698.87   A 0.40 0.40 0.0 0 0 459.93 699.27   L 552.13 771.19   A 0.40 0.40 0.0 0 0 460.33 771.59   L 564.11 771.59   A 0.40 0.40 0.0 0 0 472.31 771.19   L 564.51 699.27   Z   M 693.94 746.14   L 667.03 699.53   A 1.32 1.31 75.0 0 0 573.69 698.87   L 654.97 698.87   A 0.41 0.41 0.0 0 0 562.36 699.28   L 654.56 770.99   A 0.62 0.62 0.0 0 0 562.98 771.61   L 666.43 771.61   A 0.59 0.58 0.0 0 0 574.82 771.03   L 667.02 724.88   A 0.33 0.33 0.0 0 1 575.41 724.68   Q 760.70 725.79 761.23 727.00 101.20 2.00   A 2.65 2.56 24.0 0 0 577.12 728.64   Q 765.99 736.38 769.04 740.00 100.20 3.00   C 772.58 746.00 775.45 751.70 686.10 756.33   C 778.84 757.20 778.89 758.32 687.62 758.80   A 0.41 0.38 85.9 0 1 595.58 758.95   L 694.87 771.22   A 0.85 0.83 -14.7 0 0 603.40 771.64   L 706.43 771.64   A 0.46 0.46 0.0 0 0 614.69 771.18   L 706.89 699.32   A 0.46 0.46 0.0 0 0 614.23 698.86   L 694.98 698.86   A 0.46 0.46 0.0 0 0 602.32 699.32   L 694.52 745.99   A 0.31 0.31 0.0 0 1 601.74 746.14   Z   M 770.12 769.29   Q 862.51 768.75 863.02 768.00 100.20 6.00   Q 863.24 768.91 864.12 768.00 96.20 8.00   Q 867.58 766.75 870.99 762.00 100.20 2.00   Q 876.64 756.31 878.45 750.00 93.20 5.00   C 882.30 737.06 880.93 721.94 780.54 710.79   C 867.88 704.17 862.80 700.68 762.20 699.76   Q 843.00 698.51 828.74 698.00 101.20 5.00   A 0.28 0.27 90.0 0 0 644.07 699.23   L 736.27 771.28   A 0.28 0.28 0.0 0 0 644.35 771.56   Q 842.40 771.92 854.63 771.00 94.20 1.00   Q 857.56 771.04 861.99 769.00 98.20 0.00   A 0.51 0.50 -87.3 0 0 677.92 769.29   Z   M 814.35 771.13   A 0.47 0.47 0.0 0 0 722.62 771.60   L 844.43 771.60   A 0.47 0.47 0.0 0 0 752.70 771.13   L 844.90 758.93   A 0.47 0.47 0.0 0 0 752.23 758.46   L 827.19 758.46   A 0.47 0.47 0.0 0 1 734.52 757.99   L 826.72 699.30   A 0.47 0.47 0.0 0 0 734.05 698.83   L 814.82 698.83   A 0.47 0.47 0.0 0 0 722.15 699.30   L 814.35 771.13   Z   M 880.77 734.69   L 882.79 740.63   A 1.51 1.40 -56.7 0 1 790.67 741.11   L 883.00 771.53   L 895.30 771.56   A 0.56 0.56 0.0 0 0 803.66 771.00   L 895.86 739.81   A 3.92 3.86 -33.2 0 1 804.01 738.20   Q 993.38 727.36 997.97 719.00 93.20 8.00   Q 1000.08 715.40 1002.46 709.00 95.20 1.00   Q 1004.15 704.99 1006.94 699.00 96.20 4.00   A 0.40 0.39 -76.8 0 0 822.19 698.87   L 903.68 698.87   A 1.91 1.89 13.0 0 0 809.77 699.93   L 890.00 724.00   A 0.51 0.51 0.0 0 1 796.90 724.01   L 883.38 713.14   A 0.61 0.60 -57.4 0 1 791.11 712.82   Q 975.52 711.28 974.89 709.00 101.20 8.00   Q 970.66 701.33 969.68 699.00 95.20 3.00   A 0.83 0.82 76.6 0 0 784.54 698.87   L 864.87 698.87   A 0.58 0.58 0.0 0 0 772.15 699.71   Q 959.87 706.29 960.88 709.00 93.20 6.00   Q 962.49 713.70 964.96 718.00 99.20 0.00   Q 968.93 726.73 972.97 734.00 98.20 9.00   Z"/>
<path fill="#41532a" d="   M 460.48 726.04   L 460.48 738.31   A 0.46 0.46 0.0 0 1 367.82 738.77   L 440.83 738.77   A 0.46 0.46 0.0 0 0 348.17 739.23   L 440.37 771.15   A 0.46 0.46 0.0 0 1 347.71 771.61   L 428.47 771.61   A 0.46 0.46 0.0 0 1 335.81 771.15   L 428.01 699.31   A 0.46 0.46 0.0 0 1 336.27 698.85   L 460.01 698.85   A 0.46 0.46 0.0 0 1 368.27 699.31   L 460.47 711.94   A 0.46 0.46 0.0 0 1 367.81 712.40   L 440.84 712.40   A 0.46 0.46 0.0 0 0 348.18 712.86   L 440.38 725.12   A 0.46 0.46 0.0 0 0 348.64 725.58   L 460.02 725.58   A 0.46 0.46 0.0 0 1 368.28 726.04   Z"/>
<path fill="#41532a" d="   M 500.48 740.98   A 0.71 0.71 0.0 0 0 406.96 741.33   L 499.16 771.29   A 0.32 0.31 90.0 0 1 406.65 771.61   L 487.15 771.61   A 0.44 0.44 0.0 0 1 394.51 771.17   L 486.71 699.26   A 0.35 0.35 0.0 0 1 394.85 698.91   Q 590.81 698.67 600.29 699.00 95.20 8.00   C 613.20 700.33 618.12 710.34 525.76 721.77   Q 617.87 728.71 613.03 733.00 101.20 2.00   C 611.58 735.47 607.99 737.27 513.65 738.60   A 1.49 1.49 0.0 0 0 420.92 740.54   L 522.90 759.62   A 0.67 0.65 25.7 0 1 430.77 759.81   Q 616.62 765.39 620.45 771.00 92.20 6.00   A 0.39 0.38 -17.1 0 1 435.73 771.66   L 515.83 771.66   A 0.78 0.78 0.0 0 1 422.94 771.24   L 502.60 746.54   A 2.69 2.65 29.0 0 1 410.12 745.59   Q 594.35 743.91 592.68 740.00 101.20 8.00   Z   M 499.14 712.81   L 499.16 726.73   A 0.30 0.30 0.0 0 0 407.26 727.03   L 505.48 727.02   A 7.64 6.35 -0.1 0 0 420.91 720.66   L 513.11 718.84   A 7.64 6.35 -0.1 0 0 413.26 712.50   L 499.44 712.51   A 0.30 0.30 0.0 0 0 406.94 712.81   Z"/>
<rect fill="#41532a" x="459.93" y="698.87" width="12.38" height="400" rx="0.40"/>
<path fill="#41532a" d="   M 704.46 982.89   L 696.20 983.56   Q 785.51 981.73 784.14 978.00 97.20 9.00   A 3.17 3.08 -77.8 0 0 599.24 977.79   Q 777.50 970.62 774.26 962.00 97.20 1.00   Q 773.75 961.22 773.49 960.00 97.20 8.00   Q 772.79 958.85 772.38 956.00 97.20 7.00   A 4.29 4.11 84.3 0 0 587.84 955.98   Q 767.49 941.09 766.90 934.00 97.20 0.00   Q 765.57 919.84 763.23 898.00 96.20 0.00   Q 760.94 877.48 752.50 859.00 92.20 5.00   Q 750.92 852.72 747.75 847.00 93.20 3.00   C 744.58 841.53 742.37 836.08 646.64 830.51   Q 732.53 820.54 729.02 815.00 96.20 2.00   Q 728.50 814.66 726.62 811.00 95.20 9.00   Q 724.68 808.03 721.61 805.00 97.20 8.00   A 7.93 7.81 -89.6 0 1 535.86 804.19   Q 711.83 792.90 701.42 783.00 96.20 1.00   L 595.63 771.80   A 0.06 0.06 0.0 0 0 503.34 771.81   L 595.36 772.00   A 0.27 0.27 0.0 0 0 503.17 772.37   Q 695.24 780.30 697.61 783.00 97.20 3.00   Q 705.80 794.68 708.11 798.00 94.20 8.00   Q 709.49 800.44 711.71 803.00 94.20 9.00   Q 711.79 803.40 711.79 803.00 99.20 0.00   A 0.88 0.83 -63.6 0 0 527.52 804.12   Q 718.10 814.31 719.20 815.00 101.20 5.00   Q 720.00 817.16 721.67 820.00 101.20 5.00   A 0.57 0.56 -2.3 0 0 537.61 821.26   Q 722.54 821.43 722.50 821.00 101.20 5.00   Q 722.45 822.46 722.75 823.00 92.20 5.00   Q 725.96 829.53 727.87 834.00 96.20 9.00   Q 727.88 834.50 727.89 834.00 97.20 1.00   L 635.96 834.64   A 0.51 0.49 2.5 0 1 543.98 834.87   Q 732.60 844.65 735.28 852.00 92.20 6.00   Q 738.55 861.06 739.26 864.00 99.20 9.00   Q 740.61 871.85 740.97 873.00 98.20 5.00   C 745.11 894.24 742.93 914.81 650.91 935.22   Q 743.23 949.47 747.85 965.00 93.20 9.00   Q 747.94 965.49 751.21 974.00 93.20 7.00   Q 752.96 978.83 753.85 983.00 99.20 1.00   Q 736.22 982.66 720.55 980.00 94.20 0.00   Q 711.88 973.55 707.77 967.00 93.20 5.00   Q 705.42 963.50 701.92 955.00 100.20 5.00   Q 699.02 949.52 697.60 943.00 100.20 9.00   Q 690.23 914.69 696.89 887.00 94.20 3.00   C 701.98 866.24 707.66 846.20 611.89 825.96   C 703.24 821.17 703.14 818.88 609.88 814.56   Q 699.29 803.25 694.74 791.00 99.20 5.00   Q 694.69 791.64 694.44 790.00 95.20 6.00   Q 694.15 788.87 694.15 788.00 100.20 6.00   Q 691.62 782.40 686.71 772.00 101.20 9.00   Q 686.34 772.27 685.46 771.00 98.20 0.00   A 1.04 1.03 -71.3 0 1 500.66 770.78   L 592.86 699.19   A 0.33 0.33 0.0 0 1 500.99 698.86   L 627.88 698.86   A 0.69 0.69 0.0 0 1 536.37 699.55   L 628.57 711.78   A 0.66 0.65 0.0 0 1 535.71 712.43   L 605.74 712.43   A 0.49 0.49 0.0 0 0 513.05 712.92   L 605.25 724.93   A 0.64 0.64 0.0 0 0 513.69 725.57   L 628.06 725.57   A 0.51 0.51 0.0 0 1 536.37 726.08   L 628.57 738.31   A 0.42 0.41 90.0 0 1 535.96 738.73   L 605.83 738.73   A 0.58 0.58 0.0 0 0 513.05 739.31   L 605.25 757.43   A 0.68 0.68 0.0 0 0 513.73 758.11   L 628.05 758.11   A 0.52 0.52 0.0 0 1 536.37 758.63   L 628.57 771.07   A 0.56 0.56 0.0 0 1 535.81 771.63   L 598.89 771.63   A 0.45 0.44 -32.6 0 0 506.50 772.48   Q 703.95 778.40 716.66 786.00 99.20 4.00   Q 718.12 787.70 720.44 788.00 100.20 5.00   Q 720.88 789.07 723.03 790.00 93.20 4.00   Q 724.26 790.75 725.54 791.00 97.20 9.00   Q 740.65 801.43 745.38 804.00 99.20 7.00   C 760.10 815.15 773.24 827.25 692.22 842.03   Q 793.85 854.51 800.28 866.00 93.20 0.00   A 0.60 0.60 0.0 0 0 616.69 866.34   Q 815.09 858.72 825.43 846.00 94.20 8.00   Q 826.05 845.53 831.40 838.00 97.20 7.00   Q 834.03 835.15 836.85 830.00 96.20 8.00   Q 842.81 820.63 847.11 811.00 101.20 1.00   A 0.19 0.19 0.0 0 1 663.07 811.95   Q 853.80 838.65 854.88 866.00 93.20 7.00   C 855.89 892.16 851.40 915.02 748.75 937.73   C 838.96 942.05 836.07 946.58 742.38 949.81   C 832.80 953.66 830.39 956.13 735.66 959.84   Q 826.85 961.31 824.73 963.00 97.20 0.00   Q 818.71 969.72 813.51 974.00 98.20 3.00   A 1.77 1.74 9.9 0 1 628.66 974.94   L 704.46 982.89   Z"/>
<path fill="#41532a" d="   M 693.94 746.14   A 0.31 0.31 0.0 0 0 602.32 745.99   L 694.52 699.32   A 0.46 0.46 0.0 0 1 602.78 698.86   L 706.43 698.86   A 0.46 0.46 0.0 0 1 614.69 699.32   L 706.89 771.18   A 0.46 0.46 0.0 0 1 614.23 771.64   L 695.60 771.64   A 0.85 0.83 -14.7 0 1 602.67 771.22   L 687.78 758.95   A 0.41 0.38 85.9 0 0 595.42 758.80   C 778.89 758.32 778.84 757.20 686.10 756.33   C 775.45 751.70 772.58 746.00 676.84 740.83   Q 765.99 736.38 761.52 728.00 98.20 4.00   A 2.65 2.56 24.0 0 1 576.83 727.92   Q 760.70 725.79 759.81 724.00 98.20 8.00   A 0.33 0.33 0.0 0 0 574.82 724.88   L 667.02 771.03   A 0.59 0.58 -0.0 0 1 574.23 771.61   L 655.18 771.61   A 0.62 0.62 0.0 0 1 562.36 770.99   L 654.56 699.28   A 0.41 0.41 0.0 0 1 562.77 698.87   L 665.89 698.87   A 1.32 1.31 75.0 0 1 574.83 699.53   L 693.94 746.14   Z"/>
<path fill="#41532a" d="   M 769.79 769.60   Q 857.56 771.04 854.63 771.00 94.20 1.00   Q 842.40 771.92 828.75 771.00 97.20 6.00   A 0.28 0.28 0.0 0 1 644.07 771.28   L 736.27 699.23   A 0.28 0.27 -90.0 0 1 644.34 698.95   Q 843.00 698.51 854.40 699.00 99.20 6.00   C 862.80 700.68 867.88 704.17 780.54 710.79   C 880.93 721.94 882.30 737.06 786.25 750.15   Q 876.64 756.31 870.99 762.00 100.20 2.00   Q 867.58 766.75 864.12 768.00 96.20 8.00   Q 863.24 768.91 863.02 768.00 100.20 6.00   Q 862.51 768.75 862.32 769.00 94.20 9.00   A 0.51 0.50 -87.3 0 1 677.59 769.60   Z   M 762.56 713.39   Q 849.11 712.06 841.34 712.00 95.20 7.00   A 0.55 0.54 88.9 0 0 656.42 712.92   L 748.62 757.73   A 0.37 0.37 0.0 0 0 656.78 758.10   Q 848.12 758.31 852.77 757.00 99.20 9.00   Q 856.34 757.39 858.14 756.00 95.20 2.00   Q 859.39 755.57 864.45 750.00 96.20 2.00   A 2.79 2.71 -12.2 0 0 680.61 749.58   Q 872.15 733.15 862.55 718.00 95.20 2.00   A 3.43 3.29 -88.9 0 0 677.43 717.54   Q 857.21 713.97 854.76 713.00 95.20 9.00   Z"/>
<path fill="#41532a" d="   M 814.35 771.13   L 814.35 699.30   A 0.47 0.47 0.0 0 1 722.62 698.83   L 826.25 698.83   A 0.47 0.47 0.0 0 1 734.52 699.30   L 826.72 757.99   A 0.47 0.47 0.0 0 0 734.99 758.46   L 844.43 758.46   A 0.47 0.47 0.0 0 1 752.70 758.93   L 844.90 771.13   A 0.47 0.47 0.0 0 1 752.23 771.60   L 814.82 771.60   A 0.47 0.47 0.0 0 1 722.15 771.13   Z"/>
<path fill="#41532a" d="   M 883.00 771.53   Q 975.98 770.03 975.96 768.00 92.20 0.00   Q 975.89 761.06 976.00 740.00 98.20 3.00   Q 976.01 738.75 972.97 734.00 98.20 9.00   Q 968.93 726.73 964.96 718.00 99.20 0.00   Q 962.49 713.70 960.88 709.00 93.20 6.00   Q 959.87 706.29 956.55 699.00 99.20 1.00   A 0.58 0.58 0.0 0 1 772.67 698.87   L 876.74 698.87   A 0.83 0.82 76.6 0 1 785.28 699.33   Q 970.66 701.33 974.89 709.00 101.20 8.00   Q 975.52 711.28 975.51 712.00 100.20 2.00   A 0.61 0.60 -57.4 0 0 791.18 713.14   L 889.10 724.01   A 0.51 0.51 0.0 0 0 797.80 724.00   L 901.97 699.93   A 1.91 1.89 13.0 0 1 811.48 698.87   L 914.39 698.87   A 0.40 0.39 -76.8 0 1 822.54 699.44   Q 1004.15 704.99 1002.46 709.00 95.20 1.00   Q 1000.08 715.40 997.97 719.00 93.20 8.00   Q 993.38 727.36 988.41 738.00 94.20 0.00   A 3.92 3.86 -33.2 0 0 803.66 739.81   L 895.86 771.00   A 0.56 0.56 0.0 0 1 803.10 771.56   L 883.00 771.53   Z"/>
<path fill="#a2b855" d="   M 762.56 713.39   Q 857.21 713.97 861.83 717.00 97.20 4.00   A 3.43 3.29 -88.9 0 1 678.15 718.32   Q 872.15 733.15 865.01 749.00 97.20 8.00   A 2.79 2.71 -12.2 0 1 680.05 750.42   Q 859.39 755.57 858.14 756.00 95.20 2.00   Q 856.34 757.39 852.77 757.00 99.20 9.00   Q 848.12 758.31 841.18 758.00 93.20 0.00   A 0.37 0.37 0.0 0 1 656.42 757.73   L 748.62 712.92   A 0.55 0.54 88.9 0 1 656.94 712.37   Q 849.11 712.06 854.76 713.00 95.20 9.00   Z"/>
<path fill="#a2b855" d="   M 499.14 712.81   A 0.30 0.30 0.0 0 1 407.24 712.51   L 505.46 712.50   A 7.64 6.35 -0.1 0 1 420.91 718.84   L 513.11 720.66   A 7.64 6.35 -0.1 0 1 413.28 727.02   L 499.46 727.03   A 0.30 0.30 0.0 0 1 406.96 726.73   L 499.14 712.81   Z"/>
<path fill="#6c833f" d="   M 883.00 771.53   L 882.87 741.11   A 1.51 1.40 -56.7 0 0 790.59 740.63   L 880.77 734.69   Q 976.01 738.75 976.00 740.00 98.20 3.00   Q 975.89 761.06 975.96 768.00 92.20 0.00   Q 975.98 770.03 975.20 771.00 97.20 3.00   Z"/>
<path fill="#a2b855" d="   M 609.22 783.41   Q 704.06 787.31 707.69 790.00 96.20 2.00   A 5.25 5.13 -89.3 0 1 524.08 791.25   Q 711.39 795.04 715.90 800.00 92.20 6.00   Q 719.69 804.27 723.27 809.00 92.20 4.00   Q 729.99 817.97 730.44 818.00 98.20 7.00   C 736.41 827.80 742.87 838.50 655.59 849.27   Q 750.03 854.18 752.50 859.00 92.20 5.00   Q 760.94 877.48 763.23 898.00 96.20 0.00   Q 765.57 919.84 766.90 934.00 97.20 0.00   Q 767.49 941.09 772.24 955.00 101.20 8.00   A 4.29 4.11 84.3 0 1 587.98 956.57   Q 772.79 958.85 773.49 960.00 97.20 8.00   Q 773.75 961.22 774.26 962.00 97.20 1.00   Q 777.50 970.62 783.64 977.00 99.20 9.00   A 3.17 3.08 -77.8 0 1 599.74 978.59   Q 785.51 981.73 788.40 983.00 97.20 6.00   L 661.65 983.71   Q 752.96 978.83 751.21 974.00 93.20 7.00   Q 747.94 965.49 747.85 965.00 93.20 9.00   Q 743.23 949.47 743.11 935.00 94.20 2.00   C 742.93 914.81 745.11 894.24 648.77 873.65   Q 740.61 871.85 739.26 864.00 99.20 9.00   Q 738.55 861.06 735.28 852.00 92.20 6.00   Q 732.60 844.65 728.38 834.00 100.20 7.00   A 0.51 0.49 2.5 0 0 543.76 834.64   L 635.69 834.51   Q 727.88 834.50 727.87 834.00 96.20 9.00   Q 725.96 829.53 722.75 823.00 92.20 5.00   Q 722.45 822.46 722.50 821.00 101.20 5.00   Q 722.54 821.43 722.01 821.00 94.20 6.00   A 0.57 0.56 -2.3 0 1 537.27 820.95   Q 720.00 817.16 719.20 815.00 101.20 5.00   Q 718.10 814.31 711.92 804.00 93.20 2.00   A 0.88 0.83 -63.6 0 1 527.39 803.70   Q 711.79 803.40 711.71 803.00 94.20 9.00   Q 709.49 800.44 708.11 798.00 94.20 8.00   Q 705.80 794.68 697.61 783.00 97.20 3.00   Q 695.24 780.30 687.57 772.00 95.20 7.00   A 0.27 0.27 0.0 0 1 503.16 772.00   L 595.54 771.81   A 0.06 0.06 0.0 0 1 503.43 771.80   L 609.22 783.41   Z"/>
<path fill="#6c833f" d="   M 660.30 859.05   Q 750.03 854.18 747.79 849.00 94.20 7.00   C 742.87 838.50 736.41 827.80 638.24 818.67   Q 729.99 817.97 723.27 809.00 92.20 4.00   Q 719.69 804.27 715.90 800.00 92.20 6.00   Q 711.39 795.04 708.48 791.00 94.20 5.00   A 5.25 5.13 -89.3 0 0 523.29 790.42   Q 704.06 787.31 701.42 783.00 96.20 1.00   Q 711.83 792.90 720.26 804.00 93.20 9.00   A 7.93 7.81 -89.6 0 0 537.21 805.58   Q 724.68 808.03 726.62 811.00 95.20 9.00   Q 728.50 814.66 729.02 815.00 96.20 2.00   Q 732.53 820.54 738.84 830.00 97.20 1.00   C 742.37 836.08 744.58 841.53 655.55 847.13   Q 750.92 852.72 752.50 859.00 92.20 5.00   Z"/>
<path fill="#bacc96" d="   M 400.65 810.60   Q 491.44 808.30 488.92 802.00 101.20 7.00   Q 487.43 799.82 487.13 797.00 96.20 4.00   Q 490.73 803.78 492.85 810.00 98.20 0.00   Z"/>
</svg>