<svg xmlns="http://www.w3.org/2000/svg" version="1.1" viewBox="0.00 0.00 1500.00 888.00" width="1125.3543307086616" height="666.1417322834646">
<g stroke-width="2.00" fill="none" stroke-linecap="butt">
<path stroke="none" vector-effect="non-scaling-stroke" d="   M 1500.00 787.99   L 0.00 788.01"/>
<path stroke="none" vector-effect="non-scaling-stroke" d="   M 756.15 413.19   Q 761.47 421.48 767.08 428.04   Q 768.95 430.23 775.77 436.36   C 780.24 440.38 784.17 438.55 788.52 434.80   Q 803.84 421.57 813.73 413.56   Q 816.69 411.16 817.06 409.81   C 817.87 406.83 816.30 403.81 814.45 401.36   Q 809.28 394.54 806.35 389.20   C 802.23 381.69 801.33 374.32 801.35 364.66   Q 801.41 328.18 801.31 292.51   Q 801.27 278.34 797.92 267.31   C 784.50 223.15 718.02 221.18 684.03 236.51   Q 653.57 250.24 646.26 283.05   C 644.53 290.80 649.19 292.24 655.96 292.92   Q 682.66 295.61 684.96 295.97   C 692.29 297.14 692.99 291.25 694.77 285.49   C 699.33 270.74 715.74 265.21 729.67 267.85   C 742.05 270.19 748.06 280.00 748.54 291.78   Q 748.80 298.20 748.62 307.96   A 0.41 0.40 -3.2 0 1 748.25 308.36   Q 731.60 309.99 717.07 311.89   C 698.61 314.30 678.66 318.49 663.68 330.18   Q 638.60 349.76 639.27 384.01   C 639.68 405.33 648.50 424.54 668.24 434.01   C 682.15 440.69 699.47 440.81 714.04 438.04   C 730.73 434.86 743.97 425.30 755.39 413.13   A 0.49 0.48 -39.8 0 1 756.15 413.19"/>
<path stroke="none" vector-effect="non-scaling-stroke" d="   M 269.73 413.17   Q 275.05 421.45 280.66 428.01   Q 282.53 430.20 289.35 436.33   C 293.82 440.35 297.75 438.52 302.10 434.77   Q 317.41 421.54 327.30 413.54   Q 330.26 411.14 330.63 409.79   C 331.44 406.81 329.87 403.79 328.02 401.34   Q 322.85 394.52 319.92 389.18   C 315.80 381.67 314.90 374.30 314.92 364.64   Q 314.98 328.17 314.89 292.51   Q 314.85 278.34 311.50 267.31   C 298.08 223.16 231.61 221.19 197.63 236.52   Q 167.17 250.24 159.86 283.05   C 158.13 290.80 162.79 292.24 169.56 292.92   Q 196.26 295.61 198.56 295.97   C 205.88 297.14 206.58 291.25 208.36 285.49   C 212.92 270.74 229.33 265.21 243.26 267.85   C 255.64 270.19 261.64 280.00 262.12 291.78   Q 262.38 298.20 262.20 307.95   A 0.41 0.40 -3.2 0 1 261.83 308.35   Q 245.19 309.98 230.66 311.88   C 212.20 314.29 192.26 318.48 177.28 330.17   Q 152.20 349.75 152.87 383.99   C 153.28 405.31 162.10 424.51 181.84 433.98   C 195.74 440.66 213.06 440.78 227.63 438.01   C 244.32 434.83 257.55 425.27 268.97 413.11   A 0.49 0.48 -39.8 0 1 269.73 413.17"/>
<path stroke="none" vector-effect="non-scaling-stroke" d="   M 367.77 437.13   L 372.81 437.12"/>
<path stroke="none" vector-effect="non-scaling-stroke" d="   M 372.81 437.12   Q 386.54 437.17 399.78 437.12   C 403.36 437.11 405.64 436.49 407.65 433.84   Q 408.74 432.40 408.74 427.43   Q 408.68 374.98 408.73 323.50   C 408.75 309.17 408.84 283.91 426.21 278.46   C 435.21 275.64 446.84 277.33 451.89 286.38   Q 455.88 293.53 456.60 302.00   Q 457.15 308.51 457.15 310.23   Q 457.04 347.50 457.06 427.38   Q 457.06 432.96 458.33 434.62   Q 460.57 437.52 465.02 437.54   Q 475.16 437.59 498.54 437.56   C 502.70 437.55 505.11 437.17 507.21 434.01   Q 508.13 432.62 508.13 426.81   Q 508.10 334.21 508.13 317.68   Q 508.15 309.95 509.19 302.21   C 510.95 289.14 518.15 279.92 531.48 277.76   Q 535.49 277.11 541.64 278.59   C 556.07 282.07 556.62 297.20 556.53 309.76   Q 556.32 339.19 556.41 429.62   C 556.41 436.07 560.32 437.62 566.45 437.59   Q 589.85 437.50 596.71 437.61   C 602.84 437.71 606.92 436.27 606.91 429.52   Q 606.86 390.03 606.89 316.34   C 606.89 306.08 607.46 294.91 607.10 284.99   C 606.54 269.83 603.90 256.19 593.07 245.13   C 579.73 231.52 559.26 226.66 541.07 231.17   Q 514.07 237.85 503.69 264.05   A 0.38 0.38 0.0 0 1 502.99 264.05   C 494.92 244.57 481.17 230.76 459.24 229.69   C 432.86 228.41 415.95 240.98 406.55 264.79   A 0.39 0.39 0.0 0 1 405.80 264.65   Q 405.75 252.97 405.80 241.75   Q 405.83 235.29 400.42 233.90   A 3.63 3.50 -36.6 0 0 399.50 233.78   Q 391.67 233.77 367.36 233.72   C 361.80 233.71 357.37 235.00 357.37 241.12   Q 357.40 396.67 357.34 427.92   Q 357.33 431.63 358.15 433.18   C 359.99 436.69 363.96 437.51 367.77 437.13"/>
<path stroke="none" vector-effect="non-scaling-stroke" d="   M 372.81 437.12   Q 370.00 437.30 373.57 435.08   Q 376.06 433.54 376.48 432.43   C 377.20 430.57 377.74 426.99 375.14 426.01   C 371.68 424.71 369.01 426.18 365.76 426.95   A 1.54 1.54 0.0 0 1 363.96 425.98   L 363.78 425.51   A 1.76 1.76 0.0 0 1 364.81 423.25   L 369.67 421.44   A 1.16 1.16 0.0 0 0 369.47 419.21   Q 363.69 418.15 361.12 423.00   C 359.38 426.28 361.41 430.50 365.65 429.59   Q 372.23 428.17 372.25 428.17   A 1.62 1.62 0.0 0 1 374.07 430.07   L 373.93 430.83   A 3.50 3.50 0.0 0 1 370.99 433.65   C 369.81 433.82 367.25 433.62 367.03 434.02   Q 366.69 434.64 366.95 435.18   Q 366.98 435.24 367.66 435.80   Q 368.13 436.19 367.77 437.13"/>
<path stroke="none" vector-effect="non-scaling-stroke" d="   M 1003.66 335.34   Q 1003.66 346.79 1004.88 356.51   C 1009.68 394.84 1030.09 431.69 1070.78 439.62   C 1099.13 445.14 1127.46 436.41 1146.43 414.37   C 1165.02 392.79 1171.99 363.23 1171.99 335.29   C 1171.98 307.34 1164.99 277.79 1146.39 256.22   C 1127.40 234.19 1099.07 225.48 1070.72 231.01   C 1030.04 238.97 1009.65 275.83 1004.87 314.16   Q 1003.65 323.88 1003.66 335.34"/>
<path stroke="none" vector-effect="non-scaling-stroke" d="   M 1247.80 267.85   Q 1247.76 252.08 1247.76 244.27   Q 1247.75 238.71 1246.73 236.76   Q 1244.94 233.36 1240.26 233.39   Q 1224.70 233.46 1209.42 233.35   C 1204.20 233.31 1200.61 234.11 1199.34 239.23   A 2.23 2.13 53.1 0 0 1199.28 239.74   Q 1199.28 422.90 1199.27 428.80   C 1199.25 435.20 1202.83 437.20 1209.21 437.17   Q 1232.81 437.09 1241.29 437.15   C 1245.32 437.18 1247.78 436.34 1249.81 433.22   Q 1250.73 431.80 1250.73 426.08   Q 1250.72 332.99 1250.72 323.76   Q 1250.71 309.97 1254.56 296.89   C 1257.73 286.11 1266.13 276.48 1277.78 276.40   Q 1293.31 276.29 1298.16 291.07   Q 1301.06 299.90 1301.08 310.51   Q 1301.14 354.12 1301.05 428.52   C 1301.04 436.19 1305.60 437.27 1312.40 437.20   Q 1321.50 437.10 1343.74 437.13   C 1346.94 437.13 1349.03 436.51 1350.95 434.24   Q 1352.11 432.87 1352.11 428.49   Q 1352.09 335.02 1352.09 302.75   Q 1352.09 283.33 1348.68 267.56   C 1344.63 248.82 1330.66 234.82 1311.82 230.88   C 1298.67 228.14 1282.33 229.36 1270.98 236.93   C 1260.10 244.18 1254.01 254.92 1248.73 267.27   Q 1248.52 267.76 1248.21 268.04   A 0.25 0.25 0.0 0 1 1247.80 267.85"/>
<path stroke="none" vector-effect="non-scaling-stroke" d="   M 915.92 274.31   A 0.26 0.26 0.0 0 1 916.13 274.72   Q 866.80 345.43 849.82 369.63   Q 842.59 379.91 841.48 382.07   Q 838.72 387.40 838.68 396.77   Q 838.58 417.43 838.67 424.75   Q 838.74 429.73 843.20 431.77   Q 845.37 432.75 847.10 431.84   C 886.61 410.98 934.22 410.13 974.30 430.24   Q 977.55 431.87 978.77 431.91   C 982.58 432.03 985.14 428.35 985.16 424.76   Q 985.25 409.41 985.10 395.25   C 985.05 390.48 981.81 386.66 977.21 384.30   C 956.59 373.72 933.34 370.00 910.24 370.62   A 0.41 0.40 -73.2 0 1 909.90 369.98   Q 942.72 323.28 975.86 275.86   Q 979.04 271.31 980.89 267.21   A 10.23 10.09 57.6 0 0 981.80 263.00   Q 981.83 252.76 981.83 240.99   C 981.83 234.40 977.17 233.08 971.21 233.38   Q 970.68 233.41 855.43 233.38   C 849.86 233.38 846.00 234.22 845.81 240.27   Q 845.77 241.56 845.78 265.42   C 845.78 272.65 849.02 274.33 856.23 274.32   Q 888.97 274.27 915.92 274.31"/>
<path stroke="none" vector-effect="non-scaling-stroke" d="   M 906.91 557.57   C 905.26 561.85 909.18 564.51 912.86 562.84   Q 915.51 561.65 918.09 559.35   Q 927.86 550.67 935.34 538.84   Q 952.31 511.99 957.15 480.23   C 958.00 474.65 959.94 457.41 954.94 453.81   C 949.12 449.61 939.06 447.74 932.50 447.00   C 902.11 443.54 867.68 447.55 842.05 465.77   C 839.53 467.56 837.37 471.25 840.01 473.84   A 1.83 1.83 0.0 0 0 840.94 474.34   Q 843.40 474.83 844.22 474.72   Q 869.80 471.07 893.65 470.39   Q 896.83 470.31 903.33 470.65   C 910.41 471.03 926.06 471.87 927.41 481.17   Q 928.71 490.17 926.36 500.09   C 921.63 520.12 914.43 538.02 906.91 557.57"/>
<path stroke="none" vector-effect="non-scaling-stroke" d="   M 321.85 463.11   C 321.52 465.24 322.88 467.56 324.48 469.01   C 387.12 525.76 464.95 564.39 548.08 580.39   C 641.85 598.44 738.75 587.62 826.32 550.31   C 851.13 539.74 876.22 526.03 897.95 509.47   C 903.82 505.00 903.25 496.09 895.73 493.51   Q 891.05 491.90 886.16 493.96   Q 850.17 509.04 814.01 519.26   Q 675.85 558.34 533.42 532.88   Q 426.15 513.71 332.56 460.23   C 328.31 457.80 322.87 456.69 321.85 463.11"/>
<path stroke="none" vector-effect="non-scaling-stroke" d="   M 740.05 388.63   Q 741.39 389.11 741.36 391.22   Q 741.35 392.48 741.60 393.65   C 742.06 395.83 744.59 395.04 745.83 394.23   A 0.84 0.83 67.0 0 0 746.19 393.33   C 745.21 389.23 745.47 386.57 751.06 386.79   A 1.38 1.38 0.0 0 0 752.40 384.93   L 751.88 383.53   A 1.93 1.92 79.7 0 0 750.08 382.28   L 746.26 382.28   A 1.32 1.30 18.4 0 0 745.22 382.79   Q 744.11 384.22 743.19 383.32"/>
<path stroke="none" vector-effect="non-scaling-stroke" d="   M 743.19 383.32   Q 747.98 372.58 748.49 357.99   Q 748.80 348.83 748.59 338.68   A 0.38 0.38 0.0 0 0 748.22 338.31   C 729.32 337.93 703.40 341.47 695.87 361.85   C 690.79 375.60 693.47 399.12 711.88 402.11   C 723.50 404.00 733.77 398.23 740.05 388.63"/>
<path stroke="none" vector-effect="non-scaling-stroke" d="   M 743.19 383.32   L 740.05 388.63"/>
<path stroke="none" vector-effect="non-scaling-stroke" d="   M 261.98 338.24   C 239.80 338.15 211.40 342.69 208.00 369.82   C 206.49 381.90 209.71 396.86 222.51 401.24   C 234.60 405.38 247.12 399.25 254.01 388.79   Q 261.51 377.38 262.29 362.72   Q 263.07 347.91 262.58 338.82   A 0.61 0.60 88.5 0 0 261.98 338.24"/>
<path stroke="none" vector-effect="non-scaling-stroke" d="   M 402.38 393.38   L 406.35 398.40   A 0.22 0.22 0.0 0 0 406.65 398.44   L 406.87 398.27   A 3.22 2.41 51.7 0 0 406.76 394.25   L 406.51 393.93   A 3.22 2.41 51.7 0 0 402.63 392.90   L 402.42 393.07   A 0.22 0.22 0.0 0 0 402.38 393.38"/>
<path stroke="none" vector-effect="non-scaling-stroke" d="   M 407.00 405.51   Q 406.92 405.42 405.98 405.23   A 2.15 2.12 -16.2 0 1 404.87 404.63   L 398.77 398.54   A 1.45 1.45 0.0 0 0 397.48 398.14   L 397.18 398.20   A 0.90 0.90 0.0 0 0 396.67 399.61   C 398.97 402.73 402.30 407.34 405.22 408.13   A 1.69 1.61 -12.2 0 0 407.00 405.51"/>
<path stroke="none" vector-effect="non-scaling-stroke" d="   M 401.57 411.39   Q 398.70 407.50 396.11 404.81   C 392.79 401.36 389.53 404.62 387.78 407.48   A 1.12 1.12 0.0 0 1 387.00 408.00   Q 385.86 408.17 385.09 408.83   A 0.53 0.53 0.0 0 0 385.02 409.55   L 392.27 418.83   A 0.97 0.96 -37.7 0 0 393.63 419.00   L 394.04 418.68   A 1.25 1.25 0.0 0 0 394.26 416.92   L 389.44 410.74   A 2.66 2.66 0.0 0 1 389.90 407.00   L 390.99 406.15   A 2.42 2.41 -37.8 0 1 394.38 406.57   L 399.21 412.76   A 1.35 1.34 -32.8 0 0 400.90 413.12   L 401.26 412.93   A 1.06 1.06 0.0 0 0 401.57 411.39"/>
<path stroke="none" vector-effect="non-scaling-stroke" d="   M 389.09 421.45   Q 387.01 418.17 384.08 415.19   C 380.74 411.76 375.80 415.55 374.85 419.15   A 1.50 1.48 17.8 0 0 375.77 420.92   L 376.04 421.02   A 0.70 0.70 0.0 0 0 376.97 420.54   L 377.87 417.18   A 0.79 0.79 0.0 0 1 378.32 416.66   Q 379.69 416.06 381.41 416.63   A 1.52 1.52 0.0 0 1 381.52 419.47   C 379.05 420.50 376.60 423.92 378.28 426.62   C 379.66 428.85 382.86 428.02 384.45 426.24   Q 385.03 425.61 388.91 422.48   A 0.79 0.78 -35.4 0 0 389.09 421.45"/>
<path stroke="none" vector-effect="non-scaling-stroke" d="   M 1084.75 402.02   C 1096.06 403.09 1105.87 395.85 1109.85 385.80   Q 1115.24 372.20 1116.19 356.98   Q 1117.82 331.02 1115.22 307.01   Q 1114.15 297.12 1111.63 288.38   C 1108.46 277.39 1101.99 269.84 1090.02 268.92   C 1062.79 266.83 1058.93 298.09 1058.20 318.00   C 1057.59 334.59 1057.58 353.74 1060.81 371.44   C 1063.26 384.91 1069.50 400.57 1084.75 402.02"/>
<path stroke="none" vector-effect="non-scaling-stroke" d="   M 383.32 420.09   L 380.08 423.38   A 0.79 0.79 0.0 0 0 380.08 424.50   L 380.50 424.91   A 2.66 2.43 -45.4 0 0 384.09 424.72   L 384.71 424.09   A 2.66 2.43 -45.4 0 0 384.85 420.49   L 384.44 420.08   A 0.79 0.79 0.0 0 0 383.32 420.09"/>
<path stroke="none" vector-effect="non-scaling-stroke" d="   M 1500.00 887.46   Q 1499.90 887.89 1499.57 888.00"/>
<path stroke="none" vector-effect="non-scaling-stroke" d="   M 87.49 841.86   Q 87.48 838.54 87.50 829.75   Q 87.53 820.67 78.49 821.08   C 77.63 821.12 76.80 821.46 76.06 821.48   A 0.68 0.68 0.0 0 1 75.37 820.80   L 75.37 814.20   A 0.56 0.56 0.0 0 0 74.81 813.64   L 71.21 813.64   A 0.57 0.56 0.0 0 0 70.64 814.20   L 70.64 841.98   A 0.54 0.54 0.0 0 0 71.18 842.52   L 74.90 842.52   A 0.47 0.46 90.0 0 0 75.36 842.05   L 75.36 827.58   A 2.21 2.21 0.0 0 1 77.57 825.37   L 79.36 825.37   A 3.33 3.32 0.0 0 1 82.69 828.69   L 82.69 841.88   A 0.62 0.62 0.0 0 0 83.31 842.50   L 86.85 842.50   A 0.64 0.64 0.0 0 0 87.49 841.86"/>
<path stroke="none" vector-effect="non-scaling-stroke" d="   M 239.56 828.62   L 239.56 814.25   A 0.61 0.61 0.0 0 0 238.95 813.64   L 235.43 813.64   A 0.66 0.65 90.0 0 0 234.78 814.30   L 234.78 841.76   A 0.75 0.74 -90.0 0 0 235.52 842.51   L 238.90 842.51   A 0.69 0.69 0.0 0 0 239.59 841.82   L 239.59 835.53   A 0.93 0.93 0.0 0 1 241.25 834.96   L 246.55 841.75   A 2.00 1.98 70.9 0 0 248.12 842.52   L 251.96 842.52   A 0.43 0.43 0.0 0 0 252.30 841.82   L 244.32 831.59   A 1.01 1.00 47.0 0 1 244.36 830.31   L 251.74 822.07   A 0.41 0.41 0.0 0 0 251.43 821.39   L 247.48 821.39   A 2.06 2.04 20.8 0 0 245.95 822.07   L 239.96 828.77   A 0.23 0.23 0.0 0 1 239.56 828.62"/>
<path stroke="none" vector-effect="non-scaling-stroke" d="   M 115.03 813.97   L 111.90 815.78   A 1.62 1.60 75.4 0 0 111.09 817.18   L 111.09 820.72   A 0.61 0.60 90.0 0 1 110.49 821.33   L 109.37 821.33   A 0.57 0.57 0.0 0 0 108.80 821.90   L 108.80 825.40   A 0.57 0.57 0.0 0 0 109.46 825.96   Q 110.39 825.82 110.74 826.05   A 0.85 0.81 17.3 0 1 111.12 826.74   C 111.14 833.23 109.14 843.71 119.74 842.48   A 0.76 0.75 -3.4 0 0 120.41 841.73   L 120.41 839.03   A 1.02 1.01 2.5 0 0 119.48 838.02   C 117.25 837.84 115.84 837.07 115.80 834.63   Q 115.71 829.51 115.80 826.28   A 0.43 0.43 0.0 0 1 116.23 825.86   L 122.75 825.86   A 0.43 0.43 0.0 0 1 123.18 826.29   Q 123.24 830.80 123.16 833.14   C 122.96 839.52 124.83 843.12 131.83 842.50   A 0.73 0.73 0.0 0 0 132.49 841.77   L 132.49 839.11   A 0.93 0.93 0.0 0 0 131.79 838.21   C 129.85 837.68 128.08 837.63 127.86 835.10   Q 127.45 830.44 127.80 826.44   A 0.61 0.60 2.6 0 1 128.41 825.89   L 131.96 825.89   A 1.04 1.04 0.0 0 0 133.00 824.85   L 133.00 822.11   A 0.71 0.71 0.0 0 0 132.29 821.40   L 128.23 821.40   A 0.54 0.53 0.0 0 1 127.69 820.87   L 127.69 814.51   A 0.55 0.55 0.0 0 0 126.86 814.03   L 123.99 815.68   A 1.59 1.58 -15.2 0 0 123.20 817.05   L 123.20 820.39   A 1.02 1.02 0.0 0 1 122.18 821.41   L 116.59 821.41   A 0.81 0.80 -90.0 0 1 115.79 820.60   L 115.79 814.40   A 0.51 0.50 -15.2 0 0 115.03 813.97"/>
<path stroke="none" vector-effect="non-scaling-stroke" d="   M 185.71 815.89   A 1.17 1.17 0.0 0 0 185.13 816.90   L 185.13 820.81   A 0.57 0.56 -0.0 0 1 184.56 821.37   L 183.23 821.37   A 0.63 0.63 0.0 0 0 182.60 822.00   L 182.60 825.08   A 0.65 0.65 0.0 0 0 183.26 825.73   Q 185.12 825.70 185.12 826.80   C 185.11 833.50 183.05 843.87 194.13 842.42   A 0.29 0.28 86.7 0 0 194.38 842.13   L 194.38 838.44   A 0.31 0.31 0.0 0 0 194.07 838.13   Q 190.28 838.17 189.79 835.17   C 189.42 832.95 189.56 828.52 189.65 826.46   A 0.57 0.57 0.0 0 1 190.22 825.91   L 193.93 825.91   A 0.99 0.99 0.0 0 0 194.92 824.92   L 194.92 822.14   A 0.75 0.74 -0.0 0 0 194.17 821.40   L 190.15 821.40   A 0.53 0.53 0.0 0 1 189.62 820.87   L 189.62 814.43   A 0.46 0.46 0.0 0 0 188.93 814.03   L 185.71 815.89"/>
<path stroke="none" vector-effect="non-scaling-stroke" d="   M 1266.8793 820.6911   A 0.56 0.56 0.0 0 0 1266.3203 820.1301   L 1266.1603 820.1299   A 0.56 0.56 0.0 0 0 1265.5993 820.6889   L 1265.5807 831.3289   A 0.56 0.56 0.0 0 0 1266.1397 831.8899   L 1266.2997 831.8901   A 0.56 0.56 0.0 0 0 1266.8607 831.3311   L 1266.8793 820.6911"/>
<path stroke="none" vector-effect="non-scaling-stroke" d="   M 1303.84 822.26   L 1303.84 821.49   A 0.65 0.65 0.0 0 0 1303.42 820.88   C 1298.51 818.93 1293.62 820.72 1294.06 826.76   C 1294.45 832.18 1299.46 833.34 1303.71 831.27   A 0.88 0.87 77.1 0 0 1304.20 830.48   L 1304.20 826.42   A 0.50 0.50 0.0 0 0 1303.70 825.92   L 1300.37 825.92   A 0.36 0.36 0.0 0 0 1300.01 826.28   L 1300.01 826.69   A 0.47 0.46 0.0 0 0 1300.48 827.15   L 1301.35 827.15   A 1.71 1.71 0.0 0 1 1302.17 830.37   Q 1300.48 831.28 1298.11 830.57   C 1295.33 829.74 1295.25 825.28 1296.30 823.33   C 1297.66 820.78 1301.27 821.19 1303.39 822.51   A 0.29 0.29 0.0 0 0 1303.84 822.26"/>
<path stroke="none" vector-effect="non-scaling-stroke" d="   M 1323.8109 820.8587   A 0.74 0.74 0.0 0 0 1323.0696 820.1200   L 1323.0096 820.1201   A 0.74 0.74 0.0 0 0 1322.2709 820.8614   L 1322.2891 831.3413   A 0.74 0.74 0.0 0 0 1323.0304 832.0800   L 1323.0904 832.0799   A 0.74 0.74 0.0 0 0 1323.8291 831.3386   L 1323.8109 820.8587"/>
<path stroke="none" vector-effect="non-scaling-stroke" d="   M 1275.54 829.67   Q 1275.79 829.67 1276.02 829.62   A 0.85 0.85 0.0 0 0 1276.61 829.10   L 1278.95 822.92   A 0.21 0.21 0.0 0 1 1279.36 823.00   L 1279.36 831.42   A 0.57 0.56 0.0 0 0 1279.93 831.98   L 1280.35 831.98   A 0.50 0.50 0.0 0 0 1280.85 831.48   L 1280.85 821.44   A 1.31 1.31 0.0 0 0 1278.32 820.98   Q 1277.15 824.12 1275.85 827.39   Q 1275.76 827.62 1275.55 827.62   Q 1275.33 827.62 1275.25 827.39   Q 1273.98 824.11 1272.83 820.96   A 1.31 1.31 0.0 0 0 1270.30 821.40   L 1270.22 831.44   A 0.50 0.50 0.0 0 0 1270.72 831.94   L 1271.14 831.95   A 0.57 0.56 0.4 0 0 1271.71 831.39   L 1271.77 822.97   A 0.21 0.21 0.0 0 1 1272.18 822.89   L 1274.48 829.09   A 0.85 0.85 0.0 0 0 1275.06 829.61   Q 1275.29 829.67 1275.54 829.67"/>
<path stroke="none" vector-effect="non-scaling-stroke" d="   M 1287.90 828.95   Q 1288.81 828.95 1290.08 829.10   A 0.79 0.78 82.8 0 1 1290.72 829.60   L 1291.38 831.37   A 0.95 0.93 -8.1 0 0 1292.20 831.97   L 1292.52 831.99   A 0.50 0.50 0.0 0 0 1293.01 831.31   Q 1290.41 824.47 1288.96 820.83   Q 1288.70 820.16 1287.91 820.16   Q 1287.12 820.16 1286.86 820.83   Q 1285.40 824.47 1282.79 831.30   A 0.50 0.50 0.0 0 0 1283.28 831.98   L 1283.60 831.96   A 0.95 0.93 8.2 0 0 1284.42 831.36   L 1285.08 829.59   A 0.79 0.78 -82.7 0 1 1285.73 829.09   Q 1286.99 828.95 1287.90 828.95"/>
<path stroke="none" vector-effect="non-scaling-stroke" d="   M 1314.46 820.65   A 0.29 0.29 0.0 0 0 1314.17 820.36   L 1307.33 820.36   A 0.29 0.29 0.0 0 0 1307.04 820.65   L 1307.04 831.68   A 0.29 0.29 0.0 0 0 1307.33 831.97   L 1314.33 831.97   A 0.29 0.29 0.0 0 0 1314.62 831.68   L 1314.62 830.93   A 0.29 0.29 0.0 0 0 1314.33 830.64   L 1308.95 830.64   A 0.29 0.29 0.0 0 1 1308.66 830.35   L 1308.66 826.79   A 0.29 0.29 0.0 0 1 1308.95 826.50   L 1313.91 826.50   A 0.29 0.29 0.0 0 0 1314.20 826.21   L 1314.20 825.41   A 0.29 0.29 0.0 0 0 1313.91 825.12   L 1308.95 825.12   A 0.29 0.29 0.0 0 1 1308.66 824.83   L 1308.66 821.98   A 0.29 0.29 0.0 0 1 1308.95 821.69   L 1314.17 821.69   A 0.29 0.29 0.0 0 0 1314.46 821.40   L 1314.46 820.65"/>
<path stroke="none" vector-effect="non-scaling-stroke" d="   M 1326.97 820.74   L 1326.93 831.54   A 0.41 0.41 0.0 0 0 1327.34 831.95   L 1331.29 831.97   A 5.46 5.20 0.2 0 0 1336.77 826.79   L 1336.77 825.57   A 5.46 5.20 0.2 0 0 1331.33 820.35   L 1327.38 820.33   A 0.41 0.41 0.0 0 0 1326.97 820.74"/>
<path stroke="none" vector-effect="non-scaling-stroke" d="   M 1349.97 822.08   Q 1351.38 821.54 1352.57 821.39   A 2.41 2.07 -5.2 0 1 1355.25 823.30   C 1355.34 825.35 1351.58 828.50 1349.40 830.64   A 0.68 0.68 0.0 0 0 1349.88 831.80   L 1356.21 831.85   A 0.44 0.43 -89.5 0 0 1356.64 831.41   L 1356.65 831.08   A 0.34 0.34 0.0 0 0 1356.31 830.74   L 1351.83 830.70   A 0.37 0.36 -65.3 0 1 1351.59 830.06   C 1354.05 827.94 1357.15 825.41 1356.24 822.02   A 1.44 1.42 8.9 0 0 1355.65 821.21   Q 1352.86 819.40 1349.47 821.19   A 0.24 0.24 0.0 0 0 1349.37 821.51   L 1349.62 821.96   A 0.29 0.28 -25.0 0 0 1349.97 822.08"/>
<path stroke="none" vector-effect="non-scaling-stroke" d="   M 1360.17 822.10   Q 1361.58 821.55 1362.77 821.39   A 2.42 2.08 -5.6 0 1 1365.47 823.28   C 1365.58 825.34 1361.83 828.52 1359.67 830.68   A 0.68 0.68 0.0 0 0 1360.16 831.84   L 1366.50 831.84   A 0.44 0.43 -90.0 0 0 1366.93 831.40   L 1366.93 831.07   A 0.34 0.34 0.0 0 0 1366.59 830.73   L 1362.10 830.73   A 0.37 0.36 -65.7 0 1 1361.86 830.09   C 1364.30 827.94 1367.39 825.38 1366.45 821.99   A 1.44 1.43 8.4 0 0 1365.85 821.19   Q 1363.04 819.39 1359.66 821.21   A 0.24 0.24 0.0 0 0 1359.56 821.54   L 1359.82 821.98   A 0.29 0.28 -25.5 0 0 1360.17 822.10"/>
<path stroke="none" vector-effect="non-scaling-stroke" d="   M 1372.21 831.94   L 1372.54 831.94   A 0.79 0.78 9.9 0 0 1373.28 831.42   L 1377.20 821.01   A 0.44 0.44 0.0 0 0 1376.78 820.41   L 1370.37 820.44   A 0.33 0.33 0.0 0 0 1370.04 820.77   L 1370.04 821.08   A 0.47 0.46 89.8 0 0 1370.51 821.55   L 1374.88 821.53   A 0.49 0.48 -79.7 0 1 1375.34 822.19   L 1371.86 831.44   A 0.37 0.37 0.0 0 0 1372.21 831.94"/>
<path stroke="none" vector-effect="non-scaling-stroke" d="   M 1387.5535 823.8240   A 3.47 3.47 0.0 0 0 1384.0594 820.3783   L 1383.5394 820.3820   A 3.47 3.47 0.0 0 0 1380.0937 823.8761   L 1380.1265 828.5760   A 3.47 3.47 0.0 0 0 1383.6206 832.0217   L 1384.1406 832.0180   A 3.47 3.47 0.0 0 0 1387.5863 828.5239   L 1387.5535 823.8240"/>
<path stroke="none" vector-effect="non-scaling-stroke" d="   M 1407.50 821.03   A 0.32 0.32 0.0 0 0 1407.28 820.63   C 1400.21 818.53 1399.46 825.87 1401.28 830.56   A 1.83 1.78 4.9 0 0 1402.07 831.47   C 1404.46 832.81 1407.44 832.19 1408.06 829.12   C 1408.75 825.69 1405.38 822.93 1402.34 825.14   A 0.32 0.32 0.0 0 1 1401.83 824.87   Q 1402.09 820.38 1406.93 821.66   A 0.39 0.39 0.0 0 0 1407.41 821.38   L 1407.50 821.03"/>
<path stroke="none" vector-effect="non-scaling-stroke" d="   M 1424.5813 820.1000   A 6.10 4.05 -89.8 0 0 1420.5100 826.1859   A 6.10 4.05 -89.8 0 0 1424.5387 832.3000   A 6.10 4.05 -89.8 0 0 1428.6100 826.2141   A 6.10 4.05 -89.8 0 0 1424.5813 820.1000"/>
<path stroke="none" vector-effect="non-scaling-stroke" d="   M 1431.35 822.13   Q 1432.76 821.57 1433.95 821.41   A 2.42 2.08 -6.0 0 1 1436.67 823.28   C 1436.79 825.34 1433.05 828.55 1430.90 830.72   A 0.68 0.68 0.0 0 0 1431.40 831.88   L 1437.75 831.84   A 0.44 0.43 89.7 0 0 1438.17 831.40   L 1438.17 831.07   A 0.34 0.34 0.0 0 0 1437.83 830.73   L 1433.34 830.76   A 0.37 0.37 0.0 0 1 1433.09 830.12   C 1435.52 827.95 1438.60 825.37 1437.64 821.98   A 1.44 1.43 8.1 0 0 1437.03 821.19   Q 1434.21 819.40 1430.84 821.24   A 0.24 0.24 0.0 0 0 1430.74 821.57   L 1431.00 822.01   A 0.29 0.28 -25.8 0 0 1431.35 822.13"/>
<path stroke="none" vector-effect="non-scaling-stroke" d="   M 1443.47 831.93   L 1443.80 831.93   A 0.79 0.78 10.1 0 0 1444.54 831.42   L 1448.48 821.04   A 0.44 0.44 0.0 0 0 1448.07 820.44   L 1441.67 820.44   A 0.33 0.33 0.0 0 0 1441.34 820.77   L 1441.34 821.08   A 0.47 0.46 90.0 0 0 1441.80 821.55   L 1446.17 821.55   A 0.49 0.48 -79.5 0 1 1446.62 822.21   L 1443.12 831.43   A 0.37 0.37 0.0 0 0 1443.47 831.93"/>
<path stroke="none" vector-effect="non-scaling-stroke" d="   M 1392.62 821.56   L 1396.38 821.56   A 0.32 0.31 90.0 0 0 1396.69 821.24   L 1396.69 820.92   A 0.50 0.50 0.0 0 0 1396.19 820.42   L 1391.34 820.42   A 0.59 0.59 0.0 0 0 1390.75 821.01   L 1390.75 825.30   A 0.55 0.55 0.0 0 0 1391.46 825.82   Q 1393.02 825.34 1394.54 825.86   C 1396.86 826.65 1396.67 829.65 1394.62 830.66   Q 1393.33 831.29 1390.82 830.43   A 0.49 0.49 0.0 0 0 1390.18 830.79   L 1390.14 830.96   A 0.60 0.60 0.0 0 0 1390.52 831.65   C 1398.86 834.75 1400.33 823.65 1392.47 824.38   A 0.53 0.52 87.5 0 1 1391.90 823.85   L 1391.90 822.27   A 0.72 0.71 0.0 0 1 1392.62 821.56"/>
<path stroke="none" vector-effect="non-scaling-stroke" d="   M 1411.85 822.09   Q 1412.32 821.93 1413.47 821.77   A 0.48 0.48 0.0 0 1 1414.01 822.25   L 1414.01 830.16   A 0.51 0.51 0.0 0 1 1413.50 830.67   L 1411.69 830.67   A 0.36 0.36 0.0 0 0 1411.33 831.03   L 1411.33 831.38   A 0.51 0.51 0.0 0 0 1411.84 831.89   L 1417.48 831.89   A 0.44 0.43 -90.0 0 0 1417.91 831.45   L 1417.91 831.09   A 0.43 0.43 0.0 0 0 1417.42 830.66   Q 1416.88 830.75 1415.93 830.68   A 0.62 0.61 2.0 0 1 1415.35 830.07   L 1415.35 821.15   A 0.79 0.78 85.4 0 0 1414.44 820.37   L 1411.41 820.87   A 0.43 0.43 0.0 0 0 1411.08 821.45   L 1411.20 821.78   A 0.52 0.51 -19.2 0 0 1411.85 822.09"/>
<path stroke="none" vector-effect="non-scaling-stroke" d="   M 258.62 823.02   A 2.28 2.28 0.0 0 0 256.34 820.74   A 2.28 2.28 0.0 0 0 254.06 823.02   A 2.28 2.28 0.0 0 0 256.34 825.30   A 2.28 2.28 0.0 0 0 258.62 823.02"/>
<path stroke="none" vector-effect="non-scaling-stroke" d="   M 67.16 825.83   L 67.82 823.37   A 1.08 1.07 -72.4 0 0 67.16 822.09   C 62.18 820.24 52.46 820.33 53.10 828.33   C 53.54 833.80 58.67 833.18 62.42 834.46   A 2.08 1.57 13.4 0 1 63.86 836.20   C 63.59 839.94 56.31 838.27 54.55 837.45   A 0.93 0.93 0.0 0 0 53.28 837.96   L 52.31 840.52   A 0.98 0.98 0.0 0 0 52.90 841.79   C 56.78 843.17 63.29 843.92 66.61 840.80   C 69.56 838.01 69.23 832.20 65.30 830.82   Q 62.83 829.95 59.26 829.32   A 1.79 1.72 22.4 0 1 58.05 826.59   C 59.55 824.53 63.71 825.68 65.82 826.51   A 1.01 1.00 -71.6 0 0 67.16 825.83"/>
<path stroke="none" vector-effect="non-scaling-stroke" d="   M 151.32 833.35   Q 151.38 830.03 151.41 828.52   C 151.48 823.69 147.73 821.04 143.02 821.06   C 137.01 821.07 134.59 824.35 134.65 829.96   C 134.71 835.25 133.89 840.52 139.54 842.40   Q 145.81 844.50 150.11 839.93   Q 150.62 839.39 150.66 839.05   Q 150.74 838.45 150.15 838.16   C 148.94 837.56 147.76 835.98 146.50 837.02   C 144.16 838.98 141.46 839.22 139.50 836.54   A 1.53 1.53 0.0 0 1 140.73 834.11   L 150.54 834.11   A 0.78 0.78 0.0 0 0 151.32 833.35"/>
<path stroke="none" vector-effect="non-scaling-stroke" d="   M 158.64 841.92   Q 158.67 838.02 158.61 829.87   Q 158.58 824.81 163.77 825.65   A 0.91 0.90 4.4 0 0 164.82 824.76   L 164.82 822.09   A 1.02 1.01 2.8 0 0 163.90 821.08   C 159.02 820.59 154.11 822.56 154.17 828.28   Q 154.25 837.69 154.06 841.85   A 0.64 0.64 0.0 0 0 154.70 842.51   L 158.04 842.51   A 0.60 0.60 0.0 0 0 158.64 841.92"/>
<path stroke="none" vector-effect="non-scaling-stroke" d="   M 179.98 825.83   L 180.64 823.37   A 1.09 1.07 -72.4 0 0 179.98 822.08   C 175.00 820.23 165.27 820.32 165.91 828.33   C 166.35 833.81 171.48 833.19 175.24 834.47   A 2.08 1.57 13.4 0 1 176.68 836.21   C 176.41 839.95 169.12 838.28 167.36 837.46   A 0.93 0.93 0.0 0 0 166.09 837.97   L 165.12 840.53   A 0.98 0.98 0.0 0 0 165.71 841.80   C 169.59 843.19 176.11 843.94 179.43 840.81   C 182.38 838.02 182.05 832.21 178.12 830.82   Q 175.65 829.95 172.07 829.32   A 1.80 1.72 22.4 0 1 170.86 826.59   C 172.36 824.53 176.53 825.68 178.64 826.51   A 1.02 1.00 -71.6 0 0 179.98 825.83"/>
<path stroke="none" vector-effect="non-scaling-stroke" d="   M 216.27 832.01   C 216.27 834.84 216.05 837.23 216.87 838.98   C 219.60 844.83 230.75 844.15 232.64 837.91   A 0.72 0.71 19.1 0 0 232.21 837.03   L 229.48 836.02   A 0.69 0.68 25.4 0 0 228.65 836.31   Q 228.42 836.67 227.13 837.55   Q 224.12 839.59 221.58 837.36   A 1.66 1.64 -77.4 0 1 221.09 836.57   C 220.67 835.08 220.78 833.60 220.78 832.00   C 220.78 830.40 220.66 828.93 221.09 827.44   A 1.66 1.64 77.4 0 1 221.58 826.65   Q 224.12 824.42 227.13 826.46   Q 228.42 827.33 228.65 827.69   A 0.69 0.68 -25.4 0 0 229.48 827.98   L 232.21 826.97   A 0.72 0.71 -19.1 0 0 232.64 826.09   C 230.74 819.85 219.59 819.18 216.86 825.04   C 216.05 826.78 216.27 829.18 216.27 832.01"/>
<path stroke="none" vector-effect="non-scaling-stroke" d="   M 90.34 821.38   A 0.47 0.47 0.0 0 0 89.87 821.85   Q 89.82 825.81 89.87 830.46   C 89.91 833.75 89.49 836.79 90.88 839.38   C 93.54 844.37 101.24 843.28 106.03 841.51   A 1.00 0.98 -10.2 0 0 106.69 840.58   L 106.69 821.90   A 0.51 0.51 0.0 0 0 106.18 821.39   L 102.45 821.39   A 0.50 0.50 0.0 0 0 101.95 821.89   L 101.95 837.09   A 1.99 1.98 7.5 0 1 99.45 839.00   L 96.50 838.21   A 2.54 2.53 7.7 0 1 94.63 835.77   L 94.63 821.85   A 0.47 0.47 0.0 0 0 94.16 821.38   L 90.34 821.38"/>
<path stroke="none" vector-effect="non-scaling-stroke" d="   M 198.17 823.32   C 196.09 825.51 196.49 828.72 196.64 831.86   A 0.71 0.70 88.6 0 0 197.34 832.53   L 200.74 832.53   A 0.73 0.73 0.0 0 0 201.47 831.79   Q 201.44 830.51 201.38 828.25   Q 201.35 827.01 201.66 826.68   Q 202.02 826.30 203.26 826.27   Q 205.52 826.22 206.80 826.19   A 0.73 0.73 0.0 0 0 207.51 825.42   L 207.34 822.02   A 0.71 0.70 -1.5 0 0 206.63 821.36   C 203.50 821.37 200.27 821.12 198.17 823.32"/>
<path stroke="none" vector-effect="non-scaling-stroke" d="   M 1340.5542 823.6147   A 1.15 0.93 -84.8 0 0 1339.5238 824.6757   A 1.15 0.93 -84.8 0 0 1340.3458 825.9053   A 1.15 0.93 -84.8 0 0 1341.3762 824.8443   A 1.15 0.93 -84.8 0 0 1340.5542 823.6147"/>
<path stroke="none" vector-effect="non-scaling-stroke" d="   M 1341.41 830.97   A 1.00 1.00 0.0 0 0 1340.41 829.97   A 1.00 1.00 0.0 0 0 1339.41 830.97   A 1.00 1.00 0.0 0 0 1340.41 831.97   A 1.00 1.00 0.0 0 0 1341.41 830.97"/>
<path stroke="none" vector-effect="non-scaling-stroke" d="   M 212.61 840.64   C 214.69 838.47 214.30 835.28 214.17 832.18   A 0.70 0.70 0.0 0 0 213.47 831.51   L 210.10 831.49   A 0.72 0.72 0.0 0 0 209.37 832.22   Q 209.40 833.49 209.45 835.73   Q 209.47 836.96 209.16 837.29   Q 208.80 837.66 207.57 837.69   Q 205.33 837.73 204.06 837.76   A 0.72 0.72 0.0 0 0 203.36 838.52   L 203.52 841.88   A 0.70 0.70 0.0 0 0 204.21 842.55   C 207.32 842.55 210.53 842.81 212.61 840.64"/>
<path stroke="none" vector-effect="non-scaling-stroke" d="   M 1337.79 852.64   Q 1338.01 850.59 1337.55 849.40   A 0.42 0.42 0.0 0 0 1336.74 849.55   L 1336.74 859.45   A 0.45 0.45 0.0 0 0 1337.19 859.90   L 1337.45 859.90   A 0.39 0.39 0.0 0 0 1337.84 859.51   L 1337.84 855.41   A 2.13 2.13 0.0 0 1 1339.68 853.30   L 1340.01 853.25   A 1.64 1.63 86.0 0 1 1341.87 854.88   L 1341.87 859.48   A 0.39 0.38 -0.0 0 0 1342.26 859.86   L 1342.58 859.86   A 0.34 0.34 0.0 0 0 1342.92 859.54   C 1343.07 856.45 1343.86 851.06 1338.96 852.58   A 0.49 0.48 0.9 0 0 1338.63 852.89   Q 1338.55 853.12 1338.41 853.16   A 0.49 0.48 84.8 0 1 1337.79 852.64"/>
<path stroke="none" vector-effect="non-scaling-stroke" d="   M 1409.92 859.69   A 0.19 0.19 0.0 0 0 1410.04 859.51   L 1410.04 856.73   A 0.19 0.19 0.0 0 1 1410.36 856.58   L 1414.05 859.89   A 0.19 0.19 0.0 0 0 1414.17 859.94   L 1415.22 859.94   A 0.19 0.19 0.0 0 0 1415.35 859.61   L 1411.62 856.27   A 0.19 0.19 0.0 0 1 1411.61 856.00   L 1414.70 852.54   A 0.19 0.19 0.0 0 0 1414.61 852.23   L 1414.41 852.17   A 0.19 0.19 0.0 0 0 1414.25 852.21   L 1410.25 855.34   A 0.19 0.19 0.0 0 1 1409.94 855.19   L 1409.94 849.59   A 0.19 0.19 0.0 0 0 1409.80 849.40   L 1409.11 849.21   A 0.19 0.19 0.0 0 0 1408.87 849.40   L 1408.87 859.81   A 0.19 0.19 0.0 0 0 1409.13 859.98   L 1409.92 859.69"/>
<path stroke="none" vector-effect="non-scaling-stroke" d="   M 1358.10 859.42   A 0.15 0.14 8.0 0 0 1357.99 859.28   L 1356.25 858.80   A 0.85 0.84 7.8 0 1 1355.63 857.99   L 1355.63 853.68   A 0.45 0.44 0.1 0 1 1356.09 853.24   L 1357.84 853.24   A 0.26 0.26 0.0 0 0 1358.10 852.98   L 1358.10 852.69   A 0.32 0.32 0.0 0 0 1357.78 852.37   L 1356.14 852.36   A 0.60 0.59 6.3 0 1 1355.56 851.64   Q 1355.74 850.83 1355.49 850.47   A 0.47 0.46 41.8 0 0 1354.71 850.51   Q 1353.99 851.81 1354.23 853.13   Q 1354.56 854.96 1354.56 855.04   Q 1354.59 858.16 1354.72 858.77   A 1.03 1.02 -84.2 0 0 1355.30 859.49   Q 1356.44 860.00 1357.86 859.95   A 0.25 0.25 0.0 0 0 1358.10 859.70   L 1358.10 859.42"/>
<path stroke="none" vector-effect="non-scaling-stroke" d="   M 1390.77 859.42   A 0.15 0.14 7.9 0 0 1390.66 859.28   L 1388.92 858.81   A 0.84 0.84 0.0 0 1 1388.30 858.00   L 1388.30 853.70   A 0.45 0.44 0.0 0 1 1388.75 853.26   L 1390.50 853.26   A 0.26 0.26 0.0 0 0 1390.76 853.00   L 1390.76 852.71   A 0.32 0.32 0.0 0 0 1390.44 852.39   L 1388.80 852.39   A 0.59 0.59 0.0 0 1 1388.22 851.67   Q 1388.40 850.86 1388.15 850.50   A 0.46 0.46 0.0 0 0 1387.37 850.54   Q 1386.66 851.84 1386.90 853.16   Q 1387.23 854.98 1387.23 855.06   Q 1387.27 858.17 1387.40 858.78   A 1.03 1.01 -84.3 0 0 1387.98 859.50   Q 1389.11 860.01 1390.53 859.95   A 0.25 0.25 0.0 0 0 1390.77 859.70   L 1390.77 859.42"/>
<path stroke="none" vector-effect="non-scaling-stroke" d="   M 1363.61 859.37   A 0.15 0.14 7.6 0 0 1363.50 859.23   L 1361.76 858.77   A 0.84 0.84 0.0 0 1 1361.14 857.97   L 1361.12 853.69   A 0.45 0.44 -0.3 0 1 1361.57 853.25   L 1363.31 853.24   A 0.26 0.26 0.0 0 0 1363.57 852.98   L 1363.57 852.69   A 0.32 0.32 0.0 0 0 1363.25 852.37   L 1361.62 852.38   A 0.59 0.59 0.0 0 1 1361.03 851.66   Q 1361.21 850.86 1360.96 850.50   A 0.46 0.46 0.0 0 0 1360.18 850.54   Q 1359.48 851.84 1359.73 853.15   Q 1360.06 854.96 1360.06 855.04   Q 1360.12 858.14 1360.25 858.75   A 1.03 1.01 -84.6 0 0 1360.83 859.46   Q 1361.96 859.96 1363.37 859.90   A 0.25 0.25 0.0 0 0 1363.61 859.65   L 1363.61 859.37"/>
<path stroke="none" vector-effect="non-scaling-stroke" d="   M 1307.60 854.86   Q 1308.11 854.86 1309.25 859.32   A 0.87 0.87 0.0 0 0 1310.93 859.34   L 1312.65 853.07   A 0.57 0.57 0.0 0 0 1312.25 852.37   L 1311.96 852.29   A 0.30 0.30 0.0 0 0 1311.60 852.50   L 1310.35 857.01   A 0.39 0.39 0.0 0 1 1309.60 857.01   C 1308.99 854.66 1308.64 852.78 1308.20 852.38   Q 1308.04 852.24 1307.71 852.23   Q 1307.28 852.23 1307.12 852.37   C 1306.67 852.76 1306.29 854.64 1305.64 856.97   A 0.39 0.39 0.0 0 1 1304.89 856.97   L 1303.72 852.43   A 0.30 0.30 0.0 0 0 1303.37 852.22   L 1303.07 852.30   A 0.57 0.57 0.0 0 0 1302.66 852.99   L 1304.28 859.28   A 0.87 0.87 0.0 0 0 1305.96 859.29   Q 1307.17 854.85 1307.60 854.86"/>
<path stroke="none" vector-effect="non-scaling-stroke" d="   M 1296.15 854.83   Q 1296.65 854.84 1297.80 859.30   A 0.87 0.87 0.0 0 0 1299.48 859.31   L 1301.20 853.04   A 0.57 0.57 0.0 0 0 1300.80 852.34   L 1300.50 852.26   A 0.30 0.30 0.0 0 0 1300.14 852.46   L 1298.90 856.99   A 0.39 0.39 0.0 0 1 1298.15 856.98   C 1297.54 854.64 1297.19 852.75 1296.74 852.35   Q 1296.58 852.21 1296.25 852.21   Q 1295.82 852.20 1295.66 852.34   C 1295.21 852.73 1294.83 854.62 1294.18 856.95   A 0.39 0.39 0.0 0 1 1293.44 856.95   L 1292.26 852.41   A 0.30 0.30 0.0 0 0 1291.90 852.19   L 1291.60 852.27   A 0.57 0.57 0.0 0 0 1291.20 852.97   L 1292.83 859.26   A 0.87 0.87 0.0 0 0 1294.50 859.27   Q 1295.72 854.83 1296.15 854.83"/>
<path stroke="none" vector-effect="non-scaling-stroke" d="   M 1319.19 854.93   Q 1319.69 854.93 1320.87 859.39   A 0.87 0.87 0.0 0 0 1322.55 859.40   L 1324.24 853.10   A 0.57 0.57 0.0 0 0 1323.84 852.40   L 1323.54 852.32   A 0.30 0.30 0.0 0 0 1323.18 852.53   L 1321.96 857.07   A 0.39 0.39 0.0 0 1 1321.21 857.07   C 1320.58 854.72 1320.22 852.83 1319.77 852.43   Q 1319.61 852.29 1319.28 852.29   Q 1318.85 852.29 1318.69 852.43   C 1318.24 852.83 1317.87 854.71 1317.23 857.06   A 0.39 0.39 0.0 0 1 1316.48 857.06   L 1315.28 852.51   A 0.30 0.30 0.0 0 0 1314.92 852.30   L 1314.62 852.38   A 0.57 0.57 0.0 0 0 1314.22 853.08   L 1315.88 859.39   A 0.87 0.87 0.0 0 0 1317.56 859.38   Q 1318.76 854.92 1319.19 854.93"/>
<path stroke="none" vector-effect="non-scaling-stroke" d="   M 1328.81 859.24   A 0.13 0.13 0.0 0 0 1328.87 859.39   Q 1332.66 861.33 1334.37 858.77   A 1.86 1.79 25.1 0 0 1333.32 856.03   Q 1331.74 855.55 1330.68 855.11   A 0.95 0.95 0.0 0 1 1330.65 853.38   Q 1331.89 852.81 1333.65 853.64   A 0.46 0.46 0.0 0 0 1334.26 853.44   L 1334.31 853.35   A 0.42 0.42 0.0 0 0 1334.12 852.77   Q 1331.62 851.61 1329.64 852.87   A 1.27 1.24 78.7 0 0 1329.08 853.73   C 1328.70 856.27 1330.98 856.45 1332.72 857.03   A 1.00 1.00 0.0 0 1 1332.69 858.94   Q 1331.38 859.34 1329.26 858.74   A 0.31 0.31 0.0 0 0 1328.88 858.96   L 1328.81 859.24"/>
<path stroke="none" vector-effect="non-scaling-stroke" d="   M 1351.71 859.43   L 1351.71 852.57   A 0.24 0.24 0.0 0 0 1351.47 852.33   L 1351.10 852.33   A 0.42 0.42 0.0 0 0 1350.68 852.75   L 1350.68 857.47   A 1.62 1.62 0.0 0 1 1349.06 859.09   L 1348.17 859.09   A 1.53 1.53 0.0 0 1 1346.64 857.56   L 1346.64 852.65   A 0.31 0.30 90.0 0 0 1346.34 852.34   L 1346.04 852.34   A 0.41 0.41 0.0 0 0 1345.63 852.75   L 1345.63 858.07   A 2.04 2.03 -7.2 0 0 1348.17 860.04   Q 1350.67 859.40 1351.27 859.71   A 0.31 0.30 -76.6 0 0 1351.71 859.43"/>
<path stroke="none" vector-effect="non-scaling-stroke" d="   M 1371.05 858.76   C 1369.85 859.19 1367.24 859.35 1366.56 858.10   Q 1366.46 857.91 1366.29 856.75   A 0.33 0.33 0.0 0 1 1366.62 856.38   L 1371.45 856.38   A 0.40 0.39 -0.7 0 0 1371.85 855.98   Q 1371.82 851.58 1367.39 852.49   C 1364.37 853.12 1364.28 859.09 1367.38 859.81   Q 1369.72 860.35 1371.52 859.54   A 0.13 0.12 80.3 0 0 1371.60 859.42   L 1371.60 859.15   A 0.41 0.41 0.0 0 0 1371.05 858.76"/>
<path stroke="none" vector-effect="non-scaling-stroke" d="   M 1374.21 852.61   L 1374.21 859.52   A 0.41 0.40 90.0 0 0 1374.61 859.93   L 1374.94 859.93   A 0.31 0.31 0.0 0 0 1375.25 859.62   L 1375.25 854.58   A 0.93 0.92 -19.2 0 1 1375.61 853.85   Q 1376.38 853.26 1378.00 853.18   A 0.39 0.38 2.7 0 0 1378.36 852.86   L 1378.37 852.79   A 0.41 0.41 0.0 0 0 1378.00 852.32   Q 1376.96 852.25 1376.00 852.81   Q 1375.41 853.14 1374.60 852.43   A 0.24 0.23 -69.3 0 0 1374.21 852.61"/>
<path stroke="none" vector-effect="non-scaling-stroke" d="   M 1384.63 853.00   A 0.32 0.31 17.5 0 0 1384.43 852.63   Q 1382.66 852.00 1380.99 852.51   C 1379.23 853.06 1378.86 855.30 1380.52 856.07   Q 1381.22 856.39 1383.05 856.82   A 1.03 1.03 0.0 0 1 1383.81 858.09   L 1383.67 858.64   A 1.04 1.03 15.1 0 1 1382.41 859.36   L 1379.66 858.62   A 0.40 0.40 0.0 0 0 1379.38 859.37   Q 1382.42 860.85 1384.24 859.37   A 1.94 1.93 -52.9 0 0 1383.79 856.09   Q 1383.02 855.76 1381.20 855.33   A 1.00 0.99 37.7 0 1 1380.96 853.48   Q 1382.31 852.77 1384.13 853.55   A 0.30 0.29 19.3 0 0 1384.53 853.36   L 1384.63 853.00"/>
<path stroke="none" vector-effect="non-scaling-stroke" d="   M 1398.8970 855.4502   A 3.01 3.01 0.0 0 0 1395.9885 852.3421   L 1395.3888 852.3222   A 3.01 3.01 0.0 0 0 1392.2807 855.2307   L 1392.2230 856.9698   A 3.01 3.01 0.0 0 0 1395.1315 860.0779   L 1395.7312 860.0978   A 3.01 3.01 0.0 0 0 1398.8393 857.1893   L 1398.8970 855.4502"/>
<path stroke="none" vector-effect="non-scaling-stroke" d="   M 1400.70 856.20   C 1400.71 859.57 1403.45 860.91 1406.44 859.71   A 0.39 0.39 0.0 0 0 1406.65 859.18   L 1406.61 859.08   A 0.49 0.48 66.1 0 0 1405.99 858.83   C 1403.71 859.76 1401.94 858.61 1401.93 856.19   C 1401.93 853.78 1403.70 852.62 1405.97 853.53   A 0.49 0.48 -66.3 0 0 1406.60 853.28   L 1406.64 853.18   A 0.39 0.39 0.0 0 0 1406.43 852.65   C 1403.43 851.47 1400.69 852.82 1400.70 856.20"/>
<path stroke="none" vector-effect="non-scaling-stroke" d="   M 1420.97 856.15   C 1420.95 859.70 1423.64 860.66 1426.64 859.83   A 0.35 0.34 71.9 0 0 1426.87 859.37   L 1426.77 859.08   A 0.48 0.47 69.1 0 0 1426.16 858.81   C 1423.89 859.64 1422.16 858.54 1422.18 856.16   C 1422.19 853.78 1423.92 852.69 1426.18 853.55   A 0.48 0.47 -68.6 0 0 1426.79 853.28   L 1426.90 852.99   A 0.35 0.34 -71.4 0 0 1426.67 852.53   C 1423.68 851.67 1420.98 852.61 1420.97 856.15"/>
<path stroke="none" vector-effect="non-scaling-stroke" d="   M 1435.5096 855.4020   A 3.15 3.15 0.0 0 0 1432.3984 852.2137   L 1431.8384 852.2069   A 3.15 3.15 0.0 0 0 1428.6502 855.3182   L 1428.6304 856.9380   A 3.15 3.15 0.0 0 0 1431.7416 860.1263   L 1432.3016 860.1331   A 3.15 3.15 0.0 0 0 1435.4898 857.0218   L 1435.5096 855.4020"/>
<path stroke="none" vector-effect="non-scaling-stroke" d="   M 1448.63 859.61   C 1448.92 857.04 1449.53 851.66 1445.61 852.27   C 1444.85 852.39 1444.52 852.93 1443.92 853.13   A 0.93 0.92 -31.6 0 1 1443.01 852.92   C 1441.24 851.22 1440.14 853.22 1438.24 852.42   A 0.44 0.44 0.0 0 0 1437.63 852.83   L 1437.63 859.39   A 0.52 0.52 0.0 0 0 1438.15 859.91   L 1438.45 859.91   A 0.42 0.41 0.0 0 0 1438.87 859.50   L 1438.95 855.14   A 1.84 1.83 89.5 0 1 1440.71 853.34   L 1440.90 853.33   A 1.65 1.64 -2.0 0 1 1442.65 854.96   L 1442.66 859.52   A 0.41 0.41 0.0 0 0 1443.07 859.93   L 1443.35 859.93   A 0.45 0.45 0.0 0 0 1443.80 859.50   C 1443.88 856.82 1443.34 853.95 1445.49 853.24   A 1.68 1.58 80.0 0 1 1447.56 854.79   Q 1447.66 856.64 1447.63 859.49   A 0.40 0.39 90.0 0 0 1448.02 859.89   L 1448.31 859.89   A 0.32 0.31 3.0 0 0 1448.63 859.61"/>
<path stroke="none" vector-effect="non-scaling-stroke" d="   M 1326.71 859.14   A 0.79 0.79 0.0 0 0 1325.92 858.35   A 0.79 0.79 0.0 0 0 1325.13 859.14   A 0.79 0.79 0.0 0 0 1325.92 859.93   A 0.79 0.79 0.0 0 0 1326.71 859.14"/>
<path stroke="none" vector-effect="non-scaling-stroke" d="   M 1418.64 859.13   A 0.77 0.77 0.0 0 0 1417.87 858.36   A 0.77 0.77 0.0 0 0 1417.10 859.13   A 0.77 0.77 0.0 0 0 1417.87 859.90   A 0.77 0.77 0.0 0 0 1418.64 859.13"/>
<path stroke="none" vector-effect="non-scaling-stroke" d="   M 1287.94 827.64   Q 1288.98 827.64 1289.34 827.61   A 0.53 0.52 -11.7 0 0 1289.80 826.91   L 1288.10 822.38   A 0.14 0.05 8.8 0 0 1287.99 822.32   Q 1287.96 822.31 1287.93 822.31   Q 1287.89 822.31 1287.86 822.32   A 0.14 0.05 -9.1 0 0 1287.75 822.38   L 1286.07 826.92   A 0.53 0.52 11.5 0 0 1286.54 827.62   Q 1286.89 827.64 1287.94 827.64"/>
<path stroke="none" vector-effect="non-scaling-stroke" d="   M 1328.58 822.11   L 1328.60 830.21   A 0.49 0.49 0.0 0 0 1329.09 830.69   L 1331.01 830.69   A 4.07 3.91 -0.1 0 0 1335.07 826.77   L 1335.07 825.51   A 4.07 3.91 -0.1 0 0 1330.99 821.61   L 1329.07 821.61   A 0.49 0.49 0.0 0 0 1328.58 822.11"/>
<path stroke="none" vector-effect="non-scaling-stroke" d="   M 1383.8213 821.1800   A 4.97 2.65 -90.1 0 0 1381.1800 826.1546   A 4.97 2.65 -90.1 0 0 1383.8387 831.1200   A 4.97 2.65 -90.1 0 0 1386.4800 826.1454   A 4.97 2.65 -90.1 0 0 1383.8213 821.1800"/>
<path stroke="none" vector-effect="non-scaling-stroke" d="   M 1404.2965 825.4316   A 2.82 2.42 -91.9 0 0 1401.9713 828.3302   A 2.82 2.42 -91.9 0 0 1404.4835 831.0684   A 2.82 2.42 -91.9 0 0 1406.8087 828.1698   A 2.82 2.42 -91.9 0 0 1404.2965 825.4316"/>
<path stroke="none" vector-effect="non-scaling-stroke" d="   M 1424.5526 821.1900   A 4.99 2.60 -90.2 0 0 1421.9700 826.1891   A 4.99 2.60 -90.2 0 0 1424.5874 831.1700   A 4.99 2.60 -90.2 0 0 1427.1700 826.1709   A 4.99 2.60 -90.2 0 0 1424.5526 821.1900"/>
<path stroke="none" vector-effect="non-scaling-stroke" d="   M 140.20 830.35   L 145.96 830.27   A 0.77 0.77 0.0 0 0 146.72 829.50   L 146.71 828.68   A 3.41 3.25 -0.7 0 0 143.26 825.47   L 142.78 825.47   A 3.41 3.25 -0.7 0 0 139.41 828.76   L 139.42 829.58   A 0.77 0.77 0.0 0 0 140.20 830.35"/>
<path stroke="none" vector-effect="non-scaling-stroke" d="   M 1366.81 855.66   L 1370.35 855.58   A 0.35 0.35 0.0 0 0 1370.69 855.22   L 1370.68 854.86   A 1.71 1.65 88.7 0 0 1368.99 853.19   L 1368.05 853.21   A 1.71 1.65 88.7 0 0 1366.44 854.96   L 1366.45 855.32   A 0.35 0.35 0.0 0 0 1366.81 855.66"/>
<path stroke="none" vector-effect="non-scaling-stroke" d="   M 1395.5929 853.1003   A 3.07 2.27 -89.2 0 0 1393.2802 856.1383   A 3.07 2.27 -89.2 0 0 1395.5071 859.2397   A 3.07 2.27 -89.2 0 0 1397.8198 856.2017   A 3.07 2.27 -89.2 0 0 1395.5929 853.1003"/>
<path stroke="none" vector-effect="non-scaling-stroke" d="   M 1432.1367 853.2608   A 2.94 2.19 -88.7 0 0 1429.8806 856.1503   A 2.94 2.19 -88.7 0 0 1432.0033 859.1392   A 2.94 2.19 -88.7 0 0 1434.2594 856.2497   A 2.94 2.19 -88.7 0 0 1432.1367 853.2608"/>
</g>

<path fill="#020202" d="   M 756.15 413.19   A 0.49 0.48 -39.8 0 0 755.39 413.13   C 743.97 425.30 730.73 434.86 714.04 438.04   C 699.47 440.81 682.15 440.69 668.24 434.01   C 648.50 424.54 639.68 405.33 639.27 384.01   Q 638.60 349.76 663.68 330.18   C 678.66 318.49 698.61 314.30 717.07 311.89   Q 731.60 309.99 748.25 308.36   A 0.41 0.40 -3.2 0 0 748.62 307.96   Q 748.80 298.20 748.54 291.78   C 748.06 280.00 742.05 270.19 729.67 267.85   C 715.74 265.21 699.33 270.74 694.77 285.49   C 692.99 291.25 692.29 297.14 684.96 295.97   Q 682.66 295.61 655.96 292.92   C 649.19 292.24 644.53 290.80 646.26 283.05   Q 653.57 250.24 684.03 236.51   C 718.02 221.18 784.50 223.15 797.92 267.31   Q 801.27 278.34 801.31 292.51   Q 801.41 328.18 801.35 364.66   C 801.33 374.32 802.23 381.69 806.35 389.20   Q 809.28 394.54 814.45 401.36   C 816.30 403.81 817.87 406.83 817.06 409.81   Q 816.69 411.16 813.73 413.56   Q 803.84 421.57 788.52 434.80   C 784.17 438.55 780.24 440.38 775.77 436.36   Q 768.95 430.23 767.08 428.04   Q 761.47 421.48 756.15 413.19   Z   M 740.05 388.63   Q 741.39 389.11 741.36 391.22   Q 741.35 392.48 741.60 393.65   C 742.06 395.83 744.59 395.04 745.83 394.23   A 0.84 0.83 67.0 0 0 746.19 393.33   C 745.21 389.23 745.47 386.57 751.06 386.79   A 1.38 1.38 0.0 0 0 752.40 384.93   L 751.88 383.53   A 1.93 1.92 79.7 0 0 750.08 382.28   L 746.26 382.28   A 1.32 1.30 18.4 0 0 745.22 382.79   Q 744.11 384.22 743.19 383.32   Q 747.98 372.58 748.49 357.99   Q 748.80 348.83 748.59 338.68   A 0.38 0.38 0.0 0 0 748.22 338.31   C 729.32 337.93 703.40 341.47 695.87 361.85   C 690.79 375.60 693.47 399.12 711.88 402.11   C 723.50 404.00 733.77 398.23 740.05 388.63   Z"/>
<path fill="#020202" d="   M 269.73 413.17   A 0.49 0.48 -39.8 0 0 268.97 413.11   C 257.55 425.27 244.32 434.83 227.63 438.01   C 213.06 440.78 195.74 440.66 181.84 433.98   C 162.10 424.51 153.28 405.31 152.87 383.99   Q 152.20 349.75 177.28 330.17   C 192.26 318.48 212.20 314.29 230.66 311.88   Q 245.19 309.98 261.83 308.35   A 0.41 0.40 -3.2 0 0 262.20 307.95   Q 262.38 298.20 262.12 291.78   C 261.64 280.00 255.64 270.19 243.26 267.85   C 229.33 265.21 212.92 270.74 208.36 285.49   C 206.58 291.25 205.88 297.14 198.56 295.97   Q 196.26 295.61 169.56 292.92   C 162.79 292.24 158.13 290.80 159.86 283.05   Q 167.17 250.24 197.63 236.52   C 231.61 221.19 298.08 223.16 311.50 267.31   Q 314.85 278.34 314.89 292.51   Q 314.98 328.17 314.92 364.64   C 314.90 374.30 315.80 381.67 319.92 389.18   Q 322.85 394.52 328.02 401.34   C 329.87 403.79 331.44 406.81 330.63 409.79   Q 330.26 411.14 327.30 413.54   Q 317.41 421.54 302.10 434.77   C 297.75 438.52 293.82 440.35 289.35 436.33   Q 282.53 430.20 280.66 428.01   Q 275.05 421.45 269.73 413.17   Z   M 261.98 338.24   C 239.80 338.15 211.40 342.69 208.00 369.82   C 206.49 381.90 209.71 396.86 222.51 401.24   C 234.60 405.38 247.12 399.25 254.01 388.79   Q 261.51 377.38 262.29 362.72   Q 263.07 347.91 262.58 338.82   A 0.61 0.60 88.5 0 0 261.98 338.24   Z"/>
<path fill="#020202" d="   M 372.81 437.12   Q 370.00 437.30 373.57 435.08   Q 376.06 433.54 376.48 432.43   C 377.20 430.57 377.74 426.99 375.14 426.01   C 371.68 424.71 369.01 426.18 365.76 426.95   A 1.54 1.54 0.0 0 1 363.96 425.98   L 363.78 425.51   A 1.76 1.76 0.0 0 1 364.81 423.25   L 369.67 421.44   A 1.16 1.16 0.0 0 0 369.47 419.21   Q 363.69 418.15 361.12 423.00   C 359.38 426.28 361.41 430.50 365.65 429.59   Q 372.23 428.17 372.25 428.17   A 1.62 1.62 0.0 0 1 374.07 430.07   L 373.93 430.83   A 3.50 3.50 0.0 0 1 370.99 433.65   C 369.81 433.82 367.25 433.62 367.03 434.02   Q 366.69 434.64 366.95 435.18   Q 366.98 435.24 367.66 435.80   Q 368.13 436.19 367.77 437.13   C 363.96 437.51 359.99 436.69 358.15 433.18   Q 357.33 431.63 357.34 427.92   Q 357.40 396.67 357.37 241.12   C 357.37 235.00 361.80 233.71 367.36 233.72   Q 391.67 233.77 399.50 233.78   A 3.63 3.50 -36.6 0 1 400.42 233.90   Q 405.83 235.29 405.80 241.75   Q 405.75 252.97 405.80 264.65   A 0.39 0.39 0.0 0 0 406.55 264.79   C 415.95 240.98 432.86 228.41 459.24 229.69   C 481.17 230.76 494.92 244.57 502.99 264.05   A 0.38 0.38 0.0 0 0 503.69 264.05   Q 514.07 237.85 541.07 231.17   C 559.26 226.66 579.73 231.52 593.07 245.13   C 603.90 256.19 606.54 269.83 607.10 284.99   C 607.46 294.91 606.89 306.08 606.89 316.34   Q 606.86 390.03 606.91 429.52   C 606.92 436.27 602.84 437.71 596.71 437.61   Q 589.85 437.50 566.45 437.59   C 560.32 437.62 556.41 436.07 556.41 429.62   Q 556.32 339.19 556.53 309.76   C 556.62 297.20 556.07 282.07 541.64 278.59   Q 535.49 277.11 531.48 277.76   C 518.15 279.92 510.95 289.14 509.19 302.21   Q 508.15 309.95 508.13 317.68   Q 508.10 334.21 508.13 426.81   Q 508.13 432.62 507.21 434.01   C 505.11 437.17 502.70 437.55 498.54 437.56   Q 475.16 437.59 465.02 437.54   Q 460.57 437.52 458.33 434.62   Q 457.06 432.96 457.06 427.38   Q 457.04 347.50 457.15 310.23   Q 457.15 308.51 456.60 302.00   Q 455.88 293.53 451.89 286.38   C 446.84 277.33 435.21 275.64 426.21 278.46   C 408.84 283.91 408.75 309.17 408.73 323.50   Q 408.68 374.98 408.74 427.43   Q 408.74 432.40 407.65 433.84   C 405.64 436.49 403.36 437.11 399.78 437.12   Q 386.54 437.17 372.81 437.12   Z   M 402.38 393.38   L 406.35 398.40   A 0.22 0.22 0.0 0 0 406.65 398.44   L 406.87 398.27   A 3.22 2.41 51.7 0 0 406.76 394.25   L 406.51 393.93   A 3.22 2.41 51.7 0 0 402.63 392.90   L 402.42 393.07   A 0.22 0.22 0.0 0 0 402.38 393.38   Z   M 407.00 405.51   Q 406.92 405.42 405.98 405.23   A 2.15 2.12 -16.2 0 1 404.87 404.63   L 398.77 398.54   A 1.45 1.45 0.0 0 0 397.48 398.14   L 397.18 398.20   A 0.90 0.90 0.0 0 0 396.67 399.61   C 398.97 402.73 402.30 407.34 405.22 408.13   A 1.69 1.61 -12.2 0 0 407.00 405.51   Z   M 401.57 411.39   Q 398.70 407.50 396.11 404.81   C 392.79 401.36 389.53 404.62 387.78 407.48   A 1.12 1.12 0.0 0 1 387.00 408.00   Q 385.86 408.17 385.09 408.83   A 0.53 0.53 0.0 0 0 385.02 409.55   L 392.27 418.83   A 0.97 0.96 -37.7 0 0 393.63 419.00   L 394.04 418.68   A 1.25 1.25 0.0 0 0 394.26 416.92   L 389.44 410.74   A 2.66 2.66 0.0 0 1 389.90 407.00   L 390.99 406.15   A 2.42 2.41 -37.8 0 1 394.38 406.57   L 399.21 412.76   A 1.35 1.34 -32.8 0 0 400.90 413.12   L 401.26 412.93   A 1.06 1.06 0.0 0 0 401.57 411.39   Z   M 389.09 421.45   Q 387.01 418.17 384.08 415.19   C 380.74 411.76 375.80 415.55 374.85 419.15   A 1.50 1.48 17.8 0 0 375.77 420.92   L 376.04 421.02   A 0.70 0.70 0.0 0 0 376.97 420.54   L 377.87 417.18   A 0.79 0.79 0.0 0 1 378.32 416.66   Q 379.69 416.06 381.41 416.63   A 1.52 1.52 0.0 0 1 381.52 419.47   C 379.05 420.50 376.60 423.92 378.28 426.62   C 379.66 428.85 382.86 428.02 384.45 426.24   Q 385.03 425.61 388.91 422.48   A 0.79 0.78 -35.4 0 0 389.09 421.45   Z"/>
<path fill="#020202" d="   M 1171.99 335.29   C 1171.99 363.23 1165.02 392.79 1146.43 414.37   C 1127.46 436.41 1099.13 445.14 1070.78 439.62   C 1030.09 431.69 1009.68 394.84 1004.88 356.51   Q 1003.66 346.79 1003.66 335.34   Q 1003.65 323.88 1004.87 314.16   C 1009.65 275.83 1030.04 238.97 1070.72 231.01   C 1099.07 225.48 1127.40 234.19 1146.39 256.22   C 1164.99 277.79 1171.98 307.34 1171.99 335.29   Z   M 1084.75 402.02   C 1096.06 403.09 1105.87 395.85 1109.85 385.80   Q 1115.24 372.20 1116.19 356.98   Q 1117.82 331.02 1115.22 307.01   Q 1114.15 297.12 1111.63 288.38   C 1108.46 277.39 1101.99 269.84 1090.02 268.92   C 1062.79 266.83 1058.93 298.09 1058.20 318.00   C 1057.59 334.59 1057.58 353.74 1060.81 371.44   C 1063.26 384.91 1069.50 400.57 1084.75 402.02   Z"/>
<path fill="#020202" d="   M 1247.80 267.85   A 0.25 0.25 0.0 0 0 1248.21 268.04   Q 1248.52 267.76 1248.73 267.27   C 1254.01 254.92 1260.10 244.18 1270.98 236.93   C 1282.33 229.36 1298.67 228.14 1311.82 230.88   C 1330.66 234.82 1344.63 248.82 1348.68 267.56   Q 1352.09 283.33 1352.09 302.75   Q 1352.09 335.02 1352.11 428.49   Q 1352.11 432.87 1350.95 434.24   C 1349.03 436.51 1346.94 437.13 1343.74 437.13   Q 1321.50 437.10 1312.40 437.20   C 1305.60 437.27 1301.04 436.19 1301.05 428.52   Q 1301.14 354.12 1301.08 310.51   Q 1301.06 299.90 1298.16 291.07   Q 1293.31 276.29 1277.78 276.40   C 1266.13 276.48 1257.73 286.11 1254.56 296.89   Q 1250.71 309.97 1250.72 323.76   Q 1250.72 332.99 1250.73 426.08   Q 1250.73 431.80 1249.81 433.22   C 1247.78 436.34 1245.32 437.18 1241.29 437.15   Q 1232.81 437.09 1209.21 437.17   C 1202.83 437.20 1199.25 435.20 1199.27 428.80   Q 1199.28 422.90 1199.28 239.74   A 2.23 2.13 53.1 0 1 1199.34 239.23   C 1200.61 234.11 1204.20 233.31 1209.42 233.35   Q 1224.70 233.46 1240.26 233.39   Q 1244.94 233.36 1246.73 236.76   Q 1247.75 238.71 1247.76 244.27   Q 1247.76 252.08 1247.80 267.85   Z"/>
<path fill="#020202" d="   M 915.92 274.31   Q 888.97 274.27 856.23 274.32   C 849.02 274.33 845.78 272.65 845.78 265.42   Q 845.77 241.56 845.81 240.27   C 846.00 234.22 849.86 233.38 855.43 233.38   Q 970.68 233.41 971.21 233.38   C 977.17 233.08 981.83 234.40 981.83 240.99   Q 981.83 252.76 981.80 263.00   A 10.23 10.09 57.6 0 1 980.89 267.21   Q 979.04 271.31 975.86 275.86   Q 942.72 323.28 909.90 369.98   A 0.41 0.40 -73.2 0 0 910.24 370.62   C 933.34 370.00 956.59 373.72 977.21 384.30   C 981.81 386.66 985.05 390.48 985.10 395.25   Q 985.25 409.41 985.16 424.76   C 985.14 428.35 982.58 432.03 978.77 431.91   Q 977.55 431.87 974.30 430.24   C 934.22 410.13 886.61 410.98 847.10 431.84   Q 845.37 432.75 843.20 431.77   Q 838.74 429.73 838.67 424.75   Q 838.58 417.43 838.68 396.77   Q 838.72 387.40 841.48 382.07   Q 842.59 379.91 849.82 369.63   Q 866.80 345.43 916.13 274.72   A 0.26 0.26 0.0 0 0 915.92 274.31   Z"/>









<path fill="#020202" d="   M 383.32 420.09   A 0.79 0.79 0.0 0 1 384.44 420.08   L 384.85 420.49   A 2.66 2.43 -45.4 0 1 384.71 424.09   L 384.09 424.72   A 2.66 2.43 -45.4 0 1 380.50 424.91   L 380.08 424.50   A 0.79 0.79 0.0 0 1 380.08 423.38   L 383.32 420.09   Z"/>
<path fill="#f8991c" d="   M 912.86 562.84   C 909.18 564.51 905.26 561.85 906.91 557.57   C 914.43 538.02 921.63 520.12 926.36 500.09   Q 928.71 490.17 927.41 481.17   C 926.06 471.87 910.41 471.03 903.33 470.65   Q 896.83 470.31 893.65 470.39   Q 869.80 471.07 844.22 474.72   Q 843.40 474.83 840.94 474.34   A 1.83 1.83 0.0 0 1 840.01 473.84   C 837.37 471.25 839.53 467.56 842.05 465.77   C 867.68 447.55 902.11 443.54 932.50 447.00   C 939.06 447.74 949.12 449.61 954.94 453.81   C 959.94 457.41 958.00 474.65 957.15 480.23   Q 952.31 511.99 935.34 538.84   Q 927.86 550.67 918.09 559.35   Q 915.51 561.65 912.86 562.84   Z"/>
<path fill="#f8991c" d="   M 321.85 463.11   C 322.87 456.69 328.31 457.80 332.56 460.23   Q 426.15 513.71 533.42 532.88   Q 675.85 558.34 814.01 519.26   Q 850.17 509.04 886.16 493.96   Q 891.05 491.90 895.73 493.51   C 903.25 496.09 903.82 505.00 897.95 509.47   C 876.22 526.03 851.13 539.74 826.32 550.31   C 738.75 587.62 641.85 598.44 548.08 580.39   C 464.95 564.39 387.12 525.76 324.48 469.01   C 322.88 467.56 321.52 465.24 321.85 463.11   Z"/>































































</svg>