<?xml version="1.0" encoding="UTF-8"?>
<svg style="background:transparent !important" xmlns="http://www.w3.org/2000/svg" xmlns:xlink="http://www.w3.org/1999/xlink" width="790.0546879999999" height="239.40624999999997" viewBox="23.082031 22.019531 790.0546879999999 239.40624999999997">
<path fill-rule="nonzero" fill="rgb(100%, 100%, 100%)" fill-opacity="1" d="M 93.742188 134.445312 L 95.046875 134.445312 L 123.144531 205.035156 L 162.21875 215.746094 L 162.21875 216.621094 L 61.777344 261.425781 L 60.46875 261.425781 L 60.46875 260.300781 L 91.871094 196.65625 L 91.871094 195.34375 L 90.75 193.851562 L 23.082031 165.25 L 23.082031 163.941406 L 24.015625 162.820312 Z M 93.742188 134.445312 "/>
<path fill-rule="nonzero" fill="rgb(100%, 100%, 100%)" fill-opacity="1" d="M 153.867188 188.632812 L 153.121094 188.371094 C 153.121094 188.371094 152.371094 188.15625 151.875 188.371094 C 151.378906 188.582031 125.578125 200.171875 125.578125 200.171875 C 125.578125 200.171875 125.207031 201.21875 126.328125 201.503906 C 127.449219 201.789062 165.6875 211.636719 165.6875 211.636719 C 165.6875 211.636719 166.164062 211.265625 165.6875 210.515625 C 165.210938 209.765625 159.226562 198.796875 159.226562 198.796875 L 155.863281 192.566406 Z M 153.867188 188.632812 "/>
<path fill-rule="nonzero" fill="rgb(100%, 100%, 100%)" fill-opacity="1" d="M 742.480469 128.402344 L 741.167969 128.402344 L 713.078125 198.992188 L 674.003906 209.703125 L 674.003906 210.578125 L 774.445312 255.382812 L 775.75 255.382812 L 775.75 254.257812 L 744.351562 190.613281 L 744.351562 189.300781 L 745.472656 187.804688 L 813.136719 159.207031 L 813.136719 157.898438 L 812.203125 156.777344 Z M 742.480469 128.402344 "/>
<path fill-rule="nonzero" fill="rgb(100%, 100%, 100%)" fill-opacity="1" d="M 682.351562 182.589844 L 683.101562 182.328125 C 683.101562 182.328125 683.847656 182.113281 684.347656 182.328125 C 684.84375 182.542969 710.636719 194.132812 710.636719 194.132812 C 710.636719 194.132812 711.015625 195.175781 709.894531 195.460938 C 708.773438 195.746094 670.535156 205.59375 670.535156 205.59375 C 670.535156 205.59375 670.058594 205.222656 670.535156 204.472656 C 671.011719 203.722656 676.996094 192.757812 676.996094 192.757812 L 680.359375 186.527344 Z M 682.351562 182.589844 "/>
<path fill-rule="nonzero" fill="rgb(100%, 100%, 100%)" fill-opacity="1" d="M 315.875 68.808594 C 316 68.796875 316.125 68.785156 316.242188 68.777344 C 316.296875 68.316406 316.398438 67.851562 316.40625 67.382812 C 316.429688 64.503906 316.378906 61.617188 316.460938 58.730469 C 316.605469 53.382812 316.863281 48.03125 316.960938 42.675781 C 316.996094 41.203125 317.046875 39.5 316.386719 38.289062 C 315.292969 36.292969 313.628906 34.621094 312.199219 32.816406 C 311.59375 32.058594 311.054688 32.011719 310.617188 32.972656 C 309.769531 34.835938 308.808594 36.652344 308.117188 38.570312 C 307.785156 39.480469 307.691406 40.644531 307.945312 41.574219 C 309.964844 49.089844 312.074219 56.578125 314.207031 64.0625 C 314.664062 65.675781 315.3125 67.226562 315.875 68.808594 Z M 329.988281 94.359375 C 329.808594 94.382812 329.632812 94.40625 329.460938 94.425781 C 329.371094 95.535156 329.261719 96.644531 329.203125 97.753906 C 328.785156 105.613281 328.359375 113.46875 327.984375 121.332031 C 327.953125 121.953125 328.144531 122.710938 328.507812 123.199219 C 330.058594 125.332031 331.695312 127.394531 333.324219 129.464844 C 334.066406 130.394531 334.410156 130.367188 334.898438 129.261719 C 335.746094 127.351562 336.554688 125.421875 337.28125 123.460938 C 337.511719 122.828125 337.605469 122.027344 337.4375 121.394531 C 335.34375 113.546875 333.199219 105.71875 331.054688 97.882812 C 330.730469 96.699219 330.34375 95.53125 329.988281 94.359375 Z M 337.648438 67.472656 C 337.71875 66.289062 337.777344 65.382812 337.824219 64.480469 C 337.882812 63.351562 337.980469 62.226562 337.972656 61.105469 C 337.957031 59.222656 337.800781 57.34375 337.820312 55.460938 C 337.898438 49.605469 338.023438 43.746094 338.128906 37.886719 C 338.152344 36.71875 337.855469 35.6875 337.046875 34.773438 C 335.859375 33.421875 334.78125 31.980469 333.640625 30.59375 C 332.695312 29.449219 332.3125 29.5 331.628906 30.890625 C 330.734375 32.6875 329.804688 34.46875 329.042969 36.316406 C 328.746094 37.027344 328.640625 37.972656 328.84375 38.703125 C 329.824219 42.164062 330.96875 45.574219 331.988281 49.015625 C 333.726562 54.910156 335.414062 60.820312 337.136719 66.714844 C 337.199219 66.929688 337.394531 67.109375 337.648438 67.472656 Z M 283.53125 34.347656 C 288.714844 33.628906 293.597656 32.929688 298.484375 32.273438 C 303.015625 31.667969 307.546875 31.089844 312.078125 30.527344 C 323.257812 29.128906 334.445312 27.765625 345.628906 26.347656 C 350.242188 25.761719 354.847656 25.054688 359.457031 24.429688 C 359.785156 24.386719 360.140625 24.5625 360.484375 24.640625 C 360.359375 25.015625 360.328125 25.464844 360.097656 25.757812 C 358.328125 27.984375 356.578125 30.226562 354.707031 32.375 C 353.371094 33.898438 352.785156 35.53125 352.757812 37.589844 C 352.640625 45.589844 352.363281 53.582031 352.160156 61.578125 C 351.988281 68.222656 351.84375 74.875 351.644531 81.527344 C 351.453125 87.847656 351.171875 94.167969 350.992188 100.488281 C 350.839844 105.84375 350.773438 111.207031 350.671875 116.570312 C 350.664062 116.988281 350.707031 117.410156 350.65625 117.824219 C 350.5 119.121094 350.914062 120.171875 351.789062 121.144531 C 353.710938 123.28125 355.5625 125.480469 357.621094 127.867188 C 356.714844 128.125 356.03125 128.410156 355.3125 128.507812 C 349.125 129.316406 342.933594 130.109375 336.734375 130.871094 C 329.5 131.765625 322.257812 132.617188 315.019531 133.5 C 313.941406 133.628906 312.871094 133.847656 311.792969 133.984375 C 311.4375 134.027344 311.070312 133.917969 310.710938 133.878906 C 310.773438 133.488281 310.742188 133.042969 310.917969 132.71875 C 312.117188 130.558594 313.3125 128.398438 314.597656 126.292969 C 315.257812 125.207031 315.183594 124.175781 314.84375 123.046875 C 314.054688 120.445312 313.304688 117.828125 312.558594 115.214844 C 311.5 111.476562 310.460938 107.734375 309.417969 103.988281 C 307.457031 96.929688 305.492188 89.871094 303.539062 82.804688 C 301.515625 75.503906 299.492188 68.207031 297.480469 60.902344 C 295.972656 55.410156 294.425781 49.933594 293.007812 44.417969 C 292.566406 42.707031 291.738281 41.394531 290.378906 40.308594 C 288.382812 38.71875 286.429688 37.0625 284.476562 35.421875 C 284.167969 35.164062 283.9375 34.820312 283.53125 34.347656 "/>
<path fill-rule="nonzero" fill="rgb(100%, 100%, 100%)" fill-opacity="1" d="M 180.238281 107.203125 C 180.378906 107.242188 180.519531 107.28125 180.660156 107.316406 C 180.808594 107.070312 180.9375 106.804688 181.109375 106.570312 C 182.335938 104.878906 183.558594 103.191406 184.804688 101.515625 C 185.902344 100.039062 187.050781 98.59375 188.121094 97.09375 C 188.664062 96.339844 189.390625 95.613281 189.035156 94.503906 C 188.738281 93.542969 188.550781 92.550781 188.25 91.601562 C 185.835938 84.03125 183.40625 76.46875 180.972656 68.914062 C 180.851562 68.523438 180.691406 68.046875 180.394531 67.832031 C 177.878906 66.027344 175.359375 64.222656 172.773438 62.53125 C 171.628906 61.78125 171.109375 62.09375 170.730469 63.476562 C 170.136719 65.648438 169.492188 67.808594 169.03125 70.007812 C 168.824219 71 168.757812 72.144531 169.039062 73.09375 C 170.230469 77.101562 171.582031 81.0625 172.867188 85.039062 C 174.996094 91.601562 177.121094 98.164062 179.257812 104.722656 C 179.535156 105.566406 179.910156 106.378906 180.238281 107.203125 Z M 206.863281 149.640625 C 206.769531 149.21875 206.722656 148.925781 206.636719 148.652344 C 205.257812 144.304688 203.894531 139.953125 202.484375 135.617188 C 201.050781 131.203125 199.554688 126.808594 198.097656 122.40625 C 197.136719 119.503906 196.191406 116.597656 195.214844 113.707031 C 195.105469 113.382812 194.746094 112.867188 194.585938 112.894531 C 194.226562 112.957031 193.839844 113.25 193.617188 113.558594 C 191.402344 116.597656 189.199219 119.640625 187.046875 122.722656 C 186.304688 123.789062 185.453125 124.835938 185.984375 126.371094 C 187.410156 130.523438 188.78125 134.695312 190.132812 138.875 C 191.398438 142.777344 192.589844 146.703125 193.882812 150.597656 C 194.203125 151.566406 194.566406 152.71875 195.292969 153.308594 C 197.242188 154.875 199.355469 156.246094 201.476562 157.578125 C 203.632812 158.921875 203.597656 159.355469 204.519531 156.535156 C 204.609375 156.257812 204.761719 156.003906 204.855469 155.726562 C 205.542969 153.664062 206.222656 151.601562 206.863281 149.640625 Z M 180.992188 157.441406 C 180.664062 156.222656 180.394531 154.996094 180.007812 153.808594 C 178.007812 147.632812 175.980469 141.46875 173.960938 135.308594 C 172.449219 130.6875 170.917969 126.082031 169.429688 121.457031 C 167.53125 115.5625 165.683594 109.652344 163.78125 103.757812 C 161.554688 96.871094 159.273438 90.007812 157.035156 83.121094 C 156.363281 81.050781 155.808594 78.941406 155.089844 76.890625 C 154.871094 76.261719 154.398438 75.621094 153.863281 75.214844 C 151.753906 73.640625 149.570312 72.164062 147.429688 70.628906 C 147.15625 70.425781 146.765625 70.050781 146.808594 69.832031 C 146.863281 69.542969 147.265625 69.226562 147.585938 69.109375 C 150.386719 68.117188 153.203125 67.164062 156.015625 66.199219 C 160.457031 64.679688 164.882812 63.117188 169.34375 61.652344 C 173.960938 60.144531 178.617188 58.753906 183.246094 57.273438 C 187.199219 56.011719 191.125 54.675781 195.085938 53.417969 C 195.714844 53.222656 196.429688 53.292969 197.109375 53.242188 C 197.03125 53.890625 197.046875 54.570312 196.855469 55.183594 C 196.136719 57.542969 195.265625 59.863281 194.628906 62.242188 C 194.398438 63.078125 194.46875 64.109375 194.738281 64.945312 C 196.234375 69.734375 197.863281 74.480469 199.390625 79.265625 C 200.867188 83.890625 202.238281 88.550781 203.714844 93.171875 C 205.46875 98.636719 207.289062 104.078125 209.066406 109.535156 C 211.925781 118.332031 214.769531 127.128906 217.628906 135.925781 C 218.480469 138.550781 219.351562 141.164062 220.246094 143.773438 C 220.390625 144.191406 220.648438 144.648438 220.988281 144.910156 C 223.238281 146.640625 225.492188 148.367188 227.816406 150 C 228.472656 150.460938 228.65625 150.824219 228.109375 151.355469 C 227.707031 151.746094 227.199219 152.101562 226.667969 152.277344 C 220.570312 154.265625 214.453125 156.191406 208.363281 158.1875 C 204.144531 159.570312 199.964844 161.074219 195.746094 162.453125 C 191.007812 163.992188 186.242188 165.441406 181.496094 166.945312 C 180.738281 167.183594 180.011719 167.527344 179.242188 167.730469 C 178.878906 167.824219 178.1875 167.808594 178.109375 167.632812 C 177.925781 167.230469 177.890625 166.65625 178.035156 166.230469 C 178.902344 163.660156 179.847656 161.113281 180.75 158.550781 C 180.875 158.199219 180.914062 157.816406 180.992188 157.441406 "/>
<path fill-rule="nonzero" fill="rgb(100%, 100%, 100%)" fill-opacity="1" d="M 592.074219 85.171875 C 592.675781 85.054688 592.886719 85.054688 593.066406 84.980469 C 596.871094 83.347656 600.691406 81.746094 604.460938 80.027344 C 605.148438 79.71875 605.742188 79.015625 606.152344 78.359375 C 606.511719 77.78125 606.566406 77.011719 606.722656 76.320312 C 608.5 68.230469 610.28125 60.140625 612.042969 52.046875 C 612.117188 51.695312 612.152344 51.25 612.007812 50.941406 C 610.742188 48.160156 609.488281 45.375 608.121094 42.644531 C 607.5 41.414062 606.863281 41.398438 605.867188 42.382812 C 604.679688 43.550781 603.445312 44.6875 602.363281 45.945312 C 601.339844 47.128906 600.023438 48.335938 599.632812 49.75 C 598.5 53.863281 597.773438 58.078125 596.882812 62.257812 C 595.472656 68.882812 594.058594 75.515625 592.652344 82.144531 C 592.457031 83.066406 592.300781 83.992188 592.074219 85.171875 Z M 581.875 131.617188 C 581.953125 131.886719 582.003906 132.222656 582.144531 132.519531 C 583.214844 134.789062 584.246094 137.074219 585.402344 139.300781 C 586.613281 141.632812 586.445312 141.761719 588.464844 139.953125 C 588.683594 139.761719 588.929688 139.597656 589.160156 139.417969 C 592.03125 137.113281 594.441406 134.804688 595.089844 130.664062 C 596.316406 122.867188 598.320312 115.199219 599.984375 107.46875 C 600.648438 104.402344 601.285156 101.324219 601.894531 98.246094 C 601.964844 97.875 601.914062 97.386719 601.710938 97.097656 C 601.613281 96.953125 600.996094 97.050781 600.6875 97.1875 C 597.214844 98.738281 593.742188 100.28125 590.300781 101.902344 C 589.25 102.402344 587.980469 102.75 587.671875 104.183594 C 587.085938 106.914062 586.460938 109.644531 585.878906 112.382812 C 585 116.472656 584.140625 120.5625 583.289062 124.664062 C 582.8125 126.953125 582.351562 129.253906 581.875 131.617188 Z M 633.976562 46.945312 C 632.925781 47.945312 631.890625 48.96875 630.824219 49.945312 C 629.589844 51.078125 628.242188 52.101562 627.121094 53.332031 C 626.5 54.003906 626.046875 54.957031 625.847656 55.859375 C 624.046875 64.027344 622.335938 72.21875 620.570312 80.402344 C 618.886719 88.21875 617.152344 96.027344 615.484375 103.851562 C 614.675781 107.652344 614 111.480469 613.195312 115.285156 C 612.269531 119.625 611.25 123.949219 610.300781 128.28125 C 609.6875 131.054688 609.113281 133.839844 608.5625 136.625 C 608.46875 137.105469 608.453125 137.675781 608.628906 138.113281 C 609.710938 140.734375 610.8125 143.359375 612.023438 145.925781 C 612.351562 146.632812 612.242188 147.019531 611.636719 147.175781 C 611.019531 147.332031 610.3125 147.371094 609.695312 147.242188 C 602.382812 145.746094 595.082031 144.21875 587.785156 142.65625 C 579.558594 140.898438 571.339844 139.089844 563.109375 137.308594 C 562.457031 137.171875 561.773438 137.152344 561.136719 136.957031 C 560.738281 136.832031 560.113281 136.480469 560.113281 136.234375 C 560.117188 135.820312 560.460938 135.316406 560.804688 135.015625 C 562.480469 133.570312 564.128906 132.082031 565.921875 130.789062 C 567.90625 129.351562 568.261719 127.207031 568.71875 125.105469 C 570.257812 118.027344 571.742188 110.9375 573.242188 103.851562 C 574.082031 99.878906 574.890625 95.902344 575.742188 91.929688 C 577.027344 85.910156 578.355469 79.902344 579.648438 73.882812 C 581.144531 66.890625 582.609375 59.886719 584.109375 52.886719 C 584.585938 50.636719 585.164062 48.410156 585.601562 46.152344 C 585.722656 45.53125 585.640625 44.78125 585.398438 44.199219 C 584.363281 41.78125 583.21875 39.402344 582.144531 36.996094 C 582 36.683594 581.804688 36.199219 581.941406 36 C 582.089844 35.777344 582.609375 35.65625 582.929688 35.714844 C 585.367188 36.132812 587.796875 36.589844 590.21875 37.070312 C 595.359375 38.078125 600.5 39.078125 605.628906 40.15625 C 610.300781 41.136719 614.945312 42.246094 619.609375 43.257812 C 623.746094 44.160156 627.898438 44.992188 632.039062 45.886719 C 632.667969 46.019531 633.265625 46.28125 633.882812 46.484375 C 633.910156 46.640625 633.941406 46.792969 633.976562 46.945312 "/>
<path fill-rule="nonzero" fill="rgb(100%, 100%, 100%)" fill-opacity="1" d="M 384.675781 69.757812 C 384.816406 69.796875 384.960938 69.839844 385.097656 69.875 C 386.277344 68.953125 387.4375 68.011719 388.628906 67.105469 C 390.890625 65.378906 393.203125 63.71875 395.410156 61.917969 C 395.992188 61.441406 396.539062 60.597656 396.601562 59.878906 C 396.75 58.179688 396.621094 56.457031 396.5625 54.746094 C 396.324219 47.550781 396.082031 40.351562 395.820312 33.15625 C 395.804688 32.75 395.789062 32.246094 395.5625 31.960938 C 393.628906 29.539062 391.695312 27.117188 389.664062 24.785156 C 388.765625 23.75 388.167969 23.902344 387.433594 25.128906 C 386.449219 26.773438 385.570312 28.488281 384.523438 30.089844 C 383.488281 31.667969 383.074219 33.300781 383.191406 35.195312 C 383.453125 39.664062 383.578125 44.144531 383.742188 48.621094 C 383.949219 54.019531 384.136719 59.421875 384.355469 64.816406 C 384.421875 66.464844 384.566406 68.113281 384.675781 69.757812 Z M 397.335938 80.726562 L 397.550781 80.65625 C 397.363281 80.140625 397.179688 79.625 396.992188 79.113281 C 396.519531 79.332031 395.992188 79.472656 395.589844 79.785156 C 392.765625 82.007812 389.941406 84.226562 387.179688 86.527344 C 386.230469 87.324219 385.023438 88.011719 385.09375 89.585938 C 385.21875 92.261719 385.246094 94.941406 385.355469 97.613281 C 385.613281 103.976562 385.886719 110.335938 386.195312 116.695312 C 386.226562 117.25 386.410156 117.894531 386.753906 118.3125 C 388.582031 120.535156 390.527344 122.667969 392.335938 124.90625 C 393.117188 125.875 393.578125 125.613281 394.136719 124.785156 C 395.554688 122.671875 397.027344 120.589844 398.402344 118.449219 C 398.730469 117.925781 398.914062 117.207031 398.898438 116.585938 C 398.828125 113.953125 398.636719 111.320312 398.53125 108.679688 C 398.289062 102.332031 398.085938 95.976562 397.832031 89.628906 C 397.707031 86.660156 397.503906 83.691406 397.335938 80.726562 Z M 415.988281 22.242188 C 415.082031 23.71875 414.390625 24.894531 413.652344 26.039062 C 412.722656 27.476562 411.644531 28.832031 410.832031 30.332031 C 410.378906 31.171875 410.105469 32.238281 410.136719 33.191406 C 410.277344 38.167969 410.585938 43.136719 410.757812 48.117188 C 410.929688 52.96875 410.957031 57.832031 411.140625 62.683594 C 411.402344 69.628906 411.773438 76.574219 412.0625 83.523438 C 412.296875 89.121094 412.472656 94.726562 412.695312 100.328125 C 412.902344 105.515625 413.121094 110.699219 413.359375 115.886719 C 413.382812 116.324219 413.519531 116.832031 413.777344 117.171875 C 415.472656 119.445312 417.191406 121.710938 418.984375 123.910156 C 419.453125 124.480469 419.535156 124.914062 418.929688 125.210938 C 418.277344 125.527344 417.527344 125.75 416.804688 125.785156 C 409.4375 126.128906 402.070312 126.449219 394.699219 126.734375 C 386.324219 127.058594 377.957031 127.34375 369.585938 127.65625 C 368.878906 127.683594 368.167969 127.847656 367.46875 127.8125 C 367.050781 127.792969 366.371094 127.574219 366.3125 127.332031 C 366.226562 126.925781 366.445312 126.363281 366.710938 125.984375 C 367.96875 124.167969 369.195312 122.308594 370.609375 120.613281 C 372.148438 118.761719 371.941406 116.632812 371.878906 114.53125 C 371.773438 111.09375 371.53125 107.671875 371.398438 104.234375 C 371.246094 100.136719 371.175781 96.035156 371.011719 91.929688 C 370.632812 82.351562 370.226562 72.773438 369.828125 63.191406 C 369.480469 54.703125 368.691406 46.195312 368.957031 37.726562 C 369.121094 32.460938 366.253906 29.386719 363.355469 25.972656 C 363.054688 25.621094 362.867188 25.171875 362.625 24.765625 C 363.082031 24.59375 363.527344 24.289062 363.984375 24.261719 C 368.964844 23.96875 373.945312 23.6875 378.925781 23.472656 C 390.523438 22.972656 402.125 22.503906 413.722656 22.042969 C 414.351562 22.019531 414.988281 22.148438 415.988281 22.242188 "/>
<path fill-rule="nonzero" fill="rgb(100%, 100%, 100%)" fill-opacity="1" d="M 534.207031 91.804688 L 535.34375 89.199219 C 536.085938 89.65625 536.929688 90.007812 537.554688 90.59375 C 540.675781 93.503906 543.71875 96.488281 546.832031 99.410156 C 547.589844 100.121094 547.785156 100.898438 547.679688 101.878906 C 547.222656 106.210938 546.816406 110.542969 546.359375 114.875 C 546.175781 116.621094 546.046875 118.390625 545.667969 120.097656 C 544.839844 123.8125 545.546875 127.226562 547.296875 130.511719 C 547.789062 131.433594 548.144531 132.425781 548.550781 133.390625 C 548.910156 134.226562 548.628906 134.703125 547.726562 134.742188 C 547.226562 134.761719 546.71875 134.722656 546.21875 134.664062 C 540.820312 134.042969 535.425781 133.390625 530.023438 132.792969 C 524.828125 132.222656 519.625 131.742188 514.429688 131.171875 C 508.941406 130.5625 503.460938 129.898438 497.984375 129.226562 C 497.535156 129.171875 496.800781 128.894531 496.757812 128.628906 C 496.6875 128.214844 496.992188 127.632812 497.3125 127.269531 C 499.128906 125.195312 501.046875 123.210938 502.8125 121.089844 C 503.394531 120.398438 503.851562 119.441406 503.957031 118.554688 C 505.082031 109.324219 506.132812 100.082031 507.175781 90.839844 C 507.816406 85.226562 508.398438 79.601562 509.046875 73.992188 C 509.621094 69.042969 510.273438 64.105469 510.851562 59.164062 C 511.734375 51.550781 512.648438 43.941406 513.355469 36.3125 C 513.464844 35.078125 512.660156 33.691406 512.078125 32.476562 C 511.277344 30.820312 510.261719 29.269531 509.390625 27.648438 C 509.191406 27.277344 508.996094 26.675781 509.15625 26.398438 C 509.3125 26.125 509.964844 26 510.367188 26.046875 C 520.988281 27.214844 531.597656 28.425781 542.214844 29.609375 C 547.707031 30.222656 553.207031 30.8125 558.703125 31.414062 C 558.828125 31.425781 558.957031 31.433594 559.082031 31.445312 C 561.046875 31.6875 561.257812 32.164062 560.089844 33.769531 C 558.976562 35.292969 557.894531 36.835938 556.710938 38.296875 C 555.464844 39.832031 554.964844 41.609375 554.777344 43.511719 C 554.292969 48.554688 553.851562 53.601562 553.324219 58.640625 C 552.769531 63.875 552.144531 69.105469 551.507812 74.335938 C 551.445312 74.820312 551.128906 75.492188 550.757812 75.652344 C 550.414062 75.792969 549.71875 75.480469 549.363281 75.160156 C 546.566406 72.589844 543.808594 69.96875 541.042969 67.363281 C 540.585938 66.933594 540.136719 66.488281 539.640625 66.109375 C 538.484375 65.226562 537.714844 64.273438 537.9375 62.628906 C 538.265625 60.152344 538.367188 57.640625 538.5625 55.140625 C 538.738281 52.863281 538.964844 50.582031 539.054688 48.292969 C 539.070312 47.921875 538.53125 47.234375 538.1875 47.195312 C 534.992188 46.828125 531.777344 46.609375 528.578125 46.25 C 527.136719 46.085938 526.824219 46.941406 526.703125 48.015625 C 525.875 55.3125 525.0625 62.617188 524.246094 69.914062 C 524.097656 71.21875 524.515625 71.703125 526.035156 71.902344 C 528.234375 72.1875 530.433594 72.484375 532.644531 72.707031 C 533.84375 72.832031 534.210938 73.4375 534.070312 74.566406 C 533.535156 78.761719 533.03125 82.953125 532.519531 87.148438 C 532.390625 88.199219 531.699219 88.414062 530.800781 88.328125 C 528.585938 88.117188 526.375 87.921875 524.164062 87.683594 C 522.363281 87.488281 522.09375 87.734375 521.886719 89.550781 C 521.351562 94.289062 520.75 99.019531 520.199219 103.753906 C 519.855469 106.730469 519.554688 109.71875 519.25 112.703125 C 519.15625 113.585938 519.570312 113.988281 520.472656 114.058594 C 523.855469 114.332031 527.230469 114.636719 530.605469 114.964844 C 531.484375 115.050781 531.914062 114.835938 532.019531 113.882812 C 532.464844 109.800781 532.984375 105.730469 533.457031 101.652344 C 533.835938 98.410156 534.1875 95.171875 534.550781 91.933594 C 534.4375 91.890625 534.324219 91.847656 534.207031 91.804688 "/>
<path fill-rule="nonzero" fill="rgb(100%, 100%, 100%)" fill-opacity="1" d="M 259.125 38.007812 C 260.550781 37.878906 260.703125 38.476562 260.457031 39.316406 C 259.949219 41.042969 259.515625 42.800781 258.863281 44.46875 C 258.027344 46.621094 257.882812 48.742188 258.441406 50.980469 C 259.667969 55.851562 260.832031 60.738281 261.992188 65.621094 C 263.027344 69.976562 264.03125 74.339844 265.027344 78.699219 C 265.1875 79.390625 265.3125 80.101562 265.335938 80.808594 C 265.355469 81.429688 265.402344 82.214844 265.070312 82.625 C 264.859375 82.878906 263.894531 82.695312 263.371094 82.46875 C 259.773438 80.902344 256.285156 79.023438 252.589844 77.746094 C 249.753906 76.761719 248.664062 74.933594 248.09375 72.253906 C 247.292969 68.503906 246.226562 64.8125 245.339844 61.074219 C 245.066406 59.917969 244.578125 59.582031 243.398438 59.878906 C 241.011719 60.480469 238.578125 60.914062 236.175781 61.476562 C 235.371094 61.667969 234.441406 61.867188 233.875 62.394531 C 233.453125 62.78125 233.277344 63.753906 233.410156 64.375 C 234.644531 70.132812 235.972656 75.859375 237.269531 81.601562 C 237.566406 82.902344 237.855469 84.214844 238.152344 85.519531 C 238.539062 87.210938 238.957031 87.46875 240.722656 87.09375 C 242.894531 86.636719 245.070312 86.195312 247.238281 85.703125 C 248.246094 85.472656 248.777344 85.898438 248.976562 86.8125 C 249.894531 91.027344 250.800781 95.238281 251.691406 99.457031 C 251.90625 100.46875 251.300781 100.910156 250.417969 101.121094 C 248.21875 101.644531 246.015625 102.175781 243.816406 102.699219 C 242.1875 103.085938 242.015625 103.453125 242.382812 105.070312 C 243.425781 109.636719 244.402344 114.210938 245.421875 118.78125 C 246.089844 121.796875 246.792969 124.800781 247.472656 127.8125 C 247.703125 128.808594 248.28125 129.023438 249.25 128.765625 C 252.359375 127.929688 255.488281 127.148438 258.613281 126.375 C 260.121094 126.003906 260.222656 125.910156 259.898438 124.457031 C 258.570312 118.582031 257.246094 112.703125 255.910156 106.832031 C 255.546875 105.242188 255.101562 103.667969 254.800781 102.070312 C 254.703125 101.554688 254.820312 100.894531 255.09375 100.46875 C 255.210938 100.28125 256.027344 100.371094 256.429688 100.550781 C 260.824219 102.511719 265.210938 104.484375 269.5625 106.535156 C 270.082031 106.785156 270.59375 107.464844 270.738281 108.039062 C 271.523438 111.207031 272.175781 114.402344 272.90625 117.585938 C 273.867188 121.746094 274.84375 125.898438 275.828125 130.050781 C 276.386719 132.398438 278.398438 133.710938 279.78125 135.460938 C 280.453125 136.316406 281.253906 137.058594 281.984375 137.863281 C 282.675781 138.628906 282.410156 139.195312 281.53125 139.457031 C 280.492188 139.769531 279.417969 139.964844 278.355469 140.207031 C 273.871094 141.222656 269.386719 142.21875 264.90625 143.261719 C 261.648438 144.007812 258.410156 144.828125 255.148438 145.589844 C 252.996094 146.09375 250.824219 146.539062 248.664062 147.019531 C 244.171875 148.019531 239.683594 149.035156 235.195312 150.035156 C 234.253906 150.238281 233.308594 150.4375 232.355469 150.558594 C 231.3125 150.6875 230.933594 150.183594 231.339844 149.214844 C 232.421875 146.628906 233.480469 144.035156 234.664062 141.496094 C 235.136719 140.476562 235.257812 139.519531 235.019531 138.46875 C 233 129.394531 230.996094 120.316406 228.960938 111.25 C 227.519531 104.835938 226.003906 98.445312 224.585938 92.027344 C 222.925781 84.511719 221.355469 76.96875 219.714844 69.445312 C 218.855469 65.515625 218.03125 61.570312 216.953125 57.703125 C 216.632812 56.558594 215.59375 55.546875 214.707031 54.644531 C 213.386719 53.308594 211.894531 52.152344 210.519531 50.867188 C 210.160156 50.527344 209.953125 50.023438 209.675781 49.59375 C 210.097656 49.351562 210.488281 48.988281 210.941406 48.878906 C 214.035156 48.148438 217.148438 47.472656 220.253906 46.773438 C 227.527344 45.136719 234.800781 43.5 242.070312 41.859375 C 247.5 40.628906 252.925781 39.390625 258.363281 38.152344 C 258.726562 38.070312 259.101562 38.015625 259.125 38.007812 "/>
<path fill-rule="nonzero" fill="rgb(100%, 100%, 100%)" fill-opacity="1" d="M 710.554688 134.371094 C 710.484375 133.988281 710.417969 133.582031 710.320312 133.179688 C 709.75 130.78125 709.160156 128.382812 708.59375 125.988281 C 708.273438 124.609375 708.648438 124.230469 710.007812 124.714844 C 713.324219 125.890625 716.605469 127.152344 719.90625 128.359375 C 723.605469 129.707031 727.316406 131.027344 731.015625 132.355469 C 732.410156 132.855469 732.589844 133.601562 731.445312 134.582031 C 729.796875 135.988281 728.160156 137.441406 726.367188 138.636719 C 724.792969 139.6875 723.921875 141.050781 723.359375 142.792969 C 722.457031 145.613281 721.425781 148.386719 720.425781 151.171875 C 718.722656 155.902344 717.011719 160.625 715.292969 165.34375 C 714.625 167.1875 713.960938 169.035156 713.242188 170.863281 C 713.070312 171.296875 712.769531 171.792969 712.382812 172.019531 C 709.664062 173.65625 706.890625 175.203125 704.167969 176.839844 C 703.136719 177.460938 702.179688 177.472656 701.070312 177.058594 C 695.550781 174.984375 690.007812 172.957031 684.476562 170.910156 C 682.359375 170.128906 680.246094 169.332031 678.121094 168.578125 C 677.136719 168.234375 676.558594 167.671875 676.25 166.605469 C 675.4375 163.796875 674.597656 160.980469 673.539062 158.261719 C 672.914062 156.660156 673.546875 155.386719 674.03125 154.050781 C 676.964844 146.027344 679.933594 138.011719 682.914062 129.996094 C 686.109375 121.40625 689.347656 112.828125 692.542969 104.230469 C 694.597656 98.703125 696.605469 93.15625 698.648438 87.625 C 699.90625 84.203125 701.210938 80.800781 702.4375 77.375 C 703 75.800781 704.433594 75.316406 705.660156 74.574219 C 707.492188 73.472656 709.378906 72.46875 711.203125 71.367188 C 712.0625 70.84375 712.875 70.710938 713.820312 71.066406 C 718.761719 72.925781 723.71875 74.753906 728.664062 76.601562 C 731.332031 77.605469 733.972656 78.683594 736.65625 79.636719 C 738.140625 80.167969 739.136719 80.90625 739.484375 82.613281 C 739.863281 84.484375 740.558594 86.308594 741.246094 88.097656 C 742.070312 90.222656 741.742188 92.195312 741.003906 94.28125 C 738.636719 101 736.425781 107.769531 734.101562 114.5 C 733.09375 117.425781 731.964844 120.308594 730.878906 123.203125 C 730.550781 124.085938 730.042969 124.1875 729.417969 123.449219 C 728.386719 122.238281 727.359375 121.023438 726.414062 119.746094 C 724.476562 117.121094 722.625 114.433594 720.679688 111.8125 C 720.078125 111 720.132812 110.316406 720.464844 109.394531 C 722.128906 104.792969 723.679688 100.152344 725.289062 95.527344 C 725.59375 94.640625 725.378906 94.199219 724.433594 93.847656 C 721.40625 92.738281 718.425781 91.492188 715.425781 90.320312 C 713.84375 89.699219 713.273438 89.984375 712.679688 91.621094 C 711.320312 95.355469 709.988281 99.101562 708.59375 102.828125 C 707.128906 106.746094 705.570312 110.628906 704.125 114.550781 C 702.347656 119.375 700.652344 124.234375 698.894531 129.070312 C 696.300781 136.222656 693.675781 143.371094 691.066406 150.515625 C 690.910156 150.949219 690.78125 151.394531 690.640625 151.832031 C 689.988281 153.847656 689.976562 153.875 691.921875 154.628906 C 694.890625 155.765625 697.871094 156.867188 700.847656 157.988281 C 701.941406 158.394531 702.359375 157.777344 702.679688 156.878906 C 704.253906 152.464844 705.832031 148.054688 707.433594 143.652344 C 708.367188 141.058594 709.351562 138.484375 710.289062 135.894531 C 710.457031 135.429688 710.464844 134.910156 710.554688 134.371094 "/>
<path fill-rule="nonzero" fill="rgb(100%, 100%, 100%)" fill-opacity="1" d="M 650.117188 101.097656 C 649.96875 101.15625 649.824219 101.226562 649.675781 101.285156 C 649.929688 101.652344 650.335938 102.363281 650.410156 102.332031 C 651.191406 101.988281 651.917969 101.519531 652.664062 101.085938 C 652.582031 100.976562 652.5 100.863281 652.414062 100.746094 C 651.832031 101.191406 651.25 101.632812 650.613281 102.121094 C 650.425781 101.734375 650.269531 101.414062 650.117188 101.097656 Z M 658.121094 104.539062 C 657.988281 104.515625 657.859375 104.488281 657.726562 104.464844 C 657.367188 105.179688 657.019531 105.898438 656.652344 106.613281 C 653.902344 112 651.148438 117.386719 648.402344 122.785156 C 647.839844 123.890625 648.0625 124.394531 649.210938 124.734375 C 650.734375 125.1875 652.253906 125.640625 653.777344 126.089844 C 655.058594 126.464844 655.335938 126.28125 655.519531 124.96875 C 656.4375 118.480469 657.363281 112 658.261719 105.511719 C 658.304688 105.203125 658.171875 104.871094 658.121094 104.539062 Z M 638.128906 154.554688 C 638.136719 154.558594 638.402344 154.71875 638.699219 154.890625 C 638.175781 155.890625 637.402344 155.371094 636.820312 155.214844 C 635.363281 154.820312 633.953125 154.277344 632.511719 153.832031 C 626.472656 151.945312 620.429688 150.085938 614.394531 148.183594 C 613.890625 148.023438 613.464844 147.632812 612.679688 147.152344 C 614.789062 145.945312 616.554688 144.933594 618.320312 143.921875 C 618.679688 143.71875 619.039062 143.492188 619.421875 143.324219 C 621.6875 142.332031 623.007812 140.609375 624.089844 138.375 C 627.054688 132.230469 630.308594 126.230469 633.410156 120.15625 C 637.292969 112.558594 641.136719 104.945312 645.007812 97.339844 C 646.785156 93.839844 648.609375 90.363281 650.378906 86.859375 C 651.988281 83.671875 653.558594 80.464844 655.144531 77.265625 C 656.570312 74.386719 657.804688 71.378906 659.472656 68.640625 C 661.207031 65.808594 661.191406 62.90625 660.761719 59.84375 C 660.59375 58.605469 660.480469 57.347656 660.367188 56.097656 C 660.238281 54.71875 660.601562 54.375 661.9375 54.773438 C 664.667969 55.578125 667.378906 56.457031 670.101562 57.292969 C 674.546875 58.65625 678.980469 60.042969 683.441406 61.355469 C 685.355469 61.914062 685.507812 62.300781 684.128906 63.804688 C 682.457031 65.621094 680.757812 67.414062 679.132812 69.273438 C 678.71875 69.75 678.386719 70.414062 678.296875 71.035156 C 677.242188 78.160156 676.25 85.296875 675.234375 92.421875 C 673.953125 101.371094 672.648438 110.320312 671.394531 119.277344 C 670.785156 123.632812 670.285156 127.996094 669.714844 132.355469 C 669.402344 134.675781 669.03125 136.992188 668.707031 139.308594 C 668.0625 143.902344 667.378906 148.488281 666.835938 153.089844 C 666.703125 154.207031 666.835938 155.457031 667.226562 156.5 C 668.105469 158.847656 669.183594 161.125 670.253906 163.394531 C 670.625 164.1875 670.40625 164.578125 669.632812 164.539062 C 668.503906 164.480469 667.355469 164.386719 666.285156 164.078125 C 660.574219 162.410156 654.890625 160.660156 649.195312 158.953125 C 648.148438 158.640625 647.082031 158.40625 646.039062 158.089844 C 645.710938 157.992188 645.171875 157.730469 645.171875 157.554688 C 645.183594 157.207031 645.421875 156.777344 645.695312 156.519531 C 647.253906 155.070312 648.785156 153.574219 650.457031 152.253906 C 651.660156 151.3125 652.125 150.136719 652.28125 148.710938 C 652.5 146.675781 652.757812 144.640625 653.042969 142.613281 C 653.246094 141.179688 653.035156 140.851562 651.671875 140.433594 C 648.867188 139.582031 646.066406 138.707031 643.269531 137.816406 C 641.410156 137.214844 640.960938 137.339844 640.035156 139.066406 C 638.988281 141.023438 637.964844 142.992188 637.035156 145 C 636.773438 145.5625 636.695312 146.320312 636.8125 146.9375 C 637.179688 148.78125 637.714844 150.597656 638.105469 152.4375 C 638.238281 153.042969 638.128906 153.699219 638.128906 154.554688 "/>
<path fill-rule="nonzero" fill="rgb(100%, 100%, 100%)" fill-opacity="1" d="M 114.378906 122.296875 C 114.476562 123.761719 114.5625 125.226562 114.691406 126.6875 C 114.785156 127.769531 114.503906 128.519531 113.355469 128.902344 C 111.929688 129.375 110.554688 130.007812 109.152344 130.558594 C 108.398438 130.859375 108.085938 130.398438 107.84375 129.792969 C 106.457031 126.285156 105.066406 122.789062 103.683594 119.285156 C 101.878906 114.726562 100.085938 110.171875 98.289062 105.613281 C 96.550781 101.167969 94.828125 96.71875 93.074219 92.277344 C 92.730469 91.394531 92.964844 90.851562 93.84375 90.5 C 98.5 88.640625 103.15625 86.78125 107.804688 84.894531 C 111.492188 83.402344 115.15625 81.851562 118.847656 80.375 C 122.925781 78.746094 127.03125 77.1875 131.113281 75.570312 C 133.683594 74.554688 136.230469 73.476562 138.796875 72.449219 C 141.070312 71.542969 141.445312 71.648438 142.394531 73.9375 C 144.5 79.039062 146.511719 84.171875 148.578125 89.285156 C 150.476562 93.984375 152.40625 98.675781 154.304688 103.371094 C 155.191406 105.582031 156.011719 107.824219 156.90625 110.03125 C 157.285156 110.957031 156.96875 111.445312 156.125 111.789062 C 154.652344 112.390625 153.183594 112.988281 151.726562 113.632812 C 150.976562 113.964844 150.441406 113.9375 149.878906 113.222656 C 146.5 108.90625 143.066406 104.628906 139.660156 100.332031 C 138.125 98.402344 136.578125 96.480469 135.082031 94.519531 C 134.503906 93.761719 133.871094 93.578125 133.027344 93.960938 C 132.644531 94.132812 132.253906 94.289062 131.855469 94.433594 C 130.820312 94.820312 130.578125 95.453125 131.003906 96.507812 C 133.117188 101.707031 135.164062 106.941406 137.265625 112.144531 C 139.496094 117.667969 141.761719 123.164062 144.007812 128.675781 C 147.660156 137.628906 151.316406 146.585938 154.976562 155.535156 C 156.128906 158.359375 157.304688 161.175781 158.453125 164.003906 C 158.863281 165.007812 159.464844 165.730469 160.476562 166.269531 C 162.757812 167.496094 164.957031 168.878906 167.167969 170.234375 C 167.453125 170.40625 167.816406 170.820312 167.769531 171.046875 C 167.71875 171.316406 167.296875 171.59375 166.972656 171.726562 C 161.585938 173.921875 156.1875 176.101562 150.785156 178.269531 C 148.457031 179.207031 146.121094 180.128906 143.773438 181.023438 C 143.410156 181.164062 142.984375 181.125 142.582031 181.171875 C 142.566406 180.738281 142.433594 180.265625 142.550781 179.871094 C 143.238281 177.542969 143.945312 175.214844 144.734375 172.917969 C 145.15625 171.6875 145.039062 170.558594 144.566406 169.390625 C 142.390625 163.992188 140.253906 158.582031 138.066406 153.191406 C 135.851562 147.722656 133.578125 142.273438 131.347656 136.8125 C 128.589844 130.0625 125.851562 123.308594 123.09375 116.558594 C 121.164062 111.828125 119.234375 107.097656 117.292969 102.371094 C 116.65625 100.828125 116.589844 100.835938 115.082031 101.375 C 112.714844 102.222656 112.945312 102.136719 113.121094 104.378906 C 113.59375 110.347656 113.976562 116.324219 114.390625 122.296875 C 114.386719 122.296875 114.382812 122.296875 114.378906 122.296875 "/>
<path fill-rule="nonzero" fill="rgb(100%, 100%, 100%)" fill-opacity="1" d="M 484.460938 75.730469 C 483.839844 86.605469 483.21875 97.476562 482.605469 108.347656 C 482.433594 111.433594 482.207031 114.527344 482.144531 117.617188 C 482.128906 118.417969 482.476562 119.324219 482.914062 120.027344 C 484.304688 122.257812 485.824219 124.414062 487.265625 126.625 C 487.445312 126.90625 487.617188 127.40625 487.488281 127.621094 C 487.351562 127.839844 486.839844 127.9375 486.507812 127.921875 C 482.949219 127.75 479.394531 127.570312 475.839844 127.339844 C 471.117188 127.03125 466.398438 126.683594 461.679688 126.320312 C 461.222656 126.28125 460.789062 126.015625 460.339844 125.851562 C 460.574219 125.429688 460.742188 124.945312 461.054688 124.601562 C 462.652344 122.832031 464.375 121.160156 465.886719 119.324219 C 466.53125 118.539062 467.089844 117.445312 467.167969 116.453125 C 467.773438 108.519531 468.28125 100.578125 468.753906 92.632812 C 469.550781 79.164062 470.296875 65.695312 471.070312 52.222656 C 471.226562 49.421875 471.34375 46.617188 471.558594 43.820312 C 471.652344 42.585938 471.21875 42.132812 469.972656 42.050781 C 467.21875 41.863281 467.695312 41.980469 466.914062 43.96875 C 464.199219 50.863281 461.453125 57.742188 458.75 64.644531 C 458.3125 65.765625 457.710938 66.347656 456.417969 66.175781 C 455.011719 65.988281 453.578125 65.949219 452.164062 65.875 C 451.304688 65.832031 451.121094 65.320312 451.175781 64.597656 C 451.71875 57.292969 452.277344 49.984375 452.800781 42.675781 C 453.226562 36.746094 453.621094 30.804688 454.003906 24.871094 C 454.109375 23.296875 454.304688 23.0625 455.886719 23.160156 C 465.039062 23.699219 474.183594 24.222656 483.328125 24.800781 C 490.011719 25.214844 496.695312 25.707031 503.378906 26.148438 C 506.246094 26.339844 506.671875 26.808594 506.488281 29.636719 C 506.234375 33.46875 506 37.304688 505.757812 41.140625 C 505.441406 46.035156 505.125 50.925781 504.800781 55.8125 C 504.539062 59.738281 504.253906 63.660156 503.992188 67.585938 C 503.894531 69.058594 503.667969 69.246094 502.230469 69.148438 C 500.734375 69.046875 499.226562 68.976562 497.722656 68.949219 C 496.871094 68.921875 496.4375 68.578125 496.253906 67.734375 C 495.054688 62.382812 493.824219 57.042969 492.605469 51.695312 C 492.050781 49.292969 491.511719 46.886719 490.941406 44.488281 C 490.65625 43.28125 489.601562 42.835938 487.679688 43.039062 C 486.527344 43.15625 486.476562 43.96875 486.421875 44.855469 C 485.757812 55.144531 485.074219 65.4375 484.398438 75.726562 C 484.421875 75.730469 484.441406 75.730469 484.460938 75.730469 "/>
<path fill-rule="nonzero" fill="rgb(100%, 100%, 100%)" fill-opacity="1" d="M 437.132812 22.65625 C 440.988281 22.65625 444.84375 22.632812 448.695312 22.683594 C 449.210938 22.6875 449.90625 22.925781 450.171875 23.304688 C 450.367188 23.582031 450.140625 24.34375 449.871094 24.742188 C 448.382812 26.964844 446.800781 29.121094 445.3125 31.339844 C 444.949219 31.871094 444.609375 32.535156 444.582031 33.15625 C 444.320312 39.601562 444.109375 46.050781 443.898438 52.5 C 443.667969 59.789062 443.4375 67.074219 443.226562 74.363281 C 443.042969 80.976562 442.894531 87.59375 442.71875 94.210938 C 442.628906 97.226562 442.5 100.238281 442.410156 103.253906 C 442.28125 107.6875 442.160156 112.121094 442.078125 116.550781 C 442.066406 117.109375 442.234375 117.75 442.535156 118.210938 C 443.894531 120.316406 445.351562 122.363281 446.734375 124.457031 C 446.984375 124.84375 447.066406 125.347656 447.222656 125.796875 C 446.742188 125.949219 446.257812 126.25 445.773438 126.234375 C 438.40625 126.050781 431.023438 125.828125 423.652344 125.59375 C 422.980469 125.566406 422.316406 125.34375 421.648438 125.210938 C 421.984375 124.570312 422.246094 123.875 422.664062 123.296875 C 423.867188 121.636719 425.253906 120.101562 426.332031 118.363281 C 426.988281 117.3125 427.507812 116 427.554688 114.777344 C 427.796875 108.707031 427.839844 102.636719 428.007812 96.558594 C 428.171875 90.65625 428.429688 84.753906 428.585938 78.847656 C 428.855469 68.84375 429.078125 58.835938 429.324219 48.832031 C 429.445312 44.097656 429.496094 39.367188 429.773438 34.644531 C 429.917969 32.238281 428.996094 30.355469 427.734375 28.492188 C 426.578125 26.769531 425.4375 25.03125 424.363281 23.25 C 423.851562 22.40625 424.378906 22.136719 425.199219 22.167969 C 427.417969 22.257812 429.632812 22.355469 431.859375 22.402344 C 433.613281 22.4375 435.375 22.40625 437.132812 22.40625 Z M 437.132812 22.65625 "/>
<path fill-rule="nonzero" fill="rgb(100%, 100%, 100%)" fill-opacity="1" d="M 202.996094 178.128906 C 201.796875 177.121094 200.023438 177.011719 198.34375 177.519531 C 196.347656 178.117188 194.542969 179.597656 195.015625 181.792969 C 196.039062 186.566406 206.980469 180.375 208.800781 188.890625 C 209.898438 194.023438 206.308594 197.742188 201.539062 199.171875 C 198.519531 200.078125 195.371094 200.058594 192.886719 198.335938 C 193.753906 196.972656 194.617188 195.613281 195.484375 194.25 C 196.886719 195.511719 198.902344 195.871094 200.816406 195.292969 C 202.8125 194.695312 204.84375 192.941406 204.378906 190.746094 C 203.261719 185.507812 192.375 191.984375 190.550781 183.472656 C 189.496094 178.546875 193.472656 174.894531 197.964844 173.539062 C 200.503906 172.769531 203.195312 172.71875 205.457031 173.910156 C 204.632812 175.316406 203.820312 176.722656 202.996094 178.128906 "/>
<path fill-rule="nonzero" fill="rgb(100%, 100%, 100%)" fill-opacity="1" d="M 224.164062 166.8125 C 225.621094 166.441406 227.070312 166.074219 228.519531 165.710938 C 229.714844 172.472656 230.902344 179.234375 232.089844 186 C 235.558594 185.132812 239.03125 184.269531 242.503906 183.410156 C 242.726562 184.710938 242.957031 186.011719 243.1875 187.308594 C 238.261719 188.519531 233.339844 189.75 228.417969 190.992188 C 227 182.933594 225.582031 174.871094 224.164062 166.8125 "/>
<path fill-rule="nonzero" fill="rgb(100%, 100%, 100%)" fill-opacity="1" d="M 256.433594 159.179688 C 257.890625 158.871094 259.351562 158.566406 260.8125 158.253906 C 262 166.390625 263.183594 174.523438 264.371094 182.65625 C 262.910156 182.957031 261.453125 183.269531 259.988281 183.574219 C 258.804688 175.4375 257.621094 167.3125 256.433594 159.179688 "/>
<path fill-rule="nonzero" fill="rgb(100%, 100%, 100%)" fill-opacity="1" d="M 305.273438 173.488281 C 302.445312 175.566406 299.125 176.949219 295.316406 177.582031 C 287.703125 178.828125 281.671875 174.621094 280.792969 166.957031 C 279.898438 159.078125 284.757812 153.011719 292.371094 151.753906 C 296.144531 151.125 299.625 151.371094 302.46875 153.25 C 301.511719 154.511719 300.546875 155.773438 299.59375 157.035156 C 297.84375 155.761719 295.339844 155.292969 292.859375 155.703125 C 287.757812 156.542969 284.816406 161.007812 285.375 165.894531 C 285.96875 171.140625 289.800781 174.449219 294.902344 173.617188 C 297.132812 173.25 299.113281 172.5 300.546875 171.382812 C 300.328125 169.453125 300.109375 167.519531 299.890625 165.582031 C 298.203125 165.859375 296.511719 166.136719 294.824219 166.410156 C 294.675781 165.089844 294.523438 163.773438 294.375 162.453125 C 297.527344 161.933594 300.683594 161.421875 303.839844 160.914062 Z M 305.273438 173.488281 "/>
<path fill-rule="nonzero" fill="rgb(100%, 100%, 100%)" fill-opacity="1" d="M 336.050781 168.019531 C 341.207031 167.460938 344.320312 163.1875 343.921875 157.902344 C 343.550781 152.972656 339.859375 149.414062 334.699219 149.976562 C 329.578125 150.539062 326.472656 154.835938 326.839844 159.765625 C 327.234375 165.046875 330.933594 168.578125 336.050781 168.019531 Z M 334.367188 145.996094 C 342.109375 145.003906 347.96875 149.621094 348.566406 157.5625 C 349.140625 165.292969 344.054688 171.027344 336.3125 172.007812 C 328.664062 172.835938 322.808594 168.296875 322.230469 160.570312 C 321.640625 152.640625 326.71875 146.832031 334.367188 145.996094 "/>
<path fill-rule="nonzero" fill="rgb(100%, 100%, 100%)" fill-opacity="1" d="M 368.382812 163.707031 C 369.816406 163.613281 371.242188 163.523438 372.667969 163.433594 C 371.8125 166.582031 370.957031 169.730469 370.097656 172.882812 C 368.84375 172.964844 367.59375 173.042969 366.339844 173.125 C 367.019531 169.988281 367.703125 166.847656 368.382812 163.707031 "/>
<path fill-rule="nonzero" fill="rgb(100%, 100%, 100%)" fill-opacity="1" d="M 416.03125 141.933594 C 417.511719 141.917969 418.984375 141.910156 420.460938 141.902344 L 420.640625 166.785156 C 419.160156 166.792969 417.679688 166.804688 416.203125 166.820312 C 416.144531 158.523438 416.085938 150.230469 416.03125 141.933594 "/>
<path fill-rule="nonzero" fill="rgb(100%, 100%, 100%)" fill-opacity="1" d="M 448.179688 152.90625 C 450.671875 152.984375 453.597656 152.878906 453.667969 149.652344 C 453.730469 146.703125 450.996094 146.253906 448.714844 146.179688 C 447.433594 146.136719 446.15625 146.089844 444.882812 146.046875 C 444.828125 148.296875 444.78125 150.542969 444.734375 152.789062 C 445.882812 152.828125 447.027344 152.867188 448.179688 152.90625 Z M 440.53125 142.117188 C 443.417969 142.210938 446.300781 142.300781 449.179688 142.398438 C 453.960938 142.554688 458.429688 144.273438 458.304688 149.855469 C 458.230469 153.4375 456.097656 155.992188 452.394531 156.386719 C 454.519531 160.128906 456.640625 163.871094 458.769531 167.617188 C 456.984375 167.550781 455.207031 167.484375 453.421875 167.421875 C 451.574219 163.84375 449.734375 160.265625 447.886719 156.6875 C 446.808594 156.65625 445.730469 156.617188 444.652344 156.582031 C 444.578125 160.09375 444.5 163.605469 444.421875 167.117188 C 442.945312 167.070312 441.472656 167.023438 439.992188 166.976562 C 440.171875 158.691406 440.355469 150.402344 440.53125 142.117188 "/>
<path fill-rule="nonzero" fill="rgb(100%, 100%, 100%)" fill-opacity="1" d="M 477.332031 143.828125 C 482.824219 144.246094 488.320312 144.683594 493.8125 145.140625 C 493.738281 146.476562 493.667969 147.808594 493.597656 149.140625 C 489.578125 148.808594 485.5625 148.484375 481.550781 148.160156 C 481.441406 150.199219 481.332031 152.230469 481.226562 154.265625 C 485.035156 154.558594 488.835938 154.871094 492.644531 155.183594 C 492.570312 156.515625 492.503906 157.847656 492.433594 159.179688 C 488.625 158.863281 484.824219 158.558594 481.015625 158.261719 L 480.660156 164.988281 C 484.882812 165.316406 489.113281 165.660156 493.339844 166.015625 C 493.269531 167.34375 493.199219 168.675781 493.128906 170.007812 C 487.421875 169.53125 481.722656 169.078125 476.023438 168.648438 C 476.460938 160.371094 476.894531 152.097656 477.332031 143.828125 "/>
<path fill-rule="nonzero" fill="rgb(100%, 100%, 100%)" fill-opacity="1" d="M 513.410156 147.175781 C 514.878906 147.355469 516.351562 147.535156 517.824219 147.714844 C 517.25 154.628906 516.671875 161.546875 516.097656 168.457031 C 519.613281 168.886719 523.128906 169.328125 526.648438 169.773438 C 526.535156 171.101562 526.425781 172.429688 526.316406 173.753906 C 521.328125 173.117188 516.339844 172.503906 511.347656 171.902344 C 512.035156 163.660156 512.722656 155.421875 513.410156 147.175781 "/>
<path fill-rule="nonzero" fill="rgb(100%, 100%, 100%)" fill-opacity="1" d="M 557.960938 169.164062 C 557.082031 165.613281 556.199219 162.070312 555.324219 158.523438 C 553.644531 161.625 551.964844 164.734375 550.285156 167.847656 C 552.839844 168.28125 555.402344 168.71875 557.960938 169.164062 Z M 554.148438 153.015625 C 555.417969 153.234375 556.6875 153.453125 557.949219 153.671875 C 560.546875 162.464844 563.136719 171.269531 565.730469 180.066406 C 564.058594 179.773438 562.382812 179.480469 560.707031 179.191406 C 560.160156 177.183594 559.605469 175.179688 559.058594 173.171875 C 555.488281 172.554688 551.914062 171.945312 548.347656 171.339844 C 547.382812 173.085938 546.421875 174.832031 545.457031 176.582031 C 543.816406 176.304688 542.175781 176.03125 540.539062 175.761719 C 545.074219 168.167969 549.613281 160.585938 554.148438 153.015625 "/>
<path fill-rule="nonzero" fill="rgb(100%, 100%, 100%)" fill-opacity="1" d="M 586.03125 159.050781 C 587.964844 159.484375 589.890625 159.917969 591.824219 160.359375 C 594.84375 167.28125 597.863281 174.207031 600.882812 181.140625 C 600.90625 181.144531 600.925781 181.148438 600.949219 181.152344 C 601.898438 175.136719 602.84375 169.121094 603.792969 163.105469 C 605.25 163.445312 606.707031 163.785156 608.164062 164.121094 C 606.890625 172.21875 605.617188 180.3125 604.34375 188.410156 C 602.492188 187.980469 600.640625 187.550781 598.789062 187.125 C 595.722656 179.984375 592.648438 172.847656 589.582031 165.71875 C 589.558594 165.710938 589.535156 165.710938 589.511719 165.703125 C 588.535156 171.917969 587.558594 178.132812 586.582031 184.351562 C 585.121094 184.019531 583.667969 183.695312 582.207031 183.371094 C 583.480469 175.261719 584.757812 167.15625 586.03125 159.050781 "/>
<path fill-rule="nonzero" fill="rgb(100%, 100%, 100%)" fill-opacity="1" d="M 631.742188 191.617188 C 637.179688 193.175781 642.078125 192.171875 643.257812 186.351562 C 644.4375 180.53125 641.050781 177.101562 635.75 175.566406 C 634.433594 175.1875 633.109375 174.808594 631.792969 174.429688 C 630.699219 179.847656 629.597656 185.273438 628.503906 190.691406 C 629.585938 190.996094 630.664062 191.304688 631.742188 191.617188 Z M 628.234375 169.328125 C 631.4375 170.238281 634.636719 171.160156 637.839844 172.085938 C 644.242188 173.941406 649.441406 179.5625 647.800781 187.679688 C 646.144531 195.863281 638.324219 197.589844 632.476562 195.914062 C 629.445312 195.042969 626.417969 194.179688 623.386719 193.320312 C 625.003906 185.320312 626.625 177.324219 628.234375 169.328125 "/>
</svg>
