<?xml version="1.0" encoding="UTF-8"?>
<svg style="background:transparent !important" xmlns="http://www.w3.org/2000/svg" xmlns:xlink="http://www.w3.org/1999/xlink" width="765.3515629999999" height="445.9804690000001" viewBox="31.410156 102.636719 765.3515629999999 445.9804690000001">
<path fill-rule="evenodd" fill="rgb(94.902039%, 39.607239%, 12.940979%)" fill-opacity="1" d="M 377.855469 103.144531 L 429.824219 102.636719 L 440.605469 112.992188 L 445.035156 117.339844 L 445.542969 169.820312 L 441.316406 174.027344 L 445.625 178.148438 L 446.128906 230.453125 L 431.25 245.625 L 377.785156 246.140625 L 377.503906 217 L 385.023438 216.929688 L 384.203125 132.222656 L 376.683594 132.292969 L 376.683594 132.253906 L 369.527344 132.4375 L 358.097656 192.597656 L 358.730469 217.453125 L 366.074219 217.265625 L 366.816406 246.394531 L 322.652344 247.519531 L 321.90625 218.386719 L 329.425781 218.195312 L 328.785156 193.175781 L 314.308594 133.847656 L 305.234375 134.078125 L 304.492188 104.945312 L 337.136719 104.113281 L 341.648438 122.605469 L 345.207031 103.90625 L 377.851562 103.074219 Z M 258.332031 222.074219 L 261.609375 221.878906 L 256.53125 137.320312 L 249.023438 137.773438 L 247.28125 108.679688 L 291.554688 106.023438 L 293.304688 135.113281 L 285.792969 135.5625 L 290.875 220.121094 L 291.636719 220.078125 L 290.703125 204.542969 L 319.96875 202.785156 L 322.644531 247.410156 L 255.851562 251.417969 L 255.832031 251.101562 L 194.4375 256.957031 L 194.433594 256.914062 L 161.363281 260.707031 L 160.582031 253.761719 L 156.589844 234.847656 L 155.648438 234.957031 L 156.234375 256.324219 L 156.78125 261.234375 L 121.765625 265.253906 L 120.136719 251.035156 L 108.484375 267.558594 L 55.800781 276.679688 L 50.832031 247.96875 L 58.242188 246.683594 L 43.789062 163.214844 L 36.382812 164.496094 L 31.410156 135.78125 L 84.046875 126.667969 L 96.355469 135.152344 L 101.429688 138.730469 L 110.382812 190.445312 L 106.890625 195.273438 L 111.804688 198.648438 L 118.679688 238.371094 L 118.441406 236.300781 L 126.515625 235.371094 L 124.308594 150.535156 L 117.488281 151.320312 L 114.167969 122.367188 L 171.441406 115.792969 L 174.765625 144.746094 L 167.960938 145.527344 L 185.183594 228.640625 L 193.09375 227.730469 L 193.101562 227.808594 L 199.15625 227.230469 L 191.113281 142.902344 L 183.625 143.617188 L 180.859375 114.605469 L 225.015625 110.394531 L 227.785156 139.40625 L 220.296875 140.121094 L 228.339844 224.449219 L 229.097656 224.375 L 227.621094 208.882812 L 256.808594 206.097656 Z M 516.242188 133.828125 L 513.71875 232.59375 L 498.488281 247.261719 L 467.230469 246.464844 L 452.769531 231.035156 L 455.292969 132.269531 L 447.773438 132.078125 L 448.515625 102.945312 L 524.503906 104.886719 L 523.757812 134.023438 Z M 484.597656 133.019531 L 482.433594 217.703125 L 484.773438 217.761719 L 486.9375 133.078125 Z M 594.386719 138.804688 L 589.222656 223.179688 L 594.289062 223.492188 L 592.507812 252.578125 L 568.085938 251.085938 L 560.816406 257.511719 L 559.546875 250.558594 L 558.183594 250.46875 L 558.523438 244.925781 L 556.769531 235.296875 L 555.847656 250.335938 L 519.082031 248.085938 L 520.859375 219 L 528.367188 219.460938 L 533.53125 135.082031 L 526.023438 134.621094 L 527.800781 105.535156 L 564.566406 107.78125 L 564.21875 113.515625 L 565.972656 123.136719 L 566.902344 107.925781 L 603.671875 110.175781 L 601.890625 139.261719 Z M 641.84375 143.046875 L 633.703125 227.359375 L 641.191406 228.082031 L 638.394531 257.09375 L 594.066406 252.816406 L 596.863281 223.804688 L 604.523438 224.546875 L 612.664062 140.230469 L 605.003906 139.488281 L 607.800781 110.480469 L 652.128906 114.757812 L 649.328125 143.769531 Z M 684.460938 262.511719 L 653.457031 258.992188 L 640.339844 242.566406 L 653.074219 130.363281 L 669.53125 117.078125 L 700.601562 120.605469 L 713.660156 137.238281 L 700.925781 249.441406 Z M 784.921875 162.699219 L 772.140625 246.265625 L 777.152344 247.03125 L 772.75 275.835938 L 748.554688 272.136719 L 740.738281 277.855469 L 740.109375 270.84375 L 738.738281 270.636719 L 739.59375 265.128906 L 738.71875 255.394531 L 736.445312 270.285156 L 700.027344 264.71875 L 704.4375 235.910156 L 711.867188 237.046875 L 724.652344 153.484375 L 717.214844 152.347656 L 721.617188 123.539062 L 758.050781 129.109375 L 757.167969 134.789062 L 758.042969 144.523438 L 760.34375 129.460938 L 796.761719 135.027344 L 792.351562 163.839844 Z M 72.675781 158.210938 L 77.429688 185.675781 L 77.996094 185.578125 L 79.433594 183.539062 L 74.980469 157.816406 Z M 89.429688 241.285156 L 85.007812 215.75 L 82.957031 214.296875 L 82.402344 214.390625 L 87.125 241.679688 Z M 413.519531 131.9375 L 413.789062 159.804688 L 414.359375 159.800781 L 416.109375 158.019531 L 415.855469 131.914062 Z M 416.675781 216.621094 L 416.425781 190.710938 L 414.632812 188.945312 L 414.070312 188.949219 L 414.339844 216.644531 Z M 673.402344 231.925781 L 682.9375 147.933594 L 680.617188 147.671875 L 671.082031 231.664062 Z M 673.402344 231.925781 "/>
<path fill-rule="evenodd" fill="rgb(100%, 100%, 100%)" fill-opacity="1" d="M 101.855469 196.144531 L 108.542969 200.742188 L 116.957031 249.34375 L 106.421875 264.292969 L 58.710938 272.554688 L 54.957031 250.875 L 62.367188 249.589844 L 46.699219 159.089844 L 39.289062 160.371094 L 35.535156 138.691406 L 83.222656 130.433594 L 94.3125 138.082031 L 98.164062 140.792969 L 106.609375 189.570312 Z M 164.113281 253.195312 L 159.414062 230.933594 L 151.992188 231.785156 L 152.671875 256.574219 L 152.839844 258.09375 L 124.90625 261.300781 L 122.394531 239.4375 L 130.167969 238.546875 L 127.773438 146.546875 L 120.628906 147.367188 L 118.121094 125.503906 L 168.300781 119.746094 L 170.8125 141.605469 L 163.671875 142.425781 L 182.351562 232.554688 L 189.953125 231.683594 L 192.460938 253.546875 L 164.511719 256.753906 Z M 203.046875 230.445312 L 194.328125 139.011719 L 186.839844 139.726562 L 184.75 117.820312 L 221.800781 114.289062 L 223.890625 136.191406 L 216.40625 136.90625 L 225.125 228.339844 L 232.992188 227.589844 L 231.511719 212.097656 L 253.59375 209.988281 L 257.160156 247.386719 L 197.648438 253.0625 L 195.558594 231.160156 Z M 265.386719 225.226562 L 259.878906 133.542969 L 252.375 133.996094 L 251.058594 112.03125 L 288.207031 109.800781 L 289.527344 131.765625 L 282.019531 132.214844 L 287.523438 223.898438 L 295.410156 223.425781 L 294.480469 207.890625 L 316.617188 206.558594 L 318.871094 244.0625 L 259.199219 247.640625 L 257.878906 225.675781 Z M 366.554688 128.941406 L 354.519531 192.308594 L 355.253906 221.109375 L 362.597656 220.921875 L 363.15625 242.917969 L 326.128906 243.863281 L 325.566406 221.863281 L 333.082031 221.671875 L 332.34375 192.699219 L 317.09375 130.203125 L 308.710938 130.417969 L 308.148438 108.421875 L 334.351562 107.753906 L 342.078125 139.425781 L 348.175781 107.402344 L 374.375 106.730469 L 374.9375 128.730469 Z M 436.207031 174.078125 L 442.070312 179.6875 L 442.546875 229.011719 L 429.738281 242.070312 L 381.320312 242.535156 L 381.105469 220.535156 L 388.625 220.460938 L 387.738281 128.617188 L 380.21875 128.691406 L 380.007812 106.691406 L 428.402344 106.21875 L 438.117188 115.554688 L 441.480469 118.851562 L 441.957031 168.351562 Z M 512.765625 130.167969 L 510.1875 231.039062 L 497.085938 243.65625 L 468.8125 242.933594 L 456.375 229.664062 L 458.949219 128.792969 L 451.433594 128.601562 L 451.992188 106.605469 L 485.527344 107.460938 L 484.964844 129.457031 L 481.121094 129.359375 L 478.777344 221.179688 L 488.25 221.421875 L 490.59375 129.601562 L 486.746094 129.503906 L 487.308594 107.507812 L 520.84375 108.363281 L 520.28125 130.363281 Z M 591.042969 135.023438 L 585.445312 226.523438 L 590.507812 226.835938 L 589.164062 248.796875 L 566.828125 247.429688 L 563.191406 250.644531 L 562.558594 247.171875 L 561.964844 247.132812 L 562.113281 244.714844 L 555.003906 205.695312 L 552.503906 246.554688 L 522.863281 244.742188 L 524.207031 222.78125 L 531.714844 223.238281 L 537.308594 131.734375 L 529.804688 131.277344 L 531.144531 109.316406 L 560.789062 111.125 L 560.628906 113.730469 L 567.738281 152.742188 L 570.246094 111.707031 L 599.890625 113.519531 L 598.546875 135.480469 Z M 638.632812 139.148438 L 629.808594 230.570312 L 637.296875 231.292969 L 635.183594 253.199219 L 597.960938 249.605469 L 600.074219 227.703125 L 607.734375 228.441406 L 616.558594 137.019531 L 608.898438 136.28125 L 611.011719 114.375 L 648.230469 117.96875 L 646.117188 139.871094 Z M 683.394531 258.800781 L 655.324219 255.613281 L 644.054688 241.496094 L 656.457031 132.21875 L 670.613281 120.792969 L 698.71875 123.984375 L 709.949219 138.292969 L 697.542969 247.566406 Z M 781.933594 158.632812 L 768.074219 249.25 L 773.085938 250.019531 L 769.761719 271.769531 L 747.632812 268.386719 L 743.726562 271.246094 L 743.410156 267.738281 L 742.816406 267.648438 L 743.1875 265.242188 L 739.640625 225.75 L 733.453125 266.214844 L 704.097656 261.726562 L 707.425781 239.976562 L 714.855469 241.113281 L 728.71875 150.492188 L 721.285156 149.355469 L 724.609375 127.605469 L 753.972656 132.097656 L 753.574219 134.671875 L 757.117188 174.164062 L 763.332031 133.527344 L 792.695312 138.015625 L 789.363281 159.769531 Z M 68.550781 155.304688 L 74.519531 189.800781 L 80.0625 188.84375 L 83.203125 184.386719 L 77.886719 153.6875 Z M 93.554688 244.191406 L 88.277344 213.691406 L 83.808594 210.523438 L 78.277344 211.484375 L 84.21875 245.808594 Z M 155.03125 209.289062 L 151 189.988281 L 151.496094 209.695312 Z M 409.914062 128.402344 L 410.253906 163.410156 L 415.875 163.355469 L 419.695312 159.464844 L 419.390625 128.3125 Z M 420.277344 220.15625 L 419.980469 189.203125 L 416.082031 185.359375 L 410.46875 185.414062 L 410.804688 220.246094 Z M 676.546875 235.875 L 686.886719 144.789062 L 677.472656 143.722656 L 667.132812 234.808594 Z M 676.546875 235.875 "/>
<path fill-rule="nonzero" fill="rgb(33.724976%, 12.548828%, 43.920898%)" fill-opacity="1" d="M 96.191406 142.234375 L 103.949219 188.078125 L 97.917969 196.367188 L 106.351562 202.222656 L 114.109375 247.890625 L 105.242188 260.394531 L 62.488281 267.636719 L 60 252.9375 L 67.40625 251.679688 L 50.890625 154.21875 L 43.484375 155.480469 L 40.992188 140.78125 L 43.382812 140.351562 L 83.714844 133.539062 L 93.574219 140.359375 Z M 80.140625 149.269531 L 65.761719 151.699219 L 72.773438 193.167969 L 83.246094 191.394531 L 88.074219 184.558594 L 82.035156 148.925781 Z M 98.550781 246.382812 L 92.539062 210.980469 L 85.734375 206.09375 L 75.265625 207.867188 L 82.277344 249.160156 L 96.65625 246.726562 Z M 98.550781 246.382812 "/>
<path fill-rule="nonzero" fill="rgb(33.724976%, 12.548828%, 43.920898%)" fill-opacity="1" d="M 187.054688 236.753906 L 188.628906 251.457031 L 167.773438 253.65625 L 167.773438 253.480469 L 162.582031 227.847656 L 148.699219 229.3125 L 149.191406 255.460938 L 149.015625 255.488281 L 149.015625 255.664062 L 128.1875 257.859375 L 126.613281 243.15625 L 134.109375 242.371094 L 132.355469 143.082031 L 124.886719 143.867188 L 123.339844 129.164062 L 166.398438 124.609375 L 167.945312 139.308594 L 160.476562 140.097656 L 179.761719 237.515625 Z M 159.8125 213.078125 L 147.445312 151.304688 L 148.496094 214.300781 Z M 159.8125 213.078125 "/>
<path fill-rule="nonzero" fill="rgb(33.724976%, 12.548828%, 43.920898%)" fill-opacity="1" d="M 235.695312 214.851562 L 250.722656 213.304688 L 253.816406 243.535156 L 201.390625 248.902344 L 199.878906 234.046875 L 207.390625 233.289062 L 197.324219 135.082031 L 189.808594 135.84375 L 188.296875 120.988281 L 218.175781 117.925781 L 219.691406 132.78125 L 212.351562 133.539062 L 222.417969 231.746094 L 237.273438 230.230469 Z M 235.695312 214.851562 "/>
<path fill-rule="nonzero" fill="rgb(33.724976%, 12.548828%, 43.920898%)" fill-opacity="1" d="M 298.671875 211.007812 L 313.703125 209.988281 L 315.742188 240.402344 L 263.300781 243.917969 L 262.316406 229.0625 L 269.832031 228.566406 L 263.191406 129.808594 L 255.675781 130.300781 L 254.691406 115.445312 L 284.753906 113.4375 L 285.742188 128.296875 L 278.226562 128.789062 L 284.863281 227.550781 L 299.722656 226.5625 Z M 298.671875 211.007812 "/>
<path fill-rule="nonzero" fill="rgb(33.724976%, 12.548828%, 43.920898%)" fill-opacity="1" d="M 350.921875 111.015625 L 370.652344 110.390625 L 371.152344 125.25 L 363.457031 125.488281 L 351.285156 192.042969 L 352.367188 224.738281 L 359.882812 224.5 L 360.351562 239.363281 L 330.457031 240.332031 L 329.984375 225.472656 L 337.503906 225.234375 L 336.421875 192.367188 L 319.953125 126.917969 L 312.257812 127.152344 L 311.789062 112.292969 L 331.515625 111.636719 L 342.777344 156.375 Z M 350.921875 111.015625 "/>
<path fill-rule="nonzero" fill="rgb(33.724976%, 12.548828%, 43.920898%)" fill-opacity="1" d="M 438.089844 121.074219 L 438.132812 167.59375 L 430.792969 174.765625 L 438.140625 181.933594 L 438.183594 228.28125 L 427.34375 239.125 L 383.972656 239.167969 L 383.972656 224.300781 L 391.492188 224.273438 L 391.390625 125.285156 L 383.871094 125.316406 L 383.839844 110.449219 L 386.289062 110.441406 L 427.210938 110.410156 L 435.804688 118.785156 Z M 421.121094 125.285156 L 406.429688 125.289062 L 406.480469 167.433594 L 417.148438 167.429688 L 423.082031 161.472656 L 423.046875 125.273438 Z M 423.148438 224.257812 L 423.109375 188.261719 L 417.148438 182.296875 L 406.480469 182.300781 L 406.535156 224.273438 L 421.222656 224.273438 Z M 423.148438 224.257812 "/>
<path fill-rule="nonzero" fill="rgb(33.724976%, 12.548828%, 43.920898%)" fill-opacity="1" d="M 517.441406 112.949219 L 516.910156 127.8125 L 509.21875 127.546875 L 505.703125 230.378906 L 494.660156 240.839844 L 469.484375 239.964844 L 459.199219 228.777344 L 462.710938 125.945312 L 455.195312 125.710938 L 455.722656 110.847656 L 482.121094 111.730469 L 481.59375 126.59375 L 477.746094 126.472656 L 474.355469 225.257812 L 476.277344 225.332031 L 489.039062 225.753906 L 490.964844 225.828125 L 494.355469 127.046875 L 490.511719 126.898438 L 491.039062 112.039062 Z M 517.441406 112.949219 "/>
<path fill-rule="nonzero" fill="rgb(33.724976%, 12.548828%, 43.920898%)" fill-opacity="1" d="M 595.246094 132.3125 L 587.730469 131.8125 L 580.835938 230.386719 L 585.90625 230.722656 L 584.871094 245.578125 L 564.773438 244.179688 L 564.773438 244.003906 L 564.597656 244.175781 L 553.003906 176.367188 L 548.34375 243.015625 L 525.796875 241.449219 L 526.828125 226.59375 L 534.34375 227.125 L 541.238281 128.546875 L 533.722656 128.015625 L 534.757812 113.160156 L 557.304688 114.726562 L 557.300781 114.902344 L 557.476562 114.933594 L 569.070312 182.742188 L 573.734375 115.890625 L 596.28125 117.457031 Z M 595.246094 132.3125 "/>
<path fill-rule="nonzero" fill="rgb(33.724976%, 12.548828%, 43.920898%)" fill-opacity="1" d="M 641.421875 136.050781 L 633.898438 135.355469 L 625.117188 233.71875 L 632.640625 234.410156 L 631.3125 249.289062 L 601.207031 246.570312 L 602.539062 231.695312 L 610.238281 232.386719 L 619.019531 134.027344 L 611.320312 133.332031 L 612.648438 118.457031 L 642.753906 121.175781 Z M 641.421875 136.050781 "/>
<path fill-rule="nonzero" fill="rgb(33.724976%, 12.548828%, 43.920898%)" fill-opacity="1" d="M 681.664062 255.007812 L 656.679688 251.972656 L 647.394531 240.089844 L 660.402344 133.898438 L 672.285156 124.40625 L 697.269531 127.46875 L 706.523438 139.527344 L 693.515625 245.71875 Z M 664.664062 238.046875 L 677.273438 239.582031 L 679.167969 239.800781 L 691.171875 141.789062 L 689.28125 141.570312 L 676.644531 140.035156 L 674.75 139.789062 L 662.742188 237.796875 Z M 664.664062 238.046875 "/>
<path fill-rule="nonzero" fill="rgb(33.724976%, 12.548828%, 43.920898%)" fill-opacity="1" d="M 785.683594 156.167969 L 778.332031 155.070312 L 763.929688 252.730469 L 768.945312 253.492188 L 766.78125 268.195312 L 746.886719 265.238281 L 746.914062 265.0625 L 746.710938 265.210938 L 740.167969 196.777344 L 730.433594 262.820312 L 708.207031 259.527344 L 710.371094 244.828125 L 717.722656 245.925781 L 732.128906 148.261719 L 724.777344 147.164062 L 726.972656 132.464844 L 749.199219 135.753906 L 749.171875 135.929688 L 749.34375 135.957031 L 755.859375 204.390625 L 765.652344 138.175781 L 787.878906 141.464844 Z M 785.683594 156.167969 "/>
<path fill-rule="evenodd" fill="rgb(94.902039%, 39.607239%, 12.940979%)" fill-opacity="1" d="M 220.304688 338.8125 L 212.679688 423.171875 L 219.523438 423.171875 L 219.523438 452.3125 L 185.484375 452.3125 L 185.484375 452.136719 L 163.386719 452.136719 L 163.386719 452.3125 L 126.375 452.3125 L 126.375 423.171875 L 133.394531 423.171875 L 125.765625 338.8125 L 117.628906 338.8125 L 117.628906 309.316406 L 228.269531 309.316406 L 228.269531 338.8125 Z M 155.074219 338.8125 L 155.136719 339.460938 L 155.199219 338.8125 Z M 190.960938 338.8125 L 190.695312 338.8125 L 190.832031 340.210938 Z M 270.464844 338.285156 L 270.464844 422.996094 L 277.984375 422.996094 L 277.984375 452.136719 L 233.453125 452.136719 L 233.453125 422.996094 L 241.148438 422.996094 L 241.148438 338.285156 L 233.453125 338.285156 L 233.453125 309.144531 L 277.984375 309.144531 L 277.984375 338.285156 Z M 291.734375 423.171875 L 291.734375 338.460938 L 284.214844 338.460938 L 284.214844 309.316406 L 328.574219 309.316406 L 328.574219 338.460938 L 321.050781 338.460938 L 321.050781 423.171875 L 321.816406 423.171875 L 321.816406 407.605469 L 351.132812 407.605469 L 351.132812 452.3125 L 284.214844 452.3125 L 284.214844 423.171875 Z M 360.339844 423.171875 L 360.339844 338.636719 L 352.820312 338.636719 L 352.820312 309.492188 L 406.285156 309.492188 L 421.3125 324.519531 L 421.3125 437.496094 L 406.25 452.3125 L 352.820312 452.3125 L 352.820312 423.171875 Z M 461.820312 338.285156 L 459.484375 338.285156 L 459.484375 422.996094 L 461.820312 422.996094 L 461.820312 400.261719 L 491.136719 400.261719 L 491.136719 437.226562 L 476.265625 452.136719 L 445.050781 452.136719 L 430.164062 437.292969 L 430.164062 323.988281 L 445.050781 309.144531 L 476.242188 309.144531 L 491.136719 323.917969 L 491.136719 361.023438 L 461.820312 361.023438 Z M 535.667969 445.335938 L 533.859375 426.078125 L 532.914062 426.078125 L 531.058594 447.316406 L 531.058594 452.3125 L 495.796875 452.3125 L 495.796875 423.171875 L 503.917969 423.171875 L 511.402344 338.636719 L 504.539062 338.636719 L 504.539062 309.492188 L 562.1875 309.492188 L 562.1875 338.636719 L 555.34375 338.636719 L 562.972656 423.171875 L 570.933594 423.171875 L 570.933594 452.3125 L 535.667969 452.3125 Z M 620.648438 361.023438 L 620.648438 422.996094 L 627.992188 422.996094 L 627.992188 452.136719 L 583.8125 452.136719 L 583.8125 422.996094 L 591.332031 422.996094 L 591.332031 361.023438 L 568.769531 361.023438 L 568.769531 309.144531 L 643.035156 309.144531 L 643.035156 361.023438 Z M 676.3125 423.171875 L 678.648438 423.171875 L 678.648438 395.472656 L 662.050781 395.472656 L 646.992188 380.660156 L 646.992188 324.34375 L 662.019531 309.316406 L 692.925781 309.316406 L 707.964844 324.273438 L 707.964844 361.195312 L 678.648438 361.195312 L 678.648438 338.460938 L 676.3125 338.460938 L 676.3125 366.21875 L 692.929688 366.355469 L 707.964844 381.148438 L 707.964844 437.496094 L 692.90625 452.3125 L 662.042969 452.3125 L 646.992188 437.429688 L 646.992188 400.4375 L 676.3125 400.4375 Z M 391.992188 423.171875 L 391.992188 338.636719 L 389.65625 338.636719 L 389.65625 423.171875 Z M 391.992188 423.171875 "/>
<path fill-rule="evenodd" fill="rgb(100%, 100%, 100%)" fill-opacity="1" d="M 217.046875 335.242188 L 208.773438 426.738281 L 215.953125 426.738281 L 215.953125 448.742188 L 189.054688 448.742188 L 189.054688 448.570312 L 175.742188 448.570312 L 172.984375 420.246094 L 170.144531 448.570312 L 159.816406 448.570312 L 159.816406 448.742188 L 129.941406 448.742188 L 129.941406 426.738281 L 137.300781 426.738281 L 129.027344 335.242188 L 121.199219 335.242188 L 121.199219 312.886719 L 149.324219 312.886719 L 149.324219 314.703125 L 154.992188 377.71875 L 159.132812 335.242188 L 152.152344 335.242188 L 152.152344 312.886719 L 193.746094 312.886719 L 193.746094 335.242188 L 186.765625 335.242188 L 190.941406 378.175781 L 196.574219 316.644531 L 196.574219 312.886719 L 224.699219 312.886719 L 224.699219 335.242188 Z M 266.894531 334.71875 L 266.894531 426.566406 L 274.414062 426.566406 L 274.414062 448.570312 L 237.019531 448.570312 L 237.019531 426.566406 L 244.714844 426.566406 L 244.714844 334.71875 L 237.019531 334.71875 L 237.019531 312.710938 L 274.414062 312.710938 L 274.414062 334.71875 Z M 295.304688 426.738281 L 295.304688 334.890625 L 287.785156 334.890625 L 287.785156 312.886719 L 325.003906 312.886719 L 325.003906 334.890625 L 317.484375 334.890625 L 317.484375 426.738281 L 325.386719 426.738281 L 325.386719 411.175781 L 347.5625 411.175781 L 347.5625 448.742188 L 287.785156 448.742188 L 287.785156 426.738281 Z M 363.90625 426.738281 L 363.90625 335.066406 L 356.386719 335.066406 L 356.386719 313.0625 L 404.804688 313.0625 L 417.742188 325.996094 L 417.742188 436 L 404.789062 448.742188 L 356.386719 448.742188 L 356.386719 426.738281 Z M 465.390625 334.71875 L 455.914062 334.71875 L 455.914062 426.566406 L 465.390625 426.566406 L 465.390625 403.832031 L 487.570312 403.832031 L 487.570312 435.75 L 474.785156 448.570312 L 446.527344 448.570312 L 433.734375 435.8125 L 433.734375 325.46875 L 446.527344 312.710938 L 474.773438 312.710938 L 487.570312 325.40625 L 487.570312 357.453125 L 465.390625 357.453125 Z M 539.238281 445.167969 L 537.109375 422.511719 L 529.640625 422.511719 L 527.492188 447.160156 L 527.492188 448.742188 L 499.363281 448.742188 L 499.363281 426.738281 L 507.1875 426.738281 L 515.300781 335.066406 L 508.109375 335.066406 L 508.109375 313.0625 L 558.621094 313.0625 L 558.621094 335.066406 L 551.4375 335.066406 L 559.710938 426.738281 L 567.363281 426.738281 L 567.363281 448.742188 L 539.238281 448.742188 Z M 617.285156 334.71875 L 617.078125 334.71875 L 617.078125 426.566406 L 624.425781 426.566406 L 624.425781 448.570312 L 587.382812 448.570312 L 587.382812 426.566406 L 594.902344 426.566406 L 594.902344 334.71875 L 594.519531 334.71875 L 594.519531 357.453125 L 572.339844 357.453125 L 572.339844 312.710938 L 639.464844 312.710938 L 639.464844 357.453125 L 617.285156 357.453125 Z M 672.742188 426.738281 L 682.214844 426.738281 L 682.214844 391.90625 L 663.511719 391.90625 L 650.5625 379.164062 L 650.5625 325.824219 L 663.496094 312.886719 L 691.457031 312.886719 L 704.394531 325.757812 L 704.394531 357.628906 L 682.214844 357.628906 L 682.214844 334.890625 L 672.742188 334.890625 L 672.742188 369.757812 L 691.457031 369.914062 L 704.394531 382.644531 L 704.394531 436 L 691.445312 448.742188 L 663.507812 448.742188 L 650.5625 435.9375 L 650.5625 404.003906 L 672.742188 404.003906 Z M 395.5625 426.738281 L 395.5625 335.066406 L 386.085938 335.066406 L 386.085938 426.738281 Z M 535.222656 400.507812 L 533.417969 380.878906 L 531.667969 400.507812 Z M 535.222656 400.507812 "/>
<path fill-rule="nonzero" fill="rgb(33.724976%, 12.548828%, 43.920898%)" fill-opacity="1" d="M 221.125 331.675781 L 213.78125 331.675781 L 204.863281 430.308594 L 212.382812 430.308594 L 212.382812 445.175781 L 192.621094 445.175781 L 192.621094 445 L 178.980469 445 L 173.035156 383.964844 L 166.914062 445 L 156.246094 445 L 156.246094 445.175781 L 133.511719 445.175781 L 133.511719 430.308594 L 141.207031 430.308594 L 132.289062 331.675781 L 124.765625 331.675781 L 124.765625 316.460938 L 145.753906 316.460938 L 145.753906 316.8125 L 145.929688 316.8125 L 154.847656 415.96875 L 163.066406 331.675781 L 155.722656 331.675781 L 155.722656 316.460938 L 190.171875 316.460938 L 190.171875 331.675781 L 182.828125 331.675781 L 191.046875 416.144531 L 200.140625 316.8125 L 200.140625 316.460938 L 221.125 316.460938 Z M 221.125 331.675781 "/>
<path fill-rule="nonzero" fill="rgb(33.724976%, 12.548828%, 43.920898%)" fill-opacity="1" d="M 270.839844 331.152344 L 263.320312 331.152344 L 263.320312 430.132812 L 270.839844 430.132812 L 270.839844 445 L 240.585938 445 L 240.585938 430.132812 L 248.277344 430.132812 L 248.277344 331.152344 L 240.585938 331.152344 L 240.585938 316.289062 L 270.839844 316.289062 Z M 270.839844 331.152344 "/>
<path fill-rule="nonzero" fill="rgb(33.724976%, 12.548828%, 43.920898%)" fill-opacity="1" d="M 328.945312 414.746094 L 343.984375 414.746094 L 343.984375 445.175781 L 291.347656 445.175781 L 291.347656 430.308594 L 298.867188 430.308594 L 298.867188 331.328125 L 291.347656 331.328125 L 291.347656 316.460938 L 321.425781 316.460938 L 321.425781 331.328125 L 313.90625 331.328125 L 313.90625 430.308594 L 328.945312 430.308594 Z M 328.945312 414.746094 "/>
<path fill-rule="nonzero" fill="rgb(33.724976%, 12.548828%, 43.920898%)" fill-opacity="1" d="M 403.316406 316.636719 L 414.160156 327.480469 L 414.160156 434.507812 L 403.316406 445.175781 L 359.945312 445.175781 L 359.945312 430.308594 L 367.464844 430.308594 L 367.464844 331.503906 L 359.945312 331.503906 L 359.945312 316.636719 Z M 399.117188 430.308594 L 399.117188 331.503906 L 382.503906 331.503906 L 382.503906 430.308594 Z M 399.117188 430.308594 "/>
<path fill-rule="nonzero" fill="rgb(33.724976%, 12.548828%, 43.920898%)" fill-opacity="1" d="M 473.285156 445 L 447.988281 445 L 437.289062 434.332031 L 437.289062 326.957031 L 447.988281 316.289062 L 473.285156 316.289062 L 483.984375 326.898438 L 483.984375 353.886719 L 468.941406 353.886719 L 468.941406 331.152344 L 452.328125 331.152344 L 452.328125 430.132812 L 468.941406 430.132812 L 468.941406 407.402344 L 483.984375 407.402344 L 483.984375 434.273438 Z M 473.285156 445 "/>
<path fill-rule="nonzero" fill="rgb(33.724976%, 12.548828%, 43.920898%)" fill-opacity="1" d="M 563.773438 430.308594 L 563.773438 445.175781 L 542.789062 445.175781 L 542.789062 445 L 540.339844 418.941406 L 526.351562 418.941406 L 524.078125 445 L 523.902344 445 L 523.902344 445.175781 L 502.917969 445.175781 L 502.917969 430.308594 L 510.4375 430.308594 L 519.179688 331.503906 L 511.660156 331.503906 L 511.660156 316.636719 L 555.03125 316.636719 L 555.03125 331.503906 L 547.511719 331.503906 L 556.429688 430.308594 Z M 539.117188 404.078125 L 533.34375 341.296875 L 527.75 404.078125 Z M 539.117188 404.078125 "/>
<path fill-rule="nonzero" fill="rgb(33.724976%, 12.548828%, 43.920898%)" fill-opacity="1" d="M 575.886719 316.289062 L 635.871094 316.289062 L 635.871094 353.886719 L 620.832031 353.886719 L 620.832031 331.152344 L 613.488281 331.152344 L 613.488281 430.132812 L 620.832031 430.132812 L 620.832031 445 L 590.925781 445 L 590.925781 430.132812 L 598.445312 430.132812 L 598.445312 331.152344 L 590.925781 331.152344 L 590.925781 353.886719 L 575.886719 353.886719 Z M 575.886719 316.289062 "/>
<path fill-rule="nonzero" fill="rgb(33.724976%, 12.548828%, 43.920898%)" fill-opacity="1" d="M 689.957031 445.175781 L 664.949219 445.175781 L 654.105469 434.449219 L 654.105469 407.574219 L 669.144531 407.574219 L 669.144531 430.308594 L 685.757812 430.308594 L 685.757812 388.339844 L 664.949219 388.339844 L 654.105469 377.671875 L 654.105469 327.304688 L 664.949219 316.460938 L 689.957031 316.460938 L 700.796875 327.246094 L 700.796875 354.0625 L 685.757812 354.0625 L 685.757812 331.328125 L 669.144531 331.328125 L 669.144531 373.296875 L 689.957031 373.472656 L 700.796875 384.140625 L 700.796875 434.507812 Z M 689.957031 445.175781 "/>
<path fill-rule="evenodd" fill="rgb(94.902039%, 39.607239%, 12.940979%)" fill-opacity="1" d="M 220.148438 495.117188 L 603.523438 495.117188 C 606.066406 495.117188 608.144531 497.207031 608.144531 499.738281 L 608.144531 543.996094 C 608.144531 546.527344 606.054688 548.617188 603.523438 548.617188 L 220.148438 548.617188 C 217.617188 548.617188 215.527344 546.539062 215.527344 543.996094 L 215.527344 499.738281 C 215.527344 497.195312 217.605469 495.117188 220.148438 495.117188 "/>
<path fill-rule="nonzero" fill="rgb(100%, 100%, 100%)" fill-opacity="1" d="M 246.019531 508.835938 L 246.019531 521.019531 L 244.09375 522.898438 L 246.019531 524.777344 L 246.019531 536.917969 L 243.175781 539.757812 L 231.816406 539.757812 L 231.816406 535.863281 L 233.785156 535.863281 L 233.785156 509.933594 L 231.816406 509.933594 L 231.816406 506.039062 L 243.175781 506.039062 L 245.421875 508.238281 Z M 241.574219 509.933594 L 237.726562 509.933594 L 237.726562 520.976562 L 240.519531 520.976562 L 242.078125 519.417969 L 242.078125 509.933594 Z M 242.078125 535.863281 L 242.078125 526.433594 L 240.519531 524.871094 L 237.726562 524.871094 L 237.726562 535.863281 Z M 242.078125 535.863281 "/>
<path fill-rule="nonzero" fill="rgb(100%, 100%, 100%)" fill-opacity="1" d="M 273.625 535.863281 L 273.625 539.757812 L 268.125 539.757812 L 268.125 539.710938 L 267.484375 532.886719 L 263.820312 532.886719 L 263.222656 539.710938 L 263.179688 539.710938 L 263.179688 539.757812 L 257.679688 539.757812 L 257.679688 535.863281 L 259.652344 535.863281 L 261.941406 509.980469 L 259.972656 509.980469 L 259.972656 506.085938 L 271.332031 506.085938 L 271.332031 509.980469 L 269.363281 509.980469 L 271.699219 535.863281 Z M 267.164062 528.992188 L 265.652344 512.546875 L 264.1875 528.992188 Z M 267.164062 528.992188 "/>
<path fill-rule="nonzero" fill="rgb(100%, 100%, 100%)" fill-opacity="1" d="M 294.539062 539.757812 L 287.988281 539.757812 L 285.148438 536.949219 L 285.148438 529.910156 L 289.089844 529.910156 L 289.089844 535.863281 L 293.441406 535.863281 L 293.441406 524.871094 L 287.988281 524.871094 L 285.148438 522.074219 L 285.148438 508.878906 L 287.988281 506.039062 L 294.539062 506.039062 L 297.382812 508.867188 L 297.382812 515.890625 L 293.441406 515.890625 L 293.441406 509.933594 L 289.089844 509.933594 L 289.089844 520.929688 L 294.539062 520.976562 L 297.382812 523.769531 L 297.382812 536.964844 Z M 294.539062 539.757812 "/>
<path fill-rule="nonzero" fill="rgb(100%, 100%, 100%)" fill-opacity="1" d="M 325.214844 509.890625 L 323.292969 509.890625 L 319.398438 522.832031 L 323.292969 535.816406 L 325.214844 535.816406 L 325.214844 539.710938 L 320.359375 539.710938 L 315.871094 524.824219 L 315.414062 524.824219 L 315.414062 539.710938 L 309.5 539.710938 L 309.5 535.816406 L 311.472656 535.816406 L 311.472656 509.84375 L 309.546875 509.84375 L 309.546875 505.996094 L 315.414062 505.996094 L 315.414062 520.882812 L 315.871094 520.882812 L 320.359375 505.996094 L 325.214844 505.996094 Z M 325.214844 509.890625 "/>
<path fill-rule="nonzero" fill="rgb(100%, 100%, 100%)" fill-opacity="1" d="M 351.21875 513.921875 L 347.277344 513.921875 L 347.277344 509.890625 L 343.339844 509.890625 L 343.339844 520.929688 L 347.964844 520.929688 L 347.964844 524.824219 L 343.339844 524.824219 L 343.339844 535.816406 L 347.277344 535.816406 L 347.277344 531.878906 L 351.21875 531.878906 L 351.21875 539.710938 L 337.335938 539.710938 L 337.335938 535.816406 L 339.398438 535.816406 L 339.398438 509.890625 L 337.335938 509.890625 L 337.335938 505.996094 L 351.21875 505.996094 Z M 351.21875 513.921875 "/>
<path fill-rule="nonzero" fill="rgb(100%, 100%, 100%)" fill-opacity="1" d="M 362.699219 505.996094 L 378.410156 505.996094 L 378.410156 515.84375 L 374.472656 515.84375 L 374.472656 509.890625 L 372.546875 509.890625 L 372.546875 535.816406 L 374.472656 535.816406 L 374.472656 539.710938 L 366.636719 539.710938 L 366.636719 535.816406 L 368.609375 535.816406 L 368.609375 509.890625 L 366.636719 509.890625 L 366.636719 515.84375 L 362.699219 515.84375 Z M 362.699219 505.996094 "/>
<path fill-rule="nonzero" fill="rgb(100%, 100%, 100%)" fill-opacity="1" d="M 403.863281 508.835938 L 403.863281 521.019531 L 401.941406 522.898438 L 403.863281 524.777344 L 403.863281 536.917969 L 401.023438 539.757812 L 389.664062 539.757812 L 389.664062 535.863281 L 391.632812 535.863281 L 391.632812 509.933594 L 389.664062 509.933594 L 389.664062 506.039062 L 401.023438 506.039062 L 403.269531 508.238281 Z M 399.421875 509.933594 L 395.574219 509.933594 L 395.574219 520.976562 L 398.367188 520.976562 L 399.925781 519.417969 L 399.925781 509.933594 Z M 399.925781 535.863281 L 399.925781 526.433594 L 398.367188 524.871094 L 395.574219 524.871094 L 395.574219 535.863281 Z M 399.925781 535.863281 "/>
<path fill-rule="nonzero" fill="rgb(100%, 100%, 100%)" fill-opacity="1" d="M 431.46875 535.863281 L 431.46875 539.757812 L 425.972656 539.757812 L 425.972656 539.710938 L 425.332031 532.886719 L 421.667969 532.886719 L 421.070312 539.710938 L 421.023438 539.710938 L 421.023438 539.757812 L 415.527344 539.757812 L 415.527344 535.863281 L 417.496094 535.863281 L 419.789062 509.980469 L 417.816406 509.980469 L 417.816406 506.085938 L 429.179688 506.085938 L 429.179688 509.980469 L 427.210938 509.980469 L 429.546875 535.863281 Z M 425.011719 528.992188 L 423.5 512.546875 L 422.03125 528.992188 Z M 425.011719 528.992188 "/>
<path fill-rule="nonzero" fill="rgb(100%, 100%, 100%)" fill-opacity="1" d="M 452.800781 531.785156 L 456.738281 531.785156 L 456.738281 539.757812 L 442.949219 539.757812 L 442.949219 535.863281 L 444.921875 535.863281 L 444.921875 509.933594 L 442.949219 509.933594 L 442.949219 506.039062 L 450.828125 506.039062 L 450.828125 509.933594 L 448.859375 509.933594 L 448.859375 535.863281 L 452.800781 535.863281 Z M 452.800781 531.785156 "/>
<path fill-rule="nonzero" fill="rgb(100%, 100%, 100%)" fill-opacity="1" d="M 477.246094 531.785156 L 481.183594 531.785156 L 481.183594 539.757812 L 467.394531 539.757812 L 467.394531 535.863281 L 469.363281 535.863281 L 469.363281 509.933594 L 467.394531 509.933594 L 467.394531 506.039062 L 475.273438 506.039062 L 475.273438 509.933594 L 473.304688 509.933594 L 473.304688 535.863281 L 477.246094 535.863281 Z M 477.246094 531.785156 "/>
<path fill-rule="nonzero" fill="rgb(100%, 100%, 100%)" fill-opacity="1" d="M 512.996094 539.710938 L 506.371094 539.710938 L 503.566406 536.917969 L 503.566406 508.789062 L 506.371094 505.996094 L 512.996094 505.996094 L 515.800781 508.773438 L 515.800781 515.84375 L 511.859375 515.84375 L 511.859375 509.890625 L 507.507812 509.890625 L 507.507812 535.816406 L 511.859375 535.816406 L 511.859375 529.863281 L 515.800781 529.863281 L 515.800781 536.902344 Z M 512.996094 539.710938 "/>
<path fill-rule="nonzero" fill="rgb(100%, 100%, 100%)" fill-opacity="1" d="M 537.679688 531.785156 L 541.621094 531.785156 L 541.621094 539.757812 L 527.828125 539.757812 L 527.828125 535.863281 L 529.800781 535.863281 L 529.800781 509.933594 L 527.828125 509.933594 L 527.828125 506.039062 L 535.710938 506.039062 L 535.710938 509.933594 L 533.738281 509.933594 L 533.738281 535.863281 L 537.679688 535.863281 Z M 537.679688 531.785156 "/>
<path fill-rule="nonzero" fill="rgb(100%, 100%, 100%)" fill-opacity="1" d="M 567.851562 506.039062 L 567.851562 509.933594 L 565.882812 509.933594 L 565.882812 536.917969 L 563.078125 539.757812 L 556.449219 539.757812 L 553.648438 536.917969 L 553.648438 509.933594 L 551.679688 509.933594 L 551.679688 506.039062 L 558.597656 506.039062 L 558.597656 509.933594 L 557.589844 509.933594 L 557.589844 535.863281 L 561.941406 535.863281 L 561.941406 509.933594 L 560.933594 509.933594 L 560.933594 506.039062 Z M 567.851562 506.039062 "/>
<path fill-rule="nonzero" fill="rgb(100%, 100%, 100%)" fill-opacity="1" d="M 593.578125 508.835938 L 593.578125 521.019531 L 591.65625 522.898438 L 593.578125 524.777344 L 593.578125 536.917969 L 590.738281 539.757812 L 579.375 539.757812 L 579.375 535.863281 L 581.347656 535.863281 L 581.347656 509.933594 L 579.375 509.933594 L 579.375 506.039062 L 590.738281 506.039062 L 592.984375 508.238281 Z M 589.132812 509.933594 L 585.285156 509.933594 L 585.285156 520.976562 L 588.082031 520.976562 L 589.636719 519.417969 L 589.636719 509.933594 Z M 589.636719 535.863281 L 589.636719 526.433594 L 588.082031 524.871094 L 585.285156 524.871094 L 585.285156 535.863281 Z M 589.636719 535.863281 "/>
</svg>
