<?xml version="1.0" encoding="UTF-8"?>
<svg style="background:transparent !important" xmlns="http://www.w3.org/2000/svg" xmlns:xlink="http://www.w3.org/1999/xlink" width="479.789062" height="538" viewBox="0 0 479.789062 538">
<defs>
<clipPath id="clip-0">
<path clip-rule="nonzero" d="M 319 0 L 479.789062 0 L 479.789062 208 L 319 208 Z M 319 0 "/>
</clipPath>
</defs>
<path fill-rule="nonzero" fill="rgb(38.592529%, 55.502319%, 12.983704%)" fill-opacity="1" d="M 391.4375 186.167969 C 391.4375 186.167969 402.136719 86.066406 399.589844 67.769531 C 397.042969 49.472656 355.351562 0 355.351562 0 C 355.351562 0 366.238281 47.410156 369.691406 67.769531 C 371.71875 79.734375 364.8125 117.417969 358.769531 146.488281 C 355.605469 142.339844 352.304688 138.28125 348.800781 134.367188 C 343.460938 128.40625 334.292969 127.894531 328.332031 133.238281 C 322.363281 138.578125 321.859375 147.746094 327.199219 153.710938 C 355.261719 185.050781 370.714844 225.511719 370.714844 267.625 C 370.714844 361.839844 294.066406 438.484375 199.855469 438.484375 C 105.644531 438.484375 28.996094 361.839844 28.996094 267.625 C 28.996094 173.414062 105.644531 96.765625 199.855469 96.765625 C 215.699219 96.765625 231.371094 98.925781 246.441406 103.1875 C 254.148438 105.351562 262.15625 100.886719 264.335938 93.183594 C 266.515625 85.480469 262.035156 77.46875 254.332031 75.285156 C 236.695312 70.300781 218.367188 67.769531 199.855469 67.769531 C 89.65625 67.769531 0 157.425781 0 267.625 C 0 377.828125 89.65625 467.480469 199.855469 467.480469 C 310.054688 467.480469 399.707031 377.828125 399.707031 267.625 C 399.707031 243.921875 395.484375 220.683594 387.484375 198.851562 Z M 391.4375 186.167969 "/>
<g clip-path="url(#clip-0)">
<path fill-rule="nonzero" fill="rgb(57.749939%, 68.591309%, 0%)" fill-opacity="1" d="M 431.398438 110.269531 C 429.480469 110.738281 427.6875 111.082031 425.898438 111.429688 C 422.085938 91.628906 414.230469 71.207031 403.4375 55.132812 C 383.300781 25.140625 360.46875 4.476562 355.351562 0 C 358.921875 4.835938 364.050781 12.582031 369.261719 23.191406 C 378.71875 42.519531 388.199219 71.035156 388.765625 104.640625 C 388.761719 121.621094 384.101562 138.917969 380.882812 154.285156 C 377.585938 169.75 377.539062 183.761719 381.246094 197.144531 C 382.261719 200.710938 383.441406 204.210938 384.746094 207.636719 C 391.480469 207.921875 399.046875 207.203125 407.347656 204.824219 C 430.449219 198.199219 457.839844 166.921875 467.972656 136.699219 C 477.425781 108.519531 479.445312 83.261719 479.789062 77.679688 C 474.976562 82.921875 453.832031 104.839844 431.398438 110.269531 M 355.351562 0 C 358.175781 5.253906 362.050781 13.398438 365.605469 24.089844 C 372.257812 43.683594 377.507812 72.867188 374.363281 102.730469 C 372.570312 117.519531 366.894531 131.851562 361.546875 148.1875 C 356.035156 164.402344 353.617188 184.078125 356.949219 201.542969 C 357.304688 203.386719 357.695312 205.195312 358.109375 206.984375 C 341.46875 200.195312 316.671875 183.894531 319.632812 147.496094 C 322.851562 107.984375 338.011719 99.710938 350.875 70.769531 C 362.265625 45.136719 356.835938 8.523438 355.351562 0 "/>
</g>
<path fill-rule="nonzero" fill="rgb(58.822632%, 77.432251%, 15.737915%)" fill-opacity="1" d="M 350.707031 267.640625 C 350.707031 352.058594 282.277344 420.484375 197.820312 420.484375 C 113.40625 420.484375 44.980469 352.058594 44.980469 267.640625 Z M 350.707031 267.640625 "/>
<path fill-rule="nonzero" fill="rgb(58.822632%, 77.432251%, 15.737915%)" fill-opacity="1" d="M 350.707031 267.640625 C 350.707031 347.210938 289.941406 412.574219 212.238281 419.820312 L 212.195312 419.820312 C 210.496094 419.988281 208.796875 420.113281 207.058594 420.195312 C 203.992188 420.402344 200.929688 420.484375 197.820312 420.484375 C 195.378906 420.484375 192.933594 420.441406 190.53125 420.320312 C 184.773438 420.027344 179.097656 419.449219 173.507812 418.539062 C 100.648438 406.898438 44.980469 343.773438 44.980469 267.640625 Z M 350.707031 267.640625 "/>
<path fill-rule="nonzero" fill="rgb(71.124268%, 84.764099%, 52.105713%)" fill-opacity="1" d="M 69.828125 174.710938 L 112.929688 174.710938 L 112.929688 189.421875 L 84.75 189.421875 L 84.75 203.699219 L 112.929688 203.699219 L 112.929688 218.140625 L 84.75 218.140625 L 84.75 238.910156 L 112.929688 238.910156 L 112.929688 253.671875 L 69.828125 253.671875 Z M 69.828125 174.710938 "/>
<path fill-rule="nonzero" fill="rgb(71.124268%, 84.764099%, 52.105713%)" fill-opacity="1" d="M 216.769531 188.589844 L 206.257812 198.609375 C 199.109375 191.054688 191.0625 187.273438 182.125 187.273438 C 174.582031 187.273438 168.226562 189.851562 163.0625 195.011719 C 157.894531 200.167969 155.3125 206.527344 155.3125 214.085938 C 155.3125 219.347656 156.453125 224.023438 158.742188 228.109375 C 161.03125 232.191406 164.265625 235.398438 168.449219 237.726562 C 172.632812 240.054688 177.28125 241.214844 182.394531 241.214844 C 186.753906 241.214844 190.742188 240.402344 194.351562 238.773438 C 197.960938 237.144531 201.929688 234.179688 206.257812 229.882812 L 216.445312 240.511719 C 210.613281 246.207031 205.105469 250.152344 199.914062 252.355469 C 194.726562 254.558594 188.804688 255.65625 182.148438 255.65625 C 169.875 255.65625 159.828125 251.765625 152.011719 243.984375 C 144.191406 236.199219 140.28125 226.226562 140.28125 214.058594 C 140.28125 206.1875 142.0625 199.1875 145.621094 193.074219 C 149.183594 186.953125 154.28125 182.035156 160.921875 178.308594 C 167.558594 174.585938 174.707031 172.726562 182.363281 172.726562 C 188.875 172.726562 195.148438 174.101562 201.175781 176.851562 C 207.207031 179.605469 212.402344 183.519531 216.769531 188.589844 "/>
<path fill-rule="nonzero" fill="rgb(71.124268%, 84.764099%, 52.105713%)" fill-opacity="1" d="M 284.292969 187.433594 C 276.984375 187.433594 270.84375 189.976562 265.863281 195.058594 C 260.886719 200.140625 258.394531 206.597656 258.394531 214.433594 C 258.394531 223.164062 261.53125 230.070312 267.800781 235.152344 C 272.667969 239.125 278.257812 241.109375 284.5625 241.109375 C 291.691406 241.109375 297.761719 238.535156 302.777344 233.382812 C 307.792969 228.226562 310.300781 221.878906 310.300781 214.324219 C 310.300781 206.8125 307.773438 200.449219 302.722656 195.246094 C 297.671875 190.039062 291.527344 187.433594 284.292969 187.433594 M 284.453125 172.726562 C 295.625 172.726562 305.230469 176.769531 313.269531 184.855469 C 321.308594 192.945312 325.328125 202.804688 325.328125 214.433594 C 325.328125 225.957031 321.363281 235.707031 313.429688 243.6875 C 305.5 251.667969 295.878906 255.65625 284.5625 255.65625 C 272.710938 255.65625 262.863281 251.558594 255.019531 243.363281 C 247.179688 235.171875 243.257812 225.4375 243.257812 214.167969 C 243.257812 206.613281 245.085938 199.675781 248.738281 193.339844 C 252.390625 187.003906 257.410156 181.984375 263.804688 178.285156 C 270.195312 174.578125 277.078125 172.726562 284.453125 172.726562 "/>
<path fill-rule="nonzero" fill="rgb(23.391724%, 33.753967%, 8.526611%)" fill-opacity="1" d="M 73.648438 278.191406 L 89.867188 278.191406 L 89.867188 284.929688 L 79.828125 284.929688 L 79.828125 291.519531 L 89.867188 291.519531 L 89.867188 298.15625 L 79.828125 298.15625 L 79.828125 314.5 L 73.648438 314.5 Z M 73.648438 278.191406 "/>
<path fill-rule="nonzero" fill="rgb(23.391724%, 33.753967%, 8.526611%)" fill-opacity="1" d="M 109.183594 292.382812 L 111.132812 292.382812 C 113.109375 292.382812 114.472656 292.09375 115.21875 291.515625 C 115.964844 290.9375 116.335938 289.980469 116.335938 288.644531 C 116.335938 287.851562 116.152344 287.164062 115.785156 286.578125 C 115.414062 285.988281 114.917969 285.570312 114.300781 285.3125 C 113.679688 285.054688 112.542969 284.929688 110.890625 284.929688 L 109.183594 284.929688 Z M 102.964844 278.191406 L 109.554688 278.191406 C 113.164062 278.191406 115.734375 278.546875 117.265625 279.261719 C 118.796875 279.980469 120.027344 281.167969 120.960938 282.832031 C 121.890625 284.492188 122.359375 286.460938 122.359375 288.726562 C 122.359375 291.113281 121.84375 293.109375 120.8125 294.714844 C 119.785156 296.320312 118.234375 297.535156 116.160156 298.355469 L 123.902344 314.5 L 117.101562 314.5 L 109.753906 299.121094 L 109.183594 299.121094 L 109.183594 314.5 L 102.964844 314.5 Z M 102.964844 278.191406 "/>
<path fill-rule="nonzero" fill="rgb(23.391724%, 33.753967%, 8.526611%)" fill-opacity="1" d="M 135.632812 278.191406 L 141.804688 278.191406 L 141.804688 314.5 L 135.632812 314.5 Z M 135.632812 278.191406 "/>
<path fill-rule="nonzero" fill="rgb(23.391724%, 33.753967%, 8.526611%)" fill-opacity="1" d="M 155.96875 278.191406 L 173.808594 278.191406 L 173.808594 284.953125 L 162.148438 284.953125 L 162.148438 291.519531 L 173.808594 291.519531 L 173.808594 298.15625 L 162.148438 298.15625 L 162.148438 307.710938 L 173.808594 307.710938 L 173.808594 314.5 L 155.96875 314.5 Z M 155.96875 278.191406 "/>
<path fill-rule="nonzero" fill="rgb(23.391724%, 33.753967%, 8.526611%)" fill-opacity="1" d="M 186.769531 278.191406 L 192.734375 278.191406 L 206.71875 302.085938 L 206.71875 278.191406 L 212.9375 278.191406 L 212.9375 314.5 L 206.957031 314.5 L 192.992188 290.679688 L 192.992188 314.5 L 186.769531 314.5 Z M 186.769531 278.191406 "/>
<path fill-rule="nonzero" fill="rgb(23.391724%, 33.753967%, 8.526611%)" fill-opacity="1" d="M 233.746094 284.851562 L 233.746094 307.761719 L 236.632812 307.761719 C 239.480469 307.761719 241.539062 307.402344 242.820312 306.671875 C 244.101562 305.949219 245.148438 304.730469 245.964844 303.015625 C 246.78125 301.304688 247.1875 299.191406 247.1875 296.691406 C 247.1875 292.835938 246.214844 289.84375 244.277344 287.722656 C 242.527344 285.8125 239.71875 284.851562 235.855469 284.851562 Z M 227.570312 278.191406 L 234.941406 278.191406 C 239.6875 278.191406 243.21875 278.84375 245.527344 280.152344 C 247.835938 281.460938 249.738281 283.585938 251.230469 286.53125 C 252.726562 289.480469 253.472656 292.917969 253.472656 296.851562 C 253.472656 299.652344 253.054688 302.21875 252.21875 304.566406 C 251.382812 306.910156 250.226562 308.855469 248.753906 310.402344 C 247.285156 311.945312 245.691406 313.019531 243.972656 313.609375 C 242.257812 314.203125 239.28125 314.5 235.050781 314.5 L 227.570312 314.5 Z M 227.570312 278.191406 "/>
<path fill-rule="nonzero" fill="rgb(23.391724%, 33.753967%, 8.526611%)" fill-opacity="1" d="M 266.546875 278.191406 L 272.765625 278.191406 L 272.765625 307.910156 L 281.828125 307.910156 L 281.828125 314.5 L 266.546875 314.5 Z M 266.546875 278.191406 "/>
<path fill-rule="nonzero" fill="rgb(23.391724%, 33.753967%, 8.526611%)" fill-opacity="1" d="M 291.382812 278.191406 L 298.058594 278.191406 L 304.15625 291.253906 L 310.226562 278.191406 L 316.820312 278.191406 L 307.253906 298.777344 L 307.253906 314.5 L 300.992188 314.5 L 300.992188 298.777344 Z M 291.382812 278.191406 "/>
<path fill-rule="nonzero" fill="rgb(23.391724%, 33.753967%, 8.526611%)" fill-opacity="1" d="M 190.53125 420.320312 C 184.773438 420.027344 179.101562 419.449219 173.507812 418.539062 C 168.453125 414.683594 164.148438 408.804688 162.117188 399.898438 C 157.023438 377.902344 163.816406 370.78125 165.804688 352.804688 C 167.542969 336.9375 158.265625 317.96875 155.988281 313.617188 C 158.429688 315.980469 161.910156 319.707031 165.722656 324.925781 C 172.722656 334.414062 180.632812 349.363281 184.070312 366.097656 C 185.6875 374.464844 185.0625 383.207031 184.980469 393.023438 C 184.816406 401.886719 186.554688 411.867188 190.53125 420.320312 "/>
<path fill-rule="nonzero" fill="rgb(23.391724%, 33.753967%, 8.526611%)" fill-opacity="1" d="M 240.816406 368.335938 C 240.527344 386.519531 231.082031 408.265625 219.691406 415.84375 C 217.125 417.542969 214.636719 418.828125 212.238281 419.820312 L 212.195312 419.820312 C 210.496094 419.988281 208.796875 420.113281 207.058594 420.195312 C 206.066406 418.910156 205.113281 417.585938 204.199219 416.21875 C 199.851562 409.589844 197.449219 401.96875 196.539062 392.980469 C 195.625 384.074219 195.171875 373.886719 192.230469 364.648438 C 186.097656 346.507812 176.035156 332.671875 167.542969 323.808594 C 162.863281 318.921875 158.761719 315.609375 155.988281 313.617188 C 159.507812 315.152344 175.496094 322.441406 191.652344 335.242188 C 200.265625 342.074219 208.09375 351.808594 213.601562 361.914062 C 214.515625 361.417969 215.425781 360.921875 216.378906 360.34375 C 227.601562 353.507812 235.308594 337.933594 237.003906 334.246094 C 237.792969 337.351562 241.066406 351.394531 240.816406 368.335938 "/>
<path fill-rule="nonzero" fill="rgb(100%, 100%, 100%)" fill-opacity="1" d="M 20.082031 496.910156 L 44.796875 496.910156 L 44.796875 504.40625 L 29.261719 504.40625 L 29.261719 513.644531 L 43.777344 513.644531 L 43.777344 521.082031 L 29.261719 521.082031 L 29.261719 537.339844 L 20.082031 537.339844 Z M 20.082031 496.910156 "/>
<path fill-rule="nonzero" fill="rgb(100%, 100%, 100%)" fill-opacity="1" d="M 59.492188 517.246094 C 59.492188 525.164062 63.210938 530.742188 69.328125 530.742188 C 75.507812 530.742188 79.046875 524.863281 79.046875 517.003906 C 79.046875 509.746094 75.566406 503.507812 69.269531 503.507812 C 63.089844 503.507812 59.492188 509.386719 59.492188 517.246094 M 88.703125 516.703125 C 88.703125 529.960938 80.667969 538 68.847656 538 C 56.851562 538 49.832031 528.941406 49.832031 517.425781 C 49.832031 505.308594 57.570312 496.25 69.507812 496.25 C 81.925781 496.25 88.703125 505.546875 88.703125 516.703125 "/>
<path fill-rule="nonzero" fill="rgb(100%, 100%, 100%)" fill-opacity="1" d="M 103.757812 514.84375 L 107.359375 514.84375 C 111.917969 514.84375 114.617188 512.566406 114.617188 509.027344 C 114.617188 505.308594 112.097656 503.449219 107.898438 503.386719 C 105.679688 503.386719 104.417969 503.570312 103.757812 503.6875 Z M 94.699219 497.449219 C 97.640625 496.96875 102.019531 496.609375 106.878906 496.609375 C 112.875 496.609375 117.074219 497.507812 119.953125 499.789062 C 122.355469 501.707031 123.671875 504.527344 123.671875 508.246094 C 123.671875 513.40625 120.015625 516.945312 116.535156 518.203125 L 116.535156 518.382812 C 119.355469 519.523438 120.914062 522.222656 121.933594 525.941406 C 123.195312 530.5 124.453125 535.78125 125.234375 537.339844 L 115.875 537.339844 C 115.214844 536.199219 114.253906 532.902344 113.058594 527.921875 C 111.976562 522.882812 110.238281 521.503906 106.519531 521.445312 L 103.757812 521.445312 L 103.757812 537.339844 L 94.699219 537.339844 Z M 94.699219 497.449219 "/>
<path fill-rule="nonzero" fill="rgb(100%, 100%, 100%)" fill-opacity="1" d="M 147.847656 504.585938 L 136.988281 504.585938 L 136.988281 496.910156 L 168.0625 496.910156 L 168.0625 504.585938 L 157.023438 504.585938 L 157.023438 537.339844 L 147.847656 537.339844 Z M 147.847656 504.585938 "/>
<path fill-rule="nonzero" fill="rgb(100%, 100%, 100%)" fill-opacity="1" d="M 182.097656 496.910156 L 182.097656 512.445312 L 197.152344 512.445312 L 197.152344 496.910156 L 206.269531 496.910156 L 206.269531 537.339844 L 197.152344 537.339844 L 197.152344 520.425781 L 182.097656 520.425781 L 182.097656 537.339844 L 172.917969 537.339844 L 172.917969 496.910156 Z M 182.097656 496.910156 "/>
<path fill-rule="nonzero" fill="rgb(100%, 100%, 100%)" fill-opacity="1" d="M 238.300781 520.242188 L 223.425781 520.242188 L 223.425781 529.84375 L 240.042969 529.84375 L 240.042969 537.339844 L 214.25 537.339844 L 214.25 496.910156 L 239.203125 496.910156 L 239.203125 504.40625 L 223.425781 504.40625 L 223.425781 512.804688 L 238.300781 512.804688 Z M 238.300781 520.242188 "/>
<path fill-rule="nonzero" fill="rgb(100%, 100%, 100%)" fill-opacity="1" d="M 267.453125 515.804688 C 268.234375 515.984375 269.191406 516.046875 270.511719 516.046875 C 275.371094 516.046875 278.371094 513.585938 278.371094 509.445312 C 278.371094 505.726562 275.792969 503.507812 271.230469 503.507812 C 269.375 503.507812 268.113281 503.6875 267.453125 503.867188 Z M 258.394531 497.449219 C 261.214844 496.96875 265.175781 496.609375 270.753906 496.609375 C 276.390625 496.609375 280.410156 497.6875 283.109375 499.847656 C 285.6875 501.886719 287.429688 505.25 287.429688 509.207031 C 287.429688 513.167969 286.109375 516.523438 283.710938 518.804688 C 280.589844 521.742188 275.972656 523.0625 270.570312 523.0625 C 269.375 523.0625 268.292969 523.003906 267.453125 522.882812 L 267.453125 537.339844 L 258.394531 537.339844 Z M 258.394531 497.449219 "/>
<path fill-rule="nonzero" fill="rgb(100%, 100%, 100%)" fill-opacity="1" d="M 293.246094 496.910156 L 302.421875 496.910156 L 302.421875 529.660156 L 318.5 529.660156 L 318.5 537.339844 L 293.246094 537.339844 Z M 293.246094 496.910156 "/>
<path fill-rule="nonzero" fill="rgb(100%, 100%, 100%)" fill-opacity="1" d="M 343.929688 520.125 L 341.414062 511.546875 C 340.691406 509.148438 339.972656 506.148438 339.371094 503.746094 L 339.253906 503.746094 C 338.652344 506.148438 338.050781 509.207031 337.390625 511.546875 L 334.992188 520.125 Z M 333.671875 526.960938 L 330.792969 537.339844 L 321.316406 537.339844 L 333.671875 496.910156 L 345.671875 496.910156 L 358.207031 537.339844 L 348.371094 537.339844 L 345.25 526.960938 Z M 333.671875 526.960938 "/>
<path fill-rule="nonzero" fill="rgb(100%, 100%, 100%)" fill-opacity="1" d="M 363.605469 537.339844 L 363.605469 496.910156 L 374.28125 496.910156 L 382.679688 511.726562 C 385.082031 515.984375 387.480469 521.023438 389.277344 525.582031 L 389.460938 525.582031 C 388.859375 520.242188 388.679688 514.785156 388.679688 508.726562 L 388.679688 496.910156 L 397.078125 496.910156 L 397.078125 537.339844 L 387.480469 537.339844 L 378.839844 521.742188 C 376.441406 517.425781 373.804688 512.207031 371.824219 507.46875 L 371.644531 507.527344 C 371.882812 512.867188 372.003906 518.5625 372.003906 525.164062 L 372.003906 537.339844 Z M 363.605469 537.339844 "/>
<path fill-rule="nonzero" fill="rgb(100%, 100%, 100%)" fill-opacity="1" d="M 429.046875 520.242188 L 414.171875 520.242188 L 414.171875 529.84375 L 430.789062 529.84375 L 430.789062 537.339844 L 404.992188 537.339844 L 404.992188 496.910156 L 429.949219 496.910156 L 429.949219 504.40625 L 414.171875 504.40625 L 414.171875 512.804688 L 429.046875 512.804688 Z M 429.046875 520.242188 "/>
<path fill-rule="nonzero" fill="rgb(100%, 100%, 100%)" fill-opacity="1" d="M 445.121094 504.585938 L 434.265625 504.585938 L 434.265625 496.910156 L 465.335938 496.910156 L 465.335938 504.585938 L 454.300781 504.585938 L 454.300781 537.339844 L 445.121094 537.339844 Z M 445.121094 504.585938 "/>
</svg>
