<svg xmlns="http://www.w3.org/2000/svg" version="1.1" viewBox="0.00 0.00 1500.00 888.00" width="1500px" height="888px">
<g stroke-width="2.00" fill="none" stroke-linecap="butt">



















































































</g>

<path fill="#ebebeb" d="   M 756.15 413.19   A 0.49 0.48 -39.8 0 0 755.39 413.13   C 743.97 425.30 730.73 434.86 714.04 438.04   C 699.47 440.81 682.15 440.69 668.24 434.01   C 648.50 424.54 639.68 405.33 639.27 384.01   Q 638.60 349.76 663.68 330.18   C 678.66 318.49 698.61 314.30 717.07 311.89   Q 731.60 309.99 748.25 308.36   A 0.41 0.40 -3.2 0 0 748.62 307.96   Q 748.80 298.20 748.54 291.78   C 748.06 280.00 742.05 270.19 729.67 267.85   C 715.74 265.21 699.33 270.74 694.77 285.49   C 692.99 291.25 692.29 297.14 684.96 295.97   Q 682.66 295.61 655.96 292.92   C 649.19 292.24 644.53 290.80 646.26 283.05   Q 653.57 250.24 684.03 236.51   C 718.02 221.18 784.50 223.15 797.92 267.31   Q 801.27 278.34 801.31 292.51   Q 801.41 328.18 801.35 364.66   C 801.33 374.32 802.23 381.69 806.35 389.20   Q 809.28 394.54 814.45 401.36   C 816.30 403.81 817.87 406.83 817.06 409.81   Q 816.69 411.16 813.73 413.56   Q 803.84 421.57 788.52 434.80   C 784.17 438.55 780.24 440.38 775.77 436.36   Q 768.95 430.23 767.08 428.04   Q 761.47 421.48 756.15 413.19   Z   M 740.05 388.63   Q 741.39 389.11 741.36 391.22   Q 741.35 392.48 741.60 393.65   C 742.06 395.83 744.59 395.04 745.83 394.23   A 0.84 0.83 67.0 0 0 746.19 393.33   C 745.21 389.23 745.47 386.57 751.06 386.79   A 1.38 1.38 0.0 0 0 752.40 384.93   L 751.88 383.53   A 1.93 1.92 79.7 0 0 750.08 382.28   L 746.26 382.28   A 1.32 1.30 18.4 0 0 745.22 382.79   Q 744.11 384.22 743.19 383.32   Q 747.98 372.58 748.49 357.99   Q 748.80 348.83 748.59 338.68   A 0.38 0.38 0.0 0 0 748.22 338.31   C 729.32 337.93 703.40 341.47 695.87 361.85   C 690.79 375.60 693.47 399.12 711.88 402.11   C 723.50 404.00 733.77 398.23 740.05 388.63   Z"/>
<path fill="#ebebeb" d="   M 269.73 413.17   A 0.49 0.48 -39.8 0 0 268.97 413.11   C 257.55 425.27 244.32 434.83 227.63 438.01   C 213.06 440.78 195.74 440.66 181.84 433.98   C 162.10 424.51 153.28 405.31 152.87 383.99   Q 152.20 349.75 177.28 330.17   C 192.26 318.48 212.20 314.29 230.66 311.88   Q 245.19 309.98 261.83 308.35   A 0.41 0.40 -3.2 0 0 262.20 307.95   Q 262.38 298.20 262.12 291.78   C 261.64 280.00 255.64 270.19 243.26 267.85   C 229.33 265.21 212.92 270.74 208.36 285.49   C 206.58 291.25 205.88 297.14 198.56 295.97   Q 196.26 295.61 169.56 292.92   C 162.79 292.24 158.13 290.80 159.86 283.05   Q 167.17 250.24 197.63 236.52   C 231.61 221.19 298.08 223.16 311.50 267.31   Q 314.85 278.34 314.89 292.51   Q 314.98 328.17 314.92 364.64   C 314.90 374.30 315.80 381.67 319.92 389.18   Q 322.85 394.52 328.02 401.34   C 329.87 403.79 331.44 406.81 330.63 409.79   Q 330.26 411.14 327.30 413.54   Q 317.41 421.54 302.10 434.77   C 297.75 438.52 293.82 440.35 289.35 436.33   Q 282.53 430.20 280.66 428.01   Q 275.05 421.45 269.73 413.17   Z   M 261.98 338.24   C 239.80 338.15 211.40 342.69 208.00 369.82   C 206.49 381.90 209.71 396.86 222.51 401.24   C 234.60 405.38 247.12 399.25 254.01 388.79   Q 261.51 377.38 262.29 362.72   Q 263.07 347.91 262.58 338.82   A 0.61 0.60 88.5 0 0 261.98 338.24   Z"/>
<path fill="#ebebeb" d="   M 372.81 437.12   Q 370.00 437.30 373.57 435.08   Q 376.06 433.54 376.48 432.43   C 377.20 430.57 377.74 426.99 375.14 426.01   C 371.68 424.71 369.01 426.18 365.76 426.95   A 1.54 1.54 0.0 0 1 363.96 425.98   L 363.78 425.51   A 1.76 1.76 0.0 0 1 364.81 423.25   L 369.67 421.44   A 1.16 1.16 0.0 0 0 369.47 419.21   Q 363.69 418.15 361.12 423.00   C 359.38 426.28 361.41 430.50 365.65 429.59   Q 372.23 428.17 372.25 428.17   A 1.62 1.62 0.0 0 1 374.07 430.07   L 373.93 430.83   A 3.50 3.50 0.0 0 1 370.99 433.65   C 369.81 433.82 367.25 433.62 367.03 434.02   Q 366.69 434.64 366.95 435.18   Q 366.98 435.24 367.66 435.80   Q 368.13 436.19 367.77 437.13   C 363.96 437.51 359.99 436.69 358.15 433.18   Q 357.33 431.63 357.34 427.92   Q 357.40 396.67 357.37 241.12   C 357.37 235.00 361.80 233.71 367.36 233.72   Q 391.67 233.77 399.50 233.78   A 3.63 3.50 -36.6 0 1 400.42 233.90   Q 405.83 235.29 405.80 241.75   Q 405.75 252.97 405.80 264.65   A 0.39 0.39 0.0 0 0 406.55 264.79   C 415.95 240.98 432.86 228.41 459.24 229.69   C 481.17 230.76 494.92 244.57 502.99 264.05   A 0.38 0.38 0.0 0 0 503.69 264.05   Q 514.07 237.85 541.07 231.17   C 559.26 226.66 579.73 231.52 593.07 245.13   C 603.90 256.19 606.54 269.83 607.10 284.99   C 607.46 294.91 606.89 306.08 606.89 316.34   Q 606.86 390.03 606.91 429.52   C 606.92 436.27 602.84 437.71 596.71 437.61   Q 589.85 437.50 566.45 437.59   C 560.32 437.62 556.41 436.07 556.41 429.62   Q 556.32 339.19 556.53 309.76   C 556.62 297.20 556.07 282.07 541.64 278.59   Q 535.49 277.11 531.48 277.76   C 518.15 279.92 510.95 289.14 509.19 302.21   Q 508.15 309.95 508.13 317.68   Q 508.10 334.21 508.13 426.81   Q 508.13 432.62 507.21 434.01   C 505.11 437.17 502.70 437.55 498.54 437.56   Q 475.16 437.59 465.02 437.54   Q 460.57 437.52 458.33 434.62   Q 457.06 432.96 457.06 427.38   Q 457.04 347.50 457.15 310.23   Q 457.15 308.51 456.60 302.00   Q 455.88 293.53 451.89 286.38   C 446.84 277.33 435.21 275.64 426.21 278.46   C 408.84 283.91 408.75 309.17 408.73 323.50   Q 408.68 374.98 408.74 427.43   Q 408.74 432.40 407.65 433.84   C 405.64 436.49 403.36 437.11 399.78 437.12   Q 386.54 437.17 372.81 437.12   Z   M 402.38 393.38   L 406.35 398.40   A 0.22 0.22 0.0 0 0 406.65 398.44   L 406.87 398.27   A 3.22 2.41 51.7 0 0 406.76 394.25   L 406.51 393.93   A 3.22 2.41 51.7 0 0 402.63 392.90   L 402.42 393.07   A 0.22 0.22 0.0 0 0 402.38 393.38   Z   M 407.00 405.51   Q 406.92 405.42 405.98 405.23   A 2.15 2.12 -16.2 0 1 404.87 404.63   L 398.77 398.54   A 1.45 1.45 0.0 0 0 397.48 398.14   L 397.18 398.20   A 0.90 0.90 0.0 0 0 396.67 399.61   C 398.97 402.73 402.30 407.34 405.22 408.13   A 1.69 1.61 -12.2 0 0 407.00 405.51   Z   M 401.57 411.39   Q 398.70 407.50 396.11 404.81   C 392.79 401.36 389.53 404.62 387.78 407.48   A 1.12 1.12 0.0 0 1 387.00 408.00   Q 385.86 408.17 385.09 408.83   A 0.53 0.53 0.0 0 0 385.02 409.55   L 392.27 418.83   A 0.97 0.96 -37.7 0 0 393.63 419.00   L 394.04 418.68   A 1.25 1.25 0.0 0 0 394.26 416.92   L 389.44 410.74   A 2.66 2.66 0.0 0 1 389.90 407.00   L 390.99 406.15   A 2.42 2.41 -37.8 0 1 394.38 406.57   L 399.21 412.76   A 1.35 1.34 -32.8 0 0 400.90 413.12   L 401.26 412.93   A 1.06 1.06 0.0 0 0 401.57 411.39   Z   M 389.09 421.45   Q 387.01 418.17 384.08 415.19   C 380.74 411.76 375.80 415.55 374.85 419.15   A 1.50 1.48 17.8 0 0 375.77 420.92   L 376.04 421.02   A 0.70 0.70 0.0 0 0 376.97 420.54   L 377.87 417.18   A 0.79 0.79 0.0 0 1 378.32 416.66   Q 379.69 416.06 381.41 416.63   A 1.52 1.52 0.0 0 1 381.52 419.47   C 379.05 420.50 376.60 423.92 378.28 426.62   C 379.66 428.85 382.86 428.02 384.45 426.24   Q 385.03 425.61 388.91 422.48   A 0.79 0.78 -35.4 0 0 389.09 421.45   Z"/>
<path fill="#ebebeb" d="   M 1171.99 335.29   C 1171.99 363.23 1165.02 392.79 1146.43 414.37   C 1127.46 436.41 1099.13 445.14 1070.78 439.62   C 1030.09 431.69 1009.68 394.84 1004.88 356.51   Q 1003.66 346.79 1003.66 335.34   Q 1003.65 323.88 1004.87 314.16   C 1009.65 275.83 1030.04 238.97 1070.72 231.01   C 1099.07 225.48 1127.40 234.19 1146.39 256.22   C 1164.99 277.79 1171.98 307.34 1171.99 335.29   Z   M 1084.75 402.02   C 1096.06 403.09 1105.87 395.85 1109.85 385.80   Q 1115.24 372.20 1116.19 356.98   Q 1117.82 331.02 1115.22 307.01   Q 1114.15 297.12 1111.63 288.38   C 1108.46 277.39 1101.99 269.84 1090.02 268.92   C 1062.79 266.83 1058.93 298.09 1058.20 318.00   C 1057.59 334.59 1057.58 353.74 1060.81 371.44   C 1063.26 384.91 1069.50 400.57 1084.75 402.02   Z"/>
<path fill="#ebebeb" d="   M 1247.80 267.85   A 0.25 0.25 0.0 0 0 1248.21 268.04   Q 1248.52 267.76 1248.73 267.27   C 1254.01 254.92 1260.10 244.18 1270.98 236.93   C 1282.33 229.36 1298.67 228.14 1311.82 230.88   C 1330.66 234.82 1344.63 248.82 1348.68 267.56   Q 1352.09 283.33 1352.09 302.75   Q 1352.09 335.02 1352.11 428.49   Q 1352.11 432.87 1350.95 434.24   C 1349.03 436.51 1346.94 437.13 1343.74 437.13   Q 1321.50 437.10 1312.40 437.20   C 1305.60 437.27 1301.04 436.19 1301.05 428.52   Q 1301.14 354.12 1301.08 310.51   Q 1301.06 299.90 1298.16 291.07   Q 1293.31 276.29 1277.78 276.40   C 1266.13 276.48 1257.73 286.11 1254.56 296.89   Q 1250.71 309.97 1250.72 323.76   Q 1250.72 332.99 1250.73 426.08   Q 1250.73 431.80 1249.81 433.22   C 1247.78 436.34 1245.32 437.18 1241.29 437.15   Q 1232.81 437.09 1209.21 437.17   C 1202.83 437.20 1199.25 435.20 1199.27 428.80   Q 1199.28 422.90 1199.28 239.74   A 2.23 2.13 53.1 0 1 1199.34 239.23   C 1200.61 234.11 1204.20 233.31 1209.42 233.35   Q 1224.70 233.46 1240.26 233.39   Q 1244.94 233.36 1246.73 236.76   Q 1247.75 238.71 1247.76 244.27   Q 1247.76 252.08 1247.80 267.85   Z"/>
<path fill="#ebebeb" d="   M 915.92 274.31   Q 888.97 274.27 856.23 274.32   C 849.02 274.33 845.78 272.65 845.78 265.42   Q 845.77 241.56 845.81 240.27   C 846.00 234.22 849.86 233.38 855.43 233.38   Q 970.68 233.41 971.21 233.38   C 977.17 233.08 981.83 234.40 981.83 240.99   Q 981.83 252.76 981.80 263.00   A 10.23 10.09 57.6 0 1 980.89 267.21   Q 979.04 271.31 975.86 275.86   Q 942.72 323.28 909.90 369.98   A 0.41 0.40 -73.2 0 0 910.24 370.62   C 933.34 370.00 956.59 373.72 977.21 384.30   C 981.81 386.66 985.05 390.48 985.10 395.25   Q 985.25 409.41 985.16 424.76   C 985.14 428.35 982.58 432.03 978.77 431.91   Q 977.55 431.87 974.30 430.24   C 934.22 410.13 886.61 410.98 847.10 431.84   Q 845.37 432.75 843.20 431.77   Q 838.74 429.73 838.67 424.75   Q 838.58 417.43 838.68 396.77   Q 838.72 387.40 841.48 382.07   Q 842.59 379.91 849.82 369.63   Q 866.80 345.43 916.13 274.72   A 0.26 0.26 0.0 0 0 915.92 274.31   Z"/>









<path fill="#ebebeb" d="   M 383.32 420.09   A 0.79 0.79 0.0 0 1 384.44 420.08   L 384.85 420.49   A 2.66 2.43 -45.4 0 1 384.71 424.09   L 384.09 424.72   A 2.66 2.43 -45.4 0 1 380.50 424.91   L 380.08 424.50   A 0.79 0.79 0.0 0 1 380.08 423.38   L 383.32 420.09   Z"/>
<path fill="#f8991c" d="   M 912.86 562.84   C 909.18 564.51 905.26 561.85 906.91 557.57   C 914.43 538.02 921.63 520.12 926.36 500.09   Q 928.71 490.17 927.41 481.17   C 926.06 471.87 910.41 471.03 903.33 470.65   Q 896.83 470.31 893.65 470.39   Q 869.80 471.07 844.22 474.72   Q 843.40 474.83 840.94 474.34   A 1.83 1.83 0.0 0 1 840.01 473.84   C 837.37 471.25 839.53 467.56 842.05 465.77   C 867.68 447.55 902.11 443.54 932.50 447.00   C 939.06 447.74 949.12 449.61 954.94 453.81   C 959.94 457.41 958.00 474.65 957.15 480.23   Q 952.31 511.99 935.34 538.84   Q 927.86 550.67 918.09 559.35   Q 915.51 561.65 912.86 562.84   Z"/>
<path fill="#f8991c" d="   M 321.85 463.11   C 322.87 456.69 328.31 457.80 332.56 460.23   Q 426.15 513.71 533.42 532.88   Q 675.85 558.34 814.01 519.26   Q 850.17 509.04 886.16 493.96   Q 891.05 491.90 895.73 493.51   C 903.25 496.09 903.82 505.00 897.95 509.47   C 876.22 526.03 851.13 539.74 826.32 550.31   C 738.75 587.62 641.85 598.44 548.08 580.39   C 464.95 564.39 387.12 525.76 324.48 469.01   C 322.88 467.56 321.52 465.24 321.85 463.11   Z"/>































































</svg>