<svg xmlns="http://www.w3.org/2000/svg" version="1.1" viewBox="0.00 0.00 1445.00 1451.00" width="1082.8346456692914" height="1088.5039370078741">
<g stroke-width="2.00" fill="none" stroke-linecap="butt">
<path stroke="#b6c19f" vector-effect="non-scaling-stroke" d="   M 902.63 541.91   Q 915.59 572.59 922.37 602.83   Q 939.31 678.44 921.84 754.82   Q 914.78 785.69 899.29 820.88   C 896.80 826.54 893.82 831.37 891.64 836.21   Q 889.29 841.41 885.56 847.51   Q 879.41 857.55 876.71 862.23   Q 875.49 864.34 869.81 872.03   Q 868.77 873.44 865.66 878.36   Q 864.26 880.57 861.21 884.47   Q 848.51 900.74 834.96 914.96   C 782.45 970.01 710.10 1007.05 634.56 1016.89   C 571.56 1025.09 507.58 1016.59 449.92 990.55   Q 429.89 981.50 415.83 973.16   Q 341.36 928.96 295.94 855.07   Q 292.33 849.19 281.17 828.55   A 2.56 2.49 -63.7 0 1 280.88 827.65   Q 280.71 826.40 280.33 825.63   Q 274.96 814.95 271.29 806.28   C 269.33 801.65 267.80 796.44 266.35 792.41   Q 243.74 729.62 246.58 662.74   Q 247.81 633.97 253.72 606.96   Q 276.69 502.03 354.37 428.29   Q 369.01 414.40 384.01 403.53   Q 389.91 399.25 394.43 395.92   Q 399.61 392.10 405.15 388.77   Q 409.99 385.85 418.11 380.69   Q 420.68 379.06 424.52 377.05   Q 430.94 373.69 431.05 373.61   Q 431.13 373.55 431.32 373.62   Q 431.50 373.68 431.61 373.62   Q 447.91 365.38 456.79 361.75   Q 530.93 331.39 610.01 336.31   Q 641.94 338.30 671.28 345.52   C 676.89 346.91 682.91 349.26 687.85 349.43   Q 701.45 349.88 710.32 340.85   Q 718.09 332.96 718.73 322.65   C 719.52 309.86 711.83 297.18 699.55 293.23   Q 690.51 290.31 681.72 288.29   C 610.67 271.96 537.10 274.09 468.23 295.96   Q 424.35 309.89 382.83 334.41   C 368.60 342.81 353.10 353.86 340.62 363.62   Q 310.48 387.19 284.72 417.45   Q 281.64 421.07 281.53 421.19   Q 279.86 423.06 278.44 425.01   Q 277.02 426.97 275.29 428.59   A 1.46 0.66 -24.4 0 0 275.15 428.75   L 262.55 445.34"/>
<path stroke="#dde6cb" vector-effect="non-scaling-stroke" d="   M 262.55 445.34   Q 256.92 452.28 251.44 461.20   Q 250.95 461.99 251.00 462.41"/>
<path stroke="#b6c19f" vector-effect="non-scaling-stroke" d="   M 251.00 462.41   Q 251.15 462.85 250.97 462.81"/>
<path stroke="#dde6cb" vector-effect="non-scaling-stroke" d="   M 250.97 462.81   Q 243.87 472.30 238.70 483.02"/>
<path stroke="#b6c19f" vector-effect="non-scaling-stroke" d="   M 238.70 483.02   Q 239.29 483.04 238.33 483.98"/>
<path stroke="#dde6cb" vector-effect="non-scaling-stroke" d="   M 238.33 483.98   Q 237.97 483.95 237.67 484.46   Q 232.81 492.87 228.92 501.85"/>
<path stroke="#b6c19f" vector-effect="non-scaling-stroke" d="   M 228.92 501.85   C 227.09 506.04 224.66 510.24 223.04 514.23   Q 219.18 523.70 215.61 532.80   C 180.89 621.53 179.16 719.24 210.68 809.35   Q 239.99 893.17 301.69 956.58   Q 340.99 996.96 387.81 1023.95   Q 481.85 1078.16 589.05 1077.97   C 640.62 1077.88 691.80 1068.18 738.43 1048.88   Q 768.92 1036.26 793.23 1021.69   Q 846.02 990.06 887.24 943.72   Q 953.27 869.49 977.29 772.47   C 994.77 701.85 992.09 626.87 970.07 557.55"/>
<path stroke="#f39cfb" vector-effect="non-scaling-stroke" d="   M 970.07 557.55   Q 970.92 557.35 972.00 557.31   Q 1009.51 555.92 1039.92 533.19   C 1065.38 514.16 1085.61 490.35 1102.14 463.93   Q 1115.81 442.08 1122.21 424.20   Q 1143.82 363.78 1148.99 298.75   A 0.55 0.55 0.0 0 0 1148.02 298.36   Q 1145.94 300.91 1143.18 303.37   Q 1141.21 305.12 1138.25 308.30   Q 1134.78 312.03 1129.91 316.08   Q 1128.14 317.55 1128.10 317.59   Q 1122.79 322.64 1119.37 325.28   Q 1115.86 328.00 1111.46 331.60   Q 1106.13 335.95 1098.26 341.23   Q 1098.05 341.37 1097.64 341.38   A 1.02 0.98 26.5 0 0 1097.13 341.54   Q 1090.92 345.66 1088.41 347.27   Q 1085.25 349.30 1080.16 351.53   Q 1075.93 353.38 1064.61 358.59   Q 1061.05 360.23 1047.78 363.66   Q 1044.94 364.39 1041.67 364.63   A 0.61 0.60 81.8 0 1 1041.04 364.15   Q 1037.45 346.56 1031.59 327.38   Q 1029.21 319.56 1026.36 312.37   Q 1022.38 302.31 1020.63 297.51   C 1017.98 290.24 1014.17 283.70 1010.21 275.97   Q 1006.33 268.40 1002.05 261.52   Q 984.81 233.85 962.48 207.26   Q 961.52 206.12 961.21 205.43   A 1.35 1.23 15.6 0 0 960.99 205.08   Q 956.28 199.63 947.77 189.97   Q 925.50 164.69 900.82 142.60   A 0.59 0.59 0.0 0 0 899.85 143.15   Q 902.52 156.92 903.53 170.31   C 906.39 207.92 906.42 248.31 890.66 283.58   Q 890.24 284.52 890.14 285.37   A 2.40 2.09 -32.9 0 1 889.92 286.13   Q 884.12 298.30 876.66 311.00   Q 876.59 311.11 876.58 311.48   Q 876.56 311.78 876.46 311.95   Q 870.34 322.42 863.70 332.42   A 0.52 0.52 0.0 0 0 863.62 332.66   Q 863.61 332.83 863.60 333.07   A 1.01 0.99 63.0 0 1 863.47 333.48   L 850.70 354.55   A 0.61 0.60 -30.5 0 0 850.62 354.85   Q 850.63 354.95 850.63 355.10   A 1.64 1.60 -32.8 0 1 850.45 355.88   Q 846.61 363.47 843.74 369.78   Q 841.35 375.06 839.48 380.80   Q 829.00 413.14 827.97 445.76   C 827.30 466.99 832.47 489.32 844.01 507.49   Q 853.48 522.39 865.57 532.43   Q 883.53 547.37 904.53 555.79   A 0.50 0.49 5.3 0 0 905.20 555.24   L 902.63 541.91"/>
<path stroke="#aa5e9b" vector-effect="non-scaling-stroke" d="   M 970.07 557.55   L 959.30 557.32   A 0.79 0.77 -10.1 0 1 958.59 556.84   Q 943.00 518.89 946.85 478.02   Q 948.24 463.32 949.78 456.26   Q 953.80 437.90 959.76 409.75   Q 963.99 389.81 965.82 370.57   Q 967.49 353.05 965.89 330.95   Q 962.34 281.99 946.61 234.36   Q 943.37 224.53 937.27 209.99   A 1.85 1.80 -54.0 0 1 937.14 209.09   Q 937.19 208.65 937.13 208.52   Q 928.41 189.41 924.07 180.86   Q 916.83 166.59 904.25 147.87   A 0.56 0.56 0.0 0 0 903.51 147.70   L 903.48 147.71   A 0.55 0.55 0.0 0 0 903.27 148.42   Q 916.31 174.48 924.31 202.59   Q 932.50 231.36 936.53 260.11   C 937.34 265.84 937.58 271.44 938.24 275.98   Q 938.97 281.01 939.26 287.92   Q 940.18 309.57 939.33 328.27   C 938.43 348.30 935.39 366.85 929.90 384.63   Q 922.86 407.39 912.65 437.19   Q 901.77 468.93 900.13 502.51   Q 899.15 522.59 902.63 541.91"/>
<path stroke="#93a86b" vector-effect="non-scaling-stroke" d="   M 228.92 501.85   Q 234.16 493.29 238.35 484.35   Q 238.45 484.13 238.33 483.98"/>
<path stroke="#93a86b" vector-effect="non-scaling-stroke" d="   M 238.70 483.02   Q 245.66 473.39 250.97 462.81"/>
<path stroke="#93a86b" vector-effect="non-scaling-stroke" d="   M 251.00 462.41   Q 251.39 462.42 251.76 461.92   Q 258.02 453.42 262.55 445.34"/>
<path stroke="#dde6cb" vector-effect="non-scaling-stroke" d="   M 486.99 518.18   Q 486.60 519.02 485.99 519.79   C 475.17 533.26 469.51 550.65 469.20 567.51   C 468.82 588.37 473.84 607.72 487.06 623.95   C 508.07 649.73 539.71 657.63 571.77 652.04   C 591.94 648.53 606.43 637.87 621.29 623.95   A 0.73 0.73 0.0 0 0 621.32 622.92   L 601.87 602.62   A 0.67 0.66 45.9 0 0 600.92 602.60   C 595.04 608.36 587.51 614.88 580.54 618.44   Q 566.37 625.67 549.50 624.59   C 516.86 622.49 495.62 595.59 499.74 563.20   Q 502.62 540.58 520.95 526.99   Q 530.52 519.89 541.53 517.88   C 564.56 513.66 584.97 522.08 600.77 538.81   A 0.88 0.88 0.0 0 0 602.02 538.84   L 621.99 519.72   A 0.58 0.58 0.0 0 0 622.03 518.93   C 604.62 498.65 578.73 487.28 552.19 487.67   C 526.87 488.04 504.23 498.80 487.29 517.73   A 1.99 1.79 81.7 0 0 486.99 518.18"/>
<path stroke="#dde6cb" vector-effect="non-scaling-stroke" d="   M 675.90 579.29   C 678.34 602.79 689.90 623.18 708.66 637.55   Q 726.42 651.16 748.75 653.35   C 780.53 656.48 809.51 643.04 826.86 616.13   C 837.16 600.15 841.53 581.58 839.53 562.29   C 837.52 542.99 829.43 525.72 816.06 512.20   C 793.55 489.43 762.42 482.23 731.96 491.83   Q 710.56 498.57 695.98 515.54   C 680.58 533.46 673.46 555.79 675.90 579.29"/>
<path stroke="#dde6cb" vector-effect="non-scaling-stroke" d="   M 358.73 549.67   A 0.68 0.68 0.0 0 1 358.05 548.99   L 358.05 521.62   A 0.68 0.68 0.0 0 1 358.73 520.94   L 413.76 520.94   A 0.68 0.68 0.0 0 0 414.44 520.26   L 414.44 492.25   A 0.68 0.68 0.0 0 0 413.76 491.57   L 328.85 491.57   A 0.68 0.68 0.0 0 0 328.17 492.25   L 328.17 649.08   A 0.68 0.68 0.0 0 0 328.85 649.76   L 413.75 649.76   A 0.68 0.68 0.0 0 0 414.43 649.08   L 414.43 620.86   A 0.68 0.68 0.0 0 0 413.75 620.18   L 358.72 620.18   A 0.68 0.68 0.0 0 1 358.04 619.50   L 358.04 579.24   A 0.68 0.68 0.0 0 1 358.72 578.56   L 413.73 578.56   A 0.68 0.68 0.0 0 0 414.41 577.88   L 414.41 550.35   A 0.68 0.68 0.0 0 0 413.73 549.67   L 358.73 549.67"/>
<path stroke="#dde6cb" vector-effect="non-scaling-stroke" d="   M 302.73 797.44   Q 303.03 799.82 304.52 802.97   Q 307.04 808.30 308.45 810.60"/>
<path stroke="#d1dcaa" vector-effect="non-scaling-stroke" d="   M 308.45 810.60   Q 312.30 818.40 316.93 826.16   Q 317.56 827.22 317.94 828.37   Q 318.24 829.26 319.35 830.28   A 2.24 2.18 11.3 0 1 319.88 831.05   L 321.36 834.57   A 0.70 0.35 -90.0 0 0 321.43 834.71   Q 327.83 844.88 328.58 845.81   Q 329.89 847.43 330.08 848.34   A 0.82 0.69 26.2 0 0 330.22 848.66   Q 376.94 917.05 451.16 953.77   Q 452.74 954.56 454.11 954.81   A 1.04 0.75 54.2 0 1 454.29 954.87   L 472.14 963.05   A 1.97 1.95 50.6 0 0 473.40 963.18   Q 473.61 963.13 473.69 963.12   A 1.12 1.11 66.1 0 1 474.71 963.52   Q 475.16 964.07 475.82 964.09   Q 476.37 964.10 477.09 964.37   Q 493.58 970.78 506.78 974.22   Q 519.50 977.54 536.15 980.20"/>
<path stroke="#a0a995" vector-effect="non-scaling-stroke" d="   M 536.15 980.20   Q 551.82 982.66 569.45 983.71"/>
<path stroke="#d1dcaa" vector-effect="non-scaling-stroke" d="   M 569.45 983.71   L 604.00 983.56"/>
<path stroke="#a0a995" vector-effect="non-scaling-stroke" d="   M 604.00 983.56   L 612.26 982.89"/>
<path stroke="#d1dcaa" vector-effect="non-scaling-stroke" d="   M 612.26 982.89   Q 640.73 980.16 665.93 973.16   Q 742.93 951.81 800.18 895.18   Q 831.85 863.85 852.98 825.27   Q 853.39 824.51 853.55 824.01   A 1.34 0.08 -74.2 0 1 853.88 823.07   Q 859.84 812.51 866.11 798.93   C 867.14 796.71 867.95 793.54 869.00 790.93   Q 872.36 782.59 876.31 771.01   A 1.87 1.55 -39.7 0 0 876.40 770.53   Q 876.44 769.42 877.03 767.58   Q 890.84 724.49 890.64 678.45   A 0.88 0.88 0.0 0 0 889.76 677.57   L 278.60 677.57   A 0.31 0.30 -89.0 0 0 278.30 677.87   Q 277.90 726.23 293.38 771.84   C 294.01 773.72 294.23 775.98 294.83 777.69   Q 298.42 787.78 302.73 797.44"/>
<path stroke="#728640" vector-effect="non-scaling-stroke" d="   M 612.26 982.89   L 628.66 974.94   A 1.77 1.74 9.9 0 0 629.11 974.63   Q 634.31 969.72 640.33 963.50   Q 642.45 961.31 643.46 959.84   C 645.99 956.13 648.40 953.66 650.18 949.81   C 651.67 946.58 654.56 942.05 656.55 937.73   C 667.00 915.02 671.49 892.16 670.48 866.17   Q 669.40 838.65 663.07 811.95   A 0.19 0.19 0.0 0 0 662.71 811.91   Q 658.41 820.63 652.45 830.48   Q 649.63 835.15 647.00 838.57   Q 641.65 845.53 641.03 846.28   Q 630.69 858.72 616.69 866.34   A 0.60 0.60 0.0 0 1 615.88 866.10   Q 609.45 854.51 600.02 842.03   C 588.84 827.25 575.70 815.15 560.98 804.77   Q 556.25 801.43 541.14 791.59   Q 539.86 790.75 538.63 790.14   Q 536.48 789.07 536.04 788.85   Q 533.72 787.70 532.26 786.74   Q 519.55 778.40 506.50 772.48   A 0.45 0.44 -32.6 0 1 506.69 771.63   L 535.81 771.63   A 0.56 0.56 0.0 0 0 536.37 771.07   L 536.37 758.63   A 0.52 0.52 0.0 0 0 535.85 758.11   L 513.73 758.11   A 0.68 0.68 0.0 0 1 513.05 757.43   L 513.05 739.31   A 0.58 0.58 0.0 0 1 513.63 738.73   L 535.96 738.73   A 0.42 0.41 90.0 0 0 536.37 738.31   L 536.37 726.08   A 0.51 0.51 0.0 0 0 535.86 725.57   L 513.69 725.57   A 0.64 0.64 0.0 0 1 513.05 724.93   L 513.05 712.92   A 0.49 0.49 0.0 0 1 513.54 712.43   L 535.71 712.43   A 0.66 0.65 -0.0 0 0 536.37 711.78   L 536.37 699.55   A 0.69 0.69 0.0 0 0 535.68 698.86   L 500.99 698.86   A 0.33 0.33 0.0 0 0 500.66 699.19   L 500.66 770.78   A 1.04 1.03 -71.3 0 0 501.06 771.60   Q 501.94 772.27 502.31 772.99   Q 507.22 782.40 509.75 788.86   Q 509.75 788.87 510.04 790.36   Q 510.29 791.64 510.34 791.75   Q 514.89 803.25 517.68 814.56   C 518.74 818.88 518.84 821.17 519.69 825.96   C 523.26 846.20 517.58 866.24 512.49 887.23   Q 505.83 914.69 513.20 943.89   Q 514.62 949.52 517.52 955.85   Q 521.02 963.50 523.37 967.15   Q 527.48 973.55 536.15 980.20"/>
<path stroke="#aec276" vector-effect="non-scaling-stroke" d="   M 308.45 810.60   Q 306.33 803.78 302.73 797.44"/>
<path stroke="#728640" vector-effect="non-scaling-stroke" d="   M 604.00 983.56   Q 601.11 981.73 599.74 978.59   A 3.17 3.08 -77.8 0 0 599.24 977.79   Q 593.10 970.62 589.86 962.51   Q 589.35 961.22 589.09 960.58   Q 588.39 958.85 587.98 956.57   A 4.29 4.11 84.3 0 0 587.84 955.98   Q 583.09 941.09 582.50 934.50   Q 581.17 919.84 578.83 898.40   Q 576.54 877.48 568.10 859.05"/>
<path stroke="#576b35" vector-effect="non-scaling-stroke" d="   M 568.10 859.05   Q 566.52 852.72 563.35 847.13   C 560.18 841.53 557.97 836.08 554.44 830.51   Q 548.13 820.54 544.62 815.42   Q 544.10 814.66 542.22 811.39   Q 540.28 808.03 537.21 805.58   A 7.93 7.81 -89.6 0 1 535.86 804.19   Q 527.43 792.90 517.02 783.41"/>
<path stroke="#728640" vector-effect="non-scaling-stroke" d="   M 517.02 783.41   L 503.43 771.80   A 0.06 0.06 0.0 0 0 503.34 771.81   L 503.16 772.00   A 0.27 0.27 0.0 0 0 503.17 772.37   Q 510.84 780.30 513.21 783.53   Q 521.40 794.68 523.71 798.28   Q 525.09 800.44 527.31 803.29   Q 527.39 803.40 527.39 803.70   A 0.88 0.83 -63.6 0 0 527.52 804.12   Q 533.70 814.31 534.80 815.95   Q 535.60 817.16 537.27 820.95   A 0.57 0.56 -2.3 0 0 537.61 821.26   Q 538.14 821.43 538.10 821.95   Q 538.05 822.46 538.35 823.05   Q 541.56 829.53 543.47 834.49   Q 543.48 834.50 543.49 834.51   L 543.76 834.64   A 0.51 0.49 2.5 0 1 543.98 834.87   Q 548.20 844.65 550.88 852.06   Q 554.15 861.06 554.86 864.79   Q 556.21 871.85 556.57 873.65   C 560.71 894.24 558.53 914.81 558.71 935.22   Q 558.83 949.47 563.45 965.19   Q 563.54 965.49 566.81 974.17   Q 568.56 978.83 569.45 983.71"/>
<path stroke="#879e4a" vector-effect="non-scaling-stroke" d="   M 517.02 783.41   Q 519.66 787.31 523.29 790.42   A 5.25 5.13 -89.3 0 1 524.08 791.25   Q 526.99 795.04 531.50 800.06   Q 535.29 804.27 538.87 809.04   Q 545.59 817.97 546.04 818.67   C 552.01 827.80 558.47 838.50 563.39 849.27   Q 565.63 854.18 568.10 859.05"/>
<path stroke="#dde6cb" vector-effect="non-scaling-stroke" d="   M 755.5790 516.9098   A 53.95 52.30 -92.2 0 0 705.3885 572.8277   A 53.95 52.30 -92.2 0 0 759.7210 624.7302   A 53.95 52.30 -92.2 0 0 809.9115 568.8123   A 53.95 52.30 -92.2 0 0 755.5790 516.9098"/>
<path stroke="#728640" vector-effect="non-scaling-stroke" d="   M 368.28 726.04   A 0.46 0.46 0.0 0 0 367.82 725.58   L 348.64 725.58   A 0.46 0.46 0.0 0 1 348.18 725.12   L 348.18 712.86   A 0.46 0.46 0.0 0 1 348.64 712.40   L 367.81 712.40   A 0.46 0.46 0.0 0 0 368.27 711.94   L 368.27 699.31   A 0.46 0.46 0.0 0 0 367.81 698.85   L 336.27 698.85   A 0.46 0.46 0.0 0 0 335.81 699.31   L 335.81 771.15   A 0.46 0.46 0.0 0 0 336.27 771.61   L 347.71 771.61   A 0.46 0.46 0.0 0 0 348.17 771.15   L 348.17 739.23   A 0.46 0.46 0.0 0 1 348.63 738.77   L 367.82 738.77   A 0.46 0.46 0.0 0 0 368.28 738.31   L 368.28 726.04"/>
<path stroke="#728640" vector-effect="non-scaling-stroke" d="   M 408.28 740.98   Q 409.95 743.91 410.12 745.59   A 2.69 2.65 29.0 0 0 410.40 746.54   L 422.94 771.24   A 0.78 0.78 0.0 0 0 423.63 771.66   L 435.73 771.66   A 0.39 0.38 -17.1 0 0 436.05 771.06   Q 432.22 765.39 430.77 759.81   A 0.67 0.65 25.7 0 0 430.70 759.62   L 420.92 740.54   A 1.49 1.49 0.0 0 1 421.45 738.60   C 423.59 737.27 427.18 735.47 428.63 733.92   Q 433.47 728.71 433.56 721.77   C 433.72 710.34 428.80 700.33 415.89 699.38   Q 406.41 698.67 394.85 698.91   A 0.35 0.35 0.0 0 0 394.51 699.26   L 394.51 771.17   A 0.44 0.44 0.0 0 0 394.95 771.61   L 406.65 771.61   A 0.32 0.31 -90.0 0 0 406.96 771.29   L 406.96 741.33   A 0.71 0.71 0.0 0 1 408.28 740.98"/>
<path stroke="#728640" vector-effect="non-scaling-stroke" d="   M 472.31 699.27   A 0.40 0.40 0.0 0 0 471.91 698.87   L 460.33 698.87   A 0.40 0.40 0.0 0 0 459.93 699.27   L 459.93 771.19   A 0.40 0.40 0.0 0 0 460.33 771.59   L 471.91 771.59   A 0.40 0.40 0.0 0 0 472.31 771.19   L 472.31 699.27"/>
<path stroke="#728640" vector-effect="non-scaling-stroke" d="   M 601.74 746.14   L 574.83 699.53   A 1.32 1.31 75.0 0 0 573.69 698.87   L 562.77 698.87   A 0.41 0.41 0.0 0 0 562.36 699.28   L 562.36 770.99   A 0.62 0.62 0.0 0 0 562.98 771.61   L 574.23 771.61   A 0.59 0.58 0.0 0 0 574.82 771.03   L 574.82 724.88   A 0.33 0.33 0.0 0 1 575.41 724.68   Q 576.30 725.79 576.83 727.92   A 2.65 2.56 24.0 0 0 577.12 728.64   Q 581.59 736.38 584.64 740.83   C 588.18 746.00 591.05 751.70 593.90 756.33   C 594.44 757.20 594.49 758.32 595.42 758.80   A 0.41 0.38 85.9 0 1 595.58 758.95   L 602.67 771.22   A 0.85 0.83 -14.7 0 0 603.40 771.64   L 614.23 771.64   A 0.46 0.46 0.0 0 0 614.69 771.18   L 614.69 699.32   A 0.46 0.46 0.0 0 0 614.23 698.86   L 602.78 698.86   A 0.46 0.46 0.0 0 0 602.32 699.32   L 602.32 745.99   A 0.31 0.31 0.0 0 1 601.74 746.14"/>
<path stroke="#728640" vector-effect="non-scaling-stroke" d="   M 677.92 769.29   Q 678.11 768.75 678.62 768.86   Q 678.84 768.91 679.72 768.48   Q 683.18 766.75 686.59 762.82   Q 692.24 756.31 694.05 750.15   C 697.90 737.06 696.53 721.94 688.34 710.79   C 683.48 704.17 678.40 700.68 670.00 699.76   Q 658.60 698.51 644.34 698.95   A 0.28 0.27 90.0 0 0 644.07 699.23   L 644.07 771.28   A 0.28 0.28 0.0 0 0 644.35 771.56   Q 658.00 771.92 670.23 771.21   Q 673.16 771.04 677.59 769.60   A 0.51 0.50 -87.3 0 0 677.92 769.29"/>
<path stroke="#728640" vector-effect="non-scaling-stroke" d="   M 722.15 771.13   A 0.47 0.47 0.0 0 0 722.62 771.60   L 752.23 771.60   A 0.47 0.47 0.0 0 0 752.70 771.13   L 752.70 758.93   A 0.47 0.47 0.0 0 0 752.23 758.46   L 734.99 758.46   A 0.47 0.47 0.0 0 1 734.52 757.99   L 734.52 699.30   A 0.47 0.47 0.0 0 0 734.05 698.83   L 722.62 698.83   A 0.47 0.47 0.0 0 0 722.15 699.30   L 722.15 771.13"/>
<path stroke="#879e4a" vector-effect="non-scaling-stroke" d="   M 788.57 734.69   L 790.59 740.63   A 1.51 1.40 -56.7 0 1 790.67 741.11   L 790.80 771.53"/>
<path stroke="#728640" vector-effect="non-scaling-stroke" d="   M 790.80 771.53   L 803.10 771.56   A 0.56 0.56 0.0 0 0 803.66 771.00   L 803.66 739.81   A 3.92 3.86 -33.2 0 1 804.01 738.20   Q 808.98 727.36 813.57 719.18   Q 815.68 715.40 818.06 709.31   Q 819.75 704.99 822.54 699.44   A 0.40 0.39 -76.8 0 0 822.19 698.87   L 811.48 698.87   A 1.91 1.89 13.0 0 0 809.77 699.93   L 797.80 724.00   A 0.51 0.51 0.0 0 1 796.90 724.01   L 791.18 713.14   A 0.61 0.60 -57.4 0 1 791.11 712.82   Q 791.12 711.28 790.49 709.98   Q 786.26 701.33 785.28 699.33   A 0.83 0.82 76.6 0 0 784.54 698.87   L 772.67 698.87   A 0.58 0.58 0.0 0 0 772.15 699.71   Q 775.47 706.29 776.48 709.16   Q 778.09 713.70 780.56 718.70   Q 784.53 726.73 788.57 734.69"/>
<path stroke="#576b35" vector-effect="non-scaling-stroke" d="   M 790.80 771.53   Q 791.58 770.03 791.56 768.00   Q 791.49 761.06 791.60 740.63   Q 791.61 738.75 788.57 734.69"/>
<path stroke="#728640" vector-effect="non-scaling-stroke" d="   M 406.94 712.81   L 406.96 726.73   A 0.30 0.30 0.0 0 0 407.26 727.03   L 413.28 727.02   A 7.64 6.35 -0.1 0 0 420.91 720.66   L 420.91 718.84   A 7.64 6.35 -0.1 0 0 413.26 712.50   L 407.24 712.51   A 0.30 0.30 0.0 0 0 406.94 712.81"/>
<path stroke="#728640" vector-effect="non-scaling-stroke" d="   M 670.36 713.39   Q 664.71 712.06 656.94 712.37   A 0.55 0.54 88.9 0 0 656.42 712.92   L 656.42 757.73   A 0.37 0.37 0.0 0 0 656.78 758.10   Q 663.72 758.31 668.37 757.79   Q 671.94 757.39 673.74 756.32   Q 674.99 755.57 680.05 750.42   A 2.79 2.71 -12.2 0 0 680.61 749.58   Q 687.75 733.15 678.15 718.32   A 3.43 3.29 -88.9 0 0 677.43 717.54   Q 672.81 713.97 670.36 713.39"/>
</g>

<path fill="#e739f7" d="   M 970.07 557.55   L 959.30 557.32   A 0.79 0.77 -10.1 0 1 958.59 556.84   Q 943.00 518.89 946.85 478.02   Q 948.24 463.32 949.78 456.26   Q 953.80 437.90 959.76 409.75   Q 963.99 389.81 965.82 370.57   Q 967.49 353.05 965.89 330.95   Q 962.34 281.99 946.61 234.36   Q 943.37 224.53 937.27 209.99   A 1.85 1.80 -54.0 0 1 937.14 209.09   Q 937.19 208.65 937.13 208.52   Q 928.41 189.41 924.07 180.86   Q 916.83 166.59 904.25 147.87   A 0.56 0.56 0.0 0 0 903.51 147.70   L 903.48 147.71   A 0.55 0.55 0.0 0 0 903.27 148.42   Q 916.31 174.48 924.31 202.59   Q 932.50 231.36 936.53 260.11   C 937.34 265.84 937.58 271.44 938.24 275.98   Q 938.97 281.01 939.26 287.92   Q 940.18 309.57 939.33 328.27   C 938.43 348.30 935.39 366.85 929.90 384.63   Q 922.86 407.39 912.65 437.19   Q 901.77 468.93 900.13 502.51   Q 899.15 522.59 902.63 541.91   L 905.20 555.24   A 0.50 0.49 5.3 0 1 904.53 555.79   Q 883.53 547.37 865.57 532.43   Q 853.48 522.39 844.01 507.49   C 832.47 489.32 827.30 466.99 827.97 445.76   Q 829.00 413.14 839.48 380.80   Q 841.35 375.06 843.74 369.78   Q 846.61 363.47 850.45 355.88   A 1.64 1.60 -32.8 0 0 850.63 355.10   Q 850.63 354.95 850.62 354.85   A 0.61 0.60 -30.5 0 1 850.70 354.55   L 863.47 333.48   A 1.01 0.99 63.0 0 0 863.60 333.07   Q 863.61 332.83 863.62 332.66   A 0.52 0.52 0.0 0 1 863.70 332.42   Q 870.34 322.42 876.46 311.95   Q 876.56 311.78 876.58 311.48   Q 876.59 311.11 876.66 311.00   Q 884.12 298.30 889.92 286.13   A 2.40 2.09 -32.9 0 0 890.14 285.37   Q 890.24 284.52 890.66 283.58   C 906.42 248.31 906.39 207.92 903.53 170.31   Q 902.52 156.92 899.85 143.15   A 0.59 0.59 0.0 0 1 900.82 142.60   Q 925.50 164.69 947.77 189.97   Q 956.28 199.63 960.99 205.08   A 1.35 1.23 15.6 0 1 961.21 205.43   Q 961.52 206.12 962.48 207.26   Q 984.81 233.85 1002.05 261.52   Q 1006.33 268.40 1010.21 275.97   C 1014.17 283.70 1017.98 290.24 1020.63 297.51   Q 1022.38 302.31 1026.36 312.37   Q 1029.21 319.56 1031.59 327.38   Q 1037.45 346.56 1041.04 364.15   A 0.61 0.60 81.8 0 0 1041.67 364.63   Q 1044.94 364.39 1047.78 363.66   Q 1061.05 360.23 1064.61 358.59   Q 1075.93 353.38 1080.16 351.53   Q 1085.25 349.30 1088.41 347.27   Q 1090.92 345.66 1097.13 341.54   A 1.02 0.98 26.5 0 1 1097.64 341.38   Q 1098.05 341.37 1098.26 341.23   Q 1106.13 335.95 1111.46 331.60   Q 1115.86 328.00 1119.37 325.28   Q 1122.79 322.64 1128.10 317.59   Q 1128.14 317.55 1129.91 316.08   Q 1134.78 312.03 1138.25 308.30   Q 1141.21 305.12 1143.18 303.37   Q 1145.94 300.91 1148.02 298.36   A 0.55 0.55 0.0 0 1 1148.99 298.75   Q 1143.82 363.78 1122.21 424.20   Q 1115.81 442.08 1102.14 463.93   C 1085.61 490.35 1065.38 514.16 1039.92 533.19   Q 1009.51 555.92 972.00 557.31   Q 970.92 557.35 970.07 557.55   Z"/>
<path fill="#6c833f" d="   M 970.07 557.55   C 992.09 626.87 994.77 701.85 977.29 772.47   Q 953.27 869.49 887.24 943.72   Q 846.02 990.06 793.23 1021.69   Q 768.92 1036.26 738.43 1048.88   C 691.80 1068.18 640.62 1077.88 589.05 1077.97   Q 481.85 1078.16 387.81 1023.95   Q 340.99 996.96 301.69 956.58   Q 239.99 893.17 210.68 809.35   C 179.16 719.24 180.89 621.53 215.61 532.80   Q 219.18 523.70 223.04 514.23   C 224.66 510.24 227.09 506.04 228.92 501.85   Q 234.16 493.29 238.35 484.35   Q 238.45 484.13 238.33 483.98   Q 239.29 483.04 238.70 483.02   Q 245.66 473.39 250.97 462.81   Q 251.15 462.85 251.00 462.41   Q 251.39 462.42 251.76 461.92   Q 258.02 453.42 262.55 445.34   L 275.15 428.75   A 1.46 0.66 -24.4 0 1 275.29 428.59   Q 277.02 426.97 278.44 425.01   Q 279.86 423.06 281.53 421.19   Q 281.64 421.07 284.72 417.45   Q 310.48 387.19 340.62 363.62   C 353.10 353.86 368.60 342.81 382.83 334.41   Q 424.35 309.89 468.23 295.96   C 537.10 274.09 610.67 271.96 681.72 288.29   Q 690.51 290.31 699.55 293.23   C 711.83 297.18 719.52 309.86 718.73 322.65   Q 718.09 332.96 710.32 340.85   Q 701.45 349.88 687.85 349.43   C 682.91 349.26 676.89 346.91 671.28 345.52   Q 641.94 338.30 610.01 336.31   Q 530.93 331.39 456.79 361.75   Q 447.91 365.38 431.61 373.62   Q 431.50 373.68 431.32 373.62   Q 431.13 373.55 431.05 373.61   Q 430.94 373.69 424.52 377.05   Q 420.68 379.06 418.11 380.69   Q 409.99 385.85 405.15 388.77   Q 399.61 392.10 394.43 395.92   Q 389.91 399.25 384.01 403.53   Q 369.01 414.40 354.37 428.29   Q 276.69 502.03 253.72 606.96   Q 247.81 633.97 246.58 662.74   Q 243.74 729.62 266.35 792.41   C 267.80 796.44 269.33 801.65 271.29 806.28   Q 274.96 814.95 280.33 825.63   Q 280.71 826.40 280.88 827.65   A 2.56 2.49 -63.7 0 0 281.17 828.55   Q 292.33 849.19 295.94 855.07   Q 341.36 928.96 415.83 973.16   Q 429.89 981.50 449.92 990.55   C 507.58 1016.59 571.56 1025.09 634.56 1016.89   C 710.10 1007.05 782.45 970.01 834.96 914.96   Q 848.51 900.74 861.21 884.47   Q 864.26 880.57 865.66 878.36   Q 868.77 873.44 869.81 872.03   Q 875.49 864.34 876.71 862.23   Q 879.41 857.55 885.56 847.51   Q 889.29 841.41 891.64 836.21   C 893.82 831.37 896.80 826.54 899.29 820.88   Q 914.78 785.69 921.84 754.82   Q 939.31 678.44 922.37 602.83   Q 915.59 572.59 902.63 541.91   Q 899.15 522.59 900.13 502.51   Q 901.77 468.93 912.65 437.19   Q 922.86 407.39 929.90 384.63   C 935.39 366.85 938.43 348.30 939.33 328.27   Q 940.18 309.57 939.26 287.92   Q 938.97 281.01 938.24 275.98   C 937.58 271.44 937.34 265.84 936.53 260.11   Q 932.50 231.36 924.31 202.59   Q 916.31 174.48 903.27 148.42   A 0.55 0.55 0.0 0 1 903.48 147.71   L 903.51 147.70   A 0.56 0.56 0.0 0 1 904.25 147.87   Q 916.83 166.59 924.07 180.86   Q 928.41 189.41 937.13 208.52   Q 937.19 208.65 937.14 209.09   A 1.85 1.80 -54.0 0 0 937.27 209.99   Q 943.37 224.53 946.61 234.36   Q 962.34 281.99 965.89 330.95   Q 967.49 353.05 965.82 370.57   Q 963.99 389.81 959.76 409.75   Q 953.80 437.90 949.78 456.26   Q 948.24 463.32 946.85 478.02   Q 943.00 518.89 958.59 556.84   A 0.79 0.77 -10.1 0 0 959.30 557.32   L 970.07 557.55   Z"/>
<path fill="#bacc96" d="   M 262.55 445.34   Q 258.02 453.42 251.76 461.92   Q 251.39 462.42 251.00 462.41   Q 250.95 461.99 251.44 461.20   Q 256.92 452.28 262.55 445.34   Z"/>
<path fill="#bacc96" d="   M 250.97 462.81   Q 245.66 473.39 238.70 483.02   Q 243.87 472.30 250.97 462.81   Z"/>
<path fill="#bacc96" d="   M 238.33 483.98   Q 238.45 484.13 238.35 484.35   Q 234.16 493.29 228.92 501.85   Q 232.81 492.87 237.67 484.46   Q 237.97 483.95 238.33 483.98   Z"/>
<path fill="#bacc96" d="   M 487.29 517.73   C 504.23 498.80 526.87 488.04 552.19 487.67   C 578.73 487.28 604.62 498.65 622.03 518.93   A 0.58 0.58 0.0 0 1 621.99 519.72   L 602.02 538.84   A 0.88 0.88 0.0 0 1 600.77 538.81   C 584.97 522.08 564.56 513.66 541.53 517.88   Q 530.52 519.89 520.95 526.99   Q 502.62 540.58 499.74 563.20   C 495.62 595.59 516.86 622.49 549.50 624.59   Q 566.37 625.67 580.54 618.44   C 587.51 614.88 595.04 608.36 600.92 602.60   A 0.67 0.66 45.9 0 1 601.87 602.62   L 621.32 622.92   A 0.73 0.73 0.0 0 1 621.29 623.95   C 606.43 637.87 591.94 648.53 571.77 652.04   C 539.71 657.63 508.07 649.73 487.06 623.95   C 473.84 607.72 468.82 588.37 469.20 567.51   C 469.51 550.65 475.17 533.26 485.99 519.79   Q 486.60 519.02 486.99 518.18   A 1.99 1.79 81.7 0 1 487.29 517.73   Z"/>
<path fill="#bacc96" d="   M 839.53 562.29   C 841.53 581.58 837.16 600.15 826.86 616.13   C 809.51 643.04 780.53 656.48 748.75 653.35   Q 726.42 651.16 708.66 637.55   C 689.90 623.18 678.34 602.79 675.90 579.29   C 673.46 555.79 680.58 533.46 695.98 515.54   Q 710.56 498.57 731.96 491.83   C 762.42 482.23 793.55 489.43 816.06 512.20   C 829.43 525.72 837.52 542.99 839.53 562.29   Z   M 755.5790 516.9098   A 53.95 52.30 -92.2 0 0 705.3885 572.8277   A 53.95 52.30 -92.2 0 0 759.7210 624.7302   A 53.95 52.30 -92.2 0 0 809.9115 568.8123   A 53.95 52.30 -92.2 0 0 755.5790 516.9098   Z"/>
<path fill="#bacc96" d="   M 358.73 549.67   L 413.73 549.67   A 0.68 0.68 0.0 0 1 414.41 550.35   L 414.41 577.88   A 0.68 0.68 0.0 0 1 413.73 578.56   L 358.72 578.56   A 0.68 0.68 0.0 0 0 358.04 579.24   L 358.04 619.50   A 0.68 0.68 0.0 0 0 358.72 620.18   L 413.75 620.18   A 0.68 0.68 0.0 0 1 414.43 620.86   L 414.43 649.08   A 0.68 0.68 0.0 0 1 413.75 649.76   L 328.85 649.76   A 0.68 0.68 0.0 0 1 328.17 649.08   L 328.17 492.25   A 0.68 0.68 0.0 0 1 328.85 491.57   L 413.76 491.57   A 0.68 0.68 0.0 0 1 414.44 492.25   L 414.44 520.26   A 0.68 0.68 0.0 0 1 413.76 520.94   L 358.73 520.94   A 0.68 0.68 0.0 0 0 358.05 521.62   L 358.05 548.99   A 0.68 0.68 0.0 0 0 358.73 549.67   Z"/>

<path fill="#a2b855" d="   M 612.26 982.89   L 628.66 974.94   A 1.77 1.74 9.9 0 0 629.11 974.63   Q 634.31 969.72 640.33 963.50   Q 642.45 961.31 643.46 959.84   C 645.99 956.13 648.40 953.66 650.18 949.81   C 651.67 946.58 654.56 942.05 656.55 937.73   C 667.00 915.02 671.49 892.16 670.48 866.17   Q 669.40 838.65 663.07 811.95   A 0.19 0.19 0.0 0 0 662.71 811.91   Q 658.41 820.63 652.45 830.48   Q 649.63 835.15 647.00 838.57   Q 641.65 845.53 641.03 846.28   Q 630.69 858.72 616.69 866.34   A 0.60 0.60 0.0 0 1 615.88 866.10   Q 609.45 854.51 600.02 842.03   C 588.84 827.25 575.70 815.15 560.98 804.77   Q 556.25 801.43 541.14 791.59   Q 539.86 790.75 538.63 790.14   Q 536.48 789.07 536.04 788.85   Q 533.72 787.70 532.26 786.74   Q 519.55 778.40 506.50 772.48   A 0.45 0.44 -32.6 0 1 506.69 771.63   L 535.81 771.63   A 0.56 0.56 0.0 0 0 536.37 771.07   L 536.37 758.63   A 0.52 0.52 0.0 0 0 535.85 758.11   L 513.73 758.11   A 0.68 0.68 0.0 0 1 513.05 757.43   L 513.05 739.31   A 0.58 0.58 0.0 0 1 513.63 738.73   L 535.96 738.73   A 0.42 0.41 90.0 0 0 536.37 738.31   L 536.37 726.08   A 0.51 0.51 0.0 0 0 535.86 725.57   L 513.69 725.57   A 0.64 0.64 0.0 0 1 513.05 724.93   L 513.05 712.92   A 0.49 0.49 0.0 0 1 513.54 712.43   L 535.71 712.43   A 0.66 0.65 -0.0 0 0 536.37 711.78   L 536.37 699.55   A 0.69 0.69 0.0 0 0 535.68 698.86   L 500.99 698.86   A 0.33 0.33 0.0 0 0 500.66 699.19   L 500.66 770.78   A 1.04 1.03 -71.3 0 0 501.06 771.60   Q 501.94 772.27 502.31 772.99   Q 507.22 782.40 509.75 788.86   Q 509.75 788.87 510.04 790.36   Q 510.29 791.64 510.34 791.75   Q 514.89 803.25 517.68 814.56   C 518.74 818.88 518.84 821.17 519.69 825.96   C 523.26 846.20 517.58 866.24 512.49 887.23   Q 505.83 914.69 513.20 943.89   Q 514.62 949.52 517.52 955.85   Q 521.02 963.50 523.37 967.15   Q 527.48 973.55 536.15 980.20   Q 519.50 977.54 506.78 974.22   Q 493.58 970.78 477.09 964.37   Q 476.37 964.10 475.82 964.09   Q 475.16 964.07 474.71 963.52   A 1.12 1.11 66.1 0 0 473.69 963.12   Q 473.61 963.13 473.40 963.18   A 1.97 1.95 50.6 0 1 472.14 963.05   L 454.29 954.87   A 1.04 0.75 54.2 0 0 454.11 954.81   Q 452.74 954.56 451.16 953.77   Q 376.94 917.05 330.22 848.66   A 0.82 0.69 26.2 0 1 330.08 848.34   Q 329.89 847.43 328.58 845.81   Q 327.83 844.88 321.43 834.71   A 0.70 0.35 90.0 0 1 321.36 834.57   L 319.88 831.05   A 2.24 2.18 11.3 0 0 319.35 830.28   Q 318.24 829.26 317.94 828.37   Q 317.56 827.22 316.93 826.16   Q 312.30 818.40 308.45 810.60   Q 306.33 803.78 302.73 797.44   Q 298.42 787.78 294.83 777.69   C 294.23 775.98 294.01 773.72 293.38 771.84   Q 277.90 726.23 278.30 677.87   A 0.31 0.30 -89.0 0 1 278.60 677.57   L 889.76 677.57   A 0.88 0.88 0.0 0 1 890.64 678.45   Q 890.84 724.49 877.03 767.58   Q 876.44 769.42 876.40 770.53   A 1.87 1.55 -39.7 0 1 876.31 771.01   Q 872.36 782.59 869.00 790.93   C 867.95 793.54 867.14 796.71 866.11 798.93   Q 859.84 812.51 853.88 823.07   A 1.34 0.08 -74.2 0 0 853.55 824.01   Q 853.39 824.51 852.98 825.27   Q 831.85 863.85 800.18 895.18   Q 742.93 951.81 665.93 973.16   Q 640.73 980.16 612.26 982.89   Z   M 368.28 726.04   A 0.46 0.46 0.0 0 0 367.82 725.58   L 348.64 725.58   A 0.46 0.46 0.0 0 1 348.18 725.12   L 348.18 712.86   A 0.46 0.46 0.0 0 1 348.64 712.40   L 367.81 712.40   A 0.46 0.46 0.0 0 0 368.27 711.94   L 368.27 699.31   A 0.46 0.46 0.0 0 0 367.81 698.85   L 336.27 698.85   A 0.46 0.46 0.0 0 0 335.81 699.31   L 335.81 771.15   A 0.46 0.46 0.0 0 0 336.27 771.61   L 347.71 771.61   A 0.46 0.46 0.0 0 0 348.17 771.15   L 348.17 739.23   A 0.46 0.46 0.0 0 1 348.63 738.77   L 367.82 738.77   A 0.46 0.46 0.0 0 0 368.28 738.31   L 368.28 726.04   Z   M 408.28 740.98   Q 409.95 743.91 410.12 745.59   A 2.69 2.65 29.0 0 0 410.40 746.54   L 422.94 771.24   A 0.78 0.78 0.0 0 0 423.63 771.66   L 435.73 771.66   A 0.39 0.38 -17.1 0 0 436.05 771.06   Q 432.22 765.39 430.77 759.81   A 0.67 0.65 25.7 0 0 430.70 759.62   L 420.92 740.54   A 1.49 1.49 0.0 0 1 421.45 738.60   C 423.59 737.27 427.18 735.47 428.63 733.92   Q 433.47 728.71 433.56 721.77   C 433.72 710.34 428.80 700.33 415.89 699.38   Q 406.41 698.67 394.85 698.91   A 0.35 0.35 0.0 0 0 394.51 699.26   L 394.51 771.17   A 0.44 0.44 0.0 0 0 394.95 771.61   L 406.65 771.61   A 0.32 0.31 -90.0 0 0 406.96 771.29   L 406.96 741.33   A 0.71 0.71 0.0 0 1 408.28 740.98   Z   M 472.31 699.27   A 0.40 0.40 0.0 0 0 471.91 698.87   L 460.33 698.87   A 0.40 0.40 0.0 0 0 459.93 699.27   L 459.93 771.19   A 0.40 0.40 0.0 0 0 460.33 771.59   L 471.91 771.59   A 0.40 0.40 0.0 0 0 472.31 771.19   L 472.31 699.27   Z   M 601.74 746.14   L 574.83 699.53   A 1.32 1.31 75.0 0 0 573.69 698.87   L 562.77 698.87   A 0.41 0.41 0.0 0 0 562.36 699.28   L 562.36 770.99   A 0.62 0.62 0.0 0 0 562.98 771.61   L 574.23 771.61   A 0.59 0.58 0.0 0 0 574.82 771.03   L 574.82 724.88   A 0.33 0.33 0.0 0 1 575.41 724.68   Q 576.30 725.79 576.83 727.92   A 2.65 2.56 24.0 0 0 577.12 728.64   Q 581.59 736.38 584.64 740.83   C 588.18 746.00 591.05 751.70 593.90 756.33   C 594.44 757.20 594.49 758.32 595.42 758.80   A 0.41 0.38 85.9 0 1 595.58 758.95   L 602.67 771.22   A 0.85 0.83 -14.7 0 0 603.40 771.64   L 614.23 771.64   A 0.46 0.46 0.0 0 0 614.69 771.18   L 614.69 699.32   A 0.46 0.46 0.0 0 0 614.23 698.86   L 602.78 698.86   A 0.46 0.46 0.0 0 0 602.32 699.32   L 602.32 745.99   A 0.31 0.31 0.0 0 1 601.74 746.14   Z   M 677.92 769.29   Q 678.11 768.75 678.62 768.86   Q 678.84 768.91 679.72 768.48   Q 683.18 766.75 686.59 762.82   Q 692.24 756.31 694.05 750.15   C 697.90 737.06 696.53 721.94 688.34 710.79   C 683.48 704.17 678.40 700.68 670.00 699.76   Q 658.60 698.51 644.34 698.95   A 0.28 0.27 90.0 0 0 644.07 699.23   L 644.07 771.28   A 0.28 0.28 0.0 0 0 644.35 771.56   Q 658.00 771.92 670.23 771.21   Q 673.16 771.04 677.59 769.60   A 0.51 0.50 -87.3 0 0 677.92 769.29   Z   M 722.15 771.13   A 0.47 0.47 0.0 0 0 722.62 771.60   L 752.23 771.60   A 0.47 0.47 0.0 0 0 752.70 771.13   L 752.70 758.93   A 0.47 0.47 0.0 0 0 752.23 758.46   L 734.99 758.46   A 0.47 0.47 0.0 0 1 734.52 757.99   L 734.52 699.30   A 0.47 0.47 0.0 0 0 734.05 698.83   L 722.62 698.83   A 0.47 0.47 0.0 0 0 722.15 699.30   L 722.15 771.13   Z   M 788.57 734.69   L 790.59 740.63   A 1.51 1.40 -56.7 0 1 790.67 741.11   L 790.80 771.53   L 803.10 771.56   A 0.56 0.56 0.0 0 0 803.66 771.00   L 803.66 739.81   A 3.92 3.86 -33.2 0 1 804.01 738.20   Q 808.98 727.36 813.57 719.18   Q 815.68 715.40 818.06 709.31   Q 819.75 704.99 822.54 699.44   A 0.40 0.39 -76.8 0 0 822.19 698.87   L 811.48 698.87   A 1.91 1.89 13.0 0 0 809.77 699.93   L 797.80 724.00   A 0.51 0.51 0.0 0 1 796.90 724.01   L 791.18 713.14   A 0.61 0.60 -57.4 0 1 791.11 712.82   Q 791.12 711.28 790.49 709.98   Q 786.26 701.33 785.28 699.33   A 0.83 0.82 76.6 0 0 784.54 698.87   L 772.67 698.87   A 0.58 0.58 0.0 0 0 772.15 699.71   Q 775.47 706.29 776.48 709.16   Q 778.09 713.70 780.56 718.70   Q 784.53 726.73 788.57 734.69   Z"/>
<path fill="#41532a" d="   M 368.28 726.04   L 368.28 738.31   A 0.46 0.46 0.0 0 1 367.82 738.77   L 348.63 738.77   A 0.46 0.46 0.0 0 0 348.17 739.23   L 348.17 771.15   A 0.46 0.46 0.0 0 1 347.71 771.61   L 336.27 771.61   A 0.46 0.46 0.0 0 1 335.81 771.15   L 335.81 699.31   A 0.46 0.46 0.0 0 1 336.27 698.85   L 367.81 698.85   A 0.46 0.46 0.0 0 1 368.27 699.31   L 368.27 711.94   A 0.46 0.46 0.0 0 1 367.81 712.40   L 348.64 712.40   A 0.46 0.46 0.0 0 0 348.18 712.86   L 348.18 725.12   A 0.46 0.46 0.0 0 0 348.64 725.58   L 367.82 725.58   A 0.46 0.46 0.0 0 1 368.28 726.04   Z"/>
<path fill="#41532a" d="   M 408.28 740.98   A 0.71 0.71 0.0 0 0 406.96 741.33   L 406.96 771.29   A 0.32 0.31 90.0 0 1 406.65 771.61   L 394.95 771.61   A 0.44 0.44 0.0 0 1 394.51 771.17   L 394.51 699.26   A 0.35 0.35 0.0 0 1 394.85 698.91   Q 406.41 698.67 415.89 699.38   C 428.80 700.33 433.72 710.34 433.56 721.77   Q 433.47 728.71 428.63 733.92   C 427.18 735.47 423.59 737.27 421.45 738.60   A 1.49 1.49 0.0 0 0 420.92 740.54   L 430.70 759.62   A 0.67 0.65 25.7 0 1 430.77 759.81   Q 432.22 765.39 436.05 771.06   A 0.39 0.38 -17.1 0 1 435.73 771.66   L 423.63 771.66   A 0.78 0.78 0.0 0 1 422.94 771.24   L 410.40 746.54   A 2.69 2.65 29.0 0 1 410.12 745.59   Q 409.95 743.91 408.28 740.98   Z   M 406.94 712.81   L 406.96 726.73   A 0.30 0.30 0.0 0 0 407.26 727.03   L 413.28 727.02   A 7.64 6.35 -0.1 0 0 420.91 720.66   L 420.91 718.84   A 7.64 6.35 -0.1 0 0 413.26 712.50   L 407.24 712.51   A 0.30 0.30 0.0 0 0 406.94 712.81   Z"/>
<rect fill="#41532a" x="459.93" y="698.87" width="12.38" height="72.72" rx="0.40"/>
<path fill="#41532a" d="   M 612.26 982.89   L 604.00 983.56   Q 601.11 981.73 599.74 978.59   A 3.17 3.08 -77.8 0 0 599.24 977.79   Q 593.10 970.62 589.86 962.51   Q 589.35 961.22 589.09 960.58   Q 588.39 958.85 587.98 956.57   A 4.29 4.11 84.3 0 0 587.84 955.98   Q 583.09 941.09 582.50 934.50   Q 581.17 919.84 578.83 898.40   Q 576.54 877.48 568.10 859.05   Q 566.52 852.72 563.35 847.13   C 560.18 841.53 557.97 836.08 554.44 830.51   Q 548.13 820.54 544.62 815.42   Q 544.10 814.66 542.22 811.39   Q 540.28 808.03 537.21 805.58   A 7.93 7.81 -89.6 0 1 535.86 804.19   Q 527.43 792.90 517.02 783.41   L 503.43 771.80   A 0.06 0.06 0.0 0 0 503.34 771.81   L 503.16 772.00   A 0.27 0.27 0.0 0 0 503.17 772.37   Q 510.84 780.30 513.21 783.53   Q 521.40 794.68 523.71 798.28   Q 525.09 800.44 527.31 803.29   Q 527.39 803.40 527.39 803.70   A 0.88 0.83 -63.6 0 0 527.52 804.12   Q 533.70 814.31 534.80 815.95   Q 535.60 817.16 537.27 820.95   A 0.57 0.56 -2.3 0 0 537.61 821.26   Q 538.14 821.43 538.10 821.95   Q 538.05 822.46 538.35 823.05   Q 541.56 829.53 543.47 834.49   Q 543.48 834.50 543.49 834.51   L 543.76 834.64   A 0.51 0.49 2.5 0 1 543.98 834.87   Q 548.20 844.65 550.88 852.06   Q 554.15 861.06 554.86 864.79   Q 556.21 871.85 556.57 873.65   C 560.71 894.24 558.53 914.81 558.71 935.22   Q 558.83 949.47 563.45 965.19   Q 563.54 965.49 566.81 974.17   Q 568.56 978.83 569.45 983.71   Q 551.82 982.66 536.15 980.20   Q 527.48 973.55 523.37 967.15   Q 521.02 963.50 517.52 955.85   Q 514.62 949.52 513.20 943.89   Q 505.83 914.69 512.49 887.23   C 517.58 866.24 523.26 846.20 519.69 825.96   C 518.84 821.17 518.74 818.88 517.68 814.56   Q 514.89 803.25 510.34 791.75   Q 510.29 791.64 510.04 790.36   Q 509.75 788.87 509.75 788.86   Q 507.22 782.40 502.31 772.99   Q 501.94 772.27 501.06 771.60   A 1.04 1.03 -71.3 0 1 500.66 770.78   L 500.66 699.19   A 0.33 0.33 0.0 0 1 500.99 698.86   L 535.68 698.86   A 0.69 0.69 0.0 0 1 536.37 699.55   L 536.37 711.78   A 0.66 0.65 0.0 0 1 535.71 712.43   L 513.54 712.43   A 0.49 0.49 0.0 0 0 513.05 712.92   L 513.05 724.93   A 0.64 0.64 0.0 0 0 513.69 725.57   L 535.86 725.57   A 0.51 0.51 0.0 0 1 536.37 726.08   L 536.37 738.31   A 0.42 0.41 90.0 0 1 535.96 738.73   L 513.63 738.73   A 0.58 0.58 0.0 0 0 513.05 739.31   L 513.05 757.43   A 0.68 0.68 0.0 0 0 513.73 758.11   L 535.85 758.11   A 0.52 0.52 0.0 0 1 536.37 758.63   L 536.37 771.07   A 0.56 0.56 0.0 0 1 535.81 771.63   L 506.69 771.63   A 0.45 0.44 -32.6 0 0 506.50 772.48   Q 519.55 778.40 532.26 786.74   Q 533.72 787.70 536.04 788.85   Q 536.48 789.07 538.63 790.14   Q 539.86 790.75 541.14 791.59   Q 556.25 801.43 560.98 804.77   C 575.70 815.15 588.84 827.25 600.02 842.03   Q 609.45 854.51 615.88 866.10   A 0.60 0.60 0.0 0 0 616.69 866.34   Q 630.69 858.72 641.03 846.28   Q 641.65 845.53 647.00 838.57   Q 649.63 835.15 652.45 830.48   Q 658.41 820.63 662.71 811.91   A 0.19 0.19 0.0 0 1 663.07 811.95   Q 669.40 838.65 670.48 866.17   C 671.49 892.16 667.00 915.02 656.55 937.73   C 654.56 942.05 651.67 946.58 650.18 949.81   C 648.40 953.66 645.99 956.13 643.46 959.84   Q 642.45 961.31 640.33 963.50   Q 634.31 969.72 629.11 974.63   A 1.77 1.74 9.9 0 1 628.66 974.94   L 612.26 982.89   Z"/>
<path fill="#41532a" d="   M 601.74 746.14   A 0.31 0.31 0.0 0 0 602.32 745.99   L 602.32 699.32   A 0.46 0.46 0.0 0 1 602.78 698.86   L 614.23 698.86   A 0.46 0.46 0.0 0 1 614.69 699.32   L 614.69 771.18   A 0.46 0.46 0.0 0 1 614.23 771.64   L 603.40 771.64   A 0.85 0.83 -14.7 0 1 602.67 771.22   L 595.58 758.95   A 0.41 0.38 85.9 0 0 595.42 758.80   C 594.49 758.32 594.44 757.20 593.90 756.33   C 591.05 751.70 588.18 746.00 584.64 740.83   Q 581.59 736.38 577.12 728.64   A 2.65 2.56 24.0 0 1 576.83 727.92   Q 576.30 725.79 575.41 724.68   A 0.33 0.33 0.0 0 0 574.82 724.88   L 574.82 771.03   A 0.59 0.58 -0.0 0 1 574.23 771.61   L 562.98 771.61   A 0.62 0.62 0.0 0 1 562.36 770.99   L 562.36 699.28   A 0.41 0.41 0.0 0 1 562.77 698.87   L 573.69 698.87   A 1.32 1.31 75.0 0 1 574.83 699.53   L 601.74 746.14   Z"/>
<path fill="#41532a" d="   M 677.59 769.60   Q 673.16 771.04 670.23 771.21   Q 658.00 771.92 644.35 771.56   A 0.28 0.28 0.0 0 1 644.07 771.28   L 644.07 699.23   A 0.28 0.27 -90.0 0 1 644.34 698.95   Q 658.60 698.51 670.00 699.76   C 678.40 700.68 683.48 704.17 688.34 710.79   C 696.53 721.94 697.90 737.06 694.05 750.15   Q 692.24 756.31 686.59 762.82   Q 683.18 766.75 679.72 768.48   Q 678.84 768.91 678.62 768.86   Q 678.11 768.75 677.92 769.29   A 0.51 0.50 -87.3 0 1 677.59 769.60   Z   M 670.36 713.39   Q 664.71 712.06 656.94 712.37   A 0.55 0.54 88.9 0 0 656.42 712.92   L 656.42 757.73   A 0.37 0.37 0.0 0 0 656.78 758.10   Q 663.72 758.31 668.37 757.79   Q 671.94 757.39 673.74 756.32   Q 674.99 755.57 680.05 750.42   A 2.79 2.71 -12.2 0 0 680.61 749.58   Q 687.75 733.15 678.15 718.32   A 3.43 3.29 -88.9 0 0 677.43 717.54   Q 672.81 713.97 670.36 713.39   Z"/>
<path fill="#41532a" d="   M 722.15 771.13   L 722.15 699.30   A 0.47 0.47 0.0 0 1 722.62 698.83   L 734.05 698.83   A 0.47 0.47 0.0 0 1 734.52 699.30   L 734.52 757.99   A 0.47 0.47 0.0 0 0 734.99 758.46   L 752.23 758.46   A 0.47 0.47 0.0 0 1 752.70 758.93   L 752.70 771.13   A 0.47 0.47 0.0 0 1 752.23 771.60   L 722.62 771.60   A 0.47 0.47 0.0 0 1 722.15 771.13   Z"/>
<path fill="#41532a" d="   M 790.80 771.53   Q 791.58 770.03 791.56 768.00   Q 791.49 761.06 791.60 740.63   Q 791.61 738.75 788.57 734.69   Q 784.53 726.73 780.56 718.70   Q 778.09 713.70 776.48 709.16   Q 775.47 706.29 772.15 699.71   A 0.58 0.58 0.0 0 1 772.67 698.87   L 784.54 698.87   A 0.83 0.82 76.6 0 1 785.28 699.33   Q 786.26 701.33 790.49 709.98   Q 791.12 711.28 791.11 712.82   A 0.61 0.60 -57.4 0 0 791.18 713.14   L 796.90 724.01   A 0.51 0.51 0.0 0 0 797.80 724.00   L 809.77 699.93   A 1.91 1.89 13.0 0 1 811.48 698.87   L 822.19 698.87   A 0.40 0.39 -76.8 0 1 822.54 699.44   Q 819.75 704.99 818.06 709.31   Q 815.68 715.40 813.57 719.18   Q 808.98 727.36 804.01 738.20   A 3.92 3.86 -33.2 0 0 803.66 739.81   L 803.66 771.00   A 0.56 0.56 0.0 0 1 803.10 771.56   L 790.80 771.53   Z"/>
<path fill="#a2b855" d="   M 670.36 713.39   Q 672.81 713.97 677.43 717.54   A 3.43 3.29 -88.9 0 1 678.15 718.32   Q 687.75 733.15 680.61 749.58   A 2.79 2.71 -12.2 0 1 680.05 750.42   Q 674.99 755.57 673.74 756.32   Q 671.94 757.39 668.37 757.79   Q 663.72 758.31 656.78 758.10   A 0.37 0.37 0.0 0 1 656.42 757.73   L 656.42 712.92   A 0.55 0.54 88.9 0 1 656.94 712.37   Q 664.71 712.06 670.36 713.39   Z"/>
<path fill="#a2b855" d="   M 406.94 712.81   A 0.30 0.30 0.0 0 1 407.24 712.51   L 413.26 712.50   A 7.64 6.35 -0.1 0 1 420.91 718.84   L 420.91 720.66   A 7.64 6.35 -0.1 0 1 413.28 727.02   L 407.26 727.03   A 0.30 0.30 0.0 0 1 406.96 726.73   L 406.94 712.81   Z"/>
<path fill="#6c833f" d="   M 790.80 771.53   L 790.67 741.11   A 1.51 1.40 -56.7 0 0 790.59 740.63   L 788.57 734.69   Q 791.61 738.75 791.60 740.63   Q 791.49 761.06 791.56 768.00   Q 791.58 770.03 790.80 771.53   Z"/>
<path fill="#a2b855" d="   M 517.02 783.41   Q 519.66 787.31 523.29 790.42   A 5.25 5.13 -89.3 0 1 524.08 791.25   Q 526.99 795.04 531.50 800.06   Q 535.29 804.27 538.87 809.04   Q 545.59 817.97 546.04 818.67   C 552.01 827.80 558.47 838.50 563.39 849.27   Q 565.63 854.18 568.10 859.05   Q 576.54 877.48 578.83 898.40   Q 581.17 919.84 582.50 934.50   Q 583.09 941.09 587.84 955.98   A 4.29 4.11 84.3 0 1 587.98 956.57   Q 588.39 958.85 589.09 960.58   Q 589.35 961.22 589.86 962.51   Q 593.10 970.62 599.24 977.79   A 3.17 3.08 -77.8 0 1 599.74 978.59   Q 601.11 981.73 604.00 983.56   L 569.45 983.71   Q 568.56 978.83 566.81 974.17   Q 563.54 965.49 563.45 965.19   Q 558.83 949.47 558.71 935.22   C 558.53 914.81 560.71 894.24 556.57 873.65   Q 556.21 871.85 554.86 864.79   Q 554.15 861.06 550.88 852.06   Q 548.20 844.65 543.98 834.87   A 0.51 0.49 2.5 0 0 543.76 834.64   L 543.49 834.51   Q 543.48 834.50 543.47 834.49   Q 541.56 829.53 538.35 823.05   Q 538.05 822.46 538.10 821.95   Q 538.14 821.43 537.61 821.26   A 0.57 0.56 -2.3 0 1 537.27 820.95   Q 535.60 817.16 534.80 815.95   Q 533.70 814.31 527.52 804.12   A 0.88 0.83 -63.6 0 1 527.39 803.70   Q 527.39 803.40 527.31 803.29   Q 525.09 800.44 523.71 798.28   Q 521.40 794.68 513.21 783.53   Q 510.84 780.30 503.17 772.37   A 0.27 0.27 0.0 0 1 503.16 772.00   L 503.34 771.81   A 0.06 0.06 0.0 0 1 503.43 771.80   L 517.02 783.41   Z"/>
<path fill="#6c833f" d="   M 568.10 859.05   Q 565.63 854.18 563.39 849.27   C 558.47 838.50 552.01 827.80 546.04 818.67   Q 545.59 817.97 538.87 809.04   Q 535.29 804.27 531.50 800.06   Q 526.99 795.04 524.08 791.25   A 5.25 5.13 -89.3 0 0 523.29 790.42   Q 519.66 787.31 517.02 783.41   Q 527.43 792.90 535.86 804.19   A 7.93 7.81 -89.6 0 0 537.21 805.58   Q 540.28 808.03 542.22 811.39   Q 544.10 814.66 544.62 815.42   Q 548.13 820.54 554.44 830.51   C 557.97 836.08 560.18 841.53 563.35 847.13   Q 566.52 852.72 568.10 859.05   Z"/>
<path fill="#bacc96" d="   M 308.45 810.60   Q 307.04 808.30 304.52 802.97   Q 303.03 799.82 302.73 797.44   Q 306.33 803.78 308.45 810.60   Z"/>
</svg>