<?xml version="1.0" encoding="UTF-8"?>
<svg style="background:transparent !important" xmlns="http://www.w3.org/2000/svg" xmlns:xlink="http://www.w3.org/1999/xlink" width="495.8007809999999" height="258.05078100000003" viewBox="62.613281 272.5 495.8007809999999 258.05078100000003">
<path fill-rule="nonzero" fill="rgb(55.865479%, 53.448486%, 38.638306%)" fill-opacity="1" d="M 551.65625 530.550781 L 70.828125 530.550781 L 70.828125 492.484375 L 551.65625 492.484375 Z M 551.65625 530.550781 "/>
<path fill-rule="nonzero" fill="rgb(100%, 100%, 100%)" fill-opacity="1" d="M 77.359375 522.355469 C 79.710938 522.316406 80.5625 521.003906 80.5625 518.050781 L 80.5625 504.273438 C 80.5625 501.324219 79.710938 500.011719 77.359375 499.96875 L 77.359375 499.394531 C 80.859375 499.4375 84.0625 499.4375 86.964844 499.4375 C 89.867188 499.4375 92.46875 499.4375 94.773438 499.394531 L 94.773438 503.414062 L 94.347656 503.414062 C 94.007812 500.996094 92.769531 500.257812 89.953125 500.257812 L 83.847656 500.257812 L 83.847656 510.507812 L 89.78125 510.507812 C 91.914062 510.507812 93.023438 509.726562 93.324219 507.964844 L 93.835938 507.964844 L 93.835938 513.867188 L 93.324219 513.867188 C 93.023438 512.066406 92 511.449219 89.78125 511.449219 L 83.847656 511.449219 L 83.847656 518.050781 C 83.847656 520.960938 84.660156 522.273438 87.050781 522.355469 L 87.050781 522.929688 C 85.386719 522.886719 83.71875 522.847656 82.097656 522.847656 C 80.476562 522.847656 78.898438 522.886719 77.359375 522.929688 Z M 77.359375 522.355469 "/>
<path fill-rule="nonzero" fill="rgb(100%, 100%, 100%)" fill-opacity="1" d="M 117.816406 519.320312 C 115.042969 522.027344 112.054688 523.421875 108.898438 523.421875 C 103.5625 523.421875 100.917969 520.265625 100.917969 513.949219 L 100.917969 504.273438 C 100.917969 501.324219 100.019531 500.011719 97.671875 499.96875 L 97.671875 499.394531 C 99.296875 499.4375 100.917969 499.4375 102.539062 499.4375 C 104.160156 499.4375 105.78125 499.4375 107.402344 499.394531 L 107.402344 499.96875 C 105.058594 500.011719 104.160156 501.324219 104.160156 504.273438 L 104.160156 514.566406 C 104.160156 519.402344 106.378906 521.90625 110.347656 521.90625 C 112.910156 521.90625 115.429688 520.632812 117.816406 517.925781 L 117.816406 504.273438 C 117.816406 501.324219 116.921875 500.011719 114.574219 499.96875 L 114.574219 499.394531 C 116.195312 499.4375 117.816406 499.4375 119.441406 499.4375 C 121.019531 499.4375 122.640625 499.4375 124.261719 499.394531 L 124.261719 499.96875 C 121.914062 500.011719 121.0625 501.324219 121.0625 504.273438 L 121.0625 517.804688 C 121.0625 521.003906 121.445312 522.273438 124.261719 522.355469 L 124.261719 522.929688 C 123.238281 522.886719 122.171875 522.847656 121.105469 522.847656 C 120.035156 522.847656 118.929688 522.886719 117.816406 522.929688 Z M 117.816406 519.320312 "/>
<path fill-rule="nonzero" fill="rgb(100%, 100%, 100%)" fill-opacity="1" d="M 136.550781 510.917969 C 140.390625 510.917969 142.695312 508.785156 142.695312 505.710938 C 142.695312 502.265625 140.347656 500.257812 136.207031 500.257812 C 135.566406 500.257812 134.839844 500.296875 133.988281 500.421875 L 133.988281 510.917969 Z M 146.28125 505.464844 C 146.28125 508.210938 144.316406 510.21875 140.433594 511.160156 C 143.121094 511.859375 144.402344 514.6875 146.792969 518.296875 C 148.457031 520.839844 149.652344 522.273438 151.828125 522.355469 L 151.828125 522.929688 C 150.929688 522.890625 149.992188 522.847656 149.097656 522.847656 C 148.199219 522.847656 147.347656 522.890625 146.449219 522.929688 C 145.214844 521.738281 144.019531 519.527344 142.226562 516.777344 C 140.050781 513.5 138.769531 511.859375 135.78125 511.859375 L 133.988281 511.859375 L 133.988281 518.050781 C 133.988281 520.960938 134.800781 522.273438 137.1875 522.355469 L 137.1875 522.929688 C 135.523438 522.890625 133.859375 522.847656 132.238281 522.847656 C 130.617188 522.847656 129.039062 522.890625 127.5 522.929688 L 127.5 522.355469 C 129.847656 522.3125 130.703125 521.003906 130.703125 518.050781 L 130.703125 504.273438 C 130.703125 501.320312 129.847656 500.011719 127.5 499.96875 L 127.5 499.394531 L 136.933594 499.394531 C 143.035156 499.394531 146.28125 501.691406 146.28125 505.464844 "/>
<path fill-rule="nonzero" fill="rgb(100%, 100%, 100%)" fill-opacity="1" d="M 153.273438 522.355469 C 155.878906 522.273438 156.648438 520.960938 156.648438 517.804688 L 156.648438 504.644531 C 156.648438 501.40625 155.964844 500.09375 153.273438 499.96875 L 153.273438 499.394531 C 154.34375 499.4375 155.410156 499.4375 156.433594 499.4375 C 157.5 499.4375 158.523438 499.4375 159.507812 499.394531 L 175.167969 517.886719 L 175.167969 503.945312 C 175.167969 501.242188 174.484375 500.09375 172.226562 499.96875 L 172.226562 499.394531 C 173.375 499.4375 174.527344 499.4375 175.683594 499.4375 C 176.832031 499.4375 178.027344 499.4375 179.179688 499.394531 L 179.179688 499.96875 C 176.917969 500.175781 176.277344 501.242188 176.277344 503.90625 L 176.277344 523.132812 L 175.640625 523.132812 L 157.757812 501.976562 L 157.757812 517.722656 C 157.757812 520.960938 158.523438 522.355469 161.128906 522.355469 L 161.257812 522.355469 L 161.257812 522.929688 C 159.976562 522.886719 158.695312 522.847656 157.328125 522.847656 C 156.007812 522.847656 154.683594 522.886719 153.273438 522.929688 Z M 153.273438 522.355469 "/>
<path fill-rule="nonzero" fill="rgb(100%, 100%, 100%)" fill-opacity="1" d="M 191.9375 499.96875 C 189.589844 500.011719 188.695312 501.324219 188.695312 504.273438 L 188.695312 518.050781 C 188.695312 521.003906 189.589844 522.316406 191.9375 522.355469 L 191.9375 522.929688 C 190.273438 522.890625 188.609375 522.847656 186.988281 522.847656 C 185.363281 522.847656 183.742188 522.890625 182.121094 522.929688 L 182.121094 522.355469 C 184.46875 522.316406 185.363281 521.003906 185.363281 518.050781 L 185.363281 504.273438 C 185.363281 501.324219 184.46875 500.011719 182.121094 499.96875 L 182.121094 499.394531 C 183.742188 499.4375 185.363281 499.4375 186.988281 499.4375 C 188.609375 499.4375 190.273438 499.4375 191.9375 499.394531 Z M 191.9375 499.96875 "/>
<path fill-rule="nonzero" fill="rgb(100%, 100%, 100%)" fill-opacity="1" d="M 210.96875 522.355469 L 210.96875 522.929688 C 209.347656 522.886719 207.726562 522.847656 206.148438 522.847656 C 204.527344 522.847656 202.90625 522.886719 201.28125 522.929688 L 201.28125 522.355469 C 203.628906 522.316406 204.484375 521.003906 204.484375 518.050781 L 204.484375 500.339844 L 200.8125 500.339844 C 197.484375 500.339844 195.90625 501.324219 195.734375 503.535156 L 195.136719 503.535156 L 195.136719 497.878906 L 195.734375 497.878906 C 196.074219 499.230469 197.398438 499.394531 200.214844 499.394531 L 212.039062 499.394531 C 214.855469 499.394531 216.21875 499.230469 216.5625 497.878906 L 217.160156 497.878906 L 217.160156 503.535156 L 216.5625 503.535156 C 216.390625 501.324219 214.769531 500.339844 211.441406 500.339844 L 207.769531 500.339844 L 207.769531 518.050781 C 207.769531 521.003906 208.621094 522.316406 210.96875 522.355469 "/>
<path fill-rule="nonzero" fill="rgb(100%, 100%, 100%)" fill-opacity="1" d="M 239.347656 519.320312 C 236.574219 522.027344 233.585938 523.421875 230.429688 523.421875 C 225.09375 523.421875 222.449219 520.265625 222.449219 513.949219 L 222.449219 504.273438 C 222.449219 501.324219 221.550781 500.011719 219.203125 499.96875 L 219.203125 499.394531 C 220.828125 499.4375 222.449219 499.4375 224.070312 499.4375 C 225.691406 499.4375 227.3125 499.4375 228.933594 499.394531 L 228.933594 499.96875 C 226.585938 500.011719 225.691406 501.324219 225.691406 504.273438 L 225.691406 514.566406 C 225.691406 519.402344 227.910156 521.90625 231.878906 521.90625 C 234.441406 521.90625 236.957031 520.632812 239.347656 517.925781 L 239.347656 504.273438 C 239.347656 501.324219 238.453125 500.011719 236.105469 499.96875 L 236.105469 499.394531 C 237.726562 499.4375 239.347656 499.4375 240.96875 499.4375 C 242.550781 499.4375 244.171875 499.4375 245.792969 499.394531 L 245.792969 499.96875 C 243.445312 500.011719 242.59375 501.324219 242.59375 504.273438 L 242.59375 517.804688 C 242.59375 521.003906 242.976562 522.273438 245.792969 522.355469 L 245.792969 522.929688 C 244.769531 522.886719 243.703125 522.847656 242.632812 522.847656 C 241.566406 522.847656 240.457031 522.886719 239.347656 522.929688 Z M 239.347656 519.320312 "/>
<path fill-rule="nonzero" fill="rgb(100%, 100%, 100%)" fill-opacity="1" d="M 258.082031 510.917969 C 261.921875 510.917969 264.226562 508.785156 264.226562 505.710938 C 264.226562 502.265625 261.878906 500.257812 257.738281 500.257812 C 257.097656 500.257812 256.371094 500.296875 255.519531 500.421875 L 255.519531 510.917969 Z M 267.808594 505.464844 C 267.808594 508.210938 265.847656 510.21875 261.964844 511.160156 C 264.652344 511.859375 265.933594 514.6875 268.324219 518.296875 C 269.988281 520.839844 271.183594 522.273438 273.359375 522.355469 L 273.359375 522.929688 C 272.460938 522.890625 271.523438 522.847656 270.628906 522.847656 C 269.730469 522.847656 268.878906 522.890625 267.980469 522.929688 C 266.742188 521.738281 265.550781 519.527344 263.757812 516.777344 C 261.582031 513.5 260.300781 511.859375 257.3125 511.859375 L 255.519531 511.859375 L 255.519531 518.050781 C 255.519531 520.960938 256.332031 522.273438 258.71875 522.355469 L 258.71875 522.929688 C 257.054688 522.890625 255.390625 522.847656 253.769531 522.847656 C 252.148438 522.847656 250.566406 522.890625 249.03125 522.929688 L 249.03125 522.355469 C 251.378906 522.3125 252.234375 521.003906 252.234375 518.050781 L 252.234375 504.273438 C 252.234375 501.320312 251.378906 500.011719 249.03125 499.96875 L 249.03125 499.394531 L 258.464844 499.394531 C 264.566406 499.394531 267.808594 501.691406 267.808594 505.464844 "/>
<path fill-rule="nonzero" fill="rgb(100%, 100%, 100%)" fill-opacity="1" d="M 274.933594 522.355469 C 277.28125 522.316406 278.136719 521.003906 278.136719 518.050781 L 278.136719 504.273438 C 278.136719 501.324219 277.28125 500.011719 274.933594 499.96875 L 274.933594 499.394531 C 278.390625 499.4375 281.636719 499.4375 284.664062 499.4375 C 287.695312 499.4375 290.554688 499.4375 293.199219 499.394531 L 293.199219 503.414062 L 292.730469 503.414062 C 292.390625 500.996094 291.195312 500.257812 288.378906 500.257812 L 281.421875 500.257812 L 281.421875 510.507812 L 287.566406 510.507812 C 289.699219 510.507812 290.8125 509.726562 291.109375 507.964844 L 291.578125 507.964844 L 291.578125 513.867188 L 291.109375 513.867188 C 290.8125 512.066406 289.785156 511.449219 287.566406 511.449219 L 281.421875 511.449219 L 281.421875 518.667969 C 281.421875 521.207031 281.976562 521.988281 284.792969 521.988281 L 287.992188 521.988281 C 291.152344 521.988281 292.988281 520.878906 293.714844 518.5 L 294.226562 518.5 L 293.414062 522.929688 C 290.46875 522.886719 287.4375 522.847656 284.367188 522.847656 C 281.292969 522.847656 278.136719 522.886719 274.933594 522.929688 Z M 274.933594 522.355469 "/>
<path fill-rule="nonzero" fill="rgb(100%, 100%, 100%)" fill-opacity="1" d="M 319.910156 504.4375 C 319.910156 502.429688 318.546875 501.035156 316.710938 501.035156 C 314.621094 501.035156 313.296875 502.304688 313.296875 504.109375 C 313.296875 505.667969 314.449219 507.101562 316.710938 508.949219 C 318.761719 507.882812 319.910156 506.242188 319.910156 504.4375 M 311.378906 515.960938 C 311.378906 518.871094 313.980469 521.578125 316.96875 521.578125 C 318.804688 521.578125 320.636719 520.632812 322.132812 518.75 C 319.484375 515.714844 317.011719 513.128906 314.621094 511 C 312.441406 512.390625 311.378906 513.992188 311.378906 515.960938 M 315.21875 523.257812 C 311.25 523.257812 308.347656 520.632812 308.347656 517.351562 C 308.347656 514.730469 310.265625 512.554688 314.109375 510.507812 C 312.1875 508.703125 311.207031 507.0625 311.207031 505.257812 C 311.207031 502.386719 313.597656 500.132812 316.96875 500.132812 C 319.828125 500.132812 321.789062 501.9375 321.789062 504.191406 C 321.789062 506.160156 320.296875 508.003906 317.351562 509.398438 C 319.65625 511.574219 321.917969 513.867188 323.96875 516.246094 C 325.246094 514.277344 325.84375 512.472656 325.84375 511 C 325.84375 509.726562 325.160156 509.070312 323.839844 508.988281 L 323.839844 508.417969 C 324.992188 508.457031 326.1875 508.457031 327.382812 508.457031 C 328.574219 508.457031 329.8125 508.457031 331.050781 508.417969 L 331.050781 508.988281 C 329.34375 509.070312 328.574219 509.5625 327.765625 510.753906 C 327.167969 511.613281 326.527344 513.910156 324.605469 517.027344 C 326.910156 519.8125 328.0625 521.578125 329.683594 521.578125 C 330.28125 521.578125 330.882812 521.332031 331.605469 520.921875 L 331.90625 521.414062 C 330.496094 522.640625 329.300781 523.257812 327.976562 523.257812 C 326.398438 523.257812 324.691406 522.027344 322.730469 519.527344 C 320.597656 521.988281 317.992188 523.257812 315.21875 523.257812 "/>
<path fill-rule="nonzero" fill="rgb(100%, 100%, 100%)" fill-opacity="1" d="M 353.367188 499.96875 C 351.019531 500.011719 350.125 501.324219 350.125 504.273438 L 350.125 518.050781 C 350.125 521.003906 351.019531 522.316406 353.367188 522.355469 L 353.367188 522.929688 C 351.703125 522.890625 350.039062 522.847656 348.417969 522.847656 C 346.796875 522.847656 345.175781 522.890625 343.550781 522.929688 L 343.550781 522.355469 C 345.898438 522.316406 346.796875 521.003906 346.796875 518.050781 L 346.796875 504.273438 C 346.796875 501.324219 345.898438 500.011719 343.550781 499.96875 L 343.550781 499.394531 C 345.175781 499.4375 346.796875 499.4375 348.417969 499.4375 C 350.039062 499.4375 351.703125 499.4375 353.367188 499.394531 Z M 353.367188 499.96875 "/>
<path fill-rule="nonzero" fill="rgb(100%, 100%, 100%)" fill-opacity="1" d="M 356.566406 522.355469 C 359.171875 522.273438 359.9375 520.960938 359.9375 517.804688 L 359.9375 504.644531 C 359.9375 501.40625 359.253906 500.09375 356.566406 499.96875 L 356.566406 499.394531 C 357.632812 499.4375 358.703125 499.4375 359.726562 499.4375 C 360.792969 499.4375 361.816406 499.4375 362.796875 499.394531 L 378.460938 517.886719 L 378.460938 503.945312 C 378.460938 501.242188 377.777344 500.09375 375.515625 499.96875 L 375.515625 499.394531 C 376.667969 499.4375 377.820312 499.4375 378.972656 499.4375 C 380.125 499.4375 381.320312 499.4375 382.472656 499.394531 L 382.472656 499.96875 C 380.210938 500.175781 379.570312 501.242188 379.570312 503.90625 L 379.570312 523.132812 L 378.929688 523.132812 L 361.046875 501.976562 L 361.046875 517.722656 C 361.046875 520.960938 361.816406 522.355469 364.421875 522.355469 L 364.546875 522.355469 L 364.546875 522.929688 C 363.265625 522.886719 361.988281 522.847656 360.621094 522.847656 C 359.296875 522.847656 357.976562 522.886719 356.566406 522.929688 Z M 356.566406 522.355469 "/>
<path fill-rule="nonzero" fill="rgb(100%, 100%, 100%)" fill-opacity="1" d="M 401.886719 522.355469 L 401.886719 522.929688 C 400.265625 522.886719 398.644531 522.847656 397.066406 522.847656 C 395.441406 522.847656 393.820312 522.886719 392.199219 522.929688 L 392.199219 522.355469 C 394.546875 522.316406 395.402344 521.003906 395.402344 518.050781 L 395.402344 500.339844 L 391.730469 500.339844 C 388.402344 500.339844 386.820312 501.324219 386.652344 503.535156 L 386.054688 503.535156 L 386.054688 497.878906 L 386.652344 497.878906 C 386.992188 499.230469 388.316406 499.394531 391.132812 499.394531 L 402.953125 499.394531 C 405.769531 499.394531 407.136719 499.230469 407.480469 497.878906 L 408.074219 497.878906 L 408.074219 503.535156 L 407.480469 503.535156 C 407.308594 501.324219 405.6875 500.339844 402.355469 500.339844 L 398.6875 500.339844 L 398.6875 518.050781 C 398.6875 521.003906 399.539062 522.316406 401.886719 522.355469 "/>
<path fill-rule="nonzero" fill="rgb(100%, 100%, 100%)" fill-opacity="1" d="M 411.1875 522.355469 C 413.535156 522.316406 414.386719 521.003906 414.386719 518.050781 L 414.386719 504.273438 C 414.386719 501.324219 413.535156 500.011719 411.1875 499.96875 L 411.1875 499.394531 C 414.644531 499.4375 417.886719 499.4375 420.917969 499.4375 C 423.949219 499.4375 426.808594 499.4375 429.453125 499.394531 L 429.453125 503.414062 L 428.984375 503.414062 C 428.640625 500.996094 427.449219 500.257812 424.628906 500.257812 L 417.675781 500.257812 L 417.675781 510.507812 L 423.820312 510.507812 C 425.953125 510.507812 427.0625 509.726562 427.363281 507.964844 L 427.832031 507.964844 L 427.832031 513.867188 L 427.363281 513.867188 C 427.0625 512.066406 426.039062 511.449219 423.820312 511.449219 L 417.675781 511.449219 L 417.675781 518.667969 C 417.675781 521.207031 418.230469 521.988281 421.046875 521.988281 L 424.246094 521.988281 C 427.40625 521.988281 429.242188 520.878906 429.964844 518.5 L 430.476562 518.5 L 429.667969 522.929688 C 426.722656 522.886719 423.691406 522.847656 420.621094 522.847656 C 417.546875 522.847656 414.386719 522.886719 411.1875 522.929688 Z M 411.1875 522.355469 "/>
<path fill-rule="nonzero" fill="rgb(100%, 100%, 100%)" fill-opacity="1" d="M 443.234375 510.917969 C 447.078125 510.917969 449.382812 508.785156 449.382812 505.710938 C 449.382812 502.265625 447.035156 500.257812 442.894531 500.257812 C 442.253906 500.257812 441.53125 500.296875 440.675781 500.421875 L 440.675781 510.917969 Z M 452.964844 505.464844 C 452.964844 508.210938 451.003906 510.21875 447.121094 511.160156 C 449.808594 511.859375 451.089844 514.6875 453.480469 518.296875 C 455.144531 520.839844 456.339844 522.273438 458.515625 522.355469 L 458.515625 522.929688 C 457.621094 522.890625 456.679688 522.847656 455.785156 522.847656 C 454.886719 522.847656 454.035156 522.890625 453.136719 522.929688 C 451.898438 521.738281 450.707031 519.527344 448.914062 516.777344 C 446.734375 513.5 445.457031 511.859375 442.46875 511.859375 L 440.675781 511.859375 L 440.675781 518.050781 C 440.675781 520.960938 441.484375 522.273438 443.875 522.355469 L 443.875 522.929688 C 442.210938 522.890625 440.546875 522.847656 438.925781 522.847656 C 437.304688 522.847656 435.722656 522.890625 434.1875 522.929688 L 434.1875 522.355469 C 436.535156 522.3125 437.386719 521.003906 437.386719 518.050781 L 437.386719 504.273438 C 437.386719 501.320312 436.535156 500.011719 434.1875 499.96875 L 434.1875 499.394531 L 443.621094 499.394531 C 449.722656 499.394531 452.964844 501.691406 452.964844 505.464844 "/>
<path fill-rule="nonzero" fill="rgb(100%, 100%, 100%)" fill-opacity="1" d="M 469.140625 499.96875 C 466.789062 500.011719 465.894531 501.324219 465.894531 504.273438 L 465.894531 518.050781 C 465.894531 521.003906 466.789062 522.316406 469.140625 522.355469 L 469.140625 522.929688 C 467.472656 522.890625 465.808594 522.847656 464.1875 522.847656 C 462.566406 522.847656 460.945312 522.890625 459.324219 522.929688 L 459.324219 522.355469 C 461.667969 522.316406 462.566406 521.003906 462.566406 518.050781 L 462.566406 504.273438 C 462.566406 501.324219 461.667969 500.011719 459.324219 499.96875 L 459.324219 499.394531 C 460.945312 499.4375 462.566406 499.4375 464.1875 499.4375 C 465.808594 499.4375 467.472656 499.4375 469.140625 499.394531 Z M 469.140625 499.96875 "/>
<path fill-rule="nonzero" fill="rgb(100%, 100%, 100%)" fill-opacity="1" d="M 486.164062 522.558594 C 491.585938 522.558594 495.257812 518.253906 495.257812 511.164062 C 495.257812 504.070312 491.585938 499.804688 486.164062 499.804688 C 480.746094 499.804688 477.074219 504.070312 477.074219 511.164062 C 477.074219 518.253906 480.746094 522.558594 486.164062 522.558594 M 478.996094 500.996094 C 481.085938 499.601562 483.5625 498.863281 486.164062 498.863281 C 488.8125 498.863281 491.242188 499.558594 493.378906 500.996094 C 496.921875 503.371094 498.925781 507.0625 498.925781 511.164062 C 498.925781 515.261719 496.921875 518.953125 493.378906 521.332031 C 491.242188 522.765625 488.8125 523.503906 486.164062 523.503906 C 483.5625 523.503906 481.085938 522.765625 478.996094 521.371094 C 475.453125 518.996094 473.445312 515.261719 473.445312 511.164062 C 473.445312 507.0625 475.453125 503.371094 478.996094 500.996094 "/>
<path fill-rule="nonzero" fill="rgb(100%, 100%, 100%)" fill-opacity="1" d="M 513.007812 510.917969 C 516.847656 510.917969 519.152344 508.785156 519.152344 505.710938 C 519.152344 502.265625 516.804688 500.257812 512.664062 500.257812 C 512.023438 500.257812 511.300781 500.296875 510.445312 500.421875 L 510.445312 510.917969 Z M 522.734375 505.464844 C 522.734375 508.210938 520.773438 510.21875 516.890625 511.160156 C 519.578125 511.859375 520.859375 514.6875 523.25 518.296875 C 524.914062 520.839844 526.109375 522.273438 528.285156 522.355469 L 528.285156 522.929688 C 527.390625 522.890625 526.449219 522.847656 525.554688 522.847656 C 524.65625 522.847656 523.804688 522.890625 522.90625 522.929688 C 521.667969 521.738281 520.476562 519.527344 518.683594 516.777344 C 516.503906 513.5 515.226562 511.859375 512.238281 511.859375 L 510.445312 511.859375 L 510.445312 518.050781 C 510.445312 520.960938 511.257812 522.273438 513.644531 522.355469 L 513.644531 522.929688 C 511.980469 522.890625 510.316406 522.847656 508.695312 522.847656 C 507.074219 522.847656 505.492188 522.890625 503.957031 522.929688 L 503.957031 522.355469 C 506.304688 522.3125 507.15625 521.003906 507.15625 518.050781 L 507.15625 504.273438 C 507.15625 501.320312 506.304688 500.011719 503.957031 499.96875 L 503.957031 499.394531 L 513.390625 499.394531 C 519.492188 499.394531 522.734375 501.691406 522.734375 505.464844 "/>
<path fill-rule="nonzero" fill="rgb(100%, 100%, 100%)" fill-opacity="1" d="M 531.652344 517.027344 L 532.25 517.027344 C 532.546875 520.46875 534.980469 522.601562 538.265625 522.601562 C 541.214844 522.601562 543.347656 520.675781 543.347656 518.214844 C 543.347656 515.550781 541.214844 514.238281 537.714844 512.144531 C 533.957031 509.933594 531.738281 508.253906 531.738281 504.847656 C 531.738281 501.445312 534.511719 498.820312 538.308594 498.820312 C 540.488281 498.820312 541.980469 499.640625 542.878906 499.640625 C 543.429688 499.640625 543.816406 499.3125 543.859375 498.820312 L 544.457031 498.820312 L 544.457031 504.152344 L 543.859375 504.152344 C 543.304688 501.242188 541.296875 499.601562 538.4375 499.601562 C 535.664062 499.601562 533.914062 501.117188 533.914062 503.332031 C 533.914062 505.011719 535.023438 506.695312 537.074219 507.921875 C 539.421875 509.316406 541.554688 510.382812 543.132812 511.574219 C 544.882812 512.925781 545.90625 514.851562 545.90625 516.902344 C 545.90625 520.511719 542.664062 523.460938 538.4375 523.460938 C 536.132812 523.460938 534.511719 522.519531 533.273438 522.519531 C 532.71875 522.519531 532.292969 522.886719 532.25 523.421875 L 531.652344 523.421875 Z M 531.652344 517.027344 "/>
<path fill-rule="nonzero" fill="rgb(13.729858%, 12.159729%, 12.548828%)" fill-opacity="1" d="M 75.90625 444.554688 C 75.90625 451.347656 77.828125 453.699219 85.347656 453.699219 C 100.035156 453.699219 108.078125 445.773438 108.078125 431.582031 C 108.078125 416.433594 99.160156 407.640625 83.160156 407.640625 C 81.0625 407.640625 78.703125 407.8125 75.90625 408.160156 Z M 62.613281 454.480469 C 67.421875 454.394531 69.257812 451.609375 69.257812 445.339844 L 69.257812 416.085938 C 69.257812 409.816406 67.421875 407.03125 62.613281 406.945312 L 62.613281 405.722656 L 84.996094 405.722656 C 104.230469 405.722656 115.511719 416.085938 115.511719 431.667969 C 115.511719 446.121094 104.84375 455.699219 87.269531 455.699219 L 62.613281 455.699219 Z M 62.613281 454.480469 "/>
<path fill-rule="nonzero" fill="rgb(13.729858%, 12.159729%, 12.548828%)" fill-opacity="1" d="M 152.054688 454.917969 C 163.15625 454.917969 170.679688 445.773438 170.679688 430.710938 C 170.679688 415.648438 163.15625 406.59375 152.054688 406.59375 C 140.949219 406.59375 133.429688 415.648438 133.429688 430.710938 C 133.429688 445.773438 140.949219 454.917969 152.054688 454.917969 M 137.367188 409.117188 C 141.648438 406.160156 146.722656 404.59375 152.054688 404.59375 C 157.476562 404.59375 162.460938 406.070312 166.832031 409.117188 C 174.085938 414.167969 178.195312 422.007812 178.195312 430.710938 C 178.195312 439.417969 174.085938 447.253906 166.832031 452.304688 C 162.460938 455.351562 157.476562 456.917969 152.054688 456.917969 C 146.722656 456.917969 141.648438 455.351562 137.367188 452.390625 C 130.109375 447.34375 126 439.417969 126 430.710938 C 126 422.007812 130.109375 414.167969 137.367188 409.117188 "/>
<path fill-rule="nonzero" fill="rgb(13.729858%, 12.159729%, 12.548828%)" fill-opacity="1" d="M 247.265625 414.605469 C 247.789062 413.210938 247.964844 411.90625 247.964844 410.863281 C 247.964844 408.335938 246.214844 406.945312 242.894531 406.945312 L 242.542969 406.945312 L 242.542969 405.722656 C 245.429688 405.808594 248.050781 405.808594 250.585938 405.808594 C 253.035156 405.808594 255.394531 405.808594 257.492188 405.722656 L 257.492188 406.945312 C 253.296875 407.726562 251.199219 410.164062 249.363281 415.039062 L 233.886719 456.746094 L 232.75 456.746094 L 219.023438 418.785156 L 204.949219 456.746094 L 203.8125 456.746094 L 188.773438 415.5625 C 186.847656 410.25 185.273438 407.464844 180.640625 406.945312 L 180.640625 405.722656 C 183.699219 405.808594 186.671875 405.808594 189.734375 405.808594 C 192.707031 405.808594 195.765625 405.808594 198.738281 405.722656 L 198.738281 406.945312 C 195.679688 406.945312 194.191406 408.164062 194.191406 410.597656 C 194.191406 411.730469 194.628906 412.949219 195.15625 414.429688 L 206.519531 446.382812 L 217.800781 415.910156 C 216.050781 410.164062 213.691406 407.292969 209.582031 406.945312 L 209.582031 405.722656 C 212.640625 405.808594 215.613281 405.808594 218.671875 405.808594 C 221.648438 405.808594 224.707031 405.808594 227.679688 405.722656 L 227.679688 406.945312 C 224.621094 406.945312 223.132812 408.164062 223.132812 410.597656 C 223.132812 411.730469 223.570312 412.949219 224.09375 414.429688 L 235.460938 446.382812 Z M 247.265625 414.605469 "/>
<path fill-rule="nonzero" fill="rgb(13.729858%, 12.159729%, 12.548828%)" fill-opacity="1" d="M 260.546875 454.480469 C 265.882812 454.304688 267.457031 451.519531 267.457031 444.816406 L 267.457031 416.867188 C 267.457031 409.992188 266.058594 407.203125 260.546875 406.945312 L 260.546875 405.722656 C 262.734375 405.808594 264.921875 405.808594 267.019531 405.808594 C 269.203125 405.808594 271.304688 405.808594 273.3125 405.722656 L 305.402344 444.992188 L 305.402344 415.386719 C 305.402344 409.640625 304.003906 407.203125 299.367188 406.945312 L 299.367188 405.722656 C 301.730469 405.808594 304.089844 405.808594 306.449219 405.808594 C 308.8125 405.808594 311.261719 405.808594 313.621094 405.722656 L 313.621094 406.945312 C 308.988281 407.378906 307.675781 409.640625 307.675781 415.300781 L 307.675781 456.136719 L 306.363281 456.136719 L 269.730469 411.210938 L 269.730469 444.640625 C 269.730469 451.519531 271.304688 454.480469 276.636719 454.480469 L 276.898438 454.480469 L 276.898438 455.699219 C 274.277344 455.613281 271.652344 455.527344 268.855469 455.527344 C 266.144531 455.527344 263.433594 455.613281 260.546875 455.699219 Z M 260.546875 454.480469 "/>
<path fill-rule="nonzero" fill="rgb(13.729858%, 12.159729%, 12.548828%)" fill-opacity="1" d="M 321.398438 443.160156 L 322.621094 443.160156 C 323.234375 450.476562 328.214844 455.003906 334.949219 455.003906 C 340.984375 455.003906 345.351562 450.910156 345.351562 445.6875 C 345.351562 440.027344 340.984375 437.242188 333.8125 432.800781 C 326.121094 428.097656 321.574219 424.53125 321.574219 417.304688 C 321.574219 410.078125 327.253906 404.503906 335.039062 404.503906 C 339.496094 404.503906 342.554688 406.246094 344.390625 406.246094 C 345.53125 406.246094 346.316406 405.550781 346.402344 404.503906 L 347.625 404.503906 L 347.625 415.824219 L 346.402344 415.824219 C 345.265625 409.640625 341.15625 406.160156 335.296875 406.160156 C 329.617188 406.160156 326.03125 409.382812 326.03125 414.082031 C 326.03125 417.652344 328.304688 421.222656 332.5 423.835938 C 337.308594 426.792969 341.679688 429.058594 344.917969 431.582031 C 348.5 434.457031 350.597656 438.546875 350.597656 442.902344 C 350.597656 450.5625 343.957031 456.832031 335.296875 456.832031 C 330.578125 456.832031 327.253906 454.828125 324.71875 454.828125 C 323.582031 454.828125 322.710938 455.613281 322.621094 456.746094 L 321.398438 456.746094 Z M 321.398438 443.160156 "/>
<path fill-rule="nonzero" fill="rgb(13.729858%, 12.159729%, 12.548828%)" fill-opacity="1" d="M 389.507812 454.480469 L 389.507812 455.699219 C 386.183594 455.613281 382.859375 455.527344 379.625 455.527344 C 376.304688 455.527344 372.980469 455.613281 369.65625 455.699219 L 369.65625 454.480469 C 374.46875 454.394531 376.214844 451.609375 376.214844 445.339844 L 376.214844 407.726562 L 368.695312 407.726562 C 361.875 407.726562 358.644531 409.816406 358.292969 414.515625 L 357.066406 414.515625 L 357.066406 402.503906 L 358.292969 402.503906 C 358.992188 405.375 361.703125 405.722656 367.472656 405.722656 L 391.691406 405.722656 C 397.460938 405.722656 400.261719 405.375 400.960938 402.503906 L 402.183594 402.503906 L 402.183594 414.515625 L 400.960938 414.515625 C 400.609375 409.816406 397.285156 407.726562 390.46875 407.726562 L 382.949219 407.726562 L 382.949219 445.339844 C 382.949219 451.609375 384.695312 454.394531 389.507812 454.480469 "/>
<path fill-rule="nonzero" fill="rgb(13.729858%, 12.159729%, 12.548828%)" fill-opacity="1" d="M 427.621094 431.757812 L 420.277344 409.730469 L 412.761719 431.757812 Z M 397.808594 454.480469 C 401.65625 454.394531 403.667969 451.78125 405.589844 446.210938 L 419.929688 404.503906 L 425 404.503906 L 439.425781 447.515625 C 441 452.21875 443.011719 454.480469 446.160156 454.480469 L 446.683594 454.480469 L 446.683594 455.699219 C 443.800781 455.613281 440.914062 455.527344 438.027344 455.527344 C 435.054688 455.527344 432.171875 455.613281 429.109375 455.699219 L 429.109375 454.480469 C 432.171875 454.308594 433.65625 453.175781 433.65625 450.824219 C 433.65625 449.691406 433.21875 448.5625 432.78125 447.167969 L 428.496094 434.367188 L 411.886719 434.367188 L 407.6875 446.992188 C 407.253906 448.386719 406.988281 449.519531 406.988281 450.476562 C 406.988281 453.085938 408.5625 454.480469 411.710938 454.480469 L 411.710938 455.699219 C 409.261719 455.613281 406.8125 455.527344 404.539062 455.527344 C 402.269531 455.527344 399.992188 455.613281 397.808594 455.699219 Z M 397.808594 454.480469 "/>
<path fill-rule="nonzero" fill="rgb(13.729858%, 12.159729%, 12.548828%)" fill-opacity="1" d="M 470.898438 406.945312 C 466.089844 407.03125 464.253906 409.816406 464.253906 416.085938 L 464.253906 445.339844 C 464.253906 451.609375 466.089844 454.394531 470.898438 454.480469 L 470.898438 455.699219 C 467.488281 455.613281 464.078125 455.527344 460.757812 455.527344 C 457.433594 455.527344 454.113281 455.613281 450.789062 455.699219 L 450.789062 454.480469 C 455.597656 454.394531 457.433594 451.609375 457.433594 445.339844 L 457.433594 416.085938 C 457.433594 409.816406 455.597656 407.03125 450.789062 406.945312 L 450.789062 405.722656 C 454.113281 405.808594 457.433594 405.808594 460.757812 405.808594 C 464.078125 405.808594 467.488281 405.808594 470.898438 405.722656 Z M 470.898438 406.945312 "/>
<path fill-rule="nonzero" fill="rgb(13.729858%, 12.159729%, 12.548828%)" fill-opacity="1" d="M 494.503906 430.191406 C 502.371094 430.191406 507.09375 425.664062 507.09375 419.132812 C 507.09375 411.820312 502.285156 407.550781 493.804688 407.550781 C 492.492188 407.550781 491.007812 407.640625 489.257812 407.902344 L 489.257812 430.191406 Z M 514.4375 418.609375 C 514.4375 424.445312 510.414062 428.710938 502.460938 430.710938 C 507.96875 432.191406 510.59375 438.199219 515.488281 445.863281 C 518.898438 451.257812 521.347656 454.304688 525.804688 454.480469 L 525.804688 455.699219 C 523.96875 455.613281 522.042969 455.527344 520.207031 455.527344 C 518.371094 455.527344 516.625 455.613281 514.789062 455.699219 C 512.253906 453.175781 509.804688 448.472656 506.132812 442.640625 C 501.671875 435.675781 499.050781 432.191406 492.929688 432.191406 L 489.257812 432.191406 L 489.257812 445.339844 C 489.257812 451.523438 490.917969 454.304688 495.816406 454.480469 L 495.816406 455.699219 C 492.40625 455.613281 488.996094 455.527344 485.671875 455.527344 C 482.351562 455.527344 479.113281 455.613281 475.96875 455.699219 L 475.96875 454.480469 C 480.777344 454.394531 482.523438 451.609375 482.523438 445.339844 L 482.523438 416.085938 C 482.523438 409.816406 480.777344 407.03125 475.96875 406.945312 L 475.96875 405.722656 L 495.289062 405.722656 C 507.792969 405.722656 514.4375 410.597656 514.4375 418.609375 "/>
<path fill-rule="nonzero" fill="rgb(13.729858%, 12.159729%, 12.548828%)" fill-opacity="1" d="M 529.210938 443.160156 L 530.433594 443.160156 C 531.046875 450.476562 536.03125 455.003906 542.761719 455.003906 C 548.796875 455.003906 553.167969 450.910156 553.167969 445.6875 C 553.167969 440.027344 548.796875 437.242188 541.625 432.800781 C 533.933594 428.097656 529.386719 424.53125 529.386719 417.304688 C 529.386719 410.078125 535.066406 404.503906 542.851562 404.503906 C 547.308594 404.503906 550.367188 406.246094 552.207031 406.246094 C 553.34375 406.246094 554.128906 405.550781 554.21875 404.503906 L 555.441406 404.503906 L 555.441406 415.824219 L 554.21875 415.824219 C 553.078125 409.640625 548.972656 406.160156 543.113281 406.160156 C 537.429688 406.160156 533.84375 409.382812 533.84375 414.082031 C 533.84375 417.652344 536.117188 421.222656 540.316406 423.835938 C 545.125 426.792969 549.496094 429.058594 552.730469 431.582031 C 556.316406 434.457031 558.414062 438.546875 558.414062 442.902344 C 558.414062 450.5625 551.769531 456.832031 543.113281 456.832031 C 538.390625 456.832031 535.066406 454.828125 532.53125 454.828125 C 531.398438 454.828125 530.523438 455.613281 530.433594 456.746094 L 529.210938 456.746094 Z M 529.210938 443.160156 "/>
<path fill-rule="nonzero" fill="rgb(13.729858%, 12.159729%, 12.548828%)" fill-opacity="1" d="M 75.792969 275.136719 L 75.792969 277 C 75.792969 277 82.929688 275.757812 82.929688 284.34375 L 82.929688 318.378906 C 82.929688 323.035156 85 332.550781 93.070312 337.414062 C 101.136719 342.277344 116.449219 339.171875 120.277344 337.414062 C 124.105469 335.65625 125.757812 333.691406 125.757812 333.691406 L 125.757812 338.449219 L 145.515625 338.449219 L 145.515625 336.691406 C 145.515625 336.691406 138.585938 337.515625 138.585938 330.171875 L 138.585938 283.105469 C 138.585938 279.378906 141.585938 276.585938 145.515625 276.898438 L 145.515625 275.136719 L 118.929688 275.136719 L 118.929688 276.898438 C 118.929688 276.898438 125.65625 276.484375 125.65625 284.449219 L 125.65625 325.828125 C 125.65625 325.828125 121.105469 332.34375 114.792969 334.929688 C 108.484375 337.515625 102.484375 334.929688 99.070312 330.585938 C 95.65625 326.242188 95.65625 320.136719 95.65625 317.65625 L 95.65625 284.449219 C 95.65625 278.964844 98.550781 277.207031 102.792969 277 L 102.792969 275.136719 Z M 75.792969 275.136719 "/>
<path fill-rule="nonzero" fill="rgb(13.729858%, 12.159729%, 12.548828%)" fill-opacity="1" d="M 173.808594 305.863281 L 173.808594 277.464844 L 178.308594 277.464844 C 181.878906 277.464844 190.878906 279.171875 192.585938 291.664062 C 194.292969 304 183.121094 309.742188 173.808594 305.863281 M 204.378906 286.777344 C 199.414062 276.535156 190.257812 275.136719 179.242188 275.136719 L 153.949219 275.136719 L 153.949219 276.84375 C 158.914062 276.84375 161.398438 280.414062 161.398438 284.136719 L 161.398438 329.136719 C 161.398438 337.363281 153.949219 336.585938 153.949219 336.585938 L 153.949219 338.449219 L 181.101562 338.449219 L 181.101562 336.605469 C 175.207031 336.605469 173.808594 333.015625 173.808594 328.671875 L 173.808594 309.277344 C 173.808594 309.277344 183.585938 309.894531 192.761719 308.65625 C 201.933594 307.414062 209.34375 297.015625 204.378906 286.777344 "/>
<path fill-rule="nonzero" fill="rgb(13.729858%, 12.159729%, 12.548828%)" fill-opacity="1" d="M 215.34375 321.898438 L 221.65625 321.898438 C 221.65625 321.898438 220.722656 330.484375 227.964844 334.929688 C 235.207031 339.378906 241.777344 336.742188 244.105469 331.308594 C 246.429688 325.878906 245.035156 320.914062 239.914062 316.414062 C 234.792969 311.914062 220.515625 305.707031 217.257812 297.636719 C 214 289.570312 216.484375 277.308594 227.964844 274.050781 C 237.277344 272.5 243.378906 274.308594 247.3125 276.484375 L 247.3125 274.621094 L 253 274.621094 L 253 289.101562 L 247.207031 289.101562 C 247.207031 289.101562 245.863281 279.898438 239.65625 277.464844 C 233.449219 275.035156 226.621094 277.414062 225.898438 284.34375 C 225.171875 291.277344 229.105469 294.691406 235.722656 298.929688 C 242.34375 303.171875 253 308.65625 255.898438 317.34375 C 258.792969 326.035156 252.792969 337.414062 243.277344 339.378906 C 233.757812 341.34375 222.898438 337.828125 221.863281 337 L 221.863281 338.449219 L 215.34375 338.449219 Z M 215.34375 321.898438 "/>
<path fill-rule="nonzero" fill="rgb(13.729858%, 12.159729%, 12.548828%)" fill-opacity="1" d="M 505.519531 321.898438 L 511.828125 321.898438 C 511.828125 321.898438 510.898438 330.484375 518.136719 334.929688 C 525.378906 339.378906 531.949219 336.742188 534.277344 331.308594 C 536.605469 325.878906 535.207031 320.914062 530.085938 316.414062 C 524.964844 311.914062 510.691406 305.707031 507.429688 297.636719 C 504.171875 289.570312 506.65625 277.308594 518.136719 274.050781 C 527.449219 272.5 533.550781 274.308594 537.484375 276.484375 L 537.484375 274.621094 L 543.171875 274.621094 L 543.171875 289.101562 L 537.378906 289.101562 C 537.378906 289.101562 536.035156 279.898438 529.828125 277.464844 C 523.621094 275.035156 516.792969 277.414062 516.070312 284.34375 C 515.34375 291.277344 519.277344 294.691406 525.898438 298.929688 C 532.519531 303.171875 543.171875 308.65625 546.070312 317.34375 C 548.964844 326.035156 542.964844 337.414062 533.449219 339.378906 C 523.929688 341.34375 513.070312 337.828125 512.035156 337 L 512.035156 338.449219 L 505.519531 338.449219 Z M 505.519531 321.898438 "/>
<path fill-rule="nonzero" fill="rgb(13.729858%, 12.159729%, 12.548828%)" fill-opacity="1" d="M 317.824219 273.042969 C 317.824219 273.042969 315.597656 275.449219 310.609375 275.449219 L 275.613281 275.449219 C 270.628906 275.449219 268.402344 273.042969 268.402344 273.042969 L 262.570312 273.042969 L 262.570312 287.320312 L 268.785156 287.320312 C 269.09375 281.265625 272.621094 278.164062 278.609375 278.164062 L 286.433594 278.164062 L 286.433594 330.070312 C 286.433594 337.207031 279.171875 336.429688 279.171875 336.429688 L 279.171875 338.34375 L 307.054688 338.34375 L 307.054688 336.429688 C 307.054688 336.429688 299.789062 337.207031 299.789062 330.070312 L 299.789062 278.164062 L 307.617188 278.164062 C 313.601562 278.164062 317.132812 281.265625 317.4375 287.320312 L 323.65625 287.320312 L 323.65625 273.042969 Z M 317.824219 273.042969 "/>
<path fill-rule="nonzero" fill="rgb(13.729858%, 12.159729%, 12.548828%)" fill-opacity="1" d="M 351.683594 308.757812 C 355.125 298.226562 358.519531 287.964844 358.519531 287.964844 C 358.519531 287.964844 361.910156 298.222656 365.417969 308.757812 Z M 386.136719 331.828125 C 384.585938 328 366.585938 274.621094 366.585938 274.621094 L 355.621094 274.621094 C 355.621094 274.621094 339.898438 322.207031 337.105469 329.964844 C 334.3125 337.722656 328.828125 336.585938 328.828125 336.585938 L 328.828125 338.34375 L 349.828125 338.34375 L 349.828125 336.585938 C 346.414062 336.585938 343.414062 335.449219 344.65625 330.792969 C 345.171875 328.851562 347.667969 321.085938 350.402344 312.691406 L 366.726562 312.691406 C 369.75 321.746094 372.550781 330.082031 373 331.207031 C 374.035156 333.792969 371.449219 336.484375 369.792969 336.484375 L 367.3125 336.484375 L 367.3125 338.34375 L 393.691406 338.34375 L 393.691406 336.644531 C 390.378906 336.703125 387.691406 335.65625 386.136719 331.828125 "/>
<path fill-rule="nonzero" fill="rgb(13.729858%, 12.159729%, 12.548828%)" fill-opacity="1" d="M 399.429688 275.058594 L 399.429688 277 C 399.429688 277 406.648438 276.378906 406.648438 283.984375 L 406.648438 329.914062 C 406.648438 335.035156 404.164062 336.351562 399.429688 336.507812 L 399.429688 338.34375 L 426.585938 338.34375 L 426.585938 336.585938 C 426.585938 336.585938 419.449219 337.671875 419.449219 329.992188 L 419.449219 284.449219 C 419.449219 279.328125 422.476562 277 426.585938 276.84375 L 426.585938 275.058594 Z M 399.429688 275.058594 "/>
<path fill-rule="nonzero" fill="rgb(13.729858%, 12.159729%, 12.548828%)" fill-opacity="1" d="M 453.277344 306.484375 L 453.277344 277.621094 L 456.378906 277.621094 C 461.5 277.621094 471.121094 281.191406 471.585938 291.277344 C 472.050781 301.363281 467.394531 307.257812 453.277344 306.484375 M 485.085938 324.328125 C 480.742188 315.792969 476.394531 311.292969 471.617188 306.703125 C 477.390625 306.300781 487.722656 300.742188 484.464844 288.949219 C 480.894531 275.605469 467.550781 275.0625 460.101562 275.0625 L 433.414062 275.0625 L 433.414062 276.691406 C 437.136719 276.691406 440.863281 279.484375 440.863281 285.222656 L 440.863281 327.898438 C 440.863281 337.671875 433.414062 336.429688 433.414062 336.429688 L 433.414062 338.34375 L 460.722656 338.34375 L 460.722656 336.429688 C 456.222656 336.429688 452.882812 333.949219 452.882812 326.65625 L 452.882812 308.757812 C 452.882812 308.757812 460.570312 308.964844 466.464844 317.5 C 472.363281 326.035156 480.742188 338.34375 480.742188 338.34375 L 497.964844 338.34375 L 497.964844 336.480469 C 494.242188 336.6875 489.429688 332.863281 485.085938 324.328125 "/>
<path fill-rule="nonzero" fill="rgb(55.865479%, 53.448486%, 38.638306%)" fill-opacity="1" d="M 558.273438 376.464844 L 63.792969 376.464844 L 63.792969 373.464844 L 558.273438 373.464844 Z M 558.273438 376.464844 "/>
</svg>
