<?xml version="1.0" standalone="no"?>
<!DOCTYPE svg PUBLIC "-//W3C//DTD SVG 20010904//EN"
 "http://www.w3.org/TR/2001/REC-SVG-20010904/DTD/svg10.dtd">
<svg version="1.0" xmlns="http://www.w3.org/2000/svg"
 width="1999.000000pt" height="2242.000000pt" viewBox="0 0 1999.000000 2242.000000"
 preserveAspectRatio="xMidYMid meet">
<metadata>
Created by potrace 1.16, written by Peter Selinger 2001-2019
</metadata>
<g transform="translate(0.000000,2242.000000) scale(0.100000,-0.100000)"
fill="#000000" stroke="none">
<path d="M14814 22385 c24 -116 67 -490 87 -750 18 -238 16 -772 -5 -990 -73
-796 -225 -1204 -801 -2146 -438 -716 -591 -1078 -699 -1659 -120 -640 -110
-1143 31 -1568 194 -587 629 -1059 1268 -1372 99 -49 189 -91 201 -94 20 -6
20 -4 -8 131 -16 75 -27 141 -25 146 5 15 157 -378 223 -578 426 -1286 475
-2696 138 -4005 -385 -1497 -1244 -2824 -2461 -3797 -1064 -851 -2350 -1379
-3693 -1517 -303 -31 -492 -39 -860 -33 -334 5 -503 16 -755 47 -1231 151
-2393 621 -3390 1368 -444 333 -876 746 -1236 1182 -887 1072 -1443 2404
-1584 3790 -51 513 -44 1132 20 1625 123 952 423 1837 901 2661 755 1303 1919
2347 3289 2952 712 315 1411 496 2225 579 222 22 1016 26 1230 5 485 -47 828
-106 1259 -218 139 -36 192 -45 260 -45 155 -1 299 54 409 156 205 189 255
480 126 726 -65 123 -176 224 -305 276 -129 52 -714 185 -1029 233 -484 75
-753 94 -1295 95 -466 0 -570 -5 -940 -45 -1176 -129 -2348 -528 -3370 -1148
-910 -552 -1716 -1282 -2359 -2137 -839 -1114 -1381 -2420 -1581 -3809 -51
-354 -73 -632 -81 -1026 -40 -1831 540 -3638 1641 -5116 258 -346 468 -588
799 -920 426 -425 783 -719 1261 -1039 1208 -808 2543 -1268 4015 -1385 74 -6
281 -13 460 -17 621 -11 1176 38 1780 158 2357 469 4416 1960 5612 4064 633
1114 993 2339 1069 3639 15 261 7 921 -15 1156 -55 593 -163 1161 -316 1669
-23 73 -39 134 -38 136 2 1 59 7 128 13 252 23 543 87 731 162 794 314 1698
1278 2183 2328 318 690 583 1814 671 2847 l5 60 -87 -91 c-463 -483 -1047
-915 -1513 -1120 -147 -65 -372 -137 -520 -168 -68 -14 -125 -24 -125 -23 -1
1 -19 81 -40 177 -156 720 -456 1470 -816 2042 -233 370 -655 927 -1014 1338
-282 322 -737 789 -984 1010 -78 69 -83 72 -77 45z"/>
<path d="M3060 10070 l0 -760 135 0 135 0 0 340 0 340 210 0 210 0 0 145 0
145 -210 0 -210 0 0 130 0 130 210 0 210 0 0 145 0 145 -345 0 -345 0 0 -760z"/>
<path d="M4290 10070 l0 -760 130 0 130 0 0 320 c0 176 4 320 8 320 5 0 78
-144 162 -320 l153 -320 148 0 148 0 -33 73 c-19 39 -66 140 -106 222 -40 83
-96 200 -125 262 l-54 112 54 31 c30 17 74 53 99 81 63 71 88 140 94 269 7
164 -28 270 -120 362 -86 86 -187 108 -494 108 l-194 0 0 -760z m478 446 c67
-35 92 -130 54 -206 -22 -46 -87 -69 -194 -70 l-78 0 0 151 0 151 93 -4 c61
-3 103 -10 125 -22z"/>
<path d="M5650 10070 l0 -760 130 0 130 0 0 760 0 760 -130 0 -130 0 0 -760z"/>
<path d="M6490 10070 c0 -494 3 -760 10 -760 13 0 74 -123 144 -288 110 -261
200 -566 243 -818 14 -83 18 -159 17 -319 -1 -248 -14 -338 -118 -775 -75
-318 -91 -408 -107 -580 -19 -211 5 -482 66 -755 46 -203 114 -369 213 -518
51 -78 198 -236 245 -266 24 -15 84 -26 237 -45 222 -28 489 -50 497 -42 3 2
-13 49 -35 103 -79 191 -134 403 -168 648 -14 100 -17 215 -18 690 -2 633 -6
681 -71 950 -168 697 -536 1402 -993 1905 l-77 85 80 -65 c104 -84 400 -380
497 -495 301 -361 556 -776 729 -1185 176 -419 219 -617 284 -1300 31 -326 47
-428 91 -598 59 -227 141 -413 263 -593 39 -57 77 -113 86 -123 13 -18 24 -19
132 -13 116 7 120 8 218 56 193 95 331 200 453 343 252 298 461 746 565 1218
53 236 62 332 61 655 0 309 -14 500 -55 790 -24 166 -88 497 -99 508 -4 5 -35
-45 -70 -110 -190 -364 -440 -692 -656 -864 -62 -49 -231 -159 -244 -159 -4 0
-34 44 -65 98 -194 326 -441 635 -693 865 -321 295 -963 715 -1447 949 l-100
48 323 0 322 0 0 145 0 145 -245 0 -245 0 0 195 0 195 245 0 245 0 0 145 0
145 -245 0 -245 0 0 130 0 130 245 0 245 0 0 145 0 145 -380 0 -380 0 0 -760z"/>
<path d="M7780 10070 l0 -760 135 0 135 0 2 479 3 479 280 -479 280 -478 133
-1 132 0 0 760 0 760 -135 0 -135 0 -2 -486 -3 -487 -285 487 -284 486 -128 0
-128 0 0 -760z"/>
<path d="M9480 10070 l0 -762 298 5 c238 3 309 8 357 21 152 43 279 160 354
328 83 185 99 453 40 668 -51 190 -175 357 -312 425 -116 57 -179 67 -474 72
l-263 5 0 -762z m505 455 c204 -54 305 -208 305 -470 0 -148 -30 -254 -97
-341 -60 -80 -164 -114 -345 -114 l-108 0 0 470 0 470 93 0 c51 0 119 -7 152
-15z"/>
<path d="M11100 10070 l0 -760 325 0 325 0 0 140 0 140 -190 0 -190 0 0 620 0
620 -135 0 -135 0 0 -760z"/>
<path d="M12140 10821 c0 -5 90 -202 200 -437 l200 -428 0 -323 0 -323 135 0
135 0 0 329 0 330 199 428 199 428 -141 3 c-77 1 -144 -1 -147 -5 -4 -4 -61
-124 -126 -265 -65 -142 -121 -254 -125 -250 -3 4 -59 123 -125 264 l-119 258
-142 0 c-79 0 -143 -4 -143 -9z"/>
</g>
</svg>
